<svg width="24" height="24" viewBox="0 0 24 24" fill="none" xmlns="http://www.w3.org/2000/svg">
<path d="M18.63 17.25C18.754 17.6265 18.786 18.0273 18.7233 18.4187C18.6607 18.8102 18.5052 19.181 18.27 19.5C18.0624 19.7967 17.7862 20.0388 17.465 20.206C17.1438 20.3731 16.787 20.4602 16.4249 20.46H7.57495C7.21287 20.4602 6.85607 20.3731 6.53487 20.206C6.21367 20.0388 5.93754 19.7967 5.72995 19.5C5.49633 19.1801 5.34189 18.8094 5.27931 18.4183C5.21673 18.0272 5.24779 17.6268 5.36995 17.25C5.7947 15.8117 6.6661 14.5459 7.85803 13.6358C9.04996 12.7257 10.5006 12.2184 11.9999 12.1875C13.4996 12.2173 14.9508 12.7241 16.143 13.6344C17.3351 14.5447 18.2062 15.8111 18.63 17.25ZM4.87495 14.775C4.12456 15.0359 3.44173 15.4607 2.87609 16.0186C2.31045 16.5764 1.87622 17.2533 1.60495 18C1.50658 18.2732 1.47634 18.5663 1.51685 18.8538C1.55737 19.1413 1.66741 19.4146 1.83745 19.65C2.01968 19.9033 2.25963 20.1096 2.53743 20.2518C2.81523 20.3939 3.12289 20.4679 3.43495 20.4675H4.58245L4.49995 20.3625C4.1306 19.8543 3.88647 19.2661 3.78742 18.6458C3.68837 18.0254 3.73721 17.3904 3.92995 16.7925C4.16018 16.0835 4.47761 15.4058 4.87495 14.775ZM22.395 18C22.1246 17.2528 21.6907 16.5754 21.1249 16.0174C20.5592 15.4594 19.8759 15.035 19.125 14.775C19.5197 15.4061 19.8346 16.0838 20.0625 16.7925C20.2539 17.3902 20.3027 18.0244 20.205 18.6443C20.1073 19.2642 19.8659 19.8526 19.5 20.3625L19.4325 20.4375H20.58C20.892 20.4379 21.1997 20.3639 21.4775 20.2218C21.7553 20.0796 21.9952 19.8733 22.1775 19.62C22.339 19.3863 22.4429 19.1177 22.4807 18.8361C22.5185 18.5545 22.4891 18.268 22.395 18ZM18 13.3125C18.445 13.3125 18.88 13.1805 19.25 12.9333C19.62 12.6861 19.9084 12.3347 20.0787 11.9235C20.249 11.5124 20.2935 11.06 20.2067 10.6235C20.1199 10.1871 19.9056 9.78618 19.5909 9.47151C19.2763 9.15684 18.8754 8.94255 18.4389 8.85573C18.0024 8.76892 17.55 8.81348 17.1389 8.98377C16.7278 9.15407 16.3764 9.44246 16.1291 9.81247C15.8819 10.1825 15.75 10.6175 15.75 11.0625C15.75 11.6592 15.987 12.2315 16.409 12.6535C16.8309 13.0754 17.4032 13.3125 18 13.3125ZM5.99995 13.3125C6.44496 13.3125 6.87997 13.1805 7.24998 12.9333C7.61999 12.6861 7.90838 12.3347 8.07868 11.9235C8.24898 11.5124 8.29353 11.06 8.20672 10.6235C8.1199 10.1871 7.90561 9.78618 7.59094 9.47151C7.27627 9.15684 6.87536 8.94255 6.4389 8.85573C6.00244 8.76892 5.55004 8.81348 5.13891 8.98377C4.72778 9.15407 4.37638 9.44246 4.12914 9.81247C3.88191 10.1825 3.74995 10.6175 3.74995 11.0625C3.74995 11.6592 3.987 12.2315 4.40896 12.6535C4.83092 13.0754 5.40321 13.3125 5.99995 13.3125ZM11.9999 11.0625C12.7416 11.0625 13.4667 10.8426 14.0833 10.4305C14.7 10.0185 15.1807 9.43279 15.4645 8.74756C15.7483 8.06234 15.8226 7.30834 15.6779 6.58091C15.5332 5.85348 15.176 5.1853 14.6516 4.66085C14.1272 4.1364 13.459 3.77925 12.7315 3.63456C12.0041 3.48986 11.2501 3.56412 10.5649 3.84795C9.87966 4.13178 9.29399 4.61243 8.88194 5.22911C8.46988 5.8458 8.24995 6.57082 8.24995 7.3125C8.24995 8.30706 8.64504 9.26089 9.3483 9.96415C10.0516 10.6674 11.0054 11.0625 11.9999 11.0625Z" fill="url(#paint0_linear_8908_237453)"/>
<defs>
<linearGradient id="paint0_linear_8908_237453" x1="11.998" y1="3.5625" x2="11.998" y2="20.4675" gradientUnits="userSpaceOnUse">
<stop stop-color="#B9B8C0"/>
<stop offset="1" stop-color="#57565A"/>
</linearGradient>
</defs>
</svg>
