<svg xmlns="http://www.w3.org/2000/svg" width="153" height="121" viewBox="0 0 153 121" fill="none">
  <g clip-path="url(#clip0_515_58042)">
    <path d="M94.0629 106.831L89.994 110.577L93.2276 105.151C90.68 100.531 86.5134 96.5385 86.5134 96.5385C86.5134 96.5385 77.8691 104.82 77.8691 111.33C77.8691 117.841 81.7393 120.114 86.5134 120.114C91.2874 120.114 95.1576 117.841 95.1576 111.33C95.1576 109.881 94.7287 108.345 94.0629 106.831Z" fill="#F2F2F2"/>
    <path d="M88.9478 110.78V111.101C88.9287 114.831 88.2997 117.741 87.0653 119.79C87.0479 119.82 87.0288 119.849 87.0113 119.879L86.8731 119.795L86.7413 119.712C88.1106 117.499 88.5951 114.371 88.6126 111.118C88.6142 111.013 88.6158 110.907 88.6142 110.8C88.6094 109.423 88.5252 108.03 88.3902 106.676C88.3807 106.572 88.3695 106.465 88.3584 106.359C88.171 104.573 87.9009 102.867 87.6245 101.385C87.6055 101.28 87.5848 101.175 87.5641 101.072C87.086 98.5651 86.5983 96.7494 86.4871 96.3475C86.4744 96.2982 86.4664 96.2712 86.4648 96.2649L86.6158 96.222L86.6174 96.2204L86.7698 96.1775C86.7714 96.1839 86.7984 96.2744 86.8429 96.4428C87.0129 97.0719 87.4545 98.7796 87.8882 101.032C87.9073 101.134 87.9279 101.239 87.947 101.344C88.1726 102.546 88.3934 103.89 88.5681 105.301C88.6126 105.655 88.6523 106.004 88.6873 106.349C88.7 106.456 88.7111 106.562 88.7206 106.667C88.8668 108.13 88.9425 109.501 88.9478 110.78Z" fill="white"/>
    <path d="M87.8885 101.032C87.7821 101.046 87.6741 101.061 87.5645 101.072C87.2668 101.102 86.9678 101.118 86.6685 101.118C85.3932 101.12 84.1338 100.835 82.983 100.286C82.9163 100.37 82.8496 100.454 82.7812 100.54C83.9918 101.131 85.3214 101.437 86.6685 101.436C86.988 101.436 87.3072 101.419 87.6248 101.385C87.7328 101.374 87.8409 101.359 87.9473 101.344C88.8259 101.217 89.6802 100.959 90.4811 100.576C90.4128 100.489 90.3461 100.403 90.2809 100.319C89.5229 100.673 88.7168 100.913 87.8885 101.032Z" fill="white"/>
    <path d="M88.687 106.349C88.5774 106.356 88.4677 106.359 88.3581 106.359C88.3248 106.36 88.2898 106.36 88.2565 106.36C86.8746 106.36 85.5132 106.026 84.2884 105.386C83.0636 104.747 82.0116 103.82 81.2222 102.686C81.1587 102.78 81.0952 102.873 81.0332 102.969C81.856 104.116 82.9404 105.051 84.1965 105.696C85.4526 106.341 86.8444 106.678 88.2565 106.678C88.301 106.678 88.3454 106.678 88.3899 106.676C88.5011 106.675 88.6107 106.672 88.7203 106.667C90.4165 106.58 92.0517 106.006 93.4305 105.015C93.3796 104.921 93.3288 104.827 93.2764 104.734C91.9364 105.707 90.3414 106.269 88.687 106.349Z" fill="white"/>
    <path d="M88.9473 110.78C88.8361 110.789 88.7249 110.796 88.6137 110.8C88.4946 110.805 88.3754 110.808 88.2563 110.808C86.3994 110.806 84.5932 110.203 83.1081 109.088C81.623 107.973 80.5388 106.408 80.0179 104.625C79.9464 104.754 79.8749 104.881 79.8066 105.01C80.3935 106.788 81.5258 108.336 83.0427 109.434C84.5595 110.532 86.3838 111.124 88.2563 111.126C88.3754 111.126 88.4946 111.124 88.6121 111.118C88.7249 111.115 88.8361 111.108 88.9473 111.101C91.1934 110.925 93.2888 109.902 94.8092 108.239C94.7758 108.122 94.7377 108.006 94.6996 107.888C93.2311 109.563 91.1677 110.601 88.9473 110.78Z" fill="white"/>
    <path d="M21.2906 42.5949C32.8075 42.5949 42.1437 33.2587 42.1437 21.7418C42.1437 10.2249 32.8075 0.888672 21.2906 0.888672C9.77376 0.888672 0.4375 10.2249 0.4375 21.7418C0.4375 33.2587 9.77376 42.5949 21.2906 42.5949Z" fill="#E4E4E4"/>
    <path d="M21.2897 39.1193C30.8871 39.1193 38.6673 31.3391 38.6673 21.7417C38.6673 12.1444 30.8871 4.36414 21.2897 4.36414C11.6923 4.36414 3.91211 12.1444 3.91211 21.7417C3.91211 31.3391 11.6923 39.1193 21.2897 39.1193Z" fill="#6C63FF"/>
    <path d="M76.6676 42.5949C88.1844 42.5949 97.5207 33.2587 97.5207 21.7418C97.5207 10.2249 88.1844 0.888672 76.6676 0.888672C65.1507 0.888672 55.8145 10.2249 55.8145 21.7418C55.8145 33.2587 65.1507 42.5949 76.6676 42.5949Z" fill="#E4E4E4"/>
    <path d="M76.6667 39.1193C86.264 39.1193 94.0443 31.3391 94.0443 21.7417C94.0443 12.1444 86.264 4.36414 76.6667 4.36414C67.0693 4.36414 59.2891 12.1444 59.2891 21.7417C59.2891 31.3391 67.0693 39.1193 76.6667 39.1193Z" fill="white"/>
    <path d="M132.045 42.5949C143.561 42.5949 152.898 33.2587 152.898 21.7418C152.898 10.2249 143.561 0.888672 132.045 0.888672C120.528 0.888672 111.191 10.2249 111.191 21.7418C111.191 33.2587 120.528 42.5949 132.045 42.5949Z" fill="#E4E4E4"/>
    <path d="M132.044 39.1193C141.641 39.1193 149.421 31.3391 149.421 21.7417C149.421 12.1444 141.641 4.36414 132.044 4.36414C122.446 4.36414 114.666 12.1444 114.666 21.7417C114.666 31.3391 122.446 39.1193 132.044 39.1193Z" fill="white"/>
    <path d="M19.8132 28.026C19.7821 28.026 19.751 28.0252 19.7199 28.0237C19.4451 28.0104 19.1763 27.9379 18.9322 27.811C18.688 27.6842 18.4742 27.506 18.3053 27.2887L15.6397 23.8615C15.3293 23.4615 15.1903 22.9547 15.253 22.4523C15.3158 21.9499 15.5753 21.4929 15.9746 21.1816L16.0705 21.107C16.4705 20.7966 16.9773 20.6576 17.4797 20.7203C17.9821 20.7831 18.4391 21.0426 18.7505 21.4419C18.9007 21.635 19.0909 21.7935 19.3081 21.9063C19.5252 22.0192 19.7642 22.0838 20.0086 22.0957C20.2531 22.1076 20.4972 22.0666 20.7243 21.9754C20.9514 21.8842 21.1561 21.745 21.3244 21.5674L26.737 15.8538C26.9095 15.6717 27.1161 15.5254 27.3452 15.4232C27.5742 15.321 27.8211 15.2649 28.0718 15.2581C28.3225 15.2514 28.5721 15.2941 28.8063 15.3837C29.0406 15.4734 29.2548 15.6084 29.4369 15.7809L29.5252 15.8646C29.8929 16.2129 30.1071 16.6931 30.1208 17.1993C30.1344 17.7056 29.9464 18.1966 29.5981 18.5643L21.1991 27.4296C21.0208 27.618 20.8059 27.7681 20.5676 27.8706C20.3293 27.9732 20.0726 28.026 19.8132 28.026Z" fill="white"/>
    <path d="M67.5146 17.5193H53.7891V5.58238C53.8032 4.84327 54.1098 4.13991 54.6417 3.6265C55.1736 3.11309 55.8873 2.83152 56.6265 2.84351H61.1889C64.6769 2.84351 67.5146 5.58268 67.5146 8.94957V17.5193Z" fill="#2F2E41"/>
    <path d="M72.5972 117.407L69.9917 117.407L68.752 107.357L72.5976 107.357L72.5972 117.407Z" fill="#FFB6B6"/>
    <path d="M73.2611 119.933L64.8594 119.933V119.826C64.8594 118.959 65.204 118.127 65.8173 117.514C66.4305 116.901 67.2623 116.556 68.1296 116.556L73.2613 116.556L73.2611 119.933Z" fill="#2F2E41"/>
    <path d="M48.5796 117.407L45.9739 117.407L44.7344 107.357L48.5801 107.357L48.5796 117.407Z" fill="#FFB6B6"/>
    <path d="M49.2435 119.933L40.8418 119.933V119.826C40.8419 118.959 41.1864 118.127 41.7997 117.514C42.413 116.901 43.2447 116.556 44.112 116.556L49.2437 116.556L49.2435 119.933Z" fill="#2F2E41"/>
    <path d="M51.7257 36.6646L50.0254 47.504L66.1781 47.7164L64.0527 37.3023L51.7257 36.6646Z" fill="#FFB6B6"/>
    <path d="M50.4951 44.8573L45.3505 58.5559L44.7129 115.325H49.0699L59.4842 69.714L69.0483 114.134H73.299L70.3235 64.1881C70.3235 64.1881 71.201 54.1633 66.7104 48.2478L65.6174 45.0899L50.4951 44.8573Z" fill="#2F2E41"/>
    <path d="M72.5611 55.5361C72.1113 55.4135 71.6939 55.1939 71.3383 54.8925C70.9826 54.5912 70.6973 54.2155 70.5026 53.792C70.3078 53.3685 70.2082 52.9075 70.2109 52.4413C70.2136 51.9752 70.3185 51.5153 70.5181 51.0941L63.6465 28.6909L68.7008 27.689L74.9856 49.6488C75.671 50.0311 76.1924 50.6515 76.4509 51.3925C76.7094 52.1336 76.6872 52.9437 76.3883 53.6694C76.0894 54.395 75.5348 54.9859 74.8294 55.33C74.124 55.674 73.3169 55.7474 72.5611 55.5361Z" fill="#FFB6B6"/>
    <path d="M63.4675 42.6507L52.3329 42.4358C52.0147 42.429 51.7074 42.3181 51.4582 42.1201C51.209 41.922 51.0316 41.6477 50.9532 41.3392C50.3563 38.9759 49.043 32.8168 49.7396 26.6824C49.8771 25.494 50.2515 24.3452 50.8407 23.3041C51.43 22.263 52.222 21.3506 53.17 20.621C54.1181 19.8913 55.2028 19.3593 56.3601 19.0562C57.5174 18.7532 58.7237 18.6853 59.9077 18.8566C61.1566 19.0355 62.3537 19.4763 63.4203 20.1503C64.4868 20.8243 65.3989 21.7162 66.0965 22.7674C66.7942 23.8187 67.2617 25.0056 67.4684 26.2502C67.675 27.4949 67.6162 28.7691 67.2958 29.9895C65.8942 35.312 65.1025 39.1198 64.9428 41.3074C64.9191 41.6237 64.7926 41.9236 64.5825 42.1612C64.3724 42.3988 64.0903 42.5611 63.7793 42.6233C63.6868 42.6417 63.5927 42.651 63.4984 42.6511C63.4881 42.6511 63.4778 42.651 63.4675 42.6507Z" fill="#E4E4E4"/>
    <path d="M29.6462 22.9721C29.713 23.1221 29.768 23.2772 29.8105 23.4359L43.7477 28.1718L46.4408 25.8192L50.5227 29.4194L46.1599 34.0477C45.8074 34.4216 45.3432 34.6711 44.8369 34.7587C44.3305 34.8463 43.8095 34.7673 43.3519 34.5336L28.4381 26.9157C27.8988 27.2465 27.2716 27.4053 26.6398 27.3709C26.008 27.3366 25.4017 27.1107 24.9014 26.7233C24.4012 26.3359 24.0307 25.8054 23.8393 25.2023C23.6479 24.5993 23.6447 23.9522 23.83 23.3473C24.0153 22.7423 24.3804 22.2081 24.8767 21.8157C25.3731 21.4233 25.9771 21.1914 26.6085 21.1506C27.2399 21.1099 27.8687 21.2624 28.4113 21.5877C28.954 21.9131 29.3847 22.396 29.6462 22.9721Z" fill="#FFB6B6"/>
    <path d="M43.7774 27.4165C43.7785 27.2246 43.8209 27.0351 43.9019 26.8611C43.9829 26.6871 44.1005 26.5326 44.2466 26.4082L49.3498 22.0612C49.9956 21.3211 50.9085 20.8674 51.8884 20.7995C52.8683 20.7317 53.835 21.0552 54.5767 21.6991C55.3183 22.3431 55.7743 23.2549 55.8446 24.2346C55.9149 25.2143 55.5938 26.1819 54.9516 26.9251L51.3175 32.5841C51.2138 32.7456 51.0765 32.8828 50.915 32.9865C50.7534 33.0901 50.5714 33.1577 50.3814 33.1847C50.1913 33.2117 49.9977 33.1974 49.8137 33.1428C49.6297 33.0882 49.4596 32.9945 49.3151 32.8683L44.2344 28.4307C44.0897 28.3044 43.974 28.1485 43.8951 27.9735C43.8163 27.7985 43.7761 27.6085 43.7774 27.4165Z" fill="#E4E4E4"/>
    <path d="M63.3396 34.3656C63.1698 34.2763 63.0212 34.1513 62.904 33.9993C62.7868 33.8473 62.7038 33.6718 62.6606 33.4848L61.1518 26.9531C60.7924 26.0391 60.8102 25.0199 61.2012 24.119C61.5921 23.2181 62.3244 22.509 63.2375 22.1472C64.1505 21.7854 65.1697 21.8005 66.0717 22.1891C66.9736 22.5777 67.6847 23.3081 68.0489 24.2202L71.3988 30.0519C71.4944 30.2183 71.553 30.4034 71.5706 30.5946C71.5882 30.7857 71.5644 30.9784 71.5009 31.1595C71.4373 31.3406 71.3355 31.5059 71.2023 31.644C71.0691 31.7822 70.9076 31.8901 70.729 31.9603L64.4503 34.4269C64.2716 34.4972 64.0799 34.5281 63.8883 34.5175C63.6966 34.5069 63.5094 34.4551 63.3396 34.3656Z" fill="#E4E4E4"/>
    <path d="M68.7414 4.00991C69.257 2.80301 68.3704 1.26738 66.7612 0.579981C65.152 -0.107415 63.4295 0.313723 62.914 1.52063C62.3984 2.72754 63.285 4.26318 64.8942 4.95057C66.5034 5.63797 68.2259 5.21682 68.7414 4.00991Z" fill="#2F2E41"/>
    <path d="M63.7478 12.9811C65.4693 9.83191 64.3119 5.88344 61.1628 4.16195C58.0136 2.44045 54.0651 3.59782 52.3436 6.747C50.6221 9.89618 51.7795 13.8446 54.9287 15.5661C58.0778 17.2876 62.0263 16.1303 63.7478 12.9811Z" fill="#FFB6B6"/>
    <path d="M61.6113 2.4212H54.1782C53.6333 2.41415 53.1058 2.61338 52.7016 2.97894C52.2974 3.3445 52.0464 3.84935 51.9988 4.39226C51.9796 4.68076 52.0198 4.97015 52.117 5.24247C52.2142 5.5148 52.3663 5.76426 52.5638 5.97541C52.7614 6.18656 53.0002 6.35489 53.2654 6.46997C53.5307 6.58506 53.8167 6.64445 54.1059 6.64446C54.6659 6.64446 55.203 6.86693 55.599 7.26294C55.995 7.65894 56.2175 8.19604 56.2175 8.75608V17.4138H67.8315V8.64135C67.8315 7.82451 67.6706 7.01567 67.358 6.261C67.0454 5.50634 66.5872 4.82064 66.0096 4.24304C65.432 3.66545 64.7463 3.20727 63.9916 2.89468C63.237 2.58209 62.4281 2.4212 61.6113 2.4212Z" fill="#2F2E41"/>
    <path d="M98.254 120.25H17.801C17.745 120.25 17.6913 120.228 17.6517 120.188C17.6121 120.149 17.5898 120.095 17.5898 120.039C17.5898 119.983 17.6121 119.929 17.6517 119.889C17.6913 119.85 17.745 119.828 17.801 119.828H98.254C98.31 119.828 98.3637 119.85 98.4033 119.889C98.4429 119.929 98.4652 119.983 98.4652 120.039C98.4652 120.095 98.4429 120.149 98.4033 120.188C98.3637 120.228 98.31 120.25 98.254 120.25Z" fill="#CACACA"/>
    <path d="M71 16L83 28" stroke="#FF5252" stroke-width="3.45455"/>
    <path d="M83 16L71 28" stroke="#FF5252" stroke-width="3.45455"/>
  </g>
  <defs>
    <clipPath id="clip0_515_58042">
      <rect width="152.459" height="120" fill="white" transform="translate(0.4375 0.25)"/>
    </clipPath>
  </defs>
</svg>