<svg width="25" height="24" viewBox="0 0 25 24" fill="none" xmlns="http://www.w3.org/2000/svg">
<g id="diversity_2_FILL0_wght400_GRAD0_opsz24 1" clip-path="url(#clip0_117_7852)">
<path id="Vector" d="M9.5 22.425C8.73333 22.425 8.04583 22.225 7.4375 21.825C6.82917 21.425 6.35833 20.875 6.025 20.175C5.75833 20.525 5.42083 20.7958 5.0125 20.9875C4.60417 21.1792 4.18333 21.275 3.75 21.275C2.9 21.275 2.1875 20.9833 1.6125 20.4C1.0375 19.8167 0.75 19.1083 0.75 18.275C0.75 17.5583 0.983333 16.9125 1.45 16.3375C1.91667 15.7625 2.50833 15.4333 3.225 15.35C2.99167 15.0167 2.8125 14.6625 2.6875 14.2875C2.5625 13.9125 2.5 13.5167 2.5 13.1C2.5 12.4333 2.67083 11.8083 3.0125 11.225C3.35417 10.6417 3.83333 10.1667 4.45 9.79999C4.53333 10.1 4.64583 10.4208 4.7875 10.7625C4.92917 11.1042 5.09167 11.4 5.275 11.65C5.04167 11.8333 4.85833 12.0542 4.725 12.3125C4.59167 12.5708 4.525 12.8417 4.525 13.125C4.525 14.0583 4.90833 14.6333 5.675 14.85C6.44167 15.0667 7.16667 15.2417 7.85 15.375L8.325 16.175C8.14167 16.7083 7.98333 17.1625 7.85 17.5375C7.71667 17.9125 7.65 18.25 7.65 18.55C7.65 19.05 7.82917 19.4875 8.1875 19.8625C8.54583 20.2375 8.98333 20.425 9.5 20.425C10.1333 20.425 10.6583 20.1417 11.075 19.575C11.4917 19.0083 11.8333 18.3417 12.1 17.575C12.3667 16.8083 12.5708 16.0333 12.7125 15.25C12.8542 14.4667 12.9667 13.8667 13.05 13.45L15 13.975C14.85 14.725 14.6667 15.5833 14.45 16.55C14.2333 17.5167 13.9292 18.4375 13.5375 19.3125C13.1458 20.1875 12.6292 20.925 11.9875 21.525C11.3458 22.125 10.5167 22.425 9.5 22.425ZM3.75 19.275C4.03333 19.275 4.27083 19.1792 4.4625 18.9875C4.65417 18.7958 4.75 18.5583 4.75 18.275C4.75 17.9917 4.65417 17.7542 4.4625 17.5625C4.27083 17.3708 4.03333 17.275 3.75 17.275C3.46667 17.275 3.22917 17.3708 3.0375 17.5625C2.84583 17.7542 2.75 17.9917 2.75 18.275C2.75 18.5583 2.84583 18.7958 3.0375 18.9875C3.22917 19.1792 3.46667 19.275 3.75 19.275ZM10.85 15.325C10.0833 14.6417 9.3875 14.0042 8.7625 13.4125C8.1375 12.8208 7.6 12.2458 7.15 11.6875C6.7 11.1292 6.35417 10.5708 6.1125 10.0125C5.87083 9.45415 5.75 8.87499 5.75 8.27499C5.75 7.19165 6.12083 6.27915 6.8625 5.53749C7.60417 4.79582 8.51667 4.42499 9.6 4.42499C9.66667 4.42499 9.725 4.42915 9.775 4.43749C9.825 4.44582 9.88333 4.44999 9.95 4.44999C9.88333 4.28332 9.83333 4.11665 9.8 3.94999C9.76667 3.78332 9.75 3.60832 9.75 3.42499C9.75 2.59165 10.0417 1.88332 10.625 1.29999C11.2083 0.716654 11.9167 0.424988 12.75 0.424988C13.5833 0.424988 14.2917 0.716654 14.875 1.29999C15.4583 1.88332 15.75 2.59165 15.75 3.42499C15.75 3.60832 15.7333 3.77915 15.7 3.93749C15.6667 4.09582 15.6167 4.25832 15.55 4.42499H15.9C16.9 4.42499 17.75 4.74582 18.45 5.38749C19.15 6.02915 19.5667 6.82499 19.7 7.77499C19.4 7.72499 19.0625 7.69999 18.6875 7.69999C18.3125 7.69999 17.9667 7.71665 17.65 7.74999C17.5333 7.36665 17.3208 7.04999 17.0125 6.79999C16.7042 6.54999 16.3333 6.42499 15.9 6.42499C15.3167 6.42499 14.8625 6.59582 14.5375 6.93749C14.2125 7.27915 13.7667 7.77499 13.2 8.42499H12.275C11.6917 7.74165 11.2375 7.23749 10.9125 6.91249C10.5875 6.58749 10.15 6.42499 9.6 6.42499C9.06667 6.42499 8.625 6.59999 8.275 6.94999C7.925 7.29999 7.75 7.74165 7.75 8.27499C7.75 8.65832 7.85833 9.05415 8.075 9.46249C8.29167 9.87082 8.59583 10.3042 8.9875 10.7625C9.37917 11.2208 9.85417 11.7083 10.4125 12.225C10.9708 12.7417 11.5917 13.3 12.275 13.9L10.85 15.325ZM12.75 4.42499C13.0333 4.42499 13.2708 4.32915 13.4625 4.13749C13.6542 3.94582 13.75 3.70832 13.75 3.42499C13.75 3.14165 13.6542 2.90415 13.4625 2.71249C13.2708 2.52082 13.0333 2.42499 12.75 2.42499C12.4667 2.42499 12.2292 2.52082 12.0375 2.71249C11.8458 2.90415 11.75 3.14165 11.75 3.42499C11.75 3.70832 11.8458 3.94582 12.0375 4.13749C12.2292 4.32915 12.4667 4.42499 12.75 4.42499ZM15.975 22.425C15.6083 22.425 15.2458 22.375 14.8875 22.275C14.5292 22.175 14.1833 22.0167 13.85 21.8C14.0333 21.5667 14.2167 21.2917 14.4 20.975C14.5833 20.6583 14.75 20.3667 14.9 20.1C15.0833 20.2167 15.2667 20.3 15.45 20.35C15.6333 20.4 15.8167 20.425 16 20.425C16.5333 20.425 16.9792 20.2375 17.3375 19.8625C17.6958 19.4875 17.875 19.0417 17.875 18.525C17.875 18.2083 17.8083 17.8667 17.675 17.5C17.5417 17.1333 17.3833 16.6833 17.2 16.15L17.675 15.35C18.375 15.2167 19.1042 15.0417 19.8625 14.825C20.6208 14.6083 21 14.0333 21 13.1C21 12.4333 20.7542 11.95 20.2625 11.65C19.7708 11.35 19.2333 11.2 18.65 11.2C17.95 11.2 17.1333 11.3333 16.2 11.6C15.2667 11.8667 14.175 12.2083 12.925 12.625L12.4 10.675C13.7 10.2583 14.8583 9.90832 15.875 9.62499C16.8917 9.34165 17.825 9.19999 18.675 9.19999C19.825 9.19999 20.8333 9.54165 21.7 10.225C22.5667 10.9083 23 11.8667 23 13.1C23 13.5167 22.9375 13.9125 22.8125 14.2875C22.6875 14.6625 22.5083 15.0167 22.275 15.35C22.9917 15.4333 23.5833 15.7625 24.05 16.3375C24.5167 16.9125 24.75 17.5583 24.75 18.275C24.75 19.1083 24.4625 19.8167 23.8875 20.4C23.3125 20.9833 22.6 21.275 21.75 21.275C21.3167 21.275 20.8958 21.1792 20.4875 20.9875C20.0792 20.7958 19.7417 20.525 19.475 20.175C19.1417 20.875 18.6708 21.425 18.0625 21.825C17.4542 22.225 16.7583 22.425 15.975 22.425ZM21.775 19.275C22.0583 19.275 22.2917 19.1792 22.475 18.9875C22.6583 18.7958 22.75 18.5583 22.75 18.275C22.75 17.9917 22.6542 17.75 22.4625 17.55C22.2708 17.35 22.0333 17.25 21.75 17.25C21.4667 17.25 21.2292 17.3458 21.0375 17.5375C20.8458 17.7292 20.75 17.9667 20.75 18.25C20.75 18.5333 20.85 18.775 21.05 18.975C21.25 19.175 21.4917 19.275 21.775 19.275Z" fill="#052439"/>
</g>
<defs>
<clipPath id="clip0_117_7852">
<rect width="24" height="24" fill="white" transform="translate(0.75)"/>
</clipPath>
</defs>
</svg>
