<svg xmlns="http://www.w3.org/2000/svg" width="196" height="129" viewBox="0 0 196 129" fill="none">
  <g clip-path="url(#clip0_8377_31135)">
    <path d="M187.778 86.3295C186.371 87.8661 184.627 89.01 182.734 89.8981H182.732C182.554 89.9826 182.375 90.0648 182.195 90.1424H182.193L182.191 90.1447L182.188 90.1424H182.186L182.186 90.1433L182.185 90.1441L182.185 90.1446L182.184 90.1447H182.181L182.179 90.1424C182.177 90.1447 182.177 90.1447 182.175 90.1424L182.172 90.1447L182.17 90.1424H182.168C182.165 90.1447 182.165 90.1447 182.163 90.1424H182.161C180.894 90.6904 179.593 91.1557 178.266 91.5352C170.462 93.7492 162.259 94.1776 154.267 92.7887C154.114 92.7613 153.964 92.7339 153.811 92.7065V74.1875C153.961 74.1236 154.114 74.0597 154.267 73.998C155.265 73.5848 156.275 73.205 157.297 72.8587C158.767 72.3564 160.258 71.9257 161.77 71.5664C166.701 70.3729 171.789 69.9615 176.848 70.3472C177.768 70.4157 178.686 70.5147 179.601 70.644C181.517 70.9112 183.526 71.3769 185.293 72.1852H185.296C185.554 72.3062 185.807 72.4318 186.058 72.5665C187.629 73.4181 188.953 74.5894 189.762 76.1945C190.052 76.7709 190.261 77.3849 190.383 78.0187V78.0233C190.428 78.2425 190.46 78.464 190.485 78.6831C190.773 81.3864 189.652 84.2792 187.778 86.3295Z" fill="#F2F2F2"/>
    <path d="M190.485 78.6842C190.463 78.6897 190.44 78.6928 190.417 78.6933C186.506 78.8645 182.6 79.1187 178.7 79.4559H178.693C178.677 79.4582 178.663 79.4582 178.647 79.4605C174.642 79.8075 170.646 80.2421 166.658 80.7641C166.489 80.787 166.322 80.8098 166.156 80.8304C163.398 81.198 160.645 81.6059 157.897 82.0541C156.685 82.2528 155.475 82.4598 154.267 82.6752C154.114 82.7026 153.964 82.7277 153.811 82.7574V82.0656C153.964 82.0359 154.116 82.0108 154.267 81.9834C158.29 81.271 162.327 80.6492 166.377 80.118C167.395 79.981 168.415 79.8516 169.437 79.7299C172.386 79.3737 175.341 79.0662 178.3 78.8074C178.517 78.7892 178.731 78.7709 178.948 78.7527C182.736 78.4307 186.529 78.1864 190.328 78.0198C190.346 78.0189 190.365 78.0205 190.383 78.0243C190.748 78.0563 190.826 78.6043 190.485 78.6842Z" fill="white"/>
    <path d="M182.363 89.4692C177.491 89.505 172.691 87.439 169.245 84.0194C168.272 83.0508 167.415 81.9728 166.691 80.807C166.459 80.4344 165.915 80.8452 166.146 81.2146C168.822 85.5071 173.28 88.5649 178.196 89.6892C179.592 90.0055 181.02 90.1583 182.451 90.1445C182.888 90.1413 182.797 89.466 182.363 89.4692Z" fill="white"/>
    <path d="M161.77 71.5664C161.749 71.6306 161.711 71.6882 161.661 71.7335C161.611 71.7787 161.55 71.8101 161.484 71.8244C160.368 72.117 159.289 72.5384 158.27 73.0802C156.781 73.8663 155.43 74.8879 154.267 76.1054C154.206 76.167 154.146 76.2287 154.089 76.2926C153.993 76.3931 153.902 76.4958 153.811 76.6008V75.6054C153.957 75.4501 154.11 75.2971 154.267 75.151C155.185 74.2722 156.202 73.503 157.297 72.8587C158.767 72.3564 160.258 71.9256 161.77 71.5664Z" fill="white"/>
    <path d="M185.697 72.0061C182.598 73.3382 180.005 75.6247 178.295 78.5327C178.26 78.616 178.26 78.7095 178.294 78.793C178.328 78.8765 178.393 78.9433 178.476 78.9789C178.559 79.0118 178.652 79.0114 178.735 78.9777C178.818 78.944 178.885 78.8796 178.922 78.7979C180.554 76.0513 183.016 73.894 185.953 72.637C186.356 72.4648 186.101 71.8336 185.697 72.0061Z" fill="white"/>
    <path d="M195.04 52.6139C194.511 54.6277 193.495 56.4519 192.232 58.1164L192.23 58.1187C192.113 58.2739 191.992 58.4315 191.867 58.5821V58.5844C190.99 59.6644 190.044 60.6856 189.033 61.6416C185.401 65.1026 181.299 68.0334 176.848 70.3474C169.845 74.0051 162.019 76.1672 154.267 76.2905C154.208 76.2928 154.148 76.2928 154.089 76.2928C153.995 76.2951 153.902 76.2951 153.811 76.2951V65.918C153.959 65.6349 154.112 65.3518 154.267 65.071C156.282 61.4463 158.738 58.0856 161.58 55.066C161.649 54.9907 161.72 54.9154 161.79 54.8423C162.859 53.7144 163.979 52.6405 165.151 51.6207C169.66 47.6562 174.871 44.5703 180.515 42.5222C182.334 41.8692 184.33 41.3464 186.271 41.2436C186.556 41.2277 186.839 41.2208 187.125 41.2231C188.912 41.2482 190.627 41.6706 192.09 42.7163C192.615 43.0927 193.085 43.539 193.488 44.0428C193.629 44.2186 193.759 44.399 193.885 44.5839V44.5862C195.397 46.8466 195.748 49.9266 195.04 52.6139Z" fill="#F2F2F2"/>
    <path d="M193.885 44.5821V44.5844C193.868 44.5991 193.85 44.6121 193.83 44.6232C190.451 46.589 187.115 48.6264 183.821 50.7353C183.816 50.7376 183.814 50.7399 183.809 50.7421C183.796 50.7513 183.782 50.7597 183.768 50.7672C180.382 52.9363 177.044 55.1784 173.754 57.4935C173.617 57.5894 173.478 57.6876 173.339 57.7858C171.067 59.3908 168.819 61.0302 166.594 62.7038C162.393 65.8682 158.284 69.1499 154.267 72.5488C154.114 72.6767 153.964 72.8068 153.811 72.937V72.0488C153.961 71.9187 154.114 71.7885 154.267 71.6607C155.806 70.3616 157.359 69.0807 158.925 67.8181C159.393 67.4414 159.863 67.0646 160.334 66.6925C164.512 63.3659 168.784 60.1633 173.149 57.0848H173.151C174.01 56.4798 174.87 55.8801 175.731 55.2857C178.179 53.6007 180.654 51.956 183.156 50.3517C183.337 50.2353 183.519 50.1188 183.702 50.0024C186.905 47.9567 190.151 45.9779 193.438 44.0661C193.454 44.0564 193.47 44.048 193.488 44.041C193.83 43.904 194.152 44.3561 193.885 44.5821Z" fill="white"/>
    <path d="M191.704 57.911C187.406 60.206 182.196 60.6062 177.555 59.1788C176.244 58.7727 174.985 58.2161 173.802 57.5201C173.423 57.2981 173.132 57.9144 173.508 58.1345C177.872 60.6925 183.241 61.3293 188.116 60.0417C189.499 59.6733 190.834 59.1453 192.095 58.4683C192.481 58.2625 192.087 57.7066 191.704 57.911Z" fill="white"/>
    <path d="M159.546 66.2637C159.333 65.0684 159.26 63.8525 159.328 62.6404C159.482 59.8761 160.329 57.1948 161.79 54.8432C162.86 53.7157 163.98 52.6416 165.152 51.6211C165.163 51.6878 165.156 51.7563 165.133 51.8198C165.109 51.8832 165.07 51.9395 165.018 51.9829C164.165 52.7608 163.406 53.6348 162.755 54.5875C160.428 57.9826 159.52 62.1522 160.224 66.2072C160.236 66.2531 160.235 66.3013 160.223 66.347C160.21 66.3927 160.186 66.4344 160.153 66.4681C160.104 66.5106 160.045 66.5396 159.981 66.5522C159.918 66.5648 159.852 66.5606 159.791 66.5399C159.729 66.5192 159.674 66.4829 159.632 66.4344C159.589 66.3859 159.559 66.3271 159.546 66.2637Z" fill="white"/>
    <path d="M186.544 40.8961C184.418 43.5155 183.184 46.7449 183.021 50.1145C183.029 50.2042 183.072 50.2872 183.14 50.3454C183.209 50.4037 183.298 50.4324 183.388 50.4254C183.477 50.4159 183.559 50.3724 183.617 50.304C183.675 50.2355 183.704 50.1474 183.699 50.058C183.868 46.8676 185.047 43.8134 187.064 41.3359C187.341 40.9962 186.822 40.5557 186.544 40.8961Z" fill="white"/>
    <path d="M162.9 48.3981V48.4004C162.884 48.5968 162.866 48.7908 162.845 48.9849V48.9895C162.686 50.3709 162.438 51.7406 162.103 53.0901C161.943 53.7522 161.77 54.4098 161.58 55.0673C161.557 55.1518 161.532 55.2363 161.507 55.3185V55.3208C160.95 57.2332 160.283 59.1122 159.512 60.9488C158.092 64.3301 156.335 67.5597 154.267 70.5884C154.119 70.8099 153.966 71.0313 153.811 71.2505V35.4958C153.964 35.4867 154.114 35.4867 154.267 35.4913C154.34 35.4913 154.413 35.4936 154.486 35.4981C155.131 35.532 155.767 35.6557 156.377 35.8657C156.592 35.9365 156.799 36.0164 157.005 36.1055C159.496 37.1968 161.452 39.6033 162.302 42.2495C162.939 44.2313 163.067 46.3159 162.9 48.3981Z" fill="#F2F2F2"/>
    <path d="M157.005 36.1049C156.999 36.1273 156.991 36.1488 156.98 36.1689C156.055 37.9657 155.151 39.7717 154.267 41.5869C154.114 41.8996 153.961 42.2147 153.811 42.5275V40.975C153.961 40.6644 154.113 40.3539 154.267 40.0434C154.95 38.6598 155.644 37.2823 156.349 35.9108C156.357 35.8948 156.366 35.8796 156.377 35.8652C156.587 35.5638 157.107 35.7693 157.005 36.1049Z" fill="white"/>
    <path d="M162.973 48.7658C162.932 48.8389 162.891 48.912 162.845 48.985C162.175 50.1534 161.377 51.2438 160.466 52.2363C158.717 54.134 156.61 55.668 154.267 56.7501C154.116 56.8232 153.964 56.8917 153.811 56.9556V56.2136C153.964 56.1451 154.116 56.0743 154.267 56.0013C157.659 54.3835 160.476 51.7693 162.343 48.5078C162.37 48.4613 162.406 48.421 162.45 48.3899C162.494 48.3587 162.544 48.3373 162.597 48.3271C162.65 48.3169 162.704 48.3182 162.756 48.3309C162.809 48.3435 162.858 48.3673 162.9 48.4005C162.929 48.4197 162.953 48.4444 162.973 48.4731C162.992 48.5019 163.005 48.5341 163.012 48.568C163.019 48.602 163.019 48.6369 163.012 48.6708C163.006 48.7048 162.992 48.7371 162.973 48.7658Z" fill="white"/>
    <path d="M154.267 7.53451V24.8867H153.81V24.7018H1.06504V24.8867H0.608398V7.53451C0.610359 5.53684 1.4048 3.62154 2.81737 2.20897C4.22994 0.796402 6.14524 0.00196089 8.14291 0H146.732C148.73 0.00196089 150.645 0.796402 152.058 2.20897C153.47 3.62154 154.265 5.53684 154.267 7.53451Z" fill="#6C63FF"/>
    <path d="M146.732 0H8.14291C6.14524 0.00196089 4.22994 0.796402 2.81737 2.20897C1.4048 3.62154 0.610359 5.53684 0.608398 7.53451V106.625C0.610359 108.622 1.4048 110.538 2.81737 111.95C4.22994 113.363 6.14524 114.157 8.14291 114.159H146.732C148.73 114.157 150.645 113.363 152.058 111.95C153.47 110.538 154.265 108.622 154.267 106.625V7.53451C154.265 5.53684 153.47 3.62154 152.058 2.20897C150.645 0.796402 148.73 0.00196089 146.732 0ZM153.81 106.625C153.808 108.501 153.061 110.3 151.734 111.627C150.408 112.954 148.609 113.7 146.732 113.703H8.14291C6.26648 113.7 4.46758 112.954 3.14074 111.627C1.8139 110.3 1.06743 108.501 1.06504 106.625V7.53451C1.06743 5.65808 1.8139 3.85919 3.14074 2.53235C4.46758 1.2055 6.26648 0.459031 8.14291 0.456637H146.732C148.609 0.459032 150.408 1.2055 151.734 2.53235C153.061 3.85919 153.808 5.65808 153.81 7.53451V106.625Z" fill="#3F3D56"/>
    <path d="M31.6601 17.0117C34.1821 17.0117 36.2265 14.9672 36.2265 12.4453C36.2265 9.92334 34.1821 7.87891 31.6601 7.87891C29.1382 7.87891 27.0938 9.92334 27.0938 12.4453C27.0938 14.9672 29.1382 17.0117 31.6601 17.0117Z" fill="white"/>
    <path d="M123.216 17.0117C125.738 17.0117 127.782 14.9672 127.782 12.4453C127.782 9.92334 125.738 7.87891 123.216 7.87891C120.694 7.87891 118.649 9.92334 118.649 12.4453C118.649 14.9672 120.694 17.0117 123.216 17.0117Z" fill="white"/>
    <path d="M44.8528 63.3601H17.6883C16.5375 63.3588 15.4342 62.9011 14.6204 62.0873C13.8067 61.2736 13.349 60.1703 13.3477 59.0195V46.1805C13.349 45.0297 13.8067 43.9264 14.6204 43.1126C15.4342 42.2989 16.5375 41.8411 17.6883 41.8398H44.8528C46.0036 41.8411 47.1069 42.2989 47.9207 43.1126C48.7344 43.9264 49.1922 45.0297 49.1935 46.1805V59.0195C49.1922 60.1703 48.7344 61.2736 47.9207 62.0873C47.1069 62.9011 46.0036 63.3588 44.8528 63.3601Z" fill="#6C63FF"/>
    <path d="M91.0647 63.3601H63.9002C62.7494 63.3588 61.6461 62.9011 60.8324 62.0873C60.0186 61.2736 59.5609 60.1703 59.5596 59.0195V46.1805C59.5609 45.0297 60.0186 43.9264 60.8324 43.1126C61.6461 42.2989 62.7494 41.8411 63.9002 41.8398H91.0647C92.2155 41.8411 93.3188 42.2989 94.1326 43.1126C94.9463 43.9264 95.4041 45.0297 95.4054 46.1805V59.0195C95.4041 60.1703 94.9463 61.2736 94.1326 62.0873C93.3188 62.9011 92.2155 63.3588 91.0647 63.3601Z" fill="#6C63FF"/>
    <path d="M91.0644 96.5335H63.8999C62.7142 96.5321 61.5775 96.0606 60.7391 95.2221C59.9007 94.3837 59.4291 93.247 59.4277 92.0613V79.2222C59.4291 78.0365 59.9007 76.8998 60.7391 76.0613C61.5775 75.2229 62.7142 74.7513 63.8999 74.75H91.0644C92.2501 74.7513 93.3869 75.2229 94.2253 76.0613C95.0637 76.8998 95.5353 78.0365 95.5366 79.2222V92.0613C95.5353 93.247 95.0637 94.3837 94.2253 95.2221C93.3869 96.0605 92.2501 96.5321 91.0644 96.5335Z" fill="#F2F2F2"/>
    <path d="M44.7636 96.5335H17.5991C16.4135 96.5321 15.2767 96.0605 14.4383 95.2221C13.5999 94.3837 13.1283 93.247 13.127 92.0613V79.2222C13.1283 78.0365 13.5999 76.8998 14.4383 76.0614C15.2767 75.2229 16.4135 74.7513 17.5991 74.75H44.7636C45.9493 74.7513 47.0861 75.2229 47.9245 76.0613C48.7629 76.8998 49.2345 78.0365 49.2358 79.2222V92.0613C49.2345 93.247 48.7629 94.3837 47.9245 95.2221C47.0861 96.0605 45.9493 96.5321 44.7636 96.5335Z" fill="#F2F2F2"/>
    <path d="M137.275 96.5335H110.111C108.925 96.5321 107.788 96.0605 106.95 95.2221C106.112 94.3837 105.64 93.247 105.639 92.0613V79.2222C105.64 78.0365 106.112 76.8998 106.95 76.0613C107.788 75.2229 108.925 74.7513 110.111 74.75H137.275C138.461 74.7513 139.598 75.2229 140.436 76.0613C141.275 76.8998 141.746 78.0365 141.748 79.2222V92.0613C141.746 93.247 141.275 94.3837 140.436 95.2221C139.598 96.0605 138.461 96.5321 137.275 96.5335Z" fill="#F2F2F2"/>
    <path d="M137.275 63.385H110.111C108.925 63.3837 107.788 62.9121 106.95 62.0737C106.112 61.2353 105.64 60.0985 105.639 58.9129V46.0738C105.64 44.8881 106.112 43.7513 106.95 42.9129C107.788 42.0745 108.925 41.6029 110.111 41.6016H137.275C138.461 41.6029 139.598 42.0745 140.436 42.9129C141.275 43.7513 141.746 44.8881 141.748 46.0738V58.9128C141.746 60.0985 141.275 61.2353 140.436 62.0737C139.598 62.9121 138.461 63.3837 137.275 63.385Z" fill="#F2F2F2"/>
    <path d="M31.2713 59.9663C35.3394 59.9663 38.6372 56.6685 38.6372 52.6004C38.6372 48.5322 35.3394 45.2344 31.2713 45.2344C27.2031 45.2344 23.9053 48.5322 23.9053 52.6004C23.9053 56.6685 27.2031 59.9663 31.2713 59.9663Z" fill="white"/>
    <path d="M77.614 59.857C81.6821 59.857 84.98 56.5591 84.98 52.491C84.98 48.4229 81.6821 45.125 77.614 45.125C73.5459 45.125 70.248 48.4229 70.248 52.491C70.248 56.5591 73.5459 59.857 77.614 59.857Z" fill="white"/>
    <path d="M127.396 87.2523C127.638 86.9877 127.819 86.6732 127.926 86.3311C128.034 85.9889 128.065 85.6274 128.017 85.272C127.97 84.9166 127.845 84.5759 127.651 84.274C127.458 83.972 127.201 83.7162 126.898 83.5244L122.785 61.5664L117.784 63.421L123.399 84.4218C123.111 84.9522 123.027 85.5699 123.163 86.158C123.3 86.746 123.648 87.2635 124.14 87.6124C124.633 87.9613 125.237 88.1173 125.837 88.0509C126.437 87.9846 126.992 87.7004 127.396 87.2523Z" fill="#A0616A"/>
    <path d="M87.4898 53.7463C87.5022 53.8827 87.5039 54.0198 87.4948 54.1564L97.2189 61.6406L99.9764 60.5082L102.229 64.4465L97.5424 66.9255C97.1637 67.1258 96.7303 67.1979 96.3073 67.1309C95.8842 67.0639 95.4943 66.8614 95.196 66.554L85.4763 56.5332C84.9618 56.6493 84.4241 56.6059 83.9349 56.4089C83.4456 56.212 83.0279 55.8707 82.7373 55.4305C82.4468 54.9904 82.2971 54.4722 82.3082 53.9449C82.3193 53.4176 82.4907 52.9061 82.7996 52.4786C83.1084 52.0511 83.5402 51.7277 84.0373 51.5515C84.5344 51.3754 85.0734 51.3547 85.5826 51.4923C86.0917 51.6299 86.5469 51.9193 86.8876 52.3219C87.2283 52.7246 87.4383 53.2214 87.4898 53.7463Z" fill="#A0616A"/>
    <path d="M110.208 126.224H107.409L106.077 117.711L110.209 117.711L110.208 126.224Z" fill="#A0616A"/>
    <path d="M110.922 128.94L101.896 128.94V128.825C101.896 128.364 101.987 127.907 102.164 127.481C102.34 127.055 102.599 126.668 102.925 126.341C103.252 126.015 103.639 125.756 104.065 125.58C104.491 125.403 104.948 125.312 105.41 125.313L110.922 125.313L110.922 128.94Z" fill="#2F2E41"/>
    <path d="M120.711 126.224H117.912L116.58 117.711L120.712 117.711L120.711 126.224Z" fill="#A0616A"/>
    <path d="M121.424 128.94L112.398 128.94V128.825C112.398 128.364 112.489 127.907 112.666 127.481C112.842 127.055 113.101 126.668 113.427 126.341C113.754 126.015 114.141 125.756 114.567 125.58C114.993 125.403 115.45 125.312 115.911 125.313L121.424 125.313L121.424 128.94Z" fill="#2F2E41"/>
    <path d="M106.827 124.544C106.572 124.544 106.325 124.449 106.136 124.277C105.947 124.105 105.829 123.868 105.805 123.614L103.366 90.8071L103.481 90.7977L120.268 89.418L120.272 89.5373L121.607 123.523C121.612 123.661 121.589 123.798 121.54 123.927C121.491 124.057 121.416 124.174 121.32 124.274C121.224 124.373 121.109 124.452 120.982 124.507C120.855 124.561 120.718 124.588 120.58 124.588H117.289C117.043 124.59 116.805 124.502 116.618 124.342C116.432 124.182 116.309 123.96 116.273 123.717L111.803 96.2631C111.799 96.2347 111.784 96.209 111.762 96.1912C111.739 96.1733 111.711 96.1645 111.682 96.1666C111.654 96.1687 111.627 96.1815 111.607 96.2024C111.588 96.2233 111.577 96.2509 111.576 96.2796L111.374 123.386C111.372 123.648 111.27 123.899 111.089 124.089C110.908 124.278 110.662 124.391 110.4 124.405L106.882 124.542C106.864 124.543 106.845 124.544 106.827 124.544Z" fill="#2F2E41"/>
    <path d="M109.693 49.3444C112.79 49.3444 115.3 46.8337 115.3 43.7366C115.3 40.6396 112.79 38.1289 109.693 38.1289C106.596 38.1289 104.085 40.6396 104.085 43.7366C104.085 46.8337 106.596 49.3444 109.693 49.3444Z" fill="#A0616A"/>
    <path d="M110.778 92.8989C108.327 92.8915 105.888 92.5582 103.524 91.9075C103.297 91.8413 103.099 91.6988 102.965 91.5039C102.83 91.309 102.767 91.0736 102.786 90.8375C103.541 79.4916 103.718 70.6868 102.131 64.5948C101.454 61.9984 101.761 59.2638 102.973 57.0923C104.798 53.8244 108.151 51.8354 111.727 51.9041C111.898 51.9073 112.071 51.9134 112.245 51.9223C117.673 52.2018 121.902 57.1121 121.673 62.8684L120.581 90.3051C120.577 90.5052 120.514 90.6998 120.4 90.8641C120.285 91.0284 120.125 91.1552 119.939 91.2284C117.01 92.3302 113.907 92.896 110.778 92.8989Z" fill="#3F3D56"/>
    <path d="M103.053 66.7003L98.8529 61.5529C98.7334 61.4065 98.6469 61.236 98.5992 61.0531C98.5515 60.8701 98.5438 60.6791 98.5766 60.4929C98.6094 60.3068 98.682 60.1299 98.7893 59.9743C98.8967 59.8187 99.0363 59.688 99.1986 59.5913L104.889 56.2007C105.641 55.5933 106.604 55.3093 107.566 55.4108C108.528 55.5124 109.411 55.9912 110.02 56.7424C110.629 57.4936 110.916 58.4558 110.817 59.4179C110.718 60.3801 110.241 61.2637 109.492 61.875L105.045 66.7549C104.917 66.8946 104.761 67.0052 104.587 67.0791C104.413 67.1531 104.225 67.1887 104.037 67.1835C103.848 67.1783 103.662 67.1325 103.492 67.0491C103.323 66.9657 103.173 66.8467 103.053 66.7003Z" fill="#3F3D56"/>
    <path d="M116.268 66.0556C116.096 65.9784 115.942 65.8649 115.817 65.7228C115.692 65.5807 115.6 65.4134 115.546 65.2323L113.655 58.9067C113.244 58.0307 113.198 57.0278 113.526 56.1177C113.854 55.2077 114.529 54.4649 115.404 54.0522C116.279 53.6396 117.282 53.5907 118.193 53.9165C119.104 54.2422 119.848 54.9159 120.263 55.7898L123.92 61.3124C124.024 61.47 124.093 61.6483 124.123 61.8351C124.152 62.0218 124.141 62.2127 124.089 62.3947C124.038 62.5766 123.949 62.7454 123.826 62.8896C123.704 63.0337 123.552 63.1498 123.381 63.23L117.364 66.0465C117.192 66.1268 117.006 66.1691 116.817 66.1707C116.628 66.1723 116.441 66.133 116.268 66.0556Z" fill="#3F3D56"/>
    <path d="M112.463 48.3403L108.307 47.3889C107.878 47.2907 107.363 47.1035 107.303 46.6677C107.223 46.082 108.066 45.674 107.988 45.088C107.913 44.5205 107.145 44.4473 106.598 44.2798C106.088 44.101 105.668 43.7307 105.426 43.2475C105.184 42.7642 105.14 42.2059 105.303 41.6906C104.711 42.5253 103.357 42.5968 102.589 41.9206C101.821 41.2443 101.673 40.0173 102.135 39.1036C102.384 38.6548 102.736 38.2712 103.161 37.984C103.586 37.6967 104.074 37.5139 104.583 37.4505C105.607 37.3343 106.643 37.5274 107.557 38.0048C107.617 37.3579 108.425 37.0956 109.075 37.0898C110.425 37.1056 111.736 37.5417 112.826 38.3375C113.916 39.1332 114.732 40.2491 115.158 41.5298C115.955 44.0989 115.422 46.915 113.191 48.4182L112.463 48.3403Z" fill="#2F2E41"/>
    <path d="M154.332 129H67.3426C67.282 129 67.224 128.976 67.1811 128.933C67.1383 128.89 67.1143 128.832 67.1143 128.771C67.1143 128.711 67.1383 128.653 67.1811 128.61C67.224 128.567 67.282 128.543 67.3426 128.543H154.332C154.393 128.543 154.451 128.567 154.493 128.61C154.536 128.653 154.56 128.711 154.56 128.771C154.56 128.832 154.536 128.89 154.493 128.933C154.451 128.976 154.393 129 154.332 129Z" fill="#3F3D56"/>
  </g>
  <defs>
    <clipPath id="clip0_8377_31135">
      <rect width="194.783" height="129" fill="white" transform="translate(0.608398)"/>
    </clipPath>
  </defs>
</svg>