<svg xmlns="http://www.w3.org/2000/svg" width="24" height="24" viewBox="0 0 24 24" fill="none">
  <path d="M11.007 9.81412L10.051 12.6831C9.99522 12.859 9.98886 13.0469 10.0326 13.2262C10.0764 13.4055 10.1686 13.5693 10.2991 13.6998C10.4297 13.8302 10.5936 13.9223 10.7729 13.9659C10.9522 14.0095 11.1401 14.003 11.316 13.9471L14.185 12.9911C14.3318 12.9418 14.4653 12.8594 14.575 12.7501L21.311 6.01412C21.7518 5.57274 21.9994 4.97443 21.9994 4.35062C21.9994 3.7268 21.7518 3.12849 21.311 2.68712C20.8694 2.24708 20.2714 2 19.648 2C19.0246 2 18.4266 2.24708 17.985 2.68712L11.249 9.42412C11.1392 9.5336 11.0563 9.66711 11.007 9.81412Z" fill="#052439"/>
  <path d="M21 9C20.7348 9 20.4804 9.10536 20.2929 9.29289C20.1054 9.48043 20 9.73478 20 10V17C20 17.7956 19.6839 18.5587 19.1213 19.1213C18.5587 19.6839 17.7956 20 17 20H7C6.20435 20 5.44129 19.6839 4.87868 19.1213C4.31607 18.5587 4 17.7956 4 17V7C4 6.20435 4.31607 5.44129 4.87868 4.87868C5.44129 4.31607 6.20435 4 7 4H14C14.2652 4 14.5196 3.89464 14.7071 3.70711C14.8946 3.51957 15 3.26522 15 3C15 2.73478 14.8946 2.48043 14.7071 2.29289C14.5196 2.10536 14.2652 2 14 2H7C5.67441 2.00159 4.40356 2.52888 3.46622 3.46622C2.52888 4.40356 2.00159 5.67441 2 7V17C2.00159 18.3256 2.52888 19.5964 3.46622 20.5338C4.40356 21.4711 5.67441 21.9984 7 22H17C18.3256 21.9984 19.5964 21.4711 20.5338 20.5338C21.4711 19.5964 21.9984 18.3256 22 17V10C22 9.73478 21.8946 9.48043 21.7071 9.29289C21.5196 9.10536 21.2652 9 21 9Z" fill="#052439"/>
</svg>