<svg width="302" height="191" viewBox="0 0 302 191" fill="none" xmlns="http://www.w3.org/2000/svg">
<g clip-path="url(#clip0_7998_123919)">
<path d="M220.182 46.7713C220.182 65.0001 191.688 118.758 175.351 148.083C174.243 150.073 172.624 151.73 170.66 152.884C168.697 154.038 166.461 154.647 164.183 154.647C161.906 154.647 159.67 154.038 157.706 152.884C155.743 151.73 154.123 150.073 153.015 148.083C136.678 118.758 108.184 65.0001 108.184 46.7713C108.184 21.2164 133.256 0.5 164.183 0.5C195.11 0.5 220.182 21.2164 220.182 46.7713Z" fill="#6C63FF"/>
<path d="M164.446 76.7439C181.289 76.7439 194.943 63.09 194.943 46.247C194.943 29.404 181.289 15.75 164.446 15.75C147.603 15.75 133.949 29.404 133.949 46.247C133.949 63.09 147.603 76.7439 164.446 76.7439Z" fill="white"/>
<path d="M37.1841 73.8415C47.2723 73.8415 55.4505 65.6633 55.4505 55.575C55.4505 45.4868 47.2723 37.3086 37.1841 37.3086C27.0958 37.3086 18.9176 45.4868 18.9176 55.575C18.9176 65.6633 27.0958 73.8415 37.1841 73.8415Z" fill="#FF6584"/>
<path d="M164.183 190.499C188.603 190.499 208.399 188.97 208.399 187.085C208.399 185.2 188.603 183.672 164.183 183.672C139.763 183.672 119.967 185.2 119.967 187.085C119.967 188.97 139.763 190.499 164.183 190.499Z" fill="#6C63FF"/>
<path opacity="0.4" d="M33.4648 71.8177C34.3945 66.0888 30.504 60.691 24.775 59.7613C19.0461 58.8316 13.6483 62.7222 12.7186 68.4511C11.7889 74.18 15.6795 79.5779 21.4084 80.5075C27.1373 81.4372 32.5352 77.5467 33.4648 71.8177Z" fill="#6C63FF"/>
<path d="M268.955 124.345C186.198 93.3218 85.2634 123.566 26.9878 185.433C26.6566 185.78 26.3253 186.133 26.0046 186.485H25.116C25.4209 186.133 25.7364 185.78 26.0466 185.433C85.5315 118.86 185.125 92.3281 268.955 124.345Z" fill="#3F3D56"/>
<path d="M291.57 134.634C284.255 130.733 276.702 127.296 268.955 124.344C276.722 127.247 284.279 130.686 291.57 134.634Z" fill="#3F3D56"/>
<path opacity="0.4" d="M246.277 103.681C252.643 103.681 257.803 98.5203 257.803 92.1547C257.803 85.7892 252.643 80.6289 246.277 80.6289C239.912 80.6289 234.751 85.7892 234.751 92.1547C234.751 98.5203 239.912 103.681 246.277 103.681Z" fill="#6C63FF"/>
<path d="M247.56 180.81C248.451 184.103 251.502 186.142 251.502 186.142C251.502 186.142 253.109 182.843 252.218 179.55C251.327 176.258 248.276 174.219 248.276 174.219C248.276 174.219 246.67 177.518 247.56 180.81Z" fill="#3F3D56"/>
<path d="M248.869 180.103C251.313 182.482 251.612 186.139 251.612 186.139C251.612 186.139 247.948 185.939 245.504 183.56C243.06 181.181 242.761 177.523 242.761 177.523C242.761 177.523 246.425 177.724 248.869 180.103Z" fill="#6C63FF"/>
<path d="M2.15364 135.033V140.112L1.90125 140.386V134.98C1.98537 134.996 2.06953 135.017 2.15364 135.033Z" fill="#3F3D56"/>
<path d="M18.3381 185.432C18.2645 185.553 18.1856 185.674 18.1067 185.795H1.90125V135.285L2.15364 135.033L4.3042 137.478V133.902H11.1397V145.249L18.0436 153.089L18.1067 153.163C18.1908 153.426 18.2697 153.689 18.3486 153.951C18.3491 153.955 18.351 153.959 18.3538 153.962C19.3892 157.275 20.2389 160.644 20.8988 164.052C22.4026 172.092 22.1765 179.464 18.3381 185.432Z" fill="#CCCCCC"/>
<path d="M7.59139 162.949H3.2406V166.575H7.59139V162.949Z" fill="#3F3D56"/>
<path d="M7.59139 169.477H3.2406V173.102H7.59139V169.477Z" fill="#3F3D56"/>
<path d="M141.613 156.061L139.438 152.436L159.741 135.033C174.752 127.808 192.846 129.892 211.951 135.033V140.108L193.098 160.413L171.343 164.763L141.613 156.061Z" fill="#3F3D56"/>
<path d="M220.938 145.248C224.544 141.237 225.045 137.424 220.938 133.902H214.103V137.48L211.951 135.035L194.548 152.438L191.647 155.339L188.022 169.841L194.548 185.794H227.904V153.163L220.938 145.248Z" fill="#CCCCCC"/>
<path d="M139.438 152.438H194.548V185.794H139.438C132.771 178.58 136.234 165.433 139.438 152.438Z" fill="#F2F2F2"/>
<path d="M186.934 162.949H175.332V173.101H186.934V162.949Z" fill="#3F3D56"/>
<path d="M170.619 162.59H160.467V185.794H170.619V162.59Z" fill="#CCCCCC"/>
<path d="M148.865 166.215V162.59H144.514V166.215H148.502H148.865Z" fill="#3F3D56"/>
<path d="M148.502 169.113H144.514V172.739H148.865V169.113H148.502Z" fill="#3F3D56"/>
<path d="M156.116 162.59H151.765V166.216H156.116V162.59Z" fill="#3F3D56"/>
<path d="M156.116 169.113H151.765V172.739H156.116V169.113Z" fill="#3F3D56"/>
<path d="M210.138 166.575V162.949H205.787V166.575H209.776H210.138Z" fill="#3F3D56"/>
<path d="M209.776 169.477H205.787V173.102H210.138V169.477H209.776Z" fill="#3F3D56"/>
<path d="M217.389 162.949H213.039V166.575H217.389V162.949Z" fill="#3F3D56"/>
<path d="M217.389 169.477H213.039V173.102H217.389V169.477Z" fill="#3F3D56"/>
<path d="M43.4854 95.1503L39.86 92.2494L60.1636 74.1211H111.648V90.0742L78.292 112.554L43.4854 95.1503Z" fill="#3F3D56"/>
<path d="M121.035 84.2903V74.4834H114.199V76.8853L111.648 74.1211L94.9696 92.2494L88.4438 96.6005L78.3246 170.531L93.5852 185.792H129.051C134.485 158.456 138.794 130.374 129.051 92.9745L121.035 84.2903Z" fill="#CCCCCC"/>
<path d="M39.8597 92.25H94.9697V185.792H39.8597C33.8291 149.452 30.8838 115.751 39.8597 92.25Z" fill="#F2F2F2"/>
<path d="M71.4029 162.949H61.2511V185.791H71.4029V162.949Z" fill="#CCCCCC"/>
<path d="M50.3741 169.477V165.852H46.0236V169.477H50.0118H50.3741Z" fill="#3F3D56"/>
<path d="M50.0118 172.379H46.0236V176.005H50.3741V172.379H50.0118Z" fill="#3F3D56"/>
<path d="M57.6254 165.852H53.2747V169.477H57.6254V165.852Z" fill="#3F3D56"/>
<path d="M79.7422 172.379H75.7539V176.005H80.1045V172.379H79.7422Z" fill="#3F3D56"/>
<path d="M87.3559 165.852H83.0051V169.477H87.3559V165.852Z" fill="#3F3D56"/>
<path d="M87.3559 172.379H83.0051V176.005H87.3559V172.379Z" fill="#3F3D56"/>
<path d="M110.56 96.9653V93.3398H106.209V96.9653H110.198H110.56Z" fill="#3F3D56"/>
<path d="M110.198 99.8633H106.209V103.489H110.56V99.8633H110.198Z" fill="#3F3D56"/>
<path d="M117.811 93.3359H113.461V96.9616H117.811V93.3359Z" fill="#3F3D56"/>
<path d="M117.811 99.8633H113.461V103.489H117.811V99.8633Z" fill="#3F3D56"/>
<path d="M110.56 117.267V113.641H106.209V117.267H110.198H110.56Z" fill="#3F3D56"/>
<path d="M110.198 120.168H106.209V123.793H110.56V120.168H110.198Z" fill="#3F3D56"/>
<path d="M117.811 113.641H113.461V117.266H117.811V113.641Z" fill="#3F3D56"/>
<path d="M117.811 120.168H113.461V123.794H117.811V120.168Z" fill="#3F3D56"/>
<path d="M110.56 137.571V133.945H106.209V137.571H110.198H110.56Z" fill="#3F3D56"/>
<path d="M110.198 140.473H106.209V144.098H110.56V140.473H110.198Z" fill="#3F3D56"/>
<path d="M117.811 133.945H113.461V137.571H117.811V133.945Z" fill="#3F3D56"/>
<path d="M117.811 140.473H113.461V144.098H117.811V140.473Z" fill="#3F3D56"/>
<path d="M110.56 157.876V154.25H106.209V157.876H110.198H110.56Z" fill="#3F3D56"/>
<path d="M110.198 160.773H106.209V164.399H110.56V160.773H110.198Z" fill="#3F3D56"/>
<path d="M117.811 154.25H113.461V157.876H117.811V154.25Z" fill="#3F3D56"/>
<path d="M117.811 160.773H113.461V164.399H117.811V160.773Z" fill="#3F3D56"/>
<path d="M46.0233 96.9648H88.081V105.666C74.6002 101.946 60.5424 102.213 46.0233 105.666V96.9648Z" fill="#3F3D56"/>
<path d="M46.0233 114.367C59.15 118.235 73.1692 118.235 88.081 114.367V123.069H46.0233V114.367Z" fill="#3F3D56"/>
<path d="M46.0233 131.77H88.081V140.471C73.7478 135.894 59.7138 135.679 46.0233 140.471V131.77Z" fill="#3F3D56"/>
<path d="M46.0233 149.172C59.7396 154.458 73.7715 154.238 88.081 149.172V157.874H46.0233V149.172Z" fill="#3F3D56"/>
<path d="M272.062 134.055H301.613V148.294L298.973 149.119L290.192 151.86L276.416 148.669L262.656 145.48L255.389 143.797L251.761 142.454C254.779 138.313 260.269 135.056 272.062 134.055Z" fill="#3F3D56"/>
<path d="M301.613 142.457V185.795H251.761C251.745 185.768 251.735 185.744 251.719 185.717V185.714C251.707 185.684 251.693 185.655 251.677 185.627C250.899 184.06 250.201 182.498 249.584 180.94C244.352 167.753 244.92 154.915 251.761 142.457H301.613Z" fill="#F2F2F2"/>
<path d="M283.304 162.949H273.153V185.791H283.304V162.949Z" fill="#CCCCCC"/>
<path d="M262.276 169.477V165.852H257.925V169.477H261.913H262.276Z" fill="#3F3D56"/>
<path d="M261.913 172.379H257.925V176.005H262.276V172.379H261.913Z" fill="#3F3D56"/>
<path d="M269.527 165.852H265.176V169.477H269.527V165.852Z" fill="#3F3D56"/>
<path d="M269.527 172.379H265.176V176.005H269.527V172.379Z" fill="#3F3D56"/>
<path d="M292.006 169.477V165.852H287.655V169.477H291.644H292.006Z" fill="#3F3D56"/>
<path d="M291.644 172.379H287.655V176.005H292.006V172.379H291.644Z" fill="#3F3D56"/>
<path d="M299.257 165.852H294.906V169.477H299.257V165.852Z" fill="#3F3D56"/>
<path d="M299.257 172.379H294.906V176.005H299.257V172.379Z" fill="#3F3D56"/>
<path d="M262.657 117.23H268.907C275.071 117.23 280.982 119.679 285.341 124.038C289.7 128.396 292.148 134.308 292.148 140.472H262.657V117.23Z" fill="#3F3D56"/>
<path d="M73.3655 54.1328H79.6152C85.7792 54.1328 91.6908 56.5815 96.0495 60.9401C100.408 65.2988 102.857 71.2104 102.857 77.3744H73.3655V54.1328Z" fill="#3F3D56"/>
<path d="M173.269 112.496H179.519C185.683 112.496 191.595 114.945 195.953 119.303C200.312 123.662 202.761 129.574 202.761 135.738H173.269V112.496Z" fill="#3F3D56"/>
<path d="M292.148 149.172H262.657V157.873H292.148V149.172Z" fill="#3F3D56"/>
<path d="M301.613 185.434H1.90137V186.485H301.613V185.434Z" fill="#3F3D56"/>
<path d="M29.5436 143.891H28.4919V185.43H29.5436V143.891Z" fill="#3F3D56"/>
<path d="M39.2488 149.186C39.3158 163.711 29.0966 175.534 29.0966 175.534C29.0966 175.534 16.0095 163.555 18.7019 149.281C21.4096 134.926 29.8485 122.995 28.8541 122.934C28.8541 122.934 39.1819 134.661 39.2488 149.186Z" fill="#6C63FF"/>
<path d="M134.706 143.891H133.654V185.43H134.706V143.891Z" fill="#3F3D56"/>
<path d="M144.411 149.186C145.359 163.681 134.259 175.534 134.259 175.534C134.259 175.534 123.931 163.806 123.864 149.281C123.797 134.756 134.016 122.934 134.016 122.934C133.02 126.915 143.644 137.459 144.411 149.186Z" fill="#6C63FF"/>
<path d="M66.3829 76.3675L112.062 74.1328L131.224 90.1274L127.836 93.1861L97.4925 92.503L66.3829 76.3675Z" fill="#3F3D56"/>
<path d="M20.8042 150.597L18.3434 152.821L18.0437 153.089L17.418 153.657L1.9013 153.31V134.98C1.39652 134.87 0.89174 134.765 0.386963 134.665L1.64366 134.602L1.9013 134.817L4.30425 136.82L11.1398 142.531L18.7745 148.904L20.8042 150.597Z" fill="#3F3D56"/>
<path d="M166.287 136.836L211.966 134.602L231.128 150.596L227.74 153.655L197.396 152.972L166.287 136.836Z" fill="#3F3D56"/>
</g>
<defs>
<clipPath id="clip0_7998_123919">
<rect width="301.226" height="190" fill="white" transform="translate(0.386963 0.5)"/>
</clipPath>
</defs>
</svg>
