<svg xmlns="http://www.w3.org/2000/svg" width="162" height="129" viewBox="0 0 162 129" fill="none">
  <path d="M111.56 128.775H49.2032L49.1913 128.425L46.2139 43.2695H114.549L111.56 128.775ZM49.9028 128.05H110.861L113.8 43.9937H46.9634L49.9028 128.05Z" fill="#3F3D56"/>
  <path d="M64.0779 59.0469H59.335V117.74H64.0779V59.0469Z" fill="#3F3D56"/>
  <path d="M82.7527 59.0469H78.0098V117.74H82.7527V59.0469Z" fill="#3F3D56"/>
  <path d="M101.428 59.0469H96.6846V117.74H101.428V59.0469Z" fill="#3F3D56"/>
  <path d="M154.174 68.2769L153.868 68.0835L76.4121 19.1354L83.1308 8.50391L83.4371 8.69733L160.892 57.6452L154.174 68.2769ZM77.4114 18.9102L153.948 67.2776L159.893 57.8708L83.3565 9.50283L77.4114 18.9102Z" fill="#3F3D56"/>
  <path d="M135.473 15.1898C133.222 13.7649 130.609 13.0158 127.944 13.0315C125.28 13.0471 122.676 13.8268 120.441 15.278C118.207 16.7292 116.436 18.791 115.338 21.2187C114.24 23.6464 113.861 26.3381 114.248 28.9744L117.941 31.3084C117.013 29.1533 116.799 26.7576 117.331 24.4722C117.862 22.1867 119.112 20.1316 120.896 18.6077C122.681 17.0838 124.906 16.1711 127.246 16.0034C129.587 15.8356 131.92 16.4216 133.903 17.6755C135.886 18.9294 137.416 20.7853 138.269 22.9715C139.121 25.1577 139.251 27.5594 138.64 29.8249C138.028 32.0904 136.708 34.1006 134.871 35.5613C133.035 37.0219 130.779 37.8563 128.434 37.9422L132.127 40.2762C134.675 39.4943 136.944 37.998 138.666 35.965C140.388 33.932 141.491 31.4476 141.844 28.8065C142.196 26.1655 141.784 23.4788 140.655 21.0652C139.526 18.6516 137.729 16.6125 135.476 15.1898H135.473Z" fill="#3F3D56"/>
  <path d="M32.5035 58.5585L2.08766 37.2414C1.80508 37.0425 1.61281 36.7398 1.55295 36.3994C1.4931 36.0591 1.57054 35.7089 1.76832 35.4256L25.6412 1.36305C25.84 1.08047 26.1428 0.888201 26.4831 0.828345C26.8234 0.768489 27.1736 0.845925 27.457 1.0437L57.8728 22.3608C58.1554 22.5597 58.3477 22.8624 58.4075 23.2027C58.4674 23.5431 58.39 23.8932 58.1922 24.1766L34.3199 58.2382C34.1212 58.5211 33.8184 58.7137 33.4779 58.7737C33.1374 58.8338 32.787 58.7563 32.5035 58.5585Z" fill="#6C63FF"/>
  <path d="M39.344 35.4292L21.4965 22.9207C21.2901 22.776 21.1142 22.5921 20.9788 22.3795C20.8435 22.1669 20.7514 21.9297 20.7077 21.6814C20.6641 21.4332 20.6697 21.1788 20.7244 20.9327C20.779 20.6867 20.8816 20.4538 21.0263 20.2474C21.1709 20.041 21.3548 19.8651 21.5675 19.7298C21.7801 19.5945 22.0173 19.5024 22.2655 19.4587C22.5138 19.415 22.7682 19.4207 23.0142 19.4754C23.2603 19.53 23.4931 19.6326 23.6995 19.7773L41.547 32.2858C41.9639 32.5779 42.2476 33.0237 42.3358 33.525C42.424 34.0264 42.3094 34.5422 42.0172 34.959C41.7251 35.3759 41.2793 35.6596 40.778 35.7478C40.2766 35.8359 39.7608 35.7213 39.344 35.4292Z" fill="white"/>
  <path d="M35.2477 41.2739L17.4002 28.7654C17.1935 28.6208 17.0174 28.437 16.8818 28.2243C16.7463 28.0116 16.654 27.7744 16.6102 27.526C16.5664 27.2776 16.572 27.0231 16.6266 26.7769C16.6813 26.5307 16.7839 26.2977 16.9286 26.0912C17.0734 25.8847 17.2574 25.7087 17.4701 25.5733C17.6829 25.438 17.9203 25.3459 18.1687 25.3023C18.4171 25.2587 18.6716 25.2645 18.9178 25.3194C19.1639 25.3742 19.3969 25.4771 19.6032 25.622L37.4507 38.1305C37.8671 38.4228 38.1504 38.8685 38.2383 39.3696C38.3262 39.8707 38.2115 40.3862 37.9195 40.8028C37.6276 41.2194 37.1821 41.503 36.6811 41.5914C36.1801 41.6797 35.6645 41.5655 35.2477 41.2739Z" fill="white"/>
  <path d="M31.1076 47.1792L13.2601 34.6707C13.0537 34.526 12.8779 34.3421 12.7425 34.1295C12.6072 33.9169 12.5151 33.6797 12.4714 33.4314C12.4277 33.1832 12.4334 32.9288 12.4881 32.6828C12.5427 32.4367 12.6453 32.2038 12.7899 31.9974C12.9346 31.791 13.1185 31.6152 13.3311 31.4798C13.5438 31.3445 13.781 31.2524 14.0292 31.2087C14.2774 31.165 14.5318 31.1707 14.7779 31.2254C15.0239 31.28 15.2568 31.3826 15.4632 31.5273L33.3107 44.0358C33.7276 44.3279 34.0113 44.7737 34.0995 45.275C34.1876 45.7764 34.073 46.2922 33.7809 46.709C33.4887 47.1259 33.043 47.4096 32.5416 47.4978C32.0403 47.5859 31.5245 47.4714 31.1076 47.1792Z" fill="white"/>
  <path d="M39.2935 23.8681L32.3806 19.0232C32.174 18.8786 31.9979 18.6948 31.8623 18.4821C31.7268 18.2695 31.6345 18.0322 31.5907 17.7838C31.5469 17.5355 31.5525 17.2809 31.6071 17.0347C31.6617 16.7885 31.7644 16.5555 31.9091 16.349C32.0538 16.1425 32.2379 15.9665 32.4506 15.8312C32.6634 15.6958 32.9008 15.6037 33.1492 15.5601C33.3976 15.5165 33.6521 15.5224 33.8983 15.5772C34.1444 15.632 34.3773 15.7349 34.5837 15.8798L41.4966 20.7247C41.9134 21.0168 42.1971 21.4626 42.2853 21.9639C42.3735 22.4653 42.2589 22.9811 41.9667 23.3979C41.6746 23.8148 41.2288 24.0985 40.7275 24.1867C40.2262 24.2748 39.7103 24.1603 39.2935 23.8681Z" fill="white"/>
</svg>