<svg xmlns="http://www.w3.org/2000/svg" width="243" height="190" viewBox="0 0 243 190" fill="none">
<g clip-path="url(#clip0_7099_83690)">
<path d="M121.787 5.35461C121.776 5.97512 121.643 6.58737 121.395 7.15639C121.147 7.72542 120.79 8.24006 120.343 8.67093C119.897 9.1018 119.369 9.44045 118.792 9.66754C118.214 9.89463 117.598 10.0057 116.977 9.99442H94.6633C94.5825 9.99235 94.5016 9.99027 94.4208 9.98405C94.2117 9.97056 94.0039 9.94215 93.7988 9.89905V2.00019C93.7987 1.68414 93.8951 1.37559 94.0752 1.11586C94.2553 0.856125 94.5104 0.657607 94.8064 0.546875H117.147C118.399 0.570553 119.591 1.09003 120.461 1.99134C121.331 2.89266 121.808 4.1022 121.787 5.35461Z" fill="#E6E6E6"/>
<path d="M239.542 1.0851e-05H95.6364C95.3263 -0.000905104 95.0188 0.0561748 94.7297 0.168304C94.2393 0.351745 93.8167 0.680619 93.5184 1.1109C93.2201 1.54118 93.0603 2.05232 93.0605 2.5759V159.533C93.0608 160.216 93.3323 160.871 93.8153 161.354C94.2983 161.837 94.9533 162.109 95.6364 162.109H239.542C240.226 162.109 240.881 161.837 241.364 161.354C241.847 160.871 242.118 160.216 242.118 159.533V2.5759C242.118 1.8928 241.847 1.23776 241.364 0.754743C240.881 0.271725 240.226 0.000258451 239.542 1.0851e-05ZM241.088 159.533C241.087 159.943 240.924 160.336 240.635 160.625C240.345 160.915 239.952 161.078 239.542 161.079H95.6364C95.2267 161.078 94.834 160.915 94.5443 160.625C94.2545 160.336 94.0915 159.943 94.0909 159.533V2.5759C94.0915 2.16618 94.2545 1.77343 94.5443 1.48372C94.834 1.19401 95.2267 1.03098 95.6364 1.03036H239.542C239.952 1.03098 240.345 1.19401 240.635 1.48372C240.924 1.77343 241.087 2.16618 241.088 2.5759V159.533Z" fill="#E6E6E6"/>
<path d="M163.183 53.9799C165.05 53.9799 166.564 52.4664 166.564 50.5994C166.564 48.7323 165.05 47.2188 163.183 47.2188C161.316 47.2188 159.803 48.7323 159.803 50.5994C159.803 52.4664 161.316 53.9799 163.183 53.9799Z" fill="#6C63FF"/>
<path d="M177.269 53.9799C179.136 53.9799 180.65 52.4664 180.65 50.5994C180.65 48.7323 179.136 47.2188 177.269 47.2188C175.402 47.2188 173.889 48.7323 173.889 50.5994C173.889 52.4664 175.402 53.9799 177.269 53.9799Z" fill="#6C63FF"/>
<path d="M135.01 81.8862C136.877 81.8862 138.39 80.3726 138.39 78.5056C138.39 76.6385 136.877 75.125 135.01 75.125C133.142 75.125 131.629 76.6385 131.629 78.5056C131.629 80.3726 133.142 81.8862 135.01 81.8862Z" fill="#6C63FF"/>
<path d="M149.095 81.8862C150.962 81.8862 152.476 80.3726 152.476 78.5056C152.476 76.6385 150.962 75.125 149.095 75.125C147.228 75.125 145.715 76.6385 145.715 78.5056C145.715 80.3726 147.228 81.8862 149.095 81.8862Z" fill="#6C63FF"/>
<path d="M163.183 95.8393C165.05 95.8393 166.564 94.3258 166.564 92.4587C166.564 90.5917 165.05 89.0781 163.183 89.0781C161.316 89.0781 159.803 90.5917 159.803 92.4587C159.803 94.3258 161.316 95.8393 163.183 95.8393Z" fill="#6C63FF"/>
<path d="M177.269 95.8393C179.136 95.8393 180.65 94.3258 180.65 92.4587C180.65 90.5917 179.136 89.0781 177.269 89.0781C175.402 89.0781 173.889 90.5917 173.889 92.4587C173.889 94.3258 175.402 95.8393 177.269 95.8393Z" fill="#6C63FF"/>
<path d="M191.359 95.8393C193.226 95.8393 194.74 94.3258 194.74 92.4587C194.74 90.5917 193.226 89.0781 191.359 89.0781C189.492 89.0781 187.979 90.5917 187.979 92.4587C187.979 94.3258 189.492 95.8393 191.359 95.8393Z" fill="#6C63FF"/>
<path d="M106.652 2.53956C106.577 2.61492 106.534 2.71712 106.534 2.8237C106.534 2.93027 106.577 3.03248 106.652 3.10785L108.377 4.83299H104.123C104.017 4.8333 103.915 4.87578 103.84 4.95111C103.765 5.02644 103.723 5.12848 103.723 5.23485C103.723 5.34123 103.765 5.44326 103.84 5.51859C103.915 5.59392 104.017 5.6364 104.123 5.63671H108.377L106.652 7.36182C106.577 7.43718 106.534 7.5394 106.534 7.64598C106.534 7.75255 106.577 7.85476 106.652 7.93013C106.728 8.00549 106.83 8.04783 106.936 8.04783C107.043 8.04784 107.145 8.0055 107.22 7.93014L109.632 5.51901C109.707 5.44364 109.749 5.34143 109.749 5.23485C109.749 5.12827 109.707 5.02606 109.632 4.95069L107.22 2.53956C107.145 2.46421 107.043 2.42188 106.936 2.42188C106.83 2.42188 106.728 2.46421 106.652 2.53956Z" fill="white"/>
<path d="M208.539 57.8353H117.767C117.416 57.8353 117.131 57.6816 117.131 57.4919C117.131 57.3022 117.416 57.1484 117.767 57.1484H208.539C208.891 57.1484 209.175 57.3022 209.175 57.4919C209.175 57.6816 208.891 57.8353 208.539 57.8353Z" fill="#E6E6E6"/>
<path d="M208.549 42.5463H117.777C117.425 42.5463 117.141 42.3925 117.141 42.2028C117.141 42.0132 117.425 41.8594 117.777 41.8594H208.549C208.9 41.8594 209.185 42.0132 209.185 42.2028C209.185 42.3925 208.9 42.5463 208.549 42.5463Z" fill="#E6E6E6"/>
<path d="M208.825 72.0541H117.549C117.457 72.0541 117.37 72.0179 117.306 71.9535C117.241 71.8891 117.205 71.8017 117.205 71.7106C117.205 71.6195 117.241 71.5322 117.306 71.4678C117.37 71.4034 117.457 71.3672 117.549 71.3672H208.825C208.916 71.3672 209.003 71.4034 209.067 71.4678C209.132 71.5322 209.168 71.6195 209.168 71.7106C209.168 71.8017 209.132 71.8891 209.067 71.9535C209.003 72.0179 208.916 72.0541 208.825 72.0541Z" fill="#E6E6E6"/>
<path d="M208.834 85.7416H117.558C117.467 85.7416 117.38 85.7054 117.315 85.641C117.251 85.5766 117.215 85.4892 117.215 85.3981C117.215 85.307 117.251 85.2197 117.315 85.1553C117.38 85.0909 117.467 85.0547 117.558 85.0547H208.834C208.925 85.0547 209.013 85.0909 209.077 85.1553C209.142 85.2197 209.178 85.307 209.178 85.3981C209.178 85.4892 209.142 85.5766 209.077 85.641C209.013 85.7054 208.925 85.7416 208.834 85.7416Z" fill="#E6E6E6"/>
<path d="M208.825 99.7103H117.549C117.457 99.7103 117.37 99.6742 117.306 99.6098C117.241 99.5453 117.205 99.458 117.205 99.3669C117.205 99.2758 117.241 99.1884 117.306 99.124C117.37 99.0596 117.457 99.0234 117.549 99.0234H208.825C208.916 99.0234 209.003 99.0596 209.067 99.124C209.132 99.1884 209.168 99.2758 209.168 99.3669C209.168 99.458 209.132 99.5453 209.067 99.6098C209.003 99.6742 208.916 99.7103 208.825 99.7103Z" fill="#E6E6E6"/>
<path d="M198.174 99.2063V42.6192C198.174 42.5016 198.328 42.4062 198.517 42.4062C198.707 42.4062 198.861 42.5016 198.861 42.6192V99.2063C198.861 99.3239 198.707 99.4192 198.517 99.4192C198.328 99.4192 198.174 99.3239 198.174 99.2063Z" fill="#E6E6E6"/>
<path d="M184.086 99.2063V42.6192C184.086 42.5016 184.24 42.4062 184.429 42.4062C184.619 42.4062 184.773 42.5016 184.773 42.6192V99.2063C184.773 99.3239 184.619 99.4192 184.429 99.4192C184.24 99.4192 184.086 99.3239 184.086 99.2063Z" fill="#E6E6E6"/>
<path d="M170 99.2063V42.6192C170 42.5016 170.154 42.4062 170.343 42.4062C170.533 42.4062 170.687 42.5016 170.687 42.6192V99.2063C170.687 99.3239 170.533 99.4192 170.343 99.4192C170.154 99.4192 170 99.3239 170 99.2063Z" fill="#E6E6E6"/>
<path d="M156.314 99.2063V42.6192C156.314 42.5016 156.468 42.4062 156.658 42.4062C156.848 42.4062 157.001 42.5016 157.001 42.6192V99.2063C157.001 99.3239 156.848 99.4192 156.658 99.4192C156.468 99.4192 156.314 99.3239 156.314 99.2063Z" fill="#E6E6E6"/>
<path d="M141.893 113.577V42.6731C141.912 42.5967 141.956 42.5291 142.019 42.4808C142.081 42.4325 142.157 42.4062 142.236 42.4062C142.315 42.4062 142.391 42.4325 142.453 42.4808C142.516 42.5291 142.56 42.5967 142.579 42.6731V113.577C142.56 113.654 142.516 113.721 142.453 113.77C142.391 113.818 142.315 113.844 142.236 113.844C142.157 113.844 142.081 113.818 142.019 113.77C141.956 113.721 141.912 113.654 141.893 113.577Z" fill="#E6E6E6"/>
<path d="M127.402 113.577V42.6731C127.422 42.5967 127.466 42.5291 127.528 42.4808C127.591 42.4325 127.667 42.4062 127.746 42.4062C127.825 42.4062 127.901 42.4325 127.963 42.4808C128.025 42.5291 128.07 42.5967 128.089 42.6731V113.577C128.07 113.654 128.025 113.721 127.963 113.77C127.901 113.818 127.825 113.844 127.746 113.844C127.667 113.844 127.591 113.818 127.528 113.77C127.466 113.721 127.422 113.654 127.402 113.577Z" fill="#E6E6E6"/>
<path d="M117.549 113.815C117.458 113.815 117.371 113.779 117.306 113.715C117.242 113.651 117.205 113.563 117.205 113.472C117.205 113.381 117.241 113.294 117.305 113.229C117.369 113.165 117.457 113.128 117.548 113.128L152.498 112.977C152.589 112.978 152.675 113.015 152.739 113.079C152.803 113.142 152.841 113.228 152.843 113.319C152.843 113.364 152.835 113.408 152.818 113.45C152.801 113.492 152.775 113.53 152.744 113.562C152.712 113.594 152.674 113.619 152.633 113.637C152.591 113.654 152.546 113.663 152.501 113.663L117.551 113.815H117.549Z" fill="#E6E6E6"/>
<path d="M143.105 27.5841C143.014 27.5841 142.927 27.548 142.863 27.4836C142.798 27.4193 142.762 27.3319 142.762 27.2409C142.762 27.1498 142.798 27.0624 142.862 26.9979C142.927 26.9335 143.014 26.8972 143.105 26.8971L192.124 26.8359H192.125C192.216 26.8359 192.303 26.872 192.368 26.9364C192.432 27.0007 192.468 27.088 192.468 27.1791C192.468 27.2702 192.432 27.3576 192.368 27.4221C192.304 27.4865 192.216 27.5228 192.125 27.5228L143.106 27.5841H143.105Z" fill="#E6E6E6"/>
<path d="M159.707 139.622C158.346 139.622 157.016 139.218 155.884 138.462C154.753 137.706 153.871 136.631 153.35 135.374C152.829 134.116 152.693 132.733 152.958 131.398C153.224 130.063 153.879 128.837 154.842 127.875C155.804 126.912 157.03 126.257 158.365 125.992C159.7 125.726 161.083 125.862 162.341 126.383C163.598 126.904 164.673 127.786 165.429 128.918C166.185 130.049 166.589 131.38 166.589 132.741C166.589 133.644 166.411 134.539 166.065 135.374C165.719 136.209 165.212 136.967 164.573 137.606C163.934 138.245 163.176 138.752 162.341 139.098C161.506 139.444 160.611 139.622 159.707 139.622Z" fill="#E6E6E6"/>
<path d="M162.424 132.051H160.387V130.015C160.387 129.835 160.316 129.662 160.188 129.535C160.061 129.407 159.888 129.336 159.708 129.336C159.528 129.336 159.356 129.407 159.228 129.535C159.101 129.662 159.03 129.835 159.03 130.015V132.051H156.993C156.813 132.051 156.641 132.123 156.513 132.25C156.386 132.377 156.314 132.55 156.314 132.73C156.314 132.91 156.386 133.083 156.513 133.21C156.641 133.337 156.813 133.409 156.993 133.409H159.03V135.445C159.029 135.534 159.047 135.623 159.081 135.705C159.115 135.788 159.165 135.863 159.228 135.926C159.291 135.989 159.366 136.039 159.448 136.074C159.531 136.108 159.619 136.125 159.708 136.125C159.798 136.125 159.886 136.108 159.969 136.074C160.051 136.039 160.126 135.989 160.189 135.926C160.252 135.863 160.302 135.788 160.336 135.705C160.37 135.623 160.387 135.534 160.387 135.445V133.409H162.424C162.604 133.409 162.776 133.337 162.903 133.21C163.031 133.083 163.102 132.91 163.102 132.73C163.102 132.55 163.031 132.377 162.903 132.25C162.776 132.123 162.604 132.051 162.424 132.051Z" fill="white"/>
<path d="M175.537 139.622C174.176 139.622 172.846 139.218 171.714 138.462C170.583 137.706 169.701 136.631 169.18 135.374C168.659 134.116 168.523 132.733 168.788 131.398C169.054 130.063 169.709 128.837 170.672 127.875C171.634 126.912 172.86 126.257 174.195 125.992C175.53 125.726 176.913 125.862 178.171 126.383C179.428 126.904 180.503 127.786 181.259 128.918C182.015 130.049 182.419 131.38 182.419 132.741C182.419 133.644 182.241 134.539 181.895 135.374C181.549 136.209 181.042 136.967 180.403 137.606C179.764 138.245 179.006 138.752 178.171 139.098C177.336 139.444 176.441 139.622 175.537 139.622Z" fill="#E6E6E6"/>
<path d="M178.962 135.744L177.169 133.646C177.589 133.052 177.771 132.323 177.68 131.601C177.589 130.88 177.231 130.218 176.677 129.748C176.123 129.277 175.413 129.03 174.686 129.057C173.959 129.083 173.269 129.381 172.75 129.891C172.232 130.4 171.923 131.086 171.885 131.812C171.847 132.538 172.081 133.253 172.543 133.814C173.005 134.376 173.66 134.745 174.38 134.847C175.1 134.95 175.832 134.78 176.433 134.37L178.178 136.413C178.267 136.516 178.393 136.58 178.529 136.591C178.665 136.601 178.799 136.557 178.903 136.469C179.006 136.38 179.071 136.254 179.082 136.119C179.093 135.983 179.05 135.848 178.962 135.744ZM172.903 131.957C172.903 131.584 173.014 131.219 173.221 130.908C173.429 130.597 173.724 130.355 174.069 130.212C174.414 130.069 174.794 130.032 175.16 130.105C175.527 130.178 175.863 130.357 176.128 130.622C176.392 130.886 176.572 131.222 176.645 131.589C176.717 131.955 176.68 132.335 176.537 132.68C176.394 133.025 176.152 133.32 175.841 133.528C175.531 133.736 175.166 133.846 174.792 133.846C174.291 133.846 173.811 133.647 173.457 133.292C173.103 132.938 172.903 132.458 172.903 131.957Z" fill="white"/>
<path d="M143.105 140.28C143.014 140.28 142.927 140.243 142.863 140.179C142.798 140.115 142.762 140.027 142.762 139.936C142.762 139.845 142.798 139.758 142.862 139.693C142.927 139.629 143.014 139.593 143.105 139.593L192.124 139.531H192.125C192.216 139.531 192.303 139.567 192.368 139.632C192.432 139.696 192.468 139.783 192.468 139.874C192.468 139.966 192.432 140.053 192.368 140.117C192.304 140.182 192.216 140.218 192.125 140.218L143.106 140.28H143.105Z" fill="#E6E6E6"/>
<path d="M80.3776 185.141L84.759 185.141L86.8435 168.242L80.377 168.243L80.3776 185.141Z" fill="#FFB6B6"/>
<path d="M79.2383 183.88V189.557H93.3644V189.378C93.3642 187.92 92.7848 186.521 91.7536 185.49C90.7225 184.459 89.324 183.88 87.8658 183.88L85.283 181.922L85.1491 181.977L80.4713 183.88H79.2383Z" fill="#2F2E41"/>
<path d="M40.8027 179.609L44.7239 181.563L54.128 167.369L48.3405 164.484L40.8027 179.609Z" fill="#FFB6B6"/>
<path d="M37.916 182.716L50.5585 189.015L50.6375 188.857C50.96 188.211 51.1521 187.507 51.2027 186.787C51.2533 186.067 51.1615 185.344 50.9325 184.659C50.7035 183.974 50.3417 183.341 49.868 182.796C49.3942 182.251 48.8177 181.805 48.1714 181.483L46.7324 178.581L46.5813 178.57L41.5532 178.182L41.4501 178.131L40.4472 177.633L37.916 182.716Z" fill="#2F2E41"/>
<path d="M83.3526 94.4531L59.1939 95.2987L59.0256 95.0541C59.0256 95.0541 56.9648 99.8624 56.9648 103.984C56.9648 105.354 57.9179 114.316 57.4334 116.012C57.3731 116.223 57.7877 116.74 57.6517 117.722C57.5635 118.359 57.0767 117.869 56.9648 118.752C56.8845 119.386 57.7414 119.736 57.6517 120.469C57.5538 121.271 56.3752 123.866 56.2691 124.757C55.1396 134.245 53.6357 147.991 53.6357 147.991C53.6357 147.991 47.5956 164.168 46.3179 164.431C44.1732 164.872 42.7252 168.772 43.9137 169.583C44.4796 169.969 51.794 172.567 51.794 172.567C52.1959 172.64 53.4532 172.009 52.6523 170.518C52.5048 170.243 53.3842 170.942 53.5303 170.613C53.6858 170.264 53.3806 168.873 53.5587 168.485C55.1572 165.001 57.6114 160.174 59.9372 157.695C63.3737 154.032 65.5499 149.367 66.1484 144.381L71.4831 114.801L73.3114 123.096L74.8243 124.591L74.4093 128.077L74.4809 131.46L78.2588 145.541C78.2588 145.541 78.8254 171.839 77.9154 172.674C77.4225 173.126 75.3311 178.697 79.2892 179.2L86.4804 178.645C86.4804 178.645 87.4494 176.603 86.9649 175.876C86.4804 175.15 86.5095 175.348 87.1006 174.159C87.6917 172.969 87.4494 170.954 87.4494 170.954C88.3914 161.484 88.7631 151.965 88.5624 142.45C88.2019 126.822 86.0172 108.869 86.0172 108.503C85.999 108.129 86.0679 107.756 86.2185 107.413V106.427L85.2905 102.931L83.3526 94.4531Z" fill="#2F2E41"/>
<path d="M52.0456 103.155C51.843 102.808 51.7188 102.422 51.6817 102.023C51.6446 101.623 51.6955 101.221 51.8309 100.843C51.9662 100.465 52.1827 100.122 52.4651 99.8374C52.7474 99.5525 53.0888 99.333 53.4652 99.1944L53.2916 81.8359L57.5732 84.5445L57.081 100.997C57.272 101.644 57.2188 102.34 56.9314 102.951C56.644 103.562 56.1425 104.046 55.5218 104.312C54.9011 104.578 54.2044 104.607 53.5637 104.394C52.923 104.181 52.3829 103.74 52.0456 103.155Z" fill="#FFB8B8"/>
<path d="M53.0227 95.9204L53.3872 95.9029L53.4306 95.904L54.779 95.8992L56.9998 95.8946L57.1607 95.8923L57.2331 95.9061L57.9913 96.0379L58.0227 95.8345L59.5006 93.0116L60.6368 91.4487L60.2234 89.6071L59.4081 88.5916L60.7929 86.9135L60.9678 86.0848L62.1269 80.6341L65.9688 62.5552L65.9691 62.5444L66.0498 62.1608L67.2992 56.2876L66.9143 54.8108L66.4854 53.1894C66.211 52.16 65.575 51.2639 64.6939 50.6651C64.3115 50.4064 63.8905 50.2098 63.4467 50.0826C62.881 49.9151 62.2867 49.8662 61.7013 49.939L61.6947 49.941C61.3624 49.9823 61.036 50.0612 60.7216 50.1762L60.5964 50.2251C60.4223 50.2956 60.2529 50.3772 60.0891 50.4692C59.5817 50.7514 59.1354 51.1318 58.7763 51.5881C58.4172 52.0444 58.1524 52.5676 57.9974 53.1271L53.9266 57.6617L53.2106 60.2276L52.9804 61.0516L52.2424 65.4443L52.2534 82.7312L52.122 83.5143L51.9352 87.8542L52.6653 88.849L51.8405 90.0551L51.8122 90.7171L51.8066 90.8875L52.9083 92.0062L52.9785 94.4188L53.0227 95.9204Z" fill="#3F3D56"/>
<path d="M57.0391 100.138C63.139 101.193 67.2295 100.791 69.7468 97.0471C73.0308 92.8653 79.0032 97.8031 84.0422 99.639L84.6398 98.9933L85.6564 97.8977L84.7222 96.8398L85.6564 94.7997L84.8768 92.2822L83.8807 92.1002L84.1486 89.933L84.5676 88.6657L83.3381 87.3159L82.294 83.9467L83.0462 76.8956C84.0754 67.2306 82.0811 57.4843 77.338 49.0005L74.4839 46.4384L73.299 45.3737L71.7088 42.4062L70.0294 42.602L65.4821 43.1275L65.3275 43.4984L64.2113 46.1911L60.1563 50.5469C59.5828 51.1629 59.147 51.894 58.878 52.6915C58.6089 53.4891 58.5128 54.3348 58.5959 55.1723L58.7126 56.3469L58.7985 57.1918L59.2038 61.2583L60.8558 77.871L60.9794 78.7537L62.3086 88.3051C60.1483 90.3932 60.0168 89.9377 59.0998 93.6126C58.9967 94.0213 57.8015 94.9314 57.726 95.3298C57.6195 95.8931 57.0391 100.138 57.0391 100.138Z" fill="#3F3D56"/>
<path d="M69.4274 40.4837C73.7894 40.4837 77.3254 36.9476 77.3254 32.5856C77.3254 28.2236 73.7894 24.6875 69.4274 24.6875C65.0654 24.6875 61.5293 28.2236 61.5293 32.5856C61.5293 36.9476 65.0654 40.4837 69.4274 40.4837Z" fill="#FFB6B6"/>
<path d="M61.1401 26.6944C62.2002 25.5906 63.8937 25.0461 65.3317 25.5699C65.6533 24.6498 66.2211 23.8354 66.9735 23.2156C67.7258 22.5959 68.6337 22.1944 69.5985 22.0548C70.5632 21.9153 71.5477 22.0432 72.4448 22.4245C73.3418 22.8057 74.1171 23.4258 74.6862 24.2172C74.9464 24.1003 75.2324 24.0527 75.5164 24.0788C75.8005 24.1049 76.073 24.2039 76.3075 24.3662C76.7732 24.6973 77.1484 25.14 77.3987 25.6537C78.0444 26.8805 78.3454 28.2593 78.2696 29.6436C78.1939 31.0278 77.7442 32.3656 76.9684 33.5145C77.2775 32.8904 76.4084 33.9653 75.5614 33.6837C74.8339 33.493 71.8453 31.5766 71.0995 31.6735C70.3537 31.7704 70.1118 31.169 69.3822 30.9866C68.6677 30.7581 66.8435 33.7121 66.478 35.6667C66.4087 36.0371 66.2405 36.4973 65.8637 36.5057C65.3998 36.5161 65.2608 35.8516 64.8695 35.6021C64.685 35.5083 64.4714 35.4897 64.2735 35.5504C64.0756 35.611 63.909 35.7461 63.8088 35.9271C63.7173 36.1132 63.6716 36.3185 63.6755 36.5258C63.6794 36.7331 63.7327 36.9365 63.8311 37.119C64.031 37.4819 64.2883 37.81 64.5929 38.0908L64.3902 38.2022C64.1906 38.3451 63.9475 38.4142 63.7026 38.3976C63.4577 38.381 63.2261 38.2797 63.0477 38.111C62.2934 38.4513 60.2417 36.5321 60.5141 35.3709C59.9412 33.9476 59.628 32.4332 59.5892 30.8994C59.5575 29.3524 60.1115 27.8504 61.1401 26.6944Z" fill="#2F2E41"/>
<path d="M119.069 73.6668C118.686 73.7874 118.282 73.8226 117.884 73.77C117.487 73.7174 117.105 73.5782 116.767 73.3624C116.429 73.1465 116.143 72.8591 115.928 72.5205C115.713 72.1818 115.575 71.8002 115.523 71.4024L98.5605 67.7129L102.153 64.1406L118.084 68.2777C118.758 68.2355 119.424 68.4419 119.956 68.858C120.488 69.274 120.849 69.8707 120.97 70.535C121.092 71.1992 120.965 71.885 120.615 72.4622C120.264 73.0394 119.714 73.468 119.069 73.6668Z" fill="#FFB8B8"/>
<path d="M73.2303 49.2063C72.2471 49.2421 71.3039 49.6046 70.5497 50.2364C70.1324 50.5824 69.7844 51.0042 69.5242 51.4797C69.2377 51.9955 69.0591 52.5641 68.999 53.1509L68.9991 53.1544C68.9112 54.0187 69.0813 54.8897 69.4878 55.6575C69.8944 56.4254 70.5193 57.0556 71.2836 57.4686L76.8715 60.4968L77.5792 60.8795C82.3404 65.7322 90.3686 68.2688 99.6043 69.9517L104.914 71.4042L106.699 70.7417L107.131 72.4388L108.909 72.4969L109.875 72.296L111.897 71.503L112.283 70.7263L112.283 70.7229L113.113 67.0411L113.119 67.0167L113.119 67.0133L113.312 66.171L112.172 65.6433L111.18 64.3181L109.386 64.3541L107.75 64.4965L107.271 63.3753L86.5406 53.7827L82.2483 51.7946L82.2376 51.7883L82.0332 51.6923L76.4336 49.1016L74.9091 49.1499L73.2303 49.2063Z" fill="#3F3D56"/>
<path d="M118.574 78.1284C120.441 78.1284 121.955 76.6148 121.955 74.7478C121.955 72.8807 120.441 71.3672 118.574 71.3672C116.707 71.3672 115.193 72.8807 115.193 74.7478C115.193 76.6148 116.707 78.1284 118.574 78.1284Z" fill="#6C63FF"/>
<path d="M21.6362 187.708C19.156 187.926 16.6583 187.588 14.3255 186.718C11.9926 185.848 9.88368 184.467 8.15259 182.678C5.88906 180.291 4.33575 177.219 2.83354 174.249C2.39626 173.384 1.94425 172.49 1.48439 171.634C0.971706 170.7 0.750439 169.633 0.849095 168.573C0.947751 167.512 1.36181 166.505 2.03793 165.681C2.68586 164.858 3.56548 164.247 4.56344 163.929C5.5614 163.61 6.63197 163.597 7.63721 163.892L7.85642 163.955L9.82926 171.654C10.1236 170.505 10.7553 167.918 11.1542 165.383L11.1877 165.171L11.3842 165.259C13.4442 166.17 15.3811 167.337 17.1495 168.733C20.282 171.245 22.8298 174.41 24.6158 178.007C26.4018 181.604 27.3831 185.546 27.4915 189.561L27.4967 189.8L21.6362 187.708Z" fill="#F2F2F2"/>
<path d="M96.9682 189.99L1.23121 190.095C1.12275 190.095 1.01873 190.052 0.942041 189.976C0.865349 189.899 0.822266 189.795 0.822266 189.686C0.822266 189.578 0.865349 189.474 0.942041 189.397C1.01873 189.321 1.12275 189.277 1.23121 189.277L96.9682 189.172C97.0765 189.172 97.1802 189.215 97.2566 189.292C97.3331 189.369 97.376 189.473 97.376 189.581C97.376 189.689 97.3331 189.793 97.2566 189.87C97.1802 189.946 97.0765 189.989 96.9682 189.99Z" fill="#CACACA"/>
<path d="M176.735 22.9504H158.532C158.122 22.9504 157.729 22.7876 157.439 22.4978C157.149 22.2079 156.986 21.8148 156.986 21.4049C156.986 20.995 157.149 20.6019 157.439 20.3121C157.729 20.0222 158.122 19.8594 158.532 19.8594H176.735C177.145 19.8594 177.538 20.0222 177.828 20.3121C178.117 20.6019 178.28 20.995 178.28 21.4049C178.28 21.8148 178.117 22.2079 177.828 22.4978C177.538 22.7876 177.145 22.9504 176.735 22.9504Z" fill="#E6E6E6"/>
<path d="M234.02 9.98996C233.272 9.98996 232.54 9.76803 231.918 9.35223C231.296 8.93644 230.811 8.34545 230.524 7.65401C230.238 6.96256 230.163 6.20172 230.309 5.46769C230.455 4.73365 230.815 4.0594 231.345 3.5302C231.874 3.00099 232.548 2.64059 233.282 2.49459C234.016 2.34858 234.777 2.42351 235.468 2.70992C236.16 2.99632 236.751 3.48134 237.167 4.10362C237.582 4.7259 237.804 5.45751 237.804 6.20592C237.804 7.20951 237.406 8.17199 236.696 8.88164C235.986 9.59129 235.024 9.98996 234.02 9.98996Z" fill="#E6E6E6"/>
</g>
<defs>
<clipPath id="clip0_7099_83690">
<rect width="241.357" height="190" fill="white" transform="translate(0.822266)"/>
</clipPath>
</defs>
</svg>