<svg width="507" height="508" viewBox="0 0 507 508" fill="none" xmlns="http://www.w3.org/2000/svg">
<path d="M54.4111 220.174H145.505V375.272H54.4111V220.174Z" fill="url(#paint0_linear_10025_58179)"/>
<path d="M218.062 170.666C208.319 170.666 199.447 166.706 193.031 160.289C187.011 154.269 183.129 146.031 182.733 137.001H104.313C103.442 155.774 87.9951 170.666 68.9845 170.666C60.9046 170.666 54.4092 177.162 54.4092 185.241V204.331H153.425C157.781 204.331 161.346 207.817 161.346 212.253V383.193C161.346 387.55 157.781 391.114 153.425 391.114H54.4092V416.224C54.4092 424.938 61.4592 432.067 70.2516 432.067H216.794C225.508 432.067 232.637 424.938 232.637 416.224V185.241C232.637 177.162 226.062 170.666 218.062 170.666Z" fill="url(#paint1_linear_10025_58179)"/>
<path d="M98.2979 121.133H188.732C193.107 121.133 196.653 117.587 196.653 113.212V88.4583C196.653 84.0839 193.107 80.5371 188.732 80.5371H98.2979C93.9235 80.5371 90.3767 84.0839 90.3767 88.4583V113.212C90.3767 117.587 93.9235 121.133 98.2979 121.133Z" fill="url(#paint2_linear_10025_58179)"/>
<path d="M440.253 133.358L439.144 132.724L394.468 107.614L393.359 106.98C385.675 102.703 375.853 105.397 371.575 113.08C370.149 115.535 369.516 118.229 369.516 120.922C369.516 126.467 372.447 131.933 377.675 134.863L424.568 161.241C432.252 165.598 441.995 162.826 446.352 155.142C447.778 152.686 448.411 149.993 448.411 147.3C448.411 141.755 445.48 136.289 440.253 133.358Z" fill="url(#paint3_linear_10025_58179)"/>
<path d="M439.46 79.8898C435.5 77.6721 431.143 76.563 426.945 76.563C417.994 76.563 409.28 81.3155 404.607 89.6327L402.231 93.8312L446.906 118.941L449.282 114.743C456.174 102.465 451.817 86.7812 439.46 79.8898Z" fill="url(#paint4_linear_10025_58179)"/>
<path d="M369.912 148.645C369.199 148.249 368.487 147.774 367.774 147.299L305.206 258.654C301.651 264.98 303.877 272.989 310.186 276.573L313.671 278.554L302.497 298.379C299.173 304.276 301.25 311.752 307.14 315.089L307.151 315.096C313.065 318.447 320.576 316.356 323.907 310.431L335.059 290.594L338.717 292.589C345.023 296.029 352.922 293.764 356.446 287.505L419.103 176.212C418.311 175.894 417.519 175.498 416.806 175.102L369.912 148.645Z" fill="url(#paint5_linear_10025_58179)"/>
<path d="M300.783 348.521C300.783 348.521 272.234 375.807 272.234 391.575C272.234 407.342 285.016 420.124 300.783 420.124C316.551 420.124 329.333 407.342 329.333 391.575C329.333 375.807 300.783 348.521 300.783 348.521Z" fill="url(#paint6_linear_10025_58179)"/>
<defs>
<linearGradient id="paint0_linear_10025_58179" x1="99.9582" y1="220.174" x2="99.9582" y2="375.272" gradientUnits="userSpaceOnUse">
<stop stop-color="#72707D"/>
<stop offset="1" stop-color="#101824"/>
</linearGradient>
<linearGradient id="paint1_linear_10025_58179" x1="143.523" y1="137.001" x2="143.523" y2="432.067" gradientUnits="userSpaceOnUse">
<stop stop-color="#72707D"/>
<stop offset="1" stop-color="#101824"/>
</linearGradient>
<linearGradient id="paint2_linear_10025_58179" x1="143.515" y1="80.5371" x2="143.515" y2="121.133" gradientUnits="userSpaceOnUse">
<stop stop-color="#72707D"/>
<stop offset="1" stop-color="#101824"/>
</linearGradient>
<linearGradient id="paint3_linear_10025_58179" x1="408.964" y1="104.951" x2="408.964" y2="163.306" gradientUnits="userSpaceOnUse">
<stop stop-color="#72707D"/>
<stop offset="1" stop-color="#101824"/>
</linearGradient>
<linearGradient id="paint4_linear_10025_58179" x1="427.39" y1="76.563" x2="427.39" y2="118.941" gradientUnits="userSpaceOnUse">
<stop stop-color="#72707D"/>
<stop offset="1" stop-color="#101824"/>
</linearGradient>
<linearGradient id="paint5_linear_10025_58179" x1="360.008" y1="147.299" x2="360.008" y2="316.694" gradientUnits="userSpaceOnUse">
<stop stop-color="#72707D"/>
<stop offset="1" stop-color="#101824"/>
</linearGradient>
<linearGradient id="paint6_linear_10025_58179" x1="300.784" y1="348.521" x2="300.784" y2="420.124" gradientUnits="userSpaceOnUse">
<stop stop-color="#72707D"/>
<stop offset="1" stop-color="#101824"/>
</linearGradient>
</defs>
</svg>
