<svg width="512" height="512" viewBox="0 0 512 512" fill="none" xmlns="http://www.w3.org/2000/svg">
<path d="M256 32C211.697 32 168.389 45.1374 131.552 69.7508C94.7158 94.3642 66.0051 129.348 49.0511 170.279C32.0971 211.21 27.6611 256.248 36.3042 299.7C44.9473 343.152 66.2812 383.065 97.6082 414.392C128.935 445.719 168.848 467.053 212.3 475.696C255.752 484.339 300.791 479.903 341.721 462.949C382.652 445.995 417.636 417.284 442.249 380.448C466.863 343.611 480 300.303 480 256C480 196.592 456.4 139.616 414.392 97.6081C372.384 55.5999 315.409 32 256 32ZM348.8 356.48L320 317.12L343.84 244.32L389.92 229.28L448 270.72C445.659 301.111 436.116 330.509 420.16 356.48H348.8ZM402.08 132.48L380.32 199.68L334.08 214.56L272 168.8V120.8L329.28 79.2C357.314 90.7655 382.247 108.739 402.08 131.68V132.48ZM182.72 78.56L240 120.16V168.16L177.92 213.12L131.68 198.24L109.92 131.68C129.683 108.507 154.622 90.3093 182.72 78.56ZM92.6401 356.48C76.6842 330.509 67.1411 301.111 64.8001 270.72L121.92 229.28L168 244.32L192 317.12L163.2 356.48H92.6401ZM210.88 442.4L189.12 375.36L217.6 336H294.4L322.88 375.36L301.12 442.4C271.503 449.864 240.497 449.864 210.88 442.4Z" fill="url(#paint0_linear_10025_21557)"/>
<defs>
<linearGradient id="paint0_linear_10025_21557" x1="256" y1="32" x2="256" y2="480" gradientUnits="userSpaceOnUse">
<stop stop-color="#72707D"/>
<stop offset="1" stop-color="#101824"/>
</linearGradient>
</defs>
</svg>
