<svg width="512" height="512" viewBox="0 0 512 512" fill="none" xmlns="http://www.w3.org/2000/svg">
<path d="M160 272C157.924 297.808 150.611 322.922 138.507 345.809C126.403 368.697 109.762 388.877 89.6 405.12C56.1048 368.403 35.8324 321.551 32 272H160ZM88.96 106.88C55.6976 143.684 35.6543 190.527 32 240H160C157.845 214.144 150.433 189 138.217 166.109C126.002 143.219 109.24 123.064 88.96 106.88ZM192 240H240V32C192.831 35.408 147.985 53.795 112 84.48C135.146 103.657 154.167 127.324 167.916 154.053C181.666 180.782 189.858 210.019 192 240ZM112 427.52C147.985 458.205 192.831 476.592 240 480V272H192C189.858 301.981 181.666 331.218 167.916 357.947C154.167 384.676 135.146 408.343 112 427.52ZM320 272H272V480C319.061 476.632 363.858 458.489 400 428.16C376.772 408.916 357.702 385.149 343.949 358.303C330.196 331.457 322.048 302.094 320 272ZM400 84.48C363.939 53.9195 319.135 35.5498 272 32V240H320C322.133 210.016 330.321 180.776 344.071 154.046C357.821 127.316 376.847 103.651 400 84.48ZM423.04 404.48C456.172 367.846 476.207 321.249 480 272H352C354.237 297.836 361.685 322.952 373.895 345.831C386.104 368.71 402.822 388.879 423.04 405.12V404.48ZM480 240C476.524 190.605 456.71 143.771 423.68 106.88C403.345 123.063 386.506 143.205 374.185 166.087C361.864 188.97 354.317 214.115 352 240H480Z" fill="url(#paint0_linear_10025_21560)"/>
<defs>
<linearGradient id="paint0_linear_10025_21560" x1="256" y1="32" x2="256" y2="480" gradientUnits="userSpaceOnUse">
<stop stop-color="#72707D"/>
<stop offset="1" stop-color="#101824"/>
</linearGradient>
</defs>
</svg>
