<svg width="512" height="512" viewBox="0 0 512 512" fill="none" xmlns="http://www.w3.org/2000/svg">
<g clip-path="url(#clip0_10025_60406)">
<path d="M218.523 195.972H38.4471C27.3361 195.972 20.0211 207.718 25.0231 217.69C28.7981 225.238 40.8841 248.717 43.4661 255.997H213.506C216.093 248.703 228.165 225.254 231.947 217.69C236.949 207.718 229.634 195.972 218.523 195.972Z" fill="url(#paint0_linear_10025_60406)"/>
<path d="M246.47 353.363C242.844 346.113 216.204 293.619 213.506 286.01H43.4658C40.7738 293.599 14.1168 346.131 10.4998 353.363C-22.1322 418.626 25.2008 496.099 98.7208 496.099H158.248C231.741 496.099 279.119 418.661 246.47 353.363Z" fill="url(#paint1_linear_10025_60406)"/>
<path d="M505.181 115.356C492.035 94.2967 464.207 87.8777 443.134 101.024L293.656 194.448C277.091 204.796 269.762 224.216 273.732 242.295L254.892 254.066L249.78 264.291C247.67 268.497 247.67 273.509 249.765 277.715L253.914 286.01C257.763 286.01 260.377 286.034 264.068 283.724L289.743 267.679C305.517 280.2 325.677 280.608 341.371 270.798L490.849 177.374C511.893 164.23 518.326 136.4 505.181 115.356Z" fill="url(#paint2_linear_10025_60406)"/>
<path d="M221.029 139.771C218.919 137.88 211.02 129.132 211.02 120.94C211.02 113.085 218.479 104.454 221.029 102.109C223.081 100.277 241.033 83.5407 241.033 60.9137C241.033 38.2867 223.081 21.5507 221.029 19.7187C214.903 14.2087 205.392 14.7217 199.838 20.8907C194.314 27.0607 194.841 36.5567 201.011 42.0817C203.121 43.9727 211.02 52.7217 211.02 60.9127C211.02 68.7677 203.561 77.3987 201.011 79.7437C198.959 81.5757 181.007 98.3117 181.007 120.939C181.007 143.566 198.959 160.302 201.011 162.134C207.162 167.653 216.672 167.148 222.202 160.962C227.726 154.792 227.199 145.296 221.029 139.771Z" fill="url(#paint3_linear_10025_60406)"/>
<path d="M130.991 139.771C128.881 137.88 120.982 129.132 120.982 120.94C120.982 113.085 128.441 104.454 130.991 102.109C133.043 100.277 150.995 83.5407 150.995 60.9137C150.995 38.2867 133.043 21.5507 130.991 19.7187C124.85 14.2087 115.369 14.7217 109.8 20.8907C104.276 27.0607 104.803 36.5567 110.972 42.0817C113.082 43.9727 120.981 52.7217 120.981 60.9127C120.981 68.7677 113.522 77.3987 110.972 79.7437C108.92 81.5757 90.9678 98.3117 90.9678 120.939C90.9678 143.566 108.92 160.302 110.972 162.134C117.123 167.653 126.633 167.148 132.163 160.962C137.688 154.792 137.161 145.296 130.991 139.771Z" fill="url(#paint4_linear_10025_60406)"/>
<path d="M40.9532 139.771C38.8432 137.88 30.9442 129.132 30.9442 120.94C30.9442 113.085 38.4032 104.454 40.9532 102.109C43.0052 100.277 60.9572 83.5407 60.9572 60.9137C60.9572 38.2867 43.0052 21.5507 40.9532 19.7187C34.8272 14.2087 25.3162 14.7217 19.7622 20.8907C14.2382 27.0607 14.7652 36.5567 20.9342 42.0817C23.0442 43.9727 30.9432 52.7217 30.9432 60.9127C30.9432 68.7677 23.4842 77.3987 20.9342 79.7437C18.8822 81.5767 0.931152 98.3127 0.931152 120.94C0.931152 143.567 18.8832 160.303 20.9352 162.135C27.0862 167.654 36.5962 167.149 42.1262 160.963C47.6502 154.792 47.1222 145.296 40.9532 139.771Z" fill="url(#paint5_linear_10025_60406)"/>
</g>
<defs>
<linearGradient id="paint0_linear_10025_60406" x1="128.485" y1="195.972" x2="128.485" y2="255.997" gradientUnits="userSpaceOnUse">
<stop stop-color="#72707D"/>
<stop offset="1" stop-color="#101824"/>
</linearGradient>
<linearGradient id="paint1_linear_10025_60406" x1="128.487" y1="286.01" x2="128.487" y2="496.099" gradientUnits="userSpaceOnUse">
<stop stop-color="#72707D"/>
<stop offset="1" stop-color="#101824"/>
</linearGradient>
<linearGradient id="paint2_linear_10025_60406" x1="380.099" y1="94.1992" x2="380.099" y2="286.01" gradientUnits="userSpaceOnUse">
<stop stop-color="#72707D"/>
<stop offset="1" stop-color="#101824"/>
</linearGradient>
<linearGradient id="paint3_linear_10025_60406" x1="211.02" y1="15.9023" x2="211.02" y2="165.96" gradientUnits="userSpaceOnUse">
<stop stop-color="#72707D"/>
<stop offset="1" stop-color="#101824"/>
</linearGradient>
<linearGradient id="paint4_linear_10025_60406" x1="120.981" y1="15.9023" x2="120.981" y2="165.96" gradientUnits="userSpaceOnUse">
<stop stop-color="#72707D"/>
<stop offset="1" stop-color="#101824"/>
</linearGradient>
<linearGradient id="paint5_linear_10025_60406" x1="30.9442" y1="15.9023" x2="30.9442" y2="165.961" gradientUnits="userSpaceOnUse">
<stop stop-color="#72707D"/>
<stop offset="1" stop-color="#101824"/>
</linearGradient>
<clipPath id="clip0_10025_60406">
<rect width="512.001" height="512.001" fill="white" transform="translate(0.000976562 0.000976562)"/>
</clipPath>
</defs>
</svg>
