<svg width="508" height="508" viewBox="0 0 508 508" fill="none" xmlns="http://www.w3.org/2000/svg">
<path d="M239.702 226.036C234.419 226.036 230.118 230.337 230.118 235.62V269.521C230.118 274.851 234.419 279.187 239.702 279.187H251.189C256.519 279.187 260.851 274.851 260.851 269.521V235.62C260.851 230.337 256.519 226.036 251.189 226.036H239.702Z" fill="url(#paint0_linear_10025_58188)"/>
<path d="M161.441 257.721C156.158 257.721 151.857 262.022 151.857 267.305V301.206C151.857 306.536 156.158 310.872 161.441 310.872H172.929C178.258 310.872 182.59 306.536 182.59 301.206V267.305C182.59 262.022 178.258 257.721 172.929 257.721H161.441Z" fill="url(#paint1_linear_10025_58188)"/>
<path d="M268.773 249.188V269.521C268.773 279.218 260.882 287.108 251.19 287.108H239.702C230.048 287.108 222.197 279.218 222.197 269.521V249.153L214.879 260.846C211.893 265.615 210.315 271.165 210.315 276.889V445.85H280.655V276.889C280.655 271.149 279.077 265.599 276.091 260.842L268.773 249.188ZM236.059 323.941H254.911C257.092 323.941 258.871 325.716 258.871 327.902C258.871 330.087 257.092 331.862 254.911 331.862H236.059C233.878 331.862 232.098 330.087 232.098 327.902C232.098 325.716 233.878 323.941 236.059 323.941ZM260.062 357.765H230.915C228.695 357.765 226.954 356.024 226.954 353.804C226.954 351.584 228.695 349.843 230.915 349.843H260.062C262.283 349.843 264.023 351.584 264.023 353.804C264.023 356.024 262.283 357.765 260.062 357.765Z" fill="url(#paint2_linear_10025_58188)"/>
<path d="M317.963 257.721C312.68 257.721 308.379 262.022 308.379 267.305V301.206C308.379 306.536 312.68 310.872 317.963 310.872H329.451C334.78 310.872 339.12 306.536 339.12 301.206V267.305C339.12 262.022 334.78 257.721 329.451 257.721H317.963Z" fill="url(#paint3_linear_10025_58188)"/>
<path d="M347.041 280.838V301.206C347.041 310.903 339.151 318.793 329.45 318.793H317.963C308.309 318.793 300.458 310.903 300.458 301.206V280.838L293.14 292.531C290.154 297.3 288.576 302.85 288.576 308.574V445.85H358.923V308.574C358.923 302.85 357.345 297.3 354.359 292.531L347.041 280.838ZM314.32 355.626H333.179C335.36 355.626 337.14 357.401 337.14 359.587C337.14 361.772 335.36 363.547 333.179 363.547H314.32C312.138 363.547 310.359 361.772 310.359 359.587C310.359 357.401 312.138 355.626 314.32 355.626ZM338.323 389.45H309.176C306.955 389.45 305.215 387.709 305.215 385.489C305.215 383.269 306.955 381.529 309.176 381.529H338.323C340.543 381.529 342.284 383.269 342.284 385.489C342.284 387.709 340.543 389.45 338.323 389.45Z" fill="url(#paint4_linear_10025_58188)"/>
<path d="M190.511 280.873V301.206C190.511 310.903 182.621 318.793 172.929 318.793H161.441C151.787 318.793 143.936 310.903 143.936 301.206V280.838L136.618 292.531C133.632 297.3 132.054 302.85 132.054 308.574V445.85H202.393V308.574C202.393 302.834 200.815 297.284 197.829 292.527L190.511 280.873ZM157.798 355.626H176.649C178.831 355.626 180.61 357.401 180.61 359.587C180.61 361.772 178.831 363.547 176.649 363.547H157.798C155.616 363.547 153.837 361.772 153.837 359.587C153.837 357.401 155.616 355.626 157.798 355.626ZM181.801 389.45H152.654C150.433 389.45 148.693 387.709 148.693 385.489C148.693 383.269 150.433 381.529 152.654 381.529H181.801C184.021 381.529 185.762 383.269 185.762 385.489C185.762 387.709 184.021 389.45 181.801 389.45Z" fill="url(#paint5_linear_10025_58188)"/>
<path d="M381.018 124.81L381.179 124.339C382.594 120.201 380.382 115.699 376.243 114.283C372.105 112.875 367.603 115.076 366.187 119.218L345.695 179.161C344.28 183.3 346.492 187.802 350.631 189.218C351.482 189.508 352.34 189.647 353.191 189.647C356.487 189.647 359.565 187.574 360.687 184.282L360.846 183.818L432.703 203.475L449.871 153.263L381.018 124.81Z" fill="url(#paint6_linear_10025_58188)"/>
<path d="M158.988 105.948L199.149 112.919L209.842 81.7885L173.801 62.7778L158.988 105.948Z" fill="url(#paint7_linear_10025_58188)"/>
<path d="M345.849 129.633L224.496 88.1255L214.594 116.959L336.027 158.466L345.849 129.633Z" fill="url(#paint8_linear_10025_58188)"/>
<path d="M93.5472 187.51L81.3356 209.839L59.0068 222.051L81.3356 234.263L93.5472 256.591L105.759 234.263L128.088 222.051L105.759 209.839L93.5472 187.51Z" fill="url(#paint9_linear_10025_58188)"/>
<path d="M167.22 212.025L179.431 189.696L201.76 177.485L179.431 165.273L167.22 142.944L155.007 165.273L132.679 177.485L155.007 189.696L167.22 212.025Z" fill="url(#paint10_linear_10025_58188)"/>
<defs>
<linearGradient id="paint0_linear_10025_58188" x1="245.484" y1="226.036" x2="245.484" y2="279.187" gradientUnits="userSpaceOnUse">
<stop stop-color="#72707D"/>
<stop offset="1" stop-color="#101824"/>
</linearGradient>
<linearGradient id="paint1_linear_10025_58188" x1="167.224" y1="257.721" x2="167.224" y2="310.872" gradientUnits="userSpaceOnUse">
<stop stop-color="#72707D"/>
<stop offset="1" stop-color="#101824"/>
</linearGradient>
<linearGradient id="paint2_linear_10025_58188" x1="245.485" y1="249.153" x2="245.485" y2="445.85" gradientUnits="userSpaceOnUse">
<stop stop-color="#72707D"/>
<stop offset="1" stop-color="#101824"/>
</linearGradient>
<linearGradient id="paint3_linear_10025_58188" x1="323.75" y1="257.721" x2="323.75" y2="310.872" gradientUnits="userSpaceOnUse">
<stop stop-color="#72707D"/>
<stop offset="1" stop-color="#101824"/>
</linearGradient>
<linearGradient id="paint4_linear_10025_58188" x1="323.749" y1="280.838" x2="323.749" y2="445.85" gradientUnits="userSpaceOnUse">
<stop stop-color="#72707D"/>
<stop offset="1" stop-color="#101824"/>
</linearGradient>
<linearGradient id="paint5_linear_10025_58188" x1="167.224" y1="280.838" x2="167.224" y2="445.85" gradientUnits="userSpaceOnUse">
<stop stop-color="#72707D"/>
<stop offset="1" stop-color="#101824"/>
</linearGradient>
<linearGradient id="paint6_linear_10025_58188" x1="397.569" y1="113.858" x2="397.569" y2="203.475" gradientUnits="userSpaceOnUse">
<stop stop-color="#72707D"/>
<stop offset="1" stop-color="#101824"/>
</linearGradient>
<linearGradient id="paint7_linear_10025_58188" x1="184.415" y1="62.7778" x2="184.415" y2="112.919" gradientUnits="userSpaceOnUse">
<stop stop-color="#72707D"/>
<stop offset="1" stop-color="#101824"/>
</linearGradient>
<linearGradient id="paint8_linear_10025_58188" x1="280.222" y1="88.1255" x2="280.222" y2="158.466" gradientUnits="userSpaceOnUse">
<stop stop-color="#72707D"/>
<stop offset="1" stop-color="#101824"/>
</linearGradient>
<linearGradient id="paint9_linear_10025_58188" x1="93.5474" y1="187.51" x2="93.5474" y2="256.591" gradientUnits="userSpaceOnUse">
<stop stop-color="#72707D"/>
<stop offset="1" stop-color="#101824"/>
</linearGradient>
<linearGradient id="paint10_linear_10025_58188" x1="167.219" y1="142.944" x2="167.219" y2="212.025" gradientUnits="userSpaceOnUse">
<stop stop-color="#72707D"/>
<stop offset="1" stop-color="#101824"/>
</linearGradient>
</defs>
</svg>
