<svg width="512" height="512" viewBox="0 0 512 512" fill="none" xmlns="http://www.w3.org/2000/svg">
<path d="M318.88 41.12C344.55 48.7522 368.658 60.8877 390.08 76.96C355.989 93.3402 325.518 116.372 300.458 144.701C275.399 173.031 256.258 206.085 244.16 241.92C217.255 247.363 189.649 248.444 162.4 245.12C186.279 159.474 242.348 86.3776 318.88 41.12ZM293.28 342.56C282.729 317.339 268.078 294.038 249.92 273.6C212.755 281.008 174.483 280.903 137.36 273.292C100.236 265.68 65.011 250.716 33.76 229.28C32.6113 238.141 32.0234 247.065 32 256C32.0516 273.853 34.2541 291.634 38.56 308.96C115.957 352.589 207.217 364.627 293.28 342.56ZM274.24 252.48C299.259 280.966 318.321 314.174 330.302 350.145C342.283 386.115 346.941 424.121 344 461.92C368.653 451.307 391.198 436.349 410.56 417.76C409.655 328.954 374.455 243.935 312.32 180.48C295.723 202.203 282.854 226.535 274.24 252.48ZM53.92 352C76.034 398.901 113.809 436.624 160.74 458.673C207.671 480.722 260.822 485.718 311.04 472.8C315.219 439.326 312.828 405.358 304 372.8C220.763 395.217 132.31 387.86 53.92 352ZM273.92 32C268 32 262.08 32 256 32C207.231 32.0502 159.81 48.0154 120.941 77.4706C82.0718 106.926 53.8773 148.262 40.64 195.2C67.5734 215.522 98.2325 230.363 130.88 238.88C153.086 155.659 203.684 82.8178 273.92 32.96V32ZM416 100C384.933 113.13 356.767 132.27 333.12 156.32C394.022 217.169 431.816 297.339 440 383.04C469.515 340.424 483.264 288.858 478.884 237.205C474.504 185.552 452.269 137.038 416 100Z" fill="url(#paint0_linear_10025_21563)"/>
<defs>
<linearGradient id="paint0_linear_10025_21563" x1="255.841" y1="32" x2="255.841" y2="479.827" gradientUnits="userSpaceOnUse">
<stop stop-color="#72707D"/>
<stop offset="1" stop-color="#101824"/>
</linearGradient>
</defs>
</svg>
