<svg width="508" height="508" viewBox="0 0 508 508" fill="none" xmlns="http://www.w3.org/2000/svg">
<path d="M180.884 223.501C180.884 223.501 176.924 238.472 178.112 255.502C178.746 266.196 186.825 274.91 197.361 276.811C198.152 276.969 198.866 276.969 199.658 276.969C204.173 276.969 208.371 274.83 210.906 271.028L217.48 261.205C219.936 257.483 224.055 255.265 228.491 255.186H231.422C237.68 255.106 243.224 259.384 244.651 265.563L248.928 283.623C250.354 289.484 255.581 293.683 261.681 293.683H261.919C268.097 293.683 273.483 289.564 274.989 283.623C275.543 281.563 276.098 279.425 276.652 277.286C279.345 267.226 287.9 259.859 298.198 258.75L300.733 258.433C313.248 257.166 323.704 248.452 327.269 236.412L331.467 222.154C358.32 212.094 375.43 196.885 375.43 179.934C375.43 162.665 357.845 147.299 330.2 137.238C328.536 145.001 325.764 152.526 322.041 159.576C341.606 166.705 351.666 175.577 351.666 179.934C351.666 187.934 318.239 210.985 254.314 210.985C190.39 210.985 156.962 187.934 156.962 179.934C156.962 175.577 167.181 166.547 187.063 159.339C184.29 151.497 183.894 143.021 185.795 134.704C154.032 144.684 133.199 161.161 133.199 179.934C133.199 197.678 151.893 213.52 180.884 223.501Z" fill="url(#paint0_linear_10025_58221)"/>
<path d="M391.272 337.805V371.074L390.955 372.658C387.708 387.946 377.014 401.571 358.954 412.978C344.933 421.929 329.328 427.87 318.714 431.196C314.357 432.622 309.763 433.415 305.168 433.415C296.772 433.415 288.613 431.038 281.563 426.602L281.009 426.365L280.058 425.651C277.682 424.146 274.989 423.354 272.137 423.354C267.86 423.354 263.74 425.176 260.81 428.345C252.809 437.217 240.293 449.019 224.689 449.019C218.193 449.019 211.936 446.88 206.549 442.92C198.232 436.9 193.004 427.077 192.212 415.908C191.42 405.294 191.261 405.294 183.498 404.423C183.023 404.343 182.627 404.343 182.231 404.343C178.191 404.343 174.468 406.957 168.686 411.314C161.636 416.542 152.843 423.117 140.486 423.117C134.307 423.117 127.97 421.374 121.792 417.889C108.643 410.522 105.633 399.907 105.078 394.284C103.652 381.134 111.494 369.569 117.356 362.915V337.805C94.7805 351.113 81.3936 367.589 81.3936 385.649C81.3936 428.82 158.784 463.832 254.314 463.832C349.844 463.832 427.235 428.82 427.235 385.649C427.235 367.589 413.848 351.113 391.272 337.805Z" fill="url(#paint1_linear_10025_58221)"/>
<path d="M129.555 404.105C152.844 417.174 160.844 385.886 185.242 388.658C202.114 390.559 206.787 398.084 208.054 414.877C208.451 420.818 211.144 426.68 215.976 430.165C226.67 438.086 238.868 428.977 249.087 417.729C259.305 406.481 276.177 404.184 288.93 412.501C289.089 412.58 289.247 412.738 289.406 412.818C296.614 417.571 305.644 418.838 313.882 416.144C324.259 412.818 338.28 407.352 350.479 399.589C362.598 391.906 372.816 381.925 375.43 369.409V214.074C367.667 221.678 357.291 228.412 344.538 233.956L342.478 240.927C337.012 259.225 321.328 272.295 302.317 274.196L300.178 274.434C296.139 274.909 292.97 277.681 291.941 281.405L290.277 287.742C287.029 300.495 275.385 309.525 261.919 309.525H261.681C248.294 309.525 236.73 300.415 233.561 287.346L229.759 271.345L224.055 279.82C218.986 287.424 210.748 292.177 201.559 292.653C200.926 292.732 200.292 292.811 199.658 292.811C197.836 292.811 196.173 292.732 194.351 292.336C176.607 289.167 163.379 274.355 162.27 256.453C161.715 247.977 162.27 239.897 163.062 233.481C150.784 228.015 140.645 221.441 133.199 214.074V369.409C133.199 369.409 107.772 391.827 129.555 404.105Z" fill="url(#paint2_linear_10025_58221)"/>
<path d="M239.977 178.746C239.977 180.964 240.293 182.865 240.927 185.321C253.284 188.014 266.512 186.588 278.236 181.122V180.885C277.84 172.646 267.305 157.755 258.195 147.061C249.64 156.883 239.977 170.508 239.977 178.746Z" fill="url(#paint3_linear_10025_58221)"/>
<path d="M215.183 172.093C217.955 174.627 220.966 176.846 224.134 178.747C224.134 158.706 249.799 132.645 252.73 129.794C254.235 128.288 256.215 127.575 258.354 127.497C260.493 127.497 262.552 128.368 263.978 129.873C266.592 132.566 286.316 153.636 292.336 171.935L292.415 171.855C292.653 171.617 292.97 171.38 293.207 171.142C322.595 144.606 324.338 98.346 294.633 72.0479C268.572 48.9968 231.739 44.7988 231.739 44.7988L236.259 56.8397C240.007 66.824 241.591 77.6683 239.61 88.1476C237.292 100.4 231.098 110.301 218.827 117.832L218.114 118.149C201.321 125.278 195.143 146.111 205.598 161.162C208.45 165.201 211.698 168.845 215.183 172.093Z" fill="url(#paint4_linear_10025_58221)"/>
<defs>
<linearGradient id="paint0_linear_10025_58221" x1="254.314" y1="134.704" x2="254.314" y2="293.683" gradientUnits="userSpaceOnUse">
<stop stop-color="#72707D"/>
<stop offset="1" stop-color="#101824"/>
</linearGradient>
<linearGradient id="paint1_linear_10025_58221" x1="254.314" y1="337.805" x2="254.314" y2="463.832" gradientUnits="userSpaceOnUse">
<stop stop-color="#72707D"/>
<stop offset="1" stop-color="#101824"/>
</linearGradient>
<linearGradient id="paint2_linear_10025_58221" x1="248.083" y1="214.074" x2="248.083" y2="433.152" gradientUnits="userSpaceOnUse">
<stop stop-color="#72707D"/>
<stop offset="1" stop-color="#101824"/>
</linearGradient>
<linearGradient id="paint3_linear_10025_58221" x1="259.106" y1="147.061" x2="259.106" y2="186.644" gradientUnits="userSpaceOnUse">
<stop stop-color="#72707D"/>
<stop offset="1" stop-color="#101824"/>
</linearGradient>
<linearGradient id="paint4_linear_10025_58221" x1="258.28" y1="44.7988" x2="258.28" y2="178.747" gradientUnits="userSpaceOnUse">
<stop stop-color="#72707D"/>
<stop offset="1" stop-color="#101824"/>
</linearGradient>
</defs>
</svg>
