<svg width="513" height="513" viewBox="0 0 513 513" fill="none" xmlns="http://www.w3.org/2000/svg">
<g clip-path="url(#clip0_10025_66333)">
<path d="M167.286 235.404C164.82 233.831 162.181 232.548 159.42 231.582L160.554 235.957C162.685 244.238 163.768 252.754 163.777 261.305V271.621C175.995 277.055 186.154 286.255 192.768 297.877C199.387 286.25 209.553 277.045 221.779 271.61C221.742 265.899 221.741 262.129 221.741 261.305C221.75 252.766 222.83 244.262 224.955 235.993L226.107 231.547C216.655 234.755 209.019 241.842 205.116 251.029L201.196 260.431C199.777 263.837 196.449 266.056 192.758 266.056C189.067 266.056 185.74 263.837 184.32 260.431L180.391 251.011C177.704 244.602 173.134 239.16 167.286 235.404Z" fill="url(#paint0_linear_10025_66333)"/>
<path d="M151.002 286.315C150.672 286.215 150.359 286.074 150.026 285.982L152.365 295.357C154.904 305.51 156.187 315.936 156.187 326.402C156.147 335.915 161.941 344.479 170.785 347.982L192.758 356.777L214.731 347.982C223.568 344.485 229.36 335.932 229.329 326.428C229.327 315.954 230.61 305.518 233.151 295.357L235.49 285.982C222.031 289.727 211.101 299.557 205.954 312.545L201.249 324.304C199.861 327.777 196.498 330.054 192.758 330.054C189.018 330.054 185.655 327.777 184.267 324.304L179.579 312.563C174.589 299.996 164.167 290.372 151.243 286.398L151.002 286.315Z" fill="url(#paint1_linear_10025_66333)"/>
<path d="M192.759 412.34C120.594 412.34 60.8066 356.35 56.0786 284.34H37.3296V448.912H348.187V284.341H329.439C324.711 356.35 264.924 412.34 192.759 412.34Z" fill="url(#paint2_linear_10025_66333)"/>
<path d="M192.767 235.476C196.871 229.273 202.236 224.004 208.512 220.012L190.445 195.932C182.357 201.095 176.682 209.291 174.696 218.679C175.518 219.147 176.384 219.518 177.186 220.029C183.395 224.042 188.701 229.302 192.767 235.476Z" fill="url(#paint3_linear_10025_66333)"/>
<path d="M348.187 467.197H37.3296V512.911H348.187V467.197Z" fill="url(#paint4_linear_10025_66333)"/>
<path d="M460.617 74.056L421.33 40.377L382.044 74.056H460.617Z" fill="url(#paint5_linear_10025_66333)"/>
<path d="M311.527 270.512C309.069 206.696 256.621 156.23 192.758 156.23C128.895 156.23 76.4475 206.696 73.9895 270.512C71.5315 334.328 119.941 388.679 183.615 393.592V372.816L163.999 364.966C148.198 358.716 137.84 343.423 137.901 326.43C137.903 317.449 136.806 308.501 134.633 299.787L129.035 277.421C128.35 274.689 128.962 271.795 130.694 269.574C132.426 267.354 135.085 266.055 137.901 266.055C140.438 266.072 142.973 266.24 145.49 266.557V261.305C145.479 254.296 144.591 247.316 142.847 240.528L138.195 222.645C137.483 219.905 138.08 216.991 139.811 214.751C141.542 212.511 144.212 211.2 147.043 211.198C150.527 211.237 154 211.605 157.415 212.296C161.995 196.189 173.311 182.846 188.454 175.698C192.436 173.585 197.363 174.683 200.07 178.287L225.862 212.678C229.996 211.71 234.226 211.213 238.471 211.198C241.301 211.2 243.971 212.512 245.703 214.751C247.434 216.99 248.031 219.905 247.32 222.644L242.659 240.564C240.92 247.341 240.035 254.309 240.025 261.305C240.025 261.847 240.025 263.701 240.036 266.557C242.55 266.24 245.08 266.072 247.614 266.055C250.43 266.056 253.089 267.354 254.821 269.574C256.553 271.794 257.165 274.689 256.48 277.421L250.882 299.796C248.71 308.498 247.613 317.434 247.614 326.403C247.678 343.403 237.321 358.706 221.516 364.965L201.9 372.815V393.591C265.575 388.679 313.985 334.328 311.527 270.512Z" fill="url(#paint6_linear_10025_66333)"/>
<path d="M476.187 284.342H366.473V448.913H476.187V284.342Z" fill="url(#paint7_linear_10025_66333)"/>
<path d="M366.473 512.911H467.044C472.092 512.908 476.183 508.816 476.187 503.768V467.197H366.473V512.911Z" fill="url(#paint8_linear_10025_66333)"/>
<path d="M375.615 37.4831C370.566 37.4831 366.472 33.3901 366.472 28.3401C366.472 23.2911 370.565 19.1971 375.615 19.1971H412.186V0.912109H128.758V19.1981H156.187C161.236 19.1981 165.33 23.2911 165.33 28.3411C165.33 33.3901 161.237 37.4841 156.187 37.4841H122.148L61.1895 74.0551H353.955L396.616 37.4841L375.615 37.4831Z" fill="url(#paint9_linear_10025_66333)"/>
<path d="M476.187 92.3418H366.473V266.056H476.187V92.3418Z" fill="url(#paint10_linear_10025_66333)"/>
<path d="M37.3296 93.5558V266.056H56.0786C60.8066 194.046 120.594 138.056 192.759 138.056C264.924 138.056 324.711 194.046 329.439 266.056H348.188V92.3418H37.4906C37.4086 92.7418 37.3556 93.1478 37.3296 93.5558Z" fill="url(#paint11_linear_10025_66333)"/>
</g>
<defs>
<linearGradient id="paint0_linear_10025_66333" x1="192.763" y1="231.547" x2="192.763" y2="297.877" gradientUnits="userSpaceOnUse">
<stop stop-color="#72707D"/>
<stop offset="1" stop-color="#101824"/>
</linearGradient>
<linearGradient id="paint1_linear_10025_66333" x1="192.758" y1="285.982" x2="192.758" y2="356.777" gradientUnits="userSpaceOnUse">
<stop stop-color="#72707D"/>
<stop offset="1" stop-color="#101824"/>
</linearGradient>
<linearGradient id="paint2_linear_10025_66333" x1="192.758" y1="284.34" x2="192.758" y2="448.912" gradientUnits="userSpaceOnUse">
<stop stop-color="#72707D"/>
<stop offset="1" stop-color="#101824"/>
</linearGradient>
<linearGradient id="paint3_linear_10025_66333" x1="191.604" y1="195.932" x2="191.604" y2="235.476" gradientUnits="userSpaceOnUse">
<stop stop-color="#72707D"/>
<stop offset="1" stop-color="#101824"/>
</linearGradient>
<linearGradient id="paint4_linear_10025_66333" x1="192.758" y1="467.197" x2="192.758" y2="512.911" gradientUnits="userSpaceOnUse">
<stop stop-color="#72707D"/>
<stop offset="1" stop-color="#101824"/>
</linearGradient>
<linearGradient id="paint5_linear_10025_66333" x1="421.33" y1="40.377" x2="421.33" y2="74.056" gradientUnits="userSpaceOnUse">
<stop stop-color="#72707D"/>
<stop offset="1" stop-color="#101824"/>
</linearGradient>
<linearGradient id="paint6_linear_10025_66333" x1="192.758" y1="156.23" x2="192.758" y2="393.592" gradientUnits="userSpaceOnUse">
<stop stop-color="#72707D"/>
<stop offset="1" stop-color="#101824"/>
</linearGradient>
<linearGradient id="paint7_linear_10025_66333" x1="421.33" y1="284.342" x2="421.33" y2="448.913" gradientUnits="userSpaceOnUse">
<stop stop-color="#72707D"/>
<stop offset="1" stop-color="#101824"/>
</linearGradient>
<linearGradient id="paint8_linear_10025_66333" x1="421.33" y1="467.197" x2="421.33" y2="512.911" gradientUnits="userSpaceOnUse">
<stop stop-color="#72707D"/>
<stop offset="1" stop-color="#101824"/>
</linearGradient>
<linearGradient id="paint9_linear_10025_66333" x1="236.688" y1="0.912109" x2="236.688" y2="74.0551" gradientUnits="userSpaceOnUse">
<stop stop-color="#72707D"/>
<stop offset="1" stop-color="#101824"/>
</linearGradient>
<linearGradient id="paint10_linear_10025_66333" x1="421.33" y1="92.3418" x2="421.33" y2="266.056" gradientUnits="userSpaceOnUse">
<stop stop-color="#72707D"/>
<stop offset="1" stop-color="#101824"/>
</linearGradient>
<linearGradient id="paint11_linear_10025_66333" x1="192.759" y1="92.3418" x2="192.759" y2="266.056" gradientUnits="userSpaceOnUse">
<stop stop-color="#72707D"/>
<stop offset="1" stop-color="#101824"/>
</linearGradient>
<clipPath id="clip0_10025_66333">
<rect width="512" height="512" fill="white" transform="translate(0.758789 0.912109)"/>
</clipPath>
</defs>
</svg>
