<svg width="513" height="513" viewBox="0 0 513 513" fill="none" xmlns="http://www.w3.org/2000/svg">
<g clip-path="url(#clip0_10025_66349)">
<path d="M165.33 37.4831C175.429 37.4831 183.616 29.2961 183.616 19.1971C183.616 9.09811 175.429 0.912109 165.33 0.912109C155.236 0.924109 147.056 9.10411 147.044 19.1981C147.045 29.2971 155.231 37.4831 165.33 37.4831Z" fill="url(#paint0_linear_10025_66349)"/>
<path d="M110.473 165.482C120.572 165.482 128.759 157.295 128.759 147.196C128.759 137.097 120.572 128.91 110.473 128.91C100.379 128.922 92.1985 137.102 92.1865 147.196C92.1875 157.296 100.374 165.482 110.473 165.482Z" fill="url(#paint1_linear_10025_66349)"/>
<path d="M293.329 147.198C293.341 157.292 301.521 165.472 311.615 165.484C321.714 165.484 329.901 157.297 329.901 147.198C329.901 137.099 321.714 128.912 311.615 128.912C301.516 128.912 293.329 137.099 293.329 147.198Z" fill="url(#paint2_linear_10025_66349)"/>
<path d="M192.759 147.198C192.771 157.292 200.951 165.472 211.045 165.484C221.144 165.484 229.331 157.297 229.331 147.198C229.331 137.099 221.144 128.912 211.045 128.912C200.946 128.912 192.759 137.099 192.759 147.198Z" fill="url(#paint3_linear_10025_66349)"/>
<path d="M141.957 165.484H179.559C176.265 159.951 174.509 153.638 174.473 147.198C174.473 127 190.847 110.627 211.044 110.627C231.242 110.627 247.615 127.001 247.615 147.198C247.579 153.638 245.823 159.95 242.529 165.484H280.131C276.837 159.951 275.081 153.638 275.044 147.198C275.044 127 291.418 110.627 311.615 110.627C331.813 110.627 348.186 127.001 348.186 147.198C348.15 153.638 346.393 159.95 343.099 165.484H371.558C363.495 152.046 365.141 134.921 375.614 123.264V64.9125C375.609 59.8655 371.519 55.7745 366.471 55.7695H147.044C141.997 55.7745 137.906 59.8655 137.901 64.9125V123.265C148.375 134.921 150.02 152.047 141.957 165.484Z" fill="url(#paint4_linear_10025_66349)"/>
<path d="M403.045 165.482C413.144 165.482 421.331 157.295 421.331 147.196C421.318 137.103 413.139 128.923 403.045 128.91C392.946 128.911 384.759 137.098 384.759 147.197C384.759 157.296 392.946 165.482 403.045 165.482Z" fill="url(#paint5_linear_10025_66349)"/>
<path d="M256.759 37.4831C266.858 37.4831 275.045 29.2961 275.045 19.1971C275.045 9.09811 266.858 0.912109 256.759 0.912109C246.66 0.912109 238.473 9.09911 238.473 19.1981C238.485 29.2921 246.665 37.4721 256.759 37.4831Z" fill="url(#paint6_linear_10025_66349)"/>
<path d="M421.329 275.198C421.329 285.297 429.516 293.484 439.615 293.484C449.714 293.484 457.901 285.297 457.901 275.198C457.888 265.105 449.709 256.925 439.615 256.912C429.516 256.912 421.329 265.099 421.329 275.198Z" fill="url(#paint7_linear_10025_66349)"/>
<path d="M348.187 37.4831C358.286 37.4831 366.473 29.2961 366.473 19.1971C366.473 9.09811 358.285 0.912109 348.187 0.912109C338.088 0.912109 329.901 9.09911 329.901 19.1981C329.912 29.2921 338.092 37.4721 348.187 37.4831Z" fill="url(#paint8_linear_10025_66349)"/>
<path d="M73.9012 293.483C84.0002 293.483 92.1872 285.296 92.1872 275.197C92.1872 265.098 84.0002 256.912 73.9012 256.912C63.8022 256.912 55.6152 265.099 55.6152 275.198C55.6272 285.292 63.8072 293.472 73.9012 293.483Z" fill="url(#paint9_linear_10025_66349)"/>
<path d="M464.419 443.056C459.583 452.278 450.029 458.056 439.615 458.056C429.201 458.056 419.648 452.278 414.811 443.056C410.644 435.396 402.623 430.627 393.902 430.627C385.182 430.627 377.16 435.395 372.994 443.056C367.656 451.793 358.403 457.388 348.186 458.056C337.969 457.388 328.716 451.793 323.378 443.056C319.212 435.396 311.191 430.627 302.472 430.627C293.753 430.627 285.731 435.396 281.566 443.056C276.228 451.793 266.975 457.388 256.758 458.056C246.541 457.388 237.288 451.793 231.95 443.056C227.784 435.396 219.763 430.627 211.044 430.627C202.325 430.627 194.303 435.396 190.138 443.056C184.8 451.793 175.547 457.388 165.33 458.056C155.113 457.388 145.86 451.793 140.522 443.056C136.356 435.396 128.335 430.627 119.616 430.627C110.897 430.627 102.875 435.396 98.7105 443.056C93.3725 451.793 84.1195 457.388 73.9025 458.056C63.6855 457.388 54.4325 451.793 49.0945 443.056C44.8055 435.516 36.8615 430.793 28.1885 430.627V503.77C28.1935 508.817 32.2835 512.908 37.3315 512.913H476.188C481.236 512.91 485.327 508.818 485.331 503.77V430.627C476.656 430.794 468.71 435.516 464.419 443.056Z" fill="url(#paint10_linear_10025_66349)"/>
<path d="M464.419 360.769C459.583 369.991 450.029 375.769 439.615 375.769C429.201 375.769 419.648 369.991 414.811 360.769C410.644 353.109 402.623 348.34 393.902 348.34C385.182 348.34 377.16 353.108 372.994 360.769C367.656 369.506 358.403 375.101 348.186 375.769C337.969 375.101 328.716 369.506 323.378 360.769C319.212 353.109 311.191 348.34 302.472 348.34C293.753 348.34 285.731 353.109 281.566 360.769C276.228 369.506 266.975 375.101 256.758 375.769C246.541 375.101 237.288 369.506 231.95 360.769C227.784 353.109 219.763 348.34 211.044 348.34C202.325 348.34 194.303 353.109 190.138 360.769C184.8 369.506 175.547 375.101 165.33 375.769C155.113 375.101 145.86 369.506 140.522 360.769C136.356 353.109 128.335 348.34 119.616 348.34C110.897 348.34 102.875 353.109 98.7105 360.769C93.3725 369.506 84.1195 375.101 73.9025 375.769C63.6855 375.101 54.4325 369.506 49.0945 360.769C44.8055 353.229 36.8615 348.506 28.1885 348.34V412.34C42.3605 412.392 55.5505 419.591 63.2595 431.483C68.1655 437.501 70.3575 439.769 73.9025 439.769C77.4475 439.769 79.6395 437.502 84.5455 431.483C92.2185 419.552 105.431 412.34 119.616 412.34C133.801 412.34 147.014 419.552 154.687 431.483C159.593 437.501 161.785 439.769 165.33 439.769C168.875 439.769 171.067 437.502 175.973 431.483C183.646 419.552 196.859 412.34 211.044 412.34C225.229 412.34 238.442 419.552 246.115 431.483C251.021 437.501 253.213 439.769 256.758 439.769C260.303 439.769 262.495 437.502 267.401 431.483C275.074 419.552 288.287 412.34 302.472 412.34C316.658 412.34 329.87 419.552 337.543 431.483C342.449 437.501 344.641 439.769 348.186 439.769C351.731 439.769 353.923 437.502 358.829 431.483C366.502 419.552 379.715 412.34 393.9 412.34C408.086 412.34 421.298 419.552 428.971 431.483C433.881 437.501 436.069 439.769 439.614 439.769C443.159 439.769 445.347 437.502 450.257 431.483C457.967 419.591 471.156 412.392 485.328 412.34V348.34C476.656 348.507 468.71 353.23 464.419 360.769Z" fill="url(#paint11_linear_10025_66349)"/>
<path d="M147.045 275.198C147.057 285.292 155.237 293.472 165.331 293.484C175.43 293.484 183.617 285.297 183.617 275.198C183.617 265.099 175.429 256.912 165.33 256.912C155.231 256.912 147.045 265.099 147.045 275.198Z" fill="url(#paint12_linear_10025_66349)"/>
<path d="M476.188 311.77H37.3295C32.2825 311.775 28.1915 315.865 28.1865 320.913V330.056C42.3585 330.108 55.5485 337.307 63.2575 349.199C68.1635 355.217 70.3555 357.485 73.9005 357.485C77.4455 357.485 79.6375 355.218 84.5435 349.199C92.2165 337.268 105.43 330.056 119.615 330.056C133.8 330.056 147.013 337.268 154.686 349.199C159.592 355.217 161.784 357.485 165.329 357.485C168.874 357.485 171.066 355.218 175.972 349.199C183.645 337.268 196.858 330.056 211.043 330.056C225.228 330.056 238.441 337.268 246.114 349.199C251.02 355.217 253.212 357.485 256.757 357.485C260.302 357.485 262.494 355.218 267.4 349.199C275.073 337.268 288.286 330.056 302.471 330.056C316.657 330.056 329.869 337.268 337.542 349.199C342.448 355.217 344.64 357.485 348.185 357.485C351.73 357.485 353.922 355.218 358.828 349.199C366.501 337.268 379.714 330.056 393.899 330.056C408.085 330.056 421.297 337.268 428.97 349.199C433.88 355.217 436.068 357.485 439.613 357.485C443.158 357.485 445.346 355.218 450.256 349.199C457.966 337.307 471.155 330.108 485.327 330.056V320.913C485.327 315.865 481.235 311.774 476.188 311.77Z" fill="url(#paint13_linear_10025_66349)"/>
<path d="M110.473 275.198C110.437 281.638 108.68 287.95 105.386 293.484H133.845C130.551 287.951 128.795 281.638 128.758 275.198C128.758 255 145.132 238.627 165.329 238.627C185.527 238.627 201.9 255.001 201.9 275.198C201.864 281.638 200.108 287.95 196.814 293.484H225.273C221.979 287.951 220.223 281.638 220.187 275.198C220.187 255 236.561 238.627 256.758 238.627C276.955 238.627 293.329 255.001 293.329 275.198C293.293 281.638 291.537 287.95 288.243 293.484H316.702C313.408 287.951 311.652 281.638 311.615 275.198C311.637 255.009 327.998 238.648 348.186 238.627C368.375 238.649 384.736 255.01 384.757 275.198C384.721 281.638 382.964 287.95 379.67 293.484H408.128C404.835 287.95 403.079 281.638 403.043 275.198C403.091 258.568 414.366 244.069 430.472 239.925V225.992C421.512 228.302 412.297 229.475 403.043 229.483C384.837 229.213 366.898 225.064 350.422 217.313C344.009 214.045 337.055 211.973 329.9 211.197C322.745 211.973 315.79 214.045 309.378 217.313C292.902 225.064 274.963 229.212 256.757 229.483C238.551 229.213 220.612 225.064 204.136 217.313C197.723 214.045 190.769 211.973 183.614 211.197C176.459 211.973 169.504 214.045 163.092 217.313C146.616 225.064 128.677 229.212 110.472 229.483C101.219 229.475 92.004 228.302 83.043 225.992V239.925C99.15 244.069 110.425 258.568 110.473 275.198Z" fill="url(#paint14_linear_10025_66349)"/>
<path d="M238.473 275.198C238.485 285.292 246.665 293.472 256.759 293.484C266.858 293.484 275.045 285.297 275.045 275.198C275.045 265.099 266.858 256.912 256.759 256.912C246.66 256.912 238.473 265.099 238.473 275.198Z" fill="url(#paint15_linear_10025_66349)"/>
<path d="M156.094 200.422C164.687 196.139 174.039 193.587 183.616 192.913C193.194 193.587 202.545 196.139 211.138 200.422C225.403 207.226 240.957 210.9 256.759 211.199C272.56 210.9 288.115 207.226 302.38 200.422C310.973 196.139 320.325 193.587 329.902 192.913C339.48 193.587 348.831 196.139 357.424 200.422C371.689 207.226 387.243 210.9 403.045 211.199C412.34 211.212 421.585 209.838 430.474 207.121V192.913C430.471 187.865 426.379 183.774 421.331 183.77H92.1879C87.1409 183.775 83.0499 187.865 83.0449 192.913V207.121C91.9339 209.837 101.179 211.211 110.474 211.199C126.275 210.9 141.829 207.226 156.094 200.422Z" fill="url(#paint16_linear_10025_66349)"/>
<path d="M329.901 275.198C329.913 285.292 338.093 293.472 348.187 293.484C358.286 293.484 366.473 285.297 366.473 275.198C366.473 265.099 358.285 256.912 348.187 256.912C338.088 256.912 329.901 265.099 329.901 275.198Z" fill="url(#paint17_linear_10025_66349)"/>
</g>
<defs>
<linearGradient id="paint0_linear_10025_66349" x1="165.33" y1="0.912109" x2="165.33" y2="37.4831" gradientUnits="userSpaceOnUse">
<stop stop-color="#72707D"/>
<stop offset="1" stop-color="#101824"/>
</linearGradient>
<linearGradient id="paint1_linear_10025_66349" x1="110.473" y1="128.91" x2="110.473" y2="165.482" gradientUnits="userSpaceOnUse">
<stop stop-color="#72707D"/>
<stop offset="1" stop-color="#101824"/>
</linearGradient>
<linearGradient id="paint2_linear_10025_66349" x1="311.615" y1="128.912" x2="311.615" y2="165.484" gradientUnits="userSpaceOnUse">
<stop stop-color="#72707D"/>
<stop offset="1" stop-color="#101824"/>
</linearGradient>
<linearGradient id="paint3_linear_10025_66349" x1="211.045" y1="128.912" x2="211.045" y2="165.484" gradientUnits="userSpaceOnUse">
<stop stop-color="#72707D"/>
<stop offset="1" stop-color="#101824"/>
</linearGradient>
<linearGradient id="paint4_linear_10025_66349" x1="256.758" y1="55.7695" x2="256.758" y2="165.484" gradientUnits="userSpaceOnUse">
<stop stop-color="#72707D"/>
<stop offset="1" stop-color="#101824"/>
</linearGradient>
<linearGradient id="paint5_linear_10025_66349" x1="403.045" y1="128.91" x2="403.045" y2="165.482" gradientUnits="userSpaceOnUse">
<stop stop-color="#72707D"/>
<stop offset="1" stop-color="#101824"/>
</linearGradient>
<linearGradient id="paint6_linear_10025_66349" x1="256.759" y1="0.912109" x2="256.759" y2="37.4831" gradientUnits="userSpaceOnUse">
<stop stop-color="#72707D"/>
<stop offset="1" stop-color="#101824"/>
</linearGradient>
<linearGradient id="paint7_linear_10025_66349" x1="439.615" y1="256.912" x2="439.615" y2="293.484" gradientUnits="userSpaceOnUse">
<stop stop-color="#72707D"/>
<stop offset="1" stop-color="#101824"/>
</linearGradient>
<linearGradient id="paint8_linear_10025_66349" x1="348.187" y1="0.912109" x2="348.187" y2="37.4831" gradientUnits="userSpaceOnUse">
<stop stop-color="#72707D"/>
<stop offset="1" stop-color="#101824"/>
</linearGradient>
<linearGradient id="paint9_linear_10025_66349" x1="73.9012" y1="256.912" x2="73.9012" y2="293.483" gradientUnits="userSpaceOnUse">
<stop stop-color="#72707D"/>
<stop offset="1" stop-color="#101824"/>
</linearGradient>
<linearGradient id="paint10_linear_10025_66349" x1="256.76" y1="430.627" x2="256.76" y2="512.913" gradientUnits="userSpaceOnUse">
<stop stop-color="#72707D"/>
<stop offset="1" stop-color="#101824"/>
</linearGradient>
<linearGradient id="paint11_linear_10025_66349" x1="256.758" y1="348.34" x2="256.758" y2="439.769" gradientUnits="userSpaceOnUse">
<stop stop-color="#72707D"/>
<stop offset="1" stop-color="#101824"/>
</linearGradient>
<linearGradient id="paint12_linear_10025_66349" x1="165.331" y1="256.912" x2="165.331" y2="293.484" gradientUnits="userSpaceOnUse">
<stop stop-color="#72707D"/>
<stop offset="1" stop-color="#101824"/>
</linearGradient>
<linearGradient id="paint13_linear_10025_66349" x1="256.757" y1="311.77" x2="256.757" y2="357.485" gradientUnits="userSpaceOnUse">
<stop stop-color="#72707D"/>
<stop offset="1" stop-color="#101824"/>
</linearGradient>
<linearGradient id="paint14_linear_10025_66349" x1="256.757" y1="211.197" x2="256.757" y2="293.484" gradientUnits="userSpaceOnUse">
<stop stop-color="#72707D"/>
<stop offset="1" stop-color="#101824"/>
</linearGradient>
<linearGradient id="paint15_linear_10025_66349" x1="256.759" y1="256.912" x2="256.759" y2="293.484" gradientUnits="userSpaceOnUse">
<stop stop-color="#72707D"/>
<stop offset="1" stop-color="#101824"/>
</linearGradient>
<linearGradient id="paint16_linear_10025_66349" x1="256.759" y1="183.77" x2="256.759" y2="211.199" gradientUnits="userSpaceOnUse">
<stop stop-color="#72707D"/>
<stop offset="1" stop-color="#101824"/>
</linearGradient>
<linearGradient id="paint17_linear_10025_66349" x1="348.187" y1="256.912" x2="348.187" y2="293.484" gradientUnits="userSpaceOnUse">
<stop stop-color="#72707D"/>
<stop offset="1" stop-color="#101824"/>
</linearGradient>
<clipPath id="clip0_10025_66349">
<rect width="512" height="512" fill="white" transform="translate(0.758789 0.912109)"/>
</clipPath>
</defs>
</svg>
