<svg width="508" height="508" viewBox="0 0 508 508" fill="none" xmlns="http://www.w3.org/2000/svg">
<path d="M302.276 119.737C296.118 113.579 288.634 108.806 280.334 105.719V98.7354C280.334 92.8737 277.958 87.4869 274.077 83.6848C270.275 79.8035 264.888 77.4272 259.026 77.4272C247.303 77.4272 237.718 86.9328 237.718 98.7354V105.722C229.43 108.808 221.968 113.58 215.856 119.737C205.162 130.351 198.429 145.005 198.033 161.164H320.099C319.703 145.005 312.97 130.351 302.276 119.737Z" fill="url(#paint0_linear_10025_58228)"/>
<path d="M224.49 272.378L250.709 298.598C249.363 286.716 245.561 271.745 235.342 261.526C220.925 247.03 196.37 245.525 186.389 245.525C186.389 257.011 188.29 280.379 202.469 294.479C212.687 304.697 227.896 308.42 239.461 309.766L213.321 283.627C210.232 280.537 210.232 275.467 213.321 272.378C216.41 269.289 221.4 269.289 224.49 272.378Z" fill="url(#paint1_linear_10025_58228)"/>
<path d="M267.422 298.598L293.563 272.378C296.652 269.289 301.642 269.289 304.811 272.378C307.9 275.467 307.9 280.537 304.811 283.627L278.592 309.766C290.157 308.42 305.365 304.697 315.663 294.479C329.763 280.379 331.664 257.011 331.664 245.525C321.762 245.525 297.206 247.03 282.711 261.526C272.492 271.745 268.769 286.716 267.422 298.598Z" fill="url(#paint2_linear_10025_58228)"/>
<path d="M333.803 187.701C329.525 185.008 326.04 181.285 323.822 177.007H194.31C192.013 181.285 188.527 185.008 184.25 187.701C152.723 207.266 86.1059 267.389 201.36 382.959H316.772C431.947 267.389 365.329 207.266 333.803 187.701ZM326.832 305.648C317.802 314.678 306.475 319.827 295.543 322.758C284.533 325.61 273.997 326.323 266.631 326.323C262.908 326.323 260.294 326.164 259.026 326.085C257.838 326.164 255.145 326.323 251.422 326.323C236.689 326.323 209.281 323.629 191.22 305.648C166.665 281.092 170.705 238.872 170.863 237.05C171.259 233.327 174.269 230.396 177.992 230C177.992 230 181.161 229.684 186.389 229.684C201.122 229.684 228.53 232.297 246.59 250.358C252.055 255.824 256.016 262.161 259.026 268.815C262.036 262.161 265.997 255.824 271.542 250.358C289.523 232.297 316.93 229.684 331.743 229.684C336.892 229.684 340.14 230 340.14 230C343.863 230.396 346.793 233.327 347.189 237.05C347.348 238.872 351.388 281.092 326.832 305.648Z" fill="url(#paint3_linear_10025_58228)"/>
<path d="M136.327 195.7C140.287 195.7 144.169 196.175 147.892 197.126C156.684 187.7 165.952 180.65 173.557 175.739C162.546 169.481 149.872 165.996 136.327 165.996C94.1068 165.996 59.9658 200.215 59.9658 242.436C59.9658 283.784 92.7598 317.45 133.871 318.717C128.723 308.024 125.079 297.488 122.94 287.191C103.691 281.487 89.5916 263.585 89.5916 242.436C89.5916 216.612 110.503 195.7 136.327 195.7Z" fill="url(#paint4_linear_10025_58228)"/>
<path d="M428.971 153.958C414.118 153.958 400.711 162.857 394.945 176.545L388.776 191.187C386.241 197.207 382.994 202.911 379.033 208.059C387.826 220.258 394.796 235.308 396.935 253.448C398.52 266.835 397.252 280.618 393.291 294.955C398.995 289.648 403.906 283.628 407.946 277.053C416.342 263.508 421.095 247.587 421.095 230.952C421.095 214 427.511 197.604 439.156 185.246L448.582 175.107V153.958H428.971Z" fill="url(#paint5_linear_10025_58228)"/>
<path d="M338.522 398.831H179.555C172.113 398.831 165.673 404.012 164.08 411.282L159.714 431.203H358.363L353.997 411.282C352.404 404.012 345.964 398.831 338.522 398.831Z" fill="url(#paint6_linear_10025_58228)"/>
<defs>
<linearGradient id="paint0_linear_10025_58228" x1="259.066" y1="77.4272" x2="259.066" y2="161.164" gradientUnits="userSpaceOnUse">
<stop stop-color="#72707D"/>
<stop offset="1" stop-color="#101824"/>
</linearGradient>
<linearGradient id="paint1_linear_10025_58228" x1="218.549" y1="245.525" x2="218.549" y2="309.766" gradientUnits="userSpaceOnUse">
<stop stop-color="#72707D"/>
<stop offset="1" stop-color="#101824"/>
</linearGradient>
<linearGradient id="paint2_linear_10025_58228" x1="299.543" y1="245.525" x2="299.543" y2="309.766" gradientUnits="userSpaceOnUse">
<stop stop-color="#72707D"/>
<stop offset="1" stop-color="#101824"/>
</linearGradient>
<linearGradient id="paint3_linear_10025_58228" x1="259.034" y1="177.007" x2="259.034" y2="382.959" gradientUnits="userSpaceOnUse">
<stop stop-color="#72707D"/>
<stop offset="1" stop-color="#101824"/>
</linearGradient>
<linearGradient id="paint4_linear_10025_58228" x1="116.761" y1="165.996" x2="116.761" y2="318.717" gradientUnits="userSpaceOnUse">
<stop stop-color="#72707D"/>
<stop offset="1" stop-color="#101824"/>
</linearGradient>
<linearGradient id="paint5_linear_10025_58228" x1="413.808" y1="153.958" x2="413.808" y2="294.955" gradientUnits="userSpaceOnUse">
<stop stop-color="#72707D"/>
<stop offset="1" stop-color="#101824"/>
</linearGradient>
<linearGradient id="paint6_linear_10025_58228" x1="259.038" y1="398.831" x2="259.038" y2="431.203" gradientUnits="userSpaceOnUse">
<stop stop-color="#72707D"/>
<stop offset="1" stop-color="#101824"/>
</linearGradient>
</defs>
</svg>
