<svg width="512" height="512" viewBox="0 0 512 512" fill="none" xmlns="http://www.w3.org/2000/svg">
<path d="M176 192H336C346.506 192 356.909 189.931 366.615 185.91C376.321 181.89 385.14 175.997 392.569 168.569C399.997 161.14 405.89 152.321 409.91 142.615C413.931 132.909 416 122.506 416 112V48C416 43.7565 414.314 39.6869 411.314 36.6863C408.313 33.6857 404.243 32 400 32H352C347.757 32 343.687 33.6857 340.686 36.6863C337.686 39.6869 336 43.7565 336 48V80H304V48C304 43.7565 302.314 39.6869 299.314 36.6863C296.313 33.6857 292.243 32 288 32H224C219.757 32 215.687 33.6857 212.686 36.6863C209.686 39.6869 208 43.7565 208 48V80H176V48C176 43.7565 174.314 39.6869 171.314 36.6863C168.313 33.6857 164.243 32 160 32H112C107.757 32 103.687 33.6857 100.686 36.6863C97.6857 39.6869 96 43.7565 96 48V112C96 133.217 104.429 153.566 119.431 168.569C134.434 183.571 154.783 192 176 192Z" fill="url(#paint0_linear_10025_21573)"/>
<path d="M384 368H128C115.27 368 103.061 373.057 94.0589 382.059C85.0571 391.061 80 403.27 80 416V464C80 468.243 81.6857 472.313 84.6863 475.314C87.6869 478.314 91.7565 480 96 480H416C420.243 480 424.313 478.314 427.314 475.314C430.314 472.313 432 468.243 432 464V416C432 403.27 426.943 391.061 417.941 382.059C408.939 373.057 396.73 368 384 368Z" fill="url(#paint1_linear_10025_21573)"/>
<path d="M176 224C166.986 224.037 158.004 222.908 149.28 220.64L122.56 336H389.44L362.72 220.64C353.996 222.908 345.014 224.037 336 224H176Z" fill="url(#paint2_linear_10025_21573)"/>
<defs>
<linearGradient id="paint0_linear_10025_21573" x1="256" y1="32" x2="256" y2="192" gradientUnits="userSpaceOnUse">
<stop stop-color="#72707D"/>
<stop offset="1" stop-color="#101824"/>
</linearGradient>
<linearGradient id="paint1_linear_10025_21573" x1="256" y1="368" x2="256" y2="480" gradientUnits="userSpaceOnUse">
<stop stop-color="#72707D"/>
<stop offset="1" stop-color="#101824"/>
</linearGradient>
<linearGradient id="paint2_linear_10025_21573" x1="256" y1="220.64" x2="256" y2="336" gradientUnits="userSpaceOnUse">
<stop stop-color="#72707D"/>
<stop offset="1" stop-color="#101824"/>
</linearGradient>
</defs>
</svg>
