<svg width="512" height="512" viewBox="0 0 512 512" fill="none" xmlns="http://www.w3.org/2000/svg">
<g clip-path="url(#clip0_10025_60473)">
<path d="M16 302.002V467.002C16 491.816 36.186 512.002 61 512.002H271C295.814 512.002 316 491.816 316 467.002V302.002H16ZM235.405 416.275C227.451 424.302 217.651 430.323 206.269 434.146C199.326 436.241 190.8 438.262 179.975 438.262C175.751 438.262 170.975 437.742 166.017 437.012C161.033 437.742 156.232 438.262 151.996 438.262C131.124 438.262 110.961 430.728 96.64 416.275C77.953 397.417 71.726 370.633 76.22 344.468C77.289 338.198 82.197 333.291 88.466 332.222C118.036 327.144 143.587 336.107 160.273 352.642C162.47 354.819 164.137 357.469 166.03 359.919C167.92 357.471 169.584 354.81 171.772 352.642C190.523 334.061 217.215 327.701 243.579 332.222C249.849 333.291 254.756 338.199 255.825 344.468C260.877 373.885 252.025 399.502 235.405 416.275Z" fill="url(#paint0_linear_10025_60473)"/>
<path d="M139.149 373.94C128.711 363.628 111.728 359.218 104.754 360.756C104.754 373.644 108.866 385.996 117.938 395.151C126.958 404.255 140.098 408.517 152.274 408.276C152.327 395.643 148.355 383.061 139.149 373.94Z" fill="url(#paint1_linear_10025_60473)"/>
<path d="M227.26 360.756C214.404 360.756 202.105 364.84 192.895 373.94C186.603 380.174 183.184 387.33 181.229 395.814C181.78 399.502 182.086 403.517 182.102 407.921C194.704 407.371 205.155 404.186 214.105 395.151C223.062 386.112 227.318 373.534 227.289 360.756C227.274 360.756 227.26 360.756 227.26 360.756Z" fill="url(#paint2_linear_10025_60473)"/>
<path d="M311.605 214.397L244.248 147.039L209.418 216.711C206.869 221.794 201.684 225.002 196 225.002H136C130.316 225.002 125.131 221.794 122.582 216.711L87.748 147.043L20.394 214.397C17.582 217.209 16 221.018 16 225.002V272.002H316V225.002C316 221.018 314.418 217.209 311.605 214.397Z" fill="url(#paint3_linear_10025_60473)"/>
<path d="M491.605 366.397L436 310.791V142.502C436 63.928 372.074 0.00195312 293.5 0.00195312C217.495 0.00195312 155.75 59.975 151.758 135.002H115.272L145.272 195.002H186.727L216.722 135.002H181.758C185.7 76.516 234.033 30.002 293.5 30.002C355.536 30.002 406 80.466 406 142.502V310.791L350.395 366.396C347.582 369.209 346 373.018 346 377.002V497.002C346 505.293 352.709 512.002 361 512.002H481C489.291 512.002 496 505.293 496 497.002V377.002C496 373.018 494.418 369.209 491.605 366.397Z" fill="url(#paint4_linear_10025_60473)"/>
</g>
<defs>
<linearGradient id="paint0_linear_10025_60473" x1="166" y1="302.002" x2="166" y2="512.002" gradientUnits="userSpaceOnUse">
<stop stop-color="#72707D"/>
<stop offset="1" stop-color="#101824"/>
</linearGradient>
<linearGradient id="paint1_linear_10025_60473" x1="128.514" y1="360.458" x2="128.514" y2="408.286" gradientUnits="userSpaceOnUse">
<stop stop-color="#72707D"/>
<stop offset="1" stop-color="#101824"/>
</linearGradient>
<linearGradient id="paint2_linear_10025_60473" x1="204.259" y1="360.756" x2="204.259" y2="407.921" gradientUnits="userSpaceOnUse">
<stop stop-color="#72707D"/>
<stop offset="1" stop-color="#101824"/>
</linearGradient>
<linearGradient id="paint3_linear_10025_60473" x1="166" y1="147.039" x2="166" y2="272.002" gradientUnits="userSpaceOnUse">
<stop stop-color="#72707D"/>
<stop offset="1" stop-color="#101824"/>
</linearGradient>
<linearGradient id="paint4_linear_10025_60473" x1="305.636" y1="0.00195312" x2="305.636" y2="512.002" gradientUnits="userSpaceOnUse">
<stop stop-color="#72707D"/>
<stop offset="1" stop-color="#101824"/>
</linearGradient>
<clipPath id="clip0_10025_60473">
<rect width="512" height="512" fill="white" transform="translate(0 0.00195312)"/>
</clipPath>
</defs>
</svg>
