<svg width="507" height="508" viewBox="0 0 507 508" fill="none" xmlns="http://www.w3.org/2000/svg">
<path d="M250.697 403.719L224.482 397.622L173.968 372.713C158.639 365.223 148.71 349.634 148.449 332.563L145.314 172.05L61.7039 170.395L58.0461 205.058C55.1718 232.406 56.3913 259.927 61.53 286.926C66.5811 313.403 71.0229 350.505 64.9263 382.032L57.7851 407.551C54.0396 420.702 61.6167 434.289 74.7679 438.295C83.7388 440.995 94.1901 442.998 103.945 442.04C112.48 441.169 119.534 438.643 125.108 435.682C136.779 429.673 150.452 428.802 162.558 434.114C176.58 440.211 193.041 446.83 198.267 446.83H245.733C255.226 446.83 263.674 440.646 266.548 431.589C267.245 429.411 267.593 427.147 267.593 424.969C267.593 415.128 260.8 406.07 250.697 403.719ZM123.628 398.406C122.669 402.412 119.099 405.112 115.179 405.112C114.483 405.112 113.786 405.025 113.176 404.938L105.773 403.196C94.8865 400.583 87.2222 391.003 87.2222 379.768V366.356C87.2222 361.478 91.1415 357.646 95.9316 357.646C100.722 357.646 104.641 361.478 104.641 366.356V379.768C104.641 382.816 106.732 385.516 109.78 386.213L117.096 387.955C121.799 389 124.673 393.703 123.628 398.406Z" fill="url(#paint0_linear_10025_58237)"/>
<path d="M242.17 283.915C242.17 283.915 214.577 308.65 214.577 323.89C214.577 339.129 226.931 351.483 242.17 351.483C257.41 351.483 269.764 339.129 269.764 323.89C269.764 308.65 242.17 283.915 242.17 283.915Z" fill="url(#paint1_linear_10025_58237)"/>
<path d="M413.929 122.344V140.94H377.296V133.589C377.296 127.619 372.456 122.779 366.486 122.779H345.843V110.924H363.829C372.194 110.924 378.975 104.143 378.975 95.7773C378.975 87.4124 372.194 80.6311 363.829 80.6311H345.843V70.4291C345.843 65.6194 341.948 61.7197 337.134 61.7197C332.32 61.7197 328.424 65.6194 328.424 70.4291V80.6311H310.437C302.072 80.6311 295.291 87.4124 295.291 95.7773C295.291 104.143 302.072 110.924 310.437 110.924H328.424V122.779H307.79C301.82 122.779 296.98 127.619 296.98 133.589V138.17H260.801C238.156 138.17 219.867 156.459 219.867 179.104V233.943H218.647C213.236 233.943 208.849 238.33 208.849 243.741C208.849 249.153 213.236 253.539 218.647 253.539H262.92C268.331 253.539 272.718 249.153 272.718 243.741C272.718 238.33 268.331 233.943 262.92 233.943H262.717V187.116H296.98V192.394C296.98 198.363 301.82 203.203 307.79 203.203H366.486C372.456 203.203 377.296 198.363 377.296 192.394V184.677H413.929V209.128H450.434V122.344H413.929Z" fill="url(#paint2_linear_10025_58237)"/>
<defs>
<linearGradient id="paint0_linear_10025_58237" x1="162.059" y1="170.395" x2="162.059" y2="446.83" gradientUnits="userSpaceOnUse">
<stop stop-color="#72707D"/>
<stop offset="1" stop-color="#101824"/>
</linearGradient>
<linearGradient id="paint1_linear_10025_58237" x1="242.171" y1="283.915" x2="242.171" y2="351.483" gradientUnits="userSpaceOnUse">
<stop stop-color="#72707D"/>
<stop offset="1" stop-color="#101824"/>
</linearGradient>
<linearGradient id="paint2_linear_10025_58237" x1="329.642" y1="61.7197" x2="329.642" y2="253.539" gradientUnits="userSpaceOnUse">
<stop stop-color="#72707D"/>
<stop offset="1" stop-color="#101824"/>
</linearGradient>
</defs>
</svg>
