<svg width="513" height="513" viewBox="0 0 513 513" fill="none" xmlns="http://www.w3.org/2000/svg">
<g clip-path="url(#clip0_10025_66371)">
<path d="M467.045 202.055H46.4731C41.4261 202.06 37.3351 206.15 37.3301 211.198V247.769C37.3471 262.91 49.6171 275.181 64.7591 275.198H83.0451C98.1871 275.181 110.457 262.911 110.474 247.769C110.474 242.72 114.567 238.626 119.617 238.626C124.666 238.626 128.76 242.719 128.76 247.769C128.777 262.91 141.047 275.181 156.189 275.198H174.475C189.617 275.181 201.887 262.911 201.904 247.769C201.904 242.72 205.997 238.626 211.047 238.626C216.097 238.626 220.19 242.719 220.19 247.769C220.228 260.205 228.636 271.055 240.669 274.195L240.761 274.197C241.82 274.468 242.758 274.64 243.687 274.8C244.986 275.028 246.3 275.16 247.618 275.197H265.904C267.222 275.16 268.536 275.027 269.835 274.8C270.764 274.64 271.702 274.469 272.761 274.197L272.854 274.195C284.887 271.055 293.295 260.204 293.333 247.769C293.333 242.72 297.426 238.626 302.476 238.626C307.525 238.626 311.619 242.719 311.619 247.769C311.636 262.91 323.906 275.181 339.048 275.198H357.334C372.476 275.181 384.746 262.911 384.763 247.769C384.763 242.72 388.856 238.626 393.906 238.626C398.955 238.626 403.049 242.719 403.049 247.769C403.066 262.91 415.336 275.181 430.478 275.198H448.759C463.901 275.181 476.171 262.911 476.188 247.769V211.198C476.183 206.15 472.092 202.06 467.045 202.055ZM83.0451 256.912C83.0451 261.961 78.9521 266.055 73.9021 266.055C68.8531 266.055 64.7591 261.962 64.7591 256.912V238.626C64.7591 233.577 68.8521 229.483 73.9021 229.483C78.9511 229.483 83.0451 233.576 83.0451 238.626V256.912ZM174.473 256.912C174.473 261.961 170.38 266.055 165.33 266.055C160.28 266.055 156.187 261.962 156.187 256.912V238.626C156.187 233.577 160.28 229.483 165.33 229.483C170.38 229.483 174.473 233.576 174.473 238.626V256.912ZM265.902 256.912C265.902 261.961 261.809 266.055 256.759 266.055C251.71 266.055 247.616 261.962 247.616 256.912V238.626C247.616 233.577 251.709 229.483 256.759 229.483C261.808 229.483 265.902 233.576 265.902 238.626V256.912ZM357.33 256.912C357.33 261.961 353.237 266.055 348.187 266.055C343.138 266.055 339.044 261.962 339.044 256.912V238.626C339.044 233.577 343.137 229.483 348.187 229.483C353.236 229.483 357.33 233.576 357.33 238.626V256.912ZM448.759 256.912C448.759 261.961 444.666 266.055 439.616 266.055C434.567 266.055 430.473 261.962 430.473 256.912V238.626C430.473 233.577 434.566 229.483 439.616 229.483C444.665 229.483 448.759 233.576 448.759 238.626V256.912Z" fill="url(#paint0_linear_10025_66371)"/>
<path d="M357.331 119.769H348.188C343.139 119.769 339.045 115.676 339.045 110.626C339.045 105.576 343.138 101.483 348.188 101.483H357.331V83.1977C357.326 78.1507 353.236 74.0597 348.188 74.0547H165.331C160.284 74.0597 156.192 78.1497 156.188 83.1977V101.484H165.331C170.38 101.484 174.474 105.577 174.474 110.627C174.474 115.677 170.381 119.77 165.331 119.77H156.188V183.77H357.331V119.769ZM238.474 119.769H201.903C196.854 119.769 192.76 115.676 192.76 110.626C192.76 105.576 196.853 101.483 201.903 101.483H238.474C243.523 101.483 247.617 105.576 247.617 110.626C247.617 115.676 243.524 119.769 238.474 119.769ZM311.617 119.769H275.046C269.997 119.769 265.903 115.676 265.903 110.626C265.903 105.576 269.996 101.483 275.046 101.483H311.617C316.666 101.483 320.76 105.576 320.76 110.626C320.76 115.676 316.667 119.769 311.617 119.769Z" fill="url(#paint1_linear_10025_66371)"/>
<path d="M352.308 494.625H293.33C288.281 494.625 284.187 490.532 284.187 485.482C284.187 480.433 288.28 476.339 293.33 476.339H311.616C311.61 471.288 309.579 466.451 305.978 462.91C302.829 459.661 298.451 457.896 293.929 458.053C278.635 458.169 266.116 445.917 265.902 430.624V293.482H247.616V429.536C247.563 437.253 244.465 444.636 238.996 450.081C234.065 455.131 227.321 458.001 220.264 458.054H220.188C210.092 458.061 201.909 466.244 201.902 476.34H220.723C225.772 476.34 229.866 480.433 229.866 485.483C229.866 490.532 225.773 494.626 220.723 494.626H193.294C193.199 494.626 193.12 494.575 193.026 494.572C192.932 494.574 192.853 494.626 192.758 494.626H161.209C156.313 494.613 151.835 497.382 149.66 501.769L143.839 512.911H369.674L363.933 501.911C361.773 497.457 357.259 494.627 352.308 494.625Z" fill="url(#paint2_linear_10025_66371)"/>
<path d="M302.473 28.7063V19.1973H292.964C278.025 19.2143 265.918 31.3203 265.901 46.2603V55.7693H275.41C290.35 55.7523 302.456 43.6463 302.473 28.7063Z" fill="url(#paint3_linear_10025_66371)"/>
<path d="M233.299 55.7691H247.616V41.4571C247.592 19.0771 229.456 0.939109 207.076 0.912109H192.759V15.2251C192.783 37.6051 210.919 55.7421 233.299 55.7691Z" fill="url(#paint4_linear_10025_66371)"/>
</g>
<defs>
<linearGradient id="paint0_linear_10025_66371" x1="256.759" y1="202.055" x2="256.759" y2="275.198" gradientUnits="userSpaceOnUse">
<stop stop-color="#72707D"/>
<stop offset="1" stop-color="#101824"/>
</linearGradient>
<linearGradient id="paint1_linear_10025_66371" x1="256.759" y1="74.0547" x2="256.759" y2="183.77" gradientUnits="userSpaceOnUse">
<stop stop-color="#72707D"/>
<stop offset="1" stop-color="#101824"/>
</linearGradient>
<linearGradient id="paint2_linear_10025_66371" x1="256.756" y1="293.482" x2="256.756" y2="512.911" gradientUnits="userSpaceOnUse">
<stop stop-color="#72707D"/>
<stop offset="1" stop-color="#101824"/>
</linearGradient>
<linearGradient id="paint3_linear_10025_66371" x1="284.187" y1="19.1973" x2="284.187" y2="55.7693" gradientUnits="userSpaceOnUse">
<stop stop-color="#72707D"/>
<stop offset="1" stop-color="#101824"/>
</linearGradient>
<linearGradient id="paint4_linear_10025_66371" x1="220.187" y1="0.912109" x2="220.187" y2="55.7691" gradientUnits="userSpaceOnUse">
<stop stop-color="#72707D"/>
<stop offset="1" stop-color="#101824"/>
</linearGradient>
<clipPath id="clip0_10025_66371">
<rect width="512" height="512" fill="white" transform="translate(0.758789 0.912109)"/>
</clipPath>
</defs>
</svg>
