<svg width="512" height="512" viewBox="0 0 512 512" fill="none" xmlns="http://www.w3.org/2000/svg">
<g clip-path="url(#clip0_10025_65241)">
<path d="M155.427 439.016V475.439C155.351 495.149 170.964 511.346 190.664 511.992C200.251 512.204 209.516 508.529 216.352 501.804C222.845 495.454 226.979 487.079 228.071 478.063L224.195 473.215C207.454 452.212 182.278 439.692 155.427 439.016Z" fill="url(#paint0_linear_10025_65241)"/>
<path d="M82.2838 146.295C62.5758 146.215 46.3798 161.829 45.7388 181.527C45.4708 191.121 49.1478 200.406 55.9128 207.215C63.3978 214.979 73.7038 219.387 84.4888 219.438H85.0138C93.4498 195.787 93.4498 169.946 85.0138 146.295H82.2838Z" fill="url(#paint1_linear_10025_65241)"/>
<path d="M287.802 473.215L283.71 478.333C284.949 496.882 300.081 511.453 318.664 511.991C328.251 512.203 337.516 508.528 344.352 501.803C352.113 494.318 356.519 484.014 356.571 473.232V439.014C329.719 439.691 304.543 452.211 287.802 473.215Z" fill="url(#paint2_linear_10025_65241)"/>
<path d="M314.762 146.295C307.45 146.294 300.84 141.941 297.949 135.224C295.011 128.59 296.371 120.838 301.391 115.599C320.477 95.3243 325.411 65.5223 313.877 40.1793C302.343 14.8353 276.631 -1.01966 248.806 0.0553412C214.286 1.66434 186.238 28.4813 183.083 62.8943C181.399 82.1593 187.993 101.23 201.217 115.34C206.288 120.733 207.674 128.622 204.744 135.42C201.897 142.082 195.319 146.374 188.074 146.295H104.345C111.517 170.149 111.517 195.584 104.345 219.438H146.284C148.709 219.437 151.035 220.4 152.75 222.115C154.465 223.83 155.428 226.156 155.427 228.581V420.729C182.754 421.311 208.863 432.148 228.57 451.09V384.01C228.637 368.889 240.878 356.648 255.999 356.581C256.794 356.581 257.588 356.617 258.392 356.688C272.794 358.277 283.631 370.548 283.428 385.036V451.09C303.135 432.149 329.244 421.311 356.571 420.73V228.581C356.57 226.156 357.533 223.83 359.248 222.115C360.963 220.4 363.289 219.437 365.714 219.438H407.653C400.481 195.584 400.481 170.149 407.653 146.295H314.762ZM265.869 42.2513C266.29 41.1203 266.945 40.0923 267.793 39.2333C270.409 36.5963 274.36 35.8033 277.79 37.2273C281.22 38.6513 283.448 42.0103 283.427 45.7243C283.469 49.4443 281.252 52.8193 277.821 54.2583C274.39 55.6973 270.429 54.9143 267.804 52.2763C265.179 49.6403 264.414 45.6753 265.869 42.2513ZM222.079 39.2333C224.695 36.5963 228.646 35.8033 232.077 37.2273C235.507 38.6513 237.735 42.0103 237.714 45.7243C237.714 50.7733 233.621 54.8673 228.571 54.8673C223.522 54.8673 219.428 50.7743 219.428 45.7243C219.461 43.3033 220.408 40.9853 222.079 39.2333ZM264.409 323.483C263.942 324.589 263.293 325.609 262.489 326.501C261.6 327.308 260.579 327.957 259.471 328.421C257.257 329.397 254.734 329.397 252.52 328.421C250.226 327.585 248.419 325.778 247.583 323.484C247.116 322.385 246.869 321.205 246.856 320.01C246.871 319.426 246.932 318.843 247.039 318.269C247.123 317.665 247.307 317.08 247.584 316.537C247.785 315.952 248.063 315.397 248.41 314.885L249.508 313.519C250.396 312.712 251.415 312.063 252.521 311.599C254.728 310.59 257.265 310.59 259.472 311.599C260.58 312.063 261.601 312.712 262.49 313.519C262.883 313.951 263.248 314.407 263.584 314.885C263.931 315.396 264.209 315.952 264.41 316.537C264.686 317.081 264.871 317.666 264.959 318.269C265.064 318.844 265.126 319.426 265.142 320.011C265.127 321.204 264.878 322.384 264.409 323.483ZM264.409 277.769C263.942 278.875 263.293 279.895 262.489 280.787C261.6 281.594 260.579 282.243 259.471 282.707C257.257 283.683 254.734 283.683 252.52 282.707C250.226 281.871 248.419 280.064 247.583 277.77C247.116 276.671 246.869 275.491 246.856 274.296C246.89 271.875 247.837 269.557 249.507 267.805C250.395 266.998 251.414 266.349 252.52 265.885C254.187 265.153 256.041 264.959 257.824 265.331C258.397 265.434 258.952 265.621 259.471 265.885C260.055 266.082 260.609 266.359 261.118 266.706C261.596 267.046 262.053 267.413 262.489 267.805C264.158 269.558 265.105 271.876 265.14 274.296C265.127 275.49 264.878 276.67 264.409 277.769ZM247.583 225.108C248.047 223.999 248.698 222.978 249.507 222.089C250.364 221.243 251.391 220.589 252.52 220.169C254.746 219.249 257.245 219.249 259.471 220.169C260.59 220.611 261.614 221.263 262.489 222.089C263.296 222.979 263.945 223.999 264.409 225.107C265.869 228.508 265.108 232.456 262.49 235.072C261.601 235.879 260.58 236.528 259.472 236.992C256.07 238.451 252.123 237.691 249.507 235.072C246.892 232.456 246.13 228.511 247.583 225.108ZM247.584 179.394C248.42 177.1 250.227 175.293 252.521 174.457C254.738 173.493 257.255 173.493 259.472 174.457C260.591 174.899 261.615 175.551 262.49 176.377C263.297 177.267 263.946 178.287 264.41 179.395C265.869 182.796 265.108 186.743 262.49 189.359C259.873 191.978 255.924 192.738 252.521 191.279C251.414 190.815 250.395 190.166 249.508 189.359C246.892 186.741 246.131 182.797 247.584 179.394ZM287.98 99.4123C265.491 112.948 237.362 112.948 214.873 99.4123C210.494 96.8973 208.983 91.3093 211.498 86.9303C214.013 82.5513 219.601 81.0403 223.98 83.5553C240.782 94.0193 262.071 94.0193 278.873 83.5553C283.252 81.0403 288.84 82.5513 291.355 86.9303C293.87 91.3083 292.359 96.8973 287.98 99.4123Z" fill="url(#paint3_linear_10025_65241)"/>
<path d="M456.084 158.52C448.599 150.756 438.293 146.348 427.508 146.297H426.983C418.547 169.948 418.547 195.789 426.983 219.44H429.713C449.421 219.52 465.617 203.906 466.258 184.208V184.199C466.524 174.607 462.847 165.326 456.084 158.52Z" fill="url(#paint4_linear_10025_65241)"/>
</g>
<defs>
<linearGradient id="paint0_linear_10025_65241" x1="191.749" y1="439.016" x2="191.749" y2="512" gradientUnits="userSpaceOnUse">
<stop stop-color="#72707D"/>
<stop offset="1" stop-color="#101824"/>
</linearGradient>
<linearGradient id="paint1_linear_10025_65241" x1="68.5329" y1="146.295" x2="68.5329" y2="219.438" gradientUnits="userSpaceOnUse">
<stop stop-color="#72707D"/>
<stop offset="1" stop-color="#101824"/>
</linearGradient>
<linearGradient id="paint2_linear_10025_65241" x1="320.14" y1="439.014" x2="320.14" y2="511.999" gradientUnits="userSpaceOnUse">
<stop stop-color="#72707D"/>
<stop offset="1" stop-color="#101824"/>
</linearGradient>
<linearGradient id="paint3_linear_10025_65241" x1="255.999" y1="0.00390625" x2="255.999" y2="451.09" gradientUnits="userSpaceOnUse">
<stop stop-color="#72707D"/>
<stop offset="1" stop-color="#101824"/>
</linearGradient>
<linearGradient id="paint4_linear_10025_65241" x1="443.464" y1="146.297" x2="443.464" y2="219.44" gradientUnits="userSpaceOnUse">
<stop stop-color="#72707D"/>
<stop offset="1" stop-color="#101824"/>
</linearGradient>
<clipPath id="clip0_10025_65241">
<rect width="511.997" height="511.997" fill="white" transform="translate(0 0.00390625)"/>
</clipPath>
</defs>
</svg>
