<svg width="512" height="512" viewBox="0 0 512 512" fill="none" xmlns="http://www.w3.org/2000/svg">
<path d="M34.4001 313.12L198.88 477.6C185.983 479.206 172.997 480.008 160 480C125.597 480.173 91.394 474.77 58.7201 464C56.1863 463.239 53.8807 461.861 52.0099 459.99C50.1391 458.119 48.7614 455.814 48.0001 453.28C37.2302 420.606 31.8268 386.403 32.0001 352C31.9924 339.003 32.794 326.018 34.4001 313.12ZM470.56 237.28C456.448 293.645 427.292 345.119 386.206 386.205C345.119 427.292 293.645 456.448 237.28 470.56L41.4401 274.72C55.5524 218.355 84.7083 166.881 125.795 125.795C166.881 84.7082 218.355 55.5523 274.72 41.44L470.56 237.28ZM363.36 196.64L315.36 148.64C312.347 145.627 308.261 143.935 304 143.935C299.739 143.935 295.653 145.627 292.64 148.64C289.627 151.653 287.935 155.739 287.935 160C287.935 164.261 289.627 168.347 292.64 171.36L305.44 184L280 209.44L267.36 196.64C264.347 193.627 260.261 191.935 256 191.935C251.739 191.935 247.653 193.627 244.64 196.64C241.627 199.653 239.935 203.739 239.935 208C239.935 212.261 241.627 216.347 244.64 219.36L257.44 232L232 257.44L219.36 244.64C217.868 243.148 216.097 241.965 214.148 241.157C212.199 240.35 210.11 239.935 208 239.935C205.89 239.935 203.801 240.35 201.852 241.157C199.903 241.965 198.132 243.148 196.64 244.64C195.148 246.132 193.965 247.903 193.158 249.852C192.35 251.801 191.935 253.89 191.935 256C191.935 258.11 192.35 260.199 193.158 262.148C193.965 264.097 195.148 265.868 196.64 267.36L209.44 280L184 305.44L171.36 292.64C169.868 291.148 168.097 289.965 166.148 289.157C164.199 288.35 162.11 287.935 160 287.935C157.89 287.935 155.801 288.35 153.852 289.157C151.903 289.965 150.132 291.148 148.64 292.64C147.148 294.132 145.965 295.903 145.158 297.852C144.35 299.801 143.935 301.89 143.935 304C143.935 306.11 144.35 308.199 145.158 310.148C145.965 312.097 147.148 313.868 148.64 315.36L196.64 363.36C199.653 366.373 203.739 368.065 208 368.065C212.261 368.065 216.347 366.373 219.36 363.36C222.373 360.347 224.066 356.261 224.066 352C224.066 347.739 222.373 343.653 219.36 340.64L206.56 328L232 302.56L244.64 315.36C247.653 318.373 251.739 320.065 256 320.065C260.261 320.065 264.347 318.373 267.36 315.36C270.373 312.347 272.066 308.261 272.066 304C272.066 299.739 270.373 295.653 267.36 292.64L254.56 280L280 254.56L292.64 267.36C295.653 270.373 299.739 272.065 304 272.065C308.261 272.065 312.347 270.373 315.36 267.36C318.373 264.347 320.066 260.261 320.066 256C320.066 251.739 318.373 247.653 315.36 244.64L302.56 232L328 206.56L340.64 219.36C343.653 222.373 347.739 224.065 352 224.065C356.261 224.065 360.347 222.373 363.36 219.36C366.373 216.347 368.066 212.261 368.066 208C368.066 203.739 366.373 199.653 363.36 196.64ZM464 58.72C463.239 56.1861 461.861 53.8806 459.99 52.0098C458.12 50.1389 455.814 48.7612 453.28 48C420.606 37.2301 386.403 31.8267 352 32C339.003 31.9923 326.018 32.7939 313.12 34.4L477.6 198.88C479.206 185.982 480.008 172.997 480 160C480.173 125.597 474.77 91.3939 464 58.72Z" fill="url(#paint0_linear_10025_21584)"/>
<defs>
<linearGradient id="paint0_linear_10025_21584" x1="256" y1="31.996" x2="256" y2="480.004" gradientUnits="userSpaceOnUse">
<stop stop-color="#72707D"/>
<stop offset="1" stop-color="#101824"/>
</linearGradient>
</defs>
</svg>
