<svg width="512" height="512" viewBox="0 0 512 512" fill="none" xmlns="http://www.w3.org/2000/svg">
<g clip-path="url(#clip0_10025_60542)">
<path d="M413.436 451.002C257.225 451.002 173.37 451.002 130.998 451.002C102.748 451.002 92.87 451.002 92.533 451.002C76.22 451.002 53.77 451.002 23.436 451.002C15.145 451.002 8.43604 457.711 8.43604 466.002C8.43604 474.293 15.145 481.002 23.436 481.002H59.164L61.727 487.129C69.403 502.466 84.828 512.002 101.981 512.002H334.891C352.044 512.002 367.469 502.466 375.145 487.129L377.708 481.002H413.436C421.727 481.002 428.436 474.293 428.436 466.002C428.436 457.711 421.727 451.002 413.436 451.002Z" fill="url(#paint0_linear_10025_60542)"/>
<path d="M174.274 278.05C173.377 282.089 172.785 286.328 173.305 291.027C174.74 303.99 181.361 316.94 191.923 327.516C206.271 341.831 226.264 348.253 241.431 345.208L174.274 278.05Z" fill="url(#paint1_linear_10025_60542)"/>
<path d="M263.554 310.992C262.133 298.013 255.527 285.079 244.95 274.488C232.924 262.476 217.821 255.577 203.495 255.577C200.648 255.577 198.167 256.361 195.585 256.939L262.605 323.959C263.502 319.92 264.086 315.682 263.554 310.992Z" fill="url(#paint2_linear_10025_60542)"/>
<path d="M413.436 181.002H23.436C15.145 181.002 8.43604 187.711 8.43604 196.002C8.43604 285.405 39.174 367.649 90.103 421.002H346.769C397.698 367.649 428.436 285.405 428.436 196.002C428.436 187.711 421.727 181.002 413.436 181.002ZM276.767 359.331C265.751 370.361 250.341 376.426 233.378 376.426C211.156 376.426 188.319 366.333 170.712 348.726C155.346 333.36 145.678 314.053 143.481 294.336C141.225 273.976 147.128 255.621 160.106 242.657C185.55 217.198 235.121 222.237 266.161 253.277C281.557 268.673 291.224 287.994 293.378 307.681C295.663 327.969 289.76 346.338 276.767 359.331Z" fill="url(#paint3_linear_10025_60542)"/>
<path d="M486.195 228.243C478.459 220.525 468.467 215.993 457.539 213.459C457.114 223.55 456.649 233.606 455.51 243.486C459.126 244.898 462.358 246.835 464.984 249.453C482.225 266.709 472.513 305.571 443.758 334.311C439.058 339.009 434.033 343.069 428.906 346.744C422.682 361.784 415.823 376.327 407.816 389.843C427.685 384.187 447.845 372.657 464.969 355.522C506.601 313.907 515.932 257.994 486.195 228.243Z" fill="url(#paint4_linear_10025_60542)"/>
<path d="M345.658 52.78C311.644 18.752 266.454 0.00195312 218.436 0.00195312C170.418 0.00195312 125.228 18.752 91.2151 52.78C85.3561 58.639 85.3561 68.132 91.2151 73.991C97.0741 79.85 106.566 79.851 112.426 73.991C140.785 45.617 178.432 30.002 218.436 30.002C258.44 30.002 296.087 45.617 324.447 73.991C330.306 79.85 339.798 79.851 345.658 73.991C351.517 68.132 351.517 58.639 345.658 52.78Z" fill="url(#paint5_linear_10025_60542)"/>
<path d="M303.251 95.1871C257.87 49.8061 179.003 49.8061 133.622 95.1871C127.763 101.046 127.763 110.539 133.622 116.398C139.481 122.257 148.974 122.257 154.833 116.398C188.876 82.3551 247.997 82.3551 282.04 116.398C287.899 122.258 297.392 122.258 303.251 116.398C309.11 110.539 309.11 101.046 303.251 95.1871Z" fill="url(#paint6_linear_10025_60542)"/>
<path d="M260.859 138.009C238.183 115.333 198.69 115.333 176.015 138.009C170.156 143.868 170.156 153.361 176.015 159.22C181.874 165.079 191.367 165.079 197.226 159.22C208.564 147.882 228.31 147.882 239.648 159.22C245.507 165.079 255 165.079 260.859 159.22C266.718 153.361 266.718 143.868 260.859 138.009Z" fill="url(#paint7_linear_10025_60542)"/>
</g>
<defs>
<linearGradient id="paint0_linear_10025_60542" x1="218.436" y1="451.002" x2="218.436" y2="512.002" gradientUnits="userSpaceOnUse">
<stop stop-color="#72707D"/>
<stop offset="1" stop-color="#101824"/>
</linearGradient>
<linearGradient id="paint1_linear_10025_60542" x1="207.271" y1="278.05" x2="207.271" y2="345.949" gradientUnits="userSpaceOnUse">
<stop stop-color="#72707D"/>
<stop offset="1" stop-color="#101824"/>
</linearGradient>
<linearGradient id="paint2_linear_10025_60542" x1="229.671" y1="255.577" x2="229.671" y2="323.959" gradientUnits="userSpaceOnUse">
<stop stop-color="#72707D"/>
<stop offset="1" stop-color="#101824"/>
</linearGradient>
<linearGradient id="paint3_linear_10025_60542" x1="218.436" y1="181.002" x2="218.436" y2="421.002" gradientUnits="userSpaceOnUse">
<stop stop-color="#72707D"/>
<stop offset="1" stop-color="#101824"/>
</linearGradient>
<linearGradient id="paint4_linear_10025_60542" x1="455.69" y1="213.459" x2="455.69" y2="389.843" gradientUnits="userSpaceOnUse">
<stop stop-color="#72707D"/>
<stop offset="1" stop-color="#101824"/>
</linearGradient>
<linearGradient id="paint5_linear_10025_60542" x1="218.437" y1="0.00195312" x2="218.437" y2="78.3856" gradientUnits="userSpaceOnUse">
<stop stop-color="#72707D"/>
<stop offset="1" stop-color="#101824"/>
</linearGradient>
<linearGradient id="paint6_linear_10025_60542" x1="218.436" y1="61.1514" x2="218.436" y2="120.793" gradientUnits="userSpaceOnUse">
<stop stop-color="#72707D"/>
<stop offset="1" stop-color="#101824"/>
</linearGradient>
<linearGradient id="paint7_linear_10025_60542" x1="218.437" y1="121.002" x2="218.437" y2="163.614" gradientUnits="userSpaceOnUse">
<stop stop-color="#72707D"/>
<stop offset="1" stop-color="#101824"/>
</linearGradient>
<clipPath id="clip0_10025_60542">
<rect width="512" height="512" fill="white" transform="translate(0 0.00195312)"/>
</clipPath>
</defs>
</svg>
