<svg width="512" height="512" viewBox="0 0 512 512" fill="none" xmlns="http://www.w3.org/2000/svg">
<g clip-path="url(#clip0_10025_60567)">
<path d="M326.442 123.823C324.333 121.933 316.437 113.188 316.437 105C316.437 97.1481 323.893 88.5211 326.442 86.1771C328.493 84.3461 346.437 67.6171 346.437 45.0001C346.437 22.3831 328.492 5.65305 326.442 3.82205C320.304 -1.68595 310.797 -1.18795 305.26 4.99405C299.738 11.1611 300.265 20.6531 306.432 26.1761C308.541 28.0661 316.437 36.8111 316.437 44.9991C316.437 52.8501 308.981 61.4781 306.432 63.8221C304.381 65.6531 286.437 82.3821 286.437 104.999C286.437 127.616 304.381 144.345 306.432 146.176C312.579 151.693 322.086 151.188 327.614 145.004C333.136 138.838 332.609 129.346 326.442 123.823Z" fill="url(#paint0_linear_10025_60567)"/>
<path d="M236.441 123.823C234.332 121.933 226.436 113.188 226.436 105C226.436 97.1481 233.892 88.5211 236.441 86.1771C238.492 84.3461 256.436 67.6171 256.436 45.0001C256.436 22.3831 238.491 5.65305 236.441 3.82205C230.318 -1.68595 220.811 -1.18795 215.259 4.99405C209.737 11.1611 210.264 20.6531 216.431 26.1761C218.54 28.0661 226.436 36.8111 226.436 44.9991C226.436 52.8501 218.98 61.4781 216.431 63.8221C214.38 65.6531 196.436 82.3821 196.436 104.999C196.436 127.616 214.38 144.345 216.431 146.176C222.578 151.693 232.085 151.188 237.613 145.004C243.135 138.838 242.608 129.346 236.441 123.823Z" fill="url(#paint1_linear_10025_60567)"/>
<path d="M146.441 123.823C144.332 121.933 136.436 113.188 136.436 105C136.436 97.1481 143.892 88.5211 146.441 86.1771C148.492 84.3461 166.436 67.6171 166.436 45.0001C166.436 22.3831 148.491 5.65305 146.441 3.82205C140.303 -1.68595 130.826 -1.18795 125.259 4.99405C119.737 11.1611 120.264 20.6531 126.431 26.1761C128.54 28.0661 136.436 36.8111 136.436 44.9991C136.436 52.8501 128.98 61.4781 126.431 63.8221C124.38 65.6531 106.436 82.3821 106.436 104.999C106.436 127.616 124.38 144.345 126.431 146.176C132.578 151.693 142.085 151.188 147.613 145.004C153.135 138.838 152.608 129.346 146.441 123.823Z" fill="url(#paint2_linear_10025_60567)"/>
<path d="M413.438 451.002C257.226 451.002 173.371 451.002 130.998 451.002C102.748 451.002 92.87 451.002 92.533 451.002C76.22 451.002 53.77 451.002 23.436 451.002C15.145 451.002 8.43604 457.711 8.43604 466.002C8.43604 474.293 15.145 481.002 23.436 481.002H59.164L61.727 487.129C69.402 502.466 84.828 512.002 101.981 512.002H334.892C352.045 512.002 367.47 502.466 375.146 487.129L377.709 481.002H413.437C421.728 481.002 428.437 474.293 428.437 466.002C428.438 457.711 421.729 451.002 413.438 451.002Z" fill="url(#paint3_linear_10025_60567)"/>
<path d="M174.273 278.048C173.376 282.087 172.784 286.326 173.304 291.025C174.74 303.989 181.361 316.938 191.922 327.514C206.27 341.829 226.263 348.251 241.43 345.206L174.273 278.048Z" fill="url(#paint4_linear_10025_60567)"/>
<path d="M263.554 310.991C262.133 298.012 255.527 285.078 244.95 274.487C232.924 262.475 217.821 255.576 203.495 255.576C200.648 255.576 198.167 256.36 195.585 256.938L262.605 323.958C263.503 319.919 264.087 315.68 263.554 310.991Z" fill="url(#paint5_linear_10025_60567)"/>
<path d="M413.438 181H23.4351C15.1441 181 8.43506 187.709 8.43506 196C8.43506 285.404 39.1731 367.648 90.1021 421.001H346.77C397.699 367.648 428.437 285.403 428.437 196C428.438 187.709 421.729 181 413.438 181ZM276.768 359.33C265.752 370.36 250.342 376.425 233.379 376.425C211.157 376.425 188.32 366.332 170.713 348.725C155.347 333.359 145.679 314.052 143.482 294.335C141.225 273.974 147.128 255.62 160.107 242.656C185.551 217.197 235.122 222.236 266.163 253.276C281.559 268.671 291.226 287.993 293.38 307.68C295.664 327.968 289.761 346.337 276.768 359.33Z" fill="url(#paint6_linear_10025_60567)"/>
<path d="M486.197 228.241C478.461 220.523 468.469 215.991 457.541 213.457C457.116 223.548 456.651 233.604 455.512 243.484C459.128 244.896 462.36 246.833 464.986 249.451C482.227 266.707 472.515 305.569 443.76 334.31C439.06 339.008 434.035 343.068 428.908 346.743C422.684 361.783 415.825 376.326 407.818 389.842C427.687 384.186 447.847 372.656 464.971 355.521C506.602 313.906 515.933 257.993 486.197 228.241Z" fill="url(#paint7_linear_10025_60567)"/>
</g>
<defs>
<linearGradient id="paint0_linear_10025_60567" x1="316.437" y1="0.00195312" x2="316.437" y2="150" gradientUnits="userSpaceOnUse">
<stop stop-color="#72707D"/>
<stop offset="1" stop-color="#101824"/>
</linearGradient>
<linearGradient id="paint1_linear_10025_60567" x1="226.436" y1="0.00195312" x2="226.436" y2="150" gradientUnits="userSpaceOnUse">
<stop stop-color="#72707D"/>
<stop offset="1" stop-color="#101824"/>
</linearGradient>
<linearGradient id="paint2_linear_10025_60567" x1="136.436" y1="0.00195312" x2="136.436" y2="150" gradientUnits="userSpaceOnUse">
<stop stop-color="#72707D"/>
<stop offset="1" stop-color="#101824"/>
</linearGradient>
<linearGradient id="paint3_linear_10025_60567" x1="218.437" y1="451.002" x2="218.437" y2="512.002" gradientUnits="userSpaceOnUse">
<stop stop-color="#72707D"/>
<stop offset="1" stop-color="#101824"/>
</linearGradient>
<linearGradient id="paint4_linear_10025_60567" x1="207.27" y1="278.048" x2="207.27" y2="345.947" gradientUnits="userSpaceOnUse">
<stop stop-color="#72707D"/>
<stop offset="1" stop-color="#101824"/>
</linearGradient>
<linearGradient id="paint5_linear_10025_60567" x1="229.671" y1="255.576" x2="229.671" y2="323.958" gradientUnits="userSpaceOnUse">
<stop stop-color="#72707D"/>
<stop offset="1" stop-color="#101824"/>
</linearGradient>
<linearGradient id="paint6_linear_10025_60567" x1="218.436" y1="181" x2="218.436" y2="421.001" gradientUnits="userSpaceOnUse">
<stop stop-color="#72707D"/>
<stop offset="1" stop-color="#101824"/>
</linearGradient>
<linearGradient id="paint7_linear_10025_60567" x1="455.691" y1="213.457" x2="455.691" y2="389.842" gradientUnits="userSpaceOnUse">
<stop stop-color="#72707D"/>
<stop offset="1" stop-color="#101824"/>
</linearGradient>
<clipPath id="clip0_10025_60567">
<rect width="512" height="512" fill="white" transform="translate(0 0.00195312)"/>
</clipPath>
</defs>
</svg>
