<svg width="512" height="512" viewBox="0 0 512 512" fill="none" xmlns="http://www.w3.org/2000/svg">
<path d="M467.36 336L368 315.04V263.2L433.76 256C437.692 255.565 441.323 253.689 443.952 250.734C446.582 247.78 448.024 243.955 448 240C448.005 212.359 442.5 184.994 431.808 159.505C421.116 134.016 405.45 110.913 385.727 91.5474C366.004 72.1817 342.619 56.9415 316.938 46.7172C291.257 36.4929 263.796 31.4898 236.16 32.0001C180.914 34.1218 128.674 57.7094 90.5484 97.7475C52.4225 137.786 31.4177 191.116 32.0001 246.4V288C32.0001 292.244 33.6858 296.313 36.6864 299.314C39.6869 302.314 43.7566 304 48.0001 304C59.1914 303.985 70.1448 307.23 79.5216 313.339C88.8984 319.448 96.2925 328.157 100.8 338.4L124.96 392.48C132.195 408.687 143.889 422.502 158.677 432.316C173.466 442.129 190.74 447.535 208.484 447.904C226.229 448.273 243.712 443.59 258.896 434.4C274.08 425.21 286.338 411.892 294.24 396L336.48 404.96C337.739 425.223 346.654 444.25 361.42 458.185C376.186 472.119 395.698 479.917 416 480H448C451.883 480.038 455.646 478.663 458.59 476.132C461.534 473.6 463.457 470.084 464 466.24L480 354.24C480.661 350.155 479.713 345.974 477.356 342.573C474.999 339.172 471.417 336.816 467.36 336ZM208 368C204.836 368 201.742 367.062 199.111 365.304C196.48 363.545 194.429 361.047 193.218 358.123C192.007 355.199 191.69 351.982 192.308 348.879C192.925 345.775 194.449 342.924 196.686 340.686C198.924 338.449 201.775 336.925 204.879 336.307C207.982 335.69 211.199 336.007 214.123 337.218C217.047 338.429 219.545 340.48 221.304 343.111C223.062 345.742 224 348.836 224 352C224 356.244 222.314 360.313 219.314 363.314C216.313 366.314 212.244 368 208 368ZM336 372.16L304 365.12C304 361.6 304 358.08 304 354.4V334.08L336 340.96V372.16ZM336 308.16L305.6 301.6C307.532 293.959 311.316 286.911 316.618 281.078C321.92 275.246 328.577 270.81 336 268.16V308.16ZM434.08 448H416C405.42 447.957 395.151 444.42 386.789 437.939C378.427 431.457 372.44 422.395 369.76 412.16L437.12 426.56L434.08 448ZM441.76 394.88L368 378.88V346.88L446.08 362.88L441.76 394.88Z" fill="url(#paint0_linear_10025_21587)"/>
<defs>
<linearGradient id="paint0_linear_10025_21587" x1="256.097" y1="31.9646" x2="256.097" y2="480.001" gradientUnits="userSpaceOnUse">
<stop stop-color="#72707D"/>
<stop offset="1" stop-color="#101824"/>
</linearGradient>
</defs>
</svg>
