<svg width="512" height="512" viewBox="0 0 512 512" fill="none" xmlns="http://www.w3.org/2000/svg">
<path d="M300.96 203.04C279.062 182.632 251.879 168.777 222.5 163.047C193.121 157.318 162.724 159.945 134.763 170.629C106.802 181.313 82.399 199.627 64.3271 223.488C46.2552 247.35 35.2391 275.802 32.5308 305.612C29.8226 335.422 35.5307 365.394 49.0066 392.122C62.4824 418.849 83.1855 441.261 108.763 456.809C134.341 472.358 163.767 480.419 193.698 480.078C223.628 479.737 252.863 471.007 278.08 454.88C263.232 417.017 255.738 376.67 256 336C258.066 288.312 273.66 242.196 300.96 203.04ZM112 320C108.835 320 105.742 319.062 103.111 317.304C100.479 315.545 98.4287 313.047 97.2177 310.123C96.0067 307.199 95.6898 303.982 96.3072 300.879C96.9246 297.775 98.4484 294.924 100.686 292.686C102.924 290.449 105.775 288.925 108.878 288.307C111.982 287.69 115.199 288.007 118.123 289.218C121.046 290.429 123.545 292.48 125.303 295.111C127.061 297.742 128 300.835 128 304C128 308.243 126.314 312.313 123.313 315.314C120.313 318.314 116.243 320 112 320ZM144 272C140.835 272 137.742 271.062 135.111 269.304C132.479 267.545 130.429 265.047 129.218 262.123C128.007 259.199 127.69 255.982 128.307 252.879C128.925 249.775 130.448 246.924 132.686 244.686C134.924 242.449 137.775 240.925 140.878 240.307C143.982 239.69 147.199 240.007 150.123 241.218C153.046 242.429 155.545 244.48 157.303 247.111C159.061 249.742 160 252.835 160 256C160 260.243 158.314 264.313 155.313 267.314C152.313 270.314 148.243 272 144 272ZM176 320C172.835 320 169.742 319.062 167.111 317.304C164.479 315.545 162.429 313.047 161.218 310.123C160.007 307.199 159.69 303.982 160.307 300.879C160.925 297.775 162.448 294.924 164.686 292.686C166.924 290.449 169.775 288.925 172.878 288.307C175.982 287.69 179.199 288.007 182.123 289.218C185.046 290.429 187.545 292.48 189.303 295.111C191.061 297.742 192 300.835 192 304C192 308.243 190.314 312.313 187.313 315.314C184.313 318.314 180.243 320 176 320ZM327.36 138.24C322.867 124.592 320.388 110.363 320 96C320 79.0261 326.743 62.7475 338.745 50.7452C350.747 38.7428 367.026 32 384 32C400.974 32 417.252 38.7428 429.255 50.7452C441.257 62.7475 448 79.0261 448 96C447.612 110.363 445.133 124.592 440.64 138.24C440.64 140.16 439.52 142.08 438.88 144H329.12C328.48 142.08 328 140.16 327.36 138.24ZM333.44 208C335.132 202.835 335.996 197.435 336 192C336 186.24 336 180.96 335.2 176H432.8C432.8 180.96 432 186.24 432 192C432.004 197.435 432.868 202.835 434.56 208H333.44ZM480 336C481.253 383.928 469.237 431.27 445.28 472.8C443.83 475.001 441.86 476.81 439.543 478.066C437.226 479.322 434.635 479.986 432 480H336C333.364 479.986 330.773 479.322 328.457 478.066C326.14 476.81 324.169 475.001 322.72 472.8C298.762 431.27 286.747 383.928 288 336C287.489 301.822 297.487 268.312 316.64 240H451.36C470.513 268.312 480.51 301.822 480 336Z" fill="url(#paint0_linear_10025_21590)"/>
<defs>
<linearGradient id="paint0_linear_10025_21590" x1="255.982" y1="32" x2="255.982" y2="480.089" gradientUnits="userSpaceOnUse">
<stop stop-color="#72707D"/>
<stop offset="1" stop-color="#101824"/>
</linearGradient>
</defs>
</svg>
