<svg width="508" height="507" viewBox="0 0 508 507" fill="none" xmlns="http://www.w3.org/2000/svg">
<path d="M136.769 159.733C138.332 161.744 140.676 162.804 143.043 162.804C144.737 162.804 146.439 162.263 147.885 161.149C151.343 158.472 151.977 153.498 149.301 150.033C148.86 149.468 138.618 135.939 148.937 124.405C164.153 107.394 155.83 86.9491 149.301 78.5096C146.617 75.0595 141.65 74.4252 138.185 77.094C134.727 79.7705 134.093 84.7445 136.769 88.21C137.21 88.7747 147.452 102.304 137.133 113.838C121.917 130.849 130.241 151.294 136.769 159.733Z" fill="url(#paint0_linear_10025_57991)"/>
<path d="M358.293 155.2C359.848 157.219 362.177 158.263 364.536 158.263C366.214 158.263 367.909 157.73 369.355 156.631C372.813 153.986 373.478 149.027 370.856 145.546C369.757 144.1 360.459 131.057 370.461 119.872C385.677 102.861 377.354 82.4161 370.825 73.9766C368.148 70.5266 363.182 69.8922 359.709 72.561C356.251 75.2375 355.617 80.2115 358.293 83.677C358.734 84.2417 368.976 97.7713 358.657 109.305C343.441 126.316 351.764 146.768 358.293 155.2Z" fill="url(#paint1_linear_10025_57991)"/>
<path d="M248.131 123.972C249.693 125.983 252.037 127.043 254.404 127.043C256.098 127.043 257.8 126.502 259.247 125.388C262.704 122.711 263.339 117.737 260.662 114.272C260.221 113.707 249.979 100.177 260.299 88.6437C275.515 71.6332 267.191 51.1803 260.662 42.7485C258.001 39.2984 253.081 38.6796 249.6 41.3174C246.143 43.963 245.477 48.9215 248.1 52.4025C249.198 53.8491 258.496 66.8912 248.494 78.0769C233.278 95.0874 241.602 115.533 248.131 123.972Z" fill="url(#paint2_linear_10025_57991)"/>
<path d="M192.215 419.741L186.116 257.989H93.6753L111.815 419.741H192.215Z" fill="url(#paint3_linear_10025_57991)"/>
<path d="M208.058 419.741H300.736L306.835 257.989H201.958L208.058 419.741Z" fill="url(#paint4_linear_10025_57991)"/>
<path d="M322.678 257.989L316.578 419.741H396.979L415.118 257.989H322.678Z" fill="url(#paint5_linear_10025_57991)"/>
<path d="M111.815 435.588H396.98V467.273H111.815V435.588Z" fill="url(#paint6_linear_10025_57991)"/>
<path d="M205.682 242.146L214.554 220.362C215.108 218.857 215.425 217.352 215.425 215.768C215.425 198.632 184.231 189.311 165.6 189.311C129.322 189.311 99.9336 208.243 99.9336 231.61C99.9336 235.254 100.647 238.818 101.993 242.146H205.682Z" fill="url(#paint7_linear_10025_57991)"/>
<path d="M294.953 215.768C294.953 217.352 295.27 218.857 295.824 220.362L304.696 242.146H408.385C409.732 238.818 410.445 235.254 410.445 231.61C410.445 202.611 367.162 183.748 328.143 190.736C327.897 190.86 323.181 192.167 322.915 192.241C306.439 196.836 294.953 206.5 294.953 215.768Z" fill="url(#paint8_linear_10025_57991)"/>
<path d="M231.267 215.766C231.267 219.409 230.554 222.974 229.207 226.301L221.062 242.146H289.383L281.171 226.301C279.824 222.974 279.111 219.409 279.111 215.766C279.111 198.418 295.35 183.447 318.638 176.951C312.38 157.861 286.003 143.524 254.397 143.524C223.029 143.524 196.73 157.623 190.314 176.555C214.316 182.813 231.267 198.022 231.267 215.766Z" fill="url(#paint9_linear_10025_57991)"/>
<defs>
<linearGradient id="paint0_linear_10025_57991" x1="143.035" y1="75.4431" x2="143.035" y2="162.804" gradientUnits="userSpaceOnUse">
<stop stop-color="#72707D"/>
<stop offset="1" stop-color="#101824"/>
</linearGradient>
<linearGradient id="paint1_linear_10025_57991" x1="364.559" y1="70.9102" x2="364.559" y2="158.263" gradientUnits="userSpaceOnUse">
<stop stop-color="#72707D"/>
<stop offset="1" stop-color="#101824"/>
</linearGradient>
<linearGradient id="paint2_linear_10025_57991" x1="254.396" y1="39.6855" x2="254.396" y2="127.043" gradientUnits="userSpaceOnUse">
<stop stop-color="#72707D"/>
<stop offset="1" stop-color="#101824"/>
</linearGradient>
<linearGradient id="paint3_linear_10025_57991" x1="142.945" y1="257.989" x2="142.945" y2="419.741" gradientUnits="userSpaceOnUse">
<stop stop-color="#72707D"/>
<stop offset="1" stop-color="#101824"/>
</linearGradient>
<linearGradient id="paint4_linear_10025_57991" x1="254.397" y1="257.989" x2="254.397" y2="419.741" gradientUnits="userSpaceOnUse">
<stop stop-color="#72707D"/>
<stop offset="1" stop-color="#101824"/>
</linearGradient>
<linearGradient id="paint5_linear_10025_57991" x1="365.848" y1="257.989" x2="365.848" y2="419.741" gradientUnits="userSpaceOnUse">
<stop stop-color="#72707D"/>
<stop offset="1" stop-color="#101824"/>
</linearGradient>
<linearGradient id="paint6_linear_10025_57991" x1="254.398" y1="435.588" x2="254.398" y2="467.273" gradientUnits="userSpaceOnUse">
<stop stop-color="#72707D"/>
<stop offset="1" stop-color="#101824"/>
</linearGradient>
<linearGradient id="paint7_linear_10025_57991" x1="157.679" y1="189.311" x2="157.679" y2="242.146" gradientUnits="userSpaceOnUse">
<stop stop-color="#72707D"/>
<stop offset="1" stop-color="#101824"/>
</linearGradient>
<linearGradient id="paint8_linear_10025_57991" x1="352.699" y1="189.278" x2="352.699" y2="242.146" gradientUnits="userSpaceOnUse">
<stop stop-color="#72707D"/>
<stop offset="1" stop-color="#101824"/>
</linearGradient>
<linearGradient id="paint9_linear_10025_57991" x1="254.476" y1="143.524" x2="254.476" y2="242.146" gradientUnits="userSpaceOnUse">
<stop stop-color="#72707D"/>
<stop offset="1" stop-color="#101824"/>
</linearGradient>
</defs>
</svg>
