<svg width="512" height="512" viewBox="0 0 512 512" fill="none" xmlns="http://www.w3.org/2000/svg">
<g clip-path="url(#clip0_10025_60605)">
<path d="M421.649 0.210938H301.747C293.463 0.210938 286.759 6.91494 286.759 15.1989V45.1749C286.759 53.4589 293.462 60.1629 301.747 60.1629H421.649C429.933 60.1629 436.637 53.4589 436.637 45.1749V15.1979C436.636 6.91394 429.933 0.210938 421.649 0.210938Z" fill="url(#paint0_linear_10025_60605)"/>
<path d="M6.07007 389.996L12.7581 470.562C14.6601 493.673 34.3461 511.793 57.5451 511.793H122.297C145.496 511.793 165.182 493.673 167.084 470.562L173.772 389.996H6.07007Z" fill="url(#paint1_linear_10025_60605)"/>
<path d="M175.896 306.809C173.055 303.72 169.046 301.964 164.859 301.964H14.9821C10.7961 301.964 6.78605 303.721 3.94605 306.809C1.12105 309.882 -0.298948 314.025 0.0530518 318.196L3.51105 359.917H176.331L179.789 318.196C180.14 314.024 178.721 309.882 175.896 306.809Z" fill="url(#paint2_linear_10025_60605)"/>
<path d="M362.342 267.158C325.795 267.158 298.747 296.453 298.747 324.777C298.747 326.484 298.864 328.145 299.016 329.724H425.702C425.85 328.126 425.968 326.275 425.968 324.577C425.966 296.179 398.824 267.158 362.342 267.158Z" fill="url(#paint3_linear_10025_60605)"/>
<path d="M493.03 256.87C442.783 173.574 426.8 147.082 421.648 138.549V92.1357H301.747V138.548L230.365 256.869C217.953 277.448 211.396 300.866 211.396 324.578C211.396 329.628 211.689 334.604 212.259 339.551L227.569 471.982C230.145 494.303 249.758 511.793 272.239 511.793H451.156C473.609 511.793 493.236 494.317 495.826 471.997L511.135 339.522C511.706 334.604 511.998 329.628 511.998 324.578C512 300.867 505.442 277.448 493.03 256.87ZM455.488 333.125L444.262 438.435C443.457 446.061 437.032 451.842 429.362 451.842H295.351C287.681 451.842 281.257 446.061 280.451 438.435L269.225 333.052C268.947 330.344 268.771 327.491 268.771 324.578C268.771 279.604 309.128 237.184 362.356 237.184C415.603 237.184 455.941 279.621 455.941 324.578C455.942 327.476 455.767 330.315 455.488 333.125Z" fill="url(#paint4_linear_10025_60605)"/>
<path d="M302.186 360.099L308.831 421.866H415.882L422.532 360.099H302.186Z" fill="url(#paint5_linear_10025_60605)"/>
</g>
<defs>
<linearGradient id="paint0_linear_10025_60605" x1="361.698" y1="0.210937" x2="361.698" y2="60.1629" gradientUnits="userSpaceOnUse">
<stop stop-color="#72707D"/>
<stop offset="1" stop-color="#101824"/>
</linearGradient>
<linearGradient id="paint1_linear_10025_60605" x1="89.9211" y1="389.996" x2="89.9211" y2="511.793" gradientUnits="userSpaceOnUse">
<stop stop-color="#72707D"/>
<stop offset="1" stop-color="#101824"/>
</linearGradient>
<linearGradient id="paint2_linear_10025_60605" x1="89.9209" y1="301.964" x2="89.9209" y2="359.917" gradientUnits="userSpaceOnUse">
<stop stop-color="#72707D"/>
<stop offset="1" stop-color="#101824"/>
</linearGradient>
<linearGradient id="paint3_linear_10025_60605" x1="362.358" y1="267.158" x2="362.358" y2="329.724" gradientUnits="userSpaceOnUse">
<stop stop-color="#72707D"/>
<stop offset="1" stop-color="#101824"/>
</linearGradient>
<linearGradient id="paint4_linear_10025_60605" x1="361.697" y1="92.1357" x2="361.697" y2="511.793" gradientUnits="userSpaceOnUse">
<stop stop-color="#72707D"/>
<stop offset="1" stop-color="#101824"/>
</linearGradient>
<linearGradient id="paint5_linear_10025_60605" x1="362.359" y1="360.099" x2="362.359" y2="421.866" gradientUnits="userSpaceOnUse">
<stop stop-color="#72707D"/>
<stop offset="1" stop-color="#101824"/>
</linearGradient>
<clipPath id="clip0_10025_60605">
<rect width="512" height="512" fill="white" transform="translate(0 0.00195312)"/>
</clipPath>
</defs>
</svg>
