<svg width="512" height="512" viewBox="0 0 512 512" fill="none" xmlns="http://www.w3.org/2000/svg">
<path d="M91.36 256H256V420.64C194.88 459.84 135.2 480 96 480C91.7565 480 87.6869 478.314 84.6863 475.314C81.6857 472.313 80 468.243 80 464V432H48C43.7565 432 39.6869 430.314 36.6863 427.314C33.6857 424.313 32 420.243 32 416C32 376.8 52.16 317.12 91.36 256ZM153.76 176C139.336 191.103 125.92 207.137 113.6 224H272C276.243 224 280.313 225.686 283.314 228.686C286.314 231.687 288 235.757 288 240V398.4C304.863 386.08 320.897 372.664 336 358.24V176H153.76ZM480 49.44C480.216 47.0965 479.911 44.7343 479.109 42.5218C478.307 40.3093 477.027 38.301 475.36 36.64C473.699 34.9728 471.691 33.6926 469.478 32.8906C467.266 32.0885 464.903 31.7844 462.56 32C455.68 32 300.96 48 187.04 144H352C356.243 144 360.313 145.686 363.314 148.686C366.314 151.687 368 155.757 368 160V324.96C464 211.04 480 56.32 480 49.44Z" fill="url(#paint0_linear_10025_21593)"/>
<defs>
<linearGradient id="paint0_linear_10025_21593" x1="256.034" y1="31.9327" x2="256.034" y2="480" gradientUnits="userSpaceOnUse">
<stop stop-color="#72707D"/>
<stop offset="1" stop-color="#101824"/>
</linearGradient>
</defs>
</svg>
