<svg width="508" height="507" viewBox="0 0 508 507" fill="none" xmlns="http://www.w3.org/2000/svg">
<path d="M244.295 255.54C305.051 283.185 380.461 252.451 398.443 244.212L407.552 212.686H101.238L113.674 256.094C134.111 246.351 185.045 228.608 244.295 255.54Z" fill="url(#paint0_linear_10025_58003)"/>
<path d="M237.722 269.956C181.56 244.45 134.112 263.382 118.111 271.62L146.786 371.586H361.927L392.898 263.778C373.254 271.461 338.242 282.63 300.458 282.63C279.625 282.63 258 279.224 237.722 269.956ZM189.165 306.394C182.511 310.909 175.698 313.206 168.886 313.206C162.153 313.206 155.341 310.909 148.687 306.394C145.123 303.939 144.172 299.027 146.628 295.384C149.083 291.819 153.994 290.868 157.638 293.324C165.48 298.631 172.372 298.631 180.214 293.324C183.778 290.868 188.768 291.819 191.224 295.384C193.68 299.027 192.729 303.939 189.165 306.394ZM253.326 341.168C246.673 345.684 239.939 347.981 233.127 347.981C226.315 347.981 219.503 345.684 212.928 341.168C209.284 338.713 208.334 333.802 210.789 330.158C213.324 326.593 218.235 325.643 221.8 328.098C229.642 333.485 236.613 333.485 244.375 328.098C248.019 325.643 252.93 326.593 255.386 330.158C257.842 333.802 256.97 338.713 253.326 341.168ZM315.587 318.751C319.231 316.296 324.142 317.246 326.598 320.811C329.053 324.454 328.182 329.365 324.538 331.821C317.964 336.336 311.151 338.634 304.339 338.634C297.527 338.634 290.715 336.336 284.14 331.821C280.496 329.365 279.625 324.454 282.08 320.811C284.536 317.246 289.447 316.296 293.091 318.751C300.854 324.058 307.824 324.058 315.587 318.751Z" fill="url(#paint1_linear_10025_58003)"/>
<path d="M423.949 212.686L412.701 251.896C412.701 251.975 412.701 252.133 412.622 252.213L375.471 381.725C374.521 385.131 371.353 387.428 367.867 387.428H140.844C137.359 387.428 134.191 385.131 133.24 381.725L101.08 269.877C101.08 269.798 101.08 269.798 101.08 269.719L84.6832 212.686H48.4038V247.143H67.0185L114.942 413.965H393.769L441.693 247.143H460.308V212.686H423.949Z" fill="url(#paint2_linear_10025_58003)"/>
<path d="M178.238 177.717C179.796 179.465 181.951 180.351 184.121 180.351C185.985 180.351 187.857 179.694 189.369 178.363C192.634 175.482 192.943 170.484 190.081 167.201C188.089 164.915 178.702 152.971 189.652 142.37C207.532 125.061 197.731 104.233 190.05 95.635C187.149 92.3938 182.187 92.1114 178.919 94.9929C175.654 97.8783 175.345 102.876 178.207 106.159C180.199 108.445 189.586 120.385 178.632 130.987C160.759 148.295 170.556 169.123 178.238 177.717Z" fill="url(#paint3_linear_10025_58003)"/>
<path d="M248.449 177.721C250.008 179.465 252.162 180.351 254.332 180.351C256.197 180.351 258.069 179.694 259.581 178.363C262.845 175.478 263.155 170.481 260.293 167.197C258.301 164.911 248.914 152.971 259.863 142.37C277.744 125.061 267.943 104.233 260.262 95.635C257.361 92.3938 252.398 92.1114 249.13 94.9929C245.866 97.8783 245.556 102.876 248.418 106.159C250.41 108.445 259.797 120.385 248.844 130.987C230.967 148.295 240.768 169.123 248.449 177.721Z" fill="url(#paint4_linear_10025_58003)"/>
<path d="M318.662 177.721C320.22 179.465 322.375 180.351 324.545 180.351C326.409 180.351 328.281 179.694 329.793 178.363C333.058 175.478 333.367 170.481 330.505 167.197C328.513 164.911 319.126 152.971 330.079 142.366C347.953 125.061 338.155 104.233 330.474 95.6388C327.565 92.3744 322.553 92.092 319.292 95.0083C316.028 97.9208 315.745 102.93 318.662 106.19C319.896 107.575 330.393 120.01 319.056 130.987C301.179 148.295 310.98 169.123 318.662 177.721Z" fill="url(#paint5_linear_10025_58003)"/>
<defs>
<linearGradient id="paint0_linear_10025_58003" x1="254.395" y1="212.686" x2="254.395" y2="266.842" gradientUnits="userSpaceOnUse">
<stop stop-color="#72707D"/>
<stop offset="1" stop-color="#101824"/>
</linearGradient>
<linearGradient id="paint1_linear_10025_58003" x1="255.505" y1="257.102" x2="255.505" y2="371.586" gradientUnits="userSpaceOnUse">
<stop stop-color="#72707D"/>
<stop offset="1" stop-color="#101824"/>
</linearGradient>
<linearGradient id="paint2_linear_10025_58003" x1="254.356" y1="212.686" x2="254.356" y2="413.965" gradientUnits="userSpaceOnUse">
<stop stop-color="#72707D"/>
<stop offset="1" stop-color="#101824"/>
</linearGradient>
<linearGradient id="paint3_linear_10025_58003" x1="184.144" y1="93.0049" x2="184.144" y2="180.351" gradientUnits="userSpaceOnUse">
<stop stop-color="#72707D"/>
<stop offset="1" stop-color="#101824"/>
</linearGradient>
<linearGradient id="paint4_linear_10025_58003" x1="254.355" y1="93.0049" x2="254.355" y2="180.351" gradientUnits="userSpaceOnUse">
<stop stop-color="#72707D"/>
<stop offset="1" stop-color="#101824"/>
</linearGradient>
<linearGradient id="paint5_linear_10025_58003" x1="324.567" y1="92.9932" x2="324.567" y2="180.351" gradientUnits="userSpaceOnUse">
<stop stop-color="#72707D"/>
<stop offset="1" stop-color="#101824"/>
</linearGradient>
</defs>
</svg>
