<svg width="512" height="512" viewBox="0 0 512 512" fill="none" xmlns="http://www.w3.org/2000/svg">
<path d="M160 96C160 108.658 156.246 121.032 149.214 131.556C142.182 142.081 132.186 150.284 120.492 155.128C108.797 159.972 95.929 161.24 83.5142 158.77C71.0995 156.301 59.6958 150.205 50.7452 141.255C41.7946 132.304 35.6992 120.901 33.2298 108.486C30.7603 96.071 32.0277 83.2027 36.8717 71.5083C41.7157 59.8138 49.9188 49.8184 60.4435 42.7859C70.9683 35.7535 83.342 32 96 32C112.974 32 129.253 38.7428 141.255 50.7452C153.257 62.7475 160 79.0261 160 96ZM144 240C143.95 262.742 148.807 285.227 158.24 305.92C159.693 309.212 159.993 312.897 159.093 316.381C158.193 319.865 156.145 322.944 153.28 325.12L81.28 379.04C76.3255 382.753 72.2269 387.487 69.2618 392.922C66.2967 398.357 64.5344 404.365 64.0944 410.541C63.6544 416.716 64.5469 422.914 66.7114 428.715C68.876 434.515 72.262 439.782 76.64 444.16L99.84 467.36C104.218 471.738 109.485 475.124 115.285 477.289C121.086 479.453 127.284 480.346 133.459 479.906C139.635 479.466 145.643 477.703 151.078 474.738C156.513 471.773 161.247 467.675 164.96 462.72L218.88 390.72C221.057 387.855 224.135 385.807 227.619 384.907C231.103 384.007 234.788 384.307 238.08 385.76C258.773 395.193 281.258 400.05 304 400C311.781 400.022 319.547 399.326 327.2 397.92L146.08 216.8C144.674 224.453 143.978 232.219 144 240ZM320 64C274.004 65.7511 230.524 85.4521 198.88 118.88C180.706 136.784 166.243 158.097 156.32 181.6L362.4 387.68C385.903 377.757 407.216 363.294 425.12 345.12C458.548 313.476 478.249 269.996 480 224C480 181.565 463.143 140.869 433.137 110.863C403.131 80.8571 362.435 64 320 64Z" fill="url(#paint0_linear_10025_21596)"/>
<defs>
<linearGradient id="paint0_linear_10025_21596" x1="256" y1="32" x2="256" y2="480.015" gradientUnits="userSpaceOnUse">
<stop stop-color="#72707D"/>
<stop offset="1" stop-color="#101824"/>
</linearGradient>
</defs>
</svg>
