<svg width="512" height="512" viewBox="0 0 512 512" fill="none" xmlns="http://www.w3.org/2000/svg">
<g clip-path="url(#clip0_10025_59812)">
<path d="M399.222 451.998H84.2219C67.6839 451.998 54.2219 465.46 54.2219 481.998C54.2219 498.536 67.6839 511.998 84.2219 511.998H399.222C415.76 511.998 429.222 498.536 429.222 481.998C429.222 465.46 415.76 451.998 399.222 451.998Z" fill="url(#paint0_linear_10025_59812)"/>
<path d="M243.216 195.998C243.216 187.707 249.925 180.998 258.216 180.998H272.816C272.816 164.46 259.754 150.998 243.216 150.998C226.678 150.998 213.216 164.46 213.216 180.998V330.998C213.216 347.536 226.678 360.998 243.216 360.998C259.754 360.998 272.816 347.536 272.816 330.998H258.216C249.925 330.998 243.216 324.289 243.216 315.998C243.216 307.707 249.925 300.998 258.216 300.998H272.816V270.998H258.216C249.925 270.998 243.216 264.289 243.216 255.998C243.216 247.707 249.925 240.998 258.216 240.998H272.816V210.998H258.216C249.925 210.998 243.216 204.289 243.216 195.998Z" fill="url(#paint1_linear_10025_59812)"/>
<path d="M403.236 372.263L378.246 102.263C376.326 79.133 356.624 60.998 333.406 60.998H148.602C125.384 60.998 105.682 79.133 103.778 102.263L78.773 372.263C76.693 396.931 95.076 418.713 119.73 420.822H119.745C120.155 420.866 123.187 420.998 123.612 420.998H358.397C370.951 420.998 383.021 415.695 391.517 406.452C400.013 397.223 404.29 384.758 403.236 372.263ZM303.216 330.998C303.216 364.089 276.307 390.998 243.216 390.998C210.125 390.998 182.816 364.089 182.816 330.998V180.998C182.816 147.907 210.125 120.998 243.216 120.998C276.307 120.998 303.216 147.907 303.216 180.998V330.998Z" fill="url(#paint2_linear_10025_59812)"/>
<path d="M31.004 90.998C17.643 90.998 10.991 107.194 20.399 116.603L67.922 164.126L73.893 99.666L74.616 90.998H31.004Z" fill="url(#paint3_linear_10025_59812)"/>
<path d="M451.004 120.998H410.106L412.882 150.998H451.005C459.281 150.998 466.005 157.722 466.005 165.998V270.998C466.005 275.7 463.764 280.183 460.014 282.995L427.366 307.482L430.609 342.534L478.002 306.99C489.281 298.552 496.005 285.091 496.005 270.999V165.998C496.004 141.184 475.819 120.998 451.004 120.998Z" fill="url(#paint4_linear_10025_59812)"/>
<path d="M301.004 -0.00195312H181.004C161.474 -0.00195312 144.98 12.576 138.767 29.998H343.241C337.028 12.576 320.534 -0.00195312 301.004 -0.00195312Z" fill="url(#paint5_linear_10025_59812)"/>
</g>
<defs>
<linearGradient id="paint0_linear_10025_59812" x1="241.722" y1="451.998" x2="241.722" y2="511.998" gradientUnits="userSpaceOnUse">
<stop stop-color="#72707D"/>
<stop offset="1" stop-color="#101824"/>
</linearGradient>
<linearGradient id="paint1_linear_10025_59812" x1="243.016" y1="150.998" x2="243.016" y2="360.998" gradientUnits="userSpaceOnUse">
<stop stop-color="#72707D"/>
<stop offset="1" stop-color="#101824"/>
</linearGradient>
<linearGradient id="paint2_linear_10025_59812" x1="241.003" y1="60.998" x2="241.003" y2="420.998" gradientUnits="userSpaceOnUse">
<stop stop-color="#72707D"/>
<stop offset="1" stop-color="#101824"/>
</linearGradient>
<linearGradient id="paint3_linear_10025_59812" x1="45.3051" y1="90.998" x2="45.3051" y2="164.126" gradientUnits="userSpaceOnUse">
<stop stop-color="#72707D"/>
<stop offset="1" stop-color="#101824"/>
</linearGradient>
<linearGradient id="paint4_linear_10025_59812" x1="453.055" y1="120.998" x2="453.055" y2="342.534" gradientUnits="userSpaceOnUse">
<stop stop-color="#72707D"/>
<stop offset="1" stop-color="#101824"/>
</linearGradient>
<linearGradient id="paint5_linear_10025_59812" x1="241.004" y1="-0.00195313" x2="241.004" y2="29.998" gradientUnits="userSpaceOnUse">
<stop stop-color="#72707D"/>
<stop offset="1" stop-color="#101824"/>
</linearGradient>
<clipPath id="clip0_10025_59812">
<rect width="512" height="512" fill="white" transform="translate(0 -0.00195312)"/>
</clipPath>
</defs>
</svg>
