<svg width="512" height="512" viewBox="0 0 512 512" fill="none" xmlns="http://www.w3.org/2000/svg">
<path d="M452 195.998H444.101C449.076 215.215 452 235.248 452 255.998C452 276.748 449.076 296.781 444.101 315.998H452C485.091 315.998 512 289.089 512 255.998C512 222.907 485.091 195.998 452 195.998Z" fill="url(#paint0_linear_10025_59831)"/>
<path d="M270 181.628C238.726 181.628 222.788 205.959 222.627 206.208C217.148 214.807 202.969 214.865 197.402 206.267C196.508 204.934 180.527 181.628 150 181.628C124.351 181.628 105 202.312 105 229.733C105 255.016 122.637 271.877 156.416 301.95C172.91 316.628 191.235 332.917 210 353.718C228.765 332.917 247.09 316.628 263.584 301.95C297.363 271.877 315 255.017 315 229.733C315 202.311 295.649 181.628 270 181.628Z" fill="url(#paint1_linear_10025_59831)"/>
<path d="M210 45.998C94.204 45.998 0 140.202 0 255.998C0 371.794 94.204 465.998 210 465.998C325.796 465.998 420 371.794 420 255.998C420 140.202 325.796 45.998 210 45.998ZM283.521 324.362C264.463 341.325 242.842 360.558 221.543 386.208C215.532 393.421 204.468 393.421 198.457 386.208C177.158 360.559 155.537 341.325 136.479 324.362C102.129 293.791 75 269.65 75 229.733C75 185.202 107.241 151.628 150 151.628C178.257 151.628 198.237 164.65 210 175.549C221.763 164.651 241.743 151.628 270 151.628C312.759 151.628 345 185.202 345 229.733C345 269.65 317.871 293.791 283.521 324.362Z" fill="url(#paint2_linear_10025_59831)"/>
<defs>
<linearGradient id="paint0_linear_10025_59831" x1="478.051" y1="195.998" x2="478.051" y2="315.998" gradientUnits="userSpaceOnUse">
<stop stop-color="#72707D"/>
<stop offset="1" stop-color="#101824"/>
</linearGradient>
<linearGradient id="paint1_linear_10025_59831" x1="210" y1="181.628" x2="210" y2="353.718" gradientUnits="userSpaceOnUse">
<stop stop-color="#72707D"/>
<stop offset="1" stop-color="#101824"/>
</linearGradient>
<linearGradient id="paint2_linear_10025_59831" x1="210" y1="45.998" x2="210" y2="465.998" gradientUnits="userSpaceOnUse">
<stop stop-color="#72707D"/>
<stop offset="1" stop-color="#101824"/>
</linearGradient>
</defs>
</svg>
