<svg width="512" height="512" viewBox="0 0 512 512" fill="none" xmlns="http://www.w3.org/2000/svg">
<path d="M301.12 240H210.88C214.243 230.734 220.378 222.727 228.451 217.069C236.523 211.412 246.142 208.376 256 208.376C265.858 208.376 275.477 211.412 283.549 217.069C291.622 222.727 297.757 230.734 301.12 240ZM177.6 240C181.272 221.915 191.084 205.656 205.372 193.978C219.66 182.3 237.546 175.92 256 175.92C274.454 175.92 292.34 182.3 306.628 193.978C320.916 205.656 330.728 221.915 334.4 240H432V80C432 67.2696 426.943 55.0606 417.941 46.0589C408.939 37.0571 396.73 32 384 32H336V112C336 116.243 334.314 120.313 331.314 123.314C328.313 126.314 324.243 128 320 128H192C187.757 128 183.687 126.314 180.686 123.314C177.686 120.313 176 116.243 176 112V32H128C115.27 32 103.061 37.0571 94.0589 46.0589C85.0571 55.0606 80 67.2696 80 80V240H177.6ZM304 32H208V96H304V32ZM256 304C265.903 303.972 275.555 300.882 283.633 295.153C291.711 289.424 297.819 281.337 301.12 272H210.88C214.181 281.337 220.289 289.424 228.367 295.153C236.445 300.882 246.097 303.972 256 304ZM208 480H304V416H208V480ZM334.4 272C330.728 290.085 320.916 306.344 306.628 318.022C292.34 329.7 274.454 336.08 256 336.08C237.546 336.08 219.66 329.7 205.372 318.022C191.084 306.344 181.272 290.085 177.6 272H80V432C80 444.73 85.0571 456.939 94.0589 465.941C103.061 474.943 115.27 480 128 480H176V400C176 395.757 177.686 391.687 180.686 388.686C183.687 385.686 187.757 384 192 384H320C324.243 384 328.313 385.686 331.314 388.686C334.314 391.687 336 395.757 336 400V480H384C396.73 480 408.939 474.943 417.941 465.941C426.943 456.939 432 444.73 432 432V272H334.4Z" fill="url(#paint0_linear_10025_21447)"/>
<defs>
<linearGradient id="paint0_linear_10025_21447" x1="256" y1="32" x2="256" y2="480" gradientUnits="userSpaceOnUse">
<stop stop-color="#72707D"/>
<stop offset="1" stop-color="#101824"/>
</linearGradient>
</defs>
</svg>
