<svg width="513" height="512" viewBox="0 0 513 512" fill="none" xmlns="http://www.w3.org/2000/svg">
<g clip-path="url(#clip0_10025_65316)">
<path d="M306.514 173.717H279.085V192.003H306.514V173.717Z" fill="url(#paint0_linear_10025_65316)"/>
<path d="M297.389 100.573V91.4297H160.246V100.573C160.263 115.715 172.533 127.985 187.675 128.002H269.961C285.102 127.985 297.372 115.715 297.389 100.573Z" fill="url(#paint1_linear_10025_65316)"/>
<path d="M178.531 380.905C178.554 402.801 196.295 420.547 218.191 420.575H248.575C263.832 420.531 277.708 411.728 284.247 397.943L284.262 397.869C286.844 392.584 288.205 386.786 288.244 380.905V301.717H178.531V380.905Z" fill="url(#paint2_linear_10025_65316)"/>
<path d="M260.798 27.4316H205.941V45.7176H260.798V27.4316Z" fill="url(#paint3_linear_10025_65316)"/>
<path d="M443.165 73.145C438.461 31.5219 403.277 0.0519531 361.389 0.00195312H105.389C63.4998 0.0519531 28.3158 31.5219 23.6118 73.145H151.103H443.165ZM361.389 27.431H379.675C384.724 27.431 388.818 31.524 388.818 36.574C388.818 41.623 384.725 45.717 379.675 45.717H361.389C356.34 45.717 352.246 41.624 352.246 36.574C352.246 31.524 356.339 27.431 361.389 27.431ZM306.531 27.431H324.817C329.866 27.431 333.96 31.524 333.96 36.574C333.96 41.623 329.867 45.717 324.817 45.717H306.531C301.482 45.717 297.388 41.624 297.388 36.574C297.389 31.524 301.482 27.431 306.531 27.431ZM187.674 18.288C187.673 15.863 188.635 13.536 190.35 11.822C192.065 10.107 194.391 9.14395 196.817 9.14595H269.96C272.385 9.14495 274.712 10.107 276.426 11.822C278.141 13.537 279.104 15.863 279.102 18.288V54.859C279.103 57.284 278.141 59.611 276.426 61.326C274.711 63.041 272.385 64.004 269.96 64.002H196.817C194.392 64.003 192.065 63.041 190.35 61.326C188.635 59.611 187.672 57.285 187.674 54.859V18.288ZM105.389 45.716H87.1028C82.0538 45.716 77.9598 41.623 77.9598 36.573C77.9598 31.524 82.0528 27.43 87.1028 27.43H105.389C110.438 27.43 114.532 31.523 114.532 36.573C114.531 41.623 110.438 45.716 105.389 45.716ZM132.817 36.573C132.817 31.524 136.91 27.43 141.96 27.43H160.246C165.295 27.43 169.389 31.523 169.389 36.573C169.389 41.622 165.296 45.716 160.246 45.716H141.96C136.911 45.716 132.817 41.623 132.817 36.573Z" fill="url(#paint4_linear_10025_65316)"/>
<path d="M290.711 420.574H407.103V219.432H333.96C326.202 219.411 318.821 216.086 313.665 210.289H279.102C279.067 221.874 271.744 232.184 260.816 236.032V246.86C260.816 251.909 256.723 256.003 251.673 256.003C246.624 256.003 242.53 251.91 242.53 246.86V237.717H224.244V246.86C224.244 251.909 220.151 256.003 215.101 256.003C210.051 256.003 205.958 251.91 205.958 246.86V236.032C195.03 232.183 187.708 221.874 187.672 210.289V146.289C162.437 146.259 141.987 125.81 141.958 100.575V91.4316H59.6738V137.146H96.2448C101.294 137.146 105.388 141.239 105.388 146.289C105.388 151.338 101.295 155.432 96.2448 155.432H59.6738V173.718H96.2448C101.294 173.718 105.388 177.811 105.388 182.861C105.388 187.91 101.295 192.004 96.2448 192.004H59.6738V210.29H96.2448C101.294 210.29 105.388 214.383 105.388 219.433C105.388 224.483 101.295 228.576 96.2448 228.576H59.6738V420.576H176.061C165.909 409.863 160.249 395.666 160.245 380.906V301.718C160.258 291.625 168.437 283.445 178.531 283.432H288.245C298.338 283.445 306.518 291.624 306.531 301.718V302.544C334.577 307.266 354.352 332.653 352.068 361.002C349.784 389.35 326.198 411.243 297.758 411.414C295.719 414.693 293.358 417.762 290.711 420.574Z" fill="url(#paint5_linear_10025_65316)"/>
<path d="M306.53 321.162V380.903C306.527 384.715 306.148 388.517 305.398 392.255C321.881 388.554 333.683 374.045 333.952 357.154C334.222 340.263 322.887 325.386 306.53 321.162Z" fill="url(#paint6_linear_10025_65316)"/>
<path d="M480.245 164.572H333.959C330.576 164.602 327.49 166.514 325.959 169.531C325.743 169.945 325.557 170.375 325.403 170.816C325.048 171.743 324.85 172.723 324.817 173.716V192.001C324.85 192.993 325.049 193.973 325.403 194.901C325.557 195.342 325.743 195.771 325.959 196.186C327.491 199.203 330.576 201.115 333.959 201.145H480.245C485.293 201.142 489.384 197.05 489.388 192.002V173.716C489.384 168.667 485.293 164.576 480.245 164.572Z" fill="url(#paint7_linear_10025_65316)"/>
<path d="M23.6108 438.859C28.3158 480.482 63.4998 511.952 105.389 512.002H361.389C403.277 511.952 438.462 480.482 443.166 438.859H248.576H23.6108ZM331.284 450.678C332.999 452.393 333.962 454.719 333.96 457.145V493.716C333.961 496.141 332.999 498.468 331.284 500.183C329.569 501.898 327.243 502.861 324.817 502.859H141.96C139.535 502.86 137.208 501.898 135.494 500.183C133.779 498.468 132.816 496.142 132.818 493.716V457.145C132.817 454.72 133.779 452.393 135.494 450.678C137.209 448.963 139.535 448 141.96 448.002H324.817C327.242 448.001 329.569 448.963 331.284 450.678Z" fill="url(#paint8_linear_10025_65316)"/>
<path d="M215.103 219.43H251.674C256.722 219.427 260.813 215.335 260.817 210.287V146.287H205.96V210.287C205.963 215.335 210.055 219.426 215.103 219.43Z" fill="url(#paint9_linear_10025_65316)"/>
<path d="M407.103 146.289V91.4316H315.674V100.575C315.644 122.287 300.37 140.994 279.103 145.365V155.432H313.666C318.822 149.635 326.203 146.31 333.961 146.289H407.103Z" fill="url(#paint10_linear_10025_65316)"/>
<path d="M315.656 466.287H151.085V484.573H315.656V466.287Z" fill="url(#paint11_linear_10025_65316)"/>
</g>
<defs>
<linearGradient id="paint0_linear_10025_65316" x1="292.799" y1="173.717" x2="292.799" y2="192.003" gradientUnits="userSpaceOnUse">
<stop stop-color="#72707D"/>
<stop offset="1" stop-color="#101824"/>
</linearGradient>
<linearGradient id="paint1_linear_10025_65316" x1="228.818" y1="91.4297" x2="228.818" y2="128.002" gradientUnits="userSpaceOnUse">
<stop stop-color="#72707D"/>
<stop offset="1" stop-color="#101824"/>
</linearGradient>
<linearGradient id="paint2_linear_10025_65316" x1="233.388" y1="301.717" x2="233.388" y2="420.575" gradientUnits="userSpaceOnUse">
<stop stop-color="#72707D"/>
<stop offset="1" stop-color="#101824"/>
</linearGradient>
<linearGradient id="paint3_linear_10025_65316" x1="233.37" y1="27.4316" x2="233.37" y2="45.7176" gradientUnits="userSpaceOnUse">
<stop stop-color="#72707D"/>
<stop offset="1" stop-color="#101824"/>
</linearGradient>
<linearGradient id="paint4_linear_10025_65316" x1="233.388" y1="0.00195312" x2="233.388" y2="73.145" gradientUnits="userSpaceOnUse">
<stop stop-color="#72707D"/>
<stop offset="1" stop-color="#101824"/>
</linearGradient>
<linearGradient id="paint5_linear_10025_65316" x1="233.388" y1="91.4316" x2="233.388" y2="420.576" gradientUnits="userSpaceOnUse">
<stop stop-color="#72707D"/>
<stop offset="1" stop-color="#101824"/>
</linearGradient>
<linearGradient id="paint6_linear_10025_65316" x1="319.678" y1="321.162" x2="319.678" y2="392.255" gradientUnits="userSpaceOnUse">
<stop stop-color="#72707D"/>
<stop offset="1" stop-color="#101824"/>
</linearGradient>
<linearGradient id="paint7_linear_10025_65316" x1="407.103" y1="164.572" x2="407.103" y2="201.145" gradientUnits="userSpaceOnUse">
<stop stop-color="#72707D"/>
<stop offset="1" stop-color="#101824"/>
</linearGradient>
<linearGradient id="paint8_linear_10025_65316" x1="233.388" y1="438.859" x2="233.388" y2="512.002" gradientUnits="userSpaceOnUse">
<stop stop-color="#72707D"/>
<stop offset="1" stop-color="#101824"/>
</linearGradient>
<linearGradient id="paint9_linear_10025_65316" x1="233.388" y1="146.287" x2="233.388" y2="219.43" gradientUnits="userSpaceOnUse">
<stop stop-color="#72707D"/>
<stop offset="1" stop-color="#101824"/>
</linearGradient>
<linearGradient id="paint10_linear_10025_65316" x1="343.103" y1="91.4316" x2="343.103" y2="155.432" gradientUnits="userSpaceOnUse">
<stop stop-color="#72707D"/>
<stop offset="1" stop-color="#101824"/>
</linearGradient>
<linearGradient id="paint11_linear_10025_65316" x1="233.37" y1="466.287" x2="233.37" y2="484.573" gradientUnits="userSpaceOnUse">
<stop stop-color="#72707D"/>
<stop offset="1" stop-color="#101824"/>
</linearGradient>
<clipPath id="clip0_10025_65316">
<rect width="512" height="512" fill="white" transform="translate(0.5 0.00195312)"/>
</clipPath>
</defs>
</svg>
