<svg width="512" height="512" viewBox="0 0 512 512" fill="none" xmlns="http://www.w3.org/2000/svg">
<path d="M464 96H336C331.757 96 327.687 97.6857 324.686 100.686C321.686 103.687 320 107.757 320 112V128H288V112C288 107.757 286.314 103.687 283.314 100.686C280.313 97.6857 276.243 96 272 96H208C178.992 95.9889 150.54 103.96 125.76 119.04L117.28 110.72C107.824 101.861 95.293 97.0264 82.337 97.2376C69.3809 97.4489 57.0147 102.69 47.8522 111.852C38.6897 121.015 33.4489 133.381 33.2376 146.337C33.0263 159.293 37.8611 171.824 46.72 181.28L60.16 194.88C51.4723 216.3 47.5287 239.347 48.6007 262.437C49.6727 285.527 55.7348 308.11 66.3697 328.633C77.0047 349.155 91.96 367.13 110.206 381.32C128.453 395.509 149.557 405.577 172.067 410.83C194.576 416.083 217.957 416.397 240.599 411.749C263.242 407.102 284.608 397.603 303.229 383.908C321.849 370.212 337.281 352.645 348.462 332.415C359.644 312.185 366.309 289.773 368 266.72L470.56 222.72C473.392 221.447 475.793 219.378 477.469 216.764C479.145 214.15 480.025 211.105 480 208V112C480 107.757 478.314 103.687 475.314 100.686C472.313 97.6857 468.243 96 464 96ZM69.28 158.72C67.6096 157.05 66.2845 155.067 65.3805 152.884C64.4765 150.702 64.0112 148.362 64.0112 146C64.0112 143.638 64.4765 141.298 65.3805 139.116C66.2845 136.933 67.6096 134.95 69.28 133.28C70.9504 131.61 72.9334 130.285 75.1159 129.381C77.2984 128.477 79.6376 128.011 82 128.011C84.3623 128.011 86.7015 128.477 88.884 129.381C91.0665 130.285 93.0496 131.61 94.72 133.28L99.84 138.4L98.88 139.36C95.1058 142.84 91.527 146.525 88.16 150.4C87.7746 150.866 87.346 151.295 86.88 151.68C83.04 156.16 79.52 160.8 76.16 165.6L69.28 158.72ZM208 320C195.342 320 182.968 316.246 172.443 309.214C161.919 302.182 153.716 292.186 148.872 280.492C144.028 268.797 142.76 255.929 145.23 243.514C147.699 231.099 153.795 219.696 162.745 210.745C171.696 201.795 183.099 195.699 195.514 193.23C207.929 190.76 220.797 192.028 232.492 196.872C244.186 201.716 254.182 209.919 261.214 220.444C268.246 230.968 272 243.342 272 256C272 272.974 265.257 289.253 253.255 301.255C241.252 313.257 224.974 320 208 320Z" fill="url(#paint0_linear_10025_21450)"/>
<defs>
<linearGradient id="paint0_linear_10025_21450" x1="256.616" y1="96" x2="256.616" y2="415.017" gradientUnits="userSpaceOnUse">
<stop stop-color="#72707D"/>
<stop offset="1" stop-color="#101824"/>
</linearGradient>
</defs>
</svg>
