<svg width="512" height="512" viewBox="0 0 512 512" fill="none" xmlns="http://www.w3.org/2000/svg">
<path d="M208 48V32H304V48C304 49.44 302.4 83.68 256 110.08C209.6 83.52 208 49.28 208 48ZM32 272C32 276.243 33.6857 280.313 36.6863 283.314C39.6869 286.314 43.7565 288 48 288H96V256H32V272ZM480 144V224H416V176C416 171.757 414.314 167.687 411.314 164.686C408.313 161.686 404.243 160 400 160C395.757 160 391.687 161.686 388.686 164.686C385.686 167.687 384 171.757 384 176V432C384 444.73 378.943 456.939 369.941 465.941C360.939 474.943 348.73 480 336 480H176C163.27 480 151.061 474.943 142.059 465.941C133.057 456.939 128 444.73 128 432V176C128 171.757 126.314 167.687 123.314 164.686C120.313 161.686 116.243 160 112 160C107.757 160 103.687 161.686 100.686 164.686C97.6857 167.687 96 171.757 96 176V224H32V144C32 114.296 43.8 85.8081 64.804 64.804C85.8081 43.8 114.296 32 144 32H176V48C176 50.4 176.8 106.24 248.8 142.24C251.033 143.365 253.499 143.952 256 143.952C258.501 143.952 260.967 143.365 263.2 142.24C336 106.24 336 50.4 336 48V32H368C397.704 32 426.192 43.8 447.196 64.804C468.2 85.8081 480 114.296 480 144ZM336 192L304 176L272 192V224C272 232.487 275.371 240.626 281.373 246.627C287.374 252.629 295.513 256 304 256C312.487 256 320.626 252.629 326.627 246.627C332.629 240.626 336 232.487 336 224V192ZM416 288H464C468.243 288 472.313 286.314 475.314 283.314C478.314 280.313 480 276.243 480 272V256H416V288Z" fill="url(#paint0_linear_10025_21453)"/>
<defs>
<linearGradient id="paint0_linear_10025_21453" x1="256" y1="32" x2="256" y2="480" gradientUnits="userSpaceOnUse">
<stop stop-color="#72707D"/>
<stop offset="1" stop-color="#101824"/>
</linearGradient>
</defs>
</svg>
