<svg width="513" height="512" viewBox="0 0 513 512" fill="none" xmlns="http://www.w3.org/2000/svg">
<g clip-path="url(#clip0_10025_65332)">
<path d="M50.752 511.968H416.466C428.092 511.963 438.455 504.64 442.34 493.682H24.877C28.807 504.605 39.143 511.91 50.752 511.968Z" fill="url(#paint0_linear_10025_65332)"/>
<path d="M233.609 146.253C263.906 146.253 288.466 121.693 288.466 91.3961C288.442 61.1091 263.896 36.5631 233.609 36.5391C203.312 36.5391 178.752 61.0991 178.752 91.3961C178.752 121.693 203.312 146.253 233.609 146.253ZM233.609 54.8251C243.309 54.8221 252.613 58.6751 259.472 65.5341C266.331 72.3931 270.183 81.6971 270.181 91.3971C270.166 96.4401 266.082 100.525 261.038 100.54C255.995 100.525 251.91 96.4411 251.895 91.3971C251.866 81.3101 243.696 73.1411 233.609 73.1111C228.56 73.1111 224.466 69.0181 224.466 63.9681C224.466 58.9181 228.559 54.8251 233.609 54.8251ZM206.18 82.2531C211.229 82.2531 215.323 86.3461 215.323 91.3961C215.353 101.483 223.522 109.652 233.609 109.682C238.658 109.682 242.752 113.775 242.752 118.825C242.752 123.874 238.659 127.968 233.609 127.968C213.422 127.941 197.064 111.583 197.038 91.3971C197.037 86.3471 201.131 82.2531 206.18 82.2531Z" fill="url(#paint1_linear_10025_65332)"/>
<path d="M480.466 201.111H334.18C330.802 201.177 327.724 203.066 326.134 206.048C325.956 206.465 325.803 206.892 325.677 207.327C325.282 208.254 325.065 209.247 325.037 210.254V228.54C325.065 229.547 325.282 230.54 325.677 231.466C325.803 231.901 325.956 232.328 326.134 232.745C327.723 235.727 330.801 237.616 334.18 237.683H480.466C485.509 237.668 489.594 233.584 489.609 228.54V210.254C489.594 205.21 485.509 201.125 480.466 201.111Z" fill="url(#paint2_linear_10025_65332)"/>
<path d="M370.752 82.252H352.466V100.538H370.752V82.252Z" fill="url(#paint3_linear_10025_65332)"/>
<path d="M407.323 182.825V164.539H384.923C348.831 165.203 313.357 174.017 281.152 190.323C280.603 190.596 279.963 190.78 279.323 191.053V191.968H313.883C319.042 186.175 326.423 182.851 334.18 182.825H407.323Z" fill="url(#paint4_linear_10025_65332)"/>
<path d="M306.752 210.252H279.323V228.538H306.752V210.252Z" fill="url(#paint5_linear_10025_65332)"/>
<path d="M114.752 82.252H96.4658V100.538H114.752V82.252Z" fill="url(#paint6_linear_10025_65332)"/>
<path d="M290.935 475.396H407.324V255.968H334.181C326.424 255.943 319.043 252.618 313.884 246.825H279.324C279.263 258.412 271.953 268.719 261.038 272.608V292.539C261.038 297.588 256.945 301.682 251.895 301.682C246.846 301.682 242.752 297.589 242.752 292.539V274.253H224.466V292.539C224.466 297.588 220.373 301.682 215.323 301.682C210.274 301.682 206.18 297.589 206.18 292.539V272.608C195.266 268.719 187.955 258.411 187.894 246.825V191.053C187.345 190.78 186.705 190.596 186.065 190.323C153.86 174.018 118.385 165.204 82.2936 164.539H59.8936V191.968H96.4646C101.514 191.968 105.608 196.061 105.608 201.111C105.608 206.16 101.515 210.254 96.4646 210.254H59.8946V228.54H96.4655C101.515 228.54 105.609 232.633 105.609 237.683C105.609 242.733 101.516 246.826 96.4655 246.826H59.8946V265.112H96.4655C101.515 265.112 105.609 269.205 105.609 274.255C105.609 279.304 101.516 283.398 96.4655 283.398H59.8946V475.398H176.284C166.134 464.679 160.474 450.479 160.467 435.717V356.541C160.496 346.454 168.666 338.285 178.753 338.255H288.467C298.554 338.284 306.723 346.454 306.753 356.541V357.364C334.8 362.092 354.574 387.483 352.289 415.834C350.004 444.185 326.418 466.08 297.976 466.256C295.946 469.533 293.587 472.596 290.935 475.396Z" fill="url(#paint7_linear_10025_65332)"/>
<path d="M178.752 435.715C178.796 457.611 196.536 475.351 218.432 475.396H248.786C264.082 475.378 277.999 466.551 284.535 452.722C287.108 447.421 288.452 441.608 288.466 435.715V356.539H178.752V435.715Z" fill="url(#paint8_linear_10025_65332)"/>
<path d="M306.752 376.012V435.714C306.763 439.52 306.395 443.318 305.655 447.051C322.126 443.348 333.916 428.843 334.177 411.963C334.437 395.084 323.1 380.223 306.752 376.012Z" fill="url(#paint9_linear_10025_65332)"/>
<path d="M32.4662 146.253H82.2952C121.134 146.899 159.325 156.306 194.021 173.773C196.127 174.819 198.295 175.735 200.512 176.516C202.889 177.429 205.175 178.161 207.552 178.893C208.283 179.075 209.015 179.349 209.746 179.533C211.757 180.081 213.677 180.539 215.689 180.904C217.167 181.236 218.663 181.48 220.169 181.635C221.54 181.908 223.003 182.092 224.375 182.275C230.515 182.916 236.704 182.916 242.844 182.275C244.307 182.092 245.678 181.909 247.05 181.727C248.604 181.453 250.067 181.27 251.53 180.904C253.541 180.538 255.553 180.08 257.473 179.533C258.204 179.35 258.936 179.076 259.667 178.893C262.044 178.161 264.421 177.429 266.707 176.516C268.81 175.692 270.821 174.962 272.741 174.047C272.905 173.976 273.059 173.884 273.198 173.773C303.845 158.504 337.16 149.314 371.301 146.71C375.872 146.436 380.444 146.253 384.924 146.253H434.752C439.795 146.238 443.88 142.154 443.895 137.11V45.6817C443.88 40.6387 439.796 36.5537 434.752 36.5387H384.923C346.084 35.8927 307.893 26.4857 273.197 9.01866C248.164 -2.95934 219.053 -2.95934 194.02 9.01866C159.325 26.4857 121.133 35.8927 82.2942 36.5387H32.4662C27.4232 36.5537 23.3382 40.6377 23.3232 45.6817V137.111C23.3382 142.154 27.4222 146.239 32.4662 146.253ZM334.18 82.2527C334.209 72.1657 342.379 63.9967 352.466 63.9667H370.752C380.839 63.9957 389.008 72.1657 389.038 82.2527V100.539C389.008 110.626 380.839 118.795 370.752 118.825H352.466C342.379 118.795 334.21 110.626 334.18 100.539V82.2527ZM233.609 18.2527C274.005 18.2527 306.752 50.9997 306.752 91.3957C306.698 131.769 273.982 164.485 233.609 164.539C193.213 164.539 160.466 131.792 160.466 91.3957C160.466 50.9997 193.213 18.2527 233.609 18.2527ZM78.1802 82.2527C78.2092 72.1657 86.3792 63.9967 96.4662 63.9667H114.752C124.839 63.9957 133.008 72.1657 133.038 82.2527V100.539C133.008 110.626 124.839 118.795 114.752 118.825H96.4662C86.3792 118.795 78.2102 110.626 78.1802 100.539V82.2527Z" fill="url(#paint10_linear_10025_65332)"/>
<path d="M215.324 255.967H251.895C256.938 255.952 261.023 251.868 261.038 246.824V197.544C260.937 197.532 260.837 197.565 260.764 197.635C256.666 198.656 252.515 199.45 248.33 200.012H248.239C247.915 200.125 247.576 200.186 247.233 200.194C246.907 200.299 246.569 200.361 246.227 200.377H246.136C241.977 200.852 237.796 201.096 233.61 201.109C229.455 201.096 225.304 200.851 221.176 200.377H221.085C220.713 200.361 220.345 200.299 219.988 200.194C219.714 200.194 219.439 200.104 219.257 200.104C218.526 200.013 217.886 199.83 217.154 199.738C213.588 199.19 210.023 198.549 206.457 197.635C206.384 197.565 206.283 197.531 206.183 197.544V246.824C206.196 251.867 210.281 255.952 215.324 255.967Z" fill="url(#paint11_linear_10025_65332)"/>
</g>
<defs>
<linearGradient id="paint0_linear_10025_65332" x1="233.608" y1="493.682" x2="233.608" y2="511.968" gradientUnits="userSpaceOnUse">
<stop stop-color="#72707D"/>
<stop offset="1" stop-color="#101824"/>
</linearGradient>
<linearGradient id="paint1_linear_10025_65332" x1="233.609" y1="36.5391" x2="233.609" y2="146.253" gradientUnits="userSpaceOnUse">
<stop stop-color="#72707D"/>
<stop offset="1" stop-color="#101824"/>
</linearGradient>
<linearGradient id="paint2_linear_10025_65332" x1="407.323" y1="201.111" x2="407.323" y2="237.683" gradientUnits="userSpaceOnUse">
<stop stop-color="#72707D"/>
<stop offset="1" stop-color="#101824"/>
</linearGradient>
<linearGradient id="paint3_linear_10025_65332" x1="361.609" y1="82.252" x2="361.609" y2="100.538" gradientUnits="userSpaceOnUse">
<stop stop-color="#72707D"/>
<stop offset="1" stop-color="#101824"/>
</linearGradient>
<linearGradient id="paint4_linear_10025_65332" x1="343.323" y1="164.539" x2="343.323" y2="191.968" gradientUnits="userSpaceOnUse">
<stop stop-color="#72707D"/>
<stop offset="1" stop-color="#101824"/>
</linearGradient>
<linearGradient id="paint5_linear_10025_65332" x1="293.038" y1="210.252" x2="293.038" y2="228.538" gradientUnits="userSpaceOnUse">
<stop stop-color="#72707D"/>
<stop offset="1" stop-color="#101824"/>
</linearGradient>
<linearGradient id="paint6_linear_10025_65332" x1="105.609" y1="82.252" x2="105.609" y2="100.538" gradientUnits="userSpaceOnUse">
<stop stop-color="#72707D"/>
<stop offset="1" stop-color="#101824"/>
</linearGradient>
<linearGradient id="paint7_linear_10025_65332" x1="233.609" y1="164.539" x2="233.609" y2="475.398" gradientUnits="userSpaceOnUse">
<stop stop-color="#72707D"/>
<stop offset="1" stop-color="#101824"/>
</linearGradient>
<linearGradient id="paint8_linear_10025_65332" x1="233.609" y1="356.539" x2="233.609" y2="475.396" gradientUnits="userSpaceOnUse">
<stop stop-color="#72707D"/>
<stop offset="1" stop-color="#101824"/>
</linearGradient>
<linearGradient id="paint9_linear_10025_65332" x1="319.918" y1="376.012" x2="319.918" y2="447.051" gradientUnits="userSpaceOnUse">
<stop stop-color="#72707D"/>
<stop offset="1" stop-color="#101824"/>
</linearGradient>
<linearGradient id="paint10_linear_10025_65332" x1="233.609" y1="0.0351562" x2="233.609" y2="182.755" gradientUnits="userSpaceOnUse">
<stop stop-color="#72707D"/>
<stop offset="1" stop-color="#101824"/>
</linearGradient>
<linearGradient id="paint11_linear_10025_65332" x1="233.61" y1="197.541" x2="233.61" y2="255.967" gradientUnits="userSpaceOnUse">
<stop stop-color="#72707D"/>
<stop offset="1" stop-color="#101824"/>
</linearGradient>
<clipPath id="clip0_10025_65332">
<rect width="511.932" height="511.932" fill="white" transform="translate(0.5 0.0351562)"/>
</clipPath>
</defs>
</svg>
