<svg width="508" height="508" viewBox="0 0 508 508" fill="none" xmlns="http://www.w3.org/2000/svg">
<path d="M292.856 311.51L304.817 151.105H204.06L216.021 311.51H292.856ZM254.438 206.078C254.438 206.078 278.677 231.03 278.677 244.417C278.677 257.804 267.825 268.656 254.438 268.656C241.052 268.656 230.2 257.804 230.2 244.417C230.2 231.03 254.438 206.078 254.438 206.078Z" fill="url(#paint0_linear_10025_58039)"/>
<path d="M177.366 350.482C178.316 359.988 186.395 367.196 195.901 367.196H312.977C322.483 367.196 330.562 359.988 331.512 350.482L358.049 103.419H150.829L177.366 350.482ZM189.723 137.797C191.228 136.213 193.287 135.262 195.505 135.262H313.373C315.591 135.262 317.65 136.213 319.155 137.797C320.66 139.461 321.453 141.599 321.294 143.818L308.145 320.065C307.828 324.184 304.343 327.352 300.224 327.352H208.654C204.535 327.352 201.05 324.184 200.733 320.065L187.584 143.818C187.425 141.599 188.218 139.461 189.723 137.797Z" fill="url(#paint1_linear_10025_58039)"/>
<path d="M149.958 55.1006H358.92V87.5776H149.958V55.1006Z" fill="url(#paint2_linear_10025_58039)"/>
<path d="M221.36 422.566H287.447V453.776H221.36V422.566Z" fill="url(#paint3_linear_10025_58039)"/>
<path d="M318.384 380.426H190.494C183.553 380.426 177.867 386.446 177.867 393.892V440.311C177.867 447.757 183.553 453.777 190.494 453.777H206.591V414.646C206.591 410.21 209.914 406.725 213.975 406.725H294.83C298.965 406.725 302.213 410.21 302.213 414.646V453.777H318.384C325.325 453.777 331.011 447.757 331.011 440.311V393.892C331.011 386.446 325.325 380.426 318.384 380.426Z" fill="url(#paint4_linear_10025_58039)"/>
<defs>
<linearGradient id="paint0_linear_10025_58039" x1="254.438" y1="151.105" x2="254.438" y2="311.51" gradientUnits="userSpaceOnUse">
<stop stop-color="#72707D"/>
<stop offset="1" stop-color="#101824"/>
</linearGradient>
<linearGradient id="paint1_linear_10025_58039" x1="254.439" y1="103.419" x2="254.439" y2="367.196" gradientUnits="userSpaceOnUse">
<stop stop-color="#72707D"/>
<stop offset="1" stop-color="#101824"/>
</linearGradient>
<linearGradient id="paint2_linear_10025_58039" x1="254.439" y1="55.1006" x2="254.439" y2="87.5776" gradientUnits="userSpaceOnUse">
<stop stop-color="#72707D"/>
<stop offset="1" stop-color="#101824"/>
</linearGradient>
<linearGradient id="paint3_linear_10025_58039" x1="254.404" y1="422.566" x2="254.404" y2="453.776" gradientUnits="userSpaceOnUse">
<stop stop-color="#72707D"/>
<stop offset="1" stop-color="#101824"/>
</linearGradient>
<linearGradient id="paint4_linear_10025_58039" x1="254.439" y1="380.426" x2="254.439" y2="453.777" gradientUnits="userSpaceOnUse">
<stop stop-color="#72707D"/>
<stop offset="1" stop-color="#101824"/>
</linearGradient>
</defs>
</svg>
