<svg width="512" height="512" viewBox="0 0 512 512" fill="none" xmlns="http://www.w3.org/2000/svg">
<g clip-path="url(#clip0_10025_59857)">
<path d="M196.001 390.998H211.001V375.998C211.001 351.184 190.815 330.998 166.001 330.998C141.187 330.998 121.001 351.184 121.001 375.998V511.998H211.001V420.998H196.001C187.71 420.998 181.001 414.289 181.001 405.998C181.001 397.707 187.71 390.998 196.001 390.998Z" fill="url(#paint0_linear_10025_59857)"/>
<path d="M391.001 330.998H301.001V390.998H391.001V330.998Z" fill="url(#paint1_linear_10025_59857)"/>
<path d="M436.001 270.998C419.99 270.998 404.624 266.852 391.001 258.942C363.755 274.762 328.247 274.762 301.001 258.942C273.755 274.762 238.247 274.762 211.001 258.942C183.755 274.762 148.247 274.762 121.001 258.942C107.378 266.852 92.012 270.998 76.001 270.998C59.536 270.998 44.293 266.232 31.001 258.481V496.998C31.001 505.289 37.71 511.998 46.001 511.998H91.001V375.998C91.001 334.645 124.648 300.998 166.001 300.998C207.354 300.998 241.001 334.645 241.001 375.998V511.998H466.001C474.292 511.998 481.001 505.289 481.001 496.998V258.481C467.709 266.232 452.466 270.998 436.001 270.998ZM421.001 405.998C421.001 414.289 414.292 420.998 406.001 420.998H286.001C277.71 420.998 271.001 414.289 271.001 405.998V315.998C271.001 307.707 277.71 300.998 286.001 300.998H406.001C414.292 300.998 421.001 307.707 421.001 315.998V405.998Z" fill="url(#paint2_linear_10025_59857)"/>
<path d="M16.001 180.998C16.001 214.089 42.91 240.998 76.001 240.998C93.901 240.998 110 233.117 121.001 220.637C132.002 233.117 148.101 240.998 166.001 240.998C183.901 240.998 200 233.117 211.001 220.637C222.002 233.117 238.101 240.998 256.001 240.998C273.901 240.998 290 233.117 301.001 220.637C312.002 233.117 328.101 240.998 346.001 240.998C363.901 240.998 380 233.117 391.001 220.637C402.002 233.117 418.101 240.998 436.001 240.998C469.092 240.998 496.001 214.089 496.001 180.998H16.001Z" fill="url(#paint3_linear_10025_59857)"/>
<path d="M421.001 -0.00195312H91.001C82.71 -0.00195312 76.001 6.70705 76.001 14.998V60.998H436.001V14.998C436.001 6.70705 429.292 -0.00195312 421.001 -0.00195312Z" fill="url(#paint4_linear_10025_59857)"/>
<path d="M449.029 90.998H62.9731L22.9741 150.998H489.028L449.029 90.998Z" fill="url(#paint5_linear_10025_59857)"/>
</g>
<defs>
<linearGradient id="paint0_linear_10025_59857" x1="166.001" y1="330.998" x2="166.001" y2="511.998" gradientUnits="userSpaceOnUse">
<stop stop-color="#72707D"/>
<stop offset="1" stop-color="#101824"/>
</linearGradient>
<linearGradient id="paint1_linear_10025_59857" x1="346.001" y1="330.998" x2="346.001" y2="390.998" gradientUnits="userSpaceOnUse">
<stop stop-color="#72707D"/>
<stop offset="1" stop-color="#101824"/>
</linearGradient>
<linearGradient id="paint2_linear_10025_59857" x1="256.001" y1="258.481" x2="256.001" y2="511.998" gradientUnits="userSpaceOnUse">
<stop stop-color="#72707D"/>
<stop offset="1" stop-color="#101824"/>
</linearGradient>
<linearGradient id="paint3_linear_10025_59857" x1="256.001" y1="180.998" x2="256.001" y2="240.998" gradientUnits="userSpaceOnUse">
<stop stop-color="#72707D"/>
<stop offset="1" stop-color="#101824"/>
</linearGradient>
<linearGradient id="paint4_linear_10025_59857" x1="256.001" y1="-0.00195313" x2="256.001" y2="60.998" gradientUnits="userSpaceOnUse">
<stop stop-color="#72707D"/>
<stop offset="1" stop-color="#101824"/>
</linearGradient>
<linearGradient id="paint5_linear_10025_59857" x1="256.001" y1="90.998" x2="256.001" y2="150.998" gradientUnits="userSpaceOnUse">
<stop stop-color="#72707D"/>
<stop offset="1" stop-color="#101824"/>
</linearGradient>
<clipPath id="clip0_10025_59857">
<rect width="512" height="512" fill="white" transform="translate(0.000976562 -0.00195312)"/>
</clipPath>
</defs>
</svg>
