<svg width="513" height="512" viewBox="0 0 513 512" fill="none" xmlns="http://www.w3.org/2000/svg">
<g clip-path="url(#clip0_10025_65348)">
<path d="M417.902 161.488L358.695 220.695H118.832L59.6182 161.488C56.1642 158.081 50.6082 158.1 47.1782 161.53C43.7482 164.96 43.7282 170.516 47.1352 173.97L110.005 236.832L139.228 441.384H185.799V404.395C180.18 402.182 175.058 398.872 170.73 394.66C167.336 391.204 167.361 385.659 170.786 382.234C174.211 378.809 179.756 378.784 183.212 382.178C186.297 385.366 190.277 387.542 194.626 388.419V360.257C189.007 358.044 183.885 354.734 179.557 350.522C176.163 347.066 176.188 341.521 179.613 338.096C183.038 334.671 188.583 334.646 192.039 338.04C195.124 341.228 199.104 343.404 203.453 344.281V316.119C197.834 313.906 192.712 310.596 188.384 306.384C184.99 302.928 185.015 297.383 188.44 293.958C191.865 290.533 197.41 290.508 200.866 293.902C202.875 295.781 205.135 297.371 207.582 298.626L230.867 252.057C232.525 249.275 235.525 247.57 238.764 247.57C242.003 247.57 245.003 249.275 246.661 252.057L269.945 298.625C272.402 297.363 274.671 295.764 276.687 293.876C280.146 290.467 285.71 290.493 289.137 293.934C292.564 297.376 292.567 302.939 289.143 306.384C284.816 310.596 279.693 313.906 274.074 316.119V344.281C278.434 343.399 282.424 341.213 285.514 338.013C288.973 334.604 294.537 334.63 297.964 338.071C301.391 341.513 301.394 347.076 297.97 350.521C293.643 354.733 288.52 358.043 282.901 360.256V388.418C287.261 387.536 291.251 385.35 294.341 382.15C297.8 378.741 303.364 378.767 306.791 382.208C310.218 385.65 310.221 391.213 306.797 394.658C302.47 398.87 297.347 402.18 291.728 404.393V441.382H338.299L367.522 236.829L430.383 173.968C433.777 170.512 433.752 164.967 430.327 161.542C426.903 158.119 421.358 158.094 417.902 161.488Z" fill="url(#paint0_linear_10025_65348)"/>
<path d="M326.083 150.074H151.445C148.4 150.065 145.568 151.634 143.962 154.221L113.449 203.04H364.078L333.565 154.23C331.963 151.638 329.13 150.064 326.083 150.074Z" fill="url(#paint1_linear_10025_65348)"/>
<path d="M238.764 275.746L226.566 300.143H250.963L238.764 275.746Z" fill="url(#paint2_linear_10025_65348)"/>
<path d="M141.751 459.039L144.273 476.694H333.257L335.78 459.039H203.455H141.751Z" fill="url(#paint3_linear_10025_65348)"/>
<path d="M148.235 504.428C148.874 508.766 152.587 511.986 156.972 512.006H320.558C324.943 511.987 328.656 508.766 329.295 504.428L330.735 494.35H146.795L148.235 504.428Z" fill="url(#paint4_linear_10025_65348)"/>
<path d="M221.109 344.282H256.419V317.799H247.591C247.591 322.674 243.639 326.627 238.763 326.627C233.888 326.627 229.935 322.675 229.935 317.799H221.107V344.282H221.109Z" fill="url(#paint5_linear_10025_65348)"/>
<path d="M212.282 388.419H265.247V361.936H247.592C247.592 366.811 243.64 370.764 238.764 370.764C233.889 370.764 229.936 366.812 229.936 361.936H212.281L212.282 388.419Z" fill="url(#paint6_linear_10025_65348)"/>
<path d="M203.455 441.384H229.938V432.556C229.938 427.681 233.89 423.728 238.766 423.728C243.641 423.728 247.594 427.68 247.594 432.556V441.384H274.09L274.081 406.074H203.456V441.384H203.455Z" fill="url(#paint7_linear_10025_65348)"/>
<path d="M477.11 70.626H309.386V44.608L478.507 17.548C481.629 17.058 484.252 14.937 485.383 11.985C486.514 9.03396 485.98 5.70296 483.984 3.25196C481.988 0.800962 478.834 -0.394038 475.715 0.115962L309.386 26.73V26.488C309.386 21.613 305.434 17.66 300.558 17.66C295.683 17.66 291.73 21.612 291.73 26.488V29.555L274.075 32.38V26.489C274.075 21.614 270.123 17.661 265.247 17.661C260.372 17.661 256.419 21.613 256.419 26.489V35.205L238.764 38.03V26.488C238.764 21.613 234.812 17.66 229.936 17.66C225.061 17.66 221.108 21.612 221.108 26.488V40.854L34.3337 70.738C29.7877 71.465 26.5637 75.565 26.9297 80.155C27.2957 84.745 31.1267 88.283 35.7307 88.282H221.11V132.42C221.109 134.761 222.039 137.007 223.695 138.663C225.351 140.319 227.596 141.249 229.938 141.248C232.279 141.249 234.525 140.319 236.181 138.663C237.837 137.007 238.767 134.762 238.766 132.42V88.281H256.421V97.109C256.42 99.45 257.35 101.696 259.006 103.352C260.662 105.008 262.907 105.937 265.249 105.937C267.59 105.938 269.836 105.008 271.492 103.352C273.148 101.696 274.077 99.451 274.077 97.109V88.281H291.732C291.731 90.622 292.661 92.868 294.317 94.524C295.973 96.18 298.218 97.11 300.56 97.109C302.901 97.11 305.147 96.18 306.803 94.524C308.459 92.868 309.388 90.623 309.388 88.281H477.112C481.987 88.281 485.94 84.329 485.94 79.453C485.938 74.578 481.985 70.626 477.11 70.626ZM146.778 70.626L221.11 58.733V70.626H146.778ZM238.765 70.626V55.908L256.42 53.083V70.626H238.765ZM274.076 70.626V50.258L291.731 47.433V70.626H274.076Z" fill="url(#paint8_linear_10025_65348)"/>
</g>
<defs>
<linearGradient id="paint0_linear_10025_65348" x1="238.753" y1="158.945" x2="238.753" y2="441.384" gradientUnits="userSpaceOnUse">
<stop stop-color="#72707D"/>
<stop offset="1" stop-color="#101824"/>
</linearGradient>
<linearGradient id="paint1_linear_10025_65348" x1="238.764" y1="150.074" x2="238.764" y2="203.04" gradientUnits="userSpaceOnUse">
<stop stop-color="#72707D"/>
<stop offset="1" stop-color="#101824"/>
</linearGradient>
<linearGradient id="paint2_linear_10025_65348" x1="238.765" y1="275.746" x2="238.765" y2="300.143" gradientUnits="userSpaceOnUse">
<stop stop-color="#72707D"/>
<stop offset="1" stop-color="#101824"/>
</linearGradient>
<linearGradient id="paint3_linear_10025_65348" x1="238.765" y1="459.039" x2="238.765" y2="476.694" gradientUnits="userSpaceOnUse">
<stop stop-color="#72707D"/>
<stop offset="1" stop-color="#101824"/>
</linearGradient>
<linearGradient id="paint4_linear_10025_65348" x1="238.765" y1="494.35" x2="238.765" y2="512.006" gradientUnits="userSpaceOnUse">
<stop stop-color="#72707D"/>
<stop offset="1" stop-color="#101824"/>
</linearGradient>
<linearGradient id="paint5_linear_10025_65348" x1="238.763" y1="317.799" x2="238.763" y2="344.282" gradientUnits="userSpaceOnUse">
<stop stop-color="#72707D"/>
<stop offset="1" stop-color="#101824"/>
</linearGradient>
<linearGradient id="paint6_linear_10025_65348" x1="238.764" y1="361.936" x2="238.764" y2="388.419" gradientUnits="userSpaceOnUse">
<stop stop-color="#72707D"/>
<stop offset="1" stop-color="#101824"/>
</linearGradient>
<linearGradient id="paint7_linear_10025_65348" x1="238.773" y1="406.074" x2="238.773" y2="441.384" gradientUnits="userSpaceOnUse">
<stop stop-color="#72707D"/>
<stop offset="1" stop-color="#101824"/>
</linearGradient>
<linearGradient id="paint8_linear_10025_65348" x1="256.434" y1="0" x2="256.434" y2="141.248" gradientUnits="userSpaceOnUse">
<stop stop-color="#72707D"/>
<stop offset="1" stop-color="#101824"/>
</linearGradient>
<clipPath id="clip0_10025_65348">
<rect width="512.004" height="512.004" fill="white" transform="translate(0.431641)"/>
</clipPath>
</defs>
</svg>
