<svg width="512" height="512" viewBox="0 0 512 512" fill="none" xmlns="http://www.w3.org/2000/svg">
<path d="M148.8 139.52L68.7999 59.52C66.5798 57.27 65.0759 54.4129 64.4779 51.309C63.8799 48.2052 64.2147 44.9938 65.4399 42.08C66.605 39.1531 68.6081 36.6352 71.1983 34.842C73.7884 33.0489 76.8502 32.0602 79.9999 32H208C210.106 31.9878 212.193 32.3914 214.142 33.1877C216.092 33.9839 217.865 35.1571 219.36 36.64L233.44 50.72L157.44 126.72C153.846 130.458 150.923 134.789 148.8 139.52ZM336 166.56V216.32C361.687 233.483 381.174 258.452 391.582 287.539C401.99 316.626 402.767 348.29 393.8 377.853C384.832 407.416 366.595 433.311 341.781 451.715C316.968 470.118 286.893 480.053 256 480.053C225.107 480.053 195.032 470.118 170.219 451.715C145.405 433.311 127.168 407.416 118.2 377.853C109.233 348.29 110.01 316.626 120.418 287.539C130.826 258.452 150.313 233.483 176 216.32V160C175.988 157.894 176.391 155.807 177.188 153.858C177.984 151.908 179.157 150.135 180.64 148.64L292.64 36.64C294.135 35.1571 295.908 33.9839 297.857 33.1877C299.807 32.3914 301.894 31.9878 304 32H432C435.159 32.0158 438.242 32.9662 440.862 34.7316C443.481 36.4969 445.52 38.9981 446.72 41.92C447.945 44.8338 448.28 48.0452 447.682 51.149C447.084 54.2529 445.58 57.11 443.36 59.36L336 166.56ZM336 313.6C335.073 310.756 333.367 308.23 331.076 306.307C328.785 304.383 326.001 303.141 323.04 302.72L287.2 297.44L271.2 265.44C269.89 262.735 267.844 260.454 265.297 258.857C262.751 257.261 259.806 256.414 256.8 256.414C253.794 256.414 250.849 257.261 248.303 258.857C245.756 260.454 243.71 262.735 242.4 265.44L226.4 297.44L190.56 302.72C187.616 303.148 184.85 304.388 182.572 306.3C180.294 308.213 178.595 310.723 177.664 313.548C176.733 316.373 176.609 319.401 177.304 322.294C177.999 325.186 179.487 327.827 181.6 329.92L207.68 355.2L201.44 391.04C200.869 394.04 201.168 397.14 202.302 399.975C203.436 402.81 205.358 405.262 207.84 407.04C210.259 408.77 213.113 409.791 216.081 409.989C219.048 410.186 222.012 409.553 224.64 408.16L256.64 392.16L288.64 408.16C290.886 409.427 293.422 410.088 296 410.08C299.379 410.03 302.666 408.971 305.44 407.04C307.922 405.262 309.844 402.81 310.978 399.975C312.112 397.14 312.411 394.04 311.84 391.04L305.6 355.2L331.68 329.92C333.85 327.873 335.404 325.26 336.168 322.376C336.931 319.492 336.873 316.453 336 313.6ZM304 200.48V176H208V200.48C239.002 189.179 272.998 189.179 304 200.48Z" fill="url(#paint0_linear_10025_21459)"/>
<defs>
<linearGradient id="paint0_linear_10025_21459" x1="256.08" y1="31.9998" x2="256.08" y2="480.053" gradientUnits="userSpaceOnUse">
<stop stop-color="#72707D"/>
<stop offset="1" stop-color="#101824"/>
</linearGradient>
</defs>
</svg>
