<svg width="508" height="508" viewBox="0 0 508 508" fill="none" xmlns="http://www.w3.org/2000/svg">
<path d="M85.5138 248.646H423.117C432.543 248.646 440.147 241.042 440.147 231.615V179.415C440.147 169.988 432.543 162.384 423.117 162.384H398.244V141.491C398.244 113.292 375.352 90.3999 347.152 90.3999H161.479C133.279 90.3999 110.387 113.292 110.387 141.491V162.384H85.5138C76.0875 162.384 68.4829 169.988 68.4829 179.415V231.615C68.4829 241.042 76.0875 248.646 85.5138 248.646ZM144.685 141.254C144.685 131.59 152.606 123.669 162.35 123.669H346.281C356.024 123.669 363.945 131.59 363.945 141.254V162.384H144.685V141.254Z" fill="url(#paint0_linear_10025_58060)"/>
<path d="M413.928 264.489H94.7018C94.7018 264.489 114.03 344.335 58.4229 418.478H135.338C168.924 394.555 167.577 339.899 167.577 339.345C167.498 334.909 170.904 331.265 175.261 331.106C179.855 331.185 183.262 334.433 183.42 338.79C183.499 341.246 184.529 387.585 158.468 418.478H246.394V339.027C246.394 334.671 249.958 331.106 254.315 331.106C258.671 331.106 262.236 334.671 262.236 339.027V418.478H350.162C324.101 387.585 325.131 341.246 325.21 338.79C325.368 334.433 328.933 331.185 333.369 331.106C337.726 331.265 341.132 334.909 341.052 339.265C341.052 339.899 339.864 394.555 373.292 418.478H450.207C394.6 344.335 413.928 264.489 413.928 264.489Z" fill="url(#paint1_linear_10025_58060)"/>
<defs>
<linearGradient id="paint0_linear_10025_58060" x1="254.315" y1="90.3999" x2="254.315" y2="248.646" gradientUnits="userSpaceOnUse">
<stop stop-color="#72707D"/>
<stop offset="1" stop-color="#101824"/>
</linearGradient>
<linearGradient id="paint1_linear_10025_58060" x1="254.315" y1="264.489" x2="254.315" y2="418.478" gradientUnits="userSpaceOnUse">
<stop stop-color="#72707D"/>
<stop offset="1" stop-color="#101824"/>
</linearGradient>
</defs>
</svg>
