<svg width="512" height="512" viewBox="0 0 512 512" fill="none" xmlns="http://www.w3.org/2000/svg">
<path d="M348 118.24L313.6 151.68L321.76 199.68C322.331 202.68 322.032 205.78 320.898 208.615C319.764 211.45 317.842 213.902 315.36 215.68C312.615 217.668 309.309 218.732 305.92 218.72C303.342 218.728 300.806 218.067 298.56 216.8L256 193.6L213.44 215.84C210.812 217.233 207.848 217.866 204.881 217.669C201.913 217.471 199.059 216.45 196.64 214.72C194.158 212.942 192.236 210.49 191.102 207.655C189.968 204.82 189.669 201.72 190.24 198.72L198.4 150.72L164 118.24C161.943 116.188 160.484 113.614 159.78 110.795C159.075 107.976 159.151 105.019 160 102.24C160.915 99.4181 162.597 96.9062 164.857 94.9849C167.118 93.0636 169.868 91.8086 172.8 91.36L220.8 84.48L241.6 40.96C242.91 38.2548 244.956 35.9734 247.503 34.3771C250.049 32.7808 252.994 31.9342 256 31.9342C259.006 31.9342 261.951 32.7808 264.497 34.3771C267.044 35.9734 269.09 38.2548 270.4 40.96L291.52 84L339.52 90.88C342.452 91.3286 345.202 92.5836 347.463 94.5049C349.723 96.4262 351.405 98.9381 352.32 101.76C353.225 104.635 353.3 107.707 352.536 110.623C351.772 113.538 350.199 116.179 348 118.24ZM304 256H208C203.757 256 199.687 257.686 196.686 260.686C193.686 263.687 192 267.757 192 272V480H320V272C320 267.757 318.314 263.687 315.314 260.686C312.313 257.686 308.243 256 304 256ZM48 336V464C48 468.243 49.6857 472.313 52.6863 475.314C55.6869 478.314 59.7565 480 64 480H160V320H64C59.7565 320 55.6869 321.686 52.6863 324.686C49.6857 327.687 48 331.757 48 336ZM448 352H352V480H448C452.243 480 456.313 478.314 459.314 475.314C462.314 472.313 464 468.243 464 464V368C464 363.757 462.314 359.687 459.314 356.686C456.313 353.686 452.243 352 448 352Z" fill="url(#paint0_linear_10025_21465)"/>
<defs>
<linearGradient id="paint0_linear_10025_21465" x1="256" y1="31.9342" x2="256" y2="480" gradientUnits="userSpaceOnUse">
<stop stop-color="#72707D"/>
<stop offset="1" stop-color="#101824"/>
</linearGradient>
</defs>
</svg>
