<svg width="512" height="512" viewBox="0 0 512 512" fill="none" xmlns="http://www.w3.org/2000/svg">
<g clip-path="url(#clip0_10025_59933)">
<path d="M326.442 123.821C324.333 121.931 316.437 113.186 316.437 104.998C316.437 97.1461 323.893 88.5191 326.442 86.1751C328.493 84.3441 346.437 67.6151 346.437 44.9981C346.437 22.3811 328.492 5.6511 326.442 3.8201C320.319 -1.6879 310.812 -1.1899 305.26 4.9921C299.738 11.1591 300.265 20.6511 306.432 26.1741C308.541 28.0641 316.437 36.8091 316.437 44.9971C316.437 52.8481 308.981 61.4761 306.432 63.8201C304.381 65.6511 286.437 82.3801 286.437 104.997C286.437 127.614 304.381 144.343 306.432 146.174C312.579 151.691 322.086 151.186 327.614 145.002C333.136 138.836 332.609 129.344 326.442 123.821Z" fill="url(#paint0_linear_10025_59933)"/>
<path d="M236.441 123.821C234.332 121.931 226.436 113.186 226.436 104.998C226.436 97.1461 233.892 88.5191 236.441 86.1751C238.492 84.3441 256.436 67.6151 256.436 44.9981C256.436 22.3811 238.491 5.6511 236.441 3.8201C230.303 -1.6879 220.796 -1.1899 215.259 4.9921C209.737 11.1591 210.264 20.6511 216.431 26.1741C218.54 28.0641 226.436 36.8091 226.436 44.9971C226.436 52.8481 218.98 61.4761 216.431 63.8201C214.38 65.6511 196.436 82.3801 196.436 104.997C196.436 127.614 214.38 144.343 216.431 146.174C222.578 151.691 232.085 151.186 237.613 145.002C243.135 138.836 242.608 129.344 236.441 123.821Z" fill="url(#paint1_linear_10025_59933)"/>
<path d="M146.441 123.821C144.332 121.931 136.436 113.186 136.436 104.998C136.436 97.1461 143.892 88.5191 146.441 86.1751C148.492 84.3441 166.436 67.6151 166.436 44.9981C166.436 22.3811 148.491 5.6511 146.441 3.8201C140.318 -1.6879 130.811 -1.1899 125.259 4.9921C119.737 11.1591 120.264 20.6511 126.431 26.1741C128.54 28.0641 136.436 36.8091 136.436 44.9971C136.436 52.8481 128.98 61.4761 126.431 63.8201C124.38 65.6511 106.436 82.3801 106.436 104.997C106.436 127.614 124.38 144.343 126.431 146.174C132.578 151.691 142.085 151.186 147.613 145.002C153.135 138.836 152.608 129.344 146.441 123.821Z" fill="url(#paint2_linear_10025_59933)"/>
<path d="M413.437 451C257.225 451 173.37 451 130.997 451C102.748 451 92.8691 451 92.5321 451C76.2191 451 53.7691 451 23.4351 451C15.1441 451 8.43506 457.709 8.43506 466C8.43506 474.291 15.1441 481 23.4351 481H59.1631L61.7261 487.127C69.4021 502.464 84.8281 512 101.981 512H334.892C352.045 512 367.47 502.464 375.146 487.127L377.709 481H413.437C421.728 481 428.437 474.291 428.437 466C428.438 457.709 421.728 451 413.437 451Z" fill="url(#paint3_linear_10025_59933)"/>
<path d="M248.437 277.21L233.436 292.21V330.999H263.437V292.21L248.437 277.21Z" fill="url(#paint4_linear_10025_59933)"/>
<path d="M413.437 180.998H263.437V249.787L289.042 275.392C291.855 278.205 293.437 282.013 293.437 285.997V345.997C293.437 354.288 286.728 360.997 278.437 360.997H218.437C210.146 360.997 203.437 354.288 203.437 345.997V285.997C203.437 282.013 205.019 278.204 207.832 275.392L233.437 249.787V180.998H23.4351C15.1441 180.998 8.43506 187.707 8.43506 195.998C8.43506 285.402 39.1731 367.646 90.1021 420.999H346.77C397.699 367.646 428.437 285.401 428.437 195.998C428.438 187.707 421.728 180.998 413.437 180.998Z" fill="url(#paint5_linear_10025_59933)"/>
<path d="M486.197 228.239C478.461 220.521 468.469 215.989 457.541 213.455C457.116 223.546 456.651 233.602 455.512 243.482C459.128 244.894 462.36 246.831 464.986 249.449C482.227 266.705 472.515 305.567 443.76 334.308C439.06 339.006 434.035 343.066 428.908 346.741C422.684 361.781 415.825 376.324 407.818 389.84C427.687 384.184 447.847 372.654 464.971 355.519C506.602 313.904 515.933 257.991 486.197 228.239Z" fill="url(#paint6_linear_10025_59933)"/>
</g>
<defs>
<linearGradient id="paint0_linear_10025_59933" x1="316.437" y1="0" x2="316.437" y2="149.998" gradientUnits="userSpaceOnUse">
<stop stop-color="#72707D"/>
<stop offset="1" stop-color="#101824"/>
</linearGradient>
<linearGradient id="paint1_linear_10025_59933" x1="226.436" y1="0" x2="226.436" y2="149.998" gradientUnits="userSpaceOnUse">
<stop stop-color="#72707D"/>
<stop offset="1" stop-color="#101824"/>
</linearGradient>
<linearGradient id="paint2_linear_10025_59933" x1="136.436" y1="0" x2="136.436" y2="149.998" gradientUnits="userSpaceOnUse">
<stop stop-color="#72707D"/>
<stop offset="1" stop-color="#101824"/>
</linearGradient>
<linearGradient id="paint3_linear_10025_59933" x1="218.436" y1="451" x2="218.436" y2="512" gradientUnits="userSpaceOnUse">
<stop stop-color="#72707D"/>
<stop offset="1" stop-color="#101824"/>
</linearGradient>
<linearGradient id="paint4_linear_10025_59933" x1="248.437" y1="277.21" x2="248.437" y2="330.999" gradientUnits="userSpaceOnUse">
<stop stop-color="#72707D"/>
<stop offset="1" stop-color="#101824"/>
</linearGradient>
<linearGradient id="paint5_linear_10025_59933" x1="218.436" y1="180.998" x2="218.436" y2="420.999" gradientUnits="userSpaceOnUse">
<stop stop-color="#72707D"/>
<stop offset="1" stop-color="#101824"/>
</linearGradient>
<linearGradient id="paint6_linear_10025_59933" x1="455.691" y1="213.455" x2="455.691" y2="389.84" gradientUnits="userSpaceOnUse">
<stop stop-color="#72707D"/>
<stop offset="1" stop-color="#101824"/>
</linearGradient>
<clipPath id="clip0_10025_59933">
<rect width="512" height="512" fill="white"/>
</clipPath>
</defs>
</svg>
