<svg width="508" height="508" viewBox="0 0 508 508" fill="none" xmlns="http://www.w3.org/2000/svg">
<path d="M386.162 150.275H343.467L417.53 374.921H460.305L386.162 150.275Z" fill="url(#paint0_linear_10025_58064)"/>
<path d="M222.034 150.275C222.114 150.433 222.193 150.671 222.272 150.829L268.136 299.669C271.067 304.502 272.651 309.888 272.651 315.591C272.651 315.829 272.572 316.066 272.572 316.225V316.7C271.938 333.256 258.393 346.643 241.6 346.643H124.365C119.692 346.643 115.969 342.919 115.969 338.246C115.969 333.572 119.692 329.849 124.365 329.849H241.6C249.125 329.849 255.224 323.987 255.779 316.541L252.848 307.036L251.422 305.373C248.967 302.997 245.402 301.491 241.6 301.491H117.87C97.6708 301.491 81.1157 317.967 81.1157 338.246C81.1157 347.989 84.9178 357.257 91.8885 364.227C98.8592 371.119 108.127 374.921 117.87 374.921H400.896L326.753 150.275H222.034Z" fill="url(#paint1_linear_10025_58064)"/>
<path d="M117.871 284.698H241.6C243.106 284.698 244.611 284.936 246.036 285.094L206.192 155.82C202.152 142.749 190.271 133.957 176.646 133.957H157.477C157.398 133.957 157.398 133.957 157.318 133.957H87.2152C74.3829 133.957 62.4222 139.661 54.4217 149.72C46.4212 159.701 43.4111 172.613 46.1833 185.128L73.5909 308.145C83.2546 293.966 99.4935 284.698 117.871 284.698Z" fill="url(#paint2_linear_10025_58064)"/>
<defs>
<linearGradient id="paint0_linear_10025_58064" x1="401.886" y1="150.275" x2="401.886" y2="374.921" gradientUnits="userSpaceOnUse">
<stop stop-color="#72707D"/>
<stop offset="1" stop-color="#101824"/>
</linearGradient>
<linearGradient id="paint1_linear_10025_58064" x1="241.006" y1="150.275" x2="241.006" y2="374.921" gradientUnits="userSpaceOnUse">
<stop stop-color="#72707D"/>
<stop offset="1" stop-color="#101824"/>
</linearGradient>
<linearGradient id="paint2_linear_10025_58064" x1="145.606" y1="133.957" x2="145.606" y2="308.145" gradientUnits="userSpaceOnUse">
<stop stop-color="#72707D"/>
<stop offset="1" stop-color="#101824"/>
</linearGradient>
</defs>
</svg>
