<svg width="512" height="513" viewBox="0 0 512 513" fill="none" xmlns="http://www.w3.org/2000/svg">
<g clip-path="url(#clip0_10025_65382)">
<path d="M211.822 272.106L101.335 178.186C97.4371 174.842 92.4711 173.002 87.3351 172.998C85.4201 172.999 83.5121 173.248 81.6611 173.739C74.9651 175.423 69.5371 180.315 67.1701 186.802C48.5021 237.661 51.1501 293.901 74.5131 342.782C97.8761 391.662 139.977 429.046 191.278 446.463C197.705 448.648 204.793 447.572 210.282 443.579C216.046 439.514 219.461 432.891 219.429 425.838V288.561C219.435 282.225 216.653 276.206 211.822 272.106ZM75.8201 262.527C74.1051 260.812 73.1421 258.486 73.1431 256.061C73.1421 253.636 74.1051 251.31 75.8201 249.595C77.5351 247.88 79.8611 246.917 82.2861 246.918H100.572C105.621 246.918 109.715 251.011 109.715 256.061C109.715 261.111 105.622 265.204 100.572 265.204H82.2861C79.8611 265.204 77.5351 264.241 75.8201 262.527ZM122.723 319.366C122.355 322.621 120.274 325.43 117.267 326.73L100.517 334.06C99.3641 334.569 98.1171 334.83 96.8561 334.828C92.5271 334.831 88.7901 331.797 87.9021 327.56C87.0141 323.323 89.2201 319.045 93.1861 317.31L109.936 309.98C112.931 308.654 116.407 309.031 119.047 310.969C121.69 312.908 123.091 316.111 122.723 319.366ZM152.558 372.427L139.629 385.356C136.059 388.926 130.271 388.926 126.7 385.356C123.13 381.786 123.13 375.998 126.7 372.427L139.629 359.498C143.199 355.928 148.987 355.928 152.558 359.498C156.128 363.069 156.128 368.857 152.558 372.427Z" fill="url(#paint0_linear_10025_65382)"/>
<path d="M374.295 101.543C373.876 95.971 370.875 90.917 366.183 87.882C299.302 43.93 212.697 43.93 145.817 87.882C141.119 90.916 138.113 95.975 137.692 101.552C137.282 106.861 139.382 112.056 143.366 115.588L244.473 206.052C251.061 211.919 261.006 211.9 267.571 206.007L368.607 115.614C372.6 112.072 374.704 106.865 374.295 101.543ZM202.216 117.002C201.333 119.26 199.588 121.073 197.366 122.044C196.213 122.553 194.966 122.814 193.705 122.812C190.07 122.815 186.779 120.662 185.326 117.33L177.996 100.571C176.666 97.575 177.043 94.097 178.982 91.454C180.922 88.812 184.128 87.41 187.384 87.781C190.641 88.152 193.449 90.238 194.745 93.249L202.075 110.008C203.049 112.228 203.099 114.744 202.216 117.002ZM265.143 100.632C265.143 105.681 261.05 109.775 256 109.775C250.95 109.775 246.857 105.682 246.857 100.632V82.347C246.857 77.298 250.95 73.204 256 73.204C261.049 73.204 265.143 77.297 265.143 82.347V100.632ZM327.817 97.624L321.152 114.651C319.962 117.693 317.24 119.868 314.011 120.359C310.782 120.85 307.537 119.58 305.498 117.029C303.459 114.478 302.936 111.033 304.126 107.991L310.791 90.964C311.981 87.922 314.703 85.747 317.932 85.256C321.161 84.765 324.406 86.035 326.445 88.586C328.484 91.137 329.007 94.582 327.817 97.624Z" fill="url(#paint1_linear_10025_65382)"/>
<path d="M430.339 173.73C428.486 173.246 426.58 173 424.665 172.998C419.53 172.998 414.564 174.839 410.669 178.186L300.173 272.106C295.345 276.208 292.565 282.226 292.57 288.561V425.838C292.538 432.892 295.955 439.516 301.722 443.579C307.211 447.574 314.3 448.65 320.726 446.463C372.026 429.045 414.125 391.661 437.487 342.781C460.849 293.901 463.496 237.661 444.829 186.803C442.461 180.314 437.035 175.42 430.339 173.73ZM385.299 385.355C383.585 387.07 381.259 388.034 378.835 388.034C376.41 388.034 374.085 387.07 372.371 385.355L359.442 372.426C355.872 368.856 355.872 363.068 359.442 359.497C363.012 355.927 368.8 355.927 372.371 359.497L385.3 372.426C387.015 374.14 387.979 376.465 387.979 378.89C387.978 381.315 387.014 383.641 385.299 385.355ZM426.286 322.694C424.914 326.2 421.533 328.507 417.768 328.506C416.628 328.509 415.497 328.294 414.438 327.872L397.407 321.202C394.361 320.015 392.18 317.291 391.69 314.059C391.199 310.827 392.472 307.578 395.029 305.54C397.586 303.502 401.036 302.985 404.078 304.184L421.109 310.854C423.366 311.737 425.179 313.481 426.15 315.701C427.121 317.921 427.169 320.437 426.286 322.694ZM429.714 265.203H411.428C406.379 265.203 402.285 261.11 402.285 256.06C402.285 251.01 406.378 246.917 411.428 246.917H429.714C434.763 246.917 438.857 251.01 438.857 256.06C438.857 261.11 434.764 265.203 429.714 265.203Z" fill="url(#paint2_linear_10025_65382)"/>
<path d="M256 0.0605469C114.615 0.0605469 0 114.676 0 256.061C0 397.446 114.615 512.061 256 512.061C397.385 512.061 512 397.446 512 256.061C511.842 114.742 397.319 0.218547 256 0.0605469ZM237.714 425.838C237.69 438.778 231.442 450.916 220.923 458.454C210.654 465.924 197.383 467.908 185.378 463.766C129.414 444.76 83.488 403.973 58.006 350.645C32.524 297.317 29.64 235.963 50.009 180.481C54.407 168.365 64.523 159.215 77.018 156.052C89.687 152.721 103.184 155.784 113.174 164.257L223.665 258.177H223.67C232.586 265.751 237.722 276.862 237.715 288.561L237.714 425.838ZM255.982 228.74C247.234 228.748 238.792 225.52 232.281 219.677L131.174 129.213C122.945 121.909 118.608 111.174 119.455 100.204C120.279 88.9565 126.316 78.7415 135.772 72.5965C208.752 24.6446 303.248 24.6446 376.227 72.5965C385.676 78.7386 391.708 88.9465 392.531 100.186C393.38 111.172 389.041 121.922 380.803 129.24L279.767 219.633C273.234 225.498 264.763 228.742 255.982 228.74ZM326.625 463.766C314.62 467.907 301.349 465.924 291.08 458.454C280.559 450.918 274.309 438.779 274.285 425.838V288.561C274.277 276.862 279.413 265.751 288.33 258.177L398.831 164.258C408.813 155.775 422.312 152.711 434.978 156.053C447.474 159.217 457.591 168.366 461.991 180.482C482.36 235.964 479.476 297.318 453.994 350.645C428.512 403.972 382.588 444.759 326.625 463.766Z" fill="url(#paint3_linear_10025_65382)"/>
</g>
<defs>
<linearGradient id="paint0_linear_10025_65382" x1="137.143" y1="172.998" x2="137.143" y2="447.574" gradientUnits="userSpaceOnUse">
<stop stop-color="#72707D"/>
<stop offset="1" stop-color="#101824"/>
</linearGradient>
<linearGradient id="paint1_linear_10025_65382" x1="255.994" y1="54.918" x2="255.994" y2="210.439" gradientUnits="userSpaceOnUse">
<stop stop-color="#72707D"/>
<stop offset="1" stop-color="#101824"/>
</linearGradient>
<linearGradient id="paint2_linear_10025_65382" x1="374.856" y1="172.998" x2="374.856" y2="447.576" gradientUnits="userSpaceOnUse">
<stop stop-color="#72707D"/>
<stop offset="1" stop-color="#101824"/>
</linearGradient>
<linearGradient id="paint3_linear_10025_65382" x1="256" y1="0.0605469" x2="256" y2="512.061" gradientUnits="userSpaceOnUse">
<stop stop-color="#72707D"/>
<stop offset="1" stop-color="#101824"/>
</linearGradient>
<clipPath id="clip0_10025_65382">
<rect width="512" height="512" fill="white" transform="translate(0 0.0605469)"/>
</clipPath>
</defs>
</svg>
