<svg width="513" height="513" viewBox="0 0 513 513" fill="none" xmlns="http://www.w3.org/2000/svg">
<g clip-path="url(#clip0_10025_65390)">
<path d="M118.866 310.925V301.782C118.865 299.357 119.827 297.03 121.542 295.316C123.257 293.601 125.583 292.638 128.009 292.64H484.58C484.58 165.497 384.607 73.2109 246.866 73.2109C109.125 73.2109 9.15186 165.497 9.15186 292.64C9.15186 415.541 102.573 505.854 233.215 511.746C163.132 478.989 118.866 405.402 118.866 310.925ZM68.5809 301.783C50.9079 301.783 36.5809 287.456 36.5809 269.783C36.5809 252.11 50.9079 237.783 68.5809 237.783C86.2539 237.783 100.581 252.11 100.581 269.783C100.559 287.447 86.2449 301.761 68.5809 301.783ZM92.1429 222.461C82.8719 216.752 76.8719 206.973 75.9819 196.122C74.0829 172.709 86.8709 150.565 108.098 140.506C117.935 135.84 129.407 136.145 138.982 141.327C156.723 151.577 160.661 178.113 147.75 200.479C142.142 210.518 133.478 218.507 123.018 223.283C118.228 225.396 113.057 226.508 107.822 226.551C102.326 226.594 96.9169 225.183 92.1429 222.461Z" fill="url(#paint0_linear_10025_65390)"/>
<path d="M291.62 58.1454C295.349 58.6834 299.052 59.2684 302.713 59.9374L313.215 38.4084C317.68 29.2124 320.003 19.1234 320.01 8.90039L280.262 16.0664C283.896 23.6494 286.551 31.6654 288.161 39.9184L291.62 58.1454Z" fill="url(#paint1_linear_10025_65390)"/>
<path d="M131.911 191.337C139.652 177.935 138.697 162.283 129.84 157.167C127.859 156.045 125.616 155.469 123.34 155.497C120.584 155.559 117.867 156.169 115.349 157.292C101.535 164.149 93.1807 178.623 94.1527 194.015C94.4547 199.094 97.0887 203.748 101.287 206.622C105.875 208.818 111.22 208.772 115.769 206.497C122.603 203.257 128.248 197.955 131.911 191.337Z" fill="url(#paint2_linear_10025_65390)"/>
<path d="M191.02 59.9381C194.681 59.2681 198.384 58.6831 202.113 58.1461L205.572 39.9181C207.179 31.6781 209.828 23.6761 213.454 16.1041L173.054 9.20312C173.655 19.3251 176.188 29.2391 180.518 38.4081L191.02 59.9381Z" fill="url(#paint3_linear_10025_65390)"/>
<path d="M68.5807 283.498C76.1547 283.498 82.2947 277.358 82.2947 269.784C82.2947 262.21 76.1547 256.07 68.5807 256.07C61.0067 256.07 54.8667 262.21 54.8667 269.784C54.8667 277.358 61.0067 283.498 68.5807 283.498Z" fill="url(#paint4_linear_10025_65390)"/>
<path d="M493.554 310.926H484.581C484.581 420.301 418.447 493.783 320.01 493.783C221.573 493.783 155.438 420.301 155.438 310.926H137.152C137.152 429.355 212.348 512.069 320.009 512.069C427.67 512.069 502.866 429.355 502.866 310.926H493.554Z" fill="url(#paint5_linear_10025_65390)"/>
<path d="M272.597 55.9808L270.196 43.3278C267.436 28.4238 260.447 14.6278 250.062 3.58678L246.697 0.0507812L243.697 3.56878C233.296 14.6088 226.296 28.4128 223.536 43.3278L221.135 55.9808C229.567 55.3018 238.138 54.9268 246.866 54.9268C255.594 54.9258 264.165 55.3008 272.597 55.9808Z" fill="url(#paint6_linear_10025_65390)"/>
<path d="M320.009 475.499C407.509 475.499 466.295 409.365 466.295 310.928H173.723C173.723 409.365 232.509 475.499 320.009 475.499ZM364.991 424.115C364.159 426.411 362.35 428.22 360.054 429.052C356.653 430.512 352.705 429.752 350.089 427.133C349.283 426.243 348.634 425.222 348.169 424.115C347.655 423.031 347.404 421.841 347.438 420.641C347.451 418.216 348.401 415.89 350.089 414.15C352.705 411.513 356.656 410.72 360.086 412.144C363.517 413.568 365.744 416.927 365.723 420.641C365.709 421.836 365.46 423.016 364.991 424.115ZM420.759 364.043C420.848 363.439 421.035 362.854 421.313 362.311C421.51 361.726 421.787 361.17 422.134 360.659C422.767 359.669 423.608 358.828 424.598 358.195C425.109 357.847 425.664 357.571 426.25 357.374C426.794 357.097 427.379 356.91 427.982 356.82C430.967 356.222 434.053 357.149 436.215 359.293L437.313 360.659C437.657 361.172 437.933 361.727 438.134 362.311C438.412 362.853 438.597 363.439 438.679 364.043C438.79 364.617 438.852 365.2 438.866 365.785C438.851 366.979 438.603 368.159 438.134 369.258C437.302 371.554 435.493 373.363 433.197 374.195C430.984 375.171 428.463 375.171 426.251 374.195C425.131 373.754 424.107 373.102 423.233 372.275C422.43 371.363 421.751 370.348 421.215 369.257C420.777 368.152 420.562 366.972 420.581 365.785C420.596 365.201 420.656 364.618 420.759 364.043ZM386.661 341.007C387.535 340.18 388.559 339.528 389.679 339.087C391.313 338.359 393.134 338.166 394.884 338.533C395.49 338.622 396.078 338.809 396.625 339.087C397.208 339.284 397.76 339.561 398.268 339.908C398.748 340.247 399.207 340.613 399.644 341.007L400.742 342.373C401.086 342.886 401.362 343.441 401.563 344.025C401.828 344.541 402.012 345.095 402.108 345.668C402.214 346.273 402.277 346.885 402.295 347.499C402.28 348.693 402.032 349.873 401.563 350.972C401.098 352.079 400.449 353.1 399.643 353.99C398.768 354.815 397.744 355.467 396.625 355.91C393.224 357.369 389.276 356.609 386.661 353.99C384.94 352.271 383.985 349.931 384.01 347.499C384.041 345.078 384.988 342.758 386.661 341.007ZM384.188 391.383C384.291 390.811 384.477 390.257 384.741 389.74C384.938 389.155 385.215 388.599 385.562 388.088L386.66 386.722C387.534 385.895 388.558 385.243 389.678 384.802C391.312 384.074 393.133 383.881 394.883 384.248C395.489 384.337 396.077 384.524 396.624 384.802C397.207 384.999 397.759 385.276 398.267 385.623C398.747 385.962 399.206 386.328 399.643 386.722L400.741 388.088C401.085 388.601 401.361 389.156 401.562 389.74C401.827 390.256 402.011 390.81 402.107 391.383C402.218 391.987 402.28 392.6 402.294 393.214C402.279 394.408 402.031 395.588 401.562 396.687C401.097 397.794 400.448 398.815 399.642 399.705C398.767 400.53 397.743 401.182 396.624 401.625C393.223 403.084 389.275 402.324 386.66 399.705C384.939 397.986 383.984 395.646 384.009 393.214C384.024 392.6 384.084 391.988 384.188 391.383ZM348.169 362.312C348.61 361.192 349.262 360.167 350.089 359.294C353.755 355.91 359.405 355.91 363.071 359.294C363.879 360.183 364.529 361.203 364.991 362.312C365.967 364.525 365.967 367.046 364.991 369.258C364.159 371.554 362.35 373.363 360.054 374.195C356.653 375.655 352.705 374.895 350.089 372.276C349.283 371.386 348.634 370.365 348.169 369.258C347.193 367.046 347.193 364.524 348.169 362.312ZM313.518 341.007C316.134 338.37 320.085 337.577 323.515 339.001C326.946 340.425 329.173 343.784 329.152 347.498C329.152 352.547 325.059 356.641 320.009 356.641C314.959 356.641 310.866 352.548 310.866 347.498C310.879 345.074 311.829 342.748 313.518 341.007ZM313.518 386.722C316.134 384.085 320.085 383.292 323.515 384.716C326.945 386.14 329.173 389.499 329.152 393.213C329.137 394.407 328.889 395.587 328.42 396.686C327.955 397.793 327.306 398.814 326.5 399.704C322.895 403.24 317.123 403.24 313.518 399.704C312.712 398.814 312.063 397.793 311.598 396.686C311.129 395.587 310.881 394.407 310.867 393.213C310.898 390.792 311.845 388.473 313.518 386.722ZM311.598 435.454C312.06 434.346 312.71 433.325 313.518 432.436C317.184 429.052 322.834 429.052 326.5 432.436C327.308 433.325 327.958 434.345 328.42 435.454C329.396 437.667 329.396 440.188 328.42 442.4C327.955 443.507 327.306 444.528 326.5 445.418C322.895 448.954 317.123 448.954 313.518 445.418C312.712 444.528 312.063 443.507 311.598 442.4C310.622 440.188 310.622 437.666 311.598 435.454ZM275.026 362.311C275.467 361.192 276.119 360.167 276.946 359.293C280.612 355.909 286.262 355.909 289.928 359.293C290.736 360.182 291.385 361.202 291.848 362.311C293.5 366.336 292.088 370.967 288.471 373.386C284.854 375.804 280.035 375.34 276.946 372.276C275.225 370.557 274.27 368.217 274.295 365.785C274.31 364.59 274.558 363.41 275.026 362.311ZM275.027 417.169C275.467 416.049 276.119 415.025 276.946 414.151C280.612 410.767 286.262 410.767 289.928 414.151C290.736 415.04 291.385 416.06 291.848 417.169C292.824 419.382 292.824 421.903 291.848 424.115C291.016 426.411 289.207 428.22 286.911 429.052C283.51 430.512 279.562 429.752 276.946 427.133C275.225 425.414 274.27 423.074 274.295 420.642C274.31 419.447 274.558 418.267 275.027 417.169ZM238.455 344.025C238.896 342.905 239.548 341.881 240.375 341.007C243.001 338.408 246.936 337.649 250.339 339.087C251.446 339.552 252.467 340.201 253.357 341.007C254.165 341.896 254.815 342.916 255.277 344.025C256.709 347.442 255.935 351.386 253.317 354.007C250.699 356.629 246.757 357.409 243.338 355.982C239.919 354.555 237.701 351.203 237.724 347.498C237.69 346.3 237.941 345.109 238.455 344.025ZM238.456 389.74C238.896 388.62 239.548 387.596 240.375 386.722C242.991 384.085 246.942 383.292 250.373 384.716C253.804 386.14 256.031 389.499 256.01 393.213C255.995 396.91 253.765 400.237 250.35 401.655C246.936 403.073 243.004 402.304 240.375 399.704C238.669 397.975 237.716 395.642 237.724 393.213C237.69 392.014 237.941 390.824 238.456 389.74ZM205.203 373.475C201.556 371.036 200.162 366.347 201.885 362.312C202.717 360.016 204.526 358.207 206.822 357.375C210.227 355.948 214.156 356.705 216.786 359.295C218.455 361.048 219.402 363.365 219.438 365.785C219.459 368.216 218.504 370.555 216.787 372.276C213.716 375.41 208.85 375.913 205.203 373.475Z" fill="url(#paint7_linear_10025_65390)"/>
</g>
<defs>
<linearGradient id="paint0_linear_10025_65390" x1="246.866" y1="73.2109" x2="246.866" y2="511.746" gradientUnits="userSpaceOnUse">
<stop stop-color="#72707D"/>
<stop offset="1" stop-color="#101824"/>
</linearGradient>
<linearGradient id="paint1_linear_10025_65390" x1="300.136" y1="8.90039" x2="300.136" y2="59.9374" gradientUnits="userSpaceOnUse">
<stop stop-color="#72707D"/>
<stop offset="1" stop-color="#101824"/>
</linearGradient>
<linearGradient id="paint2_linear_10025_65390" x1="115.614" y1="155.496" x2="115.614" y2="208.237" gradientUnits="userSpaceOnUse">
<stop stop-color="#72707D"/>
<stop offset="1" stop-color="#101824"/>
</linearGradient>
<linearGradient id="paint3_linear_10025_65390" x1="193.254" y1="9.20312" x2="193.254" y2="59.9381" gradientUnits="userSpaceOnUse">
<stop stop-color="#72707D"/>
<stop offset="1" stop-color="#101824"/>
</linearGradient>
<linearGradient id="paint4_linear_10025_65390" x1="68.5807" y1="256.07" x2="68.5807" y2="283.498" gradientUnits="userSpaceOnUse">
<stop stop-color="#72707D"/>
<stop offset="1" stop-color="#101824"/>
</linearGradient>
<linearGradient id="paint5_linear_10025_65390" x1="320.009" y1="310.926" x2="320.009" y2="512.069" gradientUnits="userSpaceOnUse">
<stop stop-color="#72707D"/>
<stop offset="1" stop-color="#101824"/>
</linearGradient>
<linearGradient id="paint6_linear_10025_65390" x1="246.866" y1="0.0507812" x2="246.866" y2="55.9808" gradientUnits="userSpaceOnUse">
<stop stop-color="#72707D"/>
<stop offset="1" stop-color="#101824"/>
</linearGradient>
<linearGradient id="paint7_linear_10025_65390" x1="320.009" y1="310.928" x2="320.009" y2="475.499" gradientUnits="userSpaceOnUse">
<stop stop-color="#72707D"/>
<stop offset="1" stop-color="#101824"/>
</linearGradient>
<clipPath id="clip0_10025_65390">
<rect width="512.018" height="512.018" fill="white" transform="translate(0 0.0507812)"/>
</clipPath>
</defs>
</svg>
