<svg width="512" height="512" viewBox="0 0 512 512" fill="none" xmlns="http://www.w3.org/2000/svg">
<path d="M240 208C240 204.835 240.938 201.742 242.696 199.111C244.455 196.48 246.953 194.429 249.877 193.218C252.801 192.007 256.018 191.69 259.121 192.307C262.225 192.925 265.076 194.449 267.314 196.686C269.551 198.924 271.075 201.775 271.693 204.879C272.31 207.982 271.993 211.199 270.782 214.123C269.571 217.047 267.52 219.545 264.889 221.303C262.258 223.062 259.165 224 256 224C251.757 224 247.687 222.314 244.686 219.314C241.686 216.313 240 212.243 240 208ZM176 208C176 192.177 180.692 176.71 189.482 163.554C198.273 150.398 210.767 140.145 225.385 134.09C240.003 128.035 256.089 126.45 271.607 129.537C287.126 132.624 301.38 140.243 312.569 151.431C323.757 162.62 331.376 176.874 334.463 192.393C337.55 207.911 335.965 223.997 329.91 238.615C323.855 253.233 313.602 265.727 300.446 274.518C287.29 283.308 271.823 288 256 288C234.783 288 214.434 279.571 199.431 264.568C184.429 249.566 176 229.217 176 208ZM208 208C208 217.493 210.815 226.774 216.089 234.667C221.364 242.561 228.86 248.713 237.631 252.346C246.402 255.979 256.053 256.93 265.364 255.078C274.675 253.226 283.228 248.654 289.941 241.941C296.654 235.228 301.226 226.675 303.078 217.364C304.93 208.053 303.979 198.402 300.346 189.631C296.713 180.86 290.561 173.364 282.667 168.089C274.774 162.815 265.494 160 256 160C243.27 160 231.061 165.057 222.059 174.059C213.057 183.061 208 195.27 208 208ZM80 208C80 173.19 90.3222 139.163 109.661 110.22C129 81.2765 156.488 58.7182 188.648 45.3972C220.808 32.0761 256.195 28.5907 290.336 35.3817C324.477 42.1727 355.837 58.9351 380.451 83.5492C405.065 108.163 421.827 139.523 428.618 173.664C435.409 207.805 431.924 243.192 418.603 275.352C405.282 307.512 382.723 334.999 353.78 354.339C324.837 373.678 290.81 384 256 384C209.322 384 164.556 365.457 131.549 332.451C98.5428 299.444 80 254.678 80 208ZM144 208C144 230.151 150.569 251.806 162.875 270.224C175.182 288.642 192.674 302.997 213.139 311.474C233.605 319.952 256.124 322.169 277.85 317.848C299.576 313.526 319.532 302.859 335.196 287.196C350.859 271.532 361.526 251.576 365.848 229.85C370.17 208.124 367.952 185.605 359.475 165.139C350.998 144.674 336.642 127.182 318.224 114.875C299.806 102.569 278.152 96 256 96C226.296 96 197.808 107.8 176.804 128.804C155.8 149.808 144 178.296 144 208ZM360.8 387.52C351.503 393.062 341.763 397.825 331.68 401.76L336 416H176L180.48 401.76C170.397 397.825 160.657 393.062 151.36 387.52L128.8 459.2C128.054 461.245 127.733 463.421 127.856 465.594C127.98 467.768 128.546 469.893 129.52 471.84C130.493 473.787 131.854 475.515 133.518 476.918C135.183 478.321 137.116 479.37 139.2 480C140.785 480.307 142.415 480.307 144 480C147.394 479.987 150.696 478.894 153.428 476.881C156.16 474.868 158.182 472.038 159.2 468.8L165.76 448H346.24L352.8 468.8C353.818 472.038 355.84 474.868 358.572 476.881C361.304 478.894 364.606 479.987 368 480C369.637 480.047 371.267 479.775 372.8 479.2C374.864 478.647 376.796 477.686 378.482 476.375C380.169 475.063 381.575 473.427 382.619 471.563C383.663 469.699 384.323 467.644 384.56 465.521C384.797 463.398 384.607 461.248 384 459.2L360.8 387.52Z" fill="url(#paint0_linear_10025_21471)"/>
<defs>
<linearGradient id="paint0_linear_10025_21471" x1="256" y1="31.9999" x2="256" y2="480.23" gradientUnits="userSpaceOnUse">
<stop stop-color="#72707D"/>
<stop offset="1" stop-color="#101824"/>
</linearGradient>
</defs>
</svg>
