<svg width="511" height="511" viewBox="0 0 511 511" fill="none" xmlns="http://www.w3.org/2000/svg">
<g clip-path="url(#clip0_10025_65402)">
<path d="M403.582 283.611C397.221 281.482 390.412 281.06 383.836 282.386C387.424 290.847 389.707 299.804 390.608 308.95H426.599C423.855 298.325 416.469 289.502 406.492 284.932L403.582 283.611Z" fill="url(#paint0_linear_10025_65402)"/>
<path d="M299.841 226.663C306.137 226.678 312.415 227.341 318.575 228.643C305.854 204.882 281.078 190.062 254.126 190.092C250.901 190.102 247.681 190.333 244.488 190.784L235.688 199.585C257.952 201.156 278.856 210.875 294.408 226.884C296.213 226.779 298.015 226.663 299.841 226.663Z" fill="url(#paint1_linear_10025_65402)"/>
<path d="M153.351 281.918L126.316 308.95H208.93C209.477 303.588 210.498 298.284 211.981 293.102C196.593 285.42 179.619 281.454 162.421 281.522C158.957 281.521 156.067 281.678 153.351 281.918Z" fill="url(#paint2_linear_10025_65402)"/>
<path d="M221.823 217.44L217.881 217.391L208.144 227.126C222.956 228.506 237.189 233.561 249.552 241.834C256.363 237.278 263.769 233.683 271.562 231.15C259.198 222.291 244.371 217.525 229.161 217.521C228.189 217.52 225.519 217.485 221.823 217.44Z" fill="url(#paint3_linear_10025_65402)"/>
<path d="M353.85 308.949H372.316C369.148 283.832 353.202 262.147 330.171 251.636C329.792 251.462 329.425 251.262 329.073 251.038C319.85 247.023 309.9 244.95 299.841 244.949C263.03 245.07 232.003 272.44 227.292 308.949H245.832C248.105 295.331 255.475 283.088 266.445 274.706L266.466 274.681L266.498 274.66L266.546 274.619L266.602 274.592C276.091 267.179 287.8 263.178 299.841 263.235C306.438 263.242 312.982 264.427 319.162 266.735L322.617 268.289C339.124 275.828 350.821 291.057 353.85 308.949Z" fill="url(#paint4_linear_10025_65402)"/>
<path d="M312.153 283.611C308.198 282.218 304.034 281.511 299.84 281.522C291.83 281.477 284.04 284.139 277.733 289.076L277.687 289.098L277.652 289.138C271.133 294.05 266.485 301.039 264.475 308.951H335.17C332.426 298.326 325.039 289.503 315.062 284.933L312.153 283.611Z" fill="url(#paint5_linear_10025_65402)"/>
<path d="M234.637 254.176C223.84 248.103 211.656 244.925 199.269 244.949C196.025 244.951 192.787 245.199 189.58 245.689L171.711 263.558C188.047 264.582 204.031 268.753 218.785 275.842C222.954 267.866 228.298 260.563 234.637 254.176Z" fill="url(#paint6_linear_10025_65402)"/>
<path d="M320.09 37.5925L165.1 0.288542C161.953 -0.478458 158.635 0.483542 156.386 2.81554L11.6892 152.646C9.50619 154.892 8.63219 158.104 9.37619 161.146L45.7692 311.923L105.985 251.704L320.09 37.5925ZM72.6432 266.566C71.3952 268.645 69.3722 270.142 67.0192 270.727C64.6672 271.32 62.1762 270.952 60.0972 269.703C58.0182 268.455 56.5212 266.429 55.9392 264.075L30.0822 160.628C28.8752 155.737 31.8532 150.792 36.7402 149.572C41.6272 148.351 46.5802 151.316 47.8142 156.2L73.6712 259.646C74.2612 261.998 73.8912 264.488 72.6432 266.566ZM77.7332 132.557L71.2692 139.021C67.6932 142.553 61.9362 142.535 58.3812 138.981C54.8272 135.427 54.8082 129.67 58.3402 126.093L64.8042 119.629C68.3802 116.097 74.1372 116.115 77.6922 119.669C81.2472 123.223 81.2652 128.98 77.7332 132.557Z" fill="url(#paint7_linear_10025_65402)"/>
<path d="M147.18 505.396C148.795 508.295 151.853 510.092 155.171 510.092H371.368C374.686 510.092 377.744 508.295 379.359 505.396L458.02 363.807H68.52L147.18 505.396ZM208.412 473.521H217.555C222.604 473.521 226.698 477.614 226.698 482.664C226.698 487.713 222.605 491.807 217.555 491.807H208.412C203.363 491.807 199.269 487.714 199.269 482.664C199.269 477.615 203.363 473.521 208.412 473.521ZM112.278 383.396C114.357 382.147 116.847 381.776 119.2 382.364C121.553 382.952 123.575 384.45 124.823 386.53L179.68 477.959C182.279 482.288 180.876 487.905 176.546 490.504C172.216 493.103 166.6 491.7 164.001 487.37L109.144 395.941C107.896 393.862 107.525 391.372 108.113 389.02C108.701 386.667 110.199 384.644 112.278 383.396Z" fill="url(#paint8_linear_10025_65402)"/>
<path d="M374.726 266.064C386.426 262.311 399.04 262.547 410.591 266.736L414.046 268.29C430.552 275.829 442.25 291.058 445.278 308.951H463.744C460.576 283.834 444.63 262.149 421.599 251.638C421.22 251.464 420.853 251.264 420.501 251.04C411.278 247.025 401.328 244.952 391.269 244.951C381.163 244.966 371.175 247.114 361.955 251.252C366.73 255.717 371.012 260.683 374.726 266.064Z" fill="url(#paint9_linear_10025_65402)"/>
<path d="M178.459 230.952L363.957 45.4592C367.488 41.8792 367.468 36.1221 363.913 32.5661C360.358 29.0111 354.6 28.9912 351.02 32.5212L53.6354 329.915C50.0734 333.488 50.0734 339.27 53.6354 342.844C57.2504 346.304 62.9484 346.304 66.5644 342.844L178.336 231.075L178.459 230.952Z" fill="url(#paint10_linear_10025_65402)"/>
<path d="M491.457 327.236H108.03L89.7422 345.522H473.555L473.571 345.524L491.457 345.522C493.951 345.556 496.353 344.588 498.127 342.834C499.944 341.179 500.981 338.836 500.984 336.379C500.869 331.226 496.609 327.138 491.457 327.236Z" fill="url(#paint11_linear_10025_65402)"/>
</g>
<defs>
<linearGradient id="paint0_linear_10025_65402" x1="405.217" y1="281.629" x2="405.217" y2="308.95" gradientUnits="userSpaceOnUse">
<stop stop-color="#72707D"/>
<stop offset="1" stop-color="#101824"/>
</linearGradient>
<linearGradient id="paint1_linear_10025_65402" x1="277.131" y1="190.092" x2="277.131" y2="228.643" gradientUnits="userSpaceOnUse">
<stop stop-color="#72707D"/>
<stop offset="1" stop-color="#101824"/>
</linearGradient>
<linearGradient id="paint2_linear_10025_65402" x1="169.149" y1="281.521" x2="169.149" y2="308.95" gradientUnits="userSpaceOnUse">
<stop stop-color="#72707D"/>
<stop offset="1" stop-color="#101824"/>
</linearGradient>
<linearGradient id="paint3_linear_10025_65402" x1="239.853" y1="217.391" x2="239.853" y2="241.834" gradientUnits="userSpaceOnUse">
<stop stop-color="#72707D"/>
<stop offset="1" stop-color="#101824"/>
</linearGradient>
<linearGradient id="paint4_linear_10025_65402" x1="299.804" y1="244.949" x2="299.804" y2="308.949" gradientUnits="userSpaceOnUse">
<stop stop-color="#72707D"/>
<stop offset="1" stop-color="#101824"/>
</linearGradient>
<linearGradient id="paint5_linear_10025_65402" x1="299.823" y1="281.521" x2="299.823" y2="308.951" gradientUnits="userSpaceOnUse">
<stop stop-color="#72707D"/>
<stop offset="1" stop-color="#101824"/>
</linearGradient>
<linearGradient id="paint6_linear_10025_65402" x1="203.174" y1="244.949" x2="203.174" y2="275.842" gradientUnits="userSpaceOnUse">
<stop stop-color="#72707D"/>
<stop offset="1" stop-color="#101824"/>
</linearGradient>
<linearGradient id="paint7_linear_10025_65402" x1="164.603" y1="0.0292969" x2="164.603" y2="311.923" gradientUnits="userSpaceOnUse">
<stop stop-color="#72707D"/>
<stop offset="1" stop-color="#101824"/>
</linearGradient>
<linearGradient id="paint8_linear_10025_65402" x1="263.27" y1="363.807" x2="263.27" y2="510.092" gradientUnits="userSpaceOnUse">
<stop stop-color="#72707D"/>
<stop offset="1" stop-color="#101824"/>
</linearGradient>
<linearGradient id="paint9_linear_10025_65402" x1="412.85" y1="244.951" x2="412.85" y2="308.951" gradientUnits="userSpaceOnUse">
<stop stop-color="#72707D"/>
<stop offset="1" stop-color="#101824"/>
</linearGradient>
<linearGradient id="paint10_linear_10025_65402" x1="208.778" y1="29.8867" x2="208.778" y2="345.439" gradientUnits="userSpaceOnUse">
<stop stop-color="#72707D"/>
<stop offset="1" stop-color="#101824"/>
</linearGradient>
<linearGradient id="paint11_linear_10025_65402" x1="295.363" y1="327.234" x2="295.363" y2="345.524" gradientUnits="userSpaceOnUse">
<stop stop-color="#72707D"/>
<stop offset="1" stop-color="#101824"/>
</linearGradient>
<clipPath id="clip0_10025_65402">
<rect width="510.063" height="510.063" fill="white" transform="translate(0.0180664 0.0292969)"/>
</clipPath>
</defs>
</svg>
