<svg width="513" height="513" viewBox="0 0 513 513" fill="none" xmlns="http://www.w3.org/2000/svg">
<g clip-path="url(#clip0_10025_65418)">
<path d="M503.879 317.591L360.336 104.014C351.422 90.4867 336.307 82.3457 320.107 82.3457C303.907 82.3457 288.792 90.4867 279.878 104.014L254.827 141.317L391.147 344.014C400.824 358.455 404.437 376.122 401.204 393.203H463.741C481.571 393.33 497.977 383.486 506.255 367.694C514.896 351.862 513.979 332.533 503.879 317.591ZM432.473 286.139C434.669 283.994 437.782 283.07 440.793 283.67C441.366 283.77 441.921 283.954 442.439 284.218C443.558 284.66 444.582 285.312 445.456 286.139C447.126 287.892 448.073 290.21 448.107 292.63C448.094 293.825 447.845 295.005 447.376 296.104C446.912 297.212 446.263 298.232 445.456 299.121C444.57 299.956 443.55 300.636 442.439 301.132C439.009 302.466 435.117 301.68 432.473 299.121C431.666 298.232 431.017 297.211 430.553 296.104C430.084 295.005 429.835 293.825 429.822 292.63C429.857 290.21 430.804 287.892 432.473 286.139ZM405.136 240.426C405.556 240.015 406.016 239.648 406.507 239.327C406.973 238.965 407.499 238.686 408.061 238.504C408.606 238.227 409.193 238.041 409.798 237.956C410.971 237.681 412.191 237.681 413.364 237.956C413.937 238.056 414.492 238.24 415.01 238.504C415.593 238.704 416.146 238.981 416.656 239.327L418.027 240.425C418.834 241.314 419.483 242.335 419.947 243.442C421.151 246.254 420.854 249.483 419.158 252.028C417.462 254.573 414.594 256.089 411.536 256.059C409.127 256.1 406.81 255.14 405.136 253.408C403.411 251.689 402.441 249.353 402.441 246.917C402.441 244.481 403.411 242.145 405.136 240.426ZM341.045 130.802C344.675 127.327 350.398 127.327 354.028 130.802C355.71 132.51 356.661 134.805 356.679 137.202C356.675 138.398 356.426 139.58 355.948 140.676C355.506 141.795 354.854 142.819 354.028 143.693C350.422 147.228 344.651 147.228 341.045 143.693C340.218 142.819 339.567 141.795 339.125 140.676C338.656 139.577 338.407 138.397 338.394 137.202C338.412 134.805 339.363 132.51 341.045 130.802ZM301.091 140.676C300.649 141.795 299.997 142.819 299.171 143.693C296.527 146.253 292.635 147.038 289.205 145.704C288.094 145.208 287.074 144.528 286.188 143.693C285.362 142.819 284.71 141.795 284.268 140.676C283.789 139.58 283.54 138.398 283.537 137.202C283.549 133.509 285.787 130.188 289.206 128.791C292.634 127.434 296.539 128.222 299.172 130.802C300.854 132.51 301.805 134.805 301.823 137.202C301.863 138.402 301.612 139.595 301.091 140.676ZM326.599 180.265C323.955 182.825 320.063 183.611 316.633 182.276C315.537 181.8 314.544 181.117 313.707 180.265C312.845 179.436 312.161 178.441 311.696 177.34C311.235 176.206 310.987 174.997 310.965 173.774C310.992 171.334 311.977 169.003 313.708 167.283C317.339 163.899 322.969 163.899 326.599 167.283C328.269 169.036 329.216 171.354 329.25 173.774C329.275 176.206 328.32 178.546 326.599 180.265ZM326.599 116.265C325.713 117.1 324.693 117.78 323.582 118.276C320.152 119.61 316.26 118.824 313.616 116.265C312.809 115.376 312.16 114.355 311.696 113.248C310.721 111.035 310.721 108.513 311.696 106.299C312.139 105.208 312.791 104.214 313.616 103.373C314.05 102.951 314.508 102.554 314.987 102.183C315.497 101.837 316.05 101.56 316.633 101.36C317.178 101.083 317.765 100.898 318.37 100.812C319.543 100.537 320.763 100.537 321.936 100.812C322.509 100.912 323.063 101.096 323.582 101.36C324.165 101.56 324.718 101.837 325.228 102.183C325.707 102.553 326.165 102.951 326.599 103.373C327.424 104.214 328.076 105.207 328.519 106.298C329.031 107.383 329.282 108.573 329.25 109.773C329.275 112.206 328.32 114.546 326.599 116.265ZM347.536 219.488C346.347 219.506 345.166 219.288 344.062 218.847C342.951 218.351 341.931 217.671 341.045 216.836C339.325 215.117 338.369 212.777 338.394 210.345C338.429 207.925 339.376 205.606 341.045 203.854C343.234 201.697 346.354 200.772 349.365 201.385C349.938 201.485 350.493 201.669 351.011 201.933C351.594 202.133 352.147 202.41 352.657 202.756L354.028 203.854C355.698 205.607 356.644 207.925 356.679 210.345C356.703 212.777 355.747 215.117 354.027 216.836C352.308 218.556 349.968 219.512 347.536 219.488ZM374.325 250.391C373.795 251.483 373.118 252.499 372.314 253.408C368.708 256.943 362.937 256.943 359.331 253.408C358.524 252.519 357.875 251.498 357.411 250.391C356.436 248.177 356.436 245.656 357.411 243.442C357.875 242.334 358.524 241.314 359.331 240.425C362.997 237.041 368.648 237.041 372.314 240.425C373.121 241.314 373.77 242.335 374.234 243.442C374.746 244.527 374.997 245.717 374.965 246.916C374.983 248.105 374.765 249.286 374.325 250.391ZM372.313 180.265C369.697 182.902 365.746 183.695 362.315 182.271C358.884 180.847 356.657 177.488 356.678 173.774C356.678 168.725 360.771 164.631 365.821 164.631C370.871 164.631 374.964 168.724 374.964 173.774C374.99 176.206 374.034 178.546 372.313 180.265ZM386.759 216.836C385.038 215.117 384.083 212.777 384.108 210.345C384.143 207.925 385.09 205.606 386.759 203.854C388.926 201.723 392.005 200.799 394.988 201.385C395.593 201.471 396.18 201.656 396.725 201.933C397.308 202.133 397.861 202.41 398.371 202.756L399.742 203.854C401.412 205.607 402.358 207.925 402.393 210.345C402.378 214.042 400.147 217.369 396.733 218.786C393.319 220.204 389.388 219.435 386.759 216.836ZM402.393 301.774C401.204 301.792 400.023 301.574 398.919 301.133C397.808 300.636 396.788 299.956 395.902 299.122C394.182 297.403 393.226 295.063 393.251 292.631C393.286 290.211 394.233 287.892 395.902 286.14L397.273 285.042C397.783 284.696 398.336 284.419 398.919 284.219C399.464 283.942 400.051 283.757 400.656 283.671C401.829 283.396 403.049 283.396 404.222 283.671C404.795 283.771 405.349 283.955 405.868 284.219C406.451 284.419 407.004 284.696 407.514 285.042L408.885 286.14C410.555 287.893 411.502 290.211 411.536 292.631C411.56 295.063 410.604 297.403 408.885 299.122C407.165 300.842 404.826 301.798 402.393 301.774ZM420.679 338.345C418.247 338.369 415.907 337.413 414.188 335.694C412.468 333.974 411.513 331.635 411.537 329.203C411.572 326.782 412.519 324.464 414.188 322.712C415.077 321.905 416.097 321.255 417.205 320.791C420.611 319.365 424.539 320.122 427.171 322.712C428.841 324.465 429.788 326.783 429.822 329.203C429.846 331.635 428.89 333.974 427.171 335.694C425.452 337.414 423.111 338.369 420.679 338.345ZM447.376 369.248C446.934 370.367 446.282 371.391 445.456 372.265C444.57 373.1 443.55 373.78 442.439 374.276C440.202 375.13 437.728 375.13 435.49 374.276C434.379 373.779 433.359 373.1 432.473 372.265C431.647 371.391 430.995 370.367 430.553 369.248C429.578 367.035 429.578 364.513 430.553 362.299C431.017 361.191 431.666 360.171 432.473 359.282C432.93 358.916 433.387 358.55 433.936 358.184C434.402 357.822 434.928 357.543 435.49 357.361C436.035 357.084 436.622 356.899 437.227 356.813C438.4 356.538 439.62 356.538 440.793 356.813C441.366 356.913 441.921 357.097 442.439 357.361C443.022 357.561 443.575 357.838 444.085 358.184L445.456 359.282C446.263 360.171 446.912 361.192 447.376 362.299C448.352 364.513 448.352 367.034 447.376 369.248ZM463.742 335.694C462.856 336.529 461.836 337.209 460.725 337.705C457.295 339.039 453.403 338.253 450.759 335.694C449.952 334.805 449.303 333.784 448.839 332.677C448.37 331.578 448.121 330.398 448.108 329.203C448.143 326.782 449.09 324.464 450.759 322.712C451.216 322.346 451.673 321.98 452.222 321.614C452.688 321.252 453.214 320.973 453.776 320.791C454.321 320.514 454.908 320.329 455.513 320.243C458.496 319.643 461.582 320.569 463.742 322.712C465.412 324.465 466.359 326.783 466.393 329.204C466.38 330.399 466.131 331.579 465.662 332.678C465.22 333.795 464.568 334.819 463.742 335.694ZM484.039 369.249C483.509 370.341 482.832 371.356 482.028 372.265C481.158 373.12 480.135 373.802 479.011 374.276C476.774 375.13 474.3 375.13 472.062 374.276C470.951 373.779 469.931 373.1 469.045 372.265C468.218 371.391 467.567 370.367 467.125 369.248C466.15 367.035 466.15 364.513 467.125 362.299C467.958 360.003 469.766 358.195 472.062 357.362C474.279 356.402 476.794 356.402 479.011 357.362C480.13 357.804 481.154 358.456 482.028 359.283C482.833 360.193 483.509 361.208 484.039 362.3C484.893 364.538 484.893 367.011 484.039 369.249Z" fill="url(#paint0_linear_10025_65418)"/>
<path d="M219.545 329.211H164.679C159.631 329.214 155.54 333.306 155.536 338.354V429.773H228.688V338.354C228.685 333.306 224.594 329.215 219.545 329.211Z" fill="url(#paint1_linear_10025_65418)"/>
<path d="M232.336 140.584C223.442 127.059 208.34 118.916 192.153 118.916C175.966 118.916 160.864 127.059 151.97 140.584H151.879L8.33591 354.161C-1.78209 369.105 -2.66509 388.461 6.04991 404.264C14.2709 420.066 30.6609 429.921 48.4729 429.773H137.25V338.344C137.294 323.214 149.549 310.96 164.679 310.915H219.536C234.679 310.927 246.953 323.2 246.965 338.344V429.773H335.742C353.554 429.922 369.944 420.066 378.165 404.264C386.88 388.461 385.997 369.105 375.879 354.161L232.336 140.584ZM94.1879 276.995C96.8039 274.358 100.755 273.565 104.186 274.989C107.617 276.413 109.844 279.772 109.823 283.486C109.792 286.525 108.269 289.354 105.749 291.052C103.229 292.75 100.034 293.1 97.2059 291.988C96.0949 291.491 95.0749 290.812 94.1889 289.977C92.4689 288.258 91.5129 285.918 91.5379 283.486C91.5709 281.066 92.5179 278.748 94.1879 276.995ZM66.7589 313.567L68.1299 312.469C68.6399 312.123 69.1929 311.846 69.7759 311.646C70.2939 311.383 70.8489 311.198 71.4219 311.099C74.4329 310.485 77.5529 311.411 79.7419 313.568C81.4119 315.321 82.3589 317.639 82.3929 320.059C82.3799 321.254 82.1309 322.434 81.6619 323.533C81.1979 324.641 80.5489 325.661 79.7419 326.55C77.0979 329.11 73.2059 329.896 69.7759 328.561C68.6649 328.064 67.6449 327.385 66.7589 326.55C65.9519 325.661 65.3029 324.64 64.8389 323.533C64.3699 322.434 64.1209 321.254 64.1079 320.059C64.1429 317.638 65.0889 315.32 66.7589 313.567ZM43.1709 399.693C42.2819 400.5 41.2619 401.15 40.1539 401.613C37.3419 402.818 34.1129 402.521 31.5679 400.824C29.0229 399.127 27.5069 396.26 27.5369 393.201C27.5719 390.781 28.5189 388.462 30.1879 386.71C31.0619 385.884 32.0859 385.232 33.2049 384.79C36.6149 383.411 40.5169 384.163 43.1709 386.71C44.8409 388.463 45.7879 390.781 45.8219 393.201C45.8299 395.63 44.8759 397.963 43.1709 399.693ZM61.4559 363.121C60.5699 363.956 59.5499 364.636 58.4389 365.132C56.2019 365.986 53.7279 365.986 51.4899 365.132C50.3789 364.636 49.3589 363.956 48.4729 363.121C47.6479 362.227 46.9699 361.209 46.4619 360.104C46.0219 358.999 45.8039 357.819 45.8219 356.63C45.7909 355.431 46.0409 354.241 46.5529 353.156C47.0169 352.048 47.6659 351.028 48.4729 350.139C50.6329 347.996 53.7189 347.07 56.7019 347.67C57.3069 347.756 57.8939 347.941 58.4389 348.218C59.0009 348.4 59.5269 348.679 59.9929 349.041C60.5419 349.407 60.9989 349.773 61.4559 350.139C62.2629 351.028 62.9119 352.049 63.3759 353.156C64.3509 355.37 64.3509 357.891 63.3759 360.105C62.9339 361.223 62.2829 362.247 61.4559 363.121ZM79.7419 399.693C78.8529 400.5 77.8329 401.15 76.7249 401.613C74.5119 402.589 71.9899 402.589 69.7759 401.613C68.6679 401.15 67.6479 400.5 66.7589 399.693C63.2239 396.088 63.2239 390.316 66.7589 386.711C67.6329 385.884 68.6569 385.232 69.7759 384.79C73.1859 383.411 77.0879 384.163 79.7419 386.711C81.4119 388.464 82.3579 390.781 82.3929 393.202C82.4179 395.633 81.4629 397.973 79.7419 399.693ZM98.0279 363.121C97.1419 363.956 96.1219 364.636 95.0109 365.132C92.7739 365.986 90.2999 365.986 88.0619 365.132C86.9379 364.658 85.9149 363.975 85.0449 363.121C84.2189 362.247 83.5669 361.223 83.1249 360.104C82.1499 357.89 82.1499 355.369 83.1249 353.155C83.5889 352.047 84.2379 351.027 85.0449 350.138L86.4159 349.04C86.9259 348.694 87.4789 348.417 88.0619 348.217C88.5799 347.954 89.1349 347.769 89.7079 347.67C90.8809 347.395 92.1009 347.395 93.2739 347.67C93.8789 347.756 94.4659 347.941 95.0109 348.218C95.5729 348.4 96.0989 348.679 96.5649 349.041C97.1139 349.407 97.5709 349.773 98.0279 350.139C98.8349 351.028 99.4839 352.049 99.9479 353.156C100.923 355.37 100.923 357.891 99.9479 360.105C99.5059 361.223 98.8539 362.247 98.0279 363.121ZM116.313 399.693C115.424 400.5 114.404 401.15 113.296 401.613C111.083 402.589 108.561 402.589 106.347 401.613C105.239 401.15 104.219 400.5 103.33 399.693C101.609 397.974 100.654 395.634 100.679 393.202C100.714 390.782 101.661 388.463 103.33 386.711C104.204 385.884 105.228 385.232 106.347 384.79C107.983 384.065 109.807 383.873 111.558 384.242C112.163 384.328 112.75 384.513 113.295 384.79C113.878 384.99 114.431 385.267 114.941 385.613L116.312 386.711C117.982 388.464 118.928 390.782 118.963 393.202C118.99 395.633 118.034 397.973 116.313 399.693ZM118.233 323.533C117.769 324.641 117.12 325.661 116.313 326.55C113.697 329.187 109.746 329.98 106.315 328.556C102.884 327.132 100.657 323.773 100.678 320.059C100.678 315.01 104.771 310.916 109.821 310.916C114.871 310.916 118.964 315.009 118.964 320.059C118.951 321.253 118.703 322.434 118.233 323.533ZM127.376 250.39C126.912 251.498 126.263 252.518 125.456 253.407C124.547 254.212 123.532 254.889 122.439 255.418C120.202 256.272 117.728 256.272 115.49 255.418C114.397 254.888 113.382 254.211 112.473 253.407C111.666 252.518 111.017 251.497 110.553 250.39C109.578 248.176 109.578 245.655 110.553 243.441C111.017 242.333 111.666 241.313 112.473 240.424C116.139 237.04 121.79 237.04 125.456 240.424C126.263 241.313 126.912 242.334 127.376 243.441C128.352 245.655 128.352 248.176 127.376 250.39ZM304.473 322.71C305.362 321.903 306.382 321.253 307.49 320.789C309.157 320.059 311.011 319.867 312.793 320.241C313.366 320.341 313.921 320.525 314.439 320.789C315.022 320.989 315.575 321.266 316.085 321.612L317.456 322.71C319.126 324.463 320.072 326.781 320.107 329.201C320.125 330.39 319.907 331.571 319.467 332.675C318.959 333.78 318.28 334.798 317.456 335.692C313.85 339.227 308.079 339.227 304.473 335.692C303.666 334.803 303.017 333.782 302.553 332.675C302.084 331.576 301.835 330.396 301.822 329.201C301.857 326.781 302.804 324.463 304.473 322.71ZM139.902 203.853C140.776 203.026 141.8 202.374 142.919 201.932C146.329 200.553 150.231 201.305 152.885 203.853C154.555 205.606 155.502 207.924 155.536 210.344C155.536 215.393 151.443 219.487 146.393 219.487C141.344 219.487 137.25 215.394 137.25 210.344C137.285 207.924 138.232 205.605 139.902 203.853ZM152.885 289.978C150.269 292.615 146.318 293.408 142.887 291.984C139.456 290.56 137.229 287.201 137.25 283.487C137.285 281.067 138.232 278.748 139.901 276.996C140.775 276.169 141.799 275.517 142.918 275.075C146.324 273.649 150.252 274.406 152.884 276.996C154.554 278.749 155.501 281.067 155.535 283.487C155.561 285.919 154.605 288.259 152.885 289.978ZM171.171 253.406C167.565 256.942 161.794 256.942 158.188 253.407C157.383 252.497 156.707 251.482 156.177 250.39C155.737 249.285 155.519 248.105 155.537 246.916C155.506 245.717 155.756 244.527 156.268 243.442C156.732 242.334 157.381 241.314 158.188 240.425L159.559 239.327C160.069 238.981 160.622 238.704 161.205 238.504C161.75 238.227 162.337 238.041 162.942 237.956C165.925 237.342 169.018 238.27 171.171 240.425C171.978 241.314 172.627 242.335 173.091 243.442C174.549 246.843 173.789 250.79 171.171 253.406ZM171.171 180.264C168.527 182.824 164.635 183.61 161.205 182.275C160.094 181.778 159.074 181.099 158.188 180.264C156.467 178.545 155.512 176.205 155.537 173.773C155.506 172.574 155.756 171.384 156.268 170.299C156.732 169.191 157.381 168.171 158.188 167.282C160.804 164.645 164.755 163.852 168.186 165.276C171.616 166.7 173.844 170.059 173.823 173.773C173.847 176.205 172.891 178.545 171.171 180.264ZM198.599 289.978C197.713 290.813 196.693 291.493 195.582 291.989C193.345 292.843 190.871 292.843 188.633 291.989C187.522 291.492 186.502 290.812 185.616 289.978C183.895 288.259 182.94 285.919 182.965 283.487C183 281.067 183.947 278.748 185.616 276.996C188.265 274.441 192.173 273.688 195.582 275.076C196.701 275.518 197.725 276.17 198.599 276.997C200.268 278.75 201.215 281.067 201.25 283.488C201.275 285.919 200.32 288.259 198.599 289.978ZM198.599 216.835C195.983 219.472 192.032 220.265 188.601 218.841C185.17 217.417 182.943 214.058 182.964 210.344C182.964 205.295 187.057 201.201 192.107 201.201C197.157 201.201 201.25 205.294 201.25 210.344C201.275 212.776 200.32 215.116 198.599 216.835ZM200.611 149.818C200.103 150.923 199.424 151.941 198.6 152.835C195.956 155.395 192.064 156.18 188.634 154.846C187.523 154.349 186.503 153.67 185.617 152.835C184.791 151.961 184.139 150.937 183.697 149.818C183.228 148.719 182.979 147.539 182.966 146.344C182.966 141.295 187.059 137.201 192.109 137.201C197.159 137.201 201.252 141.294 201.252 146.344C201.269 147.533 201.051 148.714 200.611 149.818ZM213.045 167.281C215.661 164.644 219.612 163.851 223.043 165.275C226.474 166.699 228.701 170.058 228.68 173.772C228.68 178.821 224.587 182.915 219.537 182.915C214.487 182.915 210.394 178.822 210.394 173.772C210.428 171.352 211.375 169.034 213.045 167.281ZM226.028 253.407C222.957 256.54 218.091 257.043 214.444 254.605C210.797 252.166 209.403 247.477 211.125 243.442C211.958 241.146 213.766 239.338 216.062 238.505C217.729 237.774 219.583 237.583 221.365 237.956C221.938 238.056 222.493 238.24 223.011 238.504C223.594 238.704 224.147 238.981 224.657 239.327L226.028 240.425C226.833 241.335 227.509 242.35 228.039 243.442C228.892 245.68 228.892 248.153 228.039 250.391C227.509 251.483 226.832 252.497 226.028 253.407ZM244.313 289.978C241.697 292.615 237.746 293.408 234.316 291.984C230.886 290.56 228.658 287.201 228.679 283.487C228.714 281.067 229.661 278.748 231.33 276.996C232.219 276.189 233.239 275.539 234.347 275.075C237.752 273.64 241.685 274.398 244.313 276.996C245.983 278.749 246.93 281.067 246.964 283.487C246.99 285.919 246.034 288.259 244.313 289.978ZM244.313 216.835C241.697 219.472 237.746 220.265 234.316 218.841C230.886 217.417 228.658 214.058 228.679 210.344C228.714 207.924 229.661 205.605 231.33 203.853C233.526 201.708 236.639 200.784 239.65 201.384C240.223 201.484 240.778 201.668 241.296 201.932C241.879 202.132 242.432 202.409 242.942 202.755L244.313 203.853C245.983 205.606 246.929 207.924 246.964 210.344C246.99 212.776 246.034 215.116 244.313 216.835ZM256.108 246.915C256.121 245.72 256.37 244.54 256.839 243.441C257.303 242.333 257.952 241.313 258.759 240.424C260.919 238.281 264.005 237.355 266.988 237.955C267.593 238.041 268.18 238.226 268.725 238.503C269.308 238.703 269.861 238.98 270.371 239.326L271.742 240.424C272.549 241.313 273.198 242.334 273.662 243.441C274.174 244.526 274.425 245.716 274.393 246.915C274.411 248.104 274.193 249.285 273.753 250.389C273.223 251.481 272.546 252.497 271.742 253.406C269.126 256.043 265.175 256.836 261.744 255.412C258.314 253.988 256.086 250.63 256.108 246.915ZM280.885 408.835C278.269 411.453 274.321 412.214 270.919 410.755C268.623 409.923 266.815 408.114 265.982 405.819C265.512 404.72 265.264 403.539 265.251 402.344C265.286 399.924 266.233 397.605 267.902 395.853C268.359 395.487 268.816 395.121 269.365 394.755C269.832 394.393 270.357 394.114 270.919 393.932C271.464 393.655 272.051 393.47 272.656 393.384C273.829 393.109 275.049 393.109 276.222 393.384C276.795 393.484 277.349 393.668 277.868 393.932C278.451 394.132 279.004 394.409 279.514 394.755L280.885 395.853C282.555 397.606 283.502 399.924 283.536 402.344C283.561 404.776 282.605 407.116 280.885 408.835ZM282.805 332.675C282.341 333.783 281.692 334.803 280.885 335.692C278.241 338.252 274.349 339.038 270.919 337.703C269.808 337.207 268.788 336.527 267.902 335.692C267.095 334.803 266.446 333.782 265.982 332.675C265.513 331.576 265.264 330.396 265.251 329.201C265.286 326.78 266.233 324.462 267.902 322.71C268.359 322.344 268.816 321.978 269.365 321.612C269.832 321.25 270.357 320.971 270.919 320.789C271.464 320.512 272.051 320.327 272.656 320.241C275.639 319.641 278.725 320.567 280.885 322.71C282.555 324.463 283.502 326.781 283.536 329.202C283.568 330.401 283.317 331.591 282.805 332.675ZM280.062 291.99C278.951 291.493 277.931 290.813 277.045 289.979C275.324 288.26 274.369 285.92 274.394 283.488C274.372 279.774 276.6 276.415 280.031 274.991C283.462 273.567 287.413 274.359 290.028 276.997C291.698 278.75 292.645 281.068 292.679 283.488C292.704 285.92 291.748 288.26 290.028 289.979C289.142 290.814 288.122 291.494 287.011 291.99C284.773 292.844 282.3 292.844 280.062 291.99ZM299.171 372.264C298.285 373.099 297.265 373.779 296.154 374.275C293.917 375.129 291.443 375.129 289.205 374.275C288.109 373.799 287.116 373.116 286.279 372.264C285.395 371.418 284.708 370.388 284.268 369.247C282.865 365.824 283.659 361.893 286.279 359.281C289.91 355.897 295.539 355.897 299.17 359.281C299.977 360.17 300.626 361.191 301.09 362.298C301.602 363.383 301.853 364.573 301.821 365.772C301.839 366.961 301.621 368.142 301.181 369.246C300.674 370.352 299.995 371.37 299.171 372.264ZM317.456 408.835C316.582 409.663 315.558 410.314 314.439 410.756C311.627 411.961 308.398 411.664 305.852 409.967C303.307 408.27 301.791 405.403 301.821 402.344C301.856 399.924 302.803 397.605 304.472 395.853C305.346 395.026 306.37 394.374 307.489 393.932C310.899 392.553 314.801 393.305 317.455 395.853C320.991 399.458 320.991 405.229 317.456 408.835ZM335.742 372.264C334.872 373.119 333.849 373.801 332.725 374.275C330.488 375.129 328.014 375.129 325.776 374.275C324.665 373.778 323.645 373.099 322.759 372.264C321.933 371.39 321.281 370.366 320.839 369.247C319.864 367.034 319.864 364.512 320.839 362.298C321.303 361.19 321.952 360.17 322.759 359.281C324.948 357.124 328.068 356.199 331.079 356.812C331.652 356.912 332.207 357.096 332.725 357.36C333.308 357.56 333.861 357.837 334.371 358.183L335.742 359.281C336.549 360.17 337.198 361.191 337.662 362.298C338.637 364.512 338.637 367.033 337.662 369.247C337.22 370.366 336.568 371.39 335.742 372.264ZM354.028 408.835C353.139 409.642 352.119 410.292 351.011 410.755C348.199 411.96 344.97 411.663 342.424 409.966C339.879 408.269 338.363 405.402 338.393 402.343C338.428 399.923 339.375 397.604 341.044 395.852C341.933 395.045 342.953 394.395 344.061 393.931C347.47 392.543 351.378 393.296 354.027 395.852C355.697 397.605 356.644 399.923 356.678 402.343C356.704 404.776 355.748 407.116 354.028 408.835Z" fill="url(#paint2_linear_10025_65418)"/>
</g>
<defs>
<linearGradient id="paint0_linear_10025_65418" x1="383.488" y1="82.3457" x2="383.488" y2="393.204" gradientUnits="userSpaceOnUse">
<stop stop-color="#72707D"/>
<stop offset="1" stop-color="#101824"/>
</linearGradient>
<linearGradient id="paint1_linear_10025_65418" x1="192.112" y1="329.211" x2="192.112" y2="429.773" gradientUnits="userSpaceOnUse">
<stop stop-color="#72707D"/>
<stop offset="1" stop-color="#101824"/>
</linearGradient>
<linearGradient id="paint2_linear_10025_65418" x1="192.107" y1="118.916" x2="192.107" y2="429.775" gradientUnits="userSpaceOnUse">
<stop stop-color="#72707D"/>
<stop offset="1" stop-color="#101824"/>
</linearGradient>
<clipPath id="clip0_10025_65418">
<rect width="512.069" height="512.069" fill="white" transform="translate(0.0810547 0.0253906)"/>
</clipPath>
</defs>
</svg>
