<svg width="512" height="512" viewBox="0 0 512 512" fill="none" xmlns="http://www.w3.org/2000/svg">
<path d="M149.28 283.84L228.16 362.72L206.88 384H145.12L128 366.88V305.12L149.28 283.84ZM208 256C199.454 256.017 191.058 253.753 183.68 249.44L171.84 261.28L250.72 340.16L262.56 328.32C257.129 319.15 254.905 308.433 256.237 297.859C257.57 287.285 262.383 277.455 269.919 269.919C277.455 262.383 287.285 257.57 297.859 256.237C308.433 254.905 319.15 257.129 328.32 262.56L340.16 250.72L261.28 171.84L249.44 183.68C253.727 190.975 256.01 199.275 256.056 207.737C256.103 216.198 253.912 224.522 249.704 231.864C245.497 239.206 239.424 245.306 232.1 249.544C224.776 253.783 216.462 256.01 208 256ZM384 206.88V145.12L366.88 128H305.12L283.84 149.28L362.72 228.16L384 206.88ZM36.64 107.36C35.1403 105.873 33.95 104.103 33.1377 102.153C32.3254 100.203 31.9072 98.1122 31.9072 96C31.9072 93.8878 32.3254 91.7965 33.1377 89.8468C33.95 87.897 35.1403 86.1274 36.64 84.64L84.64 36.64C86.1274 35.1403 87.897 33.95 89.8468 33.1377C91.7965 32.3254 93.8878 31.9072 96 31.9072C98.1122 31.9072 100.203 32.3254 102.153 33.1377C104.103 33.95 105.873 35.1403 107.36 36.64L139.36 68.64C140.843 70.135 142.016 71.9081 142.812 73.8575C143.609 75.8069 144.012 77.8943 144 80V121.44L219.36 196.64C222.373 199.653 224.065 203.739 224.065 208C224.065 212.261 222.373 216.347 219.36 219.36C216.347 222.373 212.261 224.065 208 224.065C203.739 224.065 199.653 222.373 196.64 219.36L121.44 144H80C77.8943 144.012 75.8069 143.609 73.8575 142.812C71.9081 142.016 70.135 140.843 68.64 139.36L36.64 107.36ZM475.36 404.64C476.86 406.127 478.05 407.897 478.862 409.847C479.675 411.797 480.093 413.888 480.093 416C480.093 418.112 479.675 420.203 478.862 422.153C478.05 424.103 476.86 425.873 475.36 427.36L427.36 475.36C425.873 476.86 424.103 478.05 422.153 478.862C420.203 479.675 418.112 480.093 416 480.093C413.888 480.093 411.797 479.675 409.847 478.862C407.897 478.05 406.127 476.86 404.64 475.36L372.64 443.36C371.157 441.865 369.984 440.092 369.188 438.143C368.391 436.193 367.988 434.106 368 432V390.56L292.64 315.36C291.148 313.868 289.965 312.097 289.157 310.148C288.35 308.199 287.935 306.11 287.935 304C287.935 301.89 288.35 299.801 289.157 297.852C289.965 295.903 291.148 294.132 292.64 292.64C294.132 291.148 295.903 289.965 297.852 289.157C299.801 288.35 301.89 287.935 304 287.935C306.11 287.935 308.199 288.35 310.148 289.157C312.097 289.965 313.868 291.148 315.36 292.64L390.56 368H432C434.106 367.988 436.193 368.391 438.143 369.188C440.092 369.984 441.865 371.157 443.36 372.64L475.36 404.64ZM224.8 411.36C223.305 412.843 221.532 414.016 219.583 414.812C217.633 415.609 215.546 416.012 213.44 416H138.56C134.586 415.82 130.821 414.166 128 411.36L100.64 384.8C99.1571 383.305 97.9839 381.532 97.1877 379.583C96.3914 377.633 95.9878 375.546 96 373.44V298.56C96.18 294.586 97.8342 290.821 100.64 288L160 227.84L114.72 182.72L46.08 251.36C37.0757 260.353 32.0112 272.554 32 285.28V386.72C32.0112 399.446 37.0757 411.647 46.08 420.64L91.36 465.92C100.353 474.924 112.554 479.989 125.28 480H226.72C239.446 479.989 251.647 474.924 260.64 465.92L329.28 397.28L284.16 352L224.8 411.36ZM465.92 91.36L420.64 46.08C411.647 37.0757 399.446 32.0112 386.72 32H285.28C272.554 32.0112 260.353 37.0757 251.36 46.08L182.72 114.72L227.84 160L288 100.64C290.821 97.8342 294.586 96.18 298.56 96H373.44C375.546 95.9878 377.633 96.3914 379.583 97.1877C381.532 97.9839 383.305 99.1571 384.8 100.64L411.36 128C412.843 129.495 414.016 131.268 414.812 133.217C415.609 135.167 416.012 137.254 416 139.36V214.24C416.012 216.346 415.609 218.433 414.812 220.383C414.016 222.332 412.843 224.105 411.36 225.6L352 284.16L397.28 329.28L465.92 260.64C474.924 251.647 479.989 239.446 480 226.72V125.28C479.989 112.554 474.924 100.353 465.92 91.36Z" fill="url(#paint0_linear_10025_21474)"/>
<defs>
<linearGradient id="paint0_linear_10025_21474" x1="256" y1="31.9072" x2="256" y2="480.093" gradientUnits="userSpaceOnUse">
<stop stop-color="#72707D"/>
<stop offset="1" stop-color="#101824"/>
</linearGradient>
</defs>
</svg>
