<svg width="508" height="508" viewBox="0 0 508 508" fill="none" xmlns="http://www.w3.org/2000/svg">
<path d="M187.777 269.194L242.83 157.109C237.364 156.871 231.898 156.792 226.275 156.792C138.269 156.792 66.8994 182.378 66.8994 213.904C66.8994 240.599 118.308 263.095 187.777 269.194Z" fill="url(#paint0_linear_10025_58085)"/>
<path d="M329.092 171.605L292.18 265.868C347.39 256.838 385.729 236.956 385.729 213.905C385.729 199.013 369.728 185.468 343.668 175.249L329.092 171.605Z" fill="url(#paint1_linear_10025_58085)"/>
<path d="M266.435 349.833L267.94 340.564L277.129 339.218C277.842 339.139 283.941 338.268 292.813 338.268C300.655 338.268 311.349 338.98 322.121 341.832C333.766 322.029 351.509 308.8 352.38 308.167L359.906 302.701L367.431 308.167C367.906 308.563 374.085 313.078 381.451 320.761C384.224 309.593 385.729 297.948 385.729 285.908V246.144C342.045 286.538 224.593 293.985 153.558 280.601C117.199 274.343 85.1182 262.857 66.8994 246.144V285.908C66.8994 365.199 131.141 429.441 210.432 429.441H242.196C255.9 429.441 269.128 427.54 281.644 423.896C282.04 423.817 282.357 423.737 282.674 423.579C259.227 396.409 266.118 351.734 266.435 349.833Z" fill="url(#paint2_linear_10025_58085)"/>
<path d="M206.076 270.462C212.651 270.778 219.463 270.937 226.275 270.937C242.989 270.937 259.148 269.986 274.278 268.243L313.567 167.723L313.884 166.852C311.983 167.09 310.082 167.168 308.181 167.168C299.784 167.168 291.308 165.109 283.784 161.307C276.734 157.743 270.555 152.673 265.644 146.494L259.941 158.139L204.809 270.382C205.205 270.462 205.68 270.462 206.076 270.462Z" fill="url(#paint3_linear_10025_58085)"/>
<path d="M290.965 147.156C299.212 151.343 308.258 152.242 316.646 150.347C327.443 147.921 337.186 140.756 342.522 130.135C352.035 111.189 344.369 88.1003 325.422 78.5874C306.466 68.9958 283.378 76.6618 273.865 95.6086C268.53 106.23 268.623 118.187 273.124 128.333C276.553 136.217 282.639 142.979 290.965 147.156Z" fill="url(#paint4_linear_10025_58085)"/>
<path d="M391.238 357.443C382.248 334.806 359.93 318.483 359.93 318.483C359.93 318.483 337.612 334.806 328.558 357.506C326.262 363.246 324.796 369.43 324.796 375.871C324.796 404.501 353.617 429.114 359.165 433.577C359.802 434.087 360.121 434.343 360.121 434.343C360.121 434.343 360.44 434.087 361.014 433.641C366.37 429.305 395.064 404.564 395.064 375.871C395.064 369.43 393.597 363.246 391.238 357.443Z" fill="url(#paint5_linear_10025_58085)"/>
<path d="M313.329 352.921C295.506 349.435 279.029 351.812 279.029 351.812C279.029 351.812 272.059 394.903 294.317 417.4C305.724 428.886 322.596 432.846 336.3 433.955C324.022 421.123 308.972 400.29 308.972 375.893C308.972 368.288 310.477 360.605 313.329 352.921Z" fill="url(#paint6_linear_10025_58085)"/>
<path d="M440.861 351.813C440.861 351.813 424.305 349.357 406.403 352.842C409.413 360.526 410.918 368.21 410.918 375.893C410.918 400.212 395.631 421.282 383.669 433.956C397.373 432.847 414.166 428.886 425.573 417.401C447.831 394.904 440.861 351.813 440.861 351.813Z" fill="url(#paint7_linear_10025_58085)"/>
<defs>
<linearGradient id="paint0_linear_10025_58085" x1="154.865" y1="156.792" x2="154.865" y2="269.194" gradientUnits="userSpaceOnUse">
<stop stop-color="#72707D"/>
<stop offset="1" stop-color="#101824"/>
</linearGradient>
<linearGradient id="paint1_linear_10025_58085" x1="338.955" y1="171.605" x2="338.955" y2="265.868" gradientUnits="userSpaceOnUse">
<stop stop-color="#72707D"/>
<stop offset="1" stop-color="#101824"/>
</linearGradient>
<linearGradient id="paint2_linear_10025_58085" x1="226.314" y1="246.144" x2="226.314" y2="429.441" gradientUnits="userSpaceOnUse">
<stop stop-color="#72707D"/>
<stop offset="1" stop-color="#101824"/>
</linearGradient>
<linearGradient id="paint3_linear_10025_58085" x1="259.346" y1="146.494" x2="259.346" y2="270.937" gradientUnits="userSpaceOnUse">
<stop stop-color="#72707D"/>
<stop offset="1" stop-color="#101824"/>
</linearGradient>
<linearGradient id="paint4_linear_10025_58085" x1="308.205" y1="74.4507" x2="308.205" y2="151.292" gradientUnits="userSpaceOnUse">
<stop stop-color="#72707D"/>
<stop offset="1" stop-color="#101824"/>
</linearGradient>
<linearGradient id="paint5_linear_10025_58085" x1="359.93" y1="318.483" x2="359.93" y2="434.343" gradientUnits="userSpaceOnUse">
<stop stop-color="#72707D"/>
<stop offset="1" stop-color="#101824"/>
</linearGradient>
<linearGradient id="paint6_linear_10025_58085" x1="307.148" y1="351.021" x2="307.148" y2="433.955" gradientUnits="userSpaceOnUse">
<stop stop-color="#72707D"/>
<stop offset="1" stop-color="#101824"/>
</linearGradient>
<linearGradient id="paint7_linear_10025_58085" x1="412.782" y1="350.973" x2="412.782" y2="433.956" gradientUnits="userSpaceOnUse">
<stop stop-color="#72707D"/>
<stop offset="1" stop-color="#101824"/>
</linearGradient>
</defs>
</svg>
