<svg width="512" height="512" viewBox="0 0 512 512" fill="none" xmlns="http://www.w3.org/2000/svg">
<path d="M288.8 119.68L256 144.8V104C256.019 86.0861 262.715 68.8226 274.781 55.5814C286.846 42.3402 303.415 34.0724 321.25 32.3929C339.085 30.7133 356.905 35.7427 371.231 46.4986C385.556 57.2546 395.357 72.9645 398.72 90.5599L373.28 116C361.493 108.43 347.769 104.429 333.76 104.48C317.52 104.526 301.737 109.862 288.8 119.68ZM458.88 133.12C448.673 122.901 435.628 115.988 421.44 113.28L396 138.72C404.258 151.578 408.336 166.676 407.678 181.943C407.019 197.211 401.654 211.901 392.32 224L368 256H408C422.231 255.987 436.139 251.758 447.968 243.846C459.797 235.933 469.015 224.693 474.46 211.545C479.904 198.396 481.33 183.929 478.557 169.971C475.784 156.013 468.937 143.189 458.88 133.12ZM108.16 298.08C93.1109 309.607 82.947 326.371 79.6865 345.045C76.426 363.719 80.3074 382.936 90.56 398.88L36.64 452.64C35.1482 454.132 33.9648 455.903 33.1575 457.852C32.3501 459.801 31.9346 461.89 31.9346 464C31.9346 466.11 32.3501 468.199 33.1575 470.148C33.9648 472.097 35.1482 473.868 36.64 475.36C39.6529 478.373 43.7392 480.065 48 480.065C50.1098 480.065 52.1989 479.65 54.148 478.842C56.0972 478.035 57.8682 476.852 59.36 475.36L113.12 421.44C129.064 431.693 148.281 435.574 166.955 432.314C185.629 429.053 202.393 418.889 213.92 403.84L217.44 399.2L112 295.2L108.16 298.08ZM364.16 148.64C356.967 141.502 347.439 137.199 337.327 136.523C327.216 135.847 317.2 138.843 309.12 144.96L137.44 275.68L236.96 373.76L367.04 203.68C373.157 195.6 376.153 185.584 375.477 175.473C374.801 165.361 370.498 155.833 363.36 148.64H364.16Z" fill="url(#paint0_linear_10025_21477)"/>
<defs>
<linearGradient id="paint0_linear_10025_21477" x1="255.936" y1="32.0756" x2="255.936" y2="480.065" gradientUnits="userSpaceOnUse">
<stop stop-color="#72707D"/>
<stop offset="1" stop-color="#101824"/>
</linearGradient>
</defs>
</svg>
