<svg width="513" height="513" viewBox="0 0 513 513" fill="none" xmlns="http://www.w3.org/2000/svg">
<g clip-path="url(#clip0_10025_65425)">
<path d="M219.58 49.3418C197.51 53.6148 176.35 61.6898 157.043 73.2048H219.58V49.3418Z" fill="url(#paint0_linear_10025_65425)"/>
<path d="M274.437 192.062H237.866V320.062H274.437V192.062Z" fill="url(#paint1_linear_10025_65425)"/>
<path d="M219.58 292.633H201.294V320.062H219.58V292.633Z" fill="url(#paint2_linear_10025_65425)"/>
<path d="M311.009 192.062H292.723V219.491H311.009V192.062Z" fill="url(#paint3_linear_10025_65425)"/>
<path d="M274.437 46.6894C268.403 46.1404 262.277 45.7754 256.151 45.7754C250.025 45.7754 243.9 46.1414 237.865 46.6894V118.918H274.436L274.437 46.6894Z" fill="url(#paint4_linear_10025_65425)"/>
<path d="M292.723 49.3418V73.2048H355.26C335.953 61.6888 314.793 53.6148 292.723 49.3418Z" fill="url(#paint5_linear_10025_65425)"/>
<path d="M311.009 292.633H292.723V320.062H311.009V292.633Z" fill="url(#paint6_linear_10025_65425)"/>
<path d="M311.009 91.4902H292.723V118.919H311.009V91.4902Z" fill="url(#paint7_linear_10025_65425)"/>
<path d="M365.865 91.4902H329.294V219.49H365.865V91.4902Z" fill="url(#paint8_linear_10025_65425)"/>
<path d="M219.58 192.062H201.294V219.491H219.58V192.062Z" fill="url(#paint9_linear_10025_65425)"/>
<path d="M402.437 237.775H292.723V274.346H402.437V237.775Z" fill="url(#paint10_linear_10025_65425)"/>
<path d="M402.436 292.633H384.15V320.062H402.436V292.633Z" fill="url(#paint11_linear_10025_65425)"/>
<path d="M311.008 338.346H201.294V374.917H311.008V338.346Z" fill="url(#paint12_linear_10025_65425)"/>
<path d="M402.436 192.062H384.15V219.491H402.436V192.062Z" fill="url(#paint13_linear_10025_65425)"/>
<path d="M128.152 192.062H109.866V219.491H128.152V192.062Z" fill="url(#paint14_linear_10025_65425)"/>
<path d="M311.009 393.203H292.723V420.632H311.009V393.203Z" fill="url(#paint15_linear_10025_65425)"/>
<path d="M311.008 137.203H201.294V173.774H311.008V137.203Z" fill="url(#paint16_linear_10025_65425)"/>
<path d="M219.58 91.4902H201.294V118.919H219.58V91.4902Z" fill="url(#paint17_linear_10025_65425)"/>
<path d="M219.58 237.775H109.866V274.346H219.58V237.775Z" fill="url(#paint18_linear_10025_65425)"/>
<path d="M219.58 393.203H201.294V420.632H219.58V393.203Z" fill="url(#paint19_linear_10025_65425)"/>
<path d="M365.865 292.633H329.294V420.633H365.865V292.633Z" fill="url(#paint20_linear_10025_65425)"/>
<path d="M384.15 418.163C392.915 410.51 401.048 402.163 408.47 393.203H384.15V418.163Z" fill="url(#paint21_linear_10025_65425)"/>
<path d="M237.866 465.431C243.9 465.98 250.026 466.346 256.152 466.346C262.278 466.346 268.403 465.98 274.438 465.431V393.203H237.867L237.866 465.431Z" fill="url(#paint22_linear_10025_65425)"/>
<path d="M292.723 462.781C314.793 458.508 335.953 450.433 355.26 438.918H292.723V462.781Z" fill="url(#paint23_linear_10025_65425)"/>
<path d="M384.15 374.919H422.001C429.582 363.386 436.013 351.137 441.201 338.348H384.15V374.919Z" fill="url(#paint24_linear_10025_65425)"/>
<path d="M384.15 93.959V118.919H408.47C401.048 109.958 392.915 101.611 384.15 93.959Z" fill="url(#paint25_linear_10025_65425)"/>
<path d="M497.889 292.907C516.906 272.024 516.906 240.098 497.889 219.215C495.31 216.357 494.798 212.189 496.609 208.792C504.327 194.229 505.104 176.973 498.728 161.775C492.352 146.577 479.493 135.042 463.695 130.346C459.154 129.037 456.372 124.467 457.295 119.832V118.918C457.271 88.6305 432.725 64.0845 402.438 64.0605C397.724 64.0925 393.637 60.8075 392.655 56.1975C389.939 37.5295 377.829 21.5645 360.585 13.9165C343.341 6.26855 323.378 8.01055 307.718 18.5285C303.989 20.9875 299.038 20.4505 295.924 17.2485C285.603 6.28055 271.212 0.0605469 256.151 0.0605469C241.091 0.0605469 226.699 6.28055 216.38 17.2495C213.265 20.4515 208.315 20.9885 204.586 18.5295C188.927 8.01155 168.963 6.26955 151.719 13.9175C134.475 21.5655 122.365 37.5305 119.649 56.1985C119.006 60.7045 115.15 64.0545 110.598 64.0615C95.9388 63.9205 81.8288 69.6315 71.3948 79.9296C60.9608 90.2266 55.0628 104.26 55.0098 118.92V119.834C55.6218 124.409 52.9548 128.791 48.6098 130.348C33.7548 134.759 21.4528 145.236 14.7328 159.199C8.01278 173.162 7.49878 189.313 13.3188 203.674C14.6148 206.754 14.1238 210.297 12.0388 212.908C4.26278 222.53 0.0627841 234.549 0.152784 246.919C0.136784 261.983 6.35878 276.38 17.3418 286.69C20.6648 289.773 21.2468 294.817 18.7128 298.575C12.4878 307.568 9.19778 318.267 9.29578 329.204C9.38578 353.476 25.3538 374.828 48.6098 381.775C53.1508 383.084 55.9328 387.653 55.0098 392.288V393.203C55.0338 423.49 79.5798 448.036 109.867 448.06C114.581 448.028 118.668 451.313 119.65 455.923C122.366 474.591 134.476 490.556 151.72 498.204C168.964 505.852 188.927 504.11 204.587 493.592C206.112 492.599 207.887 492.06 209.707 492.038C212.221 492.055 214.623 493.075 216.381 494.872C226.701 505.841 241.092 512.061 256.152 512.061C271.212 512.061 285.604 505.841 295.923 494.872C299.038 491.67 303.988 491.133 307.717 493.592C323.376 504.11 343.339 505.852 360.584 498.204C377.829 490.556 389.938 474.591 392.654 455.923C393.297 451.417 397.153 448.067 401.705 448.06C416.364 448.201 430.474 442.49 440.908 432.192C451.342 421.894 457.24 407.862 457.293 393.202V392.287C456.681 387.712 459.348 383.331 463.693 381.774C479.491 377.078 492.349 365.542 498.726 350.345C505.103 335.147 504.325 317.891 496.608 303.328C494.798 299.933 495.309 295.765 497.889 292.907ZM256.151 484.633C135.191 484.633 36.7218 382.142 36.7218 256.062C36.7218 129.982 135.191 27.4895 256.151 27.4895C377.111 27.4895 475.58 129.982 475.58 256.062C475.58 382.142 377.111 484.633 256.151 484.633Z" fill="url(#paint26_linear_10025_65425)"/>
<path d="M384.15 173.776H441.201C436.013 160.986 429.583 148.737 422.001 137.205H384.15V173.776Z" fill="url(#paint27_linear_10025_65425)"/>
<path d="M183.008 91.4902H146.437V219.49H183.008V91.4902Z" fill="url(#paint28_linear_10025_65425)"/>
<path d="M420.723 320.062H447.694C460.494 278.355 460.494 233.77 447.694 192.062H420.723V320.062Z" fill="url(#paint29_linear_10025_65425)"/>
<path d="M128.151 137.203H90.2996C82.7176 148.736 76.2876 160.985 71.0996 173.774H128.151V137.203Z" fill="url(#paint30_linear_10025_65425)"/>
<path d="M91.5798 192.062H64.6088C51.8088 233.77 51.8088 278.355 64.6088 320.062H91.5798V192.062Z" fill="url(#paint31_linear_10025_65425)"/>
<path d="M128.151 418.163V393.203H103.831C111.254 402.164 119.387 410.511 128.151 418.163Z" fill="url(#paint32_linear_10025_65425)"/>
<path d="M128.151 93.959C119.386 101.611 111.253 109.958 103.831 118.919H128.151V93.959Z" fill="url(#paint33_linear_10025_65425)"/>
<path d="M90.2996 374.919H128.151V338.348H71.0996C76.2876 351.137 82.7186 363.386 90.2996 374.919Z" fill="url(#paint34_linear_10025_65425)"/>
<path d="M219.58 462.781V438.918H157.043C176.35 450.433 197.51 458.507 219.58 462.781Z" fill="url(#paint35_linear_10025_65425)"/>
<path d="M183.008 292.633H146.437V420.633H183.008V292.633Z" fill="url(#paint36_linear_10025_65425)"/>
<path d="M128.152 292.633H109.866V320.062H128.152V292.633Z" fill="url(#paint37_linear_10025_65425)"/>
</g>
<defs>
<linearGradient id="paint0_linear_10025_65425" x1="188.311" y1="49.3418" x2="188.311" y2="73.2048" gradientUnits="userSpaceOnUse">
<stop stop-color="#72707D"/>
<stop offset="1" stop-color="#101824"/>
</linearGradient>
<linearGradient id="paint1_linear_10025_65425" x1="256.152" y1="192.062" x2="256.152" y2="320.062" gradientUnits="userSpaceOnUse">
<stop stop-color="#72707D"/>
<stop offset="1" stop-color="#101824"/>
</linearGradient>
<linearGradient id="paint2_linear_10025_65425" x1="210.437" y1="292.633" x2="210.437" y2="320.062" gradientUnits="userSpaceOnUse">
<stop stop-color="#72707D"/>
<stop offset="1" stop-color="#101824"/>
</linearGradient>
<linearGradient id="paint3_linear_10025_65425" x1="301.866" y1="192.062" x2="301.866" y2="219.491" gradientUnits="userSpaceOnUse">
<stop stop-color="#72707D"/>
<stop offset="1" stop-color="#101824"/>
</linearGradient>
<linearGradient id="paint4_linear_10025_65425" x1="256.151" y1="45.7754" x2="256.151" y2="118.918" gradientUnits="userSpaceOnUse">
<stop stop-color="#72707D"/>
<stop offset="1" stop-color="#101824"/>
</linearGradient>
<linearGradient id="paint5_linear_10025_65425" x1="323.991" y1="49.3418" x2="323.991" y2="73.2048" gradientUnits="userSpaceOnUse">
<stop stop-color="#72707D"/>
<stop offset="1" stop-color="#101824"/>
</linearGradient>
<linearGradient id="paint6_linear_10025_65425" x1="301.866" y1="292.633" x2="301.866" y2="320.062" gradientUnits="userSpaceOnUse">
<stop stop-color="#72707D"/>
<stop offset="1" stop-color="#101824"/>
</linearGradient>
<linearGradient id="paint7_linear_10025_65425" x1="301.866" y1="91.4902" x2="301.866" y2="118.919" gradientUnits="userSpaceOnUse">
<stop stop-color="#72707D"/>
<stop offset="1" stop-color="#101824"/>
</linearGradient>
<linearGradient id="paint8_linear_10025_65425" x1="347.579" y1="91.4902" x2="347.579" y2="219.49" gradientUnits="userSpaceOnUse">
<stop stop-color="#72707D"/>
<stop offset="1" stop-color="#101824"/>
</linearGradient>
<linearGradient id="paint9_linear_10025_65425" x1="210.437" y1="192.062" x2="210.437" y2="219.491" gradientUnits="userSpaceOnUse">
<stop stop-color="#72707D"/>
<stop offset="1" stop-color="#101824"/>
</linearGradient>
<linearGradient id="paint10_linear_10025_65425" x1="347.58" y1="237.775" x2="347.58" y2="274.346" gradientUnits="userSpaceOnUse">
<stop stop-color="#72707D"/>
<stop offset="1" stop-color="#101824"/>
</linearGradient>
<linearGradient id="paint11_linear_10025_65425" x1="393.293" y1="292.633" x2="393.293" y2="320.062" gradientUnits="userSpaceOnUse">
<stop stop-color="#72707D"/>
<stop offset="1" stop-color="#101824"/>
</linearGradient>
<linearGradient id="paint12_linear_10025_65425" x1="256.151" y1="338.346" x2="256.151" y2="374.917" gradientUnits="userSpaceOnUse">
<stop stop-color="#72707D"/>
<stop offset="1" stop-color="#101824"/>
</linearGradient>
<linearGradient id="paint13_linear_10025_65425" x1="393.293" y1="192.062" x2="393.293" y2="219.491" gradientUnits="userSpaceOnUse">
<stop stop-color="#72707D"/>
<stop offset="1" stop-color="#101824"/>
</linearGradient>
<linearGradient id="paint14_linear_10025_65425" x1="119.009" y1="192.062" x2="119.009" y2="219.491" gradientUnits="userSpaceOnUse">
<stop stop-color="#72707D"/>
<stop offset="1" stop-color="#101824"/>
</linearGradient>
<linearGradient id="paint15_linear_10025_65425" x1="301.866" y1="393.203" x2="301.866" y2="420.632" gradientUnits="userSpaceOnUse">
<stop stop-color="#72707D"/>
<stop offset="1" stop-color="#101824"/>
</linearGradient>
<linearGradient id="paint16_linear_10025_65425" x1="256.151" y1="137.203" x2="256.151" y2="173.774" gradientUnits="userSpaceOnUse">
<stop stop-color="#72707D"/>
<stop offset="1" stop-color="#101824"/>
</linearGradient>
<linearGradient id="paint17_linear_10025_65425" x1="210.437" y1="91.4902" x2="210.437" y2="118.919" gradientUnits="userSpaceOnUse">
<stop stop-color="#72707D"/>
<stop offset="1" stop-color="#101824"/>
</linearGradient>
<linearGradient id="paint18_linear_10025_65425" x1="164.723" y1="237.775" x2="164.723" y2="274.346" gradientUnits="userSpaceOnUse">
<stop stop-color="#72707D"/>
<stop offset="1" stop-color="#101824"/>
</linearGradient>
<linearGradient id="paint19_linear_10025_65425" x1="210.437" y1="393.203" x2="210.437" y2="420.632" gradientUnits="userSpaceOnUse">
<stop stop-color="#72707D"/>
<stop offset="1" stop-color="#101824"/>
</linearGradient>
<linearGradient id="paint20_linear_10025_65425" x1="347.579" y1="292.633" x2="347.579" y2="420.633" gradientUnits="userSpaceOnUse">
<stop stop-color="#72707D"/>
<stop offset="1" stop-color="#101824"/>
</linearGradient>
<linearGradient id="paint21_linear_10025_65425" x1="396.31" y1="393.203" x2="396.31" y2="418.163" gradientUnits="userSpaceOnUse">
<stop stop-color="#72707D"/>
<stop offset="1" stop-color="#101824"/>
</linearGradient>
<linearGradient id="paint22_linear_10025_65425" x1="256.152" y1="393.203" x2="256.152" y2="466.346" gradientUnits="userSpaceOnUse">
<stop stop-color="#72707D"/>
<stop offset="1" stop-color="#101824"/>
</linearGradient>
<linearGradient id="paint23_linear_10025_65425" x1="323.991" y1="438.918" x2="323.991" y2="462.781" gradientUnits="userSpaceOnUse">
<stop stop-color="#72707D"/>
<stop offset="1" stop-color="#101824"/>
</linearGradient>
<linearGradient id="paint24_linear_10025_65425" x1="412.676" y1="338.348" x2="412.676" y2="374.919" gradientUnits="userSpaceOnUse">
<stop stop-color="#72707D"/>
<stop offset="1" stop-color="#101824"/>
</linearGradient>
<linearGradient id="paint25_linear_10025_65425" x1="396.31" y1="93.959" x2="396.31" y2="118.919" gradientUnits="userSpaceOnUse">
<stop stop-color="#72707D"/>
<stop offset="1" stop-color="#101824"/>
</linearGradient>
<linearGradient id="paint26_linear_10025_65425" x1="256.151" y1="0.0605469" x2="256.151" y2="512.061" gradientUnits="userSpaceOnUse">
<stop stop-color="#72707D"/>
<stop offset="1" stop-color="#101824"/>
</linearGradient>
<linearGradient id="paint27_linear_10025_65425" x1="412.676" y1="137.205" x2="412.676" y2="173.776" gradientUnits="userSpaceOnUse">
<stop stop-color="#72707D"/>
<stop offset="1" stop-color="#101824"/>
</linearGradient>
<linearGradient id="paint28_linear_10025_65425" x1="164.722" y1="91.4902" x2="164.722" y2="219.49" gradientUnits="userSpaceOnUse">
<stop stop-color="#72707D"/>
<stop offset="1" stop-color="#101824"/>
</linearGradient>
<linearGradient id="paint29_linear_10025_65425" x1="439.008" y1="192.062" x2="439.008" y2="320.062" gradientUnits="userSpaceOnUse">
<stop stop-color="#72707D"/>
<stop offset="1" stop-color="#101824"/>
</linearGradient>
<linearGradient id="paint30_linear_10025_65425" x1="99.6251" y1="137.203" x2="99.6251" y2="173.774" gradientUnits="userSpaceOnUse">
<stop stop-color="#72707D"/>
<stop offset="1" stop-color="#101824"/>
</linearGradient>
<linearGradient id="paint31_linear_10025_65425" x1="73.2943" y1="192.062" x2="73.2943" y2="320.062" gradientUnits="userSpaceOnUse">
<stop stop-color="#72707D"/>
<stop offset="1" stop-color="#101824"/>
</linearGradient>
<linearGradient id="paint32_linear_10025_65425" x1="115.991" y1="393.203" x2="115.991" y2="418.163" gradientUnits="userSpaceOnUse">
<stop stop-color="#72707D"/>
<stop offset="1" stop-color="#101824"/>
</linearGradient>
<linearGradient id="paint33_linear_10025_65425" x1="115.991" y1="93.959" x2="115.991" y2="118.919" gradientUnits="userSpaceOnUse">
<stop stop-color="#72707D"/>
<stop offset="1" stop-color="#101824"/>
</linearGradient>
<linearGradient id="paint34_linear_10025_65425" x1="99.6251" y1="338.348" x2="99.6251" y2="374.919" gradientUnits="userSpaceOnUse">
<stop stop-color="#72707D"/>
<stop offset="1" stop-color="#101824"/>
</linearGradient>
<linearGradient id="paint35_linear_10025_65425" x1="188.311" y1="438.918" x2="188.311" y2="462.781" gradientUnits="userSpaceOnUse">
<stop stop-color="#72707D"/>
<stop offset="1" stop-color="#101824"/>
</linearGradient>
<linearGradient id="paint36_linear_10025_65425" x1="164.722" y1="292.633" x2="164.722" y2="420.633" gradientUnits="userSpaceOnUse">
<stop stop-color="#72707D"/>
<stop offset="1" stop-color="#101824"/>
</linearGradient>
<linearGradient id="paint37_linear_10025_65425" x1="119.009" y1="292.633" x2="119.009" y2="320.062" gradientUnits="userSpaceOnUse">
<stop stop-color="#72707D"/>
<stop offset="1" stop-color="#101824"/>
</linearGradient>
<clipPath id="clip0_10025_65425">
<rect width="512.001" height="512.001" fill="white" transform="translate(0.149902 0.0605469)"/>
</clipPath>
</defs>
</svg>
