<svg width="513" height="513" viewBox="0 0 513 513" fill="none" xmlns="http://www.w3.org/2000/svg">
<g clip-path="url(#clip0_10025_65467)">
<path d="M130.821 184.253C135.279 187.321 138.203 192.157 138.848 197.53L139.143 200.181C144.625 249.038 161.322 284.547 184.706 322.832L197.268 343.35C197.268 343.377 198.241 343.386 198.411 343.386H198.438L222.099 310.243C245.491 277.502 262.594 240.699 272.537 201.708L283.724 157.672C285.087 152.353 288.713 147.899 293.644 145.485C298.692 143.003 304.572 142.85 309.742 145.065L340.438 158.494C372.313 172.37 402.392 190.052 430.018 211.155L444.625 222.289C426.376 190.935 404 162.172 378.098 136.771L359.587 118.008L307.954 104.887C295.737 102.602 284.637 96.29 276.427 86.958L260.445 66.94C257.724 63.907 253.26 63.176 249.713 65.181L212.293 86.029C205.644 89.753 198.155 91.719 190.534 91.743H189.373C166.144 91.843 143.573 99.468 125.043 113.476L93.1947 137.146C78.4847 148.235 66.3727 162.401 57.7037 178.655L51.3037 190.539L115.909 181.325C121.071 180.193 126.471 181.253 130.821 184.253ZM213.116 112.458C222.487 104.33 234.615 100.1 247.009 100.636C259.402 100.099 271.531 104.33 280.902 112.458C283.246 114.76 284.175 118.144 283.334 121.32C282.493 124.496 280.012 126.977 276.836 127.818C273.66 128.659 270.276 127.73 267.974 125.386C261.973 120.814 254.543 118.523 247.009 118.922C239.424 118.514 231.946 120.846 225.938 125.493C222.285 128.914 216.57 128.795 213.063 125.225C209.581 121.673 209.605 115.982 213.116 112.458ZM235.186 213.03C236.901 214.744 237.864 217.069 237.864 219.494C237.864 221.919 236.901 224.244 235.186 225.958C233.472 227.673 231.146 228.637 228.722 228.637C226.298 228.637 223.972 227.673 222.258 225.958C216.257 221.386 208.827 219.095 201.294 219.494C193.709 219.086 186.231 221.418 180.223 226.065C176.569 229.482 170.857 229.363 167.348 225.797C163.868 222.244 163.892 216.553 167.402 213.029C176.773 204.901 188.901 200.671 201.295 201.207C213.687 200.671 225.815 204.902 235.186 213.03ZM130.83 149.03C140.201 140.902 152.329 136.672 164.723 137.208C177.116 136.671 189.245 140.902 198.616 149.03C200.96 151.332 201.889 154.716 201.048 157.892C200.207 161.068 197.726 163.549 194.55 164.39C191.374 165.231 187.99 164.302 185.688 161.958C179.687 157.386 172.257 155.095 164.723 155.494C157.138 155.086 149.66 157.418 143.652 162.065C139.999 165.486 134.284 165.367 130.777 161.797C127.296 158.244 127.32 152.553 130.83 149.03Z" fill="url(#paint0_linear_10025_65467)"/>
<path d="M394.686 127.477C425.713 158.684 451.693 194.529 471.695 233.727C474.528 239.352 473.086 246.188 468.224 250.191C463.362 254.193 456.376 254.294 451.4 250.433L418.927 225.701C392.469 205.485 363.661 188.547 333.132 175.255L302.471 161.844L301.435 162.174L290.247 206.219C279.755 247.409 261.692 286.288 236.979 320.87L213.309 354.013C209.594 359.182 203.541 362.151 197.179 361.923C190.818 361.695 184.992 358.301 181.657 352.879L169.104 332.379C139.925 284.602 125.979 246.897 120.97 202.227L120.684 199.638C120.095 199.594 119.51 199.504 118.934 199.37L118.871 199.379L23.4004 212.95C21.1584 213.652 19.2434 215.139 18.0074 217.137C6.49239 235.705 0.313391 257.085 0.150391 278.933C0.150391 403.638 132.391 448.067 256.15 448.067C351.757 448.067 512.15 426.094 512.15 278.933C512.15 205.003 471.704 153.138 394.686 127.477ZM354.436 414.968C353.604 417.265 351.795 419.073 349.499 419.905C347.286 420.881 344.765 420.881 342.553 419.905C341.445 419.442 340.424 418.793 339.535 417.985C338.732 417.073 338.053 416.058 337.517 414.967C337.08 413.862 336.864 412.683 336.883 411.495C336.85 410.296 337.101 409.106 337.615 408.022C338.034 406.892 338.689 405.863 339.535 405.004C339.968 404.611 340.424 404.244 340.901 403.906C341.412 403.558 341.967 403.282 342.553 403.085C343.07 402.82 343.624 402.633 344.196 402.531C345.368 402.263 346.586 402.263 347.759 402.531C348.365 402.62 348.953 402.807 349.5 403.085C350.062 403.265 350.588 403.543 351.054 403.906C351.578 404.221 352.068 404.589 352.518 405.004C353.364 405.863 354.019 406.892 354.438 408.022C355.412 410.234 355.412 412.755 354.436 414.968ZM398.23 408.843C397.34 409.649 396.319 410.298 395.212 410.763C392.999 411.739 390.478 411.739 388.266 410.763C387.158 410.301 386.137 409.651 385.248 408.843C384.415 407.954 383.734 406.934 383.23 405.825C382.793 404.72 382.577 403.54 382.597 402.351C382.629 399.93 383.576 397.611 385.248 395.86C386.12 395.031 387.145 394.379 388.266 393.94C389.933 393.207 391.787 393.013 393.57 393.386C394.141 393.491 394.695 393.677 395.213 393.94C395.775 394.12 396.301 394.398 396.767 394.761C397.312 395.127 397.776 395.493 398.231 395.859C399.9 397.612 400.847 399.93 400.882 402.35C400.902 404.783 399.947 407.122 398.23 408.843ZM400.15 369.254C399.685 370.361 399.036 371.382 398.23 372.272C394.625 375.808 388.853 375.808 385.248 372.272C384.445 371.36 383.766 370.345 383.23 369.254C382.385 367.016 382.385 364.546 383.23 362.308C383.742 361.203 384.423 360.185 385.248 359.29C386.12 358.461 387.145 357.809 388.266 357.37C390.472 356.361 393.007 356.361 395.212 357.37C396.319 357.835 397.34 358.484 398.23 359.29C399.057 360.164 399.709 361.188 400.15 362.308C401.126 364.52 401.126 367.041 400.15 369.254ZM430.962 331.861C431.834 331.032 432.859 330.38 433.98 329.941C437.385 328.514 441.313 329.271 443.944 331.861C445.613 333.614 446.56 335.932 446.595 338.352C446.58 339.546 446.332 340.726 445.864 341.825C445.032 344.121 443.223 345.93 440.927 346.762C437.526 348.221 433.578 347.461 430.963 344.842C430.16 343.93 429.481 342.915 428.945 341.824C428.507 340.719 428.292 339.539 428.311 338.351C428.342 335.931 429.29 333.611 430.962 331.861ZM445.864 378.396C445.032 380.693 443.223 382.502 440.927 383.334C438.714 384.31 436.193 384.31 433.981 383.334C432.873 382.871 431.852 382.222 430.963 381.414C430.157 380.524 429.508 379.503 429.043 378.396C428.067 376.183 428.067 373.662 429.043 371.45C429.484 370.331 430.136 369.306 430.963 368.432C431.396 368.039 431.852 367.672 432.329 367.334C432.84 366.986 433.395 366.71 433.981 366.513C434.498 366.248 435.052 366.061 435.624 365.959C436.796 365.691 438.014 365.691 439.187 365.959C439.793 366.048 440.381 366.235 440.928 366.513C441.49 366.693 442.016 366.971 442.482 367.334C443.006 367.649 443.497 368.017 443.946 368.432C444.773 369.306 445.425 370.33 445.866 371.45C446.84 373.662 446.84 376.184 445.864 378.396ZM480.516 344.843C479.626 345.649 478.605 346.298 477.498 346.763C474.097 348.222 470.149 347.462 467.534 344.843C466.731 343.931 466.052 342.916 465.516 341.825C465.079 340.72 464.863 339.54 464.882 338.351C464.882 333.302 468.975 329.208 474.025 329.208C479.074 329.208 483.168 333.301 483.168 338.351C483.188 340.784 482.233 343.122 480.516 344.843ZM486.641 310.191C483.218 311.592 479.289 310.8 476.676 308.183C474.944 306.508 473.984 304.19 474.025 301.781C474.057 299.36 475.004 297.041 476.676 295.29C477.548 294.461 478.573 293.809 479.694 293.37C483.099 291.943 487.027 292.7 489.658 295.29C491.327 297.043 492.274 299.361 492.309 301.781C492.346 304.189 491.387 306.506 489.658 308.183C488.795 309.045 487.77 309.727 486.641 310.191Z" fill="url(#paint1_linear_10025_65467)"/>
</g>
<defs>
<linearGradient id="paint0_linear_10025_65467" x1="247.964" y1="64.0566" x2="247.964" y2="343.386" gradientUnits="userSpaceOnUse">
<stop stop-color="#72707D"/>
<stop offset="1" stop-color="#101824"/>
</linearGradient>
<linearGradient id="paint1_linear_10025_65467" x1="256.15" y1="127.477" x2="256.15" y2="448.067" gradientUnits="userSpaceOnUse">
<stop stop-color="#72707D"/>
<stop offset="1" stop-color="#101824"/>
</linearGradient>
<clipPath id="clip0_10025_65467">
<rect width="512" height="512" fill="white" transform="translate(0.150391 0.0605469)"/>
</clipPath>
</defs>
</svg>
