<svg width="508" height="508" viewBox="0 0 508 508" fill="none" xmlns="http://www.w3.org/2000/svg">
<path d="M151.194 196.933C167.46 196.933 181.813 188.756 190.512 176.316H111.875C120.574 188.756 134.928 196.933 151.194 196.933Z" fill="url(#paint0_linear_10025_58107)"/>
<path d="M111.875 121.602H190.512C181.9 109.162 167.46 100.986 151.194 100.986C134.928 100.986 120.574 109.162 111.875 121.602Z" fill="url(#paint1_linear_10025_58107)"/>
<path d="M103.264 148.915C103.264 152.394 103.611 155.699 104.307 158.918H198.08C198.776 155.699 199.123 152.394 199.123 148.915C199.123 145.522 198.776 142.217 198.08 138.998H104.307C103.611 142.217 103.264 145.522 103.264 148.915Z" fill="url(#paint2_linear_10025_58107)"/>
<path d="M151.02 60.5361C103.611 60.5361 62.9014 99.0719 62.9014 148.916C62.9014 192.322 93.6082 227.03 132.839 235.468C144.843 237.991 157.718 238.078 170.766 235.12L239.747 221.898L385.277 193.975V103.943L170.766 62.7978C164.155 61.3194 157.544 60.5361 151.02 60.5361ZM212.52 126.56C212.694 126.907 212.781 127.256 212.955 127.604C215.216 134.302 216.521 141.521 216.521 148.916C216.521 156.57 215.129 163.877 212.781 170.749C212.694 170.923 212.607 171.01 212.607 171.184C203.473 196.324 179.465 214.33 151.194 214.33C123.01 214.33 98.9144 196.237 89.7806 171.097C89.7806 171.01 89.7806 170.923 89.6935 170.836C87.2578 163.964 85.8664 156.657 85.8664 148.916C85.8664 141.435 87.1708 134.215 89.5195 127.517C89.6065 127.256 89.6935 126.907 89.8671 126.647C99.0014 101.594 123.01 83.5877 151.194 83.5877C179.378 83.5877 203.386 101.507 212.52 126.56Z" fill="url(#paint3_linear_10025_58107)"/>
<path d="M402.674 101.943V195.976L445.646 213.896V84.0234L402.674 101.943Z" fill="url(#paint4_linear_10025_58107)"/>
<path d="M197.471 316.018L200.777 344.202H224.176L219.827 313.321H219.131L197.471 316.018Z" fill="url(#paint5_linear_10025_58107)"/>
<path d="M360.29 295.946H353.808C316.613 295.946 286.35 326.204 286.35 363.403V394.979C286.35 414.763 270.253 430.861 250.468 430.861H232.463C212.679 430.861 196.581 414.763 196.581 394.979V394.912C214.335 394.423 227.981 379.145 226.612 361.6H193.035C188.598 361.6 184.858 358.294 184.336 353.945L179.203 309.408C178.682 304.623 182.074 300.36 186.859 299.752L217.565 296.011C217.826 296.011 218.087 295.924 218.348 295.924C219.305 287.312 223.654 279.222 230.613 273.655C238.529 267.218 243.052 257.737 243.052 247.733C243.052 246.167 242.965 244.602 242.704 243.036L242.183 239.122L174.072 252.17C166.851 253.822 158.849 254.779 150.933 254.779C145.627 254.779 140.233 254.344 134.927 253.474L148.062 367.602C149.889 383.173 163.024 395.003 178.769 395.003H179.184C179.197 424.367 203.092 448.259 232.463 448.259H250.468C279.848 448.259 303.748 424.354 303.748 394.979V363.403C303.748 335.804 326.204 313.343 353.808 313.343H360.29C365.094 313.343 368.988 309.452 368.988 304.644C368.988 299.836 365.094 295.946 360.29 295.946Z" fill="url(#paint6_linear_10025_58107)"/>
<defs>
<linearGradient id="paint0_linear_10025_58107" x1="151.194" y1="176.316" x2="151.194" y2="196.933" gradientUnits="userSpaceOnUse">
<stop stop-color="#72707D"/>
<stop offset="1" stop-color="#101824"/>
</linearGradient>
<linearGradient id="paint1_linear_10025_58107" x1="151.194" y1="100.986" x2="151.194" y2="121.602" gradientUnits="userSpaceOnUse">
<stop stop-color="#72707D"/>
<stop offset="1" stop-color="#101824"/>
</linearGradient>
<linearGradient id="paint2_linear_10025_58107" x1="151.194" y1="138.998" x2="151.194" y2="158.918" gradientUnits="userSpaceOnUse">
<stop stop-color="#72707D"/>
<stop offset="1" stop-color="#101824"/>
</linearGradient>
<linearGradient id="paint3_linear_10025_58107" x1="224.089" y1="60.5361" x2="224.089" y2="237.35" gradientUnits="userSpaceOnUse">
<stop stop-color="#72707D"/>
<stop offset="1" stop-color="#101824"/>
</linearGradient>
<linearGradient id="paint4_linear_10025_58107" x1="424.16" y1="84.0234" x2="424.16" y2="213.896" gradientUnits="userSpaceOnUse">
<stop stop-color="#72707D"/>
<stop offset="1" stop-color="#101824"/>
</linearGradient>
<linearGradient id="paint5_linear_10025_58107" x1="210.824" y1="313.321" x2="210.824" y2="344.202" gradientUnits="userSpaceOnUse">
<stop stop-color="#72707D"/>
<stop offset="1" stop-color="#101824"/>
</linearGradient>
<linearGradient id="paint6_linear_10025_58107" x1="251.958" y1="239.122" x2="251.958" y2="448.259" gradientUnits="userSpaceOnUse">
<stop stop-color="#72707D"/>
<stop offset="1" stop-color="#101824"/>
</linearGradient>
</defs>
</svg>
