<svg width="513" height="513" viewBox="0 0 513 513" fill="none" xmlns="http://www.w3.org/2000/svg">
<g clip-path="url(#clip0_10025_65473)">
<path d="M214.622 348.662C213.206 347.535 211.376 347.069 209.593 347.382C207.988 347.603 206.367 347.694 204.747 347.656L213.341 360.547C214.239 361.352 215.431 361.75 216.632 361.645C218.166 361.499 219.548 360.656 220.381 359.359C221.46 357.43 221.083 355.014 219.467 353.506L214.622 348.662Z" fill="url(#paint0_linear_10025_65473)"/>
<path d="M222.394 242.606C219.493 239.594 215.131 238.495 211.148 239.772C196.885 242.881 178.599 262.355 173.662 276.069C168.201 287.964 168.607 301.727 174.759 313.28C178.141 317.623 182.371 321.231 187.193 323.885C187.773 324.166 188.324 324.503 188.839 324.892C193.772 327.559 199.238 329.09 204.839 329.372C203.733 321.659 204.614 313.792 207.399 306.515C209.748 300.546 212.434 294.716 215.445 289.052C225.776 268.206 232.451 252.663 222.394 242.606Z" fill="url(#paint1_linear_10025_65473)"/>
<path d="M161.594 379.382C152.523 375.057 141.704 377.008 134.714 384.228C122.667 396.343 104.506 400 88.7088 393.493C72.9118 386.986 62.5958 371.598 62.5768 354.513V329.736L2.23381 390.078C-5.26319 397.576 7.26281 432.868 43.3768 468.891C79.3998 505.005 114.691 517.531 122.189 510.034L170.463 461.76L175.4 403.063C176.323 393.031 170.778 383.52 161.594 379.382Z" fill="url(#paint2_linear_10025_65473)"/>
<path d="M330.005 188.387C324.36 191.408 318.527 194.065 312.542 196.341C305.287 199.216 297.396 200.1 289.685 198.901V198.902C289.695 199.305 289.727 199.707 289.751 200.108C289.769 200.406 289.775 200.706 289.8 201.004C289.846 201.536 289.916 202.065 289.987 202.593C290.009 202.758 290.021 202.924 290.045 203.089C290.079 203.319 290.131 203.546 290.17 203.775C290.484 205.612 290.936 207.422 291.548 209.18C291.721 209.678 291.918 210.168 292.115 210.658C292.284 211.08 292.466 211.496 292.652 211.911C293.11 212.928 293.604 213.931 294.163 214.903C294.538 215.442 294.845 216.025 295.077 216.64C297.787 221.45 301.423 225.676 305.774 229.075C317.307 235.181 331.021 235.586 342.894 230.171C356.608 225.235 376.083 206.949 379.283 192.687C380.561 188.704 379.462 184.342 376.449 181.44C366.394 171.473 350.851 177.964 330.005 188.387Z" fill="url(#paint3_linear_10025_65473)"/>
<path d="M467.148 45.1195C429.205 7.17752 387.514 -7.90848 375.628 3.97752C363.742 15.8635 378.828 57.5545 416.771 95.4975C454.714 133.44 496.405 148.527 508.291 136.641C520.176 124.754 505.091 83.0625 467.148 45.1195Z" fill="url(#paint4_linear_10025_65473)"/>
<path d="M378.553 133.715C359.728 115.577 344.688 93.8873 334.302 69.8983C333.113 66.8813 332.108 63.8643 331.285 61.0293L80.8613 311.452V354.515C80.8643 364.176 86.6923 372.881 95.6233 376.566C104.554 380.25 114.825 378.186 121.639 371.338C134.148 358.786 153.166 355.385 169.25 362.824C185.334 370.263 195.058 386.958 193.593 404.618L190.484 441.737L451.33 180.892C423.633 171.241 398.669 155.059 378.553 133.715ZM226.873 335.04L227.147 335.313C227.238 335.496 227.421 335.587 227.604 335.77L232.358 340.524C240.09 348.148 241.495 360.116 235.741 369.324C231.729 375.65 224.85 379.585 217.364 379.838C217.065 379.909 216.757 379.94 216.45 379.929C209.436 379.954 202.811 376.709 198.53 371.153L177.227 339.244C170.18 335.173 164.073 329.658 159.307 323.061C150.144 306.728 149.097 287.063 156.473 269.85C162.507 253.209 184.724 226.879 207.124 221.85C217.242 219.219 227.993 222.221 235.284 229.713C255.398 249.736 241.775 277.165 231.81 297.187C229.13 302.223 226.749 307.413 224.679 312.73C220.844 319.93 221.709 328.727 226.873 335.04ZM397.113 196.709C392.084 219.109 365.844 241.326 349.113 247.36C341.156 250.33 332.738 251.877 324.244 251.931C314.325 252.109 304.549 249.546 295.993 244.525C289.366 239.766 283.82 233.659 279.719 226.605L248.359 205.668C242.305 201.202 238.849 194.035 239.123 186.517C239.397 179 243.367 172.103 249.73 168.091C258.906 162.336 270.851 163.743 278.439 171.474L283.285 176.228C283.398 176.332 283.491 176.456 283.559 176.594C283.786 176.727 283.974 176.916 284.108 177.142C290.473 182.126 299.169 182.914 306.325 179.153C311.641 177.083 316.831 174.702 321.868 172.022C341.799 162.055 369.228 148.433 389.342 168.455C396.81 175.799 399.776 186.579 397.113 196.709Z" fill="url(#paint5_linear_10025_65473)"/>
<path d="M403.879 108.387C375.445 79.9531 357.982 49.5071 354.233 25.3711L350.302 29.3021C344.816 34.8801 345.182 47.4961 351.308 63.1311C360.727 84.8341 374.371 104.445 391.445 120.822C418.142 147.428 449.776 165.531 470.348 165.805C474.904 166.324 479.471 164.934 482.965 161.965L486.896 158.034C462.759 154.285 432.314 136.822 403.879 108.387Z" fill="url(#paint6_linear_10025_65473)"/>
<path d="M265.548 184.365C264.552 183.374 263.205 182.816 261.799 182.811C261.048 182.797 260.312 183.021 259.696 183.452C258.336 184.221 257.471 185.639 257.41 187.2V187.201C257.345 188.612 257.956 189.971 259.056 190.858L271.399 199.087C271.399 197.468 271.491 195.85 271.673 194.241C271.946 192.446 271.448 190.619 270.302 189.211L265.548 184.365Z" fill="url(#paint7_linear_10025_65473)"/>
</g>
<defs>
<linearGradient id="paint0_linear_10025_65473" x1="212.87" y1="347.287" x2="212.87" y2="361.662" gradientUnits="userSpaceOnUse">
<stop stop-color="#72707D"/>
<stop offset="1" stop-color="#101824"/>
</linearGradient>
<linearGradient id="paint1_linear_10025_65473" x1="198.601" y1="239.248" x2="198.601" y2="329.372" gradientUnits="userSpaceOnUse">
<stop stop-color="#72707D"/>
<stop offset="1" stop-color="#101824"/>
</linearGradient>
<linearGradient id="paint2_linear_10025_65473" x1="87.8255" y1="329.736" x2="87.8255" y2="512.117" gradientUnits="userSpaceOnUse">
<stop stop-color="#72707D"/>
<stop offset="1" stop-color="#101824"/>
</linearGradient>
<linearGradient id="paint3_linear_10025_65473" x1="334.746" y1="176.486" x2="334.746" y2="233.962" gradientUnits="userSpaceOnUse">
<stop stop-color="#72707D"/>
<stop offset="1" stop-color="#101824"/>
</linearGradient>
<linearGradient id="paint4_linear_10025_65473" x1="441.959" y1="0.00390625" x2="441.959" y2="140.614" gradientUnits="userSpaceOnUse">
<stop stop-color="#72707D"/>
<stop offset="1" stop-color="#101824"/>
</linearGradient>
<linearGradient id="paint5_linear_10025_65473" x1="266.096" y1="61.0293" x2="266.096" y2="441.737" gradientUnits="userSpaceOnUse">
<stop stop-color="#72707D"/>
<stop offset="1" stop-color="#101824"/>
</linearGradient>
<linearGradient id="paint6_linear_10025_65473" x1="416.666" y1="25.3711" x2="416.666" y2="165.912" gradientUnits="userSpaceOnUse">
<stop stop-color="#72707D"/>
<stop offset="1" stop-color="#101824"/>
</linearGradient>
<linearGradient id="paint7_linear_10025_65473" x1="264.576" y1="182.811" x2="264.576" y2="199.087" gradientUnits="userSpaceOnUse">
<stop stop-color="#72707D"/>
<stop offset="1" stop-color="#101824"/>
</linearGradient>
<clipPath id="clip0_10025_65473">
<rect width="512.113" height="512.113" fill="white" transform="translate(0.150391 0.00390625)"/>
</clipPath>
</defs>
</svg>
