<svg width="512" height="513" viewBox="0 0 512 513" fill="none" xmlns="http://www.w3.org/2000/svg">
<g clip-path="url(#clip0_10025_65485)">
<path d="M310.232 62.3635C304.292 60.7075 298.286 59.4325 292.257 58.3305L289.473 83.3725C288.961 87.9985 285.055 91.5005 280.402 91.5065C280.06 91.5065 279.719 91.4885 279.379 91.4535C274.361 90.8935 270.747 86.3735 271.303 81.3555L274.138 55.8565C262.076 54.7635 249.941 54.7615 237.879 55.8495L240.714 81.3545C241.27 86.3725 237.656 90.8925 232.638 91.4525C232.298 91.4885 231.957 91.5055 231.616 91.5065C226.962 91.5005 223.057 87.9975 222.545 83.3725L219.76 58.3175C213.761 59.4145 207.786 60.6825 201.88 62.3275C201.263 62.4185 200.792 62.9285 200.751 63.5515L218.051 253.257C227.487 250.377 237.222 248.586 247.066 247.918C246.981 247.595 246.915 247.267 246.868 246.936V228.65C246.868 223.601 250.961 219.507 256.011 219.507C261.06 219.507 265.154 223.6 265.154 228.65V246.936C265.107 247.268 265.041 247.597 264.956 247.921C274.792 248.598 284.52 250.386 293.954 253.251L311.2 64.1855C311.34 63.1225 310.911 62.5425 310.232 62.3635Z" fill="url(#paint0_linear_10025_65485)"/>
<path d="M156.74 97.1194L164.402 135.427C164.879 137.805 164.391 140.274 163.046 142.292C161.701 144.31 159.61 145.711 157.232 146.186C156.638 146.307 156.034 146.366 155.428 146.365C151.073 146.362 147.326 143.287 146.472 139.017L139.723 105.269C112.188 119.481 86.9259 137.718 64.7699 159.379L95.5269 174.757C98.4599 176.212 100.391 179.123 100.591 182.391C100.791 185.659 99.2279 188.784 96.4939 190.585C93.7599 192.386 90.2719 192.588 87.3489 191.114L51.5039 173.192L18.4829 208.176L199.674 253.703L183.736 86.5254C174.564 89.5904 165.586 93.2034 156.74 97.1194Z" fill="url(#paint1_linear_10025_65485)"/>
<path d="M19.62 258.418L47.942 265.498C51.114 266.287 53.623 268.709 54.523 271.851C55.423 274.993 54.576 278.377 52.302 280.725C50.028 283.073 46.674 284.028 43.504 283.23L13.4 275.703C8.011 292.018 3.69 308.666 0.464 325.542C0.193 326.793 0.037 328.066 0 329.345C1.208 329.502 2.425 329.568 3.643 329.541L67.322 329.55H131.006C144.092 305.51 162.493 284.774 184.808 268.925L31.205 230.855C26.956 239.889 23.171 249.11 19.62 258.418Z" fill="url(#paint2_linear_10025_65485)"/>
<path d="M16.7681 347.837V349.774C16.7751 358.919 19.0891 367.914 23.4961 375.926L33.0111 393.221H54.8671C59.9161 393.221 64.0101 397.314 64.0101 402.364C64.0101 407.413 59.9171 411.507 54.8671 411.507H43.0701L61.5001 445.007C66.2841 453.612 75.8791 458.375 85.6261 456.982C95.3721 455.59 103.25 448.33 105.433 438.73L125.079 347.843L70.0141 347.836H16.7681V347.837Z" fill="url(#paint3_linear_10025_65485)"/>
<path d="M406.567 438.729C408.75 448.329 416.628 455.589 426.374 456.981C436.12 458.374 445.716 453.611 450.5 445.006L468.93 411.506H457.152C452.103 411.506 448.009 407.413 448.009 402.363C448.009 397.314 452.102 393.22 457.152 393.22H478.99L488.505 375.925C492.913 367.913 495.229 358.918 495.237 349.773V347.836H386.92L406.567 438.729Z" fill="url(#paint4_linear_10025_65485)"/>
<path d="M460.443 173.228L424.67 191.114C420.156 193.353 414.681 191.518 412.428 187.012C410.175 182.505 411.992 177.025 416.491 174.757L447.254 159.375C425.103 137.705 399.837 119.469 372.293 105.272L365.544 139.015C364.691 143.285 360.943 146.36 356.589 146.363C355.983 146.365 355.379 146.305 354.785 146.185C352.407 145.71 350.316 144.309 348.971 142.291C347.626 140.273 347.139 137.804 347.615 135.426L355.275 97.1272C346.426 93.2122 337.443 89.5972 328.267 86.5332L312.325 253.721L493.37 208.408L460.443 173.228Z" fill="url(#paint5_linear_10025_65485)"/>
<path d="M511.299 325.747C508.43 308.751 504.199 292.014 498.648 275.696L468.513 283.23C465.343 284.028 461.989 283.073 459.715 280.725C457.441 278.377 456.594 274.993 457.494 271.851C458.394 268.709 460.903 266.286 464.075 265.498L492.276 258.448C491.175 255.706 490.176 252.927 488.999 250.212L480.651 230.873C394.468 252.239 350.142 263.23 327.205 268.891C349.81 284.464 368.31 305.276 381.125 329.551H511.92L511.299 325.747Z" fill="url(#paint6_linear_10025_65485)"/>
</g>
<defs>
<linearGradient id="paint0_linear_10025_65485" x1="255.989" y1="55.0352" x2="255.989" y2="253.257" gradientUnits="userSpaceOnUse">
<stop stop-color="#72707D"/>
<stop offset="1" stop-color="#101824"/>
</linearGradient>
<linearGradient id="paint1_linear_10025_65485" x1="109.078" y1="86.5254" x2="109.078" y2="253.703" gradientUnits="userSpaceOnUse">
<stop stop-color="#72707D"/>
<stop offset="1" stop-color="#101824"/>
</linearGradient>
<linearGradient id="paint2_linear_10025_65485" x1="92.404" y1="230.855" x2="92.404" y2="329.55" gradientUnits="userSpaceOnUse">
<stop stop-color="#72707D"/>
<stop offset="1" stop-color="#101824"/>
</linearGradient>
<linearGradient id="paint3_linear_10025_65485" x1="70.9236" y1="347.836" x2="70.9236" y2="457.222" gradientUnits="userSpaceOnUse">
<stop stop-color="#72707D"/>
<stop offset="1" stop-color="#101824"/>
</linearGradient>
<linearGradient id="paint4_linear_10025_65485" x1="441.078" y1="347.836" x2="441.078" y2="457.221" gradientUnits="userSpaceOnUse">
<stop stop-color="#72707D"/>
<stop offset="1" stop-color="#101824"/>
</linearGradient>
<linearGradient id="paint5_linear_10025_65485" x1="402.848" y1="86.5332" x2="402.848" y2="253.721" gradientUnits="userSpaceOnUse">
<stop stop-color="#72707D"/>
<stop offset="1" stop-color="#101824"/>
</linearGradient>
<linearGradient id="paint6_linear_10025_65485" x1="419.563" y1="230.873" x2="419.563" y2="329.551" gradientUnits="userSpaceOnUse">
<stop stop-color="#72707D"/>
<stop offset="1" stop-color="#101824"/>
</linearGradient>
<clipPath id="clip0_10025_65485">
<rect width="511.92" height="511.92" fill="white" transform="translate(0 0.167969)"/>
</clipPath>
</defs>
</svg>
