<svg width="512" height="512" viewBox="0 0 512 512" fill="none" xmlns="http://www.w3.org/2000/svg">
<path d="M480 112V432C480 436.243 478.314 440.313 475.314 443.314C472.313 446.314 468.243 448 464 448H416V144C416 139.757 414.314 135.687 411.314 132.686C408.313 129.686 404.243 128 400 128H112C107.757 128 103.687 129.686 100.686 132.686C97.6857 135.687 96 139.757 96 144V448H48C43.7565 448 39.6869 446.314 36.6863 443.314C33.6857 440.313 32 436.243 32 432V112C32 99.2696 37.0571 87.0606 46.0589 78.0589C55.0606 69.0571 67.2696 64 80 64H432C444.73 64 456.939 69.0571 465.941 78.0589C474.943 87.0606 480 99.2696 480 112ZM352 208H384V240H352V288H384V320H352V376L384 400V440L330.72 400H181.28L128 440V400L160 376V320H128V288H160V240H128V208H160V160H192V208H240V160H272V208H320V160H352V208ZM240 320H192V368H240V320ZM240 240H192V288H240V240ZM320 320H272V368H320V320ZM320 240H272V288H320V240Z" fill="url(#paint0_linear_10025_21486)"/>
<defs>
<linearGradient id="paint0_linear_10025_21486" x1="256" y1="64" x2="256" y2="448" gradientUnits="userSpaceOnUse">
<stop stop-color="#72707D"/>
<stop offset="1" stop-color="#101824"/>
</linearGradient>
</defs>
</svg>
