<svg width="508" height="508" viewBox="0 0 508 508" fill="none" xmlns="http://www.w3.org/2000/svg">
<path d="M152.809 145.574C117.009 145.574 91.2897 167.755 75.6048 187.192C75.3394 192.561 75.1378 197.91 75.0005 203.232C90.8541 183.893 118.293 158.408 152.809 158.408C179.004 158.408 202.228 181.207 215.676 197.793C216.546 194.44 217.591 191 218.772 187.48C204.731 167.638 182.457 145.574 152.809 145.574Z" fill="url(#paint0_linear_10025_58132)"/>
<path d="M155.424 370.64L138.076 370.878H137.76C107.976 370.878 83.1821 348.54 80.0927 318.994C77.4786 294.517 75.1816 263.703 74.7856 230.593C80.6473 221.167 111.778 174.273 152.81 174.273C179.504 174.273 205.248 209.443 212.061 219.424C210.793 235.029 209.288 263.862 212.773 291.824C217.447 329.687 192.258 364.303 155.424 370.64Z" fill="url(#paint1_linear_10025_58132)"/>
<path d="M162.826 66.9419C160.351 66.9419 157.844 67.0734 155.323 67.348C115.709 71.7457 84.8747 101.934 79.7074 140.832C78.7815 147.809 78.0292 154.836 77.3848 161.874C94.01 146.084 116.706 132.025 145.677 130.007L148.229 106.308C148.693 101.961 152.399 98.7893 156.955 99.2805C161.302 99.7485 164.451 103.655 163.979 108.002L161.578 130.296C189.144 133.504 210.355 151.362 225.236 169.79C229.062 158.639 231.035 146.627 230.868 133.882C230.389 96.9714 199.864 66.9419 162.826 66.9419Z" fill="url(#paint2_linear_10025_58132)"/>
<path d="M356.069 221.352C390.585 221.352 418.024 246.838 433.877 266.177C433.74 260.855 433.539 255.505 433.274 250.137C417.588 230.7 391.87 208.519 356.069 208.519C326.421 208.519 304.146 230.583 290.105 250.428C291.287 253.949 292.332 257.388 293.201 260.741C306.649 244.152 329.869 221.352 356.069 221.352Z" fill="url(#paint3_linear_10025_58132)"/>
<path d="M434.093 293.567C433.697 326.678 431.4 357.491 428.786 381.889C425.696 411.514 400.903 433.852 371.119 433.852H370.802L354.247 433.773L353.375 433.614C316.621 427.277 291.431 392.661 296.105 354.798C299.59 326.757 298.085 298.003 296.818 282.398C303.63 272.338 329.295 237.167 356.069 237.167C397.18 237.167 428.31 284.22 434.093 293.567Z" fill="url(#paint4_linear_10025_58132)"/>
<path d="M347.299 193.241L344.899 170.947C344.427 166.599 347.575 162.693 351.923 162.225C356.471 161.753 360.184 164.909 360.648 169.253L363.2 192.952C392.169 194.97 414.864 209.029 431.493 224.821C430.848 217.781 430.096 210.752 429.17 203.773C424.003 164.882 393.169 134.694 354.174 130.362C351.025 130.022 348.527 129.89 346.044 129.89C309.006 129.89 278.489 159.916 278.009 196.826C277.842 209.566 279.816 221.584 283.641 232.739C298.518 214.31 319.731 196.449 347.299 193.241Z" fill="url(#paint5_linear_10025_58132)"/>
<defs>
<linearGradient id="paint0_linear_10025_58132" x1="146.886" y1="145.574" x2="146.886" y2="203.232" gradientUnits="userSpaceOnUse">
<stop stop-color="#72707D"/>
<stop offset="1" stop-color="#101824"/>
</linearGradient>
<linearGradient id="paint1_linear_10025_58132" x1="144.058" y1="174.273" x2="144.058" y2="370.878" gradientUnits="userSpaceOnUse">
<stop stop-color="#72707D"/>
<stop offset="1" stop-color="#101824"/>
</linearGradient>
<linearGradient id="paint2_linear_10025_58132" x1="154.131" y1="66.9419" x2="154.131" y2="169.79" gradientUnits="userSpaceOnUse">
<stop stop-color="#72707D"/>
<stop offset="1" stop-color="#101824"/>
</linearGradient>
<linearGradient id="paint3_linear_10025_58132" x1="361.991" y1="208.519" x2="361.991" y2="266.177" gradientUnits="userSpaceOnUse">
<stop stop-color="#72707D"/>
<stop offset="1" stop-color="#101824"/>
</linearGradient>
<linearGradient id="paint4_linear_10025_58132" x1="364.82" y1="237.167" x2="364.82" y2="433.852" gradientUnits="userSpaceOnUse">
<stop stop-color="#72707D"/>
<stop offset="1" stop-color="#101824"/>
</linearGradient>
<linearGradient id="paint5_linear_10025_58132" x1="354.746" y1="129.89" x2="354.746" y2="232.739" gradientUnits="userSpaceOnUse">
<stop stop-color="#72707D"/>
<stop offset="1" stop-color="#101824"/>
</linearGradient>
</defs>
</svg>
