<svg width="512" height="512" viewBox="0 0 512 512" fill="none" xmlns="http://www.w3.org/2000/svg">
<path d="M203.36 36.64C226.305 61.6066 239.336 94.0976 240 128V214.24L144 166.24V128C144.664 94.0976 157.695 61.6066 180.64 36.64C182.127 35.1403 183.897 33.95 185.847 33.1377C187.797 32.3254 189.888 31.9072 192 31.9072C194.112 31.9072 196.203 32.3254 198.153 33.1377C200.103 33.95 201.873 35.1403 203.36 36.64ZM144 262.24L240 310.24V249.92L144 201.92V262.24ZM144 432C144 444.73 149.057 456.939 158.059 465.941C167.061 474.943 179.27 480 192 480C204.73 480 216.939 474.943 225.941 465.941C234.943 456.939 240 444.73 240 432V345.92L144 297.92V432ZM308.64 36.64C285.695 61.6066 272.664 94.0976 272 128V166.24L368 214.24V128C367.336 94.0976 354.305 61.6066 331.36 36.64C329.873 35.1403 328.103 33.95 326.153 33.1377C324.203 32.3254 322.112 31.9072 320 31.9072C317.888 31.9072 315.797 32.3254 313.847 33.1377C311.897 33.95 310.127 35.1403 308.64 36.64ZM272 262.24L368 310.24V249.92L272 201.92V262.24ZM272 432C272 444.73 277.057 456.939 286.059 465.941C295.061 474.943 307.27 480 320 480C332.73 480 344.939 474.943 353.941 465.941C362.943 456.939 368 444.73 368 432V345.92L272 297.92V432ZM112 400H96V48C96 43.7565 94.3143 39.6869 91.3137 36.6863C88.3131 33.6857 84.2435 32 80 32C75.7565 32 71.6869 33.6857 68.6863 36.6863C65.6857 39.6869 64 43.7565 64 48V400H48C43.7565 400 39.6869 401.686 36.6863 404.686C33.6857 407.687 32 411.757 32 416C32 420.243 33.6857 424.313 36.6863 427.314C39.6869 430.314 43.7565 432 48 432H64V464C64 468.243 65.6857 472.313 68.6863 475.314C71.6869 478.314 75.7565 480 80 480C84.2435 480 88.3131 478.314 91.3137 475.314C94.3143 472.313 96 468.243 96 464V432H112C116.243 432 120.313 430.314 123.314 427.314C126.314 424.313 128 420.243 128 416C128 411.757 126.314 407.687 123.314 404.686C120.313 401.686 116.243 400 112 400ZM464 400H448V48C448 43.7565 446.314 39.6869 443.314 36.6863C440.313 33.6857 436.243 32 432 32C427.757 32 423.687 33.6857 420.686 36.6863C417.686 39.6869 416 43.7565 416 48V400H400C395.757 400 391.687 401.686 388.686 404.686C385.686 407.687 384 411.757 384 416C384 420.243 385.686 424.313 388.686 427.314C391.687 430.314 395.757 432 400 432H416V464C416 468.243 417.686 472.313 420.686 475.314C423.687 478.314 427.757 480 432 480C436.243 480 440.313 478.314 443.314 475.314C446.314 472.313 448 468.243 448 464V432H464C468.243 432 472.313 430.314 475.314 427.314C478.314 424.313 480 420.243 480 416C480 411.757 478.314 407.687 475.314 404.686C472.313 401.686 468.243 400 464 400Z" fill="url(#paint0_linear_10025_21492)"/>
<defs>
<linearGradient id="paint0_linear_10025_21492" x1="256" y1="31.9072" x2="256" y2="480" gradientUnits="userSpaceOnUse">
<stop stop-color="#72707D"/>
<stop offset="1" stop-color="#101824"/>
</linearGradient>
</defs>
</svg>
