<svg width="512" height="512" viewBox="0 0 512 512" fill="none" xmlns="http://www.w3.org/2000/svg">
<g clip-path="url(#clip0_10025_60047)">
<path d="M256 0C115.404 0 0 115.39 0 256C0 266.75 0.884 277.277 2.183 287.681C6.542 273.856 18.347 262.91 32.152 258.406C32.751 258.205 33.339 258.025 33.946 257.848C37.808 256.765 41.798 256 46 256C70.814 256 91 276.186 91 301C91 301.231 90.879 301.423 90.868 301.652C90.881 302.113 91 302.542 91 303.007V319.999C91 329.213 97.855 337.006 106 337.006C114.145 337.006 121 329.213 121 319.999V303.007C121 286.147 129.76 270.473 143.852 262.109C150.748 258.031 158.319 256.015 166.002 256.017C166.002 256.012 166 256.006 166 256.006C166 206.371 206.371 166 256 166C305.629 166 346 206.371 346 256V256.004C353.668 256.004 361.227 258.025 368.148 262.109C382.24 270.473 391 286.146 391 303.007V322.006C391 331.22 397.855 338.998 406 338.998C414.145 338.998 421 331.22 421 322.006V303.007C421 302.542 421.117 302.113 421.132 301.652C421.121 301.423 421 301.231 421 301C421 276.186 441.186 256 466 256C471.068 256 476.855 257.027 481.403 258.578C481.56 258.635 481.722 258.668 481.883 258.726C495.162 263.419 505.57 274.109 509.84 287.539C511.125 277.182 512 266.701 512 256C512 115.39 396.596 0 256 0ZM136 181H106C97.709 181 91 174.291 91 166C91 157.709 97.709 151 106 151H136C144.291 151 151 157.709 151 166C151 174.291 144.291 181 136 181ZM236.606 86.606L206.606 116.606C203.676 119.536 199.838 121.001 196.001 121.001C192.164 121.001 188.325 119.536 185.396 116.606C179.535 110.746 179.535 101.254 185.395 95.395L215.395 65.395C221.254 59.536 230.747 59.536 236.606 65.395C242.465 71.254 242.465 80.747 236.606 86.606ZM346 121H316C307.709 121 301 114.291 301 106C301 97.709 307.709 91 316 91H346C354.291 91 361 97.709 361 106C361 114.291 354.291 121 346 121ZM416.605 206.606C413.675 209.536 409.837 211.001 406 211.001C402.163 211.001 398.324 209.536 395.395 206.606L365.395 176.606C359.536 170.747 359.536 161.254 365.395 155.395C371.254 149.536 380.746 149.535 386.605 155.395L416.605 185.395C422.464 191.254 422.464 200.747 416.605 206.606Z" fill="url(#paint0_linear_10025_60047)"/>
<path d="M480.535 298.698C480.476 298.486 480.319 298.33 480.268 298.114C479.03 292.917 475.419 288.799 470.944 286.999C469.377 286.444 467.751 285.999 466 285.999C457.855 285.999 451 293.792 451 303.006V322.005C451 347.918 430.814 368.997 406 368.997C381.186 368.997 361 347.918 361 322.005V303.006C361 296.678 357.865 290.892 352.826 287.903C350.072 286.251 345.615 285.164 340.021 287.449C327.208 321.552 294.525 346 256 346C217.473 346 184.792 321.552 171.98 287.448C166.41 285.168 161.949 286.254 159.174 287.904C154.135 290.907 151 296.678 151 303.007V319.999C151 345.912 130.814 367.006 106 367.006C81.186 367.006 61 345.912 61 319.999V303.007C61 293.793 54.145 286 46 286C44.284 286 42.697 286.445 41.159 286.98C37.07 288.619 34.012 292.114 32.553 295.624C32.396 296.003 32.077 296.243 31.892 296.6C31.449 298.015 31 299.44 31 301V375.742C73.96 456.132 158.667 512 256 512C353.332 512 438.04 456.132 481 375.742V301C481 300.183 480.663 299.478 480.535 298.698Z" fill="url(#paint1_linear_10025_60047)"/>
</g>
<defs>
<linearGradient id="paint0_linear_10025_60047" x1="256" y1="0" x2="256" y2="338.998" gradientUnits="userSpaceOnUse">
<stop stop-color="#72707D"/>
<stop offset="1" stop-color="#101824"/>
</linearGradient>
<linearGradient id="paint1_linear_10025_60047" x1="256" y1="285.999" x2="256" y2="512" gradientUnits="userSpaceOnUse">
<stop stop-color="#72707D"/>
<stop offset="1" stop-color="#101824"/>
</linearGradient>
<clipPath id="clip0_10025_60047">
<rect width="512" height="512" fill="white"/>
</clipPath>
</defs>
</svg>
