<svg width="508" height="508" viewBox="0 0 508 508" fill="none" xmlns="http://www.w3.org/2000/svg">
<path d="M88.9908 187.952C89.9539 188.327 90.9634 188.516 91.9883 188.516C95.3494 188.516 98.3315 186.509 99.5847 183.399L116.897 140.463C117.504 138.955 118.947 137.976 120.567 137.976C120.95 137.976 121.329 138.034 121.693 138.146L121.863 138.274L122.254 138.46C124.164 139.384 125.027 141.519 124.265 143.43L104.083 193.784C102.458 197.923 104.597 202.804 108.809 204.463C109.741 204.811 110.72 204.989 111.71 204.989C115.091 204.989 118.073 202.97 119.303 199.861L139.566 149.2C140.169 147.684 141.616 146.706 143.24 146.706C143.747 146.706 144.246 146.802 144.714 146.988C146.741 147.804 147.735 150.117 146.923 152.144L123.905 209.812C122.242 214.052 124.327 218.855 128.601 220.538C129.506 220.878 130.461 221.052 131.436 221.052C134.789 221.052 137.872 218.964 139.106 215.862C142.92 206.12 138.997 215.979 162.181 157.988C162.788 156.472 164.235 155.489 165.863 155.489C166.254 155.489 166.641 155.547 167.016 155.663L167.48 155.969L167.816 155.996C168.582 156.418 169.186 157.079 169.538 157.899C169.955 158.87 169.967 159.945 169.576 160.928L149.294 211.735C148.385 214.477 149.139 216.728 149.506 217.567C150.384 219.59 152.001 221.137 154.062 221.938C155.006 222.302 155.996 222.483 157.002 222.483C160.367 222.483 163.349 220.468 164.598 217.343L188.575 157.265C189.174 155.764 190.617 154.789 192.62 154.789H192.671C194.427 154.979 195.862 156.325 196.16 158.065L201.133 187.267C201.799 191.166 205.117 193.997 209.028 193.997L210.145 193.916C214.466 193.355 217.541 189.518 217.146 185.182L214.017 150.573L193.692 110.805C193.398 110.232 193.247 109.59 193.255 108.956L193.595 76.4937L116.487 77.3214L116.286 96.1884C116.282 96.6758 116.185 97.1554 116.003 97.6118L84.3495 177.311C83.5411 179.354 83.5798 181.581 84.4578 183.604C85.3435 185.619 86.9563 187.163 88.9908 187.952Z" fill="url(#paint0_linear_10025_58140)"/>
<path d="M261.37 193.908L262.538 193.993C266.464 193.993 269.791 191.162 270.44 187.267L275.418 158.065C275.716 156.325 277.151 154.979 279.274 154.774C280.938 154.774 282.4 155.752 283.003 157.265L306.979 217.343C308.233 220.464 311.222 222.479 314.599 222.479C315.601 222.479 316.583 222.298 317.531 221.934C319.581 221.137 321.193 219.586 322.071 217.571C322.439 216.728 323.193 214.473 322.203 211.51L302.002 160.927C301.611 159.945 301.622 158.87 302.04 157.899C302.431 156.99 303.131 156.275 304.021 155.865L304.241 155.779C304.713 155.59 305.208 155.493 305.711 155.493C307.343 155.493 308.793 156.472 309.397 157.984L329.44 208.099L329.583 208.629L332.456 215.827C333.714 218.991 336.734 221.037 340.15 221.037C341.144 221.037 342.118 220.859 343.105 220.488C347.212 218.867 349.305 213.978 347.665 209.785L324.655 152.144C323.843 150.117 324.837 147.804 326.848 146.996C327.324 146.806 327.823 146.71 328.326 146.71C329.962 146.71 331.408 147.688 332.012 149.196L352.267 199.834C353.509 202.959 356.491 204.978 359.86 204.978C360.889 204.978 361.902 204.792 362.908 204.405C367.019 202.792 369.112 197.904 367.468 193.703L347.313 143.43C346.547 141.511 347.413 139.372 349.355 138.44L349.869 138.15C350.244 138.038 350.627 137.98 351.018 137.98C352.635 137.98 354.074 138.955 354.681 140.463L371.989 183.384C373.242 186.501 376.232 188.516 379.601 188.516C380.603 188.516 381.585 188.335 382.537 187.971C384.61 187.167 386.238 185.619 387.124 183.593C387.998 181.581 388.037 179.354 387.228 177.308L355.574 97.6118C355.392 97.1554 355.296 96.6758 355.292 96.1923L355.091 77.3214L277.983 76.4937L278.323 108.948C278.331 109.59 278.18 110.232 277.89 110.797L257.561 150.573L254.432 185.179C254.037 189.518 257.108 193.355 261.37 193.908Z" fill="url(#paint1_linear_10025_58140)"/>
<path d="M100.337 319.76C121.415 319.76 138.501 302.673 138.501 281.596C138.501 260.518 121.415 243.431 100.337 243.431C79.2592 243.431 62.1724 260.518 62.1724 281.596C62.1724 302.673 79.2592 319.76 100.337 319.76Z" fill="url(#paint2_linear_10025_58140)"/>
<path d="M148.759 284.624V319.794L126.738 376.431C123.094 385.778 128.084 396.313 137.669 399.323C139.412 399.878 141.155 400.116 142.897 400.116C149.472 400.116 155.73 396.313 158.581 390.056L183.692 336.271V319.794H229.477V255.949H177.434C161.592 255.949 148.759 268.782 148.759 284.624Z" fill="url(#paint3_linear_10025_58140)"/>
<path d="M49.6533 327.716V381.264H59.3242V432.217H85.8133V381.264H109.776C109.934 377.62 110.647 374.055 111.993 370.649L128.707 327.716H49.6533Z" fill="url(#paint4_linear_10025_58140)"/>
<path d="M199.523 339.756L180.117 381.264H229.466V335.637H199.523V339.756Z" fill="url(#paint5_linear_10025_58140)"/>
<path d="M416.09 327.716V381.264H424.371V432.217H450.86V381.264H459.142V327.716H416.09Z" fill="url(#paint6_linear_10025_58140)"/>
<path d="M355.027 255.949H245.318V400.116H400.257V301.179C400.257 276.228 379.979 255.949 355.027 255.949Z" fill="url(#paint7_linear_10025_58140)"/>
<defs>
<linearGradient id="paint0_linear_10025_58140" x1="150.475" y1="76.4937" x2="150.475" y2="222.483" gradientUnits="userSpaceOnUse">
<stop stop-color="#72707D"/>
<stop offset="1" stop-color="#101824"/>
</linearGradient>
<linearGradient id="paint1_linear_10025_58140" x1="321.103" y1="76.4937" x2="321.103" y2="222.479" gradientUnits="userSpaceOnUse">
<stop stop-color="#72707D"/>
<stop offset="1" stop-color="#101824"/>
</linearGradient>
<linearGradient id="paint2_linear_10025_58140" x1="100.337" y1="243.431" x2="100.337" y2="319.76" gradientUnits="userSpaceOnUse">
<stop stop-color="#72707D"/>
<stop offset="1" stop-color="#101824"/>
</linearGradient>
<linearGradient id="paint3_linear_10025_58140" x1="177.51" y1="255.949" x2="177.51" y2="400.116" gradientUnits="userSpaceOnUse">
<stop stop-color="#72707D"/>
<stop offset="1" stop-color="#101824"/>
</linearGradient>
<linearGradient id="paint4_linear_10025_58140" x1="89.1802" y1="327.716" x2="89.1802" y2="432.217" gradientUnits="userSpaceOnUse">
<stop stop-color="#72707D"/>
<stop offset="1" stop-color="#101824"/>
</linearGradient>
<linearGradient id="paint5_linear_10025_58140" x1="204.791" y1="335.637" x2="204.791" y2="381.264" gradientUnits="userSpaceOnUse">
<stop stop-color="#72707D"/>
<stop offset="1" stop-color="#101824"/>
</linearGradient>
<linearGradient id="paint6_linear_10025_58140" x1="437.616" y1="327.716" x2="437.616" y2="432.217" gradientUnits="userSpaceOnUse">
<stop stop-color="#72707D"/>
<stop offset="1" stop-color="#101824"/>
</linearGradient>
<linearGradient id="paint7_linear_10025_58140" x1="322.788" y1="255.949" x2="322.788" y2="400.116" gradientUnits="userSpaceOnUse">
<stop stop-color="#72707D"/>
<stop offset="1" stop-color="#101824"/>
</linearGradient>
</defs>
</svg>
