<svg width="508" height="508" viewBox="0 0 508 508" fill="none" xmlns="http://www.w3.org/2000/svg">
<path d="M282.523 232.842C284.086 234.861 286.426 235.917 288.793 235.917C290.487 235.917 292.193 235.376 293.635 234.262C297.097 231.585 297.731 226.611 295.055 223.15C294.614 222.581 284.372 209.056 294.691 197.51C309.907 180.507 301.58 160.058 295.055 151.623C292.374 148.161 287.397 147.534 283.943 150.203C280.481 152.88 279.847 157.858 282.523 161.315C282.964 161.888 293.206 175.41 282.883 186.951C267.675 203.958 275.998 224.407 282.523 232.842Z" fill="url(#paint0_linear_10025_58150)"/>
<path d="M343.317 232.842C344.88 234.861 347.22 235.917 349.587 235.917C351.281 235.917 352.987 235.376 354.429 234.262C357.891 231.585 358.525 226.611 355.849 223.15C355.408 222.581 345.166 209.056 355.485 197.51C370.701 180.507 362.374 160.058 355.849 151.623C353.164 148.161 348.194 147.534 344.737 150.203C341.275 152.88 340.641 157.858 343.317 161.315C343.758 161.888 354 175.41 343.677 186.951C328.469 203.958 336.792 224.407 343.317 232.842Z" fill="url(#paint1_linear_10025_58150)"/>
<path d="M404.111 232.842C405.674 234.861 408.014 235.917 410.381 235.917C412.075 235.917 413.781 235.376 415.223 234.262C418.685 231.585 419.319 226.611 416.643 223.15C416.202 222.581 405.96 209.056 416.279 197.51C431.495 180.507 423.168 160.058 416.643 151.623C413.962 148.161 408.992 147.534 405.531 150.203C402.069 152.88 401.435 157.858 404.111 161.315C404.552 161.888 414.794 175.41 404.471 186.951C389.263 203.958 397.586 224.407 404.111 232.842Z" fill="url(#paint2_linear_10025_58150)"/>
<path d="M127.435 161.891C147.121 161.891 163.08 145.932 163.08 126.245C163.08 106.559 147.121 90.5996 127.435 90.5996C107.748 90.5996 91.7891 106.559 91.7891 126.245C91.7891 145.932 107.748 161.891 127.435 161.891Z" fill="url(#paint3_linear_10025_58150)"/>
<path d="M213.035 279.921H145.871C133.201 279.921 122.931 269.651 122.931 256.981V227.301C122.931 225.116 124.706 223.34 126.891 223.34C129.077 223.34 130.852 225.116 130.852 227.301V256.985C130.852 265.278 137.574 272 145.867 272H195.397C201.851 272 207.846 267.603 208.894 261.234C210.227 253.128 203.982 246.093 196.121 246.093H162.537C160.35 246.093 158.576 244.32 158.576 242.133V205.801C158.576 186.14 142.638 170.202 122.977 170.202C103.316 170.202 87.3779 186.14 87.3779 205.801V284.462C87.3779 300.73 100.566 313.919 116.835 313.919H209.074C211.261 313.919 213.035 315.692 213.035 317.88V378.315C213.035 386.773 219.104 394.497 227.518 395.354C237.191 396.339 245.381 388.74 245.381 379.269V312.268C245.381 294.403 230.899 279.921 213.035 279.921Z" fill="url(#paint4_linear_10025_58150)"/>
<path d="M67.9219 330.027H196.959V347.533H67.9219V330.027Z" fill="url(#paint5_linear_10025_58150)"/>
<path d="M67.9219 363.375H196.959V384.762H67.9219V363.375Z" fill="url(#paint6_linear_10025_58150)"/>
<path d="M67.9219 400.604H196.959V418.11H67.9219V400.604Z" fill="url(#paint7_linear_10025_58150)"/>
<path d="M306.271 295.093H269.754C269.754 354.578 269.283 355.234 271.338 365.513C271.972 365.355 272.606 365.275 273.319 365.275H304.449C299.697 341.987 300.33 318.382 306.271 295.093Z" fill="url(#paint8_linear_10025_58150)"/>
<path d="M341.679 295.093H322.668C316.094 318.382 315.46 341.987 320.767 365.275H341.679V295.093Z" fill="url(#paint9_linear_10025_58150)"/>
<path d="M376.057 295.093H357.521V365.275H378.037C383.345 341.908 382.711 318.382 376.057 295.093Z" fill="url(#paint10_linear_10025_58150)"/>
<path d="M384.295 381.119H276.25C277.992 385.238 280.131 389.198 282.586 393.001L290.983 405.991H408.217L416.614 393.001C419.07 389.198 421.129 385.238 422.872 381.119C422.217 381.119 383.651 381.119 384.295 381.119Z" fill="url(#paint11_linear_10025_58150)"/>
<path d="M394.277 365.275H425.882C426.516 365.275 427.15 365.355 427.783 365.513C428.893 360.364 429.447 355.057 429.447 349.671V295.093H392.455C398.475 318.461 399.029 341.908 394.277 365.275Z" fill="url(#paint12_linear_10025_58150)"/>
<path d="M426.853 251.415H272.315C264.618 251.415 258.378 257.654 258.378 265.351C258.378 273.048 264.618 279.288 272.315 279.288H426.853C434.55 279.288 440.79 273.048 440.79 265.351C440.79 257.654 434.55 251.415 426.853 251.415Z" fill="url(#paint13_linear_10025_58150)"/>
<defs>
<linearGradient id="paint0_linear_10025_58150" x1="288.789" y1="148.55" x2="288.789" y2="235.917" gradientUnits="userSpaceOnUse">
<stop stop-color="#72707D"/>
<stop offset="1" stop-color="#101824"/>
</linearGradient>
<linearGradient id="paint1_linear_10025_58150" x1="349.583" y1="148.55" x2="349.583" y2="235.917" gradientUnits="userSpaceOnUse">
<stop stop-color="#72707D"/>
<stop offset="1" stop-color="#101824"/>
</linearGradient>
<linearGradient id="paint2_linear_10025_58150" x1="410.377" y1="148.55" x2="410.377" y2="235.917" gradientUnits="userSpaceOnUse">
<stop stop-color="#72707D"/>
<stop offset="1" stop-color="#101824"/>
</linearGradient>
<linearGradient id="paint3_linear_10025_58150" x1="127.435" y1="90.5996" x2="127.435" y2="161.891" gradientUnits="userSpaceOnUse">
<stop stop-color="#72707D"/>
<stop offset="1" stop-color="#101824"/>
</linearGradient>
<linearGradient id="paint4_linear_10025_58150" x1="166.379" y1="170.202" x2="166.379" y2="395.44" gradientUnits="userSpaceOnUse">
<stop stop-color="#72707D"/>
<stop offset="1" stop-color="#101824"/>
</linearGradient>
<linearGradient id="paint5_linear_10025_58150" x1="132.44" y1="330.027" x2="132.44" y2="347.533" gradientUnits="userSpaceOnUse">
<stop stop-color="#72707D"/>
<stop offset="1" stop-color="#101824"/>
</linearGradient>
<linearGradient id="paint6_linear_10025_58150" x1="132.44" y1="363.375" x2="132.44" y2="384.762" gradientUnits="userSpaceOnUse">
<stop stop-color="#72707D"/>
<stop offset="1" stop-color="#101824"/>
</linearGradient>
<linearGradient id="paint7_linear_10025_58150" x1="132.44" y1="400.604" x2="132.44" y2="418.11" gradientUnits="userSpaceOnUse">
<stop stop-color="#72707D"/>
<stop offset="1" stop-color="#101824"/>
</linearGradient>
<linearGradient id="paint8_linear_10025_58150" x1="287.989" y1="295.093" x2="287.989" y2="365.513" gradientUnits="userSpaceOnUse">
<stop stop-color="#72707D"/>
<stop offset="1" stop-color="#101824"/>
</linearGradient>
<linearGradient id="paint9_linear_10025_58150" x1="329.445" y1="295.093" x2="329.445" y2="365.275" gradientUnits="userSpaceOnUse">
<stop stop-color="#72707D"/>
<stop offset="1" stop-color="#101824"/>
</linearGradient>
<linearGradient id="paint10_linear_10025_58150" x1="369.554" y1="295.093" x2="369.554" y2="365.275" gradientUnits="userSpaceOnUse">
<stop stop-color="#72707D"/>
<stop offset="1" stop-color="#101824"/>
</linearGradient>
<linearGradient id="paint11_linear_10025_58150" x1="349.561" y1="381.119" x2="349.561" y2="405.991" gradientUnits="userSpaceOnUse">
<stop stop-color="#72707D"/>
<stop offset="1" stop-color="#101824"/>
</linearGradient>
<linearGradient id="paint12_linear_10025_58150" x1="410.951" y1="295.093" x2="410.951" y2="365.513" gradientUnits="userSpaceOnUse">
<stop stop-color="#72707D"/>
<stop offset="1" stop-color="#101824"/>
</linearGradient>
<linearGradient id="paint13_linear_10025_58150" x1="349.584" y1="251.415" x2="349.584" y2="279.288" gradientUnits="userSpaceOnUse">
<stop stop-color="#72707D"/>
<stop offset="1" stop-color="#101824"/>
</linearGradient>
</defs>
</svg>
