<svg width="513" height="513" viewBox="0 0 513 513" fill="none" xmlns="http://www.w3.org/2000/svg">
<g clip-path="url(#clip0_10025_65516)">
<path d="M269.859 438.987C266.289 442.557 260.501 442.557 256.93 438.987C253.36 435.417 253.36 429.629 256.93 426.058L261.608 421.379C253.629 419.242 245.209 422.732 241.083 429.888C236.957 437.044 238.154 446.079 244.001 451.914C251.235 458.825 262.624 458.825 269.858 451.914C274.529 447.347 276.324 440.59 274.536 434.307L269.859 438.987Z" fill="url(#paint0_linear_10025_65516)"/>
<path d="M348.359 420.7C341.828 420.63 335.783 424.138 332.603 429.843H339.216C344.265 429.843 348.359 433.936 348.359 438.986C348.359 444.035 344.266 448.129 339.216 448.129H332.603C333.378 449.508 334.328 450.78 335.43 451.915C342.664 458.826 354.053 458.826 361.287 451.915C366.516 446.685 368.079 438.821 365.25 431.989C362.42 425.157 355.754 420.702 348.359 420.7Z" fill="url(#paint1_linear_10025_65516)"/>
<path d="M174.644 423.244V429.843C174.644 434.892 170.551 438.986 165.501 438.986C160.451 438.986 156.358 434.893 156.358 429.843V423.244C149.191 427.382 145.696 435.818 147.838 443.813C149.98 451.807 157.224 457.366 165.501 457.366C173.777 457.366 181.022 451.807 183.164 443.813C185.306 435.819 181.812 427.382 174.644 423.244Z" fill="url(#paint2_linear_10025_65516)"/>
<path d="M156.359 210.414H357.502C382.737 210.384 403.187 189.935 403.216 164.7C403.205 154.804 406.423 145.174 412.381 137.271H101.479C107.437 145.173 110.655 154.803 110.644 164.7C110.674 189.934 131.124 210.384 156.359 210.414Z" fill="url(#paint3_linear_10025_65516)"/>
<path d="M256.93 54.9863C161.957 54.9863 95.4752 86.5843 84.7432 118.986H429.118C418.385 86.5843 351.903 54.9863 256.93 54.9863Z" fill="url(#paint4_linear_10025_65516)"/>
<path d="M448.93 137.271C433.788 137.288 421.518 149.558 421.501 164.7C421.46 200.029 392.83 228.659 357.501 228.7H156.359C121.03 228.659 92.4 200.029 92.359 164.7C92.342 149.558 80.072 137.287 64.93 137.271H37.501V155.557C62.736 155.587 83.186 176.036 83.215 201.271C83.245 226.506 103.694 246.956 128.929 246.985H384.929C410.164 246.955 430.614 226.506 430.643 201.271C430.673 176.036 451.122 155.586 476.357 155.557V137.271H448.93Z" fill="url(#paint5_linear_10025_65516)"/>
<path d="M156.359 338.414H357.502C382.737 338.384 403.187 317.935 403.216 292.7C403.205 282.804 406.423 273.174 412.381 265.271H101.479C107.437 273.173 110.655 282.803 110.644 292.7C110.674 317.934 131.124 338.384 156.359 338.414Z" fill="url(#paint6_linear_10025_65516)"/>
<path d="M256.93 36.7009C267.029 36.7009 275.216 28.514 275.216 18.4149C275.216 8.31583 267.029 0.128906 256.93 0.128906C246.831 0.128906 238.644 8.31583 238.644 18.4149C238.644 28.514 246.831 36.7009 256.93 36.7009Z" fill="url(#paint7_linear_10025_65516)"/>
<path d="M421.501 292.699C421.46 328.028 392.83 356.658 357.501 356.699H156.359C121.03 356.658 92.4 328.028 92.359 292.699C92.342 277.558 80.072 265.287 64.93 265.271H37.501V283.557C62.736 283.587 83.186 304.036 83.215 329.271C83.244 354.506 103.694 374.956 128.929 374.985H384.929C410.164 374.955 430.614 354.506 430.643 329.271C430.672 304.036 451.122 283.586 476.357 283.557V265.271H448.93C433.788 265.287 421.518 277.558 421.501 292.699Z" fill="url(#paint8_linear_10025_65516)"/>
<path d="M439.787 393.271H74.073C58.931 393.288 46.661 405.558 46.644 420.7V484.7H74.073C76.498 484.699 78.824 485.662 80.539 487.377C82.254 489.092 83.217 491.418 83.216 493.843V512.128H119.787V493.842C119.786 491.417 120.749 489.091 122.464 487.376C124.179 485.661 126.505 484.698 128.93 484.699H384.93C387.355 484.698 389.681 485.661 391.396 487.376C393.111 489.091 394.074 491.417 394.073 493.842V512.128H430.644V493.842C430.643 491.417 431.606 489.091 433.321 487.376C435.036 485.661 437.362 484.698 439.787 484.699H467.216V420.699C467.199 405.558 454.929 393.287 439.787 393.271ZM165.501 475.557C145.303 475.557 128.93 459.183 128.93 438.986C128.93 418.788 145.304 402.415 165.501 402.415C185.699 402.415 202.072 418.789 202.072 438.986C202.051 459.174 185.69 475.535 165.501 475.557ZM282.787 464.842C273.549 474.08 260.085 477.688 247.465 474.306C234.846 470.925 224.989 461.068 221.608 448.449C218.227 435.83 221.835 422.365 231.072 413.127C245.54 399.306 268.319 399.306 282.786 413.127C289.646 419.984 293.5 429.285 293.5 438.984C293.502 448.684 289.647 457.986 282.787 464.842ZM374.216 464.842C364.978 474.08 351.514 477.688 338.894 474.306C326.274 470.924 316.418 461.068 313.037 448.449C309.656 435.83 313.264 422.365 322.501 413.127C336.969 399.306 359.748 399.306 374.215 413.127C381.075 419.984 384.929 429.285 384.929 438.984C384.93 448.684 381.076 457.986 374.216 464.842Z" fill="url(#paint9_linear_10025_65516)"/>
</g>
<defs>
<linearGradient id="paint0_linear_10025_65516" x1="256.93" y1="420.756" x2="256.93" y2="457.097" gradientUnits="userSpaceOnUse">
<stop stop-color="#72707D"/>
<stop offset="1" stop-color="#101824"/>
</linearGradient>
<linearGradient id="paint1_linear_10025_65516" x1="349.623" y1="420.699" x2="349.623" y2="457.098" gradientUnits="userSpaceOnUse">
<stop stop-color="#72707D"/>
<stop offset="1" stop-color="#101824"/>
</linearGradient>
<linearGradient id="paint2_linear_10025_65516" x1="165.501" y1="423.244" x2="165.501" y2="457.366" gradientUnits="userSpaceOnUse">
<stop stop-color="#72707D"/>
<stop offset="1" stop-color="#101824"/>
</linearGradient>
<linearGradient id="paint3_linear_10025_65516" x1="256.93" y1="137.271" x2="256.93" y2="210.414" gradientUnits="userSpaceOnUse">
<stop stop-color="#72707D"/>
<stop offset="1" stop-color="#101824"/>
</linearGradient>
<linearGradient id="paint4_linear_10025_65516" x1="256.931" y1="54.9863" x2="256.931" y2="118.986" gradientUnits="userSpaceOnUse">
<stop stop-color="#72707D"/>
<stop offset="1" stop-color="#101824"/>
</linearGradient>
<linearGradient id="paint5_linear_10025_65516" x1="256.929" y1="137.271" x2="256.929" y2="246.985" gradientUnits="userSpaceOnUse">
<stop stop-color="#72707D"/>
<stop offset="1" stop-color="#101824"/>
</linearGradient>
<linearGradient id="paint6_linear_10025_65516" x1="256.93" y1="265.271" x2="256.93" y2="338.414" gradientUnits="userSpaceOnUse">
<stop stop-color="#72707D"/>
<stop offset="1" stop-color="#101824"/>
</linearGradient>
<linearGradient id="paint7_linear_10025_65516" x1="256.93" y1="0.128906" x2="256.93" y2="36.7009" gradientUnits="userSpaceOnUse">
<stop stop-color="#72707D"/>
<stop offset="1" stop-color="#101824"/>
</linearGradient>
<linearGradient id="paint8_linear_10025_65516" x1="256.929" y1="265.271" x2="256.929" y2="374.985" gradientUnits="userSpaceOnUse">
<stop stop-color="#72707D"/>
<stop offset="1" stop-color="#101824"/>
</linearGradient>
<linearGradient id="paint9_linear_10025_65516" x1="256.93" y1="393.271" x2="256.93" y2="512.128" gradientUnits="userSpaceOnUse">
<stop stop-color="#72707D"/>
<stop offset="1" stop-color="#101824"/>
</linearGradient>
<clipPath id="clip0_10025_65516">
<rect width="512" height="512" fill="white" transform="translate(0.930176 0.128906)"/>
</clipPath>
</defs>
</svg>
