<svg width="512" height="512" viewBox="0 0 512 512" fill="none" xmlns="http://www.w3.org/2000/svg">
<path d="M256 81.92L232 272C222.945 261.876 211.846 253.789 199.434 248.273C187.023 242.757 173.582 239.937 160 240H128C114.418 239.937 100.977 242.757 88.5657 248.273C76.1542 253.789 65.0545 261.876 55.9999 272L31.9999 81.92C31.7265 79.6867 31.9272 77.4209 32.5889 75.2704C33.2506 73.12 34.3583 71.1333 35.8399 69.44C37.357 67.7129 39.2285 66.333 41.3268 65.3943C43.4252 64.4555 45.7012 63.98 47.9999 64C76.2873 62.2427 103.732 53.68 128 39.04V192C128 196.243 129.686 200.313 132.686 203.314C135.687 206.314 139.756 208 144 208C148.243 208 152.313 206.314 155.314 203.314C158.314 200.313 160 196.243 160 192V40.64C183.494 56.7577 211.525 64.9427 240 64C242.272 64.0029 244.517 64.4895 246.586 65.4275C248.655 66.3654 250.501 67.7333 252 69.44C253.51 71.12 254.647 73.1006 255.336 75.2516C256.026 77.4027 256.252 79.6753 256 81.92ZM456 240C446.945 250.124 435.846 258.211 423.434 263.727C411.023 269.243 397.582 272.063 384 272H352C338.418 272.063 324.977 269.243 312.566 263.727C300.154 258.211 289.055 250.124 280 240L256 430.08C255.727 432.313 255.927 434.579 256.589 436.73C257.251 438.88 258.358 440.867 259.84 442.56C261.357 444.287 263.228 445.667 265.327 446.606C267.425 447.544 269.701 448.02 272 448C300.275 449.825 327.704 458.383 352 472.96V320C352 315.757 353.686 311.687 356.686 308.686C359.687 305.686 363.756 304 368 304C372.243 304 376.313 305.686 379.314 308.686C382.314 311.687 384 315.757 384 320V471.52C407.425 455.242 435.492 446.99 464 448C466.272 447.997 468.517 447.51 470.586 446.572C472.655 445.634 474.501 444.267 476 442.56C477.481 440.867 478.589 438.88 479.251 436.73C479.913 434.579 480.113 432.313 479.84 430.08L456 240ZM160 272H128C111.026 272 94.7474 278.743 82.7451 290.745C70.7427 302.747 63.9999 319.026 63.9999 336V368C63.9999 389.217 72.4285 409.566 87.4314 424.569C102.434 439.571 122.783 448 144 448C165.217 448 185.566 439.571 200.568 424.569C215.571 409.566 224 389.217 224 368V336C224 319.026 217.257 302.747 205.255 290.745C193.252 278.743 176.974 272 160 272ZM368 64C346.783 64 326.434 72.4285 311.431 87.4314C296.428 102.434 288 122.783 288 144V176C288 192.974 294.743 209.252 306.745 221.255C318.747 233.257 335.026 240 352 240H384C400.974 240 417.252 233.257 429.255 221.255C441.257 209.252 448 192.974 448 176V144C448 122.783 439.571 102.434 424.568 87.4314C409.566 72.4285 389.217 64 368 64Z" fill="url(#paint0_linear_10025_21498)"/>
<defs>
<linearGradient id="paint0_linear_10025_21498" x1="255.92" y1="39.04" x2="255.92" y2="472.96" gradientUnits="userSpaceOnUse">
<stop stop-color="#72707D"/>
<stop offset="1" stop-color="#101824"/>
</linearGradient>
</defs>
</svg>
