<svg width="512" height="512" viewBox="0 0 512 512" fill="none" xmlns="http://www.w3.org/2000/svg">
<g clip-path="url(#clip0_10025_60070)">
<path d="M92.17 266.201C76.381 251.302 55.245 242 31.875 242H15C6.709 242 0 248.709 0 257V302C0 310.291 6.709 317 15 317C23.276 317 30 323.724 30 332V363.875C30 393.317 44.344 419.38 66.552 435.387C60.68 416.666 57.481 397.047 57.481 377C57.48 336.839 69.725 298.548 92.17 266.201Z" fill="url(#paint0_linear_10025_60070)"/>
<path d="M256 136C236.47 136 219.976 148.578 213.763 166H298.237C292.024 148.578 275.53 136 256 136Z" fill="url(#paint1_linear_10025_60070)"/>
<path d="M488.526 294.8C470.827 277.399 446.527 269.599 420.726 272C427.027 281.3 432.126 291.499 436.327 302C448.328 303.199 459.127 308 467.228 316.099C490.627 339.5 485.828 382.4 456.727 411.499C453.427 414.8 450.128 417.8 446.528 420.2C443.227 434.599 438.427 448.4 431.826 461.3C448.626 455.9 464.227 446.3 477.727 432.8C518.826 392 523.626 329.9 488.526 294.8Z" fill="url(#paint2_linear_10025_60070)"/>
<path d="M333.005 123.82C330.896 121.93 323 113.185 323 104.997C323 97.1451 330.456 88.5181 333.005 86.1741C335.056 84.3421 353 67.6141 353 44.9971C353 22.3801 335.056 5.6511 333.005 3.8201C326.882 -1.6879 317.375 -1.1899 311.823 4.9921C306.301 11.1591 306.828 20.6511 312.995 26.1741C315.104 28.0631 323 36.8081 323 44.9971C323 52.8491 315.544 61.4761 312.995 63.8201C310.944 65.6511 293 82.3801 293 104.997C293 127.614 310.944 144.343 312.995 146.174C319.143 151.691 328.649 151.186 334.177 145.002C339.699 138.835 339.172 129.343 333.005 123.82Z" fill="url(#paint3_linear_10025_60070)"/>
<path d="M198.005 123.82C195.896 121.93 188 113.185 188 104.997C188 97.1451 195.456 88.5181 198.005 86.1741C200.056 84.3421 218 67.6141 218 44.9971C218 22.3801 200.056 5.6511 198.005 3.8201C191.853 -1.6879 182.36 -1.1899 176.823 4.9921C171.301 11.1591 171.828 20.6511 177.995 26.1741C180.104 28.0631 188 36.8081 188 44.9971C188 52.8491 180.544 61.4761 177.995 63.8201C175.944 65.6511 158 82.3801 158 104.997C158 127.614 175.944 144.343 177.995 146.174C184.143 151.691 193.649 151.186 199.177 145.002C204.699 138.835 204.172 129.343 198.005 123.82Z" fill="url(#paint4_linear_10025_60070)"/>
<path d="M301 197H211C174.859 197 145.221 222.906 138.206 257H373.813C366.795 222.904 337.143 197 301 197Z" fill="url(#paint5_linear_10025_60070)"/>
<path d="M418.231 346.341C414.372 325.057 405.938 305.083 394.089 287H117.959C100.512 313.559 91 344.541 91 377C91 418.807 106.674 458.694 135.121 489.324C148.539 503.738 168.197 512 189.057 512H323.002C343.788 512 363.344 503.812 376.659 489.544C412.577 451.063 427.723 398.856 418.231 346.341Z" fill="url(#paint6_linear_10025_60070)"/>
</g>
<defs>
<linearGradient id="paint0_linear_10025_60070" x1="46.085" y1="242" x2="46.085" y2="435.387" gradientUnits="userSpaceOnUse">
<stop stop-color="#72707D"/>
<stop offset="1" stop-color="#101824"/>
</linearGradient>
<linearGradient id="paint1_linear_10025_60070" x1="256" y1="136" x2="256" y2="166" gradientUnits="userSpaceOnUse">
<stop stop-color="#72707D"/>
<stop offset="1" stop-color="#101824"/>
</linearGradient>
<linearGradient id="paint2_linear_10025_60070" x1="466.363" y1="271.575" x2="466.363" y2="461.3" gradientUnits="userSpaceOnUse">
<stop stop-color="#72707D"/>
<stop offset="1" stop-color="#101824"/>
</linearGradient>
<linearGradient id="paint3_linear_10025_60070" x1="323" y1="0" x2="323" y2="149.998" gradientUnits="userSpaceOnUse">
<stop stop-color="#72707D"/>
<stop offset="1" stop-color="#101824"/>
</linearGradient>
<linearGradient id="paint4_linear_10025_60070" x1="188" y1="0" x2="188" y2="149.998" gradientUnits="userSpaceOnUse">
<stop stop-color="#72707D"/>
<stop offset="1" stop-color="#101824"/>
</linearGradient>
<linearGradient id="paint5_linear_10025_60070" x1="256.01" y1="197" x2="256.01" y2="257" gradientUnits="userSpaceOnUse">
<stop stop-color="#72707D"/>
<stop offset="1" stop-color="#101824"/>
</linearGradient>
<linearGradient id="paint6_linear_10025_60070" x1="256.001" y1="287" x2="256.001" y2="512" gradientUnits="userSpaceOnUse">
<stop stop-color="#72707D"/>
<stop offset="1" stop-color="#101824"/>
</linearGradient>
<clipPath id="clip0_10025_60070">
<rect width="512" height="512" fill="white"/>
</clipPath>
</defs>
</svg>
