<svg width="512" height="512" viewBox="0 0 512 512" fill="none" xmlns="http://www.w3.org/2000/svg">
<path d="M406 61H316V45C316 20.186 295.814 0 271 0H241C216.186 0 196 20.186 196 45V61H106C89.462 61 76 74.462 76 91C76 107.538 89.462 121 106 121H406C422.538 121 436 107.538 436 91C436 74.462 422.538 61 406 61ZM286 61H226V45C226 36.724 232.724 30 241 30H271C279.276 30 286 36.724 286 45V61Z" fill="url(#paint0_linear_10025_60092)"/>
<path d="M339.101 297.386C299.313 313.91 256 284.462 256 242C206.371 242 166 282.371 166 332C166 381.629 206.371 422 256 422C305.629 422 346 381.629 346 332C346 320.032 343.642 308.284 339.101 297.386ZM211 302C211 293.714 217.716 287 226 287C234.284 287 241 293.714 241 302C241 310.284 234.284 317 226 317C217.716 317 211 310.284 211 302ZM241 392C232.716 392 226 385.284 226 377C226 368.714 232.716 362 241 362C249.284 362 256 368.714 256 377C256 385.284 249.284 392 241 392ZM301 362C292.716 362 286 355.284 286 347C286 338.714 292.716 332 301 332C309.284 332 316 338.714 316 347C316 355.284 309.284 362 301 362Z" fill="url(#paint1_linear_10025_60092)"/>
<path d="M406 151H106C89.431 151 76 164.432 76 181V467C76 491.853 96.147 512 121 512H391C415.853 512 436 491.853 436 467V181C436 164.432 422.569 151 406 151ZM362.223 388.737C347.573 417.626 320.232 439.194 288.946 447.586C201.742 470.977 123.484 397.854 137.673 311.719C145.836 262.167 186.234 221.714 235.802 213.648C249.438 211.429 262.84 211.49 275.541 213.597C284.548 215.067 290.158 224.236 287.392 232.933C278.35 261.349 312.402 284.33 335.366 264.925C342.194 259.093 352.845 260.543 357.778 268.411C379.733 303.475 382.617 348.522 362.223 388.737Z" fill="url(#paint2_linear_10025_60092)"/>
<defs>
<linearGradient id="paint0_linear_10025_60092" x1="256" y1="0" x2="256" y2="121" gradientUnits="userSpaceOnUse">
<stop stop-color="#72707D"/>
<stop offset="1" stop-color="#101824"/>
</linearGradient>
<linearGradient id="paint1_linear_10025_60092" x1="256" y1="242" x2="256" y2="422" gradientUnits="userSpaceOnUse">
<stop stop-color="#72707D"/>
<stop offset="1" stop-color="#101824"/>
</linearGradient>
<linearGradient id="paint2_linear_10025_60092" x1="256" y1="151" x2="256" y2="512" gradientUnits="userSpaceOnUse">
<stop stop-color="#72707D"/>
<stop offset="1" stop-color="#101824"/>
</linearGradient>
</defs>
</svg>
