<svg width="512" height="512" viewBox="0 0 512 512" fill="none" xmlns="http://www.w3.org/2000/svg">
<path d="M229.206 267.923C219.372 258.207 207.996 255.267 194.813 254.74C194.813 267.627 198.925 279.979 207.996 289.133C217.247 298.47 229.191 301.901 242.33 302.257C242.383 289.625 238.411 277.043 229.206 267.923Z" fill="url(#paint0_linear_10025_60102)"/>
<path d="M317.312 254.74C304.456 254.741 292.158 258.825 282.948 267.923C276.656 274.157 273.238 281.312 271.283 289.796C271.834 293.482 272.136 297.496 272.155 301.893C284.647 301.342 295.131 298.245 304.158 289.133C313.114 280.094 317.37 267.517 317.341 254.74C317.326 254.74 317.312 254.74 317.312 254.74Z" fill="url(#paint1_linear_10025_60102)"/>
<path d="M440.908 199.08C435.781 184.271 432.296 172.158 429.937 160.952C425.046 137.713 422.975 113.952 421.979 90.9951H301.053V180.99C301.053 194.365 284.83 200.976 275.449 191.594L256.055 172.2L236.661 191.594C227.291 200.995 211.057 194.372 211.057 180.99V90.9951H90.4182C89.6272 114.095 87.7142 137.81 82.3192 160.6C82.3192 160.6 82.3192 160.6 82.3192 160.615C79.6682 171.835 76.1232 183.129 72.1542 194.495C46.0172 269.341 39.2402 346.551 51.3312 420.976H460.767C472.558 347.591 466.099 271.944 440.908 199.08ZM325.455 310.254C311.076 324.766 291.565 331.88 271.054 332.151V375.979C271.054 384.27 264.345 390.978 256.055 390.978C247.765 390.978 241.056 384.269 241.056 375.979V332.156C218.757 331.876 199.818 323.496 186.699 310.256C168.014 291.399 161.786 264.617 166.28 238.453C167.349 232.183 172.257 227.277 178.525 226.208C207.796 221.158 236.895 229.072 256.084 253.903C275.238 229.088 304.269 221.15 333.629 226.208C339.899 227.277 344.805 232.185 345.874 238.453C350.926 267.868 342.074 293.483 325.455 310.254Z" fill="url(#paint2_linear_10025_60102)"/>
<path d="M421.046 14.999C421.046 6.709 414.337 0 406.047 0H106.064C97.7729 0 91.0649 6.709 91.0649 14.999V48.102C91.0649 51.955 91.2159 56.04 91.2049 59.996H420.976C420.932 54.975 421.046 49.825 421.046 44.997V14.999Z" fill="url(#paint3_linear_10025_60102)"/>
<path d="M57.1758 451.973C59.4368 461.604 61.8228 471.216 64.7428 480.712C70.4108 499.14 88.0608 512 107.689 512H404.567H404.611C424.283 512 441.933 499.081 447.544 480.566C450.413 471.105 452.763 461.55 454.985 451.974H57.1758V451.973Z" fill="url(#paint4_linear_10025_60102)"/>
<path d="M241.056 90.9951V144.781C245.961 139.876 248.94 135.992 256.055 135.992C263.17 135.992 266.149 139.876 271.054 144.781V90.9951H241.056Z" fill="url(#paint5_linear_10025_60102)"/>
<defs>
<linearGradient id="paint0_linear_10025_60102" x1="218.572" y1="254.74" x2="218.572" y2="302.257" gradientUnits="userSpaceOnUse">
<stop stop-color="#72707D"/>
<stop offset="1" stop-color="#101824"/>
</linearGradient>
<linearGradient id="paint1_linear_10025_60102" x1="294.312" y1="254.74" x2="294.312" y2="301.893" gradientUnits="userSpaceOnUse">
<stop stop-color="#72707D"/>
<stop offset="1" stop-color="#101824"/>
</linearGradient>
<linearGradient id="paint2_linear_10025_60102" x1="256" y1="90.9951" x2="256" y2="420.976" gradientUnits="userSpaceOnUse">
<stop stop-color="#72707D"/>
<stop offset="1" stop-color="#101824"/>
</linearGradient>
<linearGradient id="paint3_linear_10025_60102" x1="256.055" y1="0" x2="256.055" y2="59.996" gradientUnits="userSpaceOnUse">
<stop stop-color="#72707D"/>
<stop offset="1" stop-color="#101824"/>
</linearGradient>
<linearGradient id="paint4_linear_10025_60102" x1="256.08" y1="451.973" x2="256.08" y2="512" gradientUnits="userSpaceOnUse">
<stop stop-color="#72707D"/>
<stop offset="1" stop-color="#101824"/>
</linearGradient>
<linearGradient id="paint5_linear_10025_60102" x1="256.055" y1="90.9951" x2="256.055" y2="144.781" gradientUnits="userSpaceOnUse">
<stop stop-color="#72707D"/>
<stop offset="1" stop-color="#101824"/>
</linearGradient>
</defs>
</svg>
