<svg width="513" height="513" viewBox="0 0 513 513" fill="none" xmlns="http://www.w3.org/2000/svg">
<g clip-path="url(#clip0_10025_65545)">
<path d="M511.279 18.8259C513.845 13.8489 512.989 7.79387 509.146 3.72187C505.043 -0.129126 498.962 -0.983126 493.957 1.58887C471.669 12.1319 451.373 26.4509 433.968 43.9139L417.072 60.8099L407.429 51.1669C395.619 39.8599 376.999 39.8599 365.189 51.1669C359.563 56.7549 356.399 64.3569 356.399 72.2869C356.399 80.2169 359.563 87.8189 365.189 93.4069L374.234 102.452L362.202 114.569H362.117L350.085 102.452C340.091 92.4679 323.898 92.4679 313.904 102.452L253.573 162.783C243.589 172.777 243.589 188.97 253.573 198.964L265.605 211.081L253.573 223.198H253.488L241.456 211.081C228.002 198.111 206.697 198.111 193.243 211.081C186.8 217.448 183.174 226.129 183.174 235.188C183.174 244.247 186.8 252.928 193.243 259.295L205.275 271.327L189.659 286.943C164.046 276.134 134.438 281.921 114.78 301.579C95.1221 321.237 89.3351 350.845 100.144 376.458L80.5171 396.17C52.6461 386.24 21.7071 398.215 7.78414 424.321C-6.13886 450.427 1.15314 482.792 24.9261 500.405C48.6991 518.018 81.7851 515.568 102.704 494.645C118.963 478.202 124.486 453.959 116.955 432.096L136.411 412.725C162.024 423.534 191.632 417.747 211.29 398.089C230.948 378.431 236.735 348.823 225.926 323.21L241.542 307.594L253.574 319.626C262.174 328.3 274.758 331.71 286.561 328.566C298.364 325.421 307.583 316.203 310.728 304.399C313.873 292.595 310.462 280.012 301.788 271.412L289.756 259.38L301.788 247.263H301.873L313.905 259.295C318.698 264.102 325.207 266.804 331.996 266.804C338.784 266.804 345.294 264.102 350.087 259.295L410.418 198.964C420.402 188.97 420.402 172.777 410.418 162.783L398.386 150.751L410.418 138.634L419.463 147.679C427.002 155.257 438.016 158.228 448.343 155.47C458.67 152.712 466.736 144.646 469.494 134.319C472.252 123.992 469.281 112.978 461.703 105.439L452.06 95.7959L468.956 78.8999C486.438 61.4799 500.759 41.1529 511.279 18.8259ZM78.5541 470.495C73.7611 475.302 67.2521 478.004 60.4631 478.004C53.6741 478.004 47.1651 475.302 42.3721 470.495C32.3811 460.504 32.3811 444.305 42.3721 434.314C52.3631 424.323 68.5621 424.323 78.5531 434.314C88.5451 444.305 88.5451 460.504 78.5541 470.495ZM167.829 327.783C166.619 330.576 164.009 332.509 160.985 332.853C157.196 333.277 153.67 334.995 151.001 337.717C147.675 341.041 142.287 341.049 138.95 337.736C135.613 334.423 135.584 329.035 138.884 325.685C144.298 320.251 151.4 316.82 159.023 315.957C162.045 315.598 165.029 316.882 166.847 319.323C168.664 321.764 169.039 324.99 167.829 327.783ZM216.964 308.021C213.513 303.433 209.434 299.354 204.847 295.904L217.391 283.445L229.423 295.477L216.964 308.021ZM289.839 235.317L277.722 247.349H277.637L265.605 235.232L277.637 223.115H277.722L289.839 235.232V235.317ZM355.631 168.245C352.277 171.572 346.868 171.572 343.514 168.245L331.994 156.725L320.389 168.33C318.799 169.906 316.654 170.794 314.416 170.805C312.152 170.796 309.98 169.909 308.357 168.33C305.029 164.976 305.029 159.566 308.357 156.213L319.962 144.693C323.15 141.497 327.48 139.701 331.994 139.701C336.508 139.701 340.838 141.497 344.026 144.693L355.631 156.213C357.229 157.807 358.126 159.972 358.126 162.229C358.126 164.486 357.229 166.65 355.631 168.245ZM386.266 138.634L374.234 126.602L386.266 114.485L398.298 126.602L386.266 138.634ZM440.026 83.7649L429.188 72.9269L445.999 56.0309C459.143 42.8849 474.048 31.6279 490.287 22.5799C481.247 38.8239 469.988 53.7299 456.836 66.8679L440.026 83.7649Z" fill="url(#paint0_linear_10025_65545)"/>
</g>
<defs>
<linearGradient id="paint0_linear_10025_65545" x1="256.75" y1="0.117187" x2="256.75" y2="512.14" gradientUnits="userSpaceOnUse">
<stop stop-color="#72707D"/>
<stop offset="1" stop-color="#101824"/>
</linearGradient>
<clipPath id="clip0_10025_65545">
<rect width="512.022" height="512.022" fill="white" transform="translate(0.738281 0.117188)"/>
</clipPath>
</defs>
</svg>
