<svg width="512" height="512" viewBox="0 0 512 512" fill="none" xmlns="http://www.w3.org/2000/svg">
<path d="M57.9198 135.2C51.9153 129.196 48.542 121.052 48.542 112.56C48.542 104.068 51.9153 95.9245 57.9198 89.92C63.9243 83.9155 72.0681 80.5422 80.5598 80.5422C89.0514 80.5422 97.1953 83.9155 103.2 89.92L125.28 112H192C230.56 111.942 268.363 122.696 301.12 143.04L254.08 190.08C234.696 180.814 213.484 176.003 192 176H112C103.527 175.964 95.4134 172.569 89.4398 166.56L57.9198 135.2ZM400 386.72V320C400.057 281.44 389.304 243.636 368.96 210.88L321.92 257.92C331.185 277.304 335.996 298.515 336 320V400C336.036 408.473 339.43 416.586 345.44 422.56L387.52 464.8C392.899 470.404 400.076 473.939 407.798 474.787C415.519 475.635 423.293 473.743 429.76 469.44C433.573 466.75 436.752 463.26 439.073 459.212C441.395 455.164 442.803 450.658 443.2 446.008C443.596 441.359 442.971 436.679 441.368 432.297C439.765 427.915 437.223 423.936 433.92 420.64L400 386.72ZM208 390.56C208 390.56 209.76 414.88 202.56 422.56L316.48 438.56C309.031 428.508 304.692 416.492 304 404L208 390.56ZM74.0798 195.52L90.0798 309.44C100.116 304.955 111.125 303.083 122.08 304L108.64 208C96.1476 207.308 84.1323 202.969 74.0798 195.52ZM475.36 36.64C473.291 34.611 470.709 33.182 467.891 32.5056C465.073 31.8293 462.124 31.9311 459.36 32.8L363.36 64.8C360.761 65.6588 358.425 67.17 356.577 69.1892C354.729 71.2084 353.429 73.6681 352.803 76.3329C352.177 78.9977 352.245 81.7786 353.001 84.4096C353.757 87.0406 355.175 89.4337 357.12 91.36L377.44 112L153.44 336H112C107.764 336.059 103.706 337.716 100.64 340.64L36.6398 404.64C34.4197 406.89 32.9157 409.747 32.3177 412.851C31.7198 415.955 32.0545 419.166 33.2798 422.08C34.4801 425.002 36.5185 427.503 39.138 429.268C41.7575 431.034 44.841 431.984 47.9998 432H79.9998V464C80.0156 467.159 80.966 470.242 82.7313 472.862C84.4967 475.481 86.9979 477.52 89.9198 478.72C92.8336 479.945 96.045 480.28 99.1488 479.682C102.253 479.084 105.11 477.58 107.36 475.36L171.36 411.36C174.284 408.294 175.941 404.236 176 400V358.56L400 134.56L420.64 155.36C422.583 157.28 424.986 158.67 427.618 159.398C430.251 160.126 433.026 160.168 435.68 159.52C438.441 158.959 441.016 157.712 443.169 155.894C445.322 154.077 446.983 151.748 448 149.12L480 53.12C480.867 50.2157 480.891 47.1248 480.069 44.2072C479.248 41.2896 477.615 38.6654 475.36 36.64Z" fill="url(#paint0_linear_10025_21504)"/>
<defs>
<linearGradient id="paint0_linear_10025_21504" x1="256.349" y1="32.0638" x2="256.349" y2="479.971" gradientUnits="userSpaceOnUse">
<stop stop-color="#72707D"/>
<stop offset="1" stop-color="#101824"/>
</linearGradient>
</defs>
</svg>
