<svg width="513" height="513" viewBox="0 0 513 513" fill="none" xmlns="http://www.w3.org/2000/svg">
<g clip-path="url(#clip0_10025_65568)">
<path d="M82.487 148.342C83.278 155.72 86.504 162.624 91.656 167.965C100.669 176.226 113.162 179.539 125.085 176.831C126.363 176.609 127.673 176.67 128.925 177.008C136.181 168.338 143.736 159.805 151.924 151.616C153.089 150.451 154.322 149.408 155.498 148.262C148.966 144.306 143.425 138.908 139.299 132.482C130.383 117.47 129.132 99.1152 135.931 83.0332C122.57 85.1672 110.255 91.5562 100.817 101.25C94.744 107.317 89.897 114.498 86.541 122.4C86.184 123.244 85.787 124.086 85.474 124.931C84.957 126.33 84.547 127.738 84.146 129.147C83.932 129.895 83.696 130.645 83.516 131.39C83.164 132.858 82.909 134.325 82.688 135.79C82.586 136.462 82.474 137.135 82.401 137.801C82.24 139.281 82.167 140.751 82.145 142.215C82.136 142.861 82.127 143.507 82.146 144.145C82.186 145.56 82.309 146.958 82.487 148.342Z" fill="url(#paint0_linear_10025_65568)"/>
<path d="M169.564 135.06C186.592 120.033 204.96 106.595 224.436 94.9147C217.094 87.5867 212.184 78.1787 210.37 67.9657C209.344 61.6997 209.531 55.2937 210.919 49.0977C199.336 49.5987 188.093 53.1607 178.336 59.4227L178.263 59.4927C177.508 59.9727 176.809 60.4997 176.08 61.0017C175.159 61.6347 174.235 62.2627 173.349 62.9397C172.559 63.5417 171.813 64.1727 171.059 64.7997C170.018 65.6727 168.993 66.5617 168.011 67.4937C167.583 67.8947 167.152 68.2947 166.738 68.7037C163.591 71.8347 160.783 75.2887 158.362 79.0097C158.271 79.1497 158.138 79.2447 158.041 79.3787C148.566 91.9397 147.286 108.872 154.764 122.715C158.347 128.221 163.504 132.522 169.564 135.06Z" fill="url(#paint1_linear_10025_65568)"/>
<path d="M241.226 85.5236C263.783 73.4916 287.708 64.2216 312.483 57.9146C306.893 45.6976 306.124 31.8196 310.332 19.0596C298.911 14.2286 286.321 12.8596 274.129 15.1246C265.707 16.6056 257.652 19.7056 250.41 24.2526C249.027 25.1266 247.688 26.0356 246.418 26.9926C245.869 27.4046 245.334 27.8286 244.805 28.2576C243.552 29.2746 242.362 30.3276 241.235 31.4186C240.771 31.8676 240.317 32.3206 239.873 32.7826C238.812 33.8906 237.822 35.0326 236.892 36.1986C236.468 36.7316 236.052 37.2666 235.654 37.8126C234.845 38.9226 234.113 40.0586 233.425 41.2076C233.015 41.8956 232.618 42.5876 232.25 43.2926C228.618 49.8566 227.26 57.4386 228.388 64.8556C229.954 73.1006 234.53 80.4666 241.226 85.5236Z" fill="url(#paint2_linear_10025_65568)"/>
<path d="M391.273 50.4515C391.984 37.8005 397.262 25.8375 406.129 16.7855C407.06 15.8545 408.087 15.0535 409.079 14.2055C404.317 10.4705 399.061 7.41452 393.46 5.12452C368.417 -5.17448 340.712 1.01751 330.212 19.2105C329.509 20.3845 328.882 21.6025 328.335 22.8565C324.458 33.0625 325.417 44.4765 330.943 53.8925C350.832 50.2495 371.098 49.0935 391.273 50.4515Z" fill="url(#paint3_linear_10025_65568)"/>
<path d="M65.4232 244.912C70.1762 247.876 75.6242 249.542 81.2222 249.742C90.6202 230.769 101.683 212.668 114.279 195.649C100.986 195.415 88.2792 190.141 78.7272 180.893C74.6142 176.765 71.2612 171.944 68.8212 166.652C65.4132 170.083 62.3802 173.866 59.7722 177.938C54.8962 185.61 51.6182 194.188 50.1352 203.157C49.8552 204.943 49.6472 206.709 49.5362 208.448C49.5162 208.734 49.4842 209.021 49.4692 209.306C47.9192 223.193 54.0282 236.826 65.4232 244.912Z" fill="url(#paint4_linear_10025_65568)"/>
<path d="M18.2499 307.841C19.3509 310.686 20.7059 313.427 22.2959 316.031C27.3209 325.015 36.0309 331.345 46.1279 333.35C48.6569 333.741 51.2239 333.827 53.7729 333.603C57.6509 310.775 64.1819 288.477 73.2319 267.163C66.9949 266.048 61.0299 263.744 55.6629 260.376C46.8959 254.735 40.0669 246.543 36.0969 236.904C25.0389 246.37 17.7049 259.458 15.4039 273.831C13.3769 284.793 14.2189 296.092 17.8469 306.633C17.9899 307.029 18.1019 307.452 18.2499 307.841Z" fill="url(#paint5_linear_10025_65568)"/>
<path d="M21.6373 416.618C25.9063 420.531 30.8093 423.689 36.1383 425.957C42.6733 428.835 49.9103 429.725 56.9473 428.518C50.5783 403.569 48.6663 377.691 51.2973 352.077C48.5243 352.072 45.7563 351.835 43.0233 351.368C31.5343 349.235 21.1073 343.269 13.4463 334.445C0.0543127 347.071 -3.66069 371.151 5.38831 393.135C6.25331 395.246 7.22631 397.311 8.30331 399.321C8.56531 399.816 8.86131 400.281 9.13331 400.767C10.0093 402.319 10.9253 403.843 11.9153 405.307C12.1863 405.71 12.4693 406.098 12.7473 406.492C13.8953 408.108 15.0973 409.674 16.3773 411.161C16.5143 411.321 16.6483 411.484 16.7863 411.642C18.2753 413.343 19.8593 414.96 21.5303 416.483L21.6373 416.618Z" fill="url(#paint6_linear_10025_65568)"/>
<path d="M486.441 37.51C478.576 29.516 468.735 23.747 457.919 20.788C456.676 21.07 455.387 21.085 454.138 20.831C441.695 17.678 428.5 21.019 419.058 29.715C413.111 35.875 409.656 44.019 409.36 52.576C428.693 55.553 447.439 61.545 464.915 70.331C467.833 71.811 469.739 74.737 469.912 78.004C470.086 81.271 468.501 84.383 465.756 86.164C463.011 87.945 459.524 88.124 456.611 86.634C373.201 44.143 253.209 76.188 164.852 164.545C76.5041 252.894 44.4591 372.894 86.9411 456.358C89.2131 460.858 87.4151 466.347 82.9211 468.631C78.4271 470.915 72.9331 469.131 70.6371 464.644C67.5661 458.553 64.8471 452.291 62.4931 445.889C58.7221 446.807 54.8581 447.291 50.9761 447.332C43.4591 447.292 36.0251 445.766 29.1011 442.841C25.9971 441.51 23.0001 439.943 20.1361 438.155C18.0381 456.056 24.5941 473.885 37.7891 486.163C59.5661 507.922 84.6551 516.413 108.459 510.029C143.11 500.788 232.03 437.583 334.95 334.672C437.861 231.752 501.066 142.833 510.307 108.19C516.682 84.385 508.209 59.287 486.441 37.51ZM324.924 306.885C289.268 342.802 251.822 376.896 212.727 409.037C208.812 412.227 203.051 411.64 199.861 407.724C196.671 403.809 197.258 398.048 201.174 394.858C239.791 363.113 276.778 329.436 311.995 293.956C315.565 290.386 321.353 290.386 324.924 293.956C328.493 297.526 328.493 303.315 324.924 306.885ZM377.307 252.18C371.744 258.26 366.012 264.43 360.111 270.689C357.873 273.084 354.524 274.098 351.333 273.347C348.142 272.596 345.597 270.195 344.663 267.053C343.728 263.911 344.546 260.509 346.807 258.136C352.655 251.948 358.322 245.85 363.807 239.841C366.01 237.426 369.335 236.371 372.528 237.073C375.721 237.776 378.296 240.129 379.282 243.246C380.268 246.362 379.515 249.769 377.307 252.18Z" fill="url(#paint7_linear_10025_65568)"/>
</g>
<defs>
<linearGradient id="paint0_linear_10025_65568" x1="118.816" y1="83.0332" x2="118.816" y2="177.757" gradientUnits="userSpaceOnUse">
<stop stop-color="#72707D"/>
<stop offset="1" stop-color="#101824"/>
</linearGradient>
<linearGradient id="paint1_linear_10025_65568" x1="187.183" y1="49.0977" x2="187.183" y2="135.06" gradientUnits="userSpaceOnUse">
<stop stop-color="#72707D"/>
<stop offset="1" stop-color="#101824"/>
</linearGradient>
<linearGradient id="paint2_linear_10025_65568" x1="270.243" y1="14.0605" x2="270.243" y2="85.5236" gradientUnits="userSpaceOnUse">
<stop stop-color="#72707D"/>
<stop offset="1" stop-color="#101824"/>
</linearGradient>
<linearGradient id="paint3_linear_10025_65568" x1="367.533" y1="0.154297" x2="367.533" y2="53.8925" gradientUnits="userSpaceOnUse">
<stop stop-color="#72707D"/>
<stop offset="1" stop-color="#101824"/>
</linearGradient>
<linearGradient id="paint4_linear_10025_65568" x1="81.7553" y1="166.652" x2="81.7553" y2="249.742" gradientUnits="userSpaceOnUse">
<stop stop-color="#72707D"/>
<stop offset="1" stop-color="#101824"/>
</linearGradient>
<linearGradient id="paint5_linear_10025_65568" x1="43.7791" y1="236.904" x2="43.7791" y2="333.725" gradientUnits="userSpaceOnUse">
<stop stop-color="#72707D"/>
<stop offset="1" stop-color="#101824"/>
</linearGradient>
<linearGradient id="paint6_linear_10025_65568" x1="28.6885" y1="334.445" x2="28.6885" y2="429.042" gradientUnits="userSpaceOnUse">
<stop stop-color="#72707D"/>
<stop offset="1" stop-color="#101824"/>
</linearGradient>
<linearGradient id="paint7_linear_10025_65568" x1="266.063" y1="19.666" x2="266.063" y2="512.1" gradientUnits="userSpaceOnUse">
<stop stop-color="#72707D"/>
<stop offset="1" stop-color="#101824"/>
</linearGradient>
<clipPath id="clip0_10025_65568">
<rect width="511.947" height="511.947" fill="white" transform="translate(0.429688 0.154297)"/>
</clipPath>
</defs>
</svg>
