<svg width="512" height="512" viewBox="0 0 512 512" fill="none" xmlns="http://www.w3.org/2000/svg">
<path d="M337.12 384L93.28 140.16L190.08 44.16C193.576 40.3823 197.805 37.3559 202.509 35.2654C207.213 33.1748 212.293 32.0638 217.44 32C227.667 32 237.475 36.0626 244.706 43.294C251.937 50.5254 256 60.3333 256 70.56C256 85.794 262.052 100.404 272.824 111.176C283.596 121.948 298.206 128 313.44 128H336C344.487 128 352.626 131.371 358.627 137.373C364.629 143.374 368 151.513 368 160V192H320C315.757 192 311.687 193.686 308.686 196.686C305.686 199.687 304 203.757 304 208C304 212.243 305.686 216.313 308.686 219.314C311.687 222.314 315.757 224 320 224H368V256H320C315.757 256 311.687 257.686 308.686 260.686C305.686 263.687 304 267.757 304 272C304 276.243 305.686 280.313 308.686 283.314C311.687 286.314 315.757 288 320 288H384C409.461 288 433.879 298.114 451.882 316.118C469.886 334.121 480 358.539 480 384H337.12ZM320 411.36L70.72 162.88L59.36 174.08C50.3712 183.08 45.3222 195.28 45.3222 208C45.3222 220.72 50.3712 232.92 59.36 241.92L273.92 456.64C281.363 464.064 290.196 469.949 299.915 473.957C309.634 477.965 320.047 480.019 330.56 480H432C444.73 480 456.939 474.943 465.941 465.941C474.943 456.939 480 444.73 480 432V416H330.56C326.603 415.748 322.862 414.104 320 411.36ZM208 448H48C43.7565 448 39.6869 449.686 36.6863 452.686C33.6857 455.687 32 459.757 32 464C32 468.243 33.6857 472.313 36.6863 475.314C39.6869 478.314 43.7565 480 48 480H208C212.243 480 216.313 478.314 219.314 475.314C222.314 472.313 224 468.243 224 464C224 459.757 222.314 455.687 219.314 452.686C216.313 449.686 212.243 448 208 448ZM48 384H112C116.243 384 120.313 382.314 123.314 379.314C126.314 376.313 128 372.243 128 368C128 363.757 126.314 359.687 123.314 356.686C120.313 353.686 116.243 352 112 352H48C43.7565 352 39.6869 353.686 36.6863 356.686C33.6857 359.687 32 363.757 32 368C32 372.243 33.6857 376.313 36.6863 379.314C39.6869 382.314 43.7565 384 48 384Z" fill="url(#paint0_linear_10025_21510)"/>
<defs>
<linearGradient id="paint0_linear_10025_21510" x1="256" y1="32" x2="256" y2="480" gradientUnits="userSpaceOnUse">
<stop stop-color="#72707D"/>
<stop offset="1" stop-color="#101824"/>
</linearGradient>
</defs>
</svg>
