<svg width="512" height="512" viewBox="0 0 512 512" fill="none" xmlns="http://www.w3.org/2000/svg">
<path d="M256 32C211.697 32 168.389 45.1374 131.552 69.7508C94.7158 94.3642 66.0051 129.348 49.0511 170.279C32.0971 211.21 27.6611 256.248 36.3042 299.7C44.9473 343.152 66.2812 383.065 97.6082 414.392C128.935 445.719 168.848 467.053 212.3 475.696C255.752 484.339 300.791 479.903 341.721 462.949C382.652 445.995 417.636 417.284 442.249 380.448C466.863 343.611 480 300.303 480 256C480 196.592 456.4 139.616 414.392 97.6081C372.384 55.5999 315.409 32 256 32ZM144 304C137.671 304 131.484 302.123 126.222 298.607C120.959 295.091 116.858 290.093 114.436 284.246C112.014 278.399 111.38 271.965 112.615 265.757C113.85 259.55 116.897 253.848 121.373 249.373C125.848 244.897 131.55 241.85 137.757 240.615C143.965 239.38 150.399 240.014 156.246 242.436C162.093 244.858 167.091 248.959 170.607 254.222C174.123 259.484 176 265.671 176 272C176 280.487 172.629 288.626 166.628 294.627C160.626 300.629 152.487 304 144 304ZM208 192C201.671 192 195.484 190.123 190.222 186.607C184.959 183.091 180.858 178.093 178.436 172.246C176.014 166.399 175.38 159.965 176.615 153.757C177.85 147.55 180.897 141.848 185.373 137.373C189.848 132.897 195.55 129.85 201.757 128.615C207.965 127.38 214.399 128.014 220.246 130.436C226.093 132.858 231.091 136.959 234.607 142.222C238.123 147.484 240 153.671 240 160C240 168.487 236.629 176.626 230.628 182.627C224.626 188.629 216.487 192 208 192ZM272 304C265.671 304 259.484 302.123 254.222 298.607C248.959 295.091 244.858 290.093 242.436 284.246C240.014 278.399 239.38 271.965 240.615 265.757C241.85 259.55 244.897 253.848 249.373 249.373C253.848 244.897 259.55 241.85 265.757 240.615C271.965 239.38 278.399 240.014 284.246 242.436C290.093 244.858 295.091 248.959 298.607 254.222C302.123 259.484 304 265.671 304 272C304 280.487 300.629 288.626 294.628 294.627C288.626 300.629 280.487 304 272 304Z" fill="url(#paint0_linear_10025_21513)"/>
<defs>
<linearGradient id="paint0_linear_10025_21513" x1="256" y1="32" x2="256" y2="480" gradientUnits="userSpaceOnUse">
<stop stop-color="#72707D"/>
<stop offset="1" stop-color="#101824"/>
</linearGradient>
</defs>
</svg>
