<svg width="513" height="513" viewBox="0 0 513 513" fill="none" xmlns="http://www.w3.org/2000/svg">
<g clip-path="url(#clip0_10025_65588)">
<path d="M281.916 281.975C271.385 292.511 269.095 307.877 275.112 327.654C277.164 336.437 281.65 344.464 288.054 350.815C288.401 351.162 288.68 351.53 289.02 351.879L351.816 289.079C351.469 288.741 351.103 288.464 350.759 288.119C344.409 281.712 336.38 277.227 327.594 275.182C307.831 269.154 292.456 271.439 281.916 281.975Z" fill="url(#paint0_linear_10025_65588)"/>
<path d="M230.416 230.474C240.947 219.938 243.237 204.572 237.22 184.795C234.398 175.818 229.59 167.593 223.153 160.729L162.501 221.385L162.5 221.386L160.67 223.216C167.536 229.648 175.762 234.451 184.738 237.269C204.514 243.304 219.875 241.019 230.416 230.474Z" fill="url(#paint1_linear_10025_65588)"/>
<path d="M503.264 194.84C498.032 189.973 491.238 187.128 484.099 186.813C479.37 186.603 475.583 182.819 475.371 178.09C474.691 162.519 462.223 150.049 446.652 149.367C441.92 149.162 438.129 145.375 437.92 140.644C437.248 125.071 424.779 112.597 409.206 111.921C408.678 111.841 408.159 111.712 407.655 111.536C407.139 111.453 406.63 111.327 406.135 111.159C405.526 110.877 404.951 110.527 404.422 110.114C403.441 109.572 402.643 108.752 402.127 107.757C401.791 107.31 401.498 106.832 401.253 106.33C401.048 105.76 400.901 105.17 400.815 104.57C400.663 104.123 400.549 103.664 400.474 103.199C399.795 87.6229 387.323 75.1489 371.746 74.4669C367.019 74.2539 363.236 70.4699 363.023 65.7439C362.347 50.1689 349.875 37.6969 334.3 37.0209C329.574 36.8059 325.792 33.0239 325.577 28.2979C325.261 21.1549 322.416 14.3579 317.55 9.11893C312.097 3.42793 304.552 0.217926 296.67 0.234926C287.273 -0.107074 278.17 3.54493 271.616 10.2889L254.37 27.5299C208.473 73.4319 201.736 113.244 234.348 145.851C243.787 155.222 250.779 166.769 254.71 179.476C262.732 205.842 258.804 227.949 243.344 243.405C227.88 258.878 205.764 262.78 179.411 254.771C166.708 250.838 155.163 243.848 145.79 234.414C113.178 201.798 73.3661 208.53 27.4731 254.432L10.2231 271.682C3.63508 278.331 0.0100809 287.359 0.169081 296.718C0.153081 304.606 3.36808 312.156 9.06608 317.611C14.2981 322.478 21.0921 325.323 28.2311 325.638C32.9601 325.848 36.7471 329.632 36.9591 334.361C37.6391 349.932 50.1071 362.402 65.6781 363.084C70.4101 363.289 74.2011 367.076 74.4101 371.807C75.0821 387.38 87.5511 399.854 103.124 400.53C103.48 400.595 103.832 400.683 104.178 400.792C104.919 400.874 105.645 401.054 106.338 401.328C106.754 401.539 107.152 401.783 107.529 402.057C109.725 403.265 111.211 405.453 111.523 407.94C111.668 408.368 111.78 408.808 111.856 409.254C112.535 424.83 125.007 437.304 140.584 437.986C145.311 438.199 149.094 441.983 149.307 446.709C149.983 462.284 162.455 474.756 178.03 475.432C182.756 475.647 186.538 479.429 186.753 484.155C187.069 491.298 189.914 498.095 194.78 503.334C200.233 509.025 207.778 512.235 215.659 512.218C215.86 512.227 216.056 512.227 216.257 512.227C225.416 512.227 234.206 508.611 240.712 502.164L257.958 484.923C276.288 468.283 289.25 446.563 295.19 422.53C299.165 400.782 291.568 378.529 275.123 363.753C266.596 355.278 260.544 344.637 257.619 332.976C249.597 306.61 253.525 284.503 268.985 269.047C284.445 253.574 306.561 249.672 332.918 257.681C344.578 260.606 355.219 266.66 363.69 275.19C410.614 322.145 464.06 278.815 484.855 258.02L502.105 240.77C508.693 234.121 512.318 225.093 512.159 215.734C512.177 207.845 508.962 200.295 503.264 194.84ZM193.936 394.631C193.034 396.882 191.275 398.682 189.045 399.635C187.911 400.126 186.687 400.378 185.451 400.376C181.791 400.376 178.483 398.195 177.04 394.831L173.514 386.59C164.354 365.124 147.256 348.027 125.791 338.867L117.563 335.34C114.561 334.054 112.473 331.265 112.086 328.023C111.698 324.781 113.07 321.578 115.684 319.621C118.298 317.664 121.758 317.251 124.759 318.536L132.991 322.063C158.781 333.063 179.322 353.604 190.321 379.393L193.852 387.634C194.808 389.864 194.838 392.38 193.936 394.631ZM399.576 189.108C398.136 192.474 394.826 194.656 391.165 194.653C389.929 194.655 388.706 194.403 387.571 193.912L379.339 190.385C353.549 179.385 333.008 158.844 322.009 133.055L318.478 124.814C316.491 120.171 318.643 114.797 323.286 112.81C327.929 110.823 333.303 112.975 335.291 117.618L338.818 125.859C347.978 147.325 365.076 164.422 386.541 173.582L394.769 177.109C396.998 178.062 398.758 179.862 399.66 182.113C400.561 184.362 400.531 186.879 399.576 189.108Z" fill="url(#paint2_linear_10025_65588)"/>
</g>
<defs>
<linearGradient id="paint0_linear_10025_65588" x1="311.828" y1="271.9" x2="311.828" y2="351.879" gradientUnits="userSpaceOnUse">
<stop stop-color="#72707D"/>
<stop offset="1" stop-color="#101824"/>
</linearGradient>
<linearGradient id="paint1_linear_10025_65588" x1="200.581" y1="160.729" x2="200.581" y2="240.555" gradientUnits="userSpaceOnUse">
<stop stop-color="#72707D"/>
<stop offset="1" stop-color="#101824"/>
</linearGradient>
<linearGradient id="paint2_linear_10025_65588" x1="256.164" y1="0.212891" x2="256.164" y2="512.227" gradientUnits="userSpaceOnUse">
<stop stop-color="#72707D"/>
<stop offset="1" stop-color="#101824"/>
</linearGradient>
<clipPath id="clip0_10025_65588">
<rect width="512.013" height="512.013" fill="white" transform="translate(0.15918 0.210938)"/>
</clipPath>
</defs>
</svg>
