<svg width="512" height="512" viewBox="0 0 512 512" fill="none" xmlns="http://www.w3.org/2000/svg">
<path d="M475.36 427.36L427.36 475.36C425.873 476.86 424.103 478.05 422.153 478.862C420.203 479.675 418.112 480.093 416 480.093C413.888 480.093 411.797 479.675 409.847 478.862C407.897 478.05 406.127 476.86 404.64 475.36L372.64 443.36C371.157 441.865 369.984 440.092 369.188 438.143C368.391 436.193 367.988 434.106 368 432V390.56L121.44 144H80C77.8943 144.012 75.8069 143.609 73.8575 142.812C71.9081 142.016 70.135 140.843 68.64 139.36L36.64 107.36C35.1403 105.873 33.95 104.103 33.1377 102.153C32.3254 100.203 31.9072 98.1122 31.9072 96C31.9072 93.8878 32.3254 91.7965 33.1377 89.8468C33.95 87.897 35.1403 86.1274 36.64 84.64L84.64 36.64C86.1274 35.1403 87.897 33.95 89.8468 33.1377C91.7965 32.3254 93.8878 31.9072 96 31.9072C98.1122 31.9072 100.203 32.3254 102.153 33.1377C104.103 33.95 105.873 35.1403 107.36 36.64L139.36 68.64C140.843 70.135 142.016 71.9081 142.812 73.8575C143.609 75.8069 144.012 77.8943 144 80V121.44L390.56 368H432C434.106 367.988 436.193 368.391 438.143 369.188C440.092 369.984 441.865 371.157 443.36 372.64L475.36 404.64C476.86 406.127 478.05 407.897 478.862 409.847C479.675 411.797 480.093 413.888 480.093 416C480.093 418.112 479.675 420.203 478.862 422.153C478.05 424.103 476.86 425.873 475.36 427.36ZM248.8 180.8L202.24 134.4C275.061 71.0802 367.544 34.9011 464 32C468.243 32 472.313 33.6857 475.314 36.6863C478.314 39.6869 480 43.7565 480 48C477.099 144.456 440.92 236.939 377.6 309.76L331.2 263.2C336.143 254.972 340.167 246.227 343.2 237.12C354.56 202.88 343.2 184.8 335.2 176.8C327.2 168.8 309.12 157.44 274.88 168.8C265.773 171.833 257.028 175.857 248.8 180.8ZM263.2 331.2L309.76 377.6C236.939 440.92 144.456 477.099 48 480C45.9016 480.026 43.821 479.612 41.8921 478.785C39.9632 477.958 38.2287 476.737 36.8 475.2C35.2628 473.771 34.0416 472.037 33.2149 470.108C32.3883 468.179 31.9744 466.098 32 464C34.9011 367.544 71.0802 275.061 134.4 202.24L180.8 248.8C175.857 257.028 171.833 265.773 168.8 274.88C157.44 309.12 168.8 327.2 176.8 335.2C184.8 343.2 202.88 354.56 237.12 343.2C246.227 340.167 254.972 336.143 263.2 331.2Z" fill="url(#paint0_linear_10025_21519)"/>
<defs>
<linearGradient id="paint0_linear_10025_21519" x1="256" y1="31.9072" x2="256" y2="480.093" gradientUnits="userSpaceOnUse">
<stop stop-color="#72707D"/>
<stop offset="1" stop-color="#101824"/>
</linearGradient>
</defs>
</svg>
