<svg width="513" height="513" viewBox="0 0 513 513" fill="none" xmlns="http://www.w3.org/2000/svg">
<g clip-path="url(#clip0_10025_65615)">
<path d="M164.804 231.662L164.799 300.798L164.804 301.021C222.128 271.295 290.325 271.292 347.652 301.012L347.657 300.798V231.661C289.15 207.25 223.311 207.251 164.804 231.662ZM201.371 265.414C201.371 270.463 197.278 274.557 192.228 274.557C187.178 274.557 183.085 270.464 183.085 265.414V247.128C183.085 242.079 187.178 237.985 192.228 237.985C197.278 237.985 201.371 242.078 201.371 247.128V265.414Z" fill="url(#paint0_linear_10025_65615)"/>
<path d="M275.574 383.875C272.187 383.322 268.794 382.953 265.371 382.693V402.556C265.371 407.605 261.278 411.699 256.228 411.699C251.179 411.699 247.085 407.606 247.085 402.556V382.698C243.666 382.959 240.272 383.328 236.882 383.88L226.076 470.788C225.12 478.186 226.151 485.706 229.063 492.574C232.908 504.327 243.874 512.274 256.239 512.27C268.604 512.266 279.565 504.311 283.402 492.555C286.307 485.694 287.334 478.185 286.38 470.796L275.574 383.875Z" fill="url(#paint1_linear_10025_65615)"/>
<path d="M295.834 388.678C295.41 388.582 294.996 388.498 294.555 388.369L304.523 468.538C305.524 476.465 304.953 484.513 302.841 492.219C315.554 499.013 331.289 495.962 340.54 484.909C349.792 473.856 350.025 457.829 341.099 446.512L295.834 388.678Z" fill="url(#paint2_linear_10025_65615)"/>
<path d="M301.389 371.12C303.55 371.09 305.401 369.565 305.844 367.45L320.457 309.001C279.117 293.086 233.34 293.089 192.003 309.009L206.586 367.334C207.096 369.544 209.067 371.108 211.336 371.102C211.8 371.004 212.501 370.914 212.983 370.816C215.568 369.896 218.407 369.111 221.246 368.325C244.14 362.358 268.18 362.346 291.081 368.29C294.05 369.111 296.889 369.897 299.728 370.888C300.272 371.024 300.829 371.102 301.389 371.12ZM235.586 343.603C234.338 345.681 232.314 347.178 229.961 347.763C227.609 348.356 225.117 347.988 223.037 346.739C220.957 345.491 219.46 343.465 218.876 341.111L216.519 331.673C215.327 326.786 218.307 321.854 223.187 320.636C228.067 319.418 233.015 322.371 234.26 327.244L236.617 336.682C237.205 339.035 236.834 341.524 235.586 343.603Z" fill="url(#paint3_linear_10025_65615)"/>
<path d="M146.514 144.834V217.78C146.491 218.375 146.639 218.964 146.943 219.476C148.398 218.788 149.878 218.136 151.349 217.487L151.495 217.421C151.771 217.299 152.047 217.168 152.322 217.048L154.045 216.28C219.178 187.927 293.163 187.911 358.308 216.236L360.134 217.049C360.434 217.181 360.735 217.325 361.036 217.458L361.068 217.473C362.647 218.169 364.237 218.867 365.795 219.612C365.639 219.336 365.942 218.755 365.942 217.781V144.834C296.178 113.394 216.278 113.394 146.514 144.834ZM183.085 183.128C183.085 188.177 178.992 192.271 173.942 192.271C168.892 192.271 164.799 188.178 164.799 183.128V164.842C164.799 159.793 168.892 155.699 173.942 155.699C178.992 155.699 183.085 159.792 183.085 164.842V183.128Z" fill="url(#paint4_linear_10025_65615)"/>
<path d="M384.228 128.298V35.4676C384.354 33.9776 383.737 32.5216 382.581 31.5746L374.505 27.6906C299.925 -9.01144 212.532 -9.01144 137.952 27.6906L129.881 31.5746C128.721 32.5196 128.102 33.9766 128.229 35.4676V128.298C128.036 129.836 128.709 131.355 129.979 132.244C209.56 93.0396 302.836 93.0196 382.434 132.19H382.438L382.554 132.244C383.762 131.311 384.396 129.815 384.228 128.298ZM164.8 64.2706V91.6996C164.8 96.7486 160.707 100.843 155.657 100.843C150.608 100.843 146.514 96.7496 146.514 91.6996V55.1276C146.514 50.0786 150.607 45.9846 155.657 45.9846C160.706 45.9846 164.8 50.0776 164.8 55.1276V64.2706Z" fill="url(#paint5_linear_10025_65615)"/>
<path d="M217.895 388.418C217.484 388.54 217.054 388.647 216.575 388.741L171.362 446.502C162.431 457.816 162.661 473.844 171.914 484.896C181.167 495.948 196.904 498.995 209.612 492.193C207.504 484.492 206.933 476.45 207.933 468.528L217.895 388.418Z" fill="url(#paint6_linear_10025_65615)"/>
</g>
<defs>
<linearGradient id="paint0_linear_10025_65615" x1="256.228" y1="213.354" x2="256.228" y2="301.021" gradientUnits="userSpaceOnUse">
<stop stop-color="#72707D"/>
<stop offset="1" stop-color="#101824"/>
</linearGradient>
<linearGradient id="paint1_linear_10025_65615" x1="256.228" y1="382.693" x2="256.228" y2="512.27" gradientUnits="userSpaceOnUse">
<stop stop-color="#72707D"/>
<stop offset="1" stop-color="#101824"/>
</linearGradient>
<linearGradient id="paint2_linear_10025_65615" x1="321.097" y1="388.369" x2="321.097" y2="495.815" gradientUnits="userSpaceOnUse">
<stop stop-color="#72707D"/>
<stop offset="1" stop-color="#101824"/>
</linearGradient>
<linearGradient id="paint3_linear_10025_65615" x1="256.23" y1="297.066" x2="256.23" y2="371.12" gradientUnits="userSpaceOnUse">
<stop stop-color="#72707D"/>
<stop offset="1" stop-color="#101824"/>
</linearGradient>
<linearGradient id="paint4_linear_10025_65615" x1="256.227" y1="121.254" x2="256.227" y2="219.612" gradientUnits="userSpaceOnUse">
<stop stop-color="#72707D"/>
<stop offset="1" stop-color="#101824"/>
</linearGradient>
<linearGradient id="paint5_linear_10025_65615" x1="256.225" y1="0.164062" x2="256.225" y2="132.244" gradientUnits="userSpaceOnUse">
<stop stop-color="#72707D"/>
<stop offset="1" stop-color="#101824"/>
</linearGradient>
<linearGradient id="paint6_linear_10025_65615" x1="191.355" y1="388.418" x2="191.355" y2="495.796" gradientUnits="userSpaceOnUse">
<stop stop-color="#72707D"/>
<stop offset="1" stop-color="#101824"/>
</linearGradient>
<clipPath id="clip0_10025_65615">
<rect width="512.107" height="512.107" fill="white" transform="translate(0.171875 0.164062)"/>
</clipPath>
</defs>
</svg>
