<svg width="511" height="511" viewBox="0 0 511 511" fill="none" xmlns="http://www.w3.org/2000/svg">
<g clip-path="url(#clip0_10025_65632)">
<path d="M190.039 258.758H59.7124V351.849H190.039V258.758ZM106.257 277.376H143.493C148.634 277.376 152.802 281.544 152.802 286.685C152.802 291.826 148.634 295.994 143.493 295.994H106.257C101.116 295.994 96.9484 291.826 96.9484 286.685C96.9484 281.544 101.116 277.376 106.257 277.376ZM162.112 333.23H87.6394C82.4984 333.23 78.3304 329.062 78.3304 323.921C78.3304 318.78 82.4984 314.612 87.6394 314.612H162.112C167.253 314.612 171.421 318.78 171.421 323.921C171.421 329.063 167.253 333.23 162.112 333.23Z" fill="url(#paint0_linear_10025_65632)"/>
<path d="M133.467 6.22953C132.016 2.76953 128.63 0.518532 124.878 0.519532C121.126 0.520532 117.741 2.77353 116.292 6.23353C105.032 33.2295 98.5503 61.9775 97.1353 91.1935H152.617C151.239 61.9715 144.758 33.2165 133.467 6.22953Z" fill="url(#paint1_linear_10025_65632)"/>
<path d="M54.9647 509.265C55.1507 509.265 55.2437 509.358 55.4297 509.358C56.8067 509.838 58.2537 510.09 59.7117 510.103H190.039C191.527 510.082 193.003 509.831 194.414 509.358C194.507 509.358 194.693 509.265 194.786 509.265C205.305 505.541 214.614 489.809 221.875 463.557H27.9697C35.1367 489.809 44.5387 505.542 54.9647 509.265Z" fill="url(#paint2_linear_10025_65632)"/>
<path d="M199.348 109.811H50.4033V128.429H199.348V109.811Z" fill="url(#paint3_linear_10025_65632)"/>
<path d="M63.9015 147.049C53.5695 159.616 13.1665 216.309 13.1665 333.231C13.0835 370.714 16.5755 408.12 23.5925 444.94H226.251C233.192 408.11 236.651 370.709 236.584 333.231C236.584 215.657 196.275 159.523 185.849 147.049H63.9015ZM208.657 249.449V361.158C208.642 366.293 204.483 370.452 199.348 370.467H50.4035C45.2685 370.452 41.1095 366.293 41.0945 361.158V249.449C41.1095 244.314 45.2685 240.155 50.4035 240.14H199.348C204.483 240.154 208.642 244.314 208.657 249.449Z" fill="url(#paint4_linear_10025_65632)"/>
<path d="M469.313 87.7498C469.32 86.1928 468.704 84.6968 467.602 83.5958C466.501 82.4948 465.005 81.8788 463.448 81.8848H363.468C361.911 81.8778 360.415 82.4938 359.314 83.5958C358.213 84.6978 357.597 86.1928 357.603 87.7498V100.503H469.312L469.313 87.7498Z" fill="url(#paint5_linear_10025_65632)"/>
<path d="M422.251 6.53698C420.927 2.81698 417.406 0.332985 413.457 0.333985C409.509 0.334985 405.988 2.82099 404.667 6.54199C398.6 24.853 395.349 43.979 395.025 63.266H431.982C431.61 43.974 428.329 24.849 422.251 6.53698Z" fill="url(#paint6_linear_10025_65632)"/>
<path d="M495.529 120.83C494.428 119.729 492.932 119.113 491.375 119.119H335.54C333.983 119.112 332.487 119.728 331.386 120.83C330.285 121.931 329.669 123.427 329.675 124.984V240.137H497.239V124.984C497.246 123.427 496.63 121.931 495.529 120.83ZM478.621 184.283C478.621 189.424 474.453 193.592 469.312 193.592C464.171 193.592 460.003 189.424 460.003 184.283V156.356H432.076C426.935 156.356 422.767 152.188 422.767 147.047C422.767 141.906 426.935 137.738 432.076 137.738H460.003C470.273 137.768 478.591 146.086 478.621 156.356V184.283Z" fill="url(#paint7_linear_10025_65632)"/>
<path d="M329.675 370.467H497.239V258.758H329.675V370.467ZM385.53 301.486L400.332 286.685C407.612 279.424 419.395 279.424 426.675 286.685L441.384 301.486C444.871 304.964 446.83 309.687 446.83 314.612C446.83 319.537 444.871 324.259 441.384 327.738L426.675 342.539C423.159 346.02 418.404 347.962 413.457 347.938C408.537 347.96 403.812 346.016 400.332 342.539L385.53 327.738C382.043 324.26 380.084 319.537 380.084 314.612C380.084 309.687 382.043 304.965 385.53 301.486Z" fill="url(#paint8_linear_10025_65632)"/>
<path d="M329.675 500.793C329.69 505.928 333.849 510.087 338.984 510.102H487.929C493.064 510.087 497.223 505.928 497.238 500.793V389.084H329.675V500.793ZM348.294 444.938C348.294 439.797 352.462 435.629 357.603 435.629C362.744 435.629 366.912 439.797 366.912 444.938V472.865H394.839C399.98 472.865 404.148 477.033 404.148 482.174C404.148 487.315 399.98 491.483 394.839 491.483H366.912C356.642 491.453 348.324 483.135 348.294 472.865V444.938Z" fill="url(#paint9_linear_10025_65632)"/>
<path d="M428.261 314.612L413.458 299.811L398.749 314.612L413.458 329.414L428.261 314.612Z" fill="url(#paint10_linear_10025_65632)"/>
</g>
<defs>
<linearGradient id="paint0_linear_10025_65632" x1="124.876" y1="258.758" x2="124.876" y2="351.849" gradientUnits="userSpaceOnUse">
<stop stop-color="#72707D"/>
<stop offset="1" stop-color="#101824"/>
</linearGradient>
<linearGradient id="paint1_linear_10025_65632" x1="124.876" y1="0.519531" x2="124.876" y2="91.1935" gradientUnits="userSpaceOnUse">
<stop stop-color="#72707D"/>
<stop offset="1" stop-color="#101824"/>
</linearGradient>
<linearGradient id="paint2_linear_10025_65632" x1="124.922" y1="463.557" x2="124.922" y2="510.103" gradientUnits="userSpaceOnUse">
<stop stop-color="#72707D"/>
<stop offset="1" stop-color="#101824"/>
</linearGradient>
<linearGradient id="paint3_linear_10025_65632" x1="124.876" y1="109.811" x2="124.876" y2="128.429" gradientUnits="userSpaceOnUse">
<stop stop-color="#72707D"/>
<stop offset="1" stop-color="#101824"/>
</linearGradient>
<linearGradient id="paint4_linear_10025_65632" x1="124.875" y1="147.049" x2="124.875" y2="444.94" gradientUnits="userSpaceOnUse">
<stop stop-color="#72707D"/>
<stop offset="1" stop-color="#101824"/>
</linearGradient>
<linearGradient id="paint5_linear_10025_65632" x1="413.458" y1="81.8848" x2="413.458" y2="100.503" gradientUnits="userSpaceOnUse">
<stop stop-color="#72707D"/>
<stop offset="1" stop-color="#101824"/>
</linearGradient>
<linearGradient id="paint6_linear_10025_65632" x1="413.504" y1="0.333984" x2="413.504" y2="63.266" gradientUnits="userSpaceOnUse">
<stop stop-color="#72707D"/>
<stop offset="1" stop-color="#101824"/>
</linearGradient>
<linearGradient id="paint7_linear_10025_65632" x1="413.457" y1="119.119" x2="413.457" y2="240.137" gradientUnits="userSpaceOnUse">
<stop stop-color="#72707D"/>
<stop offset="1" stop-color="#101824"/>
</linearGradient>
<linearGradient id="paint8_linear_10025_65632" x1="413.457" y1="258.758" x2="413.457" y2="370.467" gradientUnits="userSpaceOnUse">
<stop stop-color="#72707D"/>
<stop offset="1" stop-color="#101824"/>
</linearGradient>
<linearGradient id="paint9_linear_10025_65632" x1="413.457" y1="389.084" x2="413.457" y2="510.102" gradientUnits="userSpaceOnUse">
<stop stop-color="#72707D"/>
<stop offset="1" stop-color="#101824"/>
</linearGradient>
<linearGradient id="paint10_linear_10025_65632" x1="413.505" y1="299.811" x2="413.505" y2="329.414" gradientUnits="userSpaceOnUse">
<stop stop-color="#72707D"/>
<stop offset="1" stop-color="#101824"/>
</linearGradient>
<clipPath id="clip0_10025_65632">
<rect width="509.768" height="509.768" fill="white" transform="translate(0.318359 0.333984)"/>
</clipPath>
</defs>
</svg>
