<svg width="512" height="512" viewBox="0 0 512 512" fill="none" xmlns="http://www.w3.org/2000/svg">
<g clip-path="url(#clip0_10025_60221)">
<path d="M45.032 302.001H15.032C6.74098 302.001 0.0319824 308.71 0.0319824 317.001V497.001C0.0319824 505.292 6.74098 512.001 15.032 512.001H45.032C53.323 512.001 60.032 505.292 60.032 497.001V317.001C60.032 308.71 53.323 302.001 45.032 302.001Z" fill="url(#paint0_linear_10025_60221)"/>
<path d="M391.032 0.000976562C273.337 0.000976562 237.433 0.000976562 151.032 0.000976562C142.741 0.000976562 136.032 6.70998 136.032 15.001V90.001C136.032 156.168 189.865 210.001 256.032 210.001C311.78 210.001 358.353 171.609 371.771 120.001H391.032C424.123 120.001 451.032 93.092 451.032 60.001C451.032 26.91 424.123 0.000976562 391.032 0.000976562ZM391.032 90.001H376.032V30.001H391.032C407.57 30.001 421.032 43.463 421.032 60.001C421.032 76.539 407.57 90.001 391.032 90.001Z" fill="url(#paint1_linear_10025_60221)"/>
<path d="M256.032 210.001H92.532C99.433 244.201 129.731 270.001 166.032 270.001H346.032C382.333 270.001 412.631 244.201 419.532 210.001H256.032Z" fill="url(#paint2_linear_10025_60221)"/>
<path d="M503.333 295.7C490.882 283.905 473.058 284.401 460.732 295.7C460.476 295.956 460.331 296.306 460.086 296.574L340.12 416.537C336.623 420.034 331.88 422.001 326.933 422.001H210.533C202.132 422.001 195.533 415.4 195.533 407.001C195.533 398.6 202.132 392.001 210.533 392.001H302.033C318.533 392.001 332.033 378.501 332.033 362.001C332.033 345.501 318.533 332.001 302.033 332.001H247.733C238.133 332.001 228.833 328.401 221.333 322.101C184.664 289.878 131.214 287.886 92.033 315.337V499.605C121.869 507.852 152.255 512.001 183.231 512.001H317.032C350.031 512.001 381.232 496.4 400.731 470.301L503.032 344C513.343 330.468 516.335 309.702 503.333 295.7Z" fill="url(#paint3_linear_10025_60221)"/>
</g>
<defs>
<linearGradient id="paint0_linear_10025_60221" x1="30.032" y1="302.001" x2="30.032" y2="512.001" gradientUnits="userSpaceOnUse">
<stop stop-color="#72707D"/>
<stop offset="1" stop-color="#101824"/>
</linearGradient>
<linearGradient id="paint1_linear_10025_60221" x1="293.532" y1="0.000976562" x2="293.532" y2="210.001" gradientUnits="userSpaceOnUse">
<stop stop-color="#72707D"/>
<stop offset="1" stop-color="#101824"/>
</linearGradient>
<linearGradient id="paint2_linear_10025_60221" x1="256.032" y1="210.001" x2="256.032" y2="270.001" gradientUnits="userSpaceOnUse">
<stop stop-color="#72707D"/>
<stop offset="1" stop-color="#101824"/>
</linearGradient>
<linearGradient id="paint3_linear_10025_60221" x1="302.001" y1="287.039" x2="302.001" y2="512.001" gradientUnits="userSpaceOnUse">
<stop stop-color="#72707D"/>
<stop offset="1" stop-color="#101824"/>
</linearGradient>
<clipPath id="clip0_10025_60221">
<rect width="512" height="512" fill="white" transform="translate(0 0.000976562)"/>
</clipPath>
</defs>
</svg>
