<svg width="512" height="512" viewBox="0 0 512 512" fill="none" xmlns="http://www.w3.org/2000/svg">
<g clip-path="url(#clip0_10025_60234)">
<path d="M365.117 177.661C353.781 149.435 354.579 118.338 366.399 91.001H74.6202C86.4362 118.326 87.2322 149.404 75.8982 177.603L69.6362 193.181C79.9682 185.914 89.6662 180.134 102.09 175.112C116.987 169.062 131.812 166.001 146.153 166.001C192.764 166.001 229.605 198.433 231.143 199.81C231.407 200.044 261.187 226.001 296.153 226.001C326.211 226.001 348.539 210.044 370.726 191.614L365.117 177.661Z" fill="url(#paint0_linear_10025_60234)"/>
<path d="M338.734 0.000976562H44.4482C32.4182 0.000976562 25.2872 13.483 32.0412 23.439L56.8972 60.001H382.026C391.799 30.695 370.04 0.000976562 338.734 0.000976562Z" fill="url(#paint1_linear_10025_60234)"/>
<path d="M432.119 345.346L382.47 221.828L374.053 228.817C359.155 239.701 330.298 257.001 296.152 257.001C249.541 257.001 212.7 224.569 211.162 223.192C210.898 222.958 181.118 197.001 146.152 197.001C135.708 197.001 124.663 199.33 113.354 203.915C95.017 211.347 66.623 232.972 49.086 245.311L8.88201 345.346C-23.159 425.043 35.631 512.001 121.499 512.001H319.487C405.404 512.001 464.15 425.018 432.119 345.346Z" fill="url(#paint2_linear_10025_60234)"/>
<path d="M482.282 89.9319C465.187 72.8519 442.435 63.1999 417.389 60.8799C415.47 70.7729 412.225 80.4559 406.344 89.1109C406.124 89.4349 406.031 89.8139 405.815 90.1399C427.573 90.1239 447.136 97.2239 461.071 111.142C496.154 146.24 486.633 212.861 439.86 259.648C438.829 260.677 437.635 261.431 436.582 262.428L448.33 291.653C452.596 288.081 457.068 284.858 461.07 280.859C519.547 222.368 529.054 136.719 482.282 89.9319Z" fill="url(#paint3_linear_10025_60234)"/>
</g>
<defs>
<linearGradient id="paint0_linear_10025_60234" x1="220.181" y1="91.001" x2="220.181" y2="226.001" gradientUnits="userSpaceOnUse">
<stop stop-color="#72707D"/>
<stop offset="1" stop-color="#101824"/>
</linearGradient>
<linearGradient id="paint1_linear_10025_60234" x1="206.908" y1="0.000976562" x2="206.908" y2="60.001" gradientUnits="userSpaceOnUse">
<stop stop-color="#72707D"/>
<stop offset="1" stop-color="#101824"/>
</linearGradient>
<linearGradient id="paint2_linear_10025_60234" x1="220.5" y1="197.001" x2="220.5" y2="512.001" gradientUnits="userSpaceOnUse">
<stop stop-color="#72707D"/>
<stop offset="1" stop-color="#101824"/>
</linearGradient>
<linearGradient id="paint3_linear_10025_60234" x1="458.899" y1="60.8799" x2="458.899" y2="291.653" gradientUnits="userSpaceOnUse">
<stop stop-color="#72707D"/>
<stop offset="1" stop-color="#101824"/>
</linearGradient>
<clipPath id="clip0_10025_60234">
<rect width="512" height="512" fill="white" transform="translate(0 0.000976562)"/>
</clipPath>
</defs>
</svg>
