<svg width="513" height="513" viewBox="0 0 513 513" fill="none" xmlns="http://www.w3.org/2000/svg">
<g clip-path="url(#clip0_10025_65657)">
<path d="M361.732 361.933L361.765 361.87C362.678 360.246 363.45 358.546 364.074 356.79H329.228C324.179 356.79 320.085 352.697 320.085 347.647C320.085 342.597 324.178 338.504 329.228 338.504H364.074C363.45 336.748 362.678 335.049 361.765 333.424L361.732 333.361C352.045 319.537 338.072 309.29 321.975 304.205C321.26 303.931 320.544 303.657 319.815 303.391C318.332 302.846 316.833 302.311 315.293 301.801C313.494 301.21 311.659 300.646 309.789 300.108C309.343 299.979 308.919 299.834 308.469 299.707L308.438 299.692C274.143 290.485 238.027 290.485 203.733 299.692L203.702 299.707C203.281 299.825 202.884 299.961 202.467 300.082C200.557 300.633 198.682 301.21 196.839 301.812C195.341 302.308 193.884 302.828 192.441 303.358C191.653 303.645 190.878 303.941 190.105 304.238C174.046 309.324 160.108 319.556 150.443 333.353L150.396 333.441C149.487 335.06 148.718 336.753 148.096 338.501H182.943C187.992 338.501 192.086 342.594 192.086 347.644C192.086 352.694 187.993 356.787 182.943 356.787H148.096C148.718 358.536 149.487 360.229 150.395 361.847L150.442 361.935C160.106 375.732 174.044 385.964 190.104 391.05C190.877 391.347 191.652 391.643 192.44 391.93C193.884 392.46 195.341 392.98 196.838 393.476C198.677 394.081 200.553 394.658 202.466 395.206C202.883 395.327 203.28 395.463 203.701 395.581L203.732 395.596C238.027 404.803 274.143 404.803 308.437 395.596L308.468 395.581C308.918 395.454 309.342 395.31 309.788 395.18C311.654 394.641 313.489 394.077 315.291 393.487C316.837 392.976 318.343 392.438 319.832 391.891C320.549 391.629 321.253 391.361 321.957 391.09C338.062 386.011 352.041 375.762 361.732 361.933ZM256.086 384.219C235.888 384.219 219.515 367.845 219.515 347.648C219.515 327.451 235.889 311.077 256.086 311.077C261.135 311.077 265.229 315.17 265.229 320.22C265.229 325.269 261.136 329.363 256.086 329.363C248.69 329.363 242.022 333.818 239.192 340.651C236.362 347.484 237.926 355.349 243.156 360.579C248.386 365.809 256.251 367.373 263.084 364.543C269.917 361.713 274.372 355.045 274.372 347.649C274.372 342.6 278.465 338.506 283.515 338.506C288.564 338.506 292.658 342.599 292.658 347.649C292.637 367.837 276.275 384.199 256.086 384.219Z" fill="url(#paint0_linear_10025_65657)"/>
<path d="M469.264 128.558C466.163 128.231 463.442 126.345 462.048 123.555C460.654 120.765 460.779 117.457 462.38 114.781C464.966 110.571 466.347 105.731 466.372 100.79C466.324 87.858 457.282 76.702 444.639 73.977C442.16 73.449 440.011 71.918 438.703 69.747C437.395 67.576 437.045 64.96 437.738 62.522C438.488 60.109 438.893 57.602 438.944 55.076C438.963 43.112 431.213 32.52 419.804 28.918C408.395 25.316 395.968 29.538 389.114 39.344C387.503 41.63 384.933 43.052 382.141 43.201C379.358 43.315 376.667 42.19 374.793 40.13C367.945 32.205 357.99 27.65 347.516 27.648C333.056 27.674 319.968 36.216 314.123 49.443C312.734 52.572 309.713 54.664 306.295 54.863C302.877 55.062 299.634 53.336 297.89 50.389C293.045 41.978 284.078 36.794 274.372 36.791C271.858 36.837 269.364 37.237 266.961 37.979C264.46 38.691 261.774 38.304 259.575 36.915C257.377 35.526 255.874 33.266 255.443 30.702C252.751 14.313 239.302 1.82899 222.759 0.361994C206.216 -1.10501 190.78 8.81899 185.247 24.479C184.365 26.926 182.483 28.882 180.072 29.856C177.661 30.83 174.948 30.733 172.614 29.586C163.806 25.205 153.112 28.704 148.596 37.443C147.013 40.4 143.941 42.257 140.587 42.282H140.525C137.192 42.282 134.124 40.469 132.516 37.55C123.756 20.881 103.704 13.678 86.3392 20.963C68.9742 28.248 60.0622 47.602 65.8182 65.532C67.0942 69.792 65.1142 74.351 61.1302 76.327C54.2372 79.63 49.0672 85.7 46.9032 93.031C44.7392 100.362 45.7862 108.267 49.7812 114.783C51.3822 117.459 51.5072 120.767 50.1132 123.557C48.7192 126.347 45.9992 128.233 42.8972 128.56C32.4332 129.631 23.5112 136.609 19.9512 146.506H492.219C488.655 136.607 479.73 129.629 469.264 128.558ZM118.943 128.219C103.795 128.219 91.5142 115.939 91.5142 100.79C91.5142 85.642 103.794 73.361 118.943 73.361C123.992 73.361 128.086 77.454 128.086 82.504C128.086 87.553 123.993 91.647 118.943 91.647C113.894 91.647 109.8 95.74 109.8 100.79C109.8 105.839 113.893 109.933 118.943 109.933C123.992 109.933 128.086 105.84 128.086 100.79C128.086 95.741 132.179 91.647 137.229 91.647C142.278 91.647 146.372 95.74 146.372 100.79C146.355 115.932 134.085 128.203 118.943 128.219ZM189.407 107.255C187.693 108.97 185.368 109.934 182.943 109.934C180.518 109.934 178.193 108.97 176.479 107.255L167.336 98.112C163.804 94.535 163.822 88.778 167.377 85.224C170.931 81.67 176.688 81.652 180.265 85.184L189.408 94.327C191.123 96.041 192.086 98.366 192.086 100.791C192.086 103.216 191.122 105.54 189.407 107.255ZM237.8 91.648C222.652 91.648 210.371 79.368 210.371 64.219C210.371 49.07 222.651 36.79 237.8 36.79C242.849 36.79 246.943 40.883 246.943 45.933C246.943 50.983 242.85 55.076 237.8 55.076C232.751 55.076 228.657 59.169 228.657 64.219C228.657 69.269 232.75 73.362 237.8 73.362C242.849 73.362 246.943 69.269 246.943 64.219C246.943 59.169 251.036 55.076 256.086 55.076C261.135 55.076 265.229 59.169 265.229 64.219C265.212 79.361 252.942 91.631 237.8 91.648ZM308.264 107.255L299.121 116.398C295.546 119.937 289.783 119.923 286.225 116.366C282.668 112.809 282.653 107.046 286.192 103.47L295.335 94.327C298.91 90.788 304.673 90.802 308.231 94.359C311.789 97.916 311.804 103.679 308.264 107.255ZM374.943 119.076C359.795 119.076 347.514 106.796 347.514 91.647C347.514 76.498 359.794 64.218 374.943 64.218C379.992 64.218 384.086 68.311 384.086 73.361C384.086 78.41 379.993 82.504 374.943 82.504C369.893 82.504 365.8 86.597 365.8 91.647C365.8 96.696 369.893 100.79 374.943 100.79C379.993 100.79 384.086 96.697 384.086 91.648C384.086 86.599 388.179 82.505 393.229 82.505C398.278 82.505 402.372 86.598 402.372 91.648C402.355 106.789 390.085 119.06 374.943 119.076Z" fill="url(#paint1_linear_10025_65657)"/>
<path d="M67.9955 489.298C69.9675 501.208 79.5355 510.404 91.5135 511.902V201.361H20.0225L67.9955 489.298Z" fill="url(#paint2_linear_10025_65657)"/>
<path d="M154.169 392.282C151.258 390.105 148.488 387.746 145.875 385.219C145.601 384.953 145.309 384.694 145.041 384.426C143.893 383.278 142.806 382.11 141.765 380.921C141.248 380.333 140.772 379.734 140.283 379.137C138.911 377.463 137.628 375.718 136.439 373.909C135.799 372.936 135.162 371.964 134.594 370.974C134.059 370.038 133.564 369.093 133.093 368.139C132.422 366.79 131.831 365.425 131.293 364.048C131.008 363.31 130.699 362.58 130.451 361.833C129.837 359.971 129.344 358.072 128.974 356.147C128.854 355.529 128.747 354.908 128.654 354.285C127.897 349.892 127.897 345.402 128.654 341.01C128.748 340.386 128.854 339.765 128.974 339.148C129.344 337.223 129.837 335.324 130.451 333.462C130.699 332.715 131.008 331.985 131.293 331.247C131.831 329.87 132.422 328.505 133.093 327.156C133.564 326.202 134.06 325.256 134.595 324.32C135.163 323.333 135.796 322.363 136.434 321.394C137.626 319.58 138.913 317.831 140.289 316.152C140.776 315.558 141.25 314.962 141.765 314.376C142.806 313.187 143.893 312.018 145.042 310.869C145.31 310.601 145.602 310.342 145.876 310.076C148.489 307.549 151.259 305.19 154.17 303.013L154.498 302.761C165.935 294.54 178.63 288.227 192.087 284.068V201.361H109.801V512.218H192.086V411.225C178.629 407.067 165.934 400.754 154.497 392.534L154.169 392.282Z" fill="url(#paint3_linear_10025_65657)"/>
<path d="M210.372 416.066V512.218H301.801V416.066C271.649 422.364 240.523 422.364 210.372 416.066Z" fill="url(#paint4_linear_10025_65657)"/>
<path d="M420.657 511.9C432.623 510.388 442.175 501.197 444.148 489.299L492.148 201.361H420.657V511.9Z" fill="url(#paint5_linear_10025_65657)"/>
<path d="M301.8 279.226V201.361H210.371V279.226C240.523 272.93 271.649 272.93 301.8 279.226Z" fill="url(#paint6_linear_10025_65657)"/>
<path d="M512.086 164.791H502.943H9.22894H0.0859375V183.076H9.22894H100.657H201.229H310.943H411.515H502.943H512.095L512.086 164.791Z" fill="url(#paint7_linear_10025_65657)"/>
<path d="M320.086 284.068C333.565 288.232 346.277 294.559 357.727 302.8L357.863 302.905C360.866 305.141 363.719 307.571 366.405 310.179C366.634 310.401 366.877 310.618 367.101 310.841C368.268 312.007 369.371 313.193 370.427 314.4C370.919 314.959 371.372 315.53 371.838 316.097C373.241 317.805 374.552 319.588 375.765 321.436C376.391 322.388 377.014 323.341 377.572 324.31C378.109 325.25 378.607 326.199 379.079 327.157C379.749 328.504 380.339 329.867 380.876 331.242C381.163 331.983 381.472 332.715 381.721 333.465C382.334 335.324 382.828 337.221 383.197 339.144C383.317 339.763 383.424 340.385 383.517 341.008C384.274 345.4 384.274 349.889 383.517 354.281C383.423 354.905 383.316 355.526 383.197 356.145C382.827 358.068 382.334 359.965 381.721 361.824C381.472 362.575 381.162 363.308 380.875 364.05C380.338 365.423 379.749 366.785 379.08 368.13C378.607 369.089 378.11 370.037 377.571 370.979C377.012 371.951 376.387 372.906 375.759 373.861C374.549 375.705 373.242 377.483 371.842 379.187C371.374 379.757 370.919 380.33 370.425 380.892C369.37 382.099 368.267 383.284 367.1 384.449C366.876 384.673 366.632 384.889 366.404 385.111C363.718 387.719 360.864 390.149 357.862 392.385L357.726 392.49C346.276 400.732 333.564 407.058 320.085 411.223V512.216H402.371V201.361H320.086V284.068Z" fill="url(#paint8_linear_10025_65657)"/>
</g>
<defs>
<linearGradient id="paint0_linear_10025_65657" x1="256.085" y1="292.787" x2="256.085" y2="402.502" gradientUnits="userSpaceOnUse">
<stop stop-color="#72707D"/>
<stop offset="1" stop-color="#101824"/>
</linearGradient>
<linearGradient id="paint1_linear_10025_65657" x1="256.085" y1="0.21875" x2="256.085" y2="146.506" gradientUnits="userSpaceOnUse">
<stop stop-color="#72707D"/>
<stop offset="1" stop-color="#101824"/>
</linearGradient>
<linearGradient id="paint2_linear_10025_65657" x1="55.768" y1="201.361" x2="55.768" y2="511.902" gradientUnits="userSpaceOnUse">
<stop stop-color="#72707D"/>
<stop offset="1" stop-color="#101824"/>
</linearGradient>
<linearGradient id="paint3_linear_10025_65657" x1="150.944" y1="201.361" x2="150.944" y2="512.218" gradientUnits="userSpaceOnUse">
<stop stop-color="#72707D"/>
<stop offset="1" stop-color="#101824"/>
</linearGradient>
<linearGradient id="paint4_linear_10025_65657" x1="256.087" y1="416.066" x2="256.087" y2="512.218" gradientUnits="userSpaceOnUse">
<stop stop-color="#72707D"/>
<stop offset="1" stop-color="#101824"/>
</linearGradient>
<linearGradient id="paint5_linear_10025_65657" x1="456.403" y1="201.361" x2="456.403" y2="511.9" gradientUnits="userSpaceOnUse">
<stop stop-color="#72707D"/>
<stop offset="1" stop-color="#101824"/>
</linearGradient>
<linearGradient id="paint6_linear_10025_65657" x1="256.086" y1="201.361" x2="256.086" y2="279.226" gradientUnits="userSpaceOnUse">
<stop stop-color="#72707D"/>
<stop offset="1" stop-color="#101824"/>
</linearGradient>
<linearGradient id="paint7_linear_10025_65657" x1="256.09" y1="164.791" x2="256.09" y2="183.076" gradientUnits="userSpaceOnUse">
<stop stop-color="#72707D"/>
<stop offset="1" stop-color="#101824"/>
</linearGradient>
<linearGradient id="paint8_linear_10025_65657" x1="361.228" y1="201.361" x2="361.228" y2="512.216" gradientUnits="userSpaceOnUse">
<stop stop-color="#72707D"/>
<stop offset="1" stop-color="#101824"/>
</linearGradient>
<clipPath id="clip0_10025_65657">
<rect width="512.009" height="512.009" fill="white" transform="translate(0.0859375 0.214844)"/>
</clipPath>
</defs>
</svg>
