<svg width="512" height="512" viewBox="0 0 512 512" fill="none" xmlns="http://www.w3.org/2000/svg">
<path d="M256 32C224.355 32 193.421 41.3838 167.109 58.9649C140.797 76.5459 120.289 101.534 108.179 130.771C96.0693 160.007 92.9008 192.177 99.0744 223.214C105.248 254.251 120.487 282.761 142.863 305.137C165.239 327.513 193.749 342.752 224.786 348.926C255.823 355.099 287.993 351.931 317.229 339.821C346.466 327.711 371.454 307.203 389.035 280.891C406.616 254.579 416 223.645 416 192C416 170.989 411.862 150.183 403.821 130.771C395.78 111.359 383.995 93.7203 369.137 78.8629C354.28 64.0055 336.642 52.22 317.229 44.1793C297.817 36.1385 277.012 32 256 32ZM288 112C291.165 112 294.258 112.938 296.889 114.696C299.52 116.455 301.571 118.953 302.782 121.877C303.993 124.801 304.31 128.018 303.693 131.121C303.075 134.225 301.551 137.076 299.314 139.314C297.076 141.551 294.225 143.075 291.122 143.693C288.018 144.31 284.801 143.993 281.877 142.782C278.954 141.571 276.455 139.52 274.697 136.889C272.938 134.258 272 131.165 272 128C272 123.757 273.686 119.687 276.686 116.686C279.687 113.686 283.757 112 288 112ZM224 112C227.165 112 230.258 112.938 232.889 114.696C235.52 116.455 237.571 118.953 238.782 121.877C239.993 124.801 240.31 128.018 239.693 131.121C239.075 134.225 237.551 137.076 235.314 139.314C233.076 141.551 230.225 143.075 227.122 143.693C224.018 144.31 220.801 143.993 217.877 142.782C214.954 141.571 212.455 139.52 210.697 136.889C208.938 134.258 208 131.165 208 128C208 123.757 209.686 119.687 212.686 116.686C215.687 113.686 219.757 112 224 112ZM180.64 203.36C178.416 201.117 176.905 198.266 176.298 195.166C175.691 192.066 176.016 188.856 177.231 185.94C178.445 183.024 180.496 180.532 183.125 178.78C185.753 177.028 188.841 176.093 192 176.093C195.159 176.093 198.247 177.028 200.876 178.78C203.504 180.532 205.555 183.024 206.77 185.94C207.984 188.856 208.309 192.066 207.702 195.166C207.095 198.266 205.585 201.117 203.36 203.36C201.873 204.86 200.103 206.05 198.153 206.862C196.204 207.675 194.112 208.093 192 208.093C189.888 208.093 187.797 207.675 185.847 206.862C183.897 206.05 182.127 204.86 180.64 203.36ZM235.36 267.36C233.117 269.584 230.266 271.095 227.166 271.702C224.066 272.309 220.856 271.984 217.94 270.77C215.024 269.555 212.533 267.504 210.78 264.875C209.028 262.247 208.093 259.159 208.093 256C208.093 252.841 209.028 249.753 210.78 247.125C212.533 244.496 215.024 242.445 217.94 241.231C220.856 240.016 224.066 239.691 227.166 240.298C230.266 240.905 233.117 242.415 235.36 244.64C236.86 246.127 238.05 247.897 238.862 249.847C239.675 251.797 240.093 253.888 240.093 256C240.093 258.112 239.675 260.203 238.862 262.153C238.05 264.103 236.86 265.873 235.36 267.36ZM244.64 203.36C242.416 201.117 240.905 198.266 240.298 195.166C239.691 192.066 240.016 188.856 241.231 185.94C242.445 183.024 244.496 180.532 247.125 178.78C249.753 177.028 252.841 176.093 256 176.093C259.159 176.093 262.247 177.028 264.876 178.78C267.504 180.532 269.555 183.024 270.77 185.94C271.984 188.856 272.309 192.066 271.702 195.166C271.095 198.266 269.585 201.117 267.36 203.36C265.873 204.86 264.103 206.05 262.153 206.862C260.204 207.675 258.112 208.093 256 208.093C253.888 208.093 251.797 207.675 249.847 206.862C247.897 206.05 246.127 204.86 244.64 203.36ZM288 272C284.836 272 281.742 271.062 279.111 269.304C276.48 267.545 274.429 265.047 273.218 262.123C272.007 259.199 271.69 255.982 272.308 252.879C272.925 249.775 274.449 246.924 276.686 244.686C278.924 242.449 281.775 240.925 284.879 240.307C287.982 239.69 291.199 240.007 294.123 241.218C297.047 242.429 299.546 244.48 301.304 247.111C303.062 249.742 304 252.835 304 256C304 260.243 302.314 264.313 299.314 267.314C296.313 270.314 292.244 272 288 272ZM320 208C316.836 208 313.742 207.062 311.111 205.304C308.48 203.545 306.429 201.047 305.218 198.123C304.007 195.199 303.69 191.982 304.308 188.879C304.925 185.775 306.449 182.924 308.686 180.686C310.924 178.449 313.775 176.925 316.879 176.307C319.982 175.69 323.199 176.007 326.123 177.218C329.047 178.429 331.546 180.48 333.304 183.111C335.062 185.742 336 188.835 336 192C336 196.243 334.314 200.313 331.314 203.314C328.313 206.314 324.244 208 320 208ZM256 384C289.674 384.226 322.804 375.502 352 358.72C349.778 371.209 342.703 382.312 332.32 389.6C319.186 397.175 308.215 407.993 300.456 421.019C292.696 434.045 288.408 448.844 288 464C288 468.243 286.314 472.313 283.314 475.314C280.313 478.314 276.244 480 272 480H240C235.757 480 231.687 478.314 228.686 475.314C225.686 472.313 224 468.243 224 464C223.675 448.92 219.508 434.173 211.892 421.154C204.277 408.135 193.465 397.274 180.48 389.6C170.097 382.312 163.022 371.209 160.8 358.72C189.761 375.365 222.597 384.085 256 384Z" fill="url(#paint0_linear_10025_21534)"/>
<defs>
<linearGradient id="paint0_linear_10025_21534" x1="256" y1="32" x2="256" y2="480" gradientUnits="userSpaceOnUse">
<stop stop-color="#72707D"/>
<stop offset="1" stop-color="#101824"/>
</linearGradient>
</defs>
</svg>
