<svg width="512" height="512" viewBox="0 0 512 512" fill="none" xmlns="http://www.w3.org/2000/svg">
<path d="M400 240C391.331 240.082 382.735 241.596 374.56 244.48L315.84 144H384C388.243 144 392.313 145.686 395.314 148.686C398.314 151.687 400 155.757 400 160C400 164.243 398.314 168.313 395.314 171.314C392.313 174.314 388.243 176 384 176C379.756 176 375.687 177.686 372.686 180.686C369.686 183.687 368 187.757 368 192C368 196.243 369.686 200.313 372.686 203.314C375.687 206.314 379.756 208 384 208C396.73 208 408.939 202.943 417.941 193.941C426.943 184.939 432 172.73 432 160C432 147.27 426.943 135.061 417.941 126.059C408.939 117.057 396.73 112 384 112H288C285.199 112.017 282.453 112.768 280.034 114.18C277.615 115.591 275.608 117.612 274.216 120.042C272.823 122.471 272.092 125.224 272.096 128.024C272.1 130.824 272.84 133.575 274.24 136L297.44 176H189.44L180 160H192C196.243 160 200.313 158.314 203.314 155.314C206.314 152.313 208 148.243 208 144C208 139.757 206.314 135.687 203.314 132.686C200.313 129.686 196.243 128 192 128H128C123.756 128 119.687 129.686 116.686 132.686C113.686 135.687 112 139.757 112 144C112 148.243 113.686 152.313 116.686 155.314C119.687 158.314 123.756 160 128 160H142.88L160 188.64L132.8 243.04C126.03 241.116 119.037 240.094 112 240C96.8634 240.003 82.0383 244.3 69.2466 252.393C56.4549 260.485 46.2214 272.04 39.7347 285.716C33.2479 299.392 30.7742 314.628 32.6008 329.654C34.4273 344.68 40.4792 358.879 50.0536 370.603C59.6279 382.326 72.3318 391.093 86.6898 395.885C101.048 400.677 116.471 401.297 131.167 397.674C145.863 394.051 159.23 386.332 169.715 375.415C180.2 364.498 187.373 350.831 190.4 336H256C258.955 335.991 261.849 335.164 264.362 333.611C266.876 332.058 268.91 329.839 270.24 327.2L323.52 220.64L346.88 260.64C333.002 273.18 323.956 290.186 321.315 308.703C318.674 327.22 322.605 346.077 332.424 361.997C342.244 377.916 357.331 389.892 375.063 395.842C392.796 401.793 412.053 401.341 429.488 394.567C446.922 387.793 461.432 375.124 470.495 358.762C479.558 342.4 482.602 323.38 479.096 305.007C475.591 286.634 465.759 270.07 451.309 258.193C436.859 246.317 418.704 239.88 400 240ZM179.2 221.44L228 304H190.4C186.449 285.507 176.076 269.012 161.12 257.44L179.2 221.44ZM254.88 286.56L208 208H293.6L254.88 286.56Z" fill="url(#paint0_linear_10025_21537)"/>
<defs>
<linearGradient id="paint0_linear_10025_21537" x1="256.265" y1="112" x2="256.265" y2="400" gradientUnits="userSpaceOnUse">
<stop stop-color="#72707D"/>
<stop offset="1" stop-color="#101824"/>
</linearGradient>
</defs>
</svg>
