<svg width="512" height="512" viewBox="0 0 512 512" fill="none" xmlns="http://www.w3.org/2000/svg">
<path d="M336 144H176V128C176 119.513 179.371 111.374 185.373 105.373C191.374 99.3714 199.513 96 208 96V64C203.757 64 199.687 62.3143 196.686 59.3137C193.686 56.3131 192 52.2435 192 48C192 43.7565 193.686 39.6869 196.686 36.6863C199.687 33.6857 203.757 32 208 32H304C308.243 32 312.313 33.6857 315.314 36.6863C318.314 39.6869 320 43.7565 320 48C320 52.2435 318.314 56.3131 315.314 59.3137C312.313 62.3143 308.243 64 304 64V96C312.487 96 320.626 99.3714 326.627 105.373C332.629 111.374 336 119.513 336 128V144ZM368 256C372.243 256 376.313 254.314 379.314 251.314C382.314 248.313 384 244.243 384 240V208C384 199.513 380.629 191.374 374.627 185.373C368.626 179.371 360.487 176 352 176H160C151.513 176 143.374 179.371 137.373 185.373C131.371 191.374 128 199.513 128 208V240C128 244.243 129.686 248.313 132.686 251.314C135.687 254.314 139.757 256 144 256C148.243 256 152.313 257.686 155.314 260.686C158.314 263.687 160 267.757 160 272C160 276.243 158.314 280.313 155.314 283.314C152.313 286.314 148.243 288 144 288C139.757 288 135.687 289.686 132.686 292.686C129.686 295.687 128 299.757 128 304V432C128 444.73 133.057 456.939 142.059 465.941C151.061 474.943 163.27 480 176 480H336C348.73 480 360.939 474.943 369.941 465.941C378.943 456.939 384 444.73 384 432V304C384 299.757 382.314 295.687 379.314 292.686C376.313 289.686 372.243 288 368 288C363.757 288 359.687 286.314 356.686 283.314C353.686 280.313 352 276.243 352 272C352 267.757 353.686 263.687 356.686 260.686C359.687 257.686 363.757 256 368 256Z" fill="url(#paint0_linear_10025_21543)"/>
<defs>
<linearGradient id="paint0_linear_10025_21543" x1="256" y1="32" x2="256" y2="480" gradientUnits="userSpaceOnUse">
<stop stop-color="#72707D"/>
<stop offset="1" stop-color="#101824"/>
</linearGradient>
</defs>
</svg>
