<svg width="512" height="512" viewBox="0 0 512 512" fill="none" xmlns="http://www.w3.org/2000/svg">
<g clip-path="url(#clip0_10025_60298)">
<path d="M497 451.996H495.482H16.518H15C6.709 451.996 0 458.705 0 466.996C0 475.287 6.709 481.996 15 481.996H31.361C45.061 500.112 66.587 511.996 91 511.996H421C445.413 511.996 466.939 500.112 480.639 481.996H497C505.291 481.996 512 475.287 512 466.996C512 458.704 505.291 451.996 497 451.996Z" fill="url(#paint0_linear_10025_60298)"/>
<path d="M428.881 320.99C411.786 320.99 396.405 313.578 385.756 301.801C375.107 313.578 359.726 320.99 342.631 320.99C325.536 320.99 310.155 313.578 299.506 301.801C288.857 313.578 273.476 320.99 256.381 320.99C239.286 320.99 223.905 313.578 213.256 301.801C202.607 313.578 187.226 320.99 170.131 320.99C153.036 320.99 137.655 313.578 127.006 301.801C116.357 313.578 100.976 320.99 83.881 320.99C58.278 320.99 48.017 308.924 31 291.979V360.995H481V292.501C464.041 309.55 454.764 320.99 428.881 320.99Z" fill="url(#paint1_linear_10025_60298)"/>
<path d="M481 391.001H31V421.001H481V391.001Z" fill="url(#paint2_linear_10025_60298)"/>
<path d="M31 210.996V249.677L61.762 280.342C67.914 287.416 75.692 290.991 83.881 290.991C99.394 290.991 112.006 278.379 112.006 262.866C112.006 254.575 118.715 247.866 127.006 247.866C135.297 247.866 142.006 254.575 142.006 262.866C142.006 278.379 154.618 290.991 170.131 290.991C185.644 290.991 198.256 278.379 198.256 262.866C198.256 254.575 204.965 247.866 213.256 247.866C221.547 247.866 228.256 254.575 228.256 262.866C228.256 278.379 240.868 290.991 256.381 290.991C271.894 290.991 284.506 278.379 284.506 262.866C284.506 254.575 291.215 247.866 299.506 247.866C307.797 247.866 314.506 254.575 314.506 262.866C314.506 278.379 327.118 290.991 342.631 290.991C358.144 290.991 370.756 278.379 370.756 262.866C370.756 254.575 377.465 247.866 385.756 247.866C394.047 247.866 400.756 254.575 400.756 262.866C400.756 278.379 413.368 290.991 428.881 290.991C437.45 290.991 445.448 287.138 450.839 280.415L481 250.034V210.996H31Z" fill="url(#paint3_linear_10025_60298)"/>
<path d="M474.394 175.766C447.877 105.409 374.485 58.8443 344.57 61.8503C345.451 66.4403 346 71.1523 346 75.9953C346 117.348 312.353 150.995 271 150.995C244.093 150.995 220.641 136.629 207.404 115.282L43.1069 180.996H476.369L474.394 175.766Z" fill="url(#paint4_linear_10025_60298)"/>
<path d="M280.855 32.1589L269.418 8.28687C265.712 0.85987 256.689 -2.08413 249.291 1.57787C241.879 5.28387 238.876 14.2929 242.582 21.7049L249.567 36.6759C235.602 44.3219 226 58.9799 226 75.9959C226 100.81 246.186 120.996 271 120.996C295.814 120.996 316 100.81 316 75.9959C316 54.5759 300.932 36.6729 280.855 32.1589Z" fill="url(#paint5_linear_10025_60298)"/>
</g>
<defs>
<linearGradient id="paint0_linear_10025_60298" x1="256" y1="451.996" x2="256" y2="511.996" gradientUnits="userSpaceOnUse">
<stop stop-color="#72707D"/>
<stop offset="1" stop-color="#101824"/>
</linearGradient>
<linearGradient id="paint1_linear_10025_60298" x1="256" y1="291.979" x2="256" y2="360.995" gradientUnits="userSpaceOnUse">
<stop stop-color="#72707D"/>
<stop offset="1" stop-color="#101824"/>
</linearGradient>
<linearGradient id="paint2_linear_10025_60298" x1="256" y1="391.001" x2="256" y2="421.001" gradientUnits="userSpaceOnUse">
<stop stop-color="#72707D"/>
<stop offset="1" stop-color="#101824"/>
</linearGradient>
<linearGradient id="paint3_linear_10025_60298" x1="256" y1="210.996" x2="256" y2="290.991" gradientUnits="userSpaceOnUse">
<stop stop-color="#72707D"/>
<stop offset="1" stop-color="#101824"/>
</linearGradient>
<linearGradient id="paint4_linear_10025_60298" x1="259.738" y1="61.7129" x2="259.738" y2="180.996" gradientUnits="userSpaceOnUse">
<stop stop-color="#72707D"/>
<stop offset="1" stop-color="#101824"/>
</linearGradient>
<linearGradient id="paint5_linear_10025_60298" x1="271" y1="0.00683594" x2="271" y2="120.996" gradientUnits="userSpaceOnUse">
<stop stop-color="#72707D"/>
<stop offset="1" stop-color="#101824"/>
</linearGradient>
<clipPath id="clip0_10025_60298">
<rect width="512" height="512" fill="white" transform="translate(0 0.000976562)"/>
</clipPath>
</defs>
</svg>
