<svg width="512" height="512" viewBox="0 0 512 512" fill="none" xmlns="http://www.w3.org/2000/svg">
<path d="M237.92 144.96C269.92 137.12 309.12 127.68 373.44 64.96C403.215 83.3785 428.302 108.465 446.72 138.24C384.32 202.24 374.88 241.92 366.72 273.76C363.713 297.354 352.899 319.263 336 336C314.783 357.111 286.048 368.929 256.117 368.854C226.186 368.779 197.511 356.817 176.4 335.6C155.289 314.383 143.471 285.648 143.546 255.717C143.621 225.786 155.583 197.111 176.8 176C193.198 159.204 214.684 148.292 237.92 144.96ZM461.92 168.96C412.16 221.92 404.48 253.6 397.92 280.96C393.036 310.108 378.832 336.887 357.44 357.28C329.967 381.373 294.362 394.12 257.84 392.939C221.318 391.758 186.611 376.736 160.752 350.918C134.893 325.1 119.817 290.416 118.578 253.896C117.339 217.376 130.03 181.751 154.08 154.24C174.473 132.848 201.252 118.644 230.4 113.76C258.4 107.04 290.08 99.36 342.4 49.76C315.079 38.1184 285.698 32.0791 256 32C211.697 32 168.389 45.1374 131.552 69.7508C94.7158 94.3642 66.0051 129.348 49.0511 170.279C32.0971 211.21 27.6611 256.248 36.3042 299.7C44.9473 343.152 66.2812 383.065 97.6082 414.392C128.935 445.719 168.848 467.053 212.3 475.696C255.752 484.339 300.791 479.903 341.721 462.949C382.652 445.995 417.636 417.284 442.249 380.448C466.863 343.611 480 300.303 480 256C480.057 226.097 474.071 196.491 462.4 168.96H461.92Z" fill="url(#paint0_linear_10025_21546)"/>
<defs>
<linearGradient id="paint0_linear_10025_21546" x1="256" y1="32" x2="256" y2="480" gradientUnits="userSpaceOnUse">
<stop stop-color="#72707D"/>
<stop offset="1" stop-color="#101824"/>
</linearGradient>
</defs>
</svg>
