<svg width="512" height="512" viewBox="0 0 512 512" fill="none" xmlns="http://www.w3.org/2000/svg">
<path d="M379.84 218.88L395.84 202.88C398.853 199.867 400.546 195.781 400.546 191.52C400.546 187.259 398.853 183.173 395.84 180.16C392.827 177.147 388.741 175.455 384.48 175.455C380.219 175.455 376.133 177.147 373.12 180.16L357.12 196.16C332.83 176.279 303.228 163.982 272 160.8V157.76C287.083 153.866 300.227 144.604 308.97 131.712C317.712 118.819 321.453 103.181 319.49 87.728C317.527 72.275 309.996 58.0683 298.308 47.7708C286.62 37.4734 271.577 31.7923 256 31.7923C240.423 31.7923 225.38 37.4734 213.692 47.7708C202.004 58.0683 194.473 72.275 192.51 87.728C190.547 103.181 194.288 118.819 203.03 131.712C211.773 144.604 224.918 153.866 240 157.76V160.8C208.773 163.982 179.171 176.279 154.88 196.16L138.88 180.16C135.867 177.147 131.781 175.455 127.52 175.455C123.259 175.455 119.173 177.147 116.16 180.16C113.147 183.173 111.455 187.259 111.455 191.52C111.455 195.781 113.147 199.867 116.16 202.88L132.16 218.88C112.983 242.322 100.853 270.726 97.1805 300.79C93.5083 330.854 98.4444 361.342 111.415 388.711C124.386 416.081 144.859 439.206 170.453 455.4C196.048 471.593 225.713 480.19 256 480.19C286.287 480.19 315.952 471.593 341.547 455.4C367.141 439.206 387.614 416.081 400.585 388.711C413.556 361.342 418.492 330.854 414.82 300.79C411.147 270.726 399.017 242.322 379.84 218.88ZM224 96C223.966 90.3748 225.416 84.8401 228.203 79.9537C230.99 75.0673 235.016 71.0019 239.875 68.1673C244.733 65.3326 250.254 63.8289 255.879 63.8077C261.504 63.7866 267.036 65.2486 271.916 68.0465C276.796 70.8445 280.852 74.8794 283.676 79.7447C286.5 84.61 287.991 90.1336 287.999 95.7589C288.008 101.384 286.534 106.912 283.725 111.786C280.916 116.66 276.872 120.707 272 123.52V112C272 107.757 270.314 103.687 267.314 100.686C264.313 97.6857 260.244 96 256 96C251.757 96 247.687 97.6857 244.686 100.686C241.686 103.687 240 107.757 240 112V123.52C235.164 120.728 231.142 116.719 228.335 111.891C225.528 107.063 224.034 101.584 224 96ZM315.36 379.36C313.873 380.86 312.103 382.05 310.153 382.862C308.204 383.675 306.112 384.093 304 384.093C301.888 384.093 299.797 383.675 297.847 382.862C295.897 382.05 294.128 380.86 292.64 379.36L244.64 331.36C241.627 328.347 239.935 324.261 239.935 320C239.935 315.739 241.627 311.653 244.64 308.64C247.653 305.627 251.739 303.935 256 303.935C260.261 303.935 264.347 305.627 267.36 308.64L315.36 356.64C316.86 358.127 318.05 359.897 318.862 361.847C319.675 363.797 320.093 365.888 320.093 368C320.093 370.112 319.675 372.203 318.862 374.153C318.05 376.103 316.86 377.873 315.36 379.36Z" fill="url(#paint0_linear_10025_21549)"/>
<defs>
<linearGradient id="paint0_linear_10025_21549" x1="256" y1="31.7923" x2="256" y2="480.19" gradientUnits="userSpaceOnUse">
<stop stop-color="#72707D"/>
<stop offset="1" stop-color="#101824"/>
</linearGradient>
</defs>
</svg>
