<svg width="513" height="513" viewBox="0 0 513 513" fill="none" xmlns="http://www.w3.org/2000/svg">
<g clip-path="url(#clip0_10025_65714)">
<path d="M217.558 512.325H305.071L313.643 484.896H207.272L217.558 512.325Z" fill="url(#paint0_linear_10025_65714)"/>
<path d="M364.124 174.699L364.073 174.759C358.131 182.309 351.482 189.276 344.218 195.565L343.761 195.947C341.702 197.689 339.659 199.309 337.632 200.808L337.361 201.008C324.212 211.23 308.34 217.347 291.732 218.593C290.361 218.673 289.013 218.709 287.696 218.709C287.224 218.709 286.8 218.654 286.336 218.645C284.651 218.622 283.036 218.542 281.493 218.416C280.861 218.362 280.261 218.288 279.645 218.218C278.078 218.048 276.592 217.844 275.201 217.601C274.918 217.551 274.623 217.513 274.344 217.46L274.063 217.414C273.033 217.211 272.25 216.994 271.347 216.787C270.488 216.587 269.584 216.412 268.774 216.193C268.643 216.158 268.469 216.128 268.34 216.092C268.082 216.021 267.855 215.908 267.598 215.834C264.919 215.072 262.285 214.155 259.712 213.089L259.541 213.03C258.041 212.387 257.054 211.923 256.193 211.494C255.189 210.992 254.551 210.651 254.041 210.365L254.04 210.364L253.836 210.252L253.64 210.145C253.18 209.882 252.827 209.67 252.544 209.497L252.462 209.449C249.081 207.768 245.845 206.351 242.643 204.99C241.967 204.703 241.238 204.323 240.57 204.049C240.102 203.858 239.678 203.738 239.214 203.552C182.689 181.01 154.878 206.796 153.637 207.984L153.374 208.234C145.528 217.263 138.901 227.283 133.664 238.038H387.231C392.166 214.252 383.217 189.72 364.124 174.699Z" fill="url(#paint1_linear_10025_65714)"/>
<path d="M152.246 186.793C152.599 186.594 152.906 186.403 153.275 186.203C154.685 185.44 156.199 184.673 157.845 183.918C158.05 183.824 158.29 183.736 158.499 183.642C159.937 182.997 161.444 182.365 163.055 181.756C163.673 181.523 164.351 181.312 164.995 181.087C166.28 180.636 167.579 180.197 168.967 179.786C169.777 179.547 170.633 179.335 171.477 179.112C172.81 178.76 174.164 178.425 175.583 178.122C176.538 177.918 177.519 177.739 178.513 177.56C179.94 177.305 181.409 177.078 182.919 176.88C183.987 176.739 185.063 176.613 186.171 176.506C187.744 176.354 189.372 176.257 191.026 176.178C192.17 176.123 193.301 176.063 194.484 176.047C194.965 176.04 195.406 175.993 195.894 175.993C198.09 175.991 200.352 176.062 202.678 176.206L202.765 176.214C205.632 176.395 208.631 176.737 211.695 177.165C212.562 177.286 213.444 177.433 214.326 177.576C216.868 177.988 219.475 178.493 222.147 179.092C222.891 179.259 223.612 179.395 224.367 179.577C227.718 180.384 231.17 181.354 234.722 182.489C235.503 182.738 236.312 183.041 237.103 183.307C240.007 184.286 242.976 185.381 246.011 186.592C247.071 187.015 248.127 187.435 249.202 187.888C253.054 189.511 256.972 191.259 261.027 193.287C261.353 193.45 261.669 193.632 261.973 193.832C262.131 193.924 262.668 194.244 263.014 194.455L263.521 194.735L264.134 195.028C265 195.457 265.674 195.76 266.442 196.099C268.625 197.032 270.868 197.817 273.156 198.447C274.461 198.804 275.848 199.126 277.317 199.411C277.576 199.456 278.027 199.563 278.281 199.634C279.157 199.799 280.076 199.931 281.004 200.055C295.753 201.533 310.538 197.632 322.638 189.07C322.901 188.896 323.164 188.723 323.429 188.544C324.488 187.833 325.555 187.075 326.629 186.285C327.353 185.748 328.082 185.181 328.812 184.607C329.548 184.032 330.283 183.465 331.025 182.851C338.809 176.24 345.822 168.772 351.932 160.589L351.958 160.566C354.05 157.82 356.148 154.962 358.253 151.848C360.61 141.943 357.846 131.516 350.891 124.08C349.347 126.441 347.679 128.719 345.893 130.903C345.667 131.182 345.418 131.431 345.189 131.705C343.365 133.884 341.425 135.964 339.377 137.935C338.766 138.527 338.154 139.109 337.526 139.679C335.447 141.575 333.27 143.36 331.004 145.028C330.708 145.245 330.435 145.492 330.136 145.705C327.638 147.461 325.043 149.076 322.364 150.542C321.511 151.015 320.642 151.447 319.773 151.889C317.738 152.922 315.662 153.873 313.544 154.742C312.691 155.092 311.856 155.47 310.992 155.793C308.189 156.84 305.333 157.739 302.436 158.486C301.566 158.709 300.679 158.865 299.8 159.062C297.578 159.564 295.333 159.978 293.064 160.304C291.993 160.457 290.926 160.607 289.846 160.721C287.097 161.011 284.328 161.192 281.539 161.224C281.199 161.228 280.867 161.285 280.526 161.285C279.957 161.286 279.383 161.204 278.813 161.194C276.547 161.151 274.277 161.047 272 160.83C270.783 160.714 269.57 160.523 268.352 160.357C266.623 160.121 264.897 159.852 263.169 159.514C261.898 159.265 260.634 158.987 259.367 158.681C257.62 158.261 255.882 157.768 254.145 157.239C252.969 156.881 251.794 156.549 250.624 156.141C248.342 155.346 246.079 154.431 243.829 153.444C243.294 153.209 242.746 153.048 242.213 152.803C241.842 152.632 241.488 152.506 241.119 152.34C238.207 151.026 235.278 149.856 232.339 148.794C231.385 148.447 230.439 148.117 229.5 147.803C226.214 146.709 222.92 145.716 219.612 144.938C219.427 144.894 219.251 144.865 219.066 144.822C211.637 143.098 204.044 142.178 196.418 142.08L168.838 146.214C158.907 152.5 151.534 162.111 148.034 173.33C147.09 178.341 147.732 183.523 149.87 188.152C150.597 187.71 151.434 187.25 152.246 186.793Z" fill="url(#paint2_linear_10025_65714)"/>
<path d="M275.589 21.298C276.049 18.727 277.451 10.887 265.741 0.404984L265.692 0.333984C252.853 9.67298 215.04 39.887 217.567 69.932C241.482 58.878 272.388 39.182 275.589 21.298Z" fill="url(#paint3_linear_10025_65714)"/>
<path d="M195.811 123.789C196.001 123.79 196.189 123.821 196.379 123.823C200.725 123.848 205.067 124.11 209.385 124.608C209.545 124.626 209.704 124.661 209.863 124.681C213.49 125.121 217.297 125.8 221.211 126.64C222.512 126.918 223.81 127.225 225.108 127.545C227.853 128.223 230.658 129.043 233.518 129.951C234.921 130.397 236.327 130.798 237.724 131.292C241.027 132.462 244.405 133.838 247.831 135.356C248.498 135.652 249.177 135.858 249.842 136.165C273.938 147.777 302.564 144.501 323.414 127.745C328.544 123.471 332.94 118.386 336.427 112.691C336.712 112.226 336.96 111.752 337.236 111.29C337.879 110.192 338.502 109.046 339.118 107.883C337.455 76.6926 317.39 49.4846 288.083 38.6816C270.669 68.2296 220.98 88.5936 214.574 91.1186L214.495 91.1336C214.318 91.2026 214.138 91.2716 214.056 91.2976C198.074 97.2026 185.189 109.368 178.376 124.986C184.018 124.177 189.711 123.786 195.411 123.817C195.544 123.81 195.697 123.808 195.811 123.789Z" fill="url(#paint4_linear_10025_65714)"/>
<path d="M395.428 259.963C393.7 257.671 390.996 256.323 388.125 256.324H125.75C122.88 256.323 120.175 257.67 118.448 259.963C116.72 262.255 116.169 265.226 116.96 267.985L127.114 303.526L131.598 294.557C134.585 288.589 140.585 284.722 147.254 284.467C153.923 284.212 160.201 287.611 163.634 293.333L174.652 311.699L186.455 292.538C189.783 287.067 195.73 283.734 202.134 283.752C208.538 283.77 214.466 287.137 217.763 292.627L229.455 311.609L241.312 292.538C244.64 287.067 250.587 283.734 256.991 283.752C263.395 283.77 269.323 287.137 272.62 292.627L284.312 311.609L296.169 292.538C299.497 287.067 305.444 283.734 311.848 283.752C318.252 283.77 324.18 287.137 327.477 292.627L339.169 311.609L350.245 293.334C353.677 287.612 359.955 284.213 366.623 284.468C373.291 284.723 379.291 288.59 382.277 294.557L386.761 303.525L396.916 267.985C397.706 265.226 397.155 262.256 395.428 259.963Z" fill="url(#paint5_linear_10025_65714)"/>
<path d="M200.415 466.611H319.357L330.786 430.039H186.701L200.415 466.611Z" fill="url(#paint6_linear_10025_65714)"/>
<path d="M376.759 324.415L365.924 302.736L354.902 321.111C351.597 326.617 345.645 329.986 339.223 329.986C332.801 329.986 326.85 326.617 323.544 321.111L311.848 302.129L299.991 321.2C296.664 326.671 290.718 330.004 284.314 329.986C277.911 329.968 271.983 326.601 268.687 321.111L256.991 302.129L245.134 321.2C241.807 326.671 235.861 330.004 229.457 329.986C223.054 329.968 217.126 326.601 213.83 321.111L202.134 302.129L190.277 321.2C186.95 326.671 181.004 330.004 174.6 329.986C168.196 329.968 162.269 326.601 158.973 321.111L147.955 302.745L137.116 324.415C136.395 325.776 135.334 326.927 134.036 327.756L143.081 359.415C144.216 363.331 147.798 366.029 151.876 366.04H362.005C366.084 366.028 369.665 363.325 370.796 359.406L379.839 327.756C378.539 326.928 377.478 325.777 376.759 324.415Z" fill="url(#paint7_linear_10025_65714)"/>
<path d="M179.844 411.752H336.5L345.071 384.324H169.558L179.844 411.752Z" fill="url(#paint8_linear_10025_65714)"/>
</g>
<defs>
<linearGradient id="paint0_linear_10025_65714" x1="260.457" y1="484.896" x2="260.457" y2="512.325" gradientUnits="userSpaceOnUse">
<stop stop-color="#72707D"/>
<stop offset="1" stop-color="#101824"/>
</linearGradient>
<linearGradient id="paint1_linear_10025_65714" x1="261.116" y1="174.699" x2="261.116" y2="238.038" gradientUnits="userSpaceOnUse">
<stop stop-color="#72707D"/>
<stop offset="1" stop-color="#101824"/>
</linearGradient>
<linearGradient id="paint2_linear_10025_65714" x1="253.344" y1="124.08" x2="253.344" y2="200.362" gradientUnits="userSpaceOnUse">
<stop stop-color="#72707D"/>
<stop offset="1" stop-color="#101824"/>
</linearGradient>
<linearGradient id="paint3_linear_10025_65714" x1="246.669" y1="0.333984" x2="246.669" y2="69.932" gradientUnits="userSpaceOnUse">
<stop stop-color="#72707D"/>
<stop offset="1" stop-color="#101824"/>
</linearGradient>
<linearGradient id="paint4_linear_10025_65714" x1="258.747" y1="38.6816" x2="258.747" y2="143.043" gradientUnits="userSpaceOnUse">
<stop stop-color="#72707D"/>
<stop offset="1" stop-color="#101824"/>
</linearGradient>
<linearGradient id="paint5_linear_10025_65714" x1="256.938" y1="256.324" x2="256.938" y2="311.699" gradientUnits="userSpaceOnUse">
<stop stop-color="#72707D"/>
<stop offset="1" stop-color="#101824"/>
</linearGradient>
<linearGradient id="paint6_linear_10025_65714" x1="258.744" y1="430.039" x2="258.744" y2="466.611" gradientUnits="userSpaceOnUse">
<stop stop-color="#72707D"/>
<stop offset="1" stop-color="#101824"/>
</linearGradient>
<linearGradient id="paint7_linear_10025_65714" x1="256.938" y1="302.129" x2="256.938" y2="366.04" gradientUnits="userSpaceOnUse">
<stop stop-color="#72707D"/>
<stop offset="1" stop-color="#101824"/>
</linearGradient>
<linearGradient id="paint8_linear_10025_65714" x1="257.315" y1="384.324" x2="257.315" y2="411.752" gradientUnits="userSpaceOnUse">
<stop stop-color="#72707D"/>
<stop offset="1" stop-color="#101824"/>
</linearGradient>
<clipPath id="clip0_10025_65714">
<rect width="511.991" height="511.991" fill="white" transform="translate(0.941895 0.333984)"/>
</clipPath>
</defs>
</svg>
