<svg width="513" height="513" viewBox="0 0 513 513" fill="none" xmlns="http://www.w3.org/2000/svg">
<g clip-path="url(#clip0_10025_65727)">
<path d="M199.646 300.469C193.025 300.469 187.199 300.734 181.726 301.263H181.638C181.38 301.336 181.111 301.366 180.844 301.351C180.579 301.351 180.226 301.439 179.961 301.439H179.873C105.368 308.413 49.5781 353.434 49.5781 406.399C49.5781 464.838 116.932 512.33 199.647 512.33C259.057 512.33 312.817 487.524 337.004 448.948L337.269 448.418C345.341 435.885 349.66 421.306 349.716 406.399C349.715 347.961 282.36 300.469 199.646 300.469ZM111.37 459.365C87.0061 459.365 67.2321 435.619 67.2321 406.399C67.2321 377.179 87.0061 353.433 111.37 353.433C135.734 353.433 155.508 377.179 155.508 406.399C155.508 435.619 135.734 459.365 111.37 459.365ZM278.3 345.313C276.874 348.473 273.734 350.509 270.267 350.521C268.99 350.513 267.728 350.242 266.559 349.727C245.516 340.325 222.693 335.567 199.646 335.779C194.771 335.779 190.818 331.827 190.818 326.951C190.818 322.076 194.77 318.123 199.646 318.123C225.245 317.962 250.584 323.259 273.974 333.66C276.094 334.63 277.741 336.404 278.553 338.589C279.364 340.775 279.273 343.194 278.3 345.313ZM320.231 387.597C318.92 388.365 317.425 388.762 315.905 388.745C312.736 388.768 309.801 387.081 308.225 384.331C306.664 381.608 304.893 379.011 302.928 376.563C299.905 372.736 300.557 367.183 304.385 364.16C308.213 361.137 313.765 361.789 316.788 365.617C319.302 368.735 321.574 372.04 323.585 375.504C325.981 379.771 324.483 385.173 320.231 387.597Z" fill="url(#paint0_linear_10025_65727)"/>
<path d="M404.446 228.081C340.446 164.169 250.669 149.339 201.676 193.742C201.673 193.745 201.67 193.748 201.667 193.75L149.634 153.285L163.934 138.985C164.388 138.524 164.776 138.024 165.107 137.499C165.114 137.503 165.121 137.507 165.129 137.511C170.666 140.161 176.733 141.519 182.872 141.483C197.084 141.483 216.24 134.598 240.251 111.204C264.127 84.9209 280.553 52.7389 287.832 17.9849C288.263 13.2339 286.547 8.53793 283.153 5.18493C280.095 2.09693 275.935 0.349931 271.589 0.329931C271.087 0.314931 270.585 0.344931 270.088 0.417931C250.403 2.09493 213.591 8.80393 187.638 34.1389C162.391 58.7679 146.678 87.2809 146.678 108.467C146.508 114.771 148.229 120.982 151.621 126.299C151.628 126.31 151.636 126.32 151.642 126.33C151.579 126.389 151.511 126.441 151.449 126.502L135.588 142.363L125.612 134.605C123.124 132.657 119.785 132.187 116.857 133.374C113.929 134.561 111.858 137.222 111.429 140.353C111 143.484 112.276 146.604 114.777 148.536L189.738 206.833C173.77 229.409 166.817 257.138 170.247 284.578V284.843C173.16 284.402 176.073 284.049 179.075 283.784C181.812 283.519 184.813 283.254 187.903 283.166C191.522 282.901 195.495 282.813 199.644 282.813C292.157 282.813 367.368 338.25 367.368 406.399C367.374 419.805 364.483 433.055 358.894 445.24C357.003 449.578 354.79 453.768 352.273 457.775C351.302 459.364 350.331 460.865 349.272 462.365C353.142 462.786 357.032 462.993 360.924 462.983C388.708 463.765 415.643 453.366 435.694 434.117C483.806 385.83 469.77 293.494 404.446 228.081ZM167.425 117.825C165.733 116.011 164.706 113.677 164.512 111.204L184.551 91.1649C188.017 87.7279 193.609 87.7389 197.061 91.1909C200.513 94.6429 200.524 100.235 197.087 103.701L177.49 123.298C173.691 122.444 170.206 120.548 167.425 117.825ZM415.215 388.39C410.541 387.017 407.857 382.123 409.212 377.444C410.667 372.388 411.468 367.167 411.595 361.907C411.784 357.046 415.868 353.253 420.73 353.423C425.592 353.593 429.401 357.663 429.25 362.525C429.068 369.25 428.029 375.924 426.16 382.387C425.103 386.182 421.625 388.79 417.686 388.743C416.85 388.75 416.017 388.631 415.215 388.39ZM366.929 265.599C363.468 262.138 363.468 256.525 366.929 253.064C370.39 249.603 376.003 249.603 379.464 253.064C399.649 272.965 414.809 297.384 423.69 324.303C424.385 326.539 424.162 328.96 423.069 331.03C421.976 333.101 420.103 334.651 417.864 335.337C417.007 335.612 416.115 335.761 415.216 335.778C411.352 335.745 407.956 333.207 406.83 329.51C398.82 305.327 385.139 283.413 366.929 265.599Z" fill="url(#paint1_linear_10025_65727)"/>
<path d="M111.37 371.088C96.8042 371.088 84.8872 386.889 84.8872 406.398C84.8872 425.907 96.8042 441.708 111.37 441.708C126.024 441.708 137.853 425.907 137.853 406.398C137.853 386.889 126.024 371.088 111.37 371.088Z" fill="url(#paint2_linear_10025_65727)"/>
</g>
<defs>
<linearGradient id="paint0_linear_10025_65727" x1="199.647" y1="300.469" x2="199.647" y2="512.33" gradientUnits="userSpaceOnUse">
<stop stop-color="#72707D"/>
<stop offset="1" stop-color="#101824"/>
</linearGradient>
<linearGradient id="paint1_linear_10025_65727" x1="287.82" y1="0.326172" x2="287.82" y2="463.024" gradientUnits="userSpaceOnUse">
<stop stop-color="#72707D"/>
<stop offset="1" stop-color="#101824"/>
</linearGradient>
<linearGradient id="paint2_linear_10025_65727" x1="111.37" y1="371.088" x2="111.37" y2="441.708" gradientUnits="userSpaceOnUse">
<stop stop-color="#72707D"/>
<stop offset="1" stop-color="#101824"/>
</linearGradient>
<clipPath id="clip0_10025_65727">
<rect width="512.004" height="512.004" fill="white" transform="translate(0.933105 0.326172)"/>
</clipPath>
</defs>
</svg>
