<svg width="512" height="512" viewBox="0 0 512 512" fill="none" xmlns="http://www.w3.org/2000/svg">
<path d="M128 176C128 171.757 126.314 167.687 123.314 164.686C120.313 161.686 116.243 160 112 160C107.757 160 103.687 161.686 100.686 164.686C97.6857 167.687 96 171.757 96 176V384H48C43.7565 384 39.6869 382.314 36.6863 379.314C33.6857 376.313 32 372.243 32 368V144C32 114.296 43.8 85.8081 64.804 64.804C85.8081 43.8 114.296 32 144 32L235.68 158.72L128 308.64V176ZM327.84 32H183.84L256 131.36L327.84 32ZM316.8 390.4C318.061 392.081 318.978 393.994 319.499 396.029C320.021 398.065 320.136 400.183 319.839 402.263C319.542 404.343 318.838 406.344 317.768 408.152C316.697 409.96 315.281 411.539 313.6 412.8C311.919 414.061 310.006 414.978 307.971 415.499C305.935 416.021 303.817 416.136 301.737 415.839C299.657 415.542 297.656 414.838 295.848 413.768C294.04 412.697 292.461 411.281 291.2 409.6L256 362.72L220.8 409.6C219.539 411.281 217.96 412.697 216.152 413.768C214.344 414.838 212.343 415.542 210.263 415.839C208.183 416.136 206.065 416.021 204.029 415.499C201.994 414.978 200.081 414.061 198.4 412.8C196.719 411.539 195.303 409.96 194.232 408.152C193.162 406.344 192.458 404.343 192.161 402.263C191.864 400.183 191.979 398.065 192.501 396.029C193.022 393.994 193.939 392.081 195.2 390.4L224 352H128V432C128 444.73 133.057 456.939 142.059 465.941C151.061 474.943 163.27 480 176 480H336C348.73 480 360.939 474.943 369.941 465.941C378.943 456.939 384 444.73 384 432V352H288L316.8 390.4ZM368 32L160 320H384V176C384 171.757 385.686 167.687 388.686 164.686C391.687 161.686 395.757 160 400 160C404.243 160 408.313 161.686 411.314 164.686C414.314 167.687 416 171.757 416 176V384H464C468.243 384 472.313 382.314 475.314 379.314C478.314 376.313 480 372.243 480 368V144C480 114.296 468.2 85.8081 447.196 64.804C426.192 43.8 397.704 32 368 32Z" fill="url(#paint0_linear_10025_21552)"/>
<defs>
<linearGradient id="paint0_linear_10025_21552" x1="256" y1="32" x2="256" y2="480" gradientUnits="userSpaceOnUse">
<stop stop-color="#72707D"/>
<stop offset="1" stop-color="#101824"/>
</linearGradient>
</defs>
</svg>
