<svg width="512" height="512" viewBox="0 0 512 512" fill="none" xmlns="http://www.w3.org/2000/svg">
<g clip-path="url(#clip0_10025_60358)">
<path d="M102.172 455.291L72.162 318.001L46.729 334.252C17.9 351.551 0 383.177 0 416.796C0 445.111 12.48 471.757 34.248 489.892C56.03 508.027 84.477 515.483 112.324 510.371L127.571 507.568C114.618 492.934 105.412 475.232 102.172 455.291Z" fill="url(#paint0_linear_10025_60358)"/>
<path d="M475.113 19.732C458.209 6.82698 438.008 0.000976562 416.695 0.000976562C383.077 0.000976562 351.451 17.901 334.371 46.378L317.897 72.163L457.579 102.643C475.981 105.58 493.116 114.72 507.477 127.512L510.445 111.358C516.817 76.495 503.326 41.324 475.113 19.732Z" fill="url(#paint1_linear_10025_60358)"/>
<path d="M252.119 478.423L123.9 264.717C117.901 254.729 113.904 243.783 111.584 232.47C99.745 249.154 93.277 270.945 97.499 291.873L131.791 448.948C135.513 471.888 149.326 491.473 169.702 502.679C190.078 513.87 214.014 515.042 235.386 505.887L263.537 493.344C259.439 488.653 255.396 483.885 252.119 478.423Z" fill="url(#paint2_linear_10025_60358)"/>
<path d="M462.983 277.841L249.276 149.624C220.653 132.441 184.164 136.924 160.536 160.537C136.914 184.184 132.437 220.61 149.623 249.277L277.841 462.983C302.97 504.875 360.726 511.921 395.19 477.426L477.426 395.19C511.964 360.652 504.802 302.927 462.983 277.841Z" fill="url(#paint3_linear_10025_60358)"/>
<path d="M502.689 169.703C491.483 149.327 471.898 135.514 449.75 131.954L291.634 97.4416C271.384 93.3836 249.718 99.8996 233.108 111.486C244.027 113.799 254.714 117.898 264.716 123.901L478.422 252.119C483.867 255.388 488.786 259.216 493.453 263.278L505.897 235.372C515.038 214.044 513.866 190.064 502.689 169.703Z" fill="url(#paint4_linear_10025_60358)"/>
</g>
<defs>
<linearGradient id="paint0_linear_10025_60358" x1="63.7855" y1="318.001" x2="63.7855" y2="511.947" gradientUnits="userSpaceOnUse">
<stop stop-color="#72707D"/>
<stop offset="1" stop-color="#101824"/>
</linearGradient>
<linearGradient id="paint1_linear_10025_60358" x1="414.948" y1="0.000976562" x2="414.948" y2="127.512" gradientUnits="userSpaceOnUse">
<stop stop-color="#72707D"/>
<stop offset="1" stop-color="#101824"/>
</linearGradient>
<linearGradient id="paint2_linear_10025_60358" x1="179.871" y1="232.47" x2="179.871" y2="512.001" gradientUnits="userSpaceOnUse">
<stop stop-color="#72707D"/>
<stop offset="1" stop-color="#101824"/>
</linearGradient>
<linearGradient id="paint3_linear_10025_60358" x1="319.322" y1="139.239" x2="319.322" y2="499.414" gradientUnits="userSpaceOnUse">
<stop stop-color="#72707D"/>
<stop offset="1" stop-color="#101824"/>
</linearGradient>
<linearGradient id="paint4_linear_10025_60358" x1="372.554" y1="96.2314" x2="372.554" y2="263.278" gradientUnits="userSpaceOnUse">
<stop stop-color="#72707D"/>
<stop offset="1" stop-color="#101824"/>
</linearGradient>
<clipPath id="clip0_10025_60358">
<rect width="512.001" height="512.001" fill="white" transform="translate(0 0.000976562)"/>
</clipPath>
</defs>
</svg>
