<svg width="513" height="513" viewBox="0 0 513 513" fill="none" xmlns="http://www.w3.org/2000/svg">
<g clip-path="url(#clip0_10025_65734)">
<path d="M338.042 339.245C337.585 335.588 337.128 331.931 336.396 328.365C336.213 327.359 335.939 326.445 335.756 325.439C334.933 321.69 333.927 317.942 332.83 314.285C332.647 313.645 332.464 313.005 332.281 312.456C330.91 308.342 329.447 304.227 327.801 300.296C327.71 300.205 327.71 300.022 327.618 299.93C326.795 297.919 325.789 296.09 324.875 294.17C322.615 289.472 320.112 284.894 317.378 280.456C316.738 279.359 316.189 278.353 315.549 277.347C313.198 273.746 310.665 270.268 307.96 266.924C295.812 251.395 280.671 238.462 263.434 228.89C262.154 228.159 260.691 227.519 259.32 226.787C257.034 225.598 254.657 224.41 252.28 223.404C249.629 222.215 246.886 221.118 244.051 220.113C242.953 219.656 241.856 219.29 240.76 218.833C237.195 217.644 233.538 216.547 229.789 215.542C229.515 215.451 229.149 215.451 228.783 215.359C224.669 214.262 220.372 213.439 216.074 212.708L215.617 212.617C214.154 212.434 212.691 212.16 211.137 211.977C209.583 211.795 207.937 211.52 206.383 211.337C201.903 210.971 197.514 210.697 192.943 210.697C188.554 210.697 184.166 210.971 179.777 211.337C178.68 211.428 177.491 211.611 176.394 211.703C171.201 212.32 166.044 213.205 160.943 214.354C160.76 214.354 160.669 214.445 160.486 214.445C155.275 215.634 150.155 217.188 144.943 218.925C142.474 219.839 140.006 220.662 137.629 221.668C136.937 221.887 136.264 222.162 135.618 222.491C131.905 224.043 128.274 225.782 124.738 227.702L121.721 229.348C118.338 231.177 115.047 233.188 111.847 235.291L111.024 235.84C107.458 238.309 103.984 240.869 100.601 243.703C100.052 244.069 99.5954 244.526 99.1384 244.892C95.9384 247.543 92.9214 250.286 89.9954 253.212L89.4464 253.761C86.2464 256.961 83.2294 260.253 80.3954 263.635L79.5724 264.732C77.1034 267.749 74.7264 270.858 72.5324 274.058C72.0754 274.789 71.6184 275.338 71.2524 276.069C55.1794 299.989 46.6154 328.164 46.6584 356.983C46.6654 429.114 99.2444 490.476 170.521 501.538C241.798 512.6 310.502 470.061 332.372 401.326L333.103 398.583C333.743 396.48 334.292 394.286 334.749 392.183C335.572 388.892 336.303 385.509 336.943 382.126C337.309 379.657 337.766 377.189 338.04 374.629C338.223 373.075 338.406 371.429 338.589 369.783C338.955 365.577 339.229 361.28 339.229 356.983C339.229 352.137 338.955 347.383 338.498 342.629C338.408 341.531 338.225 340.434 338.042 339.245ZM250.531 268.269C254.087 264.713 259.847 264.697 263.423 268.233L272.566 277.376C274.897 279.681 275.816 283.058 274.973 286.226C274.13 289.394 271.656 291.869 268.487 292.711C265.319 293.553 261.942 292.635 259.637 290.303L250.494 281.16C246.959 277.585 246.975 271.825 250.531 268.269ZM159.065 249.947L168.208 240.804C171.778 237.234 177.566 237.234 181.137 240.804C184.707 244.374 184.707 250.162 181.137 253.733L171.994 262.876C170.28 264.591 167.955 265.555 165.53 265.555C163.105 265.555 160.78 264.591 159.066 262.876C157.351 261.162 156.387 258.837 156.387 256.412C156.387 253.986 157.35 251.661 159.065 249.947ZM98.8514 372.589L89.7084 381.732C87.9944 383.447 85.6694 384.411 83.2444 384.411C80.8194 384.411 78.4944 383.447 76.7804 381.732C75.0654 380.018 74.1014 377.693 74.1014 375.268C74.1014 372.843 75.0654 370.518 76.7804 368.804L85.9234 359.661C89.4974 356.111 95.2684 356.121 98.8304 359.683C102.391 363.244 102.401 369.016 98.8514 372.589ZM109.975 305.624C108.56 309.04 105.227 311.267 101.53 311.268C99.1054 311.271 96.7784 310.307 95.0664 308.589L85.9234 299.446C82.3984 295.868 82.4194 290.117 85.9704 286.565C89.5224 283.013 95.2734 282.992 98.8514 286.518L107.994 295.661C110.608 298.276 111.39 302.208 109.975 305.624ZM137.83 432.512C136.987 435.68 134.513 438.155 131.344 438.997C128.175 439.839 124.799 438.921 122.494 436.589L113.351 427.446C109.826 423.868 109.847 418.117 113.398 414.565C116.95 411.013 122.701 410.992 126.279 414.518L135.422 423.661C137.754 425.966 138.672 429.343 137.83 432.512ZM208.565 464.018L199.422 473.161C197.708 474.876 195.383 475.84 192.958 475.84C190.533 475.84 188.208 474.876 186.494 473.161C184.779 471.447 183.815 469.121 183.815 466.697C183.815 464.272 184.779 461.947 186.494 460.233L195.637 451.09C199.211 447.54 204.982 447.55 208.544 451.112C212.105 454.673 212.115 460.444 208.565 464.018ZM192.945 420.983C157.599 420.983 128.945 392.329 128.945 356.983C128.945 321.637 157.599 292.983 192.945 292.983C228.291 292.983 256.945 321.637 256.945 356.983C256.906 392.313 228.275 420.944 192.945 420.983ZM284.116 423.369C283.273 426.537 280.799 429.012 277.63 429.854C274.462 430.696 271.085 429.778 268.78 427.446L259.637 418.303C256.102 414.727 256.118 408.967 259.674 405.411C263.23 401.855 268.99 401.839 272.566 405.375L281.709 414.518C284.04 416.824 284.958 420.201 284.116 423.369ZM318.28 354.304L309.137 363.447C305.561 366.979 299.804 366.961 296.249 363.407C292.695 359.853 292.676 354.096 296.208 350.519L305.351 341.376C308.927 337.841 314.687 337.857 318.243 341.412C321.798 344.968 321.815 350.728 318.28 354.304Z" fill="url(#paint0_linear_10025_65734)"/>
<path d="M55.9852 265.921C56.4422 265.281 56.8992 264.641 57.2652 264.001C62.8902 255.841 69.2232 248.192 76.1912 241.144C76.5492 240.832 76.8852 240.496 77.1972 240.138C84.2422 233.195 91.8922 226.892 100.054 221.304L101.974 219.933C105.997 217.282 110.111 214.813 114.225 212.527C114.774 212.253 115.231 212.07 115.688 211.796C115.779 211.705 115.871 211.705 115.871 211.613C92.7352 198.646 79.9842 172.761 83.8062 146.515C87.6272 120.27 107.23 99.0946 133.103 93.2626C158.976 87.4306 185.767 98.1506 200.477 120.219C215.187 142.288 214.774 171.14 199.437 192.778C203.186 192.869 206.934 192.961 210.591 193.418H211.231C211.545 192.733 211.819 192.031 212.054 191.315C213.151 188.481 214.248 185.738 215.437 182.995C216.077 181.441 216.717 179.795 217.448 178.241C218.728 175.407 220.191 172.664 221.745 169.83C222.476 168.459 223.116 167.087 223.939 165.716C225.585 162.882 227.322 160.139 229.15 157.396C229.881 156.207 230.613 154.927 231.436 153.739C233.356 151.088 235.367 148.528 237.379 145.876C240.396 142.036 243.596 138.287 246.979 134.722C247.528 134.173 248.077 133.533 248.625 132.985C251.185 130.242 253.928 127.774 256.67 125.214C257.219 124.757 257.676 124.3 258.224 123.751C261.058 121.282 264.075 118.905 267.093 116.62C267.55 116.254 268.099 115.797 268.556 115.431C271.665 113.145 274.773 111.042 277.973 108.94C278.541 108.638 279.091 108.302 279.619 107.934C281.173 106.928 282.728 105.831 284.373 104.825C262.985 47.1026 207.749 8.9486 146.194 9.3786C84.6402 9.8086 29.9422 48.7296 9.36218 106.744C-11.2178 164.758 6.72518 229.448 54.2482 268.572C54.7962 267.658 55.4362 266.835 55.9852 265.921ZM204.78 67.0906C206.494 65.3756 208.82 64.4116 211.244 64.4116C213.668 64.4116 215.994 65.3756 217.708 67.0906L226.851 76.2336C229.185 78.5386 230.105 81.9166 229.263 85.0856C228.421 88.2546 225.945 90.7306 222.775 91.5736C219.605 92.4166 216.227 91.4956 213.923 89.1616L204.78 80.0186C203.065 78.3046 202.102 75.9796 202.102 73.5546C202.102 71.1296 203.065 68.8046 204.78 67.0906ZM113.351 48.8046L122.494 39.6616C126.07 36.1256 131.83 36.1426 135.386 39.6976C138.942 43.2536 138.958 49.0126 135.423 52.5896L126.28 61.7326C122.704 65.2676 116.944 65.2516 113.388 61.6966C109.832 58.1406 109.816 52.3806 113.351 48.8046ZM40.2082 116.591C37.8992 114.282 36.9972 110.915 37.8422 107.761C38.6872 104.607 41.1522 102.142 44.3062 101.297C47.4612 100.452 50.8272 101.354 53.1362 103.663L62.2792 112.806C64.6102 115.111 65.5292 118.488 64.6862 121.656C63.8432 124.824 61.3692 127.299 58.2002 128.141C55.0322 128.983 51.6552 128.065 49.3502 125.733L40.2082 116.591ZM46.9442 213.084C46.1012 209.916 47.0202 206.539 49.3512 204.234L58.4942 195.091C62.0702 191.556 67.8302 191.572 71.3862 195.127C74.9422 198.683 74.9582 204.442 71.4232 208.019L62.2802 217.162C59.9752 219.493 56.5982 220.412 53.4302 219.57C50.2612 218.727 47.7862 216.253 46.9442 213.084Z" fill="url(#paint1_linear_10025_65734)"/>
<path d="M366.659 100.984C341.305 101.039 316.406 107.721 294.43 120.367C293.241 121.007 292.053 121.738 290.864 122.47C288.487 123.933 286.201 125.396 283.915 126.95C282.635 127.773 281.538 128.687 280.349 129.51C276.966 131.979 273.766 134.63 270.566 137.373C268.829 138.927 267.092 140.39 265.355 142.036C263.984 143.407 262.612 144.87 261.241 146.242C259.412 148.162 257.675 150.082 255.938 152.093C254.841 153.373 253.744 154.562 252.738 155.842C250.361 158.859 248.076 161.876 245.972 164.985C245.698 165.442 245.332 165.899 245.058 166.356C242.518 170.106 240.169 173.981 238.018 177.967C237.561 178.79 237.195 179.704 236.738 180.527C235.092 183.727 233.538 187.018 232.167 190.309C231.618 191.407 231.161 192.504 230.704 193.692C230.338 194.606 230.064 195.703 229.698 196.709C231.252 197.075 232.807 197.44 234.269 197.898C243.261 200.188 252.04 203.247 260.509 207.041C263.983 208.687 267.458 210.241 270.84 212.07C271.389 212.344 271.937 212.71 272.486 212.984C283.772 219.174 294.297 226.661 303.846 235.293C310.183 202.119 341.215 179.586 374.721 183.829C408.227 188.072 432.662 217.63 430.53 251.336C428.397 285.042 400.431 311.284 366.658 311.27C361.128 311.202 355.629 310.434 350.292 308.984C350.383 308.984 350.383 309.075 350.383 309.167C351.663 313.281 352.669 317.487 353.583 321.693L354.406 325.259C355.137 329.19 355.777 333.122 356.235 337.145C356.418 338.516 356.601 339.796 356.692 341.077C357.242 346.362 357.517 351.671 357.515 356.985C357.504 362.911 357.168 368.833 356.509 374.722C356.462 375.307 356.371 375.888 356.235 376.459C355.633 381.835 354.748 387.176 353.584 392.459C353.584 392.55 353.493 392.733 353.493 392.825C358.156 393.282 362.453 393.556 366.659 393.556C447.45 393.556 512.945 328.062 512.945 247.27C512.945 166.478 447.45 100.984 366.659 100.984ZM290.851 189.733C289.137 191.448 286.811 192.412 284.387 192.412C281.963 192.412 279.637 191.448 277.923 189.733L268.78 180.59C266.446 178.285 265.526 174.907 266.368 171.738C267.21 168.568 269.686 166.093 272.856 165.25C276.026 164.407 279.404 165.328 281.708 167.662L290.851 176.805C292.566 178.519 293.529 180.844 293.529 183.269C293.529 185.694 292.566 188.019 290.851 189.733ZM363.994 134.876L354.851 144.019C351.275 147.554 345.515 147.538 341.959 143.983C338.403 140.427 338.387 134.667 341.922 131.091L351.065 121.948C354.641 118.413 360.401 118.429 363.957 121.984C367.513 125.539 367.529 131.3 363.994 134.876ZM455.423 336.019C453.709 337.734 451.384 338.698 448.959 338.698C446.534 338.698 444.209 337.734 442.495 336.019L433.352 326.876C429.82 323.299 429.839 317.542 433.393 313.988C436.947 310.434 442.704 310.416 446.281 313.948L455.424 323.091C457.139 324.805 458.102 327.13 458.102 329.555C458.102 331.98 457.137 334.305 455.423 336.019ZM455.423 171.448C453.709 173.163 451.384 174.127 448.959 174.127C446.534 174.127 444.209 173.163 442.495 171.448L433.352 162.305C429.82 158.728 429.839 152.971 433.393 149.417C436.947 145.863 442.704 145.845 446.281 149.377L455.424 158.52C457.139 160.234 458.102 162.559 458.102 164.984C458.101 167.408 457.137 169.733 455.423 171.448ZM482.851 262.876C479.275 266.412 473.515 266.395 469.959 262.84C466.403 259.284 466.387 253.525 469.922 249.948L479.065 240.805C482.641 237.27 488.401 237.286 491.957 240.841C495.513 244.397 495.529 250.157 491.994 253.733L482.851 262.876Z" fill="url(#paint2_linear_10025_65734)"/>
</g>
<defs>
<linearGradient id="paint0_linear_10025_65734" x1="192.944" y1="210.697" x2="192.944" y2="503.282" gradientUnits="userSpaceOnUse">
<stop stop-color="#72707D"/>
<stop offset="1" stop-color="#101824"/>
</linearGradient>
<linearGradient id="paint1_linear_10025_65734" x1="142.655" y1="9.375" x2="142.655" y2="268.572" gradientUnits="userSpaceOnUse">
<stop stop-color="#72707D"/>
<stop offset="1" stop-color="#101824"/>
</linearGradient>
<linearGradient id="paint2_linear_10025_65734" x1="371.322" y1="100.984" x2="371.322" y2="393.556" gradientUnits="userSpaceOnUse">
<stop stop-color="#72707D"/>
<stop offset="1" stop-color="#101824"/>
</linearGradient>
<clipPath id="clip0_10025_65734">
<rect width="512.008" height="512.008" fill="white" transform="translate(0.937012 0.324219)"/>
</clipPath>
</defs>
</svg>
