<svg width="512" height="512" viewBox="0 0 512 512" fill="none" xmlns="http://www.w3.org/2000/svg">
<path d="M400 224H432V352C432 377.461 421.886 401.879 403.882 419.882C385.879 437.886 361.461 448 336 448C310.539 448 286.121 437.886 268.118 419.882C250.114 401.879 240 377.461 240 352V160C240 143.026 233.257 126.747 221.255 114.745C209.253 102.743 192.974 96 176 96C159.026 96 142.747 102.743 130.745 114.745C118.743 126.747 112 143.026 112 160V288H80V160C80 134.539 90.1143 110.121 108.118 92.1178C126.121 74.1143 150.539 64 176 64C201.461 64 225.879 74.1143 243.882 92.1178C261.886 110.121 272 134.539 272 160V352C272 368.974 278.743 385.252 290.745 397.255C302.748 409.257 319.026 416 336 416C352.974 416 369.252 409.257 381.255 397.255C393.257 385.252 400 368.974 400 352V224ZM144 320H48C43.7565 320 39.6869 321.686 36.6863 324.686C33.6857 327.687 32 331.757 32 336C32 340.243 33.6857 344.313 36.6863 347.314C39.6869 350.314 43.7565 352 48 352V432C48 444.73 53.0571 456.939 62.0589 465.941C71.0606 474.943 83.2696 480 96 480C108.73 480 120.939 474.943 129.941 465.941C138.943 456.939 144 444.73 144 432V352C148.243 352 152.313 350.314 155.314 347.314C158.314 344.313 160 340.243 160 336C160 331.757 158.314 327.687 155.314 324.686C152.313 321.686 148.243 320 144 320ZM464 160V80C464 67.2696 458.943 55.0606 449.941 46.0589C440.939 37.0571 428.73 32 416 32C403.27 32 391.061 37.0571 382.059 46.0589C373.057 55.0606 368 67.2696 368 80V160C363.757 160 359.687 161.686 356.686 164.686C353.686 167.687 352 171.757 352 176C352 180.243 353.686 184.313 356.686 187.314C359.687 190.314 363.757 192 368 192H464C468.243 192 472.313 190.314 475.314 187.314C478.314 184.313 480 180.243 480 176C480 171.757 478.314 167.687 475.314 164.686C472.313 161.686 468.243 160 464 160Z" fill="url(#paint0_linear_10025_21555)"/>
<defs>
<linearGradient id="paint0_linear_10025_21555" x1="256" y1="32" x2="256" y2="480" gradientUnits="userSpaceOnUse">
<stop stop-color="#72707D"/>
<stop offset="1" stop-color="#101824"/>
</linearGradient>
</defs>
</svg>
