<svg width="513" height="513" viewBox="0 0 513 513" fill="none" xmlns="http://www.w3.org/2000/svg">
<g clip-path="url(#clip0_10025_65741)">
<path d="M463.875 29.8463L442.798 3.56427C440.564 0.70027 436.741 -0.40173 433.325 0.83327C429.915 2.02927 427.626 5.24127 427.608 8.85427V48.5343C427.637 55.0563 426.391 61.5203 423.939 67.5633L416.429 86.4223C416.344 86.5073 416.344 86.6783 416.258 86.7633V86.8483L416.181 86.9803C415.779 86.4263 415.309 85.9243 414.783 85.4873L381.358 61.6533C378.756 59.8013 375.337 59.5573 372.498 61.0203C369.659 62.4833 367.875 65.4103 367.874 68.6033V80.5863C367.872 96.1843 370.387 111.681 375.324 126.478L376.84 131.025L376.835 131.049C376.562 132.971 376.42 134.91 376.408 136.852V188.137C376.408 219.796 353.454 248.638 317.869 263.316L322.306 245.823V245.758L338.866 233.344C351.726 223.645 359.303 208.484 359.341 192.377V145.427C359.341 140.714 355.52 136.894 350.808 136.894C346.095 136.894 342.275 140.714 342.275 145.427V192.377C342.248 203.116 337.197 213.224 328.625 219.694L324.865 222.514C324.246 215.153 322.491 207.932 319.662 201.108C323.275 196.087 325.215 190.056 325.209 183.871C325.191 167.384 311.83 154.022 295.342 154.004C292.894 154.011 290.457 154.326 288.089 154.943L282.466 146.935L307.784 62.5193C308.676 59.5933 307.935 56.4133 305.84 54.1843C303.745 51.9553 300.617 51.0183 297.642 51.7273C294.667 52.4363 292.298 54.6843 291.434 57.6193L269.98 129.155C266.625 125.512 261.895 123.444 256.943 123.455C251.49 123.412 246.335 125.941 243.034 130.282L243.02 130.303L213.668 56.9023C211.911 52.5373 206.953 50.4183 202.584 52.1633C198.215 53.9093 196.083 58.8613 197.818 63.2353L231.348 147.084L231.343 147.091L225.796 154.942C223.427 154.326 220.99 154.01 218.543 154.003C202.056 154.021 188.694 167.382 188.676 183.87C188.669 190.056 190.61 196.086 194.223 201.107C191.395 207.93 189.64 215.149 189.02 222.509L185.268 219.693C176.691 213.227 171.637 203.117 171.61 192.376V145.426C171.61 140.713 167.789 136.893 163.077 136.893C158.365 136.893 154.544 140.713 154.544 145.426V192.376C154.582 208.485 162.163 223.647 175.027 233.343L191.579 245.757V245.822L196.015 263.315C160.431 248.638 137.476 219.795 137.476 188.136V136.851C137.465 134.909 137.322 132.971 137.049 131.048L137.044 131.023L138.568 126.476C143.498 111.678 146.01 96.1823 146.009 80.5843V68.6053C146.008 65.4113 144.224 62.4853 141.385 61.0223C138.546 59.5593 135.128 59.8033 132.526 61.6553L99.1003 85.4883C98.5743 85.9263 98.1043 86.4273 97.7023 86.9813L97.6253 86.8493V86.7643C97.5403 86.6793 97.5403 86.5083 97.4543 86.4233L89.9443 67.5643C87.4923 61.5203 86.2463 55.0563 86.2753 48.5343V8.85427C86.2573 5.24027 83.9683 2.02927 80.5583 0.83327C77.1423 -0.40273 73.3193 0.69927 71.0853 3.56427L50.0083 29.8463C40.3473 41.9693 35.0823 57.0113 35.0753 72.5133V136.854C35.0373 159.973 48.3753 181.027 69.2943 190.87C70.8293 255.638 127.15 308.715 198.915 315.371L198.977 315.375L175.325 329.57C171.344 331.956 166.791 333.217 162.15 333.22H120.408C115.695 333.22 111.875 337.041 111.875 341.753C111.875 346.465 115.695 350.286 120.408 350.286H162.15C169.885 350.285 177.475 348.182 184.108 344.203L212.395 327.225L212.397 327.232L214.53 335.339C214.706 335.955 214.934 336.554 215.213 337.131L215.808 344.536L183.858 363.72C179.877 366.105 175.324 367.364 170.683 367.362H128.941C124.228 367.362 120.408 371.182 120.408 375.895C120.408 380.608 124.228 384.428 128.941 384.428H170.683C178.418 384.43 186.008 382.33 192.641 378.353L217.26 363.571L217.261 363.583L222.039 426.132C222.454 431.109 221.385 436.098 218.968 440.468C217.603 442.943 216.237 445.503 214.957 447.977C213.676 450.281 212.482 452.585 211.287 454.889C210.007 457.193 208.557 459.412 207.02 461.63C205.74 463.593 204.46 465.641 203.265 467.689C199.41 473.53 197.417 480.403 197.549 487.401C197.966 495.524 202.127 502.994 208.813 507.625C215.498 512.15 223.862 513.434 231.597 511.124C238.326 508.612 244.313 504.444 249.005 499.007C251.564 496.362 254.295 493.716 257.026 491.156C259.074 493.119 261.293 495.338 262.999 496.959C269.484 503.359 271.276 504.98 272.387 505.834C277.187 509.492 282.928 511.712 288.941 512.234C289.45 512.305 289.963 512.333 290.476 512.319C296.437 512.297 302.214 510.251 306.86 506.516C307.613 505.909 308.326 505.253 308.993 504.553C312.784 500.659 315.26 495.675 316.076 490.302C316.843 484.285 315.835 478.175 313.176 472.723C311.392 469.005 309.308 465.437 306.946 462.056C305.581 459.923 304.13 457.789 302.85 455.485L300.034 450.109C298.412 446.952 296.705 443.709 294.999 440.552C292.55 436.163 291.479 431.137 291.927 426.131L297.132 363.923V363.876L321.24 378.352C327.874 382.329 335.464 384.429 343.198 384.427H384.94C389.653 384.427 393.473 380.607 393.473 375.894C393.473 371.181 389.653 367.361 384.94 367.361H343.198C338.557 367.363 334.004 366.105 330.023 363.719L298.756 344.946L299.691 334.057V333.972L301.483 327.231L301.485 327.224L329.773 344.202C336.406 348.181 343.996 350.284 351.731 350.285H393.472C398.185 350.285 402.005 346.465 402.005 341.752C402.005 337.039 398.185 333.219 393.472 333.219H351.73C347.089 333.216 342.536 331.955 338.555 329.569L314.903 315.374L314.965 315.37C386.73 308.714 443.05 255.637 444.586 190.869C465.505 181.026 478.843 159.972 478.805 136.853V72.5133C478.801 57.0113 473.537 41.9693 463.875 29.8463ZM125.948 107.749C121.913 103.371 116.979 99.9163 111.486 97.6213L128.859 85.2293C128.558 92.8073 127.584 100.343 125.948 107.749ZM218.542 196.673C215.379 196.681 212.331 195.492 210.009 193.345C209.838 193.174 209.668 193.089 209.496 192.918C205.832 189.26 204.734 183.754 206.715 178.971C208.696 174.188 213.364 171.07 218.542 171.073C220.839 171.066 223.089 171.718 225.027 172.95C228.968 175.165 231.389 179.352 231.342 183.873C231.321 190.934 225.602 196.653 218.542 196.673ZM274.947 424.684C274.876 425.507 274.847 426.333 274.862 427.159H239.192C239.206 426.39 239.178 425.621 239.107 424.855L238.001 410.038H276.226L274.947 424.684ZM277.592 392.94L277.59 392.971H236.635L236.632 392.94L235.354 375.896H279.042L277.592 392.94ZM280.492 358.829H233.99L233.988 358.806L232.707 341.739H281.944L280.492 358.829ZM304.387 192.918C301.995 195.329 298.737 196.681 295.341 196.673C288.28 196.652 282.562 190.934 282.541 183.873C282.519 179.381 284.893 175.218 288.77 172.95C290.739 171.717 293.017 171.066 295.341 171.073C298.737 171.068 301.996 172.415 304.397 174.817C306.798 177.218 308.146 180.477 308.141 183.873C308.134 187.266 306.784 190.517 304.387 192.918ZM387.937 107.747C386.299 100.343 385.325 92.8073 385.025 85.2293L402.398 97.6213C396.905 99.9163 391.972 103.37 387.937 107.747Z" fill="url(#paint0_linear_10025_65741)"/>
</g>
<defs>
<linearGradient id="paint0_linear_10025_65741" x1="256.94" y1="0.332031" x2="256.94" y2="512.323" gradientUnits="userSpaceOnUse">
<stop stop-color="#72707D"/>
<stop offset="1" stop-color="#101824"/>
</linearGradient>
<clipPath id="clip0_10025_65741">
<rect width="511.993" height="511.993" fill="white" transform="translate(0.945312 0.332031)"/>
</clipPath>
</defs>
</svg>
