<svg width="513" height="513" viewBox="0 0 513 513" fill="none" xmlns="http://www.w3.org/2000/svg">
<g clip-path="url(#clip0_10025_65745)">
<path d="M248.137 312.852L236.16 311.389C235.817 311.755 235.511 312.153 235.246 312.578L222.263 334.247L226.286 334.704C246.107 336.833 264.154 347.098 276.115 363.047L299.886 396.236C308.763 409.081 322.839 417.373 338.377 418.91L349.349 420.281C349.532 420.007 349.897 419.55 350.172 419.092L363.155 397.423L360.228 397.057C339.64 394.835 321.012 383.838 309.119 366.886L285.439 333.88C276.522 321.929 262.978 314.294 248.137 312.852Z" fill="url(#paint0_linear_10025_65745)"/>
<path d="M361.233 128.805C336.263 104.961 306.136 87.1913 273.188 76.8743L265.874 74.4973C260.319 73.3083 254.608 75.6733 251.519 80.4403C251.519 80.5313 251.429 80.6233 251.337 80.7143C249.089 83.5843 248.342 87.3523 249.325 90.8633C249.949 92.9383 251.615 94.5343 253.714 95.0693C289.335 106.304 321.899 125.573 348.891 151.389C350.718 152.993 353.165 153.697 355.565 153.309C359.869 152.77 363.732 150.405 366.17 146.818C369.367 143.176 369.559 137.786 366.627 133.927L361.233 128.805Z" fill="url(#paint1_linear_10025_65745)"/>
<path d="M137.415 226.909C161.173 226.934 180.453 207.695 180.478 183.938C180.503 160.18 161.264 140.9 137.507 140.875C113.749 140.85 94.4693 160.089 94.4443 183.846C94.4413 207.595 113.667 226.861 137.415 226.909ZM137.415 160.532C142.464 160.532 146.558 164.625 146.558 169.675C146.558 174.724 142.465 178.818 137.415 178.818C136.08 178.814 134.799 179.343 133.855 180.287C132.911 181.231 132.383 182.512 132.387 183.847C132.387 188.896 128.294 192.99 123.244 192.99C118.195 192.99 114.101 188.897 114.101 183.847C114.123 170.979 124.548 160.554 137.415 160.532Z" fill="url(#paint2_linear_10025_65745)"/>
<path d="M190.261 385.172L166.581 352.166C157.664 340.215 144.119 332.579 129.278 331.137L117.301 329.674C116.958 330.04 116.652 330.438 116.387 330.863L103.404 352.532L107.427 352.989C127.248 355.118 145.295 365.383 157.256 381.332L181.027 414.521C189.904 427.366 203.98 435.658 219.518 437.195L230.49 438.566C230.673 438.292 231.038 437.835 231.313 437.377L244.296 415.708L241.369 415.342C220.782 413.121 202.154 402.124 190.261 385.172Z" fill="url(#paint3_linear_10025_65745)"/>
<path d="M35.5641 216.668C35.5071 229.979 40.8391 242.747 50.3461 252.065C59.8531 261.382 72.7251 266.456 86.0331 266.131H106.33C112.248 266.235 118.017 268.01 122.97 271.251C134.713 279.164 148.493 283.513 162.65 283.777C205.359 282.916 239.33 247.678 238.628 204.966C238.716 180.144 227.305 156.68 207.725 141.423C203.71 138.424 200.324 134.665 197.759 130.36C185.351 111.409 163.99 100.261 141.348 100.92C123.139 100.651 105.584 107.7 92.6171 120.486C79.7261 133.743 65.0971 146.452 41.2331 142.703C39.7781 142.518 38.3121 142.426 36.8441 142.429C29.1141 142.253 21.5061 144.386 14.9941 148.555C0.731065 162.635 21.4851 189.515 28.2511 197.378C32.9021 202.734 35.4951 209.573 35.5641 216.668ZM137.415 122.588C162.218 122.57 184.588 137.499 194.088 160.41C203.588 183.321 198.346 209.7 180.808 227.238C163.27 244.776 136.891 250.018 113.98 240.518C91.0691 231.018 76.1391 208.648 76.1581 183.845C76.1921 150.028 103.598 122.622 137.415 122.588Z" fill="url(#paint4_linear_10025_65745)"/>
<path d="M441.781 220.143C432.288 211.274 418.651 208.419 406.398 212.737C396.041 216.108 384.84 215.818 374.672 211.914C369.665 210.16 364.206 210.192 359.22 212.005C351.704 215.005 346.044 221.376 343.952 229.194C341.197 238.583 335.034 246.604 326.672 251.685C316.706 256.861 310.881 267.569 311.952 278.748C313.805 290.553 323.159 299.759 334.992 301.422C339.358 302.217 342.521 306.036 342.489 310.473C343.508 326.696 357.238 339.17 373.484 338.633C378.865 338.037 384.048 336.257 388.66 333.422C393.666 330.847 399.213 329.499 404.843 329.491C410.375 329.491 415.828 330.807 420.752 333.331C425.425 336.195 430.668 338.005 436.113 338.634C451.107 338.634 467.199 331.137 467.199 314.68C466.492 306.987 464.386 299.489 460.983 292.554C453.294 275.383 449.307 256.785 449.28 237.971C449.316 231.255 446.607 224.815 441.781 220.143ZM348.341 279.206C348.341 284.255 344.248 288.349 339.198 288.349C334.149 288.349 330.055 284.256 330.055 279.206V270.063C330.055 265.014 334.148 260.92 339.198 260.92C344.247 260.92 348.341 265.013 348.341 270.063V279.206ZM360.163 231.599C361.877 229.884 364.202 228.92 366.627 228.92C369.052 228.92 371.377 229.884 373.091 231.599L379.555 238.063C381.865 240.372 382.766 243.739 381.921 246.893C381.076 250.048 378.611 252.512 375.457 253.357C372.302 254.202 368.936 253.3 366.627 250.991L360.163 244.527C358.448 242.813 357.484 240.488 357.484 238.063C357.484 235.639 358.448 233.313 360.163 231.599ZM379.556 314.992C377.842 316.707 375.516 317.671 373.092 317.671C370.667 317.671 368.342 316.707 366.628 314.992L360.164 308.528C356.632 304.952 356.65 299.195 360.204 295.64C363.758 292.086 369.515 292.067 373.092 295.599L379.556 302.063C381.271 303.777 382.235 306.102 382.235 308.527C382.234 310.952 381.27 313.278 379.556 314.992ZM394.056 283.778H384.913C379.864 283.778 375.77 279.685 375.77 274.635C375.77 269.586 379.863 265.492 384.913 265.492H394.056C399.105 265.492 403.199 269.585 403.199 274.635C403.198 279.684 399.105 283.778 394.056 283.778ZM405.918 250.951C402.364 247.397 402.345 241.64 405.877 238.063L412.341 231.599C415.917 228.067 421.674 228.085 425.229 231.639C428.783 235.193 428.802 240.95 425.27 244.527L418.806 250.991C415.229 254.523 409.472 254.505 405.918 250.951ZM434.413 317.67C432.699 319.385 430.374 320.349 427.949 320.349C425.524 320.349 423.199 319.385 421.485 317.67L415.021 311.206C411.489 307.63 411.507 301.873 415.061 298.318C418.615 294.764 424.372 294.745 427.949 298.277L434.413 304.741C436.128 306.455 437.092 308.78 437.092 311.205C437.091 313.631 436.128 315.956 434.413 317.67ZM439.77 279.206C439.77 284.255 435.677 288.349 430.627 288.349C425.577 288.349 421.484 284.256 421.484 279.206V270.063C421.484 265.014 425.577 260.92 430.627 260.92C435.677 260.92 439.77 265.013 439.77 270.063V279.206Z" fill="url(#paint5_linear_10025_65745)"/>
<path d="M498.487 171.61C462.504 69.0126 365.637 0.340617 256.913 0.348617C167.124 0.102617 83.8333 47.1316 37.6673 124.143C39.8613 124.234 42.0563 124.326 43.9753 124.6C49.5293 125.635 55.2663 124.966 60.4323 122.68C126.623 25.5116 253.925 -8.63938 359.862 42.3526C465.799 93.3446 518.517 214.146 483.861 326.493C449.205 438.84 337.595 508.95 221.341 491.401C105.088 473.851 19.1473 373.92 19.1983 256.349C19.1983 249.035 19.5643 242.543 20.1123 236.326C18.2313 230.225 17.2763 223.876 17.2783 217.492C17.3173 214.488 16.2793 211.569 14.3523 209.263C11.7013 206.154 9.41531 203.046 7.22131 200.029C-16.6917 306.091 29.0033 415.686 121.178 473.346C213.353 531.006 331.895 524.148 416.806 456.244C501.717 388.34 534.47 274.207 498.487 171.61Z" fill="url(#paint6_linear_10025_65745)"/>
<path d="M475.244 278.565C475.975 271.251 476.341 263.845 476.341 256.348C476.35 171.894 427.885 94.932 351.718 58.449C275.551 21.965 185.205 32.438 119.404 85.377C126.581 83.583 133.949 82.662 141.347 82.634C170.403 81.953 197.71 96.474 213.393 120.943C214.79 123.255 216.622 125.273 218.788 126.886C242.881 145.622 256.955 174.446 256.913 204.966C257.621 257.779 215.461 301.207 162.65 302.063C145.004 301.782 127.808 296.452 113.096 286.703C111.12 285.281 108.763 284.485 106.33 284.417H86.033C68.008 284.468 50.668 277.519 37.667 265.034C41.607 365.1 112.812 449.796 210.714 470.867C308.616 491.938 408.36 444.036 453.118 354.451C447.598 356.09 441.87 356.921 436.112 356.92C427.856 356.428 419.834 353.984 412.706 349.789C407.871 347.173 402.058 347.105 397.163 349.606C389.98 353.93 381.853 356.44 373.483 356.92C349.839 357.412 329.271 340.819 324.751 317.606C308.296 312.395 296.284 298.214 293.849 281.126C291.881 262.667 301.179 244.828 317.438 235.869C321.84 233.1 325.064 228.802 326.489 223.8C330.261 210.477 340.083 199.706 353.003 194.726C361.903 191.587 371.603 191.555 380.523 194.635C386.787 197.155 393.727 197.446 400.179 195.458C419.148 188.885 440.2 193.433 454.763 207.252C463.039 215.394 467.658 226.545 467.563 238.155C467.421 252 470.031 265.737 475.244 278.565ZM261.118 423.297L247.038 446.794C243.94 452.618 238.073 456.448 231.495 456.943C231.006 456.958 230.516 456.928 230.033 456.852L217.323 455.389C196.693 453.15 178.033 442.12 166.124 425.126L142.535 392.212C133.6 380.266 120.072 372.607 105.231 371.092L94.26 369.812C90.103 369.304 86.488 366.722 84.66 362.955C82.276 357.004 82.995 350.258 86.581 344.944L100.752 321.355C103.967 314.966 110.611 311.037 117.758 311.298L131.472 312.944C151.281 315.111 169.313 325.368 181.301 341.287L205.073 374.476C213.966 387.304 228.034 395.591 243.564 397.15L253.53 398.43C257.665 398.867 261.27 401.433 263.038 405.196C265.517 411.162 264.794 417.981 261.118 423.297ZM300.158 322.999L323.93 356.188C332.823 369.016 346.891 377.303 362.421 378.862L372.387 380.142C376.522 380.579 380.127 383.145 381.895 386.908C384.374 392.876 383.65 399.695 379.975 405.011L365.895 428.508C362.797 434.332 356.93 438.162 350.352 438.657C349.863 438.672 349.373 438.642 348.89 438.566L336.18 437.103C315.551 434.864 296.89 423.834 284.981 406.84L261.391 373.926C252.456 361.98 238.928 354.321 224.087 352.806L213.116 351.526C208.959 351.018 205.344 348.436 203.516 344.669C201.132 338.718 201.851 331.972 205.437 326.658L219.608 303.069C222.823 296.68 229.467 292.751 236.614 293.012L250.328 294.658C270.139 296.824 288.171 307.081 300.158 322.999ZM396.524 163.548L388.57 165.742L389.576 172.691C390.314 177.685 386.884 182.34 381.895 183.114C381.442 183.19 380.983 183.221 380.524 183.205C376.011 183.18 372.18 179.891 371.473 175.434L370.284 167.205C366.34 169.607 361.899 171.077 357.301 171.502C356.334 171.657 355.354 171.718 354.375 171.685C347.642 171.76 341.145 169.201 336.272 164.554C311.264 140.694 281.11 122.895 248.136 112.531C240.478 110.171 234.444 104.239 231.953 96.622C231.246 94.46 230.816 92.218 230.673 89.948L225.827 93.605C224.236 94.775 222.316 95.415 220.341 95.434C217.44 95.44 214.716 94.044 213.027 91.685C210.013 87.641 210.83 81.923 214.856 78.885L221.165 74.222L217.964 69.651C215.044 65.508 216.025 59.784 220.158 56.851C222.132 55.449 224.583 54.892 226.969 55.304C229.355 55.716 231.478 57.062 232.867 59.045L238.718 67.365C246.601 57.716 259.473 53.689 271.45 57.125H271.541L278.764 59.411C314.37 70.634 346.929 89.87 373.941 115.64L379.244 120.76C386.272 127.757 388.812 138.091 385.827 147.549L391.587 145.995C396.434 144.632 401.469 147.456 402.833 152.304C404.196 157.15 401.372 162.185 396.524 163.548Z" fill="url(#paint7_linear_10025_65745)"/>
</g>
<defs>
<linearGradient id="paint0_linear_10025_65745" x1="292.709" y1="311.389" x2="292.709" y2="420.281" gradientUnits="userSpaceOnUse">
<stop stop-color="#72707D"/>
<stop offset="1" stop-color="#101824"/>
</linearGradient>
<linearGradient id="paint1_linear_10025_65745" x1="308.802" y1="74.1934" x2="308.802" y2="153.414" gradientUnits="userSpaceOnUse">
<stop stop-color="#72707D"/>
<stop offset="1" stop-color="#101824"/>
</linearGradient>
<linearGradient id="paint2_linear_10025_65745" x1="137.461" y1="140.875" x2="137.461" y2="226.909" gradientUnits="userSpaceOnUse">
<stop stop-color="#72707D"/>
<stop offset="1" stop-color="#101824"/>
</linearGradient>
<linearGradient id="paint3_linear_10025_65745" x1="173.85" y1="329.674" x2="173.85" y2="438.566" gradientUnits="userSpaceOnUse">
<stop stop-color="#72707D"/>
<stop offset="1" stop-color="#101824"/>
</linearGradient>
<linearGradient id="paint4_linear_10025_65745" x1="124.367" y1="100.893" x2="124.367" y2="283.777" gradientUnits="userSpaceOnUse">
<stop stop-color="#72707D"/>
<stop offset="1" stop-color="#101824"/>
</linearGradient>
<linearGradient id="paint5_linear_10025_65745" x1="389.513" y1="210.621" x2="389.513" y2="338.649" gradientUnits="userSpaceOnUse">
<stop stop-color="#72707D"/>
<stop offset="1" stop-color="#101824"/>
</linearGradient>
<linearGradient id="paint6_linear_10025_65745" x1="256.932" y1="0.347656" x2="256.932" y2="512.309" gradientUnits="userSpaceOnUse">
<stop stop-color="#72707D"/>
<stop offset="1" stop-color="#101824"/>
</linearGradient>
<linearGradient id="paint7_linear_10025_65745" x1="257.004" y1="36.918" x2="257.004" y2="475.797" gradientUnits="userSpaceOnUse">
<stop stop-color="#72707D"/>
<stop offset="1" stop-color="#101824"/>
</linearGradient>
<clipPath id="clip0_10025_65745">
<rect width="511.99" height="511.99" fill="white" transform="translate(0.9375 0.333984)"/>
</clipPath>
</defs>
</svg>
