<svg width="513" height="513" viewBox="0 0 513 513" fill="none" xmlns="http://www.w3.org/2000/svg">
<g clip-path="url(#clip0_10025_65757)">
<path d="M234.534 425.372C235.017 427.803 236.369 429.974 238.337 431.479C240.56 433.399 242.355 434.024 243.069 433.845L243.292 433.827C265.332 432.395 283.658 416.329 287.962 394.666L292.348 375.395C273.761 384.656 254.113 391.613 233.84 396.112L234.534 425.372Z" fill="url(#paint0_linear_10025_65757)"/>
<path d="M412.299 275.744C404.98 287.075 396.511 297.62 387.026 307.211C376.002 318.205 364.297 328.493 351.979 338.016C352.791 338.593 353.501 339.302 354.079 340.113L379.865 378.792C381.393 381.216 383.892 382.862 386.722 383.31C387.533 383.446 388.366 383.253 389.035 382.774L389.276 382.551C410.049 360.548 419.546 330.212 415.026 300.292L412.299 275.744Z" fill="url(#paint1_linear_10025_65757)"/>
<path d="M164.129 176.298C176.585 158.395 190.599 141.629 206.007 126.194C213.524 118.702 221.645 111.842 230.288 105.683C198.084 95.8709 163.175 101.055 135.212 119.801C131.715 122.163 129.499 126.002 129.203 130.212C128.736 137.034 131.323 143.71 136.266 148.436L164.129 176.298Z" fill="url(#paint2_linear_10025_65757)"/>
<path d="M86.079 426.882L77.015 423.258L3.61396 496.658C1.29396 498.974 0.389959 502.354 1.24396 505.519C2.09796 508.684 4.57996 511.15 7.74996 511.985C10.92 512.819 14.295 511.895 16.596 509.56L92.519 433.645L92.248 432.801C90.866 430.228 88.707 428.157 86.079 426.882Z" fill="url(#paint3_linear_10025_65757)"/>
<path d="M348.578 166.799C326.917 145.77 313.687 117.552 311.374 87.4512C276.723 96.6672 244.939 114.433 218.936 139.121C169.472 188.585 135.248 253.907 131.749 305.514C130.595 324.505 120.586 341.85 104.722 352.353C104.446 352.531 104.16 352.692 103.865 352.835L40.9544 384.371C40.1124 385.016 39.6444 386.036 39.7044 387.094C39.7174 388.01 40.2564 388.837 41.0884 389.219L93.4984 410.175C100.202 413.326 105.645 418.65 108.944 425.282C109.135 425.678 109.299 426.087 109.435 426.505L124.212 472.505C124.654 473.124 125.362 473.498 126.123 473.514C127.181 473.572 128.2 473.105 128.846 472.264L160.382 409.353C160.525 409.058 160.686 408.772 160.864 408.496C171.367 392.632 188.712 382.624 207.703 381.469C259.31 377.969 324.632 343.746 374.096 294.281C398.342 268.791 415.899 237.695 425.2 203.768C396.101 200.86 368.964 187.767 348.578 166.799ZM304.87 282.983C304.409 287.657 300.481 291.222 295.784 291.229C295.178 291.231 294.574 291.171 293.98 291.05C268.81 286.023 227.194 244.407 222.168 219.238C221.527 216.035 222.643 212.734 225.096 210.577C227.549 208.42 230.966 207.736 234.06 208.782C237.154 209.828 239.455 212.445 240.096 215.648C243.676 233.559 279.658 269.541 297.569 273.121C302.175 274.045 305.331 278.308 304.87 282.983ZM330.737 257.126C330.276 261.8 326.348 265.365 321.651 265.372C321.045 265.374 320.441 265.314 319.847 265.193C294.677 260.157 253.061 218.541 248.026 193.372C247.035 188.421 250.245 183.604 255.196 182.613C260.147 181.622 264.964 184.832 265.955 189.783C269.535 207.694 305.527 243.685 323.437 247.265C328.041 248.188 331.197 252.451 330.737 257.126ZM356.463 232.166C355.61 236.436 351.862 239.511 347.508 239.514C346.902 239.516 346.298 239.456 345.704 239.335C320.534 234.299 278.918 192.683 273.883 167.514C273.242 164.311 274.358 161.01 276.811 158.853C279.264 156.696 282.681 156.012 285.775 157.058C288.869 158.104 291.17 160.721 291.811 163.924C295.391 181.835 331.382 217.826 349.293 221.406C354.244 222.398 357.453 227.215 356.463 232.166Z" fill="url(#paint4_linear_10025_65757)"/>
<path d="M510.32 2.80991C506.6 -0.495093 500.979 -0.437093 497.329 2.94391L437.361 62.9119C439.918 64.6219 442.302 66.5759 444.48 68.7479C446.646 70.9249 448.599 73.3049 450.31 75.8559L510.364 15.8019C513.883 12.1779 513.863 6.40791 510.32 2.80991Z" fill="url(#paint5_linear_10025_65757)"/>
<path d="M410.927 73.2294C383.503 73.5604 356.187 76.7354 329.418 82.7034C330.539 109.676 342.036 135.173 361.507 153.872C379.59 172.651 404.004 184.044 430.012 185.84C436.3 158.422 439.641 130.41 439.98 102.283C440.095 94.5514 437.047 87.1074 431.542 81.6764C426.081 76.2104 418.653 73.1674 410.927 73.2294ZM386.266 113.961C384.559 115.712 382.22 116.703 379.775 116.711C374.779 116.619 370.765 112.565 370.721 107.568C370.704 106.347 370.922 105.135 371.364 103.997C371.806 102.885 372.493 101.887 373.373 101.077C374.208 100.219 375.203 99.5334 376.302 99.0594C377.969 98.3184 379.837 98.1584 381.606 98.6044C382.194 98.7144 382.772 98.8664 383.338 99.0594C383.892 99.3364 384.436 99.6134 384.901 99.8804C385.399 100.228 385.857 100.629 386.267 101.076C387.119 101.91 387.801 102.902 388.276 103.996C388.75 105.128 388.999 106.341 389.008 107.567C388.982 109.98 387.995 112.281 386.266 113.961Z" fill="url(#paint6_linear_10025_65757)"/>
</g>
<defs>
<linearGradient id="paint0_linear_10025_65757" x1="263.094" y1="375.395" x2="263.094" y2="433.874" gradientUnits="userSpaceOnUse">
<stop stop-color="#72707D"/>
<stop offset="1" stop-color="#101824"/>
</linearGradient>
<linearGradient id="paint1_linear_10025_65757" x1="384.054" y1="275.744" x2="384.054" y2="383.353" gradientUnits="userSpaceOnUse">
<stop stop-color="#72707D"/>
<stop offset="1" stop-color="#101824"/>
</linearGradient>
<linearGradient id="paint2_linear_10025_65757" x1="179.719" y1="100.816" x2="179.719" y2="176.298" gradientUnits="userSpaceOnUse">
<stop stop-color="#72707D"/>
<stop offset="1" stop-color="#101824"/>
</linearGradient>
<linearGradient id="paint3_linear_10025_65757" x1="46.7233" y1="423.258" x2="46.7233" y2="512.286" gradientUnits="userSpaceOnUse">
<stop stop-color="#72707D"/>
<stop offset="1" stop-color="#101824"/>
</linearGradient>
<linearGradient id="paint4_linear_10025_65757" x1="232.45" y1="87.4512" x2="232.45" y2="473.519" gradientUnits="userSpaceOnUse">
<stop stop-color="#72707D"/>
<stop offset="1" stop-color="#101824"/>
</linearGradient>
<linearGradient id="paint5_linear_10025_65757" x1="475.176" y1="0.369141" x2="475.176" y2="75.8559" gradientUnits="userSpaceOnUse">
<stop stop-color="#72707D"/>
<stop offset="1" stop-color="#101824"/>
</linearGradient>
<linearGradient id="paint6_linear_10025_65757" x1="384.701" y1="73.2285" x2="384.701" y2="185.84" gradientUnits="userSpaceOnUse">
<stop stop-color="#72707D"/>
<stop offset="1" stop-color="#101824"/>
</linearGradient>
<clipPath id="clip0_10025_65757">
<rect width="512.062" height="512.062" fill="white" transform="translate(0.927734 0.296875)"/>
</clipPath>
</defs>
</svg>
