<svg width="512" height="513" viewBox="0 0 512 513" fill="none" xmlns="http://www.w3.org/2000/svg">
<g clip-path="url(#clip0_10025_65789)">
<path d="M248.127 507.541C249.565 510.455 252.532 512.301 255.782 512.303C259.032 512.305 262.001 510.463 263.443 507.55L384.579 278.988H126.991L248.127 507.541Z" fill="url(#paint0_linear_10025_65789)"/>
<path d="M273.75 99.3402C286.925 99.3752 298.183 89.8552 300.336 76.8562C302.489 63.8582 294.901 51.2162 282.418 47.0022C282.571 46.4942 282.676 45.9732 282.732 45.4452C282.748 30.5692 294.804 18.5142 309.679 18.4982C314.64 18.4982 318.661 14.4762 318.661 9.5162C318.661 4.5562 314.641 0.533203 309.68 0.533203C284.888 0.562203 264.797 20.6532 264.768 45.4452C264.824 45.9732 264.929 46.4942 265.082 47.0022C252.599 51.2162 245.012 63.8582 247.164 76.8562C249.317 89.8552 260.575 99.3752 273.75 99.3402Z" fill="url(#paint1_linear_10025_65789)"/>
<path d="M408.649 225.902C408.579 225.455 408.544 225.003 408.544 224.551C409.044 210.862 399.055 199.036 385.474 197.241L367.592 206.182C364.72 207.63 361.293 207.431 358.607 205.662C355.921 203.893 354.386 200.822 354.582 197.612C354.778 194.402 356.676 191.541 359.557 190.112L372.385 183.698C372.236 170.285 369.592 157.017 364.588 144.572C348.201 162.134 311.294 169.503 302.224 171.068C301.717 171.155 301.203 171.199 300.689 171.2C296.028 171.195 292.145 167.625 291.749 162.981C291.353 158.337 294.574 154.161 299.167 153.366C322.018 149.398 353.456 138.066 354.495 126.854C343.532 112.629 328.259 102.335 310.959 97.5119C299.919 113.88 279.482 121.116 260.603 115.341C241.724 109.566 228.832 92.1349 228.838 72.3919C228.893 68.4519 229.472 64.5369 230.562 60.7499L222.036 56.3919C215.389 52.9219 207.265 54.1149 201.896 59.3479C186.163 74.7099 176.684 95.3589 175.292 117.304H201.892C206.853 117.304 210.874 121.326 210.874 126.286C210.874 131.246 206.852 135.268 201.892 135.268H165.962C165.536 135.215 165.115 135.13 164.703 135.014C156.466 142.081 141.391 160.136 139.287 198.146H154.73C178.433 198.117 201.807 192.599 223.019 182.023L242.773 172.146C245.645 170.698 249.072 170.897 251.758 172.666C254.444 174.435 255.979 177.506 255.783 180.716C255.587 183.926 253.689 186.787 250.808 188.216L231.053 198.093C207.345 209.914 181.221 216.081 154.729 216.111H130.031C129.976 216.111 129.931 216.081 129.877 216.08C129.783 216.076 129.7 216.128 129.606 216.12C129.514 216.12 128.847 216.085 127.834 216.129H125.527C112.943 216.334 102.898 226.685 103.071 239.269L103.084 242.444C102.626 247.389 104.349 252.288 107.801 255.858C111.253 259.428 116.091 261.314 121.049 261.023H279.477L330.877 218.19C334.691 215.034 340.34 215.558 343.508 219.362C346.676 223.166 346.17 228.816 342.377 231.997L307.546 261.023H389.246C412.07 253.797 409.07 228.78 408.649 225.902Z" fill="url(#paint2_linear_10025_65789)"/>
</g>
<defs>
<linearGradient id="paint0_linear_10025_65789" x1="255.785" y1="278.988" x2="255.785" y2="512.303" gradientUnits="userSpaceOnUse">
<stop stop-color="#72707D"/>
<stop offset="1" stop-color="#101824"/>
</linearGradient>
<linearGradient id="paint1_linear_10025_65789" x1="282.731" y1="0.533203" x2="282.731" y2="99.3403" gradientUnits="userSpaceOnUse">
<stop stop-color="#72707D"/>
<stop offset="1" stop-color="#101824"/>
</linearGradient>
<linearGradient id="paint2_linear_10025_65789" x1="256.008" y1="54.4219" x2="256.008" y2="261.052" gradientUnits="userSpaceOnUse">
<stop stop-color="#72707D"/>
<stop offset="1" stop-color="#101824"/>
</linearGradient>
<clipPath id="clip0_10025_65789">
<rect width="511.77" height="511.77" fill="white" transform="translate(0.123047 0.533203)"/>
</clipPath>
</defs>
</svg>
