<svg width="513" height="513" viewBox="0 0 513 513" fill="none" xmlns="http://www.w3.org/2000/svg">
<g clip-path="url(#clip0_10025_65817)">
<path d="M476.328 283.846C476.44 262.335 491.436 243.771 512.442 239.137L512.716 219.846H0.898926V439.275C0.928926 449.362 9.09793 457.531 19.1849 457.561H266.956C271.288 436.346 289.909 421.079 311.562 420.991C333.215 420.903 351.96 436.016 356.465 457.195L494.614 457.561C504.701 457.531 512.87 449.362 512.9 439.275V328.646C491.702 324.151 476.488 305.514 476.328 283.846ZM202.773 252.943C203.237 251.836 203.886 250.815 204.693 249.926C205.552 249.08 206.58 248.426 207.71 248.006C211.114 246.572 215.048 247.329 217.676 249.926C218.502 250.8 219.154 251.824 219.596 252.943C221.228 256.771 220.068 261.218 216.775 263.763C213.482 266.308 208.886 266.308 205.593 263.763C202.3 261.218 201.142 256.772 202.773 252.943ZM37.4699 292.989C37.4699 277.841 49.7499 265.56 64.8989 265.56C80.0479 265.56 92.3279 277.84 92.3279 292.989C92.3279 308.138 80.0469 320.418 64.8989 320.418C49.7689 320.373 37.5149 308.119 37.4699 292.989ZM83.1849 430.132C68.0369 430.132 55.7559 417.852 55.7559 402.703C55.7559 387.554 68.0359 375.274 83.1849 375.274C98.3339 375.274 110.614 387.554 110.614 402.703C110.569 417.833 98.3149 430.088 83.1849 430.132ZM192.899 393.56C162.602 393.56 138.042 369 138.042 338.703C138.042 308.406 162.602 283.846 192.899 283.846C223.196 283.846 247.756 308.406 247.756 338.703C247.732 368.99 223.186 393.536 192.899 393.56ZM309.105 390.909C308.216 391.716 307.195 392.365 306.088 392.829C303.874 393.804 301.353 393.804 299.139 392.829C296.843 391.996 295.035 390.188 294.202 387.892C293.227 385.678 293.227 383.157 294.202 380.943C294.666 379.836 295.315 378.815 296.122 377.926C299.789 374.543 305.438 374.543 309.105 377.926C309.912 378.815 310.561 379.836 311.025 380.943C311.537 382.028 311.788 383.218 311.756 384.417C311.747 386.843 310.796 389.17 309.105 390.909ZM330.042 338.703C311.552 338.703 294.883 327.565 287.808 310.483C280.732 293.401 284.643 273.738 297.718 260.664C310.792 247.59 330.455 243.679 347.537 250.754C364.619 257.83 375.757 274.499 375.757 292.988C375.747 318.233 355.285 338.694 330.042 338.703ZM422.202 298.658C422.644 297.539 423.296 296.515 424.122 295.641C427.789 292.258 433.438 292.258 437.105 295.641C437.931 296.515 438.583 297.539 439.025 298.658C440.657 302.486 439.497 306.933 436.204 309.478C432.911 312.023 428.315 312.023 425.022 309.478C421.73 306.933 420.57 302.486 422.202 298.658ZM483.905 428.566C477.046 435.425 467.742 439.277 458.042 439.275C437.844 439.275 421.471 422.901 421.471 402.704C421.471 382.507 437.845 366.133 458.042 366.133C478.239 366.133 494.613 382.507 494.613 402.704C494.616 412.403 490.764 421.707 483.905 428.566Z" fill="url(#paint0_linear_10025_65817)"/>
<path d="M300.131 124.292C296.349 122.821 292.05 124.047 289.613 127.292C276.362 142.944 255.489 149.901 235.497 145.328C215.505 140.755 199.732 125.416 194.604 105.56C192.9 98.815 192.47 91.811 193.336 84.908C193.899 81.093 191.848 77.372 188.323 75.81L144.278 56.694C140.17 54.896 135.515 54.806 131.341 56.444C99.1511 68.997 70.5491 89.288 48.0651 115.524C26.7871 140.422 11.4731 169.848 3.28809 201.56H478.038L300.131 124.292Z" fill="url(#paint1_linear_10025_65817)"/>
</g>
<defs>
<linearGradient id="paint0_linear_10025_65817" x1="256.899" y1="219.846" x2="256.899" y2="457.561" gradientUnits="userSpaceOnUse">
<stop stop-color="#72707D"/>
<stop offset="1" stop-color="#101824"/>
</linearGradient>
<linearGradient id="paint1_linear_10025_65817" x1="240.663" y1="55.2773" x2="240.663" y2="201.56" gradientUnits="userSpaceOnUse">
<stop stop-color="#72707D"/>
<stop offset="1" stop-color="#101824"/>
</linearGradient>
<clipPath id="clip0_10025_65817">
<rect width="512" height="512" fill="white" transform="translate(0.898926 0.417969)"/>
</clipPath>
</defs>
</svg>
