<svg width="512" height="513" viewBox="0 0 512 513" fill="none" xmlns="http://www.w3.org/2000/svg">
<path d="M290.674 192.201C274.865 187.275 258.705 181.822 242.322 175.84C240.487 175.17 238.66 174.478 236.828 173.797C142.101 175.401 56.734 189.919 18.854 210.095C25.488 213.6 32.376 216.603 39.459 219.078C40.477 218.042 41.733 217.271 43.117 216.831C96.724 200.965 177.706 191.862 265.322 191.862C273.87 191.863 282.274 192.031 290.674 192.201Z" fill="url(#paint0_linear_10025_65850)"/>
<path d="M0.072 192.339C0.078 192.432 0.118 192.527 0.128 192.62C0.494 194.699 1.437 196.633 2.849 198.203C35.822 177.13 107.269 161.926 194.451 157.036C182.494 151.997 170.763 146.782 159.36 141.438C49.921 151.818 0.363 176.922 0 191.701C0.031 191.902 0.046 192.104 0.062 192.305L0.072 192.339Z" fill="url(#paint1_linear_10025_65850)"/>
<path d="M97.511 233.867C99.677 234.266 101.906 234.653 104.137 235.038C146.884 241.969 190.078 245.79 233.377 246.473C234.302 246.492 235.226 246.51 236.155 246.526C242.724 246.646 249.339 246.711 256 246.72C320.966 247.836 385.823 240.957 449.109 226.236C442.484 224.872 435.737 223.586 428.812 222.446C416.606 221.237 403.535 219.392 389.741 216.928C348.428 212.333 306.889 210.069 265.322 210.148C200.229 209.301 135.232 215.411 71.438 228.375C78.49 230.064 86.037 231.676 94.032 233.201C95.197 233.422 96.33 233.652 97.511 233.867Z" fill="url(#paint2_linear_10025_65850)"/>
<path d="M163.779 123.322C163.982 123.383 164.144 123.512 164.341 123.587C189.32 135.432 217.428 147.285 248.59 158.662C295.622 176.22 344.08 189.691 393.427 198.923L393.849 198.966C393.925 198.975 393.984 199.025 394.06 199.035C446.369 208.211 484.474 207.667 501.742 199.618C505.546 198.265 508.669 195.475 510.438 191.846C518.786 168.81 438.429 103.096 288.581 48.395C198.259 15.416 122.795 1.26404 76.0978 1.26404C62.2668 0.55304 48.4338 2.65304 35.4378 7.43804C31.6338 8.79104 28.5108 11.581 26.7418 15.21C20.1278 33.414 69.0018 78.291 163.779 123.322ZM137.304 34.215C138.295 29.264 143.112 26.054 148.063 27.045C193.709 36.518 238.581 49.395 282.304 65.567C321.752 79.775 360.204 96.609 397.402 115.955C400.298 117.473 402.162 120.423 402.291 123.69C402.42 126.957 400.795 130.044 398.028 131.787C395.261 133.53 391.775 133.662 388.884 132.134C352.412 113.172 314.712 96.672 276.036 82.746C233.185 66.892 189.208 54.266 144.473 44.974C139.523 43.983 136.313 39.166 137.304 34.215ZM129.17 74.961C131.665 70.574 137.239 69.032 141.634 71.514C183.587 94.763 227.355 114.573 272.509 130.751C309.612 144.387 347.524 155.712 386.027 164.662C389.23 165.369 391.808 167.738 392.784 170.869C393.76 174 392.984 177.414 390.75 179.816C388.516 182.218 385.167 183.239 381.974 182.492C342.719 173.375 304.068 161.832 266.242 147.929C220.14 131.402 175.452 111.168 132.617 87.424C128.223 84.934 126.68 79.354 129.17 74.961Z" fill="url(#paint3_linear_10025_65850)"/>
<path d="M159.391 347.643C122.822 357.485 100.572 373.491 100.572 388.434C100.572 403.398 122.89 419.425 159.549 429.263C175.103 405.864 175.869 375.621 161.518 351.465L159.391 347.643ZM143.634 390.354C143.179 390.72 142.714 391.086 142.259 391.448C141.751 391.795 141.198 392.073 140.616 392.274C140.069 392.55 139.481 392.735 138.875 392.823C138.303 392.928 137.724 392.989 137.143 393.006C135.949 392.991 134.769 392.743 133.67 392.274C132.551 391.831 131.527 391.18 130.652 390.354C127.116 386.749 127.116 380.977 130.652 377.372C131.526 376.544 132.55 375.89 133.67 375.448C135.305 374.725 137.126 374.535 138.875 374.903C139.481 374.987 140.07 375.171 140.616 375.448C141.198 375.649 141.75 375.927 142.259 376.274C142.714 376.64 143.179 377.006 143.634 377.372C144.441 378.26 145.09 379.279 145.554 380.385C146.023 381.485 146.272 382.667 146.286 383.863C146.249 386.283 145.303 388.6 143.634 390.354Z" fill="url(#paint4_linear_10025_65850)"/>
<path d="M256 301.577C215.036 301.577 111.634 299.077 36.4199 275.934L36.5719 443.648C57.7239 454.572 130.983 475.291 256.001 475.291C381.019 475.291 454.278 454.572 475.555 443.612L475.43 275.974C400.366 299.077 296.964 301.577 256 301.577ZM429.714 438.72C429.714 442.016 427.94 445.057 425.071 446.68C422.202 448.302 418.681 448.255 415.857 446.555L374.661 421.787C348.536 443.452 295.973 457.006 237.715 457.006C149.108 457.006 82.2859 427.528 82.2859 388.435C82.2859 349.342 149.107 319.864 237.715 319.864C290.742 319.864 339.269 331.056 367.536 349.802L415.866 321.168C418.69 319.472 422.209 319.426 425.076 321.049C427.943 322.672 429.715 325.712 429.714 329.007V438.72Z" fill="url(#paint5_linear_10025_65850)"/>
<path d="M357.429 365.041C332.42 348.452 286.545 338.148 237.715 338.148C217.667 338.078 197.657 339.866 177.939 343.49C193.983 371.297 194.105 405.52 178.26 433.441C197.874 437.021 217.777 438.789 237.715 438.72C291.09 438.72 340.358 426.488 363.233 407.55C369.18 402.712 377.527 402.136 384.081 406.112L411.429 422.554V345.148L377.206 365.67C371.054 369.332 363.335 369.087 357.429 365.041Z" fill="url(#paint6_linear_10025_65850)"/>
<path d="M511.154 220.473C508.842 222.067 506.379 223.627 503.695 225.138C503.267 225.379 502.798 225.609 502.361 225.847C499.869 227.208 497.222 228.532 494.442 229.824C493.815 230.115 493.212 230.412 492.571 230.699C489.443 232.103 486.15 233.463 482.693 234.781C481.943 235.067 481.169 235.346 480.405 235.628C477.07 236.861 473.623 238.061 470.021 239.218C469.642 239.34 469.284 239.469 468.902 239.59C465.002 240.824 460.918 242.001 456.733 243.147C455.793 243.405 454.846 243.66 453.894 243.913C449.652 245.038 445.313 246.128 440.814 247.164C440.358 247.269 439.883 247.366 439.424 247.47C435.177 248.434 430.811 249.353 426.36 250.238C425.419 250.425 424.491 250.616 423.542 250.8C418.79 251.719 413.936 252.594 408.981 253.426C408.037 253.584 407.079 253.733 406.128 253.889C401.471 254.648 396.738 255.371 391.93 256.056C391.297 256.146 390.679 256.242 390.043 256.331C384.823 257.057 379.506 257.73 374.131 258.365C372.957 258.504 371.779 258.64 370.598 258.773C365.145 259.394 359.645 259.984 354.062 260.512L353.169 260.591C347.776 261.097 342.318 261.548 336.826 261.967C335.665 262.055 334.51 262.147 333.345 262.231C327.722 262.64 322.061 263.005 316.362 263.326C315.357 263.382 314.347 263.429 313.34 263.482C308.112 263.759 302.863 263.998 297.592 264.2C296.689 264.235 295.791 264.276 294.886 264.308C289.126 264.513 283.351 264.67 277.562 264.778C276.29 264.803 275.02 264.823 273.747 264.843C267.833 264.939 261.915 265.004 256.002 265.004C249.032 265.004 242.06 264.934 235.086 264.795C231.839 264.734 228.651 264.622 225.434 264.533C221.8 264.432 218.165 264.342 214.544 264.205C210.742 264.062 207.003 263.872 203.25 263.69C200.238 263.544 197.226 263.405 194.23 263.234C190.474 263.019 186.776 262.769 183.078 262.515C179.976 262.304 176.884 262.09 173.809 261.85C170.572 261.597 167.379 261.323 164.193 261.04C160.464 260.712 156.761 260.365 153.084 259.999C150.765 259.765 148.463 259.523 146.177 259.273C141.464 258.762 136.808 258.218 132.208 257.639C131.06 257.493 129.91 257.349 128.77 257.199C96.819 253.566 65.319 246.704 34.752 236.717L34.698 236.699C31.266 235.484 27.992 234.227 24.842 232.935C23.738 232.488 22.64 232.04 21.576 231.585C19.574 230.719 17.657 229.833 15.787 228.934C13.79 227.986 11.871 227.027 10.044 226.051C9.118 225.55 8.222 225.044 7.337 224.533C4.94 223.166 2.714 221.774 0.658 220.356C0.456 220.215 0.2 220.085 0 219.944V457.006C0 479.912 97.393 511.863 256 511.863C414.607 511.863 512 479.912 512 457.006V219.943C511.743 220.125 511.416 220.292 511.154 220.473ZM493.714 443.648C493.763 450.466 489.982 456.734 483.928 459.871C452.402 476.104 367.634 493.577 256 493.577C144.366 493.577 59.598 476.104 28.072 459.872C22.019 456.735 18.238 450.466 18.286 443.649V275.974C18.299 270.155 21.06 264.683 25.732 261.215C30.334 257.774 36.308 256.748 41.795 258.456C114.634 280.871 215.858 283.291 256 283.291C296.142 283.291 397.366 280.871 470.205 258.461C475.691 256.747 481.666 257.772 486.268 261.215C490.941 264.683 493.701 270.155 493.714 275.974V443.648Z" fill="url(#paint7_linear_10025_65850)"/>
<defs>
<linearGradient id="paint0_linear_10025_65850" x1="154.764" y1="173.797" x2="154.764" y2="219.078" gradientUnits="userSpaceOnUse">
<stop stop-color="#72707D"/>
<stop offset="1" stop-color="#101824"/>
</linearGradient>
<linearGradient id="paint1_linear_10025_65850" x1="97.2255" y1="141.438" x2="97.2255" y2="198.203" gradientUnits="userSpaceOnUse">
<stop stop-color="#72707D"/>
<stop offset="1" stop-color="#101824"/>
</linearGradient>
<linearGradient id="paint2_linear_10025_65850" x1="260.273" y1="210.07" x2="260.273" y2="246.837" gradientUnits="userSpaceOnUse">
<stop stop-color="#72707D"/>
<stop offset="1" stop-color="#101824"/>
</linearGradient>
<linearGradient id="paint3_linear_10025_65850" x1="268.589" y1="1.12891" x2="268.589" y2="205.786" gradientUnits="userSpaceOnUse">
<stop stop-color="#72707D"/>
<stop offset="1" stop-color="#101824"/>
</linearGradient>
<linearGradient id="paint4_linear_10025_65850" x1="136.171" y1="347.643" x2="136.171" y2="429.263" gradientUnits="userSpaceOnUse">
<stop stop-color="#72707D"/>
<stop offset="1" stop-color="#101824"/>
</linearGradient>
<linearGradient id="paint5_linear_10025_65850" x1="255.987" y1="275.934" x2="255.987" y2="475.291" gradientUnits="userSpaceOnUse">
<stop stop-color="#72707D"/>
<stop offset="1" stop-color="#101824"/>
</linearGradient>
<linearGradient id="paint6_linear_10025_65850" x1="294.684" y1="338.146" x2="294.684" y2="438.722" gradientUnits="userSpaceOnUse">
<stop stop-color="#72707D"/>
<stop offset="1" stop-color="#101824"/>
</linearGradient>
<linearGradient id="paint7_linear_10025_65850" x1="256" y1="219.943" x2="256" y2="511.863" gradientUnits="userSpaceOnUse">
<stop stop-color="#72707D"/>
<stop offset="1" stop-color="#101824"/>
</linearGradient>
</defs>
</svg>
