<svg width="512" height="513" viewBox="0 0 512 513" fill="none" xmlns="http://www.w3.org/2000/svg">
<g clip-path="url(#clip0_10025_65881)">
<path d="M498.33 130.334C503.325 131.027 507.942 127.554 508.661 122.563L511.221 104.46C511.567 102.058 510.942 99.6179 509.483 97.6779C508.024 95.7389 505.853 94.4609 503.449 94.1279L430.123 83.7969C429.433 88.6429 429.066 93.5299 429.026 98.4259C429.089 105.992 429.947 113.531 431.586 120.917L498.33 130.334Z" fill="url(#paint0_linear_10025_65881)"/>
<path d="M7.90719 313.556C5.50319 313.889 3.33219 315.167 1.87319 317.106C0.414189 319.045 -0.210811 321.486 0.136189 323.888L2.69619 341.991C3.44119 346.968 8.04019 350.427 13.0272 349.762L78.9472 340.436C80.6612 333.029 81.5502 325.456 81.5982 317.853C81.5582 312.988 81.1912 308.132 80.5012 303.316L7.90719 313.556Z" fill="url(#paint1_linear_10025_65881)"/>
<path d="M7.90719 203.844C5.50319 204.177 3.33219 205.455 1.87319 207.394C0.414189 209.333 -0.210811 211.774 0.136189 214.176L2.69619 232.279C3.44119 237.256 8.04019 240.715 13.0272 240.05L78.9472 230.724C80.6612 223.317 81.5502 215.744 81.5982 208.141C81.5582 203.276 81.1912 198.42 80.5012 193.604L7.90719 203.844Z" fill="url(#paint2_linear_10025_65881)"/>
<path d="M7.90719 94.1287C5.50319 94.4617 3.33219 95.7397 1.87319 97.6787C0.414189 99.6177 -0.210811 102.059 0.136189 104.461L2.69619 122.564C3.44119 127.541 8.04019 131 13.0272 130.335L78.9472 121.009C80.6612 113.602 81.5502 106.029 81.5982 98.4257C81.5582 93.5607 81.1912 88.7047 80.5012 83.8887L7.90719 94.1287Z" fill="url(#paint3_linear_10025_65881)"/>
<path d="M7.90719 423.271C5.50319 423.604 3.33219 424.882 1.87319 426.821C0.414189 428.76 -0.210811 431.201 0.136189 433.603L2.69619 451.706C3.44119 456.683 8.04019 460.142 13.0272 459.477L78.9472 450.151C80.6612 442.744 81.5502 435.171 81.5982 427.568C81.5582 422.703 81.1912 417.847 80.5012 413.031L7.90719 423.271Z" fill="url(#paint4_linear_10025_65881)"/>
<path d="M415.038 460.117C409.893 441.011 409.36 420.955 413.484 401.603V401.329C413.519 401.096 413.613 400.875 413.758 400.689C414.967 394.604 416.711 388.638 418.969 382.86C418.055 382.677 417.232 382.494 416.318 382.311C414.672 381.945 412.935 381.671 411.289 381.305C406.809 380.482 402.329 379.659 397.758 378.928C394.741 378.471 391.724 378.014 388.707 377.557C385.233 377.008 381.758 376.46 378.193 376.003C374.536 375.546 370.879 375.089 367.13 374.632C363.93 374.266 360.821 373.901 357.53 373.535C353.599 373.078 349.667 372.712 345.644 372.346C342.353 371.98 339.153 371.706 335.861 371.432C331.838 371.158 327.815 370.792 323.792 370.518C320.135 370.244 316.569 370.061 312.912 369.878C309.072 369.604 305.323 369.421 301.483 369.238C297.003 369.055 292.432 368.872 287.952 368.689L278.626 368.415C270.946 368.232 263.175 368.141 255.312 368.141C247.54 368.141 239.769 368.232 231.998 368.415C228.798 368.506 225.598 368.598 222.307 368.781C218.01 368.872 213.621 369.055 209.324 369.238C205.301 369.421 201.278 369.604 197.255 369.878C193.872 370.061 190.489 370.244 187.106 370.518C182.809 370.792 178.512 371.158 174.215 371.524C171.289 371.707 168.364 371.981 165.438 372.255C161.141 372.712 156.844 373.078 152.547 373.535C149.713 373.901 146.878 374.175 144.136 374.541C140.022 374.998 135.999 375.547 132.067 376.095C128.867 376.461 125.85 376.918 122.741 377.375L112.592 379.021C108.387 379.661 104.272 380.392 100.249 381.215C98.2381 381.581 96.1351 381.946 94.2151 382.312C93.3011 382.495 92.5691 382.678 91.6551 382.861C93.9441 388.73 95.7181 394.787 96.9581 400.964C97.0491 401.147 97.1411 401.238 97.1411 401.421V401.604C98.9361 410.143 99.8551 418.844 99.8841 427.57C99.8801 438.717 98.4041 449.815 95.4951 460.576C95.4951 460.6 95.4861 460.624 95.4691 460.641C95.4521 460.658 95.4281 460.668 95.4041 460.667C94.2311 465.207 92.7651 469.666 91.0151 474.016C145.204 464.041 200.214 459.204 255.312 459.57C310.41 459.203 365.42 464.04 419.609 474.016C417.873 469.723 416.408 465.326 415.22 460.85C415.13 460.574 415.13 460.391 415.038 460.117ZM392.979 440.88C392.665 445.685 388.676 449.421 383.862 449.42H382.582C340.383 443.92 297.869 441.201 255.313 441.283C250.264 441.283 246.17 437.19 246.17 432.14C246.17 427.09 250.263 422.997 255.313 422.997C298.692 422.902 342.031 425.651 385.05 431.226C389.824 431.852 393.292 436.075 392.979 440.88Z" fill="url(#paint5_linear_10025_65881)"/>
<path d="M503.45 423.27L430.124 412.939C429.434 417.785 429.067 422.672 429.027 427.568C429.09 435.134 429.948 442.673 431.587 450.059L498.33 459.476C503.315 460.131 507.908 456.676 508.661 451.705L511.221 433.602C511.567 431.2 510.942 428.76 509.483 426.82C508.025 424.881 505.853 423.603 503.45 423.27Z" fill="url(#paint6_linear_10025_65881)"/>
<path d="M503.45 313.558L430.124 303.227C429.434 308.073 429.067 312.96 429.027 317.856C429.09 325.422 429.948 332.961 431.587 340.347L498.33 349.764C503.315 350.419 507.908 346.964 508.661 341.993L511.221 323.89C511.567 321.488 510.942 319.048 509.483 317.108C508.025 315.169 505.853 313.891 503.45 313.558Z" fill="url(#paint7_linear_10025_65881)"/>
<path d="M415.038 350.404C409.893 331.298 409.36 311.242 413.484 291.89V291.616C413.519 291.383 413.613 291.162 413.758 290.976C414.967 284.891 416.711 278.925 418.969 273.147C418.055 272.964 417.232 272.781 416.318 272.598C414.672 272.232 412.935 271.958 411.289 271.592C406.809 270.769 402.329 269.946 397.758 269.215C394.741 268.758 391.724 268.301 388.707 267.844C385.233 267.295 381.758 266.747 378.193 266.29C374.536 265.833 370.879 265.376 367.13 264.919C363.93 264.553 360.821 264.188 357.53 263.822C353.599 263.365 349.667 262.999 345.644 262.633C342.353 262.267 339.153 261.993 335.861 261.719C331.838 261.445 327.815 261.079 323.792 260.805C320.135 260.531 316.569 260.348 312.912 260.165C309.072 259.891 305.323 259.708 301.483 259.525C297.003 259.342 292.432 259.159 287.952 258.976L278.626 258.702C270.946 258.519 263.175 258.428 255.312 258.428C247.54 258.428 239.769 258.519 231.998 258.702C228.798 258.793 225.598 258.885 222.307 259.068C218.01 259.159 213.621 259.342 209.324 259.525C205.301 259.708 201.278 259.891 197.255 260.165C193.872 260.348 190.489 260.531 187.106 260.805C182.809 261.079 178.512 261.445 174.215 261.811C171.289 261.994 168.364 262.268 165.438 262.542C161.141 262.999 156.844 263.365 152.547 263.822C149.713 264.188 146.878 264.462 144.136 264.828C140.022 265.285 135.999 265.834 132.067 266.382C128.867 266.748 125.85 267.205 122.741 267.662L112.592 269.308C108.387 269.948 104.272 270.679 100.249 271.502C98.2381 271.868 96.1351 272.233 94.2151 272.599C93.3011 272.782 92.5691 272.965 91.6551 273.148C93.9441 279.017 95.7181 285.074 96.9581 291.251C97.0491 291.434 97.1411 291.525 97.1411 291.708V291.891C98.9361 300.43 99.8551 309.131 99.8841 317.857C99.8801 329.004 98.4041 340.102 95.4951 350.863C95.4951 350.887 95.4861 350.911 95.4691 350.928C95.4521 350.945 95.4281 350.955 95.4041 350.954C94.2311 355.494 92.7651 359.953 91.0151 364.303C91.8381 364.12 92.6611 364.029 93.4841 363.846C96.1351 363.297 98.8781 362.84 101.621 362.383C105.644 361.652 109.758 360.92 113.872 360.28C116.066 359.914 118.261 359.64 120.455 359.274C125.301 358.543 130.238 357.903 135.266 357.171C137.095 356.988 139.015 356.714 140.935 356.531C146.329 355.891 151.724 355.251 157.301 354.702C159.038 354.519 160.775 354.336 162.604 354.153C168.273 353.604 173.941 353.147 179.701 352.69C181.53 352.599 183.358 352.416 185.187 352.324C190.947 351.867 196.707 351.593 202.558 351.227C204.569 351.136 206.398 351.044 208.318 350.953C214.261 350.679 220.112 350.496 226.055 350.313C227.975 350.222 229.895 350.222 231.815 350.13C239.586 349.947 247.449 349.856 255.312 349.856C263.175 349.856 271.038 349.947 278.809 350.13C280.82 350.221 282.831 350.313 284.843 350.313C290.694 350.496 296.454 350.679 302.214 350.953C304.317 351.044 306.42 351.136 308.431 351.319C314.1 351.593 319.768 351.868 325.254 352.325C327.357 352.416 329.368 352.599 331.471 352.782C336.957 353.148 342.351 353.605 347.745 354.153C349.848 354.336 351.859 354.519 353.962 354.793C359.082 355.25 364.202 355.799 369.231 356.439C371.517 356.713 373.711 356.988 375.905 357.262C380.567 357.902 385.139 358.542 389.619 359.182C392.179 359.548 394.648 359.913 397.208 360.371C400.957 360.92 404.705 361.56 408.362 362.2C411.471 362.749 414.488 363.297 417.505 363.846C418.145 364.029 418.876 364.12 419.608 364.303C417.872 360.01 416.407 355.613 415.219 351.137C415.13 350.861 415.13 350.678 415.038 350.404ZM255.313 294.998C212.363 294.856 169.461 297.851 126.947 303.958C126.494 304.034 126.035 304.065 125.576 304.049C120.815 304.028 116.875 300.34 116.539 295.591C116.203 290.842 119.585 286.637 124.296 285.946C167.682 279.651 211.473 276.565 255.313 276.712C260.362 276.712 264.456 280.805 264.456 285.855C264.455 290.905 260.362 294.998 255.313 294.998Z" fill="url(#paint8_linear_10025_65881)"/>
<path d="M503.45 203.843L430.124 193.512C429.434 198.358 429.067 203.245 429.027 208.141C429.09 215.707 429.948 223.246 431.587 230.632L498.33 240.049C503.315 240.704 507.908 237.249 508.661 232.278L511.221 214.175C511.567 211.773 510.942 209.333 509.483 207.393C508.025 205.453 505.853 204.176 503.45 203.843Z" fill="url(#paint9_linear_10025_65881)"/>
<path d="M415.038 130.974C409.893 111.868 409.36 91.8123 413.484 72.4603V72.1863C413.519 71.9533 413.613 71.7323 413.758 71.5463C414.979 65.4353 416.723 59.4393 418.969 53.6263C365.009 43.5333 310.206 38.6343 255.312 38.9973C200.418 38.6423 145.616 43.5413 91.6551 53.6263C93.9321 59.5313 95.7061 65.6173 96.9581 71.8203C97.0491 72.0033 97.1411 72.0943 97.1411 72.2773V72.4603C98.9361 80.9993 99.8551 89.7003 99.8841 98.4263C99.8801 109.573 98.4041 120.671 95.4951 131.432C95.4951 131.456 95.4861 131.48 95.4691 131.497C95.4521 131.514 95.4281 131.524 95.4041 131.523C94.2311 136.063 92.7651 140.522 91.0151 144.872C91.8381 144.689 92.6611 144.598 93.4841 144.415C96.1351 143.866 98.8781 143.409 101.621 142.952C105.644 142.221 109.758 141.489 113.872 140.849C116.066 140.483 118.261 140.209 120.455 139.843C125.301 139.112 130.238 138.472 135.266 137.74C137.095 137.557 139.015 137.283 140.935 137.1C146.329 136.46 151.724 135.82 157.301 135.271C159.038 135.088 160.775 134.905 162.604 134.722C168.273 134.173 173.941 133.716 179.701 133.259C181.53 133.168 183.358 132.985 185.187 132.893C190.947 132.436 196.707 132.162 202.558 131.796C204.569 131.705 206.398 131.613 208.318 131.522C214.261 131.248 220.112 131.065 226.055 130.882C227.975 130.791 229.895 130.791 231.815 130.699C239.586 130.516 247.449 130.425 255.312 130.425C263.175 130.425 271.038 130.516 278.809 130.699C280.82 130.79 282.831 130.882 284.843 130.882C290.694 131.065 296.454 131.248 302.214 131.522C304.317 131.613 306.42 131.705 308.431 131.888C314.1 132.162 319.768 132.437 325.254 132.894C327.357 132.985 329.368 133.168 331.471 133.351C336.957 133.717 342.351 134.174 347.745 134.722C349.848 134.905 351.859 135.088 353.962 135.362C359.082 135.819 364.202 136.368 369.231 137.008C371.517 137.282 373.711 137.557 375.905 137.831C380.567 138.471 385.139 139.111 389.619 139.751C392.179 140.117 394.648 140.482 397.208 140.94C400.957 141.489 404.705 142.129 408.362 142.769C411.471 143.318 414.488 143.866 417.505 144.415C418.145 144.598 418.876 144.689 419.608 144.872C417.872 140.579 416.407 136.182 415.219 131.706C415.13 131.431 415.13 131.249 415.038 130.974ZM255.313 75.5693C212.363 75.4273 169.461 78.4223 126.947 84.5293C126.494 84.6053 126.035 84.6363 125.576 84.6203C120.815 84.5993 116.875 80.9123 116.539 76.1623C116.203 71.4133 119.585 67.2083 124.296 66.5173C167.682 60.2233 211.473 57.1363 255.313 57.2833C260.362 57.2833 264.456 61.3763 264.456 66.4263C264.455 71.4753 260.362 75.5693 255.313 75.5693Z" fill="url(#paint10_linear_10025_65881)"/>
<path d="M415.038 240.689C409.893 221.583 409.36 201.527 413.484 182.175V181.901C413.519 181.668 413.613 181.447 413.758 181.261C414.967 175.176 416.711 169.21 418.969 163.432C418.055 163.249 417.232 163.066 416.318 162.883C414.672 162.517 412.935 162.243 411.289 161.877C406.809 161.054 402.329 160.231 397.758 159.5C394.741 159.043 391.724 158.586 388.707 158.129C385.233 157.58 381.758 157.032 378.193 156.575C374.536 156.118 370.879 155.661 367.13 155.204C363.93 154.838 360.821 154.473 357.53 154.107C353.599 153.65 349.667 153.284 345.644 152.918C342.353 152.552 339.153 152.278 335.861 152.004C331.838 151.73 327.815 151.364 323.792 151.09C320.135 150.816 316.569 150.633 312.912 150.45C309.072 150.176 305.323 149.993 301.483 149.81C297.003 149.627 292.432 149.444 287.952 149.261L278.626 148.987C270.946 148.804 263.175 148.713 255.312 148.713C247.54 148.713 239.769 148.804 231.998 148.987C228.798 149.078 225.598 149.17 222.307 149.353C218.01 149.444 213.621 149.627 209.324 149.81C205.301 149.993 201.278 150.176 197.255 150.45C193.872 150.633 190.489 150.816 187.106 151.09C182.809 151.364 178.512 151.73 174.215 152.096C171.289 152.279 168.364 152.553 165.438 152.827C161.141 153.284 156.844 153.65 152.547 154.107C149.713 154.473 146.878 154.747 144.136 155.113C140.022 155.57 135.999 156.119 132.067 156.667C128.867 157.033 125.85 157.49 122.741 157.947L112.592 159.593C108.387 160.233 104.272 160.964 100.249 161.787C98.2381 162.153 96.1351 162.518 94.2151 162.884C93.3011 163.067 92.5691 163.25 91.6551 163.433C93.9441 169.302 95.7181 175.359 96.9581 181.536C97.0491 181.719 97.1411 181.81 97.1411 181.993V182.176C98.9361 190.715 99.8551 199.416 99.8841 208.142C99.8801 219.289 98.4041 230.387 95.4951 241.148C95.4951 241.172 95.4861 241.196 95.4691 241.213C95.4521 241.23 95.4281 241.24 95.4041 241.239C94.2311 245.779 92.7651 250.238 91.0151 254.588C91.8381 254.405 92.6611 254.314 93.4841 254.131C96.1351 253.582 98.8781 253.125 101.621 252.668C105.644 251.937 109.758 251.205 113.872 250.565C116.066 250.199 118.261 249.925 120.455 249.559C125.301 248.828 130.238 248.188 135.266 247.456C137.095 247.273 139.015 246.999 140.935 246.816C146.329 246.176 151.724 245.536 157.301 244.987C159.038 244.804 160.775 244.621 162.604 244.438C168.273 243.889 173.941 243.432 179.701 242.975C181.53 242.884 183.358 242.701 185.187 242.609C190.947 242.152 196.707 241.878 202.558 241.512C204.569 241.421 206.398 241.329 208.318 241.238C214.261 240.964 220.112 240.781 226.055 240.598C227.975 240.507 229.895 240.507 231.815 240.415C239.586 240.232 247.449 240.141 255.312 240.141C263.175 240.141 271.038 240.232 278.809 240.415C280.82 240.506 282.831 240.598 284.843 240.598C290.694 240.781 296.454 240.964 302.214 241.238C304.317 241.329 306.42 241.421 308.431 241.604C314.1 241.878 319.768 242.153 325.254 242.61C327.357 242.701 329.368 242.884 331.471 243.067C336.957 243.433 342.351 243.89 347.745 244.438C349.848 244.621 351.859 244.804 353.962 245.078C359.082 245.535 364.202 246.084 369.231 246.724C371.517 246.998 373.711 247.273 375.905 247.547C380.567 248.187 385.139 248.827 389.619 249.467C392.179 249.833 394.648 250.198 397.208 250.656C400.957 251.205 404.705 251.845 408.362 252.485C411.471 253.034 414.488 253.582 417.505 254.131C418.145 254.314 418.876 254.405 419.608 254.588C417.872 250.295 416.407 245.898 415.219 241.422C415.13 241.146 415.13 240.963 415.038 240.689ZM392.979 221.451C392.665 226.256 388.676 229.992 383.862 229.991H382.582C340.383 224.491 297.869 221.772 255.313 221.854C250.264 221.854 246.17 217.761 246.17 212.711C246.17 207.661 250.263 203.568 255.313 203.568C298.692 203.473 342.031 206.222 385.05 211.797C389.824 212.423 393.292 216.647 392.979 221.451Z" fill="url(#paint11_linear_10025_65881)"/>
</g>
<defs>
<linearGradient id="paint0_linear_10025_65881" x1="470.17" y1="83.7969" x2="470.17" y2="130.422" gradientUnits="userSpaceOnUse">
<stop stop-color="#72707D"/>
<stop offset="1" stop-color="#101824"/>
</linearGradient>
<linearGradient id="paint1_linear_10025_65881" x1="40.8203" y1="303.316" x2="40.8203" y2="349.844" gradientUnits="userSpaceOnUse">
<stop stop-color="#72707D"/>
<stop offset="1" stop-color="#101824"/>
</linearGradient>
<linearGradient id="paint2_linear_10025_65881" x1="40.8203" y1="193.604" x2="40.8203" y2="240.131" gradientUnits="userSpaceOnUse">
<stop stop-color="#72707D"/>
<stop offset="1" stop-color="#101824"/>
</linearGradient>
<linearGradient id="paint3_linear_10025_65881" x1="40.8203" y1="83.8887" x2="40.8203" y2="130.417" gradientUnits="userSpaceOnUse">
<stop stop-color="#72707D"/>
<stop offset="1" stop-color="#101824"/>
</linearGradient>
<linearGradient id="paint4_linear_10025_65881" x1="40.8203" y1="413.031" x2="40.8203" y2="459.559" gradientUnits="userSpaceOnUse">
<stop stop-color="#72707D"/>
<stop offset="1" stop-color="#101824"/>
</linearGradient>
<linearGradient id="paint5_linear_10025_65881" x1="255.312" y1="368.141" x2="255.312" y2="474.016" gradientUnits="userSpaceOnUse">
<stop stop-color="#72707D"/>
<stop offset="1" stop-color="#101824"/>
</linearGradient>
<linearGradient id="paint6_linear_10025_65881" x1="470.171" y1="412.939" x2="470.171" y2="459.556" gradientUnits="userSpaceOnUse">
<stop stop-color="#72707D"/>
<stop offset="1" stop-color="#101824"/>
</linearGradient>
<linearGradient id="paint7_linear_10025_65881" x1="470.171" y1="303.227" x2="470.171" y2="349.843" gradientUnits="userSpaceOnUse">
<stop stop-color="#72707D"/>
<stop offset="1" stop-color="#101824"/>
</linearGradient>
<linearGradient id="paint8_linear_10025_65881" x1="255.312" y1="258.428" x2="255.312" y2="364.303" gradientUnits="userSpaceOnUse">
<stop stop-color="#72707D"/>
<stop offset="1" stop-color="#101824"/>
</linearGradient>
<linearGradient id="paint9_linear_10025_65881" x1="470.171" y1="193.512" x2="470.171" y2="240.128" gradientUnits="userSpaceOnUse">
<stop stop-color="#72707D"/>
<stop offset="1" stop-color="#101824"/>
</linearGradient>
<linearGradient id="paint10_linear_10025_65881" x1="255.312" y1="38.9785" x2="255.312" y2="144.872" gradientUnits="userSpaceOnUse">
<stop stop-color="#72707D"/>
<stop offset="1" stop-color="#101824"/>
</linearGradient>
<linearGradient id="paint11_linear_10025_65881" x1="255.312" y1="148.713" x2="255.312" y2="254.588" gradientUnits="userSpaceOnUse">
<stop stop-color="#72707D"/>
<stop offset="1" stop-color="#101824"/>
</linearGradient>
<clipPath id="clip0_10025_65881">
<rect width="511.273" height="511.273" fill="white" transform="translate(0.0419922 0.859375)"/>
</clipPath>
</defs>
</svg>
