<svg width="513" height="513" viewBox="0 0 513 513" fill="none" xmlns="http://www.w3.org/2000/svg">
<g clip-path="url(#clip0_10025_65897)">
<path d="M263.894 107.099L270.436 113.644C280.369 123.805 286.883 136.813 289.07 150.854C290.565 162.037 299.361 170.836 310.543 172.336C324.586 174.521 337.598 181.036 347.762 190.97L405.732 248.94C416.261 236.347 423.519 221.35 426.861 205.279L307.559 85.9707C291.487 89.3107 276.487 96.5677 263.894 107.099Z" fill="url(#paint0_linear_10025_65897)"/>
<path d="M307.49 190.367C288.596 187.662 273.751 172.818 271.044 153.925C269.485 143.622 264.754 134.061 257.508 126.572L250.65 119.711L11.0661 359.296C-3.21994 373.616 -3.21994 396.798 11.0661 411.118L101.713 501.769C116.033 516.055 139.215 516.055 153.535 501.769L393.12 262.184L334.834 203.898C327.348 196.655 317.79 191.926 307.49 190.367ZM153.517 475.85C151.803 477.565 149.478 478.529 147.053 478.529C144.628 478.529 142.303 477.565 140.589 475.85L127.638 462.899C124.068 459.329 124.068 453.541 127.638 449.97C131.208 446.4 136.996 446.4 140.567 449.97L153.518 462.921C155.233 464.635 156.197 466.96 156.197 469.385C156.197 471.81 155.232 474.136 153.517 475.85ZM179.414 449.948C177.7 451.663 175.375 452.627 172.95 452.627C170.525 452.627 168.2 451.663 166.486 449.948L153.535 436.997C149.965 433.427 149.965 427.639 153.535 424.068C157.105 420.497 162.893 420.498 166.464 424.068L179.415 437.019C181.13 438.733 182.094 441.058 182.094 443.483C182.093 445.908 181.129 448.234 179.414 449.948ZM205.316 424.046C203.602 425.761 201.276 426.725 198.852 426.725C196.428 426.725 194.102 425.761 192.388 424.046L179.437 411.1C175.867 407.53 175.867 401.742 179.437 398.171C183.007 394.601 188.795 394.601 192.366 398.171L205.317 411.117C207.032 412.831 207.996 415.156 207.996 417.581C207.996 420.006 207.031 422.332 205.316 424.046ZM231.213 398.149C229.499 399.864 227.173 400.828 224.749 400.828C222.325 400.828 219.999 399.864 218.285 398.149L205.334 385.198C203.025 382.888 202.123 379.522 202.968 376.368C203.813 373.213 206.278 370.749 209.432 369.904C212.587 369.059 215.953 369.961 218.262 372.27L231.213 385.221C232.928 386.935 233.891 389.26 233.892 391.685C233.892 394.109 232.928 396.435 231.213 398.149ZM257.115 372.247C255.401 373.962 253.075 374.926 250.651 374.926C248.226 374.926 245.901 373.962 244.187 372.247L231.236 359.296C227.666 355.726 227.666 349.938 231.236 346.367C234.806 342.797 240.594 342.797 244.165 346.367L257.116 359.318C258.831 361.032 259.795 363.357 259.795 365.782C259.793 368.208 258.83 370.533 257.115 372.247ZM283.013 346.35C281.299 348.065 278.974 349.029 276.549 349.029C274.124 349.029 271.799 348.065 270.085 346.35L257.139 333.399C253.569 329.829 253.569 324.041 257.139 320.47C260.709 316.9 266.497 316.9 270.068 320.47L283.014 333.421C284.729 335.135 285.693 337.461 285.693 339.885C285.691 342.31 284.728 344.636 283.013 346.35ZM308.914 320.448C307.2 322.163 304.875 323.127 302.45 323.127C300.025 323.127 297.7 322.163 295.986 320.448L283.035 307.497C279.465 303.927 279.465 298.139 283.035 294.568C286.605 290.998 292.393 290.998 295.964 294.568L308.915 307.519C310.63 309.233 311.594 311.558 311.594 313.983C311.594 316.408 310.629 318.734 308.914 320.448ZM334.816 294.551C333.102 296.266 330.777 297.23 328.352 297.23C325.927 297.23 323.602 296.266 321.888 294.551L308.937 281.6C305.367 278.03 305.367 272.242 308.937 268.671C312.507 265.101 318.295 265.101 321.866 268.671L334.817 281.622C336.532 283.336 337.496 285.661 337.496 288.086C337.496 290.511 336.531 292.836 334.816 294.551ZM347.762 242.769L360.713 255.72C363.022 258.029 363.924 261.396 363.079 264.55C362.234 267.704 359.769 270.169 356.615 271.014C353.461 271.859 350.094 270.957 347.785 268.648L334.834 255.697C331.264 252.127 331.264 246.339 334.834 242.768C338.404 239.199 344.192 239.199 347.762 242.769Z" fill="url(#paint1_linear_10025_65897)"/>
<path d="M367.169 54.9335C356.449 44.2435 339.099 44.2435 328.379 54.9335L315.379 67.9335L444.897 197.456L457.901 184.456C468.583 173.743 468.592 156.409 457.921 145.685L367.169 54.9335Z" fill="url(#paint2_linear_10025_65897)"/>
<path d="M419.017 42.0318L419.004 42.0228L418.995 42.0098L418.968 41.9828C408.252 31.2818 390.894 31.2818 380.178 41.9828L380.129 42.0318L425.464 87.3688L470.801 132.704L470.852 132.653C481.544 121.933 481.544 104.582 470.852 93.8628L419.017 42.0318Z" fill="url(#paint3_linear_10025_65897)"/>
<path d="M511.557 5.83138C510.281 3.11238 507.765 1.18238 504.808 0.655383C501.851 0.128383 498.823 1.06938 496.686 3.18038L470.981 28.8814C466.914 33.0574 461.111 35.0614 455.334 34.2834C449.965 33.5124 444.489 34.3844 439.625 36.7834L476.051 73.2064C478.445 68.3374 479.315 62.8604 478.549 57.4894C477.782 51.7154 479.787 45.9184 483.956 41.8514L509.027 16.7804C512.06 14.0084 513.067 9.65138 511.557 5.83138Z" fill="url(#paint4_linear_10025_65897)"/>
</g>
<defs>
<linearGradient id="paint0_linear_10025_65897" x1="345.378" y1="85.9707" x2="345.378" y2="248.94" gradientUnits="userSpaceOnUse">
<stop stop-color="#72707D"/>
<stop offset="1" stop-color="#101824"/>
</linearGradient>
<linearGradient id="paint1_linear_10025_65897" x1="196.736" y1="119.711" x2="196.736" y2="512.483" gradientUnits="userSpaceOnUse">
<stop stop-color="#72707D"/>
<stop offset="1" stop-color="#101824"/>
</linearGradient>
<linearGradient id="paint2_linear_10025_65897" x1="390.649" y1="46.916" x2="390.649" y2="197.456" gradientUnits="userSpaceOnUse">
<stop stop-color="#72707D"/>
<stop offset="1" stop-color="#101824"/>
</linearGradient>
<linearGradient id="paint3_linear_10025_65897" x1="429.5" y1="33.957" x2="429.5" y2="132.704" gradientUnits="userSpaceOnUse">
<stop stop-color="#72707D"/>
<stop offset="1" stop-color="#101824"/>
</linearGradient>
<linearGradient id="paint4_linear_10025_65897" x1="475.938" y1="0.511719" x2="475.938" y2="73.2064" gradientUnits="userSpaceOnUse">
<stop stop-color="#72707D"/>
<stop offset="1" stop-color="#101824"/>
</linearGradient>
<clipPath id="clip0_10025_65897">
<rect width="511.972" height="511.972" fill="white" transform="translate(0.314941 0.511719)"/>
</clipPath>
</defs>
</svg>
