<svg width="513" height="513" viewBox="0 0 513 513" fill="none" xmlns="http://www.w3.org/2000/svg">
<g clip-path="url(#clip0_10025_65927)">
<path d="M92.0442 222.005C92.5262 222.333 92.9862 222.691 93.4242 223.076L97.2772 226.482L96.3662 231.545C93.1242 249.25 98.7562 267.42 111.442 280.188L137.299 306.05C158.734 327.402 193.41 327.368 214.804 305.974C236.198 284.58 236.232 249.905 214.88 228.469L189.023 202.607C176.256 189.916 158.082 184.284 140.376 187.531L135.291 188.446L131.881 184.558C131.519 184.147 131.189 183.723 130.863 183.29L111.444 163.817C104.515 156.888 94.4152 154.182 84.9502 156.718C75.4852 159.254 68.0912 166.648 65.5552 176.113C63.0192 185.578 65.7252 195.678 72.6542 202.607L92.0442 222.005Z" fill="url(#paint0_linear_10025_65927)"/>
<path d="M182.058 109.301C179.749 108.784 177.386 108.552 175.021 108.61C174.91 108.604 174.802 108.612 174.69 108.602C172.604 108.7 170.538 109.054 168.538 109.657L167.571 109.961H167.567L167.978 109.765C167.729 109.885 167.468 109.988 167.208 110.086C165.298 110.739 163.471 111.616 161.767 112.699C161.615 112.82 161.429 112.932 161.259 113.049C159.332 114.35 157.569 115.88 156.01 117.604L156.009 117.605L155.912 117.716C149.358 124.917 147.131 135.061 150.064 144.346L157.84 168.79C166.283 169.648 174.513 171.967 182.163 175.644C195.473 170.621 209.214 166.823 223.214 164.296C221.252 163.415 219.24 162.649 217.189 162.002C214.137 161.057 211.8 158.588 211.024 155.489C210.89 154.94 210.783 154.395 210.68 153.851L202.403 127.699C199.45 118.408 191.762 111.4 182.238 109.318L182.058 109.301Z" fill="url(#paint1_linear_10025_65927)"/>
<path d="M6.91018 155.689C10.8772 157.894 15.6852 157.968 19.7182 155.885C20.5472 155.458 21.3402 154.963 22.0892 154.407C29.3042 148.753 39.5942 149.328 46.1342 155.751L52.0012 161.618C54.0342 157.682 56.6362 154.067 59.7242 150.89C61.2342 149.474 62.8402 148.164 64.5312 146.969L59.7202 142.157C53.3012 135.621 52.7242 125.339 58.3722 118.126C58.9372 117.368 59.4382 116.564 59.8722 115.724C61.9542 111.698 61.8762 106.894 59.6622 102.938C57.6402 99.4296 54.0842 97.0796 50.0642 96.5936C45.5942 96.0736 41.1342 97.6526 37.9882 100.871C36.2292 103.257 35.1472 106.073 34.8542 109.023C33.6882 120.455 24.6332 129.486 13.1982 130.621C10.0772 130.614 7.07718 131.832 4.84518 134.014C1.62518 137.159 0.0451851 141.619 0.568185 146.09C1.05219 150.111 3.40318 153.667 6.91018 155.689Z" fill="url(#paint2_linear_10025_65927)"/>
<path d="M127.527 73.828L127.759 73.832C130.199 73.855 132.603 73.246 134.737 72.064C137.132 70.725 140.003 70.533 142.555 71.542C145.107 72.551 147.07 74.654 147.902 77.269L153.889 96.046C154.106 95.923 154.355 95.865 154.575 95.745C154.931 95.549 155.284 95.35 155.662 95.162C155.823 95.082 155.988 95.006 156.153 94.934C156.918 94.535 157.707 94.183 158.515 93.88C158.676 93.817 159.765 93.384 160.153 93.237L160.278 93.179C160.432 93.092 160.596 93.022 160.765 92.969C160.986 92.878 161.083 92.871 161.283 92.801C161.637 92.678 161.947 92.467 162.305 92.353C162.635 92.248 162.982 92.242 163.313 92.145L164.189 91.862C164.327 91.813 164.47 91.764 164.609 91.724C165.078 91.555 165.56 91.425 166.051 91.336L168.975 90.881C169.18 90.845 169.917 90.756 170.122 90.729L170.228 90.717C170.595 90.671 170.947 90.529 171.315 90.493L165.332 71.716C164.498 69.101 164.882 66.25 166.38 63.949C167.878 61.648 170.33 60.144 173.059 59.85C175.564 59.566 177.948 58.623 179.97 57.118C183.58 54.413 185.592 50.077 185.327 45.573C185.116 41.312 182.939 37.39 179.435 34.957C175.931 32.524 171.496 31.854 167.43 33.144C164.932 34.436 162.83 36.382 161.35 38.773C155.29 48.569 142.984 52.472 132.385 47.96C129.794 46.504 126.722 46.165 123.876 47.022C119.813 48.324 116.584 51.437 115.135 55.449C113.685 59.461 114.178 63.919 116.47 67.517C118.86 71.348 123.015 73.718 127.527 73.828Z" fill="url(#paint3_linear_10025_65927)"/>
<path d="M400.939 398.207H402.75L401.095 398.189L400.939 398.207Z" fill="url(#paint4_linear_10025_65927)"/>
<path d="M366.183 178.779C356.384 179.199 346.646 180.542 337.098 182.788C331.491 183.918 326.196 184.984 321.669 185.489C321.051 185.562 320.427 185.568 319.807 185.507C314.481 185.016 308.124 183.958 301.387 182.837C289.587 180.555 277.626 179.198 265.615 178.779C243.637 178.789 221.786 182.12 200.804 188.659C201.175 189.014 201.586 189.317 201.95 189.681L227.807 215.543C256.299 244.119 256.265 290.371 227.731 318.904C199.197 347.437 152.945 347.472 124.37 318.98L98.5131 293.118C92.9871 287.568 88.3971 281.157 84.9251 274.136C59.6801 313.986 46.2501 360.176 46.1921 407.35C46.1921 412.399 42.0991 416.493 37.0491 416.493H32.4781C24.0041 416.443 15.8671 419.813 9.91112 425.841C4.08012 431.613 0.699116 439.412 0.474116 447.613C0.333116 455.952 3.59412 463.988 9.50512 469.872C16.0411 476.609 25.0111 480.436 34.3981 480.493H366.184C413.683 480.44 458.211 457.375 485.657 418.609C485.806 418.338 485.97 418.076 486.148 417.823C503.445 389.983 512.564 357.84 512.465 325.064C512.374 244.312 446.935 178.871 366.183 178.779ZM366.178 197.064C372.769 197.064 379.351 197.568 385.866 198.573C390.587 199.302 393.95 203.542 393.587 208.305C393.223 213.068 389.255 216.748 384.478 216.752C384.004 216.752 383.531 216.716 383.063 216.645C377.476 215.783 371.832 215.351 366.179 215.351C361.13 215.351 357.036 211.258 357.036 206.208C357.035 201.158 361.129 197.064 366.178 197.064ZM401.169 424.055C394.331 430.938 385.023 434.8 375.321 434.778H302.178C281.98 434.778 265.607 418.404 265.607 398.207C265.607 378.01 281.981 361.636 302.178 361.636H313.446L298.093 336.082C293.666 328.723 294.965 319.273 301.214 313.381L310.835 304.122C318.048 297.26 329.427 297.433 336.429 304.51L401.17 369.251C408.423 376.514 412.294 386.488 411.84 396.742C411.894 397.358 411.894 397.863 411.894 398.206C411.914 407.91 408.053 417.217 401.169 424.055ZM485.384 325.037C485.147 325.055 484.911 325.064 484.679 325.064C479.903 325.059 475.936 321.379 475.572 316.618C472.478 278.887 450.306 245.359 416.8 227.739C412.342 225.393 410.622 219.882 412.954 215.417C415.286 210.952 420.792 209.215 425.264 211.534C464.348 232.093 490.205 271.211 493.804 315.226C493.989 317.644 493.206 320.036 491.627 321.876C490.047 323.716 487.801 324.853 485.384 325.037Z" fill="url(#paint5_linear_10025_65927)"/>
<path d="M393.541 396.461C393.929 391.157 391.993 385.945 388.237 382.18L323.42 317.359L313.822 326.627L337.443 366.069C339.142 368.893 339.189 372.412 337.567 375.281C335.945 378.149 332.904 379.922 329.609 379.922H302.179C292.08 379.922 283.893 388.109 283.893 398.208C283.893 408.307 292.08 416.494 302.179 416.494H375.322C385.347 416.474 393.495 408.402 393.608 398.378C393.519 397.741 393.496 397.1 393.541 396.461Z" fill="url(#paint6_linear_10025_65927)"/>
</g>
<defs>
<linearGradient id="paint0_linear_10025_65927" x1="147.746" y1="155.783" x2="147.746" y2="322.042" gradientUnits="userSpaceOnUse">
<stop stop-color="#72707D"/>
<stop offset="1" stop-color="#101824"/>
</linearGradient>
<linearGradient id="paint1_linear_10025_65927" x1="186.004" y1="108.602" x2="186.004" y2="175.644" gradientUnits="userSpaceOnUse">
<stop stop-color="#72707D"/>
<stop offset="1" stop-color="#101824"/>
</linearGradient>
<linearGradient id="paint2_linear_10025_65927" x1="32.5005" y1="96.4961" x2="32.5005" y2="161.618" gradientUnits="userSpaceOnUse">
<stop stop-color="#72707D"/>
<stop offset="1" stop-color="#101824"/>
</linearGradient>
<linearGradient id="paint3_linear_10025_65927" x1="149.833" y1="32.5" x2="149.833" y2="96.046" gradientUnits="userSpaceOnUse">
<stop stop-color="#72707D"/>
<stop offset="1" stop-color="#101824"/>
</linearGradient>
<linearGradient id="paint4_linear_10025_65927" x1="401.845" y1="398.189" x2="401.845" y2="398.207" gradientUnits="userSpaceOnUse">
<stop stop-color="#72707D"/>
<stop offset="1" stop-color="#101824"/>
</linearGradient>
<linearGradient id="paint5_linear_10025_65927" x1="256.468" y1="178.779" x2="256.468" y2="480.493" gradientUnits="userSpaceOnUse">
<stop stop-color="#72707D"/>
<stop offset="1" stop-color="#101824"/>
</linearGradient>
<linearGradient id="paint6_linear_10025_65927" x1="338.75" y1="317.359" x2="338.75" y2="416.494" gradientUnits="userSpaceOnUse">
<stop stop-color="#72707D"/>
<stop offset="1" stop-color="#101824"/>
</linearGradient>
<clipPath id="clip0_10025_65927">
<rect width="511.997" height="511.997" fill="white" transform="translate(0.467773 0.498047)"/>
</clipPath>
</defs>
</svg>
