<svg width="513" height="513" viewBox="0 0 513 513" fill="none" xmlns="http://www.w3.org/2000/svg">
<g clip-path="url(#clip0_10025_65956)">
<path d="M222.17 60.4121C132.626 60.4121 60.0371 133.002 60.0371 222.545C60.0371 312.088 132.627 384.678 222.17 384.678C311.713 384.678 384.303 312.088 384.303 222.545C384.201 133.044 311.671 60.5141 222.17 60.4121ZM341.086 236.945C346.493 245.968 348.553 256.606 346.903 266.995C342.404 288.897 325.871 306.351 304.245 312.028C294.907 314.815 285.079 315.558 275.428 314.207C271.346 313.846 267.325 315.392 264.536 318.395C250.621 332.977 231.494 341.451 211.344 341.962C210.411 341.995 209.494 342.012 208.578 342.012C180.736 342.012 157.778 326.445 153.461 304.266C151.073 294.272 143.348 286.421 133.394 283.87C101.702 272.907 85.6361 259.47 85.6361 243.932C86.1621 228.881 93.9771 215.026 106.586 206.79C113.648 202.819 116.953 194.437 114.503 186.715C110.95 178.848 109.917 170.075 111.545 161.598C116.17 137.511 142.928 120.081 174.461 120.498C181.363 120.551 188.236 121.4 194.944 123.027C200.149 124.862 205.94 123.734 210.077 120.081C221.565 106.626 239.396 100.381 256.769 103.727C276.906 104.967 294.109 118.685 299.803 138.04C302.061 144.342 306.958 149.345 313.211 151.736C334.632 159.533 349.228 179.489 350.169 202.265C350.145 212.198 347.061 221.882 341.336 229.998C339.856 232.052 339.758 234.793 341.086 236.945Z" fill="url(#paint0_linear_10025_65956)"/>
<path d="M306.72 167.521C295.799 163.186 287.322 154.289 283.52 143.171C279.668 130.135 267.889 121.041 254.303 120.613C243.058 118.286 231.416 122.024 223.628 130.463C215.453 139.664 202.656 143.241 190.895 139.613C185.465 138.294 179.9 137.608 174.312 137.567L173.729 137.563C150.771 137.563 131.296 149.213 128.312 164.813C127.354 169.901 127.991 175.16 130.137 179.871C136.27 194.908 130.551 212.173 116.654 220.575C108.511 225.657 103.317 234.354 102.704 243.933C102.704 249.537 113.921 259.075 138.979 267.745C154.655 272.114 166.643 284.772 170.154 300.662C173.054 315.62 190.329 325.766 210.712 324.904C226.256 324.599 241.047 318.155 251.854 306.979C258.443 299.741 268.129 296.14 277.846 297.317H277.855C285.089 298.319 292.453 297.749 299.447 295.646C314.73 291.881 326.571 279.801 330.03 264.446C331.07 257.969 329.799 251.333 326.438 245.7C321.636 237.792 321.99 227.787 327.338 220.237C331.063 214.982 333.077 208.707 333.105 202.266C332.125 186.423 321.719 172.719 306.72 167.521ZM239.236 282.28C206.246 282.28 179.503 255.536 179.503 222.547C179.503 189.558 206.247 162.814 239.236 162.814C272.225 162.814 298.969 189.558 298.969 222.547C298.931 255.52 272.21 282.241 239.236 282.28Z" fill="url(#paint1_linear_10025_65956)"/>
<path d="M239.236 179.879C215.672 179.879 196.569 198.982 196.569 222.546C196.569 246.11 215.672 265.213 239.236 265.213C262.8 265.213 281.903 246.111 281.903 222.546C281.875 198.993 262.789 179.907 239.236 179.879ZM239.236 214.012C234.525 214.017 230.707 217.834 230.703 222.545C230.703 227.258 226.883 231.078 222.17 231.078C217.457 231.078 213.637 227.258 213.637 222.545C213.652 208.413 225.105 196.96 239.237 196.945C243.95 196.945 247.77 200.765 247.77 205.478C247.77 210.191 243.949 214.012 239.236 214.012Z" fill="url(#paint2_linear_10025_65956)"/>
<path d="M511.862 477.376C511.119 468.55 507.064 460.332 500.512 454.372L421.862 382.547C408.028 369.806 405.007 349.116 414.62 332.951C470.005 236.441 445.369 113.837 357.003 46.2116C268.637 -21.4134 143.854 -13.1544 65.1701 65.5247C-13.5139 144.204 -21.7779 268.987 45.8421 357.356C113.462 445.725 236.065 470.368 332.578 414.988C348.743 405.38 369.427 408.4 382.17 422.23L454.945 501.934C461.197 508.771 470.031 512.669 479.295 512.68H479.312C488.584 512.667 497.425 508.768 503.687 501.93C509.751 495.263 512.719 486.347 511.862 477.376ZM222.17 401.746C123.201 401.746 42.9701 321.515 42.9701 222.546C42.9701 123.577 123.201 43.3456 222.17 43.3456C321.139 43.3456 401.37 123.577 401.37 222.546C401.257 321.469 321.092 401.634 222.17 401.746Z" fill="url(#paint3_linear_10025_65956)"/>
</g>
<defs>
<linearGradient id="paint0_linear_10025_65956" x1="222.17" y1="60.4121" x2="222.17" y2="384.678" gradientUnits="userSpaceOnUse">
<stop stop-color="#72707D"/>
<stop offset="1" stop-color="#101824"/>
</linearGradient>
<linearGradient id="paint1_linear_10025_65956" x1="217.905" y1="119.934" x2="217.905" y2="324.955" gradientUnits="userSpaceOnUse">
<stop stop-color="#72707D"/>
<stop offset="1" stop-color="#101824"/>
</linearGradient>
<linearGradient id="paint2_linear_10025_65956" x1="239.236" y1="179.879" x2="239.236" y2="265.213" gradientUnits="userSpaceOnUse">
<stop stop-color="#72707D"/>
<stop offset="1" stop-color="#101824"/>
</linearGradient>
<linearGradient id="paint3_linear_10025_65956" x1="256.081" y1="0.517578" x2="256.081" y2="512.68" gradientUnits="userSpaceOnUse">
<stop stop-color="#72707D"/>
<stop offset="1" stop-color="#101824"/>
</linearGradient>
<clipPath id="clip0_10025_65956">
<rect width="512.162" height="512.162" fill="white" transform="translate(0 0.517578)"/>
</clipPath>
</defs>
</svg>
