<svg width="513" height="513" viewBox="0 0 513 513" fill="none" xmlns="http://www.w3.org/2000/svg">
<g clip-path="url(#clip0_10025_65964)">
<path d="M267.464 121.487C269.654 123.757 272.888 124.686 275.949 123.925C279.01 123.164 281.432 120.827 282.303 117.796C283.174 114.765 282.361 111.499 280.172 109.229C271.689 100.295 271.689 86.2826 280.172 77.3496C295.181 61.5466 295.181 36.7566 280.172 20.9526C276.787 17.4436 271.198 17.3436 267.689 20.7286C264.18 24.1136 264.08 29.7026 267.465 33.2116C275.948 42.1456 275.948 56.1576 267.465 65.0906C252.464 80.8966 252.464 105.68 267.464 121.487Z" fill="url(#paint0_linear_10025_65964)"/>
<path d="M338.085 103.832C341.47 107.341 347.059 107.441 350.568 104.056C354.077 100.671 354.177 95.0818 350.792 91.5728C342.309 82.6388 342.309 68.6268 350.792 59.6938C365.801 43.8908 365.801 19.1008 350.792 3.29679C348.602 1.02679 345.368 0.0977916 342.307 0.858792C339.246 1.61979 336.824 3.95679 335.954 6.98779C335.083 10.0188 335.896 13.2848 338.085 15.5548C346.568 24.4888 346.568 38.5008 338.085 47.4338C323.085 63.2408 323.085 88.0248 338.085 103.832Z" fill="url(#paint1_linear_10025_65964)"/>
<path d="M408.705 121.487C410.895 123.757 414.129 124.686 417.19 123.925C420.251 123.164 422.673 120.827 423.544 117.796C424.415 114.765 423.602 111.499 421.413 109.229C412.93 100.295 412.93 86.2826 421.413 77.3496C436.422 61.5466 436.422 36.7566 421.413 20.9526C418.028 17.4436 412.439 17.3436 408.93 20.7286C405.421 24.1136 405.321 29.7026 408.706 33.2116C417.189 42.1456 417.189 56.1576 408.706 65.0906C393.706 80.8966 393.705 105.68 408.705 121.487Z" fill="url(#paint2_linear_10025_65964)"/>
<path d="M129.895 58.1622C132.324 58.1712 134.718 57.5852 136.869 56.4552C139.183 55.1672 141.952 54.9852 144.414 55.9602C146.876 56.9352 148.771 58.9632 149.576 61.4852L155.352 79.6142C155.56 79.4942 155.803 79.4392 156.014 79.3242C156.352 79.1382 156.685 78.9502 157.042 78.7702C157.197 78.6922 157.361 78.6192 157.525 78.5502C158.264 78.1592 159.027 77.8172 159.809 77.5242L159.87 77.6312C160.199 77.4912 160.518 77.3322 160.851 77.2002L160.818 77.1222C161.178 76.9692 161.535 76.8822 161.884 76.7462C162.431 76.5472 162.916 76.2252 163.473 76.0492C163.801 75.9442 164.146 75.9382 164.476 75.8422L165.852 75.3862C166.257 75.2492 166.672 75.1432 167.093 75.0672L169.921 74.6272C170.119 74.5932 170.869 74.4982 171.068 74.4762L171.111 74.4712C171.469 74.4262 171.813 74.2872 172.172 74.2522L166.387 56.1222C165.583 53.5972 165.956 50.8442 167.403 48.6232C168.85 46.4032 171.217 44.9492 173.852 44.6652C176.268 44.3962 178.569 43.4872 180.516 42.0312C184.009 39.4212 185.958 35.2332 185.706 30.8802C185.488 26.7152 183.335 22.8912 179.887 20.5442C176.527 18.2492 172.295 17.6352 168.421 18.8802C166.008 20.1272 163.979 22.0052 162.551 24.3152C156.696 33.7682 144.819 37.5362 134.585 33.1862C132.088 31.7662 129.115 31.4402 126.369 32.2852C122.49 33.5092 119.394 36.4572 117.981 40.2722C116.526 44.1832 116.982 48.5482 119.214 52.0742C121.527 55.7692 125.539 58.0552 129.895 58.1622Z" fill="url(#paint3_linear_10025_65964)"/>
<path d="M197.655 169.448C199.641 171.034 201.54 172.726 203.344 174.518L228.31 199.492C255.839 227.079 255.815 271.752 228.257 299.31C200.699 326.868 156.026 326.892 128.439 299.363L103.474 274.398C98.6431 269.521 94.5581 263.958 91.3501 257.889C73.4661 289.737 65.1761 326.079 67.4801 362.532H458.025C481.995 323.03 482.79 273.669 460.105 233.416C437.42 193.163 394.783 168.278 348.577 168.325C343.423 168.337 338.274 168.642 333.155 169.239C326.749 170.024 320.25 169.502 314.052 167.705C276.011 156.194 235.333 156.803 197.655 169.448ZM389.378 202.953C390.499 200.899 392.391 199.374 394.637 198.716C396.883 198.057 399.298 198.318 401.352 199.441C436.815 218.778 458.893 255.932 458.921 296.325C458.921 301.2 454.969 305.153 450.093 305.153C445.218 305.153 441.265 301.201 441.265 296.325C441.238 262.388 422.684 231.174 392.886 214.933C390.831 213.811 389.307 211.918 388.649 209.671C387.991 207.424 388.254 205.007 389.378 202.953ZM348.576 185.979C353.384 185.98 358.187 186.291 362.955 186.91C367.567 187.512 370.921 191.588 370.623 196.23C370.325 200.871 366.477 204.486 361.826 204.492C361.443 204.493 361.06 204.469 360.679 204.419C356.666 203.897 352.623 203.635 348.575 203.635C343.7 203.635 339.747 199.683 339.747 194.807C339.749 189.931 343.701 185.979 348.576 185.979Z" fill="url(#paint4_linear_10025_65964)"/>
<path d="M78.4991 187.009L97.2231 205.733C97.6761 206.043 98.1111 206.38 98.5251 206.742C100.851 208.786 101.94 211.895 101.396 214.944C98.2671 232.04 103.706 249.586 115.956 261.915L140.922 286.881C161.618 307.496 195.098 307.464 215.754 286.808C236.41 266.152 236.443 232.672 215.827 211.976L190.861 187.006C178.543 174.742 160.99 169.303 143.896 172.454C140.846 173.009 137.729 171.917 135.689 169.582C135.336 169.185 135.017 168.768 134.698 168.35L115.957 149.553C109.184 142.638 99.1081 140.098 89.8661 142.976C88.2351 143.458 86.6521 144.089 85.1361 144.862C84.4551 145.212 83.7571 145.516 83.1021 145.929C82.3551 146.431 81.6371 146.974 80.9491 147.554C80.0931 148.17 79.2751 148.837 78.4991 149.552C77.7801 150.33 77.1091 151.151 76.4911 152.011C75.9111 152.698 75.3691 153.417 74.8681 154.164C74.4631 154.805 74.1661 155.489 73.8221 156.156C73.0361 157.695 72.3941 159.304 71.9051 160.962C69.1891 170.197 71.7161 180.179 78.4991 187.009Z" fill="url(#paint5_linear_10025_65964)"/>
<path d="M182.55 92.4136C180.306 91.9106 178.009 91.6866 175.71 91.7456L175.454 91.7396C174.949 91.7576 174.478 91.9446 173.978 91.9926L167.912 93.3136C166.2 93.9126 164.56 94.7006 163.021 95.6606L162.904 95.7286C162.767 95.8356 162.602 95.9356 162.451 96.0396C160.6 97.2916 158.906 98.7616 157.405 100.418C157.334 100.496 157.271 100.58 157.197 100.655C150.947 107.603 148.838 117.339 151.654 126.25L159.697 151.521C159.974 152.033 160.216 152.563 160.421 153.107C160.55 153.512 160.649 153.926 160.717 154.345C166.474 154.934 172.136 156.228 177.578 158.197C191.67 152.251 206.379 147.889 221.434 145.189C219.8 144.497 218.158 143.822 216.464 143.296C213.533 142.39 211.284 140.027 210.524 137.055C210.377 136.495 210.274 135.934 210.162 135.374L202.188 110.176C199.275 101.246 191.881 94.5056 182.721 92.4286L182.55 92.4136Z" fill="url(#paint6_linear_10025_65964)"/>
<path d="M44.3003 486.115C44.3163 500.734 56.1633 512.582 70.7833 512.598H441.542C456.161 512.582 468.009 500.735 468.025 486.115V415.494H44.3003V486.115ZM150.231 441.977H189.955C202.138 441.99 212.011 451.863 212.024 464.046C212.027 466.482 214.001 468.457 216.438 468.46H295.886C298.322 468.457 300.297 466.483 300.3 464.046C300.313 451.863 310.186 441.99 322.369 441.977H362.093C366.968 441.977 370.921 445.929 370.921 450.805C370.921 455.68 366.969 459.633 362.093 459.633H322.369C319.933 459.636 317.958 461.61 317.955 464.047C317.942 476.23 308.069 486.103 295.886 486.116H216.438C204.255 486.103 194.382 476.23 194.369 464.047C194.366 461.611 192.392 459.636 189.955 459.633H150.231C145.356 459.633 141.403 455.681 141.403 450.805C141.404 445.929 145.356 441.977 150.231 441.977Z" fill="url(#paint7_linear_10025_65964)"/>
<path d="M494.507 380.186H17.8182C12.9432 380.186 8.99023 384.138 8.99023 389.014C8.99023 393.889 12.9422 397.842 17.8182 397.842H494.508C499.383 397.842 503.336 393.89 503.336 389.014C503.335 384.138 499.383 380.186 494.507 380.186Z" fill="url(#paint8_linear_10025_65964)"/>
<path d="M15.602 135.995C19.353 138.222 23.972 138.415 27.895 136.508V136.504C30.076 135.447 31.933 133.824 33.274 131.806C34.737 129.592 37.117 128.152 39.757 127.884C42.394 127.623 45.01 128.556 46.886 130.427L60.343 143.884C63.586 138.892 67.841 134.638 72.834 131.397L59.377 117.94C57.503 116.068 56.57 113.453 56.834 110.817C57.098 108.181 58.532 105.804 60.739 104.34C62.76 102.989 64.387 101.127 65.455 98.9433C67.358 95.0173 67.164 90.3983 64.938 86.6463C62.867 83.0883 59.262 80.6923 55.18 80.1603C51.098 79.6283 46.999 81.0193 44.085 83.9263C42.515 86.1453 41.574 88.7463 41.361 91.4563C40.504 102.545 31.676 111.345 20.585 112.167C17.719 112.062 14.935 113.133 12.879 115.133C9.99501 118.001 8.59801 122.04 9.09401 126.077C9.59001 130.22 11.999 133.891 15.602 135.995Z" fill="url(#paint9_linear_10025_65964)"/>
</g>
<defs>
<linearGradient id="paint0_linear_10025_65964" x1="273.822" y1="18.2539" x2="273.822" y2="124.186" gradientUnits="userSpaceOnUse">
<stop stop-color="#72707D"/>
<stop offset="1" stop-color="#101824"/>
</linearGradient>
<linearGradient id="paint1_linear_10025_65964" x1="344.442" y1="0.597656" x2="344.442" y2="106.53" gradientUnits="userSpaceOnUse">
<stop stop-color="#72707D"/>
<stop offset="1" stop-color="#101824"/>
</linearGradient>
<linearGradient id="paint2_linear_10025_65964" x1="415.063" y1="18.2539" x2="415.063" y2="124.186" gradientUnits="userSpaceOnUse">
<stop stop-color="#72707D"/>
<stop offset="1" stop-color="#101824"/>
</linearGradient>
<linearGradient id="paint3_linear_10025_65964" x1="151.435" y1="18.248" x2="151.435" y2="79.6142" gradientUnits="userSpaceOnUse">
<stop stop-color="#72707D"/>
<stop offset="1" stop-color="#101824"/>
</linearGradient>
<linearGradient id="paint4_linear_10025_65964" x1="271.84" y1="159.496" x2="271.84" y2="362.532" gradientUnits="userSpaceOnUse">
<stop stop-color="#72707D"/>
<stop offset="1" stop-color="#101824"/>
</linearGradient>
<linearGradient id="paint5_linear_10025_65964" x1="151.05" y1="141.809" x2="151.05" y2="302.321" gradientUnits="userSpaceOnUse">
<stop stop-color="#72707D"/>
<stop offset="1" stop-color="#101824"/>
</linearGradient>
<linearGradient id="paint6_linear_10025_65964" x1="185.931" y1="91.7363" x2="185.931" y2="158.197" gradientUnits="userSpaceOnUse">
<stop stop-color="#72707D"/>
<stop offset="1" stop-color="#101824"/>
</linearGradient>
<linearGradient id="paint7_linear_10025_65964" x1="256.163" y1="415.494" x2="256.163" y2="512.598" gradientUnits="userSpaceOnUse">
<stop stop-color="#72707D"/>
<stop offset="1" stop-color="#101824"/>
</linearGradient>
<linearGradient id="paint8_linear_10025_65964" x1="256.163" y1="380.186" x2="256.163" y2="397.842" gradientUnits="userSpaceOnUse">
<stop stop-color="#72707D"/>
<stop offset="1" stop-color="#101824"/>
</linearGradient>
<linearGradient id="paint9_linear_10025_65964" x1="40.9148" y1="80.0488" x2="40.9148" y2="143.884" gradientUnits="userSpaceOnUse">
<stop stop-color="#72707D"/>
<stop offset="1" stop-color="#101824"/>
</linearGradient>
<clipPath id="clip0_10025_65964">
<rect width="512.001" height="512.001" fill="white" transform="translate(0.162109 0.597656)"/>
</clipPath>
</defs>
</svg>
