<svg width="513" height="513" viewBox="0 0 513 513" fill="none" xmlns="http://www.w3.org/2000/svg">
<g clip-path="url(#clip0_10025_65978)">
<path d="M232.226 94.4687H480.973C495.069 94.4477 506.505 83.0507 506.573 68.9537C506.587 68.1847 506.559 67.4157 506.488 66.6497C505.022 53.1987 493.564 43.0717 480.035 43.2687L232.227 43.6957C228.714 33.2507 218.927 26.2117 207.907 26.2027H136.756L130.732 6.62773C129.347 2.12173 124.571 -0.407272 120.065 0.977728C115.559 2.36273 113.03 7.13873 114.415 11.6447L118.896 26.2027H102.622L96.5969 6.62673C95.2119 2.12073 90.4359 -0.408272 85.9299 0.976728C81.4239 2.36173 78.8949 7.13773 80.2799 11.6437L84.7599 26.2017H71.3719C66.6589 26.2017 62.8389 30.0227 62.8389 34.7347C62.8389 39.4467 66.6589 43.2677 71.3719 43.2677H90.0109L95.2629 60.3357H71.3719C66.6589 60.3357 62.8389 64.1557 62.8389 68.8687C62.8389 73.5817 66.6589 77.4017 71.3719 77.4017H100.513L105.764 94.4687H71.3719C66.6589 94.4687 62.8389 98.2887 62.8389 103.002C62.8389 107.715 66.6589 111.535 71.3719 111.535H111.016L114.413 122.577C115.309 125.492 117.692 127.707 120.664 128.388C123.636 129.069 126.746 128.113 128.822 125.88C130.898 123.647 131.625 120.475 130.729 117.56L128.875 111.535H145.32C149.07 123.388 154.093 134.799 160.304 145.568C167.579 157.93 187.346 187.631 213.737 196.43C222.287 199.059 229.024 205.682 231.798 214.187C229.522 214.021 227.246 213.937 224.97 213.934C190.443 213.159 157.051 226.288 132.298 250.371H132.213C71.8819 262.147 46.7089 315.139 39.7969 333.4H31.3489C22.3729 333.388 14.0489 338.085 9.41794 345.774C4.78694 353.463 4.52794 363.018 8.73594 370.946L54.4749 457.901C72.1499 491.578 107.066 512.652 145.099 512.6H356.043C394.076 512.652 428.992 491.578 446.667 457.901L492.406 370.946C496.607 363.031 496.356 353.494 491.746 345.81C487.136 338.126 478.839 333.417 469.878 333.399C460.747 310.871 423.542 230.999 350.838 230.999C333.868 230.803 317.08 234.511 301.771 241.836C286.688 229.598 268.996 220.985 250.059 216.663L250.004 216.653C247.433 199.652 235.487 185.558 219.137 180.236C197.629 173.069 179.929 145.265 175.02 136.915C170.408 128.823 166.546 120.327 163.481 111.532H207.903C218.796 111.533 228.519 104.71 232.226 94.4687ZM96.3749 333.402C108.919 311.912 132.082 298.862 156.962 299.269C182.958 299.527 207.259 312.217 222.327 333.402H96.3749ZM243.148 333.402C225.519 302.271 192.732 282.794 156.961 282.202C122.512 282.117 91.1749 302.12 76.7479 333.402H57.9749C66.1669 314.287 88.3539 275.802 136.311 266.927C136.974 266.932 137.634 266.845 138.274 266.671C144.448 265.623 150.7 265.109 156.962 265.135C169.405 265.071 181.774 267.061 193.57 271.023C223.673 282.356 248.388 304.634 262.775 333.402H243.148ZM281.804 333.402C268.657 305.323 247.639 281.666 221.303 265.306C222.521 265.162 223.747 265.105 224.972 265.135C266.956 265.135 296.055 306.436 310.561 333.402H281.804ZM367.393 333.402C360.03 315.683 350.79 298.805 339.83 283.055C343.469 282.461 347.151 282.175 350.838 282.202C379.51 282.202 401.185 312.154 412.961 333.402H367.393ZM350.839 248.069C406.732 248.069 439.671 307.802 451.191 333.402H432.247C418.508 305.839 391.372 265.135 350.839 265.135C343.282 265.052 335.752 266.057 328.482 268.122C324.557 263.429 320.29 258.735 315.767 254.298C326.964 250.043 338.861 247.93 350.839 248.069ZM294.348 258.309C317.544 279.222 336.042 304.816 348.62 333.402H329.761C315.425 304.218 280.438 248.069 224.972 248.069C213.927 247.996 202.934 249.607 192.375 252.848H192.29C182.479 250.07 172.36 248.522 162.167 248.24C180.973 236.493 202.804 230.501 224.972 231.003C250.64 231.408 275.29 241.11 294.348 258.309ZM113.123 60.3357L107.872 43.2687H124.147L129.399 60.3357H113.123ZM123.625 94.4687L118.374 77.4017H134.651L139.903 94.4687H123.625ZM165.239 94.4687H157.762L152.51 77.4017H165.239C167.543 77.3807 169.747 78.3427 171.298 80.0467C172.913 81.5747 173.811 83.7117 173.773 85.9347C173.758 90.6427 169.946 94.4547 165.239 94.4687ZM165.239 60.3357H147.258L142.006 43.2687H165.238C167.542 43.2477 169.746 44.2097 171.297 45.9137C172.912 47.4417 173.81 49.5787 173.772 51.8017C173.758 56.5087 169.946 60.3217 165.239 60.3357Z" fill="url(#paint0_linear_10025_65978)"/>
</g>
<defs>
<linearGradient id="paint0_linear_10025_65978" x1="256.165" y1="0.597656" x2="256.165" y2="512.6" gradientUnits="userSpaceOnUse">
<stop stop-color="#72707D"/>
<stop offset="1" stop-color="#101824"/>
</linearGradient>
<clipPath id="clip0_10025_65978">
<rect width="512.004" height="512.004" fill="white" transform="translate(0.163086 0.597656)"/>
</clipPath>
</defs>
</svg>
