<svg width="513" height="513" viewBox="0 0 513 513" fill="none" xmlns="http://www.w3.org/2000/svg">
<g clip-path="url(#clip0_10025_66020)">
<path d="M132.599 136.786L150.822 142.353C170.601 148.326 191.704 148.326 211.483 142.353C233.152 135.747 256.229 135.288 278.144 141.027L284.903 142.795C306.55 148.444 329.441 146.976 350.189 138.608L368.689 131.077C374.005 129.336 378.179 125.174 379.935 119.863C381.47 111.962 379.386 103.789 374.256 97.5859C350.444 64.0729 300.158 28.0059 246.028 28.0059C190.564 28.0059 149.117 47.3139 149.117 64.5769C149.117 81.8399 190.563 101.148 246.028 101.148C246.933 101.19 247.827 101.371 248.678 101.683C249.529 101.371 250.422 101.19 251.328 101.148C273.408 101.148 289.908 91.4959 289.908 82.8619C289.908 74.2279 273.408 64.5759 251.328 64.5759C240.118 64.2299 229.053 67.1839 219.506 73.0719C215.391 75.9879 209.692 75.0199 206.771 70.9079C203.85 66.7969 204.81 61.0969 208.917 58.1699C221.542 50.0439 236.319 45.9049 251.328 46.2909C283.216 46.2909 308.194 62.3539 308.194 82.8619C308.194 103.37 283.216 119.433 251.328 119.433C250.423 119.391 249.529 119.21 248.678 118.898C247.827 119.21 246.934 119.391 246.028 119.433C196.782 119.433 156.617 106.17 139.604 86.3479L122.314 105.361C117.954 109.937 116.3 116.457 117.952 122.557C120.065 129.503 125.596 134.876 132.599 136.786Z" fill="url(#paint0_linear_10025_66020)"/>
<path d="M57.027 185.496C63.78 190.169 71.811 192.642 80.023 192.576H96.92C112.341 192.566 127.635 195.369 142.05 200.848L176.871 214.21C201.1 223.289 227.75 223.558 252.157 214.969L304.34 196.224C328.362 187.662 354.398 186.494 379.09 192.871L406.228 199.911C428.156 205.977 451.631 199.15 466.884 182.268C467.04 182.076 467.742 181.344 467.915 181.165C473.388 174.466 475.927 165.843 474.957 157.247C473.987 148.651 469.591 140.81 462.763 135.5C449.602 124.384 433.617 117.135 416.584 114.558L398.699 111.67C399.118 116.141 398.708 120.651 397.49 124.973C394.165 135.641 386.067 144.156 375.579 148.013L357.083 155.544C332.672 165.388 305.741 167.119 280.27 160.481L273.511 158.713C254.876 153.825 235.249 154.216 216.823 159.843C193.56 166.861 168.743 166.861 145.479 159.843L127.256 154.276C114.248 150.552 104.071 140.4 100.314 127.401C98.914 122.301 98.658 116.955 99.565 111.745L66.073 116.477C56.703 117.517 48.311 122.751 43.256 130.709C32.446 149.713 38.514 173.863 57.027 185.496Z" fill="url(#paint1_linear_10025_66020)"/>
<path d="M18.6029 251.169C31.2889 264.79 50.6059 270.033 68.4379 264.696C68.6789 264.629 68.9199 264.571 69.1659 264.522C88.4059 259.1 109.057 262.405 125.644 273.562L134.269 279.325C146.589 287.473 161.86 289.814 176.055 285.731C176.305 285.66 176.559 285.597 176.814 285.548C196.891 279.837 218.48 283.731 235.296 296.097C248.488 305.595 256.406 320.776 256.645 337.03V357.146C256.771 362.004 259.037 366.558 262.837 369.588C267.536 373.431 273.437 375.5 279.507 375.432C290.823 376.537 300.961 368.429 302.369 357.146V311.432C303.911 295.866 317.004 284.006 332.646 284.006C348.288 284.006 361.381 295.867 362.923 311.432V329.718C362.984 332.032 364.079 334.198 365.906 335.62C368.413 337.763 371.617 338.916 374.915 338.861C380.699 339.457 385.949 335.453 386.906 329.718V286.561C387.323 276.488 395.799 268.644 405.875 269.007C407.725 268.991 409.569 269.233 411.353 269.726C437.481 277.413 465.715 269.89 484.554 250.222C491.475 242.497 494.974 232.3 494.255 221.954C493.209 211.445 488.077 201.767 479.964 195.005C460.125 216.553 429.943 225.27 401.67 217.615L374.496 210.566C353.368 205.107 331.088 206.104 310.532 213.428L258.345 232.174C244.64 237.051 230.196 239.528 215.649 239.495C200.177 239.524 184.829 236.743 170.35 231.29L135.537 217.933C123.203 213.249 110.119 210.853 96.9249 210.862H80.0229C68.0099 210.919 56.2739 207.261 46.4199 200.389C41.2459 196.708 36.6219 192.31 32.6849 187.328C31.6439 189.588 29.7219 191.323 27.3669 192.125L23.2239 195.679C15.0759 202.054 9.88793 211.482 8.86393 221.777C7.83993 232.072 11.0699 242.337 17.8039 250.192L18.6029 251.169Z" fill="url(#paint2_linear_10025_66020)"/>
<path d="M510.26 309.7L500.457 259.545C499.771 260.431 499.118 261.334 498.376 262.191C474.832 287.165 439.293 296.863 406.327 287.312C405.944 287.307 405.562 287.346 405.189 287.428V329.718C404.348 345.627 390.827 357.876 374.912 357.147C367.214 357.235 359.751 354.494 353.938 349.446C348.089 344.556 344.686 337.342 344.634 329.718V311.432C343.152 306.032 338.243 302.289 332.643 302.289C327.043 302.289 322.134 306.032 320.652 311.432V357.146C319.292 378.56 300.931 394.88 279.505 393.717C269.066 393.817 258.934 390.183 250.938 383.471C243.05 376.994 238.442 367.351 238.357 357.145V337.029C238.16 326.505 232.929 316.713 224.291 310.699C211.87 301.645 195.934 298.911 181.206 303.306C180.961 303.377 180.71 303.435 180.46 303.485C161.22 308.906 140.569 305.6 123.982 294.445L115.357 288.682C103.04 280.527 87.7658 278.185 73.5708 282.276C73.3148 282.352 73.0558 282.414 72.7938 282.464C50.3988 288.789 26.3248 283.129 9.09383 267.487L2.01683 315.777C-3.37217 354.688 8.67982 393.994 34.9548 423.196C71.6908 463.754 124.229 486.359 178.937 485.147H334.366C390.247 486.185 443.745 462.536 480.589 420.509C506.802 389.998 517.719 349.226 510.26 309.7Z" fill="url(#paint3_linear_10025_66020)"/>
</g>
<defs>
<linearGradient id="paint0_linear_10025_66020" x1="248.876" y1="28.0059" x2="248.876" y2="146.833" gradientUnits="userSpaceOnUse">
<stop stop-color="#72707D"/>
<stop offset="1" stop-color="#101824"/>
</linearGradient>
<linearGradient id="paint1_linear_10025_66020" x1="256.534" y1="111.67" x2="256.534" y2="221.221" gradientUnits="userSpaceOnUse">
<stop stop-color="#72707D"/>
<stop offset="1" stop-color="#101824"/>
</linearGradient>
<linearGradient id="paint2_linear_10025_66020" x1="251.513" y1="187.328" x2="251.513" y2="375.533" gradientUnits="userSpaceOnUse">
<stop stop-color="#72707D"/>
<stop offset="1" stop-color="#101824"/>
</linearGradient>
<linearGradient id="paint3_linear_10025_66020" x1="256.656" y1="259.545" x2="256.656" y2="485.193" gradientUnits="userSpaceOnUse">
<stop stop-color="#72707D"/>
<stop offset="1" stop-color="#101824"/>
</linearGradient>
<clipPath id="clip0_10025_66020">
<rect width="511.799" height="511.799" fill="white" transform="translate(0.757812 0.699219)"/>
</clipPath>
</defs>
</svg>
