<svg width="513" height="513" viewBox="0 0 513 513" fill="none" xmlns="http://www.w3.org/2000/svg">
<g clip-path="url(#clip0_10025_66028)">
<path d="M475.01 137.131H38.1036C17.3916 137.192 0.617641 153.967 0.556641 174.678V475.051C0.617641 495.763 17.3926 512.537 38.1036 512.598H475.011C495.722 512.537 512.497 495.763 512.558 475.051V174.678C512.497 153.967 495.722 137.192 475.01 137.131ZM85.8896 393.131C85.8896 407.269 74.4286 418.731 60.2896 418.731C46.1506 418.731 34.6896 407.269 34.6896 393.131V256.598C34.6896 242.459 46.1506 230.998 60.2896 230.998C74.4286 230.998 85.8896 242.459 85.8896 256.598V393.131ZM461.613 338.774L477.058 369.579C477.229 369.92 477.399 370.262 477.57 370.688C478.144 372.422 478.432 374.238 478.423 376.064C478.446 381.258 476.093 386.177 472.036 389.419C467.979 392.661 462.662 393.871 457.601 392.704C457.345 392.619 457.004 392.533 456.748 392.448L409.985 376.576C401.684 375.02 393.137 377.489 386.945 383.232C386.359 383.817 385.732 384.359 385.068 384.853L395.649 394.496C399.943 398.674 402.109 404.575 401.537 410.539C401.344 416.208 398.54 421.469 393.942 424.79C375.626 438.043 351.277 439.442 331.563 428.374L314.923 419.158C310.486 420.353 306.048 421.377 301.44 422.315L307.243 446.806C308.639 452.501 307.315 458.521 303.659 463.105C300.299 467.42 295.133 469.939 289.664 469.932C263.987 469.742 239.519 459.004 221.995 440.236L200.491 417.452C167.759 404.135 138.128 384.207 113.451 358.913C99.4556 344.782 99.4556 322.015 113.451 307.884C133.59 287.745 170.283 256.94 214.571 244.823C226.875 215.629 253.047 194.589 284.203 188.844C291.681 187.345 299.434 189.323 305.28 194.22C312.334 200.177 316.369 208.966 316.288 218.199V247.98C342.267 254.241 366.447 266.419 386.944 283.564C393.136 289.307 401.683 291.776 409.984 290.22L456.747 274.348C457.003 274.263 457.344 274.177 457.6 274.092C463.625 272.769 469.899 274.752 474.069 279.297C478.173 283.864 479.509 290.283 477.568 296.108L461.611 334.423C461.225 335.847 461.225 337.349 461.613 338.774Z" fill="url(#paint0_linear_10025_66028)"/>
<path d="M60.2898 248.064C55.5768 248.064 51.7568 251.884 51.7568 256.597V393.13C51.7708 397.837 55.5828 401.649 60.2898 401.663C64.9968 401.649 68.8088 397.837 68.8228 393.13V256.597C68.8238 251.884 65.0028 248.064 60.2898 248.064Z" fill="url(#paint1_linear_10025_66028)"/>
<path d="M284.546 425.045C273.6 426.517 262.567 427.258 251.522 427.264C244.862 427.24 238.215 426.698 231.639 425.643L234.37 428.544C248.581 443.99 268.592 452.805 289.581 452.864C290.434 452.267 290.861 451.669 290.605 450.731L284.546 425.045Z" fill="url(#paint2_linear_10025_66028)"/>
<path d="M371.16 395.178C360.565 402.006 349.264 407.671 337.453 412.074L339.757 413.354C353.803 421.392 371.268 420.388 384.301 410.794C384.756 409.571 384.694 408.216 384.13 407.039L371.16 395.178Z" fill="url(#paint3_linear_10025_66028)"/>
<path d="M414.168 306.774C400.372 309.664 386.027 305.76 375.597 296.278C348.717 272.129 299.992 256.598 251.522 256.598C228.037 257.167 205.056 263.527 184.621 275.115C212.269 309.052 212.269 357.744 184.621 391.68C205.056 403.268 228.037 409.629 251.522 410.197C299.991 410.197 348.717 394.666 375.597 370.517C386.021 361.024 400.371 357.119 414.168 360.021C414.47 360.026 414.766 360.115 415.021 360.277L461.186 375.978L446.082 345.77C445.911 345.429 445.741 345.002 445.57 344.661C443.863 339.391 443.863 333.717 445.57 328.448L461.527 290.133L415.02 306.517C414.766 306.68 414.47 306.769 414.168 306.774ZM237.528 372.993C235.911 374.953 233.498 376.081 230.957 376.065C228.966 376.051 227.04 375.359 225.496 374.102C221.907 371.065 221.413 365.712 224.387 362.07C233.091 351.659 233.091 315.137 224.387 304.726C221.408 301.094 221.919 295.739 225.531 292.736C229.143 289.733 234.502 290.21 237.528 293.803C251.352 310.443 251.352 356.353 237.528 372.993ZM271.661 372.993C270.044 374.953 267.631 376.081 265.09 376.065C263.099 376.051 261.173 375.359 259.629 374.102C256.04 371.065 255.546 365.712 258.52 362.07C267.224 351.659 267.224 315.137 258.52 304.726C255.541 301.094 256.052 295.739 259.664 292.736C263.276 289.733 268.635 290.21 271.661 293.803C285.485 310.443 285.485 356.353 271.661 372.993ZM305.794 372.993C304.177 374.953 301.764 376.081 299.223 376.065C297.232 376.051 295.306 375.359 293.762 374.102C290.173 371.065 289.679 365.712 292.653 362.07C301.357 351.659 301.357 315.137 292.653 304.726C290.678 302.381 290.111 299.158 291.167 296.28C292.223 293.402 294.74 291.31 297.762 290.798C300.785 290.286 303.85 291.433 305.794 293.803C319.618 310.443 319.618 356.353 305.794 372.993Z" fill="url(#paint4_linear_10025_66028)"/>
<path d="M169.688 283.99C153.755 294.441 138.942 306.509 125.485 320.001C118.203 327.448 118.203 339.348 125.485 346.796C138.919 360.312 153.735 372.382 169.688 382.807C194.491 354.537 194.491 312.259 169.688 283.99ZM162.52 326.571C162.427 327.106 162.255 327.624 162.008 328.107C161.822 328.651 161.563 329.167 161.24 329.643C160.652 330.572 159.865 331.359 158.936 331.947C158.46 332.27 157.944 332.529 157.4 332.715C156.892 332.974 156.344 333.147 155.779 333.227C155.244 333.326 154.702 333.383 154.158 333.398C153.586 333.384 153.015 333.326 152.451 333.227C151.916 333.134 151.399 332.962 150.915 332.715C150.371 332.529 149.855 332.27 149.379 331.947C148.932 331.632 148.504 331.29 148.099 330.923C146.527 329.296 145.641 327.127 145.624 324.864C145.657 322.605 146.541 320.441 148.099 318.805C148.505 318.438 148.932 318.096 149.379 317.781C149.855 317.458 150.371 317.2 150.915 317.013C151.399 316.767 151.916 316.594 152.451 316.501C153.546 316.245 154.684 316.245 155.779 316.501C156.344 316.581 156.892 316.754 157.4 317.013C157.944 317.2 158.46 317.458 158.936 317.781C159.383 318.096 159.81 318.438 160.216 318.805C161.774 320.441 162.658 322.605 162.691 324.864C162.672 325.437 162.615 326.007 162.52 326.571Z" fill="url(#paint5_linear_10025_66028)"/>
<path d="M299.224 244.053V218.197C299.299 214.101 297.585 210.175 294.531 207.445C292.593 205.811 290.029 205.124 287.534 205.568C266.184 209.538 247.449 222.214 235.822 240.555C241.032 239.914 246.274 239.572 251.523 239.531C267.529 239.557 283.498 241.071 299.224 244.053Z" fill="url(#paint6_linear_10025_66028)"/>
<path d="M495.49 0.597656H14.8079C9.97989 0.663656 5.58189 3.38766 3.37289 7.68066C-0.382109 14.6907 -0.382109 23.1137 3.37289 30.1237C37.1649 88.1507 82.5619 120.065 131.288 120.065H273.624C282.677 120.067 291.361 116.472 297.763 110.07C304.165 103.668 307.76 94.9847 307.758 85.9307H461.358C489.626 85.9087 512.536 62.9987 512.558 34.7307V17.6647C512.53 8.24966 504.905 0.625656 495.49 0.597656ZM339.416 49.3227C336.975 51.7847 333.287 52.5237 330.085 51.1947C326.883 49.8657 324.804 46.7307 324.824 43.2637C324.846 39.4117 327.446 36.0527 331.169 35.0657C334.892 34.0777 338.815 35.7067 340.744 39.0407C342.672 42.3757 342.128 46.5887 339.416 49.3227ZM373.549 49.3227C371.913 50.8807 369.749 51.7647 367.49 51.7977C366.375 51.7847 365.273 51.5527 364.247 51.1147C363.213 50.6817 362.261 50.0757 361.431 49.3227C359.873 47.6867 358.989 45.5227 358.956 43.2637C358.989 41.0047 359.872 38.8407 361.431 37.2047C362.261 36.4517 363.213 35.8457 364.247 35.4127C367.43 34.1257 371.071 34.8277 373.548 37.2047C376.848 40.5707 376.848 45.9577 373.549 49.3227ZM407.682 49.3227C405.241 51.7847 401.553 52.5237 398.351 51.1947C395.149 49.8657 393.07 46.7307 393.09 43.2637C393.112 39.4117 395.712 36.0527 399.435 35.0657C403.158 34.0777 407.081 35.7067 409.01 39.0407C410.939 42.3757 410.395 46.5887 407.682 49.3227ZM441.816 49.3227C439.375 51.7847 435.687 52.5237 432.485 51.1947C429.283 49.8657 427.204 46.7307 427.224 43.2637C427.246 39.4117 429.846 36.0527 433.569 35.0657C437.292 34.0777 441.215 35.7067 443.144 39.0407C445.072 42.3757 444.528 46.5887 441.816 49.3227ZM475.949 49.3227C473.508 51.7847 469.82 52.5237 466.618 51.1947C463.416 49.8657 461.337 46.7307 461.357 43.2637C461.379 39.4117 463.979 36.0527 467.702 35.0657C471.425 34.0777 475.348 35.7067 477.277 39.0407C479.205 42.3757 478.661 46.5887 475.949 49.3227Z" fill="url(#paint7_linear_10025_66028)"/>
</g>
<defs>
<linearGradient id="paint0_linear_10025_66028" x1="256.557" y1="137.131" x2="256.557" y2="512.598" gradientUnits="userSpaceOnUse">
<stop stop-color="#72707D"/>
<stop offset="1" stop-color="#101824"/>
</linearGradient>
<linearGradient id="paint1_linear_10025_66028" x1="60.2898" y1="248.064" x2="60.2898" y2="401.663" gradientUnits="userSpaceOnUse">
<stop stop-color="#72707D"/>
<stop offset="1" stop-color="#101824"/>
</linearGradient>
<linearGradient id="paint2_linear_10025_66028" x1="261.159" y1="425.045" x2="261.159" y2="452.864" gradientUnits="userSpaceOnUse">
<stop stop-color="#72707D"/>
<stop offset="1" stop-color="#101824"/>
</linearGradient>
<linearGradient id="paint3_linear_10025_66028" x1="361.028" y1="395.178" x2="361.028" y2="418.753" gradientUnits="userSpaceOnUse">
<stop stop-color="#72707D"/>
<stop offset="1" stop-color="#101824"/>
</linearGradient>
<linearGradient id="paint4_linear_10025_66028" x1="323.074" y1="256.598" x2="323.074" y2="410.197" gradientUnits="userSpaceOnUse">
<stop stop-color="#72707D"/>
<stop offset="1" stop-color="#101824"/>
</linearGradient>
<linearGradient id="paint5_linear_10025_66028" x1="154.157" y1="283.99" x2="154.157" y2="382.807" gradientUnits="userSpaceOnUse">
<stop stop-color="#72707D"/>
<stop offset="1" stop-color="#101824"/>
</linearGradient>
<linearGradient id="paint6_linear_10025_66028" x1="267.524" y1="205.436" x2="267.524" y2="244.053" gradientUnits="userSpaceOnUse">
<stop stop-color="#72707D"/>
<stop offset="1" stop-color="#101824"/>
</linearGradient>
<linearGradient id="paint7_linear_10025_66028" x1="256.557" y1="0.597656" x2="256.557" y2="120.065" gradientUnits="userSpaceOnUse">
<stop stop-color="#72707D"/>
<stop offset="1" stop-color="#101824"/>
</linearGradient>
<clipPath id="clip0_10025_66028">
<rect width="512" height="512" fill="white" transform="translate(0.556641 0.597656)"/>
</clipPath>
</defs>
</svg>
