<svg width="513" height="513" viewBox="0 0 513 513" fill="none" xmlns="http://www.w3.org/2000/svg">
<g clip-path="url(#clip0_10025_66040)">
<path d="M295.613 110.924C295.619 124.88 301.21 138.254 311.139 148.062C314.592 151.472 320.151 151.455 323.582 148.023C327.014 144.591 327.031 139.033 323.621 135.58C316.999 129.085 313.268 120.2 313.268 110.925C313.268 101.65 316.999 92.7636 323.621 86.2696C344.875 65.0156 334.936 32.1356 314.793 11.9936C311.34 8.58356 305.781 8.60056 302.35 12.0326C298.918 15.4646 298.901 21.0226 302.311 24.4756C316.401 38.5656 324.285 60.6396 311.139 73.7856C301.21 83.5936 295.619 96.9666 295.613 110.924Z" fill="url(#paint0_linear_10025_66040)"/>
<path d="M198.509 155.062C198.515 169.018 204.106 182.392 214.035 192.2C217.488 195.61 223.047 195.593 226.478 192.161C229.91 188.729 229.927 183.171 226.517 179.718C219.895 173.224 216.164 164.338 216.164 155.063C216.164 145.788 219.895 136.902 226.517 130.408C247.771 109.154 237.832 76.2742 217.689 56.1322C214.236 52.7222 208.677 52.7392 205.246 56.1712C201.814 59.6032 201.797 65.1612 205.207 68.6142C219.298 82.7052 227.181 104.778 214.035 117.924C204.106 127.732 198.515 141.105 198.509 155.062Z" fill="url(#paint1_linear_10025_66040)"/>
<path d="M106.027 102.095C106.033 116.051 111.624 129.425 121.553 139.233C123.778 141.486 127.04 142.375 130.1 141.562C133.16 140.749 135.551 138.359 136.364 135.298C137.177 132.237 136.289 128.976 134.036 126.751C127.414 120.257 123.683 111.371 123.683 102.096C123.683 92.8214 127.414 83.9354 134.036 77.4414C155.29 56.1874 145.351 23.3074 125.208 3.16543C121.755 -0.244566 116.196 -0.227566 112.765 3.20443C109.333 6.63643 109.316 12.1944 112.726 15.6474C126.817 29.7384 134.7 51.8114 121.554 64.9574C111.624 74.7654 106.033 88.1394 106.027 102.095Z" fill="url(#paint2_linear_10025_66040)"/>
<path d="M415.61 98.9172C429.469 64.3132 466.987 40.3902 488.173 29.1792C490.671 27.8402 491.801 24.8652 490.821 22.2052C490.3 20.6862 489.185 19.4442 487.731 18.7622C486.254 18.0722 484.554 18.0402 483.052 18.6742C451.576 31.4822 424.39 52.9742 404.663 80.6442C392.792 101.539 384.947 124.475 381.535 148.263C376.985 173.423 373.948 198.833 372.443 224.357C371.295 242.454 370.942 256.489 370.854 262.316C380.035 261.786 388.862 261.257 397.337 260.55C397.602 237.51 399.367 139.524 415.61 98.9172Z" fill="url(#paint3_linear_10025_66040)"/>
<path d="M415.08 259.138C439.672 257.755 464.067 253.941 487.908 247.75C464.219 241.569 439.968 237.783 415.522 236.451C415.257 246.161 415.08 254.018 415.08 259.138Z" fill="url(#paint4_linear_10025_66040)"/>
<path d="M407.135 277.588C393.452 278.736 378.445 279.707 362.732 280.501C328.128 282.178 292.288 283.061 256.095 283.061C197.445 283.433 138.814 280.84 80.4259 275.293C59.7709 273.68 39.3159 270.104 19.3389 264.612C32.6689 379.547 135.157 468.441 256.095 468.441C310.925 469.091 364.463 451.792 408.547 419.183C409.075 418.666 409.668 418.221 410.313 417.859C458.791 381.009 489.159 325.157 493.734 264.436C465.393 271.767 436.375 276.175 407.135 277.588ZM69.4669 321.511C68.6229 323.696 66.9439 325.457 64.8019 326.404C63.6949 326.918 62.4909 327.189 61.2709 327.198C57.7749 327.212 54.5959 325.173 53.1499 321.99C50.5019 315.987 48.0299 309.808 45.9999 303.629C44.9889 300.648 45.6459 297.354 47.7219 294.989C49.7979 292.624 52.9799 291.546 56.0659 292.163C59.1529 292.78 61.6749 294.997 62.6829 297.979C64.6249 303.629 66.8319 309.278 69.3039 314.751C70.2529 316.895 70.3109 319.326 69.4669 321.511ZM193.861 433.042C192.633 436.628 189.265 439.039 185.475 439.045C184.517 439.035 183.566 438.886 182.65 438.604C139.278 423.759 101.524 395.929 74.5119 358.891C72.6439 356.337 72.2869 352.979 73.5769 350.09C74.8669 347.201 77.6039 345.223 80.7519 344.908C83.8999 344.593 86.9759 345.987 88.8129 348.563C113.706 382.581 148.428 408.152 188.3 421.832C192.916 423.409 195.398 428.412 193.861 433.042Z" fill="url(#paint5_linear_10025_66040)"/>
<path d="M256.096 486.096C202.375 486.1 149.964 469.513 106.027 438.604V477.269C106.027 489.275 158.993 512.579 256.096 512.579C353.199 512.579 406.165 489.274 406.165 477.269V442.577C361.479 471.458 309.3 486.59 256.096 486.096Z" fill="url(#paint6_linear_10025_66040)"/>
<path d="M353.199 263.198C353.287 258.519 353.464 247.308 354.258 232.301C322.92 230.889 290.081 230.094 256.095 230.094C131.979 230.094 48.735 239.451 23.665 247.749C48.735 256.047 131.98 265.404 256.095 265.404C289.022 265.405 321.596 264.611 353.199 263.198Z" fill="url(#paint7_linear_10025_66040)"/>
</g>
<defs>
<linearGradient id="paint0_linear_10025_66040" x1="315.557" y1="9.44727" x2="315.557" y2="150.608" gradientUnits="userSpaceOnUse">
<stop stop-color="#72707D"/>
<stop offset="1" stop-color="#101824"/>
</linearGradient>
<linearGradient id="paint1_linear_10025_66040" x1="218.452" y1="53.5859" x2="218.452" y2="194.747" gradientUnits="userSpaceOnUse">
<stop stop-color="#72707D"/>
<stop offset="1" stop-color="#101824"/>
</linearGradient>
<linearGradient id="paint2_linear_10025_66040" x1="125.971" y1="0.619141" x2="125.971" y2="141.858" gradientUnits="userSpaceOnUse">
<stop stop-color="#72707D"/>
<stop offset="1" stop-color="#101824"/>
</linearGradient>
<linearGradient id="paint3_linear_10025_66040" x1="431.013" y1="18.2207" x2="431.013" y2="262.316" gradientUnits="userSpaceOnUse">
<stop stop-color="#72707D"/>
<stop offset="1" stop-color="#101824"/>
</linearGradient>
<linearGradient id="paint4_linear_10025_66040" x1="451.494" y1="236.451" x2="451.494" y2="259.138" gradientUnits="userSpaceOnUse">
<stop stop-color="#72707D"/>
<stop offset="1" stop-color="#101824"/>
</linearGradient>
<linearGradient id="paint5_linear_10025_66040" x1="256.536" y1="264.436" x2="256.536" y2="468.458" gradientUnits="userSpaceOnUse">
<stop stop-color="#72707D"/>
<stop offset="1" stop-color="#101824"/>
</linearGradient>
<linearGradient id="paint6_linear_10025_66040" x1="256.096" y1="438.604" x2="256.096" y2="512.579" gradientUnits="userSpaceOnUse">
<stop stop-color="#72707D"/>
<stop offset="1" stop-color="#101824"/>
</linearGradient>
<linearGradient id="paint7_linear_10025_66040" x1="188.962" y1="230.094" x2="188.962" y2="265.404" gradientUnits="userSpaceOnUse">
<stop stop-color="#72707D"/>
<stop offset="1" stop-color="#101824"/>
</linearGradient>
<clipPath id="clip0_10025_66040">
<rect width="511.96" height="511.96" fill="white" transform="translate(0.556641 0.619141)"/>
</clipPath>
</defs>
</svg>
