<svg width="513" height="513" viewBox="0 0 513 513" fill="none" xmlns="http://www.w3.org/2000/svg">
<g clip-path="url(#clip0_10025_66088)">
<path d="M216.679 266.813L99.3758 384.207C97.6298 385.917 96.6418 388.255 96.6328 390.698C96.6428 393.115 97.6328 395.424 99.3758 397.098L164.565 462.378L294.851 332.092L229.662 266.812C226.056 263.278 220.285 263.278 216.679 266.813Z" fill="url(#paint0_linear_10025_66088)"/>
<path d="M398.896 84.6871L424.953 110.836L451.102 84.6871L424.953 58.5391L398.896 84.6871Z" fill="url(#paint1_linear_10025_66088)"/>
<path d="M492.61 4.04688L444.427 52.1389L457.502 65.2129L512.176 10.6299L492.61 4.04688Z" fill="url(#paint2_linear_10025_66088)"/>
<path d="M333.525 136.985C323.555 147.052 309.597 152.119 295.491 150.791C292.272 150.456 289.036 150.304 285.8 150.334C257.767 150.304 230.88 161.46 211.103 181.328L3.64978 388.688C1.43478 390.966 0.189784 394.014 0.175784 397.191C0.173784 400.344 1.42278 403.37 3.64978 405.602L104.039 505.991C108.713 510.653 116.279 510.653 120.953 505.991L151.673 475.271L86.3928 410.082C81.2418 404.947 78.3468 397.973 78.3468 390.699C78.3468 383.425 81.2418 376.451 86.3928 371.316L203.787 253.922C214.644 243.59 231.696 243.59 242.553 253.922L307.833 319.111L328.404 298.54C350.599 276.372 361.789 245.483 358.941 214.243C357.644 200.114 362.704 186.14 372.747 176.117L386.005 162.768L346.874 123.637L333.525 136.985ZM79.9018 429.74C83.4678 433.333 83.4678 439.13 79.9018 442.723C78.1628 444.414 75.8358 445.365 73.4108 445.374C71.0128 445.363 68.7148 444.411 67.0108 442.723L34.4618 410.174C30.8768 406.614 30.8558 400.822 34.4158 397.237C37.9758 393.652 43.7678 393.631 47.3528 397.191L79.9018 429.74ZM315.239 285.465C311.679 289.025 305.907 289.025 302.348 285.465C298.789 281.905 298.788 276.133 302.348 272.574C316.847 258.105 324.152 237.932 322.279 217.534C321.971 214.276 323.429 211.103 326.102 209.215C328.774 207.327 332.252 207.012 335.22 208.39C338.188 209.768 340.192 212.628 340.473 215.888C342.854 241.683 333.602 267.194 315.239 285.465Z" fill="url(#paint3_linear_10025_66088)"/>
<path d="M418.553 130.219L379.422 91.1787L369.639 81.3047C367.824 79.5677 364.963 79.5677 363.148 81.3047L349.982 94.4707C348.275 96.2977 348.275 99.1347 349.982 100.962L408.771 159.659C409.605 160.535 410.762 161.03 411.971 161.03C413.18 161.03 414.337 160.534 415.171 159.659L428.337 146.493C429.21 145.657 429.705 144.502 429.708 143.293C429.709 142.057 429.215 140.871 428.337 140.002L418.553 130.219Z" fill="url(#paint4_linear_10025_66088)"/>
</g>
<defs>
<linearGradient id="paint0_linear_10025_66088" x1="195.742" y1="264.162" x2="195.742" y2="462.378" gradientUnits="userSpaceOnUse">
<stop stop-color="#72707D"/>
<stop offset="1" stop-color="#101824"/>
</linearGradient>
<linearGradient id="paint1_linear_10025_66088" x1="424.999" y1="58.5391" x2="424.999" y2="110.836" gradientUnits="userSpaceOnUse">
<stop stop-color="#72707D"/>
<stop offset="1" stop-color="#101824"/>
</linearGradient>
<linearGradient id="paint2_linear_10025_66088" x1="478.301" y1="4.04687" x2="478.301" y2="65.2129" gradientUnits="userSpaceOnUse">
<stop stop-color="#72707D"/>
<stop offset="1" stop-color="#101824"/>
</linearGradient>
<linearGradient id="paint3_linear_10025_66088" x1="193.09" y1="123.637" x2="193.09" y2="509.487" gradientUnits="userSpaceOnUse">
<stop stop-color="#72707D"/>
<stop offset="1" stop-color="#101824"/>
</linearGradient>
<linearGradient id="paint4_linear_10025_66088" x1="389.205" y1="80.002" x2="389.205" y2="161.03" gradientUnits="userSpaceOnUse">
<stop stop-color="#72707D"/>
<stop offset="1" stop-color="#101824"/>
</linearGradient>
<clipPath id="clip0_10025_66088">
<rect width="512" height="512" fill="white" transform="translate(0.175781 0.767578)"/>
</clipPath>
</defs>
</svg>
