<svg width="513" height="513" viewBox="0 0 513 513" fill="none" xmlns="http://www.w3.org/2000/svg">
<g clip-path="url(#clip0_10025_66105)">
<path d="M469.509 128.768H398.597C363.098 128.687 328.138 137.457 296.88 154.283C277.765 164.694 260.443 177.92 228.528 214.102H222.043V69.0346H315.91C344.178 69.0126 367.088 46.1026 367.11 17.8346C367.082 8.41958 359.457 0.795578 350.043 0.767578H25.7758C16.3618 0.795578 8.73678 8.41958 8.70878 17.8346C8.73078 46.1026 31.6408 69.0126 59.9088 69.0346H119.642V214.102H85.5088V179.968C85.4678 165.847 74.0298 154.409 59.9088 154.368H25.7758C11.6548 154.409 0.216781 165.847 0.175781 179.968V359.168C0.216781 373.289 11.6548 384.727 25.7758 384.768H59.9088C74.0298 384.727 85.4678 373.289 85.5088 359.168V333.568H179.29C173.983 356.573 169.909 379.845 167.087 403.285C163.419 433.777 183.511 462.067 213.508 468.65V495.701C213.536 505.115 221.16 512.74 230.575 512.768H256.176C265.59 512.74 273.215 505.116 273.243 495.701V470.101H401.243V495.701C401.271 505.115 408.895 512.74 418.31 512.768H443.91C453.324 512.74 460.949 505.116 460.977 495.701V470.101H469.51C493.071 470.092 512.168 450.995 512.177 427.434V171.434C512.168 147.874 493.07 128.777 469.509 128.768ZM34.3088 342.101H17.2428V325.034H34.3098C39.0228 325.034 42.8428 328.855 42.8428 333.567C42.8428 338.281 39.0218 342.101 34.3088 342.101ZM34.3088 299.435H17.2428V282.368H34.3098C39.0228 282.368 42.8428 286.188 42.8428 290.901C42.8428 295.614 39.0218 299.435 34.3088 299.435ZM34.3088 256.768H17.2428V239.701H34.3098C39.0228 239.701 42.8428 243.521 42.8428 248.234C42.8428 252.947 39.0218 256.768 34.3088 256.768ZM34.3088 214.101H17.2428V197.034H34.3098C39.0228 197.034 42.8428 200.854 42.8428 205.567C42.8428 210.28 39.0218 214.101 34.3088 214.101ZM256.176 495.701H230.576V470.101H256.176V495.701ZM401.243 401.835C401.202 415.956 389.764 427.394 375.643 427.435H307.376C293.255 427.394 281.817 415.956 281.776 401.835V393.302C281.817 379.181 293.255 367.743 307.376 367.702H375.643C389.764 367.743 401.202 379.181 401.243 393.302V401.835ZM443.909 495.701H418.309V470.101H443.909V495.701ZM460.976 453.035H452.699H443.91V145.835H460.976V453.035Z" fill="url(#paint0_linear_10025_66105)"/>
<path d="M298.843 393.301V401.834C298.857 406.541 302.669 410.353 307.376 410.367H332.976V384.768H307.376C302.669 384.782 298.857 388.594 298.843 393.301Z" fill="url(#paint1_linear_10025_66105)"/>
<path d="M375.643 384.768H350.043V410.368H375.643C380.35 410.354 384.162 406.542 384.176 401.835V393.302C384.162 388.594 380.35 384.782 375.643 384.768Z" fill="url(#paint2_linear_10025_66105)"/>
</g>
<defs>
<linearGradient id="paint0_linear_10025_66105" x1="256.176" y1="0.767578" x2="256.176" y2="512.768" gradientUnits="userSpaceOnUse">
<stop stop-color="#72707D"/>
<stop offset="1" stop-color="#101824"/>
</linearGradient>
<linearGradient id="paint1_linear_10025_66105" x1="315.909" y1="384.768" x2="315.909" y2="410.367" gradientUnits="userSpaceOnUse">
<stop stop-color="#72707D"/>
<stop offset="1" stop-color="#101824"/>
</linearGradient>
<linearGradient id="paint2_linear_10025_66105" x1="367.109" y1="384.768" x2="367.109" y2="410.368" gradientUnits="userSpaceOnUse">
<stop stop-color="#72707D"/>
<stop offset="1" stop-color="#101824"/>
</linearGradient>
<clipPath id="clip0_10025_66105">
<rect width="512" height="512" fill="white" transform="translate(0.175781 0.767578)"/>
</clipPath>
</defs>
</svg>
