<svg width="513" height="513" viewBox="0 0 513 513" fill="none" xmlns="http://www.w3.org/2000/svg">
<g clip-path="url(#clip0_10025_66131)">
<path d="M209.137 156.698C181.173 136.644 144.894 132.288 112.977 145.151C81.0603 158.014 57.9413 186.309 51.6973 220.15H249.274C244.6 194.605 230.215 171.865 209.137 156.698Z" fill="url(#paint0_linear_10025_66131)"/>
<path d="M230.165 150.206C250.339 168.523 263.606 193.216 267.742 220.149H377.182C368.409 172.502 326.887 137.9 278.439 137.863C261.566 137.851 244.962 142.096 230.165 150.206Z" fill="url(#paint1_linear_10025_66131)"/>
<path d="M345.274 140.332L370.234 115.372L349.388 110.161C349.297 110.161 349.205 110.07 349.114 110.07L332.748 126.436C332.931 128.539 332.931 130.733 333.022 132.836C337.254 135.084 341.346 137.587 345.274 140.332Z" fill="url(#paint2_linear_10025_66131)"/>
<path d="M269.297 476.15H159.583C137.867 476.176 119.156 491.451 114.783 512.721H314.097C309.724 491.451 291.012 476.176 269.297 476.15Z" fill="url(#paint3_linear_10025_66131)"/>
<path d="M214.44 138.322C244.035 119.295 280.577 114.467 314.097 125.156C307.657 74.997 265.01 37.397 214.44 37.293C163.87 37.397 121.223 74.997 114.783 125.156C148.303 114.467 184.845 119.294 214.44 138.322Z" fill="url(#paint4_linear_10025_66131)"/>
<path d="M458.464 0.8125L437.344 21.8415L458.464 27.1435L471.538 13.9785L458.464 0.8125Z" fill="url(#paint5_linear_10025_66131)"/>
<path d="M385.685 73.498L364.199 94.984L385.319 100.287L406.805 78.801L385.959 73.59C385.868 73.589 385.777 73.498 385.685 73.498Z" fill="url(#paint6_linear_10025_66131)"/>
<path d="M422.348 36.9258L400.771 58.4118L421.891 63.7148L443.378 42.2288L422.531 37.0178C422.462 37.0078 422.398 36.9758 422.348 36.9258Z" fill="url(#paint7_linear_10025_66131)"/>
<path d="M383.4 239.716C381.885 238.888 380.189 238.448 378.463 238.436H50.4173C48.6913 238.448 46.9953 238.888 45.4803 239.716C41.8413 241.768 40.0113 245.989 41.0003 250.047L58.9203 313.407C78.0803 377.871 137.592 421.871 204.84 421.293H224.04C291.288 421.871 350.8 377.871 369.96 313.407L387.88 249.956C388.848 245.924 387.018 241.741 383.4 239.716ZM70.3483 286.619L65.2283 268.333C64.3463 265.197 65.2043 261.829 67.4793 259.497C69.7543 257.165 73.0993 256.224 76.2563 257.028C79.4133 257.832 81.9013 260.259 82.7823 263.395L87.9933 281.681C88.6483 284.009 88.3513 286.502 87.1683 288.611C85.9853 290.72 84.0123 292.273 81.6843 292.927C80.8873 293.182 80.0533 293.306 79.2153 293.293C75.1083 293.279 71.4993 290.563 70.3483 286.619ZM177.503 391.213C176.36 395.11 172.787 397.79 168.726 397.796C167.859 397.809 166.995 397.686 166.166 397.43C128.703 386.8 97.9313 360.017 82.2353 324.379C80.2613 319.768 82.3753 314.428 86.9713 312.419C91.5673 310.41 96.9233 312.484 98.9663 317.065C112.531 347.716 139.037 370.737 171.286 379.876C176.124 381.301 178.902 386.367 177.503 391.213Z" fill="url(#paint8_linear_10025_66131)"/>
<path d="M256.864 457.864C255.422 450.86 255.021 443.682 255.675 436.561C245.245 438.538 234.656 439.548 224.041 439.578H204.841C194.226 439.547 183.636 438.537 173.207 436.561C173.866 443.682 173.466 450.861 172.018 457.864H256.864Z" fill="url(#paint9_linear_10025_66131)"/>
</g>
<defs>
<linearGradient id="paint0_linear_10025_66131" x1="150.486" y1="137.863" x2="150.486" y2="220.15" gradientUnits="userSpaceOnUse">
<stop stop-color="#72707D"/>
<stop offset="1" stop-color="#101824"/>
</linearGradient>
<linearGradient id="paint1_linear_10025_66131" x1="303.674" y1="137.863" x2="303.674" y2="220.149" gradientUnits="userSpaceOnUse">
<stop stop-color="#72707D"/>
<stop offset="1" stop-color="#101824"/>
</linearGradient>
<linearGradient id="paint2_linear_10025_66131" x1="351.491" y1="110.07" x2="351.491" y2="140.332" gradientUnits="userSpaceOnUse">
<stop stop-color="#72707D"/>
<stop offset="1" stop-color="#101824"/>
</linearGradient>
<linearGradient id="paint3_linear_10025_66131" x1="214.44" y1="476.15" x2="214.44" y2="512.721" gradientUnits="userSpaceOnUse">
<stop stop-color="#72707D"/>
<stop offset="1" stop-color="#101824"/>
</linearGradient>
<linearGradient id="paint4_linear_10025_66131" x1="214.44" y1="37.293" x2="214.44" y2="138.322" gradientUnits="userSpaceOnUse">
<stop stop-color="#72707D"/>
<stop offset="1" stop-color="#101824"/>
</linearGradient>
<linearGradient id="paint5_linear_10025_66131" x1="454.441" y1="0.8125" x2="454.441" y2="27.1435" gradientUnits="userSpaceOnUse">
<stop stop-color="#72707D"/>
<stop offset="1" stop-color="#101824"/>
</linearGradient>
<linearGradient id="paint6_linear_10025_66131" x1="385.502" y1="73.498" x2="385.502" y2="100.287" gradientUnits="userSpaceOnUse">
<stop stop-color="#72707D"/>
<stop offset="1" stop-color="#101824"/>
</linearGradient>
<linearGradient id="paint7_linear_10025_66131" x1="422.074" y1="36.9258" x2="422.074" y2="63.7148" gradientUnits="userSpaceOnUse">
<stop stop-color="#72707D"/>
<stop offset="1" stop-color="#101824"/>
</linearGradient>
<linearGradient id="paint8_linear_10025_66131" x1="214.436" y1="238.436" x2="214.436" y2="421.298" gradientUnits="userSpaceOnUse">
<stop stop-color="#72707D"/>
<stop offset="1" stop-color="#101824"/>
</linearGradient>
<linearGradient id="paint9_linear_10025_66131" x1="214.441" y1="436.561" x2="214.441" y2="457.864" gradientUnits="userSpaceOnUse">
<stop stop-color="#72707D"/>
<stop offset="1" stop-color="#101824"/>
</linearGradient>
<clipPath id="clip0_10025_66131">
<rect width="511.909" height="511.909" fill="white" transform="translate(0.181641 0.8125)"/>
</clipPath>
</defs>
</svg>
