<svg width="509" height="509" viewBox="0 0 509 509" fill="none" xmlns="http://www.w3.org/2000/svg">
<g clip-path="url(#clip0_10025_66145)">
<path d="M379.624 116.943C381.39 120.887 383.05 124.844 384.456 128.806C386.18 127.683 387.794 126.402 389.28 124.979C395.425 118.957 398.888 110.715 398.887 102.112C398.886 93.5083 395.422 85.2673 389.276 79.2473C379.793 70.2243 365.995 67.3993 353.729 71.9693L368.763 96.5723C372.805 103.129 376.433 109.933 379.624 116.943Z" fill="url(#paint0_linear_10025_66145)"/>
<path d="M113.574 403.749L113.474 403.765C112.446 403.763 111.426 403.588 110.456 403.247C96.7738 398.418 83.6378 392.164 71.2638 384.586L4.71484 346.145C26.5398 375.976 51.1708 403.648 78.2718 428.783C125.004 474.516 152.551 494.823 167.579 503.826L131.072 443.171C123.674 430.783 117.799 417.546 113.574 403.749Z" fill="url(#paint1_linear_10025_66145)"/>
<path d="M108.34 382.879C96.9268 313.075 120.891 242.157 172.304 193.582C206.179 160.386 249.433 138.397 296.215 130.591C319.285 126.903 342.816 127.181 365.793 131.413C364.873 129.092 363.987 126.762 362.96 124.47C360.085 118.161 356.818 112.037 353.179 106.135L303.737 25.2109L0.0917969 322.363L80.5898 368.863C89.4498 374.27 98.7288 378.957 108.34 382.879Z" fill="url(#paint2_linear_10025_66145)"/>
<path d="M501.103 162.551C495.559 157.268 487.949 154.73 480.344 155.627C476.214 156.064 472.309 153.663 470.835 149.78C469.361 145.898 470.688 141.51 474.067 139.095C474.63 138.652 475.158 138.167 475.647 137.644C482.998 130.57 487.215 120.85 487.357 110.648C487.431 101.92 483.959 93.536 477.736 87.416C470.661 80.637 461.027 77.201 451.258 77.974C448.702 78.12 446.203 77.187 444.367 75.404C442.531 73.621 441.526 71.149 441.598 68.59C441.977 58.434 438.055 48.59 430.794 41.478C418.361 29.987 400.1 27.421 384.981 35.04C382.552 36.195 379.737 36.222 377.286 35.115C374.835 34.008 372.996 31.877 372.257 29.29C370.739 23.911 367.829 19.028 363.82 15.134C350.918 3.42695 331.565 2.39695 317.495 12.67L344.014 56.07C363.595 47.122 386.662 51.139 402.066 66.179C410.071 74.014 415.222 84.303 416.7 95.406C427.531 96.352 437.696 101.031 445.459 108.643C461.465 124.151 463.857 148.98 451.106 167.259L502.281 196.752C506.092 191.929 508.194 185.977 508.258 179.83C508.315 173.34 505.732 167.103 501.103 162.551Z" fill="url(#paint3_linear_10025_66145)"/>
<path d="M371.648 151.073C347.86 145.498 323.206 144.674 299.099 148.649C256.051 155.848 216.254 176.096 185.09 206.653C133.956 256.693 112.385 327.265 128.8 390.827C132.681 405.922 138.724 420.377 146.742 433.742L188.986 503.927L466.053 232.784L466.054 232.782L489.081 210.248L417.684 169.099C403.313 160.848 387.8 154.774 371.648 151.073ZM231.96 435.185C230.263 436.917 227.948 437.905 225.523 437.93C223.098 437.955 220.763 437.016 219.031 435.319L205.682 422.252C203.337 419.969 202.39 416.606 203.202 413.435C204.014 410.264 206.457 407.768 209.611 406.892C212.765 406.015 216.146 406.892 218.477 409.189L231.826 422.256C233.559 423.952 234.546 426.268 234.572 428.693C234.597 431.118 233.658 433.453 231.96 435.185ZM238.644 376.377C236.949 378.111 234.634 379.1 232.209 379.126C229.784 379.152 227.448 378.215 225.715 376.519L212.362 363.452C208.809 359.911 208.773 354.169 212.28 350.583C215.787 346.997 221.529 346.907 225.148 350.38L238.501 363.447C240.235 365.142 241.224 367.457 241.251 369.882C241.277 372.308 240.339 374.644 238.644 376.377ZM298.729 369.846C297.034 371.58 294.719 372.569 292.294 372.596C289.869 372.623 287.533 371.685 285.8 369.989L272.447 356.922C268.894 353.381 268.858 347.639 272.365 344.053C275.872 340.467 281.614 340.377 285.233 343.85L298.586 356.917C300.32 358.612 301.309 360.927 301.336 363.352C301.362 365.776 300.424 368.112 298.729 369.846ZM352.139 317.578C350.444 319.312 348.129 320.301 345.704 320.328C343.279 320.355 340.943 319.417 339.21 317.721L325.857 304.654C322.304 301.113 322.268 295.371 325.775 291.785C329.282 288.199 335.024 288.109 338.643 291.582L351.996 304.649C353.73 306.344 354.719 308.659 354.746 311.084C354.773 313.508 353.835 315.844 352.139 317.578ZM358.814 258.779C357.119 260.513 354.804 261.502 352.379 261.528C349.954 261.554 347.618 260.617 345.885 258.921L332.532 245.854C328.979 242.313 328.943 236.571 332.45 232.985C335.957 229.399 341.699 229.309 345.318 232.782L358.671 245.849C360.405 247.544 361.394 249.859 361.42 252.284C361.446 254.709 360.509 257.045 358.814 258.779ZM421.505 245.749C421.532 248.174 420.594 250.51 418.898 252.243H418.899C417.204 253.977 414.889 254.966 412.464 254.993C410.039 255.02 407.703 254.082 405.97 252.386L392.617 239.319C389.072 235.777 389.04 230.041 392.543 226.459C396.047 222.877 401.782 222.782 405.402 226.247L418.755 239.314C420.489 241.009 421.478 243.324 421.505 245.749Z" fill="url(#paint4_linear_10025_66145)"/>
<path d="M435.075 158.019C443.809 147.125 442.765 131.362 432.67 121.715C428.1 117.237 422.166 114.415 415.809 113.695C413.637 122.953 408.872 131.401 402.072 138.049C401.194 138.907 400.219 139.621 399.292 140.408C408.805 143.919 418.009 148.216 426.809 153.254L435.075 158.019Z" fill="url(#paint5_linear_10025_66145)"/>
</g>
<defs>
<linearGradient id="paint0_linear_10025_66145" x1="376.308" y1="69.8145" x2="376.308" y2="128.806" gradientUnits="userSpaceOnUse">
<stop stop-color="#72707D"/>
<stop offset="1" stop-color="#101824"/>
</linearGradient>
<linearGradient id="paint1_linear_10025_66145" x1="86.1468" y1="346.145" x2="86.1468" y2="503.826" gradientUnits="userSpaceOnUse">
<stop stop-color="#72707D"/>
<stop offset="1" stop-color="#101824"/>
</linearGradient>
<linearGradient id="paint2_linear_10025_66145" x1="182.942" y1="25.2109" x2="182.942" y2="382.879" gradientUnits="userSpaceOnUse">
<stop stop-color="#72707D"/>
<stop offset="1" stop-color="#101824"/>
</linearGradient>
<linearGradient id="paint3_linear_10025_66145" x1="412.877" y1="5.60742" x2="412.877" y2="196.752" gradientUnits="userSpaceOnUse">
<stop stop-color="#72707D"/>
<stop offset="1" stop-color="#101824"/>
</linearGradient>
<linearGradient id="paint4_linear_10025_66145" x1="306.236" y1="146.176" x2="306.236" y2="503.927" gradientUnits="userSpaceOnUse">
<stop stop-color="#72707D"/>
<stop offset="1" stop-color="#101824"/>
</linearGradient>
<linearGradient id="paint5_linear_10025_66145" x1="420.142" y1="113.695" x2="420.142" y2="158.019" gradientUnits="userSpaceOnUse">
<stop stop-color="#72707D"/>
<stop offset="1" stop-color="#101824"/>
</linearGradient>
<clipPath id="clip0_10025_66145">
<rect width="508.168" height="508.168" fill="white" transform="translate(0.0917969 0.683594)"/>
</clipPath>
</defs>
</svg>
