<svg width="513" height="513" viewBox="0 0 513 513" fill="none" xmlns="http://www.w3.org/2000/svg">
<g clip-path="url(#clip0_10025_66183)">
<path d="M74.082 151.454C74.082 178.753 147.011 220.025 256.939 220.025C279.067 220.084 301.162 218.322 323.002 214.757C396.109 202.614 439.797 173.038 439.797 151.453C439.797 134.791 411.443 110.707 357.336 95.7397C352.2 101.667 346.193 106.779 339.52 110.9C336.231 112.866 333.594 115.757 331.94 119.213C330.737 121.583 330.11 124.203 330.11 126.86V176.039C330.093 184.721 323.988 192.2 315.485 193.954C296.224 198.192 276.64 200.796 256.94 201.739C237.256 200.796 217.686 198.191 198.44 193.953C189.941 192.195 183.84 184.717 183.824 176.038V137.871L183.797 137.738L183.824 137.605V120.64C183.827 119.429 183.707 118.22 183.467 117.033C182.787 112.932 180.615 109.228 177.369 106.631C172.476 102.851 168.035 98.5197 164.132 93.7227C105.046 108.44 74.082 133.602 74.082 151.454ZM385.118 145.052C385.221 144.479 385.408 143.924 385.672 143.405C385.87 142.823 386.147 142.27 386.493 141.762C386.859 141.302 387.225 140.847 387.591 140.391C388.465 139.563 389.489 138.909 390.609 138.467C392.277 137.739 394.131 137.549 395.913 137.922C396.485 138.021 397.038 138.205 397.556 138.467C398.138 138.668 398.69 138.946 399.199 139.293C399.654 139.659 400.119 140.025 400.574 140.391C400.94 140.846 401.306 141.302 401.672 141.761C402.015 142.271 402.291 142.823 402.493 143.404C402.758 143.922 402.942 144.478 403.038 145.051C403.145 145.656 403.207 146.268 403.225 146.881C403.188 149.301 402.242 151.619 400.574 153.372C400.119 153.738 399.654 154.104 399.199 154.466C398.691 154.813 398.138 155.091 397.556 155.292C397.038 155.553 396.484 155.738 395.913 155.841C395.308 155.946 394.696 156.007 394.082 156.024C392.888 156.009 391.708 155.761 390.609 155.292C389.49 154.849 388.466 154.198 387.591 153.372C385.919 151.621 384.972 149.302 384.939 146.881C384.959 146.269 385.018 145.658 385.118 145.052ZM368.385 165.351C368.992 165.435 369.58 165.619 370.126 165.896C370.688 166.079 371.213 166.359 371.68 166.722C372.225 167.088 372.689 167.454 373.144 167.82C374.813 169.573 375.76 171.891 375.796 174.311C375.781 175.505 375.533 176.685 375.064 177.784C374.622 178.903 373.97 179.927 373.144 180.802C372.696 181.217 372.205 181.584 371.68 181.896C371.214 182.259 370.688 182.539 370.126 182.722C369.579 182.998 368.991 183.183 368.385 183.271C367.813 183.376 367.234 183.437 366.653 183.454C364.221 183.478 361.882 182.522 360.162 180.802C358.442 179.082 357.487 176.743 357.51 174.311C357.529 173.698 357.589 173.086 357.689 172.481C357.792 171.908 357.979 171.353 358.243 170.834C358.441 170.252 358.718 169.699 359.064 169.191C359.401 168.712 359.768 168.254 360.162 167.82C362.362 165.75 365.408 164.835 368.385 165.351ZM349.1 125.119C349.564 124.012 350.213 122.993 351.02 122.105L352.386 121.007C352.897 120.66 353.453 120.382 354.038 120.181C354.555 119.918 355.109 119.735 355.68 119.637C357.462 119.263 359.315 119.454 360.984 120.182C362.092 120.648 363.112 121.299 364.002 122.106C364.829 122.978 365.481 124.001 365.922 125.119C366.391 126.219 366.64 127.401 366.653 128.597C366.634 131.021 365.685 133.345 364.002 135.088C363.111 135.893 362.091 136.542 360.984 137.008C359.885 137.477 358.705 137.725 357.51 137.739C356.896 137.722 356.284 137.661 355.68 137.556C355.108 137.454 354.555 137.269 354.037 137.007C353.452 136.806 352.897 136.528 352.385 136.181C351.93 135.819 351.474 135.453 351.019 135.087C350.627 134.651 350.26 134.194 349.921 133.716C349.573 133.207 349.297 132.653 349.1 132.069C348.836 131.55 348.65 130.995 348.546 130.422C348.447 129.818 348.387 129.208 348.368 128.596C348.334 127.396 348.585 126.205 349.1 125.119ZM149.876 122.106C152.978 118.942 157.886 118.416 161.588 120.851C165.29 123.286 166.752 128 165.077 132.102C163.402 136.204 159.057 138.547 154.709 137.693C150.361 136.839 147.225 133.028 147.224 128.597C147.255 126.176 148.203 123.856 149.876 122.106ZM140.733 167.821C143.662 164.858 148.218 164.24 151.831 166.314C155.444 168.388 157.207 172.635 156.126 176.658C155.045 180.681 151.39 183.472 147.224 183.455C146.64 183.438 146.058 183.377 145.483 183.272C144.88 183.184 144.295 182.999 143.751 182.723C143.166 182.522 142.611 182.244 142.099 181.897C141.621 181.561 141.165 181.196 140.733 180.803C137.198 177.198 137.198 171.426 140.733 167.821ZM111.385 143.405C111.849 142.298 112.498 141.279 113.305 140.392C116.971 137.008 122.621 137.008 126.287 140.392C127.094 141.28 127.743 142.299 128.207 143.405C128.718 144.492 128.969 145.683 128.939 146.883C128.925 147.496 128.863 148.106 128.751 148.709C128.655 149.283 128.471 149.838 128.206 150.356C128.005 150.938 127.729 151.492 127.385 152.003C127.019 152.458 126.653 152.914 126.287 153.373C122.682 156.909 116.91 156.909 113.305 153.373C111.633 151.622 110.686 149.303 110.653 146.882C110.668 145.687 110.916 144.505 111.385 143.405Z" fill="url(#paint0_linear_10025_66183)"/>
<path d="M188.537 92.1548C195.263 97.4558 199.832 105.021 201.394 113.441C201.873 115.811 202.113 118.224 202.108 120.642V128.597H229.51C234.559 128.597 238.653 132.69 238.653 137.74C238.653 142.789 234.56 146.883 229.51 146.883H202.109V176.04L202.082 176.035C220.138 179.983 238.483 182.464 256.939 183.455C275.41 182.464 293.77 179.983 311.841 176.035L311.836 165.169H284.367C279.318 165.169 275.224 161.076 275.224 156.026C275.224 150.976 279.317 146.883 284.367 146.883H311.829L311.822 126.861C311.81 121.474 313.051 116.159 315.447 111.334C318.591 104.655 323.659 99.0678 330.001 95.2888C340.797 88.4038 349.33 78.4958 354.537 66.7978C363.823 46.8648 348.948 15.9718 339.68 1.18183C322.394 3.65083 289.198 12.2488 279.984 32.2218C273.291 45.9118 271.76 61.5568 275.671 76.2848C277.025 80.7188 276.208 85.5328 273.466 89.2718C270.583 92.8148 266.267 94.8818 261.7 94.9088C257.133 94.9358 252.793 92.9188 249.868 89.4098C247.06 85.7198 246.159 80.9208 247.439 76.4638C251.363 61.6838 249.823 45.9848 243.1 32.2498C233.832 12.1788 200.671 3.61583 183.403 1.17383C174.126 15.9598 159.251 46.8618 168.519 66.7718C173.039 76.7278 179.909 85.4378 188.537 92.1548Z" fill="url(#paint1_linear_10025_66183)"/>
<path d="M256.948 284.026C398.104 284.024 512.939 226.604 512.939 156.026C512.939 108.521 459.27 64.8947 375.045 42.7627C376.793 53.4967 375.433 64.5077 371.126 74.4947C370.271 76.3447 369.177 78.0297 368.209 79.8037C423.207 96.2247 458.082 123.721 458.082 151.455C458.082 186.433 403.769 219.879 326.002 232.794C303.172 236.525 280.073 238.371 256.939 238.312C149.787 238.312 55.796 197.723 55.796 151.455C55.796 122.033 93.769 93.6257 153.575 77.5197C153.052 76.4947 152.436 75.5397 151.948 74.4897C147.363 63.7377 146.113 51.8567 148.361 40.3867C59.624 61.4987 0.938965 107.006 0.938965 156.026H0.956965C0.956965 226.604 115.792 284.024 256.948 284.026Z" fill="url(#paint2_linear_10025_66183)"/>
<path d="M361.466 339.031C452.073 322.634 512.957 285.83 512.957 247.455V209.558C512.611 210.042 512.176 210.499 511.821 210.98C509.91 213.562 507.89 216.111 505.721 218.614C505.354 219.038 505.027 219.473 504.652 219.894C502.168 222.69 499.469 225.416 496.668 228.105C495.847 228.894 495.012 229.677 494.163 230.455C491.3 233.087 488.339 235.683 485.183 238.202C484.833 238.482 484.462 238.752 484.107 239.03C481.056 241.43 477.841 243.761 474.531 246.052C473.549 246.732 472.564 247.41 471.559 248.08C467.962 250.479 464.263 252.831 460.39 255.098C459.791 255.449 459.155 255.781 458.548 256.129C455.051 258.136 451.445 260.085 447.73 261.977C446.635 262.537 445.55 263.099 444.436 263.649C440.214 265.738 435.885 267.766 431.414 269.708C430.544 270.085 429.643 270.441 428.765 270.812C424.831 272.478 420.806 274.084 416.69 275.63C415.542 276.062 414.41 276.503 413.247 276.926C408.464 278.669 403.57 280.332 398.566 281.915C397.456 282.265 396.319 282.594 395.199 282.936C390.806 284.278 386.336 285.556 381.787 286.77C380.671 287.067 379.576 287.379 378.452 287.669C373.154 289.034 367.756 290.308 362.259 291.49C360.959 291.771 359.64 292.031 358.329 292.302C353.421 293.315 348.444 294.256 343.4 295.126C342.429 295.292 341.476 295.478 340.499 295.639C334.744 296.589 328.899 297.435 322.966 298.178C321.51 298.363 320.043 298.532 318.577 298.705C313.044 299.358 307.456 299.94 301.794 300.418C301.14 300.473 300.499 300.546 299.845 300.599C293.666 301.096 287.395 301.456 281.075 301.737C279.536 301.806 277.992 301.863 276.445 301.919C270.016 302.149 263.545 302.309 256.99 302.31L256.957 302.311H256.939C250.352 302.311 243.852 302.151 237.394 301.919C235.894 301.865 234.397 301.806 232.903 301.742C226.526 301.459 220.2 301.096 213.965 300.594C213.465 300.553 212.976 300.498 212.476 300.456C206.61 299.966 200.825 299.36 195.099 298.681C193.771 298.524 192.44 298.371 191.121 298.203C185.07 297.436 179.101 296.572 173.216 295.611C172.481 295.489 171.763 295.349 171.03 295.224C165.659 294.309 160.371 293.309 155.164 292.222C154.077 291.997 152.982 291.781 151.903 291.548C146.226 290.326 140.649 289.01 135.174 287.601C134.347 287.387 133.539 287.157 132.718 286.939C127.749 285.622 122.874 284.228 118.092 282.758C117.278 282.508 116.453 282.27 115.644 282.016C110.407 280.368 105.293 278.63 100.3 276.802C99.4651 276.497 98.6501 276.179 97.8221 275.868C93.2131 274.143 88.7101 272.346 84.3151 270.478C83.8171 270.265 83.3021 270.063 82.8061 269.849C78.0771 267.802 73.4921 265.669 69.0521 263.45C68.2721 263.063 67.5101 262.667 66.7391 262.275C62.4761 260.107 58.3171 257.881 54.3311 255.567C54.1611 255.469 53.9831 255.376 53.8151 255.278C49.6751 252.863 45.7261 250.356 41.9001 247.791C41.2121 247.329 40.5361 246.864 39.8581 246.398C32.6231 241.457 25.7551 235.999 19.3061 230.068C18.7371 229.541 18.1741 229.013 17.6161 228.483C14.5811 225.589 11.6771 222.649 9.00905 219.631L8.99305 219.612C6.36005 216.633 3.96505 213.581 1.70405 210.49C1.47205 210.173 1.18405 209.873 0.956055 209.555V235.868C0.956055 266.667 39.5271 296.622 104.126 315.998C107.27 316.924 109.678 319.461 110.438 322.649C111.198 325.837 110.194 329.188 107.806 331.433C105.418 333.678 102.011 334.472 98.8761 333.516C53.4671 319.898 20.0251 301.183 0.956055 279.52V288.493C0.956055 323.404 51.9911 357.631 130.974 375.681C135.888 376.814 138.957 381.711 137.834 386.627C136.711 391.543 131.821 394.623 126.903 393.511C67.4141 379.916 23.8561 358.212 0.957055 332.107V345.585C0.957055 386.063 69.1891 424.706 166.877 439.558C171.87 440.317 175.302 444.98 174.542 449.973C173.783 454.966 169.12 458.398 164.127 457.638C86.7771 445.875 28.7631 420.684 0.957055 388.99V412.026C0.957055 466.539 118.189 512.597 256.957 512.597C395.725 512.597 512.957 466.539 512.957 412.026V400.566C473.727 445.137 375.229 476.026 256.957 476.026C251.908 476.026 247.814 471.933 247.814 466.883C247.814 461.834 251.907 457.74 256.957 457.74C395.725 457.74 512.957 411.682 512.957 357.169V339.934C481.823 375.578 412.79 402.652 321.912 411.977C321.598 412.011 321.281 412.027 320.965 412.026C316.099 412.023 312.087 408.209 311.84 403.349C311.593 398.489 315.196 394.287 320.037 393.79C431.823 382.317 512.957 341.357 512.957 296.388V291.197C487.098 320.599 435.038 344.299 364.716 357.022C364.177 357.122 363.63 357.171 363.082 357.169C358.349 357.167 354.401 353.553 353.981 348.839C353.561 344.125 356.808 339.87 361.466 339.031Z" fill="url(#paint3_linear_10025_66183)"/>
</g>
<defs>
<linearGradient id="paint0_linear_10025_66183" x1="256.94" y1="93.7227" x2="256.94" y2="220.026" gradientUnits="userSpaceOnUse">
<stop stop-color="#72707D"/>
<stop offset="1" stop-color="#101824"/>
</linearGradient>
<linearGradient id="paint1_linear_10025_66183" x1="261.533" y1="1.17383" x2="261.533" y2="183.455" gradientUnits="userSpaceOnUse">
<stop stop-color="#72707D"/>
<stop offset="1" stop-color="#101824"/>
</linearGradient>
<linearGradient id="paint2_linear_10025_66183" x1="256.939" y1="40.3867" x2="256.939" y2="284.026" gradientUnits="userSpaceOnUse">
<stop stop-color="#72707D"/>
<stop offset="1" stop-color="#101824"/>
</linearGradient>
<linearGradient id="paint3_linear_10025_66183" x1="256.957" y1="209.555" x2="256.957" y2="512.597" gradientUnits="userSpaceOnUse">
<stop stop-color="#72707D"/>
<stop offset="1" stop-color="#101824"/>
</linearGradient>
<clipPath id="clip0_10025_66183">
<rect width="512.018" height="512.018" fill="white" transform="translate(0.938965 0.875)"/>
</clipPath>
</defs>
</svg>
