<svg width="513" height="513" viewBox="0 0 513 513" fill="none" xmlns="http://www.w3.org/2000/svg">
<g clip-path="url(#clip0_10025_66191)">
<path d="M256.94 170.025C339.761 170.025 384.94 148.887 384.94 138.025C384.94 127.163 339.761 106.025 256.94 106.025C174.119 106.025 128.94 127.163 128.94 138.025C128.94 148.887 174.118 170.025 256.94 170.025Z" fill="url(#paint0_linear_10025_66191)"/>
<path d="M256.94 206.597C366.869 206.597 439.797 165.325 439.797 138.026C439.797 110.727 366.868 69.4551 256.94 69.4551C147.012 69.4551 74.083 110.726 74.083 138.025C74.083 165.324 147.011 206.597 256.94 206.597ZM256.94 87.7401C329.636 87.7401 403.226 105.012 403.226 138.026C403.226 171.039 329.637 188.312 256.94 188.312C184.243 188.312 110.654 171.04 110.654 138.026C110.654 105.012 184.243 87.7401 256.94 87.7401Z" fill="url(#paint1_linear_10025_66191)"/>
<path d="M505.32 205.685C505.132 205.899 504.967 206.12 504.778 206.334C502.2 209.241 499.4 212.074 496.482 214.866C495.792 215.526 495.093 216.182 494.384 216.834C491.371 219.614 488.248 222.355 484.907 225.01L484.718 225.153C481.413 227.772 477.903 230.308 474.292 232.798C473.462 233.371 472.631 233.943 471.784 234.508C468.073 236.99 464.249 239.419 460.243 241.761C459.859 241.985 459.452 242.197 459.065 242.421C455.322 244.581 451.436 246.666 447.451 248.699C446.518 249.175 445.594 249.654 444.649 250.123C440.311 252.273 435.86 254.357 431.259 256.352C430.577 256.648 429.868 256.926 429.18 257.219C425.019 258.987 420.756 260.689 416.39 262.323C415.402 262.694 414.428 263.074 413.429 263.438C408.539 265.222 403.535 266.922 398.416 268.539C397.457 268.841 396.476 269.124 395.509 269.421C390.921 270.826 386.248 272.162 381.49 273.429C380.521 273.687 379.57 273.957 378.594 274.209C373.21 275.598 367.722 276.893 362.131 278.094C360.942 278.351 359.736 278.588 358.539 278.836C353.479 279.883 348.346 280.854 343.139 281.749C342.287 281.895 341.452 282.058 340.596 282.199C334.78 283.16 328.863 284.004 322.877 284.764C321.489 284.94 320.091 285.102 318.693 285.267C313.063 285.933 307.378 286.527 301.612 287.011C301.036 287.06 300.471 287.124 299.893 287.171C293.687 287.671 287.388 288.033 281.04 288.314C279.524 288.382 278.003 288.438 276.479 288.493C270.028 288.724 263.534 288.884 256.955 288.884C250.375 288.884 243.881 288.724 237.43 288.492C235.906 288.437 234.385 288.38 232.869 288.313C226.521 288.031 220.222 287.67 214.016 287.17C213.438 287.124 212.874 287.059 212.297 287.01C206.531 286.526 200.846 285.932 195.216 285.266C193.819 285.101 192.421 284.94 191.032 284.763C185.045 284.002 179.129 283.159 173.313 282.198C172.457 282.057 171.622 281.894 170.77 281.748C165.561 280.857 160.429 279.886 155.373 278.835C154.173 278.587 152.965 278.348 151.774 278.092C146.19 276.888 140.704 275.593 135.315 274.208C134.34 273.956 133.388 273.686 132.419 273.428C127.66 272.163 122.987 270.827 118.4 269.42C117.433 269.124 116.451 268.841 115.493 268.538C110.372 266.924 105.368 265.224 100.48 263.437C99.4812 263.073 98.5072 262.693 97.5192 262.322C93.1582 260.685 88.8952 258.983 84.7292 257.218C84.0412 256.925 83.3332 256.647 82.6502 256.351C78.0502 254.356 73.5982 252.272 69.2602 250.122C68.3142 249.653 67.3912 249.174 66.4582 248.698C62.4742 246.665 58.5872 244.58 54.8442 242.42C54.4572 242.197 54.0502 241.985 53.6662 241.76C49.6602 239.418 45.8362 236.989 42.1252 234.507C41.2782 233.941 40.4482 233.37 39.6172 232.797C36.0072 230.306 32.4962 227.771 29.1912 225.152L29.0022 225.009C25.6612 222.354 22.5392 219.613 19.5252 216.833C18.8172 216.18 18.1182 215.524 17.4272 214.865C14.5092 212.073 11.7092 209.24 9.13117 206.334C8.94117 206.119 8.77617 205.897 8.58717 205.682C6.18817 202.942 3.98117 200.143 1.89517 197.308C1.60117 196.908 1.23917 196.529 0.951172 196.127V222.44C0.951172 253.239 39.5222 283.194 104.121 302.569C107.265 303.495 109.673 306.032 110.433 309.22C111.193 312.408 110.189 315.759 107.801 318.004C105.413 320.249 102.006 321.043 98.8712 320.087C53.4692 306.469 20.0272 287.755 0.957172 266.092V275.065C0.957172 309.976 51.9922 344.203 130.975 362.252C135.889 363.385 138.958 368.282 137.835 373.198C136.712 378.114 131.822 381.194 126.904 380.082C67.4162 366.486 23.8562 344.782 0.958172 318.677V332.155C0.958172 372.633 69.1902 411.276 166.878 426.128C171.871 426.887 175.303 431.55 174.543 436.543C173.784 441.536 169.121 444.968 164.128 444.208C86.7782 432.445 28.7632 407.254 0.958172 375.56V398.596C0.958172 453.109 118.19 499.167 256.958 499.167C395.726 499.167 512.958 453.109 512.958 398.596V387.136C473.728 431.707 375.229 462.596 256.958 462.596C251.909 462.596 247.815 458.503 247.815 453.453C247.815 448.404 251.908 444.31 256.958 444.31C395.726 444.31 512.958 398.252 512.958 343.739V326.504C481.824 362.148 412.79 389.222 321.913 398.547C321.599 398.581 321.282 398.597 320.966 398.596C316.1 398.593 312.088 394.779 311.841 389.919C311.594 385.059 315.197 380.857 320.038 380.36C431.824 368.887 512.958 327.927 512.958 282.958V277.767C487.099 307.169 435.04 330.869 364.717 343.592C364.178 343.692 363.631 343.741 363.083 343.739C358.35 343.737 354.402 340.123 353.982 335.409C353.562 330.695 356.809 326.44 361.467 325.601C452.074 309.204 512.958 272.4 512.958 234.025V196.128C512.671 196.528 512.311 196.906 512.018 197.304C509.93 200.142 507.72 202.943 505.32 205.685Z" fill="url(#paint2_linear_10025_66191)"/>
<path d="M256.958 270.598C398.119 270.598 512.958 213.178 512.958 142.598C512.958 72.0177 398.119 14.5977 256.958 14.5977C115.797 14.5977 0.958008 72.0177 0.958008 142.598C0.958008 213.178 115.797 270.598 256.958 270.598ZM256.94 51.1687C364.092 51.1687 458.083 91.7577 458.083 138.026C458.083 184.294 364.091 224.883 256.94 224.883C149.789 224.883 55.797 184.294 55.797 138.026C55.797 91.7577 149.788 51.1687 256.94 51.1687Z" fill="url(#paint3_linear_10025_66191)"/>
</g>
<defs>
<linearGradient id="paint0_linear_10025_66191" x1="256.94" y1="106.025" x2="256.94" y2="170.025" gradientUnits="userSpaceOnUse">
<stop stop-color="#72707D"/>
<stop offset="1" stop-color="#101824"/>
</linearGradient>
<linearGradient id="paint1_linear_10025_66191" x1="256.94" y1="69.4551" x2="256.94" y2="206.597" gradientUnits="userSpaceOnUse">
<stop stop-color="#72707D"/>
<stop offset="1" stop-color="#101824"/>
</linearGradient>
<linearGradient id="paint2_linear_10025_66191" x1="256.955" y1="196.127" x2="256.955" y2="499.167" gradientUnits="userSpaceOnUse">
<stop stop-color="#72707D"/>
<stop offset="1" stop-color="#101824"/>
</linearGradient>
<linearGradient id="paint3_linear_10025_66191" x1="256.958" y1="14.5977" x2="256.958" y2="270.598" gradientUnits="userSpaceOnUse">
<stop stop-color="#72707D"/>
<stop offset="1" stop-color="#101824"/>
</linearGradient>
<clipPath id="clip0_10025_66191">
<rect width="512.001" height="512.001" fill="white" transform="translate(0.957031 0.882812)"/>
</clipPath>
</defs>
</svg>
