<svg width="505" height="504" viewBox="0 0 505 504" fill="none" xmlns="http://www.w3.org/2000/svg">
<g clip-path="url(#clip0_10025_66199)">
<path d="M423.772 251.871C423.705 207.251 387.55 171.096 342.93 171.029C298.282 171.029 262.088 207.223 262.088 251.871C262.088 296.519 298.282 332.713 342.93 332.713C387.578 332.714 423.772 296.519 423.772 251.871ZM280.053 251.871C280.053 217.145 308.204 188.994 342.93 188.994C377.656 188.994 405.807 217.145 405.807 251.871C405.769 286.581 377.64 314.71 342.93 314.748C308.204 314.749 280.053 286.598 280.053 251.871Z" fill="url(#paint0_linear_10025_66199)"/>
<path d="M246.908 274.777L222.925 341.247C222.908 341.495 222.847 341.739 222.745 341.966L220.14 349.062L297.569 339.541C272.086 326.324 253.599 302.692 246.908 274.777Z" fill="url(#paint1_linear_10025_66199)"/>
<path d="M383.261 271.273L372.752 274.327C362.786 277.317 352.436 278.831 342.032 278.818C331.635 278.81 321.292 277.329 311.312 274.417L302.958 271.901C310.521 287.248 326.198 296.915 343.307 296.781C360.416 296.648 375.94 286.736 383.261 271.273Z" fill="url(#paint2_linear_10025_66199)"/>
<path d="M367.722 257.17L384.429 252.23C385.539 251.921 386.698 251.83 387.842 251.961V251.871C387.807 246.083 386.679 240.354 384.519 234.984L372.752 238.397C362.786 241.387 352.436 242.901 342.032 242.888C331.635 242.88 321.292 241.399 311.312 238.487L301.252 235.523C299.113 240.708 298.015 246.263 298.018 251.871V252.051C298.561 252.066 299.102 252.127 299.635 252.231L316.432 257.171C333.171 262.111 350.982 262.111 367.722 257.17Z" fill="url(#paint3_linear_10025_66199)"/>
<path d="M477.667 251.872C477.642 274.522 474.128 297.032 467.247 318.612L486.829 316.277C520.499 194.922 455.397 68.0412 337.181 24.6172L335.205 30.0062L331.073 41.5042C419.239 73.9192 477.786 157.936 477.667 251.872Z" fill="url(#paint4_linear_10025_66199)"/>
<path d="M419.581 189.44C453.094 230.594 448.04 290.887 408.142 325.887L447.485 321.126C485.884 214.78 431.181 97.3877 325.054 58.3887L283.645 173.005C326.001 141.024 386.068 148.286 419.581 189.44Z" fill="url(#paint5_linear_10025_66199)"/>
<path d="M367.722 221.242L373.83 219.445C356.419 202.659 328.798 202.818 311.582 219.804L316.433 221.241C333.171 226.183 350.982 226.183 367.722 221.242Z" fill="url(#paint6_linear_10025_66199)"/>
<path d="M420.269 372.865L197.774 411.22L184.929 446.611C206.809 454.435 229.869 458.445 253.106 458.468C319.285 458.204 381.374 426.409 420.269 372.865Z" fill="url(#paint7_linear_10025_66199)"/>
<path d="M253.105 476.434C227.784 476.419 202.656 472.043 178.82 463.499L172.622 480.655C286.106 520.582 411.705 471.26 467.696 364.781L444.701 368.733C403.795 435.39 331.312 476.134 253.105 476.434Z" fill="url(#paint8_linear_10025_66199)"/>
<path d="M205.858 335.768L310.952 44.3773C311.042 44.2883 310.952 44.1973 311.042 44.0183C311.132 43.8383 311.222 43.7493 311.311 43.5693L324.695 6.47131C325.419 4.40231 324.642 2.10531 322.809 0.902305C322.291 0.590305 321.706 0.405305 321.102 0.363305C319.306 0.357305 317.695 1.46731 317.06 3.14831L308.347 23.9873L119.716 480.206C116.486 487.847 119.26 496.703 126.273 501.135C130.203 503.583 135.042 504.08 139.387 502.482C143.996 500.838 147.624 497.211 149.268 492.601L164.987 449.036V448.767C165.077 448.677 165.077 448.587 165.167 448.498L205.588 336.397C205.678 336.217 205.768 335.947 205.858 335.768Z" fill="url(#paint9_linear_10025_66199)"/>
<path d="M61.4201 368.464C39.8561 333.403 28.4731 293.033 28.5441 251.872C28.6531 127.895 129.129 27.4188 253.105 27.3098C264.264 27.4038 275.401 28.3048 286.43 30.0048L293.616 12.8488C280.238 10.5168 266.684 9.34478 253.105 9.34578C166.896 9.27678 87.1411 55.0128 43.6601 129.454C0.179096 203.895 -0.480904 295.832 41.9281 370.889L61.4201 368.464Z" fill="url(#paint10_linear_10025_66199)"/>
<path d="M504.255 335.229C503.404 333.648 501.739 332.677 499.943 332.714L213.313 368.015L204.78 391.729L501.83 340.619C503.537 340.243 504.718 338.681 504.615 336.936C504.591 336.35 504.469 335.773 504.255 335.229Z" fill="url(#paint11_linear_10025_66199)"/>
<path d="M111.542 425.951L88.5469 429.903C96.2479 436.955 104.378 443.525 112.889 449.575L119.985 432.508C117.111 430.353 114.326 428.197 111.542 425.951Z" fill="url(#paint12_linear_10025_66199)"/>
<path d="M46.5248 253.751C46.5288 254.082 46.5288 254.414 46.5338 254.746C47.0678 294.395 59.0888 333.062 81.1808 366.04L150.975 357.507L279.334 47.1616C270.638 45.9976 261.878 45.3676 253.105 45.2756C176.962 45.1636 106.949 87.0036 70.9788 154.115C54.5988 184.675 46.4948 218.213 46.5118 251.66C46.5118 251.731 46.5088 251.801 46.5088 251.872C46.5088 252.499 46.5198 253.125 46.5248 253.751Z" fill="url(#paint13_linear_10025_66199)"/>
<path d="M143.16 376.549L13.7229 392.448C6.20493 393.484 0.691929 400.044 0.967929 407.628C1.03693 412.428 3.20293 416.957 6.89593 420.024C10.3789 423.031 15.0279 424.317 19.5609 423.527L131.662 404.305L143.16 376.549Z" fill="url(#paint14_linear_10025_66199)"/>
</g>
<defs>
<linearGradient id="paint0_linear_10025_66199" x1="342.93" y1="171.029" x2="342.93" y2="332.713" gradientUnits="userSpaceOnUse">
<stop stop-color="#72707D"/>
<stop offset="1" stop-color="#101824"/>
</linearGradient>
<linearGradient id="paint1_linear_10025_66199" x1="258.855" y1="274.777" x2="258.855" y2="349.062" gradientUnits="userSpaceOnUse">
<stop stop-color="#72707D"/>
<stop offset="1" stop-color="#101824"/>
</linearGradient>
<linearGradient id="paint2_linear_10025_66199" x1="343.11" y1="271.273" x2="343.11" y2="296.783" gradientUnits="userSpaceOnUse">
<stop stop-color="#72707D"/>
<stop offset="1" stop-color="#101824"/>
</linearGradient>
<linearGradient id="paint3_linear_10025_66199" x1="342.93" y1="234.984" x2="342.93" y2="260.876" gradientUnits="userSpaceOnUse">
<stop stop-color="#72707D"/>
<stop offset="1" stop-color="#101824"/>
</linearGradient>
<linearGradient id="paint4_linear_10025_66199" x1="413.375" y1="24.6172" x2="413.375" y2="318.612" gradientUnits="userSpaceOnUse">
<stop stop-color="#72707D"/>
<stop offset="1" stop-color="#101824"/>
</linearGradient>
<linearGradient id="paint5_linear_10025_66199" x1="371.701" y1="58.3887" x2="371.701" y2="325.887" gradientUnits="userSpaceOnUse">
<stop stop-color="#72707D"/>
<stop offset="1" stop-color="#101824"/>
</linearGradient>
<linearGradient id="paint6_linear_10025_66199" x1="342.706" y1="206.959" x2="342.706" y2="224.947" gradientUnits="userSpaceOnUse">
<stop stop-color="#72707D"/>
<stop offset="1" stop-color="#101824"/>
</linearGradient>
<linearGradient id="paint7_linear_10025_66199" x1="302.599" y1="372.865" x2="302.599" y2="458.468" gradientUnits="userSpaceOnUse">
<stop stop-color="#72707D"/>
<stop offset="1" stop-color="#101824"/>
</linearGradient>
<linearGradient id="paint8_linear_10025_66199" x1="320.159" y1="364.781" x2="320.159" y2="494.434" gradientUnits="userSpaceOnUse">
<stop stop-color="#72707D"/>
<stop offset="1" stop-color="#101824"/>
</linearGradient>
<linearGradient id="paint9_linear_10025_66199" x1="221.67" y1="0.363281" x2="221.67" y2="503.405" gradientUnits="userSpaceOnUse">
<stop stop-color="#72707D"/>
<stop offset="1" stop-color="#101824"/>
</linearGradient>
<linearGradient id="paint10_linear_10025_66199" x1="152.098" y1="9.3457" x2="152.098" y2="370.889" gradientUnits="userSpaceOnUse">
<stop stop-color="#72707D"/>
<stop offset="1" stop-color="#101824"/>
</linearGradient>
<linearGradient id="paint11_linear_10025_66199" x1="354.7" y1="332.713" x2="354.7" y2="391.729" gradientUnits="userSpaceOnUse">
<stop stop-color="#72707D"/>
<stop offset="1" stop-color="#101824"/>
</linearGradient>
<linearGradient id="paint12_linear_10025_66199" x1="104.266" y1="425.951" x2="104.266" y2="449.575" gradientUnits="userSpaceOnUse">
<stop stop-color="#72707D"/>
<stop offset="1" stop-color="#101824"/>
</linearGradient>
<linearGradient id="paint13_linear_10025_66199" x1="162.921" y1="45.2754" x2="162.921" y2="366.04" gradientUnits="userSpaceOnUse">
<stop stop-color="#72707D"/>
<stop offset="1" stop-color="#101824"/>
</linearGradient>
<linearGradient id="paint14_linear_10025_66199" x1="72.059" y1="376.549" x2="72.059" y2="423.755" gradientUnits="userSpaceOnUse">
<stop stop-color="#72707D"/>
<stop offset="1" stop-color="#101824"/>
</linearGradient>
<clipPath id="clip0_10025_66199">
<rect width="503.662" height="503.662" fill="white" transform="translate(0.958008 0.0527344)"/>
</clipPath>
</defs>
</svg>
