<svg width="513" height="512" viewBox="0 0 513 512" fill="none" xmlns="http://www.w3.org/2000/svg">
<g clip-path="url(#clip0_10025_66249)">
<path d="M161.093 323.701C160.32 323.537 159.533 323.454 158.743 323.455C154.827 323.687 151.118 325.292 148.268 327.988C143.134 332.833 139.648 339.166 138.301 346.096C135.293 360.229 140.647 373.846 149.993 375.838C154.702 376.471 159.44 374.888 162.822 371.55C167.955 366.704 171.439 360.371 172.785 353.442C175.793 339.309 170.439 325.693 161.093 323.701Z" fill="url(#paint0_linear_10025_66249)"/>
<path d="M204.513 252.647C204.216 252.594 203.915 252.567 203.613 252.568C199.392 252.568 195.005 257.526 193.917 263.801C193.249 267.246 193.746 270.816 195.33 273.947C196.137 276.005 197.96 277.492 200.137 277.869C202.314 278.246 204.532 277.459 205.984 275.793C208.529 273.38 210.199 270.189 210.73 266.722V266.718C211.398 263.273 210.901 259.703 209.318 256.572C208.372 254.619 206.614 253.183 204.513 252.647Z" fill="url(#paint1_linear_10025_66249)"/>
<path d="M413.834 311.847C404.011 290.07 392.32 269.185 378.892 249.426C366.117 229.303 356.133 207.539 349.213 184.73C343.572 165.977 333.201 148.99 319.096 135.405C307.969 126.399 294.345 121.026 280.065 120.012C290.489 101.713 308.121 66.032 308.121 33.825C308.121 29.112 304.301 25.292 299.588 25.292C295.718 25.324 292.369 27.993 291.473 31.758C282.293 25.57 271.203 22.872 260.206 24.149C256.861 21.468 253.364 18.983 249.73 16.708C239.044 9.35403 227.049 4.11503 214.392 1.27503C188.596 -2.64997 162.263 3.15503 140.509 17.562C122.743 28.291 108.21 43.624 98.4504 61.939C93.4404 71.487 89.9924 81.775 88.2374 92.414C85.2994 110.356 85.2954 121.202 88.2284 124.656C89.8684 126.574 92.2634 127.683 94.7874 127.693C100.504 127.693 232.475 126.629 263.27 41.029C273.649 39.703 283.753 44.99 288.58 54.274C282.725 77.079 273.403 98.849 260.941 118.824C235.639 117.262 211.174 128.177 195.433 148.047C181.005 167.609 168.619 188.598 158.47 210.685C150.268 226.499 141.148 241.819 131.158 256.569C110.683 288.098 89.5124 320.706 86.5164 361.427C85.4334 396.056 97.7974 429.759 121.016 455.473C137.761 475.031 158.978 490.261 182.866 499.869C209.904 510.802 235.708 511.694 264.225 511.694C310.392 511.694 351.504 498.957 377.025 476.744C400.84 456.23 417.564 428.714 424.808 398.127C430.677 368.94 426.822 338.634 413.834 311.847ZM189.475 356.993C187.395 367.521 182.007 377.109 174.096 384.359C168.131 389.848 160.367 392.969 152.263 393.138C150.307 393.14 148.356 392.936 146.442 392.53C127.73 388.547 116.588 366.122 121.609 342.547C123.693 332.019 129.082 322.43 136.992 315.176C144.386 308.213 154.651 305.182 164.642 307.01C183.354 310.993 194.496 333.413 189.475 356.993ZM227.546 269.643C226.364 276.933 222.748 283.608 217.288 288.58C212.825 292.641 207.03 294.928 200.996 295.009C199.729 295.009 198.465 294.9 197.217 294.684C189.988 293.299 183.786 288.69 180.375 282.167C176.91 275.643 175.756 268.139 177.1 260.875C178.68 245.648 192.178 234.501 207.429 235.829C214.657 237.217 220.858 241.825 224.271 248.346C227.736 254.872 228.89 262.378 227.546 269.643ZM333.55 428.064C333.455 428.599 333.282 429.117 333.037 429.602C332.85 430.146 332.59 430.664 332.266 431.14C331.952 431.587 331.611 432.014 331.245 432.419C327.88 435.719 322.493 435.719 319.128 432.419C315.828 429.054 315.828 423.667 319.128 420.302C321.569 417.841 325.257 417.101 328.458 418.431C331.659 419.76 333.739 422.894 333.719 426.36C333.701 426.93 333.644 427.5 333.55 428.064ZM336.196 352.034C338.637 349.572 342.325 348.833 345.527 350.162C348.729 351.491 350.808 354.626 350.788 358.093C350.772 358.637 350.715 359.179 350.617 359.714C350.535 360.278 350.362 360.826 350.104 361.335C349.917 361.879 349.657 362.397 349.333 362.873C348.996 363.298 348.654 363.723 348.312 364.152C344.947 367.452 339.56 367.452 336.195 364.152C335.854 363.723 335.512 363.298 335.17 362.873C334.846 362.397 334.587 361.88 334.399 361.335C334.141 360.827 333.969 360.279 333.891 359.714C333.791 359.179 333.734 358.637 333.72 358.093C333.753 355.833 334.637 353.669 336.196 352.034ZM342.254 400.759C338.804 400.745 335.698 398.663 334.375 395.477C333.052 392.29 333.769 388.621 336.195 386.167C339.592 382.946 344.915 382.946 348.312 386.167C350.773 388.608 351.513 392.296 350.184 395.498C348.855 398.7 345.721 400.779 342.254 400.759ZM367.171 421.068C366.777 422.122 366.166 423.081 365.379 423.885C362.014 427.185 356.627 427.185 353.262 423.885C352.472 423.083 351.86 422.123 351.466 421.068C351.03 420.042 350.799 418.941 350.787 417.826C350.787 413.113 354.607 409.293 359.32 409.293C364.033 409.293 367.853 413.113 367.853 417.826C367.841 418.941 367.609 420.042 367.171 421.068ZM382.446 389.751C381.615 390.503 380.663 391.109 379.629 391.543C378.603 391.98 377.502 392.212 376.387 392.226C374.125 392.208 371.956 391.322 370.328 389.751C367.015 386.411 367.03 381.021 370.36 377.699C373.691 374.377 379.081 374.377 382.412 377.699C385.744 381.021 385.758 386.412 382.446 389.751ZM382.446 355.618C379.55 358.571 374.97 359.062 371.514 356.789C368.058 354.517 366.694 350.117 368.258 346.288C369.822 342.459 373.876 340.273 377.935 341.069C381.993 341.866 384.92 345.423 384.921 349.559C384.887 351.818 384.003 353.981 382.446 355.618Z" fill="url(#paint2_linear_10025_66249)"/>
</g>
<defs>
<linearGradient id="paint0_linear_10025_66249" x1="155.543" y1="323.455" x2="155.543" y2="375.975" gradientUnits="userSpaceOnUse">
<stop stop-color="#72707D"/>
<stop offset="1" stop-color="#101824"/>
</linearGradient>
<linearGradient id="paint1_linear_10025_66249" x1="202.324" y1="252.568" x2="202.324" y2="277.962" gradientUnits="userSpaceOnUse">
<stop stop-color="#72707D"/>
<stop offset="1" stop-color="#101824"/>
</linearGradient>
<linearGradient id="paint2_linear_10025_66249" x1="256.756" y1="0.078125" x2="256.756" y2="511.694" gradientUnits="userSpaceOnUse">
<stop stop-color="#72707D"/>
<stop offset="1" stop-color="#101824"/>
</linearGradient>
<clipPath id="clip0_10025_66249">
<rect width="511.614" height="511.614" fill="white" transform="translate(0.950195 0.078125)"/>
</clipPath>
</defs>
</svg>
