<svg width="52" height="52" viewBox="0 0 52 52" fill="none" xmlns="http://www.w3.org/2000/svg">
<g id="Group">
<g id="Group_2">
<path id="Vector" d="M50.727 23.4296L41.5819 21.3822L40.6102 12.8156C40.5257 12.0616 39.9342 11.4669 39.1803 11.3857L30.7534 10.4335L29.7492 1.44437C29.6972 0.999141 29.4664 0.592909 29.1057 0.326421C28.7482 0.0566833 28.2965 -0.0570616 27.8513 0.0274346L18.6607 1.65236C18.0724 1.75636 17.5915 2.16909 17.3997 2.73456L8.32938 29.8807L4.00382 34.2063L2.85337 35.3567C1.01395 37.196 0 39.6464 0 42.2495C0 44.8527 1.01395 47.3031 2.85662 49.1425C4.69604 50.9852 7.14643 51.9991 9.74957 51.9991C12.3527 51.9991 14.8031 50.9852 16.6425 49.1425L17.793 47.992L22.1185 43.6665L49.2646 34.5961C49.8138 34.4109 50.2265 33.9462 50.3435 33.3774L51.9684 25.3373C52.1407 24.4729 51.5914 23.6246 50.727 23.4296ZM30.0417 13.6184L37.5261 14.4666L38.3775 21.9543L17.9619 36.6761L15.3198 34.034L30.0417 13.6184ZM20.1751 4.68133L26.7106 3.52763L27.5945 11.4573L12.9929 31.707L11.6085 30.3226L20.1751 4.68133ZM5.15427 46.8448C3.92582 45.6164 3.24986 43.9851 3.24986 42.2495C3.24986 40.514 3.92582 38.8827 5.15427 37.6543L14.3449 46.8448C11.888 49.3017 7.61116 49.3017 5.15427 46.8448ZM16.6425 44.5472L7.45192 35.3566L9.74957 33.0557L18.9434 42.2495L16.6425 44.5472ZM47.3406 31.8143L21.6765 40.3906L20.2921 39.0062L40.4574 24.4631L48.4651 26.2538L47.3406 31.8143Z" fill="#3899CF"/>
</g>
</g>
</svg>
