<svg fill="none" height="24" viewBox="0 0 24 24" width="24" xmlns="http://www.w3.org/2000/svg"><g fill="rgb(0,0,0)"><path d="m4 7c0-2.76142 2.23858-5 5-5 2.7614 0 5 2.23858 5 5s-2.2386 5-5 5c-2.76142 0-5-2.23858-5-5z"/><path d="m20 8c0-.55228-.4477-1-1-1s-1 .44772-1 1v2h-2c-.5523 0-1 .4477-1 1s.4477 1 1 1h2v2c0 .5523.4477 1 1 1s1-.4477 1-1v-2h2c.5523 0 1-.4477 1-1s-.4477-1-1-1h-2z"/><path d="m6 14c-1.32608 0-2.59785.5268-3.53553 1.4645-.93769.9376-1.46447 2.2094-1.46447 3.5355v2c0 .5523.44772 1 1 1h14c.5523 0 1-.4477 1-1v-2c0-1.3261-.5268-2.5979-1.4645-3.5355-.9376-.9377-2.2094-1.4645-3.5355-1.4645z"/></g></svg>