<svg xmlns="http://www.w3.org/2000/svg" width="186" height="81" viewBox="0 0 186 81" fill="none">
<g clip-path="url(#clip0_11315_130937)">
<path fill-rule="evenodd" clip-rule="evenodd" d="M76.3901 0.828613H82.6594L83.1277 19.0384L80.2401 34.4647H76.338L76.3901 0.828613ZM84.5455 0.828613H85.1178L85.638 5.22498L84.7015 10.2847L84.5455 0.828613ZM88.4476 0.828613H91.2441L93.9365 18.206L93.1951 34.4647H91.5822L87.5631 5.22498L88.4476 0.828613ZM93.1821 0.828613H94.6259L94.3527 8.29463L93.1821 0.828613ZM96.5249 0.828613H99.0352C99.0352 7.124 99.0352 28.6636 99.0352 34.4647H98.3329L95.7315 18.0109L96.5249 0.828613ZM96.4078 34.4647H94.951L95.2892 27.662L96.3558 34.4647H96.4078ZM89.7483 34.4647H85.4559L85.0527 19.1034L86.6006 11.0391L89.7483 34.4647ZM83.5829 34.4647H82.1132L83.3488 27.9612L83.5179 34.4647H83.5829ZM100.973 0.828613H102.352L100.934 17.5816L100.973 0.828613ZM104.355 0.828613H109.558V34.4647H101.246L104.355 0.828613ZM6.56853 61.3892C6.53797 62.2563 6.1675 63.0766 5.53716 63.6729C4.90682 64.2691 4.06722 64.5935 3.19972 64.5759C2.48437 64.5865 1.78505 64.3637 1.20769 63.9412C0.630315 63.5188 0.206348 62.9196 0 62.2346L0.598322 61.9355C1.26168 63.3532 1.99007 63.8995 3.19972 63.8995C3.88965 63.8995 4.55133 63.6254 5.03919 63.1376C5.52704 62.6497 5.80112 61.9881 5.80112 61.2981C5.79224 60.953 5.68945 60.6169 5.50382 60.3258C5.31818 60.0348 5.05672 59.7998 4.74755 59.6462C4.50042 59.5032 4.14923 59.295 3.65497 59.0609L3.3558 58.9178L3.08266 58.7878L2.77049 58.6447C1.09259 57.8253 0.637343 57.2139 0.637343 55.9653C0.625672 55.6024 0.690072 55.2412 0.8264 54.9047C0.962727 54.5683 1.16797 54.2641 1.42891 54.0117C1.68986 53.7593 2.00074 53.5644 2.34156 53.4393C2.68238 53.3143 3.04559 53.262 3.40783 53.2858C3.94238 53.2849 4.46707 53.4297 4.92544 53.7047C5.38381 53.9797 5.75851 54.3745 6.00923 54.8467L5.48895 55.2759C5.29722 54.8788 4.9955 54.5452 4.61966 54.3146C4.24381 54.084 3.80966 53.9662 3.36881 53.9752C3.09853 53.9734 2.83063 54.0259 2.58106 54.1297C2.33149 54.2334 2.10533 54.3863 1.91603 54.5793C1.72674 54.7722 1.57817 55.0012 1.47917 55.2527C1.38016 55.5043 1.33274 55.7731 1.33972 56.0433C1.33972 56.9408 1.76895 57.344 3.25175 58.1374C3.99467 58.4686 4.71584 58.8466 5.41091 59.269C5.77455 59.488 6.0734 59.7998 6.27683 60.1723C6.48025 60.5449 6.58093 60.9649 6.56853 61.3892ZM24.5702 64.3938H19.3674V53.4419H24.5702V54.0922H20.0958V58.0724H24.4662V58.7878H20.0958V63.8085H24.5702V64.3938ZM43.9506 53.4419L40.0485 64.836L36.1464 53.4419H36.9269L40.0876 62.6899L43.2092 53.4419H43.9506ZM61.302 64.3938H56.0992V53.4419H61.302V54.0922H56.8145V58.0724H61.1979V58.7878H56.8145V63.8085H61.302V64.3938ZM83.9081 64.6799L74.8032 55.0548V64.4068H74.1399V53.3248L83.2448 62.95V53.4419H83.9471L83.9081 64.6799ZM107.022 56.5246C107.022 58.4366 105.721 59.5942 103.588 59.5942H102.534V64.3938H101.324V53.4419H103.289C104.26 53.3303 105.237 53.606 106.007 54.2093C106.333 54.4995 106.592 54.8565 106.767 55.2561C106.942 55.6557 107.029 56.0884 107.022 56.5246ZM105.825 56.5246C105.825 55.2239 105.018 54.5995 103.432 54.5995H102.534V58.5016H103.51C105.005 58.5016 105.825 57.7732 105.825 56.5116V56.5246ZM127.052 64.4198H125.752L124.451 61.3241H119.82L118.52 64.4198H117.219L122.201 52.9346L127.052 64.4198ZM123.97 60.1795L122.175 55.7962L120.328 60.1795H123.97ZM143.233 64.4198H139.045V53.4419H140.267V63.2622H143.233V64.4198ZM166.815 64.4198H165.514L164.512 56.7977L160.831 64.8881L157.19 56.7977L156.123 64.4198H154.822L156.617 52.8566L160.766 62.1046L165.189 52.8176L166.854 64.3938L166.815 64.4198ZM186 61.2071C186.003 61.655 185.918 62.099 185.747 62.5134C185.577 62.9277 185.326 63.3039 185.009 63.62C184.692 63.9361 184.314 64.1857 183.899 64.3543C183.484 64.5229 183.04 64.6071 182.592 64.6019C181.782 64.6228 180.993 64.3455 180.375 63.8228C179.756 63.3 179.351 62.5682 179.236 61.7664L180.407 61.4412C180.45 61.9875 180.697 62.4975 181.1 62.869C181.503 63.2404 182.031 63.4459 182.579 63.4443C182.866 63.453 183.153 63.4039 183.42 63.3C183.688 63.196 183.933 63.0393 184.139 62.8391C184.345 62.639 184.509 62.3994 184.621 62.1347C184.733 61.87 184.79 61.5855 184.79 61.2981C184.797 60.9809 184.717 60.6679 184.559 60.3928C184.401 60.1178 184.17 59.8911 183.893 59.7373C183.585 59.5566 183.268 59.3917 182.943 59.243L182.618 59.0739L182.306 58.9309L181.981 58.7748C180.42 58.0724 179.783 57.305 179.783 56.0693C179.791 55.6827 179.877 55.3016 180.036 54.949C180.194 54.5964 180.423 54.2794 180.707 54.0171C180.991 53.7548 181.325 53.5525 181.689 53.4224C182.054 53.2923 182.44 53.237 182.826 53.2598C183.404 53.2518 183.972 53.4076 184.464 53.7092C184.957 54.0107 185.354 54.4457 185.61 54.9637L184.647 55.5881C184.493 55.2262 184.232 54.9196 183.9 54.7083C183.569 54.4971 183.181 54.3912 182.787 54.4044C182.558 54.3939 182.329 54.4298 182.114 54.5099C181.899 54.59 181.703 54.7126 181.536 54.8705C181.37 55.0284 181.237 55.2183 181.146 55.4288C181.055 55.6392 181.007 55.8659 181.005 56.0953C181.006 56.3343 181.068 56.5691 181.187 56.7766C181.306 56.9841 181.476 57.1572 181.682 57.279C181.954 57.4509 182.237 57.6073 182.527 57.7472L182.865 57.9033L183.204 58.0594L183.555 58.2025C185.285 58.9569 186 59.8543 186 61.2071ZM43.7035 78.5584C43.6866 78.9621 43.5125 79.3431 43.2184 79.6202C42.9244 79.8972 42.5336 80.0483 42.1297 80.0412C41.7971 80.0462 41.472 79.942 41.2042 79.7447C40.9364 79.5474 40.7406 79.2678 40.6469 78.9486L40.92 78.8055C41.2322 79.4689 41.5704 79.729 42.1297 79.729C42.2945 79.7396 42.4598 79.7167 42.6155 79.6616C42.7712 79.6065 42.9142 79.5205 43.0357 79.4087C43.1573 79.2968 43.2549 79.1615 43.3228 79.0109C43.3906 78.8603 43.4272 78.6975 43.4304 78.5324C43.4279 78.3694 43.3804 78.2102 43.2932 78.0725C43.206 77.9348 43.0824 77.8239 42.9361 77.752L42.4288 77.4788L42.1427 77.3357C41.2192 76.8935 40.998 76.6074 40.998 76.035C40.998 75.6901 41.1351 75.3592 41.379 75.1153C41.6229 74.8714 41.9538 74.7343 42.2987 74.7343C42.5513 74.7238 42.8014 74.7871 43.0185 74.9165C43.2357 75.0458 43.4104 75.2357 43.5214 75.4627L43.2873 75.6708C43.1958 75.4842 43.0529 75.3276 42.8755 75.2193C42.6981 75.1111 42.4935 75.0556 42.2857 75.0595C42.1605 75.0595 42.0366 75.0845 41.9212 75.1332C41.8059 75.1819 41.7015 75.2532 41.6142 75.3429C41.5268 75.4327 41.4584 75.539 41.4129 75.6557C41.3674 75.7723 41.3458 75.8969 41.3492 76.022C41.3492 76.4383 41.5443 76.6594 42.2337 76.9976C42.5815 77.1516 42.9202 77.3253 43.2483 77.5178C43.4081 77.6367 43.5342 77.7952 43.614 77.9777C43.6939 78.1602 43.7247 78.3603 43.7035 78.5584ZM52.2101 79.9632H49.7908V74.8514H52.2101V75.1506H50.1159V76.9976H52.158V77.3097H50.1159V79.599H52.2101V79.9111V79.9632ZM62.8628 80.0932L58.6225 75.5928V79.9632H58.2973V74.7604L62.5376 79.2478V74.8514H62.8628V80.0542V80.0932ZM71.5385 75.1506H70.2378V79.9632H69.9126V75.1506H68.6119V74.8514H71.5385V75.1506ZM81.9441 77.4138C81.9441 77.9283 81.7915 78.4313 81.5056 78.859C81.2198 79.2868 80.8135 79.6203 80.3382 79.8172C79.8628 80.0141 79.3398 80.0656 78.8352 79.9652C78.3305 79.8648 77.867 79.6171 77.5032 79.2533C77.1394 78.8894 76.8916 78.4259 76.7912 77.9213C76.6909 77.4167 76.7424 76.8936 76.9393 76.4183C77.1362 75.9429 77.4696 75.5367 77.8974 75.2508C78.3252 74.965 78.8282 74.8124 79.3427 74.8124C80.0326 74.8124 80.6943 75.0865 81.1821 75.5743C81.67 76.0622 81.9441 76.7239 81.9441 77.4138ZM81.5929 77.4138C81.5851 76.9642 81.4444 76.527 81.1885 76.1574C80.9326 75.7877 80.5729 75.5021 80.1549 75.3366C79.7368 75.1711 79.2791 75.1331 78.8395 75.2274C78.3999 75.3217 77.9981 75.5441 77.6847 75.8665C77.3713 76.1889 77.1605 76.5969 77.0787 77.0391C76.9969 77.4812 77.048 77.9376 77.2253 78.3508C77.4027 78.764 77.6984 79.1153 78.0752 79.3606C78.452 79.6059 78.8931 79.7341 79.3427 79.729C79.6461 79.729 79.9465 79.6691 80.2267 79.5526C80.5069 79.436 80.7613 79.2653 80.9752 79.0501C81.1892 78.835 81.3585 78.5796 81.4734 78.2988C81.5883 78.018 81.6466 77.7172 81.6449 77.4138H81.5929ZM90.8148 78.5584C90.7979 78.9621 90.6238 79.3431 90.3298 79.6202C90.0357 79.8972 89.645 80.0483 89.241 80.0412C88.9067 80.0469 88.5797 79.9432 88.3097 79.746C88.0397 79.5488 87.8415 79.2688 87.7452 78.9486L88.0183 78.8055C88.3305 79.4689 88.6817 79.729 89.241 79.729C89.3998 79.7307 89.5575 79.7012 89.7049 79.642C89.8523 79.5827 89.9866 79.4951 90.1002 79.3839C90.2137 79.2728 90.3042 79.1404 90.3666 78.9943C90.429 78.8482 90.4619 78.6912 90.4636 78.5324C90.461 78.3711 90.4149 78.2134 90.3302 78.0761C90.2455 77.9387 90.1253 77.8268 89.9824 77.752L89.4751 77.4788L89.189 77.3357C88.2524 76.8935 88.0443 76.6074 88.0443 76.035C88.0443 75.6901 88.1814 75.3592 88.4253 75.1153C88.6692 74.8714 89.0001 74.7343 89.345 74.7343C89.5976 74.7238 89.8477 74.7871 90.0648 74.9165C90.282 75.0458 90.4567 75.2357 90.5677 75.4627L90.3336 75.6708C90.2443 75.4853 90.1038 75.3291 89.9286 75.2208C89.7534 75.1125 89.551 75.0565 89.345 75.0595C89.2188 75.0577 89.0934 75.0815 88.9765 75.1294C88.8596 75.1773 88.7537 75.2483 88.665 75.3382C88.5763 75.4282 88.5067 75.5351 88.4604 75.6526C88.4141 75.7701 88.392 75.8958 88.3955 76.022C88.3955 76.4383 88.5906 76.6594 89.28 76.9976C89.6278 77.1516 89.9665 77.3253 90.2945 77.5178C90.475 77.6234 90.6235 77.7759 90.7243 77.9591C90.8251 78.1424 90.8743 78.3494 90.8669 78.5584H90.8148ZM100.466 79.9632H100.154L99.4775 78.2983H97.3313L96.655 79.9762H96.2518L98.3719 74.7734L100.479 79.9762L100.466 79.9632ZM99.3084 77.9731L98.3589 75.5538L97.3964 77.9731H99.3084ZM117.167 79.4039C116.706 79.8169 116.108 80.044 115.489 80.0412C114.791 80.0412 114.121 79.7637 113.627 79.2697C113.133 78.7758 112.855 78.1058 112.855 77.4073C112.855 76.7087 113.133 76.0388 113.627 75.5448C114.121 75.0509 114.791 74.7734 115.489 74.7734C116.112 74.7738 116.712 75.0109 117.167 75.4367V75.892C116.96 75.645 116.701 75.4462 116.409 75.3092C116.117 75.1722 115.799 75.1003 115.476 75.0985C115.093 75.0994 114.715 75.1954 114.378 75.3781C114.041 75.5608 113.754 75.8244 113.544 76.1452C113.334 76.466 113.207 76.834 113.174 77.2161C113.142 77.5982 113.204 77.9825 113.357 78.3343C113.509 78.6862 113.747 78.9947 114.048 79.2321C114.349 79.4695 114.705 79.6284 115.082 79.6944C115.46 79.7605 115.848 79.7317 116.212 79.6106C116.576 79.4895 116.904 79.2799 117.167 79.0006V79.4039ZM128.119 77.4138C128.119 77.9283 127.966 78.4313 127.68 78.859C127.395 79.2868 126.988 79.6203 126.513 79.8172C126.038 80.0141 125.515 80.0656 125.01 79.9652C124.505 79.8648 124.042 79.6171 123.678 79.2533C123.314 78.8894 123.066 78.4259 122.966 77.9213C122.866 77.4167 122.917 76.8936 123.114 76.4183C123.311 75.9429 123.644 75.5367 124.072 75.2508C124.5 74.965 125.003 74.8124 125.517 74.8124C125.863 74.8055 126.207 74.8676 126.529 74.9953C126.851 75.1229 127.144 75.3134 127.391 75.5557C127.638 75.7979 127.834 76.0871 127.968 76.4061C128.102 76.7252 128.171 77.0677 128.171 77.4138H128.119ZM127.781 77.4138C127.773 76.9653 127.633 76.5291 127.378 76.16C127.124 75.7908 126.765 75.5052 126.349 75.3389C125.932 75.1725 125.476 75.133 125.037 75.2252C124.598 75.3174 124.196 75.5372 123.882 75.857C123.567 76.1768 123.354 76.5824 123.27 77.0229C123.185 77.4633 123.232 77.919 123.406 78.3326C123.579 78.7463 123.871 79.0995 124.244 79.348C124.617 79.5964 125.056 79.729 125.504 79.729C125.81 79.7325 126.113 79.6751 126.397 79.5601C126.68 79.4451 126.937 79.2749 127.154 79.0594C127.371 78.8439 127.542 78.5874 127.659 78.3049C127.775 78.0223 127.834 77.7194 127.833 77.4138H127.781ZM137.107 74.8124L135.312 80.1322L133.465 74.8124H133.829L135.312 79.1307L136.756 74.8124H137.107ZM145.301 79.9241H142.947V74.8514H145.353V75.1506H143.272V76.9976H145.314V77.3097H143.272V79.599H145.353L145.301 79.9241Z" fill="white"/>
</g>
<defs>
<clipPath id="clip0_11315_130937">
<rect width="186" height="79.3427" fill="white" transform="translate(0 0.828613)"/>
</clipPath>
</defs>
</svg>