<svg xmlns="http://www.w3.org/2000/svg" width="213" height="214" viewBox="0 0 213 214" fill="none">
  <g clip-path="url(#clip0_11315_130607)">
    <path d="M212.17 0.0380859H0.830322V213.438H212.17V0.0380859Z" fill="white"/>
    <path d="M21.509 155.259H14.1147V162.72H21.509V155.259Z" fill="black"/>
    <path d="M28.8965 155.259H21.5022V162.72H28.8965V155.259Z" fill="black"/>
    <path d="M36.2893 155.259H28.895V162.72H36.2893V155.259Z" fill="black"/>
    <path d="M43.678 147.798H36.2837V155.259H43.678V147.798Z" fill="black"/>
    <path d="M43.678 170.188H36.2837V177.648H43.678V170.188Z" fill="black"/>
    <path d="M58.4653 155.259H51.071V162.72H58.4653V155.259Z" fill="black"/>
    <path d="M21.509 162.727H14.1147V170.188H21.509V162.727Z" fill="black"/>
    <path d="M43.678 162.727H36.2837V170.188H43.678V162.727Z" fill="black"/>
    <path d="M21.509 170.188H14.1147V177.648H21.509V170.188Z" fill="black"/>
    <path d="M28.8962 162.727H21.502V170.188H28.8962V162.727Z" fill="black"/>
    <path d="M36.2893 185.116H28.895V192.577H36.2893V185.116Z" fill="black"/>
    <path d="M73.2468 192.577H65.8525V200.038H73.2468V192.577Z" fill="black"/>
    <path d="M21.509 177.648H14.1147V185.109H21.509V177.648Z" fill="black"/>
    <path d="M36.2893 177.648H28.895V185.109H36.2893V177.648Z" fill="black"/>
    <path d="M28.8962 185.116H21.502V192.577H28.8962V185.116Z" fill="black"/>
    <path d="M58.4653 177.648H51.071V185.109H58.4653V177.648Z" fill="black"/>
    <path d="M21.509 185.116H14.1147V192.577H21.509V185.116Z" fill="black"/>
    <path d="M36.2893 192.577H28.895V200.038H36.2893V192.577Z" fill="black"/>
    <path d="M43.678 192.577H36.2837V200.038H43.678V192.577Z" fill="black"/>
    <path d="M51.071 192.577H43.6768V200.038H51.071V192.577Z" fill="black"/>
    <path d="M58.4653 185.116H51.071V192.577H58.4653V185.116Z" fill="black"/>
    <path d="M21.509 192.577H14.1147V200.038H21.509V192.577Z" fill="black"/>
    <path d="M28.8962 192.577H21.502V200.038H28.8962V192.577Z" fill="black"/>
    <path d="M58.4653 192.577H51.071V200.038H58.4653V192.577Z" fill="black"/>
    <path d="M161.941 13.4373H154.547V20.898H161.941V13.4373Z" fill="black"/>
    <path d="M169.328 13.4373H161.934V20.898H169.328V13.4373Z" fill="black"/>
    <path d="M176.721 13.4373H169.327V20.898H176.721V13.4373Z" fill="black"/>
    <path d="M184.11 13.4373H176.715V20.898H184.11V13.4373Z" fill="black"/>
    <path d="M191.504 13.4373H184.11V20.898H191.504V13.4373Z" fill="black"/>
    <path d="M198.89 13.4373H191.496V20.898H198.89V13.4373Z" fill="black"/>
    <path d="M169.048 20.5288H161.654V27.9896H169.048V20.5288Z" fill="black"/>
    <path d="M198.89 20.8984H191.496V28.3592H198.89V20.8984Z" fill="black"/>
    <path d="M161.941 28.3591H154.547V35.8199H161.941V28.3591Z" fill="black"/>
    <path d="M176.721 28.3589H169.327V35.8197H176.721V28.3589Z" fill="black"/>
    <path d="M184.11 28.3589H176.715V35.8197H184.11V28.3589Z" fill="black"/>
    <path d="M198.89 28.3589H191.496V35.8197H198.89V28.3589Z" fill="black"/>
    <path d="M191.504 20.8767H184.11V28.3375H191.504V20.8767Z" fill="black"/>
    <path d="M176.721 35.8274H169.327V43.2882H176.721V35.8274Z" fill="black"/>
    <path d="M184.11 43.3098H176.715V50.7706H184.11V43.3098Z" fill="black"/>
    <path d="M198.89 35.8274H191.496V43.2882H198.89V35.8274Z" fill="black"/>
    <path d="M147.153 35.8274H139.759V43.2882H147.153V35.8274Z" fill="black"/>
    <path d="M176.721 50.749H169.327V58.2098H176.721V50.749Z" fill="black"/>
    <path d="M184.11 50.749H176.715V58.2098H184.11V50.749Z" fill="black"/>
    <path d="M191.504 50.749H184.11V58.2098H191.504V50.749Z" fill="black"/>
    <path d="M198.89 43.2878H191.496V50.7486H198.89V43.2878Z" fill="black"/>
    <path d="M161.941 50.749H154.547V58.2098H161.941V50.749Z" fill="black"/>
    <path d="M169.328 50.749H161.934V58.2098H169.328V50.749Z" fill="black"/>
    <path d="M198.89 50.749H191.496V58.2098H198.89V50.749Z" fill="black"/>
    <path d="M80.6314 13.4597H73.2371V20.9205H80.6314V13.4597Z" fill="black"/>
    <path d="M65.8525 13.4597H58.4583V20.9205H65.8525V13.4597Z" fill="black"/>
    <path d="M73.2468 13.4373H65.8525V20.898H73.2468V13.4373Z" fill="black"/>
    <path d="M95.4155 13.4597H88.0212V20.9205H95.4155V13.4597Z" fill="black"/>
    <path d="M102.81 13.4597H95.4155V20.9205H102.81V13.4597Z" fill="black"/>
    <path d="M154.547 13.4597H147.152V20.9205H154.547V13.4597Z" fill="black"/>
    <path d="M147.153 20.9204H139.759V28.3812H147.153V20.9204Z" fill="black"/>
    <path d="M191.504 162.727H184.11V170.188H191.504V162.727Z" fill="black"/>
    <path d="M184.11 155.259H176.715V162.72H184.11V155.259Z" fill="black"/>
    <path d="M176.721 162.727H169.327V170.188H176.721V162.727Z" fill="black"/>
    <path d="M102.81 20.9204H95.4155V28.3812H102.81V20.9204Z" fill="black"/>
    <path d="M110.203 20.9207H102.809V28.3814H110.203V20.9207Z" fill="black"/>
    <path d="M117.59 20.9207H110.196V28.3814H117.59V20.9207Z" fill="black"/>
    <path d="M124.983 20.9204H117.589V28.3812H124.983V20.9204Z" fill="black"/>
    <path d="M139.766 20.9204H132.372V28.3812H139.766V20.9204Z" fill="black"/>
    <path d="M139.766 13.4373H132.372V20.898H139.766V13.4373Z" fill="black"/>
    <path d="M88.0283 28.3816H80.634V35.8424H88.0283V28.3816Z" fill="black"/>
    <path d="M102.81 28.3816H95.4155V35.8424H102.81V28.3816Z" fill="black"/>
    <path d="M117.59 28.3816H110.196V35.8424H117.59V28.3816Z" fill="black"/>
    <path d="M132.372 28.3816H124.978V35.8424H132.372V28.3816Z" fill="black"/>
    <path d="M139.766 28.3816H132.372V35.8424H139.766V28.3816Z" fill="black"/>
    <path d="M154.547 28.3816H147.152V35.8424H154.547V28.3816Z" fill="black"/>
    <path d="M95.4155 35.8494H88.0212V43.3101H95.4155V35.8494Z" fill="black"/>
    <path d="M80.6314 28.3589H73.2371V35.8197H80.6314V28.3589Z" fill="black"/>
    <path d="M117.59 35.8494H110.196V43.3101H117.59V35.8494Z" fill="black"/>
    <path d="M132.372 35.8494H124.978V43.3101H132.372V35.8494Z" fill="black"/>
    <path d="M73.2468 20.9207H65.8525V28.3814H73.2468V20.9207Z" fill="black"/>
    <path d="M184.11 20.8984H176.715V28.3592H184.11V20.8984Z" fill="black"/>
    <path d="M184.11 147.798H176.715V155.259H184.11V147.798Z" fill="black"/>
    <path d="M95.4155 43.3098H88.0212V50.7706H95.4155V43.3098Z" fill="black"/>
    <path d="M102.81 43.3098H95.4155V50.7706H102.81V43.3098Z" fill="black"/>
    <path d="M110.203 43.3098H102.809V50.7706H110.203V43.3098Z" fill="black"/>
    <path d="M139.766 43.3098H132.372V50.7706H139.766V43.3098Z" fill="black"/>
    <path d="M73.2468 42.9629H65.8525V50.4237H73.2468V42.9629Z" fill="black"/>
    <path d="M80.6314 35.8494H73.2371V43.3101H80.6314V35.8494Z" fill="black"/>
    <path d="M102.81 50.7783H95.4155V58.2391H102.81V50.7783Z" fill="black"/>
    <path d="M154.547 50.7783H147.152V58.2391H154.547V50.7783Z" fill="black"/>
    <path d="M21.5093 13.4375H14.115V20.8983H21.5093V13.4375Z" fill="black"/>
    <path d="M28.8965 13.4373H21.5022V20.898H28.8965V13.4373Z" fill="black"/>
    <path d="M36.2893 13.4373H28.895V20.898H36.2893V13.4373Z" fill="black"/>
    <path d="M43.6777 13.4373H36.2834V20.898H43.6777V13.4373Z" fill="black"/>
    <path d="M51.071 13.4373H43.6768V20.898H51.071V13.4373Z" fill="black"/>
    <path d="M58.4653 13.4373H51.071V20.898H58.4653V13.4373Z" fill="black"/>
    <path d="M21.509 20.8984H14.1147V28.3592H21.509V20.8984Z" fill="black"/>
    <path d="M58.4653 20.8984H51.071V28.3592H58.4653V20.8984Z" fill="black"/>
    <path d="M21.509 28.3591H14.1147V35.8199H21.509V28.3591Z" fill="black"/>
    <path d="M36.2893 28.3589H28.895V35.8197H36.2893V28.3589Z" fill="black"/>
    <path d="M28.8962 27.9756H21.502V35.4364H28.8962V27.9756Z" fill="black"/>
    <path d="M28.8962 20.9207H21.502V28.3814H28.8962V20.9207Z" fill="black"/>
    <path d="M21.509 35.8274H14.1147V43.2882H21.509V35.8274Z" fill="black"/>
    <path d="M36.2893 35.8274H28.895V43.2882H36.2893V35.8274Z" fill="black"/>
    <path d="M43.678 35.8274H36.2837V43.2882H43.678V35.8274Z" fill="black"/>
    <path d="M28.8965 43.3098H21.5022V50.7706H28.8965V43.3098Z" fill="black"/>
    <path d="M21.509 43.2878H14.1147V50.7486H21.509V43.2878Z" fill="black"/>
    <path d="M36.2893 50.749H28.895V58.2098H36.2893V50.749Z" fill="black"/>
    <path d="M43.678 50.749H36.2837V58.2098H43.678V50.749Z" fill="black"/>
    <path d="M51.071 50.749H43.6768V58.2098H51.071V50.749Z" fill="black"/>
    <path d="M58.4653 42.9629H51.071V50.4237H58.4653V42.9629Z" fill="black"/>
    <path d="M21.509 50.749H14.1147V58.2098H21.509V50.749Z" fill="black"/>
    <path d="M28.8962 50.749H21.502V58.2098H28.8962V50.749Z" fill="black"/>
    <path d="M65.8525 42.9629H58.4583V50.4237H65.8525V42.9629Z" fill="black"/>
    <path d="M80.6314 58.239H73.2371V65.6998H80.6314V58.239Z" fill="black"/>
    <path d="M95.4155 58.239H88.0212V65.6998H95.4155V58.239Z" fill="black"/>
    <path d="M110.203 58.239H102.809V65.6998H110.203V58.239Z" fill="black"/>
    <path d="M124.983 58.239H117.589V65.6998H124.983V58.239Z" fill="black"/>
    <path d="M139.766 58.239H132.372V65.6998H139.766V58.239Z" fill="black"/>
    <path d="M147.153 50.749H139.759V58.2098H147.153V50.749Z" fill="black"/>
    <path d="M169.328 73.1677H161.934V80.6285H169.328V73.1677Z" fill="black"/>
    <path d="M198.89 65.6924H191.496V73.1532H198.89V65.6924Z" fill="black"/>
    <path d="M198.89 58.2244H191.496V65.6851H198.89V58.2244Z" fill="black"/>
    <path d="M184.11 58.239H176.715V65.6998H184.11V58.239Z" fill="black"/>
    <path d="M191.504 65.6997H184.11V73.1605H191.504V65.6997Z" fill="black"/>
    <path d="M80.6314 65.6997H73.2371V73.1605H80.6314V65.6997Z" fill="black"/>
    <path d="M88.0283 65.6997H80.634V73.1605H88.0283V65.6997Z" fill="black"/>
    <path d="M110.203 65.7H102.809V73.1607H110.203V65.7Z" fill="black"/>
    <path d="M117.59 65.7H110.196V73.1607H117.59V65.7Z" fill="black"/>
    <path d="M21.509 73.1677H14.1147V80.6285H21.509V73.1677Z" fill="black"/>
    <path d="M28.8962 73.1677H21.502V80.6285H28.8962V73.1677Z" fill="black"/>
    <path d="M43.678 73.1677H36.2837V80.6285H43.678V73.1677Z" fill="black"/>
    <path d="M51.071 73.1677H43.6768V80.6285H51.071V73.1677Z" fill="black"/>
    <path d="M65.8525 73.1677H58.4583V80.6285H65.8525V73.1677Z" fill="black"/>
    <path d="M36.2893 58.239H28.895V65.6998H36.2893V58.239Z" fill="black"/>
    <path d="M43.678 65.6924H36.2837V73.1532H43.678V65.6924Z" fill="black"/>
    <path d="M88.0283 73.1677H80.634V80.6285H88.0283V73.1677Z" fill="black"/>
    <path d="M110.203 73.1677H102.809V80.6285H110.203V73.1677Z" fill="black"/>
    <path d="M124.983 73.1677H117.589V80.6285H124.983V73.1677Z" fill="black"/>
    <path d="M132.372 73.1677H124.978V80.6285H132.372V73.1677Z" fill="black"/>
    <path d="M154.547 73.1677H147.152V80.6285H154.547V73.1677Z" fill="black"/>
    <path d="M198.89 73.1677H191.496V80.6285H198.89V73.1677Z" fill="black"/>
    <path d="M21.509 80.6294H14.1147V88.0902H21.509V80.6294Z" fill="black"/>
    <path d="M28.8962 65.7H21.502V73.1607H28.8962V65.7Z" fill="black"/>
    <path d="M28.8962 80.6294H21.502V88.0902H28.8962V80.6294Z" fill="black"/>
    <path d="M21.509 58.239H14.1147V65.6998H21.509V58.239Z" fill="black"/>
    <path d="M36.2893 80.6294H28.895V88.0902H36.2893V80.6294Z" fill="black"/>
    <path d="M51.071 80.6294H43.6768V88.0902H51.071V80.6294Z" fill="black"/>
    <path d="M58.4653 80.6294H51.071V88.0902H58.4653V80.6294Z" fill="black"/>
    <path d="M73.2468 80.6294H65.8525V88.0902H73.2468V80.6294Z" fill="black"/>
    <path d="M95.4155 80.6294H88.0212V88.0902H95.4155V80.6294Z" fill="black"/>
    <path d="M117.59 80.6294H110.196V88.0902H117.59V80.6294Z" fill="black"/>
    <path d="M124.983 80.6294H117.589V88.0902H124.983V80.6294Z" fill="black"/>
    <path d="M132.372 80.6294H124.978V88.0902H132.372V80.6294Z" fill="black"/>
    <path d="M147.153 80.6294H139.759V88.0902H147.153V80.6294Z" fill="black"/>
    <path d="M161.941 80.6294H154.547V88.0902H161.941V80.6294Z" fill="black"/>
    <path d="M169.328 80.6294H161.934V88.0902H169.328V80.6294Z" fill="black"/>
    <path d="M176.721 80.6294H169.327V88.0902H176.721V80.6294Z" fill="black"/>
    <path d="M184.11 80.6294H176.715V88.0902H184.11V80.6294Z" fill="black"/>
    <path d="M191.504 80.6294H184.11V88.0902H191.504V80.6294Z" fill="black"/>
    <path d="M80.6314 42.9629H73.2371V50.4237H80.6314V42.9629Z" fill="black"/>
    <path d="M36.2893 88.0898H28.895V95.5506H36.2893V88.0898Z" fill="black"/>
    <path d="M51.071 88.0898H43.6768V95.5506H51.071V88.0898Z" fill="black"/>
    <path d="M65.8525 88.0898H58.4583V95.5506H65.8525V88.0898Z" fill="black"/>
    <path d="M73.2468 88.0898H65.8525V95.5506H73.2468V88.0898Z" fill="black"/>
    <path d="M80.6314 88.0898H73.2371V95.5506H80.6314V88.0898Z" fill="black"/>
    <path d="M88.0283 88.0898H80.634V95.5506H88.0283V88.0898Z" fill="black"/>
    <path d="M110.203 88.0898H102.809V95.5506H110.203V88.0898Z" fill="black"/>
    <path d="M132.372 88.0898H124.978V95.5506H132.372V88.0898Z" fill="black"/>
    <path d="M139.766 88.0898H132.372V95.5506H139.766V88.0898Z" fill="black"/>
    <path d="M154.547 88.0898H147.152V95.5506H154.547V88.0898Z" fill="black"/>
    <path d="M161.941 88.0898H154.547V95.5506H161.941V88.0898Z" fill="black"/>
    <path d="M176.721 88.0898H169.327V95.5506H176.721V88.0898Z" fill="black"/>
    <path d="M198.89 88.0898H191.496V95.5506H198.89V88.0898Z" fill="black"/>
    <path d="M21.509 95.5581H14.1147V103.019H21.509V95.5581Z" fill="black"/>
    <path d="M28.8962 95.5581H21.502V103.019H28.8962V95.5581Z" fill="black"/>
    <path d="M73.2468 95.5581H65.8525V103.019H73.2468V95.5581Z" fill="black"/>
    <path d="M80.6314 95.5581H73.2371V103.019H80.6314V95.5581Z" fill="black"/>
    <path d="M117.59 95.3364H110.196V102.797H117.59V95.3364Z" fill="black"/>
    <path d="M161.941 95.5581H154.547V103.019H161.941V95.5581Z" fill="black"/>
    <path d="M176.721 95.5581H169.327V103.019H176.721V95.5581Z" fill="black"/>
    <path d="M184.11 95.5581H176.715V103.019H184.11V95.5581Z" fill="black"/>
    <path d="M191.504 95.5581H184.11V103.019H191.504V95.5581Z" fill="black"/>
    <path d="M198.89 95.5581H191.496V103.019H198.89V95.5581Z" fill="black"/>
    <path d="M36.2893 103.019H28.895V110.479H36.2893V103.019Z" fill="black"/>
    <path d="M43.678 103.019H36.2837V110.48H43.678V103.019Z" fill="black"/>
    <path d="M65.8525 103.019H58.4583V110.479H65.8525V103.019Z" fill="black"/>
    <path d="M80.6314 103.019H73.2371V110.479H80.6314V103.019Z" fill="black"/>
    <path d="M88.0283 103.019H80.634V110.479H88.0283V103.019Z" fill="black"/>
    <path d="M95.4155 103.019H88.0212V110.479H95.4155V103.019Z" fill="black"/>
    <path d="M58.4653 35.4575H51.071V42.9183H58.4653V35.4575Z" fill="black"/>
    <path d="M132.372 103.019H124.978V110.48H132.372V103.019Z" fill="black"/>
    <path d="M154.547 103.019H147.152V110.479H154.547V103.019Z" fill="black"/>
    <path d="M198.89 103.019H191.496V110.479H198.89V103.019Z" fill="black"/>
    <path d="M21.509 110.48H14.1147V117.94H21.509V110.48Z" fill="black"/>
    <path d="M36.2893 110.48H28.895V117.941H36.2893V110.48Z" fill="black"/>
    <path d="M43.678 110.48H36.2837V117.94H43.678V110.48Z" fill="black"/>
    <path d="M58.4653 110.48H51.071V117.941H58.4653V110.48Z" fill="black"/>
    <path d="M73.2468 110.48H65.8525V117.94H73.2468V110.48Z" fill="black"/>
    <path d="M95.4155 110.48H88.0212V117.941H95.4155V110.48Z" fill="black"/>
    <path d="M110.203 110.48H102.809V117.94H110.203V110.48Z" fill="black"/>
    <path d="M124.983 110.48H117.589V117.941H124.983V110.48Z" fill="black"/>
    <path d="M132.372 110.48H124.978V117.94H132.372V110.48Z" fill="black"/>
    <path d="M139.766 110.48H132.372V117.941H139.766V110.48Z" fill="black"/>
    <path d="M147.153 110.48H139.759V117.941H147.153V110.48Z" fill="black"/>
    <path d="M198.89 132.869H191.496V140.33H198.89V132.869Z" fill="black"/>
    <path d="M198.89 140.337H191.496V147.798H198.89V140.337Z" fill="black"/>
    <path d="M21.509 117.948H14.1147V125.409H21.509V117.948Z" fill="black"/>
    <path d="M51.071 95.3364H43.6768V102.797H51.071V95.3364Z" fill="black"/>
    <path d="M43.678 117.948H36.2837V125.409H43.678V117.948Z" fill="black"/>
    <path d="M51.071 117.948H43.6768V125.408H51.071V117.948Z" fill="black"/>
    <path d="M58.4653 117.948H51.071V125.408H58.4653V117.948Z" fill="black"/>
    <path d="M65.8525 117.948H58.4583V125.408H65.8525V117.948Z" fill="black"/>
    <path d="M73.2468 117.948H65.8525V125.409H73.2468V117.948Z" fill="black"/>
    <path d="M88.0283 117.948H80.634V125.408H88.0283V117.948Z" fill="black"/>
    <path d="M124.983 117.948H117.589V125.408H124.983V117.948Z" fill="black"/>
    <path d="M132.372 117.948H124.978V125.409H132.372V117.948Z" fill="black"/>
    <path d="M147.153 117.948H139.759V125.408H147.153V117.948Z" fill="black"/>
    <path d="M154.547 117.948H147.152V125.408H154.547V117.948Z" fill="black"/>
    <path d="M169.328 117.948H161.934V125.409H169.328V117.948Z" fill="black"/>
    <path d="M176.721 117.948H169.327V125.408H176.721V117.948Z" fill="black"/>
    <path d="M176.721 155.259H169.327V162.72H176.721V155.259Z" fill="black"/>
    <path d="M191.504 117.948H184.11V125.408H191.504V117.948Z" fill="black"/>
    <path d="M198.89 117.948H191.496V125.408H198.89V117.948Z" fill="black"/>
    <path d="M58.605 56.0752H51.2107V63.536H58.605V56.0752Z" fill="black"/>
    <path d="M58.4653 125.409H51.071V132.869H58.4653V125.409Z" fill="black"/>
    <path d="M73.2468 125.409H65.8525V132.869H73.2468V125.409Z" fill="black"/>
    <path d="M88.0283 125.409H80.634V132.869H88.0283V125.409Z" fill="black"/>
    <path d="M110.203 125.409H102.809V132.869H110.203V125.409Z" fill="black"/>
    <path d="M124.983 125.409H117.589V132.869H124.983V125.409Z" fill="black"/>
    <path d="M139.766 125.409H132.372V132.869H139.766V125.409Z" fill="black"/>
    <path d="M147.153 125.409H139.759V132.869H147.153V125.409Z" fill="black"/>
    <path d="M161.941 125.409H154.547V132.869H161.941V125.409Z" fill="black"/>
    <path d="M176.721 125.409H169.327V132.869H176.721V125.409Z" fill="black"/>
    <path d="M184.11 125.409H176.715V132.869H184.11V125.409Z" fill="black"/>
    <path d="M198.89 125.409H191.496V132.869H198.89V125.409Z" fill="black"/>
    <path d="M21.509 132.869H14.1147V140.33H21.509V132.869Z" fill="black"/>
    <path d="M36.2893 132.869H28.895V140.33H36.2893V132.869Z" fill="black"/>
    <path d="M43.678 125.409H36.2837V132.869H43.678V125.409Z" fill="black"/>
    <path d="M51.071 132.869H43.6768V140.33H51.071V132.869Z" fill="black"/>
    <path d="M65.8525 132.869H58.4583V140.33H65.8525V132.869Z" fill="black"/>
    <path d="M73.2468 132.869H65.8525V140.33H73.2468V132.869Z" fill="black"/>
    <path d="M95.4155 132.869H88.0212V140.33H95.4155V132.869Z" fill="black"/>
    <path d="M102.81 132.869H95.4155V140.33H102.81V132.869Z" fill="black"/>
    <path d="M110.203 132.869H102.809V140.33H110.203V132.869Z" fill="black"/>
    <path d="M117.59 132.869H110.196V140.33H117.59V132.869Z" fill="black"/>
    <path d="M132.372 132.869H124.978V140.33H132.372V132.869Z" fill="black"/>
    <path d="M139.766 132.869H132.372V140.33H139.766V132.869Z" fill="black"/>
    <path d="M147.153 132.869H139.759V140.33H147.153V132.869Z" fill="black"/>
    <path d="M161.941 140.337H154.547V147.798H161.941V140.337Z" fill="black"/>
    <path d="M184.11 132.869H176.715V140.33H184.11V132.869Z" fill="black"/>
    <path d="M191.504 132.869H184.11V140.33H191.504V132.869Z" fill="black"/>
    <path d="M80.6314 140.337H73.2371V147.798H80.6314V140.337Z" fill="black"/>
    <path d="M88.0283 140.337H80.634V147.798H88.0283V140.337Z" fill="black"/>
    <path d="M102.81 140.337H95.4155V147.798H102.81V140.337Z" fill="black"/>
    <path d="M169.328 140.337H161.934V147.798H169.328V140.337Z" fill="black"/>
    <path d="M176.721 147.798H169.327V155.259H176.721V147.798Z" fill="black"/>
    <path d="M191.504 140.337H184.11V147.798H191.504V140.337Z" fill="black"/>
    <path d="M36.2893 140.337H28.895V147.798H36.2893V140.337Z" fill="black"/>
    <path d="M28.8962 147.798H21.502V155.259H28.8962V147.798Z" fill="black"/>
    <path d="M73.2468 140.337H65.8525V147.798H73.2468V140.337Z" fill="black"/>
    <path d="M65.8525 147.798H58.4583V155.259H65.8525V147.798Z" fill="black"/>
    <path d="M65.8525 155.259H58.4583V162.72H65.8525V155.259Z" fill="black"/>
    <path d="M95.4155 147.798H88.0212V155.259H95.4155V147.798Z" fill="black"/>
    <path d="M110.203 147.798H102.809V155.259H110.203V147.798Z" fill="black"/>
    <path d="M132.372 140.337H124.978V147.798H132.372V140.337Z" fill="black"/>
    <path d="M147.153 155.259H139.759V162.72H147.153V155.259Z" fill="black"/>
    <path d="M154.547 147.798H147.152V155.259H154.547V147.798Z" fill="black"/>
    <path d="M169.328 147.798H161.934V155.259H169.328V147.798Z" fill="black"/>
    <path d="M198.89 147.798H191.496V155.259H198.89V147.798Z" fill="black"/>
    <path d="M102.81 155.259H95.4155V162.72H102.81V155.259Z" fill="black"/>
    <path d="M161.941 155.259H154.547V162.72H161.941V155.259Z" fill="black"/>
    <path d="M132.372 155.259H124.978V162.72H132.372V155.259Z" fill="black"/>
    <path d="M139.766 155.259H132.372V162.72H139.766V155.259Z" fill="black"/>
    <path d="M169.328 155.259H161.934V162.72H169.328V155.259Z" fill="black"/>
    <path d="M198.89 155.259H191.496V162.72H198.89V155.259Z" fill="black"/>
    <path d="M80.6314 147.798H73.2371V155.259H80.6314V147.798Z" fill="black"/>
    <path d="M80.6314 162.727H73.2371V170.188H80.6314V162.727Z" fill="black"/>
    <path d="M95.4155 162.727H88.0212V170.188H95.4155V162.727Z" fill="black"/>
    <path d="M102.81 162.727H95.4155V170.188H102.81V162.727Z" fill="black"/>
    <path d="M154.547 192.577H147.152V200.038H154.547V192.577Z" fill="black"/>
    <path d="M124.983 162.727H117.589V170.188H124.983V162.727Z" fill="black"/>
    <path d="M132.372 162.727H124.978V170.188H132.372V162.727Z" fill="black"/>
    <path d="M139.766 162.727H132.372V170.188H139.766V162.727Z" fill="black"/>
    <path d="M147.153 162.727H139.759V170.188H147.153V162.727Z" fill="black"/>
    <path d="M154.547 162.727H147.152V170.188H154.547V162.727Z" fill="black"/>
    <path d="M161.941 162.727H154.547V170.188H161.941V162.727Z" fill="black"/>
    <path d="M169.328 162.727H161.934V170.188H169.328V162.727Z" fill="black"/>
    <path d="M51.071 140.337H43.6768V147.798H51.071V140.337Z" fill="black"/>
    <path d="M80.6314 170.188H73.2371V177.648H80.6314V170.188Z" fill="black"/>
    <path d="M88.0283 170.188H80.634V177.648H88.0283V170.188Z" fill="black"/>
    <path d="M169.328 192.577H161.934V200.038H169.328V192.577Z" fill="black"/>
    <path d="M117.59 162.727H110.196V170.188H117.59V162.727Z" fill="black"/>
    <path d="M117.59 140.337H110.196V147.798H117.59V140.337Z" fill="black"/>
    <path d="M154.547 170.188H147.152V177.648H154.547V170.188Z" fill="black"/>
    <path d="M191.504 170.188H184.11V177.648H191.504V170.188Z" fill="black"/>
    <path d="M198.89 170.188H191.496V177.648H198.89V170.188Z" fill="black"/>
    <path d="M73.3879 155.259H65.9937V162.72H73.3879V155.259Z" fill="black"/>
    <path d="M88.0283 177.648H80.634V185.109H88.0283V177.648Z" fill="black"/>
    <path d="M102.81 177.648H95.4155V185.109H102.81V177.648Z" fill="black"/>
    <path d="M117.59 177.648H110.196V185.109H117.59V177.648Z" fill="black"/>
    <path d="M132.372 177.648H124.978V185.109H132.372V177.648Z" fill="black"/>
    <path d="M147.153 177.648H139.759V185.109H147.153V177.648Z" fill="black"/>
    <path d="M169.328 177.648H161.934V185.109H169.328V177.648Z" fill="black"/>
    <path d="M176.721 177.648H169.327V185.109H176.721V177.648Z" fill="black"/>
    <path d="M184.11 177.648H176.715V185.109H184.11V177.648Z" fill="black"/>
    <path d="M191.504 177.648H184.11V185.109H191.504V177.648Z" fill="black"/>
    <path d="M198.89 177.648H191.496V185.109H198.89V177.648Z" fill="black"/>
    <path d="M80.6314 185.116H73.2371V192.577H80.6314V185.116Z" fill="black"/>
    <path d="M95.4155 185.116H88.0212V192.577H95.4155V185.116Z" fill="black"/>
    <path d="M102.81 185.116H95.4155V192.577H102.81V185.116Z" fill="black"/>
    <path d="M124.983 185.116H117.589V192.577H124.983V185.116Z" fill="black"/>
    <path d="M132.372 185.116H124.978V192.577H132.372V185.116Z" fill="black"/>
    <path d="M161.941 185.116H154.547V192.577H161.941V185.116Z" fill="black"/>
    <path d="M169.328 185.116H161.934V192.577H169.328V185.116Z" fill="black"/>
    <path d="M184.11 185.116H176.715V192.577H184.11V185.116Z" fill="black"/>
    <path d="M191.504 185.116H184.11V192.577H191.504V185.116Z" fill="black"/>
    <path d="M198.89 185.116H191.496V192.577H198.89V185.116Z" fill="black"/>
    <path d="M65.8525 192.577H58.4583V200.038H65.8525V192.577Z" fill="black"/>
    <path d="M80.6314 192.577H73.2371V200.038H80.6314V192.577Z" fill="black"/>
    <path d="M88.0283 192.577H80.634V200.038H88.0283V192.577Z" fill="black"/>
    <path d="M95.4155 192.577H88.0212V200.038H95.4155V192.577Z" fill="black"/>
    <path d="M110.203 192.577H102.809V200.038H110.203V192.577Z" fill="black"/>
    <path d="M139.766 192.577H132.372V200.038H139.766V192.577Z" fill="black"/>
    <path d="M147.153 192.577H139.759V200.038H147.153V192.577Z" fill="black"/>
    <path d="M176.721 192.577H169.327V200.038H176.721V192.577Z" fill="black"/>
    <path d="M198.89 192.577H191.496V200.038H198.89V192.577Z" fill="black"/>
  </g>
  <defs>
    <clipPath id="clip0_11315_130607">
      <rect width="211.339" height="213.4" fill="white" transform="translate(0.830322 0.0380859)"/>
    </clipPath>
  </defs>
</svg>