<svg width="277" height="190" viewBox="0 0 277 190" fill="none" xmlns="http://www.w3.org/2000/svg">
<g clip-path="url(#clip0_1482_61302)">
<path d="M17.1368 34.0397C14.9018 34.0397 12.6886 33.5995 10.6237 32.7442C8.55876 31.8889 6.68254 30.6352 5.10212 29.0548C3.5217 27.4744 2.26805 25.5981 1.41273 23.5332C0.557413 21.4683 0.117188 19.2552 0.117188 17.0201C0.117188 14.7851 0.557413 12.5719 1.41273 10.507C2.26805 8.44207 3.5217 6.56584 5.10212 4.98542C6.68254 3.405 8.55876 2.15134 10.6237 1.29602C12.6886 0.440708 14.9018 0.000488215 17.1368 0.000488281H172.041C174.276 0.000488215 176.489 0.440708 178.554 1.29602C180.619 2.15134 182.495 3.405 184.075 4.98542C185.656 6.56584 186.91 8.44207 187.765 10.507C188.62 12.5719 189.06 14.7851 189.06 17.0201C189.06 19.2552 188.62 21.4683 187.765 23.5332C186.91 25.5981 185.656 27.4744 184.075 29.0548C182.495 30.6352 180.619 31.8889 178.554 32.7442C176.489 33.5995 174.276 34.0397 172.041 34.0397H17.1368Z" fill="#E6E6E6"/>
<path d="M17.1376 2.22021C13.2124 2.22021 9.44809 3.77946 6.67262 6.55494C3.89714 9.33042 2.33789 13.0948 2.33789 17.0199C2.33789 20.945 3.89714 24.7094 6.67262 27.4848C9.44809 30.2603 13.2124 31.8196 17.1376 31.8196H172.042C175.967 31.8196 179.731 30.2603 182.506 27.4848C185.282 24.7094 186.841 20.945 186.841 17.0199C186.841 13.0948 185.282 9.33042 182.506 6.55494C179.731 3.77946 175.967 2.22021 172.042 2.22021H17.1376Z" fill="white"/>
<path d="M64.1261 2.22021H63.6328V31.8196H64.1261V2.22021Z" fill="#E6E6E6"/>
<path d="M125.546 2.22021H125.053V31.8196H125.546V2.22021Z" fill="#E6E6E6"/>
<path d="M125.053 2.22021H64.127V31.8196H125.053V2.22021Z" fill="#6C63FF"/>
<path d="M94.6162 7.99561C92.826 7.99561 91.0759 8.52648 89.5873 9.5211C88.0988 10.5157 86.9386 11.9294 86.2535 13.5834C85.5684 15.2374 85.3891 17.0574 85.7384 18.8133C86.0876 20.5692 86.9497 22.1821 88.2157 23.448C89.4816 24.7139 91.0945 25.576 92.8503 25.9252C94.6062 26.2745 96.4262 26.0953 98.0802 25.4102C99.7342 24.725 101.148 23.5648 102.143 22.0763C103.137 20.5877 103.668 18.8377 103.668 17.0474C103.668 14.6467 102.714 12.3443 101.017 10.6468C99.3193 8.94927 97.0169 7.99561 94.6162 7.99561ZM94.6162 10.7111C95.1533 10.7111 95.6783 10.8704 96.1249 11.1688C96.5715 11.4672 96.9195 11.8913 97.1251 12.3875C97.3306 12.8837 97.3844 13.4297 97.2796 13.9564C97.1748 14.4832 96.9162 14.9671 96.5364 15.3468C96.1566 15.7266 95.6728 15.9853 95.146 16.09C94.6192 16.1948 94.0732 16.141 93.577 15.9355C93.0808 15.73 92.6567 15.3819 92.3584 14.9353C92.06 14.4888 91.9007 13.9638 91.9007 13.4267C91.9008 12.7065 92.187 12.0159 92.6962 11.5067C93.2055 10.9976 93.8961 10.7115 94.6162 10.7115V10.7111ZM94.6162 23.7842C93.5435 23.7793 92.4881 23.5127 91.5417 23.0076C90.5953 22.5025 89.7864 21.7742 89.1852 20.8857C89.2285 19.0754 92.8059 18.0789 94.6162 18.0789C96.4266 18.0789 100.004 19.0754 100.047 20.8857C99.4454 21.7735 98.6364 22.5014 97.6901 23.0064C96.7438 23.5114 95.6888 23.7783 94.6162 23.7842Z" fill="white"/>
<path d="M33.1963 7.99561C31.4061 7.99561 29.656 8.52648 28.1674 9.5211C26.6789 10.5157 25.5187 11.9294 24.8336 13.5834C24.1485 15.2374 23.9692 17.0574 24.3185 18.8133C24.6677 20.5692 25.5298 22.1821 26.7957 23.448C28.0617 24.7139 29.6745 25.576 31.4304 25.9252C33.1863 26.2745 35.0063 26.0953 36.6603 25.4102C38.3143 24.725 39.728 23.5648 40.7226 22.0763C41.7172 20.5877 42.2481 18.8377 42.2481 17.0474C42.2481 14.6467 41.2945 12.3443 39.5969 10.6468C37.8994 8.94927 35.597 7.99561 33.1963 7.99561ZM33.1963 10.7111C33.7334 10.7111 34.2584 10.8704 34.705 11.1688C35.1516 11.4672 35.4996 11.8913 35.7052 12.3875C35.9107 12.8837 35.9645 13.4297 35.8597 13.9564C35.7549 14.4832 35.4963 14.9671 35.1165 15.3468C34.7367 15.7266 34.2529 15.9853 33.7261 16.09C33.1993 16.1948 32.6533 16.141 32.1571 15.9355C31.6609 15.73 31.2368 15.3819 30.9384 14.9353C30.6401 14.4888 30.4808 13.9638 30.4808 13.4267C30.4808 12.7065 30.7669 12.0158 31.2761 11.5065C31.7854 10.9972 32.4761 10.7111 33.1963 10.7111ZM33.1963 23.7842C32.1236 23.7793 31.0682 23.5127 30.1218 23.0076C29.1754 22.5025 28.3665 21.7742 27.7652 20.8857C27.8086 19.0754 31.386 18.0789 33.1963 18.0789C35.0067 18.0789 38.584 19.0754 38.6274 20.8857C38.0255 21.7735 37.2164 22.5014 36.2702 23.0064C35.3239 23.5114 34.2689 23.7783 33.1963 23.7842Z" fill="#E6E6E6"/>
<path d="M155.98 7.99561C154.189 7.99561 152.439 8.52648 150.951 9.5211C149.462 10.5157 148.302 11.9294 147.617 13.5834C146.932 15.2374 146.752 17.0574 147.102 18.8133C147.451 20.5692 148.313 22.1821 149.579 23.448C150.845 24.7139 152.458 25.576 154.214 25.9252C155.969 26.2745 157.789 26.0953 159.443 25.4102C161.097 24.725 162.511 23.5648 163.506 22.0763C164.5 20.5877 165.031 18.8377 165.031 17.0474C165.031 14.6467 164.078 12.3443 162.38 10.6468C160.683 8.94927 158.38 7.99561 155.98 7.99561ZM155.98 10.7111C156.517 10.7111 157.042 10.8704 157.488 11.1688C157.935 11.4672 158.283 11.8913 158.488 12.3875C158.694 12.8837 158.748 13.4297 158.643 13.9564C158.538 14.4832 158.279 14.9671 157.9 15.3468C157.52 15.7266 157.036 15.9853 156.509 16.09C155.983 16.1948 155.437 16.141 154.94 15.9355C154.444 15.73 154.02 15.3819 153.722 14.9353C153.423 14.4888 153.264 13.9638 153.264 13.4267C153.264 12.7065 153.55 12.0158 154.059 11.5065C154.569 10.9972 155.259 10.7111 155.98 10.7111ZM155.98 23.7842C154.907 23.7793 153.851 23.5127 152.905 23.0076C151.959 22.5025 151.15 21.7742 150.548 20.8857C150.592 19.0754 154.169 18.0789 155.98 18.0789C157.79 18.0789 161.367 19.0754 161.411 20.8857C160.809 21.7735 160 22.5014 159.053 23.0064C158.107 23.5114 157.052 23.7783 155.98 23.7842Z" fill="#E6E6E6"/>
<path d="M102.915 46.4443H86.3196C85.0698 46.4443 84.0566 47.4575 84.0566 48.7073V65.3022C84.0566 66.552 85.0698 67.5652 86.3196 67.5652H102.915C104.164 67.5652 105.177 66.552 105.177 65.3022V48.7073C105.177 47.4575 104.164 46.4443 102.915 46.4443Z" fill="#6C63FF"/>
<path d="M226.179 190C254.183 190 276.884 186.961 276.884 183.211C276.884 179.462 254.183 176.422 226.179 176.422C198.176 176.422 175.475 179.462 175.475 183.211C175.475 186.961 198.176 190 226.179 190Z" fill="#E6E6E6"/>
<path d="M164.278 46.3765H147.683C146.433 46.3765 145.42 47.3896 145.42 48.6394V65.2344C145.42 66.4841 146.433 67.4973 147.683 67.4973H164.278C165.528 67.4973 166.541 66.4841 166.541 65.2344V48.6394C166.541 47.3896 165.528 46.3765 164.278 46.3765Z" fill="#E6E6E6"/>
<path d="M163.825 49.311H148.438V64.6983H163.825V49.311Z" fill="white"/>
<path d="M93.6254 60.2843L90.957 56.8522L92.5087 55.6453L93.7721 57.2697L98.0408 52.7642L99.4684 54.1163L93.6254 60.2843Z" fill="white"/>
<path d="M155.09 60.2843L152.422 56.8522L153.974 55.6453L155.237 57.2697L159.505 52.7642L160.933 54.1163L155.09 60.2843Z" fill="#E6E6E6"/>
<path d="M41.4946 46.3765H24.8997C23.6499 46.3765 22.6367 47.3896 22.6367 48.6394V65.2344C22.6367 66.4841 23.6499 67.4973 24.8997 67.4973H41.4946C42.7444 67.4973 43.7576 66.4841 43.7576 65.2344V48.6394C43.7576 47.3896 42.7444 46.3765 41.4946 46.3765Z" fill="#E6E6E6"/>
<path d="M41.0416 49.311H25.6543V64.6983H41.0416V49.311Z" fill="white"/>
<path d="M32.3071 60.2843L29.6387 56.8522L31.1903 55.6453L32.4538 57.2697L36.7221 52.7642L38.1496 54.1163L32.3071 60.2843Z" fill="#E6E6E6"/>
<path d="M260.36 177.843H255.389L253.025 158.67H260.362L260.36 177.843Z" fill="#FFB8B8"/>
<path d="M251.835 176.423H261.422V182.457H245.801C245.801 180.857 246.437 179.322 247.568 178.19C248.7 177.059 250.235 176.423 251.835 176.423Z" fill="#2F2E41"/>
<path d="M209.575 177.843H204.604L202.24 158.67H209.577L209.575 177.843Z" fill="#FFB8B8"/>
<path d="M201.054 176.423H210.64V182.457H195.018C195.018 180.857 195.653 179.322 196.785 178.19C197.917 177.059 199.452 176.423 201.052 176.423H201.054Z" fill="#2F2E41"/>
<path d="M226.18 35.6204V33.4461C226.18 29.727 227.657 26.1603 230.287 23.5305C232.917 20.9007 236.483 19.4233 240.202 19.4233C243.921 19.4233 247.488 20.9007 250.118 23.5305C252.748 26.1603 254.225 29.727 254.225 33.4461V35.62C254.225 38.3008 253.16 40.8717 251.265 42.7673C249.369 44.6629 246.798 45.7278 244.117 45.7278H236.289C233.608 45.7278 231.037 44.6629 229.142 42.7673C227.246 40.8717 226.181 38.3008 226.181 35.62L226.18 35.6204Z" fill="#2F2E41"/>
<path d="M240.201 46.4783C246.099 46.4783 250.881 41.6969 250.881 35.7987C250.881 29.9006 246.099 25.1191 240.201 25.1191C234.303 25.1191 229.521 29.9006 229.521 35.7987C229.521 41.6969 234.303 46.4783 240.201 46.4783Z" fill="#FFB8B8"/>
<path d="M182.112 72.5012C182.545 72.0921 183.063 71.7829 183.629 71.5955C184.195 71.4081 184.795 71.347 185.387 71.4165C185.979 71.4861 186.548 71.6845 187.055 71.998C187.562 72.3114 187.994 72.7322 188.321 73.2307L197.476 71.4991L199.885 76.8057L186.922 79.0687C186.049 79.561 185.025 79.716 184.044 79.5042C183.064 79.2925 182.195 78.7287 181.603 77.9196C181.01 77.1105 180.735 76.1122 180.829 75.1137C180.922 74.1152 181.379 73.1857 182.112 72.5012Z" fill="#FFB8B8"/>
<path d="M231.875 53.2032L231.995 53.3846L216.984 63.274L191.653 71.363C191.317 71.4708 191.029 71.6918 190.837 71.9882C190.646 72.2845 190.564 72.6381 190.604 72.9885L191.156 77.7482C191.181 77.9589 191.249 78.1621 191.357 78.3449C191.464 78.5276 191.609 78.6858 191.781 78.8094C191.954 78.933 192.15 79.0192 192.358 79.0625C192.565 79.1057 192.78 79.1052 192.987 79.0607L216.828 73.9506C217.982 73.7048 219.073 73.2244 220.034 72.5393L236.896 60.54C237.822 59.8805 238.452 58.8839 238.65 57.7648C238.848 56.6456 238.6 55.4934 237.957 54.5558C237.315 53.6183 236.33 52.9704 235.214 52.7516C234.099 52.5327 232.942 52.7605 231.993 53.3857L231.875 53.2032Z" fill="#CCCCCC"/>
<path d="M255.477 172.402C255.096 172.403 254.722 172.292 254.403 172.083C254.083 171.874 253.831 171.577 253.678 171.228L230.89 114.918C230.836 114.796 230.747 114.693 230.634 114.623C230.52 114.553 230.388 114.52 230.255 114.527C230.122 114.535 229.995 114.583 229.89 114.665C229.785 114.747 229.708 114.859 229.668 114.987L211.076 169.806C210.998 170.062 210.868 170.298 210.695 170.501C210.522 170.704 210.309 170.87 210.069 170.987C209.83 171.105 209.569 171.173 209.302 171.186C209.035 171.199 208.769 171.157 208.519 171.064L202.284 168.725C201.946 168.599 201.649 168.382 201.427 168.098C201.204 167.814 201.065 167.473 201.025 167.114C198.22 142.681 222.679 81.0092 222.926 80.3884L222.995 80.2168L245.291 85.1489L245.337 85.1994C254.232 94.9037 261.544 156.11 262.919 168.281C262.971 168.72 262.871 169.164 262.636 169.54C262.401 169.915 262.045 170.199 261.628 170.345L256.125 172.291C255.917 172.364 255.698 172.402 255.477 172.402Z" fill="#2F2E41"/>
<path d="M236.266 87.1359C230.864 87.1359 224.842 86.0588 222.988 81.6136L222.946 81.5114L223.003 81.4167C224.467 79.0157 226.4 74.9205 225.361 74.1515C223.313 72.6376 222.319 70.1469 222.408 66.7487C222.599 59.3718 227.626 52.8221 234.915 50.4509C236.95 49.7997 239.021 49.2665 241.117 48.854C242.645 48.5457 244.223 48.5797 245.736 48.9535C247.25 49.3272 248.662 50.0316 249.871 51.0159C251.095 52.0067 252.085 53.2563 252.768 54.675C253.452 56.0936 253.813 57.6461 253.826 59.221C253.901 67.1036 252.689 78.0845 246.471 85.622C246.18 85.9718 245.774 86.2075 245.326 86.2877C242.336 86.8289 239.305 87.1127 236.266 87.1359Z" fill="#CCCCCC"/>
<path d="M234.257 86.8388C234.551 85.7843 235.25 84.8884 236.201 84.3458C237.151 83.8032 238.278 83.6578 239.335 83.9411C239.551 84.0014 239.762 84.0794 239.965 84.1742L246.916 77.8481L251.75 81.1049L241.81 89.9017C241.361 90.7109 240.654 91.3468 239.802 91.7081C238.95 92.0695 238.002 92.1357 237.108 91.8961C236.587 91.7536 236.1 91.5093 235.674 91.1774C235.249 90.8454 234.893 90.4323 234.628 89.962C234.363 89.4918 234.194 88.9736 234.13 88.4375C234.066 87.9014 234.11 87.3581 234.257 86.8388Z" fill="#FFB8B8"/>
<path d="M245.815 86.919C245.364 86.9192 244.926 86.7627 244.577 86.4763L241.836 84.2363C241.607 84.0496 241.424 83.8136 241.299 83.5459C241.175 83.2783 241.113 82.986 241.117 82.6909C241.122 82.3958 241.193 82.1056 241.326 81.842C241.458 81.5783 241.649 81.3481 241.883 81.1685L253.38 72.3506C253.517 72.2456 253.606 72.091 253.629 71.9205C253.652 71.75 253.607 71.5772 253.504 71.4397L246.408 62.0579C245.583 60.9716 245.17 59.6285 245.24 58.2666C245.311 56.9046 245.861 55.6115 246.793 54.6162C247.775 53.5557 249.12 52.9031 250.561 52.7879C252.002 52.6727 253.433 53.1033 254.571 53.9943L254.616 54.0418L262.026 64.6524C262.827 65.2807 263.473 66.0856 263.911 67.0045C264.35 67.9234 264.571 68.9312 264.555 69.9494C264.54 70.9675 264.29 71.9683 263.824 72.8737C263.358 73.7791 262.689 74.5646 261.87 75.1687L246.979 86.534C246.642 86.783 246.234 86.9174 245.814 86.9175L245.815 86.919Z" fill="#CCCCCC"/>
<path d="M230.742 32.7941V27.4954L240.202 23.3633L249.222 27.4939V32.7926C249.222 32.9068 249.2 33.0199 249.156 33.1254C249.112 33.231 249.048 33.3268 248.967 33.4076C248.887 33.4884 248.791 33.5524 248.685 33.5961C248.58 33.6398 248.467 33.6623 248.352 33.6623H231.612C231.498 33.6623 231.385 33.6398 231.279 33.5961C231.174 33.5524 231.078 33.4884 230.997 33.4076C230.916 33.3268 230.852 33.231 230.808 33.1254C230.765 33.0199 230.742 32.9068 230.742 32.7926V32.7941Z" fill="#2F2E41"/>
<path d="M248.295 24.7925C251.57 24.7925 254.225 22.1376 254.225 18.8628C254.225 15.5879 251.57 12.9331 248.295 12.9331C245.02 12.9331 242.365 15.5879 242.365 18.8628C242.365 22.1376 245.02 24.7925 248.295 24.7925Z" fill="#2F2E41"/>
<path d="M242.822 15.6818C242.821 14.8045 243.016 13.9381 243.391 13.145C243.766 12.352 244.312 11.6521 244.991 11.0958C245.669 10.5395 246.462 10.1408 247.313 9.92829C248.165 9.71582 249.052 9.69494 249.912 9.86716C249.153 9.50943 248.327 9.31701 247.488 9.30263C246.648 9.28825 245.816 9.45223 245.045 9.78372C244.274 10.1152 243.582 10.6067 243.015 11.2255C242.448 11.8444 242.019 12.5766 241.757 13.3737C241.494 14.1708 241.404 15.0146 241.492 15.8492C241.579 16.6838 241.843 17.4903 242.266 18.2152C242.689 18.9401 243.261 19.567 243.944 20.0543C244.628 20.5416 245.407 20.8783 246.23 21.042C245.212 20.5639 244.351 19.8061 243.748 18.8569C243.144 17.9077 242.824 16.8064 242.823 15.6818H242.822Z" fill="#2F2E41"/>
</g>
<defs>
<clipPath id="clip0_1482_61302">
<rect width="276.766" height="190" fill="white" transform="translate(0.117188)"/>
</clipPath>
</defs>
</svg>
