<svg width="24" height="24" viewBox="0 0 24 24" fill="none" xmlns="http://www.w3.org/2000/svg">
<g clip-path="url(#clip0_8908_237447)">
<path d="M23.2315 15.5726L18.129 12L23.2315 8.42737C23.55 8.2042 23.627 7.76616 23.4045 7.44825L20.1787 2.84016C20.0715 2.68702 19.9081 2.58333 19.7248 2.55108C19.5407 2.51883 19.3519 2.56139 19.1995 2.66714L15.5156 5.24686V0.703125C15.5156 0.314484 15.2011 0 14.8125 0H9.1875C8.79886 0 8.48438 0.314484 8.48438 0.703125V5.24686L4.80052 2.66714C4.64878 2.56139 4.46063 2.51883 4.27523 2.55108C4.09191 2.58333 3.9285 2.68702 3.82134 2.84016L0.5955 7.44825C0.373031 7.76616 0.449953 8.20425 0.768516 8.42742L5.871 12L0.768562 15.5726C0.449953 15.7958 0.373031 16.2338 0.595547 16.5518L3.82139 21.1599C3.9285 21.313 4.09191 21.4167 4.27528 21.449C4.46067 21.4853 4.64883 21.4401 4.80056 21.3329L8.48438 18.7531V23.2969C8.48438 23.6855 8.79886 24 9.1875 24H14.8125C15.2011 24 15.5156 23.6855 15.5156 23.2969V18.7531L19.1995 21.3329C19.3519 21.44 19.5407 21.4853 19.7248 21.4489C19.9081 21.4167 20.0715 21.313 20.1787 21.1598L23.4045 16.5518C23.627 16.2338 23.55 15.7957 23.2315 15.5726Z" fill="url(#paint0_linear_8908_237447)"/>
</g>
<defs>
<linearGradient id="paint0_linear_8908_237447" x1="12" y1="0" x2="12" y2="24" gradientUnits="userSpaceOnUse">
<stop stop-color="#72707D"/>
<stop offset="1" stop-color="#101824"/>
</linearGradient>
<clipPath id="clip0_8908_237447">
<rect width="24" height="24" fill="white"/>
</clipPath>
</defs>
</svg>
