<svg width="248" height="240" viewBox="0 0 248 240" fill="none" xmlns="http://www.w3.org/2000/svg">
<g filter="url(#filter0_d_11590_188598)">
<rect x="8" y="5" width="232" height="223.599" rx="8.8381" fill="white"/>
<rect x="8.27619" y="5.27619" width="231.448" height="223.047" rx="8.5619" stroke="black" stroke-opacity="0.04" stroke-width="0.552381"/>
<path d="M217.214 22.6761H30.7856V210.923H217.214V22.6761Z" fill="#ECECEC"/>
<path d="M93.4805 125.891L97.3281 128.938L95.4824 130.539L91.6934 127.492L93.4805 125.891ZM97.4258 120.559V121.232C97.4258 122.313 97.2793 123.283 96.9863 124.143C96.6999 125.002 96.2865 125.734 95.7461 126.34C95.2057 126.939 94.5677 127.398 93.832 127.717C93.0964 128.036 92.2793 128.195 91.3809 128.195C90.4889 128.195 89.6719 128.036 88.9297 127.717C88.1875 127.398 87.5462 126.939 87.0059 126.34C86.4655 125.734 86.0456 125.002 85.7461 124.143C85.4531 123.283 85.3066 122.313 85.3066 121.232V120.559C85.3066 119.471 85.4531 118.501 85.7461 117.648C86.0456 116.789 86.4622 116.057 86.9961 115.451C87.5299 114.846 88.168 114.383 88.9102 114.064C89.6523 113.745 90.4694 113.586 91.3613 113.586C92.2598 113.586 93.0768 113.745 93.8125 114.064C94.5547 114.383 95.196 114.846 95.7363 115.451C96.2767 116.057 96.6934 116.789 96.9863 117.648C97.2793 118.501 97.4258 119.471 97.4258 120.559ZM94.4668 121.232V120.539C94.4668 119.784 94.3952 119.12 94.252 118.547C94.1152 117.974 93.9134 117.492 93.6465 117.102C93.3861 116.711 93.0638 116.418 92.6797 116.223C92.2956 116.021 91.8561 115.92 91.3613 115.92C90.8665 115.92 90.4271 116.021 90.043 116.223C89.6589 116.418 89.3366 116.711 89.0762 117.102C88.8158 117.492 88.6172 117.974 88.4805 118.547C88.3438 119.12 88.2754 119.784 88.2754 120.539V121.232C88.2754 121.981 88.3438 122.645 88.4805 123.225C88.6172 123.798 88.8158 124.283 89.0762 124.68C89.3431 125.07 89.6686 125.367 90.0527 125.568C90.4434 125.77 90.8861 125.871 91.3809 125.871C91.8757 125.871 92.3118 125.77 92.6895 125.568C93.0736 125.367 93.3958 125.07 93.6562 124.68C93.9232 124.283 94.125 123.798 94.2617 123.225C94.3984 122.645 94.4668 121.981 94.4668 121.232ZM99.5449 113.781H104.848C105.935 113.781 106.869 113.944 107.65 114.27C108.438 114.595 109.044 115.077 109.467 115.715C109.89 116.353 110.102 117.137 110.102 118.068C110.102 118.83 109.971 119.484 109.711 120.031C109.457 120.572 109.096 121.024 108.627 121.389C108.165 121.747 107.621 122.033 106.996 122.248L106.068 122.736H101.459L101.439 120.451H104.867C105.382 120.451 105.808 120.36 106.146 120.178C106.485 119.995 106.739 119.742 106.908 119.416C107.084 119.09 107.172 118.713 107.172 118.283C107.172 117.827 107.087 117.434 106.918 117.102C106.749 116.77 106.492 116.516 106.146 116.34C105.801 116.164 105.368 116.076 104.848 116.076H102.475V128H99.5449V113.781ZM107.494 128L104.252 121.662L107.348 121.643L110.629 127.863V128H107.494ZM125.58 123.283H128.5C128.441 124.24 128.178 125.09 127.709 125.832C127.247 126.574 126.599 127.154 125.766 127.57C124.939 127.987 123.943 128.195 122.777 128.195C121.866 128.195 121.049 128.039 120.326 127.727C119.604 127.408 118.985 126.952 118.471 126.359C117.963 125.767 117.576 125.051 117.309 124.211C117.042 123.371 116.908 122.43 116.908 121.389V120.402C116.908 119.361 117.045 118.42 117.318 117.58C117.598 116.734 117.995 116.014 118.51 115.422C119.031 114.829 119.652 114.374 120.375 114.055C121.098 113.736 121.905 113.576 122.797 113.576C123.982 113.576 124.981 113.791 125.795 114.221C126.615 114.65 127.25 115.243 127.699 115.998C128.155 116.753 128.428 117.613 128.52 118.576H125.59C125.557 118.003 125.443 117.518 125.248 117.121C125.053 116.717 124.757 116.415 124.359 116.213C123.969 116.005 123.448 115.9 122.797 115.9C122.309 115.9 121.882 115.992 121.518 116.174C121.153 116.356 120.847 116.633 120.6 117.004C120.352 117.375 120.167 117.844 120.043 118.41C119.926 118.97 119.867 119.628 119.867 120.383V121.389C119.867 122.124 119.923 122.772 120.033 123.332C120.144 123.885 120.313 124.354 120.541 124.738C120.775 125.116 121.075 125.402 121.439 125.598C121.811 125.786 122.257 125.881 122.777 125.881C123.389 125.881 123.894 125.783 124.291 125.588C124.688 125.393 124.991 125.103 125.199 124.719C125.414 124.335 125.541 123.856 125.58 123.283ZM129.799 122.824V122.619C129.799 121.844 129.91 121.132 130.131 120.48C130.352 119.823 130.674 119.253 131.098 118.771C131.521 118.29 132.042 117.915 132.66 117.648C133.279 117.375 133.988 117.238 134.789 117.238C135.59 117.238 136.303 117.375 136.928 117.648C137.553 117.915 138.077 118.29 138.5 118.771C138.93 119.253 139.255 119.823 139.477 120.48C139.698 121.132 139.809 121.844 139.809 122.619V122.824C139.809 123.592 139.698 124.305 139.477 124.963C139.255 125.614 138.93 126.184 138.5 126.672C138.077 127.154 137.556 127.528 136.938 127.795C136.319 128.062 135.609 128.195 134.809 128.195C134.008 128.195 133.295 128.062 132.67 127.795C132.051 127.528 131.527 127.154 131.098 126.672C130.674 126.184 130.352 125.614 130.131 124.963C129.91 124.305 129.799 123.592 129.799 122.824ZM132.611 122.619V122.824C132.611 123.267 132.65 123.68 132.729 124.064C132.807 124.449 132.93 124.787 133.1 125.08C133.275 125.367 133.503 125.591 133.783 125.754C134.063 125.917 134.405 125.998 134.809 125.998C135.199 125.998 135.535 125.917 135.814 125.754C136.094 125.591 136.319 125.367 136.488 125.08C136.658 124.787 136.781 124.449 136.859 124.064C136.944 123.68 136.986 123.267 136.986 122.824V122.619C136.986 122.189 136.944 121.786 136.859 121.408C136.781 121.024 136.654 120.686 136.479 120.393C136.309 120.093 136.085 119.859 135.805 119.689C135.525 119.52 135.186 119.436 134.789 119.436C134.392 119.436 134.053 119.52 133.773 119.689C133.5 119.859 133.275 120.093 133.1 120.393C132.93 120.686 132.807 121.024 132.729 121.408C132.65 121.786 132.611 122.189 132.611 122.619ZM147.777 125.695V113H150.609V128H148.061L147.777 125.695ZM141.098 122.844V122.639C141.098 121.831 141.189 121.099 141.371 120.441C141.553 119.777 141.82 119.208 142.172 118.732C142.523 118.257 142.956 117.889 143.471 117.629C143.985 117.368 144.571 117.238 145.229 117.238C145.847 117.238 146.387 117.368 146.85 117.629C147.318 117.889 147.715 118.26 148.041 118.742C148.373 119.217 148.64 119.781 148.842 120.432C149.044 121.076 149.19 121.783 149.281 122.551V123C149.19 123.736 149.044 124.419 148.842 125.051C148.64 125.682 148.373 126.236 148.041 126.711C147.715 127.18 147.318 127.544 146.85 127.805C146.381 128.065 145.834 128.195 145.209 128.195C144.551 128.195 143.965 128.062 143.451 127.795C142.943 127.528 142.514 127.154 142.162 126.672C141.817 126.19 141.553 125.624 141.371 124.973C141.189 124.322 141.098 123.612 141.098 122.844ZM143.91 122.639V122.844C143.91 123.28 143.943 123.687 144.008 124.064C144.079 124.442 144.193 124.777 144.35 125.07C144.512 125.357 144.721 125.581 144.975 125.744C145.235 125.9 145.551 125.979 145.922 125.979C146.404 125.979 146.801 125.871 147.113 125.656C147.426 125.435 147.663 125.132 147.826 124.748C147.995 124.364 148.093 123.921 148.119 123.42V122.141C148.1 121.73 148.041 121.363 147.943 121.037C147.852 120.705 147.715 120.422 147.533 120.188C147.357 119.953 147.136 119.771 146.869 119.641C146.609 119.51 146.299 119.445 145.941 119.445C145.577 119.445 145.264 119.53 145.004 119.699C144.743 119.862 144.532 120.087 144.369 120.373C144.213 120.66 144.096 120.998 144.018 121.389C143.946 121.773 143.91 122.189 143.91 122.639ZM157.67 128.195C156.85 128.195 156.114 128.065 155.463 127.805C154.812 127.538 154.258 127.17 153.803 126.701C153.354 126.232 153.008 125.689 152.768 125.07C152.527 124.445 152.406 123.781 152.406 123.078V122.688C152.406 121.887 152.52 121.154 152.748 120.49C152.976 119.826 153.301 119.25 153.725 118.762C154.154 118.273 154.675 117.899 155.287 117.639C155.899 117.372 156.589 117.238 157.357 117.238C158.106 117.238 158.77 117.362 159.35 117.609C159.929 117.857 160.414 118.208 160.805 118.664C161.202 119.12 161.501 119.667 161.703 120.305C161.905 120.936 162.006 121.639 162.006 122.414V123.586H153.607V121.711H159.242V121.496C159.242 121.105 159.171 120.757 159.027 120.451C158.891 120.139 158.682 119.891 158.402 119.709C158.122 119.527 157.764 119.436 157.328 119.436C156.957 119.436 156.638 119.517 156.371 119.68C156.104 119.842 155.886 120.07 155.717 120.363C155.554 120.656 155.43 121.001 155.346 121.398C155.268 121.789 155.229 122.219 155.229 122.688V123.078C155.229 123.501 155.287 123.892 155.404 124.25C155.528 124.608 155.701 124.917 155.922 125.178C156.15 125.438 156.423 125.64 156.742 125.783C157.068 125.926 157.436 125.998 157.846 125.998C158.354 125.998 158.826 125.9 159.262 125.705C159.704 125.503 160.085 125.201 160.404 124.797L161.771 126.281C161.55 126.6 161.247 126.906 160.863 127.199C160.486 127.492 160.03 127.733 159.496 127.922C158.962 128.104 158.354 128.195 157.67 128.195Z" fill="#555E6F"/>
</g>
<defs>
<filter id="filter0_d_11590_188598" x="0.266666" y="0.0285709" width="247.467" height="239.066" filterUnits="userSpaceOnUse" color-interpolation-filters="sRGB">
<feFlood flood-opacity="0" result="BackgroundImageFix"/>
<feColorMatrix in="SourceAlpha" type="matrix" values="0 0 0 0 0 0 0 0 0 0 0 0 0 0 0 0 0 0 127 0" result="hardAlpha"/>
<feOffset dy="2.7619"/>
<feGaussianBlur stdDeviation="3.86667"/>
<feColorMatrix type="matrix" values="0 0 0 0 0 0 0 0 0 0 0 0 0 0 0 0 0 0 0.12 0"/>
<feBlend mode="normal" in2="BackgroundImageFix" result="effect1_dropShadow_11590_188598"/>
<feBlend mode="normal" in="SourceGraphic" in2="effect1_dropShadow_11590_188598" result="shape"/>
</filter>
</defs>
</svg>
