<svg width="90" height="90" viewBox="40 40 431 431" fill="none" xmlns="http://www.w3.org/2000/svg"><path d="M440.851 416.636h-7.059a.248.248 0 0 1-.249-.224l-2.5-24.547a523.896 523.896 0 0 0-.772-6.956c-.575-4.988-1.17-10.145-1.551-15.846a83.99 83.99 0 0 0-1.2-11.039l-.089-.577c-.294-1.919-.574-3.794-.77-5.646a42.765 42.765 0 0 1-.267-5.554c-.19-1.6-.286-3.051-.379-4.459a38.956 38.956 0 0 0-.541-5.054 8.174 8.174 0 0 1-.654-4.829 6.723 6.723 0 0 0-.2-3.1c-.328-2.295-.417-4.1-.476-5.293a10.097 10.097 0 0 0-.139-1.6.233.233 0 0 1-.078-.078.262.262 0 0 1-.036-.094.26.26 0 0 1 .005-.1c.784-3.116-1.049-6.684-3.212-7.792a13.577 13.577 0 0 0-5.127-2.083 20.582 20.582 0 0 0-5.284-.343c-.77.017-1.5.032-2.19.007-1.558-.126-1.937-1.873-1.952-1.948a13.775 13.775 0 0 0-.45-3.3.244.244 0 0 1-.006-.085 15.305 15.305 0 0 0-.545-4.116 21.105 21.105 0 0 1-.656-4.582 37.903 37.903 0 0 1-.523-5.186c-.076-1.337-.15-2.6-.3-3.432a17.383 17.383 0 0 0-.566-2.261c-.164-.525-.265-.851-.137-1.067a9.876 9.876 0 0 1 .106-1.858c.057-.463.132-1.07.215-2.048.155-1.1.405-2.185.748-3.242.369-1.192.662-2.406.876-3.636.166-1.478.456-2.939.867-4.368.231-.926.45-1.8.559-2.421.235-.889.423-1.791.563-2.7.019-.16.053-.317.1-.471a9.546 9.546 0 0 0-.394-5.978 7.657 7.657 0 0 0-6.068-3.962l-.383-.073c-.083.02-.209-.058-.774-.352a20.587 20.587 0 0 0-6.664-2.34c-4.586-.982-7.2-1.85-7.778-2.583a20.179 20.179 0 0 1-2.763-3.372l-.855-1.169c-1.705-1.631-3.615-3.745-3.811-4.4a11.234 11.234 0 0 1-.182-1.636c-.033-.539-.067-1.1-.172-1.768a17.865 17.865 0 0 0-.715-4.95c-.176-.792-.367-1.643-.546-2.542a24.07 24.07 0 0 1-.691-4.3 22.955 22.955 0 0 0-.446-3.143c-.155-1.375-.256-1.938-.329-2.35a9.953 9.953 0 0 1-.149-1.1 49.99 49.99 0 0 0-.04-.836c-.07-.823-.042-1.652.084-2.468a7.593 7.593 0 0 1 .151-3.349c.272-1.22.392-2.469.358-3.718a.214.214 0 0 1 .011-.083c.405-2.326.53-4.692.37-7.047a7.981 7.981 0 0 0 .2-2.83l-.045-.677a3.04 3.04 0 0 0-.41-1.653l-.181-.277a9.867 9.867 0 0 0-1.7-1.926c-.247-.282-.51-.626-.8-1.006-.983-1.288-2.331-3.05-4.05-3.706a.247.247 0 0 1-.072-.042 18.734 18.734 0 0 1-2.527-2.768 14.908 14.908 0 0 0-2.079-2.304 10.38 10.38 0 0 1-2.13-2.331 1.724 1.724 0 0 0-1.28-.661 101.247 101.247 0 0 0-10.132-1.308c-1.175-.118-2.306-.221-3.362-.318-3.579-.328-6.166-.564-6.9-1.038a.248.248 0 0 1-.115-.221c.068-1.579-.065-1.851-.183-2.091a1.74 1.74 0 0 1-.163-.453l-.044-.4c-.153-1.362-.172-1.537.432-4.479a8.706 8.706 0 0 0 .122-3.032 23.177 23.177 0 0 1-.013-3.827c-.019-2.63.13-5.295.319-8.669.067-1.2.138-2.471.207-3.847a9.605 9.605 0 0 0-1.605-4.77c-.235-.411-.441-.769-.589-1.1-1.435-.971-4.615-2.367-5.548-1.866a.255.255 0 0 1-.322-.074.246.246 0 0 1-.043-.182c-.436-.331-3.208-1.108-7.607.274a13.46 13.46 0 0 1-3.476-.212c-1.81-.257-3.682-.522-4.93.085a.25.25 0 0 1-.159.021 24.077 24.077 0 0 0-8.911.114c-1.327.021-2.7-.091-4.042-.2-2.1-.175-4.083-.34-5.27.053-1.2.1-2.434.086-3.739.071-1.426-.015-2.9-.03-4.416.082-2.845-.065-4-.054-4.924-.046-.613.005-1.151.01-2.019-.007a16.801 16.801 0 0 0-3.912 1.128c-1.6.657-2.7 1.221-3.59 1.675-.585.32-1.191.6-1.813.84a.253.253 0 0 1-.2-.018.25.25 0 0 1-.122-.165 12.029 12.029 0 0 0-1.29-2.814c-.844-1.523-1.8-3.244-1.763-4.783a20.57 20.57 0 0 1-2.327-4.357c-.386-.886-.785-1.8-1.3-2.835a23.438 23.438 0 0 0-3.128-5.278c-.341-.483-.688-.975-1.033-1.476a24.12 24.12 0 0 0-3.072-4.177c-.63-.733-1.225-1.426-1.777-2.182a13.741 13.741 0 0 0-3.1-3.261 30.645 30.645 0 0 1-2.686-2.485 17.285 17.285 0 0 0-3.765-4.132c-.466-.4-.947-.82-1.441-1.285a12.556 12.556 0 0 1-4.8-3.178c-.465-.427-.97-.89-1.557-1.394a34.923 34.923 0 0 0-5.148-3.715c-.433-.272-.861-.541-1.281-.813a15.939 15.939 0 0 1-2.957-1.485 32.395 32.395 0 0 0-3.876-2.018c-.425-.241-.8-.463-1.167-.679a17.216 17.216 0 0 0-6.208-2.569 35.144 35.144 0 0 0-5.076-1.536 21.589 21.589 0 0 1-3.093-.9 9.164 9.164 0 0 0-3.674-.857 7.595 7.595 0 0 1-3.643-.932c-1.193-.231-2.384-.379-3.535-.522a28.173 28.173 0 0 1-4.723-.848.261.261 0 0 1-.1-.055c-1.737-1.6-5.3-1.276-7.753-.041a.288.288 0 0 1-.133.026 48.764 48.764 0 0 0-8.566.225l-.88.074a198.74 198.74 0 0 0-3.426.653c-2.142.42-3.991.784-5.343.894-.384.035-.773.066-1.163.1-2.536.2-5.159.409-7.7 1.814-1.341.5-2.7 1.117-4.021 1.714a31.836 31.836 0 0 1-4.092 1.661 21.594 21.594 0 0 0-6.793 2.965c-.376.217-.764.442-1.169.672a79.92 79.92 0 0 1-2.5 1.436 23.055 23.055 0 0 0-4.841 3.237.238.238 0 0 1-.083.054 30.87 30.87 0 0 0-6.594 4.77c-1.347 1.361-4.363 4.126-6.758 6.268a78.72 78.72 0 0 1-1.389 1.252 19.755 19.755 0 0 0-4.426 5.14c-.737 1.064-1.386 1.9-2.138 2.866a114.803 114.803 0 0 0-3.071 4.1 8.625 8.625 0 0 1-2.027 3.428 7.996 7.996 0 0 0-1.448 2.123 16.028 16.028 0 0 0-1.479 2.844 14.474 14.474 0 0 1-1.6 2.993 14.25 14.25 0 0 1-1.347 3.261 14.445 14.445 0 0 0-1.227 2.859c-.361 1.165-.8 2.3-1.276 3.507-.327.84-.673 1.725-1.021 2.694-.4 1.164-.792 2.572-1.173 3.933-.257.917-.507 1.81-.748 2.592a22.934 22.934 0 0 1-.591 3.758c-.2.911-.4 1.854-.512 2.809a.266.266 0 0 1-.03.092 11.529 11.529 0 0 0-.854 6.589c.054.891-.003 1.785-.17 2.662a9.956 9.956 0 0 0-.007 4.335c.631 2.76.79 5.607.47 8.42a19.29 19.29 0 0 1 .346 3.052c.058 1.805.315 3.598.767 5.347.27 2.79.915 5.531 1.916 8.149a.246.246 0 0 1 .028.106c.053 1.609 1.183 4.273 2.01 6.217.242.571.462 1.09.63 1.522a39.845 39.845 0 0 0 2.53 5.572.259.259 0 0 1 .03.094 7.226 7.226 0 0 0 1.506 3.411c.482.659.888 1.37 1.211 2.119a9.45 9.45 0 0 1 3.266 5.525c.381.644.72 1.312 1.014 2a4.819 4.819 0 0 0 2.433 2.86 10.51 10.51 0 0 1 4.04 4.955c.436.481.844.987 1.221 1.516a10.576 10.576 0 0 0 2.965 3 15.47 15.47 0 0 1 2.155 2.119 9.658 9.658 0 0 0 2.449 2.195c.65.526 1.213 1.061 1.757 1.578a12.955 12.955 0 0 0 2.948 2.324.425.425 0 0 1 .238.083.366.366 0 0 1 .111.262.252.252 0 0 1-.037.113.256.256 0 0 1-.199.117.256.256 0 0 1-.116-.022l-.132-.062a32.16 32.16 0 0 0-3.756.962c-1.276.368-2.723.784-4.131 1.142-1.321.337-2.688.718-3.893 1.055-1.445.4-2.693.752-3.474.916l-1.6.251c-2.522.65-3.779 1.617-5.861 3.22-1.571.864-3.078 3.066-3.9 4.88-2.75 6.209-2.633 6.737-2.142 8.96a.245.245 0 0 1-.013.149c-.001.366.02.731.064 1.094a26.222 26.222 0 0 1-.194 7.364c.035 1.231-.036 2.386-.1 3.5a18.905 18.905 0 0 0 .036 4.2c.649 1.528.407 3.18.128 5.092-.16.98-.268 1.968-.323 2.959a34.548 34.548 0 0 1-.292 7.3c-.007.2-.054 1.768-.939 2.109-1.54.335-3.11.508-4.686.516-1.09.147-1.238.685-1.563 1.85l-.045.163-.046.4a16.61 16.61 0 0 0-.04 3.124l.016.691a10.864 10.864 0 0 0-.082 2c.047.884-.007 1.77-.162 2.641a18.998 18.998 0 0 0-.147 3.112c.026.701.001 1.403-.075 2.1a16.294 16.294 0 0 0-.658 4.616 26.707 26.707 0 0 0 .283 5 .266.266 0 0 1 0 .089 12.418 12.418 0 0 0-.157 3.288c.045.375.04.754-.015 1.128a.247.247 0 0 1-.237.194c-.68.019-2.516.833-4.557 2.934a24.606 24.606 0 0 1-4.4 2.81 3.413 3.413 0 0 0-.973.739c-1.956 1.828-2.9 3.57-2.812 5.194.055.52.137 1.036.245 1.547.198.786.19 1.609-.021 2.391a1.519 1.519 0 0 1-.05.319 17.478 17.478 0 0 0 .035 7.456.23.23 0 0 1 0 .074l-.078.846a27.984 27.984 0 0 0 .01 6.851 65.623 65.623 0 0 0 .069 9.454 31.458 31.458 0 0 0-.065 5.415c.055 1.284.112 2.612.065 3.79.22 1.869.25 3.754.09 5.629a43.682 43.682 0 0 0-.09 2.369c-.161 1.895-.14 3.8.065 5.691.117 1.342.177 2.015-.148 2.307a.252.252 0 0 1-.318.013 42.85 42.85 0 0 0-7.74.05 30.973 30.973 0 0 1-5.114-.1 8.49 8.49 0 0 0-2.6-.017.214.214 0 0 1-.148.1c-1.354.324-2.016.979-2.151 2.125a2.088 2.088 0 0 0 2.092 2.061 14.286 14.286 0 0 0 4.684.001 31.3 31.3 0 0 1 4.448.08c2.815.25 5.648.223 8.459-.08 2.314.112 4.89.035 7.615-.046 3.529-.107 7.53-.226 11.729.045h11.455c2.74.466 5.535.53 8.294.19 1.443-.106 2.815-.2 4.092-.19 4.151.252 8.126.232 11.467.182a24.66 24.66 0 0 0 4.337-.2 24.61 24.61 0 0 1 7.42.023c1.164.148 2.339.184 3.51.105a21.7 21.7 0 0 1 2.379-.013c.767.045 1.538.016 2.3-.086a8.627 8.627 0 0 1 3.58.131c.64 0 1.347.061 2.009.123a9.865 9.865 0 0 0 3.85-.136.262.262 0 0 1 .147 0c2.014.595 4.164.554 6.154-.118a.258.258 0 0 1 .1-.008c1.962.373 3.973.409 5.948.106.461.019.922.008 1.382-.034a19.552 19.552 0 0 1 4.58.136c1.238.114 2.485.052 3.706-.184.659-.1 1.4-.21 2.322-.292a14.718 14.718 0 0 1 4.784.127c.336.054.656.1.974.141a.218.218 0 0 1 .061.015l.449.176c1.671.662 3.251 1.286 5.308.038a.24.24 0 0 1 .187-.03 7.515 7.515 0 0 0 3.239-.074 5.512 5.512 0 0 1 2.117-.121.25.25 0 0 1 .073.028c1.394.8 2.705.536 4.224.23.312-.063.631-.128.958-.184.518-.005 1.06-.052 1.632-.1a14.43 14.43 0 0 1 3.9.026c1.885-.007 4.088-.046 6.42-.088 2.388-.042 4.857-.086 7.022-.088 1.79.151 3.591.135 5.378-.048a18.243 18.243 0 0 1 6.117.219c3.809-.124 5.682-.083 7.847-.036.577.013 1.176.026 1.838.037 1.76.077 3.82.041 5.323.014.92-.016 1.65-.029 2.067-.014a22.506 22.506 0 0 1 4.5.209c1 .133 1.411.176 1.641-.114a.253.253 0 0 1 .088-.074.256.256 0 0 1 .112-.026 2.091 2.091 0 0 0 1.916-2.926 2.141 2.141 0 0 0-.486-.703 1.911 1.911 0 0 0-1.419-.55.231.231 0 0 1-.124-.025.234.234 0 0 1-.094-.085c-.256-.219-2.621-.4-7.842.109-1.006.006-2.01-.018-3-.04-1.771-.041-3.439-.08-5.067.03l-.214.034a25.29 25.29 0 0 1-9.507-.017c-3.5.7-5.477.418-9.051-.086l-.3-.043a17.922 17.922 0 0 1-3.164-.227c-1.8-.239-3.509-.464-5.135.325a.289.289 0 0 1-.119.025c-1.557-.063-2.975-.219-4.227-.357a10.415 10.415 0 0 0-3.46-.1 1.617 1.617 0 0 1-.163.344.256.256 0 0 1-.273.111.249.249 0 0 1-.189-.224.649.649 0 0 1 .181-.52 2.29 2.29 0 0 0-.027-.523 7.43 7.43 0 0 1-.011-1.855c.178-.938.186-1.9.023-2.84-.16-1.446-.229-2.9-.206-4.355.03-.851.063-1.62.094-2.333a45.412 45.412 0 0 0-.036-6.959 22.931 22.931 0 0 1 .031-4.257 16.815 16.815 0 0 0-.156-5.091 11.174 11.174 0 0 1 .08-5.044c.208-.706.26-1.448.152-2.176a7.022 7.022 0 0 1 .039-2.332.947.947 0 0 0 .026-.158 2.42 2.42 0 0 0-.252-.223.257.257 0 0 1-.091-.207c.222-4.246 2.932-5.724 3.957-5.935.111-.024.422-.086.583.075.32-.013.864 0 1.832.042.335.014.711.032.78.024a34.244 34.244 0 0 1 7.437-.468c.486-.1.965-.172 1.43-.237a7.666 7.666 0 0 0 3.325-1.008 10.256 10.256 0 0 0 4.561-2.875c.368-.375.786-.8 1.334-1.273 1.508-1.744 1.823-4.441 1.875-5.892v-.023c-.366-.6-.259-1.44-.1-2.686.035-.272.072-.564.109-.877-.483-2.146-.309-4.112-.047-7.079l.06-.689a18.206 18.206 0 0 0-.1-5 15.406 15.406 0 0 1-.172-2.789 6.779 6.779 0 0 0 .337-3.292.23.23 0 0 1-.042-.093c-.6-2.735-1.452-4.519-2.482-5.16a1.74 1.74 0 0 0-1.4-.216.28.28 0 0 1-.1 0 11.147 11.147 0 0 1-2.445-.727c-.7-.286-.764-.286-.979.009a.249.249 0 0 1-.123.089.247.247 0 0 1-.152.003c-3.29-1-5.09 1.666-6.168 3.257-.129.189-.245.362-.351.508a7.84 7.84 0 0 0-.727 3.151.322.322 0 0 1 .129.065.245.245 0 0 1 .091.193.25.25 0 0 1-.091.193.415.415 0 0 1-.079.052 49.116 49.116 0 0 0 .122 7.516.28.28 0 0 1 .033.093c.65 4.662-1.227 6.214-3.207 7.4a.262.262 0 0 1-.122.036c-2.185.062-2.322.13-3.219.572l-.139.068a.272.272 0 0 1-.146.023c-4.815-.693-6.133-1.214-7.83-3.094a.24.24 0 0 1-.064-.155 40.743 40.743 0 0 1-.041-1.162c-.028-1.1-.03-1.17-.577-1.664a.272.272 0 0 1-.08-.044c-.255-.208-1.268-4.583-.154-8.894a12.625 12.625 0 0 1-.023-3.871c.148-1.611.288-3.132-.238-4.171a.246.246 0 0 1-.025-.141c.183-1.782.244-3.575.184-5.366a83.634 83.634 0 0 1-.007-2.568c0-.023.003-.045.009-.067.786-2.783.76-5.732-.077-8.5a.513.513 0 0 1-.028-.3 7.418 7.418 0 0 0-4.448-5.73l-.708-.191a15.93 15.93 0 0 0-3.11-.695.41.41 0 0 1-.085.015c-3.788.022-6.033 1.205-7.065 3.725a20.122 20.122 0 0 0-.859 3.607.155.155 0 0 1 .024.027c.143.2.088.448.017.759a4.38 4.38 0 0 0 .029 2.314c.008.033.01.067.006.1a20.791 20.791 0 0 0-.031 3.8c.083 1.232.101 2.467.053 3.7.011.508-.017 1.067-.047 1.659-.087.985-.07 1.976.049 2.957.02.721.015 1.594.011 2.474-.006.986-.011 2.006.013 2.746a18.048 18.048 0 0 1-.323 2.182 4.044 4.044 0 0 0 0 2.686.223.223 0 0 1 .026.075c.036.212.077.437.119.671.378 1.46.444 2.983.191 4.47a26.712 26.712 0 0 0-.026 3.656c.112 1.345.05 2.699-.183 4.029.163.888.169 1.798.018 2.689-.076.6-.116.976.049 1.024a.252.252 0 0 1 .178.208c.413 3.215.345 5.292-1.174 7.722a6.105 6.105 0 0 1-1.623 2.175 2.842 2.842 0 0 0-.89 1.148.246.246 0 0 1-.049.103.246.246 0 0 1-.089.071c-1.573.74-3.654 1.15-3.978.783-3.334-.5-5.853-2.192-6.753-4.545a.233.233 0 0 1-.016-.108 6.404 6.404 0 0 0-1.141-4.286l-.029-.042c-.309-.22-.25-.937-.112-2.619.167-1.782.243-3.571.225-5.361a26.719 26.719 0 0 1 .139-6.022 7.256 7.256 0 0 0 .093-1.639.215.215 0 0 1-.044-.172 5.643 5.643 0 0 0-1.379-4.568 1.973 1.973 0 0 0-1.5-.7.279.279 0 0 1-.1-.008c-.93-.268-1.888-.43-2.854-.483-.151.006-.3-.022-.439-.08a5.982 5.982 0 0 0-6 2.67c-.222.309-.48.589-.77.835a7.755 7.755 0 0 0-.667 2.945l.015.009c.232.15.386.611.458 1.373.102.806.03 1.624-.212 2.4a.676.676 0 0 1 .154.148c.361.475.15 1.443-.072 2.467-.13.467-.202.949-.215 1.434.419 2.117.473 4.29.161 6.426a64.307 64.307 0 0 0-.159 2.291c0 .931-.1 1.941-.2 2.919-.2 1.982-.4 4.033.185 5.663.01.028.015.057.015.086.001.809.06 1.617.177 2.417.108.812.175 1.33-.177 1.649a20.462 20.462 0 0 0 1.107 6.112c.124.32.211.652.258.992.835 2.255 1.353 3.11 3.371 3.12.028 0 .055.005.082.014l1.052.376c1.911.688 2.843 1.024 3.525.773a.288.288 0 0 1-.008-.214c.107-.3.444-.282 2.032-.117 1.437.2 2.892.25 4.34.149 2.785-1 4.9-1.011 6.091-.016a5.688 5.688 0 0 1 4.537 1.05A8.418 8.418 0 0 1 196 378.03a1.623 1.623 0 0 0-.089.419.232.232 0 0 1 .208.239.219.219 0 0 1-.1.177c.01.412.048.824.113 1.231.077.612.173 1.373.238 2.272a.252.252 0 0 1-.03.14c-.564 1.018-.437 2.335-.289 3.86a15.6 15.6 0 0 1 .068 3.509c.121 1.264.08 2.538-.123 3.791a7.19 7.19 0 0 0 .129 3.6.27.27 0 0 1 .013.135c-.393 2.093-.32 2.367-.187 2.867.072.257.127.519.164.784a.249.249 0 0 1-.132.256.25.25 0 0 1-.285-.038c-.727-.67-1.193-.571-2.449-.306-.538.114-1.207.256-2.076.37a.25.25 0 0 1-.067 0 21.518 21.518 0 0 0-5.323.224 8.974 8.974 0 0 0-1.873.138 9.266 9.266 0 0 1-5.161-.363c-1.144-.06-2.67-.072-4.286-.085-1.317-.01-2.678-.022-3.93-.059a.231.231 0 0 1-.094-.022c-2.005-.889-5.4-.446-8.764.165-.975.055-1.854.168-2.7.277a20.396 20.396 0 0 1-6.724.019c-1.744-.19-3.5-.245-5.252-.162a29.827 29.827 0 0 1-4.649-.132c-3.377.211-6.459.176-9.44.143h-.249c-1.469-.016-2.906-.043-4.3-.069a449.123 449.123 0 0 0-4.54-.069 40.397 40.397 0 0 0-9.974 0h-8.036c-1.052.054-2.014.115-2.864.169-.8.051-1.5.1-2.089.121a6.382 6.382 0 0 1-3.342-1.487 28.607 28.607 0 0 1-3.028-2.728c-.652-.645-1.27-1.255-1.853-1.761-1.862-2.142-2.81-5.384-3.646-8.245-.178-.609-.351-1.205-.53-1.773A31.858 31.858 0 0 1 86.384 375c-.307-.441-.212-2.259.085-3.745.06-1.143 0-2.3-.055-3.523a41.1 41.1 0 0 1-.026-4.945c-.662-3.507-.795-6.568-.356-8.153a9.911 9.911 0 0 1-.071-2.445l.148-3.114a7.136 7.136 0 0 1 1.15-3.448.23.23 0 0 1 .042-.049c.3-.287.618-.554.953-.8a41.583 41.583 0 0 0 3.77-2.523c.342-.245.665-.476.952-.678a17.202 17.202 0 0 1 4.872-3.152c.149-.066.25-.109.293-.136.082-.09.17-.175.263-.253a1.868 1.868 0 0 0 .706-1.456c.076-.621.105-1.246.088-1.871 0-.659 0-1.4.073-2.389a22.173 22.173 0 0 1 .1-5.333c.114-1.367.232-2.781.27-4.181.19-1.791.28-3.592.27-5.393.01-1.267.02-2.579.168-4.243a7.061 7.061 0 0 0 .038-3.191l-.034-.148a1.015 1.015 0 0 1 .309-.9.852.852 0 0 1 .649-.154l.186-.059a18.91 18.91 0 0 1 1.943-.531 8.729 8.729 0 0 1 4.225-1.127c.9-.08 1.796-.208 2.684-.381a9.849 9.849 0 0 1 4.679-1.13 11.932 11.932 0 0 0 1.778-.2c.925-.165 1.947-.4 3.329-.766a.335.335 0 0 1 .1-.006c.518.019 1.037.009 1.554-.032a62.833 62.833 0 0 1 7.616.03 15.113 15.113 0 0 1 4.22.161c1.62.216 3.149.42 4.4-.179a.241.241 0 0 1 .145-.021c2.726.465 5.51.479 8.241.042h9.227a2.088 2.088 0 1 0 0-4.179h-9.252c-3.556-.72-6.062-1.126-8.888-.288a.242.242 0 0 1-.146 0 10.45 10.45 0 0 0-4.816-.043 27.76 27.76 0 0 1-3.293.331 20.742 20.742 0 0 1-7.954.67 19.556 19.556 0 0 0-4.237.111c-.703.168-1.417.284-2.137.347-.367.041-.726.081-1.067.134-1.24.09-2.464.335-3.643.73-.656.224-1.331.385-2.017.483a.252.252 0 0 1-.138-.021.252.252 0 0 1-.143-.228c0-.047.014-.093.039-.133.687-1.079.532-2.937.192-7.008l-.091-1.089c.173-1.643.207-3.298.1-4.947-.028-.676-.06-1.443-.081-2.392a11.275 11.275 0 0 1-.037-4.61c.162-1.127.255-2.262.279-3.4.381-2.272.546-4.574.494-6.877-.094-.7-.249-1.39-.462-2.063a8.44 8.44 0 0 1 1.051-4.822 10.59 10.59 0 0 0 1.531-2.059 6.96 6.96 0 0 1 1.765-2.161c.315-.232.611-.458.9-.678a24.861 24.861 0 0 1 4.4-2.81c.338-.093.792-.2 1.39-.336 1.583-.366 4.233-.979 7.439-1.858 1.623-.431 3.245-.813 4.677-1.15 1.527-.359 2.969-.7 4.1-1.025a15.476 15.476 0 0 1 2.292-.268c.378-.019.916-.046 1.839-.109a51.391 51.391 0 0 0 7.042-.945 70.493 70.493 0 0 0 9.962-1.134 9.02 9.02 0 0 1 1.268-.189c3.351.087 5.6 2.022 7.088 3.3.367.333.754.643 1.161.926.031.02.058.046.078.078a14.362 14.362 0 0 1 1.537 4.286c.264 1.133.584 2.253.961 3.354a.251.251 0 0 1-.092.289l-.028.016c-.071.208-.177.8-.281 1.375a33.18 33.18 0 0 1-1.83 6.878 40.987 40.987 0 0 0-2.207 8.259.25.25 0 0 1-.061.187 2.97 2.97 0 0 0 .458 1.611 4.308 4.308 0 0 0 2.814 1.228c.52-.165.859-.9.814-1.784-.206-.92.885-5.091 2.485-9.4.857-2.907 1.707-6.252 2.528-9.486.723-2.844 1.4-5.53 2.052-7.762.36-1.437.7-2.829 1-4.077 1.092-4.523 1.292-5.225 1.565-5.371.315-.64 1.527-2.438 5.493-7.971a52.509 52.509 0 0 1 5.243-7.663c.126-.155.22-.272.279-.349.083-.316.216-.617.392-.892a10.09 10.09 0 0 0 .97-4.2c.525-2.389 1.25-5.894 1.761-9.287a59.444 59.444 0 0 1 1.952-9.68 16.59 16.59 0 0 1 .77-3.523l.08-.251a.236.236 0 0 1 .036-.27l.182-.19a45.87 45.87 0 0 0 4.664-5.676 40.725 40.725 0 0 0 4.2-4.995c.268-.368.489-.672.683-.91a.23.23 0 0 1 .088-.069c.403-.17.844-.225 1.277-.161a9.486 9.486 0 0 0 1.935-.057 43.509 43.509 0 0 1 8.224-.43h.864c3.327-.295 7.5-.562 11.133-.713a55.09 55.09 0 0 1 9.7-.457c.61.006 1.215.011 1.814.014 2.896.155 5.801.007 8.667-.442a78.85 78.85 0 0 0 2.909-.163c.838-.059.886-.062.92.18a.24.24 0 0 1-.067.183 47.521 47.521 0 0 1-.581 6.956c.06.221-.073.4-1.464 1.957a65.962 65.962 0 0 0-4.606 5.61c-1.393 1.777-2.768 3.3-3.871 4.525a13.099 13.099 0 0 0-2.114 2.63.233.233 0 0 1-.082.3.259.259 0 0 1-.174.036.257.257 0 0 1-.156-.082 14.235 14.235 0 0 0-1.845 2.468c-.622.92-1.326 1.963-2.1 2.979a27.221 27.221 0 0 1-3.866 4.911c-.171.18-.335.351-.413.443a.243.243 0 0 1-.054.121 9.392 9.392 0 0 0-2.217 6.248 15.994 15.994 0 0 0 .07 3.923l.728 10.912a2.091 2.091 0 0 0 2.224 1.946 2.09 2.09 0 0 0 1.947-2.224l-.733-11a2.443 2.443 0 0 0-.031-.235c-.07-.43-.6-4.14 1.261-6.928-.012-.183.214-.436.988-1.3a34.081 34.081 0 0 0 3.383-4.239 46.042 46.042 0 0 0 4.213-5.282.21.21 0 0 1-.005-.043c-.029-.4.555-1.087 2.368-3.114 1.16-1.3 2.6-2.911 3.947-4.634 1.663-2.1 3.281-3.987 4.463-5.362.8-.931 1.505-1.752 1.724-2.07a.251.251 0 0 1 .007-.151c.022-.056.075-.162.142-.293.135-.25.252-.51.348-.778a.419.419 0 0 1-.04-.054c-.353-.564-.18-3.167.482-5.054.089-.912.1-1.947.106-2.778.014-1.355.03-1.957.261-2.193a.613.613 0 0 1 .127-.216.513.513 0 0 0 .114-.581.25.25 0 0 1 .061-.264c-.018-.019-.038-.041-.064-.065a.249.249 0 0 1-.004-.356c.502-2.392.691-4.839.563-7.28.3-2.106.416-4.363.5-5.857.086-1.611.1-1.82.282-1.857a48.135 48.135 0 0 0 2.714-5.786c.935-3.413 2.683-6.083 3.027-6.157a.216.216 0 0 1 .051-.006 68.859 68.859 0 0 1 7.273-3.594l3.925-1.487.776-.459c1.2-.707 2.7-1.587 3.779-2.079.89-.327 1.806-.577 2.739-.748a45.22 45.22 0 0 1 7.977-.069 28.79 28.79 0 0 1 8.07-.21 23.682 23.682 0 0 1 9.275.217c2.272.079 5.772-.012 8.862-.093l.252-.007c1.491.035 2.66.017 3.69 0a41.93 41.93 0 0 1 4.456.093c3.7.7 6.9.51 7.534.234a.45.45 0 0 1 .071-.144.313.313 0 0 1 .349-.111h.007a2.552 2.552 0 0 1 1.948-.28.251.251 0 0 1 .069.026 2.938 2.938 0 0 1 1.462 2.344 13.1 13.1 0 0 1-.01 1.373c-.015 1.862-.117 3.574-.208 5.083a33.278 33.278 0 0 0 .049 7.034 32.958 32.958 0 0 1-.467 6.907 42.998 42.998 0 0 1-.309 4.363.264.264 0 0 1-.017.061c-.126.3-.447 1.619.712 6.023a56.119 56.119 0 0 0 1.4 7.338l.365 1.556c.315 1.261.523 2.652.743 4.124a35.657 35.657 0 0 0 2.032 8.5c.384 1.419 1.323 4.972 1.979 7.96.194 1.357.487 2.699.878 4.013.431 1.46.752 2.949.961 4.457a4.13 4.13 0 0 0 2.188 1.757c.114 0 .152-.037.179-.075a7.205 7.205 0 0 0 1.692-2.713 29.165 29.165 0 0 0-1.434-6.56c-.19-.651-.388-1.331-.588-2.047a15.884 15.884 0 0 1-1.3-5.113 28.663 28.663 0 0 0-.664-3.485.25.25 0 0 1-.009-.086A40.59 40.59 0 0 1 346 190a14.564 14.564 0 0 1 3.579-6.077.248.248 0 0 1 .1-.043c1.427.096 2.847.28 4.252.551 1.605.244 3.265.5 4.151.591.5-.009.991.13 1.412.4.716.7 1.893 2.1 3.255 3.729.718.857 1.484 1.772 2.251 2.666a44.92 44.92 0 0 0 5.47 6.383c.216.124.398.3.529.513.132.212.208.454.222.703l-.018.112c-.12.752-.191 1.512-.214 2.273.151 1.134.11 2.285-.12 3.406a16.843 16.843 0 0 0-.247 3.437c0 1.023-.1 2.141-.2 3.223a13.366 13.366 0 0 0-.054 3.758c.006.022.01.044.011.067-.004.376.026.752.089 1.123.061.561.01 1.128-.149 1.669.006.108.017.215.034.322.048.331.064.666.048 1v.224c.002.923.089 1.844.259 2.751.092.985.246 1.963.462 2.929.353 1.556.575 3.14.664 4.733.7 3.654 1 5.588 1.211 7.621a11.51 11.51 0 0 0 .455 3.63c.086.156.159.319.22.487.088.23.193.454.314.669.243.332.521.638.828.912a28.868 28.868 0 0 1 3.35 3.873 41.184 41.184 0 0 0 3.918 4.559c.121.066.231.151.327.25.248.238.529.438.835.594.018.01.035.022.051.036.274.108 1.138.413 2.12.759 1.558.55 3.694 1.3 5.63 2.023a36.016 36.016 0 0 0 5.376 2.072c.533.164.995.3 1.408.472.258.044.512.111.758.2.222.078.449.141.68.189.312.107.616.185.928.266 1.115.288 2.379.616 2.831 1.864.253.368.2.72.116 1.36-.04.293-.09.662-.127 1.147a.227.227 0 0 1-.012.063 3.992 3.992 0 0 0-.151.6 9.327 9.327 0 0 1-.118.539c-.133.646-.182.858-.219 1.015-.049.211-.075.321-.259 1.3-.307.92-.506 1.873-.594 2.839a21.093 21.093 0 0 1-.87 4.136 33.726 33.726 0 0 1-1.342 7.039l-.215.884c-.066.278-.067.278-.1.391-.033.113-.1.352-.306 1.145a3.394 3.394 0 0 0-.2 1.347c.1.743.207 1.464.315 2.186.283 1.875.575 3.813.706 5.782-.354 2.817-.743 5.056-2.22 6.537a15.272 15.272 0 0 1-2.635 3.25c-.464.475-.944.966-1.414 1.505l-.635.491a37.118 37.118 0 0 1-4.544 3.12c-.855.3-1.673.694-2.441 1.174a5.577 5.577 0 0 1-2.478.935.2.2 0 0 1-.069 0c-.346-.056-.611-.1-.826-.137a9.174 9.174 0 0 0-2.169-.162.246.246 0 0 1-.072-.011 38.31 38.31 0 0 1-.711-.234 44.372 44.372 0 0 0-5.576-1.493 47.426 47.426 0 0 0-5.292-1.412 680.5 680.5 0 0 1-2.105-.621c-1.431-.423-2.892-.856-4.282-1.248-4.156-1.172-8.266-2.335-11.4-3.221a2.085 2.085 0 0 0-1.588.186 2.088 2.088 0 0 0 .448 3.834l14.331 4.049c.781.219 1.572.412 2.336.6 1.521.33 3.016.77 4.474 1.317a37.053 37.053 0 0 0 6.753 1.954c.568.114 1.1.222 1.639.358.086.022.188.055.309.1 1.487.476 3.061.614 4.608.406a11.02 11.02 0 0 0 1.733-.029 9.2 9.2 0 0 1 3.6.213c2.3-.167 4.612.055 6.838.656 1.416.059 2.528.115 3.56.167 1.57.079 2.958.149 5.133.233 1.563.319 3.155.475 4.75.466.698.004 1.395.071 2.082.2a9.085 9.085 0 0 0 3.47.087.256.256 0 0 1 .2.032c.259.133.534.234.818.3 1.44.413 3.847 1.1 3.433 5.457a.403.403 0 0 1-.036.451.25.25 0 0 1-.251.1c.011 1.041.143 2.077.393 3.088.257 1.424.576 3.2.764 5.1.063 1.114.201 2.222.413 3.317.361 1.718.502 3.475.42 5.229.041.3.133.793.24 1.363.249 1.161.409 2.34.48 3.525.074.611.124 1.57.179 2.585.047.891.1 1.813.165 2.591.384 2.973.775 6.422 1.129 9.966.312 3.113.584 6.183.768 8.645.256 2.266.382 4.216.472 5.64.02.878.107 1.754.261 2.619.04.022.073.055.095.094.023.04.035.084.034.13a95.055 95.055 0 0 1-1.542 15.11c-1.5 8.5-3.955 15.071-7.3 19.538a17.493 17.493 0 0 1-6.956 5.745c-.482 1.078-3.117.7-7.382.081l-.087-.013a14.232 14.232 0 0 1-7.933.317 4.472 4.472 0 0 1-2.7.253 12.035 12.035 0 0 0-1.925-.116c-.54-.031-1.053-.052-1.558-.073a26.057 26.057 0 0 1-4.172-.391c-.226-.033-.5-.087-.808-.147a10.38 10.38 0 0 0-4.645-.123c-1.276.5-3.333.314-4.984.167-.365-.032-.711-.063-1.024-.084a20.03 20.03 0 0 1-6.314-.217 12.27 12.27 0 0 1-1.211-.065 10.336 10.336 0 0 0-4.575.463.286.286 0 0 1-.064.011c-.888.02-1.777-.014-2.661-.1a17.187 17.187 0 0 0-3.356-.047 6.992 6.992 0 0 1-2.639-.016 9.501 9.501 0 0 0-3.3-.019c-.736-.042-1.31-.1-1.834-.151a14.276 14.276 0 0 0-3.813-.022 9.931 9.931 0 0 1-1.988.031 11.714 11.714 0 0 0-4.034.317.256.256 0 0 1-.11.007 9.697 9.697 0 0 0-2.965-.021 9.06 9.06 0 0 1-2.412.032 7.433 7.433 0 0 0-3.227-.127c-.495.07-.994.11-1.494.119h-15.369a2.087 2.087 0 0 0-2.089 2.089 2.088 2.088 0 0 0 2.089 2.089h20.313c.474-.038 1.039-.1 1.658-.175a29.1 29.1 0 0 1 8.018-.118 17.797 17.797 0 0 1 4.668.09l.56.065a33.026 33.026 0 0 1 3.344.088c.848.075 1.701.092 2.552.051 1.822.278 3.676.266 5.494-.036a.254.254 0 0 1 .158.024 6.485 6.485 0 0 0 3.41.149 12.06 12.06 0 0 1 2.554-.118 45.368 45.368 0 0 1 6.081.007c1.094-.192 2.2-.301 3.311-.328.981.011 1.96.111 2.923.3 1.098.187 2.208.295 3.321.323 1.055.023 2.107.123 3.148.3 2.872.252 4.2.367 5.705-.332a.25.25 0 0 1 .089-.023c2.547-.173 4.649-.233 6.009-.263.929.12 1.868.131 2.8.032a19.78 19.78 0 0 1 2.765-.044c1.104.13 2.219.124 3.322-.019a25.3 25.3 0 0 1 2.626-.128c1.7-.288 3.441-.232 5.119.165l3.718-.009c2.09-.005 4.095-.009 6.017-.01h20.312a2.088 2.088 0 1 0 0-4.178l.004-.008ZM262.947 152.03c-.939.4-1.682.707-1.962.838-.641.433-.825.57-1.015.993a15.927 15.927 0 0 0-1.054 2.333 20.822 20.822 0 0 1-2.08 4.217 68.198 68.198 0 0 0-2.743 5.454l-1 3.919a28.262 28.262 0 0 1-3.3 5.968 17.34 17.34 0 0 1-1.4 1.531 13.634 13.634 0 0 0-1.894 2.224.274.274 0 0 1-.045.051l-.266.231c-1.6 1.388-2.558 2.226-4.235 2.643-.39.139-.799.216-1.212.228-.348.031-.84.073-1.648.177-.729.009-1.469.068-2.254.129a20.364 20.364 0 0 1-4.971-.021c-.689.012-1.424.009-2.158.006a36.965 36.965 0 0 0-7.035.4c-1.626.26-3.272.365-4.917.313h-.091a26.83 26.83 0 0 0-4.259.229 26.928 26.928 0 0 1-5.994.375c-.434-.007-.86-.014-1.277-.015l-.643.061c-.677.087-1.359.119-2.041.093h-.04l-.155.039a1.932 1.932 0 0 0-1.379.732 13.933 13.933 0 0 1-1.434 1.691 41.233 41.233 0 0 0-3.918 4.788 42.222 42.222 0 0 1-5.446 6.58.799.799 0 0 0-.308.558 1.41 1.41 0 0 1-.081.327c-.011.06-.038.18-.108.482a68.71 68.71 0 0 0-.756 3.6 301.24 301.24 0 0 0-1.916 9.537L186 222.117a20.195 20.195 0 0 0-.876 3.325 9.754 9.754 0 0 1-.443 1.51 89.93 89.93 0 0 0-5.11 7.523l-.831 1.1a68.453 68.453 0 0 0-4.556 6.36c-.017.058-.759 2.172-2.306 2.524l-.032.005c-.951.1-2.319.306-3.9.551-1.557.24-3.32.513-5.005.72a92.757 92.757 0 0 0-10.1 1.121.284.284 0 0 1-.237.094c-6.249 0-10.693-.613-13.986-1.927a51.107 51.107 0 0 1-6.141-2.45c-.589-.27-1.1-.5-1.473-.651a.226.226 0 0 1-.073-.044 87.485 87.485 0 0 1-3.627-3.355c-.8-.728-1.435-1.429-2.052-2.106-.454-.5-.884-.973-1.351-1.424a.251.251 0 0 1-.045-.058 7.695 7.695 0 0 0-1.533-1.835 11.688 11.688 0 0 1-1.615-1.813 13.227 13.227 0 0 1-3.006-3.932 26.98 26.98 0 0 0-2.51-3.883 25.807 25.807 0 0 1-2.732-4.314 14.388 14.388 0 0 0-1.56-2.758c-.88-1.325-1.712-2.58-1.759-3.732-1.038-1.075-2.055-4.376-2.736-6.792l-.442-1.078c-1.072-2.611-1.848-4.5-1.814-6.017-.138-.522-.243-1.2-.363-1.971a31.036 31.036 0 0 0-1.106-5.043c-.562-.883-.6-2.559-.631-4.181.057-1-.054-2.003-.329-2.967a.234.234 0 0 1-.03-.137 15.263 15.263 0 0 0-.224-3.173 12.559 12.559 0 0 1-.09-4.442 19.256 19.256 0 0 1 .506-6.707c.069-.458.155-.93.239-1.391a12.69 12.69 0 0 0 .255-4.917.245.245 0 0 1 .014-.144 9.728 9.728 0 0 0 .6-3.125c.045-.998.197-1.988.452-2.953a31.74 31.74 0 0 0 1.232-4.129c.18-.733.368-1.491.591-2.24.28-.746.5-1.555.718-2.338a12.673 12.673 0 0 1 1.348-3.568 26.54 26.54 0 0 0 1.275-2.877c.417-1.037.848-2.109 1.3-2.971a17.806 17.806 0 0 1 2.346-4.628c.19-.3.386-.6.582-.913a21.41 21.41 0 0 1 1.4-2.092 13.191 13.191 0 0 0 1.874-3.137 20.825 20.825 0 0 1 2.725-3.7 19.539 19.539 0 0 0 2.249-2.965 66.556 66.556 0 0 1 5.6-6.174 75.451 75.451 0 0 0 1.522-1.561 22.604 22.604 0 0 1 4.835-4.175c1.312-1.073 2.4-1.845 3.46-2.591.985-.7 1.916-1.356 2.932-2.2.952-.6 1.821-1.208 2.662-1.793a17.57 17.57 0 0 1 4.5-2.6c.84-.451 1.706-.851 2.593-1.2a35.507 35.507 0 0 0 4.885-2.375 20.66 20.66 0 0 1 7.16-2.966l.617-.159c3.3-.863 5.675-1.362 8.441-1.926.712-.092 1.614-.17 2.57-.253 2.223-.193 4.99-.433 6.064-.919a.251.251 0 0 1 .091-.021c1.619-.073 3.088-.191 4.509-.3 1.473-.118 2.864-.228 4.125-.26a16.446 16.446 0 0 1 6.344.113c.904.16 1.818.26 2.735.3.026 0 .052.005.077.014a29.652 29.652 0 0 0 7.252 1.294c.565.051 1.123.1 1.672.159 2.868-.3 4.7.536 7.021 1.589l.5.227c.607.194 1.3.391 2 .589 2.062.587 4.015 1.143 4.727 1.912a19.302 19.302 0 0 1 6.016 2.629c.293.174.584.347.877.517.911.42 1.776.934 2.581 1.533a11.689 11.689 0 0 0 3.494 1.877.245.245 0 0 1 .106.055 13.93 13.93 0 0 0 3.5 2.088c1.241.575 2.317 1.074 2.7 1.961a18.548 18.548 0 0 0 2.685 2.205 15.17 15.17 0 0 1 2.839 2.428.283.283 0 0 1 .038.059 7.298 7.298 0 0 0 3 3.014 5.523 5.523 0 0 1 2.33 2.261c.438.424.902.823 1.387 1.193a9.179 9.179 0 0 1 3.365 4.078c.761.924 1.455 1.908 2.126 2.86.746 1.058 1.516 2.152 2.362 3.13a33.85 33.85 0 0 1 3.129 5.148 66 66 0 0 0 .612 1.144 10.146 10.146 0 0 0 1.659 3.158 8.277 8.277 0 0 1 1.707 3.65c.347.928.742 1.746 1.126 2.538a17.462 17.462 0 0 1 1.635 4.453c.03.036.049.079.057.125.031.3.044.418-6.349 3.106" fill="#111"></path><path d="M375.651 354.546a.264.264 0 0 1 .179.023c.208.021 1 0 1.906-.034 2.079-.066 5.56-.178 8.75.005a53.957 53.957 0 0 1 2.871-.072c1.773 0 3.418.072 4.743.128.988.095 1.983.098 2.971.009.033-.045.044-.042.1-.057 1.355-.369 2.176-.693 2.154-2.094.026-.776-.67-1.181-1.407-1.612-.225-.13-.454-.265-.667-.411-.986.451-5.958.518-10.808-.072-8.376.411-10.4.362-10.856.006a2.71 2.71 0 0 0-1.966 2.117.243.243 0 0 1-.07.144c-.061.062-.247.251 0 .691a2.58 2.58 0 0 0 2.1 1.229M318.884 355.034c4.089-.1 8.318-.2 12.127.072 2.8-.053 5.611 0 8.33.043 3.285.057 6.389.111 8.774-.043.071 0 5.62-.173 7.107.019a.343.343 0 0 1 .105-.02v.036l.039.007.009-.035a1.383 1.383 0 0 0 1.214-.222 2.456 2.456 0 0 0 .814-1.864 2.788 2.788 0 0 0-2-2.092c-.312.191-1.138.171-3.357.094a149.311 149.311 0 0 0-3.921-.1c-1.836-.035-4.09-.009-6.478.021-3.309.04-7.058.085-10.665-.021-4.864-.153-9.842-.1-14.658-.049-1.949.021-3.882.042-5.789.049-3.879-.049-7.593-.027-10.869-.008a418.94 418.94 0 0 1-6.273.008h-7.184a2.094 2.094 0 0 0-1.507.595 2.073 2.073 0 0 0-.464.684 2.083 2.083 0 0 0 .464 2.303 2.094 2.094 0 0 0 1.507.595h7.191l1.344.046a156.08 156.08 0 0 0 15.778-.045c2.625.065 5.411 0 8.362-.072" fill="#111"></path></svg>