<svg xmlns="http://www.w3.org/2000/svg" height="1200" width="1600" version="1.1" xmlns:xlink="http://www.w3.org/1999/xlink" xmlns:svgjs="http://svgjs.com/svgjs"><rect fill="#ffeadf" width="1600" height="1200"></rect><g><path d="M1145.78 453.14L1010.93 453.1C1007.76 453.1 1004.71 451.84 1002.47 449.59 1000.22 447.35 998.95 444.29 998.95 441.12V303.43C998.95 300.26 1000.22 297.2 1002.47 294.96 1004.71 292.71 1007.76 291.45 1010.93 291.45L1145.75 291.39C1148.94 291.41 1152 292.68 1154.25 294.93 1156.49 297.19 1157.76 300.25 1157.77 303.43V441.13C1157.77 444.31 1156.5 447.36 1154.25 449.61 1152 451.86 1148.96 453.13 1145.78 453.14V453.14Z" fill="#f9f9f9" opacity="1" stroke-width="3" stroke="none"></path><path d="M1145.79 453.18C1145.76 453.18 1145.74 453.17 1145.73 453.16 1145.71 453.14 1145.7 453.13 1145.7 453.1 1145.7 453.08 1145.71 453.06 1145.73 453.04 1145.74 453.03 1145.76 453.02 1145.79 453.02 1145.85 453.02 1152.47 452.6 1152.47 445.06V304.5C1152.47 293.67 1145.84 291.55 1145.77 291.53 1145.74 291.52 1145.73 291.51 1145.72 291.49 1145.71 291.47 1145.7 291.46 1145.71 291.44 1145.71 291.42 1145.72 291.4 1145.74 291.38 1145.75 291.38 1145.77 291.37 1145.79 291.37 1148.99 291.37 1152.05 292.64 1154.32 294.91 1156.58 297.16 1157.85 300.23 1157.85 303.43V441.12C1157.85 444.32 1156.58 447.39 1154.31 449.64 1152.05 451.91 1148.99 453.18 1145.79 453.18Z" fill="#8b8b8b" opacity="1" stroke-width="3" stroke="none"></path></g><g><path d="M1083.05 372.18L1094.28 413.38C1094.35 413.63 1094.51 413.83 1094.72 413.96 1094.94 414.09 1095.19 414.13 1095.44 414.08 1095.68 414.02 1095.9 413.87 1096.03 413.66 1096.17 413.45 1096.22 413.19 1096.18 412.95L1088.32 371.52C1088.28 371.28 1088.15 371.07 1087.96 370.93 1087.77 370.78 1087.54 370.71 1087.3 370.73L1083.92 370.96C1083.78 370.97 1083.64 371.01 1083.51 371.08 1083.39 371.15 1083.28 371.25 1083.2 371.37 1083.12 371.48 1083.06 371.62 1083.03 371.76 1083.01 371.9 1083.01 372.05 1083.05 372.18V372.18Z" fill="#e66a48" opacity="1" stroke-width="3" stroke="none"></path><path d="M1083.05 372.18L1094.28 413.38C1094.35 413.63 1094.51 413.83 1094.72 413.96 1094.94 414.09 1095.19 414.13 1095.44 414.08 1095.68 414.02 1095.9 413.87 1096.03 413.66 1096.17 413.45 1096.22 413.19 1096.18 412.95L1088.32 371.52C1088.28 371.28 1088.15 371.07 1087.96 370.93 1087.77 370.78 1087.54 370.71 1087.3 370.73L1083.92 370.96C1083.78 370.97 1083.64 371.01 1083.51 371.08 1083.39 371.15 1083.28 371.25 1083.2 371.37 1083.12 371.48 1083.06 371.62 1083.03 371.76 1083.01 371.9 1083.01 372.05 1083.05 372.18V372.18Z" fill="#e14a21" opacity="1" stroke-width="3" stroke="none"></path><path d="M1054.05 372.18L1042.82 413.38C1042.75 413.63 1042.59 413.83 1042.38 413.96 1042.16 414.09 1041.91 414.13 1041.66 414.08 1041.42 414.02 1041.2 413.87 1041.07 413.66 1040.93 413.45 1040.88 413.19 1040.93 412.95L1048.78 371.52C1048.82 371.28 1048.95 371.07 1049.14 370.93 1049.33 370.78 1049.56 370.71 1049.8 370.73L1053.18 370.96C1053.32 370.97 1053.46 371.01 1053.59 371.08 1053.71 371.15 1053.82 371.25 1053.9 371.37 1053.99 371.48 1054.04 371.62 1054.07 371.76 1054.09 371.9 1054.08 372.05 1054.05 372.18Z" fill="#e66a48" opacity="1" stroke-width="3" stroke="none"></path><path d="M1054.05 372.18L1042.82 413.38C1042.75 413.63 1042.59 413.83 1042.38 413.96 1042.16 414.09 1041.91 414.13 1041.66 414.08 1041.42 414.02 1041.2 413.87 1041.07 413.66 1040.93 413.45 1040.88 413.19 1040.93 412.95L1048.78 371.52C1048.82 371.28 1048.95 371.07 1049.14 370.93 1049.33 370.78 1049.56 370.71 1049.8 370.73L1053.18 370.96C1053.32 370.97 1053.46 371.01 1053.59 371.08 1053.71 371.15 1053.82 371.25 1053.9 371.37 1053.99 371.48 1054.04 371.62 1054.07 371.76 1054.09 371.9 1054.08 372.05 1054.05 372.18Z" fill="#e14a21" opacity="1" stroke-width="3" stroke="none"></path><path d="M1075.17 372.18L1063.94 413.38C1063.87 413.63 1063.71 413.83 1063.5 413.96 1063.28 414.09 1063.02 414.13 1062.78 414.08 1062.53 414.02 1062.32 413.87 1062.18 413.66 1062.05 413.45 1062 413.19 1062.04 412.95L1069.9 371.52C1069.94 371.28 1070.07 371.07 1070.26 370.93 1070.45 370.78 1070.68 370.71 1070.92 370.73L1074.3 370.96C1074.44 370.97 1074.58 371.01 1074.7 371.08 1074.83 371.15 1074.94 371.25 1075.02 371.37 1075.1 371.48 1075.16 371.62 1075.18 371.76 1075.21 371.9 1075.2 372.05 1075.17 372.18Z" fill="#e66a48" opacity="1" stroke-width="3" stroke="none"></path><path d="M1097.82 370.96C1097.67 370.97 1097.53 371.01 1097.41 371.08 1097.28 371.15 1097.17 371.25 1097.09 371.37 1097.01 371.48 1096.95 371.62 1096.93 371.76 1096.9 371.9 1096.91 372.05 1096.95 372.18L1108.18 413.38C1108.24 413.63 1108.4 413.83 1108.61 413.96 1108.83 414.09 1109.09 414.13 1109.33 414.08 1109.58 414.02 1109.79 413.87 1109.93 413.66 1110.07 413.45 1110.12 413.19 1110.07 412.95L1102.21 371.52C1102.17 371.28 1102.04 371.07 1101.85 370.93 1101.66 370.78 1101.43 370.71 1101.19 370.73L1097.82 370.96Z" fill="#e66a48" opacity="1" stroke-width="3" stroke="none"></path><path d="M1103.24 372.41C1105.35 372.41 1107.16 371.35 1107.41 369.24 1107.66 367.12 1109.84 354.1 1104.61 341.76 1099.37 329.43 1074.58 329.05 1070.03 341.14 1065.48 353.23 1060.69 347.68 1050.66 352.73 1040.63 357.77 1041.94 368.3 1041.94 370.23 1041.94 372.16 1043.43 372.48 1044.31 372.48 1045.18 372.48 1101.12 372.41 1103.24 372.41Z" fill="#e66a48" opacity="1" stroke-width="3" stroke="none"></path></g><g><path d="M348.54 941.18C341.09 940.85 333.68 942.87 326.89 947.04 319.1 951.74 198.75 1005.76 191.84 1008.08 184.92 1010.41 184.05 1028.04 189.25 1028.04H1409.94C1417.73 1028.04 1413.41 1016.3 1406.48 1012.78 1399.55 1009.27 1237.65 950.56 1232.46 948.21 1224.61 944.82 1216.45 942.85 1208.22 942.35 1200.43 942.35 348.54 941.18 348.54 941.18Z" fill="#ffdecc" opacity="1" stroke-width="3" stroke="none"></path><path d="M213.04 1016.32C219.57 1014.26 226.36 1014.05 232.96 1015.73 242.91 1018.67 255.03 1013.97 262.39 1013.39 269.75 1012.8 278.41 1017.5 281.88 1016.9 285.34 1016.3 291.83 1013.97 296.17 1013.39 300.5 1012.8 304.83 1015.73 311.31 1016.32 317.8 1016.9 330.35 1012.8 342.05 1012.8 353.75 1012.8 357.63 1017.5 361.09 1016.92 364.56 1016.34 371.49 1014.57 379.28 1013.99 387.06 1013.41 389.67 1018.11 397.46 1016.92 405.25 1015.73 406.98 1013.41 415.64 1012.8 420.7 1012.39 425.73 1014.24 429.93 1018.08 429.93 1018.08 439.02 1013.97 445.5 1013.97 451.99 1013.97 457.19 1018.08 461.95 1018.08 466.72 1018.08 472.35 1012.8 481.87 1013.39 491.39 1013.97 496.59 1017.5 502.64 1016.9 508.7 1016.3 512.59 1013.97 520.4 1013.39 528.2 1012.8 530.79 1018.08 534.26 1017.5 537.72 1016.92 543.78 1013.99 553.74 1013.39 563.71 1012.78 564.99 1016.32 569.76 1016.32 574.53 1016.32 579.71 1013.39 587.94 1012.8 596.18 1012.22 601.36 1018.08 605.25 1016.32 609.15 1014.55 614.77 1011.04 621.27 1013.97" stroke="#f5d4c2" stroke-width="3" stroke-linecap="round" stroke-linejoin="round" opacity="1" fill="none"></path><path d="M1026.41 1015.13C1034.17 1013.72 1042.03 1013.72 1049.79 1015.13 1062.77 1017.48 1067.1 1010.43 1078.37 1011.62 1089.63 1012.8 1094.82 1018.67 1100.01 1017.48 1105.21 1016.3 1118.2 1011.62 1125.13 1010.43 1132.05 1009.25 1140.7 1015.13 1147.63 1015.13 1154.56 1015.13 1161.49 1010.43 1175.33 1010.43 1189.18 1010.43 1193.52 1017.48 1198.71 1016.3 1203.91 1015.11 1209.11 1010.43 1219.49 1009.25 1229.87 1008.06 1235.06 1013.95 1240.26 1013.95 1245.46 1013.95 1250.65 1009.25 1261.03 1009.25 1271.41 1009.25 1275.75 1017.46 1280.08 1016.3 1284.4 1015.13 1292.2 1010.43 1304.31 1010.43 1316.42 1010.43 1318.17 1017.48 1318.17 1017.48" stroke="#f5d4c2" stroke-width="3" stroke-linecap="round" stroke-linejoin="round" opacity="1" fill="none"></path></g><g><path d="M1002.47 474.85H805.49C802.94 474.85 800.73 475.68 799.84 478.86 798.98 481.9 759.12 600.77 758.39 602.96 757.66 605.15 758.76 606.61 760.58 606.61L966.27 606.61C968.82 606.61 970.28 605.15 971.01 602.59 971.74 600.04 1003.49 480.69 1004.22 478.86 1004.97 477.04 1004.29 474.85 1002.47 474.85Z" fill="#f9f9f9" opacity="1" stroke-width="3" stroke="none"></path><path d="M966.29 606.72C968.77 606.72 970.36 605.38 971.14 602.63 971.36 601.84 974.5 590.11 978.83 573.87 988.18 538.82 1003.84 480.16 1004.35 478.91 1004.54 478.46 1004.65 477.96 1004.65 477.46 1004.65 476.98 1004.56 476.48 1004.37 476.02 1004.26 475.77 1004.1 475.54 1003.89 475.35 1003.69 475.17 1003.44 475.03 1003.18 474.95 1003.16 474.94 1003.12 474.94 1003.1 474.95 1003.08 474.95 1003.06 474.97 1003.05 475 1003.04 475.02 1003.02 475.04 1003.02 475.06 1003.04 475.09 1003.05 475.11 1003.06 475.13 1003.32 475.47 1003.49 475.88 1003.55 476.3 1003.62 476.73 1003.57 477.16 1003.41 477.57 1002.57 481.09 970.73 600.59 970.01 602.94 969.3 605.21 965.43 605.58 965.39 605.58 965.38 605.58 965.37 605.58 965.36 605.58 965.35 605.58 965.33 605.58 965.32 605.59 965.31 605.6 965.29 605.6 965.28 605.62 965.27 605.63 965.27 605.66 965.27 605.69 965.27 605.71 965.28 605.73 965.29 605.74L965.85 606.66C965.86 606.68 965.87 606.69 965.88 606.71 965.9 606.72 965.92 606.72 965.94 606.72L966.29 606.72Z" fill="#f9f9f9" opacity="1" stroke-width="3" stroke="none"></path><path d="M998.36 480.81C998.36 480.79 998.36 480.78 998.36 480.77 998.36 480.75 998.36 480.74 998.35 480.73 998.34 480.72 998.33 480.71 998.32 480.7 998.31 480.7 998.29 480.7 998.27 480.7H803.23C803.19 480.7 803.17 480.71 803.14 480.73 803.12 480.74 803.1 480.78 803.08 480.81L799.46 491.88 820.85 516.9 944.42 524.39 995.37 491.88 998.36 480.81Z" fill="#f4d3b5" opacity="1" stroke-width="3" stroke="none"></path><path d="M969.09 604.06C969.12 604.06 969.15 604.08 969.16 604.1 969.19 604.12 969.2 604.14 969.2 604.18V610.15C969.2 610.19 969.19 610.21 969.16 610.23 969.15 610.25 969.12 610.26 969.09 610.26H701.94C701.91 610.26 701.89 610.25 701.85 610.23 701.82 610.22 701.8 610.2 701.79 610.17L699.54 605.69C699.48 605.56 699.46 605.4 699.46 605.26 699.47 605.1 699.51 604.96 699.59 604.84 699.67 604.71 699.78 604.61 699.91 604.53 700.04 604.46 700.19 604.42 700.33 604.42L969.09 604.06Z" fill="#f9f9f9" opacity="1" stroke-width="3" stroke="none"></path><path d="M969.09 610.26H701.94" stroke="#c3c3c3" stroke-width="3" stroke-linecap="round" stroke-linejoin="round" opacity="1" fill="none"></path><path d="M966.46 598.58H921.38L789.84 521.21 799.46 491.88 995.35 491.88 966.46 598.58Z" fill="#efad71" opacity="1" stroke-width="3" stroke="none"></path><path d="M789.84 521.21H942.19L921.38 598.58H764.6C764.59 598.58 764.58 598.58 764.57 598.57 764.56 598.57 764.55 598.56 764.54 598.55 764.53 598.54 764.53 598.53 764.53 598.52 764.53 598.51 764.53 598.49 764.53 598.47L789.84 521.21Z" fill="#f4d3b5" opacity="1" stroke-width="3" stroke="none"></path><path d="M857.6 505.33H950.67C951.71 505.32 952.71 504.92 953.47 504.21 954.23 503.5 954.7 502.54 954.77 501.5 954.82 501 954.76 500.51 954.6 500.04 954.44 499.57 954.18 499.14 953.85 498.79 953.51 498.43 953.11 498.14 952.64 497.95 952.19 497.75 951.7 497.65 951.2 497.66H858.13C857.09 497.67 856.1 498.07 855.35 498.79 854.58 499.5 854.12 500.46 854.03 501.5 854 501.98 854.05 502.48 854.22 502.95 854.37 503.42 854.64 503.84 854.97 504.21 855.3 504.57 855.71 504.86 856.16 505.05 856.62 505.24 857.11 505.34 857.6 505.33Z" fill="#f4d3b5" opacity="1" stroke-width="3" stroke="none"></path><path d="M825.44 504.58C824.05 503.14 824.18 500.78 825.72 499.29 827.25 497.8 829.63 497.75 831.02 499.19 832.4 500.62 832.28 502.99 830.73 504.48 829.2 505.97 826.82 506.02 825.44 504.58Z" fill="#f4d3b5" opacity="1" stroke-width="3" stroke="none"></path><path d="M811.31 504.58C809.91 503.14 810.05 500.78 811.58 499.29 813.12 497.8 815.49 497.75 816.89 499.19 818.27 500.62 818.15 502.99 816.6 504.48 815.06 505.97 812.69 506.02 811.31 504.58Z" fill="#f4d3b5" opacity="1" stroke-width="3" stroke="none"></path><path d="M791.49 521.21H985.81" stroke="#b6763c" stroke-width="3" stroke-linecap="round" stroke-linejoin="round" opacity="1" fill="none"></path><path d="M954.61 515.73H977.97C978.85 515.69 979.71 515.37 980.4 514.8 981.09 514.25 981.57 513.49 981.79 512.63 981.92 512.26 981.94 511.87 981.87 511.49 981.81 511.11 981.65 510.76 981.41 510.45 981.18 510.15 980.88 509.91 980.52 509.74 980.18 509.58 979.79 509.5 979.41 509.52H956.05C955.16 509.57 954.31 509.89 953.62 510.45 952.94 511 952.44 511.76 952.22 512.63 952.11 512.99 952.09 513.38 952.15 513.76 952.22 514.14 952.38 514.49 952.61 514.8 952.84 515.1 953.15 515.35 953.49 515.51 953.85 515.68 954.23 515.75 954.61 515.73V515.73Z" fill="#f4d3b5" opacity="1" stroke-width="3" stroke="none"></path><path d="M982.31 534.35H940.36" stroke="#b6763c" stroke-width="3" stroke-linecap="round" stroke-linejoin="round" opacity="1" fill="none"></path><path d="M979.01 546.21H936.73" stroke="#b6763c" stroke-width="3" stroke-linecap="round" stroke-linejoin="round" opacity="1" fill="none"></path><path d="M975.94 557.7H933.66" stroke="#b6763c" stroke-width="3" stroke-linecap="round" stroke-linejoin="round" opacity="1" fill="none"></path><path d="M988.78 488.18C988.06 487.37 988.29 485.99 989.31 485.09 990.32 484.19 991.72 484.11 992.44 484.92 993.16 485.72 992.92 487.11 991.91 488 990.9 488.91 989.5 488.99 988.78 488.18Z" fill="#1c1b1a" opacity="1" stroke-width="3" stroke="none"></path><path d="M979.47 488.18C978.76 487.37 978.99 485.99 980 485.09 981.01 484.19 982.41 484.11 983.13 484.92 983.85 485.73 983.62 487.11 982.6 488.02 981.6 488.91 980.19 488.99 979.47 488.18Z" fill="#1c1b1a" opacity="1" stroke-width="3" stroke="none"></path><path d="M935.73 533.75H789.25" stroke="#f9f9f9" stroke-width="3" stroke-linecap="round" stroke-linejoin="round" opacity="1" fill="none"></path><path d="M931.6 548.1H785.11" stroke="#f9f9f9" stroke-width="3" stroke-linecap="round" stroke-linejoin="round" opacity="1" fill="none"></path><path d="M926.98 563.67L780.5 563.67" stroke="#f9f9f9" stroke-width="3" stroke-linecap="round" stroke-linejoin="round" opacity="1" fill="none"></path><path d="M923.08 577.78H776.59" stroke="#f9f9f9" stroke-width="3" stroke-linecap="round" stroke-linejoin="round" opacity="1" fill="none"></path><path d="M917.97 591.65H771.49" stroke="#f9f9f9" stroke-width="3" stroke-linecap="round" stroke-linejoin="round" opacity="1" fill="none"></path><path d="M969.2 610.38C969.23 610.38 969.26 610.36 969.27 610.34 969.3 610.32 969.31 610.3 969.31 610.26V604.18C969.31 604.12 969.28 604.06 969.25 604.02 969.21 603.98 969.15 603.95 969.09 603.95L887.07 604.06C887.05 604.06 887.02 604.08 887 604.1 886.97 604.12 886.96 604.14 886.96 604.18V610.26C886.96 610.3 886.97 610.32 887 610.34 887.02 610.36 887.05 610.38 887.07 610.38H969.2Z" fill="#c3c3c3" opacity="1" stroke-width="3" stroke="none"></path></g><g><path d="M631.59 623.79V985.59C631.59 986.01 631.64 986.43 631.73 986.82 631.82 987.21 631.96 987.57 632.13 987.87 632.3 988.17 632.5 988.4 632.72 988.57 632.94 988.73 633.18 988.81 633.42 988.81H647.64C647.88 988.81 648.12 988.73 648.34 988.57 648.56 988.4 648.77 988.17 648.94 987.87 649.1 987.57 649.24 987.21 649.33 986.82 649.43 986.43 649.47 986.01 649.47 985.59V878.87C649.47 876.46 649.74 874.08 650.26 871.86 650.79 869.63 651.55 867.6 652.52 865.9 653.49 864.19 654.64 862.85 655.9 861.92 657.16 861 658.52 860.52 659.89 860.52H1139.52C1140.89 860.52 1142.24 861 1143.51 861.92 1144.77 862.85 1145.92 864.19 1146.88 865.9 1147.85 867.6 1148.62 869.63 1149.14 871.86 1149.67 874.08 1149.93 876.46 1149.93 878.87V983.26C1149.93 983.68 1149.98 984.1 1150.07 984.49 1150.17 984.88 1150.3 985.24 1150.47 985.54 1150.64 985.83 1150.84 986.07 1151.07 986.24 1151.29 986.4 1151.53 986.48 1151.77 986.48H1166.64C1166.88 986.48 1167.12 986.4 1167.34 986.24 1167.56 986.07 1167.77 985.83 1167.94 985.54 1168.11 985.24 1168.24 984.88 1168.33 984.49 1168.43 984.1 1168.47 983.68 1168.47 983.26L1168.47 687.31 1168.47 622.63 631.59 623.79Z" fill="#f9f9f9" opacity="1" stroke-width="3" stroke="none"></path><path d="M631.59 644.74L1168.47 687.31 1168.92 622.63 631.3 623.79 631.59 644.74Z" fill="#eeeeee" opacity="1" stroke-width="3" stroke="none"></path><path d="M1173.34 637.13H624.93C624.52 637.13 624.14 636.85 623.86 636.35 623.57 635.86 623.41 635.18 623.41 634.47V613.76C623.41 613.05 623.57 612.37 623.86 611.88 624.14 611.37 624.52 611.1 624.93 611.1H1173.34C1173.74 611.1 1174.13 611.37 1174.41 611.88 1174.69 612.37 1174.85 613.05 1174.85 613.76V634.47C1174.85 634.82 1174.81 635.17 1174.74 635.49 1174.66 635.81 1174.55 636.1 1174.41 636.36 1174.27 636.61 1174.1 636.8 1173.92 636.93 1173.73 637.07 1173.54 637.13 1173.34 637.13V637.13Z" fill="#f9f9f9" opacity="1" stroke-width="3" stroke="none"></path></g><g><path d="M533.8 1009.23C438.55 1009.23 361.33 1004.28 361.33 998.17 361.33 992.07 438.55 987.11 533.8 987.11 629.05 987.11 706.28 992.07 706.28 998.17 706.28 1004.28 629.05 1009.23 533.8 1009.23Z" fill="#ffdecc" opacity="1" stroke-width="3" stroke="none"></path><path d="M485.82 750.05H506.49V973.7H485.82V750.05Z" fill="#efad71" opacity="1" stroke-width="3" stroke="none"></path><path d="M485.82 793.14L485.21 750.05H507.11L506.49 785.61 485.82 793.14Z" fill="#d07018" opacity="1" stroke-width="3" stroke="none"></path><path d="M435.61 756.66H556.71C558.58 756.66 560.44 756.29 562.17 755.57 563.9 754.86 565.47 753.8 566.8 752.48 568.13 751.15 569.17 749.58 569.9 747.85 570.61 746.12 570.98 744.26 570.98 742.39V740.76C570.98 738.89 570.61 737.03 569.9 735.3 569.17 733.56 568.13 731.99 566.8 730.67 565.47 729.34 563.9 728.29 562.17 727.57 560.44 726.86 558.58 726.49 556.71 726.49H435.61C433.73 726.49 431.88 726.86 430.14 727.57 428.41 728.29 426.84 729.34 425.51 730.67 424.19 731.99 423.14 733.56 422.42 735.3 421.7 737.03 421.33 738.89 421.33 740.76V742.39C421.33 744.26 421.7 746.12 422.42 747.85 423.14 749.58 424.19 751.15 425.51 752.48 426.84 753.8 428.41 754.86 430.14 755.57 431.88 756.29 433.73 756.66 435.61 756.66Z" fill="#c26d21" opacity="1" stroke-width="3" stroke="none"></path><path d="M431.59 997.18C431.59 997.21 431.59 997.22 431.61 997.23 431.63 997.25 431.65 997.26 431.67 997.26H560.15C560.17 997.26 560.19 997.25 560.21 997.23 560.23 997.22 560.24 997.21 560.24 997.18 560.31 996.46 560.65 990.89 553.41 988.57 545.92 986.18 510.06 976.84 507.65 965.86 507.59 965.54 507.42 965.25 507.17 965.04 506.92 964.83 506.61 964.7 506.28 964.69H485.56C485.23 964.7 484.92 964.82 484.66 965.03 484.41 965.24 484.25 965.53 484.19 965.86V965.86C481.77 976.83 445.92 986.17 438.43 988.57 431.19 990.89 431.51 996.45 431.59 997.18Z" fill="#ed770d" opacity="1" stroke-width="3" stroke="none"></path><path d="M550.28 992.54H440.11" stroke="#ae5200" stroke-width="3" stroke-linecap="round" stroke-linejoin="round" opacity="1" fill="none"></path><path d="M540.6 914.48H450.56C449.55 914.48 448.59 914.07 447.87 913.36 447.16 912.65 446.76 911.68 446.76 910.67V910.24C446.76 909.23 447.16 908.26 447.87 907.55 448.59 906.83 449.55 906.43 450.56 906.43H540.6C541.62 906.43 542.58 906.83 543.3 907.55 544.01 908.26 544.41 909.23 544.41 910.24V910.67C544.41 911.68 544.01 912.65 543.3 913.36 542.58 914.07 541.62 914.48 540.6 914.48V914.48Z" fill="#ffffff" opacity="1" stroke-width="3" stroke="none"></path><path d="M565.81 911.37C565.81 911.37 563.33 929.04 562.09 934.63 561.28 938.26 557.45 948.06 554.97 954.37 553.65 957.74 552.79 960.05 552.79 960.05L576.97 987.95 617.89 990.43C617.89 990.43 613.56 985.28 608.37 978.96 601.27 970.31 592.62 959.54 591.54 957.57 589.69 954.15 587.2 949.2 589.99 940.82 590.79 938.43 591.69 935.64 592.5 933.11 594.51 926.82 596.2 921.29 596.2 921.29L565.81 911.37Z" fill="#fc9968" opacity="1" stroke-width="3" stroke="none"></path><path d="M565.51 911.14L596.64 921.3 592.5 933.11 565.16 915.89 565.51 911.14Z" fill="#d77342" opacity="1" stroke-width="3" stroke="none"></path><path d="M588.18 633.34C588.9 635.38 603.79 677.32 608.93 678.54 610.42 678.89 618.52 678.6 629.65 677.97 657.9 676.39 705.66 672.69 714.34 672.02 720.38 671.57 727.05 671.25 734.02 670.83 740.99 670.4 748.29 669.86 755.57 668.93 759.75 668.4 779.14 667.07 781.92 667.07 783.54 667.07 784.54 666.13 784.54 665.21 784.54 664.55 784.03 663.91 782.86 663.66 780.57 663.15 775.4 662.02 773.57 661.62 773.55 661.62 773.52 661.61 773.51 661.59 773.5 661.57 773.49 661.55 773.5 661.53 773.5 661.5 773.5 661.48 773.52 661.47 773.54 661.45 773.57 661.45 773.59 661.45 776.2 661.32 785.77 660.81 788.44 660.55 791.53 660.24 793.08 656.52 789.98 655.59 787.74 654.91 780.3 654.73 776.35 654.67 776.33 654.67 776.3 654.66 776.28 654.65 776.28 654.63 776.27 654.61 776.27 654.58 776.27 654.56 776.28 654.54 776.28 654.52 776.3 654.51 776.33 654.5 776.35 654.5 780.62 654.23 789.09 653.72 790.92 653.72 791.65 653.63 792.33 653.29 792.83 652.75 793.33 652.2 793.62 651.49 793.64 650.75 793.64 649.79 793.05 648.94 791.53 648.76 787.18 648.25 780.28 647.32 778.02 647.01 777.99 647.01 777.97 647 777.95 646.98 777.94 646.96 777.93 646.95 777.93 646.92 777.93 646.89 777.94 646.88 777.95 646.86 777.97 646.84 777.99 646.83 778.02 646.83 780.38 646.6 787.6 645.86 789.67 645.35 792.15 644.74 792.2 641.32 788.73 641.32 785.01 641.32 775.71 641.63 769.2 641.63 764.54 641.57 759.88 641.27 755.25 640.73 755.23 640.73 755.21 640.73 755.2 640.71 755.18 640.7 755.18 640.68 755.18 640.66 755.18 640.64 755.18 640.62 755.18 640.6 755.19 640.59 755.21 640.58 755.23 640.57 756.84 639.84 764.75 636.2 766.41 634.81 768.27 633.26 767.03 629.23 764.24 630.48 761.45 631.72 743.5 637.89 737.89 641.32 732.31 644.74 727.7 644.76 718.35 645.05 710.85 645.28 667.55 644.45 646.87 644.03 640.68 643.91 636.52 643.82 635.95 643.81 635.92 643.81 635.91 643.8 635.89 643.79 635.88 643.78 635.86 643.76 635.86 643.74L628.79 615.37C628.78 615.36 628.78 615.34 628.77 615.33 628.77 615.32 628.76 615.31 628.75 615.31 628.74 615.31 628.73 615.31 628.72 615.31 628.71 615.31 628.7 615.31 628.69 615.31L588.22 633.23C588.21 633.24 588.19 633.26 588.18 633.27 588.17 633.3 588.17 633.32 588.18 633.34V633.34Z" fill="#fc9968" opacity="1" stroke-width="3" stroke="none"></path><path d="M588.18 633.34C588.9 635.38 603.79 677.32 608.93 678.54 610.08 678.81 615.26 678.69 622.76 678.33 636.56 673.54 646.87 662.23 646.87 644.03V644.03C643.24 643.76 639.58 643.68 635.95 643.81 635.92 643.81 635.91 643.8 635.89 643.79 635.88 643.78 635.86 643.76 635.86 643.74L628.79 615.37C628.78 615.36 628.78 615.34 628.77 615.33 628.77 615.32 628.76 615.31 628.75 615.31 628.74 615.31 628.73 615.31 628.72 615.31 628.71 615.31 628.7 615.31 628.69 615.31L588.22 633.23C588.21 633.24 588.19 633.26 588.18 633.27 588.17 633.3 588.17 633.32 588.18 633.34V633.34Z" fill="#d77342" opacity="1" stroke-width="3" stroke="none"></path><path d="M593.09 499.33C593.09 499.33 597.64 491.88 598.88 489.82 599.05 489.52 599.27 489.24 599.51 489.01 601.19 487.55 605.08 486.64 610.35 487.6 611.16 487.75 612.04 487.91 612.93 488.16 620.38 490.23 633.6 500.97 640.63 489.4 647.66 477.83 650.14 473.28 652.2 471.21 654.26 469.15 661.71 471.63 663.37 467.91 665.02 464.18 656.34 455.92 656.75 449.72 657.16 443.52 665.02 434.84 666.26 424.09 667.5 413.33 669.98 384.82 645.18 372 620.38 359.18 577.38 355.05 567.46 377.79 557.53 400.52 558.77 416.64 563.74 430.29 568.7 443.94 575.47 457.28 576.7 462.65 577.93 468.03 572.83 471.64 569.1 477.42L565.38 483.21 593.09 499.33Z" fill="#fc9968" opacity="1" stroke-width="3" stroke="none"></path><path d="M595.2 618.7C595.22 618.7 595.24 618.69 595.25 618.68 595.26 618.67 595.27 618.65 595.27 618.63 595.63 615.99 608 526.52 609.22 520.41 610.46 514.21 609.22 512.97 609.22 506.77 609.22 500.58 612.01 494.06 614.8 490.03 617.59 486 620.36 487.23 625.3 486.61 625.32 486.61 625.35 486.59 625.36 486.58 630.59 479.82 634 480.4 637.08 481.93 637.09 481.94 637.1 481.94 637.12 481.94 637.14 481.94 637.15 481.94 637.16 481.93 640.96 479.63 645.29 482.24 645.76 482.55 645.78 482.56 645.79 482.56 645.8 482.56 645.82 482.56 645.84 482.56 645.85 482.55 646.41 482.26 652.05 479.49 653.55 485.31 653.55 485.32 653.56 485.34 653.57 485.35 653.58 485.36 653.59 485.37 653.61 485.37 656.34 486.03 655.74 490.36 656.97 496.53 658.21 502.73 656.97 504.59 654.8 506.76 652.62 508.94 637.74 516.06 634.65 519.16 631.55 522.26 634.96 619.3 634.96 635.11 634.96 652.38 636.45 679.55 605.81 674.8 601.78 674.17 588.15 664.25 586.29 656.19 584.49 648.41 578.64 624.4 578.25 622.79 578.25 622.78 578.25 622.77 578.25 622.75 578.25 622.74 578.25 622.73 578.26 622.72 578.26 622.71 578.27 622.71 578.28 622.7 578.29 622.69 578.3 622.69 578.31 622.68L595.2 618.7Z" fill="#fc9968" opacity="1" stroke-width="3" stroke="none"></path><path d="M615.58 489.02C618.11 486.22 620.82 487.18 625.29 486.61 625.32 486.61 625.34 486.6 625.36 486.59 630.59 479.83 633.99 480.4 637.08 481.93 637.09 481.94 637.1 481.95 637.12 481.95 637.13 481.95 637.15 481.94 637.16 481.93 640.96 479.63 645.29 482.25 645.76 482.55" stroke="#d06835" stroke-width="3" stroke-linecap="round" stroke-linejoin="round" opacity="1" fill="none"></path><path d="M634.94 643.29C634.69 659.71 631.92 678.84 605.81 674.8" stroke="#d06835" stroke-width="3" stroke-linecap="round" stroke-linejoin="round" opacity="1" fill="none"></path><path d="M570.15 854.64C570.15 854.64 559.92 861.76 555.89 866.73 554.93 868.1 554.29 869.68 554.03 871.34 552.4 879.07 553.42 892.66 554.65 900.52 556.2 910.45 560.23 925.02 560.23 925.02L533.57 924.09 507.83 866.42C507.83 866.42 513.56 863.17 518.7 859.68 521.25 858.02 523.63 856.13 525.81 854.02 528.07 851.58 534.94 843.72 539.95 837.95 543.2 834.22 545.66 831.39 545.66 831.39L570.15 854.64Z" fill="#fc9968" opacity="1" stroke-width="3" stroke="none"></path><path d="M545.19 830.58L570.15 854.64C570.15 854.64 560.34 861.92 556.31 866.89 555.21 868.17 554.43 869.69 554.03 871.34L539.95 837.95C541.93 835.67 543.68 833.19 545.19 830.58V830.58Z" fill="#d77342" opacity="1" stroke-width="3" stroke="none"></path><path d="M553.02 649.67C553.04 649.67 553.06 649.69 553.07 649.72 553.09 649.74 553.1 649.76 553.11 649.79L554.32 659.54C554.33 659.59 554.32 659.65 554.3 659.71L553.76 661.08C553.75 661.09 553.75 661.1 553.75 661.11 553.75 661.13 553.76 661.14 553.76 661.15 553.77 661.17 553.78 661.17 553.79 661.18 553.79 661.19 553.8 661.19 553.82 661.2 556.64 661.87 618.99 676.86 639.59 684.74 660.68 692.8 684.86 704.27 688.58 708.3 692.3 712.33 696.33 732.17 697.57 738.07 698.81 743.96 691.99 756.98 688.58 763.49 685.2 769.93 642.98 811.88 642.09 812.77 642.08 812.78 642.07 812.79 642.07 812.81 641.59 814.17 615.4 888.81 613.55 895.26 611.69 901.77 607.98 924.71 606.11 924.71 604.29 924.71 566.51 912.62 564.63 912.02 564.62 912.02 564.6 912 564.58 911.98 564.57 911.96 564.57 911.94 564.57 911.92L572.27 865.5 573.8 856.24C573.81 856.22 573.8 856.19 573.79 856.18 573.79 856.16 573.77 856.15 573.75 856.14 573.73 856.13 573.72 856.13 573.7 856.14 573.68 856.14 573.66 856.15 573.64 856.17 572.57 857.62 567.83 863.9 566.74 863.63 565.52 863.33 537.12 826.08 535.77 824.32 535.77 824.3 535.76 824.28 535.76 824.25 535.76 824.24 535.77 824.21 535.79 824.2 536.87 823.24 551.97 809.82 555.26 805.35 558.68 800.7 585.95 771.55 588.75 768.76 590.49 767.04 592.47 765.58 594.61 764.43 594.62 764.43 594.63 764.42 594.63 764.42 594.64 764.41 594.64 764.4 594.64 764.4L596.48 754.28C596.48 754.27 596.48 754.25 596.48 754.24 596.47 754.23 596.47 754.21 596.46 754.21 596.45 754.2 596.44 754.19 596.43 754.19 596.43 754.18 596.42 754.17 596.4 754.17 592.86 753.6 483.95 735.83 465.65 731.56 447.05 727.22 441.87 725.03 438.05 717.6 427.2 696.52 431.23 676.68 440.23 654.66 442.25 649.81 444.59 645.08 447.24 640.53 452.78 631 459.25 622.05 466.54 613.78 466.55 613.77 466.57 613.77 466.59 613.76 466.61 613.76 466.62 613.76 466.64 613.77L553.02 649.67Z" fill="#97607a" opacity="1" stroke-width="3" stroke="none"></path><path d="M553.82 661.2L447.25 640.52C450.14 634.58 453.44 630.57 456.32 626.59L508.41 631.56 553.09 649.71 554.63 659.17 553.82 661.2Z" fill="#85526a" opacity="1" stroke-width="3" stroke="none"></path><path d="M565.76 467.14C565.78 467.12 565.8 467.11 565.81 467.11 565.84 467.11 565.86 467.11 565.88 467.12 567.04 467.91 584.78 479.85 586.59 481.35 588.38 482.85 600.89 494.47 601.74 495.26 601.75 495.27 601.76 495.29 601.77 495.31 601.77 495.32 601.77 495.34 601.76 495.36L599.94 499.6C599.94 499.62 599.94 499.63 599.94 499.64 599.94 499.65 599.94 499.67 599.95 499.68 600.38 500.36 606.17 509.7 607.37 513.28 608.61 517 621.94 594.21 623.49 600.4 624.78 605.35 626.65 610.14 629.07 614.66 630.86 618.25 635.53 630.48 635.86 631.36 635.87 631.37 635.87 631.39 635.87 631.4 635.86 631.42 635.86 631.43 635.85 631.44 634.8 632.62 610.48 659.53 582.29 656.83 582.29 656.83 582.27 656.82 582.26 656.81 582.24 656.81 582.23 656.79 582.22 656.78 578.3 649.6 575.03 642.06 572.45 634.29 572.45 634.27 572.43 634.25 572.41 634.24 572.4 634.22 572.38 634.22 572.36 634.22 572.34 634.22 572.32 634.23 572.31 634.25 572.29 634.27 572.28 634.29 572.28 634.3 572.03 636.67 570.78 648.43 570.78 650.94 570.78 653.67 555.08 659.35 554.37 659.62 554.35 659.62 554.33 659.62 554.31 659.62L450.87 633.6C450.86 633.59 450.85 633.59 450.84 633.58 450.83 633.57 450.82 633.56 450.82 633.55 450.81 633.55 450.81 633.54 450.8 633.52 450.8 633.51 450.8 633.5 450.81 633.48 451.02 632.68 452.69 626.35 453.27 624.89 453.88 623.34 452.03 600.71 453.57 595.44 455.12 590.17 502.87 525.99 514.66 510.79 522.89 500.22 532.02 490.36 541.94 481.34V481.34C547.08 476.5 558.99 473.44 559.58 473.29 559.6 473.28 559.62 473.28 559.63 473.26L565.76 467.14Z" fill="#2a2c45" opacity="1" stroke-width="3" stroke="none"></path><path d="M518.62 859.71C518.64 859.7 518.66 859.7 518.69 859.71 518.7 859.72 518.72 859.74 518.73 859.76 519.43 861.65 532.79 897.67 534.6 903.42 536.4 909.12 542.87 913.27 543.27 913.54 543.28 913.55 543.3 913.55 543.31 913.55L558.31 914.16C558.33 914.16 558.35 914.17 558.36 914.19 558.38 914.2 558.39 914.21 558.4 914.23 558.62 915.33 561.55 929.54 563.34 934.01 565.2 938.67 565.2 943.94 560.24 943.94 555.29 943.94 541.95 939.91 535.44 933.7 528.93 927.5 523.15 910.74 520.35 905.7 505.88 879.65 504.85 873.66 504.85 868.7 504.85 863.95 517.5 860.04 518.62 859.71Z" fill="#2a2c45" opacity="1" stroke-width="3" stroke="none"></path><path d="M554.9 954.46C554.91 954.45 554.92 954.44 554.94 954.43 554.95 954.43 554.96 954.43 554.97 954.43 554.98 954.43 555 954.43 555.01 954.43 555.03 954.44 555.03 954.45 555.04 954.46 556.2 955.96 571.9 976.27 574.5 978.86 577.19 981.54 593.72 985.06 599.3 984.85 604.54 984.66 607.93 979.64 608.33 979.02 608.34 979 608.36 978.99 608.37 978.98 608.4 978.98 608.42 978.98 608.44 978.98 608.94 979.2 612.15 980.54 617.09 983.2 622.46 986.09 632.18 987.75 633.2 989.6 634.16 991.33 633.33 996.12 633.21 996.77 633.21 996.78 633.2 996.8 633.19 996.82 633.17 996.83 633.14 996.84 633.13 996.84H585.66C581.94 996.84 574.71 991.87 571.81 989.19 568.92 986.51 550.32 978.85 545.77 974.93 541.41 971.17 553.86 955.75 554.9 954.46Z" fill="#2a2c45" opacity="1" stroke-width="3" stroke="none"></path><path d="M498.22 425.86C498.22 427.4 508.76 430.51 524.57 428.65 539.15 426.94 548.45 419.42 554.67 406.35 554.68 406.33 554.7 406.31 554.72 406.3 554.74 406.3 554.75 406.3 554.78 406.3 554.8 406.3 554.81 406.31 554.82 406.33 554.84 406.35 554.84 406.37 554.84 406.38 554.83 407.18 554.84 407.98 554.86 408.79 555.27 429.05 559.82 437.12 560.02 438.15 560.23 439.18 560.65 439.19 565.4 446.42 569.86 453.2 575.96 461.64 576.7 462.64 576.71 462.66 576.72 462.67 576.72 462.68 576.74 462.68 576.75 462.69 576.77 462.69 576.78 462.69 576.79 462.68 576.8 462.68 576.82 462.67 576.83 462.66 576.84 462.64 577.46 461.75 582.01 455.12 582.97 452.62 583.86 450.3 586.07 448.07 583.17 443.94 580.28 439.8 580.07 434.22 581.11 425.54 582.14 416.85 590.41 411.07 597.85 412.52 604.96 413.9 606.79 423.39 606.94 424.24 606.94 424.25 606.95 424.27 606.97 424.29 606.98 424.3 606.99 424.31 607.01 424.31 608.16 424.51 625.36 427.22 637.54 416.24 649.91 405.08 660.49 385.37 660.88 384.63 660.89 384.62 660.9 384.61 660.89 384.59 660.46 374.89 649.71 367.46 638.98 362.71 628.22 357.95 597.02 342.86 578.42 359.4 577.38 360.32 576.37 361.25 575.4 362.15 575.4 362.17 575.39 362.17 575.37 362.18 575.35 362.18 575.34 362.18 575.33 362.18 575.31 362.17 575.3 362.17 575.29 362.15 575.27 362.14 575.26 362.13 575.26 362.12 573.31 356.61 570.2 351.59 566.12 347.4 559.3 340.59 543.18 339.34 532.32 341.83 521.47 344.31 513.72 354.85 513.72 362.6 513.72 370.35 508.76 407.55 507.52 411.9 506.28 416.25 498.84 419.34 498.84 420.89 498.84 422.16 502.15 423.01 503.36 423.29 503.39 423.29 503.41 423.3 503.42 423.31 503.44 423.32 503.45 423.35 503.45 423.37 503.45 423.39 503.44 423.42 503.42 423.44 503.41 423.45 503.39 423.46 503.36 423.46 502.05 423.71 498.22 424.57 498.22 425.86Z" fill="#935738" opacity="1" stroke-width="3" stroke="none"></path><path d="M575.31 362.25C575.31 362.25 555.93 380.34 554.85 405.98" stroke="#5f2c11" stroke-width="3" stroke-linecap="round" stroke-linejoin="round" opacity="1" fill="none"></path><path d="M602.5 483C604.81 484.32 607.94 486.15 610.35 487.59 605.56 486.89 601.49 487.85 599.51 489 598.99 487.85 598.53 486.67 598.16 485.47 597.23 482.38 598.16 480.51 602.5 483Z" fill="#d77342" stroke-linejoin="round" opacity="1" stroke-width="3" stroke="none"></path><path d="M598.88 422.23C598.88 422.23 601.98 428.43 598.05 430.92 594.13 433.4 592.26 434.84 593.5 438.77" stroke="#d06835" stroke-width="3" stroke-linecap="round" stroke-linejoin="round" opacity="1" fill="none"></path><path d="M663.93 425.09C663.94 425.1 663.96 425.12 663.97 425.13 663.97 425.15 663.97 425.17 663.97 425.19 663.77 426.07 663.54 428.43 662.54 428.43 661.51 428.43 658.62 426.58 654.27 425.13 649.93 423.68 644.14 426.15 643.31 425.54 642.49 424.92 649.31 420.99 653.03 420.99 656.57 420.99 663.24 424.7 663.93 425.09Z" fill="#935738" opacity="1" stroke-width="3" stroke="none"></path><path d="M650.46 449.05C649.07 448.77 648.33 446.64 648.8 444.29 649.27 441.94 650.78 440.26 652.17 440.54 653.55 440.82 654.3 442.95 653.82 445.3 653.35 447.65 651.84 449.32 650.46 449.05Z" fill="#333333" opacity="1" stroke-width="3" stroke="none"></path><path d="M643.32 474.11C643.32 474.11 637.33 473.28 635.26 465.64" stroke="#d06835" stroke-width="3" stroke-linecap="round" stroke-linejoin="round" opacity="1" fill="none"></path><path d="M637.12 481.96C637.12 481.96 640.84 483.82 641.04 487.33 641.25 490.84 641.25 496.22 641.25 496.22" stroke="#d06835" stroke-width="3" stroke-linecap="round" stroke-linejoin="round" opacity="1" fill="none"></path><path d="M645.8 482.57C645.8 482.57 649.52 483.15 649.52 489.2 649.52 492.71 649.72 494.58 649.72 494.58" stroke="#d06835" stroke-width="3" stroke-linecap="round" stroke-linejoin="round" opacity="1" fill="none"></path><path d="M653.56 485.36L654.34 493.77" stroke="#d06835" stroke-width="3" stroke-linecap="round" stroke-linejoin="round" opacity="1" fill="none"></path><path d="M778.01 647.01L771.25 647" stroke="#d06835" stroke-width="3" stroke-linecap="round" stroke-linejoin="round" opacity="1" fill="none"></path><path d="M755.25 640.73L752.39 642.38C750.62 645.25 748.84 646.99 745.74 647.33" stroke="#d06835" stroke-width="3" stroke-linecap="round" stroke-linejoin="round" opacity="1" fill="none"></path><path d="M776.35 654.67L769.1 654.62" stroke="#d06835" stroke-width="3" stroke-linecap="round" stroke-linejoin="round" opacity="1" fill="none"></path><path d="M773.57 661.62L765.49 661.23" stroke="#d06835" stroke-width="3" stroke-linecap="round" stroke-linejoin="round" opacity="1" fill="none"></path><path d="M625.34 486.61C633.12 484.07 633.2 489.8 628.23 492.92 627.18 493.56 626.07 494.12 624.92 494.58" stroke="#d06835" stroke-width="3" stroke-linecap="round" stroke-linejoin="round" opacity="1" fill="none"></path><path d="M559.98 593.5L568.91 653.01C570.35 652.63 571.22 651.76 571.22 651.18 571.22 648.4 572.32 633.97 572.32 633.88V633.86C572.04 632.95 565.22 610.43 559.98 593.5Z" fill="#000000" opacity="1" stroke-width="3" stroke="none"></path><path d="M599.93 499.64C599.93 499.64 585.66 486.92 581.01 485.68 576.36 484.44 559.61 473.29 559.61 473.29" stroke="#000000" stroke-width="3" stroke-linecap="round" stroke-linejoin="round" opacity="1" fill="none"></path><path d="M548.14 571.56C548.14 571.56 553.09 573.42 554.02 574.97 554.37 575.53 556.9 583.55 559.98 593.5 565.22 610.43 572.04 632.95 572.32 633.86 572.32 633.87 572.32 633.88 572.32 633.89" stroke="#000000" stroke-width="3" stroke-linecap="round" stroke-linejoin="round" opacity="1" fill="none"></path><path d="M622.86 745.2L596.5 754.19" stroke="#854462" stroke-width="3" stroke-linecap="round" stroke-linejoin="round" opacity="1" fill="none"></path><path d="M615.73 763.17C615.73 763.17 610.15 762.24 605.5 761.62 600.84 761.01 594.64 764.42 594.64 764.42" stroke="#854462" stroke-width="3" stroke-linecap="round" stroke-linejoin="round" opacity="1" fill="none"></path><path d="M614.18 823.01C614.18 823.01 589.38 828.28 582.25 829.22 575.12 830.15 573.57 837.58 572.95 839.45 572.33 841.32 571.71 848.44 571.71 848.44" stroke="#854462" stroke-width="3" stroke-linecap="round" stroke-linejoin="round" opacity="1" fill="none"></path><path d="M572.28 865.5C572.55 862.25 573.09 859.04 573.86 855.88 599.66 842.19 618.26 830.34 642.08 812.79 637.69 826.66 634.44 836.78 629.54 848.63 623.17 851.23 616.57 853.24 609.83 854.63 596.79 856.97 579.87 862.83 572.28 865.5Z" fill="#85526a" opacity="1" stroke-width="3" stroke="none"></path><path d="M573.86 855.88C599.66 842.18 618.26 830.34 642.08 812.78" stroke="#854462" stroke-width="3" stroke-linecap="round" stroke-linejoin="round" opacity="1" fill="none"></path><path d="M507.52 651.56L471.87 665.51" stroke="#854462" stroke-width="3" stroke-linecap="round" stroke-linejoin="round" opacity="1" fill="none"></path><path d="M475.59 664.27L495.74 683.18" stroke="#854462" stroke-width="3" stroke-linecap="round" stroke-linejoin="round" opacity="1" fill="none"></path><path d="M780.98 606.71C780.98 606.71 783.98 601.85 786.56 598.02 789.14 594.2 787.39 589.55 782.53 588.72 777.67 587.9 775.09 590.27 772.61 594.41 770.13 598.54 767.12 603.51 767.12 603.51L780.98 606.71Z" fill="#bea6a0" opacity="1" stroke-width="3" stroke="none"></path><path d="M816.99 621.74L749.48 723.09C749.15 723.59 748.66 723.96 748.09 724.14 747.53 724.32 746.92 724.31 746.37 724.1L666.1 694.43C665.83 694.33 665.58 694.17 665.38 693.96 665.18 693.75 665.04 693.49 664.95 693.21 664.86 692.94 664.84 692.64 664.88 692.36 664.92 692.07 665.04 691.8 665.21 691.56L732.09 597.87C732.31 597.54 732.63 597.29 733.01 597.15 733.38 597.02 733.79 597 734.18 597.11L816.24 619.73C816.55 619.82 816.81 620.01 816.99 620.28 817.16 620.55 817.24 620.88 817.2 621.19 817.16 621.39 817.09 621.57 816.99 621.74V621.74Z" fill="#e66a48" opacity="1" stroke-width="3" stroke="none"></path><path d="M810.05 623.1C810.06 623.11 810.07 623.11 810.08 623.12 810.09 623.13 810.1 623.14 810.1 623.15 810.1 623.15 810.11 623.16 810.1 623.17 810.1 623.19 810.1 623.2 810.09 623.21L748.94 713.65C748.92 713.67 748.9 713.69 748.88 713.69 748.86 713.7 748.83 713.7 748.81 713.69L675.49 686C675.48 686 675.47 685.99 675.47 685.99 675.46 685.98 675.45 685.97 675.45 685.95 675.44 685.94 675.44 685.94 675.45 685.93 675.45 685.92 675.45 685.91 675.46 685.9L735.03 601.28C735.05 601.25 735.07 601.25 735.1 601.24 735.12 601.23 735.15 601.23 735.17 601.23L810.05 623.1Z" fill="#2a2c45" opacity="1" stroke-width="3" stroke="none"></path><path d="M810.14 623.13L748.94 713.65C748.92 713.67 748.9 713.69 748.88 713.69 748.86 713.7 748.83 713.7 748.81 713.69L675.49 686" stroke="#131420" stroke-width="3" stroke-linecap="round" stroke-linejoin="round" opacity="1" fill="none"></path><path d="M794.01 613.58L791.83 612.97 788.01 617.71C787.81 617.95 787.55 618.13 787.24 618.22 786.94 618.31 786.61 618.3 786.32 618.2L753.34 607.01C753.24 606.97 753.15 606.93 753.08 606.86 753.01 606.8 752.95 606.72 752.91 606.62 752.87 606.53 752.85 606.44 752.85 606.34 752.85 606.24 752.87 606.15 752.91 606.06L758 594.02C758.14 593.69 758.4 593.41 758.72 593.26 759.05 593.11 759.42 593.08 759.77 593.18L796.69 603.93C797.01 604.03 797.31 604.24 797.5 604.53 797.69 604.82 797.78 605.17 797.75 605.51L797.12 611.01C797.11 611.06 797.08 611.12 797.04 611.15L794.01 613.58Z" fill="#bea6a0" opacity="1" stroke-width="3" stroke="none"></path><path d="M796.49 610.39C796.49 610.44 796.46 610.49 796.43 610.54L793.62 613.47 791.83 612.96 796.89 605.59C796.92 605.56 796.94 605.56 796.94 605.61L796.49 610.39Z" fill="#89685f" opacity="1" stroke-width="3" stroke="none"></path><path d="M792.6 611.83L796.43 606.25" stroke="#89685f" stroke-width="3" stroke-linecap="round" stroke-linejoin="round" opacity="1" fill="none"></path><path d="M786.46 618.24L753.34 607.01" stroke="#89685f" stroke-width="3" stroke-linecap="round" stroke-linejoin="round" opacity="1" fill="none"></path><path d="M784.71 639.36C784.71 639.36 782.02 629.85 778.92 629.02 775.81 628.2 773.54 635.02 772.1 634.4 770.65 633.78 771.07 628.82 767.13 628.41 763.2 627.99 762.17 629.75 762.17 629.75 762.17 629.75 759.28 626.34 757.83 625.72 756.39 625.11 755.35 627.38 755.35 627.38 755.35 627.38 752.04 622.63 748.12 624.07 744.19 625.51 742.33 623.87 735.92 621.17" stroke="#131420" stroke-width="3" stroke-linecap="round" stroke-linejoin="round" opacity="1" fill="none"></path><path d="M774.99 654.14C774.99 654.14 770.03 651.36 768.59 646.6 767.14 641.85 774.68 641.85 773.34 646.91 771.99 651.97 765.89 651.05 762.07 647.22 758.26 643.39 758.25 642.98 752.98 643.3 747.71 643.61 748.53 640.4 744.19 638.64 739.86 636.88 739.03 639.88 736.65 638.44 735.17 637.54 733.61 636.78 732 636.17" stroke="#131420" stroke-width="3" stroke-linecap="round" stroke-linejoin="round" opacity="1" fill="none"></path><path d="M763.52 666.65C763.52 666.65 763.62 659 760.01 657.87 756.39 656.73 754.43 660.14 752.05 658.8 749.68 657.46 749.37 653.22 745.34 653.73 741.31 654.24 740.59 653.21 738.31 651.36 736.03 649.5 732.01 649.6 732.01 649.6" stroke="#131420" stroke-width="3" stroke-linecap="round" stroke-linejoin="round" opacity="1" fill="none"></path></g></svg>