<svg xmlns="http://www.w3.org/2000/svg" height="1200" width="1600" version="1.1" xmlns:xlink="http://www.w3.org/1999/xlink" xmlns:svgjs="http://svgjs.com/svgjs"><rect fill="#ffeadf" width="1600" height="1200"></rect><g><path d="M534.95 753.44C623.46 829.04 739.48 900.82 881.86 798.55 1024.23 696.29 985.13 605.05 1112.45 528.86 1239.77 452.67 1242.79 207.03 1039.25 201.01 835.72 195 819.69 268.19 748.51 320.32 677.33 372.44 532.17 311.7 435.14 429.84 327.82 560.53 486.83 712.34 534.95 753.44Z" fill="#ffdecc" opacity="1" stroke-width="3" stroke="none"></path></g><g><path d="M698.5 246.48H574.11C571.01 246.48 568.03 245.25 565.84 243.06 563.65 240.87 562.42 237.89 562.42 234.79 562.42 231.69 563.65 228.71 565.84 226.52 568.03 224.33 571.01 223.1 574.11 223.1H698.5C701.6 223.1 704.57 224.33 706.76 226.52 708.96 228.71 710.19 231.69 710.19 234.79 710.19 237.89 708.96 240.87 706.76 243.06 704.57 245.25 701.6 246.48 698.5 246.48V246.48Z" fill="#ffffff" opacity="1" stroke-width="3" stroke="none"></path><path d="M708.34 294.41H642.58C639.48 294.41 636.5 293.17 634.31 290.98 632.12 288.79 630.89 285.81 630.89 282.72 630.89 279.62 632.12 276.64 634.31 274.45 636.5 272.26 639.48 271.03 642.58 271.03H708.34C711.44 271.03 714.42 272.26 716.61 274.45 718.8 276.64 720.03 279.62 720.03 282.72 720.03 285.81 718.8 288.79 716.61 290.98 714.42 293.17 711.44 294.41 708.34 294.41V294.41Z" fill="#97607a" opacity="1" stroke-width="3" stroke="none"></path><path d="M708.34 503.23H642.58C639.48 503.23 636.5 502 634.31 499.81 632.12 497.62 630.89 494.64 630.89 491.54 630.89 488.44 632.12 485.46 634.31 483.27 636.5 481.08 639.48 479.85 642.58 479.85H708.34C711.44 479.85 714.42 481.08 716.61 483.27 718.8 485.46 720.03 488.44 720.03 491.54 720.03 494.64 718.8 497.62 716.61 499.81 714.42 502 711.44 503.23 708.34 503.23V503.23Z" fill="#e66a48" opacity="1" stroke-width="3" stroke="none"></path><path d="M839.16 294.41H744.88C741.79 294.41 738.81 293.17 736.62 290.98 734.42 288.79 733.19 285.81 733.19 282.72 733.19 279.62 734.42 276.64 736.62 274.45 738.81 272.26 741.79 271.03 744.88 271.03H839.16C842.26 271.03 845.24 272.26 847.43 274.45 849.62 276.64 850.85 279.62 850.85 282.72 850.85 285.81 849.62 288.79 847.43 290.98 845.24 293.17 842.26 294.41 839.16 294.41V294.41Z" fill="#ffffff" opacity="1" stroke-width="3" stroke="none"></path><path d="M839.16 344.23H760.92C757.82 344.23 754.84 343 752.65 340.81 750.46 338.62 749.23 335.64 749.23 332.54 749.23 329.44 750.46 326.47 752.65 324.28 754.84 322.08 757.82 320.85 760.92 320.85H839.16C842.26 320.85 845.24 322.08 847.43 324.28 849.62 326.47 850.85 329.44 850.85 332.54 850.85 335.64 849.62 338.62 847.43 340.81 845.24 343 842.26 344.23 839.16 344.23V344.23Z" fill="#ffffff" opacity="1" stroke-width="3" stroke="none"></path><path d="M846.57 378.28H766.91C766.81 378.28 766.74 378.36 766.74 378.45V401.51C766.74 401.61 766.81 401.68 766.91 401.68H846.57C846.68 401.68 846.74 401.61 846.74 401.51V378.45C846.74 378.36 846.68 378.28 846.57 378.28Z" fill="#97607a" opacity="1" stroke-width="3" stroke="none"></path><path d="M839.16 459.5H760.92C757.82 459.5 754.84 458.26 752.65 456.07 750.46 453.88 749.23 450.9 749.23 447.81 749.23 444.71 750.46 441.73 752.65 439.54 754.84 437.35 757.82 436.12 760.92 436.12H839.16C842.26 436.12 845.24 437.35 847.43 439.54 849.62 441.73 850.85 444.71 850.85 447.81 850.85 450.9 849.62 453.88 847.43 456.07 845.24 458.26 842.26 459.5 839.16 459.5V459.5Z" fill="#97607a" opacity="1" stroke-width="3" stroke="none"></path><path d="M698.5 552.3H574.11C571.01 552.3 568.03 551.07 565.84 548.88 563.65 546.69 562.42 543.71 562.42 540.61 562.42 537.51 563.65 534.54 565.84 532.34 568.03 530.15 571.01 528.92 574.11 528.92H698.5C701.6 528.92 704.57 530.15 706.76 532.34 708.96 534.54 710.19 537.51 710.19 540.61 710.19 543.71 708.96 546.69 706.76 548.88 704.57 551.07 701.6 552.3 698.5 552.3V552.3Z" fill="#ffffff" opacity="1" stroke-width="3" stroke="none"></path><path d="M714.54 319.95L702.84 340.19C702.55 340.71 702.4 341.27 702.4 341.85 702.4 342.44 702.55 343.02 702.84 343.51 703.14 344.03 703.55 344.44 704.06 344.73 704.56 345.02 705.14 345.17 705.72 345.17H729.1C729.68 345.17 730.27 345.02 730.76 344.73 731.28 344.44 731.69 344.03 731.98 343.51 732.27 343.02 732.42 342.44 732.42 341.85 732.42 341.27 732.27 340.71 731.98 340.19L720.29 319.95C720 319.45 719.57 319.02 719.07 318.73 718.56 318.44 717.99 318.28 717.41 318.28 716.83 318.28 716.26 318.44 715.75 318.73 715.25 319.02 714.83 319.45 714.54 319.95Z" fill="#e35128" opacity="1" stroke-width="3" stroke="none"></path><path d="M722.36 459.12C728.66 459.12 733.77 454 733.77 447.7 733.77 441.4 728.66 436.29 722.36 436.29 716.06 436.29 710.94 441.4 710.94 447.7 710.94 454 716.06 459.12 722.36 459.12Z" fill="#ffffff" opacity="1" stroke-width="3" stroke="none"></path><path d="M582.77 262.45V513.5" stroke="#ffffff" stroke-width="3" stroke-linecap="round" stroke-linejoin="round" opacity="1" fill="none"></path><path d="M655.23 308.67V465.57" stroke="#ffffff" stroke-width="3" stroke-linecap="round" stroke-linejoin="round" opacity="1" fill="none"></path><path d="M723.13 361.73V421.63" stroke="#ffffff" stroke-width="3" stroke-linecap="round" stroke-linejoin="round" opacity="1" fill="none"></path></g><g><path d="M382.11 878.4C382.24 878.4 382.36 878.38 382.46 878.33 382.57 878.27 382.65 878.2 382.74 878.13 382.83 878.05 382.88 877.94 382.92 877.84L383.91 875.28C383.99 875.07 383.99 874.84 383.91 874.63 383.82 874.42 383.66 874.27 383.46 874.16L323.36 847.32C323.17 847.25 322.96 847.23 322.75 847.29 322.56 847.36 322.38 847.48 322.26 847.67L319.11 852.76C319.06 852.86 319.01 852.98 318.99 853.1 318.97 853.24 318.99 853.36 319.02 853.49 319.08 853.61 319.15 853.71 319.23 853.82 319.32 853.9 319.42 853.97 319.55 854.03L381.8 878.34C381.9 878.38 382.01 878.4 382.11 878.4Z" fill="#000000" opacity="1" stroke-width="3" stroke="none"></path><path d="M407.39 900.48C407.81 900.52 408.22 900.47 408.63 900.31 409.01 900.13 409.36 899.89 409.62 899.58 409.88 899.12 410.04 898.62 410.07 898.1 410.11 897.57 410.02 897.07 409.81 896.58 408.38 891.88 406.57 886.79 403.92 884.67 400.37 882.12 396.54 879.98 392.5 878.31 389.22 876.86 381.61 872.91 381.52 872.86 381.4 872.8 381.26 872.77 381.12 872.77 380.93 872.77 380.76 872.82 380.62 872.93 380.46 873.03 380.35 873.19 380.3 873.34L379.22 876.48C379.17 876.67 379.17 876.88 379.22 877.07 379.48 877.63 379.87 878.12 380.32 878.53 380.79 878.94 381.33 879.25 381.92 879.44 386.47 881.36 390.89 883.59 395.16 886.11 396.38 886.91 397.42 887.98 398.21 889.21 398.99 890.45 399.48 891.84 399.67 893.31 399.85 894.09 400.07 894.86 400.35 895.61 400.54 896.08 400.7 896.56 400.8 897.07 401.19 898.62 401.62 899.12 404.32 899.93 405.32 900.26 406.34 900.45 407.39 900.48V900.48Z" fill="#000000" opacity="1" stroke-width="3" stroke="none"></path><path d="M360.93 831.16C384.52 832.31 397.51 840.16 401.57 846.83 405.63 853.5 401.88 870.31 400.72 875.4 399.55 880.49 393.75 901.21 360.57 899.3 317.44 891.51 321.44 869.29 319.98 853.36 320.59 837.55 333.93 829.85 360.93 831.16Z" fill="#ffffff" opacity="1" stroke-width="3" stroke="none"></path><path d="M459.87 831.92C436.29 833.07 429.14 839.97 425.09 846.64 421.03 853.31 427.7 870.94 428.87 876.03 430.05 881.11 436.37 900.99 470.78 898.81 501.35 896.41 509.69 881.57 510.12 853.36 509.06 837.55 486.87 830.62 459.87 831.92Z" fill="#ffffff" opacity="1" stroke-width="3" stroke="none"></path><path d="M574.26 878.57C574.43 878.57 574.59 878.52 574.73 878.43 574.87 878.34 574.99 878.2 575.06 878.06L576.19 875.56C576.28 875.35 576.28 875.12 576.21 874.91 576.14 874.7 575.98 874.53 575.79 874.42L517.39 844.08C517.2 843.98 516.99 843.96 516.78 844.01 516.57 844.05 516.39 844.19 516.27 844.34L512.84 849.24C512.77 849.34 512.72 849.46 512.7 849.58 512.68 849.72 512.68 849.85 512.72 849.97 512.75 850.09 512.81 850.21 512.89 850.3 512.98 850.4 513.07 850.47 513.19 850.54L573.89 878.5C574.02 878.55 574.14 878.57 574.26 878.57Z" fill="#000000" opacity="1" stroke-width="3" stroke="none"></path><path d="M509.86 855.84C509.86 855.84 509.86 876.44 502.6 886.32 495.34 896.2 480.83 898.81 462.24 898.81 443.65 898.81 433.8 889.23 429.44 877.61 426.72 869.76 425.24 861.53 425.09 853.23" stroke="#a97247" stroke-width="3" stroke-linecap="round" stroke-linejoin="round" opacity="1" fill="none"></path><path d="M403.61 852.93C403.61 852.93 405.65 890.38 380.96 896.77 356.28 903.17 333.64 895.33 326.67 882.54 319.7 869.76 319.7 851.76 319.7 851.76" stroke="#a97247" stroke-width="3" stroke-linecap="round" stroke-linejoin="round" opacity="1" fill="none"></path><path d="M601.12 901.67C601.52 901.7 601.92 901.63 602.29 901.48 602.65 901.34 602.98 901.09 603.24 900.8 603.51 900.36 603.68 899.86 603.71 899.33 603.77 898.83 603.68 898.31 603.49 897.83 602.01 893.27 599.53 889.09 596.28 885.57 592.79 882.91 589.03 880.66 585.04 878.85 581.82 877.33 574.36 873.12 574.28 873.08 574.16 873 574 872.96 573.86 872.96 573.75 872.96 573.65 872.98 573.56 873.01 573.44 873.05 573.34 873.12 573.23 873.2 573.15 873.29 573.08 873.41 573.04 873.52L571.86 876.62C571.79 876.81 571.79 877.02 571.86 877.21 572.1 877.77 572.45 878.27 572.9 878.69 573.34 879.13 573.88 879.44 574.45 879.65 578.95 881.74 583.3 884.11 587.48 886.76 588.67 887.59 589.68 888.69 590.41 889.94 591.16 891.22 591.61 892.63 591.75 894.07 591.89 894.87 592.1 895.66 592.36 896.42 593.46 899.28 594.34 899.8 597.91 900.99 598.94 901.39 600.02 901.61 601.12 901.67Z" fill="#000000" opacity="1" stroke-width="3" stroke="none"></path><path d="M511.03 860.18C511.22 860.18 511.4 860.12 511.55 860 511.71 859.9 511.81 859.72 511.87 859.55 513.64 853.4 515.37 852.58 516.87 851.85L517.21 851.68C518.22 851.17 519.67 850.51 520.71 850.04 521.27 849.79 521.72 849.38 522.02 848.85 522.3 848.33 522.42 847.74 522.35 847.15L521.66 842.09C521.59 841.49 521.29 840.91 520.85 840.47 520.4 840.06 519.83 839.78 519.22 839.71 516.24 839.41 513.29 838.8 510.44 837.88 509.64 837.53 508.85 837.1 508.12 836.59 464.26 811.44 426.13 837.97 424.13 838.94 422.4 839.38 420.61 839.5 418.83 839.29 415.49 838.8 412.09 838.89 408.76 839.55 406.87 839.95 404.88 839.6 403.24 838.54 400.84 836.85 387.86 829.8 368.27 827.67 364.75 827.31 361.19 827.11 357.64 827.11 349.35 827.22 341.08 828.09 332.94 829.75 331.01 830.11 329.33 830.42 327.99 830.58 324.14 831.03 320.26 831.14 316.39 830.89 315.71 830.86 315.05 831.03 314.48 831.36 313.9 831.71 313.43 832.22 313.15 832.83L310.26 838.86C310.04 839.33 309.95 839.85 310.02 840.37 310.07 840.89 310.28 841.38 310.61 841.78 312.28 843.82 313.61 846.1 314.55 848.57 315.57 851.48 316.43 854.46 317.12 857.48 317.16 857.67 317.28 857.84 317.44 857.96 317.58 858.1 317.79 858.15 317.98 858.15 318.03 858.15 318.1 858.15 318.15 858.14L322.21 857.27C322.42 857.23 322.61 857.11 322.73 856.92 322.87 856.74 322.92 856.54 322.89 856.31 322.82 855.68 321.18 841.01 337.64 836.36 343.44 834.64 349.47 833.77 355.52 833.79 363.95 833.96 372.31 835.13 380.46 837.24 400.14 841.96 401.1 856.57 401.14 857.2 401.14 857.41 401.24 857.62 401.38 857.77 401.54 857.93 401.74 858.02 401.97 858.02L405.63 858.15C405.84 858.15 406.06 858.09 406.22 857.93 406.38 857.77 406.48 857.56 406.5 857.34 406.95 851.88 420.38 850.79 422.51 858.1 422.56 858.29 422.66 858.45 422.82 858.56 422.96 858.68 423.15 858.73 423.34 858.73L427.19 858.43C427.3 858.43 427.42 858.4 427.51 858.35 427.61 858.29 427.7 858.22 427.79 858.14 427.86 858.05 427.91 857.95 427.94 857.84 427.98 857.74 427.99 857.62 427.99 857.51L427.89 856.31C427.21 848.98 426.18 837.9 454.49 835.21 459.89 834.71 464.92 834.45 469.45 834.45 490.75 834.45 498.54 840.04 502.55 844.24 508.26 850.21 506.69 859.06 506.69 859.15 506.66 859.27 506.66 859.41 506.69 859.53 506.73 859.65 506.78 859.77 506.87 859.86 506.95 859.97 507.06 860.05 507.16 860.11 507.28 860.16 507.41 860.18 507.55 860.18L511.03 860.18Z" fill="#a97247" opacity="1" stroke-width="3" stroke="none"></path></g><g><path d="M1318.71 588.25H865.75C859.88 588.25 854.8 590.16 852.74 597.48 850.78 604.47 759.12 877.81 757.44 882.84 755.77 887.87 758.28 891.22 762.47 891.22H1235.46C1241.33 891.22 1244.68 887.87 1246.36 882 1248.04 876.13 1321.05 601.67 1322.73 597.48 1324.45 593.28 1322.9 588.25 1318.71 588.25Z" fill="#a97247" opacity="1" stroke-width="3" stroke="none"></path><path d="M1235.51 891.48C1241.2 891.48 1244.86 888.4 1246.67 882.08 1247.17 880.27 1254.39 853.28 1264.35 815.95 1285.85 735.34 1321.86 600.45 1323.03 597.58 1323.46 596.54 1323.72 595.39 1323.72 594.25 1323.72 593.13 1323.51 591.99 1323.08 590.95 1322.83 590.36 1322.45 589.83 1321.96 589.4 1321.51 588.99 1320.95 588.66 1320.34 588.48 1320.29 588.46 1320.21 588.46 1320.16 588.48 1320.11 588.48 1320.06 588.53 1320.03 588.58 1320.01 588.63 1319.98 588.68 1319.98 588.73 1320.01 588.79 1320.03 588.84 1320.06 588.89 1320.67 589.68 1321.05 590.62 1321.2 591.58 1321.35 592.57 1321.23 593.56 1320.87 594.5 1318.94 602.58 1245.73 877.4 1244.07 882.79 1242.42 888.02 1233.53 888.86 1233.45 888.86 1233.43 888.86 1233.4 888.86 1233.37 888.86 1233.35 888.86 1233.3 888.86 1233.27 888.89 1233.25 888.91 1233.22 888.91 1233.2 888.96 1233.17 888.99 1233.17 889.04 1233.17 889.11 1233.17 889.17 1233.2 889.22 1233.22 889.24L1234.49 891.35C1234.52 891.4 1234.54 891.43 1234.57 891.45 1234.62 891.48 1234.67 891.48 1234.7 891.48L1235.51 891.48Z" fill="#ffffff" opacity="1" stroke-width="3" stroke="none"></path><path d="M1309.26 601.95C1309.26 601.9 1309.26 601.87 1309.26 601.85 1309.26 601.82 1309.26 601.8 1309.23 601.77 1309.21 601.75 1309.18 601.72 1309.16 601.7 1309.13 601.7 1309.11 601.7 1309.05 601.7L860.54 601.7C860.47 601.7 860.42 601.72 860.34 601.77 860.29 601.8 860.24 601.87 860.21 601.95L851.88 627.41 901.08 684.95 1185.22 702.15 1302.37 627.41 1309.26 601.95Z" fill="#f4d3b5" opacity="1" stroke-width="3" stroke="none"></path><path d="M1241.94 885.38C1242.02 885.38 1242.09 885.4 1242.12 885.46 1242.17 885.51 1242.19 885.56 1242.19 885.63V899.38C1242.19 899.46 1242.17 899.51 1242.12 899.56 1242.09 899.61 1242.02 899.64 1241.94 899.64L627.63 899.64C627.56 899.64 627.51 899.61 627.43 899.56 627.35 899.53 627.3 899.48 627.28 899.41L622.12 889.11C621.97 888.81 621.92 888.45 621.92 888.12 621.94 887.77 622.04 887.44 622.22 887.16 622.4 886.85 622.65 886.62 622.96 886.45 623.26 886.29 623.59 886.19 623.92 886.19L1241.94 885.38Z" fill="#ffffff" opacity="1" stroke-width="3" stroke="none"></path><path d="M1241.94 899.64L627.63 899.64" stroke="#c9c9c9" stroke-width="3" stroke-linecap="round" stroke-linejoin="round" opacity="1" fill="none"></path><path d="M1235.89 872.77H1132.23L829.77 694.86 851.88 627.41H1302.35L1235.89 872.77Z" fill="#efad71" opacity="1" stroke-width="3" stroke="none"></path><path d="M829.77 694.86H1180.08L1132.23 872.77 771.72 872.77C771.7 872.77 771.67 872.77 771.65 872.75 771.62 872.75 771.6 872.72 771.57 872.7 771.55 872.67 771.55 872.65 771.55 872.62 771.55 872.6 771.55 872.57 771.55 872.52L829.77 694.86Z" fill="#f4d3b5" opacity="1" stroke-width="3" stroke="none"></path><path d="M985.57 658.34L1199.6 658.34C1201.99 658.32 1204.28 657.4 1206.03 655.75 1207.78 654.12 1208.85 651.91 1209.03 649.52 1209.13 648.38 1209 647.26 1208.62 646.17 1208.27 645.1 1207.66 644.11 1206.89 643.3 1206.13 642.46 1205.19 641.8 1204.12 641.36 1203.08 640.91 1201.96 640.68 1200.82 640.7H986.79C984.41 640.73 982.12 641.64 980.39 643.3 978.64 644.92 977.57 647.13 977.37 649.52 977.29 650.64 977.42 651.78 977.8 652.85 978.15 653.94 978.76 654.91 979.53 655.75 980.29 656.59 981.23 657.25 982.27 657.68 983.31 658.14 984.46 658.37 985.57 658.34Z" fill="#f4d3b5" opacity="1" stroke-width="3" stroke="none"></path><path d="M911.62 656.61C908.42 653.31 908.73 647.87 912.26 644.44 915.79 641.01 921.25 640.91 924.46 644.21 927.63 647.51 927.35 652.95 923.8 656.38 920.26 659.81 914.8 659.92 911.62 656.61Z" fill="#f4d3b5" opacity="1" stroke-width="3" stroke="none"></path><path d="M879.12 656.61C875.92 653.31 876.22 647.87 879.75 644.44 883.29 641.01 888.75 640.91 891.95 644.21 895.13 647.51 894.85 652.95 891.29 656.38 887.76 659.81 882.3 659.92 879.12 656.61Z" fill="#f4d3b5" opacity="1" stroke-width="3" stroke="none"></path><path d="M833.55 694.86H1280.39" stroke="#b6763c" stroke-width="3" stroke-linecap="round" stroke-linejoin="round" opacity="1" fill="none"></path><path d="M1208.65 682.25H1262.37C1264.4 682.15 1266.36 681.42 1267.96 680.12 1269.54 678.85 1270.66 677.1 1271.16 675.11 1271.44 674.27 1271.49 673.39 1271.34 672.5 1271.19 671.63 1270.83 670.82 1270.27 670.11 1269.74 669.42 1269.05 668.86 1268.24 668.48 1267.45 668.1 1266.56 667.92 1265.67 667.97H1211.95C1209.92 668.07 1207.96 668.81 1206.39 670.11 1204.81 671.38 1203.67 673.13 1203.16 675.11 1202.9 675.95 1202.85 676.84 1203.01 677.73 1203.16 678.59 1203.51 679.41 1204.05 680.12 1204.58 680.81 1205.29 681.36 1206.08 681.75 1206.89 682.13 1207.78 682.3 1208.65 682.25V682.25Z" fill="#f4d3b5" opacity="1" stroke-width="3" stroke="none"></path><path d="M1272.36 725.07H1175.89" stroke="#b6763c" stroke-width="3" stroke-linecap="round" stroke-linejoin="round" opacity="1" fill="none"></path><path d="M1264.76 752.34H1167.53" stroke="#b6763c" stroke-width="3" stroke-linecap="round" stroke-linejoin="round" opacity="1" fill="none"></path><path d="M1257.69 778.77H1160.47" stroke="#b6763c" stroke-width="3" stroke-linecap="round" stroke-linejoin="round" opacity="1" fill="none"></path><path d="M1287.22 618.9C1285.57 617.04 1286.11 613.87 1288.44 611.78 1290.76 609.73 1293.98 609.55 1295.64 611.4 1297.29 613.23 1296.75 616.43 1294.42 618.49 1292.1 620.58 1288.88 620.76 1287.22 618.9Z" fill="#1c1b1a" opacity="1" stroke-width="3" stroke="none"></path><path d="M1265.83 618.9C1264.18 617.04 1264.71 613.87 1267.05 611.78 1269.36 609.73 1272.59 609.55 1274.24 611.4 1275.89 613.26 1275.36 616.43 1273.02 618.52 1270.71 620.58 1267.48 620.76 1265.83 618.9Z" fill="#1c1b1a" opacity="1" stroke-width="3" stroke="none"></path><path d="M1165.24 723.68L828.4 723.68" stroke="#ffffff" stroke-width="3" stroke-linecap="round" stroke-linejoin="round" opacity="1" fill="none"></path><path d="M1155.74 756.69H818.89" stroke="#ffffff" stroke-width="3" stroke-linecap="round" stroke-linejoin="round" opacity="1" fill="none"></path><path d="M1145.12 792.5L808.27 792.5" stroke="#ffffff" stroke-width="3" stroke-linecap="round" stroke-linejoin="round" opacity="1" fill="none"></path><path d="M1136.15 824.95H799.3" stroke="#ffffff" stroke-width="3" stroke-linecap="round" stroke-linejoin="round" opacity="1" fill="none"></path><path d="M1124.4 856.84H787.56" stroke="#ffffff" stroke-width="3" stroke-linecap="round" stroke-linejoin="round" opacity="1" fill="none"></path><path d="M1242.19 899.89C1242.27 899.89 1242.35 899.86 1242.37 899.81 1242.42 899.76 1242.45 899.71 1242.45 899.64V885.63C1242.45 885.51 1242.4 885.38 1242.32 885.28 1242.22 885.18 1242.09 885.13 1241.94 885.13L1053.35 885.38C1053.3 885.38 1053.22 885.4 1053.17 885.46 1053.12 885.51 1053.1 885.56 1053.1 885.63V899.64C1053.1 899.71 1053.12 899.76 1053.17 899.81 1053.22 899.86 1053.3 899.89 1053.35 899.89H1242.19Z" fill="#c9c9c9" opacity="1" stroke-width="3" stroke="none"></path></g><g><path d="M152.54 899.65H1418.89C1451.87 899.65 1453.41 902.14 1448.87 907.08 1442.6 914.71 1434.61 921.89 1425.25 928.48 1419.16 932.62 1412.53 936.51 1405.35 940.05 1376.82 954.06 1331.85 963.94 1316.86 963.94H254.57C236.58 963.94 200.61 953.22 179.53 939.25 174.53 935.86 170.17 932.27 166.35 928.48 152.54 915.06 144.37 899.65 152.54 899.65Z" fill="#2a2c45" opacity="1" stroke-width="3" stroke="none"></path><path d="M254.57 964.39C233.22 964.39 188.7 950.47 166.35 928.73 166.26 928.68 166.26 928.58 166.26 928.48 166.26 928.38 166.26 928.33 166.35 928.23 166.44 928.18 166.53 928.08 166.72 928.08 166.81 928.03 166.99 927.98 167.17 927.98H1424.52C1424.7 927.98 1424.88 928.03 1424.98 928.08 1425.16 928.13 1425.25 928.18 1425.34 928.28 1425.43 928.38 1425.43 928.43 1425.43 928.53 1425.43 928.63 1425.34 928.73 1425.25 928.78 1393.18 950.87 1337.12 964.39 1316.86 964.39L254.57 964.39Z" fill="#161619" opacity="1" stroke-width="3" stroke="none"></path></g><g><path d="M717.69 710.85C716.77 713.82 717.33 715.88 717.8 718.01 718.28 720.15 719.7 727.74 719.7 729.87 719.7 732.01 717.8 733.2 716.14 732.48L634.78 695.72C632.64 694.53 631.93 692.63 633.11 690.73 634.3 688.83 640.47 687.41 643.55 686.94 646.64 686.46 647.59 685.51 649.96 682.19 652.33 678.87 665.14 658 671.07 649.22 675.81 642.21 688.27 635.65 701.32 636.93 703.11 634.5 708.33 628.69 715.19 632.38 721.99 636.03 720.77 642.79 720 645.39 728.48 653.65 730.14 665.58 728.48 673.18 728.48 673.18 718.64 708.48 717.69 710.85Z" fill="#ffffff" opacity="1" stroke-width="3" stroke="none"></path><path d="M659.67 712.28C659.67 712.27 659.67 712.27 659.68 712.26 659.68 712.26 659.68 712.26 659.69 712.26 659.7 712.26 659.7 712.25 659.71 712.25 659.71 712.25 659.71 712.26 659.72 712.26L687.16 725.35C687.17 725.35 687.17 725.35 687.18 725.36 687.18 725.36 687.18 725.37 687.18 725.37 687.18 725.38 687.18 725.38 687.18 725.39 687.18 725.39 687.18 725.4 687.18 725.4 686.66 726.11 678.42 737.03 666.64 731.06 654.85 725.08 659.37 713.03 659.67 712.28Z" fill="#ffffff" opacity="1" stroke-width="3" stroke="none"></path><path d="M701.32 636.93C701.32 636.93 713.2 639.07 720 645.39" stroke="#e1e1e1" stroke-width="3" stroke-linecap="round" stroke-linejoin="round" opacity="1" fill="none"></path><path d="M634.78 695.72L716.14 732.48" stroke="#e1e1e1" stroke-width="3" stroke-linecap="round" stroke-linejoin="round" opacity="1" fill="none"></path><path d="M733.07 655.78C735.29 660.41 735.79 665.68 734.49 670.65" stroke="#e1e1e1" stroke-width="3" stroke-linecap="round" stroke-linejoin="round" opacity="1" fill="none"></path><path d="M737.33 647.08C737.33 647.08 748.09 659.1 741.13 677.29" stroke="#e1e1e1" stroke-width="3" stroke-linecap="round" stroke-linejoin="round" opacity="1" fill="none"></path></g><g><path d="M1385.16 463.99L1380.26 467.52C1375.46 470.95 1369.51 472.38 1363.67 471.44 1357.82 470.5 1352.59 467.28 1349.13 462.5L1317.8 419.13C1314.32 414.34 1312.91 408.36 1313.85 402.52 1314.79 396.67 1318 391.47 1322.81 388L1327.71 384.47C1332.48 381.02 1338.46 379.6 1344.31 380.54 1350.15 381.48 1355.36 384.69 1358.84 389.48L1390.17 432.86C1391.88 435.21 1393.12 437.91 1393.78 440.76 1394.47 443.63 1394.56 446.57 1394.12 449.47 1393.66 452.36 1392.61 455.1 1391.08 457.62 1389.54 460.1 1387.52 462.28 1385.16 463.99V463.99Z" fill="#ffdecc" opacity="1" stroke-width="3" stroke="none"></path></g><g><path d="M362.97 220.61L298.26 241.11C296.46 241.68 294.85 242.71 293.57 244.1 292.3 245.5 291.42 247.19 291.01 249.04 290.6 250.87 290.69 252.8 291.26 254.59 291.83 256.39 292.86 258 294.26 259.28L344.36 305.07C345.74 306.35 347.45 307.23 349.29 307.63 351.13 308.04 353.04 307.95 354.85 307.38 356.64 306.81 358.26 305.78 359.53 304.39 360.8 302.99 361.69 301.29 362.09 299.45L376.7 233.17C377.11 231.33 377.03 229.41 376.45 227.61 375.88 225.81 374.85 224.19 373.46 222.92 372.07 221.65 370.36 220.76 368.52 220.36 366.69 219.95 364.76 220.04 362.97 220.61V220.61Z" fill="#ffdecc" opacity="1" stroke-width="3" stroke="none"></path></g></svg>