<svg xmlns="http://www.w3.org/2000/svg" height="1200" width="1600" version="1.1" xmlns:xlink="http://www.w3.org/1999/xlink" xmlns:svgjs="http://svgjs.com/svgjs"><rect fill="#ffeadf" width="1600" height="1200"></rect><g><path d="M534.95 753.44C623.46 829.04 739.48 900.82 881.86 798.55 1024.23 696.29 985.13 605.05 1112.45 528.86 1239.77 452.67 1242.79 207.03 1039.25 201.01 835.72 195 819.69 268.19 748.51 320.32 677.33 372.44 532.17 311.7 435.14 429.84 327.82 560.53 486.83 712.34 534.95 753.44Z" fill="#ffdecc" opacity="1" stroke-width="3" stroke="none"></path></g><g><path d="M813.41 261.96V452.94C813.39 455.8 812.26 458.53 810.24 460.55 808.22 462.56 805.49 463.69 802.63 463.69H500.22C498.8 463.69 497.41 463.43 496.1 462.87 494.79 462.34 493.61 461.54 492.62 460.55 491.62 459.55 490.82 458.37 490.29 457.06 489.73 455.75 489.47 454.36 489.47 452.94V261.96C489.47 260.17 489.91 258.39 490.77 256.82 491.64 255.22 492.9 253.89 494.41 252.91 494.41 252.91 494.41 252.91 494.41 252.91 494.41 252.91 494.43 252.91 494.43 252.91 494.43 252.91 494.43 252.91 494.43 252.89 494.43 252.89 494.43 252.89 494.43 252.89 496.16 251.78 498.16 251.21 500.22 251.21H802.65C803.39 251.21 804.12 251.27 804.83 251.43 805.47 251.56 806.11 251.76 806.74 252 808.71 252.8 810.4 254.2 811.59 255.97 812.79 257.75 813.41 259.83 813.41 261.96Z" fill="#ffffff" opacity="1" stroke-width="3" stroke="none"></path><path d="M539.5 446.84L539.55 446.79 614.14 370.58" stroke="#eaeaea" stroke-width="3" stroke-linecap="round" stroke-linejoin="round" opacity="1" fill="none"></path><path d="M764.24 442.16L764.15 442.07 693.19 369.58" stroke="#eaeaea" stroke-width="3" stroke-linecap="round" stroke-linejoin="round" opacity="1" fill="none"></path><path d="M764.15 296.96V315.62L673.65 409.02C671.12 411.61 668.13 413.7 664.8 415.14 661.48 416.58 657.9 417.34 654.27 417.4 650.65 417.45 647.06 416.78 643.69 415.45 640.32 414.12 637.25 412.13 634.66 409.6L539.55 317.1V297.54L608.55 365.1 617 373.4 643.62 399.44C646.53 402.08 650.34 403.5 654.27 403.36 658.17 403.25 661.9 401.63 664.65 398.82L764.15 296.96Z" fill="#eaeaea" opacity="1" stroke-width="3" stroke="none"></path><path d="M813.41 261.96V304.06L813.39 304.26 764.15 356.34C763.46 331.12 764.13 316.68 764.15 297.03 764.15 297.01 764.17 296.99 764.17 296.96L804.83 251.43C805.47 251.56 806.11 251.76 806.74 252 808.71 252.8 810.4 254.2 811.59 255.97 812.79 257.75 813.41 259.83 813.41 261.96Z" fill="#eaeaea" opacity="1" stroke-width="3" stroke="none"></path><path d="M764.17 296.96L764.22 296.92 804.36 254.51" stroke="#706f6f" stroke-width="3" stroke-linecap="round" stroke-linejoin="round" opacity="1" fill="none"></path><path d="M539.55 297.54V357.32L489.47 304.39V261.96C489.47 260.17 489.91 258.39 490.77 256.82 491.64 255.22 492.9 253.89 494.41 252.91L495.7 254.13 539.55 297.54Z" fill="#eaeaea" opacity="1" stroke-width="3" stroke="none"></path><path d="M495.14 253.6L497.3 255.73 539.55 297.54" stroke="#706f6f" stroke-width="3" stroke-linecap="round" stroke-linejoin="round" opacity="1" fill="none"></path><path d="M764.15 463.69V442.07L764.17 373.46 764.15 356.34V296.96L693.19 369.58 664.65 398.82C661.9 401.63 658.17 403.25 654.27 403.36 650.34 403.5 646.53 402.08 643.62 399.44L617 373.4 614.14 370.58 608.55 365.1 539.55 297.54V463.69" stroke="#706f6f" stroke-width="3" stroke-linecap="round" stroke-linejoin="round" opacity="1" fill="none"></path><path d="M773.09 372.89C762.33 372.89 751.73 375.57 742.28 380.7 732.83 385.84 724.8 393.25 718.92 402.25 713.07 411.28 709.54 421.64 708.7 432.35 707.85 443.09 709.7 453.85 714.07 463.69L800.84 463.92C804.18 463.85 807.4 462.47 809.75 460.08 812.1 457.68 813.41 454.47 813.41 451.12V387.02C801.97 377.86 787.75 372.87 773.09 372.89Z" fill="#eaeaea" opacity="1" stroke-width="3" stroke="none"></path><path d="M773.09 492.2C803.3 492.2 827.81 467.71 827.81 437.48 827.81 407.27 803.3 382.76 773.09 382.76 742.86 382.76 718.37 407.27 718.37 437.48 718.37 467.71 742.86 492.2 773.09 492.2Z" fill="#97607a" opacity="1" stroke-width="3" stroke="none"></path><path d="M773.38 421.35V453.89" stroke="#ffffff" stroke-width="3" stroke-linecap="round" stroke-linejoin="round" opacity="1" fill="none"></path></g><g><path d="M556.88 797.74C556.88 797.74 559.25 760.97 542.25 737.64 525.24 714.32 499.15 715.5 489.67 696.13 480.19 676.75 477.01 646.71 443.81 635.63 410.61 624.55 403.87 636.02 379.76 630.89 355.64 625.75 319.65 617.04 311.75 645.13 303.85 673.21 338.63 681.11 342.19 708 345.75 734.88 352.07 757.81 380.94 758.2 409.82 758.6 430.36 753.46 440.65 766.1 450.94 778.75 448.15 796.15 448.15 796.15L556.88 797.74Z" fill="#ffffff" opacity="1" stroke-width="3" stroke="none"></path><path d="M439.46 798.14H418.9C409.42 798.14 401.11 803.27 401.11 810.8V857.06C401.09 859.32 401.52 861.56 402.38 863.66 403.24 865.76 404.5 867.67 406.12 869.27 407.71 870.86 409.62 872.12 411.7 872.98 413.8 873.85 416.05 874.28 418.31 874.26 427.22 874.26 433.54 879.2 434.72 882.36 435.91 885.52 439.46 883.15 439.46 883.15L435.51 864.56H417.72C411.79 864.56 409.03 862.19 409.03 854.69V813.96C409.03 807.64 414.16 805.27 419.3 805.27H441.83L439.46 798.14Z" fill="#a97247" opacity="1" stroke-width="3" stroke="none"></path><path d="M439.46 798.14H418.9C409.42 798.14 401.11 803.27 401.11 810.8V857.06C401.09 859.32 401.52 861.56 402.38 863.66 403.24 865.76 404.5 867.67 406.12 869.27 407.71 870.86 409.62 872.12 411.7 872.98 413.8 873.85 416.05 874.28 418.31 874.26 427.22 874.26 433.54 879.2 434.72 882.36 435.91 885.52 439.46 883.15 439.46 883.15L435.51 864.56H417.72C411.79 864.56 409.03 862.19 409.03 854.69V813.96C409.03 807.64 414.16 805.27 419.3 805.27H441.83L439.46 798.14Z" fill="#875227" opacity="1" stroke-width="3" stroke="none"></path><path d="M575.22 782.19H433.91C432.96 782.62 430.18 782.48 428.49 785.26 428.99 786.32 429.62 787.33 430.36 788.24 433.91 792.99 433.32 797.13 433.32 804.26V880.78C433.32 890.85 438.06 899.76 446.38 899.76H559.65C570.31 899.76 575.07 890.28 575.07 879.59V800.71C575.07 795.36 575.67 788.84 579.22 786.47 579.74 786.16 580.21 785.75 580.59 785.26 578.45 782.79 577.41 781.3 575.22 782.19Z" fill="#a97247" opacity="1" stroke-width="3" stroke="none"></path><path d="M580.53 785.26C580.55 785.26 580.59 785.26 580.62 785.25 580.64 785.23 580.66 785.21 580.68 785.17 580.98 784.62 581.14 783.99 581.12 783.34 581.11 782.71 580.91 782.09 580.57 781.55 580.12 780.81 579.49 780.2 578.72 779.79 577.96 779.37 577.12 779.16 576.26 779.18H433.91C431.09 779.18 429.24 779.82 428.38 781.1 428.02 781.71 427.84 782.41 427.84 783.13 427.83 783.83 428.01 784.53 428.35 785.16 428.35 785.19 428.38 785.21 428.4 785.25 428.44 785.26 428.47 785.26 428.51 785.26H580.53Z" fill="#e66a48" opacity="1" stroke-width="3" stroke="none"></path><path d="M559.65 899.94C567.01 899.94 572.06 895.47 574.16 887.35 574.17 887.31 574.17 887.3 574.16 887.26 574.16 887.24 574.14 887.21 574.12 887.19 574.12 887.17 574.09 887.15 574.07 887.13 574.03 887.13 574.01 887.12 573.98 887.12H434.16C434.13 887.12 434.11 887.13 434.08 887.13 434.06 887.15 434.04 887.17 434.02 887.19 434 887.21 433.99 887.24 433.99 887.26 433.97 887.3 433.97 887.31 433.99 887.35 435.78 895.23 440.32 899.94 446.38 899.94H559.65Z" fill="#995a29" opacity="1" stroke-width="3" stroke="none"></path><path d="M435.69 791.21H570.03" stroke="#995a29" stroke-width="3" stroke-linecap="round" stroke-linejoin="round" opacity="1" fill="none"></path><path d="M449.03 811.68V854.97" stroke="#ffffff" stroke-width="3" stroke-linecap="round" stroke-linejoin="round" opacity="1" fill="none"></path><path d="M508.06 645.92C518.33 632.24 547.8 653.62 550.76 665.49 553.72 677.36 548.98 686.84 532.96 686.25 516.95 685.66 492.04 667.27 508.06 645.92Z" fill="#ffffff" opacity="1" stroke-width="3" stroke="none"></path></g><g><path d="M1275.27 731.6C1275.29 731.58 1275.33 731.55 1275.35 731.55 1275.38 731.53 1275.42 731.53 1275.45 731.53 1275.49 731.53 1275.51 731.55 1275.54 731.57 1275.56 731.6 1275.58 731.62 1275.6 731.66L1330.26 900.78C1330.26 900.8 1330.26 900.84 1330.26 900.87 1330.26 900.89 1330.24 900.93 1330.23 900.95 1330.21 900.96 1330.19 900.98 1330.17 901 1330.14 901.02 1330.12 901.02 1330.08 901.02H1280.82C1280.79 901.02 1280.75 901 1280.73 900.98 1280.69 900.96 1280.68 900.93 1280.66 900.89L1238.96 781.01C1238.96 780.99 1238.94 780.95 1238.96 780.92 1238.96 780.9 1238.98 780.86 1238.98 780.84L1275.27 731.6Z" fill="#5d5d5d" opacity="1" stroke-width="3" stroke="none"></path><path d="M1275.27 731.6C1275.29 731.58 1275.33 731.55 1275.35 731.55 1275.38 731.53 1275.42 731.53 1275.45 731.53 1275.49 731.53 1275.51 731.55 1275.54 731.57 1275.56 731.6 1275.58 731.62 1275.6 731.66L1330.26 900.78C1330.26 900.8 1330.26 900.84 1330.26 900.87 1330.26 900.89 1330.24 900.93 1330.23 900.95 1330.21 900.96 1330.19 900.98 1330.17 901 1330.14 901.02 1330.12 901.02 1330.08 901.02H1280.82C1280.79 901.02 1280.75 901 1280.73 900.98 1280.69 900.96 1280.68 900.93 1280.66 900.89L1238.96 781.01C1238.96 780.99 1238.94 780.95 1238.96 780.92 1238.96 780.9 1238.98 780.86 1238.98 780.84L1275.27 731.6Z" fill="#5d5d5d" opacity="1" stroke-width="3" stroke="none"></path><path d="M1182.37 899.29C1189.92 899.29 1197.32 897.15 1203.68 893.11 1210.05 889.08 1215.15 883.33 1218.38 876.5 1244.69 820.88 1310.67 681.31 1319.01 662.56 1326.64 645.4 1325.96 630.14 1319.92 623.15 1318.86 621.86 1317.53 620.83 1316.02 620.11 1314.5 619.41 1312.85 619.05 1311.17 619.05L843.79 619.05C830.73 619.05 820.28 621.66 811.58 635.58 802.89 649.5 691.48 859.27 684.51 872.33 682.91 875.26 682.21 878.63 682.5 881.96 682.78 885.31 684.05 888.48 686.13 891.11 688.1 893.67 690.62 895.74 693.52 897.16 696.4 898.57 699.59 899.31 702.8 899.31L1182.37 899.31V899.29Z" fill="#efad71" opacity="1" stroke-width="3" stroke="none"></path><path d="M1286.53 656.17L1185.02 874.81C1185 874.85 1184.98 874.87 1184.95 874.88 1184.93 874.92 1184.89 874.92 1184.86 874.92L705.71 874.92C705.68 874.92 705.66 874.92 705.62 874.9 705.61 874.88 705.57 874.87 705.55 874.83 705.55 874.81 705.53 874.78 705.53 874.74 705.53 874.72 705.53 874.69 705.55 874.65L819.89 656.17 1096.15 641.76 1286.53 656.17Z" fill="#e9dcd2" opacity="1" stroke-width="3" stroke="none"></path><path d="M1249.37 651.23L1157.98 839.24" stroke="#a97247" stroke-width="3" stroke-linecap="round" stroke-linejoin="round" opacity="1" fill="none"></path><path d="M1198.02 840.97L725.42 840.97" stroke="#a97247" stroke-width="3" stroke-linecap="round" stroke-linejoin="round" opacity="1" fill="none"></path><path d="M925.6 652.98L831.6 840.1" stroke="#a97247" stroke-width="3" stroke-linecap="round" stroke-linejoin="round" opacity="1" fill="none"></path><path d="M1194.29 694.16L1137.88 810.24H871.4L931.13 694.97 1194.29 694.16Z" stroke="#a97247" stroke-width="3" stroke-linecap="round" stroke-linejoin="round" opacity="1" fill="none"></path><path d="M686.33 891.4C686.31 891.38 686.31 891.35 686.3 891.31 686.3 891.27 686.31 891.24 686.33 891.22 686.33 891.18 686.37 891.17 686.39 891.15 686.42 891.13 686.46 891.11 686.48 891.11 745.75 891.11 1164.86 891.17 1175.09 891.17 1186.12 891.17 1200.63 889.42 1209.33 875.5 1218.05 861.57 1301.59 683.44 1313.19 657.32 1320.95 639.87 1320.9 628.99 1320.03 623.71 1320.01 623.68 1320.03 623.64 1320.05 623.6 1320.07 623.57 1320.09 623.55 1320.12 623.53 1320.16 623.51 1320.19 623.5 1320.23 623.51 1320.27 623.51 1320.3 623.53 1320.34 623.57 1323.17 626.65 1324.35 632.32 1324.61 636.43 1325.24 646.03 1322.37 655.48 1318.47 664.13 1309.82 683.29 1219.28 875.71 1216.97 879.64 1213.98 884.77 1209.87 889.18 1204.97 892.53 1200.06 895.88 1194.47 898.12 1188.6 899.04 1185.4 899.49 1182.14 899.65 1178.91 899.52 1177.69 899.52 703.37 899.59 701.61 899.49 698.63 899.36 695.72 898.55 693.07 897.16 690.42 895.76 688.13 893.8 686.33 891.4V891.4Z" fill="#efad71" opacity="1" stroke-width="3" stroke="none"></path><path d="M686.33 891.4C686.31 891.38 686.31 891.35 686.3 891.31 686.3 891.27 686.31 891.24 686.33 891.22 686.33 891.18 686.37 891.17 686.39 891.15 686.42 891.13 686.46 891.11 686.48 891.11 745.75 891.11 1164.86 891.17 1175.09 891.17 1186.12 891.17 1200.63 889.42 1209.33 875.5 1218.05 861.57 1301.59 683.44 1313.19 657.32 1320.95 639.87 1320.9 628.99 1320.03 623.71 1320.01 623.68 1320.03 623.64 1320.05 623.6 1320.07 623.57 1320.09 623.55 1320.12 623.53 1320.16 623.51 1320.19 623.5 1320.23 623.51 1320.27 623.51 1320.3 623.53 1320.34 623.57 1323.17 626.65 1324.35 632.32 1324.61 636.43 1325.24 646.03 1322.37 655.48 1318.47 664.13 1309.82 683.29 1219.28 875.71 1216.97 879.64 1213.98 884.77 1209.87 889.18 1204.97 892.53 1200.06 895.88 1194.47 898.12 1188.6 899.04 1185.4 899.49 1182.14 899.65 1178.91 899.52 1177.69 899.52 703.37 899.59 701.61 899.49 698.63 899.36 695.72 898.55 693.07 897.16 690.42 895.76 688.13 893.8 686.33 891.4V891.4Z" fill="#d49963" opacity="1" stroke-width="3" stroke="none"></path><path d="M832.44 632.18C832.44 632.14 832.48 632.12 832.5 632.11 832.53 632.09 832.57 632.09 832.59 632.09L1297.82 631.22C1297.86 631.22 1297.9 631.22 1297.91 631.24 1297.95 631.26 1297.97 631.28 1297.99 631.3 1298 631.33 1298 631.35 1298.02 631.39 1298.02 631.42 1298 631.46 1298 631.48L1286.53 656.17H819.87L832.44 632.18Z" fill="#a97247" opacity="1" stroke-width="3" stroke="none"></path></g><g><path d="M1443.63 900.59H156.37C156.25 900.59 156.17 900.59 156.17 900.6V941.43C156.17 941.44 156.25 941.45 156.37 941.45H1443.63C1443.73 941.45 1443.83 941.44 1443.83 941.43V900.6C1443.83 900.59 1443.73 900.59 1443.63 900.59Z" stroke="#959595" stroke-width="3" stroke-linecap="round" stroke-linejoin="round" opacity="1" fill="none"></path><path d="M1443.63 900.59H156.37C156.25 900.59 156.17 900.59 156.17 900.6V941.43C156.17 941.44 156.25 941.45 156.37 941.45H1443.63C1443.73 941.45 1443.83 941.44 1443.83 941.43V900.6C1443.83 900.59 1443.73 900.59 1443.63 900.59Z" fill="#2a2c45" opacity="1" stroke-width="3" stroke="none"></path></g><g><path d="M717.69 710.85C716.77 713.82 717.33 715.88 717.8 718.01 718.28 720.15 719.7 727.74 719.7 729.87 719.7 732.01 717.8 733.2 716.14 732.48L634.78 695.72C632.64 694.53 631.93 692.63 633.11 690.73 634.3 688.83 640.47 687.41 643.55 686.94 646.64 686.46 647.59 685.51 649.96 682.19 652.33 678.87 665.14 658 671.07 649.22 675.81 642.21 688.27 635.65 701.32 636.93 703.11 634.5 708.33 628.69 715.19 632.38 721.99 636.03 720.77 642.79 720 645.39 728.48 653.65 730.14 665.58 728.48 673.18 728.48 673.18 718.64 708.48 717.69 710.85Z" fill="#ffffff" opacity="1" stroke-width="3" stroke="none"></path><path d="M659.67 712.28C659.67 712.27 659.67 712.27 659.68 712.26 659.68 712.26 659.68 712.26 659.69 712.26 659.7 712.26 659.7 712.25 659.71 712.25 659.71 712.25 659.71 712.26 659.72 712.26L687.16 725.35C687.17 725.35 687.17 725.35 687.18 725.36 687.18 725.36 687.18 725.37 687.18 725.37 687.18 725.38 687.18 725.38 687.18 725.39 687.18 725.39 687.18 725.4 687.18 725.4 686.66 726.11 678.42 737.03 666.64 731.06 654.85 725.08 659.37 713.03 659.67 712.28Z" fill="#ffffff" opacity="1" stroke-width="3" stroke="none"></path><path d="M701.32 636.93C701.32 636.93 713.2 639.07 720 645.39" stroke="#e1e1e1" stroke-width="3" stroke-linecap="round" stroke-linejoin="round" opacity="1" fill="none"></path><path d="M634.78 695.72L716.14 732.48" stroke="#e1e1e1" stroke-width="3" stroke-linecap="round" stroke-linejoin="round" opacity="1" fill="none"></path><path d="M733.07 655.78C735.29 660.41 735.79 665.68 734.49 670.65" stroke="#e1e1e1" stroke-width="3" stroke-linecap="round" stroke-linejoin="round" opacity="1" fill="none"></path><path d="M737.33 647.08C737.33 647.08 748.09 659.1 741.13 677.29" stroke="#e1e1e1" stroke-width="3" stroke-linecap="round" stroke-linejoin="round" opacity="1" fill="none"></path></g><g><path d="M1385.16 463.99L1380.26 467.52C1375.46 470.95 1369.51 472.38 1363.67 471.44 1357.82 470.5 1352.59 467.28 1349.13 462.5L1317.8 419.13C1314.32 414.34 1312.91 408.36 1313.85 402.52 1314.79 396.67 1318 391.47 1322.81 388L1327.71 384.47C1332.48 381.02 1338.46 379.6 1344.31 380.54 1350.15 381.48 1355.36 384.69 1358.84 389.48L1390.17 432.86C1391.88 435.21 1393.12 437.91 1393.78 440.76 1394.47 443.63 1394.56 446.57 1394.12 449.47 1393.66 452.36 1392.61 455.1 1391.08 457.62 1389.54 460.1 1387.52 462.28 1385.16 463.99V463.99Z" fill="#ffdecc" opacity="1" stroke-width="3" stroke="none"></path></g><g><path d="M362.97 220.61L298.26 241.11C296.46 241.68 294.85 242.71 293.57 244.1 292.3 245.5 291.42 247.19 291.01 249.04 290.6 250.87 290.69 252.8 291.26 254.59 291.83 256.39 292.86 258 294.26 259.28L344.36 305.07C345.74 306.35 347.45 307.23 349.29 307.63 351.13 308.04 353.04 307.95 354.85 307.38 356.64 306.81 358.26 305.78 359.53 304.39 360.8 302.99 361.69 301.29 362.09 299.45L376.7 233.17C377.11 231.33 377.03 229.41 376.45 227.61 375.88 225.81 374.85 224.19 373.46 222.92 372.07 221.65 370.36 220.76 368.52 220.36 366.69 219.95 364.76 220.04 362.97 220.61V220.61Z" fill="#ffdecc" opacity="1" stroke-width="3" stroke="none"></path></g></svg>