<svg xmlns="http://www.w3.org/2000/svg" height="1200" width="1600" version="1.1" xmlns:xlink="http://www.w3.org/1999/xlink" xmlns:svgjs="http://svgjs.com/svgjs"><rect fill="#ffeadf" width="1600" height="1200"></rect><g><path d="M1145.78 453.14L1010.93 453.1C1007.76 453.1 1004.71 451.84 1002.47 449.59 1000.22 447.35 998.95 444.29 998.95 441.12V303.43C998.95 300.26 1000.22 297.2 1002.47 294.96 1004.71 292.71 1007.76 291.45 1010.93 291.45L1145.75 291.39C1148.94 291.41 1152 292.68 1154.25 294.93 1156.49 297.19 1157.76 300.25 1157.77 303.43V441.13C1157.77 444.31 1156.5 447.36 1154.25 449.61 1152 451.86 1148.96 453.13 1145.78 453.14V453.14Z" fill="#f9f9f9" opacity="1" stroke-width="3" stroke="none"></path><path d="M1145.79 453.18C1145.76 453.18 1145.74 453.17 1145.73 453.16 1145.71 453.14 1145.7 453.13 1145.7 453.1 1145.7 453.08 1145.71 453.06 1145.73 453.04 1145.74 453.03 1145.76 453.02 1145.79 453.02 1145.85 453.02 1152.47 452.6 1152.47 445.06V304.5C1152.47 293.67 1145.84 291.55 1145.77 291.53 1145.74 291.52 1145.73 291.51 1145.72 291.49 1145.71 291.47 1145.7 291.46 1145.71 291.44 1145.71 291.42 1145.72 291.4 1145.74 291.38 1145.75 291.38 1145.77 291.37 1145.79 291.37 1148.99 291.37 1152.05 292.64 1154.32 294.91 1156.58 297.16 1157.85 300.23 1157.85 303.43V441.12C1157.85 444.32 1156.58 447.39 1154.31 449.64 1152.05 451.91 1148.99 453.18 1145.79 453.18Z" fill="#8b8b8b" opacity="1" stroke-width="3" stroke="none"></path></g><g><path d="M1083.05 372.18L1094.28 413.38C1094.35 413.63 1094.51 413.83 1094.72 413.96 1094.94 414.09 1095.19 414.13 1095.44 414.08 1095.68 414.02 1095.9 413.87 1096.03 413.66 1096.17 413.45 1096.22 413.19 1096.18 412.95L1088.32 371.52C1088.28 371.28 1088.15 371.07 1087.96 370.93 1087.77 370.78 1087.54 370.71 1087.3 370.73L1083.92 370.96C1083.78 370.97 1083.64 371.01 1083.51 371.08 1083.39 371.15 1083.28 371.25 1083.2 371.37 1083.12 371.48 1083.06 371.62 1083.03 371.76 1083.01 371.9 1083.01 372.05 1083.05 372.18V372.18Z" fill="#e66a48" opacity="1" stroke-width="3" stroke="none"></path><path d="M1083.05 372.18L1094.28 413.38C1094.35 413.63 1094.51 413.83 1094.72 413.96 1094.94 414.09 1095.19 414.13 1095.44 414.08 1095.68 414.02 1095.9 413.87 1096.03 413.66 1096.17 413.45 1096.22 413.19 1096.18 412.95L1088.32 371.52C1088.28 371.28 1088.15 371.07 1087.96 370.93 1087.77 370.78 1087.54 370.71 1087.3 370.73L1083.92 370.96C1083.78 370.97 1083.64 371.01 1083.51 371.08 1083.39 371.15 1083.28 371.25 1083.2 371.37 1083.12 371.48 1083.06 371.62 1083.03 371.76 1083.01 371.9 1083.01 372.05 1083.05 372.18V372.18Z" fill="#e14a21" opacity="1" stroke-width="3" stroke="none"></path><path d="M1054.05 372.18L1042.82 413.38C1042.75 413.63 1042.59 413.83 1042.38 413.96 1042.16 414.09 1041.91 414.13 1041.66 414.08 1041.42 414.02 1041.2 413.87 1041.07 413.66 1040.93 413.45 1040.88 413.19 1040.93 412.95L1048.78 371.52C1048.82 371.28 1048.95 371.07 1049.14 370.93 1049.33 370.78 1049.56 370.71 1049.8 370.73L1053.18 370.96C1053.32 370.97 1053.46 371.01 1053.59 371.08 1053.71 371.15 1053.82 371.25 1053.9 371.37 1053.99 371.48 1054.04 371.62 1054.07 371.76 1054.09 371.9 1054.08 372.05 1054.05 372.18Z" fill="#e66a48" opacity="1" stroke-width="3" stroke="none"></path><path d="M1054.05 372.18L1042.82 413.38C1042.75 413.63 1042.59 413.83 1042.38 413.96 1042.16 414.09 1041.91 414.13 1041.66 414.08 1041.42 414.02 1041.2 413.87 1041.07 413.66 1040.93 413.45 1040.88 413.19 1040.93 412.95L1048.78 371.52C1048.82 371.28 1048.95 371.07 1049.14 370.93 1049.33 370.78 1049.56 370.71 1049.8 370.73L1053.18 370.96C1053.32 370.97 1053.46 371.01 1053.59 371.08 1053.71 371.15 1053.82 371.25 1053.9 371.37 1053.99 371.48 1054.04 371.62 1054.07 371.76 1054.09 371.9 1054.08 372.05 1054.05 372.18Z" fill="#e14a21" opacity="1" stroke-width="3" stroke="none"></path><path d="M1075.17 372.18L1063.94 413.38C1063.87 413.63 1063.71 413.83 1063.5 413.96 1063.28 414.09 1063.02 414.13 1062.78 414.08 1062.53 414.02 1062.32 413.87 1062.18 413.66 1062.05 413.45 1062 413.19 1062.04 412.95L1069.9 371.52C1069.94 371.28 1070.07 371.07 1070.26 370.93 1070.45 370.78 1070.68 370.71 1070.92 370.73L1074.3 370.96C1074.44 370.97 1074.58 371.01 1074.7 371.08 1074.83 371.15 1074.94 371.25 1075.02 371.37 1075.1 371.48 1075.16 371.62 1075.18 371.76 1075.21 371.9 1075.2 372.05 1075.17 372.18Z" fill="#e66a48" opacity="1" stroke-width="3" stroke="none"></path><path d="M1097.82 370.96C1097.67 370.97 1097.53 371.01 1097.41 371.08 1097.28 371.15 1097.17 371.25 1097.09 371.37 1097.01 371.48 1096.95 371.62 1096.93 371.76 1096.9 371.9 1096.91 372.05 1096.95 372.18L1108.18 413.38C1108.24 413.63 1108.4 413.83 1108.61 413.96 1108.83 414.09 1109.09 414.13 1109.33 414.08 1109.58 414.02 1109.79 413.87 1109.93 413.66 1110.07 413.45 1110.12 413.19 1110.07 412.95L1102.21 371.52C1102.17 371.28 1102.04 371.07 1101.85 370.93 1101.66 370.78 1101.43 370.71 1101.19 370.73L1097.82 370.96Z" fill="#e66a48" opacity="1" stroke-width="3" stroke="none"></path><path d="M1103.24 372.41C1105.35 372.41 1107.16 371.35 1107.41 369.24 1107.66 367.12 1109.84 354.1 1104.61 341.76 1099.37 329.43 1074.58 329.05 1070.03 341.14 1065.48 353.23 1060.69 347.68 1050.66 352.73 1040.63 357.77 1041.94 368.3 1041.94 370.23 1041.94 372.16 1043.43 372.48 1044.31 372.48 1045.18 372.48 1101.12 372.41 1103.24 372.41Z" fill="#e66a48" opacity="1" stroke-width="3" stroke="none"></path></g><g><path d="M348.54 941.18C341.09 940.85 333.68 942.87 326.89 947.04 319.1 951.74 198.75 1005.76 191.84 1008.08 184.92 1010.41 184.05 1028.04 189.25 1028.04H1409.94C1417.73 1028.04 1413.41 1016.3 1406.48 1012.78 1399.55 1009.27 1237.65 950.56 1232.46 948.21 1224.61 944.82 1216.45 942.85 1208.22 942.35 1200.43 942.35 348.54 941.18 348.54 941.18Z" fill="#ffdecc" opacity="1" stroke-width="3" stroke="none"></path><path d="M213.04 1016.32C219.57 1014.26 226.36 1014.05 232.96 1015.73 242.91 1018.67 255.03 1013.97 262.39 1013.39 269.75 1012.8 278.41 1017.5 281.88 1016.9 285.34 1016.3 291.83 1013.97 296.17 1013.39 300.5 1012.8 304.83 1015.73 311.31 1016.32 317.8 1016.9 330.35 1012.8 342.05 1012.8 353.75 1012.8 357.63 1017.5 361.09 1016.92 364.56 1016.34 371.49 1014.57 379.28 1013.99 387.06 1013.41 389.67 1018.11 397.46 1016.92 405.25 1015.73 406.98 1013.41 415.64 1012.8 420.7 1012.39 425.73 1014.24 429.93 1018.08 429.93 1018.08 439.02 1013.97 445.5 1013.97 451.99 1013.97 457.19 1018.08 461.95 1018.08 466.72 1018.08 472.35 1012.8 481.87 1013.39 491.39 1013.97 496.59 1017.5 502.64 1016.9 508.7 1016.3 512.59 1013.97 520.4 1013.39 528.2 1012.8 530.79 1018.08 534.26 1017.5 537.72 1016.92 543.78 1013.99 553.74 1013.39 563.71 1012.78 564.99 1016.32 569.76 1016.32 574.53 1016.32 579.71 1013.39 587.94 1012.8 596.18 1012.22 601.36 1018.08 605.25 1016.32 609.15 1014.55 614.77 1011.04 621.27 1013.97" stroke="#f5d4c2" stroke-width="3" stroke-linecap="round" stroke-linejoin="round" opacity="1" fill="none"></path><path d="M1026.41 1015.13C1034.17 1013.72 1042.03 1013.72 1049.79 1015.13 1062.77 1017.48 1067.1 1010.43 1078.37 1011.62 1089.63 1012.8 1094.82 1018.67 1100.01 1017.48 1105.21 1016.3 1118.2 1011.62 1125.13 1010.43 1132.05 1009.25 1140.7 1015.13 1147.63 1015.13 1154.56 1015.13 1161.49 1010.43 1175.33 1010.43 1189.18 1010.43 1193.52 1017.48 1198.71 1016.3 1203.91 1015.11 1209.11 1010.43 1219.49 1009.25 1229.87 1008.06 1235.06 1013.95 1240.26 1013.95 1245.46 1013.95 1250.65 1009.25 1261.03 1009.25 1271.41 1009.25 1275.75 1017.46 1280.08 1016.3 1284.4 1015.13 1292.2 1010.43 1304.31 1010.43 1316.42 1010.43 1318.17 1017.48 1318.17 1017.48" stroke="#f5d4c2" stroke-width="3" stroke-linecap="round" stroke-linejoin="round" opacity="1" fill="none"></path></g><g><path d="M1002.47 474.85H805.49C802.94 474.85 800.73 475.68 799.84 478.86 798.98 481.9 759.12 600.77 758.39 602.96 757.66 605.15 758.76 606.61 760.58 606.61L966.27 606.61C968.82 606.61 970.28 605.15 971.01 602.59 971.74 600.04 1003.49 480.69 1004.22 478.86 1004.97 477.04 1004.29 474.85 1002.47 474.85Z" fill="#f9f9f9" opacity="1" stroke-width="3" stroke="none"></path><path d="M966.29 606.72C968.77 606.72 970.36 605.38 971.14 602.63 971.36 601.84 974.5 590.11 978.83 573.87 988.18 538.82 1003.84 480.16 1004.35 478.91 1004.54 478.46 1004.65 477.96 1004.65 477.46 1004.65 476.98 1004.56 476.48 1004.37 476.02 1004.26 475.77 1004.1 475.54 1003.89 475.35 1003.69 475.17 1003.44 475.03 1003.18 474.95 1003.16 474.94 1003.12 474.94 1003.1 474.95 1003.08 474.95 1003.06 474.97 1003.05 475 1003.04 475.02 1003.02 475.04 1003.02 475.06 1003.04 475.09 1003.05 475.11 1003.06 475.13 1003.32 475.47 1003.49 475.88 1003.55 476.3 1003.62 476.73 1003.57 477.16 1003.41 477.57 1002.57 481.09 970.73 600.59 970.01 602.94 969.3 605.21 965.43 605.58 965.39 605.58 965.38 605.58 965.37 605.58 965.36 605.58 965.35 605.58 965.33 605.58 965.32 605.59 965.31 605.6 965.29 605.6 965.28 605.62 965.27 605.63 965.27 605.66 965.27 605.69 965.27 605.71 965.28 605.73 965.29 605.74L965.85 606.66C965.86 606.68 965.87 606.69 965.88 606.71 965.9 606.72 965.92 606.72 965.94 606.72L966.29 606.72Z" fill="#f9f9f9" opacity="1" stroke-width="3" stroke="none"></path><path d="M998.36 480.81C998.36 480.79 998.36 480.78 998.36 480.77 998.36 480.75 998.36 480.74 998.35 480.73 998.34 480.72 998.33 480.71 998.32 480.7 998.31 480.7 998.29 480.7 998.27 480.7H803.23C803.19 480.7 803.17 480.71 803.14 480.73 803.12 480.74 803.1 480.78 803.08 480.81L799.46 491.88 820.85 516.9 944.42 524.39 995.37 491.88 998.36 480.81Z" fill="#f4d3b5" opacity="1" stroke-width="3" stroke="none"></path><path d="M969.09 604.06C969.12 604.06 969.15 604.08 969.16 604.1 969.19 604.12 969.2 604.14 969.2 604.18V610.15C969.2 610.19 969.19 610.21 969.16 610.23 969.15 610.25 969.12 610.26 969.09 610.26H701.94C701.91 610.26 701.89 610.25 701.85 610.23 701.82 610.22 701.8 610.2 701.79 610.17L699.54 605.69C699.48 605.56 699.46 605.4 699.46 605.26 699.47 605.1 699.51 604.96 699.59 604.84 699.67 604.71 699.78 604.61 699.91 604.53 700.04 604.46 700.19 604.42 700.33 604.42L969.09 604.06Z" fill="#f9f9f9" opacity="1" stroke-width="3" stroke="none"></path><path d="M969.09 610.26H701.94" stroke="#c3c3c3" stroke-width="3" stroke-linecap="round" stroke-linejoin="round" opacity="1" fill="none"></path><path d="M966.46 598.58H921.38L789.84 521.21 799.46 491.88 995.35 491.88 966.46 598.58Z" fill="#efad71" opacity="1" stroke-width="3" stroke="none"></path><path d="M789.84 521.21H942.19L921.38 598.58H764.6C764.59 598.58 764.58 598.58 764.57 598.57 764.56 598.57 764.55 598.56 764.54 598.55 764.53 598.54 764.53 598.53 764.53 598.52 764.53 598.51 764.53 598.49 764.53 598.47L789.84 521.21Z" fill="#f4d3b5" opacity="1" stroke-width="3" stroke="none"></path><path d="M857.6 505.33H950.67C951.71 505.32 952.71 504.92 953.47 504.21 954.23 503.5 954.7 502.54 954.77 501.5 954.82 501 954.76 500.51 954.6 500.04 954.44 499.57 954.18 499.14 953.85 498.79 953.51 498.43 953.11 498.14 952.64 497.95 952.19 497.75 951.7 497.65 951.2 497.66H858.13C857.09 497.67 856.1 498.07 855.35 498.79 854.58 499.5 854.12 500.46 854.03 501.5 854 501.98 854.05 502.48 854.22 502.95 854.37 503.42 854.64 503.84 854.97 504.21 855.3 504.57 855.71 504.86 856.16 505.05 856.62 505.24 857.11 505.34 857.6 505.33Z" fill="#f4d3b5" opacity="1" stroke-width="3" stroke="none"></path><path d="M825.44 504.58C824.05 503.14 824.18 500.78 825.72 499.29 827.25 497.8 829.63 497.75 831.02 499.19 832.4 500.62 832.28 502.99 830.73 504.48 829.2 505.97 826.82 506.02 825.44 504.58Z" fill="#f4d3b5" opacity="1" stroke-width="3" stroke="none"></path><path d="M811.31 504.58C809.91 503.14 810.05 500.78 811.58 499.29 813.12 497.8 815.49 497.75 816.89 499.19 818.27 500.62 818.15 502.99 816.6 504.48 815.06 505.97 812.69 506.02 811.31 504.58Z" fill="#f4d3b5" opacity="1" stroke-width="3" stroke="none"></path><path d="M791.49 521.21H985.81" stroke="#b6763c" stroke-width="3" stroke-linecap="round" stroke-linejoin="round" opacity="1" fill="none"></path><path d="M954.61 515.73H977.97C978.85 515.69 979.71 515.37 980.4 514.8 981.09 514.25 981.57 513.49 981.79 512.63 981.92 512.26 981.94 511.87 981.87 511.49 981.81 511.11 981.65 510.76 981.41 510.45 981.18 510.15 980.88 509.91 980.52 509.74 980.18 509.58 979.79 509.5 979.41 509.52H956.05C955.16 509.57 954.31 509.89 953.62 510.45 952.94 511 952.44 511.76 952.22 512.63 952.11 512.99 952.09 513.38 952.15 513.76 952.22 514.14 952.38 514.49 952.61 514.8 952.84 515.1 953.15 515.35 953.49 515.51 953.85 515.68 954.23 515.75 954.61 515.73V515.73Z" fill="#f4d3b5" opacity="1" stroke-width="3" stroke="none"></path><path d="M982.31 534.35H940.36" stroke="#b6763c" stroke-width="3" stroke-linecap="round" stroke-linejoin="round" opacity="1" fill="none"></path><path d="M979.01 546.21H936.73" stroke="#b6763c" stroke-width="3" stroke-linecap="round" stroke-linejoin="round" opacity="1" fill="none"></path><path d="M975.94 557.7H933.66" stroke="#b6763c" stroke-width="3" stroke-linecap="round" stroke-linejoin="round" opacity="1" fill="none"></path><path d="M988.78 488.18C988.06 487.37 988.29 485.99 989.31 485.09 990.32 484.19 991.72 484.11 992.44 484.92 993.16 485.72 992.92 487.11 991.91 488 990.9 488.91 989.5 488.99 988.78 488.18Z" fill="#1c1b1a" opacity="1" stroke-width="3" stroke="none"></path><path d="M979.47 488.18C978.76 487.37 978.99 485.99 980 485.09 981.01 484.19 982.41 484.11 983.13 484.92 983.85 485.73 983.62 487.11 982.6 488.02 981.6 488.91 980.19 488.99 979.47 488.18Z" fill="#1c1b1a" opacity="1" stroke-width="3" stroke="none"></path><path d="M935.73 533.75H789.25" stroke="#f9f9f9" stroke-width="3" stroke-linecap="round" stroke-linejoin="round" opacity="1" fill="none"></path><path d="M931.6 548.1H785.11" stroke="#f9f9f9" stroke-width="3" stroke-linecap="round" stroke-linejoin="round" opacity="1" fill="none"></path><path d="M926.98 563.67L780.5 563.67" stroke="#f9f9f9" stroke-width="3" stroke-linecap="round" stroke-linejoin="round" opacity="1" fill="none"></path><path d="M923.08 577.78H776.59" stroke="#f9f9f9" stroke-width="3" stroke-linecap="round" stroke-linejoin="round" opacity="1" fill="none"></path><path d="M917.97 591.65H771.49" stroke="#f9f9f9" stroke-width="3" stroke-linecap="round" stroke-linejoin="round" opacity="1" fill="none"></path><path d="M969.2 610.38C969.23 610.38 969.26 610.36 969.27 610.34 969.3 610.32 969.31 610.3 969.31 610.26V604.18C969.31 604.12 969.28 604.06 969.25 604.02 969.21 603.98 969.15 603.95 969.09 603.95L887.07 604.06C887.05 604.06 887.02 604.08 887 604.1 886.97 604.12 886.96 604.14 886.96 604.18V610.26C886.96 610.3 886.97 610.32 887 610.34 887.02 610.36 887.05 610.38 887.07 610.38H969.2Z" fill="#c3c3c3" opacity="1" stroke-width="3" stroke="none"></path></g><g><path d="M631.59 623.79V985.59C631.59 986.01 631.64 986.43 631.73 986.82 631.82 987.21 631.96 987.57 632.13 987.87 632.3 988.17 632.5 988.4 632.72 988.57 632.94 988.73 633.18 988.81 633.42 988.81H647.64C647.88 988.81 648.12 988.73 648.34 988.57 648.56 988.4 648.77 988.17 648.94 987.87 649.1 987.57 649.24 987.21 649.33 986.82 649.43 986.43 649.47 986.01 649.47 985.59V878.87C649.47 876.46 649.74 874.08 650.26 871.86 650.79 869.63 651.55 867.6 652.52 865.9 653.49 864.19 654.64 862.85 655.9 861.92 657.16 861 658.52 860.52 659.89 860.52H1139.52C1140.89 860.52 1142.24 861 1143.51 861.92 1144.77 862.85 1145.92 864.19 1146.88 865.9 1147.85 867.6 1148.62 869.63 1149.14 871.86 1149.67 874.08 1149.93 876.46 1149.93 878.87V983.26C1149.93 983.68 1149.98 984.1 1150.07 984.49 1150.17 984.88 1150.3 985.24 1150.47 985.54 1150.64 985.83 1150.84 986.07 1151.07 986.24 1151.29 986.4 1151.53 986.48 1151.77 986.48H1166.64C1166.88 986.48 1167.12 986.4 1167.34 986.24 1167.56 986.07 1167.77 985.83 1167.94 985.54 1168.11 985.24 1168.24 984.88 1168.33 984.49 1168.43 984.1 1168.47 983.68 1168.47 983.26L1168.47 687.31 1168.47 622.63 631.59 623.79Z" fill="#f9f9f9" opacity="1" stroke-width="3" stroke="none"></path><path d="M631.59 644.74L1168.47 687.31 1168.92 622.63 631.3 623.79 631.59 644.74Z" fill="#eeeeee" opacity="1" stroke-width="3" stroke="none"></path><path d="M1173.34 637.13H624.93C624.52 637.13 624.14 636.85 623.86 636.35 623.57 635.86 623.41 635.18 623.41 634.47V613.76C623.41 613.05 623.57 612.37 623.86 611.88 624.14 611.37 624.52 611.1 624.93 611.1H1173.34C1173.74 611.1 1174.13 611.37 1174.41 611.88 1174.69 612.37 1174.85 613.05 1174.85 613.76V634.47C1174.85 634.82 1174.81 635.17 1174.74 635.49 1174.66 635.81 1174.55 636.1 1174.41 636.36 1174.27 636.61 1174.1 636.8 1173.92 636.93 1173.73 637.07 1173.54 637.13 1173.34 637.13V637.13Z" fill="#f9f9f9" opacity="1" stroke-width="3" stroke="none"></path></g><g><path d="M537.84 632.34L559.03 653.53C559.03 653.53 632.22 662.2 669.77 668.46 707.32 674.72 725.63 693.5 726.11 719.02 726.58 744.54 715.51 801.35 708.77 830.72 702.04 860.09 695.3 871.17 694.81 876.95 694.32 882.74 687.58 917.39 686.62 919.81 685.66 922.23 644.73 924.62 626.43 916.92 603.32 922.69 577.32 908.73 575.87 905.84 574.42 902.96 576.83 884.65 576.83 880.32 576.83 875.99 579.72 755.13 579.72 755.13H505.09C470.42 755.13 420.83 737.79 416.02 694.46 411.21 651.13 417.46 628.98 417.46 628.98L537.84 632.34Z" fill="#97607a" opacity="1" stroke-width="3" stroke="none"></path><path d="M690.96 743.09L668.33 757.06" stroke="#993b68" stroke-width="3" stroke-linecap="round" stroke-linejoin="round" opacity="1" fill="none"></path><path d="M585.51 906.31H585.53C606.48 910.95 618.28 915.09 622.78 914.09 622.8 914.09 622.82 914.08 622.83 914.06 622.84 914.05 622.85 914.02 622.86 914 622.86 913.99 622.86 913.97 622.85 913.95 622.84 913.93 622.83 913.92 622.81 913.89 621.27 912.81 619.52 911.21 619.94 909.68 620.65 907.06 630.86 907.49 631.03 907.5 631.21 907.5 641.02 907.55 657.96 910.89 664.72 912.23 670.17 914.4 674.82 915.94 681.22 918.05 685.66 919.48 686.47 919.76 686.49 919.76 686.51 919.77 686.52 919.78 686.53 919.8 686.54 919.81 686.54 919.83 686.55 919.85 686.54 919.86 686.54 919.89 686.54 919.91 686.53 919.92 686.51 919.93V919.93C683.26 923.42 644.42 924.46 626.46 916.92 626.44 916.91 626.41 916.91 626.38 916.91 605.19 922.19 581.88 911.9 576.72 906.77 576.71 906.75 576.7 906.73 576.69 906.71 576.68 906.69 576.68 906.67 576.69 906.65 576.7 906.64 576.71 906.61 576.72 906.6 576.75 906.58 576.77 906.58 576.79 906.58 579.68 906.33 582.6 906.25 585.51 906.31V906.31Z" fill="#993b68" opacity="1" stroke-width="3" stroke="none"></path><path d="M495.23 441.43L498.44 419.21C498.45 419.07 498.5 418.94 498.58 418.82 498.66 418.7 498.75 418.6 498.87 418.53 498.99 418.44 499.12 418.4 499.26 418.38 499.4 418.35 499.55 418.37 499.69 418.41 503.04 419.41 506.46 420.17 509.92 420.72 516.19 421.68 522.69 415.42 526.05 407.24 529.42 399.06 530.39 384.85 530.39 384.85 530.39 384.85 533.82 384.66 535.45 384.49 537.07 384.32 538.7 381.24 537.8 379.07 536.9 376.9 530.4 366.97 529.86 366.07 529.32 365.17 532.57 354.7 532.75 346.21 532.93 337.73 528.23 308.11 487.97 304.69 447.72 301.26 436.16 328.34 436.16 349.65 436.16 370.96 451.68 392.62 455.84 398.94 460 405.26 452.59 430.36 452.59 430.36L495.23 441.43Z" fill="#e6997f" opacity="1" stroke-width="3" stroke="none"></path><path d="M612.58 534.08C612.57 534.07 612.57 534.04 612.57 534.01 612.57 533.99 612.58 533.97 612.59 533.96 613.3 533.18 620.77 524.88 623.46 520.72 627.79 514.01 653.87 482.6 654.19 482.39 654.21 482.39 654.22 482.38 654.22 482.37 657.35 478.37 660.27 481.09 658.47 483.93 658.02 484.68 653.64 492.62 650.88 497.46 650.85 497.52 650.84 497.58 650.86 497.63 650.87 497.7 650.9 497.75 650.96 497.79 651.01 497.82 651.07 497.84 651.13 497.83 651.19 497.82 651.25 497.79 651.29 497.74V497.74C655.1 493.03 662.16 484.69 663.66 483.04 666.71 479.4 669.58 481.69 668.87 483.79V483.8C665.7 489.62 662.17 495.22 658.28 500.59V500.59C658.25 500.64 658.22 500.7 658.24 500.77 658.25 500.83 658.28 500.88 658.32 500.93 658.37 500.96 658.43 500.98 658.5 500.98 658.56 500.98 658.61 500.96 658.66 500.92V500.92C663.5 495.67 674.32 482.68 675.55 481.99L675.57 481.98C679.36 478.66 682.48 482.55 680.99 485.04V485.05C680.17 486.71 669.88 500.59 665.72 505.82 665.69 505.87 665.67 505.93 665.67 506 665.68 506.06 665.71 506.12 665.75 506.16 665.8 506.2 665.86 506.23 665.92 506.23 665.98 506.23 666.05 506.2 666.09 506.16V506.16L683.33 490.67 683.34 490.66C686.11 488.65 688.83 491.73 687.31 493.91L687.31 493.92C686.36 495.71 669.06 514.29 665.3 518.6 665.29 518.61 665.28 518.63 665.28 518.66 665.28 518.68 665.29 518.71 665.3 518.73 665.32 518.75 665.34 518.76 665.36 518.77 665.39 518.77 665.42 518.77 665.44 518.76 667.78 517.53 677.63 512.44 681.27 512.12 685.42 511.75 686.73 515 685.75 516.07 684.78 517.15 652.74 538.88 647.8 541.11 643.07 543.24 626.44 554.76 625.02 555.74 625.01 555.75 624.99 555.76 624.98 555.76 624.97 555.76 624.94 555.76 624.93 555.76 624.92 555.76 624.9 555.75 624.89 555.74 624.88 555.74 624.87 555.71 624.86 555.7L612.58 534.08Z" fill="#e6997f" opacity="1" stroke-width="3" stroke="none"></path><path d="M526.24 462.75C526.24 462.73 526.24 462.71 526.25 462.69 526.26 462.66 526.27 462.65 526.29 462.64 527.91 461.63 559.52 441.86 561.98 439.93 564.5 437.94 571 438.31 574.44 438.67 577.87 439.01 603.5 444.43 607.12 446.25 610.73 448.06 607.12 451.13 604.6 451.13 602.23 451.13 587.57 450 585.81 449.87 585.79 449.87 585.77 449.87 585.76 449.88 585.74 449.88 585.73 449.89 585.72 449.91 585.7 449.92 585.69 449.95 585.69 449.97 585.69 449.98 585.69 450 585.7 450.02 585.99 450.76 587.21 453.92 588.16 457.08 588.47 458.08 588.5 459.14 588.23 460.15 587.96 461.16 587.41 462.07 586.64 462.77 586.61 462.78 586.61 462.79 586.6 462.82 586.6 462.83 586.59 462.84 586.59 462.86 586.59 462.87 586.6 462.89 586.6 462.9 586.61 462.91 586.63 462.93 586.64 462.93 587.22 463.42 590.04 465.97 587.44 467.92 584.55 470.08 571.37 473.88 560.9 475.5 550.42 477.13 546.63 479.48 543.75 482.54 541.07 485.37 533.96 492.5 532.87 493.59 532.85 493.62 532.84 493.63 532.82 493.63 532.79 493.63 532.78 493.63 532.76 493.63 532.74 493.62 532.73 493.6 532.71 493.59 532.7 493.58 532.69 493.56 532.69 493.54L526.24 462.75Z" fill="#e6997f" opacity="1" stroke-width="3" stroke="none"></path><path d="M549.42 643.38C549.41 643.39 549.4 643.4 549.39 643.41 549.38 643.42 549.36 643.43 549.35 643.43 548.2 643.65 526.87 647.58 480.07 649.68 432.73 651.82 415.42 644.86 414.84 644.64 414.83 644.62 414.83 644.62 414.82 644.61 414.33 644.22 399.63 632.17 397.97 621.27 396.28 610.2 399.41 494.63 400.86 489.34 402.3 484.04 409.05 471.53 420.6 461.41 427.96 454.91 434.94 447.99 441.53 440.71 441.53 440.7 441.54 440.69 441.54 440.68 441.79 440.09 448.79 423.61 450.21 423.61 461.62 424.32 472.96 425.85 484.15 428.18 501.72 431.79 503.89 435.64 504.85 436.85 505.77 438 508.02 447.56 508.21 448.35 508.21 448.36 508.22 448.38 508.23 448.4 508.24 448.41 508.26 448.42 508.27 448.43 509.36 448.92 528.43 457.53 536.15 464.78 544.09 472.24 546.51 480.42 551.32 492.94 555.98 505.09 578.78 558.91 580.15 562.13 580.15 562.14 580.17 562.16 580.18 562.17 580.19 562.18 580.21 562.19 580.22 562.19 580.24 562.19 580.27 562.19 580.28 562.19 580.3 562.18 580.31 562.17 580.32 562.16 581.58 560.87 592.78 549.32 597.78 546.15 603.01 542.82 610.35 533.16 610.54 532.91L610.55 532.9C610.72 532.72 615.85 527.37 616.81 527.61 622.2 529.34 627.24 532.06 631.67 535.62 638.65 541.15 642.62 546.27 642.86 547.72 643.1 549.16 637.33 556.86 637.09 558.55 636.85 560.24 633.9 580.34 627.4 591.17 620.9 602.01 602.37 623.2 591.05 631.86 580.1 640.25 556.07 634.87 554.53 634.53 554.5 634.52 554.48 634.52 554.46 634.53 554.44 634.54 554.42 634.55 554.41 634.57L549.42 643.38Z" fill="#2a2c45" opacity="1" stroke-width="3" stroke="none"></path><path d="M674.75 915.9C674.77 915.91 674.79 915.93 674.79 915.95 674.8 915.97 674.8 916.01 674.79 916.03 674.38 917 670.69 925.82 670.02 929.91 669.3 934.24 680.74 952.42 688.44 959.88 696.14 967.35 705.3 973.85 709.63 977.22 713.71 980.39 710.96 985.48 710.63 986.07 710.62 986.09 710.61 986.1 710.58 986.11 710.57 986.12 710.55 986.12 710.53 986.12H672.56C664.85 986.12 657.03 981.03 656.57 980.72 656.56 980.72 656.55 980.72 656.55 980.72 656.53 980.7 656.52 980.72 656.51 980.72L653.75 981.69C653.73 981.7 653.71 981.71 653.7 981.73 653.69 981.74 653.67 981.78 653.67 981.8 653.71 982.15 653.66 982.5 653.56 982.84 653.45 983.16 653.26 983.48 653.02 983.74 652.79 984 652.49 984.2 652.18 984.34 651.85 984.49 651.51 984.56 651.15 984.56H651.14L623.93 981.07H623.91C617.54 981.06 611.25 979.74 605.41 977.19 599.57 974.65 594.32 970.92 589.98 966.26 578.91 954.7 577.71 951.1 577.71 947.24 577.71 943.38 583.85 928.47 584.33 924.85 584.77 921.41 585.44 907.77 585.52 906.42 585.52 906.4 585.53 906.36 585.55 906.34 585.56 906.33 585.57 906.33 585.59 906.32 585.61 906.32 585.62 906.32 585.63 906.32 587.33 906.41 608.61 907.57 622.93 914 622.96 914.01 622.97 914.03 622.98 914.06 622.99 914.08 623 914.1 622.99 914.12 617.08 937.37 622.12 935.63 622.63 935.4 622.64 935.4 622.66 935.39 622.66 935.38 622.67 935.37 622.68 935.36 622.69 935.34 623.05 934.39 629.61 917.05 630.32 913.53 630.73 911.58 630.97 909.6 631.04 907.61 631.04 907.58 631.05 907.56 631.08 907.53 631.1 907.51 631.12 907.5 631.15 907.5 633 907.46 659.18 907.12 674.75 915.9Z" fill="#be7396" opacity="1" stroke-width="3" stroke="none"></path><path d="M511.42 364.1C511.4 364.11 511.38 364.12 511.35 364.12 511.32 364.12 511.3 364.11 511.28 364.1 510.18 363.19 509.93 353.34 509.92 352.63 509.92 352.61 509.91 352.58 509.89 352.56 509.41 352.04 502.78 345.06 494.99 349.23 480.07 357.17 498.27 386.74 476.7 393.52 468.57 396.07 455.54 397.06 454.61 397.12 454.59 397.12 454.57 397.12 454.55 397.11 454.54 397.11 454.52 397.1 454.51 397.09 453.25 395.67 419.05 356.81 438.91 324.9 458.08 294.08 503.19 301.31 519.8 312.38 536.42 323.45 545.78 345.31 519.86 349.2 519.85 349.2 519.83 349.21 519.81 349.23 519.79 349.24 519.78 349.25 519.77 349.27 515.11 360.33 511.9 363.64 511.42 364.1Z" fill="#a56042" opacity="1" stroke-width="3" stroke="none"></path><path d="M448.04 358.5C442.47 360.94 437.66 359.6 433.68 356.68 431.85 349.27 432.17 341.48 434.6 334.24L461.77 328.52C461.77 328.52 465.38 350.92 448.04 358.5Z" fill="#85482e" opacity="1" stroke-width="3" stroke="none"></path><path d="M440.34 350.05C425.53 350.05 413.52 338.04 413.52 323.22 413.52 308.4 425.53 296.4 440.34 296.4 455.15 296.4 467.16 308.4 467.16 323.22 467.16 338.04 455.15 350.05 440.34 350.05Z" fill="#a56042" opacity="1" stroke-width="3" stroke="none"></path><path d="M432.36 348.85C437.73 350.5 443.48 350.45 448.81 348.67 454.14 346.9 458.79 343.48 462.08 338.93" stroke="#85482e" stroke-width="3" stroke-linecap="round" stroke-linejoin="round" opacity="1" fill="none"></path><path d="M585.64 449.85C585.64 449.85 575.15 448.99 574.61 448.99 574.07 448.99 574.25 454.55 577.5 457.08 580.4 459.19 583.41 461.1 586.54 462.85" stroke="#b97863" stroke-width="3" stroke-linecap="round" stroke-linejoin="round" opacity="1" fill="none"></path><path d="M665.3 518.73C661.06 518.19 657.46 518.57 654.49 520.09" stroke="#b97863" stroke-width="3" stroke-linecap="round" stroke-linejoin="round" opacity="1" fill="none"></path><path d="M658.4 513.18C652.22 510.66 647.39 507.44 644.42 503.01" stroke="#b97863" stroke-width="3" stroke-linecap="round" stroke-linejoin="round" opacity="1" fill="none"></path><path d="M532.74 351.73C532.76 351.73 532.78 351.74 532.8 351.75 532.83 351.76 532.84 351.78 532.85 351.8 533.08 352.46 533.03 356.06 532 356.15 530.92 356.23 528.39 356.23 526.04 356.6 523.69 356.96 522.34 357.06 522.25 356.69 522.17 356.32 526.13 352.17 528.75 352 531.03 351.84 532.41 351.75 532.74 351.73Z" fill="#a56042" opacity="1" stroke-width="3" stroke="none"></path><path d="M666.4 939.83C666.41 939.84 666.44 939.84 666.45 939.84 666.47 939.84 666.48 939.84 666.5 939.83 666.51 939.83 666.52 939.82 666.53 939.81 666.54 939.8 666.56 939.79 666.57 939.76L668.99 932.83C669.05 932.67 669.16 932.53 669.3 932.42 669.44 932.32 669.61 932.27 669.78 932.26 669.96 932.26 670.13 932.31 670.27 932.41 670.42 932.51 670.53 932.65 670.6 932.81 673.12 939.37 683.03 952.52 689.52 958.8 697.23 966.26 706.38 972.76 710.71 976.13 714.81 979.32 712.01 986.37 711.7 987.13 711.7 987.15 711.68 987.17 711.67 987.18 711.65 987.19 711.62 987.19 711.6 987.19H671.47C664.35 987.19 657.99 981.96 656.75 980.89 656.74 980.88 656.72 980.87 656.7 980.87 656.68 980.86 656.65 980.87 656.63 980.88 656.61 980.89 656.6 980.9 656.59 980.92 656.58 980.94 656.58 980.96 656.58 980.99L656.92 983.87C656.97 984.23 656.94 984.59 656.83 984.94 656.72 985.28 656.53 985.6 656.3 985.87 656.06 986.13 655.77 986.35 655.44 986.5 655.12 986.65 654.76 986.73 654.4 986.72H621.64C611.77 986.72 599.97 977.81 588.9 966.25 577.83 954.69 576.63 951.09 576.63 947.23 576.63 944.35 580.69 935.23 582.92 929.33 582.93 929.31 582.93 929.3 582.94 929.29 582.95 929.28 582.96 929.27 582.99 929.27 596.91 923.28 614.58 935.84 616.06 936.94 616.08 936.95 616.09 936.95 616.1 936.95 616.13 936.96 616.14 936.96 616.16 936.95 616.17 936.95 616.18 936.94 616.19 936.94 616.21 936.93 616.21 936.92 616.22 936.89L619.4 931C619.46 930.89 619.56 930.79 619.68 930.73 619.8 930.68 619.94 930.65 620.07 930.68 620.21 930.7 620.33 930.75 620.43 930.85 620.52 930.95 620.59 931.07 620.62 931.2V931.2C621.2 934.04 622.22 935.05 622.56 935.31 622.57 935.31 622.58 935.32 622.6 935.32 622.61 935.33 622.64 935.33 622.65 935.32 622.67 935.32 622.68 935.32 622.69 935.31 622.7 935.3 622.71 935.29 622.72 935.27 631 919.24 664.22 938.53 666.4 939.83Z" fill="#efad71" opacity="1" stroke-width="3" stroke="none"></path><path d="M705.18 987.23C705.2 987.23 705.22 987.22 705.24 987.21 705.26 987.19 705.28 987.17 705.28 987.14 705.29 987.12 705.29 987.1 705.28 987.08 705.26 987.05 705.24 987.03 705.22 987.02 696.09 982.36 679.34 973.48 669.84 965.82 668.32 964.6 666.73 963.28 665.08 961.92 654.61 953.25 641.57 942.48 631.04 942.48 629.33 942.46 627.63 942.79 626.04 943.4 625.42 943.6 624.88 943.95 624.47 944.43 624.04 944.92 623.77 945.51 623.68 946.13 622.47 955.32 655.08 979.76 656.47 980.8 656.52 980.86 663.57 987.32 671.46 987.32L705.18 987.23Z" fill="#f9f9f9" opacity="1" stroke-width="3" stroke="none"></path><path d="M705.18 987.23C705.2 987.23 705.22 987.22 705.24 987.21 705.26 987.19 705.28 987.17 705.28 987.14 705.29 987.12 705.29 987.1 705.28 987.08 705.26 987.05 705.24 987.03 705.22 987.02 696.09 982.36 679.34 973.48 669.84 965.82 668.32 964.6 666.73 963.28 665.08 961.92 654.61 953.25 641.57 942.48 631.04 942.48 629.33 942.46 627.63 942.79 626.04 943.4 625.42 943.6 624.88 943.95 624.47 944.43 624.04 944.92 623.77 945.51 623.68 946.13 622.47 955.32 655.08 979.76 656.47 980.8 656.52 980.86 663.57 987.32 671.46 987.32L705.18 987.23Z" fill="#f9f9f9" opacity="1" stroke-width="3" stroke="none"></path><path d="M654.39 986.74C654.4 986.74 654.41 986.74 654.43 986.74 654.44 986.73 654.45 986.73 654.47 986.72 654.48 986.71 654.49 986.7 654.5 986.69 654.5 986.67 654.51 986.65 654.51 986.64 654.51 986.63 654.51 986.62 654.5 986.6 654.5 986.59 654.5 986.58 654.49 986.57 654.48 986.56 654.47 986.54 654.45 986.53 654.44 986.53 654.42 986.52 654.41 986.52 654.27 986.49 639.71 983.03 628.66 975.2 622.83 970.82 617.27 966.1 612.02 961.05 606.31 955.81 600.92 950.86 595.8 947.39 592.28 944.87 588.11 943.43 583.79 943.23 582.7 943.16 581.62 943.3 580.6 943.65 579.57 944.01 578.63 944.56 577.83 945.29 577.38 945.77 577.05 946.33 576.84 946.95 576.63 947.56 576.55 948.21 576.6 948.86 577.04 952.25 579.23 956.34 588.81 966.34 601.84 979.94 612.88 986.84 621.63 986.84L654.39 986.74Z" fill="#f9f9f9" opacity="1" stroke-width="3" stroke="none"></path><path d="M654.39 986.74C654.4 986.74 654.41 986.74 654.43 986.74 654.44 986.73 654.45 986.73 654.47 986.72 654.48 986.71 654.49 986.7 654.5 986.69 654.5 986.67 654.51 986.65 654.51 986.64 654.51 986.63 654.51 986.62 654.5 986.6 654.5 986.59 654.5 986.58 654.49 986.57 654.48 986.56 654.47 986.54 654.45 986.53 654.44 986.53 654.42 986.52 654.41 986.52 654.27 986.49 639.71 983.03 628.66 975.2 622.83 970.82 617.27 966.1 612.02 961.05 606.31 955.81 600.92 950.86 595.8 947.39 592.28 944.87 588.11 943.43 583.79 943.23 582.7 943.16 581.62 943.3 580.6 943.65 579.57 944.01 578.63 944.56 577.83 945.29 577.38 945.77 577.05 946.33 576.84 946.95 576.63 947.56 576.55 948.21 576.6 948.86 577.04 952.25 579.23 956.34 588.81 966.34 601.84 979.94 612.88 986.84 621.63 986.84L654.39 986.74Z" fill="#f9f9f9" opacity="1" stroke-width="3" stroke="none"></path><path d="M579.72 755.13H642.32C642.32 755.13 620.18 908.49 619.93 909.69" stroke="#993b68" stroke-width="3" stroke-linecap="round" stroke-linejoin="round" opacity="1" fill="none"></path><path d="M554.45 634.51C554.45 634.51 537.84 632.34 533.76 612.12 527.26 598.89 506.32 551.93 503.66 548.32 501.64 545.83 499.19 543.71 496.44 542.06" stroke="#171927" stroke-width="3" stroke-linecap="round" stroke-linejoin="round" opacity="1" fill="none"></path><path d="M514.25 574.09L506.79 586.36" stroke="#171927" stroke-width="3" stroke-linecap="round" stroke-linejoin="round" opacity="1" fill="none"></path><path d="M508.22 448.41C495.68 443.02 453.4 433.94 441.54 440.7" stroke="#171927" stroke-width="3" stroke-linecap="round" stroke-linejoin="round" opacity="1" fill="none"></path><path d="M606.21 883.93C606.21 883.93 592.49 874.18 582.74 861.18" stroke="#993b68" stroke-width="3" stroke-linecap="round" stroke-linejoin="round" opacity="1" fill="none"></path><path d="M694.01 874.6L679.4 900.77" stroke="#993b68" stroke-width="3" stroke-linecap="round" stroke-linejoin="round" opacity="1" fill="none"></path><path d="M623.64 948.12C620.96 943.71 621.33 939.97 622.68 935.33" stroke="#e88932" stroke-width="3" stroke-linecap="round" stroke-linejoin="round" opacity="1" fill="none"></path><path d="M527.13 373.77C526.26 373.77 525.57 372.16 525.57 370.17 525.57 368.17 526.26 366.56 527.13 366.56 527.98 366.56 528.69 368.17 528.69 370.17 528.69 372.16 527.98 373.77 527.13 373.77Z" fill="#171a2e" opacity="1" stroke-width="3" stroke="none"></path><path d="M505.1 356.33C505.1 356.33 498.96 356.69 494.27 365.72" stroke="#b97863" stroke-width="3" stroke-linecap="round" stroke-linejoin="round" opacity="1" fill="none"></path><path d="M525.92 394.96L521.35 390.63" stroke="#b97863" stroke-width="3" stroke-linecap="round" stroke-linejoin="round" opacity="1" fill="none"></path><path d="M580.21 562.28C580.21 562.28 589.96 579.5 590.33 593.22" stroke="#171927" stroke-width="3" stroke-linecap="round" stroke-linejoin="round" opacity="1" fill="none"></path><path d="M604.05 573C604.05 573 602.24 567.94 588.15 563.25" stroke="#171927" stroke-width="3" stroke-linecap="round" stroke-linejoin="round" opacity="1" fill="none"></path><path d="M533.27 472.25C533.27 472.25 513.77 470.08 499.33 508.36" stroke="#171927" stroke-width="3" stroke-linecap="round" stroke-linejoin="round" opacity="1" fill="none"></path><path d="M674.83 915.94C679.89 917.61 683.73 918.86 685.5 919.44" stroke="#993b68" stroke-width="3" stroke-linecap="round" stroke-linejoin="round" opacity="1" fill="none"></path><path d="M576.79 906.58C579.69 906.33 582.6 906.25 585.51 906.31" stroke="#993b68" stroke-width="3" stroke-linecap="round" stroke-linejoin="round" opacity="1" fill="none"></path><path d="M626.43 916.92L622.81 913.9C621.27 912.82 619.52 911.21 619.94 909.68 620.65 907.06 630.86 907.49 631.03 907.5" stroke="#993b68" stroke-width="3" stroke-linecap="round" stroke-linejoin="round" opacity="1" fill="none"></path><path d="M595.58 523.35C595.45 523.69 595.41 524.06 595.45 524.42 595.51 524.77 595.65 525.12 595.86 525.41 596.07 525.7 596.35 525.94 596.69 526.09 597.01 526.25 597.37 526.32 597.74 526.3H694.76C695.6 526.26 696.42 525.94 697.08 525.42 697.76 524.89 698.24 524.17 698.49 523.35L715.2 461.01C715.32 460.67 715.36 460.3 715.31 459.94 715.26 459.59 715.12 459.24 714.91 458.95 714.7 458.66 714.42 458.43 714.08 458.27 713.76 458.11 713.4 458.04 713.04 458.06H616.03C615.17 458.1 614.36 458.41 613.69 458.94 613.02 459.47 612.53 460.19 612.29 461.01L595.58 523.35Z" fill="#2a2c45" opacity="1" stroke-width="3" stroke="none"></path><path d="M593.48 522.79C593.29 523.47 593.24 524.18 593.36 524.87 593.48 525.56 593.76 526.21 594.18 526.79 594.6 527.32 595.14 527.75 595.76 528.04 596.38 528.34 597.06 528.48 597.74 528.47L694.76 528.47C696.08 528.41 697.36 527.95 698.41 527.13 699.45 526.32 700.22 525.2 700.58 523.92L717.29 461.57C717.48 460.9 717.53 460.18 717.4 459.49 717.28 458.8 717 458.14 716.57 457.57 716.16 457.04 715.62 456.61 715 456.32 714.39 456.03 713.71 455.88 713.04 455.89H616.03C614.7 455.95 613.42 456.41 612.38 457.24 611.33 458.05 610.57 459.18 610.19 460.44L593.48 522.79ZM713.16 460.24C713.13 460.3 713.12 460.38 713.11 460.45L696.4 522.8C696.28 523.16 696.07 523.47 695.77 523.71 695.48 523.95 695.12 524.09 694.76 524.14H597.74C597.7 524.14 597.66 524.13 597.62 524.13 597.64 524.07 597.66 524 597.68 523.93L614.38 461.57C614.5 461.21 614.72 460.9 615.01 460.66 615.3 460.42 615.65 460.28 616.03 460.24H713.04C713.08 460.23 713.12 460.23 713.16 460.24Z" fill="#000000" opacity="1" stroke-width="3" stroke="none"></path><path d="M509.91 791.84H551.08V913.9H509.91V791.84Z" fill="#ffffff" opacity="1" stroke-width="3" stroke="none"></path><path d="M488.26 799.78H570.21C571.07 799.78 571.9 799.44 572.51 798.83 573.13 798.21 573.47 797.39 573.47 796.52V783.89L485 783.89V796.52C485 797.39 485.33 798.21 485.95 798.83 486.56 799.44 487.39 799.78 488.26 799.78V799.78Z" fill="#efad71" opacity="1" stroke-width="3" stroke="none"></path><path d="M510.26 968.66H550.73C551.41 968.66 552.08 968.53 552.71 968.27 553.33 968.01 553.9 967.63 554.37 967.15 554.85 966.66 555.24 966.1 555.49 965.47 555.75 964.84 555.89 964.18 555.89 963.5V910.04C555.89 909.35 555.75 908.69 555.49 908.07 555.24 907.44 554.85 906.87 554.37 906.39 553.9 905.91 553.33 905.53 552.71 905.27 552.08 905.01 551.41 904.88 550.73 904.88H510.26C509.58 904.88 508.91 905.01 508.28 905.27 507.66 905.53 507.09 905.91 506.61 906.39 506.13 906.87 505.75 907.44 505.49 908.07 505.23 908.69 505.1 909.35 505.1 910.04V963.5C505.1 964.18 505.23 964.84 505.49 965.47 505.75 966.1 506.13 966.66 506.61 967.15 507.09 967.63 507.66 968.01 508.28 968.27 508.91 968.53 509.58 968.66 510.26 968.66Z" fill="#efad71" opacity="1" stroke-width="3" stroke="none"></path><path d="M459.38 991.13C459.38 991.16 459.4 991.18 459.42 991.2 459.43 991.22 459.46 991.24 459.49 991.24H601.52C601.54 991.24 601.58 991.22 601.6 991.2 601.62 991.18 601.63 991.16 601.63 991.13V985.73C601.63 985.31 601.51 984.9 601.28 984.53 601.06 984.17 600.73 983.89 600.35 983.71V983.71L556.17 962.66C556.15 962.65 556.14 962.65 556.12 962.65H505.02C504.99 962.65 504.98 962.65 504.97 962.66L460.67 983.71C460.28 983.89 459.96 984.17 459.73 984.54 459.5 984.9 459.38 985.32 459.38 985.74V991.13Z" fill="#efad71" opacity="1" stroke-width="3" stroke="none"></path><path d="M580.21 751.39H651.71C674.46 751.39 683.49 759.7 684.57 770.53 685.66 781.37 679.51 785.7 669.41 785.7L422.83 785.7C420.44 785.71 418.07 785.23 415.86 784.32 413.65 783.4 411.63 782.06 409.94 780.37 408.25 778.67 406.92 776.65 406.01 774.44 405.1 772.22 404.64 769.85 404.65 767.46 404.68 765.06 405.16 762.7 406.09 760.49 407.04 758.29 408.39 756.3 410.1 754.62 411.81 752.95 413.84 751.63 416.06 750.74 418.29 749.85 420.67 749.42 423.06 749.45L580.21 751.39Z" fill="#efad71" opacity="1" stroke-width="3" stroke="none"></path><path d="M533.27 775.22H401.1C394.6 775.22 386.29 769.81 383.77 760.41 381.24 751.02 354.52 530.02 354.16 524.6 353.8 519.18 357.41 513.04 362.47 513.04H473.33C480.91 513.04 488.14 516.65 490.3 525.31 492.47 533.98 538.33 745.59 541.22 756.07 544.11 766.55 543.02 775.22 533.27 775.22Z" fill="#efad71" opacity="1" stroke-width="3" stroke="none"></path><path d="M509.44 758.38C510.69 764.53 513.49 770.27 517.56 775.06 517.57 775.08 517.58 775.09 517.58 775.12 517.58 775.14 517.58 775.16 517.57 775.18 517.56 775.19 517.55 775.21 517.53 775.22 517.52 775.23 517.5 775.23 517.47 775.23H408.59C408.56 775.23 408.55 775.23 408.53 775.22 408.52 775.22 408.51 775.21 408.5 775.19 405.6 771.1 402.54 765.65 402.06 760.31 401.11 749.86 371.6 539.95 370.78 534.13 370.78 534.11 370.78 534.1 370.79 534.08 370.79 534.07 370.8 534.06 370.81 534.05 370.82 534.04 370.83 534.02 370.84 534.01 370.85 534.01 370.87 534 370.89 534H464.08C464.11 534 464.13 534.01 464.15 534.04 464.17 534.05 464.18 534.07 464.18 534.09L509.44 758.38Z" fill="#f9f9f9" opacity="1" stroke-width="3" stroke="none"></path></g></svg>