<svg xmlns="http://www.w3.org/2000/svg" height="1200" width="1600" version="1.1" xmlns:xlink="http://www.w3.org/1999/xlink" xmlns:svgjs="http://svgjs.com/svgjs"><rect fill="#ffeadf" width="1600" height="1200"></rect><g><path d="M1145.78 453.14L1010.93 453.1C1007.76 453.1 1004.71 451.84 1002.47 449.59 1000.22 447.35 998.95 444.29 998.95 441.12V303.43C998.95 300.26 1000.22 297.2 1002.47 294.96 1004.71 292.71 1007.76 291.45 1010.93 291.45L1145.75 291.39C1148.94 291.41 1152 292.68 1154.25 294.93 1156.49 297.19 1157.76 300.25 1157.77 303.43V441.13C1157.77 444.31 1156.5 447.36 1154.25 449.61 1152 451.86 1148.96 453.13 1145.78 453.14V453.14Z" fill="#f9f9f9" opacity="1" stroke-width="3" stroke="none"></path><path d="M1145.79 453.18C1145.76 453.18 1145.74 453.17 1145.73 453.16 1145.71 453.14 1145.7 453.13 1145.7 453.1 1145.7 453.08 1145.71 453.06 1145.73 453.04 1145.74 453.03 1145.76 453.02 1145.79 453.02 1145.85 453.02 1152.47 452.6 1152.47 445.06V304.5C1152.47 293.67 1145.84 291.55 1145.77 291.53 1145.74 291.52 1145.73 291.51 1145.72 291.49 1145.71 291.47 1145.7 291.46 1145.71 291.44 1145.71 291.42 1145.72 291.4 1145.74 291.38 1145.75 291.38 1145.77 291.37 1145.79 291.37 1148.99 291.37 1152.05 292.64 1154.32 294.91 1156.58 297.16 1157.85 300.23 1157.85 303.43V441.12C1157.85 444.32 1156.58 447.39 1154.31 449.64 1152.05 451.91 1148.99 453.18 1145.79 453.18Z" fill="#8b8b8b" opacity="1" stroke-width="3" stroke="none"></path></g><g><path d="M1083.05 372.18L1094.28 413.38C1094.35 413.63 1094.51 413.83 1094.72 413.96 1094.94 414.09 1095.19 414.13 1095.44 414.08 1095.68 414.02 1095.9 413.87 1096.03 413.66 1096.17 413.45 1096.22 413.19 1096.18 412.95L1088.32 371.52C1088.28 371.28 1088.15 371.07 1087.96 370.93 1087.77 370.78 1087.54 370.71 1087.3 370.73L1083.92 370.96C1083.78 370.97 1083.64 371.01 1083.51 371.08 1083.39 371.15 1083.28 371.25 1083.2 371.37 1083.12 371.48 1083.06 371.62 1083.03 371.76 1083.01 371.9 1083.01 372.05 1083.05 372.18V372.18Z" fill="#e66a48" opacity="1" stroke-width="3" stroke="none"></path><path d="M1083.05 372.18L1094.28 413.38C1094.35 413.63 1094.51 413.83 1094.72 413.96 1094.94 414.09 1095.19 414.13 1095.44 414.08 1095.68 414.02 1095.9 413.87 1096.03 413.66 1096.17 413.45 1096.22 413.19 1096.18 412.95L1088.32 371.52C1088.28 371.28 1088.15 371.07 1087.96 370.93 1087.77 370.78 1087.54 370.71 1087.3 370.73L1083.92 370.96C1083.78 370.97 1083.64 371.01 1083.51 371.08 1083.39 371.15 1083.28 371.25 1083.2 371.37 1083.12 371.48 1083.06 371.62 1083.03 371.76 1083.01 371.9 1083.01 372.05 1083.05 372.18V372.18Z" fill="#e14a21" opacity="1" stroke-width="3" stroke="none"></path><path d="M1054.05 372.18L1042.82 413.38C1042.75 413.63 1042.59 413.83 1042.38 413.96 1042.16 414.09 1041.91 414.13 1041.66 414.08 1041.42 414.02 1041.2 413.87 1041.07 413.66 1040.93 413.45 1040.88 413.19 1040.93 412.95L1048.78 371.52C1048.82 371.28 1048.95 371.07 1049.14 370.93 1049.33 370.78 1049.56 370.71 1049.8 370.73L1053.18 370.96C1053.32 370.97 1053.46 371.01 1053.59 371.08 1053.71 371.15 1053.82 371.25 1053.9 371.37 1053.99 371.48 1054.04 371.62 1054.07 371.76 1054.09 371.9 1054.08 372.05 1054.05 372.18Z" fill="#e66a48" opacity="1" stroke-width="3" stroke="none"></path><path d="M1054.05 372.18L1042.82 413.38C1042.75 413.63 1042.59 413.83 1042.38 413.96 1042.16 414.09 1041.91 414.13 1041.66 414.08 1041.42 414.02 1041.2 413.87 1041.07 413.66 1040.93 413.45 1040.88 413.19 1040.93 412.95L1048.78 371.52C1048.82 371.28 1048.95 371.07 1049.14 370.93 1049.33 370.78 1049.56 370.71 1049.8 370.73L1053.18 370.96C1053.32 370.97 1053.46 371.01 1053.59 371.08 1053.71 371.15 1053.82 371.25 1053.9 371.37 1053.99 371.48 1054.04 371.62 1054.07 371.76 1054.09 371.9 1054.08 372.05 1054.05 372.18Z" fill="#e14a21" opacity="1" stroke-width="3" stroke="none"></path><path d="M1075.17 372.18L1063.94 413.38C1063.87 413.63 1063.71 413.83 1063.5 413.96 1063.28 414.09 1063.02 414.13 1062.78 414.08 1062.53 414.02 1062.32 413.87 1062.18 413.66 1062.05 413.45 1062 413.19 1062.04 412.95L1069.9 371.52C1069.94 371.28 1070.07 371.07 1070.26 370.93 1070.45 370.78 1070.68 370.71 1070.92 370.73L1074.3 370.96C1074.44 370.97 1074.58 371.01 1074.7 371.08 1074.83 371.15 1074.94 371.25 1075.02 371.37 1075.1 371.48 1075.16 371.62 1075.18 371.76 1075.21 371.9 1075.2 372.05 1075.17 372.18Z" fill="#e66a48" opacity="1" stroke-width="3" stroke="none"></path><path d="M1097.82 370.96C1097.67 370.97 1097.53 371.01 1097.41 371.08 1097.28 371.15 1097.17 371.25 1097.09 371.37 1097.01 371.48 1096.95 371.62 1096.93 371.76 1096.9 371.9 1096.91 372.05 1096.95 372.18L1108.18 413.38C1108.24 413.63 1108.4 413.83 1108.61 413.96 1108.83 414.09 1109.09 414.13 1109.33 414.08 1109.58 414.02 1109.79 413.87 1109.93 413.66 1110.07 413.45 1110.12 413.19 1110.07 412.95L1102.21 371.52C1102.17 371.28 1102.04 371.07 1101.85 370.93 1101.66 370.78 1101.43 370.71 1101.19 370.73L1097.82 370.96Z" fill="#e66a48" opacity="1" stroke-width="3" stroke="none"></path><path d="M1103.24 372.41C1105.35 372.41 1107.16 371.35 1107.41 369.24 1107.66 367.12 1109.84 354.1 1104.61 341.76 1099.37 329.43 1074.58 329.05 1070.03 341.14 1065.48 353.23 1060.69 347.68 1050.66 352.73 1040.63 357.77 1041.94 368.3 1041.94 370.23 1041.94 372.16 1043.43 372.48 1044.31 372.48 1045.18 372.48 1101.12 372.41 1103.24 372.41Z" fill="#e66a48" opacity="1" stroke-width="3" stroke="none"></path></g><g><path d="M348.54 941.18C341.09 940.85 333.68 942.87 326.89 947.04 319.1 951.74 198.75 1005.76 191.84 1008.08 184.92 1010.41 184.05 1028.04 189.25 1028.04H1409.94C1417.73 1028.04 1413.41 1016.3 1406.48 1012.78 1399.55 1009.27 1237.65 950.56 1232.46 948.21 1224.61 944.82 1216.45 942.85 1208.22 942.35 1200.43 942.35 348.54 941.18 348.54 941.18Z" fill="#ffdecc" opacity="1" stroke-width="3" stroke="none"></path><path d="M213.04 1016.32C219.57 1014.26 226.36 1014.05 232.96 1015.73 242.91 1018.67 255.03 1013.97 262.39 1013.39 269.75 1012.8 278.41 1017.5 281.88 1016.9 285.34 1016.3 291.83 1013.97 296.17 1013.39 300.5 1012.8 304.83 1015.73 311.31 1016.32 317.8 1016.9 330.35 1012.8 342.05 1012.8 353.75 1012.8 357.63 1017.5 361.09 1016.92 364.56 1016.34 371.49 1014.57 379.28 1013.99 387.06 1013.41 389.67 1018.11 397.46 1016.92 405.25 1015.73 406.98 1013.41 415.64 1012.8 420.7 1012.39 425.73 1014.24 429.93 1018.08 429.93 1018.08 439.02 1013.97 445.5 1013.97 451.99 1013.97 457.19 1018.08 461.95 1018.08 466.72 1018.08 472.35 1012.8 481.87 1013.39 491.39 1013.97 496.59 1017.5 502.64 1016.9 508.7 1016.3 512.59 1013.97 520.4 1013.39 528.2 1012.8 530.79 1018.08 534.26 1017.5 537.72 1016.92 543.78 1013.99 553.74 1013.39 563.71 1012.78 564.99 1016.32 569.76 1016.32 574.53 1016.32 579.71 1013.39 587.94 1012.8 596.18 1012.22 601.36 1018.08 605.25 1016.32 609.15 1014.55 614.77 1011.04 621.27 1013.97" stroke="#f5d4c2" stroke-width="3" stroke-linecap="round" stroke-linejoin="round" opacity="1" fill="none"></path><path d="M1026.41 1015.13C1034.17 1013.72 1042.03 1013.72 1049.79 1015.13 1062.77 1017.48 1067.1 1010.43 1078.37 1011.62 1089.63 1012.8 1094.82 1018.67 1100.01 1017.48 1105.21 1016.3 1118.2 1011.62 1125.13 1010.43 1132.05 1009.25 1140.7 1015.13 1147.63 1015.13 1154.56 1015.13 1161.49 1010.43 1175.33 1010.43 1189.18 1010.43 1193.52 1017.48 1198.71 1016.3 1203.91 1015.11 1209.11 1010.43 1219.49 1009.25 1229.87 1008.06 1235.06 1013.95 1240.26 1013.95 1245.46 1013.95 1250.65 1009.25 1261.03 1009.25 1271.41 1009.25 1275.75 1017.46 1280.08 1016.3 1284.4 1015.13 1292.2 1010.43 1304.31 1010.43 1316.42 1010.43 1318.17 1017.48 1318.17 1017.48" stroke="#f5d4c2" stroke-width="3" stroke-linecap="round" stroke-linejoin="round" opacity="1" fill="none"></path></g><g><path d="M1002.47 474.85H805.49C802.94 474.85 800.73 475.68 799.84 478.86 798.98 481.9 759.12 600.77 758.39 602.96 757.66 605.15 758.76 606.61 760.58 606.61L966.27 606.61C968.82 606.61 970.28 605.15 971.01 602.59 971.74 600.04 1003.49 480.69 1004.22 478.86 1004.97 477.04 1004.29 474.85 1002.47 474.85Z" fill="#f9f9f9" opacity="1" stroke-width="3" stroke="none"></path><path d="M966.29 606.72C968.77 606.72 970.36 605.38 971.14 602.63 971.36 601.84 974.5 590.11 978.83 573.87 988.18 538.82 1003.84 480.16 1004.35 478.91 1004.54 478.46 1004.65 477.96 1004.65 477.46 1004.65 476.98 1004.56 476.48 1004.37 476.02 1004.26 475.77 1004.1 475.54 1003.89 475.35 1003.69 475.17 1003.44 475.03 1003.18 474.95 1003.16 474.94 1003.12 474.94 1003.1 474.95 1003.08 474.95 1003.06 474.97 1003.05 475 1003.04 475.02 1003.02 475.04 1003.02 475.06 1003.04 475.09 1003.05 475.11 1003.06 475.13 1003.32 475.47 1003.49 475.88 1003.55 476.3 1003.62 476.73 1003.57 477.16 1003.41 477.57 1002.57 481.09 970.73 600.59 970.01 602.94 969.3 605.21 965.43 605.58 965.39 605.58 965.38 605.58 965.37 605.58 965.36 605.58 965.35 605.58 965.33 605.58 965.32 605.59 965.31 605.6 965.29 605.6 965.28 605.62 965.27 605.63 965.27 605.66 965.27 605.69 965.27 605.71 965.28 605.73 965.29 605.74L965.85 606.66C965.86 606.68 965.87 606.69 965.88 606.71 965.9 606.72 965.92 606.72 965.94 606.72L966.29 606.72Z" fill="#f9f9f9" opacity="1" stroke-width="3" stroke="none"></path><path d="M998.36 480.81C998.36 480.79 998.36 480.78 998.36 480.77 998.36 480.75 998.36 480.74 998.35 480.73 998.34 480.72 998.33 480.71 998.32 480.7 998.31 480.7 998.29 480.7 998.27 480.7H803.23C803.19 480.7 803.17 480.71 803.14 480.73 803.12 480.74 803.1 480.78 803.08 480.81L799.46 491.88 820.85 516.9 944.42 524.39 995.37 491.88 998.36 480.81Z" fill="#f4d3b5" opacity="1" stroke-width="3" stroke="none"></path><path d="M969.09 604.06C969.12 604.06 969.15 604.08 969.16 604.1 969.19 604.12 969.2 604.14 969.2 604.18V610.15C969.2 610.19 969.19 610.21 969.16 610.23 969.15 610.25 969.12 610.26 969.09 610.26H701.94C701.91 610.26 701.89 610.25 701.85 610.23 701.82 610.22 701.8 610.2 701.79 610.17L699.54 605.69C699.48 605.56 699.46 605.4 699.46 605.26 699.47 605.1 699.51 604.96 699.59 604.84 699.67 604.71 699.78 604.61 699.91 604.53 700.04 604.46 700.19 604.42 700.33 604.42L969.09 604.06Z" fill="#f9f9f9" opacity="1" stroke-width="3" stroke="none"></path><path d="M969.09 610.26H701.94" stroke="#c3c3c3" stroke-width="3" stroke-linecap="round" stroke-linejoin="round" opacity="1" fill="none"></path><path d="M966.46 598.58H921.38L789.84 521.21 799.46 491.88 995.35 491.88 966.46 598.58Z" fill="#efad71" opacity="1" stroke-width="3" stroke="none"></path><path d="M789.84 521.21H942.19L921.38 598.58H764.6C764.59 598.58 764.58 598.58 764.57 598.57 764.56 598.57 764.55 598.56 764.54 598.55 764.53 598.54 764.53 598.53 764.53 598.52 764.53 598.51 764.53 598.49 764.53 598.47L789.84 521.21Z" fill="#f4d3b5" opacity="1" stroke-width="3" stroke="none"></path><path d="M857.6 505.33H950.67C951.71 505.32 952.71 504.92 953.47 504.21 954.23 503.5 954.7 502.54 954.77 501.5 954.82 501 954.76 500.51 954.6 500.04 954.44 499.57 954.18 499.14 953.85 498.79 953.51 498.43 953.11 498.14 952.64 497.95 952.19 497.75 951.7 497.65 951.2 497.66H858.13C857.09 497.67 856.1 498.07 855.35 498.79 854.58 499.5 854.12 500.46 854.03 501.5 854 501.98 854.05 502.48 854.22 502.95 854.37 503.42 854.64 503.84 854.97 504.21 855.3 504.57 855.71 504.86 856.16 505.05 856.62 505.24 857.11 505.34 857.6 505.33Z" fill="#f4d3b5" opacity="1" stroke-width="3" stroke="none"></path><path d="M825.44 504.58C824.05 503.14 824.18 500.78 825.72 499.29 827.25 497.8 829.63 497.75 831.02 499.19 832.4 500.62 832.28 502.99 830.73 504.48 829.2 505.97 826.82 506.02 825.44 504.58Z" fill="#f4d3b5" opacity="1" stroke-width="3" stroke="none"></path><path d="M811.31 504.58C809.91 503.14 810.05 500.78 811.58 499.29 813.12 497.8 815.49 497.75 816.89 499.19 818.27 500.62 818.15 502.99 816.6 504.48 815.06 505.97 812.69 506.02 811.31 504.58Z" fill="#f4d3b5" opacity="1" stroke-width="3" stroke="none"></path><path d="M791.49 521.21H985.81" stroke="#b6763c" stroke-width="3" stroke-linecap="round" stroke-linejoin="round" opacity="1" fill="none"></path><path d="M954.61 515.73H977.97C978.85 515.69 979.71 515.37 980.4 514.8 981.09 514.25 981.57 513.49 981.79 512.63 981.92 512.26 981.94 511.87 981.87 511.49 981.81 511.11 981.65 510.76 981.41 510.45 981.18 510.15 980.88 509.91 980.52 509.74 980.18 509.58 979.79 509.5 979.41 509.52H956.05C955.16 509.57 954.31 509.89 953.62 510.45 952.94 511 952.44 511.76 952.22 512.63 952.11 512.99 952.09 513.38 952.15 513.76 952.22 514.14 952.38 514.49 952.61 514.8 952.84 515.1 953.15 515.35 953.49 515.51 953.85 515.68 954.23 515.75 954.61 515.73V515.73Z" fill="#f4d3b5" opacity="1" stroke-width="3" stroke="none"></path><path d="M982.31 534.35H940.36" stroke="#b6763c" stroke-width="3" stroke-linecap="round" stroke-linejoin="round" opacity="1" fill="none"></path><path d="M979.01 546.21H936.73" stroke="#b6763c" stroke-width="3" stroke-linecap="round" stroke-linejoin="round" opacity="1" fill="none"></path><path d="M975.94 557.7H933.66" stroke="#b6763c" stroke-width="3" stroke-linecap="round" stroke-linejoin="round" opacity="1" fill="none"></path><path d="M988.78 488.18C988.06 487.37 988.29 485.99 989.31 485.09 990.32 484.19 991.72 484.11 992.44 484.92 993.16 485.72 992.92 487.11 991.91 488 990.9 488.91 989.5 488.99 988.78 488.18Z" fill="#1c1b1a" opacity="1" stroke-width="3" stroke="none"></path><path d="M979.47 488.18C978.76 487.37 978.99 485.99 980 485.09 981.01 484.19 982.41 484.11 983.13 484.92 983.85 485.73 983.62 487.11 982.6 488.02 981.6 488.91 980.19 488.99 979.47 488.18Z" fill="#1c1b1a" opacity="1" stroke-width="3" stroke="none"></path><path d="M935.73 533.75H789.25" stroke="#f9f9f9" stroke-width="3" stroke-linecap="round" stroke-linejoin="round" opacity="1" fill="none"></path><path d="M931.6 548.1H785.11" stroke="#f9f9f9" stroke-width="3" stroke-linecap="round" stroke-linejoin="round" opacity="1" fill="none"></path><path d="M926.98 563.67L780.5 563.67" stroke="#f9f9f9" stroke-width="3" stroke-linecap="round" stroke-linejoin="round" opacity="1" fill="none"></path><path d="M923.08 577.78H776.59" stroke="#f9f9f9" stroke-width="3" stroke-linecap="round" stroke-linejoin="round" opacity="1" fill="none"></path><path d="M917.97 591.65H771.49" stroke="#f9f9f9" stroke-width="3" stroke-linecap="round" stroke-linejoin="round" opacity="1" fill="none"></path><path d="M969.2 610.38C969.23 610.38 969.26 610.36 969.27 610.34 969.3 610.32 969.31 610.3 969.31 610.26V604.18C969.31 604.12 969.28 604.06 969.25 604.02 969.21 603.98 969.15 603.95 969.09 603.95L887.07 604.06C887.05 604.06 887.02 604.08 887 604.1 886.97 604.12 886.96 604.14 886.96 604.18V610.26C886.96 610.3 886.97 610.32 887 610.34 887.02 610.36 887.05 610.38 887.07 610.38H969.2Z" fill="#c3c3c3" opacity="1" stroke-width="3" stroke="none"></path></g><g><path d="M631.59 623.79V985.59C631.59 986.01 631.64 986.43 631.73 986.82 631.82 987.21 631.96 987.57 632.13 987.87 632.3 988.17 632.5 988.4 632.72 988.57 632.94 988.73 633.18 988.81 633.42 988.81H647.64C647.88 988.81 648.12 988.73 648.34 988.57 648.56 988.4 648.77 988.17 648.94 987.87 649.1 987.57 649.24 987.21 649.33 986.82 649.43 986.43 649.47 986.01 649.47 985.59V878.87C649.47 876.46 649.74 874.08 650.26 871.86 650.79 869.63 651.55 867.6 652.52 865.9 653.49 864.19 654.64 862.85 655.9 861.92 657.16 861 658.52 860.52 659.89 860.52H1139.52C1140.89 860.52 1142.24 861 1143.51 861.92 1144.77 862.85 1145.92 864.19 1146.88 865.9 1147.85 867.6 1148.62 869.63 1149.14 871.86 1149.67 874.08 1149.93 876.46 1149.93 878.87V983.26C1149.93 983.68 1149.98 984.1 1150.07 984.49 1150.17 984.88 1150.3 985.24 1150.47 985.54 1150.64 985.83 1150.84 986.07 1151.07 986.24 1151.29 986.4 1151.53 986.48 1151.77 986.48H1166.64C1166.88 986.48 1167.12 986.4 1167.34 986.24 1167.56 986.07 1167.77 985.83 1167.94 985.54 1168.11 985.24 1168.24 984.88 1168.33 984.49 1168.43 984.1 1168.47 983.68 1168.47 983.26L1168.47 687.31 1168.47 622.63 631.59 623.79Z" fill="#f9f9f9" opacity="1" stroke-width="3" stroke="none"></path><path d="M631.59 644.74L1168.47 687.31 1168.92 622.63 631.3 623.79 631.59 644.74Z" fill="#eeeeee" opacity="1" stroke-width="3" stroke="none"></path><path d="M1173.34 637.13H624.93C624.52 637.13 624.14 636.85 623.86 636.35 623.57 635.86 623.41 635.18 623.41 634.47V613.76C623.41 613.05 623.57 612.37 623.86 611.88 624.14 611.37 624.52 611.1 624.93 611.1H1173.34C1173.74 611.1 1174.13 611.37 1174.41 611.88 1174.69 612.37 1174.85 613.05 1174.85 613.76V634.47C1174.85 634.82 1174.81 635.17 1174.74 635.49 1174.66 635.81 1174.55 636.1 1174.41 636.36 1174.27 636.61 1174.1 636.8 1173.92 636.93 1173.73 637.07 1173.54 637.13 1173.34 637.13V637.13Z" fill="#f9f9f9" opacity="1" stroke-width="3" stroke="none"></path></g><g><path d="M464.84 690.06L441.74 665.83 449.31 615.1 578.79 643.87 581.82 662.42 464.84 690.06Z" fill="#ec955c" opacity="1" stroke-width="3" stroke="none"></path><path d="M441.74 665.83C441.74 665.83 437.19 683.25 432.27 707.1 425.34 740.72 432.27 772.97 442.87 785.85 453.48 798.72 462.56 799.09 481.87 799.09H644.98C645 799.09 645.02 799.1 645.03 799.11 645.04 799.13 645.06 799.13 645.06 799.16 645.58 801.12 659.1 851.89 661.32 860.42 662.72 865.68 665.62 870.42 669.65 874.06 694.69 878.99 707.95 876.88 723.03 866.87 723.03 866.87 729.09 860.43 726.44 847.18L723.79 833.93 768.47 807.81C768.47 807.81 766.57 800.24 763.92 790.77 762.56 785.88 754.86 763.74 747.12 742.61 739.88 722.82 732.61 703.95 730.22 700.29 725.3 692.72 711.67 679.46 691.98 679.46 672.29 679.46 588.25 681.36 588.25 681.36L587.26 678.45 581.82 662.43 475.16 665.02 441.74 665.83Z" fill="#97607a" opacity="1" stroke-width="3" stroke="none"></path><path d="M726.45 847.18C725.6 842.94 725.02 840.05 724.63 838.1L709.41 835.63C709.41 835.63 676.08 799.85 669.26 757.26 669.26 757.26 673.06 828.24 684.99 870.27 685.14 870.83 685.31 871.38 685.46 871.92 692.47 885.48 705.86 881.16 723.03 866.86 723.04 866.87 729.29 862.1 726.45 847.18Z" fill="#7b5265" opacity="1" stroke-width="3" stroke="none"></path><path d="M708.65 835.19C708.65 835.19 718.75 850.33 721.02 854.12 724.27 859.32 727.98 864.22 732.12 868.75 737 874.14 749.15 889.19 752.95 894.12 756.74 899.05 759.38 911.92 760.9 919.11 761.41 921.36 762.5 923.43 764.05 925.13 764.99 926.17 766.91 926.57 768.15 927.4 771.53 929.68 775.85 930.37 780.65 930.75 790.11 931.51 830.7 931.28 842.81 930.53 854.92 929.78 862.43 925.47 866.6 921.69 867.7 920.67 869.35 920.06 870.11 918.94 872.2 915.83 872.61 912.44 869.55 909.65 865.39 905.86 843.43 903.59 835.1 900.95 826.77 898.3 805.57 889.21 796.11 879.75 786.64 870.28 771.87 810.84 768.47 807.81 765.06 804.79 746.51 799.89 728.34 809.71 709.41 819.92 708.65 835.19 708.65 835.19Z" fill="#f1b075" opacity="1" stroke-width="3" stroke="none"></path><path d="M507.24 440C507.24 440 510.83 433 511.21 431.86 511.59 430.72 508.94 425.23 507.43 422.96 505.91 420.69 475.62 378.85 491.33 349.13 507.04 319.42 541.88 324.71 559.1 327.56 565.2 328.61 570.94 331.13 575.82 334.92 580.16 338.23 583.72 342.47 586.23 347.32 588.74 352.16 590.14 357.5 590.34 362.95 591.29 381.69 588.83 380.37 595.65 384.34 602.46 388.31 603.03 389.65 602.27 392.29 602.15 392.64 601.98 392.96 601.74 393.25 599.96 395.61 594.48 398.61 593.52 400.91 593.43 401.12 593.38 401.34 593.37 401.57 593.37 404.22 593.75 415.77 593.37 421.45 593 427.13 588.64 432.24 580.69 436.97 577.22 439.04 573.69 440.99 570.76 442.7 566.96 444.91 564.13 446.75 563.27 448.14 562.94 448.69 562.06 450.23 560.84 452.42 556.57 460.09 548.5 474.83 548.5 474.83L507.24 440Z" fill="#ec955c" opacity="1" stroke-width="3" stroke="none"></path><path d="M582.5 560.89C582.49 560.88 582.49 560.88 582.49 560.86 582.49 560.85 582.49 560.84 582.5 560.83 583.13 559.39 604.09 511.56 606.33 505.96 608.6 500.28 612.58 495.17 619.02 489.68 625.46 484.19 627.53 481.73 630.94 478.89 634.35 476.06 637.37 480.38 636.43 482.49 635.48 484.64 627.6 499.51 626.79 501.04 626.78 501.06 626.77 501.07 626.77 501.08 626.77 501.1 626.78 501.11 626.79 501.12 626.8 501.14 626.81 501.14 626.82 501.15 626.84 501.16 626.85 501.16 626.87 501.16 629.3 500.96 661.86 498.21 666.75 497.79 671.03 497.43 672.5 501.97 669.24 503.89 669.22 503.9 669.21 503.92 669.21 503.93 669.2 503.95 669.2 503.96 669.21 503.99 669.21 504 669.22 504.01 669.23 504.03 669.25 504.04 669.26 504.04 669.28 504.04 676.05 503.51 677.58 509.83 672.11 512.13 672.09 512.14 672.07 512.15 672.07 512.17 672.06 512.18 672.06 512.2 672.06 512.22 672.07 512.24 672.07 512.25 672.09 512.26 672.11 512.28 672.12 512.29 672.14 512.28 678.05 511.96 678.72 517.57 673.23 519.33 676.19 518.3 678.44 522.64 673.73 525.09 670.38 526.83 633.79 542.14 632.49 542.68 632.48 542.68 632.48 542.69 632.47 542.7 632.46 542.71 632.45 542.72 632.45 542.73L611.13 619.54C611.13 619.56 611.11 619.57 611.1 619.58 611.09 619.59 611.07 619.6 611.06 619.6 611.04 619.61 611.03 619.6 611.01 619.59 611 619.58 610.99 619.57 610.98 619.56L582.5 560.89Z" fill="#ec955c" opacity="1" stroke-width="3" stroke="none"></path><path d="M431.15 637.55C431.15 637.56 431.15 637.56 431.15 637.58 431.15 637.59 431.16 637.6 431.17 637.61 431.17 637.62 431.19 637.63 431.19 637.63 431.2 637.63 431.21 637.63 431.22 637.64 434.59 638.09 538.78 652.03 546.61 653.53 554.56 655.04 584.98 651.9 584.98 651.9L582.57 634.99C582.57 634.99 623.08 608.1 624.6 605.08 626.12 602.06 626.11 596.75 620.43 588.8 614.75 580.85 580.67 518.38 573.48 500.59 566.29 482.79 559.1 471.43 539.78 458.56 520.47 445.69 508.36 436.6 508.36 436.6 508.36 436.6 487.53 460.07 474.28 476.73 461.04 493.39 453.84 534.65 449.3 553.21 444.85 571.38 431.69 634.94 431.15 637.55Z" fill="#2a2c45" opacity="1" stroke-width="3" stroke="none"></path><path d="M577.47 629.86L569.52 630.05C569.52 630.05 555.32 637.81 552.86 639.14 551.54 639.85 551.08 640.67 551.36 641.25 551.59 641.76 552.37 642.07 553.62 641.98 559.11 641.6 576.9 638.76 576.9 638.76L577.47 629.86Z" fill="#2a2c45" opacity="1" stroke-width="3" stroke="none"></path><path d="M577.47 629.86L569.52 630.05C569.52 630.05 555.32 637.81 552.86 639.14 551.54 639.85 551.08 640.67 551.36 641.25 551.59 641.76 552.37 642.07 553.62 641.98 559.11 641.6 576.9 638.76 576.9 638.76L577.47 629.86Z" fill="#26272b" opacity="1" stroke-width="3" stroke="none"></path><path d="M577.47 629.86L569.52 630.05C569.52 630.05 555.32 637.81 552.86 639.14 551.54 639.85 551.08 640.67 551.36 641.25 551.59 641.76 552.37 642.07 553.62 641.98 559.11 641.6 576.9 638.76 576.9 638.76L577.47 629.86Z" stroke="#26272b" stroke-width="3" stroke-linecap="round" stroke-linejoin="round" opacity="1" fill="none"></path><path d="M569.58 630.01C569.57 630.02 569.56 630.03 569.56 630.03 569.56 630.04 569.55 630.05 569.55 630.06 569.55 630.07 569.55 630.08 569.55 630.09 569.55 630.1 569.55 630.11 569.56 630.12 570.42 631.54 584.61 654.88 589.21 661.66 593.94 668.67 601.89 673.21 618.17 669.8 634.45 666.4 684.81 652.2 684.81 652.2 684.81 652.2 697.49 650.3 700.71 648.41 703.9 646.53 707.46 635.35 709 629.82 709.01 629.8 709.01 629.78 709.02 629.78 709.03 629.77 709.05 629.76 709.05 629.76 709.07 629.75 709.09 629.75 709.1 629.76 709.11 629.76 709.12 629.77 709.13 629.78 711.03 631.8 714.63 633.69 716.34 628.59 716.35 628.58 716.36 628.56 716.37 628.55 716.38 628.55 716.4 628.54 716.41 628.54 716.43 628.54 716.45 628.55 716.46 628.55 716.47 628.56 716.48 628.58 716.49 628.59 717.57 632.02 719.89 632.16 722.15 631.43 725.98 630.2 722.43 618.22 721.34 614.34 719.64 608.29 716.62 603.57 711.52 604.3 711.51 604.3 711.49 604.3 711.48 604.29 706.29 601.45 700.28 604.16 699.63 604.47 699.61 604.48 699.6 604.48 699.58 604.47 699.56 604.47 699.54 604.46 699.54 604.45 699.24 604.08 697.13 601.84 690.7 603.92 690.68 603.93 690.67 603.93 690.65 603.92 682.35 601.66 680.83 603.55 678.75 607.15 676.67 610.75 675.34 620.02 675.34 620.02 675.34 620.02 658.81 617.62 648.59 615.35 638.36 613.08 628.96 610.18 628.96 610.18L621.95 598.63 612.11 604.53 569.58 630.01Z" fill="#ec955c" opacity="1" stroke-width="3" stroke="none"></path><path d="M500.05 339.67C498.29 335.53 496.19 331.54 493.78 327.74 493.21 326.83 492.56 325.87 491.9 324.9 486.41 316.76 466.92 310.33 458.02 319.6 449.12 328.86 446.28 333.23 441.17 343.83 436.07 354.43 441.55 367.87 453.1 374.12 458.66 377.13 464.27 377.71 469.72 377.31 475.59 376.9 481.3 375.37 486.8 374.68 497.4 373.37 500.05 339.67 500.05 339.67Z" fill="#a95515" opacity="1" stroke-width="3" stroke="none"></path><path d="M538.48 369.05C538.48 369.04 538.47 369.03 538.47 369.02 538.46 369.01 538.45 369 538.44 368.99 535.77 368.01 532.86 367.87 530.12 368.63 527.37 369.38 524.93 370.97 523.14 373.18 516.9 380.37 517.46 390.78 521.06 398.16 522.69 401.52 522.99 405.77 522.62 409.75 522.16 414.53 520.7 418.92 519.36 420.88 516.9 424.47 511.22 431.85 511.22 431.85 511.22 431.85 497.02 416.14 490.2 405.92 483.39 395.7 475.25 382.45 483.01 361.25 486.39 351.76 491.68 343.07 498.54 335.7 505.69 328.1 514.38 322.42 524.85 322.82 544.92 323.58 569.77 323.76 575.82 334.93 571.28 346.1 569.71 351.59 563.27 353.67 556.82 355.75 553.62 362.19 553.62 367.68 553.62 373.15 551.73 383.71 542.91 386.76 542.9 386.77 542.89 386.77 542.88 386.77 542.87 386.77 542.85 386.77 542.85 386.76 542.84 386.76 542.83 386.75 542.82 386.74 542.82 386.73 542.82 386.72 542.81 386.71L538.48 369.05Z" fill="#a95515" opacity="1" stroke-width="3" stroke="none"></path><path d="M511.21 431.86C514.24 428.61 516.98 425.1 519.39 421.36 520.73 419.4 522.23 414.85 522.62 409.75 519.19 409.35 512.82 408.6 506.29 407.45 496.64 405.75 491.52 408.21 490.01 402.34 488.5 396.47 488.87 355.39 488.87 355.39L482.1 363.96C475.95 383.6 482.89 396.94 489.41 406.72 496.23 416.93 511.21 431.86 511.21 431.86Z" fill="#843a01" opacity="1" stroke-width="3" stroke="none"></path><path d="M584.44 384.41C585.85 384.41 587 382.55 587 380.25 587 377.94 585.85 376.08 584.44 376.08 583.03 376.08 581.89 377.94 581.89 380.25 581.89 382.55 583.03 384.41 584.44 384.41Z" fill="#333333" opacity="1" stroke-width="3" stroke="none"></path><path d="M574.89 365.34C574.88 365.34 574.86 365.34 574.85 365.34 574.84 365.33 574.83 365.32 574.81 365.3 574.8 365.3 574.8 365.28 574.8 365.26 574.8 365.25 574.8 365.23 574.81 365.23 575.38 364.25 579.09 361.03 582.45 360.43 585.99 359.8 590.02 359.67 590.4 360.43 590.75 361.13 590.52 363.49 590.47 363.9 590.47 363.92 590.47 363.94 590.45 363.95 590.44 363.96 590.42 363.97 590.4 363.97L574.89 365.34Z" fill="#a95515" opacity="1" stroke-width="3" stroke="none"></path><path d="M579.93 403.47C579.93 403.47 583.21 406.5 589.14 406.37" stroke="#a8551f" stroke-width="3" stroke-linecap="round" stroke-linejoin="round" opacity="1" fill="none"></path><path d="M528.19 376.08C528.19 376.08 534.49 377.59 535.63 384.28 529.2 388.95 533.99 394.38 533.99 394.38" stroke="#a8551f" stroke-width="3" stroke-linecap="round" stroke-linejoin="round" opacity="1" fill="none"></path><path d="M558.16 443.03C552.66 443.21 554.56 446.81 556.64 448.89 557.97 450.16 559.37 451.33 560.84 452.42 562.06 450.57 563.23 448.7 563.55 448.16 564.4 446.79 567.03 445.06 570.76 442.7 566.78 442.77 561.34 442.92 558.16 443.03Z" fill="#d26b28" opacity="1" stroke-width="3" stroke="none"></path><path d="M716.27 629.13C716.28 629.12 716.29 629.1 716.3 629.09 716.32 629.09 716.33 629.08 716.35 629.08 716.36 629.08 716.38 629.09 716.4 629.09 716.41 629.11 716.42 629.12 716.43 629.13 717.48 632.42 719.95 632.08 722.15 631.43 720.81 630.21 719.76 628.7 719.07 627.03 717.69 623.86 716.11 620.19 715.35 618.43 715.31 618.32 715.24 618.23 715.13 618.16 715.04 618.09 714.93 618.05 714.81 618.04 714.7 618.02 714.59 618.05 714.48 618.09 714.37 618.14 714.28 618.22 714.21 618.31 711.67 621.73 709.9 625.65 709 629.82 710.51 632.2 714.53 634.32 716.27 629.13Z" fill="#d26b28" opacity="1" stroke-width="3" stroke="none"></path><path d="M714.21 618.31C711.67 621.73 709.89 625.65 709 629.82" stroke="#d26b28" stroke-width="3" stroke-linecap="round" stroke-linejoin="round" opacity="1" fill="none"></path><path d="M715.35 618.43C715.31 618.32 715.23 618.23 715.13 618.16 715.04 618.09 714.93 618.05 714.81 618.04 714.7 618.02 714.58 618.05 714.48 618.09 714.37 618.14 714.27 618.22 714.21 618.31" stroke="#d26b28" stroke-width="3" stroke-linecap="round" stroke-linejoin="round" opacity="1" fill="none"></path><path d="M716.35 629.08C716.35 629.08 716.11 620.19 715.35 618.42" stroke="#d26b28" stroke-width="3" stroke-linecap="round" stroke-linejoin="round" opacity="1" fill="none"></path><path d="M675.34 620.02L684.42 621.28" stroke="#d26b28" stroke-width="3" stroke-linecap="round" stroke-linejoin="round" opacity="1" fill="none"></path><path d="M569.52 630.05C570.77 632.69 572.3 635.18 574.07 637.5L612.11 604.53C595.48 613.92 584.85 619.85 569.52 630.05Z" fill="#d26b28" opacity="1" stroke-width="3" stroke="none"></path><path d="M495.38 560.33C495.38 560.33 502.44 562.1 504.97 563.86 507.49 565.62 511.53 568.16 513.29 571.69 515.06 575.22 551.15 640.6 551.15 640.6" stroke="#26272b" stroke-width="3" stroke-linecap="round" stroke-linejoin="round" opacity="1" fill="none"></path><path d="M533.48 591.12L559.49 607.27" stroke="#26272b" stroke-width="3" stroke-linecap="round" stroke-linejoin="round" opacity="1" fill="none"></path><path d="M522.88 499.75C522.88 499.75 537.78 481.07 542.32 479.31 546.87 477.55 556.71 478.3 556.71 478.3" stroke="#26272b" stroke-width="3" stroke-linecap="round" stroke-linejoin="round" opacity="1" fill="none"></path><path d="M531.72 606.77L510.77 612.83" stroke="#26272b" stroke-width="3" stroke-linecap="round" stroke-linejoin="round" opacity="1" fill="none"></path><path d="M602.89 656.49L607.95 660.03" stroke="#d26b28" stroke-width="3" stroke-linecap="round" stroke-linejoin="round" opacity="1" fill="none"></path><path d="M747.12 742.61C714.27 712.25 665.49 716.94 665.49 716.94L592.8 694.6 588.26 681.35C588.26 681.35 645.37 679.6 676.46 679.14 692.86 678.74 715.36 676.19 731.02 700.28 733.38 703.92 747.12 742.61 747.12 742.61Z" fill="#7b5265" opacity="1" stroke-width="3" stroke="none"></path><path d="M665.49 716.94L592.8 694.6 588.26 681.35" stroke="#7b5265" stroke-width="3" stroke-linecap="round" stroke-linejoin="round" opacity="1" fill="none"></path><path d="M666.39 708.31L665.49 716.19C665.49 716.19 665.12 742.69 671.55 767.29 677.98 791.89 698.42 821.56 708.65 835.19" stroke="#7b5265" stroke-width="3" stroke-linecap="round" stroke-linejoin="round" opacity="1" fill="none"></path><path d="M475.16 665.02L587.26 678.45 581.83 662.37C581.83 662.35 581.82 662.34 581.8 662.33 581.79 662.32 581.77 662.31 581.75 662.31L475.16 665.02Z" fill="#7b5265" opacity="1" stroke-width="3" stroke="none"></path><path d="M869.93 913.94C866.65 912.17 861.61 915.2 849.74 913.94 837.88 912.68 835.86 923.03 823.24 923.53 810.62 924.03 799.52 923.28 779.32 923.03 771.81 922.93 767.06 923.86 764.09 925.01 764.08 925.02 764.06 925.02 764.05 925.03 764.05 925.04 764.04 925.05 764.04 925.06 764.04 925.08 764.04 925.09 764.04 925.1 764.05 925.12 764.05 925.12 764.05 925.13 765 926.17 766.08 927.08 767.24 927.87 771.01 930.29 775.34 931.71 779.83 931.99H779.83C789.3 932.75 830.55 933.5 842.67 932.75H842.68C851.84 932.12 860.52 928.38 867.29 922.15 868.35 921.2 869.3 920.12 870.11 918.94 870.96 916.75 871.29 914.67 869.93 913.94Z" fill="#c48246" opacity="1" stroke-width="3" stroke="none"></path><path d="M717.3 847.3L717.48 846.54C717.48 846.54 721.27 830.39 739.45 822.57 757.62 814.75 771.5 819.54 771.5 819.54L773.27 820.15" stroke="#1f1f1f" stroke-width="3" stroke-linecap="round" stroke-linejoin="round" opacity="1" fill="none"></path><path d="M725.38 858.94L725.56 858.41C725.56 858.41 729.86 845.54 747.77 839.23 765.69 832.92 776.04 836.96 776.04 836.96L778.33 837.85" stroke="#1f1f1f" stroke-width="3" stroke-linecap="round" stroke-linejoin="round" opacity="1" fill="none"></path><path d="M646.81 507.14L668.89 504.07" stroke="#d26b28" stroke-width="3" stroke-linecap="round" stroke-linejoin="round" opacity="1" fill="none"></path><path d="M648.73 514.77C649.24 514.77 671.6 512.32 671.6 512.32" stroke="#d26b28" stroke-width="3" stroke-linecap="round" stroke-linejoin="round" opacity="1" fill="none"></path><path d="M673.23 519.33C673.23 519.33 658.97 522.42 652.49 523.32 646.19 524.21 640 524.71 640 524.71" stroke="#d26b28" stroke-width="3" stroke-linecap="round" stroke-linejoin="round" opacity="1" fill="none"></path><path d="M767.53 891.66C767.53 891.66 769.99 893.17 775.85 894.12" stroke="#c48246" stroke-width="3" stroke-linecap="round" stroke-linejoin="round" opacity="1" fill="none"></path><path d="M493.77 327.74C493.77 327.74 474.46 368.99 469.72 377.31 474.45 378.07 480.18 375.83 480.18 375.83L498.54 335.7C497.15 332.93 495.56 330.27 493.77 327.74V327.74Z" fill="#2a2c45" opacity="1" stroke-width="3" stroke="none"></path><path d="M601.74 393.25C599.3 393.81 594.16 395.01 592.93 395.38 591.57 395.8 592.88 398.39 593.52 400.91 594.49 398.63 599.74 396.07 601.74 393.25Z" fill="#d26b28" opacity="1" stroke-width="3" stroke="none"></path><path d="M624.16 597.32L612.11 604.53 569.52 630.05" stroke="#26272b" stroke-width="3" stroke-linecap="round" stroke-linejoin="round" opacity="1" fill="none"></path><path d="M669.65 874.06C669.65 874.06 684.42 955.08 684.8 960 685.17 964.92 684.8 973.63 685.17 979.69 685.22 980.59 685.36 981.49 685.58 982.36 686.94 986.38 690.01 987.57 694.61 987.8 694.88 987.81 695.16 987.82 695.45 987.82 695.53 987.82 695.57 988.12 785.48 988.12 786.6 988.16 787.71 987.81 788.62 987.16 789.55 986.51 790.23 985.58 790.58 984.5 791.5 981.58 790.87 977.95 788.15 976.28 783.23 973.25 768.08 969.09 758.62 964.92 749.15 960.75 738.55 951.67 732.5 946.75 726.44 941.83 727.95 931.23 727.58 927.44 727.2 923.66 725.3 901.32 725.3 898.29 725.3 895.26 723.03 866.87 723.03 866.87L669.65 874.06Z" fill="#f1b075" opacity="1" stroke-width="3" stroke="none"></path><path d="M782.1 985.87H701.33C695.89 985.88 690.52 984.69 685.6 982.36 686.09 986.68 689.57 988.52 694.17 988.75 694.44 988.77 694.72 988.77 695.01 988.77H785.5C786.72 988.81 787.92 988.4 788.85 987.62 789.79 986.82 790.4 985.72 790.58 984.5 787.84 985.43 784.98 985.89 782.1 985.87V985.87Z" fill="#c48246" opacity="1" stroke-width="3" stroke="none"></path><path d="M673.16 893.43L724.64 887.71" stroke="#1f1f1f" stroke-width="3" stroke-linecap="round" stroke-linejoin="round" opacity="1" fill="none"></path><path d="M676.45 906.87L724.58 902.58" stroke="#1f1f1f" stroke-width="3" stroke-linecap="round" stroke-linejoin="round" opacity="1" fill="none"></path><path d="M695.97 957.16L702.03 964.54" stroke="#c48246" stroke-width="3" stroke-linecap="round" stroke-linejoin="round" opacity="1" fill="none"></path><path d="M439.09 787.36C439.09 787.36 452.72 802.69 513.48 790.19 536.12 785.54 562.16 781.68 585.41 781.33 624.53 780.75 655.9 790.15 650.91 822.57H435.68L439.09 787.36Z" fill="#efad71" opacity="1" stroke-width="3" stroke="none"></path><path d="M585.41 781.33C614.2 788.54 629.78 808.3 637.48 822.57H650.92C656.99 791.6 626.69 780.43 585.41 781.33Z" fill="#bc722f" opacity="1" stroke-width="3" stroke="none"></path><path d="M496.45 842.44V952.62H534.12V845.66L496.45 842.44Z" fill="#080808" opacity="1" stroke-width="3" stroke="none"></path><path d="M430.57 820.3H652.05C658.86 820.3 657.16 831.08 649.78 831.08H648.64C648.64 831.08 635.58 851.52 595.83 851.52H444.2L430.57 820.3Z" fill="#8d4707" opacity="1" stroke-width="3" stroke="none"></path><path d="M449.38 831.15L648.64 831.08" stroke="#6e3603" stroke-width="3" stroke-linecap="round" stroke-linejoin="round" opacity="1" fill="none"></path><path d="M520.61 727.66L514.88 754.53 496.93 838.49C496.75 839.36 496.75 840.28 496.97 841.15 497.18 842.03 497.58 842.84 498.14 843.54 498.71 844.25 499.43 844.81 500.23 845.19 501.05 845.59 501.93 845.78 502.83 845.78H532.11C534 845.78 535.84 845.14 537.32 843.96 538.8 842.77 539.84 841.11 540.25 839.26L557.02 764.8 565.03 729.18 520.61 727.66Z" fill="#f1d4bb" opacity="1" stroke-width="3" stroke="none"></path><path d="M514.88 754.53L557.02 764.8 565.58 729.18 520.06 727.66 514.88 754.53Z" fill="#efad71" opacity="1" stroke-width="3" stroke="none"></path><path d="M497.59 714.1H624.23C640.13 714.1 642.97 720.35 640.7 727.73 640.4 728.73 639.97 729.69 639.43 730.57 636.22 735.72 628.79 737.39 611.73 737.39H499.29C493.39 737.39 489.54 734.4 487.72 730.57 484.45 723.7 487.74 714.1 497.59 714.1Z" fill="#f5841e" opacity="1" stroke-width="3" stroke="none"></path><path d="M357.32 519.31C357.32 519.31 372.09 567.02 383.44 637.43 394.79 707.84 368.67 790.76 433.42 840.74 433.42 840.74 451.59 760.09 428.31 646.52 413.76 526.47 357.32 519.31 357.32 519.31Z" fill="#efad71" opacity="1" stroke-width="3" stroke="none"></path><path d="M424.33 840.17C423.8 843.34 440.8 857.2 445.34 857.78 449.89 858.34 458.59 764.64 441.75 665.83 424.9 567.02 402.18 524.99 376.63 509.1 351.08 493.2 347.1 504.55 348.24 510.8 349.33 516.8 353.04 524.38 353.33 524.96 353.34 524.97 353.35 524.98 353.35 524.99 353.36 524.99 353.37 525 353.39 525 354.82 525.27 395.78 533.24 408.06 592.38 420.54 652.58 439.09 752.72 424.33 840.17Z" fill="#bc722f" opacity="1" stroke-width="3" stroke="none"></path><path d="M494.74 921.46C494.74 921.43 494.75 921.42 494.76 921.4 494.78 921.39 494.8 921.38 494.82 921.38H535.93C535.95 921.38 535.97 921.39 535.98 921.4 536 921.42 536.01 921.43 536.01 921.46V949.94C536.01 950.92 536.27 951.89 536.76 952.74 537.24 953.6 537.96 954.31 538.81 954.8L588.99 983.87C589.57 984.2 590.02 984.73 590.25 985.37 590.4 985.79 590.44 986.25 590.38 986.7 590.32 987.15 590.15 987.58 589.89 987.94 589.62 988.32 589.28 988.62 588.87 988.83 588.47 989.03 588.02 989.14 587.57 989.14H444.65C444.2 989.14 443.75 989.03 443.35 988.83 442.95 988.62 442.6 988.31 442.33 987.94 442.08 987.58 441.9 987.15 441.84 986.7 441.78 986.25 441.82 985.8 441.97 985.37 442.19 984.75 442.62 984.22 443.19 983.89L491.7 954.41C492.52 953.92 493.19 953.22 493.67 952.39 494.14 951.56 494.4 950.63 494.4 949.67L494.58 934.84 494.74 921.46Z" fill="#f5841e" opacity="1" stroke-width="3" stroke="none"></path><path d="M487.72 730.58C489.36 734.97 493.39 737.63 499.29 737.63 515.75 737.63 591.85 737.47 611.73 737.47 628.79 737.47 636.31 736.85 639.43 730.58H487.72Z" fill="#9a5e28" opacity="1" stroke-width="3" stroke="none"></path><path d="M639.43 730.57L487.72 730.58" stroke="#9a5e28" stroke-width="3" stroke-linecap="round" stroke-linejoin="round" opacity="1" fill="none"></path><path d="M588.99 983.77L538.82 954.57C538 954.11 537.33 953.44 536.88 952.62 536.42 951.8 536.2 950.87 536.25 949.94V921.38C536.25 921.37 536.25 921.36 536.24 921.35 536.24 921.34 536.23 921.33 536.23 921.32 536.22 921.32 536.21 921.32 536.2 921.31 536.19 921.31 536.18 921.3 536.17 921.3L494.75 921.22C494.73 921.22 494.71 921.23 494.69 921.25 494.68 921.26 494.67 921.29 494.67 921.3L494.58 934.84 526.55 955.45 535.76 986.78 588.77 986.39C588.79 986.01 590.4 985.77 590.26 985.42 590.18 985.07 590.02 984.74 589.8 984.46 589.58 984.18 589.3 983.94 588.99 983.77V983.77Z" fill="#9a5e28" opacity="1" stroke-width="3" stroke="none"></path><path d="M444.65 989.23H587.58C588.04 989.24 588.49 989.14 588.9 988.93 589.32 988.72 589.67 988.41 589.93 988.04 590.2 987.66 590.36 987.23 590.43 986.77 590.48 986.31 590.43 985.85 590.26 985.42 590.26 985.41 590.25 985.39 590.23 985.38 590.22 985.37 590.2 985.37 590.18 985.37H442.03C442.01 985.37 442 985.37 441.98 985.38 441.97 985.39 441.96 985.4 441.95 985.41 441.78 985.84 441.71 986.31 441.76 986.78 441.82 987.24 441.99 987.68 442.26 988.06 442.52 988.45 442.88 988.75 443.31 988.96 443.72 989.16 444.18 989.25 444.65 989.23Z" fill="#9a5e28" opacity="1" stroke-width="3" stroke="none"></path><path d="M627.5 503.67C628 503.67 625.61 493.95 632.67 488.27 639.74 482.59 637.98 471.36 645.42 465.68 652.86 460 660.82 463.04 665.99 460.76 671.17 458.49 678.23 453.82 685.43 458.99 692.63 464.16 691.36 474.01 684.05 478.17 676.73 482.33 663.86 485.87 663.1 492.56 662.34 499.24 653.51 504.8 653.51 504.8L627.5 503.67Z" fill="#dcdcdc" opacity="1" stroke-width="3" stroke="none"></path><path d="M619.11 497.5V537.82C619.11 538.59 619.26 539.36 619.56 540.08 619.86 540.8 620.29 541.45 620.84 541.99 621.39 542.54 622.04 542.98 622.75 543.28 623.47 543.58 624.24 543.73 625.02 543.73H647.28 661.47C662.24 543.73 663.01 543.58 663.72 543.28 664.44 542.98 665.09 542.54 665.64 541.99 666.19 541.45 666.62 540.8 666.92 540.08 667.22 539.36 667.37 538.59 667.37 537.82V497.16L619.11 497.5Z" fill="#e66a48" opacity="1" stroke-width="3" stroke="none"></path><path d="M625.02 543.84L647.28 543.73C631.04 531.75 624.67 510.15 622.31 497.99L619.02 498.11 618.99 537.83C618.99 538.45 619.32 543.84 625.02 543.84Z" fill="#b9573c" opacity="1" stroke-width="3" stroke="none"></path><path d="M667.1 498.3H619.02C618.69 498.3 618.37 498.17 618.15 497.94 617.91 497.71 617.79 497.4 617.79 497.07 617.79 496.75 617.91 496.44 618.15 496.2 618.37 495.97 618.69 495.84 619.02 495.84H667.1C667.42 495.84 667.73 495.97 667.97 496.2 668.2 496.44 668.33 496.75 668.33 497.07 668.33 497.4 668.2 497.71 667.97 497.94 667.73 498.17 667.42 498.3 667.1 498.3V498.3Z" fill="#dcdcdc" opacity="1" stroke-width="3" stroke="none"></path><path d="M663.22 502.47V514.39" stroke="#dcdcdc" stroke-width="3" stroke-linecap="round" stroke-linejoin="round" opacity="1" fill="none"></path><path d="M663.03 457.1C665.23 457.1 667 455.32 667 453.12 667 450.93 665.23 449.15 663.03 449.15 660.84 449.15 659.06 450.93 659.06 453.12 659.06 455.32 660.84 457.1 663.03 457.1Z" fill="#dcdcdc" opacity="1" stroke-width="3" stroke="none"></path></g></svg>