<svg xmlns="http://www.w3.org/2000/svg" height="1200" width="1600" version="1.1" xmlns:xlink="http://www.w3.org/1999/xlink" xmlns:svgjs="http://svgjs.com/svgjs"><rect fill="#ffeadf" width="1600" height="1200"></rect><g><path d="M1078.4 452.75C1122.85 452.75 1158.87 416.72 1158.87 372.28 1158.87 327.83 1122.85 291.8 1078.4 291.8 1033.96 291.8 997.93 327.83 997.93 372.28 997.93 416.72 1033.96 452.75 1078.4 452.75Z" fill="#f9f9f9" opacity="1" stroke-width="3" stroke="none"></path><path d="M1078.4 463.12C1128.57 463.12 1169.24 422.44 1169.24 372.28 1169.24 322.11 1128.57 281.43 1078.4 281.43 1028.23 281.43 987.56 322.11 987.56 372.28 987.56 422.44 1028.23 463.12 1078.4 463.12Z" stroke="#f9f9f9" stroke-width="3" stroke-linecap="round" stroke-linejoin="round" opacity="1" fill="none"></path></g><g><path d="M1083.05 372.18L1094.28 413.38C1094.35 413.63 1094.51 413.83 1094.72 413.96 1094.94 414.09 1095.19 414.13 1095.44 414.08 1095.68 414.02 1095.9 413.87 1096.03 413.66 1096.17 413.45 1096.22 413.19 1096.18 412.95L1088.32 371.52C1088.28 371.28 1088.15 371.07 1087.96 370.93 1087.77 370.78 1087.54 370.71 1087.3 370.73L1083.92 370.96C1083.78 370.97 1083.64 371.01 1083.51 371.08 1083.39 371.15 1083.28 371.25 1083.2 371.37 1083.12 371.48 1083.06 371.62 1083.03 371.76 1083.01 371.9 1083.01 372.05 1083.05 372.18V372.18Z" fill="#e66a48" opacity="1" stroke-width="3" stroke="none"></path><path d="M1083.05 372.18L1094.28 413.38C1094.35 413.63 1094.51 413.83 1094.72 413.96 1094.94 414.09 1095.19 414.13 1095.44 414.08 1095.68 414.02 1095.9 413.87 1096.03 413.66 1096.17 413.45 1096.22 413.19 1096.18 412.95L1088.32 371.52C1088.28 371.28 1088.15 371.07 1087.96 370.93 1087.77 370.78 1087.54 370.71 1087.3 370.73L1083.92 370.96C1083.78 370.97 1083.64 371.01 1083.51 371.08 1083.39 371.15 1083.28 371.25 1083.2 371.37 1083.12 371.48 1083.06 371.62 1083.03 371.76 1083.01 371.9 1083.01 372.05 1083.05 372.18V372.18Z" fill="#e14a21" opacity="1" stroke-width="3" stroke="none"></path><path d="M1054.05 372.18L1042.82 413.38C1042.75 413.63 1042.59 413.83 1042.38 413.96 1042.16 414.09 1041.91 414.13 1041.66 414.08 1041.42 414.02 1041.2 413.87 1041.07 413.66 1040.93 413.45 1040.88 413.19 1040.93 412.95L1048.78 371.52C1048.82 371.28 1048.95 371.07 1049.14 370.93 1049.33 370.78 1049.56 370.71 1049.8 370.73L1053.18 370.96C1053.32 370.97 1053.46 371.01 1053.59 371.08 1053.71 371.15 1053.82 371.25 1053.9 371.37 1053.99 371.48 1054.04 371.62 1054.07 371.76 1054.09 371.9 1054.08 372.05 1054.05 372.18Z" fill="#e66a48" opacity="1" stroke-width="3" stroke="none"></path><path d="M1054.05 372.18L1042.82 413.38C1042.75 413.63 1042.59 413.83 1042.38 413.96 1042.16 414.09 1041.91 414.13 1041.66 414.08 1041.42 414.02 1041.2 413.87 1041.07 413.66 1040.93 413.45 1040.88 413.19 1040.93 412.95L1048.78 371.52C1048.82 371.28 1048.95 371.07 1049.14 370.93 1049.33 370.78 1049.56 370.71 1049.8 370.73L1053.18 370.96C1053.32 370.97 1053.46 371.01 1053.59 371.08 1053.71 371.15 1053.82 371.25 1053.9 371.37 1053.99 371.48 1054.04 371.62 1054.07 371.76 1054.09 371.9 1054.08 372.05 1054.05 372.18Z" fill="#e14a21" opacity="1" stroke-width="3" stroke="none"></path><path d="M1075.17 372.18L1063.94 413.38C1063.87 413.63 1063.71 413.83 1063.5 413.96 1063.28 414.09 1063.02 414.13 1062.78 414.08 1062.53 414.02 1062.32 413.87 1062.18 413.66 1062.05 413.45 1062 413.19 1062.04 412.95L1069.9 371.52C1069.94 371.28 1070.07 371.07 1070.26 370.93 1070.45 370.78 1070.68 370.71 1070.92 370.73L1074.3 370.96C1074.44 370.97 1074.58 371.01 1074.7 371.08 1074.83 371.15 1074.94 371.25 1075.02 371.37 1075.1 371.48 1075.16 371.62 1075.18 371.76 1075.21 371.9 1075.2 372.05 1075.17 372.18Z" fill="#e66a48" opacity="1" stroke-width="3" stroke="none"></path><path d="M1097.82 370.96C1097.67 370.97 1097.53 371.01 1097.41 371.08 1097.28 371.15 1097.17 371.25 1097.09 371.37 1097.01 371.48 1096.95 371.62 1096.93 371.76 1096.9 371.9 1096.91 372.05 1096.95 372.18L1108.18 413.38C1108.24 413.63 1108.4 413.83 1108.61 413.96 1108.83 414.09 1109.09 414.13 1109.33 414.08 1109.58 414.02 1109.79 413.87 1109.93 413.66 1110.07 413.45 1110.12 413.19 1110.07 412.95L1102.21 371.52C1102.17 371.28 1102.04 371.07 1101.85 370.93 1101.66 370.78 1101.43 370.71 1101.19 370.73L1097.82 370.96Z" fill="#e66a48" opacity="1" stroke-width="3" stroke="none"></path><path d="M1103.24 372.41C1105.35 372.41 1107.16 371.35 1107.41 369.24 1107.66 367.12 1109.84 354.1 1104.61 341.76 1099.37 329.43 1074.58 329.05 1070.03 341.14 1065.48 353.23 1060.69 347.68 1050.66 352.73 1040.63 357.77 1041.94 368.3 1041.94 370.23 1041.94 372.16 1043.43 372.48 1044.31 372.48 1045.18 372.48 1101.12 372.41 1103.24 372.41Z" fill="#e66a48" opacity="1" stroke-width="3" stroke="none"></path></g><g><path d="M800 1034.04C1132.87 1034.04 1402.7 1011.9 1402.7 984.59 1402.7 957.28 1132.87 935.14 800 935.14 467.13 935.14 197.3 957.28 197.3 984.59 197.3 1011.9 467.13 1034.04 800 1034.04Z" fill="#ffdecc" opacity="1" stroke-width="3" stroke="none"></path><path d="M206.6 983.72C206.6 983.72 280.57 1027.43 799.9 1027.43 1319.22 1027.43 1390.12 986.77 1390.12 986.77" stroke="#ebbda3" stroke-width="3" stroke-linecap="round" stroke-linejoin="round" opacity="1" fill="none"></path></g><g><path d="M880.82 552.84C880.81 552.85 880.81 552.85 880.8 552.86 880.79 552.86 880.78 552.87 880.78 552.88 880.78 552.88 880.77 552.9 880.77 552.9 880.77 552.91 880.77 552.92 880.77 552.93L896.87 601.84C896.98 602.17 897.01 602.51 896.97 602.86 896.92 603.19 896.8 603.52 896.62 603.81 896.43 604.09 896.18 604.31 895.9 604.48 895.6 604.63 895.29 604.72 894.96 604.72H853.72C853.7 604.72 853.69 604.72 853.68 604.73 853.67 604.74 853.66 604.76 853.66 604.78V610.31C853.66 610.32 853.67 610.34 853.68 610.36 853.69 610.36 853.7 610.38 853.72 610.38H934.05C934.79 610.38 935.54 610.19 936.21 609.83 936.88 609.46 937.47 608.94 937.92 608.31 938.37 607.66 938.68 606.92 938.81 606.13 938.94 605.34 938.91 604.53 938.69 603.76V603.76L923.74 549.14C923.74 549.12 923.73 549.11 923.72 549.1 923.71 549.1 923.69 549.09 923.68 549.09L880.82 552.84Z" fill="#2b1109" opacity="1" stroke-width="3" stroke="none"></path><path d="M880.82 552.84C880.81 552.85 880.81 552.85 880.8 552.86 880.79 552.86 880.78 552.87 880.78 552.88 880.78 552.88 880.77 552.9 880.77 552.9 880.77 552.91 880.77 552.92 880.77 552.93L896.87 601.84C896.98 602.17 897.01 602.51 896.97 602.86 896.92 603.19 896.8 603.52 896.62 603.81 896.43 604.09 896.18 604.31 895.9 604.48 895.6 604.63 895.29 604.72 894.96 604.72H853.72C853.7 604.72 853.69 604.72 853.68 604.73 853.67 604.74 853.66 604.76 853.66 604.78V610.31C853.66 610.32 853.67 610.34 853.68 610.36 853.69 610.36 853.7 610.38 853.72 610.38H934.05C934.79 610.38 935.54 610.19 936.21 609.83 936.88 609.46 937.47 608.94 937.92 608.31 938.37 607.66 938.68 606.92 938.81 606.13 938.94 605.34 938.91 604.53 938.69 603.76V603.76L923.74 549.14C923.74 549.12 923.73 549.11 923.72 549.1 923.71 549.1 923.69 549.09 923.68 549.09L880.82 552.84Z" fill="#2b1109" opacity="1" stroke-width="3" stroke="none"></path><path d="M736.65 445.89C736.65 445.88 736.65 445.86 736.67 445.84 736.68 445.84 736.69 445.83 736.71 445.83H893.4C991.13 445.83 1035.79 421.64 1036.85 421.06 1036.86 421.06 1036.87 421.06 1036.89 421.06L1039.57 421.67C1039.59 421.67 1039.6 421.69 1039.6 421.69 1039.62 421.71 1039.62 421.72 1039.62 421.74V573.54C1039.62 573.55 1039.61 573.57 1039.6 573.59 1039.59 573.59 1039.57 573.61 1039.56 573.61H736.07C736.06 573.61 736.05 573.6 736.04 573.6 736.04 573.59 736.03 573.59 736.03 573.59 736.02 573.58 736.01 573.57 736.01 573.56 736.01 573.55 736.01 573.55 736.01 573.53L736.65 445.89Z" fill="#e66a48" opacity="1" stroke-width="3" stroke="none"></path><path d="M1033.15 426.86C1033.16 426.85 1033.17 426.85 1033.18 426.85 1033.2 426.85 1033.2 426.86 1033.21 426.86 1033.22 426.87 1033.23 426.88 1033.23 426.88 1033.24 426.9 1033.24 426.91 1033.24 426.92V477.73L884.14 553.3C884.14 553.3 762.92 547.54 739.14 482.35V448.86C739.14 448.84 739.15 448.82 739.16 448.81 739.17 448.8 739.19 448.8 739.21 448.8H911.66C987.94 448.8 1030.98 427.94 1033.15 426.86Z" fill="#ff9b41" opacity="1" stroke-width="3" stroke="none"></path><path d="M1033.21 426.79C1033.22 426.79 1033.23 426.79 1033.24 426.79 1033.26 426.79 1033.26 426.79 1033.27 426.8 1033.28 426.81 1033.29 426.81 1033.29 426.83 1033.3 426.83 1033.3 426.85 1033.3 426.85L1033.24 477.81C991.95 511.35 959.77 521.19 920.78 511.05 919.03 510.63 917.29 510.19 915.55 509.73 861.76 495.62 819.84 467.36 796.58 448.8H911.66C987.94 448.8 1031.03 427.88 1033.21 426.79Z" fill="#efad71" opacity="1" stroke-width="3" stroke="none"></path><path d="M1033.24 477.73V529.73C1032.33 535.71 1032.32 539.13 1033.24 544.94V570.39C1033.24 570.41 1033.23 570.42 1033.22 570.44 1033.21 570.44 1033.2 570.46 1033.18 570.46H739.14V482.35C755.87 489.95 791.45 505.93 817.74 516.48 824.12 519.04 829.94 521.28 834.82 522.99 857 530.81 887.19 517.62 908.49 507.78 916.35 504.14 923.02 500.97 927.61 499.49 928.46 499.2 929.32 498.97 930.2 498.79 944.63 495.96 967.3 504.45 967.3 504.45L1033.24 477.73Z" fill="#f9f9f9" opacity="1" stroke-width="3" stroke="none"></path><path d="M1037.06 573.6L1039.6 573.64C1039.61 573.64 1039.62 573.64 1039.63 573.64 1039.63 573.64 1039.64 573.63 1039.65 573.62 1039.65 573.62 1039.66 573.61 1039.66 573.61 1039.67 573.6 1039.67 573.59 1039.67 573.58L1039.68 421.67C1039.68 421.65 1039.67 421.64 1039.67 421.62 1039.65 421.62 1039.64 421.6 1039.63 421.6L1037.14 421.12C1037.13 421.12 1037.12 421.12 1037.11 421.12 1037.1 421.12 1037.09 421.12 1037.09 421.13 1037.08 421.13 1037.08 421.14 1037.07 421.15 1037.06 421.16 1037.06 421.17 1037.06 421.18V573.6Z" fill="#2b1109" opacity="1" stroke-width="3" stroke="none"></path><path d="M1037.06 573.6L1039.6 573.64C1039.61 573.64 1039.62 573.64 1039.63 573.64 1039.63 573.64 1039.64 573.63 1039.65 573.62 1039.65 573.62 1039.66 573.61 1039.66 573.61 1039.67 573.6 1039.67 573.59 1039.67 573.58L1039.68 421.67C1039.68 421.65 1039.67 421.64 1039.67 421.62 1039.65 421.62 1039.64 421.6 1039.63 421.6L1037.14 421.12C1037.13 421.12 1037.12 421.12 1037.11 421.12 1037.1 421.12 1037.09 421.12 1037.09 421.13 1037.08 421.13 1037.08 421.14 1037.07 421.15 1037.06 421.16 1037.06 421.17 1037.06 421.18V573.6Z" fill="#2b1109" opacity="1" stroke-width="3" stroke="none"></path><path d="M1033.24 544.94C1033.4 550.64 1033.24 560.17 1033.24 560.17 1027.34 555.55 1021.17 551.33 1014.77 547.54 1011.48 545.55 1007.83 543.49 1003.82 541.35 984.87 531.29 957.75 519.99 920.78 511.05 916.62 510.04 912.52 508.95 908.49 507.78 916.26 503.81 923.06 500.45 927.61 499.49 928.46 499.2 929.32 498.97 930.2 498.79 944.63 495.96 967.3 504.45 967.3 504.45 984 497.07 1007.49 486.71 1033.24 477.73 1033.24 477.73 1033.79 509.86 1033.24 529.73 1031.59 534.99 1031.64 539.09 1033.24 544.94Z" fill="#ffffff" opacity="1" stroke-width="3" stroke="none"></path><path d="M927.61 499.49L909.11 531.92C909.1 531.94 909.1 531.95 909.1 531.96 909.1 531.98 909.1 531.99 909.12 532 909.12 532.02 909.13 532.02 909.15 532.02 909.16 532.03 909.17 532.02 909.18 532.02L967.3 504.45C967.3 504.39 942.28 493.91 927.61 499.49Z" fill="#c4c4c4" opacity="1" stroke-width="3" stroke="none"></path><path d="M1033.24 529.73C1033.24 529.73 1033.24 529.71 1033.23 529.71 1033.23 529.7 1033.23 529.69 1033.22 529.68 1033.21 529.68 1033.2 529.67 1033.2 529.67 1033.18 529.67 1033.18 529.67 1033.17 529.67 1027.7 530.49 1024.56 534.52 1024.31 537.63 1024.31 537.64 1024.31 537.66 1024.3 537.66 1024.29 537.67 1024.29 537.68 1024.28 537.68 1024.26 537.69 1024.26 537.69 1024.25 537.69 1024.23 537.69 1024.22 537.68 1024.22 537.67 1018.75 532.37 1010.65 535.26 1010.38 542.27 1010.38 542.28 1010.37 542.29 1010.37 542.3 1010.36 542.31 1010.36 542.31 1010.35 542.32 1010.34 542.33 1010.33 542.33 1010.32 542.33 1010.31 542.33 1010.29 542.33 1010.29 542.32 1009.73 541.98 1006.62 540.23 1003.82 541.34 1002.52 541.86 1001.27 543.01 1000.4 545.23 1000.39 545.25 1000.38 545.25 1000.38 545.26 1000.37 545.27 1000.36 545.27 1000.35 545.27 1000.35 545.27 1000.33 545.28 1000.33 545.27 1000.32 545.27 1000.31 545.27 1000.3 545.27 991.32 539.28 981.39 545.06 979.19 549.24 979.19 549.25 979.18 549.27 979.16 549.27 979.15 549.27 979.13 549.27 979.12 549.27 970.33 546.25 959.51 552.72 958.97 553.04 958.96 553.05 958.95 553.05 958.93 553.05 958.41 552.92 949.25 550.77 941.84 557.42 941.83 557.43 941.82 557.44 941.82 557.45 941.82 557.47 941.82 557.49 941.82 557.5 941.83 557.51 941.84 557.52 941.85 557.53 941.86 557.53 941.87 557.54 941.89 557.53L1014.77 547.53 1033.18 545C1033.2 545 1033.21 544.99 1033.22 544.98 1033.23 544.97 1033.24 544.95 1033.24 544.93L1033.24 529.73Z" fill="#eeeeee" opacity="1" stroke-width="3" stroke="none"></path><path d="M1033.24 544.94C1033.24 544.95 1033.23 544.97 1033.22 544.98 1033.21 544.99 1033.2 545 1033.18 545.01 1025.99 546.13 1021.89 546.72 1014.77 547.54 1011.48 545.55 1007.83 543.49 1003.82 541.35 1006.66 540.13 1009.73 541.99 1010.29 542.33 1010.31 542.33 1010.33 542.33 1010.34 542.33 1010.36 542.31 1010.37 542.29 1010.38 542.27 1010.67 534.98 1018.74 532.05 1024.22 537.67 1024.22 537.68 1024.23 537.69 1024.25 537.69 1024.25 537.69 1024.26 537.69 1024.28 537.69 1024.29 537.68 1024.29 537.67 1024.31 537.66 1024.31 537.65 1024.31 537.64 1024.31 537.63 1024.59 534.1 1027.7 530.25 1033.17 529.67 1033.18 529.67 1033.19 529.67 1033.2 529.67 1033.21 529.67 1033.21 529.68 1033.22 529.69 1033.23 529.69 1033.24 529.71 1033.24 529.73V529.74C1033.46 536.43 1033.34 540.39 1033.24 544.94Z" fill="#ffffff" opacity="1" stroke-width="3" stroke="none"></path><path d="M967.3 504.45L941.64 516.63C935.13 514.71 928.25 512.87 920.99 511.1L927.61 499.49C937.03 495.08 956.17 499.05 967.3 504.45Z" fill="#e0e0e0" opacity="1" stroke-width="3" stroke="none"></path><path d="M913.44 464.85H839.23C837.12 464.85 835.41 466.67 835.41 468.92V551.61C835.41 553.86 837.12 555.69 839.23 555.69H913.44C915.54 555.69 917.25 553.86 917.25 551.61V468.92C917.25 466.67 915.54 464.85 913.44 464.85Z" fill="#ffffff" opacity="1" stroke-width="3" stroke="none"></path><path d="M917.31 468.86L917.25 510.17C891.95 503.76 865.17 492.91 838.95 477.72 837.75 477.03 836.58 476.33 835.41 475.64L835.35 468.86C835.35 468.32 835.45 467.79 835.64 467.3 835.83 466.8 836.11 466.35 836.47 465.98 836.82 465.6 837.24 465.3 837.7 465.09 838.17 464.89 838.67 464.79 839.17 464.79H913.5C914 464.78 914.5 464.89 914.96 465.09 915.42 465.3 915.84 465.6 916.2 465.98 916.55 466.35 916.83 466.8 917.02 467.3 917.21 467.79 917.31 468.32 917.31 468.86V468.86Z" fill="#ffffff" opacity="1" stroke-width="3" stroke="none"></path><path d="M913.66 476.48C913.67 476.48 913.68 476.48 913.69 476.48 913.69 476.49 913.7 476.49 913.7 476.49 913.71 476.5 913.72 476.51 913.72 476.52 913.72 476.53 913.72 476.53 913.72 476.55V513.48L847.5 536.95 838.95 518.08V476.55C838.95 476.53 838.96 476.51 838.96 476.49 838.98 476.49 839 476.48 839.01 476.48H913.66Z" fill="#c4c4c4" opacity="1" stroke-width="3" stroke="none"></path><path d="M913.72 513.48L902.5 507.35C901.59 506.64 900.47 506.28 899.34 506.32 898.21 506.38 897.13 506.83 896.27 507.62L888.04 513.56C887.09 514.42 885.87 514.88 884.62 514.84 883.37 514.81 882.18 514.27 881.28 513.35L869.6 500.31C868.76 499.44 867.66 498.91 866.5 498.81 865.33 498.72 864.17 499.06 863.22 499.78L838.95 518.08 838.94 518.09V544.67C838.94 544.67 838.94 544.67 838.94 544.67 838.94 544.67 838.95 544.68 838.95 544.68H913.71C913.71 544.68 913.71 544.67 913.72 544.67 913.72 544.67 913.72 544.67 913.72 544.67V513.48Z" fill="#f9f9f9" opacity="1" stroke-width="3" stroke="none"></path><path d="M913.72 476.42C913.74 476.42 913.75 476.42 913.76 476.43 913.78 476.44 913.78 476.46 913.78 476.48L913.72 509.24C889.48 502.75 863.95 492.22 838.95 477.72L838.94 476.54C838.94 476.52 838.95 476.5 838.96 476.49 838.97 476.48 838.98 476.47 839 476.47L913.72 476.42Z" fill="#e0e0e0" opacity="1" stroke-width="3" stroke="none"></path><path d="M1005.88 458.81L1009.1 460.35V546.77C1009.1 547.29 1008.9 547.81 1008.55 548.18 1008.2 548.56 1007.72 548.77 1007.22 548.77H955.23C945.12 548.77 950.03 529.82 948.01 508.61 944.84 475.36 933.74 469.23 955.35 467.1 982.13 464.59 995.88 460.79 1002.14 459.08 1003.32 458.76 1005.88 457.5 1005.88 458.81Z" fill="#efa15a" opacity="1" stroke-width="3" stroke="none"></path><path d="M1006.95 458.66L1009.1 460.35C1009.14 465.77 1009.12 511.57 1009.1 544.24 995.95 536.84 978.24 528.53 955.23 520.88 942.96 516.42 929.38 470.05 952.6 468.08 952.66 468.08 1004.08 458.06 1004.14 458.04 1005.32 457.72 1006.95 457.34 1006.95 458.66Z" fill="#efad71" opacity="1" stroke-width="3" stroke="none"></path><path d="M955.18 465.9V548.77H940.62C940.12 548.77 939.64 548.56 939.29 548.18 938.94 547.81 938.74 547.29 938.74 546.77V470.5C939.16 467.97 939.18 467.19 939.53 466.98 939.77 466.68 939.94 466.53 940.1 466.43 940.28 466.37 940.49 466.31 940.76 466.19 943.14 466.12 945.49 466.13 948.08 465.92 948.85 466.24 949.48 466.44 950.04 466.27 950.01 466.15 949.94 466.31 950.04 466.11 950.99 466.28 952.17 465.94 953.03 466.05 953.8 466.07 954.62 466.25 954.83 466Z" fill="#ea7352" opacity="1" stroke-width="3" stroke="none"></path><path d="M955.23 469.83V520.88C950.01 519.14 944.51 517.44 938.74 515.79 938.61 501.25 938.52 485.95 938.74 470.76 940.16 467.76 954.2 466.68 955.23 469.83Z" fill="#ec8265" opacity="1" stroke-width="3" stroke="none"></path><path d="M1009.1 457.71V460.35C993.69 466.06 970.97 468.68 955.23 469.87 947.47 470.46 941.4 470.67 938.74 470.76V467.65C938.74 467.13 938.93 466.64 939.26 466.28 939.42 466.09 939.61 465.94 939.83 465.84 940.05 465.73 940.28 465.66 940.53 465.65 943.1 465.51 945.61 465.34 948.06 465.16 948.67 465.11 949.28 465.07 949.88 465.01 949.92 465.01 949.96 465.01 950 465.01 951.02 464.92 952.03 464.84 953.03 464.75 953.77 464.69 954.5 464.62 955.23 464.55 982.01 462.04 1000.5 457.47 1006.76 455.77 1007.04 455.69 1007.33 455.69 1007.61 455.74 1007.89 455.81 1008.15 455.94 1008.38 456.13 1008.6 456.31 1008.78 456.55 1008.91 456.82 1009.03 457.1 1009.1 457.4 1009.1 457.71V457.71Z" fill="#ffffff" opacity="1" stroke-width="3" stroke="none"></path><path d="M964.26 481.61C965.12 481.61 965.83 480.77 965.83 479.73 965.83 478.68 965.12 477.84 964.26 477.84 963.39 477.84 962.68 478.68 962.68 479.73 962.68 480.77 963.39 481.61 964.26 481.61Z" fill="#ffffff" opacity="1" stroke-width="3" stroke="none"></path><path d="M964.26 493.56C965.12 493.56 965.83 492.71 965.83 491.67 965.83 490.62 965.12 489.78 964.26 489.78 963.39 489.78 962.68 490.62 962.68 491.67 962.68 492.71 963.39 493.56 964.26 493.56Z" fill="#ffffff" opacity="1" stroke-width="3" stroke="none"></path><path d="M964.26 506.18C965.12 506.18 965.83 505.33 965.83 504.29 965.83 503.25 965.12 502.41 964.26 502.41 963.39 502.41 962.68 503.25 962.68 504.29 962.68 505.33 963.39 506.18 964.26 506.18Z" fill="#ffffff" opacity="1" stroke-width="3" stroke="none"></path><path d="M974.66 477.84C981.52 477.35 988.34 476.29 995.06 474.7" stroke="#e66a48" stroke-width="3" stroke-linecap="round" opacity="1" fill="none"></path><path d="M974.66 491.04C981.52 490.55 988.34 489.5 995.06 487.9" stroke="#e66a48" stroke-width="3" stroke-linecap="round" opacity="1" fill="none"></path><path d="M974.66 504.03C981.49 503.67 988.31 502.9 995.06 501.73" stroke="#e66a48" stroke-width="3" stroke-linecap="round" opacity="1" fill="none"></path></g><g><path d="M691.42 625.66H641.84V976.9H691.42V625.66Z" fill="#f9f9f9" opacity="1" stroke-width="3" stroke="none"></path><path d="M691.42 625.59H677.85C677.8 625.59 677.76 625.62 677.76 625.66V976.9C677.76 976.95 677.8 976.98 677.85 976.98H691.42C691.47 976.98 691.51 976.95 691.51 976.9V625.66C691.51 625.62 691.47 625.59 691.42 625.59Z" fill="#d6d6d6" opacity="1" stroke-width="3" stroke="none"></path><path d="M699.68 975.32H634.47C627.1 975.32 622.82 977.14 620.61 979.33 618.4 981.51 614.86 984.54 617.51 985.88 620.16 987.21 621.05 986.73 627.25 986.73H708.68C710.9 986.73 710.31 984.66 708.1 981.15 705.88 977.63 702.04 975.32 699.68 975.32Z" fill="#f9f9f9" opacity="1" stroke-width="3" stroke="none"></path><path d="M664.54 986.73C664.08 986.2 663.87 985.55 663.92 984.91 663.96 984.26 664.29 983.64 664.82 983.17 665.18 982.82 665.54 982.42 665.93 982.01 668 979.78 670.83 976.73 676.91 975.27H699.68C701.98 975.27 705.86 977.51 708.13 981.12 709.9 983.92 710.47 985.57 709.92 986.3 709.78 986.46 709.6 986.59 709.38 986.67 709.16 986.75 708.92 986.78 708.68 986.76L664.54 986.73Z" fill="#d6d6d6" opacity="1" stroke-width="3" stroke="none"></path><path d="M664.1 985.95C663.9 985.47 663.87 984.97 663.99 984.47 664.12 983.98 664.41 983.53 664.82 983.17 665.18 982.82 665.54 982.42 665.93 982.01 668 979.78 670.83 976.73 676.91 975.27" stroke="#d6d6d6" stroke-width="3" stroke-linecap="round" stroke-linejoin="round" opacity="1" fill="none"></path><path d="M677.76 975.04V625.66" stroke="#d6d6d6" stroke-width="3" stroke-linecap="round" stroke-linejoin="round" opacity="1" fill="none"></path><path d="M612.35 620.81C612.35 620.81 617.06 628.57 624.15 628.57H704.4C712.65 628.57 717.97 620.81 717.97 620.81H612.35Z" fill="#f9f9f9" opacity="1" stroke-width="3" stroke="none"></path><path d="M1157.62 625.66H1108.05V976.9H1157.62V625.66Z" fill="#f9f9f9" opacity="1" stroke-width="3" stroke="none"></path><path d="M1121.62 625.59H1108.05C1108.01 625.59 1107.96 625.62 1107.96 625.66V976.9C1107.96 976.95 1108.01 976.98 1108.05 976.98H1121.62C1121.68 976.98 1121.71 976.95 1121.71 976.9V625.66C1121.71 625.62 1121.68 625.59 1121.62 625.59Z" fill="#d6d6d6" opacity="1" stroke-width="3" stroke="none"></path><path d="M1099.8 975.32H1165C1172.38 975.32 1176.66 977.14 1178.87 979.33 1181.07 981.51 1184.62 984.54 1181.97 985.88 1179.31 987.21 1178.43 986.73 1172.23 986.73H1090.79C1088.58 986.73 1089.17 984.66 1091.38 981.15 1093.6 977.63 1097.44 975.32 1099.8 975.32Z" fill="#f9f9f9" opacity="1" stroke-width="3" stroke="none"></path><path d="M1134.93 986.73C1135.39 986.2 1135.61 985.55 1135.56 984.91 1135.51 984.26 1135.18 983.64 1134.65 983.17 1134.29 982.82 1133.93 982.42 1133.54 982.01 1131.48 979.78 1128.64 976.73 1122.56 975.27H1099.8C1097.5 975.27 1093.62 977.51 1091.34 981.12 1089.58 983.92 1089.01 985.57 1089.55 986.3 1089.69 986.46 1089.87 986.59 1090.1 986.67 1090.31 986.75 1090.55 986.78 1090.78 986.76L1134.93 986.73Z" fill="#d6d6d6" opacity="1" stroke-width="3" stroke="none"></path><path d="M1135.38 985.95C1135.58 985.47 1135.61 984.97 1135.49 984.47 1135.35 983.98 1135.07 983.53 1134.65 983.17 1134.29 982.82 1133.93 982.42 1133.54 982.01 1131.48 979.78 1128.64 976.73 1122.56 975.27" stroke="#d6d6d6" stroke-width="3" stroke-linecap="round" stroke-linejoin="round" opacity="1" fill="none"></path><path d="M1121.72 975.04V625.66" stroke="#d6d6d6" stroke-width="3" stroke-linecap="round" stroke-linejoin="round" opacity="1" fill="none"></path><path d="M1187.12 620.81C1187.12 620.81 1182.41 628.57 1175.33 628.57H1095.08C1086.83 628.57 1081.5 620.81 1081.5 620.81H1187.12Z" fill="#f9f9f9" opacity="1" stroke-width="3" stroke="none"></path><path d="M1157.39 628.57H1108.04" stroke="#d6d6d6" stroke-width="3" stroke-linecap="round" stroke-linejoin="round" opacity="1" fill="none"></path><path d="M691.2 628.57H641.84" stroke="#d6d6d6" stroke-width="3" stroke-linecap="round" stroke-linejoin="round" opacity="1" fill="none"></path><path d="M1219.3 622.26H578.96C578.62 622.26 578.27 622.21 577.96 622.1 577.64 621.99 577.35 621.83 577.11 621.63 576.87 621.43 576.68 621.19 576.54 620.93 576.42 620.67 576.35 620.39 576.35 620.11V613.25C576.35 612.97 576.42 612.68 576.54 612.43 576.68 612.16 576.87 611.93 577.11 611.73 577.35 611.53 577.64 611.37 577.96 611.26 578.27 611.15 578.62 611.1 578.96 611.1H1219.3C1219.64 611.1 1219.99 611.15 1220.3 611.26 1220.62 611.37 1220.91 611.53 1221.15 611.73 1221.39 611.93 1221.59 612.16 1221.72 612.43 1221.85 612.68 1221.92 612.97 1221.92 613.25V620.11C1221.92 620.68 1221.64 621.22 1221.15 621.63 1220.66 622.03 1220 622.26 1219.3 622.26Z" fill="#f9f9f9" opacity="1" stroke-width="3" stroke="none"></path></g><g><path d="M517.43 776.04L477.15 985.59C476.85 987.18 475.92 988.58 474.6 989.51 473.26 990.43 471.62 990.79 470.02 990.52 468.43 990.24 467.01 989.35 466.05 988.04 465.11 986.73 464.71 985.1 464.95 983.5L496.48 776.57 517.43 776.04Z" fill="#efad71" opacity="1" stroke-width="3" stroke="none"></path><path d="M625.01 776.04L665.29 985.59C665.6 987.18 666.51 988.58 667.85 989.51 669.18 990.43 670.82 990.79 672.41 990.52 674.01 990.24 675.44 989.35 676.38 988.04 677.34 986.73 677.73 985.1 677.49 983.5L645.97 776.57 625.01 776.04Z" fill="#efad71" opacity="1" stroke-width="3" stroke="none"></path><path d="M649.94 802.73C649.96 802.73 649.97 802.72 649.99 802.71 650.01 802.7 650.01 802.69 650.01 802.68 650.02 802.67 650.02 802.65 650.02 802.64L646.04 776.55C646.04 776.53 646.03 776.52 646.01 776.5 646 776.49 645.98 776.48 645.96 776.48L625 775.96C625 775.96 624.99 775.96 624.97 775.97 624.96 775.97 624.95 775.98 624.95 775.98 624.94 775.99 624.93 776.01 624.93 776.02 624.92 776.03 624.92 776.04 624.93 776.06L628.63 795.33C628.63 795.34 628.64 795.35 628.65 795.36 628.66 795.38 628.67 795.38 628.68 795.38L649.91 802.72C649.92 802.73 649.93 802.73 649.94 802.73Z" fill="#ce7d34" opacity="1" stroke-width="3" stroke="none"></path><path d="M512.62 801.31C512.63 801.3 512.65 801.29 512.66 801.29 512.66 801.28 512.66 801.26 512.67 801.25L517.51 776.06C517.51 776.04 517.51 776.03 517.51 776.02 517.51 776.01 517.5 775.99 517.49 775.98 517.48 775.98 517.47 775.97 517.47 775.97 517.46 775.96 517.44 775.96 517.43 775.96L496.48 776.48C496.46 776.48 496.44 776.49 496.42 776.5 496.41 776.52 496.4 776.53 496.4 776.55L494.18 791.11C494.18 791.12 494.19 791.14 494.19 791.16 494.19 791.17 494.21 791.18 494.23 791.19L512.55 801.3C512.56 801.31 512.58 801.32 512.58 801.32 512.6 801.32 512.62 801.31 512.62 801.31V801.31Z" fill="#ce7d34" opacity="1" stroke-width="3" stroke="none"></path><path d="M661.5 782.33H481.8C479.47 782.33 477.25 781.41 475.6 779.76 473.96 778.12 473.04 775.89 473.04 773.57 473.04 771.24 473.96 769.02 475.6 767.37 477.25 765.73 479.47 764.8 481.8 764.8H661.5C663.82 764.8 666.05 765.73 667.69 767.37 669.34 769.02 670.26 771.24 670.26 773.57 670.26 775.89 669.34 778.12 667.69 779.76 666.05 781.41 663.82 782.33 661.5 782.33V782.33Z" fill="#efad71" opacity="1" stroke-width="3" stroke="none"></path><path d="M509.86 994.12C509.86 994.12 560.65 994.66 563.75 994.66 566.84 994.66 567.48 993.2 568.34 991.48 569.44 989.26 568.51 985.28 568.51 985.28H655.62C656.65 980.81 654.24 979.43 649.08 977.02 643.91 974.61 620.49 957.74 615.67 954.98 610.86 952.22 606.38 943.62 606.73 941.55 607.07 939.48 608.1 932.6 609.82 929.16 611.43 925.94 642.95 881.95 647.15 876.09L647.61 875.45C668.43 845.54 587.41 831.84 578.96 866.69L583.35 887.16C583.35 887.16 566.22 943.09 565.4 945 564.37 947.41 557.14 973.23 557.14 973.23 557.14 973.23 552.32 965.66 551.98 961.87 551.63 958.08 553.35 953.95 553.35 950.5 553.35 947.06 553.35 935.7 555.07 932.94 556.32 930.94 570.12 903.5 577.58 888.62L578.22 887.33 581.08 881.03 558.42 868.82C551.95 867.64 527.43 868.48 526.08 878.12 525.72 880.69 525.33 883.48 524.9 886.58 522.41 904.58 519 929.2 518.57 931.58 517.89 935.37 517.89 940.53 515.48 948.8 513.07 957.06 513.41 959.81 513.76 964.63 514.1 969.45 512.73 973.93 512.38 976.34 512.03 978.75 509.86 994.12 509.86 994.12Z" fill="#e88e6d" opacity="1" stroke-width="3" stroke="none"></path><path d="M648.15 875.15L643.05 881.82 588.19 880.94C552.79 813.81 657.27 862.83 648.15 875.15Z" fill="#9d583f" opacity="1" stroke-width="3" stroke="none"></path><path d="M577.58 888.62C569.3 889.53 560.96 889.72 552.66 889.22 542.82 888.44 530.44 887.21 524.9 886.58 524.9 886.58 525.3 879.29 525.66 876.67 536.25 870.15 577.72 874.1 579.81 884.51L577.58 888.62Z" fill="#9d583f" opacity="1" stroke-width="3" stroke="none"></path><path d="M587.07 875.1C584.07 884.89 583.47 886.79 583.35 887.16 584.78 887.12 585.64 887.08 585.64 887.08 588.33 887.49 589.58 886.88 589 884.23 588.19 881.22 587.55 878.17 587.07 875.1V875.1Z" fill="#e88e6d" opacity="1" stroke-width="3" stroke="none"></path><path d="M526.08 878.11C534.74 881.27 552.83 885.12 559.3 886.3 563.96 887.15 571.4 887.3 577.18 887.26 560.81 886.12 526.24 878.03 526.24 878.03 526.24 878.03 526.2 877.88 526.14 877.63 526.12 877.79 526.1 877.95 526.08 878.11Z" fill="#e88e6d" opacity="1" stroke-width="3" stroke="none"></path><path d="M483.83 762.86C485.54 764.52 487.82 765.44 490.2 765.43H529.43C530.63 765.43 531.82 765.67 532.93 766.13 534.04 766.59 535.05 767.26 535.9 768.12L536.12 768.34C537.14 769.36 537.91 770.61 538.35 771.98 538.8 773.35 538.91 774.81 538.69 776.23 536.01 793.3 526.76 852.34 526.76 857.64 526.76 863.84 520.56 872.36 521.34 875.45 521.52 876.2 523.33 877.12 526.08 878.11 534.74 881.27 552.83 885.12 559.3 886.3 563.96 887.15 571.4 887.3 577.18 887.26H577.24C579.69 887.25 581.84 887.2 583.35 887.16 584.78 887.12 585.64 887.08 585.64 887.08 588.24 887 589.58 886.88 589 884.23 588.19 881.22 587.55 878.17 587.07 875.1 586.99 874.53 586.94 873.96 586.93 873.38 586.93 870.71 586.93 868.04 591.24 861.39 591.45 861.06 591.67 860.73 591.9 860.39L591.92 860.36C591.92 860.34 591.94 860.34 591.96 860.33 591.97 860.32 591.99 860.32 592.01 860.33L647.61 875.45 652.06 876.69C656.45 877.27 660.22 873.94 661.57 869.72L665.84 856.43C666.08 855.69 666.41 854.99 666.83 854.33 670.39 848.72 688.47 819.93 700.29 794.88 713.46 766.99 711.92 756.92 708.81 748.4 705.71 739.88 697.97 729.03 680.93 716.64 663.89 704.25 643.74 691.07 639.87 687.2 637.15 684.48 632.53 667.68 630.01 657.87 629.5 655.86 628.32 654.09 626.66 652.84 625 651.58 622.97 650.94 620.9 650.99L495.24 654.52C493.68 654.56 492.16 655 490.81 655.8 489.48 656.6 488.36 657.72 487.58 659.07 484.69 664.06 482.14 669.24 479.94 674.57 476.57 682.68 473.84 691.05 471.76 699.58 465.26 726.29 471.1 750.31 483.83 762.86Z" fill="#97607a" opacity="1" stroke-width="3" stroke="none"></path><path d="M490.35 654.66L628.24 650.78C628.24 650.78 630.55 660.44 633.26 669.85 610.1 699.25 573.07 691.91 547.16 670.92L529.6 663.18 479.93 674.57C484.58 659.86 490.35 654.66 490.35 654.66Z" fill="#585858" opacity="1" stroke-width="3" stroke="none"></path><path d="M623.08 707.08L611.72 722.06" stroke="#585858" stroke-width="3" stroke-linecap="round" stroke-linejoin="round" opacity="1" fill="none"></path><path d="M599.32 706.04L566.27 689" stroke="#585858" stroke-width="3" stroke-linecap="round" stroke-linejoin="round" opacity="1" fill="none"></path><path d="M590.54 664.73L592.09 687.97" stroke="#585858" stroke-width="3" stroke-linecap="round" stroke-linejoin="round" opacity="1" fill="none"></path><path d="M589 884.23C589 884.23 586.93 876.49 586.93 873.38 586.93 870.57 586.93 867.76 591.95 860.31 592.46 859.55 593.02 858.74 593.65 857.89 600.36 848.59 630.32 795.4 632.38 787.65 634.44 779.9 637.55 764.93 631.87 753.56 626.18 742.19 607.07 717.41 607.07 717.41" stroke="#585858" stroke-width="3" stroke-linecap="round" stroke-linejoin="round" opacity="1" fill="none"></path><path d="M554.03 335.88C554.03 335.88 543.05 333.5 534.75 337.95 526.45 342.41 523.47 355.75 522.88 359.91 522.29 364.06 511.31 368.22 508.05 382.16 504.78 396.09 508.94 404.4 508.64 407.08 508.34 409.75 501.52 419.53 504.78 430.21 508.05 440.89 515.16 443.56 516.35 445.35 517.54 447.13 509.83 464.33 525.25 475.9 540.67 487.47 635.61 477.09 635.61 477.09 635.61 477.09 645.7 468.19 647.77 459.59 649.85 450.99 646 443.87 647.48 441.49 648.96 439.11 656.67 429.32 655.19 413.31 653.7 397.3 636.2 378.9 635.31 377.12 634.42 375.34 639.17 363.77 631.15 355.46 623.14 347.15 607.42 343.6 604.16 340.63 600.89 337.66 595.26 325.21 579.53 324.91 563.81 324.61 554.03 335.88 554.03 335.88Z" fill="#b9b2a8" opacity="1" stroke-width="3" stroke="none"></path><path d="M525.38 475.98C525.37 475.97 525.36 475.97 525.36 475.96 525.36 475.95 525.35 475.94 525.35 475.93 524.77 472.17 523.34 459.96 528.07 452.01 533.45 442.95 530.45 439.44 530.17 439.13 530.16 439.12 530.15 439.1 530.15 439.08L529.86 430.88C529.86 430.86 529.86 430.84 529.87 430.82 529.89 430.8 529.91 430.79 529.93 430.79L616.54 413.91C616.55 413.9 616.56 413.9 616.57 413.91 616.58 413.91 616.59 413.91 616.6 413.92 616.6 413.92 616.61 413.93 616.62 413.94 616.63 413.95 616.63 413.96 616.64 413.97 616.88 415.27 620.18 431.81 631.41 435.83 631.42 435.83 631.43 435.84 631.44 435.86 631.45 435.86 631.45 435.88 631.45 435.9 631.51 436.49 631.9 442.03 626.71 443.86 621.22 445.79 643.47 452.01 641.69 466.99 641.5 468.59 641.32 469.99 641.14 471.25 641.14 471.27 641.13 471.29 641.12 471.29 639.42 473.34 637.59 475.26 635.63 477.07 635.61 477.07 635.59 477.08 635.58 477.08 634.95 477.15 622.97 478.45 607.05 479.6H607.04L527.42 477.14C527.41 477.14 527.39 477.13 527.38 477.13 526.68 476.81 526.01 476.43 525.38 475.98V475.98Z" fill="#86765f" opacity="1" stroke-width="3" stroke="none"></path><path d="M530.63 466.66C521.6 467.96 509.46 469.76 500.93 484.74 492.41 499.72 493.19 524.77 493.19 535.09 493.19 545.41 487.51 566.59 488.28 569.18 489.06 571.77 503.78 574.34 503.78 574.34L500.94 596.55C500.94 596.55 488.03 621.6 480.8 636.32 474.16 649.83 482.37 662.04 483.76 663.95 483.81 664.03 483.89 664.1 483.98 664.15 484.07 664.19 484.17 664.22 484.27 664.22 487.91 664.32 522.2 665.25 523.67 665.5 525.21 665.76 559.82 679.45 578.15 680.48 596.48 681.52 632.63 670.67 632.63 670.67 632.63 670.67 646.32 658.28 647.35 647.95 648.39 637.62 650.97 579.26 650.97 579.26 650.97 579.26 676.79 577.92 677.05 576.67 677.3 575.64 674.47 544.91 674.47 544.14 674.47 543.36 671.37 504.11 669.04 492.75 666.71 481.39 659.23 471.32 646.84 466.15 634.44 460.99 589.51 452.98 589.51 452.98L530.63 466.66Z" fill="#2a2c45" opacity="1" stroke-width="3" stroke="none"></path><path d="M489.13 570.12C486.47 566.42 497.05 559.37 497.05 559.37L523.65 578.99C525.44 578.99 493.97 574.19 489.13 570.12Z" fill="#1c1e32" opacity="1" stroke-width="3" stroke="none"></path><path d="M535.4 512.48L523.66 482.93" stroke="#1c1e32" stroke-width="3" stroke-linecap="round" stroke-linejoin="round" opacity="1" fill="none"></path><path d="M655.65 575.64C668.79 575.4 675.82 576.45 676.91 576.65 676.92 576.65 676.93 576.66 676.95 576.67 676.96 576.68 676.96 576.7 676.97 576.7 676.97 576.72 676.97 576.74 676.97 576.75 676.96 576.77 676.96 576.78 676.95 576.79 671.66 580.77 650.96 579.25 650.96 579.25 650.8 583.31 645.5 575.82 655.65 575.64Z" fill="#161928" opacity="1" stroke-width="3" stroke="none"></path><path d="M652.02 576.16C653.2 575.81 654.42 575.63 655.65 575.64 668.8 575.4 675.82 576.45 676.91 576.65" stroke="#1c1e32" stroke-width="3" stroke-linecap="round" stroke-linejoin="round" opacity="1" fill="none"></path><path d="M622.63 439.26C626.85 440.37 627.97 442.82 628.41 443.93 629.09 446.19 629.62 448.49 629.97 450.83 629.97 451.49 634.42 457.95 635.32 461.95 636.22 465.95 634.43 469.73 631.76 473.52 627.65 479.13 623.19 484.49 618.41 489.54 616.29 491.8 613.52 493.35 610.48 493.97 610.46 493.98 610.44 493.98 610.43 494 610.42 494.02 610.41 494.04 610.41 494.07 610.58 495.28 612.64 509.82 613.07 515.79 613.52 522.01 600.17 594.77 599.5 599.67 599.09 602.61 598.03 605.43 596.39 607.9L548.77 603C547.59 600.81 546.98 598.36 547 595.88 547 591.65 560.34 524.9 561.46 520.01 562.57 515.11 566.8 492.42 566.8 492.42 566.8 492.42 551.01 484.63 546.11 479.73 541.21 474.83 535.2 466.61 535.2 466.61 535.2 466.61 535.2 465.05 536.76 459.71 538.32 454.37 540.76 452.81 540.76 452.81 540.76 452.81 540.99 446.14 543.88 443.91 546.76 441.69 571.68 437.02 584.15 436.79 596.61 436.57 618.41 438.15 622.63 439.26Z" fill="#97607a" opacity="1" stroke-width="3" stroke="none"></path><path d="M586.9 457.88H586.93C588.42 457.75 591.71 459.44 591.67 459.55 591.67 459.56 591.67 459.56 591.68 459.56 592.61 459.9 593.53 460.29 594.44 460.72 595.92 461.42 597.34 462.24 598.7 463.16 598.71 463.17 598.72 463.17 598.73 463.17 598.75 463.18 598.76 463.17 598.77 463.17 598.99 463.1 600.47 462.53 609.39 458.4 618.14 453.94 624.47 441.3 627.32 434.58 627.32 434.56 627.33 434.55 627.33 434.54 627.33 434.53 627.32 434.51 627.32 434.51 627.32 434.49 627.31 434.48 627.29 434.47 627.28 434.46 627.27 434.46 627.26 434.46 623.57 433.9 616.98 433.29 609.69 432.82 609.67 432.82 609.64 432.83 609.63 432.85 602.33 440.17 584.86 457.88 586.9 457.88Z" fill="#564a50" opacity="1" stroke-width="3" stroke="none"></path><path d="M585.91 459.06H585.92C587.89 459.08 589.76 458.89 591.63 459.47 591.64 459.48 591.66 459.48 591.67 459.5 591.67 459.52 591.68 459.53 591.68 459.55V459.56 459.56C592.61 459.9 593.53 460.29 594.43 460.72 595.93 461.43 597.36 462.26 598.72 463.18L598.73 463.19C598.73 463.19 598.74 463.19 598.74 463.19 598.74 463.19 598.75 463.19 598.75 463.19L598.76 463.18 598.77 463.17C598.92 463.08 601.68 461.34 605.28 459.51 612.8 455.67 618.25 444.79 620.72 439 620.72 438.99 620.72 438.98 620.72 438.97 620.72 438.95 620.72 438.94 620.71 438.93 620.7 438.92 620.69 438.91 620.69 438.9 620.68 438.89 620.66 438.89 620.65 438.89 617.47 438.4 611.8 437.88 605.53 437.48 605.52 437.48 605.51 437.48 605.5 437.48 605.49 437.49 605.47 437.5 605.46 437.5 599.15 443.83 583.99 459.22 585.91 459.06Z" fill="#3f3f3f" opacity="1" stroke-width="3" stroke="none"></path><path d="M520.8 420.58C521.69 429.93 528.07 436.31 530.45 437.64 532.68 438.89 538.34 437.79 538.98 437.65 539 437.65 539.03 437.65 539.04 437.66 539.06 437.67 539.07 437.68 539.07 437.7 539.41 438.38 542.64 445.05 545.87 450.54 549.28 456.33 563.07 458.41 565.45 459 567.83 459.59 573.02 464.04 582.81 463.74 592.6 463.44 599.42 454.84 601.05 454.1 602.68 453.36 612.03 450.39 617.22 443.57 622.15 437.08 621.46 423.49 621.38 422.16 621.38 422.15 621.38 422.14 621.38 422.12 621.39 422.11 621.4 422.1 621.41 422.1 621.41 422.09 621.42 422.08 621.44 422.08 621.45 422.07 621.46 422.07 621.47 422.07 622.89 422.17 624.32 422.01 625.67 421.61 628.93 420.87 631.75 412.56 631.75 405.15 631.75 397.73 630.56 390.6 626.41 387.49 624.15 385.92 621.47 385.04 618.72 384.94 618.7 384.94 618.68 384.95 618.67 384.97 618.65 384.98 618.64 385.01 618.64 385.02 618.63 386.05 618.56 386.8 618.53 387.68 618.5 390.35 618.18 393.02 617.59 395.63 617.59 395.65 617.58 395.66 617.57 395.67 617.55 395.69 617.53 395.7 617.52 395.7 617.5 395.7 617.49 395.69 617.47 395.68 617.45 395.67 617.44 395.65 617.44 395.64L615.03 388.99C615.01 388.95 614.99 388.88 614.97 388.84L612.64 382.79C612.64 382.78 612.63 382.77 612.62 382.76 612.6 382.75 612.59 382.75 612.57 382.75 593.31 382.27 588.51 363.04 588.38 362.5 588.38 362.5 588.37 362.49 588.37 362.49 587.38 360.82 586.13 359.34 584.66 358.09 578.5 352.8 569.25 351.48 567.68 357.37V357.39C567.27 365.63 564.3 371.21 560.43 374.95 551.65 383.41 538.1 382.53 538.11 382.53 529.43 395.44 530.55 401.22 530.55 401.89 530.55 402.5 533.02 413.38 533.39 415.02 533.39 415.04 533.39 415.06 533.38 415.07 533.38 415.09 533.37 415.1 533.36 415.11 533.34 415.12 533.33 415.12 533.31 415.12 533.29 415.12 533.28 415.11 533.26 415.1 531.4 413.75 529.3 411.02 527.25 407.84 527.24 407.83 527.23 407.81 527.21 407.8 527.2 407.8 527.18 407.8 527.17 407.8 526.47 407.93 525.6 408.08 524.67 408.27 522.44 408.72 519.92 411.24 520.8 420.58Z" fill="#e88e6d" opacity="1" stroke-width="3" stroke="none"></path><path d="M514.1 438C514.1 438 509.97 443.16 509.97 446.78 509.97 450.39 513.33 459.43 517.46 458.14 521.59 456.86 517.2 444.71 517.2 444.71L514.1 438Z" fill="#9d583f" opacity="1" stroke-width="3" stroke="none"></path><path d="M497.05 559.37C502.1 555.83 507.81 553.38 513.84 552.14 523.4 550.34 528.31 549.81 528.31 549.81 528.31 549.81 536.31 497.91 536.57 495.33 536.83 492.75 520.55 466.92 519.01 464.08 517.47 461.25 514.36 449.1 513.07 443.16 511.78 437.22 509.97 432.83 517.2 430.25 528.36 426.86 530.89 433.35 530.89 433.35 530.89 433.35 535.53 435.16 537.09 435.93 538.64 436.7 575.56 458.39 581.25 461.24 586.93 464.08 587.71 470.28 590.28 474.92 592.83 479.51 632.12 572.17 633.13 574.55 633.14 574.57 633.14 574.58 633.16 574.59 633.17 574.6 633.18 574.6 633.2 574.6 634.36 574.66 655.03 575.65 661.56 575.9 667.56 576.13 668.61 576.98 668.76 577.16 668.77 577.17 668.78 577.17 668.78 577.19 668.78 577.2 668.78 577.21 668.78 577.22 668.56 578.69 660.89 630.07 650.97 643.82 640.9 657.76 629.02 659.31 625.4 658.28 621.78 657.24 606.55 648.2 597.25 640.2 592.04 635.83 587.63 630.59 584.22 624.71 584.21 624.69 584.2 624.67 584.18 624.67 584.16 624.66 584.15 624.66 584.13 624.67 584.12 624.67 584.1 624.67 584.08 624.69 584.08 624.71 584.07 624.72 584.07 624.74 583.95 626.69 583.12 638.02 578.66 647.43 573.75 657.76 563.68 666.54 553.61 666.54 543.54 666.54 538.11 663.96 531.92 658.28 525.73 652.59 517.98 634.26 512.29 615.15 506.61 596.04 497.05 559.37 497.05 559.37Z" fill="#e88e6d" opacity="1" stroke-width="3" stroke="none"></path><path d="M535.57 386.54C550.33 389.37 557.23 382.25 560.42 374.94 551.69 382.83 538.09 382.53 538.1 382.53 537.09 383.74 536.23 385.09 535.57 386.54V386.54Z" fill="#9d583f" opacity="1" stroke-width="3" stroke="none"></path><path d="M618.62 387.76C619.95 387.16 621.23 386.45 622.43 385.61 622.44 385.61 622.45 385.59 622.46 385.58 622.46 385.57 622.46 385.55 622.46 385.53 622.46 385.52 622.46 385.51 622.44 385.49 622.43 385.49 622.42 385.48 622.41 385.47 621.18 385.13 619.91 384.93 618.63 384.87H618.63C618.61 384.87 618.59 384.88 618.58 384.9 618.57 384.9 618.56 384.91 618.56 384.92 618.55 384.93 618.55 384.94 618.55 384.95 618.55 385.94 618.54 386.84 618.5 387.68 618.5 387.69 618.5 387.71 618.51 387.72 618.52 387.73 618.53 387.74 618.54 387.75 618.55 387.76 618.57 387.77 618.58 387.77 618.59 387.77 618.61 387.76 618.62 387.76V387.76Z" fill="#9d583f" opacity="1" stroke-width="3" stroke="none"></path><path d="M611.29 389.38C612.51 389.38 613.73 389.24 614.93 388.98 614.94 388.97 614.96 388.97 614.96 388.96 614.97 388.95 614.98 388.95 614.98 388.94 614.99 388.92 615 388.91 615 388.9 615 388.89 615 388.88 614.99 388.86L612.69 382.71C612.68 382.7 612.68 382.69 612.66 382.68 612.65 382.66 612.64 382.66 612.62 382.66 593.33 382.23 588.49 362.67 588.44 362.47 587.45 360.8 586.19 359.29 584.7 358.03 584.68 358.02 584.67 358.01 584.65 358.01 584.63 358.01 584.62 358.02 584.6 358.03 584.58 358.03 584.58 358.05 584.57 358.07 584.56 358.08 584.56 358.1 584.57 358.11 584.82 358.88 585.09 359.68 585.39 360.52 590.09 373.68 598.39 389.38 611.29 389.38Z" fill="#9d583f" opacity="1" stroke-width="3" stroke="none"></path><path d="M611.73 398.54C611.07 407.42 603.95 409.45 597.49 411.22 591.03 413 582.14 410.78 579.91 404.77 577.69 398.77 576.13 392.98 580.58 388.98 585.04 384.98 595.05 382.08 603.06 382.53 611.07 382.97 612.17 392.53 611.73 398.54Z" stroke="#d7d7d7" stroke-width="3" stroke-linecap="round" stroke-linejoin="round" opacity="1" fill="none"></path><path d="M539.27 415.87C544 423.41 551.25 421.87 557.78 420.43 564.31 418.99 571.14 412.87 570.3 406.51 569.46 400.16 568.13 394.32 562.33 392.86 556.53 391.39 546.32 393.52 539.45 397.65 532.58 401.79 536.07 410.77 539.27 415.87Z" stroke="#d7d7d7" stroke-width="3" stroke-linecap="round" stroke-linejoin="round" opacity="1" fill="none"></path><path d="M569.68 401.22C569.68 401.22 573.46 398.77 577.46 398.99" stroke="#d7d7d7" stroke-width="3" stroke-linecap="round" stroke-linejoin="round" opacity="1" fill="none"></path><path d="M559.52 380.37C560.04 379.84 562.93 385.11 562.34 385.71 559.97 387.92 557.12 389.54 554.03 390.46 549.87 391.49 544.38 392.39 544.24 391.35 544.09 390.3 554.17 385.71 559.52 380.37Z" fill="#b9b2a8" opacity="1" stroke-width="3" stroke="none"></path><path d="M576.27 377.7C575.55 377.51 575.68 383.51 576.49 383.73 579.64 384.46 582.91 384.44 586.06 383.7 590.17 382.53 595.38 380.55 594.98 379.58 594.59 378.61 583.56 379.66 576.27 377.7Z" fill="#b9b2a8" opacity="1" stroke-width="3" stroke="none"></path><path d="M596.6 396.39C594.12 395.34 591.37 395.08 588.73 395.65 586.46 396.16 584.49 397.54 583.24 399.5" stroke="#9d583f" stroke-width="3" stroke-linecap="round" stroke-linejoin="round" opacity="1" fill="none"></path><path d="M563.67 403.66C563.67 403.66 559.82 401.73 556.7 402.18 553.59 402.63 550.18 407.22 550.18 407.22" stroke="#9d583f" stroke-width="3" stroke-linecap="round" stroke-linejoin="round" opacity="1" fill="none"></path><path d="M545.43 407.67L540.23 407.96" stroke="#9d583f" stroke-width="3" stroke-linecap="round" stroke-linejoin="round" opacity="1" fill="none"></path><path d="M544.09 412.27L542.46 413.6" stroke="#9d583f" stroke-width="3" stroke-linecap="round" stroke-linejoin="round" opacity="1" fill="none"></path><path d="M605.5 392.53L601.79 394.61" stroke="#9d583f" stroke-width="3" stroke-linecap="round" stroke-linejoin="round" opacity="1" fill="none"></path><path d="M603.57 398.77L607.72 398.02" stroke="#9d583f" stroke-width="3" stroke-linecap="round" stroke-linejoin="round" opacity="1" fill="none"></path><path d="M586.66 418.2C584.73 420.41 582.12 421.91 579.25 422.5 574.5 423.54 574.35 422.2 572.28 421.61" stroke="#9d583f" stroke-width="3" stroke-linecap="round" stroke-linejoin="round" opacity="1" fill="none"></path><path d="M600.45 423.39C600.45 423.39 594.37 422.06 591.41 418.49" stroke="#9d583f" stroke-width="3" stroke-linecap="round" stroke-linejoin="round" opacity="1" fill="none"></path><path d="M567.08 423.54C567.08 423.54 565.75 429.91 563.23 433.03" stroke="#9d583f" stroke-width="3" stroke-linecap="round" stroke-linejoin="round" opacity="1" fill="none"></path><path d="M593.19 430.8C591.25 433.85 588.23 436.06 584.73 436.95 580.82 437.92 576.7 437.58 573.01 435.99" stroke="#9d583f" stroke-width="3" stroke-linecap="round" stroke-linejoin="round" opacity="1" fill="none"></path><path d="M600.31 431.85L599.72 440.75" stroke="#9d583f" stroke-width="3" stroke-linecap="round" stroke-linejoin="round" opacity="1" fill="none"></path><path d="M566.64 442.22C566.64 442.22 567.67 445.05 568.42 447.71" stroke="#9d583f" stroke-width="3" stroke-linecap="round" stroke-linejoin="round" opacity="1" fill="none"></path><path d="M626.12 394.91L622.12 401.59C622.12 401.59 625.23 408.27 621.23 412.12L621.27 418.98" stroke="#9d583f" stroke-width="3" stroke-linecap="round" stroke-linejoin="round" opacity="1" fill="none"></path><path d="M525.25 415.08L532.66 421.9C532.68 423.34 533.12 424.75 533.95 425.94 534.77 427.12 535.92 428.05 537.26 428.58L538.3 432.81" stroke="#9d583f" stroke-width="3" stroke-linecap="round" stroke-linejoin="round" opacity="1" fill="none"></path><path d="M578.06 353.08C586.44 354.15 588.45 362.47 588.45 362.47 580.37 355.81 575.44 354.46 567.67 357.38 567.23 353.23 569.82 352.03 578.06 353.08Z" fill="#86765f" opacity="1" stroke-width="3" stroke="none"></path><path d="M527.14 380.59C527.13 380.57 527.13 380.55 527.13 380.54 527.13 380.52 527.14 380.51 527.15 380.49 527.17 380.48 527.18 380.47 527.2 380.47 527.21 380.47 527.23 380.47 527.25 380.47 531.97 382.74 538.1 382.53 538.1 382.53 537.14 383.95 536.31 385.28 535.57 386.54 533.81 386.25 532.13 385.56 530.67 384.53 529.21 383.5 528.01 382.15 527.14 380.59V380.59Z" fill="#86765f" opacity="1" stroke-width="3" stroke="none"></path><path d="M513.32 417.5C511.73 415.44 510.57 413.09 509.88 410.59" stroke="#86765f" stroke-width="3" stroke-linecap="round" stroke-linejoin="round" opacity="1" fill="none"></path><path d="M629.09 379.19C629.09 379.19 622.86 383.19 612.62 382.75" stroke="#86765f" stroke-width="3" stroke-linecap="round" stroke-linejoin="round" opacity="1" fill="none"></path><path d="M610.4 493.98C610.4 493.98 609.72 479.53 606.83 472.85 605.15 468.9 602.33 465.54 598.74 463.19 598.74 463.19 598.74 463.19 598.74 463.19 598.73 463.19 598.73 463.19 598.73 463.19 598.72 463.18 598.71 463.17 598.7 463.16 597.42 462.3 596.09 461.52 594.71 460.85" stroke="#3f3f3f" stroke-width="3" stroke-linecap="round" stroke-linejoin="round" opacity="1" fill="none"></path><path d="M629.53 454.16L628.64 464.4" stroke="#3f3f3f" stroke-width="3" stroke-linecap="round" stroke-linejoin="round" opacity="1" fill="none"></path><path d="M530.89 433.35L522.89 440.33C522.89 440.33 532.19 452.98 532.96 455.3 533.74 457.63 545.87 479.32 553.11 483.71 560.34 488.1 561.37 490.69 561.37 490.69 561.37 490.69 576.09 590.88 577.64 599.15 579.19 607.41 584.08 624.45 584.08 624.45" stroke="#9d583f" stroke-width="3" stroke-linecap="round" stroke-linejoin="round" opacity="1" fill="none"></path><path d="M528.31 549.81L521.34 596.55" stroke="#9d583f" stroke-width="3" stroke-linecap="round" stroke-linejoin="round" opacity="1" fill="none"></path><path d="M645.29 599.99L633.15 574.6" stroke="#9d583f" stroke-width="3" stroke-linecap="round" stroke-linejoin="round" opacity="1" fill="none"></path><path d="M539.67 952.66C550.29 952.66 552.58 958.34 553.62 959.64 554.65 960.93 556.71 967.9 556.97 968.93 557.23 969.97 565.23 977.45 566.27 978.75 567.1 979.79 567.33 982.61 567.38 983.66 567.38 983.69 567.37 983.7 567.37 983.72 567.35 983.73 567.33 983.74 567.32 983.75 567.3 983.75 567.29 983.75 567.27 983.74 567.25 983.73 567.24 983.72 567.23 983.7 566.62 982.46 564.49 978.45 561.88 978.23 558.78 977.97 546.64 976.42 541.99 976.16 537.34 975.9 533.99 977.71 527.53 980.29 521.07 982.87 520.81 983.39 517.2 985.46 513.88 987.36 512.01 992.29 511.73 993.09 511.73 993.1 511.73 993.12 511.73 993.13 511.73 993.14 511.73 993.15 511.74 993.17 511.75 993.18 511.76 993.18 511.78 993.19 511.78 993.2 511.8 993.2 511.81 993.2H563.69C566.99 993.2 567.92 991.94 568.12 991.58 568.13 991.57 568.13 991.56 568.14 991.55 568.15 991.54 568.17 991.53 568.17 991.53 568.19 991.53 568.2 991.53 568.22 991.53 568.22 991.54 568.24 991.55 568.25 991.56L569.86 993.18C569.87 993.18 569.87 993.19 569.88 993.2 569.88 993.21 569.89 993.22 569.89 993.23 569.89 993.61 569.86 997.11 569.37 997.85 568.85 998.62 563.43 1002.24 553.87 1002.24 544.32 1002.24 517.47 999.91 513.84 998.37 512.08 997.62 510.51 996.47 509.27 995.03 508.89 994.57 508.7 993.99 508.73 993.4 508.86 991.2 509.2 985.27 509.2 983.39 509.2 981.06 513.59 968.41 517.98 964.02 522.36 959.63 530.89 952.66 539.67 952.66Z" fill="#efad71" opacity="1" stroke-width="3" stroke="none"></path><path d="M568.16 991.48C568.85 989.93 568.68 989.41 568.33 987 568.09 985.9 567.74 984.84 567.28 983.81 567.27 983.81 567.27 983.79 567.27 983.78 567.27 983.77 567.28 983.75 567.29 983.74 567.29 983.73 567.3 983.73 567.31 983.72 567.33 983.71 567.33 983.71 567.35 983.71L593.29 983.74C593.31 983.74 593.32 983.73 593.33 983.73 593.35 983.72 593.36 983.71 593.36 983.69 593.77 982.9 599.47 971.58 603.62 964.45 606.13 960.09 609.07 956 612.39 952.23L612.41 952.22C612.55 952.12 614.67 950.68 615.67 950.85 616.59 951 630.14 962.9 631.17 963.76 632.21 964.62 639.95 968.24 640.64 969.09 641.28 969.89 641.17 972.21 641.15 972.51 641.15 972.52 641.15 972.55 641.13 972.56 639.3 974.35 637.63 976.3 636.16 978.39V978.39C634.77 980.35 633.73 982.52 633.09 984.83 633.09 984.84 633.09 984.86 633.09 984.87 633.09 984.88 633.09 984.89 633.1 984.9 633.11 984.91 633.12 984.91 633.13 984.92 633.14 984.93 633.15 984.93 633.17 984.93H655.62C658.2 984.93 658.89 985.79 659.23 986.3 659.58 986.82 658.88 990.44 658.37 990.95 657.86 991.47 657.52 992.33 656.13 992.33H567.61C567.59 992.33 567.58 992.32 567.57 992.31 567.55 992.3 567.54 992.29 567.54 992.27 567.53 992.26 567.53 992.25 567.54 992.23 567.54 992.21 567.54 992.2 567.56 992.18 567.8 992 568.01 991.75 568.16 991.48V991.48Z" fill="#efad71" opacity="1" stroke-width="3" stroke="none"></path><path d="M528.56 763.37L520.3 758.21" stroke="#585858" stroke-width="3" stroke-linecap="round" stroke-linejoin="round" opacity="1" fill="none"></path><path d="M538.9 760.79L530.63 745.82" stroke="#585858" stroke-width="3" stroke-linecap="round" stroke-linejoin="round" opacity="1" fill="none"></path><path d="M631.86 513.4C631.86 513.4 622.3 522.7 617.66 531.99" stroke="#1c1e32" stroke-width="3" stroke-linecap="round" stroke-linejoin="round" opacity="1" fill="none"></path><path d="M629.28 536.12L621.02 539.49" stroke="#1c1e32" stroke-width="3" stroke-linecap="round" stroke-linejoin="round" opacity="1" fill="none"></path><path d="M523.67 665.5L504.29 657.75" stroke="#1c1e32" stroke-width="3" stroke-linecap="round" stroke-linejoin="round" opacity="1" fill="none"></path><path d="M564.03 345.89C563.46 343.45 562.23 341.22 560.45 339.45 558.69 337.68 556.46 336.44 554.03 335.88" stroke="#86765f" stroke-width="3" stroke-linecap="round" stroke-linejoin="round" opacity="1" fill="none"></path><path d="M552.32 984.16C552.32 984.16 555.2 989.17 553.14 992.27" stroke="#9d583f" stroke-width="3" stroke-linecap="round" stroke-linejoin="round" opacity="1" fill="none"></path><path d="M542.77 986.75V992.24" stroke="#9d583f" stroke-width="3" stroke-linecap="round" stroke-linejoin="round" opacity="1" fill="none"></path><path d="M533.47 987.01V992.17" stroke="#9d583f" stroke-width="3" stroke-linecap="round" stroke-linejoin="round" opacity="1" fill="none"></path><path d="M523.66 986.75C524.26 988.52 524.78 990.33 525.21 992.16" stroke="#9d583f" stroke-width="3" stroke-linecap="round" stroke-linejoin="round" opacity="1" fill="none"></path><path d="M577.63 950.33L580.21 955.24" stroke="#9d583f" stroke-width="3" stroke-linecap="round" stroke-linejoin="round" opacity="1" fill="none"></path><path d="M662.33 849.88L660.78 813.47" stroke="#585858" stroke-width="3" stroke-linecap="round" stroke-linejoin="round" opacity="1" fill="none"></path><path d="M522.9 429.27C529.28 429.19 530.89 433.35 530.89 433.35 530.89 433.35 535.53 435.16 537.09 435.93 538.64 436.7 575.56 458.39 581.25 461.24 582.56 461.89 583.74 462.8 584.69 463.91" stroke="#9d583f" stroke-width="3" stroke-linecap="round" stroke-linejoin="round" opacity="1" fill="none"></path><path d="M489.13 570.12C486.47 566.42 497.05 559.37 497.05 559.37" stroke="#1c1e32" stroke-width="3" stroke-linecap="round" stroke-linejoin="round" opacity="1" fill="none"></path></g></svg>