<svg xmlns="http://www.w3.org/2000/svg" height="1200" width="1600" version="1.1" xmlns:xlink="http://www.w3.org/1999/xlink" xmlns:svgjs="http://svgjs.com/svgjs"><rect fill="#ffeadf" width="1600" height="1200"></rect><g><path d="M1329.95 901.33C1329.96 901.34 1329.95 901.36 1329.95 901.37 1329.95 901.38 1329.94 901.39 1329.93 901.4 1329.92 901.41 1329.91 901.42 1329.89 901.42 1329.88 901.43 1329.87 901.43 1329.85 901.43H290.23C290.21 901.43 290.19 901.43 290.18 901.41 290.16 901.4 290.15 901.39 290.14 901.38 289.06 898.9 253.74 816.93 279.34 745.46 305.32 672.89 404.86 703.95 400.52 614.05 396.19 524.15 374.53 461.32 440.59 393.09 506.66 324.86 577.68 331.51 640.51 270.85 703.33 210.19 780.62 119.94 882.43 152.44 984.23 184.93 975.37 255.57 1115.51 308.96 1250.86 360.51 1170.76 487.68 1224.91 545.08 1279.07 602.48 1286.65 639.31 1279.07 704.3 1271.49 769.27 1311.53 779.04 1329.95 901.33Z" fill="#ffdecc" opacity="1" stroke-width="3" stroke="none"></path></g><g><path d="M813.42 322.54H615.01C612.47 322.54 609.95 322.03 607.61 321.07 605.25 320.09 603.13 318.67 601.33 316.87 599.53 315.07 598.11 312.95 597.13 310.59 596.17 308.25 595.66 305.73 595.66 303.19V273.47C595.66 270.94 596.17 268.42 597.13 266.08 598.11 263.73 599.53 261.6 601.33 259.8 603.13 258 605.25 256.58 607.61 255.6 609.95 254.64 612.47 254.13 615.01 254.13H813.42C815.95 254.13 818.47 254.64 820.82 255.6 823.16 256.58 825.29 258 827.1 259.8 828.9 261.6 830.31 263.73 831.29 266.08 832.26 268.42 832.76 270.94 832.76 273.47V303.19C832.76 305.73 832.26 308.25 831.29 310.59 830.31 312.95 828.9 315.07 827.1 316.87 825.29 318.67 823.16 320.09 820.82 321.07 818.47 322.03 815.95 322.54 813.42 322.54V322.54Z" fill="#ffffff" opacity="1" stroke-width="3" stroke="none"></path><path d="M523.37 324.86C544.83 324.86 562.24 307.46 562.24 286 562.24 264.54 544.83 247.13 523.37 247.13 501.91 247.13 484.51 264.54 484.51 286 484.51 307.46 501.91 324.86 523.37 324.86Z" fill="#97607a" opacity="1" stroke-width="3" stroke="none"></path><path d="M640.56 294.74C640.56 294.74 646.38 285.42 653.97 285.42 661.57 285.42 665.05 293.59 674.39 293.59 683.73 293.59 686.05 284.27 696.55 284.27 707.04 284.27 709.96 294.76 718.71 294.76 727.45 294.76 732.7 284.27 743.77 284.27 754.84 284.27 755.44 294.76 764.18 294.76 772.93 294.76 776.43 281.35 791 287.19" stroke="#e66a48" stroke-width="3" stroke-linecap="round" stroke-linejoin="round" opacity="1" fill="none"></path><path d="M813.42 406.49H615.01C612.47 406.49 609.95 405.98 607.61 405.02 605.25 404.04 603.13 402.62 601.33 400.82 599.53 399.02 598.11 396.9 597.13 394.54 596.17 392.2 595.66 389.68 595.66 387.15V357.43C595.66 354.89 596.17 352.37 597.13 350.03 598.11 347.69 599.53 345.55 601.33 343.75 603.13 341.95 605.25 340.53 607.61 339.55 609.95 338.59 612.47 338.08 615.01 338.08H813.42C815.95 338.08 818.47 338.59 820.82 339.55 823.16 340.53 825.29 341.95 827.1 343.75 828.9 345.55 830.31 347.69 831.29 350.03 832.26 352.37 832.76 354.89 832.76 357.43V387.15C832.76 389.68 832.26 392.2 831.29 394.54 830.31 396.9 828.9 399.02 827.1 400.82 825.29 402.62 823.16 404.04 820.82 405.02 818.47 405.98 815.95 406.49 813.42 406.49Z" fill="#ffffff" opacity="1" stroke-width="3" stroke="none"></path><path d="M523.37 408.82C544.83 408.82 562.24 391.41 562.24 369.95 562.24 348.49 544.83 331.09 523.37 331.09 501.91 331.09 484.51 348.49 484.51 369.95 484.51 391.41 501.91 408.82 523.37 408.82Z" fill="#97607a" opacity="1" stroke-width="3" stroke="none"></path><path d="M640.56 378.7C640.56 378.7 646.38 369.37 653.97 369.37 661.57 369.37 665.05 377.54 674.39 377.54 683.73 377.54 686.05 368.22 696.55 368.22 707.04 368.22 709.96 378.71 718.71 378.71 727.45 378.71 732.7 368.22 743.77 368.22 754.84 368.22 755.44 378.71 764.18 378.71 772.93 378.71 776.43 365.3 791 371.14" stroke="#e66a48" stroke-width="3" stroke-linecap="round" stroke-linejoin="round" opacity="1" fill="none"></path><path d="M813.42 493.94H615.01C612.47 493.94 609.95 493.43 607.61 492.47 605.25 491.49 603.13 490.08 601.33 488.28 599.53 486.47 598.11 484.36 597.13 482 596.17 479.65 595.66 477.13 595.66 474.6V444.88C595.66 442.35 596.17 439.83 597.13 437.48 598.11 435.14 599.53 433.01 601.33 431.2 603.13 429.4 605.25 427.99 607.61 427.01 609.95 426.04 612.47 425.54 615.01 425.54H813.42C815.95 425.54 818.47 426.04 820.82 427.01 823.16 427.99 825.29 429.4 827.1 431.2 828.9 433.01 830.31 435.14 831.29 437.48 832.26 439.83 832.76 442.35 832.76 444.88V474.6C832.76 477.13 832.26 479.65 831.29 482 830.31 484.36 828.9 486.47 827.1 488.28 825.29 490.08 823.16 491.49 820.82 492.47 818.47 493.43 815.95 493.94 813.42 493.94Z" fill="#ffffff" opacity="1" stroke-width="3" stroke="none"></path><path d="M523.37 496.27C544.83 496.27 562.24 478.87 562.24 457.4 562.24 435.94 544.83 418.54 523.37 418.54 501.91 418.54 484.51 435.94 484.51 457.4 484.51 478.87 501.91 496.27 523.37 496.27Z" fill="#97607a" opacity="1" stroke-width="3" stroke="none"></path><path d="M640.56 466.15C640.56 466.15 646.38 456.83 653.97 456.83 661.57 456.83 665.05 465 674.39 465 683.73 465 686.05 455.67 696.55 455.67 707.04 455.67 709.96 466.17 718.71 466.17 727.45 466.17 732.7 455.67 743.77 455.67 754.84 455.67 755.44 466.17 764.18 466.17 772.93 466.17 776.43 452.75 791 458.59" stroke="#e66a48" stroke-width="3" stroke-linecap="round" stroke-linejoin="round" opacity="1" fill="none"></path><path d="M509.96 288.92L519.28 297.09 537.94 278.42" stroke="#ffffff" stroke-width="3" stroke-linecap="round" stroke-linejoin="round" opacity="1" fill="none"></path><path d="M509.96 371.7L519.28 379.87 537.94 361.21" stroke="#ffffff" stroke-width="3" stroke-linecap="round" stroke-linejoin="round" opacity="1" fill="none"></path><path d="M509.96 458L519.28 466.15 537.94 447.5" stroke="#ffffff" stroke-width="3" stroke-linecap="round" stroke-linejoin="round" opacity="1" fill="none"></path></g><g><path d="M379.05 876.3C379.05 876.28 379.03 876.23 379 876.22 378.99 876.2 378.97 876.18 378.94 876.17 378.91 876.16 378.88 876.14 378.84 876.16 378.81 876.16 378.78 876.15 378.74 876.16L361.11 883.42C360.6 883.63 360.16 883.98 359.85 884.42 359.55 884.88 359.37 885.43 359.38 885.96L359.37 889.56C359.37 890.11 359.52 890.64 359.82 891.1 360.12 891.55 360.56 891.91 361.04 892.13L378.72 899.5C378.78 899.52 378.83 899.53 378.9 899.51 378.94 899.49 378.98 899.46 379 899.4L384.26 890.04C384.28 890.01 384.29 889.98 384.28 889.96 384.29 889.91 384.28 889.89 384.27 889.84L379.05 876.3Z" fill="#a97247" opacity="1" stroke-width="3" stroke="none"></path><path d="M561.48 893.14L561.5 883.5C561.52 882.98 561.71 882.48 562.09 882.11 562.44 881.73 562.96 881.53 563.46 881.53L578.96 881.57C579.48 881.56 579.99 881.77 580.35 882.13 580.72 882.51 580.94 883.02 580.92 883.53L580.91 893.17C580.92 893.7 580.72 894.2 580.34 894.57 579.98 894.93 579.47 895.13 578.94 895.14L563.45 895.1C562.94 895.1 562.44 894.89 562.07 894.53 561.7 894.15 561.49 893.66 561.48 893.14V893.14Z" fill="#ffffff" opacity="1" stroke-width="3" stroke="none"></path><path d="M566.8 897.59L566.79 879.07C566.78 878.76 566.72 878.44 566.59 878.15 566.47 877.85 566.28 877.58 566.05 877.34 565.81 877.13 565.54 876.96 565.23 876.85 564.93 876.73 564.6 876.7 564.29 876.7L557.07 876.69C555.64 876.69 555.53 877.62 555.53 879.05L555.47 897.34C555.47 898.77 555.55 900.09 556.98 900.09L564.22 900.15C564.56 900.16 564.88 900.1 565.19 899.97 565.51 899.84 565.79 899.65 566.04 899.41 566.27 899.17 566.47 898.88 566.58 898.58 566.72 898.27 566.8 897.93 566.8 897.59Z" fill="#a97247" opacity="1" stroke-width="3" stroke="none"></path><path d="M557.28 876.88L557.25 885.13 557.2 899.9C557.21 899.92 557.22 899.96 557.21 899.99 557.2 900.02 557.17 900.03 557.16 900.06 557.15 900.08 557.12 900.09 557.08 900.11 557.06 900.11 557.04 900.12 556.99 900.11L379.14 899.57C379.11 899.58 379.09 899.57 379.06 899.55 379.03 899.56 379.01 899.54 378.99 899.5 378.96 899.49 378.95 899.46 378.95 899.44 378.94 899.42 378.93 899.38 378.92 899.36L378.95 884.26 378.96 876.31C378.97 876.28 378.99 876.25 379 876.22 378.99 876.2 379.03 876.16 379.04 876.13 379.07 876.13 379.09 876.12 379.12 876.08 379.15 876.08 379.17 876.09 379.2 876.08L557.06 876.67C557.1 876.65 557.13 876.67 557.16 876.68 557.19 876.7 557.22 876.71 557.23 876.73 557.26 876.75 557.26 876.77 557.27 876.79 557.29 876.83 557.29 876.85 557.28 876.88V876.88Z" fill="#e66a48" opacity="1" stroke-width="3" stroke="none"></path><path d="M557.06 885.43L378.95 884.49C378.9 884.49 378.85 884.46 378.79 884.43 378.74 884.37 378.72 884.31 378.73 884.26L378.74 876.31C378.73 876.07 378.81 875.92 379.03 875.87L557.07 876.42C557.13 876.43 557.2 876.43 557.23 876.46 557.29 876.49 557.35 876.52 557.39 876.56 557.43 876.61 557.47 876.65 557.49 876.72 557.5 876.76 557.53 876.82 557.53 876.9L557.29 885.19C557.3 885.21 557.28 885.24 557.27 885.27 557.25 885.29 557.24 885.32 557.23 885.35 557.21 885.38 557.19 885.39 557.15 885.4 557.13 885.41 557.08 885.43 557.06 885.43V885.43Z" fill="#e1532b" opacity="1" stroke-width="3" stroke="none"></path><path d="M389.25 899.36L389.27 884.38 389.31 875.92C389.33 875.35 389.56 874.82 389.96 874.42 390.35 874.02 390.88 873.79 391.44 873.8L445.99 873.96C446.57 873.96 447.11 874.19 447.48 874.59 447.88 874.99 448.12 875.53 448.11 876.09L448.1 884.67 448.04 899.54C448.03 900.1 447.8 900.63 447.41 901.03 447.01 901.43 446.49 901.66 445.91 901.66L391.35 901.5C390.8 901.49 390.26 901.26 389.88 900.86 389.48 900.46 389.25 899.91 389.25 899.36V899.36Z" fill="#a97247" opacity="1" stroke-width="3" stroke="none"></path><path d="M448.1 884.67L448.23 875.81C448.24 875.54 448.19 875.24 448.08 874.99 447.97 874.74 447.82 874.5 447.63 874.3 447.42 874.11 447.19 873.94 446.94 873.83 446.66 873.73 446.4 873.68 446.11 873.68L391.28 873.7C391.02 873.7 390.73 873.77 390.47 873.86 390.22 873.97 389.98 874.12 389.78 874.33 389.58 874.52 389.42 874.77 389.32 875.02 389.21 875.27 389.16 875.56 389.15 875.82L389.27 884.38 448.1 884.67Z" fill="#935f37" opacity="1" stroke-width="3" stroke="none"></path></g><g><path d="M1181.18 690.64C1181.18 690.64 1234.17 855.78 1238.8 869.67 1243.43 883.56 1239.31 900.02 1227.48 900.02H720.4C720.38 900.02 720.35 900.02 720.33 899.99 720.31 899.99 720.28 899.97 720.26 899.97 720.26 899.95 720.24 899.93 720.24 899.9 720.24 899.88 720.24 899.86 720.24 899.83L721.63 890.27 721.74 889.44C721.74 889.37 721.77 889.32 721.81 889.3 721.84 889.25 721.91 889.23 721.95 889.23L876.12 889.21C885.89 889.21 893.09 882.01 890.01 870.18 887.69 861.29 842.87 768.26 820.81 722.7 819.51 720.04 818.91 717.08 819.05 714.11 819.19 711.15 820.09 708.28 821.64 705.73 823.19 703.21 825.37 701.1 827.94 699.64 830.51 698.16 833.42 697.35 836.39 697.31L1181.18 690.64Z" fill="#ffffff" opacity="1" stroke-width="3" stroke="none"></path><path d="M721.63 890.27H728.2C799.46 889.02 1033.17 889.65 1154.76 890.29 1196.27 890.27 1223.94 890.29 1225.93 890.29 1234.68 890.29 1233.15 879.51 1229.54 870.75 1226.42 863.14 1182.85 726.43 1171.52 690.87L827.36 697.51C825.34 697.56 823.4 698.09 821.66 699.09 819.93 700.08 818.47 701.5 817.43 703.19 816.36 704.9 815.76 706.84 815.67 708.84 815.58 710.83 815.97 712.82 816.85 714.62 836.97 756.06 887.55 860.75 890.01 870.22 891.07 873.76 890.98 877.54 889.71 881.01 888.55 883.6 886.63 885.8 884.2 887.28 881.76 888.74 878.94 889.44 876.12 889.25 869.84 889.25 732.49 889.18 728.71 889.18 724.94 889.18 722.48 889.23 721.91 889.23 721.74 889.23 721.7 889.28 721.7 889.37L721.63 890.27Z" fill="#efad71" opacity="1" stroke-width="3" stroke="none"></path><path d="M721.63 890.27H728.2C799.46 889.02 1033.17 889.65 1154.76 890.29 1196.27 890.27 1223.94 890.29 1225.93 890.29 1234.68 890.29 1233.15 879.51 1229.54 870.75 1226.42 863.14 1182.85 726.43 1171.52 690.87L827.36 697.51C825.34 697.56 823.4 698.09 821.66 699.09 819.93 700.08 818.47 701.5 817.43 703.19 816.36 704.9 815.76 706.84 815.67 708.84 815.58 710.83 815.97 712.82 816.85 714.62 836.97 756.06 887.55 860.75 890.01 870.22 891.07 873.76 890.98 877.54 889.71 881.01 888.55 883.6 886.63 885.8 884.2 887.28 881.76 888.74 878.94 889.44 876.12 889.25 869.84 889.25 732.49 889.18 728.71 889.18 724.94 889.18 722.48 889.23 721.91 889.23 721.74 889.23 721.7 889.28 721.7 889.37L721.63 890.27Z" fill="#efad71" opacity="1" stroke-width="3" stroke="none"></path><path d="M781.96 774.01C781.1 775.86 780.71 777.9 780.85 779.91 780.99 781.95 781.64 783.91 782.72 785.63 783.83 787.34 785.34 788.75 787.12 789.75 788.9 790.72 790.92 791.23 792.96 791.23L1132.42 791.23C1135.96 791.23 1139.41 790.17 1142.35 788.2 1145.27 786.21 1147.56 783.41 1148.88 780.12L1224.1 593.47C1224.49 592.48 1224.66 591.39 1224.54 590.3 1224.43 589.24 1224.06 588.22 1223.45 587.31 1222.85 586.41 1222.04 585.67 1221.09 585.16 1220.12 584.68 1219.05 584.4 1217.99 584.4H878.06C875.56 584.4 873.11 585.12 871 586.46 868.92 587.8 867.23 589.72 866.18 591.99L781.96 774.01Z" fill="#ffffff" opacity="1" stroke-width="3" stroke="none"></path><path d="M774.57 773.84C772.07 779.21 777.38 785.3 783.26 785.3L1129.09 785.3C1132.63 785.3 1136.08 784.24 1139.02 782.27 1141.94 780.28 1144.23 777.48 1145.55 774.19L1220.77 587.55C1221.16 586.55 1221.32 585.46 1221.21 584.37 1221.09 583.31 1220.72 582.29 1220.12 581.39 1219.52 580.48 1218.71 579.74 1217.76 579.23 1216.79 578.75 1215.72 578.47 1214.66 578.47H874.73C872.23 578.47 869.77 579.19 867.67 580.53 865.58 581.87 863.89 583.8 862.85 586.06L774.57 773.84Z" fill="#efad71" opacity="1" stroke-width="3" stroke="none"></path><path d="M1190.44 639.2L1135.59 775.83C1135.57 775.88 1135.52 775.95 1135.48 775.97 1135.41 776.02 1135.34 776.04 1135.29 776.04H1058.48C984.16 768.82 922.6 768.08 834.03 776.04H782.96C782.93 776.04 782.89 776.04 782.86 776.04 782.84 776.02 782.84 776 782.82 775.97 782.79 775.95 782.79 775.93 782.79 775.9 782.79 775.88 782.79 775.86 782.82 775.83L847.32 639.2 1037.04 611.79 1190.44 639.2Z" fill="#ffffff" opacity="1" stroke-width="3" stroke="none"></path><path d="M895.12 639.2H1116.36L1058.48 776.04H834.03L895.12 639.2Z" fill="#ffffff" opacity="1" stroke-width="3" stroke="none"></path><path d="M728.2 890.27C787.33 890.27 1031.83 890.27 1154.76 890.29L1153.42 883.58C1153.26 882.86 1152.87 882.19 1152.29 881.73 1151.71 881.27 1150.99 881.01 1150.25 881.01L734.11 881.01C733.46 881.01 732.83 881.2 732.3 881.57 731.77 881.91 731.35 882.42 731.12 883.02L728.62 889.25 728.2 890.27Z" fill="#ffffff" opacity="1" stroke-width="3" stroke="none"></path><path d="M872.46 585.93C872.46 585.9 872.48 585.88 872.5 585.86 872.55 585.83 872.57 585.83 872.6 585.83H872.74L1211.32 586.6C1211.35 586.6 1211.37 586.6 1211.39 586.62 1211.41 586.62 1211.44 586.64 1211.44 586.67 1211.46 586.69 1211.46 586.71 1211.46 586.74 1211.48 586.76 1211.46 586.78 1211.46 586.81L1205.72 601.14 1190.44 639.2 847.32 639.2 872.39 586.04 872.46 585.93Z" fill="#ffffff" opacity="1" stroke-width="3" stroke="none"></path><path d="M1190.44 639.2L847.32 639.2" stroke="#c9c9c9" stroke-width="3" stroke-linecap="round" stroke-linejoin="round" opacity="1" fill="none"></path><path d="M1185.23 603.38C1183.45 601.39 1183.98 597.96 1186.43 595.74 1188.91 593.54 1192.36 593.36 1194.17 595.35 1195.95 597.36 1195.42 600.77 1192.94 602.99 1190.49 605.21 1187.04 605.37 1185.23 603.38Z" fill="#97607a" opacity="1" stroke-width="3" stroke="none"></path><path d="M1165.25 603.38C1163.47 601.37 1164 597.96 1166.45 595.74 1168.93 593.54 1172.38 593.36 1174.19 595.35 1175.97 597.36 1175.44 600.77 1172.96 602.99 1170.51 605.19 1167.06 605.37 1165.25 603.38Z" fill="#323232" opacity="1" stroke-width="3" stroke="none"></path><path d="M1145.46 603.38C1143.65 601.39 1144.21 597.96 1146.66 595.76 1149.14 593.54 1152.59 593.36 1154.37 595.37 1156.18 597.36 1155.64 600.77 1153.17 602.99 1150.71 605.21 1147.26 605.37 1145.46 603.38Z" fill="#868686" opacity="1" stroke-width="3" stroke="none"></path><path d="M1072.11 668.53H972.82" stroke="#c9c9c9" stroke-width="3" stroke-linecap="round" stroke-linejoin="round" opacity="1" fill="none"></path><path d="M1060.79 700.43H907.99" stroke="#c9c9c9" stroke-width="3" stroke-linecap="round" stroke-linejoin="round" opacity="1" fill="none"></path><path d="M1049.49 729.74H896.7" stroke="#c9c9c9" stroke-width="3" stroke-linecap="round" stroke-linejoin="round" opacity="1" fill="none"></path><path d="M976.96 624.45H1181.25C1182.43 624.4 1183.56 623.96 1184.49 623.2 1185.42 622.46 1186.06 621.42 1186.34 620.26 1186.48 619.75 1186.5 619.24 1186.39 618.73 1186.3 618.2 1186.06 617.74 1185.74 617.32 1185.42 616.9 1185.02 616.58 1184.54 616.37 1184.07 616.16 1183.54 616.05 1183.03 616.07H978.74C977.54 616.11 976.41 616.55 975.5 617.32 974.58 618.06 973.93 619.1 973.65 620.26 973.51 620.77 973.49 621.3 973.58 621.81 973.7 622.32 973.91 622.78 974.23 623.2 974.55 623.62 974.97 623.94 975.43 624.15 975.92 624.38 976.43 624.47 976.96 624.45V624.45Z" fill="#989898" opacity="1" stroke-width="3" stroke="none"></path></g><g><path d="M152.54 899.65H1418.89C1451.87 899.65 1453.41 902.14 1448.87 907.08 1442.6 914.71 1434.61 921.89 1425.25 928.48 1419.16 932.62 1412.53 936.51 1405.35 940.05 1376.82 954.06 1331.85 963.94 1316.86 963.94H254.57C236.58 963.94 200.61 953.22 179.53 939.25 174.53 935.86 170.17 932.27 166.35 928.48 152.54 915.06 144.37 899.65 152.54 899.65Z" fill="#2a2c45" opacity="1" stroke-width="3" stroke="none"></path><path d="M254.57 964.39C233.22 964.39 188.7 950.47 166.35 928.73 166.26 928.68 166.26 928.58 166.26 928.48 166.26 928.38 166.26 928.33 166.35 928.23 166.44 928.18 166.53 928.08 166.72 928.08 166.81 928.03 166.99 927.98 167.17 927.98H1424.52C1424.7 927.98 1424.88 928.03 1424.98 928.08 1425.16 928.13 1425.25 928.18 1425.34 928.28 1425.43 928.38 1425.43 928.43 1425.43 928.53 1425.43 928.63 1425.34 928.73 1425.25 928.78 1393.18 950.87 1337.12 964.39 1316.86 964.39L254.57 964.39Z" fill="#161619" opacity="1" stroke-width="3" stroke="none"></path></g><g><path d="M717.69 710.85C716.77 713.82 717.33 715.88 717.8 718.01 718.28 720.15 719.7 727.74 719.7 729.87 719.7 732.01 717.8 733.2 716.14 732.48L634.78 695.72C632.64 694.53 631.93 692.63 633.11 690.73 634.3 688.83 640.47 687.41 643.55 686.94 646.64 686.46 647.59 685.51 649.96 682.19 652.33 678.87 665.14 658 671.07 649.22 675.81 642.21 688.27 635.65 701.32 636.93 703.11 634.5 708.33 628.69 715.19 632.38 721.99 636.03 720.77 642.79 720 645.39 728.48 653.65 730.14 665.58 728.48 673.18 728.48 673.18 718.64 708.48 717.69 710.85Z" fill="#ffffff" opacity="1" stroke-width="3" stroke="none"></path><path d="M659.67 712.28C659.67 712.27 659.67 712.27 659.68 712.26 659.68 712.26 659.68 712.26 659.69 712.26 659.7 712.26 659.7 712.25 659.71 712.25 659.71 712.25 659.71 712.26 659.72 712.26L687.16 725.35C687.17 725.35 687.17 725.35 687.18 725.36 687.18 725.36 687.18 725.37 687.18 725.37 687.18 725.38 687.18 725.38 687.18 725.39 687.18 725.39 687.18 725.4 687.18 725.4 686.66 726.11 678.42 737.03 666.64 731.06 654.85 725.08 659.37 713.03 659.67 712.28Z" fill="#ffffff" opacity="1" stroke-width="3" stroke="none"></path><path d="M701.32 636.93C701.32 636.93 713.2 639.07 720 645.39" stroke="#e1e1e1" stroke-width="3" stroke-linecap="round" stroke-linejoin="round" opacity="1" fill="none"></path><path d="M634.78 695.72L716.14 732.48" stroke="#e1e1e1" stroke-width="3" stroke-linecap="round" stroke-linejoin="round" opacity="1" fill="none"></path><path d="M733.07 655.78C735.29 660.41 735.79 665.68 734.49 670.65" stroke="#e1e1e1" stroke-width="3" stroke-linecap="round" stroke-linejoin="round" opacity="1" fill="none"></path><path d="M737.33 647.08C737.33 647.08 748.09 659.1 741.13 677.29" stroke="#e1e1e1" stroke-width="3" stroke-linecap="round" stroke-linejoin="round" opacity="1" fill="none"></path></g><g><path d="M1378.32 428.62L1312.13 394.27C1310.29 393.31 1308.23 392.86 1306.16 392.95 1304.09 393.04 1302.09 393.68 1300.34 394.8 1298.59 395.91 1297.17 397.47 1296.22 399.3 1295.26 401.15 1294.81 403.2 1294.9 405.27L1298.25 479.76C1298.34 481.83 1298.98 483.84 1300.09 485.58 1301.21 487.33 1302.76 488.75 1304.6 489.71 1306.44 490.66 1308.5 491.11 1310.56 491.02 1312.64 490.92 1314.65 490.29 1316.39 489.17L1379.23 449.03C1380.97 447.92 1382.4 446.36 1383.35 444.53 1384.31 442.69 1384.76 440.62 1384.67 438.56 1384.58 436.48 1383.94 434.47 1382.83 432.73 1381.71 430.99 1380.15 429.57 1378.32 428.62V428.62Z" fill="#ffdecc" opacity="1" stroke-width="3" stroke="none"></path></g><g><path d="M319.51 306.36L314.43 304.28C309.46 302.22 305.49 298.31 303.41 293.34 301.32 288.37 301.3 282.78 303.32 277.81L321.77 232.73C323.79 227.73 327.73 223.77 332.7 221.68 337.67 219.6 343.24 219.57 348.23 221.62L353.31 223.71C358.28 225.74 362.25 229.68 364.33 234.64 366.42 239.61 366.45 245.18 364.42 250.17L345.98 295.26C344.98 297.71 343.49 299.97 341.61 301.85 339.72 303.76 337.5 305.25 335.04 306.3 332.59 307.33 329.96 307.85 327.28 307.87 324.62 307.87 321.97 307.36 319.51 306.36V306.36Z" fill="#ffdecc" opacity="1" stroke-width="3" stroke="none"></path></g></svg>