<svg xmlns="http://www.w3.org/2000/svg" height="1200" width="1600" version="1.1" xmlns:xlink="http://www.w3.org/1999/xlink" xmlns:svgjs="http://svgjs.com/svgjs"><rect fill="#ffeadf" width="1600" height="1200"></rect><g><path d="M1326.78 508C1320.57 472.5 1310.27 437.54 1298.47 406.92 1250.72 284.71 1136.5 247.44 1015.01 235.19 883.48 221.97 750.36 251.08 630.1 303.53 516.24 352.96 384.27 423.25 325.52 537.47 304.93 577.4 289.84 620.71 279.72 664.56 268.01 714.88 263.75 767.24 276.8 817.65 299.52 905.33 368.21 972.87 451.45 1004.46 503.1 1024.08 559.55 1025.41 613.42 1016.89 664.63 1008.72 704.83 981.39 752.31 964.35 797.75 947.84 845.85 941.63 893.6 936.39 999.12 925.12 1101 917.4 1190.28 854.3 1270.07 798.03 1324.74 704.14 1332.9 606.96 1335.3 575.72 1332.81 541.55 1326.78 508Z" fill="#ffdecc" opacity="1" stroke-width="3" stroke="#2e2b28"></path></g><g><path d="M291.02 1000.59L835.53 524.41C838.27 522.01 841.6 520.4 845.18 519.71 848.75 519.02 852.45 519.3 855.89 520.5 859.33 521.71 862.38 523.8 864.75 526.57 867.12 529.34 868.7 532.68 869.36 536.27L879.35 591.41C880 594.99 881.58 598.34 883.96 601.11 886.33 603.88 889.38 605.97 892.81 607.18 896.25 608.38 899.95 608.66 903.52 607.97 907.11 607.27 910.44 605.66 913.18 603.26L1373.24 200.61" stroke="#000000" stroke-width="3" stroke-linecap="round" stroke-linejoin="round" opacity="1" fill="none"></path><path d="M1364.98 241.24L1374.17 199.41 1332.35 208.6" stroke="#000000" stroke-width="3" stroke-linecap="round" stroke-linejoin="round" opacity="1" fill="none"></path></g><g><path d="M169.67 445.25C181.49 445.25 191.08 435.66 191.08 423.83 191.08 412.01 181.49 402.42 169.67 402.42 157.84 402.42 148.26 412.01 148.26 423.83 148.26 435.66 157.84 445.25 169.67 445.25Z" stroke="#000000" stroke-width="3" stroke-linecap="round" stroke-linejoin="round" opacity="1" fill="none"></path><path d="M1393.54 470.44C1405.37 470.44 1414.96 460.85 1414.96 449.03 1414.96 437.2 1405.37 427.61 1393.54 427.61 1381.72 427.61 1372.13 437.2 1372.13 449.03 1372.13 460.85 1381.72 470.44 1393.54 470.44Z" stroke="#000000" stroke-width="3" stroke-linecap="round" stroke-linejoin="round" opacity="1" fill="none"></path><path d="M887.18 432.65C892.04 432.65 895.99 428.7 895.99 423.83 895.99 418.97 892.04 415.02 887.18 415.02 882.31 415.02 878.36 418.97 878.36 423.83 878.36 428.7 882.31 432.65 887.18 432.65Z" stroke="#000000" stroke-width="3" stroke-linecap="round" stroke-linejoin="round" opacity="1" fill="none"></path><path d="M1146.97 538.77C1151.84 538.77 1155.79 534.82 1155.79 529.96 1155.79 525.09 1151.84 521.14 1146.97 521.14 1142.11 521.14 1138.16 525.09 1138.16 529.96 1138.16 534.82 1142.11 538.77 1146.97 538.77Z" stroke="#000000" stroke-width="3" stroke-linecap="round" stroke-linejoin="round" opacity="1" fill="none"></path><path d="M1443.3 797.47C1448.16 797.47 1452.12 793.51 1452.12 788.65 1452.12 783.78 1448.16 779.83 1443.3 779.83 1438.43 779.83 1434.48 783.78 1434.48 788.65 1434.48 793.51 1438.43 797.47 1443.3 797.47Z" stroke="#000000" stroke-width="3" stroke-linecap="round" stroke-linejoin="round" opacity="1" fill="none"></path><path d="M646.91 772.75C651.77 772.75 655.72 768.79 655.72 763.93 655.72 759.06 651.77 755.11 646.91 755.11 642.04 755.11 638.09 759.06 638.09 763.93 638.09 768.79 642.04 772.75 646.91 772.75Z" stroke="#000000" stroke-width="3" stroke-linecap="round" stroke-linejoin="round" opacity="1" fill="none"></path><path d="M229.19 668.67C234.05 668.67 238 664.72 238 659.85 238 654.99 234.05 651.04 229.19 651.04 224.32 651.04 220.37 654.99 220.37 659.85 220.37 664.72 224.32 668.67 229.19 668.67Z" stroke="#000000" stroke-width="3" stroke-linecap="round" stroke-linejoin="round" opacity="1" fill="none"></path></g><g><path d="M733.49 358.05H1025.9C1030.14 358.05 1034.33 358.95 1038.19 360.68 1042.06 362.41 1045.52 364.96 1048.33 368.12 1051.15 371.29 1053.27 375.02 1054.53 379.06 1055.81 383.1 1056.21 387.37 1055.71 391.58L1005.22 817.94C1004.35 825.24 1000.85 831.98 995.35 836.87 989.86 841.76 982.77 844.47 975.41 844.49H683C678.77 844.49 674.58 843.59 670.71 841.85 666.84 840.12 663.4 837.57 660.57 834.41 657.76 831.24 655.65 827.51 654.38 823.47 653.1 819.43 652.7 815.16 653.2 810.95L703.68 384.59C704.52 377.28 708.02 370.53 713.52 365.63 719.03 360.73 726.13 358.04 733.49 358.05V358.05Z" fill="#efad71" opacity="1" stroke-width="3" stroke="#2e2b28"></path><path d="M725.76 575.28L844.06 451.66C845.24 450.44 846.67 449.52 848.27 448.98 849.87 448.43 851.57 448.27 853.24 448.52 854.91 448.77 856.5 449.41 857.87 450.39 859.24 451.37 860.35 452.68 861.11 454.18L873.78 479.05C874.54 480.56 875.65 481.87 877.02 482.86 878.39 483.86 879.97 484.5 881.65 484.74 883.33 484.99 885.03 484.84 886.63 484.28 888.23 483.73 889.67 482.8 890.83 481.57L966.47 402.57" stroke="#000000" stroke-width="3" stroke-linecap="round" stroke-linejoin="round" opacity="1" fill="none"></path><path d="M683 774.99L742.53 712.77C743.69 711.54 745.14 710.61 746.73 710.06 748.33 709.5 750.04 709.34 751.71 709.59 753.38 709.84 754.97 710.49 756.34 711.47 757.71 712.46 758.82 713.78 759.58 715.28L772.24 740.16C773.01 741.67 774.12 742.98 775.49 743.97 776.86 744.96 778.44 745.61 780.12 745.85 781.79 746.1 783.5 745.94 785.09 745.38 786.69 744.83 788.14 743.9 789.29 742.67L864.93 663.68" stroke="#000000" stroke-width="3" stroke-linecap="round" stroke-linejoin="round" opacity="1" fill="none"></path><path d="M824.6 501.03H964.79C966.44 501.03 968.07 501.38 969.58 502.05 971.08 502.73 972.42 503.72 973.51 504.95 974.61 506.19 975.43 507.63 975.91 509.2 976.4 510.78 976.55 512.44 976.34 514.08L969.35 572.67C969.01 575.49 967.65 578.09 965.52 579.98 963.39 581.86 960.65 582.91 957.8 582.92H817.61C815.96 582.92 814.33 582.57 812.83 581.9 811.33 581.22 809.99 580.23 808.89 579 807.8 577.77 806.98 576.32 806.5 574.75 806 573.17 805.86 571.51 806.06 569.87L813.04 511.28C813.38 508.45 814.74 505.85 816.87 503.96 819 502.07 821.75 501.03 824.6 501.03V501.03Z" fill="#97607a" opacity="1" stroke-width="3" stroke="#2e2b28"></path><path d="M847.14 556.55C854.8 556.55 861.02 550.34 861.02 542.67 861.02 535.01 854.8 528.79 847.14 528.79 839.47 528.79 833.26 535.01 833.26 542.67 833.26 550.34 839.47 556.55 847.14 556.55Z" stroke="#000000" stroke-width="3" stroke-linecap="round" stroke-linejoin="round" opacity="1" fill="none"></path><path d="M891.94 528.23C895.63 528.23 899.15 529.7 901.76 532.3 904.36 534.9 905.82 538.43 905.82 542.11 905.82 545.79 904.36 549.32 901.76 551.93 899.15 554.53 895.63 555.99 891.94 555.99" stroke="#000000" stroke-width="3" stroke-linecap="round" stroke-linejoin="round" opacity="1" fill="none"></path><path d="M936.75 528.89C939.5 528.89 942.18 529.7 944.46 531.23 946.75 532.75 948.53 534.92 949.58 537.46 950.63 539.99 950.9 542.79 950.37 545.48 949.83 548.17 948.51 550.64 946.57 552.58 944.63 554.52 942.15 555.85 939.46 556.38 936.77 556.92 933.97 556.64 931.44 555.59 928.91 554.54 926.74 552.76 925.21 550.48 923.69 548.2 922.87 545.51 922.87 542.77" stroke="#000000" stroke-width="3" stroke-linecap="round" stroke-linejoin="round" opacity="1" fill="none"></path><path d="M892.13 550.68C896.97 550.68 900.89 546.76 900.89 541.93 900.89 537.09 896.97 533.17 892.13 533.17 887.3 533.17 883.37 537.09 883.37 541.93 883.37 546.76 887.3 550.68 892.13 550.68Z" fill="#ffffff" opacity="1" stroke-width="3" stroke="#2e2b28"></path><path d="M936.75 551.52C941.59 551.52 945.51 547.6 945.51 542.77 945.51 537.93 941.59 534.01 936.75 534.01 931.92 534.01 927.99 537.93 927.99 542.77 927.99 547.6 931.92 551.52 936.75 551.52Z" fill="#ffffff" opacity="1" stroke-width="3" stroke="#2e2b28"></path><path d="M847.14 551.52C851.98 551.52 855.89 547.6 855.89 542.77 855.89 537.93 851.98 534.01 847.14 534.01 842.3 534.01 838.38 537.93 838.38 542.77 838.38 547.6 842.3 551.52 847.14 551.52Z" fill="#ffffff" opacity="1" stroke-width="3" stroke="#2e2b28"></path><path d="M861.11 609.93H981.56C983.31 609.94 985.04 610.31 986.63 611.03 988.24 611.76 989.66 612.8 990.82 614.11 991.98 615.43 992.86 616.96 993.38 618.64 993.9 620.31 994.06 622.07 993.85 623.81L973.08 799.4C972.72 802.41 971.27 805.18 969 807.19 966.74 809.19 963.81 810.3 960.78 810.3H840.25C838.5 810.3 836.78 809.93 835.19 809.21 833.6 808.5 832.18 807.46 831.01 806.15 829.86 804.86 828.98 803.32 828.45 801.66 827.93 800 827.75 798.25 827.95 796.51L848.72 620.92C849.09 617.89 850.55 615.1 852.83 613.08 855.11 611.05 858.07 609.93 861.11 609.93V609.93Z" fill="#ffffff" opacity="1" stroke-width="3" stroke="#2e2b28"></path><path d="M887.75 658.93L870.52 788.13" stroke="#000000" stroke-width="3" stroke-linecap="round" stroke-linejoin="round" opacity="1" fill="none"></path><path d="M919.52 658.93L902.38 788.13" stroke="#000000" stroke-width="3" stroke-linecap="round" stroke-linejoin="round" opacity="1" fill="none"></path><path d="M951.28 658.93L934.14 788.13" stroke="#000000" stroke-width="3" stroke-linecap="round" stroke-linejoin="round" opacity="1" fill="none"></path><path d="M846.02 757.85H966.56" stroke="#000000" stroke-width="3" stroke-linecap="round" stroke-linejoin="round" opacity="1" fill="none"></path><path d="M850.68 724.32H971.22" stroke="#000000" stroke-width="3" stroke-linecap="round" stroke-linejoin="round" opacity="1" fill="none"></path><path d="M855.24 690.69H975.78" stroke="#000000" stroke-width="3" stroke-linecap="round" stroke-linejoin="round" opacity="1" fill="none"></path><path d="M887.75 696.75L904.71 717.61" stroke="#000000" stroke-width="3" stroke-linecap="round" stroke-linejoin="round" opacity="1" fill="none"></path><path d="M905.27 697.31L887.1 717.05" stroke="#000000" stroke-width="3" stroke-linecap="round" stroke-linejoin="round" opacity="1" fill="none"></path><path d="M888.96 639.83H950.82" stroke="#000000" stroke-width="3" stroke-linecap="round" stroke-linejoin="round" opacity="1" fill="none"></path><path d="M903.59 628.93H936.19" stroke="#000000" stroke-width="3" stroke-linecap="round" stroke-linejoin="round" opacity="1" fill="none"></path><path d="M594.32 412.35H760.23C762.08 412.35 763.91 412.74 765.59 413.5 767.27 414.25 768.78 415.36 770 416.75 771.23 418.13 772.14 419.76 772.69 421.52 773.24 423.29 773.41 425.14 773.18 426.98L764.79 497.03C764.44 500.21 762.92 503.15 760.53 505.28 758.14 507.41 755.05 508.59 751.84 508.58H586.03C584.19 508.58 582.36 508.19 580.68 507.43 578.99 506.68 577.49 505.57 576.26 504.18 575.04 502.8 574.13 501.17 573.58 499.41 573.03 497.65 572.86 495.79 573.08 493.95L581.47 423.9C581.79 420.73 583.29 417.78 585.67 415.65 588.04 413.51 591.13 412.33 594.32 412.35V412.35Z" fill="#ffffff" opacity="1" stroke-width="3" stroke="#2e2b28"></path><path d="M575.6 399.13H741.5C743.36 399.13 745.18 399.52 746.87 400.27 748.55 401.03 750.06 402.13 751.28 403.52 752.51 404.9 753.42 406.53 753.97 408.29 754.52 410.06 754.68 411.92 754.45 413.75L746.07 483.8C745.71 486.99 744.2 489.92 741.8 492.05 739.42 494.18 736.32 495.36 733.12 495.35H567.22C565.37 495.35 563.55 494.96 561.86 494.21 560.17 493.45 558.67 492.34 557.44 490.96 556.22 489.58 555.31 487.95 554.76 486.19 554.21 484.43 554.04 482.56 554.27 480.73L562.65 410.68C563.01 407.5 564.53 404.56 566.92 402.42 569.31 400.3 572.4 399.12 575.6 399.13V399.13Z" fill="#66b2dc" opacity="1" stroke-width="3" stroke="#000000"></path><path d="M594.32 412.35H760.23C762.08 412.35 763.91 412.74 765.59 413.5 767.27 414.25 768.78 415.36 770 416.75 771.23 418.13 772.14 419.76 772.69 421.52 773.24 423.29 773.41 425.14 773.18 426.98L764.79 497.03C764.44 500.21 762.92 503.15 760.53 505.28 758.14 507.41 755.05 508.59 751.84 508.58H586.03C584.19 508.58 582.36 508.19 580.68 507.43 578.99 506.68 577.49 505.57 576.26 504.18 575.04 502.8 574.13 501.17 573.58 499.41 573.03 497.65 572.86 495.79 573.08 493.95L581.47 423.9C581.79 420.73 583.29 417.78 585.67 415.65 588.04 413.51 591.13 412.33 594.32 412.35V412.35Z" fill="#ffffff" opacity="1" stroke-width="3" stroke="#2e2b28"></path><path d="M575.6 399.13H741.5C743.36 399.13 745.18 399.52 746.87 400.27 748.55 401.03 750.06 402.13 751.28 403.52 752.51 404.9 753.42 406.53 753.97 408.29 754.52 410.06 754.68 411.92 754.45 413.75L746.07 483.8C745.71 486.99 744.2 489.92 741.8 492.05 739.42 494.18 736.32 495.36 733.12 495.35H567.22C565.37 495.35 563.55 494.96 561.86 494.21 560.17 493.45 558.67 492.34 557.44 490.96 556.22 489.58 555.31 487.95 554.76 486.19 554.21 484.43 554.04 482.56 554.27 480.73L562.65 410.68C563.01 407.5 564.53 404.56 566.92 402.42 569.31 400.3 572.4 399.12 575.6 399.13V399.13Z" fill="#97607a" opacity="1" stroke-width="3" stroke="#2e2b28"></path><path d="M599.54 422.13H581.19L574.76 477.56H593.11L599.54 422.13Z" fill="#a97247" stroke-linejoin="round" opacity="1" stroke-width="3" stroke="#2e2b28"></path><path d="M624.32 449.8L621.15 477.56H602.8L606.06 449.8H624.32Z" fill="#a97247" stroke-linejoin="round" opacity="1" stroke-width="3" stroke="#2e2b28"></path><path d="M655.62 422.13H637.27L630.84 477.56H649.1L655.62 422.13Z" fill="#a97247" stroke-linejoin="round" opacity="1" stroke-width="3" stroke="#2e2b28"></path><path d="M681.89 436.76L677.23 477.56H658.88L663.63 436.76H681.89Z" fill="#a97247" stroke-linejoin="round" opacity="1" stroke-width="3" stroke="#2e2b28"></path><path d="M710.58 431.36L705.17 477.56H686.92L692.23 431.36H710.58Z" fill="#ffffff" stroke-linejoin="round" opacity="1" stroke-width="3" stroke="#2e2b28"></path><path d="M734.14 469.46L733.21 477.56H714.96L715.89 469.46H734.14Z" fill="#a97247" stroke-linejoin="round" opacity="1" stroke-width="3" stroke="#2e2b28"></path><path d="M525.67 552.27H754.27C755.77 552.28 757.24 552.59 758.61 553.21 759.97 553.82 761.19 554.72 762.17 555.83 763.17 556.94 763.92 558.26 764.36 559.68 764.82 561.11 764.97 562.62 764.79 564.1L752.4 667.96C752.1 670.53 750.86 672.91 748.91 674.62 746.97 676.34 744.47 677.29 741.88 677.28H513.28C511.79 677.28 510.31 676.95 508.95 676.34 507.59 675.72 506.37 674.83 505.37 673.72 504.38 672.6 503.64 671.29 503.18 669.86 502.74 668.44 502.59 666.93 502.75 665.45L515.14 561.58C515.47 559.02 516.72 556.66 518.66 554.94 520.59 553.23 523.09 552.28 525.67 552.27V552.27Z" fill="#ffffff" opacity="1" stroke-width="3" stroke="#2e2b28"></path><path d="M518.12 656.88L585.19 580.96C585.37 580.75 585.59 580.61 585.85 580.53 586.1 580.46 586.36 580.45 586.62 580.51 586.87 580.59 587.09 580.73 587.28 580.92 587.46 581.11 587.57 581.35 587.62 581.61L600.94 653.99C600.98 654.25 601.1 654.49 601.28 654.69 601.46 654.88 601.69 655.01 601.94 655.09 602.19 655.15 602.46 655.15 602.72 655.07 602.97 655 603.19 654.85 603.36 654.64L668.57 580.96C668.74 580.75 668.97 580.61 669.22 580.53 669.47 580.46 669.73 580.45 669.99 580.51 670.24 580.59 670.47 580.73 670.65 580.92 670.83 581.11 670.94 581.35 670.99 581.61L684.22 653.52C684.28 653.8 684.41 654.06 684.62 654.25 684.81 654.46 685.06 654.59 685.34 654.65 685.62 654.71 685.9 654.69 686.17 654.59 686.43 654.48 686.66 654.31 686.82 654.08L739.55 578.72" stroke="#000000" stroke-width="3" stroke-linecap="round" stroke-linejoin="round" opacity="1" fill="none"></path><path d="M586.78 585.24C589.2 585.24 591.16 583.29 591.16 580.87 591.16 578.44 589.2 576.49 586.78 576.49 584.37 576.49 582.4 578.44 582.4 580.87 582.4 583.29 584.37 585.24 586.78 585.24Z" fill="#a97247" opacity="1" stroke-width="3" stroke="#2e2b28"></path><path d="M669.78 585.24C672.2 585.24 674.15 583.29 674.15 580.87 674.15 578.44 672.2 576.49 669.78 576.49 667.36 576.49 665.4 578.44 665.4 580.87 665.4 583.29 667.36 585.24 669.78 585.24Z" fill="#a97247" opacity="1" stroke-width="3" stroke="#2e2b28"></path><path d="M602.15 659.3C604.57 659.3 606.53 657.34 606.53 654.92 606.53 652.5 604.57 650.54 602.15 650.54 599.74 650.54 597.77 652.5 597.77 654.92 597.77 657.34 599.74 659.3 602.15 659.3Z" fill="#a97247" opacity="1" stroke-width="3" stroke="#2e2b28"></path><path d="M685.89 659.3C688.31 659.3 690.27 657.34 690.27 654.92 690.27 652.5 688.31 650.54 685.89 650.54 683.48 650.54 681.51 652.5 681.51 654.92 681.51 657.34 683.48 659.3 685.89 659.3Z" fill="#a97247" opacity="1" stroke-width="3" stroke="#2e2b28"></path><path d="M928.83 393.16H1087.01C1088.46 393.17 1089.89 393.48 1091.23 394.06 1092.56 394.65 1093.75 395.49 1094.74 396.56 1095.72 397.63 1096.48 398.88 1096.96 400.25 1097.45 401.62 1097.64 403.08 1097.53 404.53L1094.46 441.42C1094.24 444.06 1093.04 446.52 1091.09 448.32 1089.14 450.11 1086.59 451.1 1083.93 451.1H925.76C924.31 451.1 922.87 450.8 921.55 450.21 920.22 449.62 919.01 448.78 918.04 447.7 917.05 446.64 916.29 445.39 915.81 444.02 915.33 442.65 915.13 441.19 915.23 439.74L918.31 402.85C918.56 400.23 919.77 397.78 921.72 395.99 923.65 394.2 926.2 393.19 928.83 393.16V393.16Z" fill="#ffffff" opacity="1" stroke-width="3" stroke="#2e2b28"></path><path d="M1068 412.26L1045.83 431.92 1034.28 412.26 1012.2 431.92 1000.65 412.26 978.48 431.92 966.93 412.26 944.76 431.92" stroke="#000000" stroke-width="3" stroke-linecap="round" stroke-linejoin="round" opacity="1" fill="none"></path></g></svg>