<svg xmlns="http://www.w3.org/2000/svg" width="120" height="93" viewBox="0 0 120 93" fill="none">
  <g clip-path="url(#clip0_271_2345)">
    <path d="M17.4085 54.8256C21.5919 54.8256 24.9832 51.4343 24.9832 47.2509C24.9832 43.0675 21.5919 39.6761 17.4085 39.6761C13.2251 39.6761 9.83374 43.0675 9.83374 47.2509C9.83374 51.4343 13.2251 54.8256 17.4085 54.8256Z" fill="#FF6584"/>
    <path d="M32.9207 90.0362H32.913C32.6463 90.0359 32.3906 89.9299 32.202 89.7413C32.0134 89.5527 31.9073 89.2969 31.907 89.0302V29.9711C31.9073 29.7044 32.0134 29.4487 32.202 29.2601C32.3906 29.0715 32.6463 28.9654 32.913 28.9651H82.6221C82.8888 28.9654 83.1445 29.0715 83.3331 29.2601C83.5217 29.4487 83.6278 29.7044 83.6281 29.9711V75.8928C83.6278 76.1582 83.5228 76.4127 83.3359 76.6011C83.1489 76.7895 82.8952 76.8964 82.6299 76.8988L32.9207 90.0362Z" fill="#F2F2F2"/>
    <path d="M69.6622 20.6209H46.583V7.24684C46.5833 6.96443 46.6957 6.69368 46.8954 6.49399C47.095 6.29429 47.3658 6.18196 47.6482 6.18164H68.597C68.8794 6.18196 69.1502 6.29429 69.3499 6.49399C69.5496 6.69368 69.6619 6.96443 69.6622 7.24684V20.6209ZM46.8197 20.3842H69.4255V7.24684C69.4253 7.02718 69.3379 6.8166 69.1826 6.66128C69.0273 6.50596 68.8167 6.4186 68.597 6.41835H47.6482C47.4286 6.4186 47.218 6.50596 47.0626 6.66128C46.9073 6.8166 46.82 7.02718 46.8197 7.24684V20.3842Z" fill="#042134"/>
    <path d="M53.1517 11.2709H63.0935C63.3446 11.2709 63.5854 11.3706 63.763 11.5482C63.9406 11.7258 64.0403 11.9666 64.0403 12.2177V26.4203H52.2048V12.2177C52.2048 11.9666 52.3046 11.7258 52.4822 11.5482C52.6597 11.3706 52.9006 11.2709 53.1517 11.2709Z" fill="#E6E6E6"/>
    <path d="M55.1045 6.41845H50.252V1.5659C50.2521 1.409 50.3145 1.25859 50.4255 1.14765C50.5364 1.03671 50.6868 0.974301 50.8437 0.974121H54.5127C54.6696 0.974301 54.82 1.03671 54.931 1.14765C55.0419 1.25859 55.1043 1.409 55.1045 1.5659V6.41845ZM50.4887 6.18174H54.8678V1.5659C54.8677 1.47176 54.8303 1.38151 54.7637 1.31494C54.6971 1.24838 54.6069 1.21093 54.5127 1.21083H50.8437C50.7496 1.21093 50.6593 1.24838 50.5928 1.31494C50.5262 1.38151 50.4888 1.47176 50.4887 1.5659V6.18174Z" fill="#042134"/>
    <path d="M94.9796 77.7676C94.9324 77.7676 94.8865 77.7676 94.8393 77.7664C91.9113 77.734 89.0959 76.6336 86.922 74.6718C86.8417 74.5986 86.7619 74.5245 86.6829 74.4494L86.6462 74.4144V51.7314L86.6575 51.7074C86.7359 51.5413 86.8154 51.3776 86.8948 51.2139C89.3566 46.2158 92.2278 43.4636 94.9796 43.4636C98.948 43.4636 102.026 48.9072 103.507 52.152C105.567 56.6642 107.006 62.2553 107.006 65.7487C107.005 68.9134 105.756 71.9501 103.53 74.2C101.305 76.4498 98.2815 77.7313 95.117 77.7664C95.0728 77.7676 95.0256 77.7676 94.9796 77.7676ZM86.883 74.3129C86.9485 74.3749 87.0147 74.436 87.081 74.4964C89.2124 76.4196 91.9729 77.4983 94.8436 77.5297C94.8916 77.5309 94.9369 77.5296 94.9828 77.5309C95.0257 77.5309 95.0698 77.5309 95.1127 77.5298C101.541 77.4585 106.769 72.1735 106.769 65.7487C106.769 62.2856 105.339 56.7349 103.292 52.2503C101.834 49.0572 98.8156 43.7003 94.9796 43.7003C92.3227 43.7003 89.527 46.4056 87.1075 51.3179C87.0325 51.4723 86.9572 51.6274 86.8829 51.7845L86.883 74.3129Z" fill="#042134"/>
    <path d="M94.9789 92.1177C94.9428 92.1177 94.9082 92.1034 94.8827 92.0778C94.8571 92.0523 94.8428 92.0177 94.8428 91.9815V64.1837C94.8427 64.1658 94.8461 64.148 94.8529 64.1314C94.8597 64.1148 94.8697 64.0996 94.8824 64.0869C94.895 64.0742 94.9101 64.0641 94.9266 64.0572C94.9432 64.0503 94.961 64.0468 94.9789 64.0468C94.9969 64.0468 95.0147 64.0503 95.0312 64.0572C95.0478 64.0641 95.0629 64.0742 95.0755 64.0869C95.0882 64.0996 95.0982 64.1148 95.105 64.1314C95.1118 64.148 95.1152 64.1658 95.1151 64.1837V91.9815C95.1151 92.0177 95.1008 92.0523 95.0752 92.0778C95.0497 92.1034 95.0151 92.1177 94.9789 92.1177Z" fill="#CCCCCC"/>
    <path d="M24.321 92.1177C24.2849 92.1177 24.2502 92.1034 24.2247 92.0778C24.1992 92.0523 24.1848 92.0177 24.1848 91.9815V64.1837C24.1847 64.1658 24.1882 64.148 24.1949 64.1314C24.2017 64.1148 24.2118 64.0996 24.2244 64.0869C24.2371 64.0742 24.2521 64.0641 24.2687 64.0572C24.2853 64.0503 24.303 64.0468 24.321 64.0468C24.3389 64.0468 24.3567 64.0503 24.3733 64.0572C24.3899 64.0641 24.4049 64.0742 24.4176 64.0869C24.4302 64.0996 24.4402 64.1148 24.447 64.1314C24.4538 64.148 24.4573 64.1658 24.4572 64.1837V91.9815C24.4571 92.0177 24.4428 92.0523 24.4173 92.0778C24.3917 92.1034 24.3571 92.1177 24.321 92.1177Z" fill="#CCCCCC"/>
    <path d="M94.9792 69.3775C94.9596 69.3776 94.9403 69.3734 94.9226 69.3653C94.9048 69.3572 94.889 69.3453 94.8762 69.3306L88.0277 61.4327C88.0042 61.4054 87.9924 61.3699 87.995 61.3339C87.9976 61.2979 88.0143 61.2645 88.0416 61.2408C88.0688 61.2172 88.1044 61.2053 88.1403 61.2079C88.1763 61.2104 88.2098 61.2271 88.2335 61.2543L95.082 69.1521C95.0991 69.1719 95.1101 69.1961 95.1139 69.2219C95.1176 69.2477 95.1138 69.2741 95.103 69.2979C95.0921 69.3216 95.0747 69.3417 95.0528 69.3559C95.0308 69.37 95.0053 69.3775 94.9792 69.3775Z" fill="#CCCCCC"/>
    <path d="M94.9789 73.9353C94.952 73.9353 94.9257 73.9273 94.9033 73.9123C94.8809 73.8974 94.8634 73.8761 94.8531 73.8512C94.8428 73.8263 94.8401 73.799 94.8454 73.7725C94.8506 73.7461 94.8636 73.7219 94.8826 73.7028L98.7741 69.8113C98.7996 69.7859 98.8342 69.7717 98.8703 69.7717C98.9063 69.7718 98.9409 69.7861 98.9663 69.8116C98.9918 69.8371 99.0062 69.8717 99.0062 69.9077C99.0063 69.9437 98.992 69.9783 98.9666 70.0039L95.0752 73.8954C95.0626 73.9081 95.0476 73.9181 95.0311 73.9249C95.0145 73.9318 94.9968 73.9353 94.9789 73.9353Z" fill="#CCCCCC"/>
    <path d="M107.578 92.1741H97.3984V92.0558C97.3981 91.3872 97.5295 90.7251 97.7852 90.1073C98.0408 89.4895 98.4156 88.9282 98.8883 88.4553C99.3609 87.9824 99.9221 87.6073 100.54 87.3514C101.157 87.0955 101.819 86.9637 102.488 86.9637C103.157 86.9637 103.819 87.0955 104.436 87.3514C105.054 87.6073 105.615 87.9824 106.088 88.4553C106.56 88.9282 106.935 89.4895 107.191 90.1073C107.446 90.7251 107.578 91.3872 107.578 92.0558L107.578 92.1741ZM97.6366 91.9374H107.339C107.309 90.6712 106.784 89.4673 105.877 88.5827C104.971 87.6981 103.755 87.2029 102.488 87.2029C101.221 87.2029 100.005 87.6981 99.0986 88.5827C98.1921 89.4673 97.6675 90.6712 97.6366 91.9374Z" fill="#042134"/>
    <path d="M102.488 89.1671C102.452 89.1671 102.418 89.1813 102.393 89.2065C102.368 89.2317 102.353 89.2658 102.353 89.3015V90.7288L100.963 89.5354C100.95 89.5239 100.934 89.5151 100.917 89.5095C100.901 89.504 100.883 89.5018 100.865 89.5032C100.848 89.5045 100.83 89.5093 100.815 89.5172C100.799 89.5252 100.785 89.5362 100.773 89.5496C100.762 89.563 100.753 89.5786 100.748 89.5954C100.742 89.6122 100.74 89.6299 100.741 89.6475C100.743 89.6651 100.748 89.6823 100.756 89.6981C100.764 89.7138 100.775 89.7278 100.788 89.7393L102.353 91.0829V91.9214C102.353 91.9391 102.357 91.9566 102.364 91.973C102.37 91.9893 102.38 92.0042 102.393 92.0167C102.405 92.0292 102.42 92.0391 102.436 92.0459C102.453 92.0527 102.47 92.0562 102.488 92.0562C102.506 92.0562 102.523 92.0527 102.539 92.0459C102.556 92.0391 102.571 92.0292 102.583 92.0167C102.595 92.0042 102.605 91.9893 102.612 91.973C102.619 91.9566 102.622 91.9391 102.622 91.9214V89.3015C102.622 89.2658 102.608 89.2317 102.583 89.2065C102.558 89.1813 102.523 89.1671 102.488 89.1671Z" fill="#042134"/>
    <path d="M22.2436 92.1741H12.0645V92.0558C12.0641 91.3872 12.1955 90.7251 12.4512 90.1073C12.7068 89.4895 13.0816 88.9282 13.5543 88.4553C14.0269 87.9824 14.5881 87.6073 15.2058 87.3514C15.8234 87.0955 16.4854 86.9637 17.154 86.9637C17.8226 86.9637 18.4846 87.0955 19.1023 87.3514C19.7199 87.6073 20.2811 87.9824 20.7538 88.4553C21.2264 88.9282 21.6012 89.4895 21.8569 90.1073C22.1125 90.7251 22.2439 91.3872 22.2436 92.0558L22.2436 92.1741ZM12.3026 91.9374H22.0055C21.9746 90.6712 21.4499 89.4673 20.5434 88.5827C19.637 87.6981 18.4206 87.2029 17.154 87.2029C15.8875 87.2029 14.6711 87.6981 13.7646 88.5827C12.8582 89.4673 12.3335 90.6712 12.3026 91.9374Z" fill="#042134"/>
    <path d="M17.1541 89.1671C17.1185 89.1671 17.0843 89.1813 17.0591 89.2065C17.0339 89.2317 17.0197 89.2658 17.0197 89.3015V90.7288L15.6294 89.5354C15.616 89.5239 15.6005 89.5151 15.5837 89.5095C15.5669 89.504 15.5492 89.5018 15.5316 89.5032C15.5139 89.5045 15.4967 89.5093 15.481 89.5172C15.4652 89.5252 15.4512 89.5362 15.4396 89.5496C15.4281 89.563 15.4194 89.5786 15.4139 89.5954C15.4084 89.6122 15.4063 89.6299 15.4076 89.6475C15.409 89.6651 15.4138 89.6823 15.4218 89.6981C15.4298 89.7138 15.4409 89.7278 15.4543 89.7393L17.0197 91.0829V91.9214C17.0197 91.9391 17.0231 91.9566 17.0299 91.973C17.0366 91.9893 17.0465 92.0042 17.059 92.0167C17.0714 92.0292 17.0863 92.0391 17.1026 92.0459C17.1189 92.0527 17.1364 92.0562 17.1541 92.0562C17.1718 92.0562 17.1893 92.0527 17.2056 92.0459C17.2219 92.0391 17.2368 92.0292 17.2493 92.0167C17.2617 92.0042 17.2716 91.9893 17.2784 91.973C17.2851 91.9566 17.2885 91.9391 17.2885 91.9214V89.3015C17.2885 89.2658 17.2743 89.2317 17.2491 89.2065C17.2239 89.1813 17.1897 89.1671 17.1541 89.1671Z" fill="#042134"/>
    <path d="M24.4401 77.7676C24.3929 77.7676 24.347 77.7676 24.2998 77.7664C21.1356 77.7307 18.1131 76.4489 15.8878 74.1992C13.6625 71.9494 12.4139 68.9131 12.4128 65.7487C12.4128 62.2552 13.8516 56.6641 15.9116 52.152C17.3931 48.9072 20.471 43.4636 24.4401 43.4636C26.0749 43.4636 27.7212 44.3954 29.3331 46.2332C29.413 46.3238 29.4931 46.4172 29.5721 46.5128L29.5992 46.5456V76.6062L29.5324 76.6385C29.4528 76.6771 29.3719 76.7133 29.2911 76.7483C27.8058 77.4056 26.2017 77.7521 24.5774 77.7664C24.5333 77.7676 24.486 77.7676 24.4401 77.7676ZM24.4401 43.7003C20.6034 43.7003 17.5848 49.0572 16.1269 52.2503C14.0795 56.7348 12.6496 62.2855 12.6496 65.7487C12.6496 72.1724 17.8778 77.4573 24.3041 77.5297C24.352 77.5309 24.3967 77.5313 24.4432 77.5309C24.4862 77.5309 24.5302 77.5309 24.5731 77.5298C26.1661 77.5159 27.7395 77.1761 29.1962 76.5315C29.2521 76.5072 29.3075 76.4827 29.3624 76.4571V46.6309C29.2939 46.5486 29.2246 46.4682 29.1553 46.3895C27.5901 44.605 26.0038 43.7003 24.4401 43.7003Z" fill="#042134"/>
    <path d="M24.4396 69.3775C24.4201 69.3776 24.4008 69.3734 24.383 69.3653C24.3652 69.3572 24.3494 69.3453 24.3366 69.3306L17.4882 61.4327C17.4646 61.4054 17.4528 61.3699 17.4554 61.3339C17.458 61.2979 17.4748 61.2645 17.502 61.2408C17.5293 61.2172 17.5648 61.2053 17.6008 61.2079C17.6368 61.2104 17.6703 61.2271 17.694 61.2543L24.5424 69.1521C24.5595 69.1719 24.5706 69.1961 24.5743 69.2219C24.578 69.2477 24.5742 69.2741 24.5634 69.2979C24.5526 69.3216 24.5352 69.3417 24.5132 69.3559C24.4913 69.37 24.4657 69.3775 24.4396 69.3775Z" fill="#CCCCCC"/>
    <path d="M24.4394 73.9353C24.4124 73.9353 24.3861 73.9273 24.3637 73.9123C24.3413 73.8974 24.3239 73.8761 24.3136 73.8512C24.3033 73.8263 24.3006 73.799 24.3058 73.7725C24.3111 73.7461 24.3241 73.7219 24.3431 73.7028L28.2345 69.8113C28.2601 69.7859 28.2947 69.7717 28.3307 69.7717C28.3668 69.7718 28.4013 69.7861 28.4268 69.8116C28.4523 69.8371 28.4666 69.8717 28.4667 69.9077C28.4667 69.9437 28.4525 69.9783 28.4271 70.0039L24.5357 73.8954C24.523 73.9081 24.508 73.9181 24.4915 73.9249C24.475 73.9318 24.4573 73.9353 24.4394 73.9353Z" fill="#CCCCCC"/>
    <path d="M35.1333 21.568L35.2209 21.7407C35.2597 21.8153 35.28 21.8981 35.2801 21.9822V26.6572H39.4225V21.9822C39.4225 21.8981 39.4428 21.8153 39.4817 21.7407L39.5693 21.568H35.1333ZM39.1858 21.9822V26.4205H35.5168V21.9822C35.5168 21.9224 35.5097 21.8628 35.4954 21.8047H39.2071C39.1929 21.8628 39.1857 21.9224 39.1858 21.9822ZM40.3409 21.568L40.4285 21.7407C40.4673 21.8153 40.4876 21.8981 40.4877 21.9822V26.6572H44.6301V21.9822C44.6301 21.8981 44.6504 21.8153 44.6893 21.7407L44.7769 21.568H40.3409ZM44.3934 21.9822V26.4205H40.7244V21.9822C40.7244 21.9224 40.7173 21.8628 40.7031 21.8047H44.4147C44.4005 21.8628 44.3933 21.9224 44.3934 21.9822ZM45.5485 21.568L45.6361 21.7407C45.6749 21.8153 45.6952 21.8981 45.6953 21.9822V26.6572H49.8377V21.9822C49.8378 21.8981 49.8581 21.8153 49.8969 21.7407L49.9845 21.568H45.5485ZM49.601 21.9822V26.4205H45.932V21.9822C45.9321 21.9224 45.9249 21.8628 45.9107 21.8047H49.6223C49.6081 21.8628 49.6009 21.9224 49.601 21.9822ZM50.7561 21.568L50.8437 21.7407C50.8826 21.8153 50.9029 21.8981 50.9029 21.9822V26.6572H55.0453V21.9822C55.0454 21.8981 55.0657 21.8153 55.1045 21.7407L55.1921 21.568H50.7561ZM54.8086 21.9822V26.4205H51.1396V21.9822C51.1397 21.9224 51.1325 21.8628 51.1183 21.8047H54.8299C54.8157 21.8628 54.8086 21.9224 54.8086 21.9822ZM55.9637 21.568L56.0513 21.7407C56.0902 21.8153 56.1105 21.8981 56.1105 21.9822V26.6572H60.2529V21.9822C60.253 21.8981 60.2733 21.8153 60.3121 21.7407L60.3997 21.568H55.9637ZM60.0162 21.9822V26.4205H56.3472V21.9822C56.3473 21.9224 56.3401 21.8628 56.3259 21.8047H60.0376C60.0233 21.8628 60.0162 21.9224 60.0162 21.9822ZM61.1714 21.568L61.259 21.7407C61.2978 21.8153 61.3181 21.8981 61.3181 21.9822V26.6572H65.4606V21.9822C65.4606 21.8981 65.4809 21.8153 65.5197 21.7407L65.6074 21.568H61.1714ZM65.2239 21.9822V26.4205H61.5549V21.9822C61.5549 21.9224 61.5478 21.8628 61.5335 21.8047H65.2452C65.2309 21.8628 65.2238 21.9224 65.2239 21.9822ZM66.379 21.568L66.4666 21.7407C66.5054 21.8153 66.5257 21.8981 66.5258 21.9822V26.6572H70.6682V21.9822C70.6682 21.8981 70.6885 21.8153 70.7274 21.7407L70.815 21.568H66.379ZM70.4315 21.9822V26.4205H66.7625V21.9822C66.7625 21.9224 66.7554 21.8628 66.7411 21.8047H70.4528C70.4386 21.8628 70.4314 21.9224 70.4315 21.9822ZM71.5866 21.568L71.6742 21.7407C71.713 21.8153 71.7333 21.8981 71.7334 21.9822V26.6572H75.8758V21.9822C75.8759 21.8981 75.8962 21.8153 75.935 21.7407L76.0226 21.568H71.5866ZM75.6391 21.9822V26.4205H71.9701V21.9822C71.9701 21.9224 71.963 21.8628 71.9488 21.8047H75.6604C75.6462 21.8628 75.639 21.9224 75.6391 21.9822ZM76.7942 21.568L76.8818 21.7407C76.9206 21.8153 76.9409 21.8981 76.941 21.9822V26.6572H81.0834V21.9822C81.0835 21.8981 81.1038 21.8153 81.1426 21.7407L81.2302 21.568H76.7942ZM80.8467 21.9822V26.4205H77.1777V21.9822C77.1778 21.9224 77.1706 21.8628 77.1564 21.8047H80.868C80.8538 21.8628 80.8466 21.9224 80.8467 21.9822ZM76.7942 21.568L76.8818 21.7407C76.9206 21.8153 76.9409 21.8981 76.941 21.9822V26.6572H81.0834V21.9822C81.0835 21.8981 81.1038 21.8153 81.1426 21.7407L81.2302 21.568H76.7942ZM80.8467 21.9822V26.4205H77.1777V21.9822C77.1778 21.9224 77.1706 21.8628 77.1564 21.8047H80.868C80.8538 21.8628 80.8466 21.9224 80.8467 21.9822ZM71.5866 21.568L71.6742 21.7407C71.713 21.8153 71.7333 21.8981 71.7334 21.9822V26.6572H75.8758V21.9822C75.8759 21.8981 75.8962 21.8153 75.935 21.7407L76.0226 21.568H71.5866ZM75.6391 21.9822V26.4205H71.9701V21.9822C71.9701 21.9224 71.963 21.8628 71.9488 21.8047H75.6604C75.6462 21.8628 75.639 21.9224 75.6391 21.9822ZM66.379 21.568L66.4666 21.7407C66.5054 21.8153 66.5257 21.8981 66.5258 21.9822V26.6572H70.6682V21.9822C70.6682 21.8981 70.6885 21.8153 70.7274 21.7407L70.815 21.568H66.379ZM70.4315 21.9822V26.4205H66.7625V21.9822C66.7625 21.9224 66.7554 21.8628 66.7411 21.8047H70.4528C70.4386 21.8628 70.4314 21.9224 70.4315 21.9822ZM61.1714 21.568L61.259 21.7407C61.2978 21.8153 61.3181 21.8981 61.3181 21.9822V26.6572H65.4606V21.9822C65.4606 21.8981 65.4809 21.8153 65.5197 21.7407L65.6074 21.568H61.1714ZM65.2239 21.9822V26.4205H61.5549V21.9822C61.5549 21.9224 61.5478 21.8628 61.5335 21.8047H65.2452C65.2309 21.8628 65.2238 21.9224 65.2239 21.9822ZM55.9637 21.568L56.0513 21.7407C56.0902 21.8153 56.1105 21.8981 56.1105 21.9822V26.6572H60.2529V21.9822C60.253 21.8981 60.2733 21.8153 60.3121 21.7407L60.3997 21.568H55.9637ZM60.0162 21.9822V26.4205H56.3472V21.9822C56.3473 21.9224 56.3401 21.8628 56.3259 21.8047H60.0376C60.0233 21.8628 60.0162 21.9224 60.0162 21.9822ZM50.7561 21.568L50.8437 21.7407C50.8826 21.8153 50.9029 21.8981 50.9029 21.9822V26.6572H55.0453V21.9822C55.0454 21.8981 55.0657 21.8153 55.1045 21.7407L55.1921 21.568H50.7561ZM54.8086 21.9822V26.4205H51.1396V21.9822C51.1397 21.9224 51.1325 21.8628 51.1183 21.8047H54.8299C54.8157 21.8628 54.8086 21.9224 54.8086 21.9822ZM45.5485 21.568L45.6361 21.7407C45.6749 21.8153 45.6952 21.8981 45.6953 21.9822V26.6572H49.8377V21.9822C49.8378 21.8981 49.8581 21.8153 49.8969 21.7407L49.9845 21.568H45.5485ZM49.601 21.9822V26.4205H45.932V21.9822C45.9321 21.9224 45.9249 21.8628 45.9107 21.8047H49.6223C49.6081 21.8628 49.6009 21.9224 49.601 21.9822ZM40.3409 21.568L40.4285 21.7407C40.4673 21.8153 40.4876 21.8981 40.4877 21.9822V26.6572H44.6301V21.9822C44.6301 21.8981 44.6504 21.8153 44.6893 21.7407L44.7769 21.568H40.3409ZM44.3934 21.9822V26.4205H40.7244V21.9822C40.7244 21.9224 40.7173 21.8628 40.7031 21.8047H44.4147C44.4005 21.8628 44.3933 21.9224 44.3934 21.9822ZM35.1333 21.568L35.2209 21.7407C35.2597 21.8153 35.28 21.8981 35.2801 21.9822V26.6572H39.4225V21.9822C39.4225 21.8981 39.4428 21.8153 39.4817 21.7407L39.5693 21.568H35.1333ZM39.1858 21.9822V26.4205H35.5168V21.9822C35.5168 21.9224 35.5097 21.8628 35.4954 21.8047H39.2071C39.1929 21.8628 39.1857 21.9224 39.1858 21.9822ZM76.7942 21.568L76.8818 21.7407C76.9206 21.8153 76.9409 21.8981 76.941 21.9822V26.6572H81.0834V21.9822C81.0835 21.8981 81.1038 21.8153 81.1426 21.7407L81.2302 21.568H76.7942ZM80.8467 21.9822V26.4205H77.1777V21.9822C77.1778 21.9224 77.1706 21.8628 77.1564 21.8047H80.868C80.8538 21.8628 80.8466 21.9224 80.8467 21.9822ZM71.5866 21.568L71.6742 21.7407C71.713 21.8153 71.7333 21.8981 71.7334 21.9822V26.6572H75.8758V21.9822C75.8759 21.8981 75.8962 21.8153 75.935 21.7407L76.0226 21.568H71.5866ZM75.6391 21.9822V26.4205H71.9701V21.9822C71.9701 21.9224 71.963 21.8628 71.9488 21.8047H75.6604C75.6462 21.8628 75.639 21.9224 75.6391 21.9822ZM66.379 21.568L66.4666 21.7407C66.5054 21.8153 66.5257 21.8981 66.5258 21.9822V26.6572H70.6682V21.9822C70.6682 21.8981 70.6885 21.8153 70.7274 21.7407L70.815 21.568H66.379ZM70.4315 21.9822V26.4205H66.7625V21.9822C66.7625 21.9224 66.7554 21.8628 66.7411 21.8047H70.4528C70.4386 21.8628 70.4314 21.9224 70.4315 21.9822ZM61.1714 21.568L61.259 21.7407C61.2978 21.8153 61.3181 21.8981 61.3181 21.9822V26.6572H65.4606V21.9822C65.4606 21.8981 65.4809 21.8153 65.5197 21.7407L65.6074 21.568H61.1714ZM65.2239 21.9822V26.4205H61.5549V21.9822C61.5549 21.9224 61.5478 21.8628 61.5335 21.8047H65.2452C65.2309 21.8628 65.2238 21.9224 65.2239 21.9822ZM55.9637 21.568L56.0513 21.7407C56.0902 21.8153 56.1105 21.8981 56.1105 21.9822V26.6572H60.2529V21.9822C60.253 21.8981 60.2733 21.8153 60.3121 21.7407L60.3997 21.568H55.9637ZM60.0162 21.9822V26.4205H56.3472V21.9822C56.3473 21.9224 56.3401 21.8628 56.3259 21.8047H60.0376C60.0233 21.8628 60.0162 21.9224 60.0162 21.9822ZM50.7561 21.568L50.8437 21.7407C50.8826 21.8153 50.9029 21.8981 50.9029 21.9822V26.6572H55.0453V21.9822C55.0454 21.8981 55.0657 21.8153 55.1045 21.7407L55.1921 21.568H50.7561ZM54.8086 21.9822V26.4205H51.1396V21.9822C51.1397 21.9224 51.1325 21.8628 51.1183 21.8047H54.8299C54.8157 21.8628 54.8086 21.9224 54.8086 21.9822ZM45.5485 21.568L45.6361 21.7407C45.6749 21.8153 45.6952 21.8981 45.6953 21.9822V26.6572H49.8377V21.9822C49.8378 21.8981 49.8581 21.8153 49.8969 21.7407L49.9845 21.568H45.5485ZM49.601 21.9822V26.4205H45.932V21.9822C45.9321 21.9224 45.9249 21.8628 45.9107 21.8047H49.6223C49.6081 21.8628 49.6009 21.9224 49.601 21.9822ZM40.3409 21.568L40.4285 21.7407C40.4673 21.8153 40.4876 21.8981 40.4877 21.9822V26.6572H44.6301V21.9822C44.6301 21.8981 44.6504 21.8153 44.6893 21.7407L44.7769 21.568H40.3409ZM44.3934 21.9822V26.4205H40.7244V21.9822C40.7244 21.9224 40.7173 21.8628 40.7031 21.8047H44.4147C44.4005 21.8628 44.3933 21.9224 44.3934 21.9822ZM35.1333 21.568L35.2209 21.7407C35.2597 21.8153 35.28 21.8981 35.2801 21.9822V26.6572H39.4225V21.9822C39.4225 21.8981 39.4428 21.8153 39.4817 21.7407L39.5693 21.568H35.1333ZM39.1858 21.9822V26.4205H35.5168V21.9822C35.5168 21.9224 35.5097 21.8628 35.4954 21.8047H39.2071C39.1929 21.8628 39.1857 21.9224 39.1858 21.9822ZM76.7942 21.568L76.8818 21.7407C76.9206 21.8153 76.9409 21.8981 76.941 21.9822V26.6572H81.0834V21.9822C81.0835 21.8981 81.1038 21.8153 81.1426 21.7407L81.2302 21.568H76.7942ZM80.8467 21.9822V26.4205H77.1777V21.9822C77.1778 21.9224 77.1706 21.8628 77.1564 21.8047H80.868C80.8538 21.8628 80.8466 21.9224 80.8467 21.9822ZM71.5866 21.568L71.6742 21.7407C71.713 21.8153 71.7333 21.8981 71.7334 21.9822V26.6572H75.8758V21.9822C75.8759 21.8981 75.8962 21.8153 75.935 21.7407L76.0226 21.568H71.5866ZM75.6391 21.9822V26.4205H71.9701V21.9822C71.9701 21.9224 71.963 21.8628 71.9488 21.8047H75.6604C75.6462 21.8628 75.639 21.9224 75.6391 21.9822ZM66.379 21.568L66.4666 21.7407C66.5054 21.8153 66.5257 21.8981 66.5258 21.9822V26.6572H70.6682V21.9822C70.6682 21.8981 70.6885 21.8153 70.7274 21.7407L70.815 21.568H66.379ZM70.4315 21.9822V26.4205H66.7625V21.9822C66.7625 21.9224 66.7554 21.8628 66.7411 21.8047H70.4528C70.4386 21.8628 70.4314 21.9224 70.4315 21.9822ZM61.1714 21.568L61.259 21.7407C61.2978 21.8153 61.3181 21.8981 61.3181 21.9822V26.6572H65.4606V21.9822C65.4606 21.8981 65.4809 21.8153 65.5197 21.7407L65.6074 21.568H61.1714ZM65.2239 21.9822V26.4205H61.5549V21.9822C61.5549 21.9224 61.5478 21.8628 61.5335 21.8047H65.2452C65.2309 21.8628 65.2238 21.9224 65.2239 21.9822ZM55.9637 21.568L56.0513 21.7407C56.0902 21.8153 56.1105 21.8981 56.1105 21.9822V26.6572H60.2529V21.9822C60.253 21.8981 60.2733 21.8153 60.3121 21.7407L60.3997 21.568H55.9637ZM60.0162 21.9822V26.4205H56.3472V21.9822C56.3473 21.9224 56.3401 21.8628 56.3259 21.8047H60.0376C60.0233 21.8628 60.0162 21.9224 60.0162 21.9822ZM50.7561 21.568L50.8437 21.7407C50.8826 21.8153 50.9029 21.8981 50.9029 21.9822V26.6572H55.0453V21.9822C55.0454 21.8981 55.0657 21.8153 55.1045 21.7407L55.1921 21.568H50.7561ZM54.8086 21.9822V26.4205H51.1396V21.9822C51.1397 21.9224 51.1325 21.8628 51.1183 21.8047H54.8299C54.8157 21.8628 54.8086 21.9224 54.8086 21.9822ZM45.5485 21.568L45.6361 21.7407C45.6749 21.8153 45.6952 21.8981 45.6953 21.9822V26.6572H49.8377V21.9822C49.8378 21.8981 49.8581 21.8153 49.8969 21.7407L49.9845 21.568H45.5485ZM49.601 21.9822V26.4205H45.932V21.9822C45.9321 21.9224 45.9249 21.8628 45.9107 21.8047H49.6223C49.6081 21.8628 49.6009 21.9224 49.601 21.9822ZM40.3409 21.568L40.4285 21.7407C40.4673 21.8153 40.4876 21.8981 40.4877 21.9822V26.6572H44.6301V21.9822C44.6301 21.8981 44.6504 21.8153 44.6893 21.7407L44.7769 21.568H40.3409ZM44.3934 21.9822V26.4205H40.7244V21.9822C40.7244 21.9224 40.7173 21.8628 40.7031 21.8047H44.4147C44.4005 21.8628 44.3933 21.9224 44.3934 21.9822ZM35.1333 21.568L35.2209 21.7407C35.2597 21.8153 35.28 21.8981 35.2801 21.9822V26.6572H39.4225V21.9822C39.4225 21.8981 39.4428 21.8153 39.4817 21.7407L39.5693 21.568H35.1333ZM39.1858 21.9822V26.4205H35.5168V21.9822C35.5168 21.9224 35.5097 21.8628 35.4954 21.8047H39.2071C39.1929 21.8628 39.1857 21.9224 39.1858 21.9822ZM76.7942 21.568L76.8818 21.7407C76.9206 21.8153 76.9409 21.8981 76.941 21.9822V26.6572H81.0834V21.9822C81.0835 21.8981 81.1038 21.8153 81.1426 21.7407L81.2302 21.568H76.7942ZM80.8467 21.9822V26.4205H77.1777V21.9822C77.1778 21.9224 77.1706 21.8628 77.1564 21.8047H80.868C80.8538 21.8628 80.8466 21.9224 80.8467 21.9822ZM71.5866 21.568L71.6742 21.7407C71.713 21.8153 71.7333 21.8981 71.7334 21.9822V26.6572H75.8758V21.9822C75.8759 21.8981 75.8962 21.8153 75.935 21.7407L76.0226 21.568H71.5866ZM75.6391 21.9822V26.4205H71.9701V21.9822C71.9701 21.9224 71.963 21.8628 71.9488 21.8047H75.6604C75.6462 21.8628 75.639 21.9224 75.6391 21.9822ZM66.379 21.568L66.4666 21.7407C66.5054 21.8153 66.5257 21.8981 66.5258 21.9822V26.6572H70.6682V21.9822C70.6682 21.8981 70.6885 21.8153 70.7274 21.7407L70.815 21.568H66.379ZM70.4315 21.9822V26.4205H66.7625V21.9822C66.7625 21.9224 66.7554 21.8628 66.7411 21.8047H70.4528C70.4386 21.8628 70.4314 21.9224 70.4315 21.9822ZM61.1714 21.568L61.259 21.7407C61.2978 21.8153 61.3181 21.8981 61.3181 21.9822V26.6572H65.4606V21.9822C65.4606 21.8981 65.4809 21.8153 65.5197 21.7407L65.6074 21.568H61.1714ZM65.2239 21.9822V26.4205H61.5549V21.9822C61.5549 21.9224 61.5478 21.8628 61.5335 21.8047H65.2452C65.2309 21.8628 65.2238 21.9224 65.2239 21.9822ZM55.9637 21.568L56.0513 21.7407C56.0902 21.8153 56.1105 21.8981 56.1105 21.9822V26.6572H60.2529V21.9822C60.253 21.8981 60.2733 21.8153 60.3121 21.7407L60.3997 21.568H55.9637ZM60.0162 21.9822V26.4205H56.3472V21.9822C56.3473 21.9224 56.3401 21.8628 56.3259 21.8047H60.0376C60.0233 21.8628 60.0162 21.9224 60.0162 21.9822ZM50.7561 21.568L50.8437 21.7407C50.8826 21.8153 50.9029 21.8981 50.9029 21.9822V26.6572H55.0453V21.9822C55.0454 21.8981 55.0657 21.8153 55.1045 21.7407L55.1921 21.568H50.7561ZM54.8086 21.9822V26.4205H51.1396V21.9822C51.1397 21.9224 51.1325 21.8628 51.1183 21.8047H54.8299C54.8157 21.8628 54.8086 21.9224 54.8086 21.9822ZM45.5485 21.568L45.6361 21.7407C45.6749 21.8153 45.6952 21.8981 45.6953 21.9822V26.6572H49.8377V21.9822C49.8378 21.8981 49.8581 21.8153 49.8969 21.7407L49.9845 21.568H45.5485ZM49.601 21.9822V26.4205H45.932V21.9822C45.9321 21.9224 45.9249 21.8628 45.9107 21.8047H49.6223C49.6081 21.8628 49.6009 21.9224 49.601 21.9822ZM40.3409 21.568L40.4285 21.7407C40.4673 21.8153 40.4876 21.8981 40.4877 21.9822V26.6572H44.6301V21.9822C44.6301 21.8981 44.6504 21.8153 44.6893 21.7407L44.7769 21.568H40.3409ZM44.3934 21.9822V26.4205H40.7244V21.9822C40.7244 21.9224 40.7173 21.8628 40.7031 21.8047H44.4147C44.4005 21.8628 44.3933 21.9224 44.3934 21.9822ZM35.1333 21.568L35.2209 21.7407C35.2597 21.8153 35.28 21.8981 35.2801 21.9822V26.6572H39.4225V21.9822C39.4225 21.8981 39.4428 21.8153 39.4817 21.7407L39.5693 21.568H35.1333ZM39.1858 21.9822V26.4205H35.5168V21.9822C35.5168 21.9224 35.5097 21.8628 35.4954 21.8047H39.2071C39.1929 21.8628 39.1857 21.9224 39.1858 21.9822ZM76.7942 21.568L76.8818 21.7407C76.9206 21.8153 76.9409 21.8981 76.941 21.9822V26.6572H81.0834V21.9822C81.0835 21.8981 81.1038 21.8153 81.1426 21.7407L81.2302 21.568H76.7942ZM80.8467 21.9822V26.4205H77.1777V21.9822C77.1778 21.9224 77.1706 21.8628 77.1564 21.8047H80.868C80.8538 21.8628 80.8466 21.9224 80.8467 21.9822ZM71.6742 21.7407C71.713 21.8153 71.7333 21.8981 71.7334 21.9822V26.6572H75.8758V21.9822C75.8759 21.8981 75.8962 21.8153 75.935 21.7407L76.0226 21.568H71.5866L71.6742 21.7407ZM75.6604 21.8047C75.6462 21.8628 75.639 21.9224 75.6391 21.9822V26.4205H71.9701V21.9822C71.9701 21.9224 71.963 21.8628 71.9488 21.8047H75.6604ZM66.4666 21.7407C66.5054 21.8153 66.5257 21.8981 66.5258 21.9822V26.6572H70.6682V21.9822C70.6682 21.8981 70.6885 21.8153 70.7274 21.7407L70.815 21.568H66.379L66.4666 21.7407ZM70.4528 21.8047C70.4386 21.8628 70.4314 21.9224 70.4315 21.9822V26.4205H66.7625V21.9822C66.7625 21.9224 66.7554 21.8628 66.7411 21.8047H70.4528ZM61.259 21.7407C61.2978 21.8153 61.3181 21.8981 61.3181 21.9822V26.6572H65.4606V21.9822C65.4606 21.8981 65.4809 21.8153 65.5197 21.7407L65.6074 21.568H61.1714L61.259 21.7407ZM65.2452 21.8047C65.2309 21.8628 65.2238 21.9224 65.2239 21.9822V26.4205H61.5549V21.9822C61.5549 21.9224 61.5478 21.8628 61.5335 21.8047H65.2452ZM56.0513 21.7407C56.0902 21.8153 56.1105 21.8981 56.1105 21.9822V26.6572H60.2529V21.9822C60.253 21.8981 60.2733 21.8153 60.3121 21.7407L60.3997 21.568H55.9637L56.0513 21.7407ZM60.0376 21.8047C60.0233 21.8628 60.0162 21.9224 60.0162 21.9822V26.4205H56.3472V21.9822C56.3473 21.9224 56.3401 21.8628 56.3259 21.8047H60.0376ZM50.8437 21.7407C50.8826 21.8153 50.9029 21.8981 50.9029 21.9822V26.6572H55.0453V21.9822C55.0454 21.8981 55.0657 21.8153 55.1045 21.7407L55.1921 21.568H50.7561L50.8437 21.7407ZM54.8299 21.8047C54.8157 21.8628 54.8086 21.9224 54.8086 21.9822V26.4205H51.1396V21.9822C51.1397 21.9224 51.1325 21.8628 51.1183 21.8047H54.8299ZM45.6361 21.7407C45.6749 21.8153 45.6952 21.8981 45.6953 21.9822V26.6572H49.8377V21.9822C49.8378 21.8981 49.8581 21.8153 49.8969 21.7407L49.9845 21.568H45.5485L45.6361 21.7407ZM49.6223 21.8047C49.6081 21.8628 49.6009 21.9224 49.601 21.9822V26.4205H45.932V21.9822C45.9321 21.9224 45.9249 21.8628 45.9107 21.8047H49.6223ZM40.4285 21.7407C40.4673 21.8153 40.4876 21.8981 40.4877 21.9822V26.6572H44.6301V21.9822C44.6301 21.8981 44.6504 21.8153 44.6893 21.7407L44.7769 21.568H40.3409L40.4285 21.7407ZM44.4147 21.8047C44.4005 21.8628 44.3933 21.9224 44.3934 21.9822V26.4205H40.7244V21.9822C40.7244 21.9224 40.7173 21.8628 40.7031 21.8047H44.4147ZM35.2209 21.7407C35.2597 21.8153 35.28 21.8981 35.2801 21.9822V26.6572H39.4225V21.9822C39.4225 21.8981 39.4428 21.8153 39.4817 21.7407L39.5693 21.568H35.1333L35.2209 21.7407ZM39.2071 21.8047C39.1929 21.8628 39.1857 21.9224 39.1858 21.9822V26.4205H35.5168V21.9822C35.5168 21.9224 35.5097 21.8628 35.4954 21.8047H39.2071ZM76.8818 21.7407C76.9206 21.8153 76.9409 21.8981 76.941 21.9822V26.6572H81.0834V21.9822C81.0835 21.8981 81.1038 21.8153 81.1426 21.7407L81.2302 21.568H76.7942L76.8818 21.7407ZM80.868 21.8047C80.8538 21.8628 80.8466 21.9224 80.8467 21.9822V26.4205H77.1777V21.9822C77.1778 21.9224 77.1706 21.8628 77.1564 21.8047H80.868ZM71.6742 21.7407C71.713 21.8153 71.7333 21.8981 71.7334 21.9822V26.6572H75.8758V21.9822C75.8759 21.8981 75.8962 21.8153 75.935 21.7407L76.0226 21.568H71.5866L71.6742 21.7407ZM75.6604 21.8047C75.6462 21.8628 75.639 21.9224 75.6391 21.9822V26.4205H71.9701V21.9822C71.9701 21.9224 71.963 21.8628 71.9488 21.8047H75.6604ZM66.4666 21.7407C66.5054 21.8153 66.5257 21.8981 66.5258 21.9822V26.6572H70.6682V21.9822C70.6682 21.8981 70.6885 21.8153 70.7274 21.7407L70.815 21.568H66.379L66.4666 21.7407ZM70.4528 21.8047C70.4386 21.8628 70.4314 21.9224 70.4315 21.9822V26.4205H66.7625V21.9822C66.7625 21.9224 66.7554 21.8628 66.7411 21.8047H70.4528ZM61.259 21.7407C61.2978 21.8153 61.3181 21.8981 61.3181 21.9822V26.6572H65.4606V21.9822C65.4606 21.8981 65.4809 21.8153 65.5197 21.7407L65.6074 21.568H61.1714L61.259 21.7407ZM65.2452 21.8047C65.2309 21.8628 65.2238 21.9224 65.2239 21.9822V26.4205H61.5549V21.9822C61.5549 21.9224 61.5478 21.8628 61.5335 21.8047H65.2452ZM56.0513 21.7407C56.0902 21.8153 56.1105 21.8981 56.1105 21.9822V26.6572H60.2529V21.9822C60.253 21.8981 60.2733 21.8153 60.3121 21.7407L60.3997 21.568H55.9637L56.0513 21.7407ZM60.0376 21.8047C60.0233 21.8628 60.0162 21.9224 60.0162 21.9822V26.4205H56.3472V21.9822C56.3473 21.9224 56.3401 21.8628 56.3259 21.8047H60.0376ZM50.8437 21.7407C50.8826 21.8153 50.9029 21.8981 50.9029 21.9822V26.6572H55.0453V21.9822C55.0454 21.8981 55.0657 21.8153 55.1045 21.7407L55.1921 21.568H50.7561L50.8437 21.7407ZM54.8299 21.8047C54.8157 21.8628 54.8086 21.9224 54.8086 21.9822V26.4205H51.1396V21.9822C51.1397 21.9224 51.1325 21.8628 51.1183 21.8047H54.8299ZM45.6361 21.7407C45.6749 21.8153 45.6952 21.8981 45.6953 21.9822V26.6572H49.8377V21.9822C49.8378 21.8981 49.8581 21.8153 49.8969 21.7407L49.9845 21.568H45.5485L45.6361 21.7407ZM49.6223 21.8047C49.6081 21.8628 49.6009 21.9224 49.601 21.9822V26.4205H45.932V21.9822C45.9321 21.9224 45.9249 21.8628 45.9107 21.8047H49.6223ZM40.4285 21.7407C40.4673 21.8153 40.4876 21.8981 40.4877 21.9822V26.6572H44.6301V21.9822C44.6301 21.8981 44.6504 21.8153 44.6893 21.7407L44.7769 21.568H40.3409L40.4285 21.7407ZM44.4147 21.8047C44.4005 21.8628 44.3933 21.9224 44.3934 21.9822V26.4205H40.7244V21.9822C40.7244 21.9224 40.7173 21.8628 40.7031 21.8047H44.4147ZM35.2209 21.7407C35.2597 21.8153 35.28 21.8981 35.2801 21.9822V26.6572H39.4225V21.9822C39.4225 21.8981 39.4428 21.8153 39.4817 21.7407L39.5693 21.568H35.1333L35.2209 21.7407ZM39.2071 21.8047C39.1929 21.8628 39.1857 21.9224 39.1858 21.9822V26.4205H35.5168V21.9822C35.5168 21.9224 35.5097 21.8628 35.4954 21.8047H39.2071ZM85.8176 27.3673H84.4068C84.329 27.0951 84.1648 26.8555 83.9389 26.6847C83.7131 26.5139 83.4378 26.4212 83.1546 26.4205H82.3853V21.9822C82.3856 21.8869 82.3675 21.7925 82.332 21.7041C82.4661 21.6251 82.5705 21.5042 82.6291 21.36C82.6877 21.2158 82.6971 21.0563 82.6561 20.9062C82.615 20.7561 82.5257 20.6237 82.4019 20.5294C82.2781 20.4351 82.1267 20.3841 81.9711 20.3844H34.3924C34.2368 20.3841 34.0854 20.4351 33.9616 20.5294C33.8378 20.6237 33.7484 20.7561 33.7074 20.9062C33.6663 21.0563 33.6758 21.2158 33.7344 21.36C33.7929 21.5042 33.8973 21.6251 34.0314 21.7041C33.9959 21.7925 33.9778 21.8869 33.9781 21.9822V26.4205H33.2088C32.9257 26.4212 32.6504 26.5139 32.4245 26.6847C32.1987 26.8555 32.0344 27.0951 31.9566 27.3673H30.4275C30.1451 27.3678 29.8744 27.4801 29.6748 27.6798C29.4751 27.8795 29.3627 28.1502 29.3623 28.4325V90.924C29.3629 91.2063 29.4753 91.4768 29.675 91.6765C29.8746 91.8761 30.1452 91.9885 30.4275 91.9891H85.8176C86.1 91.9887 86.3707 91.8764 86.5704 91.6767C86.77 91.477 86.8824 91.2063 86.8828 90.924V28.4325C86.8824 28.1502 86.77 27.8795 86.5704 27.6798C86.3707 27.4801 86.1 27.3678 85.8176 27.3673ZM86.6461 90.924C86.6459 91.0931 86.594 91.2581 86.4973 91.3969C86.4006 91.5357 86.2638 91.6416 86.1052 91.7004C86.0134 91.7353 85.9159 91.753 85.8176 91.7524H30.4275C30.3292 91.753 30.2317 91.7353 30.1399 91.7004C29.9813 91.6416 29.8445 91.5357 29.7478 91.3969C29.6511 91.2581 29.5992 91.0931 29.599 90.924V28.4325C29.5993 28.2129 29.6866 28.0023 29.8419 27.847C29.9973 27.6917 30.2078 27.6043 30.4275 27.6041H32.146L32.165 27.5094C32.2147 27.2691 32.3456 27.0533 32.5357 26.8981C32.7258 26.7429 32.9635 26.6579 33.2088 26.6572H34.2149V21.9822C34.2149 21.8859 34.2411 21.7914 34.2906 21.7088L34.364 21.5869L34.2302 21.5372C34.1257 21.4993 34.0379 21.4257 33.9823 21.3295C33.9267 21.2332 33.9068 21.1204 33.9262 21.011C33.9456 20.9015 34.003 20.8024 34.0882 20.7311C34.1735 20.6598 34.2812 20.6208 34.3924 20.6211H81.9711C82.0822 20.6208 82.1899 20.6598 82.2752 20.7311C82.3605 20.8024 82.4179 20.9015 82.4373 21.011C82.4566 21.1204 82.4368 21.2332 82.3812 21.3295C82.3255 21.4257 82.2377 21.4993 82.1332 21.5372L81.9995 21.5869L82.0728 21.7088C82.1224 21.7914 82.1486 21.8859 82.1486 21.9822V26.6572H83.1546C83.4 26.6579 83.6377 26.7429 83.8278 26.8981C84.0178 27.0533 84.1487 27.2691 84.1985 27.5094L84.2174 27.6041H85.8176C86.0373 27.6043 86.2478 27.6917 86.4032 27.847C86.5585 28.0023 86.6458 28.2129 86.6461 28.4325L86.6461 90.924ZM35.1333 21.568L35.2209 21.7407C35.2597 21.8153 35.28 21.8981 35.2801 21.9822V26.6572H39.4225V21.9822C39.4225 21.8981 39.4428 21.8153 39.4817 21.7407L39.5693 21.568H35.1333ZM39.1858 21.9822V26.4205H35.5168V21.9822C35.5168 21.9224 35.5097 21.8628 35.4954 21.8047H39.2071C39.1929 21.8628 39.1857 21.9224 39.1858 21.9822ZM40.3409 21.568L40.4285 21.7407C40.4673 21.8153 40.4876 21.8981 40.4877 21.9822V26.6572H44.6301V21.9822C44.6301 21.8981 44.6504 21.8153 44.6893 21.7407L44.7769 21.568H40.3409ZM44.3934 21.9822V26.4205H40.7244V21.9822C40.7244 21.9224 40.7173 21.8628 40.7031 21.8047H44.4147C44.4005 21.8628 44.3933 21.9224 44.3934 21.9822ZM45.5485 21.568L45.6361 21.7407C45.6749 21.8153 45.6952 21.8981 45.6953 21.9822V26.6572H49.8377V21.9822C49.8378 21.8981 49.8581 21.8153 49.8969 21.7407L49.9845 21.568H45.5485ZM49.601 21.9822V26.4205H45.932V21.9822C45.9321 21.9224 45.9249 21.8628 45.9107 21.8047H49.6223C49.6081 21.8628 49.6009 21.9224 49.601 21.9822ZM50.7561 21.568L50.8437 21.7407C50.8826 21.8153 50.9029 21.8981 50.9029 21.9822V26.6572H55.0453V21.9822C55.0454 21.8981 55.0657 21.8153 55.1045 21.7407L55.1921 21.568H50.7561ZM54.8086 21.9822V26.4205H51.1396V21.9822C51.1397 21.9224 51.1325 21.8628 51.1183 21.8047H54.8299C54.8157 21.8628 54.8086 21.9224 54.8086 21.9822ZM55.9637 21.568L56.0513 21.7407C56.0902 21.8153 56.1105 21.8981 56.1105 21.9822V26.6572H60.2529V21.9822C60.253 21.8981 60.2733 21.8153 60.3121 21.7407L60.3997 21.568H55.9637ZM60.0162 21.9822V26.4205H56.3472V21.9822C56.3473 21.9224 56.3401 21.8628 56.3259 21.8047H60.0376C60.0233 21.8628 60.0162 21.9224 60.0162 21.9822ZM61.1714 21.568L61.259 21.7407C61.2978 21.8153 61.3181 21.8981 61.3181 21.9822V26.6572H65.4606V21.9822C65.4606 21.8981 65.4809 21.8153 65.5197 21.7407L65.6074 21.568H61.1714ZM65.2239 21.9822V26.4205H61.5549V21.9822C61.5549 21.9224 61.5478 21.8628 61.5335 21.8047H65.2452C65.2309 21.8628 65.2238 21.9224 65.2239 21.9822ZM66.379 21.568L66.4666 21.7407C66.5054 21.8153 66.5257 21.8981 66.5258 21.9822V26.6572H70.6682V21.9822C70.6682 21.8981 70.6885 21.8153 70.7274 21.7407L70.815 21.568H66.379ZM70.4315 21.9822V26.4205H66.7625V21.9822C66.7625 21.9224 66.7554 21.8628 66.7411 21.8047H70.4528C70.4386 21.8628 70.4314 21.9224 70.4315 21.9822ZM71.5866 21.568L71.6742 21.7407C71.713 21.8153 71.7333 21.8981 71.7334 21.9822V26.6572H75.8758V21.9822C75.8759 21.8981 75.8962 21.8153 75.935 21.7407L76.0226 21.568H71.5866ZM75.6391 21.9822V26.4205H71.9701V21.9822C71.9701 21.9224 71.963 21.8628 71.9488 21.8047H75.6604C75.6462 21.8628 75.639 21.9224 75.6391 21.9822ZM76.7942 21.568L76.8818 21.7407C76.9206 21.8153 76.9409 21.8981 76.941 21.9822V26.6572H81.0834V21.9822C81.0835 21.8981 81.1038 21.8153 81.1426 21.7407L81.2302 21.568H76.7942ZM80.8467 21.9822V26.4205H77.1777V21.9822C77.1778 21.9224 77.1706 21.8628 77.1564 21.8047H80.868C80.8538 21.8628 80.8466 21.9224 80.8467 21.9822ZM35.1333 21.568L35.2209 21.7407C35.2597 21.8153 35.28 21.8981 35.2801 21.9822V26.6572H39.4225V21.9822C39.4225 21.8981 39.4428 21.8153 39.4817 21.7407L39.5693 21.568H35.1333ZM39.1858 21.9822V26.4205H35.5168V21.9822C35.5168 21.9224 35.5097 21.8628 35.4954 21.8047H39.2071C39.1929 21.8628 39.1857 21.9224 39.1858 21.9822ZM40.3409 21.568L40.4285 21.7407C40.4673 21.8153 40.4876 21.8981 40.4877 21.9822V26.6572H44.6301V21.9822C44.6301 21.8981 44.6504 21.8153 44.6893 21.7407L44.7769 21.568H40.3409ZM44.3934 21.9822V26.4205H40.7244V21.9822C40.7244 21.9224 40.7173 21.8628 40.7031 21.8047H44.4147C44.4005 21.8628 44.3933 21.9224 44.3934 21.9822ZM45.5485 21.568L45.6361 21.7407C45.6749 21.8153 45.6952 21.8981 45.6953 21.9822V26.6572H49.8377V21.9822C49.8378 21.8981 49.8581 21.8153 49.8969 21.7407L49.9845 21.568H45.5485ZM49.601 21.9822V26.4205H45.932V21.9822C45.9321 21.9224 45.9249 21.8628 45.9107 21.8047H49.6223C49.6081 21.8628 49.6009 21.9224 49.601 21.9822ZM50.7561 21.568L50.8437 21.7407C50.8826 21.8153 50.9029 21.8981 50.9029 21.9822V26.6572H55.0453V21.9822C55.0454 21.8981 55.0657 21.8153 55.1045 21.7407L55.1921 21.568H50.7561ZM54.8086 21.9822V26.4205H51.1396V21.9822C51.1397 21.9224 51.1325 21.8628 51.1183 21.8047H54.8299C54.8157 21.8628 54.8086 21.9224 54.8086 21.9822ZM55.9637 21.568L56.0513 21.7407C56.0902 21.8153 56.1105 21.8981 56.1105 21.9822V26.6572H60.2529V21.9822C60.253 21.8981 60.2733 21.8153 60.3121 21.7407L60.3997 21.568H55.9637ZM60.0162 21.9822V26.4205H56.3472V21.9822C56.3473 21.9224 56.3401 21.8628 56.3259 21.8047H60.0376C60.0233 21.8628 60.0162 21.9224 60.0162 21.9822ZM61.1714 21.568L61.259 21.7407C61.2978 21.8153 61.3181 21.8981 61.3181 21.9822V26.6572H65.4606V21.9822C65.4606 21.8981 65.4809 21.8153 65.5197 21.7407L65.6074 21.568H61.1714ZM65.2239 21.9822V26.4205H61.5549V21.9822C61.5549 21.9224 61.5478 21.8628 61.5335 21.8047H65.2452C65.2309 21.8628 65.2238 21.9224 65.2239 21.9822ZM66.379 21.568L66.4666 21.7407C66.5054 21.8153 66.5257 21.8981 66.5258 21.9822V26.6572H70.6682V21.9822C70.6682 21.8981 70.6885 21.8153 70.7274 21.7407L70.815 21.568H66.379ZM70.4315 21.9822V26.4205H66.7625V21.9822C66.7625 21.9224 66.7554 21.8628 66.7411 21.8047H70.4528C70.4386 21.8628 70.4314 21.9224 70.4315 21.9822ZM71.5866 21.568L71.6742 21.7407C71.713 21.8153 71.7333 21.8981 71.7334 21.9822V26.6572H75.8758V21.9822C75.8759 21.8981 75.8962 21.8153 75.935 21.7407L76.0226 21.568H71.5866ZM75.6391 21.9822V26.4205H71.9701V21.9822C71.9701 21.9224 71.963 21.8628 71.9488 21.8047H75.6604C75.6462 21.8628 75.639 21.9224 75.6391 21.9822ZM76.7942 21.568L76.8818 21.7407C76.9206 21.8153 76.9409 21.8981 76.941 21.9822V26.6572H81.0834V21.9822C81.0835 21.8981 81.1038 21.8153 81.1426 21.7407L81.2302 21.568H76.7942ZM80.8467 21.9822V26.4205H77.1777V21.9822C77.1778 21.9224 77.1706 21.8628 77.1564 21.8047H80.868C80.8538 21.8628 80.8466 21.9224 80.8467 21.9822ZM35.1333 21.568L35.2209 21.7407C35.2597 21.8153 35.28 21.8981 35.2801 21.9822V26.6572H39.4225V21.9822C39.4225 21.8981 39.4428 21.8153 39.4817 21.7407L39.5693 21.568H35.1333ZM39.1858 21.9822V26.4205H35.5168V21.9822C35.5168 21.9224 35.5097 21.8628 35.4954 21.8047H39.2071C39.1929 21.8628 39.1857 21.9224 39.1858 21.9822ZM40.3409 21.568L40.4285 21.7407C40.4673 21.8153 40.4876 21.8981 40.4877 21.9822V26.6572H44.6301V21.9822C44.6301 21.8981 44.6504 21.8153 44.6893 21.7407L44.7769 21.568H40.3409ZM44.3934 21.9822V26.4205H40.7244V21.9822C40.7244 21.9224 40.7173 21.8628 40.7031 21.8047H44.4147C44.4005 21.8628 44.3933 21.9224 44.3934 21.9822ZM45.5485 21.568L45.6361 21.7407C45.6749 21.8153 45.6952 21.8981 45.6953 21.9822V26.6572H49.8377V21.9822C49.8378 21.8981 49.8581 21.8153 49.8969 21.7407L49.9845 21.568H45.5485ZM49.601 21.9822V26.4205H45.932V21.9822C45.9321 21.9224 45.9249 21.8628 45.9107 21.8047H49.6223C49.6081 21.8628 49.6009 21.9224 49.601 21.9822ZM50.7561 21.568L50.8437 21.7407C50.8826 21.8153 50.9029 21.8981 50.9029 21.9822V26.6572H55.0453V21.9822C55.0454 21.8981 55.0657 21.8153 55.1045 21.7407L55.1921 21.568H50.7561ZM54.8086 21.9822V26.4205H51.1396V21.9822C51.1397 21.9224 51.1325 21.8628 51.1183 21.8047H54.8299C54.8157 21.8628 54.8086 21.9224 54.8086 21.9822ZM55.9637 21.568L56.0513 21.7407C56.0902 21.8153 56.1105 21.8981 56.1105 21.9822V26.6572H60.2529V21.9822C60.253 21.8981 60.2733 21.8153 60.3121 21.7407L60.3997 21.568H55.9637ZM60.0162 21.9822V26.4205H56.3472V21.9822C56.3473 21.9224 56.3401 21.8628 56.3259 21.8047H60.0376C60.0233 21.8628 60.0162 21.9224 60.0162 21.9822ZM61.1714 21.568L61.259 21.7407C61.2978 21.8153 61.3181 21.8981 61.3181 21.9822V26.6572H65.4606V21.9822C65.4606 21.8981 65.4809 21.8153 65.5197 21.7407L65.6074 21.568H61.1714ZM65.2239 21.9822V26.4205H61.5549V21.9822C61.5549 21.9224 61.5478 21.8628 61.5335 21.8047H65.2452C65.2309 21.8628 65.2238 21.9224 65.2239 21.9822ZM66.379 21.568L66.4666 21.7407C66.5054 21.8153 66.5257 21.8981 66.5258 21.9822V26.6572H70.6682V21.9822C70.6682 21.8981 70.6885 21.8153 70.7274 21.7407L70.815 21.568H66.379ZM70.4315 21.9822V26.4205H66.7625V21.9822C66.7625 21.9224 66.7554 21.8628 66.7411 21.8047H70.4528C70.4386 21.8628 70.4314 21.9224 70.4315 21.9822ZM71.5866 21.568L71.6742 21.7407C71.713 21.8153 71.7333 21.8981 71.7334 21.9822V26.6572H75.8758V21.9822C75.8759 21.8981 75.8962 21.8153 75.935 21.7407L76.0226 21.568H71.5866ZM75.6391 21.9822V26.4205H71.9701V21.9822C71.9701 21.9224 71.963 21.8628 71.9488 21.8047H75.6604C75.6462 21.8628 75.639 21.9224 75.6391 21.9822ZM76.7942 21.568L76.8818 21.7407C76.9206 21.8153 76.9409 21.8981 76.941 21.9822V26.6572H81.0834V21.9822C81.0835 21.8981 81.1038 21.8153 81.1426 21.7407L81.2302 21.568H76.7942ZM80.8467 21.9822V26.4205H77.1777V21.9822C77.1778 21.9224 77.1706 21.8628 77.1564 21.8047H80.868C80.8538 21.8628 80.8466 21.9224 80.8467 21.9822ZM35.1333 21.568L35.2209 21.7407C35.2597 21.8153 35.28 21.8981 35.2801 21.9822V26.6572H39.4225V21.9822C39.4225 21.8981 39.4428 21.8153 39.4817 21.7407L39.5693 21.568H35.1333ZM39.1858 21.9822V26.4205H35.5168V21.9822C35.5168 21.9224 35.5097 21.8628 35.4954 21.8047H39.2071C39.1929 21.8628 39.1857 21.9224 39.1858 21.9822ZM40.3409 21.568L40.4285 21.7407C40.4673 21.8153 40.4876 21.8981 40.4877 21.9822V26.6572H44.6301V21.9822C44.6301 21.8981 44.6504 21.8153 44.6893 21.7407L44.7769 21.568H40.3409ZM44.3934 21.9822V26.4205H40.7244V21.9822C40.7244 21.9224 40.7173 21.8628 40.7031 21.8047H44.4147C44.4005 21.8628 44.3933 21.9224 44.3934 21.9822ZM45.5485 21.568L45.6361 21.7407C45.6749 21.8153 45.6952 21.8981 45.6953 21.9822V26.6572H49.8377V21.9822C49.8378 21.8981 49.8581 21.8153 49.8969 21.7407L49.9845 21.568H45.5485ZM49.601 21.9822V26.4205H45.932V21.9822C45.9321 21.9224 45.9249 21.8628 45.9107 21.8047H49.6223C49.6081 21.8628 49.6009 21.9224 49.601 21.9822ZM50.7561 21.568L50.8437 21.7407C50.8826 21.8153 50.9029 21.8981 50.9029 21.9822V26.6572H55.0453V21.9822C55.0454 21.8981 55.0657 21.8153 55.1045 21.7407L55.1921 21.568H50.7561ZM54.8086 21.9822V26.4205H51.1396V21.9822C51.1397 21.9224 51.1325 21.8628 51.1183 21.8047H54.8299C54.8157 21.8628 54.8086 21.9224 54.8086 21.9822ZM55.9637 21.568L56.0513 21.7407C56.0902 21.8153 56.1105 21.8981 56.1105 21.9822V26.6572H60.2529V21.9822C60.253 21.8981 60.2733 21.8153 60.3121 21.7407L60.3997 21.568H55.9637ZM60.0162 21.9822V26.4205H56.3472V21.9822C56.3473 21.9224 56.3401 21.8628 56.3259 21.8047H60.0376C60.0233 21.8628 60.0162 21.9224 60.0162 21.9822ZM61.1714 21.568L61.259 21.7407C61.2978 21.8153 61.3181 21.8981 61.3181 21.9822V26.6572H65.4606V21.9822C65.4606 21.8981 65.4809 21.8153 65.5197 21.7407L65.6074 21.568H61.1714ZM65.2239 21.9822V26.4205H61.5549V21.9822C61.5549 21.9224 61.5478 21.8628 61.5335 21.8047H65.2452C65.2309 21.8628 65.2238 21.9224 65.2239 21.9822ZM66.379 21.568L66.4666 21.7407C66.5054 21.8153 66.5257 21.8981 66.5258 21.9822V26.6572H70.6682V21.9822C70.6682 21.8981 70.6885 21.8153 70.7274 21.7407L70.815 21.568H66.379ZM70.4315 21.9822V26.4205H66.7625V21.9822C66.7625 21.9224 66.7554 21.8628 66.7411 21.8047H70.4528C70.4386 21.8628 70.4314 21.9224 70.4315 21.9822ZM71.5866 21.568L71.6742 21.7407C71.713 21.8153 71.7333 21.8981 71.7334 21.9822V26.6572H75.8758V21.9822C75.8759 21.8981 75.8962 21.8153 75.935 21.7407L76.0226 21.568H71.5866ZM75.6391 21.9822V26.4205H71.9701V21.9822C71.9701 21.9224 71.963 21.8628 71.9488 21.8047H75.6604C75.6462 21.8628 75.639 21.9224 75.6391 21.9822ZM76.7942 21.568L76.8818 21.7407C76.9206 21.8153 76.9409 21.8981 76.941 21.9822V26.6572H81.0834V21.9822C81.0835 21.8981 81.1038 21.8153 81.1426 21.7407L81.2302 21.568H76.7942ZM80.8467 21.9822V26.4205H77.1777V21.9822C77.1778 21.9224 77.1706 21.8628 77.1564 21.8047H80.868C80.8538 21.8628 80.8466 21.9224 80.8467 21.9822Z" fill="#042134"/>
    <path d="M49.2049 42.28H40.477C40.2932 42.2798 40.117 42.2067 39.987 42.0767C39.857 41.9467 39.7839 41.7705 39.7837 41.5867V36.9372C39.7839 36.7534 39.857 36.5772 39.987 36.4472C40.117 36.3172 40.2932 36.2441 40.477 36.2439H49.2049C49.3887 36.2441 49.565 36.3172 49.6949 36.4472C49.8249 36.5772 49.898 36.7534 49.8982 36.9372V41.5867C49.898 41.7705 49.8249 41.9467 49.6949 42.0767C49.565 42.2067 49.3887 42.2798 49.2049 42.28Z" fill="#6C63FF"/>
    <path d="M62.4866 42.28H53.7588C53.575 42.2798 53.3987 42.2067 53.2687 42.0767C53.1388 41.9467 53.0656 41.7705 53.0654 41.5867V36.9372C53.0656 36.7534 53.1388 36.5772 53.2687 36.4472C53.3987 36.3172 53.575 36.2441 53.7588 36.2439H62.4866C62.6705 36.2441 62.8467 36.3172 62.9767 36.4472C63.1067 36.5772 63.1798 36.7534 63.18 36.9372V41.5867C63.1798 41.7705 63.1067 41.9467 62.9767 42.0767C62.8467 42.2067 62.6705 42.2798 62.4866 42.28Z" fill="#6C63FF"/>
    <path d="M75.7684 42.28H67.0405C66.8567 42.2798 66.6804 42.2067 66.5505 42.0767C66.4205 41.9467 66.3474 41.7705 66.3472 41.5867V36.9372C66.3474 36.7534 66.4205 36.5772 66.5505 36.4472C66.6804 36.3172 66.8567 36.2441 67.0405 36.2439H75.7684C75.9522 36.2441 76.1284 36.3172 76.2584 36.4472C76.3884 36.5772 76.4615 36.7534 76.4617 36.9372V41.5867C76.4615 41.7705 76.3884 41.9467 76.2584 42.0767C76.1284 42.2067 75.9522 42.2798 75.7684 42.28Z" fill="#6C63FF"/>
    <path d="M49.2049 57.7845H40.477C40.2932 57.7843 40.117 57.7112 39.987 57.5812C39.857 57.4512 39.7839 57.275 39.7837 57.0912V52.4417C39.7839 52.2579 39.857 52.0817 39.987 51.9517C40.117 51.8217 40.2932 51.7486 40.477 51.7484H49.2049C49.3887 51.7486 49.565 51.8217 49.6949 51.9517C49.8249 52.0817 49.898 52.2579 49.8982 52.4417V57.0912C49.898 57.275 49.8249 57.4512 49.6949 57.5812C49.565 57.7112 49.3887 57.7843 49.2049 57.7845Z" fill="#6C63FF"/>
    <path d="M62.4866 57.7845H53.7588C53.575 57.7843 53.3987 57.7112 53.2687 57.5812C53.1388 57.4512 53.0656 57.275 53.0654 57.0912V52.4417C53.0656 52.2579 53.1388 52.0817 53.2687 51.9517C53.3987 51.8217 53.575 51.7486 53.7588 51.7484H62.4866C62.6705 51.7486 62.8467 51.8217 62.9767 51.9517C63.1067 52.0817 63.1798 52.2579 63.18 52.4417V57.0912C63.1798 57.275 63.1067 57.4512 62.9767 57.5812C62.8467 57.7112 62.6705 57.7843 62.4866 57.7845Z" fill="#6C63FF"/>
    <path d="M75.7684 57.7845H67.0405C66.8567 57.7843 66.6804 57.7112 66.5505 57.5812C66.4205 57.4512 66.3474 57.275 66.3472 57.0912V52.4417C66.3474 52.2579 66.4205 52.0817 66.5505 51.9517C66.6804 51.8217 66.8567 51.7486 67.0405 51.7484H75.7684C75.9522 51.7486 76.1284 51.8217 76.2584 51.9517C76.3884 52.0817 76.4615 52.2579 76.4617 52.4417V57.0912C76.4615 57.275 76.3884 57.4512 76.2584 57.5812C76.1284 57.7112 75.9522 57.7843 75.7684 57.7845Z" fill="#6C63FF"/>
    <path d="M49.2049 73.2889H40.477C40.2932 73.2887 40.117 73.2156 39.987 73.0856C39.857 72.9556 39.7839 72.7794 39.7837 72.5956V67.9461C39.7839 67.7623 39.857 67.5861 39.987 67.4561C40.117 67.3261 40.2932 67.253 40.477 67.2528H49.2049C49.3887 67.253 49.565 67.3261 49.6949 67.4561C49.8249 67.5861 49.898 67.7623 49.8982 67.9461V72.5956C49.898 72.7794 49.8249 72.9556 49.6949 73.0856C49.565 73.2156 49.3887 73.2887 49.2049 73.2889Z" fill="#6C63FF"/>
    <path d="M62.4866 73.2889H53.7588C53.575 73.2887 53.3987 73.2156 53.2687 73.0856C53.1388 72.9556 53.0656 72.7794 53.0654 72.5956V67.9461C53.0656 67.7623 53.1388 67.5861 53.2687 67.4561C53.3987 67.3261 53.575 67.253 53.7588 67.2528H62.4866C62.6705 67.253 62.8467 67.3261 62.9767 67.4561C63.1067 67.5861 63.1798 67.7623 63.18 67.9461V72.5956C63.1798 72.7794 63.1067 72.9556 62.9767 73.0856C62.8467 73.2156 62.6705 73.2887 62.4866 73.2889Z" fill="#6C63FF"/>
    <path d="M75.7684 73.2889H67.0405C66.8567 73.2887 66.6804 73.2156 66.5505 73.0856C66.4205 72.9556 66.3474 72.7794 66.3472 72.5956V67.9461C66.3474 67.7623 66.4205 67.5861 66.5505 67.4561C66.6804 67.3261 66.8567 67.253 67.0405 67.2528H75.7684C75.9522 67.253 76.1284 67.3261 76.2584 67.4561C76.3884 67.5861 76.4615 67.7623 76.4617 67.9461V72.5956C76.4615 72.7794 76.3884 72.9556 76.2584 73.0856C76.1284 73.2156 75.9522 73.2887 75.7684 73.2889Z" fill="#6C63FF"/>
    <path d="M47.7918 42.8765H37.6811C37.4367 42.8762 37.2025 42.779 37.0297 42.6062C36.857 42.4334 36.7598 42.1992 36.7595 41.9549V36.5688C36.7598 36.3245 36.857 36.0902 37.0297 35.9175C37.2025 35.7447 37.4367 35.6475 37.6811 35.6472H47.7918C48.0361 35.6475 48.2704 35.7447 48.4432 35.9175C48.6159 36.0902 48.7131 36.3245 48.7134 36.5688V41.9549C48.7131 42.1992 48.6159 42.4335 48.4432 42.6062C48.2704 42.779 48.0361 42.8762 47.7918 42.8765ZM37.6811 35.8839C37.4995 35.8841 37.3254 35.9564 37.197 36.0848C37.0686 36.2132 36.9964 36.3872 36.9962 36.5688V41.9549C36.9964 42.1364 37.0686 42.3105 37.197 42.4389C37.3254 42.5673 37.4995 42.6395 37.6811 42.6398H47.7918C47.9734 42.6395 48.1475 42.5673 48.2759 42.4389C48.4043 42.3105 48.4765 42.1365 48.4767 41.9549V36.5688C48.4765 36.3872 48.4043 36.2131 48.2759 36.0847C48.1475 35.9564 47.9734 35.8841 47.7918 35.8839H37.6811Z" fill="#042134"/>
    <path d="M63.1781 42.8765H53.0673C52.823 42.8762 52.5887 42.779 52.416 42.6062C52.2432 42.4335 52.146 42.1992 52.1458 41.9549V36.5688C52.146 36.3245 52.2432 36.0902 52.416 35.9175C52.5887 35.7447 52.823 35.6475 53.0673 35.6472H63.178C63.4224 35.6475 63.6566 35.7447 63.8294 35.9175C64.0022 36.0902 64.0993 36.3245 64.0996 36.5688V41.9549C64.0993 42.1992 64.0022 42.4335 63.8294 42.6062C63.6566 42.779 63.4224 42.8762 63.1781 42.8765ZM53.0673 35.8839C52.8857 35.8841 52.7117 35.9564 52.5833 36.0847C52.4549 36.2131 52.3827 36.3872 52.3825 36.5688V41.9549C52.3827 42.1365 52.4549 42.3105 52.5833 42.4389C52.7117 42.5673 52.8857 42.6395 53.0673 42.6398H63.178C63.3596 42.6395 63.5337 42.5673 63.6621 42.4389C63.7905 42.3105 63.8627 42.1365 63.8629 41.9549V36.5688C63.8627 36.3872 63.7905 36.2131 63.6621 36.0847C63.5337 35.9564 63.3596 35.8841 63.178 35.8839H53.0673Z" fill="#042134"/>
    <path d="M78.564 42.8765H68.4533C68.209 42.8762 67.9747 42.779 67.802 42.6062C67.6292 42.4335 67.532 42.1992 67.5317 41.9549V36.5688C67.532 36.3245 67.6292 36.0902 67.802 35.9175C67.9747 35.7447 68.209 35.6475 68.4533 35.6472H78.564C78.8084 35.6475 79.0426 35.7447 79.2154 35.9175C79.3881 36.0902 79.4853 36.3245 79.4856 36.5688V41.9549C79.4853 42.1992 79.3881 42.4335 79.2154 42.6062C79.0426 42.779 78.8084 42.8762 78.564 42.8765ZM68.4533 35.8839C68.2717 35.8841 68.0976 35.9564 67.9693 36.0847C67.8409 36.2131 67.7686 36.3872 67.7684 36.5688V41.9549C67.7686 42.1365 67.8409 42.3105 67.9693 42.4389C68.0976 42.5673 68.2717 42.6395 68.4533 42.6398H78.564C78.7456 42.6395 78.9197 42.5673 79.0481 42.4389C79.1765 42.3105 79.2487 42.1365 79.2489 41.9549V36.5688C79.2487 36.3872 79.1765 36.2131 79.0481 36.0847C78.9197 35.9564 78.7456 35.8841 78.564 35.8839H68.4533Z" fill="#042134"/>
    <path d="M47.7918 58.3811H37.6811C37.4367 58.3808 37.2025 58.2836 37.0297 58.1109C36.857 57.9381 36.7598 57.7038 36.7595 57.4595V52.0734C36.7598 51.8291 36.857 51.5949 37.0297 51.4221C37.2025 51.2493 37.4367 51.1521 37.6811 51.1519H47.7918C48.0361 51.1521 48.2704 51.2493 48.4432 51.4221C48.6159 51.5949 48.7131 51.8291 48.7134 52.0734V57.4595C48.7131 57.7038 48.6159 57.9381 48.4432 58.1109C48.2704 58.2836 48.0361 58.3808 47.7918 58.3811ZM37.6811 51.3886C37.4995 51.3888 37.3254 51.461 37.197 51.5894C37.0686 51.7178 36.9964 51.8919 36.9962 52.0734V57.4595C36.9964 57.6411 37.0686 57.8152 37.197 57.9436C37.3254 58.072 37.4995 58.1442 37.6811 58.1444H47.7918C47.9734 58.1442 48.1475 58.072 48.2759 57.9436C48.4043 57.8152 48.4765 57.6411 48.4767 57.4595V52.0734C48.4765 51.8919 48.4043 51.7178 48.2759 51.5894C48.1475 51.461 47.9734 51.3888 47.7918 51.3886H37.6811Z" fill="#042134"/>
    <path d="M63.1781 58.3811H53.0673C52.823 58.3808 52.5887 58.2836 52.416 58.1109C52.2432 57.9381 52.146 57.7038 52.1458 57.4595V52.0734C52.146 51.8291 52.2432 51.5949 52.416 51.4221C52.5887 51.2493 52.823 51.1521 53.0673 51.1519H63.178C63.4224 51.1521 63.6566 51.2493 63.8294 51.4221C64.0022 51.5949 64.0993 51.8291 64.0996 52.0734V57.4595C64.0993 57.7038 64.0022 57.9381 63.8294 58.1109C63.6566 58.2836 63.4224 58.3808 63.1781 58.3811ZM53.0673 51.3886C52.8857 51.3888 52.7117 51.461 52.5833 51.5894C52.4549 51.7178 52.3827 51.8919 52.3825 52.0734V57.4595C52.3827 57.6411 52.4549 57.8152 52.5833 57.9436C52.7117 58.072 52.8857 58.1442 53.0673 58.1444H63.178C63.3596 58.1442 63.5337 58.072 63.6621 57.9436C63.7905 57.8152 63.8627 57.6411 63.8629 57.4595V52.0734C63.8627 51.8919 63.7905 51.7178 63.6621 51.5894C63.5337 51.461 63.3596 51.3888 63.178 51.3886H53.0673Z" fill="#042134"/>
    <path d="M78.564 58.3811H68.4533C68.209 58.3808 67.9747 58.2836 67.802 58.1109C67.6292 57.9381 67.532 57.7038 67.5317 57.4595V52.0734C67.532 51.8291 67.6292 51.5949 67.802 51.4221C67.9747 51.2493 68.209 51.1521 68.4533 51.1519H78.564C78.8084 51.1521 79.0426 51.2493 79.2154 51.4221C79.3881 51.5949 79.4853 51.8291 79.4856 52.0734V57.4595C79.4853 57.7038 79.3881 57.9381 79.2154 58.1109C79.0426 58.2836 78.8084 58.3808 78.564 58.3811ZM68.4533 51.3886C68.2717 51.3888 68.0976 51.461 67.9693 51.5894C67.8409 51.7178 67.7686 51.8919 67.7684 52.0734V57.4595C67.7686 57.6411 67.8409 57.8152 67.9693 57.9436C68.0976 58.072 68.2717 58.1442 68.4533 58.1444H78.564C78.7456 58.1442 78.9197 58.072 79.0481 57.9436C79.1765 57.8152 79.2487 57.6411 79.2489 57.4595V52.0734C79.2487 51.8919 79.1765 51.7178 79.0481 51.5894C78.9197 51.461 78.7456 51.3888 78.564 51.3886H68.4533Z" fill="#042134"/>
    <path d="M47.7918 73.8856H37.6811C37.4367 73.8853 37.2025 73.7881 37.0297 73.6154C36.857 73.4426 36.7598 73.2084 36.7595 72.964V67.578C36.7598 67.3336 36.857 67.0994 37.0297 66.9266C37.2025 66.7538 37.4367 66.6567 37.6811 66.6564H47.7918C48.0361 66.6567 48.2704 66.7538 48.4432 66.9266C48.6159 67.0994 48.7131 67.3336 48.7134 67.578V72.964C48.7131 73.2084 48.6159 73.4426 48.4432 73.6154C48.2704 73.7882 48.0361 73.8853 47.7918 73.8856ZM37.6811 66.8931C37.4995 66.8933 37.3254 66.9655 37.197 67.0939C37.0686 67.2223 36.9964 67.3964 36.9962 67.578V72.964C36.9964 73.1456 37.0686 73.3197 37.197 73.4481C37.3254 73.5765 37.4995 73.6487 37.6811 73.6489H47.7918C47.9734 73.6487 48.1475 73.5765 48.2759 73.4481C48.4043 73.3197 48.4765 73.1456 48.4767 72.964V67.578C48.4765 67.3964 48.4043 67.2223 48.2759 67.0939C48.1475 66.9655 47.9734 66.8933 47.7918 66.8931H37.6811Z" fill="#042134"/>
    <path d="M63.1781 73.8856H53.0673C52.823 73.8853 52.5887 73.7882 52.416 73.6154C52.2432 73.4426 52.146 73.2084 52.1458 72.964V67.578C52.146 67.3336 52.2432 67.0994 52.416 66.9266C52.5887 66.7538 52.823 66.6567 53.0673 66.6564H63.178C63.4224 66.6567 63.6566 66.7538 63.8294 66.9266C64.0022 67.0994 64.0993 67.3336 64.0996 67.578V72.964C64.0993 73.2084 64.0022 73.4426 63.8294 73.6154C63.6566 73.7881 63.4224 73.8853 63.1781 73.8856ZM53.0673 66.8931C52.8857 66.8933 52.7117 66.9655 52.5833 67.0939C52.4549 67.2223 52.3827 67.3964 52.3825 67.578V72.964C52.3827 73.1456 52.4549 73.3197 52.5833 73.4481C52.7117 73.5765 52.8857 73.6487 53.0673 73.6489H63.178C63.3596 73.6487 63.5337 73.5765 63.6621 73.4481C63.7905 73.3197 63.8627 73.1456 63.8629 72.964V67.578C63.8627 67.3964 63.7905 67.2223 63.6621 67.0939C63.5337 66.9655 63.3596 66.8933 63.178 66.8931H53.0673Z" fill="#042134"/>
    <path d="M78.564 73.8856H68.4533C68.209 73.8853 67.9747 73.7882 67.802 73.6154C67.6292 73.4426 67.532 73.2084 67.5317 72.964V67.578C67.532 67.3336 67.6292 67.0994 67.802 66.9266C67.9747 66.7538 68.209 66.6567 68.4533 66.6564H78.564C78.8084 66.6567 79.0426 66.7538 79.2154 66.9266C79.3881 67.0994 79.4853 67.3336 79.4856 67.578V72.964C79.4853 73.2084 79.3881 73.4426 79.2154 73.6154C79.0426 73.7881 78.8084 73.8853 78.564 73.8856ZM68.4533 66.8931C68.2717 66.8933 68.0976 66.9655 67.9693 67.0939C67.8409 67.2223 67.7686 67.3964 67.7684 67.578V72.964C67.7686 73.1456 67.8409 73.3197 67.9693 73.4481C68.0976 73.5765 68.2717 73.6487 68.4533 73.6489H78.564C78.7456 73.6487 78.9197 73.5765 79.0481 73.4481C79.1765 73.3197 79.2487 73.1456 79.2489 72.964V67.578C79.2487 67.3964 79.1765 67.2223 79.0481 67.0939C78.9197 66.9655 78.7456 66.8933 78.564 66.8931H68.4533Z" fill="#042134"/>
    <path d="M64.0995 80.7111C64.1027 80.441 63.9986 80.1807 63.8099 79.9873C63.6213 79.794 63.3636 79.6835 63.0935 79.6802H58.1226V91.9299H64.0995V80.7111Z" fill="#042134"/>
    <path d="M58.387 91.8206H52.1733V80.7544C52.1737 80.4563 52.2922 80.1705 52.503 79.9597C52.7138 79.7489 52.9996 79.6303 53.2977 79.63H58.387V91.8206ZM52.41 91.5839H58.1503V79.8667H53.2977C53.0624 79.867 52.8367 79.9606 52.6703 80.127C52.5039 80.2934 52.4103 80.519 52.41 80.7544V91.5839Z" fill="#042134"/>
    <path d="M52.7967 86.5447C52.9928 86.5447 53.1518 86.3858 53.1518 86.1897C53.1518 85.9936 52.9928 85.8346 52.7967 85.8346C52.6006 85.8346 52.4417 85.9936 52.4417 86.1897C52.4417 86.3858 52.6006 86.5447 52.7967 86.5447Z" fill="#042134"/>
  </g>
  <defs>
    <clipPath id="clip0_271_2345">
      <rect width="119.538" height="91.2" fill="white" transform="translate(0.333252 0.973999)"/>
    </clipPath>
  </defs>
</svg>