<svg xmlns="http://www.w3.org/2000/svg" width="251" height="192" viewBox="0 0 251 192" fill="none">
  <g clip-path="url(#clip0_385_7212)">
    <path d="M36.2108 113.257C44.9599 113.257 52.0524 106.165 52.0524 97.4157C52.0524 88.6666 44.9599 81.5741 36.2108 81.5741C27.4618 81.5741 20.3693 88.6666 20.3693 97.4157C20.3693 106.165 27.4618 113.257 36.2108 113.257Z" fill="#FF6584"/>
    <path d="M68.6525 186.896H68.6364C68.0786 186.895 67.5438 186.673 67.1494 186.279C66.755 185.885 66.5331 185.35 66.5325 184.792V61.2771C66.5331 60.7193 66.755 60.1845 67.1494 59.7901C67.5438 59.3956 68.0786 59.1738 68.6364 59.1731H172.597C173.155 59.1737 173.689 59.3956 174.084 59.79C174.478 60.1845 174.7 60.7193 174.701 61.2771V157.317C174.7 157.872 174.481 158.404 174.09 158.798C173.699 159.192 173.168 159.416 172.613 159.421L68.6525 186.896Z" fill="#F2F2F2"/>
    <path d="M145.493 41.7225H97.2257V13.7522C97.2264 13.1615 97.4613 12.5953 97.8789 12.1777C98.2966 11.76 98.8628 11.5251 99.4534 11.5244H143.265C143.856 11.5251 144.422 11.76 144.84 12.1777C145.257 12.5953 145.492 13.1615 145.493 13.7522V41.7225ZM97.7208 41.2274H144.998V13.7522C144.997 13.2928 144.815 12.8524 144.49 12.5275C144.165 12.2027 143.725 12.02 143.265 12.0195H99.4534C98.9941 12.02 98.5536 12.2027 98.2288 12.5275C97.904 12.8524 97.7213 13.2928 97.7208 13.7522V41.2274Z" fill="#3F3D56"/>
    <path d="M110.963 22.168H131.755C132.28 22.168 132.784 22.3766 133.156 22.748C133.527 23.1193 133.736 23.623 133.736 24.1482V53.8511H108.983V24.1482C108.983 23.623 109.192 23.1193 109.563 22.748C109.934 22.3766 110.438 22.168 110.963 22.168Z" fill="#E6E6E6"/>
    <path d="M115.047 12.0195H104.899V1.871C104.899 1.54288 105.03 1.2283 105.262 0.996283C105.494 0.764265 105.808 0.633752 106.137 0.633377H113.81C114.138 0.633752 114.453 0.764265 114.685 0.996283C114.917 1.2283 115.047 1.54288 115.047 1.871V12.0195ZM105.394 11.5245H114.552V1.871C114.552 1.67412 114.474 1.48537 114.335 1.34616C114.195 1.20695 114.007 1.12864 113.81 1.12843H106.137C105.94 1.12864 105.751 1.20695 105.612 1.34616C105.472 1.48537 105.394 1.67412 105.394 1.871V11.5245Z" fill="#3F3D56"/>
    <path d="M198.441 161.237C198.342 161.237 198.246 161.237 198.148 161.235C192.024 161.167 186.136 158.866 181.59 154.763C181.422 154.61 181.255 154.455 181.089 154.298L181.013 154.225V106.786L181.036 106.736C181.2 106.388 181.367 106.046 181.533 105.704C186.681 95.2508 192.686 89.4949 198.441 89.4949C206.74 89.4949 213.177 100.879 216.275 107.666C220.583 117.102 223.592 128.795 223.592 136.101C223.59 142.72 220.978 149.071 216.324 153.776C211.669 158.481 205.347 161.162 198.728 161.235C198.636 161.237 198.537 161.237 198.441 161.237ZM181.508 154.012C181.645 154.142 181.783 154.27 181.922 154.396C186.38 158.418 192.153 160.674 198.157 160.74C198.257 160.742 198.352 160.74 198.448 160.742C198.537 160.742 198.63 160.742 198.719 160.74C212.163 160.591 223.097 149.538 223.097 136.101C223.097 128.859 220.107 117.25 215.825 107.871C212.776 101.193 206.464 89.9899 198.441 89.9899C192.885 89.9899 187.038 95.6477 181.977 105.921C181.821 106.244 181.663 106.568 181.508 106.897L181.508 154.012Z" fill="#3F3D56"/>
    <path d="M198.44 191.249C198.364 191.249 198.292 191.219 198.238 191.166C198.185 191.112 198.155 191.04 198.155 190.964V132.829C198.155 132.791 198.162 132.754 198.176 132.719C198.19 132.684 198.211 132.653 198.238 132.626C198.264 132.6 198.296 132.578 198.33 132.564C198.365 132.55 198.402 132.542 198.44 132.542C198.477 132.542 198.515 132.55 198.549 132.564C198.584 132.578 198.615 132.6 198.642 132.626C198.668 132.653 198.689 132.684 198.703 132.719C198.718 132.754 198.725 132.791 198.725 132.829V190.964C198.725 191.04 198.695 191.112 198.641 191.166C198.588 191.219 198.515 191.249 198.44 191.249Z" fill="#CCCCCC"/>
    <path d="M50.6676 191.249C50.5921 191.249 50.5196 191.219 50.4662 191.166C50.4128 191.112 50.3828 191.04 50.3828 190.964V132.829C50.3826 132.791 50.3898 132.754 50.404 132.719C50.4182 132.684 50.4392 132.653 50.4656 132.626C50.4921 132.6 50.5236 132.578 50.5582 132.564C50.5929 132.55 50.6301 132.542 50.6676 132.542C50.7051 132.542 50.7423 132.55 50.777 132.564C50.8116 132.578 50.8431 132.6 50.8696 132.626C50.896 132.653 50.917 132.684 50.9312 132.719C50.9454 132.754 50.9526 132.791 50.9524 132.829V190.964C50.9524 191.04 50.9224 191.112 50.869 191.166C50.8156 191.219 50.7431 191.249 50.6676 191.249Z" fill="#CCCCCC"/>
    <path d="M198.44 143.691C198.399 143.691 198.359 143.682 198.322 143.665C198.285 143.648 198.251 143.623 198.225 143.593L183.902 127.075C183.853 127.018 183.828 126.944 183.834 126.868C183.839 126.793 183.874 126.723 183.931 126.674C183.988 126.624 184.062 126.6 184.138 126.605C184.213 126.61 184.283 126.645 184.332 126.702L198.655 143.219C198.691 143.261 198.714 143.311 198.722 143.365C198.73 143.419 198.722 143.474 198.699 143.524C198.676 143.574 198.64 143.616 198.594 143.645C198.548 143.675 198.495 143.691 198.44 143.691Z" fill="#CCCCCC"/>
    <path d="M198.44 153.223C198.383 153.223 198.328 153.206 198.282 153.175C198.235 153.143 198.198 153.099 198.177 153.047C198.155 152.995 198.15 152.938 198.16 152.882C198.171 152.827 198.199 152.776 198.238 152.737L206.377 144.598C206.43 144.545 206.503 144.515 206.578 144.515C206.653 144.515 206.726 144.545 206.779 144.599C206.832 144.652 206.862 144.724 206.862 144.8C206.862 144.875 206.833 144.947 206.78 145.001L198.641 153.139C198.615 153.166 198.583 153.187 198.549 153.201C198.514 153.215 198.477 153.223 198.44 153.223Z" fill="#CCCCCC"/>
    <path d="M224.788 191.367H203.5V191.119C203.499 189.721 203.774 188.336 204.308 187.044C204.843 185.752 205.627 184.578 206.615 183.589C207.604 182.601 208.778 181.816 210.069 181.281C211.361 180.746 212.746 180.47 214.144 180.47C215.542 180.47 216.927 180.746 218.218 181.281C219.51 181.816 220.684 182.601 221.672 183.589C222.661 184.578 223.445 185.752 223.979 187.044C224.514 188.336 224.789 189.721 224.788 191.119L224.788 191.367ZM203.998 190.872H224.29C224.225 188.224 223.128 185.706 221.232 183.856C219.337 182.006 216.793 180.97 214.144 180.97C211.495 180.97 208.951 182.006 207.055 183.856C205.16 185.706 204.062 188.224 203.998 190.872Z" fill="#3F3D56"/>
    <path d="M214.144 185.078C214.069 185.078 213.998 185.108 213.945 185.161C213.892 185.213 213.863 185.285 213.863 185.359V188.344L210.955 185.848C210.927 185.824 210.895 185.806 210.86 185.794C210.824 185.783 210.787 185.778 210.751 185.781C210.714 185.784 210.678 185.794 210.645 185.81C210.612 185.827 210.582 185.85 210.558 185.878C210.534 185.906 210.516 185.939 210.504 185.974C210.493 186.009 210.488 186.046 210.491 186.083C210.494 186.12 210.504 186.156 210.521 186.189C210.538 186.222 210.561 186.251 210.589 186.275L213.863 189.085V190.839C213.863 190.876 213.87 190.912 213.884 190.946C213.898 190.981 213.919 191.012 213.945 191.038C213.971 191.064 214.002 191.085 214.036 191.099C214.07 191.113 214.107 191.12 214.144 191.12C214.181 191.12 214.217 191.113 214.252 191.099C214.286 191.085 214.317 191.064 214.343 191.038C214.369 191.012 214.39 190.981 214.404 190.946C214.418 190.912 214.425 190.876 214.425 190.839V185.359C214.425 185.285 214.395 185.213 214.343 185.161C214.29 185.108 214.218 185.078 214.144 185.078Z" fill="#3F3D56"/>
    <path d="M46.3228 191.367H25.0344V191.119C25.0338 189.721 25.3086 188.336 25.8432 187.044C26.3778 185.752 27.1618 184.578 28.1502 183.589C29.1387 182.601 30.3123 181.816 31.6041 181.281C32.8958 180.746 34.2804 180.47 35.6786 180.47C37.0769 180.47 38.4614 180.746 39.7532 181.281C41.0449 181.816 42.2186 182.601 43.207 183.589C44.1955 184.578 44.9794 185.752 45.5141 187.044C46.0487 188.336 46.3235 189.721 46.3228 191.119L46.3228 191.367ZM25.5324 190.872H45.8248C45.7602 188.224 44.6629 185.706 42.7672 183.856C40.8714 182.006 38.3275 180.97 35.6786 180.97C33.0298 180.97 30.4858 182.006 28.5901 183.856C26.6944 185.706 25.597 188.224 25.5324 190.872Z" fill="#3F3D56"/>
    <path d="M35.6785 185.078C35.604 185.078 35.5325 185.108 35.4798 185.161C35.4271 185.213 35.3975 185.285 35.3975 185.359V188.344L32.4897 185.848C32.4617 185.824 32.4293 185.806 32.3942 185.794C32.3591 185.783 32.322 185.778 32.2852 185.781C32.2483 185.784 32.2124 185.794 32.1794 185.81C32.1464 185.827 32.117 185.85 32.0929 185.878C32.0689 185.906 32.0506 185.939 32.0391 185.974C32.0276 186.009 32.0231 186.046 32.026 186.083C32.0288 186.12 32.0389 186.156 32.0557 186.189C32.0724 186.222 32.0955 186.251 32.1236 186.275L35.3975 189.085V190.839C35.3974 190.876 35.4046 190.912 35.4187 190.946C35.4328 190.981 35.4534 191.012 35.4795 191.038C35.5056 191.064 35.5367 191.085 35.5708 191.099C35.605 191.113 35.6416 191.12 35.6785 191.12C35.7155 191.12 35.7521 191.113 35.7863 191.099C35.8204 191.085 35.8514 191.064 35.8775 191.038C35.9036 191.012 35.9243 190.981 35.9384 190.946C35.9525 190.912 35.9597 190.876 35.9595 190.839V185.359C35.9595 185.285 35.9299 185.213 35.8772 185.161C35.8245 185.108 35.7531 185.078 35.6785 185.078Z" fill="#3F3D56"/>
    <path d="M50.9163 161.237C50.8177 161.237 50.7216 161.237 50.623 161.235C44.0055 161.16 37.6842 158.48 33.0303 153.775C28.3764 149.069 25.7651 142.719 25.7628 136.101C25.7628 128.795 28.7718 117.102 33.08 107.666C36.1783 100.879 42.6155 89.4949 50.9163 89.4949C54.3354 89.4949 57.7783 91.4437 61.1494 95.2872C61.3165 95.4767 61.4841 95.6719 61.6492 95.8719L61.7059 95.9406V158.808L61.5663 158.876C61.3997 158.957 61.2307 159.033 61.0616 159.106C57.9552 160.48 54.6004 161.205 51.2036 161.235C51.1112 161.237 51.0124 161.237 50.9163 161.237ZM50.9163 89.99C42.8923 89.99 36.5793 101.193 33.5304 107.871C29.2484 117.25 26.2579 128.859 26.2579 136.101C26.2579 149.536 37.192 160.589 50.6319 160.74C50.7321 160.743 50.8255 160.743 50.9228 160.742C51.0127 160.742 51.1048 160.742 51.1946 160.74C54.5262 160.711 57.8165 160 60.8632 158.652C60.98 158.602 61.096 158.55 61.2108 158.497V96.1189C61.0675 95.9467 60.9226 95.7785 60.7777 95.614C57.5042 91.882 54.1866 89.99 50.9163 89.99Z" fill="#3F3D56"/>
    <path d="M50.9153 143.691C50.8744 143.691 50.8341 143.682 50.7969 143.665C50.7597 143.648 50.7267 143.623 50.6999 143.593L36.3772 127.075C36.3279 127.018 36.3033 126.944 36.3087 126.868C36.3142 126.793 36.3492 126.723 36.4062 126.674C36.4632 126.624 36.5375 126.6 36.6127 126.605C36.688 126.61 36.7581 126.645 36.8076 126.702L51.1303 143.219C51.1661 143.261 51.1892 143.311 51.197 143.365C51.2048 143.419 51.1968 143.474 51.1742 143.524C51.1515 143.574 51.1151 143.616 51.0692 143.645C51.0233 143.675 50.9699 143.691 50.9153 143.691Z" fill="#CCCCCC"/>
    <path d="M50.9151 153.223C50.8588 153.223 50.8037 153.206 50.7569 153.175C50.7101 153.143 50.6736 153.099 50.652 153.047C50.6305 152.995 50.6249 152.938 50.6358 152.882C50.6468 152.827 50.6739 152.776 50.7138 152.737L58.8522 144.598C58.9056 144.545 58.978 144.515 59.0534 144.515C59.1288 144.515 59.201 144.545 59.2543 144.599C59.3076 144.652 59.3376 144.724 59.3377 144.8C59.3378 144.875 59.308 144.947 59.2549 145.001L51.1165 153.139C51.0901 153.166 51.0587 153.187 51.0241 153.201C50.9896 153.215 50.9525 153.223 50.9151 153.223Z" fill="#CCCCCC"/>
    <path d="M73.2801 43.7029L73.4633 44.0642C73.5445 44.2202 73.5869 44.3934 73.5871 44.5692V54.3464H82.2504V44.5692C82.2505 44.3934 82.293 44.2202 82.3742 44.0642L82.5574 43.7029H73.2801ZM81.7554 44.5692V53.8514H74.0821V44.5692C74.0822 44.4441 74.0673 44.3194 74.0375 44.1979H81.8C81.7702 44.3194 81.7552 44.4441 81.7554 44.5692ZM84.1712 43.7029L84.3544 44.0642C84.4356 44.2202 84.478 44.3934 84.4781 44.5692V54.3464H93.1415V44.5692C93.1416 44.3934 93.1841 44.2202 93.2653 44.0642L93.4485 43.7029H84.1712ZM92.6465 44.5692V53.8514H84.9732V44.5692C84.9733 44.4441 84.9584 44.3194 84.9286 44.1979H92.6911C92.6613 44.3194 92.6463 44.4441 92.6465 44.5692ZM95.0623 43.7029L95.2455 44.0642C95.3267 44.2202 95.3691 44.3934 95.3692 44.5692V54.3464H104.033V44.5692C104.033 44.3934 104.075 44.2202 104.156 44.0642L104.34 43.7029H95.0623ZM103.538 44.5692V53.8514H95.8643V44.5692C95.8644 44.4441 95.8494 44.3194 95.8197 44.1979H103.582C103.552 44.3194 103.537 44.4441 103.538 44.5692ZM105.953 43.7029L106.137 44.0642C106.218 44.2202 106.26 44.3934 106.26 44.5692V54.3464H114.924V44.5692C114.924 44.3934 114.966 44.2202 115.047 44.0642L115.231 43.7029H105.953ZM114.429 44.5692V53.8514H106.755V44.5692C106.756 44.4441 106.741 44.3194 106.711 44.1979H114.473C114.443 44.3194 114.429 44.4441 114.429 44.5692ZM116.844 43.7029L117.028 44.0642C117.109 44.2202 117.151 44.3934 117.151 44.5692V54.3464H125.815V44.5692C125.815 44.3934 125.857 44.2202 125.939 44.0642L126.122 43.7029H116.844ZM125.32 44.5692V53.8514H117.646V44.5692C117.647 44.4441 117.632 44.3194 117.602 44.1979H125.364C125.335 44.3194 125.32 44.4441 125.32 44.5692ZM127.736 43.7029L127.919 44.0642C128 44.2202 128.042 44.3934 128.043 44.5692V54.3464H136.706V44.5692C136.706 44.3934 136.748 44.2202 136.83 44.0642L137.013 43.7029H127.736ZM136.211 44.5692V53.8514H128.538V44.5692C128.538 44.4441 128.523 44.3194 128.493 44.1979H136.255C136.226 44.3194 136.211 44.4441 136.211 44.5692ZM138.627 43.7029L138.81 44.0642C138.891 44.2202 138.933 44.3934 138.934 44.5692V54.3464H147.597V44.5692C147.597 44.3934 147.64 44.2202 147.721 44.0642L147.904 43.7029H138.627ZM147.102 44.5692V53.8514H139.429V44.5692C139.429 44.4441 139.414 44.3194 139.384 44.1979H147.147C147.117 44.3194 147.102 44.4441 147.102 44.5692ZM149.518 43.7029L149.701 44.0642C149.782 44.2202 149.825 44.3934 149.825 44.5692V54.3464H158.488V44.5692C158.488 44.3934 158.531 44.2202 158.612 44.0642L158.795 43.7029H149.518ZM157.993 44.5692V53.8514H150.32V44.5692C150.32 44.4441 150.305 44.3194 150.275 44.1979H158.038C158.008 44.3194 157.993 44.4441 157.993 44.5692ZM160.409 43.7029L160.592 44.0642C160.673 44.2202 160.716 44.3934 160.716 44.5692V54.3464H169.379V44.5692C169.379 44.3934 169.422 44.2202 169.503 44.0642L169.686 43.7029H160.409ZM168.884 44.5692V53.8514H161.211V44.5692C161.211 44.4441 161.196 44.3194 161.166 44.1979H168.929C168.899 44.3194 168.884 44.4441 168.884 44.5692ZM160.409 43.7029L160.592 44.0642C160.673 44.2202 160.716 44.3934 160.716 44.5692V54.3464H169.379V44.5692C169.379 44.3934 169.422 44.2202 169.503 44.0642L169.686 43.7029H160.409ZM168.884 44.5692V53.8514H161.211V44.5692C161.211 44.4441 161.196 44.3194 161.166 44.1979H168.929C168.899 44.3194 168.884 44.4441 168.884 44.5692ZM149.518 43.7029L149.701 44.0642C149.782 44.2202 149.825 44.3934 149.825 44.5692V54.3464H158.488V44.5692C158.488 44.3934 158.531 44.2202 158.612 44.0642L158.795 43.7029H149.518ZM157.993 44.5692V53.8514H150.32V44.5692C150.32 44.4441 150.305 44.3194 150.275 44.1979H158.038C158.008 44.3194 157.993 44.4441 157.993 44.5692ZM138.627 43.7029L138.81 44.0642C138.891 44.2202 138.933 44.3934 138.934 44.5692V54.3464H147.597V44.5692C147.597 44.3934 147.64 44.2202 147.721 44.0642L147.904 43.7029H138.627ZM147.102 44.5692V53.8514H139.429V44.5692C139.429 44.4441 139.414 44.3194 139.384 44.1979H147.147C147.117 44.3194 147.102 44.4441 147.102 44.5692ZM127.736 43.7029L127.919 44.0642C128 44.2202 128.042 44.3934 128.043 44.5692V54.3464H136.706V44.5692C136.706 44.3934 136.748 44.2202 136.83 44.0642L137.013 43.7029H127.736ZM136.211 44.5692V53.8514H128.538V44.5692C128.538 44.4441 128.523 44.3194 128.493 44.1979H136.255C136.226 44.3194 136.211 44.4441 136.211 44.5692ZM116.844 43.7029L117.028 44.0642C117.109 44.2202 117.151 44.3934 117.151 44.5692V54.3464H125.815V44.5692C125.815 44.3934 125.857 44.2202 125.939 44.0642L126.122 43.7029H116.844ZM125.32 44.5692V53.8514H117.646V44.5692C117.647 44.4441 117.632 44.3194 117.602 44.1979H125.364C125.335 44.3194 125.32 44.4441 125.32 44.5692ZM105.953 43.7029L106.137 44.0642C106.218 44.2202 106.26 44.3934 106.26 44.5692V54.3464H114.924V44.5692C114.924 44.3934 114.966 44.2202 115.047 44.0642L115.231 43.7029H105.953ZM114.429 44.5692V53.8514H106.755V44.5692C106.756 44.4441 106.741 44.3194 106.711 44.1979H114.473C114.443 44.3194 114.429 44.4441 114.429 44.5692ZM95.0623 43.7029L95.2455 44.0642C95.3267 44.2202 95.3691 44.3934 95.3692 44.5692V54.3464H104.033V44.5692C104.033 44.3934 104.075 44.2202 104.156 44.0642L104.34 43.7029H95.0623ZM103.538 44.5692V53.8514H95.8643V44.5692C95.8644 44.4441 95.8494 44.3194 95.8197 44.1979H103.582C103.552 44.3194 103.537 44.4441 103.538 44.5692ZM84.1712 43.7029L84.3544 44.0642C84.4356 44.2202 84.478 44.3934 84.4781 44.5692V54.3464H93.1415V44.5692C93.1416 44.3934 93.1841 44.2202 93.2653 44.0642L93.4485 43.7029H84.1712ZM92.6465 44.5692V53.8514H84.9732V44.5692C84.9733 44.4441 84.9584 44.3194 84.9286 44.1979H92.6911C92.6613 44.3194 92.6463 44.4441 92.6465 44.5692ZM73.2801 43.7029L73.4633 44.0642C73.5445 44.2202 73.5869 44.3934 73.5871 44.5692V54.3464H82.2504V44.5692C82.2505 44.3934 82.293 44.2202 82.3742 44.0642L82.5574 43.7029H73.2801ZM81.7554 44.5692V53.8514H74.0821V44.5692C74.0822 44.4441 74.0673 44.3194 74.0375 44.1979H81.8C81.7702 44.3194 81.7552 44.4441 81.7554 44.5692ZM160.409 43.7029L160.592 44.0642C160.673 44.2202 160.716 44.3934 160.716 44.5692V54.3464H169.379V44.5692C169.379 44.3934 169.422 44.2202 169.503 44.0642L169.686 43.7029H160.409ZM168.884 44.5692V53.8514H161.211V44.5692C161.211 44.4441 161.196 44.3194 161.166 44.1979H168.929C168.899 44.3194 168.884 44.4441 168.884 44.5692ZM149.518 43.7029L149.701 44.0642C149.782 44.2202 149.825 44.3934 149.825 44.5692V54.3464H158.488V44.5692C158.488 44.3934 158.531 44.2202 158.612 44.0642L158.795 43.7029H149.518ZM157.993 44.5692V53.8514H150.32V44.5692C150.32 44.4441 150.305 44.3194 150.275 44.1979H158.038C158.008 44.3194 157.993 44.4441 157.993 44.5692ZM138.627 43.7029L138.81 44.0642C138.891 44.2202 138.933 44.3934 138.934 44.5692V54.3464H147.597V44.5692C147.597 44.3934 147.64 44.2202 147.721 44.0642L147.904 43.7029H138.627ZM147.102 44.5692V53.8514H139.429V44.5692C139.429 44.4441 139.414 44.3194 139.384 44.1979H147.147C147.117 44.3194 147.102 44.4441 147.102 44.5692ZM127.736 43.7029L127.919 44.0642C128 44.2202 128.042 44.3934 128.043 44.5692V54.3464H136.706V44.5692C136.706 44.3934 136.748 44.2202 136.83 44.0642L137.013 43.7029H127.736ZM136.211 44.5692V53.8514H128.538V44.5692C128.538 44.4441 128.523 44.3194 128.493 44.1979H136.255C136.226 44.3194 136.211 44.4441 136.211 44.5692ZM116.844 43.7029L117.028 44.0642C117.109 44.2202 117.151 44.3934 117.151 44.5692V54.3464H125.815V44.5692C125.815 44.3934 125.857 44.2202 125.939 44.0642L126.122 43.7029H116.844ZM125.32 44.5692V53.8514H117.646V44.5692C117.647 44.4441 117.632 44.3194 117.602 44.1979H125.364C125.335 44.3194 125.32 44.4441 125.32 44.5692ZM105.953 43.7029L106.137 44.0642C106.218 44.2202 106.26 44.3934 106.26 44.5692V54.3464H114.924V44.5692C114.924 44.3934 114.966 44.2202 115.047 44.0642L115.231 43.7029H105.953ZM114.429 44.5692V53.8514H106.755V44.5692C106.756 44.4441 106.741 44.3194 106.711 44.1979H114.473C114.443 44.3194 114.429 44.4441 114.429 44.5692ZM95.0623 43.7029L95.2455 44.0642C95.3267 44.2202 95.3691 44.3934 95.3692 44.5692V54.3464H104.033V44.5692C104.033 44.3934 104.075 44.2202 104.156 44.0642L104.34 43.7029H95.0623ZM103.538 44.5692V53.8514H95.8643V44.5692C95.8644 44.4441 95.8494 44.3194 95.8197 44.1979H103.582C103.552 44.3194 103.537 44.4441 103.538 44.5692ZM84.1712 43.7029L84.3544 44.0642C84.4356 44.2202 84.478 44.3934 84.4781 44.5692V54.3464H93.1415V44.5692C93.1416 44.3934 93.1841 44.2202 93.2653 44.0642L93.4485 43.7029H84.1712ZM92.6465 44.5692V53.8514H84.9732V44.5692C84.9733 44.4441 84.9584 44.3194 84.9286 44.1979H92.6911C92.6613 44.3194 92.6463 44.4441 92.6465 44.5692ZM73.2801 43.7029L73.4633 44.0642C73.5445 44.2202 73.5869 44.3934 73.5871 44.5692V54.3464H82.2504V44.5692C82.2505 44.3934 82.293 44.2202 82.3742 44.0642L82.5574 43.7029H73.2801ZM81.7554 44.5692V53.8514H74.0821V44.5692C74.0822 44.4441 74.0673 44.3194 74.0375 44.1979H81.8C81.7702 44.3194 81.7552 44.4441 81.7554 44.5692ZM160.409 43.7029L160.592 44.0642C160.673 44.2202 160.716 44.3934 160.716 44.5692V54.3464H169.379V44.5692C169.379 44.3934 169.422 44.2202 169.503 44.0642L169.686 43.7029H160.409ZM168.884 44.5692V53.8514H161.211V44.5692C161.211 44.4441 161.196 44.3194 161.166 44.1979H168.929C168.899 44.3194 168.884 44.4441 168.884 44.5692ZM149.518 43.7029L149.701 44.0642C149.782 44.2202 149.825 44.3934 149.825 44.5692V54.3464H158.488V44.5692C158.488 44.3934 158.531 44.2202 158.612 44.0642L158.795 43.7029H149.518ZM157.993 44.5692V53.8514H150.32V44.5692C150.32 44.4441 150.305 44.3194 150.275 44.1979H158.038C158.008 44.3194 157.993 44.4441 157.993 44.5692ZM138.627 43.7029L138.81 44.0642C138.891 44.2202 138.933 44.3934 138.934 44.5692V54.3464H147.597V44.5692C147.597 44.3934 147.64 44.2202 147.721 44.0642L147.904 43.7029H138.627ZM147.102 44.5692V53.8514H139.429V44.5692C139.429 44.4441 139.414 44.3194 139.384 44.1979H147.147C147.117 44.3194 147.102 44.4441 147.102 44.5692ZM127.736 43.7029L127.919 44.0642C128 44.2202 128.042 44.3934 128.043 44.5692V54.3464H136.706V44.5692C136.706 44.3934 136.748 44.2202 136.83 44.0642L137.013 43.7029H127.736ZM136.211 44.5692V53.8514H128.538V44.5692C128.538 44.4441 128.523 44.3194 128.493 44.1979H136.255C136.226 44.3194 136.211 44.4441 136.211 44.5692ZM116.844 43.7029L117.028 44.0642C117.109 44.2202 117.151 44.3934 117.151 44.5692V54.3464H125.815V44.5692C125.815 44.3934 125.857 44.2202 125.939 44.0642L126.122 43.7029H116.844ZM125.32 44.5692V53.8514H117.646V44.5692C117.647 44.4441 117.632 44.3194 117.602 44.1979H125.364C125.335 44.3194 125.32 44.4441 125.32 44.5692ZM105.953 43.7029L106.137 44.0642C106.218 44.2202 106.26 44.3934 106.26 44.5692V54.3464H114.924V44.5692C114.924 44.3934 114.966 44.2202 115.047 44.0642L115.231 43.7029H105.953ZM114.429 44.5692V53.8514H106.755V44.5692C106.756 44.4441 106.741 44.3194 106.711 44.1979H114.473C114.443 44.3194 114.429 44.4441 114.429 44.5692ZM95.0623 43.7029L95.2455 44.0642C95.3267 44.2202 95.3691 44.3934 95.3692 44.5692V54.3464H104.033V44.5692C104.033 44.3934 104.075 44.2202 104.156 44.0642L104.34 43.7029H95.0623ZM103.538 44.5692V53.8514H95.8643V44.5692C95.8644 44.4441 95.8494 44.3194 95.8197 44.1979H103.582C103.552 44.3194 103.537 44.4441 103.538 44.5692ZM84.1712 43.7029L84.3544 44.0642C84.4356 44.2202 84.478 44.3934 84.4781 44.5692V54.3464H93.1415V44.5692C93.1416 44.3934 93.1841 44.2202 93.2653 44.0642L93.4485 43.7029H84.1712ZM92.6465 44.5692V53.8514H84.9732V44.5692C84.9733 44.4441 84.9584 44.3194 84.9286 44.1979H92.6911C92.6613 44.3194 92.6463 44.4441 92.6465 44.5692ZM73.2801 43.7029L73.4633 44.0642C73.5445 44.2202 73.5869 44.3934 73.5871 44.5692V54.3464H82.2504V44.5692C82.2505 44.3934 82.293 44.2202 82.3742 44.0642L82.5574 43.7029H73.2801ZM81.7554 44.5692V53.8514H74.0821V44.5692C74.0822 44.4441 74.0673 44.3194 74.0375 44.1979H81.8C81.7702 44.3194 81.7552 44.4441 81.7554 44.5692ZM160.409 43.7029L160.592 44.0642C160.673 44.2202 160.716 44.3934 160.716 44.5692V54.3464H169.379V44.5692C169.379 44.3934 169.422 44.2202 169.503 44.0642L169.686 43.7029H160.409ZM168.884 44.5692V53.8514H161.211V44.5692C161.211 44.4441 161.196 44.3194 161.166 44.1979H168.929C168.899 44.3194 168.884 44.4441 168.884 44.5692ZM149.518 43.7029L149.701 44.0642C149.782 44.2202 149.825 44.3934 149.825 44.5692V54.3464H158.488V44.5692C158.488 44.3934 158.531 44.2202 158.612 44.0642L158.795 43.7029H149.518ZM157.993 44.5692V53.8514H150.32V44.5692C150.32 44.4441 150.305 44.3194 150.275 44.1979H158.038C158.008 44.3194 157.993 44.4441 157.993 44.5692ZM138.627 43.7029L138.81 44.0642C138.891 44.2202 138.933 44.3934 138.934 44.5692V54.3464H147.597V44.5692C147.597 44.3934 147.64 44.2202 147.721 44.0642L147.904 43.7029H138.627ZM147.102 44.5692V53.8514H139.429V44.5692C139.429 44.4441 139.414 44.3194 139.384 44.1979H147.147C147.117 44.3194 147.102 44.4441 147.102 44.5692ZM127.736 43.7029L127.919 44.0642C128 44.2202 128.042 44.3934 128.043 44.5692V54.3464H136.706V44.5692C136.706 44.3934 136.748 44.2202 136.83 44.0642L137.013 43.7029H127.736ZM136.211 44.5692V53.8514H128.538V44.5692C128.538 44.4441 128.523 44.3194 128.493 44.1979H136.255C136.226 44.3194 136.211 44.4441 136.211 44.5692ZM116.844 43.7029L117.028 44.0642C117.109 44.2202 117.151 44.3934 117.151 44.5692V54.3464H125.815V44.5692C125.815 44.3934 125.857 44.2202 125.939 44.0642L126.122 43.7029H116.844ZM125.32 44.5692V53.8514H117.646V44.5692C117.647 44.4441 117.632 44.3194 117.602 44.1979H125.364C125.335 44.3194 125.32 44.4441 125.32 44.5692ZM105.953 43.7029L106.137 44.0642C106.218 44.2202 106.26 44.3934 106.26 44.5692V54.3464H114.924V44.5692C114.924 44.3934 114.966 44.2202 115.047 44.0642L115.231 43.7029H105.953ZM114.429 44.5692V53.8514H106.755V44.5692C106.756 44.4441 106.741 44.3194 106.711 44.1979H114.473C114.443 44.3194 114.429 44.4441 114.429 44.5692ZM95.0623 43.7029L95.2455 44.0642C95.3267 44.2202 95.3691 44.3934 95.3692 44.5692V54.3464H104.033V44.5692C104.033 44.3934 104.075 44.2202 104.156 44.0642L104.34 43.7029H95.0623ZM103.538 44.5692V53.8514H95.8643V44.5692C95.8644 44.4441 95.8494 44.3194 95.8197 44.1979H103.582C103.552 44.3194 103.537 44.4441 103.538 44.5692ZM84.1712 43.7029L84.3544 44.0642C84.4356 44.2202 84.478 44.3934 84.4781 44.5692V54.3464H93.1415V44.5692C93.1416 44.3934 93.1841 44.2202 93.2653 44.0642L93.4485 43.7029H84.1712ZM92.6465 44.5692V53.8514H84.9732V44.5692C84.9733 44.4441 84.9584 44.3194 84.9286 44.1979H92.6911C92.6613 44.3194 92.6463 44.4441 92.6465 44.5692ZM73.2801 43.7029L73.4633 44.0642C73.5445 44.2202 73.5869 44.3934 73.5871 44.5692V54.3464H82.2504V44.5692C82.2505 44.3934 82.293 44.2202 82.3742 44.0642L82.5574 43.7029H73.2801ZM81.7554 44.5692V53.8514H74.0821V44.5692C74.0822 44.4441 74.0673 44.3194 74.0375 44.1979H81.8C81.7702 44.3194 81.7552 44.4441 81.7554 44.5692ZM160.409 43.7029L160.592 44.0642C160.673 44.2202 160.716 44.3934 160.716 44.5692V54.3464H169.379V44.5692C169.379 44.3934 169.422 44.2202 169.503 44.0642L169.686 43.7029H160.409ZM168.884 44.5692V53.8514H161.211V44.5692C161.211 44.4441 161.196 44.3194 161.166 44.1979H168.929C168.899 44.3194 168.884 44.4441 168.884 44.5692ZM149.701 44.0642C149.782 44.2202 149.825 44.3934 149.825 44.5692V54.3464H158.488V44.5692C158.488 44.3934 158.531 44.2202 158.612 44.0642L158.795 43.7029H149.518L149.701 44.0642ZM158.038 44.1979C158.008 44.3194 157.993 44.4441 157.993 44.5692V53.8514H150.32V44.5692C150.32 44.4441 150.305 44.3194 150.275 44.1979H158.038ZM138.81 44.0642C138.891 44.2202 138.933 44.3934 138.934 44.5692V54.3464H147.597V44.5692C147.597 44.3934 147.64 44.2202 147.721 44.0642L147.904 43.7029H138.627L138.81 44.0642ZM147.147 44.1979C147.117 44.3194 147.102 44.4441 147.102 44.5692V53.8514H139.429V44.5692C139.429 44.4441 139.414 44.3194 139.384 44.1979H147.147ZM127.919 44.0642C128 44.2202 128.042 44.3934 128.043 44.5692V54.3464H136.706V44.5692C136.706 44.3934 136.748 44.2202 136.83 44.0642L137.013 43.7029H127.736L127.919 44.0642ZM136.255 44.1979C136.226 44.3194 136.211 44.4441 136.211 44.5692V53.8514H128.538V44.5692C128.538 44.4441 128.523 44.3194 128.493 44.1979H136.255ZM117.028 44.0642C117.109 44.2202 117.151 44.3934 117.151 44.5692V54.3464H125.815V44.5692C125.815 44.3934 125.857 44.2202 125.939 44.0642L126.122 43.7029H116.844L117.028 44.0642ZM125.364 44.1979C125.335 44.3194 125.32 44.4441 125.32 44.5692V53.8514H117.646V44.5692C117.647 44.4441 117.632 44.3194 117.602 44.1979H125.364ZM106.137 44.0642C106.218 44.2202 106.26 44.3934 106.26 44.5692V54.3464H114.924V44.5692C114.924 44.3934 114.966 44.2202 115.047 44.0642L115.231 43.7029H105.953L106.137 44.0642ZM114.473 44.1979C114.443 44.3194 114.429 44.4441 114.429 44.5692V53.8514H106.755V44.5692C106.756 44.4441 106.741 44.3194 106.711 44.1979H114.473ZM95.2455 44.0642C95.3267 44.2202 95.3691 44.3934 95.3692 44.5692V54.3464H104.033V44.5692C104.033 44.3934 104.075 44.2202 104.156 44.0642L104.34 43.7029H95.0623L95.2455 44.0642ZM103.582 44.1979C103.552 44.3194 103.537 44.4441 103.538 44.5692V53.8514H95.8643V44.5692C95.8644 44.4441 95.8494 44.3194 95.8197 44.1979H103.582ZM84.3544 44.0642C84.4356 44.2202 84.478 44.3934 84.4781 44.5692V54.3464H93.1415V44.5692C93.1416 44.3934 93.1841 44.2202 93.2653 44.0642L93.4485 43.7029H84.1712L84.3544 44.0642ZM92.6911 44.1979C92.6613 44.3194 92.6463 44.4441 92.6465 44.5692V53.8514H84.9732V44.5692C84.9733 44.4441 84.9584 44.3194 84.9286 44.1979H92.6911ZM73.4633 44.0642C73.5445 44.2202 73.5869 44.3934 73.5871 44.5692V54.3464H82.2504V44.5692C82.2505 44.3934 82.293 44.2202 82.3742 44.0642L82.5574 43.7029H73.2801L73.4633 44.0642ZM81.8 44.1979C81.7702 44.3194 81.7552 44.4441 81.7554 44.5692V53.8514H74.0821V44.5692C74.0822 44.4441 74.0673 44.3194 74.0375 44.1979H81.8ZM160.592 44.0642C160.673 44.2202 160.716 44.3934 160.716 44.5692V54.3464H169.379V44.5692C169.379 44.3934 169.422 44.2202 169.503 44.0642L169.686 43.7029H160.409L160.592 44.0642ZM168.929 44.1979C168.899 44.3194 168.884 44.4441 168.884 44.5692V53.8514H161.211V44.5692C161.211 44.4441 161.196 44.3194 161.166 44.1979H168.929ZM149.701 44.0642C149.782 44.2202 149.825 44.3934 149.825 44.5692V54.3464H158.488V44.5692C158.488 44.3934 158.531 44.2202 158.612 44.0642L158.795 43.7029H149.518L149.701 44.0642ZM158.038 44.1979C158.008 44.3194 157.993 44.4441 157.993 44.5692V53.8514H150.32V44.5692C150.32 44.4441 150.305 44.3194 150.275 44.1979H158.038ZM138.81 44.0642C138.891 44.2202 138.933 44.3934 138.934 44.5692V54.3464H147.597V44.5692C147.597 44.3934 147.64 44.2202 147.721 44.0642L147.904 43.7029H138.627L138.81 44.0642ZM147.147 44.1979C147.117 44.3194 147.102 44.4441 147.102 44.5692V53.8514H139.429V44.5692C139.429 44.4441 139.414 44.3194 139.384 44.1979H147.147ZM127.919 44.0642C128 44.2202 128.042 44.3934 128.043 44.5692V54.3464H136.706V44.5692C136.706 44.3934 136.748 44.2202 136.83 44.0642L137.013 43.7029H127.736L127.919 44.0642ZM136.255 44.1979C136.226 44.3194 136.211 44.4441 136.211 44.5692V53.8514H128.538V44.5692C128.538 44.4441 128.523 44.3194 128.493 44.1979H136.255ZM117.028 44.0642C117.109 44.2202 117.151 44.3934 117.151 44.5692V54.3464H125.815V44.5692C125.815 44.3934 125.857 44.2202 125.939 44.0642L126.122 43.7029H116.844L117.028 44.0642ZM125.364 44.1979C125.335 44.3194 125.32 44.4441 125.32 44.5692V53.8514H117.646V44.5692C117.647 44.4441 117.632 44.3194 117.602 44.1979H125.364ZM106.137 44.0642C106.218 44.2202 106.26 44.3934 106.26 44.5692V54.3464H114.924V44.5692C114.924 44.3934 114.966 44.2202 115.047 44.0642L115.231 43.7029H105.953L106.137 44.0642ZM114.473 44.1979C114.443 44.3194 114.429 44.4441 114.429 44.5692V53.8514H106.755V44.5692C106.756 44.4441 106.741 44.3194 106.711 44.1979H114.473ZM95.2455 44.0642C95.3267 44.2202 95.3691 44.3934 95.3692 44.5692V54.3464H104.033V44.5692C104.033 44.3934 104.075 44.2202 104.156 44.0642L104.34 43.7029H95.0623L95.2455 44.0642ZM103.582 44.1979C103.552 44.3194 103.537 44.4441 103.538 44.5692V53.8514H95.8643V44.5692C95.8644 44.4441 95.8494 44.3194 95.8197 44.1979H103.582ZM84.3544 44.0642C84.4356 44.2202 84.478 44.3934 84.4781 44.5692V54.3464H93.1415V44.5692C93.1416 44.3934 93.1841 44.2202 93.2653 44.0642L93.4485 43.7029H84.1712L84.3544 44.0642ZM92.6911 44.1979C92.6613 44.3194 92.6463 44.4441 92.6465 44.5692V53.8514H84.9732V44.5692C84.9733 44.4441 84.9584 44.3194 84.9286 44.1979H92.6911ZM73.4633 44.0642C73.5445 44.2202 73.5869 44.3934 73.5871 44.5692V54.3464H82.2504V44.5692C82.2505 44.3934 82.293 44.2202 82.3742 44.0642L82.5574 43.7029H73.2801L73.4633 44.0642ZM81.8 44.1979C81.7702 44.3194 81.7552 44.4441 81.7554 44.5692V53.8514H74.0821V44.5692C74.0822 44.4441 74.0673 44.3194 74.0375 44.1979H81.8ZM179.28 55.8316H176.33C176.167 55.2621 175.823 54.7611 175.351 54.4039C174.879 54.0467 174.303 53.8528 173.711 53.8514H172.102V44.5692C172.103 44.3699 172.065 44.1724 171.99 43.9875C172.271 43.8223 172.489 43.5695 172.612 43.2679C172.734 42.9664 172.754 42.6329 172.668 42.3189C172.582 42.005 172.396 41.728 172.137 41.5308C171.878 41.3336 171.561 41.227 171.236 41.2276H71.7306C71.4051 41.227 71.0885 41.3336 70.8296 41.5308C70.5707 41.728 70.3839 42.005 70.298 42.3189C70.2121 42.6329 70.232 42.9664 70.3544 43.2679C70.4769 43.5695 70.6953 43.8223 70.9757 43.9875C70.9015 44.1724 70.8636 44.3699 70.8643 44.5692V53.8514H69.2554C68.6632 53.8528 68.0875 54.0467 67.6151 54.4039C67.1427 54.7611 66.7993 55.2621 66.6365 55.8316H63.4385C62.848 55.8325 62.2819 56.0674 61.8643 56.485C61.4467 56.9026 61.2117 57.4687 61.2108 58.0593V188.752C61.2121 189.343 61.4472 189.909 61.8647 190.326C62.2822 190.744 62.8481 190.979 63.4385 190.98H179.28C179.871 190.979 180.437 190.744 180.854 190.327C181.272 189.909 181.507 189.343 181.508 188.752V58.0593C181.507 57.4687 181.272 56.9026 180.854 56.485C180.437 56.0674 179.871 55.8325 179.28 55.8316ZM181.013 188.752C181.012 189.106 180.904 189.451 180.702 189.741C180.499 190.032 180.213 190.253 179.882 190.376C179.69 190.449 179.486 190.486 179.28 190.485H63.4385C63.233 190.486 63.0291 190.449 62.837 190.376C62.5054 190.253 62.2192 190.032 62.017 189.741C61.8149 189.451 61.7063 189.106 61.7059 188.752V58.0593C61.7064 57.5999 61.8891 57.1595 62.2139 56.8347C62.5388 56.5098 62.9792 56.3271 63.4385 56.3266H67.0326L67.0722 56.1286C67.1763 55.6261 67.4501 55.1747 67.8476 54.8502C68.2451 54.5257 68.7422 54.3478 69.2554 54.3464H71.3593V44.5692C71.3594 44.3678 71.4142 44.1701 71.5178 43.9974L71.6712 43.7425L71.3915 43.6385C71.1729 43.5593 70.9893 43.4055 70.873 43.2041C70.7567 43.0028 70.7151 42.7669 70.7556 42.538C70.7962 42.3091 70.9162 42.1018 71.0945 41.9526C71.2729 41.8035 71.4981 41.722 71.7306 41.7227H171.236C171.468 41.722 171.693 41.8035 171.872 41.9526C172.05 42.1018 172.17 42.3091 172.211 42.538C172.251 42.7669 172.21 43.0028 172.093 43.2041C171.977 43.4055 171.793 43.5593 171.575 43.6385L171.295 43.7425L171.448 43.9974C171.552 44.1701 171.607 44.3678 171.607 44.5692V54.3464H173.711C174.224 54.3478 174.721 54.5256 175.119 54.8502C175.516 55.1747 175.79 55.6261 175.894 56.1286L175.934 56.3266H179.28C179.739 56.3271 180.18 56.5098 180.505 56.8347C180.83 57.1595 181.012 57.5999 181.013 58.0593L181.013 188.752ZM73.2801 43.7029L73.4633 44.0642C73.5445 44.2202 73.5869 44.3934 73.5871 44.5692V54.3464H82.2504V44.5692C82.2505 44.3934 82.293 44.2202 82.3742 44.0642L82.5574 43.7029H73.2801ZM81.7554 44.5692V53.8514H74.0821V44.5692C74.0822 44.4441 74.0673 44.3194 74.0375 44.1979H81.8C81.7702 44.3194 81.7552 44.4441 81.7554 44.5692ZM84.1712 43.7029L84.3544 44.0642C84.4356 44.2202 84.478 44.3934 84.4781 44.5692V54.3464H93.1415V44.5692C93.1416 44.3934 93.1841 44.2202 93.2653 44.0642L93.4485 43.7029H84.1712ZM92.6465 44.5692V53.8514H84.9732V44.5692C84.9733 44.4441 84.9584 44.3194 84.9286 44.1979H92.6911C92.6613 44.3194 92.6463 44.4441 92.6465 44.5692ZM95.0623 43.7029L95.2455 44.0642C95.3267 44.2202 95.3691 44.3934 95.3692 44.5692V54.3464H104.033V44.5692C104.033 44.3934 104.075 44.2202 104.156 44.0642L104.34 43.7029H95.0623ZM103.538 44.5692V53.8514H95.8643V44.5692C95.8644 44.4441 95.8494 44.3194 95.8197 44.1979H103.582C103.552 44.3194 103.537 44.4441 103.538 44.5692ZM105.953 43.7029L106.137 44.0642C106.218 44.2202 106.26 44.3934 106.26 44.5692V54.3464H114.924V44.5692C114.924 44.3934 114.966 44.2202 115.047 44.0642L115.231 43.7029H105.953ZM114.429 44.5692V53.8514H106.755V44.5692C106.756 44.4441 106.741 44.3194 106.711 44.1979H114.473C114.443 44.3194 114.429 44.4441 114.429 44.5692ZM116.844 43.7029L117.028 44.0642C117.109 44.2202 117.151 44.3934 117.151 44.5692V54.3464H125.815V44.5692C125.815 44.3934 125.857 44.2202 125.939 44.0642L126.122 43.7029H116.844ZM125.32 44.5692V53.8514H117.646V44.5692C117.647 44.4441 117.632 44.3194 117.602 44.1979H125.364C125.335 44.3194 125.32 44.4441 125.32 44.5692ZM127.736 43.7029L127.919 44.0642C128 44.2202 128.042 44.3934 128.043 44.5692V54.3464H136.706V44.5692C136.706 44.3934 136.748 44.2202 136.83 44.0642L137.013 43.7029H127.736ZM136.211 44.5692V53.8514H128.538V44.5692C128.538 44.4441 128.523 44.3194 128.493 44.1979H136.255C136.226 44.3194 136.211 44.4441 136.211 44.5692ZM138.627 43.7029L138.81 44.0642C138.891 44.2202 138.933 44.3934 138.934 44.5692V54.3464H147.597V44.5692C147.597 44.3934 147.64 44.2202 147.721 44.0642L147.904 43.7029H138.627ZM147.102 44.5692V53.8514H139.429V44.5692C139.429 44.4441 139.414 44.3194 139.384 44.1979H147.147C147.117 44.3194 147.102 44.4441 147.102 44.5692ZM149.518 43.7029L149.701 44.0642C149.782 44.2202 149.825 44.3934 149.825 44.5692V54.3464H158.488V44.5692C158.488 44.3934 158.531 44.2202 158.612 44.0642L158.795 43.7029H149.518ZM157.993 44.5692V53.8514H150.32V44.5692C150.32 44.4441 150.305 44.3194 150.275 44.1979H158.038C158.008 44.3194 157.993 44.4441 157.993 44.5692ZM160.409 43.7029L160.592 44.0642C160.673 44.2202 160.716 44.3934 160.716 44.5692V54.3464H169.379V44.5692C169.379 44.3934 169.422 44.2202 169.503 44.0642L169.686 43.7029H160.409ZM168.884 44.5692V53.8514H161.211V44.5692C161.211 44.4441 161.196 44.3194 161.166 44.1979H168.929C168.899 44.3194 168.884 44.4441 168.884 44.5692ZM73.2801 43.7029L73.4633 44.0642C73.5445 44.2202 73.5869 44.3934 73.5871 44.5692V54.3464H82.2504V44.5692C82.2505 44.3934 82.293 44.2202 82.3742 44.0642L82.5574 43.7029H73.2801ZM81.7554 44.5692V53.8514H74.0821V44.5692C74.0822 44.4441 74.0673 44.3194 74.0375 44.1979H81.8C81.7702 44.3194 81.7552 44.4441 81.7554 44.5692ZM84.1712 43.7029L84.3544 44.0642C84.4356 44.2202 84.478 44.3934 84.4781 44.5692V54.3464H93.1415V44.5692C93.1416 44.3934 93.1841 44.2202 93.2653 44.0642L93.4485 43.7029H84.1712ZM92.6465 44.5692V53.8514H84.9732V44.5692C84.9733 44.4441 84.9584 44.3194 84.9286 44.1979H92.6911C92.6613 44.3194 92.6463 44.4441 92.6465 44.5692ZM95.0623 43.7029L95.2455 44.0642C95.3267 44.2202 95.3691 44.3934 95.3692 44.5692V54.3464H104.033V44.5692C104.033 44.3934 104.075 44.2202 104.156 44.0642L104.34 43.7029H95.0623ZM103.538 44.5692V53.8514H95.8643V44.5692C95.8644 44.4441 95.8494 44.3194 95.8197 44.1979H103.582C103.552 44.3194 103.537 44.4441 103.538 44.5692ZM105.953 43.7029L106.137 44.0642C106.218 44.2202 106.26 44.3934 106.26 44.5692V54.3464H114.924V44.5692C114.924 44.3934 114.966 44.2202 115.047 44.0642L115.231 43.7029H105.953ZM114.429 44.5692V53.8514H106.755V44.5692C106.756 44.4441 106.741 44.3194 106.711 44.1979H114.473C114.443 44.3194 114.429 44.4441 114.429 44.5692ZM116.844 43.7029L117.028 44.0642C117.109 44.2202 117.151 44.3934 117.151 44.5692V54.3464H125.815V44.5692C125.815 44.3934 125.857 44.2202 125.939 44.0642L126.122 43.7029H116.844ZM125.32 44.5692V53.8514H117.646V44.5692C117.647 44.4441 117.632 44.3194 117.602 44.1979H125.364C125.335 44.3194 125.32 44.4441 125.32 44.5692ZM127.736 43.7029L127.919 44.0642C128 44.2202 128.042 44.3934 128.043 44.5692V54.3464H136.706V44.5692C136.706 44.3934 136.748 44.2202 136.83 44.0642L137.013 43.7029H127.736ZM136.211 44.5692V53.8514H128.538V44.5692C128.538 44.4441 128.523 44.3194 128.493 44.1979H136.255C136.226 44.3194 136.211 44.4441 136.211 44.5692ZM138.627 43.7029L138.81 44.0642C138.891 44.2202 138.933 44.3934 138.934 44.5692V54.3464H147.597V44.5692C147.597 44.3934 147.64 44.2202 147.721 44.0642L147.904 43.7029H138.627ZM147.102 44.5692V53.8514H139.429V44.5692C139.429 44.4441 139.414 44.3194 139.384 44.1979H147.147C147.117 44.3194 147.102 44.4441 147.102 44.5692ZM149.518 43.7029L149.701 44.0642C149.782 44.2202 149.825 44.3934 149.825 44.5692V54.3464H158.488V44.5692C158.488 44.3934 158.531 44.2202 158.612 44.0642L158.795 43.7029H149.518ZM157.993 44.5692V53.8514H150.32V44.5692C150.32 44.4441 150.305 44.3194 150.275 44.1979H158.038C158.008 44.3194 157.993 44.4441 157.993 44.5692ZM160.409 43.7029L160.592 44.0642C160.673 44.2202 160.716 44.3934 160.716 44.5692V54.3464H169.379V44.5692C169.379 44.3934 169.422 44.2202 169.503 44.0642L169.686 43.7029H160.409ZM168.884 44.5692V53.8514H161.211V44.5692C161.211 44.4441 161.196 44.3194 161.166 44.1979H168.929C168.899 44.3194 168.884 44.4441 168.884 44.5692ZM73.2801 43.7029L73.4633 44.0642C73.5445 44.2202 73.5869 44.3934 73.5871 44.5692V54.3464H82.2504V44.5692C82.2505 44.3934 82.293 44.2202 82.3742 44.0642L82.5574 43.7029H73.2801ZM81.7554 44.5692V53.8514H74.0821V44.5692C74.0822 44.4441 74.0673 44.3194 74.0375 44.1979H81.8C81.7702 44.3194 81.7552 44.4441 81.7554 44.5692ZM84.1712 43.7029L84.3544 44.0642C84.4356 44.2202 84.478 44.3934 84.4781 44.5692V54.3464H93.1415V44.5692C93.1416 44.3934 93.1841 44.2202 93.2653 44.0642L93.4485 43.7029H84.1712ZM92.6465 44.5692V53.8514H84.9732V44.5692C84.9733 44.4441 84.9584 44.3194 84.9286 44.1979H92.6911C92.6613 44.3194 92.6463 44.4441 92.6465 44.5692ZM95.0623 43.7029L95.2455 44.0642C95.3267 44.2202 95.3691 44.3934 95.3692 44.5692V54.3464H104.033V44.5692C104.033 44.3934 104.075 44.2202 104.156 44.0642L104.34 43.7029H95.0623ZM103.538 44.5692V53.8514H95.8643V44.5692C95.8644 44.4441 95.8494 44.3194 95.8197 44.1979H103.582C103.552 44.3194 103.537 44.4441 103.538 44.5692ZM105.953 43.7029L106.137 44.0642C106.218 44.2202 106.26 44.3934 106.26 44.5692V54.3464H114.924V44.5692C114.924 44.3934 114.966 44.2202 115.047 44.0642L115.231 43.7029H105.953ZM114.429 44.5692V53.8514H106.755V44.5692C106.756 44.4441 106.741 44.3194 106.711 44.1979H114.473C114.443 44.3194 114.429 44.4441 114.429 44.5692ZM116.844 43.7029L117.028 44.0642C117.109 44.2202 117.151 44.3934 117.151 44.5692V54.3464H125.815V44.5692C125.815 44.3934 125.857 44.2202 125.939 44.0642L126.122 43.7029H116.844ZM125.32 44.5692V53.8514H117.646V44.5692C117.647 44.4441 117.632 44.3194 117.602 44.1979H125.364C125.335 44.3194 125.32 44.4441 125.32 44.5692ZM127.736 43.7029L127.919 44.0642C128 44.2202 128.042 44.3934 128.043 44.5692V54.3464H136.706V44.5692C136.706 44.3934 136.748 44.2202 136.83 44.0642L137.013 43.7029H127.736ZM136.211 44.5692V53.8514H128.538V44.5692C128.538 44.4441 128.523 44.3194 128.493 44.1979H136.255C136.226 44.3194 136.211 44.4441 136.211 44.5692ZM138.627 43.7029L138.81 44.0642C138.891 44.2202 138.933 44.3934 138.934 44.5692V54.3464H147.597V44.5692C147.597 44.3934 147.64 44.2202 147.721 44.0642L147.904 43.7029H138.627ZM147.102 44.5692V53.8514H139.429V44.5692C139.429 44.4441 139.414 44.3194 139.384 44.1979H147.147C147.117 44.3194 147.102 44.4441 147.102 44.5692ZM149.518 43.7029L149.701 44.0642C149.782 44.2202 149.825 44.3934 149.825 44.5692V54.3464H158.488V44.5692C158.488 44.3934 158.531 44.2202 158.612 44.0642L158.795 43.7029H149.518ZM157.993 44.5692V53.8514H150.32V44.5692C150.32 44.4441 150.305 44.3194 150.275 44.1979H158.038C158.008 44.3194 157.993 44.4441 157.993 44.5692ZM160.409 43.7029L160.592 44.0642C160.673 44.2202 160.716 44.3934 160.716 44.5692V54.3464H169.379V44.5692C169.379 44.3934 169.422 44.2202 169.503 44.0642L169.686 43.7029H160.409ZM168.884 44.5692V53.8514H161.211V44.5692C161.211 44.4441 161.196 44.3194 161.166 44.1979H168.929C168.899 44.3194 168.884 44.4441 168.884 44.5692ZM73.2801 43.7029L73.4633 44.0642C73.5445 44.2202 73.5869 44.3934 73.5871 44.5692V54.3464H82.2504V44.5692C82.2505 44.3934 82.293 44.2202 82.3742 44.0642L82.5574 43.7029H73.2801ZM81.7554 44.5692V53.8514H74.0821V44.5692C74.0822 44.4441 74.0673 44.3194 74.0375 44.1979H81.8C81.7702 44.3194 81.7552 44.4441 81.7554 44.5692ZM84.1712 43.7029L84.3544 44.0642C84.4356 44.2202 84.478 44.3934 84.4781 44.5692V54.3464H93.1415V44.5692C93.1416 44.3934 93.1841 44.2202 93.2653 44.0642L93.4485 43.7029H84.1712ZM92.6465 44.5692V53.8514H84.9732V44.5692C84.9733 44.4441 84.9584 44.3194 84.9286 44.1979H92.6911C92.6613 44.3194 92.6463 44.4441 92.6465 44.5692ZM95.0623 43.7029L95.2455 44.0642C95.3267 44.2202 95.3691 44.3934 95.3692 44.5692V54.3464H104.033V44.5692C104.033 44.3934 104.075 44.2202 104.156 44.0642L104.34 43.7029H95.0623ZM103.538 44.5692V53.8514H95.8643V44.5692C95.8644 44.4441 95.8494 44.3194 95.8197 44.1979H103.582C103.552 44.3194 103.537 44.4441 103.538 44.5692ZM105.953 43.7029L106.137 44.0642C106.218 44.2202 106.26 44.3934 106.26 44.5692V54.3464H114.924V44.5692C114.924 44.3934 114.966 44.2202 115.047 44.0642L115.231 43.7029H105.953ZM114.429 44.5692V53.8514H106.755V44.5692C106.756 44.4441 106.741 44.3194 106.711 44.1979H114.473C114.443 44.3194 114.429 44.4441 114.429 44.5692ZM116.844 43.7029L117.028 44.0642C117.109 44.2202 117.151 44.3934 117.151 44.5692V54.3464H125.815V44.5692C125.815 44.3934 125.857 44.2202 125.939 44.0642L126.122 43.7029H116.844ZM125.32 44.5692V53.8514H117.646V44.5692C117.647 44.4441 117.632 44.3194 117.602 44.1979H125.364C125.335 44.3194 125.32 44.4441 125.32 44.5692ZM127.736 43.7029L127.919 44.0642C128 44.2202 128.042 44.3934 128.043 44.5692V54.3464H136.706V44.5692C136.706 44.3934 136.748 44.2202 136.83 44.0642L137.013 43.7029H127.736ZM136.211 44.5692V53.8514H128.538V44.5692C128.538 44.4441 128.523 44.3194 128.493 44.1979H136.255C136.226 44.3194 136.211 44.4441 136.211 44.5692ZM138.627 43.7029L138.81 44.0642C138.891 44.2202 138.933 44.3934 138.934 44.5692V54.3464H147.597V44.5692C147.597 44.3934 147.64 44.2202 147.721 44.0642L147.904 43.7029H138.627ZM147.102 44.5692V53.8514H139.429V44.5692C139.429 44.4441 139.414 44.3194 139.384 44.1979H147.147C147.117 44.3194 147.102 44.4441 147.102 44.5692ZM149.518 43.7029L149.701 44.0642C149.782 44.2202 149.825 44.3934 149.825 44.5692V54.3464H158.488V44.5692C158.488 44.3934 158.531 44.2202 158.612 44.0642L158.795 43.7029H149.518ZM157.993 44.5692V53.8514H150.32V44.5692C150.32 44.4441 150.305 44.3194 150.275 44.1979H158.038C158.008 44.3194 157.993 44.4441 157.993 44.5692ZM160.409 43.7029L160.592 44.0642C160.673 44.2202 160.716 44.3934 160.716 44.5692V54.3464H169.379V44.5692C169.379 44.3934 169.422 44.2202 169.503 44.0642L169.686 43.7029H160.409ZM168.884 44.5692V53.8514H161.211V44.5692C161.211 44.4441 161.196 44.3194 161.166 44.1979H168.929C168.899 44.3194 168.884 44.4441 168.884 44.5692Z" fill="#3F3D56"/>
    <path d="M102.709 87.0197H84.4555C84.0711 87.0193 83.7025 86.8664 83.4307 86.5945C83.1588 86.3227 83.0059 85.9541 83.0055 85.5697V75.846C83.0059 75.4615 83.1588 75.093 83.4307 74.8211C83.7025 74.5493 84.0711 74.3964 84.4555 74.3959H102.709C103.093 74.3964 103.462 74.5493 103.734 74.8211C104.005 75.093 104.158 75.4615 104.159 75.846V85.5697C104.158 85.9541 104.005 86.3227 103.734 86.5945C103.462 86.8664 103.093 87.0193 102.709 87.0197Z" fill="#6C63FF"/>
    <path d="M130.486 87.0197H112.233C111.848 87.0193 111.48 86.8664 111.208 86.5945C110.936 86.3227 110.783 85.9541 110.783 85.5697V75.846C110.783 75.4615 110.936 75.093 111.208 74.8211C111.48 74.5493 111.848 74.3964 112.233 74.3959H130.486C130.87 74.3964 131.239 74.5493 131.511 74.8211C131.783 75.093 131.935 75.4615 131.936 75.846V85.5697C131.935 85.9541 131.783 86.3227 131.511 86.5945C131.239 86.8664 130.87 87.0193 130.486 87.0197Z" fill="#6C63FF"/>
    <path d="M158.263 87.0197H140.01C139.625 87.0193 139.257 86.8664 138.985 86.5945C138.713 86.3227 138.56 85.9541 138.56 85.5697V75.846C138.56 75.4615 138.713 75.093 138.985 74.8211C139.257 74.5493 139.625 74.3964 140.01 74.3959H158.263C158.648 74.3964 159.016 74.5493 159.288 74.8211C159.56 75.093 159.713 75.4615 159.713 75.846V85.5697C159.713 85.9541 159.56 86.3227 159.288 86.5945C159.016 86.8664 158.648 87.0193 158.263 87.0197Z" fill="#6C63FF"/>
    <path d="M102.709 119.445H84.4555C84.0711 119.445 83.7025 119.292 83.4307 119.02C83.1588 118.748 83.0059 118.38 83.0055 117.995V108.272C83.0059 107.887 83.1588 107.519 83.4307 107.247C83.7025 106.975 84.0711 106.822 84.4555 106.822H102.709C103.093 106.822 103.462 106.975 103.734 107.247C104.005 107.519 104.158 107.887 104.159 108.272V117.995C104.158 118.38 104.005 118.748 103.734 119.02C103.462 119.292 103.093 119.445 102.709 119.445Z" fill="#6C63FF"/>
    <path d="M130.486 119.445H112.233C111.848 119.445 111.48 119.292 111.208 119.02C110.936 118.748 110.783 118.38 110.783 117.995V108.272C110.783 107.887 110.936 107.519 111.208 107.247C111.48 106.975 111.848 106.822 112.233 106.822H130.486C130.87 106.822 131.239 106.975 131.511 107.247C131.783 107.519 131.935 107.887 131.936 108.272V117.995C131.935 118.38 131.783 118.748 131.511 119.02C131.239 119.292 130.87 119.445 130.486 119.445Z" fill="#6C63FF"/>
    <path d="M158.263 119.445H140.01C139.625 119.445 139.257 119.292 138.985 119.02C138.713 118.748 138.56 118.38 138.56 117.995V108.272C138.56 107.887 138.713 107.519 138.985 107.247C139.257 106.975 139.625 106.822 140.01 106.822H158.263C158.648 106.822 159.016 106.975 159.288 107.247C159.56 107.519 159.713 107.887 159.713 108.272V117.995C159.713 118.38 159.56 118.748 159.288 119.02C159.016 119.292 158.648 119.445 158.263 119.445Z" fill="#6C63FF"/>
    <path d="M102.709 151.871H84.4555C84.0711 151.871 83.7025 151.718 83.4307 151.446C83.1588 151.174 83.0059 150.805 83.0055 150.421V140.697C83.0059 140.313 83.1588 139.944 83.4307 139.672C83.7025 139.401 84.0711 139.248 84.4555 139.247H102.709C103.093 139.248 103.462 139.401 103.734 139.672C104.005 139.944 104.158 140.313 104.159 140.697V150.421C104.158 150.805 104.005 151.174 103.734 151.446C103.462 151.718 103.093 151.871 102.709 151.871Z" fill="#6C63FF"/>
    <path d="M130.486 151.871H112.233C111.848 151.871 111.48 151.718 111.208 151.446C110.936 151.174 110.783 150.805 110.783 150.421V140.697C110.783 140.313 110.936 139.944 111.208 139.672C111.48 139.401 111.848 139.248 112.233 139.247H130.486C130.87 139.248 131.239 139.401 131.511 139.672C131.783 139.944 131.935 140.313 131.936 140.697V150.421C131.935 150.805 131.783 151.174 131.511 151.446C131.239 151.718 130.87 151.871 130.486 151.871Z" fill="#6C63FF"/>
    <path d="M158.263 151.871H140.01C139.625 151.871 139.257 151.718 138.985 151.446C138.713 151.174 138.56 150.805 138.56 150.421V140.697C138.56 140.313 138.713 139.944 138.985 139.672C139.257 139.401 139.625 139.248 140.01 139.247H158.263C158.648 139.248 159.016 139.401 159.288 139.672C159.56 139.944 159.713 140.313 159.713 140.697V150.421C159.713 150.805 159.56 151.174 159.288 151.446C159.016 151.718 158.648 151.871 158.263 151.871Z" fill="#6C63FF"/>
    <path d="M99.7537 88.2671H78.6083C78.0973 88.2665 77.6075 88.0632 77.2461 87.7019C76.8848 87.3405 76.6816 86.8507 76.681 86.3397V75.0754C76.6816 74.5644 76.8848 74.0745 77.2461 73.7132C77.6075 73.3518 78.0973 73.1486 78.6083 73.148H99.7537C100.265 73.1486 100.755 73.3518 101.116 73.7132C101.477 74.0745 101.68 74.5644 101.681 75.0754V86.3397C101.68 86.8507 101.477 87.3406 101.116 87.7019C100.755 88.0632 100.265 88.2665 99.7537 88.2671ZM78.6083 73.643C78.2286 73.6435 77.8645 73.7945 77.596 74.063C77.3275 74.3316 77.1765 74.6956 77.1761 75.0754V86.3397C77.1765 86.7194 77.3275 87.0835 77.596 87.352C77.8645 87.6205 78.2286 87.7716 78.6083 87.772H99.7537C100.133 87.7716 100.498 87.6205 100.766 87.352C101.035 87.0835 101.186 86.7194 101.186 86.3397V75.0754C101.186 74.6956 101.035 74.3315 100.766 74.063C100.498 73.7945 100.133 73.6435 99.7537 73.643H78.6083Z" fill="#3F3D56"/>
    <path d="M131.932 88.2671H110.787C110.276 88.2665 109.786 88.0632 109.425 87.7019C109.063 87.3406 108.86 86.8507 108.859 86.3397V75.0754C108.86 74.5644 109.063 74.0745 109.425 73.7132C109.786 73.3518 110.276 73.1486 110.787 73.148H131.932C132.443 73.1486 132.933 73.3518 133.294 73.7132C133.656 74.0745 133.859 74.5644 133.859 75.0754V86.3397C133.859 86.8507 133.656 87.3406 133.294 87.7019C132.933 88.0632 132.443 88.2665 131.932 88.2671ZM110.787 73.643C110.407 73.6435 110.043 73.7945 109.774 74.063C109.506 74.3315 109.355 74.6956 109.354 75.0754V86.3397C109.355 86.7194 109.506 87.0835 109.774 87.352C110.043 87.6205 110.407 87.7716 110.787 87.772H131.932C132.312 87.7716 132.676 87.6205 132.944 87.352C133.213 87.0835 133.364 86.7194 133.364 86.3397V75.0754C133.364 74.6956 133.213 74.3315 132.944 74.063C132.676 73.7945 132.312 73.6435 131.932 73.643H110.787Z" fill="#3F3D56"/>
    <path d="M164.11 88.2671H142.965C142.454 88.2665 141.964 88.0632 141.603 87.7019C141.241 87.3406 141.038 86.8507 141.038 86.3397V75.0754C141.038 74.5644 141.241 74.0745 141.603 73.7132C141.964 73.3518 142.454 73.1486 142.965 73.148H164.11C164.621 73.1486 165.111 73.3518 165.472 73.7132C165.834 74.0745 166.037 74.5644 166.038 75.0754V86.3397C166.037 86.8507 165.834 87.3406 165.472 87.7019C165.111 88.0632 164.621 88.2665 164.11 88.2671ZM142.965 73.643C142.585 73.6435 142.221 73.7945 141.953 74.063C141.684 74.3315 141.533 74.6956 141.533 75.0754V86.3397C141.533 86.7194 141.684 87.0835 141.953 87.352C142.221 87.6205 142.585 87.7716 142.965 87.772H164.11C164.49 87.7716 164.854 87.6205 165.123 87.352C165.391 87.0835 165.542 86.7194 165.543 86.3397V75.0754C165.542 74.6956 165.391 74.3315 165.123 74.063C164.854 73.7945 164.49 73.6435 164.11 73.643H142.965Z" fill="#3F3D56"/>
    <path d="M99.7537 120.693H78.6083C78.0973 120.693 77.6075 120.489 77.2461 120.128C76.8848 119.767 76.6816 119.277 76.681 118.766V107.501C76.6816 106.99 76.8848 106.501 77.2461 106.139C77.6075 105.778 78.0973 105.575 78.6083 105.574H99.7537C100.265 105.575 100.755 105.778 101.116 106.139C101.477 106.501 101.68 106.99 101.681 107.501V118.766C101.68 119.277 101.477 119.767 101.116 120.128C100.755 120.489 100.265 120.693 99.7537 120.693ZM78.6083 106.069C78.2286 106.07 77.8645 106.221 77.596 106.489C77.3275 106.758 77.1765 107.122 77.1761 107.501V118.766C77.1765 119.146 77.3275 119.51 77.596 119.778C77.8645 120.047 78.2286 120.198 78.6083 120.198H99.7537C100.133 120.198 100.498 120.047 100.766 119.778C101.035 119.51 101.186 119.146 101.186 118.766V107.501C101.186 107.122 101.035 106.758 100.766 106.489C100.498 106.221 100.133 106.07 99.7537 106.069H78.6083Z" fill="#3F3D56"/>
    <path d="M131.932 120.693H110.787C110.276 120.693 109.786 120.489 109.425 120.128C109.063 119.767 108.86 119.277 108.859 118.766V107.501C108.86 106.99 109.063 106.501 109.425 106.139C109.786 105.778 110.276 105.575 110.787 105.574H131.932C132.443 105.575 132.933 105.778 133.294 106.139C133.656 106.501 133.859 106.99 133.859 107.501V118.766C133.859 119.277 133.656 119.767 133.294 120.128C132.933 120.489 132.443 120.693 131.932 120.693ZM110.787 106.069C110.407 106.07 110.043 106.221 109.774 106.489C109.506 106.758 109.355 107.122 109.354 107.501V118.766C109.355 119.146 109.506 119.51 109.774 119.778C110.043 120.047 110.407 120.198 110.787 120.198H131.932C132.312 120.198 132.676 120.047 132.944 119.778C133.213 119.51 133.364 119.146 133.364 118.766V107.501C133.364 107.122 133.213 106.758 132.944 106.489C132.676 106.221 132.312 106.07 131.932 106.069H110.787Z" fill="#3F3D56"/>
    <path d="M164.11 120.693H142.965C142.454 120.693 141.964 120.489 141.603 120.128C141.241 119.767 141.038 119.277 141.038 118.766V107.501C141.038 106.99 141.241 106.501 141.603 106.139C141.964 105.778 142.454 105.575 142.965 105.574H164.11C164.621 105.575 165.111 105.778 165.472 106.139C165.834 106.501 166.037 106.99 166.038 107.501V118.766C166.037 119.277 165.834 119.767 165.472 120.128C165.111 120.489 164.621 120.693 164.11 120.693ZM142.965 106.069C142.585 106.07 142.221 106.221 141.953 106.489C141.684 106.758 141.533 107.122 141.533 107.501V118.766C141.533 119.146 141.684 119.51 141.953 119.778C142.221 120.047 142.585 120.198 142.965 120.198H164.11C164.49 120.198 164.854 120.047 165.123 119.778C165.391 119.51 165.542 119.146 165.543 118.766V107.501C165.542 107.122 165.391 106.758 165.123 106.489C164.854 106.221 164.49 106.07 164.11 106.069H142.965Z" fill="#3F3D56"/>
    <path d="M99.7537 153.119H78.6083C78.0973 153.118 77.6075 152.915 77.2461 152.554C76.8848 152.192 76.6816 151.702 76.681 151.191V139.927C76.6816 139.416 76.8848 138.926 77.2461 138.565C77.6075 138.204 78.0973 138 78.6083 138H99.7537C100.265 138 100.755 138.204 101.116 138.565C101.477 138.926 101.68 139.416 101.681 139.927V151.191C101.68 151.702 101.477 152.192 101.116 152.554C100.755 152.915 100.265 153.118 99.7537 153.119ZM78.6083 138.495C78.2286 138.495 77.8645 138.646 77.596 138.915C77.3275 139.183 77.1765 139.547 77.1761 139.927V151.191C77.1765 151.571 77.3275 151.935 77.596 152.204C77.8645 152.472 78.2286 152.623 78.6083 152.624H99.7537C100.133 152.623 100.498 152.472 100.766 152.204C101.035 151.935 101.186 151.571 101.186 151.191V139.927C101.186 139.547 101.035 139.183 100.766 138.915C100.498 138.646 100.133 138.495 99.7537 138.495H78.6083Z" fill="#3F3D56"/>
    <path d="M131.932 153.119H110.787C110.276 153.118 109.786 152.915 109.425 152.554C109.063 152.192 108.86 151.702 108.859 151.191V139.927C108.86 139.416 109.063 138.926 109.425 138.565C109.786 138.204 110.276 138 110.787 138H131.932C132.443 138 132.933 138.204 133.294 138.565C133.656 138.926 133.859 139.416 133.859 139.927V151.191C133.859 151.702 133.656 152.192 133.294 152.554C132.933 152.915 132.443 153.118 131.932 153.119ZM110.787 138.495C110.407 138.495 110.043 138.646 109.774 138.915C109.506 139.183 109.355 139.547 109.354 139.927V151.191C109.355 151.571 109.506 151.935 109.774 152.204C110.043 152.472 110.407 152.623 110.787 152.624H131.932C132.312 152.623 132.676 152.472 132.944 152.204C133.213 151.935 133.364 151.571 133.364 151.191V139.927C133.364 139.547 133.213 139.183 132.944 138.915C132.676 138.646 132.312 138.495 131.932 138.495H110.787Z" fill="#3F3D56"/>
    <path d="M164.11 153.119H142.965C142.454 153.118 141.964 152.915 141.603 152.554C141.241 152.192 141.038 151.702 141.038 151.191V139.927C141.038 139.416 141.241 138.926 141.603 138.565C141.964 138.204 142.454 138 142.965 138H164.11C164.621 138 165.111 138.204 165.472 138.565C165.834 138.926 166.037 139.416 166.038 139.927V151.191C166.037 151.702 165.834 152.192 165.472 152.554C165.111 152.915 164.621 153.118 164.11 153.119ZM142.965 138.495C142.585 138.495 142.221 138.646 141.953 138.915C141.684 139.183 141.533 139.547 141.533 139.927V151.191C141.533 151.571 141.684 151.935 141.953 152.204C142.221 152.472 142.585 152.623 142.965 152.624H164.11C164.49 152.623 164.854 152.472 165.123 152.204C165.391 151.935 165.542 151.571 165.543 151.191V139.927C165.542 139.547 165.391 139.183 165.123 138.915C164.854 138.646 164.49 138.495 164.11 138.495H142.965Z" fill="#3F3D56"/>
    <path d="M250.252 191.351H0.747525C0.681877 191.351 0.618918 191.325 0.572498 191.279C0.526078 191.232 0.5 191.169 0.5 191.104C0.5 191.038 0.526078 190.975 0.572498 190.929C0.618918 190.882 0.681877 190.856 0.747525 190.856H250.252C250.318 190.856 250.381 190.882 250.428 190.929C250.474 190.975 250.5 191.038 250.5 191.104C250.5 191.169 250.474 191.232 250.428 191.279C250.381 191.325 250.318 191.351 250.252 191.351Z" fill="#3F3D56"/>
    <path d="M133.859 167.393C133.866 166.829 133.648 166.284 133.254 165.88C132.859 165.476 132.32 165.244 131.755 165.237H121.359V190.856H133.859V167.393Z" fill="#3F3D56"/>
    <path d="M121.607 190.609H108.612V167.465C108.613 166.842 108.86 166.244 109.301 165.803C109.742 165.362 110.34 165.114 110.963 165.114H121.607V190.609ZM109.107 190.114H121.112V165.609H110.963C110.471 165.609 109.999 165.805 109.651 166.153C109.303 166.501 109.107 166.973 109.107 167.465V190.114Z" fill="#3F3D56"/>
    <path d="M110.221 179.594C110.631 179.594 110.963 179.261 110.963 178.851C110.963 178.441 110.631 178.109 110.221 178.109C109.81 178.109 109.478 178.441 109.478 178.851C109.478 179.261 109.81 179.594 110.221 179.594Z" fill="#3F3D56"/>
  </g>
  <defs>
    <clipPath id="clip0_385_7212">
      <rect width="250" height="190.734" fill="white" transform="translate(0.5 0.633224)"/>
    </clipPath>
  </defs>
</svg>