<svg xmlns="http://www.w3.org/2000/svg" width="178" height="121" viewBox="0 0 178 121" fill="none">
  <g clip-path="url(#clip0_271_2518)">
    <path d="M12.2198 91.1766C11.3772 91.1766 10.5329 91.2113 9.70838 91.2814L9.58838 91.2916C4.11917 91.7751 0.118687 94.5799 0.283216 97.8163L0.315023 98.4015C0.335998 98.7714 0.358346 99.1691 0.376741 99.6103C0.386705 99.8279 0.683628 99.9949 1.05309 99.9949H135.583C145.068 99.9373 154.518 99.8649 163.67 99.7795C165.387 99.7831 167.102 99.6942 168.809 99.5132C171.352 99.2122 173.118 98.6155 174.206 97.689H174.207C175.56 96.5401 175.603 95.0934 175.521 93.4589C175.355 90.1584 175.189 86.6911 175.024 83.2343C174.878 80.1878 174.733 77.1494 174.588 74.2405C174.498 72.5142 174.299 70.9904 172.762 69.8258C171.095 68.5664 168.056 67.928 163.729 67.928C163.677 67.928 163.625 67.928 163.572 67.9282C150.011 67.9764 136.573 72.6395 130.136 79.5315C129.394 80.3252 128.704 81.1748 128.035 81.9967C127.048 83.2107 126.028 84.4658 124.81 85.5883C124.15 86.2042 123.437 86.7601 122.679 87.2492C122.627 87.2854 122.567 87.3241 122.504 87.3608C122.359 87.4551 122.208 87.5461 122.06 87.6271C121.196 88.1259 120.286 88.5397 119.343 88.8626L119.247 88.8945C119.176 88.9201 119.098 88.9458 119.02 88.9692C118.475 89.1441 117.909 89.2954 117.342 89.4177C114.888 89.9586 112.097 90.0883 109.048 89.8027C106.248 89.5336 103.484 88.9703 100.802 88.1223C97.9786 87.23 95.3358 86.1174 92.78 85.0416C91.6574 84.5688 90.4962 84.0802 89.3366 83.6171C89.1186 83.53 88.9042 83.4448 88.6866 83.3596C87.2702 82.8076 85.9862 82.3517 84.761 81.9659C81.7258 81.0063 78.5839 80.4243 75.4064 80.2333C72.0336 80.0486 69.0614 80.3969 66.5743 81.266C65.8887 81.5047 65.221 81.7924 64.5766 82.1267C61.6308 83.6565 59.8148 85.9141 58.0588 88.0975C55.8744 90.8132 53.6155 93.6217 49.1551 95.0775C44.0082 96.7589 36.4955 96.0604 31.1804 94.8456C29.5093 94.4636 27.8402 94.0242 26.2261 93.599C25.5741 93.4273 24.9217 93.2567 24.2689 93.0874C22.986 92.7561 21.9361 92.5024 20.9647 92.2881L20.6575 92.2198C20.4866 92.1827 20.3155 92.1456 20.1414 92.1102C18.9876 91.868 17.9132 91.6774 16.8552 91.5274L16.6049 91.4909C16.1031 91.4248 15.6339 91.3698 15.1735 91.3235L14.9897 91.3053C14.088 91.2195 13.1548 91.1766 12.2198 91.1766Z" fill="#F2F2F2"/>
    <path d="M151.331 94.7886C155.117 91.3775 160.747 89.6623 165.47 91.575C160.625 94.2648 156.888 98.5815 154.92 103.761C154.168 105.762 153.54 108.065 151.69 109.136C150.54 109.802 149.108 109.835 147.818 109.513C146.528 109.192 145.345 108.547 144.179 107.908L143.847 107.901C145.337 103.028 147.546 98.1997 151.331 94.7886Z" fill="#E6E6E6"/>
    <path d="M165.443 91.6786C161.26 92.2191 157.354 94.0639 154.279 96.951C153.607 97.5607 153.034 98.2727 152.583 99.0608C152.168 99.8427 151.97 100.721 152.01 101.606C152.03 102.431 152.147 103.272 151.966 104.088C151.868 104.504 151.682 104.895 151.422 105.235C151.162 105.574 150.833 105.855 150.457 106.058C149.532 106.589 148.472 106.757 147.43 106.885C146.272 107.027 145.068 107.156 144.066 107.805C143.945 107.883 143.83 107.69 143.951 107.612C145.694 106.483 147.9 106.893 149.774 106.14C150.648 105.788 151.422 105.171 151.696 104.237C151.936 103.421 151.816 102.553 151.788 101.717C151.737 100.855 151.898 99.994 152.256 99.2084C152.666 98.3998 153.21 97.667 153.865 97.041C155.319 95.6084 156.988 94.4132 158.813 93.4991C160.89 92.4444 163.131 91.7527 165.441 91.454C165.584 91.4355 165.585 91.6603 165.443 91.6786Z" fill="white"/>
    <path d="M155.215 95.963C154.8 95.3814 154.606 94.6714 154.667 93.9599C154.728 93.2483 155.04 92.5816 155.547 92.0787C155.65 91.9773 155.812 92.1325 155.709 92.234C155.236 92.7015 154.946 93.3226 154.89 93.9853C154.835 94.648 155.019 95.3086 155.408 95.8479C155.492 95.9652 155.299 96.0796 155.215 95.963Z" fill="white"/>
    <path d="M151.944 101.189C153.382 101.443 154.862 101.147 156.091 100.358C156.213 100.28 156.328 100.473 156.206 100.551C154.926 101.369 153.385 101.675 151.889 101.406C151.747 101.381 151.803 101.163 151.944 101.189Z" fill="white"/>
    <path d="M160.908 92.7416C161.021 93.0001 161.197 93.2263 161.42 93.4C161.642 93.5737 161.904 93.6895 162.182 93.7368C162.325 93.7607 162.269 93.9783 162.127 93.9546C161.82 93.9008 161.531 93.7727 161.285 93.5813C161.039 93.3899 160.843 93.1412 160.715 92.8568C160.701 92.831 160.697 92.8007 160.704 92.7721C160.711 92.7435 160.729 92.7187 160.754 92.7028C160.779 92.6877 160.81 92.6833 160.839 92.6906C160.868 92.6978 160.892 92.7162 160.908 92.7416Z" fill="white"/>
    <path d="M170.671 108.025C170.581 108.013 170.491 108 170.401 107.989C169.196 107.829 167.98 107.768 166.765 107.805C166.671 107.806 166.575 107.809 166.482 107.813C163.555 107.933 160.677 108.596 157.993 109.767C156.925 110.234 155.894 110.781 154.91 111.405C153.55 112.266 152.144 113.307 150.624 113.659C150.466 113.697 150.305 113.726 150.144 113.744L143.863 108.306C143.855 108.287 143.846 108.268 143.838 108.249L143.577 108.043C143.625 108.007 143.677 107.971 143.725 107.936C143.753 107.915 143.783 107.895 143.811 107.875C143.83 107.861 143.849 107.848 143.866 107.834C143.872 107.83 143.878 107.825 143.884 107.822C143.9 107.809 143.917 107.798 143.932 107.787C144.217 107.585 144.504 107.384 144.793 107.186C144.794 107.184 144.794 107.184 144.797 107.184C146.984 105.65 149.346 104.38 151.832 103.402C151.907 103.374 151.983 103.345 152.06 103.319C153.18 102.902 154.332 102.578 155.504 102.35C156.147 102.226 156.795 102.136 157.447 102.078C159.131 101.933 160.827 102.053 162.474 102.434C165.756 103.196 168.758 104.998 170.537 107.809C170.582 107.881 170.626 107.952 170.671 108.025Z" fill="#E6E6E6"/>
    <path d="M170.587 108.093C166.922 106.006 162.693 105.127 158.499 105.581C157.595 105.662 156.709 105.886 155.874 106.244C155.072 106.618 154.385 107.201 153.885 107.931C153.404 108.602 152.99 109.344 152.355 109.887C152.026 110.16 151.643 110.36 151.23 110.474C150.818 110.589 150.387 110.615 149.964 110.551C148.906 110.418 147.959 109.914 147.049 109.388C146.04 108.805 145.001 108.183 143.81 108.098C143.666 108.088 143.69 107.864 143.834 107.875C145.906 108.022 147.419 109.678 149.37 110.205C150.28 110.451 151.269 110.423 152.05 109.843C152.733 109.335 153.16 108.571 153.641 107.887C154.119 107.168 154.765 106.576 155.524 106.165C156.338 105.766 157.214 105.508 158.114 105.403C160.137 105.134 162.19 105.185 164.197 105.554C166.49 105.962 168.697 106.76 170.721 107.912C170.846 107.983 170.712 108.163 170.587 108.093Z" fill="white"/>
    <path d="M159.841 105.355C159.86 104.641 160.133 103.958 160.61 103.426C161.087 102.894 161.737 102.55 162.445 102.454C162.588 102.435 162.624 102.656 162.481 102.675C161.821 102.764 161.216 103.085 160.773 103.581C160.329 104.077 160.078 104.714 160.064 105.379C160.061 105.524 159.838 105.499 159.841 105.355Z" fill="white"/>
    <path d="M154.084 107.558C155.078 108.627 156.439 109.282 157.894 109.392C158.039 109.403 158.014 109.626 157.87 109.615C156.356 109.498 154.941 108.814 153.909 107.699C153.81 107.593 153.986 107.453 154.084 107.558Z" fill="white"/>
    <path d="M166.326 106.211C166.261 106.485 166.265 106.772 166.338 107.044C166.411 107.317 166.551 107.567 166.744 107.773C166.844 107.878 166.668 108.018 166.569 107.913C166.357 107.686 166.203 107.409 166.121 107.108C166.04 106.807 166.034 106.491 166.103 106.186C166.107 106.157 166.122 106.131 166.145 106.112C166.168 106.094 166.197 106.085 166.226 106.087C166.256 106.09 166.283 106.105 166.302 106.128C166.32 106.151 166.329 106.181 166.326 106.211Z" fill="white"/>
    <path d="M52.2372 98.181C55.3368 93.4796 60.8816 90.0788 66.465 90.8106C62.0318 95.0351 59.2357 100.692 58.5715 106.779C58.3238 109.128 58.2929 111.766 56.6129 113.426C55.5676 114.459 54.0455 114.892 52.5761 114.907C51.1067 114.922 49.6623 114.561 48.2372 114.203L47.8801 114.287C48.118 108.661 49.1375 102.882 52.2372 98.181Z" fill="#E6E6E6"/>
    <path d="M66.4657 90.9287C62.1423 92.6706 58.4777 95.7304 55.9923 99.6735C55.4422 100.513 55.0278 101.434 54.7645 102.402C54.5384 103.354 54.5713 104.349 54.8597 105.283C55.1111 106.16 55.4699 107.028 55.5038 107.951C55.5141 108.423 55.4244 108.893 55.2406 109.328C55.0568 109.764 54.783 110.155 54.4372 110.478C53.5965 111.303 52.5093 111.777 51.43 112.204C50.2316 112.677 48.9794 113.15 48.0886 114.123C47.9806 114.241 47.804 114.067 47.9118 113.949C49.4618 112.256 51.935 112.082 53.7298 110.755C54.5673 110.135 55.2232 109.26 55.2564 108.185C55.2855 107.245 54.9163 106.35 54.6541 105.464C54.3593 104.557 54.2913 103.591 54.456 102.651C54.6692 101.672 55.0474 100.737 55.5744 99.8851C56.7303 97.9485 58.1834 96.2057 59.8807 94.7205C61.8083 93.0147 64.0136 91.6512 66.401 90.6891C66.5488 90.6296 66.6126 90.8696 66.4657 90.9287Z" fill="white"/>
    <path d="M56.7176 98.3568C56.1127 97.85 55.7076 97.1446 55.5746 96.3667C55.4417 95.5888 55.5896 94.7889 55.992 94.11C56.0739 93.9729 56.2908 94.0937 56.2088 94.231C55.8329 94.8625 55.6952 95.6076 55.8205 96.3317C55.9457 97.0559 56.3257 97.7114 56.8918 98.18C57.0148 98.282 56.8398 98.4582 56.7176 98.3568Z" fill="white"/>
    <path d="M54.6736 104.856C56.2818 104.728 57.7829 103.999 58.8776 102.814C58.9859 102.696 59.1626 102.871 59.0543 102.988C57.9129 104.219 56.3493 104.975 54.6754 105.104C54.5159 105.116 54.5149 104.868 54.6736 104.856Z" fill="white"/>
    <path d="M61.9105 93.3276C62.1037 93.5724 62.3547 93.7655 62.641 93.8894C62.9272 94.0133 63.2398 94.0641 63.5505 94.0373C63.7099 94.0231 63.7106 94.2714 63.5524 94.2855C63.2089 94.3135 62.8638 94.2569 62.5472 94.1207C62.2306 93.9846 61.9522 93.7729 61.7363 93.5043C61.7138 93.4807 61.7012 93.4494 61.7009 93.4169C61.7007 93.3843 61.7129 93.3528 61.735 93.3289C61.7582 93.3056 61.7896 93.2924 61.8225 93.2921C61.8553 93.2919 61.887 93.3046 61.9105 93.3276Z" fill="white"/>
    <path d="M76.6038 106.958C76.5046 106.969 76.4054 106.981 76.3051 106.995C74.9718 107.159 73.6542 107.431 72.365 107.809C72.2649 107.836 72.1638 107.866 72.0647 107.896C68.9685 108.839 66.0742 110.348 63.5291 112.348C62.517 113.144 61.567 114.016 60.6873 114.957C59.4725 116.256 58.2587 117.761 56.7306 118.56C56.5721 118.645 56.4085 118.72 56.2407 118.785L48.0107 114.716C47.9966 114.697 47.9815 114.681 47.9674 114.662L47.6313 114.514C47.6733 114.463 47.718 114.41 47.76 114.358C47.7842 114.328 47.8102 114.299 47.8345 114.269C47.8512 114.249 47.868 114.23 47.882 114.211C47.8876 114.204 47.8932 114.198 47.8978 114.193C47.9118 114.174 47.9268 114.158 47.9398 114.141C48.1886 113.846 48.4399 113.552 48.6937 113.259C48.6946 113.257 48.6946 113.257 48.6974 113.256C50.6369 111.03 52.7792 108.947 55.1698 107.254C55.2417 107.203 55.3145 107.151 55.3902 107.102C56.472 106.345 57.6138 105.678 58.8042 105.107C59.4571 104.796 60.1253 104.519 60.8062 104.276C62.5667 103.652 64.4145 103.309 66.2817 103.259C70.0041 103.16 73.7167 104.252 76.4006 106.764C76.4692 106.828 76.5361 106.891 76.6038 106.958Z" fill="#E6E6E6"/>
    <path d="M76.5336 107.053C72.0329 105.841 67.2647 106.077 62.9062 107.729C61.9616 108.068 61.0764 108.554 60.283 109.169C59.5296 109.793 58.9569 110.607 58.6245 111.527C58.2973 112.378 58.0612 113.287 57.5328 114.044C57.2565 114.428 56.9023 114.748 56.4933 114.986C56.0844 115.223 55.63 115.37 55.1598 115.42C53.9916 115.572 52.8381 115.296 51.7195 114.987C50.4775 114.644 49.1929 114.268 47.8958 114.508C47.7386 114.537 47.7026 114.292 47.8595 114.263C50.1163 113.844 52.1958 115.194 54.4282 115.215C55.4698 115.225 56.5207 114.92 57.1942 114.082C57.7831 113.35 58.0273 112.413 58.3512 111.548C58.6623 110.645 59.1896 109.833 59.887 109.182C60.6465 108.529 61.5116 108.01 62.4452 107.647C64.534 106.796 66.7436 106.28 68.993 106.116C71.5591 105.914 74.1407 106.153 76.6262 106.823C76.7801 106.864 76.6864 107.094 76.5336 107.053Z" fill="white"/>
    <path d="M64.2783 107.115C64.1004 106.346 64.2016 105.539 64.5638 104.838C64.926 104.137 65.5257 103.587 66.2557 103.287C66.4037 103.227 66.5041 103.454 66.356 103.514C65.6757 103.792 65.1171 104.304 64.7811 104.958C64.4452 105.612 64.3539 106.364 64.5238 107.079C64.5605 107.234 64.3148 107.269 64.2783 107.115Z" fill="white"/>
    <path d="M58.7335 111.073C60.0944 111.94 61.7318 112.261 63.3193 111.974C63.4766 111.945 63.5126 112.191 63.3556 112.22C61.703 112.515 59.9997 112.177 58.5855 111.272C58.4508 111.186 58.5995 110.987 58.7335 111.073Z" fill="white"/>
    <path d="M71.4524 106.226C71.4593 106.538 71.5434 106.843 71.6974 107.114C71.8514 107.385 72.0703 107.614 72.3346 107.78C72.4703 107.864 72.3215 108.063 72.1866 107.979C71.8955 107.795 71.654 107.542 71.4832 107.242C71.3125 106.943 71.2176 106.606 71.2069 106.262C71.2032 106.23 71.2119 106.197 71.2313 106.171C71.2508 106.145 71.2794 106.127 71.3115 106.121C71.3441 106.116 71.3771 106.125 71.4035 106.144C71.4299 106.164 71.4475 106.193 71.4524 106.226Z" fill="white"/>
    <path d="M74.2972 62.9332C74.5029 62.7286 74.6612 62.4814 74.7609 62.209C74.8607 61.9365 74.8996 61.6455 74.8747 61.3565C74.8499 61.0674 74.762 60.7873 74.6172 60.5359C74.4723 60.2845 74.2742 60.0679 74.0366 59.9014L77.276 44.2235L73.7811 45.3261L71.1748 60.4932C70.9215 60.9108 70.8302 61.4069 70.9181 61.8874C71.0061 62.3678 71.2673 62.7993 71.6522 63.1001C72.0371 63.4009 72.5189 63.55 73.0064 63.5192C73.4939 63.4885 73.9532 63.28 74.2972 62.9332Z" fill="#FFB6B6"/>
    <path d="M81.785 21.0257L79.62 19.3915C79.62 19.3915 77.7102 19.2562 77.3719 22.7004C77.0337 26.1445 74.9158 39.3631 74.9158 39.3631L71.603 54.7067L76.1889 55.7133L79.7371 39.1548L83.289 27.731L81.785 21.0257Z" fill="#E6E6E6"/>
    <path d="M80.1357 49.4169L69.7508 41.342C69.589 41.216 69.4839 41.0309 69.4584 40.8274C69.4329 40.6239 69.4892 40.4186 69.6149 40.2566L76.6807 31.1693C76.8068 31.0076 76.9919 30.9024 77.1954 30.877C77.3989 30.8515 77.6042 30.9078 77.7662 31.0335L88.1511 39.1083C88.3129 39.2344 88.418 39.4195 88.4435 39.623C88.469 39.8265 88.4127 40.0317 88.287 40.1938L81.2211 49.2811C81.0951 49.4428 80.91 49.5479 80.7065 49.5734C80.503 49.5989 80.2977 49.5426 80.1357 49.4169Z" fill="#042134"/>
    <path d="M80.0785 48.5814L70.5745 41.1915C70.4309 41.0796 70.3375 40.9153 70.3149 40.7346C70.2923 40.5539 70.3423 40.3717 70.4539 40.2278L76.8594 31.9898C76.9713 31.8461 77.1356 31.7528 77.3163 31.7302C77.497 31.7076 77.6792 31.7575 77.8231 31.8692L87.3271 39.259C87.4707 39.3709 87.5641 39.5353 87.5867 39.7159C87.6093 39.8966 87.5593 40.0789 87.4477 40.2228L81.0422 48.4608C80.9303 48.6044 80.766 48.6978 80.5853 48.7204C80.4046 48.743 80.2223 48.693 80.0785 48.5814Z" fill="white"/>
    <path d="M71.8206 40.9819C71.7847 40.9539 71.7614 40.9128 71.7557 40.8676C71.7501 40.8225 71.7626 40.7769 71.7905 40.7409L75.0219 36.5851C75.0498 36.5492 75.0909 36.5258 75.1361 36.5201C75.1584 36.5173 75.1811 36.519 75.2029 36.5249C75.2246 36.5309 75.245 36.5411 75.2628 36.555C75.2806 36.5688 75.2955 36.586 75.3066 36.6056C75.3178 36.6252 75.3249 36.6468 75.3277 36.6692C75.3305 36.6915 75.3289 36.7142 75.3229 36.736C75.317 36.7577 75.3068 36.7781 75.2929 36.7959L72.0615 40.9517C72.0336 40.9876 71.9925 41.011 71.9473 41.0166C71.9021 41.0223 71.8566 41.0098 71.8206 40.9819Z" fill="#E4E4E4"/>
    <path d="M72.356 41.3984C72.3201 41.3704 72.2968 41.3293 72.2911 41.2842C72.2855 41.239 72.298 41.1934 72.3259 41.1574L75.5573 37.0016C75.5852 36.9657 75.6263 36.9423 75.6715 36.9366C75.7167 36.931 75.7622 36.9435 75.7982 36.9715C75.8341 36.9994 75.8575 37.0405 75.8632 37.0857C75.8688 37.1309 75.8563 37.1764 75.8283 37.2124L72.5969 41.3682C72.569 41.4041 72.5279 41.4275 72.4827 41.4331C72.4376 41.4388 72.392 41.4263 72.356 41.3984Z" fill="#E4E4E4"/>
    <path d="M74.7225 39.4604C74.6866 39.4324 74.6632 39.3913 74.6576 39.3461C74.6519 39.301 74.6644 39.2554 74.6923 39.2194L76.093 37.418C76.1069 37.4001 76.1241 37.3852 76.1437 37.374C76.1633 37.3628 76.1849 37.3556 76.2073 37.3528C76.2297 37.35 76.2524 37.3516 76.2742 37.3576C76.296 37.3635 76.3163 37.3737 76.3342 37.3876C76.352 37.4014 76.3669 37.4187 76.378 37.4383C76.3892 37.4579 76.3964 37.4796 76.3992 37.502C76.4019 37.5244 76.4003 37.5471 76.3943 37.5688C76.3883 37.5906 76.378 37.611 76.3641 37.6288L74.9634 39.4302C74.9354 39.4661 74.8943 39.4895 74.8492 39.4951C74.804 39.5008 74.7584 39.4883 74.7225 39.4604Z" fill="#E4E4E4"/>
    <path d="M75.4444 42.9956C75.4085 42.9676 75.3852 42.9265 75.3795 42.8813C75.3739 42.8362 75.3864 42.7906 75.4143 42.7546L80.5156 36.1939C80.5294 36.1761 80.5467 36.1612 80.5662 36.15C80.5858 36.1389 80.6075 36.1317 80.6298 36.1289C80.6522 36.1261 80.6749 36.1277 80.6966 36.1337C80.7184 36.1397 80.7387 36.1499 80.7565 36.1637C80.7743 36.1775 80.7892 36.1948 80.8004 36.2144C80.8115 36.234 80.8187 36.2556 80.8215 36.2779C80.8243 36.3003 80.8227 36.323 80.8167 36.3447C80.8107 36.3665 80.8005 36.3868 80.7867 36.4046L75.6853 42.9654C75.6573 43.0013 75.6163 43.0247 75.5711 43.0303C75.5259 43.036 75.4804 43.0235 75.4444 42.9956Z" fill="#E4E4E4"/>
    <path d="M75.9801 43.412C75.9441 43.384 75.9208 43.3429 75.9151 43.2977C75.9095 43.2526 75.922 43.207 75.9499 43.171L81.0512 36.6102C81.0651 36.5924 81.0823 36.5776 81.1019 36.5664C81.1215 36.5553 81.1431 36.5481 81.1655 36.5453C81.1878 36.5425 81.2105 36.5441 81.2323 36.5501C81.254 36.5561 81.2744 36.5663 81.2922 36.5801C81.31 36.5939 81.3249 36.6112 81.336 36.6307C81.3472 36.6503 81.3544 36.6719 81.3572 36.6943C81.36 36.7167 81.3583 36.7394 81.3523 36.7611C81.3464 36.7829 81.3362 36.8032 81.3223 36.821L76.221 43.3818C76.193 43.4177 76.1519 43.4411 76.1067 43.4467C76.0616 43.4524 76.016 43.4399 75.9801 43.412Z" fill="#E4E4E4"/>
    <path d="M77.1959 44.3573C77.16 44.3293 77.1366 44.2882 77.131 44.243C77.1253 44.1979 77.1378 44.1523 77.1657 44.1163L82.2671 37.5556C82.2809 37.5378 82.2981 37.5229 82.3177 37.5117C82.3373 37.5006 82.3589 37.4934 82.3813 37.4906C82.4037 37.4878 82.4264 37.4894 82.4481 37.4954C82.4698 37.5014 82.4902 37.5116 82.508 37.5254C82.5258 37.5392 82.5407 37.5565 82.5518 37.5761C82.563 37.5957 82.5702 37.6173 82.573 37.6396C82.5758 37.662 82.5741 37.6847 82.5681 37.7064C82.5622 37.7282 82.552 37.7485 82.5381 37.7663L77.4368 44.3271C77.4088 44.363 77.3677 44.3864 77.3226 44.392C77.2774 44.3977 77.2318 44.3852 77.1959 44.3573Z" fill="#E4E4E4"/>
    <path d="M77.7313 44.7737C77.6954 44.7457 77.672 44.7046 77.6664 44.6594C77.6607 44.6143 77.6732 44.5687 77.7011 44.5327L82.8025 37.9719C82.8163 37.9541 82.8335 37.9392 82.8531 37.9281C82.8727 37.9169 82.8943 37.9098 82.9167 37.907C82.9391 37.9042 82.9618 37.9058 82.9835 37.9118C83.0052 37.9178 83.0256 37.928 83.0434 37.9418C83.0612 37.9556 83.0761 37.9728 83.0872 37.9924C83.0984 38.012 83.1056 38.0336 83.1084 38.056C83.1112 38.0784 83.1095 38.1011 83.1036 38.1228C83.0976 38.1446 83.0874 38.1649 83.0736 38.1827L77.9722 44.7435C77.9442 44.7794 77.9031 44.8028 77.858 44.8084C77.8128 44.8141 77.7672 44.8016 77.7313 44.7737Z" fill="#E4E4E4"/>
    <path d="M78.9471 45.719C78.9112 45.691 78.8878 45.6499 78.8822 45.6047C78.8765 45.5596 78.889 45.514 78.9169 45.478L84.0183 38.9173C84.0321 38.8995 84.0493 38.8846 84.0689 38.8734C84.0885 38.8623 84.1101 38.8551 84.1325 38.8523C84.1549 38.8495 84.1776 38.8511 84.1993 38.8571C84.2211 38.8631 84.2414 38.8733 84.2592 38.8871C84.277 38.9009 84.2919 38.9182 84.3031 38.9377C84.3142 38.9573 84.3214 38.9789 84.3242 39.0013C84.327 39.0237 84.3253 39.0464 84.3194 39.0681C84.3134 39.0899 84.3032 39.1102 84.2894 39.128L79.188 45.6888C79.16 45.7247 79.1189 45.7481 79.0738 45.7537C79.0286 45.7594 78.983 45.7469 78.9471 45.719Z" fill="#E4E4E4"/>
    <path d="M79.4827 46.1354C79.4468 46.1074 79.4235 46.0663 79.4178 46.0212C79.4122 45.976 79.4247 45.9304 79.4526 45.8945L84.5539 39.3337C84.5819 39.2979 84.623 39.2747 84.6681 39.2691C84.7132 39.2635 84.7587 39.2761 84.7945 39.304C84.8304 39.3319 84.8538 39.3728 84.8595 39.4179C84.8652 39.463 84.8528 39.5085 84.825 39.5445L79.7237 46.1053C79.6957 46.1412 79.6546 46.1645 79.6094 46.1701C79.5643 46.1758 79.5187 46.1633 79.4827 46.1354Z" fill="#E4E4E4"/>
    <path d="M70.9565 53.7547C70.9954 53.7547 71.027 53.7232 71.027 53.6843C71.027 53.6453 70.9954 53.6138 70.9565 53.6138C70.9175 53.6138 70.886 53.6453 70.886 53.6843C70.886 53.7232 70.9175 53.7547 70.9565 53.7547Z" fill="white"/>
    <path d="M81.2284 5.18179C80.9805 6.51394 80.5739 7.8116 80.0174 9.04708C76.8305 15.7887 85.906 13.5913 89.1493 13.5913C92.6953 13.5913 96.0881 15.456 95.5699 7.17065C95.3486 3.63154 92.6953 0.75 89.1493 0.75C86.1204 0.75 81.8618 2.09628 81.2284 5.18179Z" fill="#031A2A"/>
    <path d="M92.4548 104.057H89.4336L87.9958 92.4042H92.4548V104.057Z" fill="#FFB6B6"/>
    <path d="M94.0494 109.292H91.8828L91.496 107.247L90.5055 109.292H84.7591C84.4837 109.292 84.2154 109.204 83.9935 109.041C83.7717 108.878 83.6078 108.648 83.5258 108.385C83.4438 108.122 83.4481 107.84 83.5379 107.579C83.6277 107.319 83.7984 107.094 84.0251 106.937L88.614 103.768V101.7L93.4408 101.988L94.0494 109.292Z" fill="#031A2A"/>
    <path d="M110.404 100.245L107.979 102.048L99.8721 93.5545L103.45 90.8936L110.404 100.245Z" fill="#FFB6B6"/>
    <path d="M114.807 103.494L113.068 104.787L111.537 103.376L111.963 105.609L107.352 109.037C107.131 109.202 106.863 109.291 106.588 109.293C106.312 109.294 106.044 109.207 105.821 109.045C105.598 108.883 105.433 108.654 105.35 108.392C105.266 108.129 105.269 107.847 105.358 107.586L107.149 102.304L105.915 100.645L109.96 97.996L114.807 103.494Z" fill="#031A2A"/>
    <path d="M82.5598 50.4255L96.9015 48.1917L94.0494 39.6117H82.5598V50.4255Z" fill="#FFB6B6"/>
    <path d="M95.9722 43.933C95.9722 43.933 101.705 48.8854 99.0597 63.0037L95.8308 76.8371L104.628 92.1103L100.155 94.5502L89.3138 79.4826L84.353 67.8462L81.729 47.4522L95.9722 43.933Z" fill="#031A2A"/>
    <path d="M87.0873 71.1624L86.7424 76.5019L87.7517 92.3137L92.7625 94.0389L93.7115 77.8382L87.0873 71.1624Z" fill="#031A2A"/>
    <path d="M85.5468 15.3684L91.0905 15.5847L93.2999 19.2522L98.3408 20.2363L95.3315 35.46L95.8849 44.1252L90.8656 44.0945C87.2482 44.0725 83.7501 45.3867 81.042 47.785L81.1922 36.537L79.0332 28.1404L79.5184 19.3361L83.5736 18.8292L85.5468 15.3684Z" fill="#E6E6E6"/>
    <path d="M88.6181 13.5897C91.4997 13.5897 93.8356 11.2537 93.8356 8.37216C93.8356 5.49062 91.4997 3.15466 88.6181 3.15466C85.7366 3.15466 83.4006 5.49062 83.4006 8.37216C83.4006 11.2537 85.7366 13.5897 88.6181 13.5897Z" fill="#FFB6B6"/>
    <path d="M85.0749 3.05369C85.9892 2.49632 87.0364 2.19481 88.1071 2.1807C89.1778 2.16658 90.2326 2.44038 91.1612 2.97345C92.0899 3.50652 92.8582 4.2793 93.386 5.21097C93.9138 6.14265 94.1815 7.199 94.1613 8.26958C91.5027 8.93707 88.7097 9.44788 85.8745 8.42924L85.2049 6.79056L84.8102 8.43045C83.9468 8.78336 83.0811 9.08196 82.2155 8.42704C82.1802 7.35948 82.4256 6.30135 82.9274 5.3584C83.4292 4.41546 84.1697 3.62074 85.0749 3.05369Z" fill="#031A2A"/>
    <path d="M97.3757 54.6442L98.0791 61.0271C98.1281 61.1864 98.2268 61.3258 98.3609 61.4248C98.4949 61.5238 98.6571 61.5772 98.8237 61.5772H102.066C102.232 61.5772 102.395 61.5238 102.529 61.4248C102.663 61.3258 102.762 61.1864 102.811 61.0271L103.393 56.1349C103.561 56.2174 103.747 56.2587 103.934 56.2556C104.121 56.2524 104.305 56.2049 104.47 56.1169C104.635 56.0288 104.778 55.9028 104.885 55.7492C104.992 55.5956 105.061 55.4187 105.086 55.2332C105.112 55.0477 105.093 54.8587 105.031 54.682C104.969 54.5052 104.866 54.3456 104.731 54.2163C104.595 54.0871 104.431 53.9918 104.251 53.9384C104.072 53.885 103.882 53.875 103.698 53.9091C103.626 53.8233 103.535 53.7543 103.433 53.7071C103.331 53.6599 103.22 53.6356 103.107 53.6359H98.1205C97.9986 53.6359 97.8783 53.6645 97.7695 53.7194C97.6606 53.7744 97.5662 53.8541 97.4937 53.9521C97.4213 54.0502 97.3729 54.1639 97.3524 54.2841C97.3319 54.4043 97.3399 54.5276 97.3757 54.6442ZM103.495 55.8041L103.852 54.6442C103.893 54.5103 103.897 54.3678 103.864 54.2318C103.879 54.231 103.893 54.2272 103.909 54.2272C104.133 54.2272 104.348 54.3162 104.506 54.4747C104.664 54.6331 104.753 54.848 104.753 55.0721C104.753 55.2961 104.664 55.511 104.506 55.6694C104.348 55.8279 104.133 55.9169 103.909 55.9169C103.763 55.916 103.621 55.8771 103.495 55.8041Z" fill="#6C63FF"/>
    <path d="M102.265 61.5815C102.06 61.3759 101.903 61.1278 101.805 60.8549C101.706 60.582 101.669 60.2908 101.695 60.0019C101.721 59.7129 101.811 59.4333 101.957 59.1826C102.103 58.932 102.302 58.7164 102.541 58.5511L99.3809 42.8569L102.87 43.9772L105.399 59.1574C105.651 59.5763 105.739 60.0728 105.649 60.5528C105.558 61.0329 105.295 61.463 104.909 61.7618C104.522 62.0606 104.04 62.2073 103.552 62.1741C103.065 62.1409 102.607 61.93 102.265 61.5815Z" fill="#FFB6B6"/>
    <path d="M96.1757 21.8704L98.3406 20.2362C98.3406 20.2362 100.25 20.1009 100.589 23.5451C100.927 26.9892 103.045 40.2078 103.045 40.2078L106.358 55.5515L101.772 56.558L98.2235 39.9995L94.6716 28.5758L96.1757 21.8704Z" fill="#E6E6E6"/>
    <path d="M77.4909 36.1568C78.1677 36.1568 78.7164 35.6082 78.7164 34.9313C78.7164 34.2545 78.1677 33.7058 77.4909 33.7058C76.8141 33.7058 76.2654 34.2545 76.2654 34.9313C76.2654 35.6082 76.8141 36.1568 77.4909 36.1568Z" fill="#FF6584"/>
    <path d="M38.4113 118.274L40.9653 118.274L42.1804 108.423L38.4109 108.423L38.4113 118.274Z" fill="#FFB6B6"/>
    <path d="M37.7598 117.44L38.4786 117.44L41.2852 116.299L42.7895 117.44C43.6396 117.44 44.455 117.778 45.0561 118.379C45.6572 118.98 45.9949 119.795 45.995 120.646V120.75L37.7599 120.75L37.7598 117.44Z" fill="#031A2A"/>
    <path d="M48.3086 116.665L50.8 117.227L54.1551 107.886L50.4781 107.056L48.3086 116.665Z" fill="#FFB6B6"/>
    <path d="M47.8568 115.708L48.558 115.866L51.5471 115.371L52.763 116.816L52.7632 116.816C53.5924 117.003 54.3132 117.512 54.7672 118.231C55.2211 118.95 55.3709 119.819 55.1837 120.648L55.1608 120.75L47.1279 118.936L47.8568 115.708Z" fill="#031A2A"/>
    <path d="M33.7358 67.602L36.0453 93.4774C36.0453 93.4774 35.18 109.012 37.9723 114.478H42.0219L44.027 92.0587L44.2787 77.0107L52.9607 89.7062L47.4309 114.112L52.415 114.557L61.3884 88.0716L51.53 63.2078L33.7358 67.602Z" fill="#031A2A"/>
    <path d="M36.1545 26.396C39.444 26.396 42.1106 23.7294 42.1106 20.4399C42.1106 17.1505 39.444 14.4839 36.1545 14.4839C32.8651 14.4839 30.1985 17.1505 30.1985 20.4399C30.1985 23.7294 32.8651 26.396 36.1545 26.396Z" fill="#FFB8B8"/>
    <path d="M46.6249 32.0718L41.7386 29.9753L39.3599 27.4523L33.4177 28.4106L31.8411 31.1139L26.7373 35.8596L32.7169 62.8967L32.5359 68.8019C32.5359 68.8019 36.3631 70.5248 52.9607 66.5579C53.1597 66.5104 52.743 66.3021 52.743 66.3021L46.6249 32.0718Z" fill="#042134"/>
    <path d="M29.9612 23.8195C29.9197 23.7629 29.8786 23.7058 29.8379 23.6482C29.8215 23.6828 29.8085 23.7185 29.7898 23.7523L29.9612 23.8195Z" fill="#031A2A"/>
    <path d="M42.0792 16.0833C41.6811 15.216 40.9712 14.5302 40.0907 14.1623C39.218 13.8103 38.2426 13.8111 37.3704 14.1647C36.583 13.6672 35.7081 13.2728 34.7868 13.2239C33.8654 13.1751 32.8912 13.5169 32.3234 14.2694C32.1966 14.468 32.0526 14.6551 31.8931 14.8285C31.4366 15.2511 30.743 15.1902 30.1364 15.1037C30.4085 15.3369 30.6806 15.5702 30.9529 15.8034C30.6235 15.8894 30.2941 15.9754 29.9647 16.0615C30.3491 16.2946 30.7334 16.5277 31.1178 16.7609C30.0019 17.4306 29.4947 18.8925 29.6287 20.2201C29.7554 21.4771 30.3623 22.6265 31.0878 23.6482C31.3771 23.0375 31.3148 22.3068 31.31 21.6189C31.305 20.8922 31.4336 20.0669 32.0159 19.6608C32.4088 19.3868 32.9139 19.3746 33.3876 19.3772C35.7771 19.3903 38.1639 19.5393 40.5364 19.8235C40.8584 19.8374 41.1723 19.9284 41.4517 20.0889C41.9764 20.4469 42.0786 21.1855 42.1313 21.8336C42.4085 20.7636 42.5442 19.6618 42.5348 18.5565C42.5582 17.7093 42.4029 16.8666 42.0792 16.0833Z" fill="#031A2A"/>
    <path d="M43.9335 85.7408C49.1109 85.7408 53.308 81.5437 53.308 76.3664C53.308 71.189 49.1109 66.9919 43.9335 66.9919C38.7562 66.9919 34.5591 71.189 34.5591 76.3664C34.5591 81.5437 38.7562 85.7408 43.9335 85.7408Z" fill="white"/>
    <path d="M43.9336 66.7836C43.4517 66.7836 42.9705 66.8198 42.4941 66.8919C42.2503 66.9273 42.0129 66.9731 41.7774 67.0294C40.048 67.428 38.4634 68.2993 37.2003 69.5461C35.9372 70.7929 35.0454 72.3661 34.6243 74.0902C34.2032 75.8143 34.2695 77.6214 34.8156 79.3101C35.3618 80.9987 36.3664 82.5024 37.7173 83.6534C37.8777 83.7888 38.0402 83.92 38.2089 84.045C39.4251 84.9518 40.8393 85.5568 42.335 85.8103C43.8307 86.0637 45.3652 85.9584 46.8122 85.5029C48.2592 85.0475 49.5774 84.2549 50.6583 83.1904C51.7391 82.1259 52.5518 80.82 53.0293 79.3801C53.5068 77.9402 53.6356 76.4075 53.405 74.9081C53.1745 73.4087 52.5911 71.9855 51.703 70.7556C50.815 69.5257 49.6475 68.5243 48.2968 67.8337C46.946 67.1432 45.4506 66.7832 43.9336 66.7836ZM43.9336 85.5324C41.9846 85.5345 40.0862 84.9117 38.5173 83.7555C38.3465 83.6305 38.1819 83.5013 38.0215 83.3638C36.7053 82.2535 35.7287 80.7947 35.2036 79.1548C34.6786 77.5148 34.6265 75.76 35.0532 74.0918C35.4799 72.4235 36.3681 70.9093 37.6161 69.7228C38.864 68.5363 40.4211 67.7255 42.1088 67.3835C42.342 67.3356 42.5753 67.2981 42.8129 67.269C43.1847 67.2229 43.559 67.2 43.9336 67.2002C46.3646 67.2002 48.696 68.1659 50.415 69.8849C52.134 71.6039 53.0997 73.9353 53.0997 76.3663C53.0997 78.7973 52.134 81.1288 50.415 82.8478C48.696 84.5667 46.3646 85.5324 43.9336 85.5324Z" fill="#042134"/>
    <path d="M39.3355 74.4915H48.5316C48.8685 74.4915 49.1416 74.2184 49.1416 73.8815V73.8515C49.1416 73.5146 48.8685 73.2415 48.5316 73.2415H39.3355C38.9987 73.2415 38.7256 73.5146 38.7256 73.8515V73.8815C38.7256 74.2184 38.9987 74.4915 39.3355 74.4915Z" fill="#FF6584"/>
    <path d="M39.3355 76.9913H48.5316C48.8685 76.9913 49.1416 76.7182 49.1416 76.3814V76.3514C49.1416 76.0145 48.8685 75.7414 48.5316 75.7414H39.3355C38.9987 75.7414 38.7256 76.0145 38.7256 76.3514V76.3814C38.7256 76.7182 38.9987 76.9913 39.3355 76.9913Z" fill="#FF6584"/>
    <path d="M39.3355 79.4912H48.5316C48.8685 79.4912 49.1416 79.2181 49.1416 78.8812V78.8513C49.1416 78.5144 48.8685 78.2413 48.5316 78.2413H39.3355C38.9987 78.2413 38.7256 78.5144 38.7256 78.8513V78.8812C38.7256 79.2181 38.9987 79.4912 39.3355 79.4912Z" fill="#FF6584"/>
    <path d="M148.813 117.956L146.135 117.956L144.861 107.627L148.813 107.627L148.813 117.956Z" fill="#9E616A"/>
    <path d="M136.144 117.956L133.466 117.956L132.192 107.627L136.144 107.627L136.144 117.956Z" fill="#9E616A"/>
    <path d="M136.238 120.75L128.003 120.75V120.646C128.003 119.795 128.34 118.98 128.942 118.379C129.543 117.778 130.358 117.44 131.208 117.44H131.208L132.712 116.299L135.519 117.44L136.238 117.44L136.238 120.75Z" fill="#031A2A"/>
    <path d="M149.251 120.75L141.016 120.75V120.646C141.016 119.795 141.353 118.98 141.955 118.379C142.556 117.778 143.371 117.44 144.221 117.44H144.221L145.725 116.299L148.532 117.44L149.251 117.44L149.251 120.75Z" fill="#031A2A"/>
    <path d="M133.517 56.8234L129.447 81.6057L130.554 85.2987L129.101 87.9142L131.235 110.884L130.369 112.792L132.79 114.285H137.715L137.977 93.4897L139.194 90.4366V88.7539L141.671 76.0737L142.127 93.8315L142.847 96.8894L142.242 99.0667L143.033 100.592L145.133 114.738H150.657L150.23 111.447C150.711 111.203 151.097 110.807 151.328 110.319C151.559 109.832 151.622 109.282 151.507 108.755L151.19 107.313L151.911 103.048L153.223 79.2536L152.853 60.0547L146.392 55.1138L133.517 56.8234Z" fill="#031A2A"/>
    <path d="M142.847 24.9998C145.681 24.9998 147.979 22.7022 147.979 19.8681C147.979 17.0339 145.681 14.7363 142.847 14.7363C140.013 14.7363 137.715 17.0339 137.715 19.8681C137.715 22.7022 140.013 24.9998 142.847 24.9998Z" fill="#9E616A"/>
    <path d="M131.635 66.6577C131.858 66.4269 132.028 66.15 132.133 65.8464C132.238 65.5429 132.275 65.22 132.241 64.9007C132.208 64.5813 132.104 64.2732 131.939 63.998C131.773 63.7228 131.55 63.4873 131.283 63.3079L133.279 55.7615L129.434 57.0547L128.128 64.0226C127.857 64.4901 127.766 65.041 127.874 65.5709C127.981 66.1007 128.279 66.5728 128.711 66.8976C129.144 67.2224 129.68 67.3774 130.219 67.3331C130.758 67.2889 131.261 67.0486 131.635 66.6577Z" fill="#9E616A"/>
    <path d="M133.735 30.4258L132.91 30.2545L132.206 30.6442C132.206 30.6442 130.24 33.2655 130.24 35.6683C130.24 38.0711 127.837 61.2255 127.837 61.2255L132.206 63.1914L135.701 45.0611L133.735 30.4258Z" fill="#E6E6E6"/>
    <path d="M147.341 16.1055C147.341 16.1055 148.683 13.5397 145.73 13.3064C145.73 13.3064 143.213 11.0229 140.647 12.889C140.647 12.889 139.248 12.889 138.482 14.4727C138.482 14.4727 137.382 14.0553 137.14 15.1725C137.14 15.1725 136.334 17.5051 137.14 19.6045C137.945 21.7038 138.213 21.9371 138.213 21.9371C138.213 21.9371 136.889 17.5357 140.111 17.3024C143.332 17.0692 146.937 15.0559 147.206 17.6217C147.474 20.1876 147.878 20.8198 147.878 20.8198C147.878 20.8198 150.428 17.1552 147.341 16.1055Z" fill="#031A2A"/>
    <path d="M166.087 87.9142C165.7 87.9147 165.326 87.7721 165.037 87.5137L149.507 73.6892C149.194 73.41 149.005 73.0181 148.98 72.5994C148.956 72.1807 149.099 71.7694 149.377 71.4558L159.326 60.2794C159.605 59.9664 159.997 59.7769 160.416 59.7526C160.835 59.7282 161.246 59.871 161.559 60.1495L177.09 73.9742C177.403 74.2531 177.593 74.6451 177.617 75.0639C177.642 75.4827 177.499 75.894 177.22 76.2074L167.271 87.3838C167.133 87.5395 166.966 87.6663 166.779 87.7569C166.592 87.8474 166.388 87.9 166.181 87.9114C166.149 87.9134 166.118 87.9142 166.087 87.9142Z" fill="white"/>
    <path d="M166.087 88.0158C165.675 88.0164 165.277 87.8647 164.97 87.5897L149.439 73.7653C149.106 73.468 148.905 73.0509 148.879 72.6052C148.853 72.1596 149.005 71.7219 149.301 71.3881L159.25 60.2116C159.547 59.8786 159.964 59.6771 160.41 59.6512C160.856 59.6253 161.293 59.7771 161.627 60.0734L177.158 73.8981C177.491 74.195 177.693 74.6122 177.719 75.058C177.745 75.5037 177.592 75.9415 177.296 76.2751L167.347 87.4515C167.2 87.6171 167.022 87.7521 166.823 87.8484C166.624 87.9448 166.408 88.0008 166.187 88.0131C166.153 88.0148 166.12 88.0158 166.087 88.0158ZM160.508 60.0547C160.328 60.0543 160.15 60.0922 159.985 60.1659C159.821 60.2395 159.674 60.3473 159.554 60.4821L149.605 71.6585C149.38 71.9116 149.265 72.2436 149.285 72.5816C149.304 72.9196 149.457 73.2361 149.71 73.4615L165.24 87.2859C165.365 87.3974 165.511 87.4832 165.67 87.5383C165.828 87.5934 165.996 87.6167 166.163 87.607C166.331 87.5972 166.495 87.5546 166.645 87.4815C166.796 87.4085 166.931 87.3064 167.043 87.1811L176.992 76.0046C177.217 75.7517 177.333 75.4196 177.313 75.0816C177.293 74.7435 177.14 74.4271 176.887 74.2019L161.357 60.3772C161.123 60.169 160.821 60.0542 160.508 60.0547Z" fill="#042134"/>
    <path d="M171.719 77.3295C171.551 77.3298 171.389 77.2682 171.264 77.1565L159.073 66.3047C159.006 66.2451 158.951 66.1726 158.911 66.0917C158.872 66.0107 158.849 65.9227 158.844 65.8328C158.838 65.7428 158.851 65.6528 158.88 65.5676C158.91 65.4825 158.956 65.4041 159.016 65.3368C159.075 65.2695 159.148 65.2147 159.229 65.1755C159.31 65.1364 159.398 65.1136 159.488 65.1085C159.578 65.1034 159.668 65.1162 159.753 65.146C159.838 65.1757 159.917 65.222 159.984 65.2821L172.174 76.1339C172.278 76.2262 172.351 76.3478 172.384 76.4827C172.417 76.6175 172.408 76.7592 172.359 76.8889C172.31 77.0186 172.222 77.1302 172.108 77.2089C171.993 77.2876 171.858 77.3296 171.719 77.3295Z" fill="#6C63FF"/>
    <path d="M169.393 79.9416C169.226 79.9419 169.064 79.8803 168.939 79.7687L156.748 68.9168C156.681 68.8571 156.626 68.7847 156.587 68.7038C156.548 68.6229 156.525 68.535 156.52 68.4453C156.514 68.3556 156.527 68.2657 156.557 68.1808C156.586 68.0959 156.632 68.0176 156.692 67.9505C156.752 67.8834 156.824 67.8287 156.905 67.7895C156.986 67.7504 157.074 67.7275 157.163 67.7223C157.253 67.7171 157.343 67.7297 157.428 67.7592C157.513 67.7887 157.591 67.8347 157.658 67.8945L169.849 78.7463C169.953 78.8385 170.026 78.9601 170.059 79.0949C170.092 79.2298 170.083 79.3714 170.034 79.5011C169.984 79.6308 169.896 79.7424 169.782 79.8211C169.668 79.8997 169.532 79.9418 169.393 79.9416Z" fill="#6C63FF"/>
    <path d="M167.068 82.554C166.9 82.5543 166.738 82.4926 166.613 82.3809L154.423 71.5293C154.355 71.4695 154.3 71.3971 154.261 71.3161C154.222 71.2352 154.199 71.1473 154.194 71.0575C154.189 70.9677 154.201 70.8777 154.231 70.7927C154.26 70.7078 154.306 70.6294 154.366 70.5623C154.426 70.4951 154.498 70.4403 154.579 70.4012C154.66 70.362 154.748 70.3392 154.838 70.334C154.928 70.3289 155.018 70.3414 155.103 70.3711C155.188 70.4007 155.266 70.4468 155.333 70.5067L167.524 81.3585C167.627 81.4507 167.701 81.5723 167.734 81.7071C167.767 81.8419 167.758 81.9836 167.708 82.1133C167.659 82.243 167.571 82.3546 167.457 82.4333C167.343 82.512 167.207 82.5541 167.068 82.554Z" fill="#6C63FF"/>
    <path d="M153.127 67.1031C152.97 66.8226 152.877 66.5113 152.854 66.191C152.831 65.8707 152.879 65.5493 152.993 65.2493C153.108 64.9493 153.287 64.6781 153.517 64.4547C153.748 64.2314 154.025 64.0613 154.329 63.9566L154.342 56.1508L157.724 58.3896L157.193 65.4589C157.335 65.9805 157.281 66.5361 157.041 67.0205C156.801 67.5049 156.392 67.8844 155.89 68.0871C155.389 68.2898 154.831 68.3015 154.322 68.1202C153.812 67.9388 153.387 67.5769 153.127 67.1031Z" fill="#9E616A"/>
    <path d="M153.44 32.5648L154.951 31.1083L156.061 31.9095C156.061 31.9095 157.153 33.2201 158.027 37.152C158.901 41.0839 158.027 62.7092 158.027 62.7092L153.221 62.0539L153.877 50.6951L151.911 41.0839L153.44 32.5648Z" fill="#E6E6E6"/>
    <path d="M155.671 31.4636L150.58 29.0317L147.123 25.8256L140.82 25.7784L138.787 28.4217L133.419 30.2451L134.314 48.7544L133.704 50.1777C133.704 50.1777 134.129 50.5616 134.323 50.7763C134.517 50.991 134.055 52.7886 134.055 52.7886L133.794 54.7442L134.517 55.2609L133.577 56.3715L133.344 58.1221C133.344 58.1221 149.755 54.043 152.856 60.8004C153.02 61.1574 152.616 57.6681 152.616 57.6681L152.213 55.1137L152.613 52.821L153.223 52.211L152.2 51.188L152.856 46.3337L155.671 31.4636Z" fill="#042134"/>
    <path d="M40.2138 72.4973C40.3402 72.1764 40.3946 71.8318 40.3734 71.4877C40.3522 71.1435 40.2557 70.8082 40.0909 70.5054C39.926 70.2026 39.6968 69.9396 39.4193 69.7349C39.1418 69.5302 38.8228 69.3889 38.4848 69.3209L37.3538 61.0162L34.0747 63.8827L35.6514 71.3294C35.5747 71.9048 35.7118 72.4884 36.0367 72.9695C36.3615 73.4506 36.8515 73.7959 37.4139 73.9398C37.9763 74.0838 38.5719 74.0164 39.088 73.7505C39.604 73.4847 40.0046 73.0387 40.2138 72.4973Z" fill="#FFB8B8"/>
    <path d="M27.3665 35.7078L26.4777 35.878L25.9404 36.5544C25.9404 36.5544 25.0713 39.9635 26.0614 42.3459C27.0515 44.7283 34.21 68.6761 34.21 68.6761L39.3517 68.8252L35.3463 49.4087L27.3665 35.7078Z" fill="#042134"/>
    <path d="M47.6366 71.279C47.3997 71.0285 47.2207 70.729 47.1121 70.4018C47.0035 70.0745 46.9679 69.7274 47.008 69.385C47.048 69.0425 47.1627 68.713 47.3438 68.4196C47.525 68.1263 47.7683 67.8762 48.0566 67.687L46.0095 59.5596L50.121 60.9966L51.4345 68.4943C51.7202 68.9996 51.8106 69.5922 51.6886 70.1598C51.5666 70.7273 51.2406 71.2304 50.7724 71.5736C50.3043 71.9169 49.7265 72.0765 49.1485 72.0222C48.5706 71.9679 48.0326 71.7035 47.6366 71.279Z" fill="#FFB8B8"/>
    <path d="M45.8403 32.3523L46.7285 32.1788L47.4792 32.6061C47.4792 32.6061 49.5568 35.4453 49.5264 38.0251C49.496 40.6048 51.7828 65.4949 51.7828 65.4949L47.0674 67.5503L43.5444 48.0406L45.8403 32.3523Z" fill="#042134"/>
  </g>
  <defs>
    <clipPath id="clip0_271_2518">
      <rect width="177.443" height="120" fill="white" transform="translate(0.27832 0.75)"/>
    </clipPath>
  </defs>
</svg>