<svg xmlns="http://www.w3.org/2000/svg" width="156" height="121" viewBox="0 0 156 121" fill="none">
  <g clip-path="url(#clip0_275_2583)">
    <path d="M118.835 109.982C123.395 109.982 127.091 102.44 127.091 93.137C127.091 83.8336 123.395 76.2917 118.835 76.2917C114.276 76.2917 110.579 83.8336 110.579 93.137C110.579 102.44 114.276 109.982 118.835 109.982Z" fill="#FF6584"/>
    <path d="M118.073 120.71C121.379 100.871 118.106 81.1043 118.073 80.9071L117.429 81.0161C117.463 81.2123 120.717 100.875 117.429 120.603L118.073 120.71Z" fill="#CACACA"/>
    <path d="M111.567 89.5148L111.259 90.0901L118.724 94.0833L119.032 93.5079L111.567 89.5148Z" fill="#CACACA"/>
    <path d="M126.604 91.5151L119.139 95.5105L119.447 96.0857L126.911 92.0903L126.604 91.5151Z" fill="#CACACA"/>
    <path d="M138.671 99.4243C147.589 99.4243 154.819 84.6733 154.819 66.477C154.819 48.2807 147.589 33.5297 138.671 33.5297C129.754 33.5297 122.524 48.2807 122.524 66.477C122.524 84.6733 129.754 99.4243 138.671 99.4243Z" fill="#E6E6E6"/>
    <path d="M136.873 120.355C143.331 81.6043 136.938 42.9945 136.873 42.609L136.23 42.718C136.295 43.1025 142.669 81.6084 136.229 120.248L136.873 120.355Z" fill="#CACACA"/>
    <path d="M124.308 59.6671L124 60.2424L138.602 68.0528L138.91 67.4775L124.308 59.6671Z" fill="#CACACA"/>
    <path d="M154.013 63.5796L139.413 71.394L139.721 71.9693L154.32 64.1549L154.013 63.5796Z" fill="#CACACA"/>
    <path d="M101.169 120.459H15.2799C14.964 120.458 14.6611 120.333 14.4378 120.109C14.2144 119.886 14.0887 119.583 14.0884 119.267V64.9953C14.0887 64.6794 14.2144 64.3766 14.4378 64.1532C14.6611 63.9298 14.964 63.8042 15.2799 63.8038H101.169C101.485 63.8042 101.788 63.9299 102.011 64.1532C102.235 64.3766 102.36 64.6794 102.361 64.9953V119.267C102.36 119.583 102.235 119.886 102.011 120.109C101.788 120.333 101.485 120.458 101.169 120.459Z" fill="#E4E4E4"/>
    <path d="M23.1785 70.3806C23.0431 70.3808 22.9133 70.4346 22.8176 70.5303C22.7218 70.6261 22.668 70.7559 22.6678 70.8913V113.372C22.668 113.507 22.7218 113.637 22.8176 113.733C22.9133 113.828 23.0431 113.882 23.1785 113.882H93.2704C93.4058 113.882 93.5356 113.828 93.6313 113.733C93.727 113.637 93.7809 113.507 93.781 113.372V70.8913C93.7809 70.7559 93.727 70.6261 93.6313 70.5303C93.5356 70.4346 93.4058 70.3808 93.2704 70.3806H23.1785Z" fill="white"/>
    <path d="M93.9512 81.3219V78.63H84.0391V70.2103H81.3471V78.63H63.7002V70.2103H61.0084V78.63H33.7902V70.2103H31.0983V78.63H21.6864V81.3219H31.0983V91.7904H21.6864V94.4823H31.0983V105.699H21.6864V108.39H45.6047V114.052H48.2966V108.39H61.0083V114.052H63.7002V108.39H93.9512V105.699H63.7002V94.4823H93.9512V91.7904H84.0391V81.3219H93.9512ZM61.0084 81.3219V84.612H33.7902V81.3219H61.0084ZM33.7902 87.3039H61.0084V91.7904H33.7902V87.3039ZM33.7902 105.699V94.4823H45.6047V105.699H33.7902ZM61.0084 105.699H48.2966V94.4823H61.0084V105.699ZM81.3471 91.7904H63.7002V81.3219H81.3471V91.7904Z" fill="#E6E6E6"/>
    <path d="M62.3543 96.9164C64.254 96.9164 65.794 95.3764 65.794 93.4768C65.794 91.5771 64.254 90.0371 62.3543 90.0371C60.4547 90.0371 58.9147 91.5771 58.9147 93.4768C58.9147 95.3764 60.4547 96.9164 62.3543 96.9164Z" fill="#6C63FF"/>
    <path d="M155.124 120.75H0.142212V120.379H155.191L155.124 120.75Z" fill="#CACACA"/>
    <path d="M62.7666 73.0435C74.4851 73.0435 83.9847 63.5439 83.9847 51.8255C83.9847 40.1071 74.4851 30.6074 62.7666 30.6074C51.0482 30.6074 41.5486 40.1071 41.5486 51.8255C41.5486 63.5439 51.0482 73.0435 62.7666 73.0435Z" fill="#6C63FF"/>
    <path d="M62.9741 86.3176L56.2707 74.8666L49.5674 63.4156L62.8359 63.3358L76.1044 63.256L69.5392 74.7868L62.9741 86.3176Z" fill="#6C63FF"/>
    <path d="M62.9369 59.3048C67.1413 59.3048 70.5497 55.8965 70.5497 51.6921C70.5497 47.4877 67.1413 44.0793 62.9369 44.0793C58.7326 44.0793 55.3242 47.4877 55.3242 51.6921C55.3242 55.8965 58.7326 59.3048 62.9369 59.3048Z" fill="white"/>
    <path d="M62.2758 0.859026C62.2758 0.859026 57.7356 -0.419911 56.3927 5.78292C55.0498 11.9858 55.9028 11.2042 55.9028 11.2042L66.0383 10.0212C66.0383 10.0212 69.0861 2.74545 62.2758 0.859026Z" fill="#031A2A"/>
    <path d="M55.673 28.071C55.673 28.071 48.8233 28.3881 50.0095 31.0768C50.0933 31.2669 50.1714 31.4449 50.2437 31.611C51.0916 33.5585 52.0675 35.4476 53.1652 37.266L57.3751 44.2414L58.907 43.3903L54.5961 32.1839L58.4709 31.8676L55.673 28.071Z" fill="#FFB6B6"/>
    <path d="M73.7332 30.9186L75.9475 35.7424C75.9475 35.7424 77.6081 37.4031 79.4269 44.0457C81.2457 50.6884 81.6411 50.4511 81.6411 50.4511L79.8434 51.0499L72.468 37.6403L68.8303 33.0537L69.9374 30.6023L73.7332 30.9186Z" fill="#FFB6B6"/>
    <path d="M71.0446 25.383L74.2263 31.305C74.2263 31.305 81.44 45.4799 80.6944 45.4328C79.8563 45.3799 77.5023 46.3568 76.7795 47.3051C76.4307 47.7629 71.3327 36.5817 69.5421 34.0817L65.6672 31.0767C65.6672 31.0767 54.6652 32.9285 54.6517 32.3263C54.6451 32.0314 58.2943 39.108 57.5454 38.7944C56.6923 38.4372 54.6854 40.1755 53.8007 39.8157C53.4356 39.6673 50.8564 33.4137 49.8123 30.8512C49.6813 30.5313 49.6745 30.1741 49.7932 29.8494C49.9119 29.5248 50.1475 29.2562 50.4539 29.0962C51.2386 28.6881 62.1411 26.1986 62.1411 26.1986L61.9505 25.2249L62.7413 23.6433L71.0446 25.383Z" fill="#031A2A"/>
    <path d="M64.5202 7.92593C64.793 6.24463 63.6512 4.66049 61.9699 4.38766C60.2886 4.11483 58.7045 5.25661 58.4316 6.93791C58.1588 8.61921 59.3006 10.2034 60.9819 10.4762C62.6632 10.749 64.2473 9.60723 64.5202 7.92593Z" fill="#FFB6B6"/>
    <path d="M71.3326 25.8582C71.5029 26.3691 70.4 26.6626 68.8627 26.3755C67.5326 26.1272 66.0768 25.8323 64.9285 25.5934C63.6989 25.3372 62.8203 25.1459 62.8203 25.1459C62.8203 25.1459 62.504 27.1228 61.4759 26.8856C60.5903 26.6816 57.9435 17.4365 57.2278 14.8814C57.1755 14.6948 57.1856 14.4963 57.2566 14.316C57.3275 14.1357 57.4554 13.9835 57.6208 13.8826L61.2561 11.6629C61.2561 11.6629 63.7613 10.8025 64.6747 10.778C65.588 10.7535 67.1696 10.5162 67.1696 10.5162C67.1696 10.5162 68.9885 10.6744 69.3048 12.0187C69.6211 13.3631 70.941 21.3338 70.9654 23.248C70.9922 25.3476 70.822 24.3263 71.3326 25.8582Z" fill="#CACACA"/>
    <path d="M62.629 3.47046C62.629 3.47046 61.35 6.85964 58.2166 8.26646L57.7051 5.26097L62.629 3.47046Z" fill="#031A2A"/>
    <path d="M64.481 7.07631C64.7212 7.07631 64.9159 6.70456 64.9159 6.24598C64.9159 5.7874 64.7212 5.41565 64.481 5.41565C64.2407 5.41565 64.046 5.7874 64.046 6.24598C64.046 6.70456 64.2407 7.07631 64.481 7.07631Z" fill="#FFB6B6"/>
    <path d="M60.1818 45.0321L54.0683 47.8428L54.0327 47.7654C53.7426 47.1344 53.7151 46.4139 53.9561 45.7625C54.1972 45.1111 54.6872 44.5821 55.3182 44.2919L55.3184 44.2918L59.0523 42.5752L60.1818 45.0321Z" fill="#031A2A"/>
    <path d="M78.9319 50.6473L82.682 48.9662C83.3158 48.6821 84.0367 48.6614 84.6858 48.9087C85.3348 49.156 85.8591 49.6509 86.1432 50.2847L86.178 50.3624L80.038 53.1148L78.9319 50.6473Z" fill="#031A2A"/>
    <path opacity="0.2" d="M68.7794 18.5391L68.0635 26.4133L69.3362 26.4734L68.7794 18.5391Z" fill="black"/>
    <path d="M63.7889 33.2492C63.9406 33.0798 64.0533 32.8793 64.1191 32.6617C64.1849 32.4441 64.2022 32.2147 64.1698 31.9897C64.1373 31.7647 64.0559 31.5495 63.9313 31.3594C63.8068 31.1692 63.642 31.0087 63.4486 30.8891L60.6982 16.9952L57.5397 18.2036L61.2365 31.4809C61.0571 31.819 61.008 32.2112 61.0984 32.5831C61.1889 32.955 61.4126 33.2808 61.7273 33.4988C62.0419 33.7167 62.4255 33.8117 62.8055 33.7657C63.1855 33.7197 63.5354 33.5359 63.7889 33.2492Z" fill="#FFB6B6"/>
    <path d="M61.394 19.3369L57.9258 19.9478C57.8271 19.9651 57.7259 19.961 57.6289 19.9357C57.5319 19.9105 57.4416 19.8646 57.364 19.8012C57.2863 19.7379 57.2233 19.6585 57.1791 19.5686C57.1349 19.4787 57.1106 19.3803 57.1079 19.2801L57.0121 15.7705C56.926 15.2651 57.0438 14.7462 57.3398 14.3275C57.6357 13.9089 58.0856 13.6246 58.5908 13.5372C59.0959 13.4497 59.6152 13.5662 60.0346 13.861C60.4541 14.1558 60.7395 14.605 60.8282 15.1099L61.9346 18.43C61.9662 18.525 61.977 18.6258 61.9662 18.7254C61.9554 18.825 61.9233 18.9212 61.872 19.0072C61.8206 19.0933 61.7514 19.1673 61.6689 19.2242C61.5864 19.2811 61.4927 19.3195 61.394 19.3369Z" fill="#CACACA"/>
    <path d="M66.448 33.0048C66.646 32.893 66.8171 32.7392 66.9492 32.5542C67.0813 32.3692 67.1712 32.1574 67.2126 31.9339C67.2541 31.7104 67.246 31.4805 67.1889 31.2604C67.1319 31.0403 67.0273 30.8355 66.8825 30.6602L68.7325 16.618L65.3533 16.7498L64.5974 30.5113C64.319 30.7741 64.1468 31.1298 64.1132 31.5111C64.0796 31.8924 64.1871 32.2727 64.4152 32.5801C64.6433 32.8874 64.9763 33.1004 65.3509 33.1787C65.7256 33.2569 66.1159 33.1951 66.448 33.0048Z" fill="#FFB6B6"/>
    <path d="M68.6408 19.0592L65.1599 18.5257C65.0608 18.5105 64.9662 18.4742 64.8825 18.4191C64.7988 18.3641 64.7279 18.2916 64.6747 18.2067C64.6215 18.1218 64.5872 18.0265 64.5742 17.9271C64.5611 17.8278 64.5697 17.7268 64.5992 17.631L65.6339 14.2761C65.7144 13.7698 65.9924 13.316 66.407 13.0144C66.8215 12.7127 67.3388 12.5877 67.8453 12.6669C68.3518 12.7461 68.8063 13.0229 69.1091 13.4366C69.4118 13.8504 69.5381 14.3673 69.4603 14.874L69.4436 18.3735C69.4431 18.4737 69.421 18.5726 69.3789 18.6635C69.3367 18.7544 69.2754 18.8351 69.1992 18.9002C69.123 18.9653 69.0337 19.0132 68.9373 19.0406C68.841 19.068 68.7398 19.0744 68.6408 19.0592Z" fill="#CACACA"/>
  </g>
  <defs>
    <clipPath id="clip0_275_2583">
      <rect width="155.049" height="120" fill="white" transform="translate(0.142212 0.75)"/>
    </clipPath>
  </defs>
</svg>