<svg xmlns="http://www.w3.org/2000/svg" width="150" height="121" viewBox="0 0 150 121" fill="none">
  <g clip-path="url(#clip0_279_2802)">
    <path d="M133.481 58.9225C133.481 60.0003 133.452 61.0705 133.393 62.1332C133.182 66.1064 132.565 70.0475 131.552 73.8953C131.551 73.8969 131.551 73.8969 131.552 73.8985C131.419 74.4074 131.278 74.9148 131.129 75.4172C131.123 75.4415 131.116 75.4642 131.108 75.4869C130.888 76.2406 130.652 76.9872 130.401 77.7268V77.7284C126.462 89.3489 118.982 99.4435 109.01 106.594C99.0392 113.744 87.0785 117.592 74.8085 117.595C47.0557 117.595 23.8056 98.3286 17.7017 72.4398C16.6582 68.0098 16.1328 63.4737 16.136 58.9225C16.136 58.0181 16.1565 57.1185 16.1976 56.2238C16.6839 45.2864 20.2363 34.7062 26.4491 25.6915C26.5236 25.5813 26.5998 25.4711 26.6776 25.3625C37.2808 10.1806 54.8857 0.25 74.8085 0.25C102.965 0.25 126.487 20.0819 132.17 46.5396C132.171 46.5405 132.171 46.5416 132.171 46.5429C132.538 48.248 132.828 49.979 133.043 51.7359C133.336 54.1202 133.482 56.5202 133.481 58.9225Z" fill="#F2F2F2"/>
    <path d="M148.759 108.133C148.321 109.717 147.637 111.223 146.732 112.595C144.709 115.653 141.814 117.992 138.633 119.864C138.412 119.995 138.189 120.124 137.965 120.25H135.733L135.655 120.072V120.07L135.565 119.864L135.553 119.84L135.548 119.864L135.459 120.25H134.364C134.273 120.122 134.184 119.994 134.096 119.864C133.968 119.675 133.845 119.483 133.728 119.289C133.522 118.949 133.338 118.596 133.177 118.232C133.158 118.192 133.142 118.151 133.125 118.11L133.198 118.031L132.895 116.705L133.505 116.605L132.837 114.545C132.861 114.469 132.889 114.392 132.918 114.316C133.292 113.368 133.996 112.66 134.83 112.065C135.69 111.451 136.69 110.958 137.608 110.446C138.04 110.204 138.464 109.95 138.878 109.681V109.679C139.406 109.337 139.919 108.971 140.416 108.582C140.424 108.576 140.432 108.571 140.44 108.564C140.447 108.559 140.453 108.554 140.459 108.548C142.688 106.807 144.573 104.668 146.02 102.238L146.021 102.238L146.022 102.238L146.022 102.237L146.022 102.237C146.071 102.159 146.116 102.081 146.161 102.002V102C146.754 100.981 147.264 99.9157 147.687 98.815V98.8134C147.719 98.7324 147.748 98.6514 147.779 98.5703C147.821 98.6416 147.862 98.7129 147.9 98.7842L147.901 98.7844L147.902 98.7847L147.902 98.7852L147.902 98.7859C149.474 101.598 149.623 104.985 148.759 108.133Z" fill="#F0F0F0"/>
    <path d="M147.902 98.786C147.918 100.287 147.762 101.784 147.437 103.25C147.291 103.92 147.109 104.582 146.892 105.233C146.471 106.507 145.921 107.735 145.25 108.896C145.213 108.96 145.178 109.021 145.139 109.083V109.084C144.852 109.568 144.541 110.036 144.207 110.488C143.701 111.208 143.076 111.836 142.359 112.345C141.773 112.732 141.111 112.988 140.417 113.096C140.288 113.12 140.155 113.138 140.02 113.154C139.484 113.217 138.929 113.242 138.398 113.355C138.129 113.408 137.866 113.493 137.617 113.606C136.761 114.004 136.279 114.835 136.069 115.723C136.031 115.879 136.002 116.036 135.98 116.193C135.803 117.401 135.997 118.655 135.897 119.864C135.886 119.992 135.871 120.122 135.853 120.25H135.733L135.655 120.072V120.07C135.663 120.002 135.67 119.934 135.676 119.864C135.715 119.27 135.72 118.674 135.691 118.08C135.685 117.812 135.68 117.543 135.683 117.274C135.686 117.059 135.694 116.843 135.711 116.629V116.628C135.722 116.495 135.735 116.363 135.753 116.232C135.804 115.83 135.903 115.436 136.048 115.057C136.189 114.667 136.411 114.311 136.699 114.013C136.987 113.714 137.335 113.48 137.72 113.326C137.956 113.238 138.198 113.17 138.445 113.123C138.988 113.02 139.549 112.994 140.095 112.926C140.153 112.919 140.211 112.911 140.268 112.901C140.341 112.89 140.412 112.877 140.484 112.864C141.198 112.737 141.873 112.445 142.455 112.01C143.145 111.463 143.746 110.811 144.234 110.078C144.5 109.697 144.753 109.308 144.988 108.908C144.988 108.908 144.988 108.907 144.988 108.907C144.988 108.907 144.988 108.907 144.988 108.907C144.989 108.906 144.989 108.906 144.989 108.906C144.989 108.906 144.989 108.906 144.99 108.906C145.001 108.887 145.012 108.869 145.024 108.849L145.025 108.846C146.033 107.124 146.769 105.255 147.207 103.308C147.221 103.237 147.238 103.165 147.254 103.094C147.555 101.688 147.7 100.253 147.686 98.8152V98.8135C147.686 98.7455 147.685 98.679 147.683 98.6109C147.68 98.4716 147.896 98.4408 147.899 98.5802C147.9 98.6482 147.902 98.7163 147.9 98.7844C147.901 98.7844 147.901 98.7844 147.901 98.7845C147.901 98.7846 147.901 98.7847 147.902 98.7848C147.902 98.785 147.902 98.7852 147.902 98.7854C147.902 98.7856 147.902 98.7858 147.902 98.786Z" fill="white"/>
    <path d="M145.046 109.039C145.664 109.353 146.373 109.437 147.046 109.276C147.72 109.115 148.315 108.72 148.724 108.161C148.807 108.048 148.635 107.914 148.552 108.028C148.172 108.549 147.618 108.917 146.99 109.065C146.362 109.214 145.702 109.133 145.129 108.837C145.004 108.773 144.922 108.975 145.046 109.039Z" fill="white"/>
    <path d="M140.505 112.929C140.053 111.586 140.124 110.124 140.704 108.831C140.761 108.703 140.56 108.621 140.502 108.749C139.902 110.094 139.831 111.617 140.304 113.013C140.349 113.146 140.549 113.061 140.505 112.929Z" fill="white"/>
    <path d="M147.316 103.114C147.052 103.042 146.81 102.906 146.611 102.718C146.412 102.529 146.264 102.295 146.178 102.035C146.135 101.901 145.934 101.986 145.977 102.119C146.073 102.405 146.238 102.665 146.457 102.873C146.676 103.082 146.942 103.234 147.234 103.315C147.261 103.325 147.29 103.325 147.317 103.314C147.343 103.303 147.364 103.282 147.376 103.256C147.387 103.229 147.386 103.199 147.375 103.173C147.364 103.146 147.343 103.125 147.316 103.114Z" fill="white"/>
    <path d="M138.878 109.679V109.681C138.827 110.838 138.683 111.99 138.445 113.124V113.125C138.432 113.203 138.414 113.279 138.398 113.355C138.007 115.109 137.458 116.824 136.759 118.479C136.566 118.945 136.364 119.407 136.153 119.864C136.095 119.994 136.035 120.122 135.973 120.25H135.733L135.655 120.072V120.07L135.565 119.864L135.553 119.84L135.548 119.864L135.459 120.25H133.142L132.691 119.864L132.035 119.302L132.952 118.3L133.103 118.135L133.125 118.111L133.198 118.031L132.895 116.705L133.505 116.605L132.837 114.545L132.521 113.571L132.441 113.326L131.979 111.901L130.586 112.162L130.359 111.368C130.776 110.4 131.124 109.403 131.399 108.384C131.401 108.376 131.404 108.37 131.406 108.362C132.142 105.619 132.363 102.763 132.057 99.9401V99.9385C132.047 99.8477 132.036 99.7553 132.023 99.6662V99.6629C131.884 98.4929 131.65 97.3361 131.323 96.2042C131.3 96.1183 131.274 96.034 131.25 95.9497C131.325 95.9821 131.398 96.0129 131.472 96.0453L131.474 96.047H131.477C131.595 96.0988 131.714 96.1539 131.829 96.2123C134.594 97.5559 136.628 100.078 137.783 102.986C137.787 102.994 137.79 103 137.793 103.008C138.396 104.533 138.756 106.142 138.858 107.778C138.897 108.411 138.903 109.046 138.878 109.679Z" fill="#F0F0F0"/>
    <path d="M134.672 120.25H134.415C134.334 120.119 134.247 119.991 134.159 119.864C134.02 119.668 133.876 119.476 133.728 119.289C133.6 119.127 133.472 118.966 133.344 118.806C133.211 118.639 133.08 118.472 132.952 118.3L133.103 118.135C133.127 118.167 133.151 118.2 133.177 118.232C133.592 118.778 134.041 119.303 134.425 119.864C134.511 119.991 134.594 120.119 134.672 120.25Z" fill="white"/>
    <path d="M131.196 96.0401C131.238 96.0936 131.282 96.1487 131.323 96.2038C131.639 96.6138 131.937 97.0369 132.219 97.4729C132.72 98.2421 133.166 99.0465 133.551 99.8797C133.582 99.9446 133.613 100.011 133.642 100.077C134.467 101.898 135.005 103.836 135.237 105.822C135.24 105.841 135.242 105.859 135.243 105.878C135.297 106.342 135.331 106.807 135.347 107.274C135.399 108.153 135.312 109.034 135.089 109.886C135.057 109.998 135.021 110.109 134.982 110.215C134.885 110.478 134.763 110.73 134.618 110.969C134.513 111.144 134.398 111.311 134.271 111.47C134.195 111.567 134.115 111.663 134.031 111.755C133.982 111.809 133.932 111.862 133.882 111.916C133.84 111.956 133.799 111.998 133.757 112.039C133.319 112.464 132.836 112.857 132.441 113.326L132.52 113.571C132.901 113.088 133.392 112.687 133.835 112.266C134.113 112.005 134.366 111.718 134.59 111.41C134.619 111.368 134.65 111.326 134.678 111.282C134.828 111.063 134.958 110.83 135.065 110.587C135.12 110.465 135.17 110.34 135.216 110.211C135.481 109.373 135.601 108.496 135.572 107.617C135.567 107.055 135.534 106.493 135.472 105.933C135.465 105.86 135.457 105.789 135.448 105.716C135.283 104.385 134.983 103.074 134.553 101.804C134.008 100.192 133.258 98.657 132.323 97.2362C132.055 96.8294 131.772 96.4323 131.472 96.045C131.433 95.9915 131.392 95.9396 131.35 95.8861C131.264 95.7759 131.11 95.9299 131.196 96.0401Z" fill="white"/>
    <path d="M135.37 105.954C136.052 105.832 136.669 105.473 137.11 104.939C137.551 104.405 137.788 103.731 137.779 103.038C137.778 103.01 137.767 102.983 137.747 102.963C137.726 102.944 137.699 102.932 137.671 102.932C137.643 102.932 137.616 102.942 137.595 102.962C137.575 102.981 137.562 103.008 137.561 103.036C137.571 103.681 137.35 104.308 136.938 104.805C136.527 105.301 135.951 105.634 135.315 105.743C135.177 105.767 135.233 105.978 135.37 105.954Z" fill="white"/>
    <path d="M134.086 111.794C132.918 110.994 132.094 109.783 131.779 108.403C131.747 108.266 131.537 108.321 131.568 108.458C131.899 109.894 132.759 111.152 133.976 111.982C134.092 112.061 134.202 111.873 134.086 111.794Z" fill="white"/>
    <path d="M133.616 99.8562C133.362 99.9582 133.086 99.9954 132.814 99.9646C132.542 99.9338 132.282 99.8359 132.057 99.6797C131.942 99.5993 131.833 99.7879 131.947 99.8678C132.197 100.039 132.484 100.147 132.785 100.182C133.085 100.216 133.39 100.177 133.671 100.067C133.699 100.059 133.722 100.04 133.736 100.016C133.751 99.9911 133.755 99.9618 133.749 99.9339C133.741 99.906 133.723 99.8823 133.698 99.8677C133.674 99.8532 133.644 99.849 133.616 99.8562Z" fill="white"/>
    <path d="M102.697 25.6922H0.210795C0.167776 25.6912 0.126835 25.6735 0.0967446 25.6427C0.0666538 25.612 0.0498047 25.5706 0.0498047 25.5276C0.0498047 25.4846 0.0666538 25.4433 0.0967446 25.4125C0.126835 25.3817 0.167776 25.364 0.210795 25.363H102.697C102.74 25.364 102.781 25.3817 102.811 25.4125C102.841 25.4433 102.858 25.4846 102.858 25.5276C102.858 25.5706 102.841 25.612 102.811 25.6427C102.781 25.6735 102.74 25.6912 102.697 25.6922Z" fill="#CACACA"/>
    <path d="M3.83412 23.3883C4.81208 23.3883 5.60488 22.5778 5.60488 21.578C5.60488 20.5783 4.81208 19.7678 3.83412 19.7678C2.85615 19.7678 2.06335 20.5783 2.06335 21.578C2.06335 22.5778 2.85615 23.3883 3.83412 23.3883Z" fill="#042134"/>
    <path d="M9.95131 23.3883C10.9293 23.3883 11.7221 22.5778 11.7221 21.578C11.7221 20.5783 10.9293 19.7678 9.95131 19.7678C8.97334 19.7678 8.18054 20.5783 8.18054 21.578C8.18054 22.5778 8.97334 23.3883 9.95131 23.3883Z" fill="#042134"/>
    <path d="M16.0684 23.3883C17.0463 23.3883 17.8391 22.5778 17.8391 21.578C17.8391 20.5783 17.0463 19.7678 16.0684 19.7678C15.0904 19.7678 14.2976 20.5783 14.2976 21.578C14.2976 22.5778 15.0904 23.3883 16.0684 23.3883Z" fill="#042134"/>
    <path d="M99.0312 20.2164H94.6858C94.5997 20.2181 94.5177 20.2536 94.4574 20.3151C94.3971 20.3766 94.3633 20.4593 94.3633 20.5455C94.3633 20.6316 94.3971 20.7143 94.4574 20.7758C94.5177 20.8373 94.5997 20.8728 94.6858 20.8745H99.0312C99.1173 20.8728 99.1993 20.8373 99.2596 20.7758C99.3199 20.7143 99.3537 20.6316 99.3537 20.5455C99.3537 20.4593 99.3199 20.3766 99.2596 20.3151C99.1993 20.2536 99.1173 20.2181 99.0312 20.2164Z" fill="#042134"/>
    <path d="M99.0312 21.4515H94.6858C94.5997 21.4532 94.5177 21.4887 94.4574 21.5502C94.3971 21.6117 94.3633 21.6944 94.3633 21.7806C94.3633 21.8667 94.3971 21.9494 94.4574 22.0109C94.5177 22.0725 94.5997 22.1079 94.6858 22.1096H99.0312C99.1173 22.1079 99.1993 22.0725 99.2596 22.0109C99.3199 21.9494 99.3537 21.8667 99.3537 21.7806C99.3537 21.6944 99.3199 21.6117 99.2596 21.5502C99.1993 21.4887 99.1173 21.4532 99.0312 21.4515Z" fill="#042134"/>
    <path d="M99.0312 22.6849H94.6858C94.5997 22.6866 94.5177 22.7221 94.4574 22.7836C94.3971 22.8451 94.3633 22.9278 94.3633 23.014C94.3633 23.1001 94.3971 23.1828 94.4574 23.2443C94.5177 23.3058 94.5997 23.3413 94.6858 23.343H99.0312C99.1173 23.3413 99.1993 23.3058 99.2596 23.2443C99.3199 23.1828 99.3537 23.1001 99.3537 23.014C99.3537 22.9278 99.3199 22.8451 99.2596 22.7836C99.1993 22.7221 99.1173 22.6866 99.0312 22.6849Z" fill="#042134"/>
    <path d="M27.0618 32.3983H22.4603C19.8652 37.5075 18.0384 42.9717 17.0388 48.6143H27.0618C27.3812 48.6148 27.6976 48.5523 27.9928 48.4303C28.288 48.3084 28.5562 48.1293 28.7821 47.9034C29.008 47.6776 29.187 47.4093 29.309 47.1141C29.431 46.8189 29.4935 46.5025 29.4929 46.1831V34.8279C29.4921 34.1835 29.2356 33.5658 28.7798 33.1103C28.324 32.6548 27.7061 32.3987 27.0618 32.3983Z" fill="#CCCCCC"/>
    <path d="M61.1485 32.3983H40.3003C39.6559 32.3987 39.0381 32.6548 38.5823 33.1103C38.1265 33.5658 37.87 34.1835 37.8691 34.8279V46.1831C37.8699 46.8277 38.1263 47.4456 38.5821 47.9013C39.0378 48.3571 39.6558 48.6135 40.3003 48.6143H61.1485C61.793 48.6135 62.411 48.3571 62.8667 47.9013C63.3225 47.4456 63.5789 46.8277 63.5797 46.1831V34.8279C63.5788 34.1835 63.3223 33.5658 62.8666 33.1103C62.4108 32.6548 61.7929 32.3987 61.1485 32.3983Z" fill="#CCCCCC"/>
    <path d="M95.2353 32.3983H74.3871C73.7427 32.3987 73.1248 32.6548 72.669 33.1103C72.2132 33.5658 71.9568 34.1835 71.9559 34.8279V46.1831C71.9567 46.8277 72.2131 47.4456 72.6689 47.9013C73.1246 48.3571 73.7426 48.6135 74.3871 48.6143H95.2353C95.8798 48.6135 96.4978 48.3571 96.9535 47.9013C97.4093 47.4456 97.6657 46.8277 97.6665 46.1831V34.8279C97.6656 34.1835 97.4091 33.5658 96.9534 33.1103C96.4976 32.6548 95.8797 32.3987 95.2353 32.3983Z" fill="#CCCCCC"/>
    <path d="M27.0617 56.2239H16.1976C16.1571 57.1186 16.1365 58.0181 16.136 58.9225C16.1328 63.4737 16.6582 68.0099 17.7017 72.4398H27.0617C27.7063 72.4391 28.3242 72.1827 28.78 71.7269C29.2357 71.2711 29.4921 70.6532 29.4929 70.0087V58.6534C29.492 58.0091 29.2356 57.3913 28.7798 56.9358C28.324 56.4804 27.7061 56.2243 27.0617 56.2239Z" fill="#CCCCCC"/>
    <path d="M61.1485 56.2239H40.3003C39.6559 56.2243 39.0381 56.4804 38.5823 56.9358C38.1265 57.3913 37.87 58.0091 37.8691 58.6534V70.0087C37.8699 70.6532 38.1263 71.2711 38.5821 71.7269C39.0378 72.1827 39.6558 72.4391 40.3003 72.4398H61.1485C61.793 72.4391 62.411 72.1827 62.8667 71.7269C63.3225 71.2711 63.5789 70.6532 63.5797 70.0087V58.6534C63.5788 58.0091 63.3223 57.3913 62.8666 56.9358C62.4108 56.4804 61.7929 56.2243 61.1485 56.2239Z" fill="#CCCCCC"/>
    <path d="M95.2353 56.2239H74.3871C73.7427 56.2243 73.1248 56.4804 72.669 56.9358C72.2132 57.3913 71.9568 58.0091 71.9559 58.6534V70.0087C71.9567 70.6532 72.2131 71.2711 72.6689 71.7269C73.1246 72.1827 73.7426 72.4391 74.3871 72.4398H95.2353C95.3017 72.4398 95.3682 72.4366 95.4346 72.4301C95.6951 72.411 95.9505 72.348 96.1899 72.2437C96.6241 72.0579 96.9949 71.7498 97.2571 71.357C97.5192 70.9642 97.6615 70.5036 97.6665 70.0314V58.6534C97.6656 58.0091 97.4092 57.3913 96.9534 56.9358C96.4976 56.4804 95.8797 56.2243 95.2353 56.2239Z" fill="#CCCCCC"/>
    <path d="M27.4969 51.3262C30.1608 51.3262 32.3202 49.1667 32.3202 46.5029C32.3202 43.839 30.1608 41.6796 27.4969 41.6796C24.8331 41.6796 22.6736 43.839 22.6736 46.5029C22.6736 49.1667 24.8331 51.3262 27.4969 51.3262Z" fill="#6C63FF"/>
    <path d="M26.8389 49.0132C26.7556 49.0132 26.6735 48.9938 26.599 48.9565C26.5245 48.9193 26.4597 48.8652 26.4097 48.7985L25.0939 47.044C25.0516 46.9876 25.0208 46.9235 25.0034 46.8552C24.9859 46.787 24.982 46.7159 24.992 46.6462C25.0019 46.5764 25.0255 46.5093 25.0614 46.4487C25.0973 46.3881 25.1448 46.3351 25.2012 46.2929C25.2576 46.2506 25.3217 46.2198 25.39 46.2024C25.4582 46.1849 25.5292 46.181 25.599 46.191C25.6687 46.2009 25.7358 46.2245 25.7965 46.2604C25.8571 46.2963 25.91 46.3438 25.9523 46.4002L26.8132 47.548L29.0243 44.2314C29.0633 44.1727 29.1136 44.1222 29.1721 44.0829C29.2307 44.0436 29.2964 44.0163 29.3655 44.0024C29.4347 43.9886 29.5059 43.9884 29.575 44.0021C29.6442 44.0158 29.71 44.0429 29.7687 44.0821C29.8273 44.1212 29.8777 44.1715 29.9169 44.2301C29.9562 44.2887 29.9834 44.3544 29.9972 44.4236C30.011 44.4927 30.011 44.5639 29.9973 44.6331C29.9836 44.7022 29.9563 44.768 29.9171 44.8266L27.2854 48.7742C27.2378 48.8456 27.1737 48.9046 27.0987 48.9461C27.0236 48.9877 26.9396 49.0106 26.8538 49.013C26.8489 49.0131 26.8439 49.0132 26.8389 49.0132Z" fill="white"/>
    <path d="M62.6679 51.8124C65.3318 51.8124 67.4913 49.6529 67.4913 46.9891C67.4913 44.3252 65.3318 42.1658 62.6679 42.1658C60.0041 42.1658 57.8446 44.3252 57.8446 46.9891C57.8446 49.6529 60.0041 51.8124 62.6679 51.8124Z" fill="#FF6584"/>
    <path d="M131.546 72.9803L130.036 58.3667L129.638 52.3522L133.863 51.5881C133.863 51.5881 134.496 55.7228 135.05 58.1492C135.596 60.5436 134.322 72.6595 134.288 72.979C134.599 73.2565 134.817 73.6217 134.916 74.0263C135.014 74.4308 134.987 74.8557 134.839 75.2446C134.69 75.6336 134.427 75.9683 134.084 76.2046C133.741 76.4408 133.335 76.5674 132.919 76.5676C132.502 76.5678 132.096 76.4416 131.753 76.2057C131.41 75.9698 131.146 75.6353 130.998 75.2465C130.849 74.8577 130.822 74.4328 130.919 74.0282C131.017 73.6235 131.236 73.2581 131.546 72.9803Z" fill="#A0616A"/>
    <path d="M120.731 116.481L118.635 116.96L115.79 109.104L118.883 108.397L120.731 116.481Z" fill="#A0616A"/>
    <path d="M121.11 115.674L120.575 115.796L120.52 115.809L118.074 115.41L118.002 115.399L116.981 116.618C116.284 116.777 115.678 117.207 115.298 117.813C114.917 118.419 114.793 119.152 114.952 119.849L114.955 119.864L114.973 119.935L115.284 119.864L121.73 118.389L121.11 115.674Z" fill="#031A2A"/>
    <path d="M133.224 117.851H131.074L130.052 109.559L133.224 109.559L133.224 117.851Z" fill="#A0616A"/>
    <path d="M133.168 117.149L132.98 117.073L130.873 116.216L130.805 116.188L129.539 117.149C129.185 117.149 128.834 117.219 128.507 117.354C128.179 117.49 127.882 117.688 127.631 117.939C127.381 118.189 127.182 118.486 127.046 118.814C126.911 119.141 126.841 119.492 126.841 119.846V119.934L132.774 119.935H133.773V117.149H133.168Z" fill="#031A2A"/>
    <path d="M129.954 73.4718L131.763 90.649C131.763 90.649 134.17 107.848 133.718 110.221C133.265 112.595 133.831 112.934 133.831 112.934L129.706 112.64C129.706 112.64 129.819 111.171 129.141 110.493C128.463 109.815 128.802 107.781 128.802 107.781L120.801 79.8003L115.941 94.4913C115.941 94.4913 119.011 106.405 118.898 106.631C118.785 106.857 120.843 111.817 120.843 111.817L116.239 113.344C116.239 113.344 116.804 111.536 116.013 110.971C115.222 110.406 114.544 110.858 115.222 109.841C115.9 108.824 109.88 101.355 110.012 96.5407C110.052 95.0926 110.1 93.5389 110.158 91.947C110.464 83.5233 111.042 74.0315 112.099 73.4718C114.02 72.4547 129.954 73.4718 129.954 73.4718Z" fill="#031A2A"/>
    <path d="M121.392 38.6923C123.848 38.6923 125.839 36.7012 125.839 34.2451C125.839 31.7889 123.848 29.7979 121.392 29.7979C118.935 29.7979 116.944 31.7889 116.944 34.2451C116.944 36.7012 118.935 38.6923 121.392 38.6923Z" fill="#A0616A"/>
    <path d="M136.241 61.4109L130.202 62.9438L130.244 61.2488L129.786 60.7626L128.87 55.9655L127.897 43.5459L131.234 45.3157L131.238 45.3189C131.821 45.9599 132.309 46.6815 132.686 47.4615C133.944 50.0189 135.152 55.6519 135.785 58.9236C135.806 58.9922 135.848 59.0527 135.905 59.097C136.219 59.3851 136.423 59.7726 136.485 60.1942C136.546 60.6157 136.46 61.0455 136.241 61.4109Z" fill="#042134"/>
    <path d="M100.555 66.9067C100.555 66.9067 108.89 58.119 108.968 57.9534C109.55 53.5318 111.225 51.5814 111.476 51.7931L115.798 53.2905C115.798 53.2905 114.512 57.3618 113.642 59.78C112.81 62.0908 103.224 67.7348 103.064 68.0135C103.236 68.3927 103.288 68.8151 103.215 69.2249C103.141 69.6347 102.945 70.0125 102.652 70.3083C102.359 70.6041 101.983 70.804 101.574 70.8816C101.165 70.9592 100.742 70.9108 100.361 70.7428C99.9804 70.5747 99.6595 70.295 99.441 69.9407C99.2225 69.5863 99.1168 69.1739 99.1377 68.7581C99.1587 68.3423 99.3054 67.9427 99.5584 67.6121C99.8115 67.2815 100.159 67.0355 100.555 66.9067Z" fill="#A0616A"/>
    <path d="M117.874 44.3458C117.874 44.3458 114.132 42.5117 112.681 46.1139C111.885 48.1475 109.85 53.0829 108.836 56.1211C108.829 56.1404 108.82 56.1588 108.808 56.1756C108.537 56.5786 108.39 57.0527 108.387 57.5385C108.388 57.5739 108.384 57.6092 108.376 57.6438C108.376 57.6438 112.489 58.4449 113.712 60.6005L114.197 60.074L114.283 59.7052L117.874 44.3458Z" fill="#042134"/>
    <path d="M131.491 75.3439C122.879 77.1225 111.465 74.0646 111.465 74.0646L114.51 60.8666L113.428 47.0547C113.295 45.3656 114.257 43.7823 115.754 43.2213L117.821 42.4473L119.529 40.0018L124.408 40.1619L126.358 42.7293L127.897 43.5459L131.234 45.3157L131.249 45.323V45.3304L130.202 55.4881L129.57 61.6127C129.57 61.6127 131.489 68.5011 131.095 69.4146C130.701 70.3267 131.044 69.8861 131.139 70.3737C131.234 70.8613 131.527 70.8922 131.571 71.8527C131.616 72.8118 131.491 75.3439 131.491 75.3439Z" fill="#042134"/>
    <path d="M126.216 32.6614C125.865 32.3147 126.394 31.3969 126.294 30.9134C126.179 30.3591 125.568 30.3429 125.423 29.7959C125.266 29.2075 124.639 28.8872 124.059 28.7007C122.573 28.2253 120.988 28.1527 119.465 28.4903C118.791 28.6549 118.127 28.8593 117.477 29.1026C117.029 29.2605 117.461 28.8308 117.013 28.9887C116.843 29.0266 116.693 29.126 116.592 29.2678C116.511 29.4203 116.62 29.6641 116.79 29.6332C116.242 29.8748 115.694 30.1163 115.147 30.3578C115.454 30.6796 115.761 31.0013 116.068 31.3231C115.632 31.1988 115.166 31.7194 115.338 32.1395C115.407 32.2721 115.508 32.3859 115.631 32.471C115.754 32.5562 115.896 32.6102 116.044 32.6283C116.538 32.7243 116.163 33.1938 116.666 33.1846C117.168 33.1755 120.672 32.1455 120.917 32.5847C121.091 32.8974 121.071 33.3117 121.32 33.5694C121.638 33.899 122.192 33.7785 122.597 33.5638C123.001 33.3492 123.412 33.0543 123.867 33.1057C124.342 33.1594 124.701 34.0372 124.818 34.5007C124.935 34.9643 124.861 35.452 124.786 35.9242C124.689 36.5444 123.71 37.1645 123.612 37.7847C124.698 38.0852 125.864 37.1291 126.294 35.4664C126.251 34.4154 126.965 33.4002 126.216 32.6614Z" fill="#031A2A"/>
    <path d="M96.3803 74.8276C99.0442 74.8276 101.204 72.6681 101.204 70.0042C101.204 67.3404 99.0442 65.1809 96.3803 65.1809C93.7165 65.1809 91.557 67.3404 91.557 70.0042C91.557 72.6681 93.7165 74.8276 96.3803 74.8276Z" fill="#6C63FF"/>
    <path d="M95.7223 72.5146C95.6391 72.5146 95.5569 72.4952 95.4824 72.458C95.4079 72.4207 95.3431 72.3666 95.2932 72.3L93.9773 70.5454C93.935 70.4891 93.9043 70.4249 93.8868 70.3567C93.8693 70.2884 93.8654 70.2174 93.8754 70.1477C93.8854 70.0779 93.909 70.0108 93.9449 69.9502C93.9808 69.8896 94.0282 69.8366 94.0846 69.7943C94.141 69.7521 94.2051 69.7213 94.2734 69.7038C94.3416 69.6863 94.4127 69.6825 94.4824 69.6924C94.5522 69.7024 94.6193 69.726 94.6799 69.7619C94.7405 69.7978 94.7935 69.8453 94.8357 69.9017L95.6966 71.0494L97.9077 67.7328C97.9468 67.6741 97.997 67.6237 98.0555 67.5844C98.1141 67.5451 98.1798 67.5178 98.2489 67.5039C98.3181 67.49 98.3893 67.4899 98.4585 67.5036C98.5276 67.5172 98.5934 67.5444 98.6521 67.5835C98.7108 67.6226 98.7611 67.6729 98.8004 67.7315C98.8396 67.7901 98.8669 67.8559 98.8807 67.925C98.8944 67.9942 98.8945 68.0654 98.8807 68.1345C98.867 68.2037 98.8397 68.2694 98.8006 68.3281L96.1688 72.2757C96.1212 72.3471 96.0572 72.406 95.9821 72.4476C95.907 72.4891 95.8231 72.5121 95.7373 72.5145C95.7323 72.5145 95.7273 72.5146 95.7223 72.5146Z" fill="white"/>
    <path d="M148.343 120.057C148.343 120.082 148.338 120.108 148.328 120.131C148.319 120.154 148.304 120.176 148.287 120.194C148.269 120.212 148.247 120.226 148.224 120.235C148.2 120.245 148.175 120.25 148.15 120.25H102.721C102.67 120.25 102.621 120.23 102.585 120.194C102.548 120.157 102.528 120.108 102.528 120.057C102.528 120.006 102.548 119.957 102.585 119.921C102.621 119.885 102.67 119.864 102.721 119.864H148.15C148.175 119.864 148.2 119.869 148.224 119.879C148.247 119.888 148.269 119.903 148.287 119.921C148.304 119.939 148.319 119.96 148.328 119.983C148.338 120.007 148.343 120.032 148.343 120.057Z" fill="#CCCCCC"/>
    <path d="M60.772 45.0922L64.2457 48.5658" stroke="white"/>
    <path d="M64.2457 45.0922L60.772 48.5658" stroke="white"/>
  </g>
  <defs>
    <clipPath id="clip0_279_2802">
      <rect width="149.234" height="120" fill="white" transform="translate(0.0498047 0.25)"/>
    </clipPath>
  </defs>
</svg>