<svg xmlns="http://www.w3.org/2000/svg" width="126" height="121" viewBox="0 0 126 121" fill="none">
  <g clip-path="url(#clip0_275_2731)">
    <path d="M82.4532 21.7899C81.6386 21.0084 80.8054 16.6502 79.7655 16.2078C80.5429 17.9258 79.9785 18.3807 79.9743 20.2662C79.9841 21.3368 79.8591 22.4044 79.6022 23.4438H61.9856V9.69539C61.9856 8.46006 62.2288 7.23682 62.7016 6.09552C63.1743 4.95421 63.8672 3.9172 64.7407 3.04368C65.6142 2.17017 66.6512 1.47727 67.7925 1.00455C68.9338 0.531822 70.1571 0.288538 71.3924 0.288574C71.8639 0.297778 72.3324 0.366354 72.7867 0.492697C74.3009 0.901509 75.681 1.70131 76.7885 2.81188C77.896 3.92244 78.692 5.30471 79.0967 6.82004C80.4397 11.7288 82.5756 19.8999 82.4532 21.7899Z" fill="#031A2A"/>
    <path d="M63.0192 38.703L63.0279 27.9869L56.7287 28.5498L58.9518 35.3085L57.9113 52.2964C57.4067 52.4097 56.946 52.6673 56.5852 53.0379C56.2245 53.4085 55.9794 53.876 55.8797 54.3835C55.7801 54.891 55.8303 55.4165 56.0242 55.8959C56.2181 56.3754 56.5473 56.7881 56.9717 57.0837C57.3961 57.3792 57.8973 57.545 58.4142 57.5606C58.9311 57.5763 59.4415 57.4412 59.8829 57.1718C60.3244 56.9025 60.678 56.5105 60.9006 56.0436C61.1231 55.5768 61.205 55.0553 61.1363 54.5427L63.0192 38.703Z" fill="#FFB6B6"/>
    <path d="M75.4159 115.281L77.9607 115.28L79.1715 105.464H75.4153L75.4159 115.281Z" fill="#FFB6B6"/>
    <path d="M74.5539 114.025L78.5768 113.785V115.509L82.4016 118.15C82.5905 118.28 82.7328 118.468 82.8077 118.685C82.8825 118.902 82.886 119.137 82.8177 119.356C82.7494 119.576 82.6128 119.767 82.4279 119.903C82.243 120.039 82.0194 120.113 81.7898 120.113H77.0003L76.1748 118.408L75.8525 120.113H74.0466L74.5539 114.025Z" fill="#031A2A"/>
    <path d="M60.7008 115.281L63.2459 115.28L64.4563 105.464H60.7004L60.7008 115.281Z" fill="#FFB6B6"/>
    <path d="M59.839 114.025L63.862 113.785V115.509L67.6867 118.15C67.8757 118.28 68.0179 118.468 68.0928 118.685C68.1677 118.902 68.1712 119.137 68.1029 119.356C68.0346 119.576 67.898 119.767 67.713 119.903C67.5281 120.039 67.3045 120.113 67.075 120.113H62.2855L61.4599 118.408L61.1376 120.113H59.3318L59.839 114.025Z" fill="#031A2A"/>
    <path d="M73.1496 16.4146L67.8776 16.5179L64.1562 20.446L61.1728 20.8836C59.8232 21.0816 58.5824 21.7367 57.6579 22.7396C56.7333 23.7425 56.181 25.0324 56.0933 26.3936L56.6101 29.2326H59.7113L61.5053 39.7662C60.8077 41.5437 60.7603 42.9468 62.1922 43.4979L66.6372 51.871L79.7653 45.9788C80.4311 44.8342 80.6445 43.6846 79.9639 42.5666L80.9024 26.4416H84.0581C84.0581 23.4257 83.038 20.8832 80.0408 20.5476C78.8506 20.4188 77.6546 20.3504 76.4574 20.3427L73.1496 16.4146Z" fill="#042134"/>
    <path d="M79.7655 45.9788C79.7655 45.9788 66.9474 48.253 62.1923 43.4979C62.1923 43.4979 61.7096 44.3175 60.9821 45.6767C60.7729 46.0676 60.3689 46.3323 60.1249 46.8058C59.9031 47.2361 59.3328 47.7651 59.0912 48.2532C58.8968 48.6458 59.2086 49.1589 59.0064 49.583C56.5712 54.6907 53.7261 61.8956 54.3361 66.6532C54.7294 69.7212 55.5418 76.8603 56.3974 84.528C56.4643 85.1271 55.9228 85.8967 55.99 86.5005C56.0534 87.0699 56.7254 87.4735 56.7888 88.0442C56.8308 88.4231 56.3616 88.8097 56.4035 89.1882C56.4496 89.6034 57.0068 90.0105 57.0526 90.4242C58.2247 101.012 59.2979 110.896 59.2979 110.896H65.2935L66.4247 88.3207L65.5002 80.0915L67.671 63.4487L70.6688 79.2645L71.0544 88.1658L74.2225 111.31H79.7655V88.9049L80.179 87.741L79.7655 86.2482L80.179 84.6398L79.7655 82.8882V45.9788Z" fill="#031A2A"/>
    <path d="M74.7677 13.3573C73.9511 14.4421 72.7893 15.2165 71.4738 15.5528C70.1582 15.8892 68.7674 15.7675 67.5302 15.2078C66.2931 14.6481 65.2835 13.6838 64.6676 12.4736C64.0517 11.2635 63.8664 9.87965 64.142 8.55007C64.4177 7.22049 65.1379 6.02443 66.1841 5.15886C67.2304 4.2933 68.5402 3.80985 69.8978 3.78812C71.2555 3.76639 72.5801 4.20768 73.6535 5.03933C74.7269 5.87097 75.485 7.04338 75.8031 8.36346C75.8203 8.43508 75.8348 8.5063 75.8489 8.58024C76.0168 9.40766 76.0073 10.2613 75.8209 11.0848C75.6346 11.9083 75.2756 12.6828 74.7677 13.3573Z" fill="#FFB6B6"/>
    <path d="M73.5218 9.94766C73.395 9.31142 73.0743 8.73004 72.6038 8.28337C72.6503 8.89309 72.5657 9.50568 72.3557 10.08C70.784 10.2192 69.2053 9.90643 67.8053 9.17859C66.7509 8.46327 65.4092 8.52527 63.8462 9.17859C63.8461 8.41837 63.9958 7.66557 64.2866 6.96319C64.5775 6.26082 65.0039 5.62263 65.5415 5.08507C66.079 4.54751 66.7172 4.12111 67.4196 3.83023C68.122 3.53935 68.8748 3.38967 69.635 3.38977H70.6687C72.2039 3.39005 73.6762 4.00003 74.7617 5.08559C75.8473 6.17114 76.4573 7.64339 76.4575 9.17859C75.5035 9.52078 74.5211 9.77813 73.5218 9.94766Z" fill="#031A2A"/>
    <path d="M28.2972 83.7282C37.4819 83.7282 44.9276 76.2825 44.9276 67.0977C44.9276 57.913 37.4819 50.4673 28.2972 50.4673C19.1124 50.4673 11.6667 57.913 11.6667 67.0977C11.6667 76.2825 19.1124 83.7282 28.2972 83.7282Z" fill="#F0F0F0"/>
    <path d="M92.4551 61.2283C101.64 61.2283 109.086 53.7826 109.086 44.5978C109.086 35.4131 101.64 27.9674 92.4551 27.9674C83.2704 27.9674 75.8247 35.4131 75.8247 44.5978C75.8247 53.7826 83.2704 61.2283 92.4551 61.2283Z" fill="#F0F0F0"/>
    <path d="M122.455 46.4114V84.1221C122.455 84.9054 122.146 85.6571 121.595 86.2139C121.044 86.7707 120.296 87.0876 119.513 87.0958C119.502 87.0969 119.491 87.0974 119.48 87.0971H115.091C111.579 87.0971 108.211 85.7021 105.728 83.2189C103.245 80.7356 101.85 77.3677 101.85 73.8559V46.4114C101.85 45.6224 102.163 44.8657 102.721 44.3078C103.279 43.7498 104.036 43.4364 104.825 43.4364H106.603C105.779 45.8399 116.962 46.8518 117.576 43.4364H119.48C120.269 43.4364 121.026 43.7499 121.584 44.3078C122.142 44.8657 122.455 45.6224 122.455 46.4114Z" fill="#6C63FF"/>
    <path d="M109.43 40.6166C109.431 40.5132 109.472 40.4141 109.545 40.341C109.618 40.2679 109.717 40.2268 109.82 40.2267H112.472C112.575 40.227 112.674 40.2682 112.746 40.3413C112.819 40.4144 112.86 40.5134 112.86 40.6166C112.86 40.7198 112.819 40.8188 112.746 40.8919C112.674 40.965 112.575 41.0062 112.472 41.0065H109.82C109.717 41.0063 109.618 40.9652 109.545 40.8921C109.472 40.819 109.431 40.7199 109.43 40.6166Z" fill="#042134"/>
    <path d="M120.391 91.8804H103.625C102.324 91.879 101.077 91.3616 100.157 90.4418C99.2375 89.522 98.7201 88.2749 98.7186 86.9742V60.6129C98.6266 60.5468 98.5516 60.4596 98.4999 60.3588C98.4483 60.2579 98.4214 60.1462 98.4215 60.0328V57.3816C98.4214 57.2683 98.4483 57.1566 98.4999 57.0557C98.5516 56.9549 98.6266 56.8678 98.7186 56.8017V56.0902C98.6266 56.0241 98.5516 55.937 98.4999 55.8361C98.4483 55.7353 98.4214 55.6236 98.4215 55.5103V52.8589C98.4214 52.7456 98.4483 52.6339 98.4999 52.533C98.5516 52.4322 98.6266 52.3451 98.7186 52.279V50.993C98.605 50.9319 98.51 50.8411 98.4439 50.7303C98.3779 50.6195 98.3432 50.4928 98.3435 50.3637V47.7125C98.3432 47.5835 98.3778 47.4567 98.4439 47.3459C98.51 47.235 98.605 47.1442 98.7186 47.0831V43.5592C98.7201 42.2584 99.2376 41.0113 100.157 40.0916C101.077 39.1718 102.324 38.6544 103.625 38.653H120.391C121.692 38.6544 122.939 39.1718 123.859 40.0916C124.779 41.0114 125.296 42.2585 125.297 43.5592V51.2406C125.386 51.2958 125.459 51.3727 125.509 51.4638C125.56 51.555 125.586 51.6575 125.586 51.7617V56.817C125.586 56.9213 125.56 57.0238 125.509 57.115C125.459 57.2061 125.386 57.283 125.297 57.3383V86.9742C125.296 88.2749 124.779 89.522 123.859 90.4418C122.939 91.3616 121.692 91.879 120.391 91.8804ZM103.625 39.3051C102.497 39.3064 101.416 39.755 100.618 40.5525C99.8207 41.35 99.3721 42.4313 99.3708 43.5592V47.6379L99.0571 47.65C99.0408 47.6505 99.0254 47.6574 99.0139 47.669C99.0025 47.6806 98.996 47.6962 98.9957 47.7125V50.3637C98.996 50.38 99.0026 50.3956 99.014 50.4072C99.0254 50.4188 99.0408 50.4257 99.0571 50.4263L99.3708 50.4382V52.7369L99.1227 52.7981C99.109 52.8014 99.0967 52.8091 99.0879 52.8201C99.079 52.8311 99.074 52.8448 99.0737 52.8589V55.5103C99.074 55.5244 99.079 55.538 99.0879 55.549C99.0967 55.56 99.109 55.5678 99.1227 55.5711L99.3708 55.6322V57.2596L99.1227 57.3208C99.109 57.3241 99.0967 57.3318 99.0879 57.3428C99.079 57.3538 99.074 57.3675 99.0737 57.3816V60.0328C99.074 60.047 99.079 60.0606 99.0878 60.0716C99.0967 60.0827 99.109 60.0905 99.1227 60.0938L99.3708 60.1549V86.9742C99.3721 88.102 99.8207 89.1834 100.618 89.9809C101.416 90.7784 102.497 91.227 103.625 91.2282H120.391C121.519 91.227 122.6 90.7783 123.398 89.9808C124.195 89.1833 124.644 88.102 124.645 86.9742V56.7799H124.934V51.799H124.645V43.5592C124.644 42.4313 124.195 41.3501 123.398 40.5525C122.6 39.755 121.519 39.3064 120.391 39.3051L103.625 39.3051Z" fill="#042134"/>
    <path d="M113.953 41.0065C114.168 41.0065 114.343 40.8319 114.343 40.6166C114.343 40.4012 114.168 40.2267 113.953 40.2267C113.738 40.2267 113.563 40.4012 113.563 40.6166C113.563 40.8319 113.738 41.0065 113.953 41.0065Z" fill="#042134"/>
    <path d="M112.26 82.7513C113.795 82.7513 115.039 81.5068 115.039 79.9717C115.039 78.4366 113.795 77.1921 112.26 77.1921C110.725 77.1921 109.48 78.4366 109.48 79.9717C109.48 81.5068 110.725 82.7513 112.26 82.7513Z" fill="white"/>
    <path d="M37.5095 65.6899L35.3412 55.4838C35.2372 54.9846 35.0357 54.5109 34.7483 54.0897C34.4609 53.6685 34.0931 53.3083 33.6662 53.0295L33.6444 53.0151C33.2146 52.7338 32.7332 52.5404 32.2281 52.4464C31.7231 52.3523 31.2044 52.3593 30.702 52.467C28.3913 52.9569 26.3605 54.3234 25.0364 56.2795C23.7123 58.2355 23.198 60.6286 23.6016 62.956C23.6203 63.0698 23.6436 63.1827 23.6668 63.2957C23.797 63.9189 23.9938 64.5264 24.2538 65.1076C24.958 66.7071 26.1114 68.0677 27.5739 69.0243L27.6202 69.0548C28.6242 69.7112 29.7484 70.1621 30.9277 70.3813C32.107 70.6005 33.3181 70.5837 34.4909 70.3318C35.506 70.1153 36.3939 69.505 36.9597 68.6349C37.5256 67.7647 37.7233 66.7056 37.5095 65.6899ZM34.3571 69.6931C32.442 70.0946 30.4469 69.8236 28.7082 68.9258C26.9695 68.028 25.5934 66.5583 24.8118 64.7644C24.5909 64.2473 24.4204 63.71 24.3028 63.1601C23.8359 60.9605 24.2619 58.6655 25.4871 56.7799C26.7122 54.8944 28.6362 53.5728 30.8358 53.1057C31.255 53.0153 31.6879 53.0093 32.1094 53.0878C32.531 53.1664 32.9327 53.328 33.2911 53.5633L33.3075 53.5741C33.6628 53.8064 33.9689 54.1064 34.2083 54.4571C34.4477 54.8077 34.6156 55.202 34.7025 55.6176L36.869 65.8264C37.0479 66.6722 36.8839 67.5544 36.413 68.2794C35.942 69.0043 35.2026 69.5128 34.3571 69.6931Z" fill="#042134"/>
    <path d="M30.3992 32.197L28.2327 21.9882C28.0213 20.9806 27.4189 20.098 26.5577 19.5339L26.5387 19.5213C26.1079 19.24 25.6257 19.0469 25.1199 18.953C24.6142 18.8591 24.0948 18.8663 23.5918 18.9741C21.6788 19.3832 19.9472 20.3942 18.6506 21.8591C17.3541 23.3239 16.5608 25.1655 16.387 27.114L16.388 27.1185C16.3196 27.9172 16.3584 28.7215 16.5034 29.51C16.5156 29.604 16.5361 29.7034 16.5565 29.8028C17.0494 32.1541 18.4545 34.2142 20.4637 35.5314L20.5127 35.5637C21.5173 36.2194 22.6419 36.6697 23.8215 36.8884C25.001 37.1071 26.2122 37.09 27.3852 36.838C27.8878 36.7312 28.3645 36.5264 28.788 36.2354C29.2116 35.9444 29.5736 35.5728 29.8535 35.1418C30.1334 34.7108 30.3256 34.229 30.4193 33.7237C30.5129 33.2184 30.5061 32.6997 30.3992 32.197ZM27.2469 36.2002C26.1583 36.434 25.0342 36.4498 23.9395 36.2467C22.8447 36.0437 21.8011 35.6258 20.8687 35.0173L20.8224 34.9868C19.4264 34.0665 18.3337 32.7539 17.6817 31.2142C17.0297 29.6745 16.8476 27.9764 17.1581 26.3334C17.4687 24.6904 18.2582 23.176 19.4272 21.9805C20.5962 20.785 22.0926 19.9619 23.7283 19.6146C24.574 19.4358 25.4562 19.5998 26.1812 20.0707C26.9061 20.5417 27.4146 21.281 27.595 22.1265L29.7633 32.3326C29.9412 33.1791 29.7763 34.0616 29.3046 34.7866C28.8328 35.5116 28.0929 36.02 27.2469 36.2002Z" fill="#042134"/>
    <path d="M36.638 67.8756L34.2494 56.6209C34.0921 55.8839 33.6489 55.2394 33.017 54.8287C32.385 54.4181 31.6161 54.2749 30.8787 54.4305C29.9562 54.6252 29.0812 54.9998 28.3037 55.5329C27.5261 56.066 26.8612 56.7472 26.3471 57.5374C25.8329 58.3276 25.4796 59.2114 25.3073 60.1383C25.1349 61.0652 25.147 62.0169 25.3427 62.9392C25.5384 63.8614 25.914 64.736 26.448 65.5129C26.9819 66.2899 27.6638 66.954 28.4546 67.4673C29.2454 67.9806 30.1296 68.3329 31.0567 68.5042C31.9837 68.6755 32.9355 68.6624 33.8575 68.4657L36.638 67.8756Z" fill="#FF6584"/>
    <path d="M29.5297 34.3824L27.141 23.1278C26.9837 22.3907 26.5405 21.7462 25.9086 21.3356C25.2767 20.9249 24.5077 20.7817 23.7703 20.9373C22.8478 21.132 21.9728 21.5067 21.1953 22.0398C20.4177 22.5729 19.7528 23.254 19.2387 24.0442C18.7246 24.8344 18.3712 25.7183 18.1989 26.6451C18.0265 27.572 18.0386 28.5238 18.2343 29.446C18.43 30.3682 18.8056 31.2428 19.3396 32.0198C19.8735 32.7968 20.5554 33.4609 21.3462 33.9741C22.137 34.4874 23.0212 34.8398 23.9483 35.0111C24.8753 35.1824 25.8271 35.1693 26.7491 34.9725L29.5297 34.3824Z" fill="#FF6584"/>
    <path d="M26.3562 67.1326L25.9094 67.4552C25.3334 66.658 24.7816 65.8754 24.254 65.1075C14.9192 51.4889 12.841 41.3772 16.3879 27.1185L16.387 27.114C16.5524 26.442 16.7316 25.7609 16.9246 25.0706L17.4464 25.2152C17.2291 25.8582 17.0913 26.5253 17.0359 27.2017C16.8413 27.9833 16.6637 28.7528 16.5033 29.51C13.9006 41.8019 15.874 51.1065 23.6018 62.9559C23.9903 63.5516 24.3937 64.1544 24.8119 64.7644C25.191 65.6344 25.7129 66.4348 26.3562 67.1326Z" fill="#042134"/>
    <path d="M19.873 34.4317L19.2349 34.5671L24.1769 57.8529L24.815 57.7175L19.873 34.4317Z" fill="#042134"/>
    <path d="M83.9003 36.2222L83.909 25.5061L77.6097 26.069L79.8329 32.8276L71.7631 45.0605C71.2585 45.1737 70.7977 45.4314 70.437 45.8019C70.0763 46.1725 69.8312 46.6401 69.7315 47.1476C69.6319 47.655 69.6821 48.1805 69.876 48.66C70.0699 49.1394 70.3991 49.5521 70.8235 49.8477C71.2479 50.1433 71.7491 50.309 72.266 50.3247C72.7829 50.3403 73.2932 50.2053 73.7347 49.9359C74.1762 49.6665 74.5298 49.2745 74.7523 48.8077C74.9749 48.3409 75.0568 47.8194 74.9881 47.3068L83.9003 36.2222Z" fill="#FFB6B6"/>
  </g>
  <defs>
    <clipPath id="clip0_275_2731">
      <rect width="125.655" height="120" fill="white" transform="translate(0.172607 0.25)"/>
    </clipPath>
  </defs>
</svg>