<svg xmlns="http://www.w3.org/2000/svg" width="237" height="190" viewBox="0 0 237 190" fill="none">
  <g clip-path="url(#clip0_310_28099)">
    <path d="M211.622 92.8981C211.622 94.6046 211.576 96.2992 211.484 97.9818C211.148 104.273 210.172 110.513 208.569 116.605C208.566 116.608 208.566 116.608 208.569 116.61C208.358 117.416 208.135 118.219 207.899 119.015C207.889 119.053 207.878 119.089 207.865 119.125C207.516 120.318 207.143 121.501 206.747 122.672V122.674C200.509 141.073 188.665 157.056 172.877 168.378C157.09 179.699 138.152 185.791 118.724 185.796C74.7826 185.796 37.9698 155.291 28.3053 114.301C26.6532 107.286 25.8213 100.104 25.8263 92.8981C25.8263 91.4661 25.8588 90.0418 25.9238 88.6253C26.6939 71.3077 32.3185 54.5557 42.1553 40.2823C42.2734 40.1078 42.394 39.9333 42.5172 39.7614C59.3055 15.7234 87.1801 0 118.724 0C163.305 0 200.549 31.4006 209.546 73.2919C209.548 73.2933 209.549 73.2951 209.549 73.2971C210.129 75.9968 210.589 78.7375 210.93 81.5193C211.393 85.2945 211.624 89.0946 211.622 92.8981Z" fill="#F2F2F2"/>
    <path d="M235.813 170.815C235.12 173.323 234.036 175.707 232.603 177.88C229.4 182.722 224.817 186.425 219.78 189.389C219.431 189.597 219.076 189.8 218.722 190H215.189L215.065 189.718V189.715L214.922 189.389L214.904 189.351L214.896 189.389L214.755 190H213.02C212.876 189.797 212.735 189.594 212.597 189.389C212.394 189.089 212.199 188.786 212.014 188.478C211.688 187.94 211.397 187.381 211.142 186.805C211.111 186.741 211.085 186.677 211.059 186.612L211.175 186.487L210.695 184.388L211.66 184.228L210.603 180.967C210.641 180.846 210.685 180.725 210.731 180.605C211.324 179.104 212.438 177.982 213.759 177.04C215.119 176.068 216.703 175.288 218.158 174.477C218.84 174.094 219.513 173.691 220.167 173.265V173.263C221.004 172.721 221.815 172.142 222.602 171.525C222.616 171.517 222.629 171.508 222.641 171.497C222.652 171.489 222.662 171.481 222.672 171.472C226.2 168.715 229.185 165.328 231.477 161.481L231.477 161.481L231.478 161.48L231.479 161.48L231.479 161.479C231.556 161.355 231.628 161.232 231.7 161.107V161.104C232.638 159.49 233.446 157.804 234.115 156.061V156.059C234.166 155.93 234.212 155.802 234.261 155.674C234.328 155.787 234.392 155.9 234.453 156.013L234.454 156.013L234.455 156.013L234.456 156.014L234.456 156.015C236.945 160.468 237.181 165.831 235.813 170.815Z" fill="#F0F0F0"/>
    <path d="M234.456 156.015C234.481 158.392 234.234 160.763 233.719 163.083C233.488 164.145 233.2 165.193 232.857 166.224C232.191 168.241 231.32 170.184 230.258 172.024C230.198 172.124 230.142 172.221 230.08 172.319V172.321C229.627 173.087 229.134 173.828 228.605 174.544C227.804 175.683 226.815 176.678 225.679 177.485C224.752 178.097 223.703 178.503 222.605 178.673C222.4 178.711 222.189 178.74 221.976 178.765C221.127 178.865 220.249 178.904 219.407 179.083C218.981 179.168 218.566 179.301 218.17 179.481C216.815 180.11 216.053 181.426 215.72 182.833C215.661 183.079 215.615 183.328 215.579 183.577C215.299 185.489 215.607 187.475 215.448 189.389C215.43 189.592 215.407 189.798 215.378 190H215.188L215.065 189.718V189.715C215.078 189.608 215.088 189.5 215.099 189.389C215.16 188.449 215.168 187.506 215.122 186.564C215.112 186.141 215.104 185.715 215.109 185.289C215.114 184.947 215.127 184.606 215.153 184.267V184.265C215.171 184.054 215.191 183.846 215.219 183.639C215.301 183.002 215.458 182.377 215.686 181.778C215.91 181.16 216.261 180.597 216.717 180.124C217.174 179.652 217.725 179.282 218.335 179.037C218.707 178.898 219.091 178.79 219.482 178.716C220.342 178.552 221.229 178.511 222.094 178.403C222.187 178.393 222.279 178.38 222.369 178.365C222.484 178.347 222.597 178.326 222.71 178.306C223.842 178.105 224.91 177.642 225.831 176.953C226.924 176.088 227.875 175.055 228.648 173.894C229.069 173.291 229.47 172.676 229.842 172.042C229.842 172.041 229.842 172.041 229.842 172.041C229.842 172.04 229.842 172.04 229.843 172.04C229.843 172.04 229.843 172.039 229.843 172.039C229.844 172.039 229.844 172.039 229.844 172.039C229.862 172.008 229.88 171.98 229.898 171.949L229.901 171.944C231.497 169.216 232.662 166.259 233.355 163.175C233.378 163.062 233.404 162.949 233.429 162.837C233.906 160.61 234.135 158.338 234.115 156.062V156.059C234.115 155.951 234.112 155.846 234.109 155.738C234.104 155.518 234.446 155.469 234.451 155.69C234.453 155.797 234.456 155.905 234.453 156.013C234.454 156.013 234.454 156.013 234.454 156.013C234.455 156.013 234.455 156.013 234.455 156.014C234.455 156.014 234.456 156.014 234.456 156.014C234.456 156.015 234.456 156.015 234.456 156.015Z" fill="white"/>
    <path d="M229.934 172.249C230.912 172.746 232.034 172.878 233.101 172.624C234.168 172.369 235.11 171.744 235.758 170.859C235.888 170.68 235.616 170.468 235.485 170.648C234.883 171.473 234.006 172.056 233.012 172.291C232.018 172.526 230.973 172.398 230.065 171.93C229.867 171.828 229.738 172.148 229.934 172.249Z" fill="white"/>
    <path d="M222.743 178.408C222.029 176.283 222.141 173.966 223.059 171.921C223.15 171.718 222.83 171.587 222.739 171.79C221.789 173.92 221.676 176.331 222.425 178.541C222.496 178.752 222.814 178.617 222.743 178.408Z" fill="white"/>
    <path d="M233.528 162.868C233.11 162.754 232.726 162.539 232.412 162.241C232.097 161.942 231.862 161.571 231.726 161.159C231.658 160.947 231.34 161.082 231.408 161.292C231.56 161.746 231.82 162.156 232.167 162.487C232.514 162.817 232.936 163.057 233.398 163.187C233.44 163.203 233.487 163.202 233.529 163.184C233.57 163.167 233.604 163.134 233.623 163.093C233.64 163.05 233.639 163.003 233.622 162.961C233.604 162.919 233.571 162.885 233.528 162.868Z" fill="white"/>
    <path d="M220.167 173.263V173.266C220.087 175.098 219.858 176.921 219.482 178.716V178.719C219.461 178.842 219.433 178.963 219.407 179.083C218.788 181.86 217.92 184.575 216.813 187.195C216.507 187.934 216.188 188.666 215.853 189.389C215.761 189.595 215.666 189.797 215.568 190H215.188L215.065 189.718V189.715L214.922 189.389L214.904 189.351L214.896 189.389L214.755 190H211.085L210.372 189.389L209.332 188.499L210.785 186.913L211.023 186.651L211.059 186.613L211.175 186.487L210.695 184.388L211.66 184.229L210.603 180.967L210.102 179.425L209.976 179.037L209.245 176.781L207.038 177.195L206.679 175.937C207.34 174.404 207.891 172.825 208.326 171.213C208.329 171.2 208.334 171.19 208.336 171.177C209.502 166.834 209.852 162.313 209.368 157.843V157.84C209.353 157.696 209.335 157.55 209.314 157.409V157.404C209.094 155.551 208.723 153.72 208.206 151.927C208.17 151.791 208.129 151.658 208.09 151.524C208.208 151.576 208.324 151.624 208.442 151.676L208.444 151.678H208.449C208.637 151.761 208.824 151.848 209.006 151.94C213.384 154.068 216.605 158.061 218.435 162.664C218.44 162.677 218.445 162.688 218.45 162.7C219.405 165.114 219.974 167.663 220.136 170.253C220.198 171.255 220.208 172.26 220.167 173.263Z" fill="#F0F0F0"/>
    <path d="M213.508 190H213.102C212.974 189.792 212.835 189.589 212.697 189.389C212.476 189.079 212.248 188.775 212.014 188.478C211.811 188.221 211.609 187.967 211.406 187.713C211.195 187.449 210.988 187.185 210.785 186.913L211.023 186.651C211.062 186.702 211.1 186.754 211.142 186.805C211.798 187.67 212.509 188.501 213.118 189.389C213.254 189.589 213.384 189.792 213.508 190Z" fill="white"/>
    <path d="M208.005 151.668C208.072 151.752 208.141 151.84 208.205 151.927C208.706 152.576 209.179 153.246 209.624 153.936C210.418 155.154 211.123 156.428 211.734 157.747C211.783 157.85 211.831 157.955 211.878 158.06C213.184 160.943 214.036 164.011 214.403 167.155C214.408 167.186 214.41 167.214 214.413 167.245C214.498 167.979 214.552 168.715 214.577 169.454C214.659 170.846 214.521 172.242 214.169 173.591C214.118 173.768 214.061 173.943 214 174.112C213.845 174.527 213.652 174.927 213.422 175.305C213.257 175.582 213.074 175.847 212.873 176.098C212.753 176.252 212.627 176.404 212.493 176.55C212.416 176.635 212.337 176.719 212.257 176.804C212.191 176.868 212.126 176.935 212.06 176.999C211.367 177.671 210.602 178.295 209.976 179.037L210.102 179.424C210.705 178.659 211.482 178.026 212.183 177.358C212.623 176.945 213.023 176.491 213.379 176.003C213.425 175.937 213.474 175.87 213.517 175.801C213.755 175.453 213.96 175.085 214.131 174.7C214.218 174.507 214.297 174.31 214.369 174.104C214.789 172.778 214.979 171.389 214.934 169.998C214.926 169.107 214.873 168.218 214.775 167.332C214.765 167.217 214.752 167.104 214.736 166.988C214.476 164.88 214.001 162.805 213.32 160.793C212.457 158.242 211.27 155.811 209.789 153.562C209.365 152.917 208.916 152.289 208.441 151.675C208.38 151.591 208.316 151.509 208.249 151.424C208.113 151.249 207.869 151.493 208.005 151.668Z" fill="white"/>
    <path d="M214.614 167.364C215.694 167.172 216.67 166.602 217.369 165.757C218.067 164.911 218.443 163.845 218.427 162.748C218.426 162.704 218.408 162.661 218.376 162.629C218.344 162.598 218.302 162.58 218.257 162.58C218.212 162.579 218.169 162.596 218.137 162.627C218.104 162.657 218.085 162.699 218.082 162.744C218.098 163.765 217.749 164.759 217.097 165.545C216.445 166.331 215.533 166.858 214.527 167.031C214.308 167.069 214.397 167.402 214.614 167.364Z" fill="white"/>
    <path d="M212.581 176.611C210.731 175.345 209.426 173.428 208.927 171.242C208.878 171.025 208.544 171.113 208.593 171.329C209.117 173.603 210.479 175.595 212.407 176.909C212.591 177.034 212.764 176.736 212.581 176.611Z" fill="white"/>
    <path d="M211.836 157.71C211.434 157.871 210.998 157.93 210.567 157.881C210.136 157.833 209.724 157.678 209.368 157.43C209.186 157.303 209.013 157.602 209.194 157.728C209.589 158 210.044 158.17 210.52 158.225C210.996 158.28 211.478 158.218 211.924 158.043C211.967 158.031 212.004 158.002 212.027 157.962C212.05 157.923 212.057 157.877 212.047 157.833C212.035 157.789 212.006 157.751 211.967 157.728C211.927 157.705 211.88 157.698 211.836 157.71Z" fill="white"/>
    <path d="M162.881 40.2833H0.611347C0.543233 40.2818 0.478411 40.2537 0.430767 40.205C0.383123 40.1563 0.356445 40.0909 0.356445 40.0228C0.356445 39.9546 0.383123 39.8892 0.430767 39.8405C0.478411 39.7918 0.543233 39.7637 0.611347 39.7622H162.881C162.949 39.7637 163.014 39.7918 163.062 39.8405C163.109 39.8892 163.136 39.9546 163.136 40.0228C163.136 40.0909 163.109 40.1563 163.062 40.205C163.014 40.2537 162.949 40.2818 162.881 40.2833Z" fill="#CACACA"/>
    <path d="M6.34814 36.6357C7.89659 36.6357 9.15185 35.3525 9.15185 33.7695C9.15185 32.1866 7.89659 30.9033 6.34814 30.9033C4.7997 30.9033 3.54443 32.1866 3.54443 33.7695C3.54443 35.3525 4.7997 36.6357 6.34814 36.6357Z" fill="#042134"/>
    <path d="M16.0337 36.6357C17.5821 36.6357 18.8374 35.3525 18.8374 33.7695C18.8374 32.1866 17.5821 30.9033 16.0337 30.9033C14.4852 30.9033 13.23 32.1866 13.23 33.7695C13.23 35.3525 14.4852 36.6357 16.0337 36.6357Z" fill="#042134"/>
    <path d="M25.7192 36.6357C27.2677 36.6357 28.5229 35.3525 28.5229 33.7695C28.5229 32.1866 27.2677 30.9033 25.7192 30.9033C24.1708 30.9033 22.9155 32.1866 22.9155 33.7695C22.9155 35.3525 24.1708 36.6357 25.7192 36.6357Z" fill="#042134"/>
    <path d="M157.077 31.6138H150.197C150.06 31.6165 149.93 31.6726 149.835 31.77C149.74 31.8674 149.686 31.9983 149.686 32.1347C149.686 32.2711 149.74 32.4021 149.835 32.4995C149.93 32.5969 150.06 32.653 150.197 32.6557H157.077C157.213 32.653 157.343 32.5969 157.439 32.4995C157.534 32.4021 157.588 32.2711 157.588 32.1347C157.588 31.9983 157.534 31.8674 157.439 31.77C157.343 31.6726 157.213 31.6165 157.077 31.6138Z" fill="#042134"/>
    <path d="M157.077 33.5688H150.197C150.06 33.5716 149.93 33.6276 149.835 33.725C149.74 33.8224 149.686 33.9534 149.686 34.0898C149.686 34.2262 149.74 34.3572 149.835 34.4546C149.93 34.552 150.06 34.608 150.197 34.6107H157.077C157.213 34.608 157.343 34.552 157.439 34.4546C157.534 34.3572 157.588 34.2262 157.588 34.0898C157.588 33.9534 157.534 33.8224 157.439 33.725C157.343 33.6276 157.213 33.5716 157.077 33.5688Z" fill="#042134"/>
    <path d="M157.077 35.522H150.197C150.06 35.5247 149.93 35.5808 149.835 35.6782C149.74 35.7756 149.686 35.9065 149.686 36.0429C149.686 36.1793 149.74 36.3103 149.835 36.4077C149.93 36.5051 150.06 36.5612 150.197 36.5639H157.077C157.213 36.5612 157.343 36.5051 157.439 36.4077C157.534 36.3103 157.588 36.1793 157.588 36.0429C157.588 35.9065 157.534 35.7756 157.439 35.6782C157.343 35.5808 157.213 35.5247 157.077 35.522Z" fill="#042134"/>
    <path d="M43.1254 50.9014H35.8398C31.7309 58.9909 28.8383 67.6425 27.2557 76.5767H43.1254C43.6311 76.5775 44.1321 76.4786 44.5995 76.2854C45.0669 76.0923 45.4916 75.8088 45.8493 75.4512C46.2069 75.0935 46.4904 74.6688 46.6835 74.2014C46.8767 73.734 46.9756 73.233 46.9748 72.7273V54.7482C46.9734 53.7279 46.5673 52.7498 45.8457 52.0286C45.124 51.3074 44.1457 50.902 43.1254 50.9014Z" fill="#CCCCCC"/>
    <path d="M97.096 50.9014H64.0864C63.0662 50.902 62.0878 51.3075 61.3662 52.0286C60.6445 52.7498 60.2384 53.7279 60.2371 54.7482V72.7273C60.2383 73.7478 60.6443 74.7262 61.3659 75.4478C62.0875 76.1695 63.0659 76.5754 64.0864 76.5767H97.096C98.1166 76.5754 99.0949 76.1695 99.8166 75.4478C100.538 74.7262 100.944 73.7478 100.945 72.7273V54.7482C100.944 53.7279 100.538 52.7498 99.8163 52.0286C99.0946 51.3075 98.1163 50.902 97.096 50.9014Z" fill="#CCCCCC"/>
    <path d="M151.067 50.9014H118.057C117.037 50.902 116.059 51.3075 115.337 52.0286C114.615 52.7498 114.209 53.7279 114.208 54.7482V72.7273C114.209 73.7478 114.615 74.7262 115.337 75.4478C116.058 76.1695 117.037 76.5754 118.057 76.5767H151.067C152.087 76.5754 153.066 76.1694 153.787 75.4478C154.509 74.7262 154.915 73.7478 154.916 72.7273V54.7482C154.915 53.7279 154.509 52.7498 153.787 52.0286C153.065 51.3075 152.087 50.902 151.067 50.9014Z" fill="#CCCCCC"/>
    <path d="M43.1254 88.6255H25.9238C25.8597 90.0421 25.8272 91.4663 25.8263 92.8983C25.8213 100.104 26.6532 107.287 28.3053 114.301H43.1254C44.1459 114.3 45.1243 113.894 45.8459 113.172C46.5675 112.45 46.9735 111.472 46.9747 110.451V92.4723C46.9734 91.452 46.5673 90.474 45.8456 89.7528C45.124 89.0316 44.1456 88.6262 43.1254 88.6255Z" fill="#CCCCCC"/>
    <path d="M97.096 88.6255H64.0864C63.0662 88.6262 62.0878 89.0316 61.3662 89.7528C60.6445 90.474 60.2384 91.452 60.2371 92.4723V110.451C60.2383 111.472 60.6443 112.45 61.3659 113.172C62.0875 113.894 63.0659 114.3 64.0864 114.301H97.096C98.1166 114.3 99.0949 113.894 99.8166 113.172C100.538 112.45 100.944 111.472 100.945 110.451V92.4723C100.944 91.452 100.538 90.474 99.8163 89.7528C99.0946 89.0316 98.1163 88.6262 97.096 88.6255Z" fill="#CCCCCC"/>
    <path d="M151.067 88.6255H118.057C117.037 88.6262 116.059 89.0316 115.337 89.7528C114.615 90.474 114.209 91.452 114.208 92.4723V110.451C114.209 111.472 114.615 112.45 115.337 113.172C116.058 113.894 117.037 114.3 118.057 114.301H151.067C151.172 114.301 151.277 114.296 151.382 114.285C151.795 114.255 152.199 114.155 152.578 113.99C153.266 113.696 153.853 113.208 154.268 112.586C154.683 111.964 154.908 111.235 154.916 110.487V92.4723C154.915 91.452 154.509 90.474 153.787 89.7528C153.065 89.0316 152.087 88.6262 151.067 88.6255Z" fill="#CCCCCC"/>
    <path d="M43.8143 80.8705C48.0321 80.8705 51.4512 77.4514 51.4512 73.2336C51.4512 69.0159 48.0321 65.5967 43.8143 65.5967C39.5965 65.5967 36.1774 69.0159 36.1774 73.2336C36.1774 77.4514 39.5965 80.8705 43.8143 80.8705Z" fill="#6C63FF"/>
    <path d="M42.7725 77.2086C42.6406 77.2086 42.5105 77.1779 42.3926 77.1189C42.2746 77.0599 42.1721 76.9742 42.093 76.8687L40.0095 74.0907C39.9425 74.0015 39.8939 73.8999 39.8662 73.7918C39.8385 73.6838 39.8324 73.5713 39.8481 73.4609C39.8639 73.3504 39.9013 73.2442 39.9581 73.1482C40.015 73.0522 40.0902 72.9684 40.1794 72.9014C40.2687 72.8345 40.3702 72.7858 40.4783 72.7581C40.5864 72.7304 40.6988 72.7243 40.8092 72.7401C40.9197 72.7559 41.0259 72.7932 41.1219 72.8501C41.2179 72.9069 41.3018 72.9821 41.3687 73.0714L42.7318 74.8887L46.2327 69.6374C46.2945 69.5444 46.374 69.4646 46.4667 69.4024C46.5594 69.3402 46.6635 69.2969 46.773 69.2749C46.8824 69.2529 46.9951 69.2528 47.1047 69.2744C47.2142 69.296 47.3184 69.339 47.4113 69.401C47.5042 69.4629 47.5839 69.5425 47.646 69.6353C47.7081 69.7281 47.7513 69.8322 47.7732 69.9417C47.795 70.0512 47.795 70.1639 47.7733 70.2734C47.7515 70.3829 47.7084 70.487 47.6463 70.5799L43.4794 76.8303C43.404 76.9433 43.3026 77.0366 43.1837 77.1024C43.0649 77.1682 42.9319 77.2045 42.7961 77.2083C42.7883 77.2084 42.7804 77.2086 42.7725 77.2086Z" fill="white"/>
    <path d="M99.5018 81.6406C103.72 81.6406 107.139 78.2214 107.139 74.0036C107.139 69.7859 103.72 66.3667 99.5018 66.3667C95.284 66.3667 91.8649 69.7859 91.8649 74.0036C91.8649 78.2214 95.284 81.6406 99.5018 81.6406Z" fill="#FF6584"/>
    <path d="M208.559 115.157L206.168 92.0184L205.537 82.4955L212.228 81.2856C212.228 81.2856 213.23 87.8322 214.106 91.674C214.971 95.4651 212.954 114.649 212.901 115.155C213.392 115.594 213.738 116.172 213.894 116.813C214.05 117.453 214.007 118.126 213.772 118.742C213.537 119.358 213.121 119.888 212.578 120.262C212.035 120.636 211.391 120.836 210.732 120.836C210.073 120.837 209.429 120.637 208.886 120.263C208.343 119.89 207.926 119.36 207.691 118.745C207.455 118.129 207.412 117.456 207.567 116.816C207.722 116.175 208.068 115.596 208.559 115.157Z" fill="#A0616A"/>
    <path d="M191.435 184.032L188.116 184.79L183.612 172.353L188.509 171.233L191.435 184.032Z" fill="#A0616A"/>
    <path d="M192.034 182.755L191.187 182.948L191.1 182.968L187.228 182.337L187.115 182.319L185.498 184.249C184.394 184.501 183.435 185.182 182.832 186.142C182.23 187.102 182.033 188.261 182.285 189.366L182.29 189.389L182.319 189.502L182.811 189.389L193.017 187.054L192.034 182.755Z" fill="#031A2A"/>
    <path d="M211.216 186.201H207.812L206.193 173.072L211.216 173.073L211.216 186.201Z" fill="#A0616A"/>
    <path d="M211.127 185.091L210.829 184.97L207.493 183.612L207.386 183.569L205.381 185.091C204.82 185.09 204.265 185.201 203.747 185.415C203.228 185.63 202.757 185.944 202.36 186.341C201.964 186.737 201.649 187.208 201.434 187.726C201.219 188.244 201.109 188.8 201.109 189.361V189.499L210.504 189.502H212.084V185.091H211.127Z" fill="#031A2A"/>
    <path d="M206.039 115.934L208.902 143.132C208.902 143.132 212.713 170.364 211.997 174.121C211.281 177.879 212.176 178.416 212.176 178.416L205.645 177.951C205.645 177.951 205.824 175.625 204.751 174.551C203.677 173.477 204.214 170.257 204.214 170.257L191.545 125.955L183.852 149.215C183.852 149.215 188.712 168.079 188.533 168.436C188.354 168.794 191.613 176.648 191.613 176.648L184.322 179.066C184.322 179.066 185.217 176.203 183.965 175.308C182.712 174.414 181.639 175.129 182.712 173.519C183.786 171.909 174.254 160.082 174.463 152.46C174.526 150.167 174.602 147.707 174.694 145.187C175.179 131.849 176.094 116.821 177.768 115.934C180.81 114.324 206.039 115.934 206.039 115.934Z" fill="#031A2A"/>
    <path d="M192.481 60.8671C196.37 60.8671 199.522 57.7145 199.522 53.8256C199.522 49.9367 196.37 46.7842 192.481 46.7842C188.592 46.7842 185.439 49.9367 185.439 53.8256C185.439 57.7145 188.592 60.8671 192.481 60.8671Z" fill="#A0616A"/>
    <path d="M215.992 96.838L206.431 99.265L206.497 96.5813L205.771 95.8115L204.321 88.2161L202.782 68.5518L208.065 71.354L208.072 71.3589C208.994 72.3739 209.766 73.5165 210.363 74.7515C212.355 78.8007 214.268 87.7195 215.27 92.8998C215.304 93.0084 215.371 93.1041 215.46 93.1744C215.957 93.6305 216.281 94.2441 216.378 94.9115C216.475 95.579 216.339 96.2594 215.992 96.838Z" fill="#042134"/>
    <path d="M159.489 105.54C159.489 105.54 172.687 91.626 172.81 91.3637C173.732 84.3629 176.383 81.2748 176.781 81.61L183.624 83.9809C183.624 83.9809 181.589 90.4271 180.211 94.256C178.894 97.9146 163.715 106.851 163.462 107.292C163.734 107.893 163.817 108.562 163.701 109.21C163.584 109.859 163.274 110.457 162.81 110.926C162.346 111.394 161.751 111.711 161.103 111.834C160.456 111.956 159.786 111.88 159.183 111.614C158.58 111.348 158.072 110.905 157.726 110.344C157.38 109.783 157.212 109.13 157.246 108.471C157.279 107.813 157.511 107.18 157.912 106.657C158.312 106.133 158.862 105.744 159.489 105.54Z" fill="#A0616A"/>
    <path d="M186.912 69.8183C186.912 69.8183 180.987 66.9144 178.689 72.6178C177.429 75.8377 174.206 83.6522 172.601 88.4626C172.59 88.4932 172.575 88.5222 172.557 88.5489C172.127 89.187 171.896 89.9377 171.891 90.7069C171.891 90.7629 171.885 90.8188 171.873 90.8734C171.873 90.8734 178.385 92.1419 180.321 95.555L181.089 94.7214L181.226 94.1374L186.912 69.8183Z" fill="#042134"/>
    <path d="M208.472 118.899C194.836 121.715 176.764 116.873 176.764 116.873L181.585 95.9763L179.871 74.1074C179.662 71.4331 181.185 68.9262 183.555 68.0379L186.827 66.8124L189.531 62.9404L197.256 63.1939L200.345 67.2589L202.782 68.5518L208.065 71.3541L208.089 71.3657V71.3773L206.431 87.4604L205.431 97.1577C205.431 97.1577 208.468 108.064 207.844 109.511C207.221 110.955 207.763 110.257 207.914 111.029C208.065 111.801 208.528 111.85 208.598 113.371C208.67 114.89 208.472 118.899 208.472 118.899Z" fill="#042134"/>
    <path d="M200.12 51.3179C199.563 50.769 200.401 49.3157 200.243 48.5502C200.061 47.6725 199.094 47.6468 198.863 46.7808C198.615 45.8492 197.622 45.342 196.705 45.0468C194.352 44.294 191.842 44.179 189.43 44.7136C188.363 44.9742 187.312 45.2979 186.283 45.683C185.573 45.933 186.258 45.2528 185.547 45.5028C185.279 45.5627 185.041 45.7201 184.882 45.9446C184.754 46.1861 184.926 46.5722 185.195 46.5233C184.328 46.9057 183.46 47.2881 182.593 47.6705C183.08 48.1799 183.566 48.6894 184.052 49.1989C183.361 49.0021 182.624 49.8264 182.896 50.4915C183.006 50.7015 183.165 50.8816 183.36 51.0165C183.555 51.1513 183.779 51.2367 184.014 51.2655C184.795 51.4175 184.203 52.1608 184.999 52.1463C185.794 52.1318 191.342 50.501 191.729 51.1964C192.004 51.6916 191.974 52.3475 192.367 52.7555C192.871 53.2774 193.749 53.0865 194.389 52.7467C195.03 52.4069 195.679 51.9399 196.4 52.0214C197.152 52.1064 197.721 53.4963 197.906 54.2302C198.091 54.9641 197.974 55.7362 197.856 56.4839C197.701 57.4659 196.151 58.4478 195.996 59.4297C197.717 59.9055 199.562 58.3917 200.243 55.7592C200.175 54.0951 201.305 52.4877 200.12 51.3179Z" fill="#031A2A"/>
    <path d="M152.88 118.081C157.097 118.081 160.517 114.662 160.517 110.444C160.517 106.226 157.097 102.807 152.88 102.807C148.662 102.807 145.243 106.226 145.243 110.444C145.243 114.662 148.662 118.081 152.88 118.081Z" fill="#6C63FF"/>
    <path d="M151.838 114.419C151.706 114.419 151.576 114.388 151.458 114.329C151.34 114.27 151.237 114.185 151.158 114.079L149.075 111.301C149.008 111.212 148.959 111.11 148.932 111.002C148.904 110.894 148.898 110.782 148.914 110.671C148.929 110.561 148.967 110.455 149.024 110.359C149.08 110.263 149.156 110.179 149.245 110.112C149.334 110.045 149.436 109.996 149.544 109.969C149.652 109.941 149.764 109.935 149.875 109.951C149.985 109.966 150.091 110.004 150.187 110.061C150.283 110.117 150.367 110.193 150.434 110.282L151.797 112.099L155.298 106.848C155.36 106.755 155.439 106.675 155.532 106.613C155.625 106.551 155.729 106.507 155.838 106.485C155.948 106.463 156.061 106.463 156.17 106.485C156.28 106.506 156.384 106.549 156.477 106.611C156.57 106.673 156.649 106.753 156.711 106.846C156.774 106.939 156.817 107.043 156.839 107.152C156.86 107.262 156.86 107.374 156.839 107.484C156.817 107.593 156.774 107.697 156.712 107.79L152.545 114.041C152.469 114.154 152.368 114.247 152.249 114.313C152.13 114.379 151.997 114.415 151.862 114.419C151.854 114.419 151.846 114.419 151.838 114.419Z" fill="white"/>
    <path d="M235.154 189.695C235.154 189.735 235.146 189.774 235.131 189.812C235.116 189.849 235.093 189.882 235.065 189.911C235.036 189.939 235.003 189.962 234.965 189.977C234.928 189.992 234.889 190 234.848 190H162.919C162.838 190 162.76 189.968 162.703 189.91C162.646 189.853 162.614 189.776 162.614 189.695C162.614 189.614 162.646 189.536 162.703 189.479C162.76 189.421 162.838 189.389 162.919 189.389H234.848C234.889 189.389 234.928 189.397 234.965 189.412C235.003 189.427 235.036 189.45 235.065 189.478C235.093 189.507 235.116 189.54 235.131 189.578C235.146 189.615 235.154 189.654 235.154 189.695Z" fill="#CCCCCC"/>
    <path d="M96.5 71L102 76.5" stroke="white"/>
    <path d="M102 71L96.5 76.5" stroke="white"/>
  </g>
  <defs>
    <clipPath id="clip0_310_28099">
      <rect width="236.287" height="190" fill="white" transform="translate(0.356445)"/>
    </clipPath>
  </defs>
</svg>