<svg xmlns="http://www.w3.org/2000/svg" width="141" height="121" viewBox="0 0 141 121" fill="none">
  <g clip-path="url(#clip0_275_2657)">
    <path d="M45.1518 16.8198C44.031 10.8212 45.7956 3.9968 50.7002 0.365845C50.4222 6.99619 52.4985 13.5112 56.5616 18.7581C58.1359 20.7759 60.097 22.8563 60.0361 25.4149C59.9982 27.0069 59.1372 28.49 58.0026 29.6074C56.8679 30.7247 55.4702 31.5303 54.0892 32.3233L53.8742 32.6577C49.8259 28.0915 46.2726 22.8184 45.1518 16.8198Z" fill="#F0F0F0"/>
    <path d="M50.7895 0.457503C48.7289 5.06914 48.1738 10.2128 49.203 15.1579C49.4057 16.2264 49.7755 17.2563 50.2989 18.2096C50.8387 19.1218 51.613 19.8728 52.5412 20.3846C53.3971 20.8791 54.3299 21.2859 55.0506 21.9799C55.4143 22.3406 55.6976 22.7741 55.882 23.252C56.0664 23.7299 56.1477 24.2414 56.1205 24.7529C56.086 26.0292 55.5949 27.217 55.0744 28.3618C54.4964 29.633 53.8759 30.9442 53.9134 32.3733C53.9179 32.5464 53.649 32.5433 53.6444 32.3704C53.5792 29.884 55.3768 27.8872 55.7774 25.5013C55.9643 24.3881 55.8168 23.2117 55.0341 22.3488C54.3497 21.5942 53.3882 21.1739 52.5172 20.6806C51.6044 20.1947 50.8244 19.4926 50.2455 18.6357C49.6753 17.7121 49.2664 16.6982 49.0364 15.6374C48.4804 13.2574 48.302 10.8049 48.5079 8.36956C48.7274 5.58884 49.421 2.86616 50.5587 0.319328C50.6292 0.161724 50.8595 0.30093 50.7895 0.457503Z" fill="white"/>
    <path d="M48.7778 13.5851C47.9247 13.6451 47.078 13.4 46.389 12.8934C45.6999 12.3868 45.2134 11.6518 45.0162 10.8196C44.9769 10.651 45.237 10.582 45.2763 10.7508C45.4585 11.5261 45.9117 12.2107 46.5543 12.6811C47.1969 13.1516 47.9865 13.3768 48.7806 13.3161C48.9532 13.3032 48.9494 13.5722 48.7778 13.5851Z" fill="white"/>
    <path d="M52.0743 20.1909C53.2325 18.8813 53.8544 17.1832 53.8162 15.4354C53.8123 15.2622 54.0812 15.2653 54.0851 15.4382C54.1215 17.2571 53.4707 19.0229 52.2625 20.3831C52.1473 20.5127 51.9597 20.3198 52.0743 20.1909Z" fill="white"/>
    <path d="M49.0426 5.75586C49.3775 5.80141 49.7186 5.76306 50.035 5.64425C50.3514 5.52544 50.6334 5.32989 50.8556 5.07517C50.9692 4.9442 51.1566 5.13723 51.0438 5.26734C50.797 5.54762 50.4853 5.7632 50.136 5.89524C49.7867 6.02728 49.4103 6.07176 49.0398 6.0248C49.0045 6.0233 48.9711 6.00842 48.9464 5.98318C48.9217 5.95794 48.9075 5.92424 48.9067 5.88892C48.9073 5.85332 48.9219 5.81936 48.9473 5.79445C48.9728 5.76953 49.007 5.75567 49.0426 5.75586Z" fill="white"/>
    <path d="M70.7569 5.3275C70.6884 5.41129 70.6198 5.49509 70.5518 5.58108C69.6357 6.71238 68.813 7.91623 68.0919 9.18077C68.0346 9.27765 67.978 9.37669 67.9235 9.47502C66.2186 12.5401 65.0976 15.895 64.6174 19.3693C64.4276 20.752 64.3433 22.1471 64.3651 23.5426C64.3954 25.4698 64.5816 27.557 63.9909 29.3295C63.9313 29.5151 63.8603 29.6968 63.7783 29.8737L54.2987 32.894C54.2737 32.89 54.2493 32.8883 54.2242 32.8843L53.8512 33.0222C53.8451 32.9503 53.8402 32.8757 53.8341 32.8038C53.8303 32.7621 53.8287 32.7197 53.825 32.678C53.8231 32.65 53.8214 32.622 53.8182 32.5968C53.8175 32.5875 53.817 32.5781 53.817 32.571C53.8138 32.5458 53.8134 32.5221 53.8109 32.4991C53.7827 32.0816 53.7566 31.6635 53.7349 31.2439C53.7343 31.2418 53.7343 31.2418 53.7357 31.2389C53.573 28.0436 53.6756 24.8066 54.2663 21.6882C54.2841 21.5943 54.301 21.4984 54.3232 21.4032C54.5972 19.999 54.9856 18.6195 55.4844 17.2786C55.7599 16.5453 56.0723 15.8263 56.4205 15.1245C57.3236 13.313 58.506 11.6547 59.9245 10.2106C62.7525 7.33224 66.4696 5.39034 70.4526 5.3292C70.5545 5.3277 70.6544 5.32683 70.7569 5.3275Z" fill="#F0F0F0"/>
    <path d="M70.7741 5.45469C66.3523 7.89622 62.8122 11.6689 60.6567 16.237C60.1752 17.2121 59.8504 18.2571 59.6943 19.3334C59.5761 20.3867 59.7422 21.4525 60.1752 22.42C60.5608 23.3302 61.0607 24.2165 61.2184 25.2046C61.2916 25.7116 61.2568 26.2283 61.1163 26.7209C60.9757 27.2135 60.7327 27.6708 60.403 28.0628C59.6071 29.0611 58.4999 29.7138 57.3949 30.3145C56.1681 30.9815 54.8833 31.6548 54.0528 32.8184C53.9522 32.9594 53.7393 32.795 53.8398 32.6543C55.2847 30.6297 57.9222 30.1176 59.6785 28.4538C60.498 27.6775 61.0885 26.6495 60.9831 25.4892C60.8909 24.4746 60.3763 23.5602 59.9778 22.642C59.5416 21.7043 59.3415 20.6742 59.3952 19.6414C59.496 18.5607 59.78 17.5049 60.235 16.5195C61.2239 14.2845 62.5581 12.2189 64.1887 10.3983C66.0382 8.31028 68.2312 6.55397 70.673 5.20541C70.8241 5.122 70.9242 5.37183 70.7741 5.45469Z" fill="white"/>
    <path d="M61.2643 14.7252C60.547 14.2595 60.0186 13.554 59.7734 12.7347C59.5282 11.9153 59.5823 11.0355 59.9259 10.2524C59.996 10.0942 60.2452 10.1956 60.175 10.354C59.8537 11.0827 59.8034 11.9023 60.0332 12.6648C60.2631 13.4273 60.7579 14.0825 61.4285 14.5122C61.5741 14.6057 61.4091 14.8182 61.2643 14.7252Z" fill="white"/>
    <path d="M59.9188 21.9842C61.632 21.6358 63.1509 20.6545 64.1727 19.2359C64.2738 19.0953 64.4868 19.2596 64.3858 19.4001C63.3197 20.8743 61.7369 21.8923 59.9533 22.251C59.7833 22.285 59.7497 22.0181 59.9188 21.9842Z" fill="white"/>
    <path d="M66.1892 8.63329C66.4292 8.87131 66.7246 9.046 67.0488 9.14166C67.373 9.23732 67.7158 9.25096 68.0466 9.18136C68.2161 9.14516 68.2496 9.41212 68.0812 9.44808C67.7154 9.52328 67.3367 9.50775 66.9783 9.40285C66.6199 9.29795 66.2926 9.10688 66.025 8.84632C65.9978 8.82387 65.9801 8.79188 65.9755 8.75685C65.971 8.72182 65.98 8.68637 66.0006 8.65771C66.0225 8.62962 66.0546 8.61129 66.0899 8.60671C66.1252 8.60214 66.1609 8.6117 66.1892 8.63329Z" fill="white"/>
    <path d="M99.2637 45.7231C99.2887 45.833 99.305 45.9448 99.3124 46.0573L108.068 51.1083L110.196 49.8832L112.465 52.8532L108.908 55.3882C108.621 55.593 108.275 55.699 107.922 55.6904C107.569 55.6818 107.229 55.559 106.952 55.3405L97.9234 48.218C97.516 48.3689 97.0723 48.3921 96.6513 48.2845C96.2304 48.177 95.8521 47.9439 95.5669 47.6162C95.2817 47.2885 95.103 46.8817 95.0546 46.4499C95.0062 46.0182 95.0904 45.5819 95.296 45.1992C95.5016 44.8164 95.8188 44.5054 96.2055 44.3073C96.5922 44.1093 97.0301 44.0337 97.4608 44.0906C97.8915 44.1474 98.2947 44.3341 98.6168 44.6257C98.9388 44.9173 99.1645 45.3001 99.2637 45.7231Z" fill="#FFB6B6"/>
    <path d="M108.189 50.5505C108.217 50.4217 108.272 50.3003 108.351 50.1948C108.43 50.0893 108.531 50.002 108.647 49.939L112.689 47.7365C113.227 47.3302 113.905 47.154 114.573 47.2465C115.241 47.339 115.845 47.6926 116.253 48.2298C116.66 48.7671 116.838 49.4441 116.748 50.1124C116.657 50.7806 116.305 51.3856 115.769 51.7947L112.529 55.0859C112.436 55.1798 112.325 55.2527 112.202 55.2996C112.078 55.3465 111.947 55.3663 111.815 55.3576C111.684 55.349 111.555 55.3121 111.439 55.2495C111.323 55.1868 111.222 55.0999 111.143 54.9947L108.354 51.2965C108.274 51.1913 108.218 51.0702 108.19 50.9414C108.162 50.8127 108.162 50.6794 108.189 50.5505Z" fill="#6C63FF"/>
    <path d="M115.228 37.9254C115.81 36.0719 117.132 34.3719 118.961 33.7453C120.791 33.1187 123.469 34.0732 124.844 35.4437C127.359 37.9506 127.437 41.0194 125.709 43.7409C125.365 43.7227 124.179 43.7093 123.831 43.6962L123.339 42.0559V43.6801C120.623 43.5961 117.796 43.6487 114.968 43.703C114.714 41.7762 114.647 39.7789 115.228 37.9254Z" fill="#031A2A"/>
    <path d="M114.633 115.547H112.156L110.978 105.994L114.633 105.994L114.633 115.547Z" fill="#FFB6B6"/>
    <path d="M129.897 115.547H127.421L126.242 105.994L129.898 105.994L129.897 115.547Z" fill="#FFB6B6"/>
    <path d="M122.665 56.8718L123.227 58.3309L123.114 59.7902L112.131 63.5944L112.676 57.2086L113.91 55.7495L122.665 56.8718Z" fill="#FFB6B6"/>
    <path d="M119.193 43.7411C121.359 43.7411 123.115 41.9847 123.115 39.8182C123.115 37.6517 121.359 35.8954 119.193 35.8954C117.026 35.8954 115.27 37.6517 115.27 39.8182C115.27 41.9847 117.026 43.7411 119.193 43.7411Z" fill="#FFB7B7"/>
    <path d="M125.125 63.5671V66.0603C125.125 66.0603 128.043 69.8526 126.471 72.7709L130.974 111.608H126.26L118.39 78.8319L115.036 110.934H110.995L110.513 85.4026C110.387 78.687 111.508 72.0062 113.82 65.6998L125.125 63.5671Z" fill="#031A2A"/>
    <path d="M116.497 34.71C117.251 34.2505 118.114 34.0019 118.997 33.9903C119.88 33.9787 120.749 34.2044 121.515 34.6439C122.28 35.0833 122.914 35.7205 123.349 36.4886C123.784 37.2567 124.005 38.1275 123.988 39.0102C121.795 39.111 119.492 39.1373 117.156 39.1418L116.604 37.7908L116.279 39.1428C115.567 39.1427 114.854 39.1418 114.14 39.14C114.111 38.2598 114.313 37.3875 114.727 36.6101C115.14 35.8327 115.751 35.1775 116.497 34.71Z" fill="#031A2A"/>
    <path d="M115.741 120.25H113.983L113.67 118.591L112.866 120.25H108.205C107.981 120.25 107.764 120.179 107.584 120.046C107.404 119.914 107.271 119.727 107.204 119.514C107.138 119.301 107.141 119.072 107.214 118.861C107.287 118.649 107.426 118.467 107.609 118.34L111.332 115.769V114.092L115.247 114.325L115.741 120.25Z" fill="#031A2A"/>
    <path d="M131.23 120.25H129.473L129.159 118.591L128.355 120.25H123.694C123.471 120.25 123.253 120.179 123.073 120.046C122.893 119.914 122.76 119.727 122.694 119.514C122.627 119.301 122.631 119.072 122.704 118.861C122.776 118.649 122.915 118.467 123.099 118.34L126.821 115.769V114.092L130.736 114.325L131.23 120.25Z" fill="#031A2A"/>
    <path d="M126.909 71.563C127.127 68.5667 126.903 65.5547 126.243 62.6239C125.409 58.9252 124.351 54.2187 124.33 54.0971C124.33 54.0947 124.329 54.0923 124.329 54.0899L124.007 47.1959C124.006 47.1759 123.997 47.157 123.983 47.1429C123.969 47.1288 123.95 47.1207 123.93 47.12L121.698 47.045C121.677 47.0443 121.658 47.0356 121.643 47.0207C121.629 47.0058 121.621 46.986 121.621 46.9653C121.621 46.799 121.588 46.6344 121.524 46.4808C121.461 46.3271 121.367 46.1875 121.25 46.07C121.132 45.9524 120.993 45.8591 120.839 45.7955C120.685 45.7318 120.521 45.6991 120.355 45.6991H115.897C115.608 45.6992 115.329 45.8047 115.113 45.9958C114.896 46.1869 114.757 46.4504 114.721 46.7369C114.719 46.7566 114.709 46.7749 114.695 46.788C114.68 46.8011 114.66 46.8082 114.641 46.8077L112.906 46.7494C112.889 46.7488 112.871 46.754 112.857 46.764C112.843 46.7741 112.832 46.7885 112.827 46.8051L112.707 47.1885C110.955 52.8279 110.469 58.7841 111.283 64.6328C111.493 66.1892 111.397 68.5295 111.318 69.8333C111.31 69.9607 111.327 70.0885 111.369 70.2092C111.411 70.3299 111.476 70.4412 111.561 70.5367C111.645 70.6322 111.748 70.71 111.863 70.7657C111.978 70.8213 112.103 70.8537 112.23 70.8609C115.455 71.0465 124.586 75.4646 126.772 73.3553C126.778 73.3502 126.836 72.5721 126.909 71.563Z" fill="#6C63FF"/>
    <path d="M109.025 45.7231C109.05 45.833 109.066 45.9448 109.073 46.0573L117.829 51.1083L119.957 49.8832L122.226 52.8532L118.669 55.3882C118.382 55.593 118.036 55.699 117.683 55.6904C117.33 55.6818 116.99 55.559 116.713 55.3405L107.684 48.218C107.277 48.3689 106.833 48.3921 106.412 48.2845C105.991 48.177 105.613 47.9439 105.328 47.6162C105.043 47.2885 104.864 46.8817 104.816 46.4499C104.767 46.0182 104.851 45.5819 105.057 45.1992C105.263 44.8164 105.58 44.5054 105.967 44.3073C106.353 44.1093 106.791 44.0337 107.222 44.0906C107.652 44.1474 108.056 44.3341 108.378 44.6257C108.7 44.9173 108.925 45.3001 109.025 45.7231Z" fill="#FFB6B6"/>
    <path d="M117.95 50.5507C117.978 50.4218 118.033 50.3005 118.112 50.1949C118.191 50.0894 118.292 50.0021 118.408 49.9391L122.45 47.7367C122.988 47.3306 123.666 47.1545 124.334 47.247C125.002 47.3395 125.606 47.6932 126.013 48.2303C126.421 48.7675 126.599 49.4444 126.508 50.1126C126.417 50.7807 126.066 51.3857 125.53 51.7948L122.29 55.086C122.197 55.1799 122.086 55.2528 121.963 55.2997C121.839 55.3466 121.708 55.3664 121.576 55.3578C121.445 55.3491 121.316 55.3122 121.2 55.2496C121.084 55.187 120.983 55.1001 120.904 54.9949L118.115 51.2966C118.035 51.1914 117.979 51.0703 117.951 50.9416C117.923 50.8128 117.923 50.6795 117.95 50.5507Z" fill="#6C63FF"/>
    <path d="M10.8331 106.641C16.4745 106.641 21.0478 102.068 21.0478 96.4261C21.0478 90.7847 16.4745 86.2114 10.8331 86.2114C5.19168 86.2114 0.618408 90.7847 0.618408 96.4261C0.618408 102.068 5.19168 106.641 10.8331 106.641Z" fill="#F0F0F0"/>
    <path d="M101.097 60.9798L27.0731 94.9658C26.0194 95.4481 24.8175 95.4928 23.7309 95.09C22.6443 94.6872 21.7619 93.8699 21.2772 92.8173L3.00982 53.0294C2.52751 51.9757 2.48284 50.7738 2.88562 49.6872C3.2884 48.6007 4.10574 47.7182 5.15831 47.2335L79.1827 13.2475C80.2363 12.7652 81.4383 12.7205 82.5248 13.1233C83.6114 13.5261 84.4938 14.3434 84.9785 15.396L103.246 55.1839C103.728 56.2375 103.773 57.4395 103.37 58.5261C102.967 59.6127 102.15 60.4951 101.097 60.9798Z" fill="white"/>
    <path d="M6.38969 49.9153C6.04775 50.0728 5.78222 50.3594 5.65138 50.7124C5.52053 51.0654 5.53504 51.4559 5.69173 51.7982L23.9591 91.5861C24.1166 91.928 24.4033 92.1936 24.7563 92.3244C25.1092 92.4553 25.4997 92.4407 25.842 92.284L99.8664 58.298C100.208 58.1406 100.474 57.8539 100.605 57.5009C100.736 57.1479 100.721 56.7574 100.564 56.4151L82.2969 16.6272C82.1395 16.2853 81.8528 16.0198 81.4998 15.8889C81.1468 15.7581 80.7564 15.7726 80.4141 15.9293L6.38969 49.9153Z" fill="#E4E4E4"/>
    <path d="M101.097 60.9798L27.0731 94.9658C26.0194 95.4481 24.8175 95.4928 23.7309 95.09C22.6443 94.6872 21.7619 93.8699 21.2772 92.8173L3.00982 53.0294C2.52751 51.9757 2.48284 50.7738 2.88562 49.6872C3.2884 48.6007 4.10574 47.7182 5.15831 47.2335L79.1827 13.2475C80.2363 12.7652 81.4383 12.7205 82.5248 13.1233C83.6114 13.5261 84.4938 14.3434 84.9785 15.396L103.246 55.1839C103.728 56.2375 103.773 57.4395 103.37 58.5261C102.967 59.6127 102.15 60.4951 101.097 60.9798ZM5.34771 47.6461C4.40446 48.0804 3.67202 48.8712 3.31108 49.8449C2.95013 50.8186 2.99017 51.8958 3.42239 52.84L21.6898 92.6279C22.1241 93.5712 22.9149 94.3036 23.8886 94.6645C24.8623 95.0255 25.9395 94.9855 26.8837 94.5532L100.908 60.5672C101.851 60.1328 102.584 59.3421 102.945 58.3684C103.306 57.3946 103.266 56.3175 102.833 55.3733L84.566 15.5854C84.1316 14.6422 83.3409 13.9097 82.3671 13.5488C81.3934 13.1878 80.3163 13.2279 79.3721 13.6601L5.34771 47.6461Z" fill="#CACACA"/>
    <path d="M82.6006 42.9248L23.7927 69.9246C23.3191 70.1413 22.7901 70.2064 22.278 70.1113C21.7659 70.0161 21.2957 69.7652 20.9315 69.3929L3.72551 51.7481C3.44332 51.4587 3.23473 51.1058 3.11727 50.719C2.99981 50.3323 2.97691 49.923 3.0505 49.5255C3.12409 49.1281 3.29202 48.7541 3.54017 48.4351C3.78832 48.116 4.10943 47.8612 4.47653 47.692L79.8424 12.9497C80.2047 12.7828 80.6014 12.7041 81 12.72C81.3986 12.736 81.7877 12.8461 82.1355 13.0415C82.4833 13.2368 82.7799 13.5117 83.001 13.8438C83.222 14.1758 83.3613 14.5555 83.4074 14.9518L83.4175 14.9515L84.0713 40.5658C84.0842 41.0598 83.9518 41.5468 83.6903 41.9662C83.4288 42.3856 83.0499 42.7189 82.6006 42.9248ZM80.035 13.3608L4.66651 48.1043C4.36542 48.2431 4.10204 48.4521 3.89851 48.7138C3.69498 48.9754 3.55725 49.2822 3.49689 49.6081C3.43653 49.9341 3.45531 50.2698 3.55164 50.587C3.64798 50.9042 3.81906 51.1937 4.05051 51.431L21.2565 69.0759C21.5552 69.3813 21.9409 69.5871 22.3609 69.6651C22.7809 69.7432 23.2148 69.6897 23.6033 69.512L82.4112 42.5122C82.7797 42.3433 83.0905 42.0699 83.305 41.7259C83.5194 41.3819 83.6281 40.9825 83.6174 40.5773L82.9694 15.19C82.9606 14.8474 82.867 14.5124 82.6969 14.2149C82.5267 13.9174 82.2855 13.6668 81.9946 13.4855C81.7038 13.3042 81.3726 13.1979 81.0305 13.1762C80.6885 13.1544 80.3465 13.2178 80.035 13.3608Z" fill="#CACACA"/>
    <path d="M45.7229 79.4508L27.4008 87.8629C27.2679 87.9241 27.1242 87.9585 26.9779 87.9641C26.8317 87.9697 26.6857 87.9464 26.5485 87.8956C26.4112 87.8448 26.2853 87.7675 26.178 87.668C26.0706 87.5685 25.9839 87.4488 25.9229 87.3158C25.8618 87.1828 25.8276 87.0391 25.8221 86.8928C25.8166 86.7465 25.84 86.6006 25.8909 86.4634C25.9419 86.3262 26.0193 86.2004 26.1189 86.0931C26.2185 85.9859 26.3383 85.8993 26.4714 85.8384L44.7935 77.4263C45.0619 77.3034 45.3681 77.2921 45.6449 77.3948C45.9216 77.4976 46.1463 77.706 46.2695 77.9743C46.3926 78.2426 46.4043 78.5488 46.3018 78.8257C46.1993 79.1025 45.9911 79.3274 45.7229 79.4508Z" fill="white"/>
    <path d="M59.1268 53.4521C59.4413 54.1355 59.6181 54.8741 59.647 55.6258C59.6759 56.3775 59.5564 57.1275 59.2952 57.833C59.0341 58.5385 58.6365 59.1856 58.1251 59.7373C57.6138 60.289 56.9987 60.7346 56.315 61.0484C55.6314 61.3623 54.8926 61.5384 54.1409 61.5666C53.3892 61.5947 52.6392 61.4745 51.934 61.2127C51.2288 60.9509 50.5821 60.5527 50.0308 60.0408C49.4796 59.5289 49.0347 58.9134 48.7214 58.2294" fill="#042134"/>
    <path d="M100.438 115.098H18.9841C17.8253 115.097 16.7143 114.636 15.8949 113.816C15.0755 112.997 14.6146 111.886 14.6133 110.727V66.946C14.6146 65.7872 15.0755 64.6763 15.8949 63.8568C16.7143 63.0374 17.8253 62.5765 18.9841 62.5752H100.438C101.596 62.5765 102.707 63.0374 103.527 63.8568C104.346 64.6763 104.807 65.7872 104.808 66.946V110.727C104.807 111.886 104.346 112.997 103.527 113.816C102.707 114.636 101.596 115.097 100.438 115.098Z" fill="white"/>
    <path d="M18.9841 65.5261C18.6077 65.5265 18.2468 65.6763 17.9806 65.9425C17.7144 66.2087 17.5646 66.5696 17.5642 66.9461V110.727C17.5646 111.104 17.7144 111.464 17.9806 111.731C18.2468 111.997 18.6077 112.147 18.9841 112.147H100.438C100.814 112.147 101.175 111.997 101.441 111.731C101.707 111.464 101.857 111.104 101.857 110.727V66.9461C101.857 66.5696 101.707 66.2087 101.441 65.9425C101.175 65.6763 100.814 65.5265 100.438 65.5261H18.9841Z" fill="#FF6584"/>
    <path d="M100.438 115.098H18.9841C17.8253 115.097 16.7143 114.636 15.8949 113.816C15.0755 112.997 14.6146 111.886 14.6133 110.727V66.946C14.6146 65.7872 15.0755 64.6763 15.8949 63.8568C16.7143 63.0374 17.8253 62.5765 18.9841 62.5752H100.438C101.596 62.5765 102.707 63.0374 103.527 63.8568C104.346 64.6763 104.807 65.7872 104.808 66.946V110.727C104.807 111.886 104.346 112.997 103.527 113.816C102.707 114.636 101.596 115.097 100.438 115.098ZM18.9841 63.0292C17.9457 63.0304 16.9501 63.4434 16.2158 64.1777C15.4815 64.912 15.0684 65.9076 15.0673 66.946V110.727C15.0684 111.765 15.4815 112.761 16.2158 113.495C16.9501 114.23 17.9457 114.643 18.9841 114.644H100.438C101.476 114.643 102.472 114.23 103.206 113.495C103.94 112.761 104.353 111.765 104.354 110.727V66.946C104.353 65.9076 103.94 64.912 103.206 64.1777C102.472 63.4434 101.476 63.0304 100.438 63.0292H18.9841Z" fill="#042134"/>
    <path d="M91.1611 90.9718H26.4513C25.9305 90.9711 25.4225 90.8096 24.9969 90.5095C24.5712 90.2093 24.2485 89.7851 24.0729 89.2948L15.7984 66.0802C15.6627 65.6994 15.6204 65.2917 15.675 64.8912C15.7296 64.4907 15.8796 64.1092 16.1123 63.7787C16.345 63.4482 16.6537 63.1784 17.0123 62.992C17.371 62.8056 17.7691 62.708 18.1733 62.7074L101.161 62.5798C101.56 62.5793 101.954 62.6733 102.309 62.8541C102.665 63.0349 102.973 63.2974 103.207 63.62C103.442 63.9427 103.596 64.3163 103.659 64.7103C103.721 65.1043 103.689 65.5074 103.566 65.8868L103.575 65.8907L93.4819 89.4416C93.2876 89.896 92.964 90.2833 92.5514 90.5554C92.1388 90.8274 91.6553 90.9722 91.1611 90.9718ZM101.165 63.0338L18.1739 63.1614C17.8424 63.1618 17.5158 63.2419 17.2217 63.3948C16.9275 63.5477 16.6744 63.769 16.4835 64.04C16.2927 64.3111 16.1697 64.624 16.1249 64.9525C16.08 65.2809 16.1148 65.6154 16.2261 65.9276L24.5005 89.1422C24.6445 89.5445 24.9092 89.8924 25.2583 90.1386C25.6075 90.3848 26.0241 90.5172 26.4513 90.5178H91.1611C91.5665 90.5182 91.963 90.3994 92.3014 90.1762C92.6398 89.9531 92.9052 89.6354 93.0646 89.2627L103.068 65.9206C103.203 65.6056 103.258 65.262 103.228 64.9206C103.197 64.5793 103.082 64.2509 102.894 63.9648C102.705 63.6787 102.448 63.4439 102.147 63.2814C101.845 63.1189 101.508 63.0338 101.165 63.0338Z" fill="#042134"/>
    <path d="M42.4063 108.779H22.2454C21.95 108.779 21.6667 108.662 21.4578 108.453C21.2489 108.244 21.1316 107.961 21.1316 107.666C21.1316 107.37 21.2489 107.087 21.4578 106.878C21.6667 106.669 21.95 106.552 22.2454 106.552H42.4063C42.7017 106.552 42.985 106.669 43.1939 106.878C43.4028 107.087 43.5202 107.37 43.5202 107.666C43.5202 107.961 43.4028 108.244 43.1939 108.453C42.985 108.662 42.7017 108.779 42.4063 108.779Z" fill="white"/>
    <path d="M65.4355 90.7449C65.4355 92.2632 64.8323 93.7193 63.7587 94.7929C62.6851 95.8666 61.229 96.4697 59.7107 96.4697C58.1923 96.4697 56.7362 95.8666 55.6626 94.7929C54.589 93.7193 53.9858 92.2632 53.9858 90.7449" fill="#042134"/>
    <path d="M29.2195 24.9232C30.3477 24.9232 31.2624 24.0085 31.2624 22.8802C31.2624 21.7519 30.3477 20.8373 29.2195 20.8373C28.0912 20.8373 27.1765 21.7519 27.1765 22.8802C27.1765 24.0085 28.0912 24.9232 29.2195 24.9232Z" fill="#F0F0F0"/>
    <path d="M2.66135 73.9538C3.78963 73.9538 4.70429 73.0391 4.70429 71.9109C4.70429 70.7826 3.78963 69.8679 2.66135 69.8679C1.53306 69.8679 0.618408 70.7826 0.618408 71.9109C0.618408 73.0391 1.53306 73.9538 2.66135 73.9538Z" fill="#F0F0F0"/>
    <path d="M104.808 35.5919C105.937 35.5919 106.851 34.6772 106.851 33.5489C106.851 32.4206 105.937 31.506 104.808 31.506C103.68 31.506 102.765 32.4206 102.765 33.5489C102.765 34.6772 103.68 35.5919 104.808 35.5919Z" fill="#F0F0F0"/>
    <path d="M139.778 120.25H100.896C100.824 120.25 100.755 120.222 100.704 120.171C100.654 120.12 100.625 120.051 100.625 119.98C100.625 119.908 100.654 119.839 100.704 119.789C100.755 119.738 100.824 119.709 100.896 119.709H139.778C139.85 119.71 139.918 119.738 139.969 119.789C140.019 119.84 140.048 119.908 140.048 119.98C140.048 120.051 140.019 120.12 139.969 120.171C139.918 120.221 139.85 120.25 139.778 120.25Z" fill="#CACACA"/>
  </g>
  <defs>
    <clipPath id="clip0_275_2657">
      <rect width="139.43" height="120" fill="white" transform="translate(0.618408 0.25)"/>
    </clipPath>
  </defs>
</svg>