<svg width="15" height="15" viewBox="0 0 15 15" fill="none" xmlns="http://www.w3.org/2000/svg">
<g id="Group">
<g id="Group_2">
<path id="Vector" d="M7.5 14.125H2.25C1.21607 14.125 0.375 13.2839 0.375 12.25V6.75C0.375 5.71607 1.21607 4.875 2.25 4.875H9.75C10.7839 4.875 11.625 5.71607 11.625 6.75V8.5C11.625 8.70703 11.4572 8.875 11.25 8.875C11.0428 8.875 10.875 8.70703 10.875 8.5V6.75C10.875 6.12964 10.3704 5.625 9.75 5.625H2.25C1.62964 5.625 1.125 6.12964 1.125 6.75V12.25C1.125 12.8704 1.62964 13.375 2.25 13.375H7.5C7.70715 13.375 7.875 13.543 7.875 13.75C7.875 13.957 7.70715 14.125 7.5 14.125Z" fill="#052439"/>
<path id="Vector_2" d="M4.25 5.625C4.04285 5.625 3.875 5.45703 3.875 5.25V4.125C3.875 3.02222 4.77222 2.125 5.875 2.125C6.66589 2.125 7.38403 2.59228 7.70447 3.31567C7.79456 3.51928 8.00354 3.62964 8.21142 3.58301C8.3501 3.55249 8.46325 3.46045 8.52209 3.33106C8.58032 3.20264 8.57519 3.05835 8.50781 2.9353C7.98023 1.9729 6.97131 1.375 5.875 1.375C4.22082 1.375 2.875 2.7207 2.875 4.375V5.25C2.875 5.45703 2.70715 5.625 2.5 5.625C2.29285 5.625 2.125 5.45703 2.125 5.25V4.375C2.125 2.30713 3.80725 0.625 5.875 0.625C7.24536 0.625 8.50622 1.37207 9.16553 2.57495C9.34741 2.90698 9.36182 3.29541 9.20508 3.64087C9.04785 3.9873 8.74475 4.23315 8.37378 4.31543C7.82117 4.43677 7.25146 4.14502 7.01867 3.61938C6.81836 3.16723 6.36938 2.875 5.875 2.875C5.18579 2.875 4.625 3.43579 4.625 4.125V5.25C4.625 5.45703 4.45715 5.625 4.25 5.625Z" fill="#052439"/>
<path id="Vector_3" d="M6.00012 9.99341C5.14038 9.99341 4.44092 9.29395 4.44092 8.43433C4.44092 7.57446 5.14038 6.875 6.00012 6.875C6.85987 6.875 7.55933 7.57446 7.55933 8.43433C7.55933 9.29395 6.85987 9.99341 6.00012 9.99341ZM6.00012 7.625C5.55396 7.625 5.19092 7.98804 5.19092 8.43433C5.19092 8.88037 5.55396 9.24341 6.00012 9.24341C6.44629 9.24341 6.80933 8.88037 6.80933 8.43433C6.80933 7.98804 6.44629 7.625 6.00012 7.625Z" fill="#052439"/>
<path id="Vector_4" d="M6 12.125C5.79285 12.125 5.625 11.957 5.625 11.75V9.61841C5.625 9.41138 5.79285 9.24341 6 9.24341C6.20715 9.24341 6.375 9.41138 6.375 9.61841V11.75C6.375 11.957 6.20715 12.125 6 12.125Z" fill="#052439"/>
</g>
<path id="Vector_5" d="M11.25 8.125C9.38904 8.125 7.875 9.63891 7.875 11.5C7.875 13.3611 9.38904 14.875 11.25 14.875C13.111 14.875 14.625 13.3611 14.625 11.5C14.625 9.63891 13.111 8.125 11.25 8.125ZM13.0776 10.7651L11.0776 12.7651C11.0044 12.8384 10.9084 12.875 10.8125 12.875C10.7166 12.875 10.6206 12.8384 10.5474 12.7651L9.42236 11.6404C9.27588 11.4939 9.27588 11.2566 9.42236 11.1101C9.5686 10.9636 9.80615 10.9636 9.95263 11.1101L10.8125 11.9697L12.5474 10.2349C12.6938 10.0884 12.9312 10.0884 13.0776 10.2349C13.2241 10.3814 13.2241 10.6187 13.0776 10.7651Z" fill="#052439"/>
</g>
</svg>
