<svg width="512" height="512" viewBox="0 0 512 512" fill="none" xmlns="http://www.w3.org/2000/svg">
<g clip-path="url(#clip0_10025_62364)">
<path d="M301.074 210.928C276.687 186.542 238.281 171.157 207.593 186.383L325.617 304.407C340.676 274.158 325.553 235.408 301.074 210.928Z" fill="url(#paint0_linear_10025_62364)"/>
<path d="M497.001 0.00195312H15.001C6.70998 0.00195312 0.000976562 6.71095 0.000976562 15.002C0.000976562 23.293 6.70998 30.002 15.001 30.002H91.001V61.002H76.001C51.187 61.002 31.001 81.188 31.001 106.002V376.002C31.001 400.816 51.187 421.002 76.001 421.002L109.81 421.046L152.071 421.017C159.38 471.832 203.193 512.002 256.001 512.002C308.809 512.002 352.637 471.817 359.932 421.002H436.001C460.815 421.002 481.001 400.816 481.001 376.002V106.002C481.001 81.188 460.815 61.002 436.001 61.002H421.001V30.002H497.001C505.292 30.002 512.001 23.293 512.001 15.002C512.001 6.71095 505.292 0.00195312 497.001 0.00195312ZM338.193 338.194C302.319 374.103 236.133 368.702 189.716 322.286C145.011 277.581 136.583 211.005 173.791 173.835L173.807 173.809L173.814 173.805C173.818 173.801 173.818 173.798 173.818 173.798C209.879 137.737 276.134 143.514 322.284 189.717C366.495 233.928 375.781 300.607 338.193 338.194ZM391.001 61.002H121.001V30.002H391.001V61.002Z" fill="url(#paint1_linear_10025_62364)"/>
<path d="M186.381 207.593C171.308 237.903 186.49 276.638 210.928 301.075C238.218 328.376 278.197 337.716 304.272 325.483L186.381 207.593Z" fill="url(#paint2_linear_10025_62364)"/>
</g>
<defs>
<linearGradient id="paint0_linear_10025_62364" x1="269.61" y1="180.317" x2="269.61" y2="304.407" gradientUnits="userSpaceOnUse">
<stop stop-color="#B9B8C0"/>
<stop offset="1" stop-color="#57565A"/>
</linearGradient>
<linearGradient id="paint1_linear_10025_62364" x1="256.001" y1="0.00195312" x2="256.001" y2="512.002" gradientUnits="userSpaceOnUse">
<stop stop-color="#B9B8C0"/>
<stop offset="1" stop-color="#57565A"/>
</linearGradient>
<linearGradient id="paint2_linear_10025_62364" x1="242.323" y1="207.593" x2="242.323" y2="330.771" gradientUnits="userSpaceOnUse">
<stop stop-color="#B9B8C0"/>
<stop offset="1" stop-color="#57565A"/>
</linearGradient>
<clipPath id="clip0_10025_62364">
<rect width="512" height="512" fill="white" transform="translate(0.000976562 0.00195312)"/>
</clipPath>
</defs>
</svg>
