<svg width="512" height="512" viewBox="0 0 512 512" fill="none" xmlns="http://www.w3.org/2000/svg">
<g clip-path="url(#clip0_10025_65006)">
<path d="M382.742 64.3661C373.822 57.4371 331.001 46.0801 255.813 46.0801C180.625 46.0801 137.805 57.4371 128.885 64.3661C137.805 71.2951 180.626 82.6521 255.814 82.6521C331.002 82.6521 373.823 71.2951 382.742 64.3661Z" fill="url(#paint0_linear_10025_65006)"/>
<path d="M255.814 128.365C379.743 128.365 466.1 94.6332 466.1 64.3652C466.1 34.0972 379.743 0.365234 255.814 0.365234C131.885 0.365234 45.5281 34.0972 45.5281 64.3652C45.5281 94.6332 131.885 128.365 255.814 128.365ZM255.814 27.7942C270.787 27.7942 402.1 28.8212 402.1 64.3652C402.1 99.9102 270.788 100.936 255.814 100.936C240.841 100.936 109.528 99.9092 109.528 64.3652C109.528 28.8202 240.841 27.7942 255.814 27.7942Z" fill="url(#paint1_linear_10025_65006)"/>
<path d="M321.948 419.205C324.238 419.794 326.592 420.1 328.957 420.116C344.099 420.099 356.369 407.829 356.386 392.687L356.449 387.794C356.505 384.437 356.61 377.56 356.654 371.248C300.015 402.003 237.692 420.865 173.504 426.68C173.791 427.216 174.021 427.781 174.19 428.365C176.743 441.758 188.359 456.686 200.958 456.686C210.598 456.687 219.521 451.594 224.422 443.293C226.094 440.278 229.369 438.514 232.806 438.775C236.225 438.962 239.253 441.043 240.654 444.168C247.696 459.914 264.774 468.607 281.649 465.035C298.524 461.463 310.615 446.595 310.672 429.346C310.247 426.334 311.349 423.308 313.611 421.273C315.873 419.238 318.997 418.465 321.948 419.205Z" fill="url(#paint2_linear_10025_65006)"/>
<path d="M374.879 359.771C375.011 364.022 374.984 371.936 374.734 388.07L374.671 392.686C374.6 404.919 369.657 416.62 360.934 425.198C352.211 433.776 340.43 438.524 328.198 438.391C324.586 459.725 308.776 476.947 287.827 482.365C266.878 487.783 244.701 480.388 231.198 463.48C222.857 470.872 212.102 474.959 200.957 474.971C178.412 474.971 160.18 452.56 156.225 431.792C156.026 430.674 156.038 429.528 156.262 428.415C141.346 429.629 126.154 430.27 110.79 430.411L117.913 487.418C207.054 519.471 304.576 519.471 393.716 487.418L413.914 325.773C402.332 338.651 389.224 350.068 374.879 359.771Z" fill="url(#paint3_linear_10025_65006)"/>
<path d="M78.5581 172.461L97.0211 320.228C99.8071 320.275 102.571 320.366 105.412 320.366C122.517 320.366 139.371 319.667 155.905 318.392C155.487 316.025 155.265 313.627 155.242 311.223C155.272 285.988 175.721 265.538 200.956 265.509C201.206 265.509 201.465 265.509 201.715 265.518C205.327 244.184 221.137 226.963 242.086 221.544C263.035 216.126 285.212 223.521 298.715 240.429C309.352 230.965 323.81 227.034 337.775 229.81C351.74 232.586 363.596 241.748 369.804 254.561C390.229 241.843 407.917 225.187 421.84 205.563C423.099 203.643 424.403 201.661 425.581 199.608C425.706 199.313 425.858 199.028 426.01 198.751C427.865 195.515 429.541 192.181 431.032 188.762L433.069 172.462C388.459 191.532 320.947 201.51 255.813 201.51C190.679 201.51 123.169 191.531 78.5581 172.461Z" fill="url(#paint4_linear_10025_65006)"/>
<path d="M45.5281 98.1777V119.223C45.5281 149.491 131.885 183.223 255.814 183.223C379.743 183.223 466.1 149.491 466.1 119.223V98.1777C428.831 129.855 340.328 146.651 255.814 146.651C171.3 146.651 82.7981 129.855 45.5281 98.1777Z" fill="url(#paint5_linear_10025_65006)"/>
<path d="M370.35 275.529C369.96 275.824 369.546 276.087 369.113 276.316C303.691 315.1 208.343 338.651 105.412 338.651C103.345 338.651 101.343 338.572 99.3101 338.547L108.51 412.175C246.509 411.395 368.517 365.563 412.814 297.543C414.731 294.692 416.481 291.731 418.055 288.677C418.236 288.428 418.431 288.189 418.638 287.96L425.846 230.275C409.869 248.214 391.136 263.49 370.35 275.529ZM276.814 359.669C234.511 372.554 190.833 380.392 146.689 383.017C146.493 383.026 146.287 383.035 146.091 383.035C141.16 383.027 137.123 379.111 136.967 374.182C136.81 369.253 140.59 365.088 145.511 364.768C188.212 362.232 230.463 354.659 271.386 342.205C276.209 340.706 281.333 343.4 282.832 348.223C284.331 353.045 281.637 358.17 276.814 359.669ZM333.109 337.749C326.993 340.687 320.677 343.502 314.163 346.196C309.499 348.121 304.157 345.902 302.23 341.239C300.303 336.576 302.519 331.233 307.181 329.303C313.369 326.74 319.369 324.062 325.181 321.267C329.732 319.078 335.197 320.992 337.386 325.544C339.575 330.095 337.66 335.559 333.109 337.749Z" fill="url(#paint6_linear_10025_65006)"/>
<path d="M207.966 284.704C205.676 284.115 203.322 283.809 200.957 283.793C185.815 283.81 173.545 296.08 173.528 311.222C173.557 313.044 173.778 314.858 174.186 316.635C244.188 309.193 307.103 290.663 354.146 264.106C349.966 253.878 340.006 247.202 328.956 247.222C319.316 247.221 310.393 252.314 305.492 260.615C303.765 263.573 300.529 265.317 297.109 265.133C293.689 264.949 290.659 262.867 289.26 259.74C282.218 243.994 265.14 235.301 248.265 238.873C231.39 242.445 219.299 257.313 219.242 274.562C219.666 277.574 218.565 280.6 216.303 282.635C214.042 284.668 210.916 285.444 207.966 284.704Z" fill="url(#paint7_linear_10025_65006)"/>
</g>
<defs>
<linearGradient id="paint0_linear_10025_65006" x1="255.814" y1="46.0801" x2="255.814" y2="82.6521" gradientUnits="userSpaceOnUse">
<stop stop-color="#B9B8C0"/>
<stop offset="1" stop-color="#57565A"/>
</linearGradient>
<linearGradient id="paint1_linear_10025_65006" x1="255.814" y1="0.365234" x2="255.814" y2="128.365" gradientUnits="userSpaceOnUse">
<stop stop-color="#B9B8C0"/>
<stop offset="1" stop-color="#57565A"/>
</linearGradient>
<linearGradient id="paint2_linear_10025_65006" x1="265.079" y1="371.248" x2="265.079" y2="465.832" gradientUnits="userSpaceOnUse">
<stop stop-color="#B9B8C0"/>
<stop offset="1" stop-color="#57565A"/>
</linearGradient>
<linearGradient id="paint3_linear_10025_65006" x1="262.352" y1="325.773" x2="262.352" y2="511.458" gradientUnits="userSpaceOnUse">
<stop stop-color="#B9B8C0"/>
<stop offset="1" stop-color="#57565A"/>
</linearGradient>
<linearGradient id="paint4_linear_10025_65006" x1="255.814" y1="172.461" x2="255.814" y2="320.366" gradientUnits="userSpaceOnUse">
<stop stop-color="#B9B8C0"/>
<stop offset="1" stop-color="#57565A"/>
</linearGradient>
<linearGradient id="paint5_linear_10025_65006" x1="255.814" y1="98.1777" x2="255.814" y2="183.223" gradientUnits="userSpaceOnUse">
<stop stop-color="#B9B8C0"/>
<stop offset="1" stop-color="#57565A"/>
</linearGradient>
<linearGradient id="paint6_linear_10025_65006" x1="262.578" y1="230.275" x2="262.578" y2="412.175" gradientUnits="userSpaceOnUse">
<stop stop-color="#B9B8C0"/>
<stop offset="1" stop-color="#57565A"/>
</linearGradient>
<linearGradient id="paint7_linear_10025_65006" x1="263.837" y1="238.076" x2="263.837" y2="316.635" gradientUnits="userSpaceOnUse">
<stop stop-color="#B9B8C0"/>
<stop offset="1" stop-color="#57565A"/>
</linearGradient>
<clipPath id="clip0_10025_65006">
<rect width="511.094" height="511.094" fill="white" transform="translate(0.26709 0.365234)"/>
</clipPath>
</defs>
</svg>
