<svg width="513" height="512" viewBox="0 0 513 512" fill="none" xmlns="http://www.w3.org/2000/svg">
<g clip-path="url(#clip0_10025_65033)">
<path d="M363.034 111.462C383.507 76.1258 415.561 48.9508 453.771 34.5358C426.829 12.7948 393.415 0.646812 358.802 0.0078125L356.168 5.64681C340.499 38.7868 336.851 76.3478 345.851 111.883C351.497 110.632 357.333 110.489 363.034 111.462Z" fill="url(#paint0_linear_10025_65033)"/>
<path d="M317.53 182.818C302.781 187.233 287.473 189.502 272.078 189.557C246.823 189.475 221.933 183.53 199.368 172.188C201.132 190.292 206.031 207.954 213.846 224.38L213.848 224.387L213.855 224.398C220.436 238.099 228.998 250.758 239.263 261.967C275.852 250.199 306.836 225.386 326.314 192.253C325.124 191.339 323.981 190.364 322.89 189.335C320.906 187.333 319.111 185.152 317.53 182.818Z" fill="url(#paint1_linear_10025_65033)"/>
<path d="M317.199 131.295C318.854 128.751 320.761 126.38 322.891 124.218C324.741 122.37 326.75 120.689 328.897 119.196C318.235 79.8285 321.593 37.9785 338.396 0.814453C304.731 4.45545 273.172 18.9745 248.503 42.1695L250.534 48.6115C261.369 83.6815 285.224 113.269 317.199 131.295Z" fill="url(#paint2_linear_10025_65033)"/>
<path d="M364.391 130.476C361.528 129.499 358.524 128.999 355.498 128.994C343.958 129.137 333.67 136.295 329.525 147.065C326.863 153.938 327.118 161.599 330.23 168.279C331.597 171.302 333.492 174.057 335.828 176.413C337.76 178.378 340.012 179.999 342.489 181.208L342.762 181.344L342.783 181.351L342.798 181.362L342.828 181.378C349.352 184.828 357.003 185.464 364.007 183.137C368.182 181.809 371.978 179.501 375.078 176.405C377.889 173.608 380.039 170.22 381.372 166.486C384.038 159.614 383.784 151.951 380.667 145.272C379.312 142.252 377.422 139.502 375.087 137.156C372.097 134.118 368.432 131.83 364.391 130.476Z" fill="url(#paint3_linear_10025_65033)"/>
<path d="M310.427 165.785C309.263 160.038 309.224 154.119 310.313 148.356C274.274 128.733 247.063 96.1194 234.213 57.1484C212.337 83.7904 199.879 116.915 198.778 151.371L204.74 154.476C237.212 171.668 275.052 175.717 310.427 165.785Z" fill="url(#paint4_linear_10025_65033)"/>
<path d="M380.346 118.055C383.114 119.834 385.685 121.903 388.016 124.227C390.021 126.24 391.827 128.439 393.411 130.797C432.733 119.165 475.013 122.984 511.614 141.474C508.209 106.528 493.12 73.7505 468.787 48.4375L462.766 50.5825C428.355 62.9335 399.248 86.7605 380.346 118.055Z" fill="url(#paint5_linear_10025_65033)"/>
<path d="M506.168 159.074C473.694 141.881 435.852 137.833 400.476 147.768C401.644 153.512 401.683 159.429 400.592 165.188C436.621 184.819 463.828 217.427 476.688 256.39C498.562 229.749 511.019 196.626 512.121 162.173L506.168 159.074Z" fill="url(#paint6_linear_10025_65033)"/>
<path d="M3.12309 495.932C-0.500907 499.571 -0.494907 505.457 3.13709 509.088C6.76809 512.719 12.6541 512.726 16.2931 509.102L205.532 319.872L192.367 306.707L3.12309 495.932Z" fill="url(#paint7_linear_10025_65033)"/>
<path d="M393.705 182.246C389.685 188.497 384.117 193.604 377.542 197.07C387.583 235.704 384.225 276.602 368.016 313.081C403.323 310.381 436.636 295.656 462.398 271.362L460.373 264.931C449.529 229.865 425.674 200.279 393.705 182.246Z" fill="url(#paint8_linear_10025_65033)"/>
<path d="M355.534 202.763C351.113 202.737 346.719 202.072 342.487 200.791C322.444 235.375 291.126 262.022 253.779 276.27C264.109 285.097 275.539 292.55 287.783 298.441L287.785 298.442C306.571 307.236 326.886 312.298 347.602 313.347C365.054 279.097 369.477 239.676 360.051 202.41C358.547 202.559 357.046 202.763 355.534 202.763Z" fill="url(#paint9_linear_10025_65033)"/>
<path d="M230.163 279.158C230.122 279.118 230.066 279.107 230.025 279.067C229.967 279.008 229.949 278.929 229.892 278.868L229.703 278.665C219.442 268.143 210.561 256.358 203.274 243.594L185.774 261.085C182.147 264.727 182.151 270.617 185.783 274.255L198.83 287.304L198.837 287.309L211.891 300.367L237.962 326.443C241.602 330.074 247.496 330.07 251.132 326.434L268.578 308.996C255.038 301.231 242.59 291.701 231.56 280.656C231.091 280.186 230.62 279.667 230.163 279.158Z" fill="url(#paint10_linear_10025_65033)"/>
</g>
<defs>
<linearGradient id="paint0_linear_10025_65033" x1="397.395" y1="0.0078125" x2="397.395" y2="111.883" gradientUnits="userSpaceOnUse">
<stop stop-color="#B9B8C0"/>
<stop offset="1" stop-color="#57565A"/>
</linearGradient>
<linearGradient id="paint1_linear_10025_65033" x1="262.841" y1="172.188" x2="262.841" y2="261.967" gradientUnits="userSpaceOnUse">
<stop stop-color="#B9B8C0"/>
<stop offset="1" stop-color="#57565A"/>
</linearGradient>
<linearGradient id="paint2_linear_10025_65033" x1="293.45" y1="0.814453" x2="293.45" y2="131.295" gradientUnits="userSpaceOnUse">
<stop stop-color="#B9B8C0"/>
<stop offset="1" stop-color="#57565A"/>
</linearGradient>
<linearGradient id="paint3_linear_10025_65033" x1="355.45" y1="128.994" x2="355.45" y2="184.517" gradientUnits="userSpaceOnUse">
<stop stop-color="#B9B8C0"/>
<stop offset="1" stop-color="#57565A"/>
</linearGradient>
<linearGradient id="paint4_linear_10025_65033" x1="254.603" y1="57.1484" x2="254.603" y2="171.115" gradientUnits="userSpaceOnUse">
<stop stop-color="#B9B8C0"/>
<stop offset="1" stop-color="#57565A"/>
</linearGradient>
<linearGradient id="paint5_linear_10025_65033" x1="445.98" y1="48.4375" x2="445.98" y2="141.474" gradientUnits="userSpaceOnUse">
<stop stop-color="#B9B8C0"/>
<stop offset="1" stop-color="#57565A"/>
</linearGradient>
<linearGradient id="paint6_linear_10025_65033" x1="456.299" y1="142.436" x2="456.299" y2="256.39" gradientUnits="userSpaceOnUse">
<stop stop-color="#B9B8C0"/>
<stop offset="1" stop-color="#57565A"/>
</linearGradient>
<linearGradient id="paint7_linear_10025_65033" x1="102.971" y1="306.707" x2="102.971" y2="511.816" gradientUnits="userSpaceOnUse">
<stop stop-color="#B9B8C0"/>
<stop offset="1" stop-color="#57565A"/>
</linearGradient>
<linearGradient id="paint8_linear_10025_65033" x1="415.207" y1="182.246" x2="415.207" y2="313.081" gradientUnits="userSpaceOnUse">
<stop stop-color="#B9B8C0"/>
<stop offset="1" stop-color="#57565A"/>
</linearGradient>
<linearGradient id="paint9_linear_10025_65033" x1="309.337" y1="200.791" x2="309.337" y2="313.347" gradientUnits="userSpaceOnUse">
<stop stop-color="#B9B8C0"/>
<stop offset="1" stop-color="#57565A"/>
</linearGradient>
<linearGradient id="paint10_linear_10025_65033" x1="225.817" y1="243.594" x2="225.817" y2="329.163" gradientUnits="userSpaceOnUse">
<stop stop-color="#B9B8C0"/>
<stop offset="1" stop-color="#57565A"/>
</linearGradient>
<clipPath id="clip0_10025_65033">
<rect width="511.808" height="511.808" fill="white" transform="translate(0.361084 0.0078125)"/>
</clipPath>
</defs>
</svg>
