<svg width="512" height="512" viewBox="0 0 512 512" fill="none" xmlns="http://www.w3.org/2000/svg">
<g clip-path="url(#clip0_10025_62374)">
<path d="M218.523 195.972H38.447C27.336 195.972 20.021 207.718 25.023 217.69C28.798 225.238 40.884 248.717 43.466 255.997H213.506C216.093 248.703 228.165 225.254 231.947 217.69C236.949 207.718 229.634 195.972 218.523 195.972Z" fill="url(#paint0_linear_10025_62374)"/>
<path d="M246.47 353.363C242.844 346.113 216.204 293.619 213.506 286.01H43.466C40.774 293.599 14.117 346.131 10.5 353.363C-22.132 418.626 25.201 496.099 98.721 496.099H158.248C231.741 496.099 279.119 418.661 246.47 353.363Z" fill="url(#paint1_linear_10025_62374)"/>
<path d="M505.181 115.356C492.035 94.2967 464.207 87.8777 443.134 101.024L293.656 194.448C277.091 204.796 269.762 224.216 273.732 242.295L254.892 254.066L249.78 264.291C247.67 268.497 247.67 273.509 249.765 277.715L253.914 286.01C257.763 286.01 260.377 286.034 264.068 283.724L289.743 267.679C305.517 280.2 325.677 280.608 341.371 270.798L490.849 177.374C511.893 164.23 518.326 136.4 505.181 115.356Z" fill="url(#paint2_linear_10025_62374)"/>
<path d="M221.029 139.771C218.919 137.88 211.02 129.132 211.02 120.94C211.02 113.085 218.479 104.454 221.029 102.109C223.081 100.277 241.033 83.5407 241.033 60.9137C241.033 38.2867 223.081 21.5507 221.029 19.7187C214.903 14.2087 205.392 14.7217 199.838 20.8907C194.314 27.0607 194.841 36.5567 201.011 42.0817C203.121 43.9727 211.02 52.7217 211.02 60.9127C211.02 68.7677 203.561 77.3987 201.011 79.7437C198.959 81.5757 181.007 98.3117 181.007 120.939C181.007 143.566 198.959 160.302 201.011 162.134C207.162 167.653 216.672 167.148 222.202 160.962C227.726 154.792 227.199 145.296 221.029 139.771Z" fill="url(#paint3_linear_10025_62374)"/>
<path d="M130.991 139.771C128.881 137.88 120.982 129.132 120.982 120.94C120.982 113.085 128.441 104.454 130.991 102.109C133.043 100.277 150.995 83.5407 150.995 60.9137C150.995 38.2867 133.043 21.5507 130.991 19.7187C124.85 14.2087 115.369 14.7217 109.8 20.8907C104.276 27.0607 104.803 36.5567 110.972 42.0817C113.082 43.9727 120.981 52.7217 120.981 60.9127C120.981 68.7677 113.522 77.3987 110.972 79.7437C108.92 81.5757 90.968 98.3117 90.968 120.939C90.968 143.566 108.92 160.302 110.972 162.134C117.123 167.653 126.633 167.148 132.163 160.962C137.688 154.792 137.161 145.296 130.991 139.771Z" fill="url(#paint4_linear_10025_62374)"/>
<path d="M40.953 139.771C38.843 137.88 30.944 129.132 30.944 120.94C30.944 113.085 38.403 104.454 40.953 102.109C43.005 100.277 60.957 83.5407 60.957 60.9137C60.957 38.2867 43.005 21.5507 40.953 19.7187C34.827 14.2087 25.316 14.7217 19.762 20.8907C14.238 27.0607 14.765 36.5567 20.934 42.0817C23.044 43.9727 30.943 52.7217 30.943 60.9127C30.943 68.7677 23.484 77.3987 20.934 79.7437C18.882 81.5767 0.930969 98.3127 0.930969 120.94C0.930969 143.567 18.883 160.303 20.935 162.135C27.086 167.654 36.596 167.149 42.126 160.963C47.65 154.792 47.122 145.296 40.953 139.771Z" fill="url(#paint5_linear_10025_62374)"/>
</g>
<defs>
<linearGradient id="paint0_linear_10025_62374" x1="128.485" y1="195.972" x2="128.485" y2="255.997" gradientUnits="userSpaceOnUse">
<stop stop-color="#B9B8C0"/>
<stop offset="1" stop-color="#57565A"/>
</linearGradient>
<linearGradient id="paint1_linear_10025_62374" x1="128.487" y1="286.01" x2="128.487" y2="496.099" gradientUnits="userSpaceOnUse">
<stop stop-color="#B9B8C0"/>
<stop offset="1" stop-color="#57565A"/>
</linearGradient>
<linearGradient id="paint2_linear_10025_62374" x1="380.098" y1="94.1992" x2="380.098" y2="286.01" gradientUnits="userSpaceOnUse">
<stop stop-color="#B9B8C0"/>
<stop offset="1" stop-color="#57565A"/>
</linearGradient>
<linearGradient id="paint3_linear_10025_62374" x1="211.02" y1="15.9023" x2="211.02" y2="165.96" gradientUnits="userSpaceOnUse">
<stop stop-color="#B9B8C0"/>
<stop offset="1" stop-color="#57565A"/>
</linearGradient>
<linearGradient id="paint4_linear_10025_62374" x1="120.981" y1="15.9023" x2="120.981" y2="165.96" gradientUnits="userSpaceOnUse">
<stop stop-color="#B9B8C0"/>
<stop offset="1" stop-color="#57565A"/>
</linearGradient>
<linearGradient id="paint5_linear_10025_62374" x1="30.944" y1="15.9023" x2="30.944" y2="165.961" gradientUnits="userSpaceOnUse">
<stop stop-color="#B9B8C0"/>
<stop offset="1" stop-color="#57565A"/>
</linearGradient>
<clipPath id="clip0_10025_62374">
<rect width="512.001" height="512.001" fill="white" transform="translate(0.000976562 0.000976562)"/>
</clipPath>
</defs>
</svg>
