<svg width="508" height="508" viewBox="0 0 508 508" fill="none" xmlns="http://www.w3.org/2000/svg">
<path d="M154.059 223.566H354.736C369.781 223.566 383.159 213.993 388.013 199.753L394.014 182.151H114.782L120.782 199.753C125.637 213.993 139.014 223.566 154.059 223.566Z" fill="url(#paint0_linear_10025_57920)"/>
<path d="M254.398 156.329C255.031 142.625 258.517 117.752 274.835 101.434C277.845 98.4243 281.092 95.8895 284.498 93.7511C278.399 66.2641 254.398 45.5898 254.398 45.5898C254.398 45.5898 230.396 66.2641 224.297 93.7511C227.703 95.8895 230.951 98.4243 233.961 101.434C250.278 117.752 253.764 142.625 254.398 156.329Z" fill="url(#paint1_linear_10025_57920)"/>
<path d="M246.477 166.308C246.477 166.308 246.793 162.427 246.477 156.327C245.843 142.624 242.357 117.751 226.04 101.433C223.03 98.4232 219.782 95.8884 216.376 93.75C192.692 78.5408 161.165 80.9964 161.165 80.9964C161.165 80.9964 157.997 122.266 181.602 145.871C205.128 169.398 246.477 166.308 246.477 166.308Z" fill="url(#paint2_linear_10025_57920)"/>
<path d="M262.319 156.327C262.002 162.427 262.319 166.308 262.319 166.308C262.319 166.308 303.668 169.398 327.194 145.871C350.799 122.266 347.631 80.9964 347.631 80.9964C347.631 80.9964 316.104 78.5408 292.42 93.75C289.013 95.8884 285.766 98.4232 282.756 101.433C266.438 117.751 262.953 142.624 262.319 156.327Z" fill="url(#paint3_linear_10025_57920)"/>
<path d="M254.398 294.474C215.425 294.474 183.74 326.159 183.74 365.131V463.038H325.055V365.131C325.055 326.159 293.37 294.474 254.398 294.474ZM254.398 329.555C254.398 329.555 280.142 350.864 280.142 365.042C280.142 376.449 272.616 386.034 262.319 389.44H246.476C236.179 386.034 228.654 376.449 228.654 365.042C228.654 350.864 254.398 329.555 254.398 329.555ZM301.687 435.314H207.108V417.966C207.108 409.491 213.92 402.678 222.396 402.678H246.476H262.319H286.399C294.875 402.678 301.687 409.491 301.687 417.966V435.314Z" fill="url(#paint4_linear_10025_57920)"/>
<path d="M376.226 234.589C369.652 237.758 362.364 239.421 354.76 239.421H154.036C146.431 239.421 139.144 237.758 132.569 234.589C118.311 252.65 83.9326 304.217 100.013 362.597C120.133 435.392 163.383 463.038 163.383 463.038H167.898V365.131C167.898 317.446 206.712 278.631 254.398 278.631C302.084 278.631 340.897 317.446 340.897 365.131V463.038H345.413C345.413 463.038 388.663 435.392 408.782 362.597C424.863 304.217 390.484 252.65 376.226 234.589Z" fill="url(#paint5_linear_10025_57920)"/>
<defs>
<linearGradient id="paint0_linear_10025_57920" x1="254.398" y1="182.151" x2="254.398" y2="223.566" gradientUnits="userSpaceOnUse">
<stop stop-color="#B9B8C0"/>
<stop offset="1" stop-color="#57565A"/>
</linearGradient>
<linearGradient id="paint1_linear_10025_57920" x1="254.398" y1="45.5898" x2="254.398" y2="156.329" gradientUnits="userSpaceOnUse">
<stop stop-color="#B9B8C0"/>
<stop offset="1" stop-color="#57565A"/>
</linearGradient>
<linearGradient id="paint2_linear_10025_57920" x1="203.82" y1="80.8501" x2="203.82" y2="166.442" gradientUnits="userSpaceOnUse">
<stop stop-color="#B9B8C0"/>
<stop offset="1" stop-color="#57565A"/>
</linearGradient>
<linearGradient id="paint3_linear_10025_57920" x1="304.975" y1="80.8501" x2="304.975" y2="166.442" gradientUnits="userSpaceOnUse">
<stop stop-color="#B9B8C0"/>
<stop offset="1" stop-color="#57565A"/>
</linearGradient>
<linearGradient id="paint4_linear_10025_57920" x1="254.398" y1="294.474" x2="254.398" y2="463.038" gradientUnits="userSpaceOnUse">
<stop stop-color="#B9B8C0"/>
<stop offset="1" stop-color="#57565A"/>
</linearGradient>
<linearGradient id="paint5_linear_10025_57920" x1="254.398" y1="234.589" x2="254.398" y2="463.038" gradientUnits="userSpaceOnUse">
<stop stop-color="#B9B8C0"/>
<stop offset="1" stop-color="#57565A"/>
</linearGradient>
</defs>
</svg>
