<svg width="512" height="512" viewBox="0 0 512 512" fill="none" xmlns="http://www.w3.org/2000/svg">
<g clip-path="url(#clip0_10025_62393)">
<path d="M421.875 413.078C138.254 413.078 300.238 413.078 15.002 413.078C6.60095 413.078 0.00195312 419.677 0.00195312 428.078C0.00195312 436.477 6.60095 443.078 15.002 443.078H50.702L53.403 448.177C60.903 463.477 76.502 473.078 93.602 473.078H343.275C360.375 473.078 375.974 463.478 383.474 448.177L386.175 443.078H421.875C430.276 443.078 436.875 436.477 436.875 428.078C436.875 419.677 430.276 413.078 421.875 413.078Z" fill="url(#paint0_linear_10025_62393)"/>
<path d="M494.634 190.318C486.898 182.589 476.906 178.05 465.978 175.514C465.555 185.61 465.088 195.676 463.949 205.562C467.565 206.974 470.797 208.911 473.423 211.529C490.664 228.785 480.952 267.647 452.197 296.387C447.497 301.087 442.47 305.147 437.343 308.822C431.119 323.86 424.262 338.405 416.255 351.92C436.124 346.264 456.284 334.734 473.408 317.599C515.039 275.982 524.37 220.07 494.634 190.318Z" fill="url(#paint1_linear_10025_62393)"/>
<path d="M371.191 217.901C347.256 232.491 317.461 236.813 290.288 229.664C271.172 241.734 240.531 248.077 218.002 248.077C195.473 248.077 165.705 241.734 146.589 229.664C119.431 236.812 89.6359 232.491 65.6859 217.901C41.5599 219.344 19.1109 210.676 1.91394 195.965C9.21194 270.511 38.0419 337.358 81.6649 383.078H355.212C398.835 337.355 427.669 270.503 434.965 195.953C417.755 210.687 395.293 219.367 371.191 217.901Z" fill="url(#paint2_linear_10025_62393)"/>
<path d="M363.649 69.5708C341.94 52.0508 310.622 48.2578 285.338 60.0638C252.76 31.8798 184.119 31.8798 151.541 60.0638C126.272 48.2568 94.939 52.0508 73.23 69.5708C36.477 61.1928 -0.0130422 90.5338 0.00195775 128.078C-0.0130422 165.607 36.462 194.934 73.23 186.584C94.939 204.104 126.272 207.912 151.541 196.091C167.83 210.183 196.558 218.078 218.003 218.078C239.448 218.078 269.049 210.182 285.338 196.091C310.621 207.912 341.94 204.104 363.649 186.584C368 187.58 372.423 188.078 376.877 188.078C409.968 188.078 436.877 161.169 436.877 128.078C436.877 89.6908 401.071 61.0028 363.649 69.5708Z" fill="url(#paint3_linear_10025_62393)"/>
</g>
<defs>
<linearGradient id="paint0_linear_10025_62393" x1="218.438" y1="413.078" x2="218.438" y2="473.078" gradientUnits="userSpaceOnUse">
<stop stop-color="#B9B8C0"/>
<stop offset="1" stop-color="#57565A"/>
</linearGradient>
<linearGradient id="paint1_linear_10025_62393" x1="464.128" y1="175.514" x2="464.128" y2="351.92" gradientUnits="userSpaceOnUse">
<stop stop-color="#B9B8C0"/>
<stop offset="1" stop-color="#57565A"/>
</linearGradient>
<linearGradient id="paint2_linear_10025_62393" x1="218.439" y1="195.953" x2="218.439" y2="383.078" gradientUnits="userSpaceOnUse">
<stop stop-color="#B9B8C0"/>
<stop offset="1" stop-color="#57565A"/>
</linearGradient>
<linearGradient id="paint3_linear_10025_62393" x1="218.439" y1="38.9258" x2="218.439" y2="218.078" gradientUnits="userSpaceOnUse">
<stop stop-color="#B9B8C0"/>
<stop offset="1" stop-color="#57565A"/>
</linearGradient>
<clipPath id="clip0_10025_62393">
<rect width="512" height="512" fill="white" transform="translate(0.00195312 0.00195312)"/>
</clipPath>
</defs>
</svg>
