<svg width="508" height="508" viewBox="0 0 508 508" fill="none" xmlns="http://www.w3.org/2000/svg">
<path d="M353.468 154.169C355.027 155.917 357.185 156.807 359.351 156.807C361.219 156.807 363.091 156.145 364.603 154.815C367.868 151.929 368.177 146.932 365.311 143.648C363.107 141.123 352.725 127.934 364.886 116.164C383.764 97.8848 373.399 75.8655 365.28 66.78C362.376 63.5195 357.363 63.2333 354.099 66.1496C350.834 69.062 350.552 74.0708 353.468 77.3314C354.833 78.8591 366.437 92.6091 353.866 104.785C334.984 123.06 345.35 145.08 353.468 154.169Z" fill="url(#paint0_linear_10025_57928)"/>
<path d="M411.261 154.169C412.819 155.917 414.978 156.807 417.143 156.807C419.012 156.807 420.884 156.145 422.396 154.815C425.66 151.929 425.97 146.932 423.104 143.648C420.899 141.123 410.518 127.934 422.678 116.164C441.557 97.8848 431.191 75.8655 423.073 66.78C420.16 63.5195 415.148 63.2333 411.891 66.1496C408.627 69.062 408.344 74.0708 411.261 77.3314C412.626 78.8591 424.229 92.6091 411.659 104.785C392.776 123.06 403.142 145.08 411.261 154.169Z" fill="url(#paint1_linear_10025_57928)"/>
<path d="M274.714 237.987V202.5H80.96C71.217 202.5 63.2165 210.421 63.2165 220.244C63.2165 225.155 65.1968 229.591 68.4448 232.759C71.6923 236.007 76.1281 237.987 80.96 237.987H274.714Z" fill="url(#paint2_linear_10025_57928)"/>
<path d="M427.751 202.5H408.503V237.987H427.751C437.494 237.987 445.495 230.066 445.495 220.244C445.495 210.421 437.494 202.5 427.751 202.5Z" fill="url(#paint3_linear_10025_57928)"/>
<path d="M408.504 296.844C408.504 319.261 390.206 337.48 367.788 337.48H315.35C292.933 337.48 274.714 319.261 274.714 296.844V253.832H72.7225V308.884C72.7225 338.43 88.0897 364.491 111.299 379.383C123.26 386.987 137.36 391.74 152.489 392.374C153.677 392.453 154.945 392.453 156.212 392.453H352.501C353.768 392.453 355.035 392.453 356.223 392.374C371.353 391.74 385.453 386.987 397.414 379.383C420.623 364.491 435.99 338.43 435.99 308.884V253.832H408.504V296.844Z" fill="url(#paint4_linear_10025_57928)"/>
<path d="M104.486 416.216C100.842 427.622 107.179 439.741 118.585 443.465C129.834 447.108 142.032 440.771 145.676 429.365L152.489 408.215C137.359 407.581 123.259 402.829 111.298 395.224L104.486 416.216Z" fill="url(#paint5_linear_10025_57928)"/>
<path d="M397.413 395.224C385.452 402.829 371.353 407.581 356.223 408.215L363.035 429.365C366.679 440.771 378.877 447.108 390.126 443.465C401.533 439.741 407.869 427.622 404.225 416.216L397.413 395.224Z" fill="url(#paint6_linear_10025_57928)"/>
<path d="M305.528 186.658C307.112 182.776 307.983 178.499 307.983 173.905C307.983 154.339 292.062 138.418 272.496 138.418H272.258C272.338 137.784 272.496 137.071 272.496 136.358C272.496 116.793 256.575 100.871 236.93 100.871C231.86 100.871 227.028 101.98 222.671 103.881C215.225 95.4847 204.215 90.019 192.096 90.019C173.798 90.019 158.272 101.98 153.044 118.535C152.489 118.535 152.014 118.377 151.38 118.377C132.766 118.377 117.636 132.793 116.131 151.012C101.714 153.389 90.6246 165.825 90.6246 180.955C90.6246 182.935 90.7827 184.836 91.258 186.658H305.528ZM218.315 131.843C231.86 130.892 243.663 141.111 244.693 154.656C245.009 159.013 241.761 162.815 237.405 163.132H236.771C232.652 163.132 229.167 159.963 228.929 155.765C228.533 150.933 224.256 147.21 219.424 147.606C215.067 147.923 211.265 144.675 210.948 140.319C210.631 135.962 213.958 132.16 218.315 131.843ZM167.461 138.101C171.817 138.101 175.382 141.665 175.382 146.022C175.382 150.379 171.817 153.943 167.461 153.943C162.549 153.943 158.588 157.904 158.588 162.815C158.588 167.172 155.103 170.736 150.667 170.736C146.311 170.736 142.746 167.172 142.746 162.815C142.746 149.19 153.836 138.101 167.461 138.101Z" fill="url(#paint7_linear_10025_57928)"/>
<path d="M290.555 197.909H392.66V278.23H290.555V197.909Z" fill="url(#paint8_linear_10025_57928)"/>
<path d="M290.556 296.843C290.556 310.546 301.646 321.636 315.35 321.636H367.788C381.492 321.636 392.661 310.546 392.661 296.843V294.07H290.556V296.843Z" fill="url(#paint9_linear_10025_57928)"/>
<defs>
<linearGradient id="paint0_linear_10025_57928" x1="359.375" y1="64.1357" x2="359.375" y2="156.807" gradientUnits="userSpaceOnUse">
<stop stop-color="#B9B8C0"/>
<stop offset="1" stop-color="#57565A"/>
</linearGradient>
<linearGradient id="paint1_linear_10025_57928" x1="417.167" y1="64.1357" x2="417.167" y2="156.807" gradientUnits="userSpaceOnUse">
<stop stop-color="#B9B8C0"/>
<stop offset="1" stop-color="#57565A"/>
</linearGradient>
<linearGradient id="paint2_linear_10025_57928" x1="168.965" y1="202.5" x2="168.965" y2="237.987" gradientUnits="userSpaceOnUse">
<stop stop-color="#B9B8C0"/>
<stop offset="1" stop-color="#57565A"/>
</linearGradient>
<linearGradient id="paint3_linear_10025_57928" x1="426.999" y1="202.5" x2="426.999" y2="237.987" gradientUnits="userSpaceOnUse">
<stop stop-color="#B9B8C0"/>
<stop offset="1" stop-color="#57565A"/>
</linearGradient>
<linearGradient id="paint4_linear_10025_57928" x1="254.356" y1="253.832" x2="254.356" y2="392.453" gradientUnits="userSpaceOnUse">
<stop stop-color="#B9B8C0"/>
<stop offset="1" stop-color="#57565A"/>
</linearGradient>
<linearGradient id="paint5_linear_10025_57928" x1="127.972" y1="395.224" x2="127.972" y2="444.494" gradientUnits="userSpaceOnUse">
<stop stop-color="#B9B8C0"/>
<stop offset="1" stop-color="#57565A"/>
</linearGradient>
<linearGradient id="paint6_linear_10025_57928" x1="380.739" y1="395.224" x2="380.739" y2="444.494" gradientUnits="userSpaceOnUse">
<stop stop-color="#B9B8C0"/>
<stop offset="1" stop-color="#57565A"/>
</linearGradient>
<linearGradient id="paint7_linear_10025_57928" x1="199.304" y1="90.019" x2="199.304" y2="186.658" gradientUnits="userSpaceOnUse">
<stop stop-color="#B9B8C0"/>
<stop offset="1" stop-color="#57565A"/>
</linearGradient>
<linearGradient id="paint8_linear_10025_57928" x1="341.608" y1="197.909" x2="341.608" y2="278.23" gradientUnits="userSpaceOnUse">
<stop stop-color="#B9B8C0"/>
<stop offset="1" stop-color="#57565A"/>
</linearGradient>
<linearGradient id="paint9_linear_10025_57928" x1="341.609" y1="294.07" x2="341.609" y2="321.636" gradientUnits="userSpaceOnUse">
<stop stop-color="#B9B8C0"/>
<stop offset="1" stop-color="#57565A"/>
</linearGradient>
</defs>
</svg>
