<svg width="512" height="512" viewBox="0 0 512 512" fill="none" xmlns="http://www.w3.org/2000/svg">
<path d="M176 432C159.638 432.037 143.395 429.221 128 423.68V464C128 468.243 129.686 472.313 132.686 475.314C135.687 478.314 139.757 480 144 480H368C372.243 480 376.313 478.314 379.314 475.314C382.314 472.313 384 468.243 384 464V423.68C368.605 429.221 352.362 432.037 336 432H176Z" fill="url(#paint0_linear_10025_21412)"/>
<path d="M336 32H208C178.296 32 149.808 43.8 128.804 64.804C107.8 85.8081 96 114.296 96 144V177.6C101.273 176.577 106.629 176.041 112 176H205.28C219.709 175.983 233.753 180.655 245.296 189.312C256.839 197.969 265.257 210.143 269.28 224H304C316.73 224 328.939 218.943 337.941 209.941C346.943 200.939 352 188.73 352 176C352 171.757 353.686 167.687 356.686 164.686C359.687 161.686 363.757 160 368 160C372.243 160 376.313 161.686 379.314 164.686C382.314 167.687 384 171.757 384 176C384 186.506 381.931 196.909 377.91 206.615C373.89 216.321 367.997 225.14 360.569 232.569C353.14 239.997 344.321 245.89 334.615 249.91C324.909 253.931 314.506 256 304 256H269.6C266.246 269.773 258.336 282.009 247.155 290.722C235.973 299.435 222.175 304.114 208 304H176C171.757 304 167.687 302.314 164.686 299.314C161.686 296.313 160 292.243 160 288C160 283.757 161.686 279.687 164.686 276.686C167.687 273.686 171.757 272 176 272H208C216.487 272 224.626 268.629 230.627 262.627C236.629 256.626 240 248.487 240 240C240 231.513 236.629 223.374 230.627 217.373C224.626 211.371 216.487 208 208 208H112C99.2696 208 87.0606 213.057 78.0589 222.059C69.0571 231.061 64 243.27 64 256V288C64 317.704 75.8 346.192 96.804 367.196C117.808 388.2 146.296 400 176 400H336C365.704 400 394.192 388.2 415.196 367.196C436.2 346.192 448 317.704 448 288V144C448 114.296 436.2 85.8081 415.196 64.804C394.192 43.8 365.704 32 336 32Z" fill="url(#paint1_linear_10025_21412)"/>
<defs>
<linearGradient id="paint0_linear_10025_21412" x1="256" y1="423.68" x2="256" y2="480" gradientUnits="userSpaceOnUse">
<stop stop-color="#B9B8C0"/>
<stop offset="1" stop-color="#57565A"/>
</linearGradient>
<linearGradient id="paint1_linear_10025_21412" x1="256" y1="32" x2="256" y2="400" gradientUnits="userSpaceOnUse">
<stop stop-color="#B9B8C0"/>
<stop offset="1" stop-color="#57565A"/>
</linearGradient>
</defs>
</svg>
