<svg width="512" height="512" viewBox="0 0 512 512" fill="none" xmlns="http://www.w3.org/2000/svg">
<path d="M121.92 227.36L209.6 41.12C210.897 38.3972 212.937 36.0964 215.484 34.4828C218.032 32.8692 220.984 32.0085 224 32H304C308.243 32 312.313 33.6857 315.314 36.6863C318.314 39.6869 320 43.7565 320 48V81.76L168.8 273.76L121.92 227.36ZM212.48 363.04L184 385.44L219.36 420.8L253.92 404.8L212.48 363.04ZM336.96 112L192 296.96L215.04 320L400 175.04V128C400 123.757 398.314 119.687 395.314 116.686C392.313 113.686 388.243 112 384 112H336.96ZM149.28 350.72L161.28 362.72L189.76 340.32L171.68 322.24L149.28 350.72ZM464 192H430.24L238.24 343.2L285.12 390.08L470.88 302.4C473.603 301.103 475.904 299.063 477.517 296.516C479.131 293.968 479.991 291.016 480 288V208C480 203.757 478.314 199.687 475.314 196.686C472.313 193.686 468.243 192 464 192ZM148.96 299.52L107.52 258.08L91.52 292.64L126.56 328L148.96 299.52ZM73.44 320L57.44 336.8C49.5094 344.552 43.1956 353.801 38.8643 364.011C34.533 374.22 32.2703 385.187 32.2073 396.277C32.1442 407.368 34.2821 418.36 38.497 428.618C42.7119 438.876 48.9201 448.196 56.7621 456.038C64.6041 463.88 73.924 470.088 84.1821 474.303C94.4402 478.518 105.433 480.656 116.523 480.593C127.613 480.53 138.58 478.267 148.79 473.936C158.999 469.604 168.248 463.291 176 455.36L192 438.56L73.44 320Z" fill="url(#paint0_linear_10025_21416)"/>
<defs>
<linearGradient id="paint0_linear_10025_21416" x1="256.103" y1="32" x2="256.103" y2="480.594" gradientUnits="userSpaceOnUse">
<stop stop-color="#B9B8C0"/>
<stop offset="1" stop-color="#57565A"/>
</linearGradient>
</defs>
</svg>
