<svg width="513" height="513" viewBox="0 0 513 513" fill="none" xmlns="http://www.w3.org/2000/svg">
<g clip-path="url(#clip0_10025_65156)">
<path d="M165.33 37.4831C175.429 37.4831 183.616 29.2961 183.616 19.1971C183.616 9.09811 175.429 0.912109 165.33 0.912109C155.236 0.924109 147.056 9.10411 147.044 19.1981C147.045 29.2971 155.231 37.4831 165.33 37.4831Z" fill="url(#paint0_linear_10025_65156)"/>
<path d="M110.473 165.482C120.572 165.482 128.759 157.295 128.759 147.196C128.759 137.097 120.572 128.91 110.473 128.91C100.379 128.922 92.1988 137.102 92.1868 147.196C92.1878 157.296 100.374 165.482 110.473 165.482Z" fill="url(#paint1_linear_10025_65156)"/>
<path d="M293.33 147.198C293.342 157.292 301.522 165.472 311.616 165.484C321.715 165.484 329.902 157.297 329.902 147.198C329.902 137.099 321.715 128.912 311.616 128.912C301.517 128.912 293.33 137.099 293.33 147.198Z" fill="url(#paint2_linear_10025_65156)"/>
<path d="M192.759 147.198C192.771 157.292 200.951 165.472 211.045 165.484C221.144 165.484 229.331 157.297 229.331 147.198C229.331 137.099 221.144 128.912 211.045 128.912C200.946 128.912 192.759 137.099 192.759 147.198Z" fill="url(#paint3_linear_10025_65156)"/>
<path d="M141.958 165.484H179.56C176.266 159.951 174.51 153.638 174.474 147.198C174.474 127 190.848 110.627 211.045 110.627C231.243 110.627 247.616 127.001 247.616 147.198C247.58 153.638 245.824 159.95 242.53 165.484H280.132C276.838 159.951 275.082 153.638 275.045 147.198C275.045 127 291.419 110.627 311.616 110.627C331.814 110.627 348.187 127.001 348.187 147.198C348.151 153.638 346.394 159.95 343.1 165.484H371.559C363.496 152.046 365.142 134.921 375.615 123.264V64.9125C375.61 59.8655 371.52 55.7745 366.472 55.7695H147.045C141.998 55.7745 137.907 59.8655 137.902 64.9125V123.265C148.376 134.921 150.021 152.047 141.958 165.484Z" fill="url(#paint4_linear_10025_65156)"/>
<path d="M403.045 165.482C413.144 165.482 421.331 157.295 421.331 147.196C421.318 137.103 413.139 128.923 403.045 128.91C392.946 128.911 384.759 137.098 384.759 147.197C384.759 157.296 392.946 165.482 403.045 165.482Z" fill="url(#paint5_linear_10025_65156)"/>
<path d="M256.759 37.4831C266.858 37.4831 275.045 29.2961 275.045 19.1971C275.045 9.09811 266.858 0.912109 256.759 0.912109C246.66 0.912109 238.473 9.09911 238.473 19.1981C238.485 29.2921 246.665 37.4721 256.759 37.4831Z" fill="url(#paint6_linear_10025_65156)"/>
<path d="M421.33 275.198C421.33 285.297 429.517 293.484 439.616 293.484C449.715 293.484 457.902 285.297 457.902 275.198C457.889 265.105 449.71 256.925 439.616 256.912C429.517 256.912 421.33 265.099 421.33 275.198Z" fill="url(#paint7_linear_10025_65156)"/>
<path d="M348.188 37.4831C358.287 37.4831 366.474 29.2961 366.474 19.1971C366.474 9.09811 358.286 0.912109 348.188 0.912109C338.089 0.912109 329.902 9.09911 329.902 19.1981C329.913 29.2921 338.093 37.4721 348.188 37.4831Z" fill="url(#paint8_linear_10025_65156)"/>
<path d="M73.9017 293.483C84.0007 293.483 92.1877 285.296 92.1877 275.197C92.1877 265.098 84.0007 256.912 73.9017 256.912C63.8027 256.912 55.6157 265.099 55.6157 275.198C55.6277 285.292 63.8077 293.472 73.9017 293.483Z" fill="url(#paint9_linear_10025_65156)"/>
<path d="M464.42 443.056C459.584 452.278 450.03 458.056 439.616 458.056C429.202 458.056 419.649 452.278 414.812 443.056C410.645 435.396 402.624 430.627 393.903 430.627C385.183 430.627 377.161 435.395 372.995 443.056C367.657 451.793 358.404 457.388 348.187 458.056C337.97 457.388 328.717 451.793 323.379 443.056C319.213 435.396 311.192 430.627 302.473 430.627C293.754 430.627 285.732 435.396 281.567 443.056C276.229 451.793 266.976 457.388 256.759 458.056C246.542 457.388 237.289 451.793 231.951 443.056C227.785 435.396 219.764 430.627 211.045 430.627C202.326 430.627 194.304 435.396 190.139 443.056C184.801 451.793 175.548 457.388 165.331 458.056C155.114 457.388 145.861 451.793 140.523 443.056C136.357 435.396 128.336 430.627 119.617 430.627C110.898 430.627 102.876 435.396 98.7107 443.056C93.3727 451.793 84.1197 457.388 73.9027 458.056C63.6857 457.388 54.4327 451.793 49.0947 443.056C44.8057 435.516 36.8617 430.793 28.1887 430.627V503.77C28.1937 508.817 32.2837 512.908 37.3317 512.913H476.189C481.237 512.91 485.328 508.818 485.332 503.77V430.627C476.657 430.794 468.711 435.516 464.42 443.056Z" fill="url(#paint10_linear_10025_65156)"/>
<path d="M464.42 360.769C459.584 369.991 450.03 375.769 439.616 375.769C429.202 375.769 419.649 369.991 414.812 360.769C410.645 353.109 402.624 348.34 393.903 348.34C385.183 348.34 377.161 353.108 372.995 360.769C367.657 369.506 358.404 375.101 348.187 375.769C337.97 375.101 328.717 369.506 323.379 360.769C319.213 353.109 311.192 348.34 302.473 348.34C293.754 348.34 285.732 353.109 281.567 360.769C276.229 369.506 266.976 375.101 256.759 375.769C246.542 375.101 237.289 369.506 231.951 360.769C227.785 353.109 219.764 348.34 211.045 348.34C202.326 348.34 194.304 353.109 190.139 360.769C184.801 369.506 175.548 375.101 165.331 375.769C155.114 375.101 145.861 369.506 140.523 360.769C136.357 353.109 128.336 348.34 119.617 348.34C110.898 348.34 102.876 353.109 98.7107 360.769C93.3727 369.506 84.1197 375.101 73.9027 375.769C63.6857 375.101 54.4327 369.506 49.0947 360.769C44.8057 353.229 36.8617 348.506 28.1887 348.34V412.34C42.3607 412.392 55.5507 419.591 63.2597 431.483C68.1657 437.501 70.3577 439.769 73.9027 439.769C77.4477 439.769 79.6397 437.502 84.5457 431.483C92.2187 419.552 105.432 412.34 119.617 412.34C133.802 412.34 147.015 419.552 154.688 431.483C159.594 437.501 161.786 439.769 165.331 439.769C168.876 439.769 171.068 437.502 175.974 431.483C183.647 419.552 196.86 412.34 211.045 412.34C225.23 412.34 238.443 419.552 246.116 431.483C251.022 437.501 253.214 439.769 256.759 439.769C260.304 439.769 262.496 437.502 267.402 431.483C275.075 419.552 288.288 412.34 302.473 412.34C316.659 412.34 329.871 419.552 337.544 431.483C342.45 437.501 344.642 439.769 348.187 439.769C351.732 439.769 353.924 437.502 358.83 431.483C366.503 419.552 379.716 412.34 393.901 412.34C408.087 412.34 421.299 419.552 428.972 431.483C433.882 437.501 436.07 439.769 439.615 439.769C443.16 439.769 445.348 437.502 450.258 431.483C457.968 419.591 471.157 412.392 485.329 412.34V348.34C476.657 348.507 468.711 353.23 464.42 360.769Z" fill="url(#paint11_linear_10025_65156)"/>
<path d="M147.045 275.198C147.057 285.292 155.237 293.472 165.331 293.484C175.43 293.484 183.617 285.297 183.617 275.198C183.617 265.099 175.429 256.912 165.33 256.912C155.231 256.912 147.045 265.099 147.045 275.198Z" fill="url(#paint12_linear_10025_65156)"/>
<path d="M476.188 311.77H37.3298C32.2828 311.775 28.1918 315.865 28.1868 320.913V330.056C42.3588 330.108 55.5488 337.307 63.2578 349.199C68.1638 355.217 70.3558 357.485 73.9008 357.485C77.4458 357.485 79.6378 355.218 84.5438 349.199C92.2168 337.268 105.43 330.056 119.615 330.056C133.8 330.056 147.013 337.268 154.686 349.199C159.592 355.217 161.784 357.485 165.329 357.485C168.874 357.485 171.066 355.218 175.972 349.199C183.645 337.268 196.858 330.056 211.043 330.056C225.228 330.056 238.441 337.268 246.114 349.199C251.02 355.217 253.212 357.485 256.757 357.485C260.302 357.485 262.494 355.218 267.4 349.199C275.073 337.268 288.286 330.056 302.471 330.056C316.657 330.056 329.869 337.268 337.542 349.199C342.448 355.217 344.64 357.485 348.185 357.485C351.73 357.485 353.922 355.218 358.828 349.199C366.501 337.268 379.714 330.056 393.899 330.056C408.085 330.056 421.297 337.268 428.97 349.199C433.88 355.217 436.068 357.485 439.613 357.485C443.158 357.485 445.346 355.218 450.256 349.199C457.966 337.307 471.155 330.108 485.327 330.056V320.913C485.327 315.865 481.236 311.774 476.188 311.77Z" fill="url(#paint13_linear_10025_65156)"/>
<path d="M110.473 275.198C110.437 281.638 108.68 287.95 105.386 293.484H133.845C130.551 287.951 128.795 281.638 128.758 275.198C128.758 255 145.132 238.627 165.329 238.627C185.527 238.627 201.9 255.001 201.9 275.198C201.864 281.638 200.108 287.95 196.814 293.484H225.273C221.979 287.951 220.223 281.638 220.187 275.198C220.187 255 236.561 238.627 256.758 238.627C276.955 238.627 293.329 255.001 293.329 275.198C293.293 281.638 291.537 287.95 288.243 293.484H316.702C313.408 287.951 311.652 281.638 311.615 275.198C311.637 255.009 327.998 238.648 348.186 238.627C368.375 238.649 384.736 255.01 384.757 275.198C384.721 281.638 382.964 287.95 379.67 293.484H408.128C404.835 287.95 403.079 281.638 403.043 275.198C403.091 258.568 414.366 244.069 430.472 239.925V225.992C421.512 228.302 412.297 229.475 403.043 229.483C384.837 229.213 366.898 225.064 350.422 217.313C344.009 214.045 337.055 211.973 329.9 211.197C322.745 211.973 315.79 214.045 309.378 217.313C292.902 225.064 274.963 229.212 256.757 229.483C238.551 229.213 220.612 225.064 204.136 217.313C197.723 214.045 190.769 211.973 183.614 211.197C176.459 211.973 169.504 214.045 163.092 217.313C146.616 225.064 128.677 229.212 110.472 229.483C101.219 229.475 92.0037 228.302 83.0427 225.992V239.925C99.1497 244.069 110.425 258.568 110.473 275.198Z" fill="url(#paint14_linear_10025_65156)"/>
<path d="M238.473 275.198C238.485 285.292 246.665 293.472 256.759 293.484C266.858 293.484 275.045 285.297 275.045 275.198C275.045 265.099 266.858 256.912 256.759 256.912C246.66 256.912 238.473 265.099 238.473 275.198Z" fill="url(#paint15_linear_10025_65156)"/>
<path d="M156.094 200.422C164.687 196.139 174.039 193.587 183.616 192.913C193.194 193.587 202.545 196.139 211.138 200.422C225.403 207.226 240.957 210.9 256.759 211.199C272.56 210.9 288.115 207.226 302.38 200.422C310.973 196.139 320.325 193.587 329.902 192.913C339.48 193.587 348.831 196.139 357.424 200.422C371.689 207.226 387.243 210.9 403.045 211.199C412.34 211.212 421.585 209.838 430.474 207.121V192.913C430.471 187.865 426.379 183.774 421.331 183.77H92.1877C87.1407 183.775 83.0497 187.865 83.0447 192.913V207.121C91.9337 209.837 101.179 211.211 110.474 211.199C126.275 210.9 141.829 207.226 156.094 200.422Z" fill="url(#paint16_linear_10025_65156)"/>
<path d="M329.902 275.198C329.914 285.292 338.094 293.472 348.188 293.484C358.287 293.484 366.474 285.297 366.474 275.198C366.474 265.099 358.286 256.912 348.188 256.912C338.089 256.912 329.902 265.099 329.902 275.198Z" fill="url(#paint17_linear_10025_65156)"/>
</g>
<defs>
<linearGradient id="paint0_linear_10025_65156" x1="165.33" y1="0.912109" x2="165.33" y2="37.4831" gradientUnits="userSpaceOnUse">
<stop stop-color="#B9B8C0"/>
<stop offset="1" stop-color="#57565A"/>
</linearGradient>
<linearGradient id="paint1_linear_10025_65156" x1="110.473" y1="128.91" x2="110.473" y2="165.482" gradientUnits="userSpaceOnUse">
<stop stop-color="#B9B8C0"/>
<stop offset="1" stop-color="#57565A"/>
</linearGradient>
<linearGradient id="paint2_linear_10025_65156" x1="311.616" y1="128.912" x2="311.616" y2="165.484" gradientUnits="userSpaceOnUse">
<stop stop-color="#B9B8C0"/>
<stop offset="1" stop-color="#57565A"/>
</linearGradient>
<linearGradient id="paint3_linear_10025_65156" x1="211.045" y1="128.912" x2="211.045" y2="165.484" gradientUnits="userSpaceOnUse">
<stop stop-color="#B9B8C0"/>
<stop offset="1" stop-color="#57565A"/>
</linearGradient>
<linearGradient id="paint4_linear_10025_65156" x1="256.758" y1="55.7695" x2="256.758" y2="165.484" gradientUnits="userSpaceOnUse">
<stop stop-color="#B9B8C0"/>
<stop offset="1" stop-color="#57565A"/>
</linearGradient>
<linearGradient id="paint5_linear_10025_65156" x1="403.045" y1="128.91" x2="403.045" y2="165.482" gradientUnits="userSpaceOnUse">
<stop stop-color="#B9B8C0"/>
<stop offset="1" stop-color="#57565A"/>
</linearGradient>
<linearGradient id="paint6_linear_10025_65156" x1="256.759" y1="0.912109" x2="256.759" y2="37.4831" gradientUnits="userSpaceOnUse">
<stop stop-color="#B9B8C0"/>
<stop offset="1" stop-color="#57565A"/>
</linearGradient>
<linearGradient id="paint7_linear_10025_65156" x1="439.616" y1="256.912" x2="439.616" y2="293.484" gradientUnits="userSpaceOnUse">
<stop stop-color="#B9B8C0"/>
<stop offset="1" stop-color="#57565A"/>
</linearGradient>
<linearGradient id="paint8_linear_10025_65156" x1="348.188" y1="0.912109" x2="348.188" y2="37.4831" gradientUnits="userSpaceOnUse">
<stop stop-color="#B9B8C0"/>
<stop offset="1" stop-color="#57565A"/>
</linearGradient>
<linearGradient id="paint9_linear_10025_65156" x1="73.9017" y1="256.912" x2="73.9017" y2="293.483" gradientUnits="userSpaceOnUse">
<stop stop-color="#B9B8C0"/>
<stop offset="1" stop-color="#57565A"/>
</linearGradient>
<linearGradient id="paint10_linear_10025_65156" x1="256.76" y1="430.627" x2="256.76" y2="512.913" gradientUnits="userSpaceOnUse">
<stop stop-color="#B9B8C0"/>
<stop offset="1" stop-color="#57565A"/>
</linearGradient>
<linearGradient id="paint11_linear_10025_65156" x1="256.759" y1="348.34" x2="256.759" y2="439.769" gradientUnits="userSpaceOnUse">
<stop stop-color="#B9B8C0"/>
<stop offset="1" stop-color="#57565A"/>
</linearGradient>
<linearGradient id="paint12_linear_10025_65156" x1="165.331" y1="256.912" x2="165.331" y2="293.484" gradientUnits="userSpaceOnUse">
<stop stop-color="#B9B8C0"/>
<stop offset="1" stop-color="#57565A"/>
</linearGradient>
<linearGradient id="paint13_linear_10025_65156" x1="256.757" y1="311.77" x2="256.757" y2="357.485" gradientUnits="userSpaceOnUse">
<stop stop-color="#B9B8C0"/>
<stop offset="1" stop-color="#57565A"/>
</linearGradient>
<linearGradient id="paint14_linear_10025_65156" x1="256.757" y1="211.197" x2="256.757" y2="293.484" gradientUnits="userSpaceOnUse">
<stop stop-color="#B9B8C0"/>
<stop offset="1" stop-color="#57565A"/>
</linearGradient>
<linearGradient id="paint15_linear_10025_65156" x1="256.759" y1="256.912" x2="256.759" y2="293.484" gradientUnits="userSpaceOnUse">
<stop stop-color="#B9B8C0"/>
<stop offset="1" stop-color="#57565A"/>
</linearGradient>
<linearGradient id="paint16_linear_10025_65156" x1="256.759" y1="183.77" x2="256.759" y2="211.199" gradientUnits="userSpaceOnUse">
<stop stop-color="#B9B8C0"/>
<stop offset="1" stop-color="#57565A"/>
</linearGradient>
<linearGradient id="paint17_linear_10025_65156" x1="348.188" y1="256.912" x2="348.188" y2="293.484" gradientUnits="userSpaceOnUse">
<stop stop-color="#B9B8C0"/>
<stop offset="1" stop-color="#57565A"/>
</linearGradient>
<clipPath id="clip0_10025_65156">
<rect width="512" height="512" fill="white" transform="translate(0.758789 0.912109)"/>
</clipPath>
</defs>
</svg>
