<svg width="512" height="512" viewBox="0 0 512 512" fill="none" xmlns="http://www.w3.org/2000/svg">
<g clip-path="url(#clip0_10025_62457)">
<path d="M476.605 155.397L427.211 121.002L361 172.213V512.002H466C474.291 512.002 481 505.293 481 497.002V166.002C481 162.018 479.418 158.209 476.605 155.397Z" fill="url(#paint0_linear_10025_62457)"/>
<path d="M374.374 0.00195312H137.626C111.918 0.00195312 91 20.92 91 46.628V91.002H421V46.628C421 20.92 400.082 0.00195312 374.374 0.00195312Z" fill="url(#paint1_linear_10025_62457)"/>
<path d="M196 301.002C162.909 301.002 136 327.911 136 361.002C136 394.093 162.909 421.002 196 421.002C229.091 421.002 256 394.093 256 361.002C256 327.911 229.091 301.002 196 301.002Z" fill="url(#paint2_linear_10025_62457)"/>
<path d="M31 181.002V497.002C31 505.293 37.709 512.002 46 512.002H331V181.002H31ZM196 451.002C146.371 451.002 106 410.631 106 361.002C106 316.509 138.523 279.71 181 272.518V271.002C181 246.188 201.186 226.002 226 226.002C234.291 226.002 241 232.711 241 241.002C241 249.293 234.291 256.002 226 256.002C217.724 256.002 211 262.726 211 271.002V272.518C253.477 279.71 286 316.509 286 361.002C286 410.631 245.629 451.002 196 451.002Z" fill="url(#paint3_linear_10025_62457)"/>
<path d="M69.789 121.002L39.789 151.002H339.39L378.173 121.002H69.789Z" fill="url(#paint4_linear_10025_62457)"/>
</g>
<defs>
<linearGradient id="paint0_linear_10025_62457" x1="421" y1="121.002" x2="421" y2="512.002" gradientUnits="userSpaceOnUse">
<stop stop-color="#B9B8C0"/>
<stop offset="1" stop-color="#57565A"/>
</linearGradient>
<linearGradient id="paint1_linear_10025_62457" x1="256" y1="0.00195312" x2="256" y2="91.002" gradientUnits="userSpaceOnUse">
<stop stop-color="#B9B8C0"/>
<stop offset="1" stop-color="#57565A"/>
</linearGradient>
<linearGradient id="paint2_linear_10025_62457" x1="196" y1="301.002" x2="196" y2="421.002" gradientUnits="userSpaceOnUse">
<stop stop-color="#B9B8C0"/>
<stop offset="1" stop-color="#57565A"/>
</linearGradient>
<linearGradient id="paint3_linear_10025_62457" x1="181" y1="181.002" x2="181" y2="512.002" gradientUnits="userSpaceOnUse">
<stop stop-color="#B9B8C0"/>
<stop offset="1" stop-color="#57565A"/>
</linearGradient>
<linearGradient id="paint4_linear_10025_62457" x1="208.981" y1="121.002" x2="208.981" y2="151.002" gradientUnits="userSpaceOnUse">
<stop stop-color="#B9B8C0"/>
<stop offset="1" stop-color="#57565A"/>
</linearGradient>
<clipPath id="clip0_10025_62457">
<rect width="512" height="512" fill="white" transform="translate(0 0.00195312)"/>
</clipPath>
</defs>
</svg>
