<svg width="512" height="512" viewBox="0 0 512 512" fill="none" xmlns="http://www.w3.org/2000/svg">
<path d="M96 412.32C55.245 370.492 32.4371 314.4 32.4371 256C32.4371 197.6 55.245 141.508 96 99.68C113.83 112.503 129.31 128.308 141.76 146.4L128 154.08C126.172 155.131 124.569 156.531 123.282 158.201C121.995 159.871 121.05 161.778 120.5 163.814C119.951 165.849 119.807 167.973 120.078 170.064C120.349 172.155 121.029 174.172 122.08 176C123.131 177.828 124.531 179.431 126.201 180.718C127.871 182.005 129.779 182.95 131.814 183.5C133.849 184.05 135.973 184.193 138.064 183.922C140.155 183.651 142.172 182.971 144 181.92L157.28 174.08C162.248 184.69 166.264 195.72 169.28 207.04L154.08 209.76C151.979 210.128 149.971 210.906 148.17 212.049C146.37 213.193 144.812 214.68 143.586 216.426C142.361 218.172 141.491 220.142 141.026 222.224C140.562 224.306 140.512 226.459 140.88 228.56C141.248 230.661 142.026 232.669 143.169 234.47C144.313 236.27 145.8 237.828 147.546 239.054C149.292 240.279 151.262 241.149 153.344 241.614C155.426 242.078 157.579 242.128 159.68 241.76L174.72 239.2C174.72 244.96 175.52 250.72 175.52 256.64C175.52 262.56 175.52 268.32 174.72 274.08L160 270.88C157.899 270.512 155.746 270.562 153.664 271.026C151.582 271.491 149.612 272.361 147.866 273.586C144.341 276.062 141.943 279.837 141.2 284.08C140.457 288.323 141.431 292.688 143.906 296.214C146.382 299.739 150.157 302.137 154.4 302.88L169.6 305.6C166.584 316.92 162.568 327.95 157.6 338.56L144 330.08C140.308 327.958 135.925 327.39 131.814 328.5C127.703 329.61 124.202 332.308 122.08 336C119.958 339.692 119.39 344.075 120.5 348.186C121.61 352.297 124.308 355.798 128 357.92L141.28 365.6C128.974 383.652 113.658 399.455 96 412.32ZM342.56 381.6L328.48 389.92C324.788 392.042 320.405 392.61 316.294 391.5C312.183 390.39 308.682 387.692 306.56 384C304.438 380.308 303.87 375.925 304.98 371.814C306.091 367.703 308.788 364.202 312.48 362.08L326.72 353.92C319.919 340.051 314.558 325.522 310.72 310.56L294.72 313.44C290.477 314.183 286.112 313.209 282.586 310.734C279.061 308.258 276.663 304.483 275.92 300.24C275.177 295.997 276.151 291.632 278.626 288.106C281.102 284.581 284.877 282.183 289.12 281.44L305.12 278.56C303.413 263.247 303.413 247.793 305.12 232.48L289.12 229.6C287.019 229.232 285.011 228.454 283.21 227.311C281.41 226.167 279.852 224.68 278.626 222.934C277.401 221.188 276.531 219.218 276.066 217.136C275.602 215.054 275.552 212.901 275.92 210.8C276.288 208.699 277.066 206.691 278.209 204.89C279.353 203.09 280.84 201.532 282.586 200.306C284.332 199.081 286.302 198.211 288.384 197.746C290.466 197.282 292.619 197.232 294.72 197.6L310.72 200.48C314.558 185.518 319.919 170.989 326.72 157.12L312.48 148.96C308.788 146.838 306.091 143.337 304.98 139.226C303.87 135.115 304.438 130.732 306.56 127.04C308.682 123.348 312.183 120.65 316.294 119.54C320.405 118.43 324.788 118.998 328.48 121.12L342.56 129.44C356.16 109.436 372.91 91.7675 392.16 77.12C353.103 47.2767 305.314 31.1088 256.16 31.1088C207.006 31.1088 159.217 47.2767 120.16 77.12C139.41 91.7675 156.16 109.436 169.76 129.44L183.84 121.12C187.532 118.998 191.915 118.43 196.026 119.54C200.137 120.65 203.638 123.348 205.76 127.04C207.882 130.732 208.45 135.115 207.34 139.226C206.23 143.337 203.532 146.838 199.84 148.96L185.6 157.12C192.401 170.989 197.762 185.518 201.6 200.48L217.6 197.6C221.844 196.857 226.208 197.831 229.734 200.306C233.26 202.782 235.657 206.557 236.4 210.8C237.143 215.043 236.169 219.408 233.694 222.934C231.218 226.459 227.444 228.857 223.2 229.6L207.2 232.48C207.886 240.3 208.154 248.151 208 256C207.977 263.697 207.55 271.388 206.72 279.04L222.72 281.92C224.821 282.288 226.829 283.066 228.63 284.209C230.43 285.353 231.988 286.84 233.214 288.586C234.439 290.332 235.309 292.302 235.774 294.384C236.238 296.466 236.288 298.619 235.92 300.72C235.552 302.821 234.774 304.829 233.631 306.63C232.487 308.43 231 309.988 229.254 311.214C227.508 312.439 225.538 313.309 223.456 313.774C221.374 314.238 219.221 314.288 217.12 313.92L201.12 311.04C197.282 326.002 191.921 340.531 185.12 354.4L199.36 362.56C201.188 363.611 202.791 365.011 204.078 366.681C205.365 368.351 206.31 370.258 206.86 372.294C207.41 374.329 207.553 376.453 207.282 378.544C207.011 380.635 206.331 382.652 205.28 384.48C204.229 386.308 202.829 387.911 201.159 389.198C199.489 390.485 197.582 391.43 195.546 391.98C193.511 392.529 191.387 392.673 189.296 392.402C187.205 392.131 185.188 391.451 183.36 390.4L169.28 382.08C155.68 402.084 138.93 419.752 119.68 434.4C158.737 464.243 206.526 480.411 255.68 480.411C304.834 480.411 352.623 464.243 391.68 434.4C372.448 419.595 355.751 401.762 342.24 381.6H342.56ZM416 99.68C398.056 112.474 382.465 128.281 369.92 146.4L383.2 154.08C385.028 155.131 386.631 156.531 387.918 158.201C389.205 159.871 390.15 161.778 390.7 163.814C391.25 165.849 391.393 167.973 391.122 170.064C390.851 172.155 390.171 174.172 389.12 176C388.069 177.828 386.669 179.431 384.999 180.718C383.329 182.005 381.422 182.95 379.386 183.5C377.351 184.05 375.227 184.193 373.136 183.922C371.045 183.651 369.028 182.971 367.2 181.92L353.92 174.08C348.952 184.69 344.936 195.72 341.92 207.04L357.12 209.76C359.221 210.128 361.229 210.906 363.03 212.049C364.83 213.193 366.388 214.68 367.614 216.426C368.839 218.172 369.709 220.142 370.174 222.224C370.638 224.306 370.688 226.459 370.32 228.56C369.952 230.661 369.174 232.669 368.031 234.47C366.887 236.27 365.4 237.828 363.654 239.054C361.908 240.279 359.938 241.149 357.856 241.614C355.774 242.078 353.621 242.128 351.52 241.76L336.48 239.2C336.48 244.96 335.68 250.72 335.68 256.64C335.68 262.56 335.68 268.32 336.48 274.08L351.52 271.52C353.621 271.152 355.774 271.202 357.856 271.666C359.938 272.131 361.908 273.001 363.654 274.226C365.4 275.452 366.887 277.01 368.031 278.81C369.174 280.611 369.952 282.619 370.32 284.72C370.688 286.821 370.638 288.974 370.174 291.056C369.709 293.138 368.839 295.108 367.614 296.854C366.388 298.6 364.83 300.087 363.03 301.231C361.229 302.374 359.221 303.152 357.12 303.52L341.92 306.24C344.936 317.56 348.952 328.59 353.92 339.2L367.2 331.36C370.892 329.238 375.275 328.67 379.386 329.78C383.497 330.89 386.998 333.588 389.12 337.28C391.242 340.972 391.81 345.355 390.7 349.466C389.59 353.577 386.892 357.078 383.2 359.2L369.92 366.88C382.579 384.541 398.164 399.909 416 412.32C456.755 370.492 479.563 314.4 479.563 256C479.563 197.6 456.755 141.508 416 99.68Z" fill="url(#paint0_linear_10025_21424)"/>
<defs>
<linearGradient id="paint0_linear_10025_21424" x1="256" y1="31.1088" x2="256" y2="480.411" gradientUnits="userSpaceOnUse">
<stop stop-color="#B9B8C0"/>
<stop offset="1" stop-color="#57565A"/>
</linearGradient>
</defs>
</svg>
