<svg width="508" height="509" viewBox="0 0 508 509" fill="none" xmlns="http://www.w3.org/2000/svg">
<g clip-path="url(#clip0_10025_65217)">
<path d="M424.415 292.842H478.323L478.31 203.017H460.345C460.344 91.5791 387.814 0.912109 298.66 0.912109C240.129 0.912109 186.157 40.4791 157.573 104.21H107.121C105.641 104.218 104.168 104.41 102.736 104.782L133.205 158.104H212.608L243.077 104.782C241.645 104.41 240.172 104.217 238.692 104.21H177.48C203.818 51.3671 249.556 18.8771 298.662 18.8771C377.908 18.8771 442.381 101.482 442.381 203.017H424.416L424.415 292.842ZM181.888 122.175C184.27 122.174 186.556 123.121 188.24 124.805C189.925 126.49 190.871 128.775 190.87 131.157C190.871 133.54 189.924 135.825 188.24 137.509C186.555 139.194 184.27 140.14 181.888 140.139H163.923C158.962 140.139 154.941 136.117 154.941 131.157C154.941 126.196 158.963 122.175 163.923 122.175H181.888ZM443.094 226.553C443.55 225.463 444.189 224.46 444.984 223.587C445.41 223.2 445.86 222.84 446.33 222.508C446.829 222.167 447.372 221.896 447.944 221.701C448.454 221.442 448.999 221.259 449.562 221.157C453.791 220.197 458.082 222.498 459.623 226.552C460.127 227.618 460.373 228.786 460.343 229.965C460.365 232.354 459.427 234.652 457.738 236.343C456.864 237.136 455.862 237.774 454.773 238.229C451.431 239.663 447.553 238.916 444.983 236.343C442.415 233.771 441.666 229.896 443.094 226.553Z" fill="url(#paint0_linear_10025_65217)"/>
<path d="M256.694 117.158L225.616 171.544C224.017 174.343 221.041 176.071 217.818 176.07H127.993C124.77 176.07 121.793 174.343 120.195 171.544L89.117 117.158L31.848 210.211C30.107 213.045 29.186 216.306 29.186 219.632V328.772H316.625V219.632C316.624 216.299 315.699 213.032 313.954 210.193L256.694 117.158Z" fill="url(#paint1_linear_10025_65217)"/>
<path d="M29.186 508.42H316.625V346.736H29.186V508.42ZM180.394 450.565C178.727 453.065 175.911 454.555 172.906 454.525C171.731 454.511 170.57 454.267 169.489 453.806C167.235 452.985 165.46 451.209 164.638 448.955C163.685 446.78 163.685 444.305 164.638 442.13C165.073 441.03 165.714 440.023 166.528 439.164C167.4 438.371 168.401 437.733 169.489 437.278C172.834 435.867 176.701 436.611 179.283 439.164C180.075 440.038 180.713 441.041 181.169 442.129C182.352 444.892 182.06 448.065 180.394 450.565ZM216.323 450.565C214.656 453.065 211.84 454.555 208.835 454.525C207.66 454.511 206.499 454.267 205.418 453.806C203.164 452.985 201.389 451.209 200.567 448.955C199.614 446.78 199.614 444.305 200.567 442.13C201.002 441.03 201.643 440.023 202.457 439.164C203.329 438.371 204.33 437.733 205.418 437.278C208.763 435.867 212.63 436.611 215.212 439.164C216.004 440.038 216.642 441.041 217.098 442.129C218.282 444.892 217.99 448.065 216.323 450.565ZM287.073 451.92C283.531 455.394 277.861 455.394 274.319 451.92C273.526 451.046 272.887 450.043 272.429 448.955C271.476 446.78 271.476 444.305 272.429 442.13C272.864 441.03 273.505 440.023 274.319 439.164C275.191 438.371 276.192 437.733 277.28 437.278C280.626 435.867 284.492 436.611 287.074 439.164C287.866 440.038 288.504 441.041 288.96 442.129C290.392 445.472 289.645 449.35 287.073 451.92ZM272.427 370.271C272.883 369.182 273.522 368.179 274.317 367.305C275.174 366.492 276.179 365.852 277.278 365.419C280.624 364.008 284.49 364.752 287.072 367.305C287.864 368.179 288.502 369.182 288.958 370.27C289.419 371.35 289.663 372.509 289.677 373.683C289.708 374.861 289.461 376.03 288.958 377.095C288.5 378.182 287.862 379.184 287.072 380.06C286.198 380.853 285.196 381.491 284.107 381.946C280.765 383.38 276.887 382.633 274.318 380.06C273.525 379.186 272.886 378.183 272.428 377.095C271.474 374.92 271.474 372.446 272.427 370.271ZM254.463 406.201C254.898 405.101 255.539 404.094 256.353 403.235C257.21 402.422 258.215 401.782 259.314 401.349C261.501 400.445 263.956 400.445 266.143 401.349C268.399 402.167 270.176 403.943 270.994 406.2C271.498 407.266 271.745 408.435 271.714 409.613C271.736 412.002 270.798 414.3 269.109 415.991C268.235 416.784 267.233 417.422 266.144 417.877C263.969 418.836 261.49 418.836 259.315 417.877C258.228 417.421 257.227 416.784 256.354 415.991C253.784 413.419 253.035 409.544 254.463 406.201ZM236.497 370.27C236.953 369.181 237.592 368.178 238.387 367.305C239.244 366.492 240.249 365.852 241.348 365.419C242.986 364.699 244.807 364.509 246.559 364.875C247.122 364.976 247.667 365.16 248.177 365.419C248.751 365.613 249.295 365.884 249.795 366.226C250.264 366.56 250.714 366.92 251.142 367.305C251.934 368.179 252.572 369.182 253.028 370.27C253.987 372.444 253.987 374.921 253.028 377.095C252.57 378.182 251.932 379.184 251.142 380.06C247.6 383.534 241.93 383.534 238.388 380.06C237.595 379.186 236.956 378.183 236.498 377.095C235.545 374.92 235.545 372.445 236.497 370.27ZM236.497 442.131C236.932 441.031 237.573 440.024 238.387 439.165C239.259 438.372 240.26 437.734 241.348 437.279C244.694 435.868 248.56 436.612 251.142 439.165C251.934 440.039 252.572 441.042 253.028 442.13C254.211 444.892 253.919 448.065 252.253 450.565C250.586 453.065 247.77 454.555 244.765 454.525C242.376 454.547 240.078 453.608 238.387 451.92C237.594 451.046 236.955 450.043 236.497 448.955C235.544 446.78 235.544 444.306 236.497 442.131ZM218.533 406.201C218.946 405.09 219.59 404.079 220.423 403.235C221.28 402.422 222.285 401.782 223.384 401.349C225.571 400.445 228.026 400.445 230.213 401.349C232.469 402.167 234.246 403.943 235.064 406.2C236.499 409.542 235.752 413.421 233.179 415.991C232.305 416.784 231.303 417.422 230.214 417.877C228.039 418.836 225.56 418.836 223.385 417.877C222.298 417.421 221.297 416.784 220.424 415.991C217.854 413.419 217.106 409.544 218.533 406.201ZM200.568 370.272V370.271C201.389 368.017 203.165 366.242 205.419 365.42C208.764 364.009 212.631 364.753 215.213 367.306C216.024 368.166 216.664 369.172 217.099 370.271C218.058 372.445 218.058 374.922 217.099 377.096C216.641 378.183 216.003 379.185 215.213 380.061C214.339 380.854 213.337 381.492 212.248 381.947C210.073 382.906 207.594 382.906 205.419 381.947C203.165 381.126 201.39 379.35 200.568 377.096C199.614 374.921 199.614 372.447 200.568 370.272ZM182.603 406.201C183.038 405.101 183.679 404.094 184.493 403.235C185.335 402.404 186.344 401.761 187.454 401.349C187.964 401.09 188.509 400.907 189.072 400.805C192.032 400.204 195.097 401.115 197.248 403.235C198.059 404.095 198.699 405.101 199.134 406.2C200.758 410.155 199.37 414.706 195.816 417.082C192.262 419.458 187.526 419.002 184.492 415.99C181.923 413.419 181.175 409.544 182.603 406.201ZM164.638 370.27C165.073 369.17 165.715 368.163 166.528 367.305C169.108 364.752 172.973 364.007 176.317 365.419C178.573 366.237 180.35 368.013 181.168 370.269C181.629 371.349 181.873 372.509 181.888 373.682C181.919 374.86 181.672 376.029 181.169 377.094C180.711 378.181 180.073 379.183 179.283 380.059C178.409 380.852 177.407 381.49 176.318 381.945C174.143 382.904 171.664 382.904 169.489 381.945C167.235 381.124 165.46 379.348 164.638 377.094C163.685 374.921 163.685 372.446 164.638 370.27ZM146.674 406.2C147.109 405.1 147.75 404.094 148.563 403.235C150.734 401.153 153.778 400.248 156.734 400.805C157.297 400.906 157.842 401.09 158.352 401.349C158.926 401.543 159.47 401.814 159.97 402.156C160.439 402.49 160.889 402.85 161.317 403.235C162.128 404.095 162.768 405.101 163.203 406.2C164.635 409.543 163.887 413.421 161.315 415.992C158.743 418.563 154.865 419.309 151.523 417.876C150.436 417.421 149.435 416.783 148.562 415.99C145.995 413.418 145.246 409.543 146.674 406.2ZM128.708 370.27C129.164 369.181 129.803 368.178 130.598 367.305C131.024 366.918 131.474 366.558 131.944 366.226C132.443 365.885 132.986 365.614 133.558 365.419C134.095 365.146 134.673 364.962 135.269 364.875C138.199 364.302 141.224 365.211 143.353 367.305C144.145 368.179 144.783 369.182 145.239 370.27C146.198 372.444 146.198 374.921 145.239 377.095C144.781 378.182 144.143 379.184 143.353 380.06C140.781 382.633 136.902 383.38 133.559 381.946C131.305 381.125 129.53 379.349 128.708 377.095C127.755 374.92 127.755 372.445 128.708 370.27ZM128.709 442.131C129.144 441.031 129.785 440.024 130.599 439.165C131.471 438.372 132.472 437.734 133.56 437.279C136.906 435.868 140.772 436.612 143.354 439.165C144.146 440.039 144.784 441.042 145.24 442.13C146.423 444.892 146.131 448.065 144.465 450.565C142.799 453.065 139.982 454.555 136.977 454.525C135.802 454.511 134.641 454.267 133.56 453.806C131.306 452.985 129.531 451.209 128.709 448.955C127.756 446.78 127.756 444.306 128.709 442.131ZM110.742 406.199C111.177 405.099 111.819 404.093 112.633 403.235C113.49 402.422 114.495 401.782 115.594 401.349C117.781 400.445 120.236 400.445 122.423 401.349C124.679 402.167 126.456 403.943 127.274 406.2C128.233 408.374 128.233 410.851 127.274 413.025C126.816 414.112 126.178 415.114 125.388 415.99C124.514 416.783 123.512 417.421 122.423 417.876C120.248 418.835 117.769 418.835 115.594 417.876C114.507 417.42 113.506 416.783 112.633 415.99C110.063 413.418 109.315 409.543 110.742 406.199ZM92.778 370.27C93.234 369.181 93.873 368.178 94.668 367.305C98.27 363.98 103.821 363.98 107.422 367.305C108.214 368.179 108.852 369.182 109.308 370.27C110.267 372.444 110.267 374.921 109.308 377.095C108.85 378.182 108.212 379.184 107.422 380.06C106.548 380.853 105.546 381.491 104.457 381.946C102.282 382.905 99.803 382.905 97.628 381.946C95.374 381.125 93.599 379.349 92.777 377.095C92.277 376.028 92.032 374.86 92.062 373.682C92.077 372.51 92.319 371.35 92.778 370.27ZM92.779 442.13C93.235 441.041 93.874 440.038 94.669 439.165C98.271 435.84 103.822 435.84 107.423 439.165C108.215 440.039 108.853 441.042 109.309 442.13C110.492 444.892 110.2 448.065 108.534 450.565C106.867 453.065 104.051 454.555 101.046 454.525C99.871 454.511 98.71 454.267 97.629 453.806C96.542 453.35 95.541 452.712 94.668 451.92C92.978 450.231 92.039 447.933 92.063 445.543C92.034 444.365 92.278 443.197 92.779 442.13ZM74.813 406.201C75.248 405.101 75.889 404.094 76.703 403.235C77.545 402.404 78.554 401.761 79.664 401.349C81.851 400.445 84.306 400.445 86.493 401.349C88.749 402.167 90.526 403.943 91.344 406.2C92.303 408.374 92.303 410.851 91.344 413.025C90.886 414.112 90.248 415.114 89.458 415.99C88.584 416.783 87.582 417.421 86.493 417.876C83.152 419.31 79.274 418.563 76.704 415.991C74.134 413.419 73.386 409.544 74.813 406.201ZM56.849 370.271C57.284 369.171 57.925 368.164 58.739 367.306C60.888 365.186 63.952 364.276 66.91 364.876C67.473 364.978 68.018 365.161 68.528 365.42C69.102 365.614 69.646 365.885 70.146 366.227C70.615 366.561 71.065 366.921 71.493 367.306C72.285 368.18 72.923 369.183 73.379 370.271C74.338 372.445 74.338 374.922 73.379 377.096C72.921 378.183 72.283 379.185 71.493 380.061C70.619 380.854 69.617 381.492 68.528 381.947C66.353 382.906 63.874 382.906 61.699 381.947C59.445 381.126 57.67 379.35 56.848 377.096C55.896 374.921 55.896 372.446 56.849 370.271ZM56.849 442.13C57.305 441.041 57.944 440.038 58.739 439.165C62.341 435.84 67.892 435.84 71.493 439.165C72.285 440.039 72.923 441.042 73.379 442.13C74.811 445.473 74.063 449.351 71.491 451.921C68.919 454.491 65.041 455.238 61.699 453.805C60.612 453.35 59.61 452.712 58.738 451.92C57.048 450.231 56.109 447.932 56.133 445.542C56.104 444.365 56.349 443.197 56.849 442.13Z" fill="url(#paint2_linear_10025_65217)"/>
</g>
<defs>
<linearGradient id="paint0_linear_10025_65217" x1="290.53" y1="0.912109" x2="290.53" y2="292.842" gradientUnits="userSpaceOnUse">
<stop stop-color="#B9B8C0"/>
<stop offset="1" stop-color="#57565A"/>
</linearGradient>
<linearGradient id="paint1_linear_10025_65217" x1="172.906" y1="117.158" x2="172.906" y2="328.772" gradientUnits="userSpaceOnUse">
<stop stop-color="#B9B8C0"/>
<stop offset="1" stop-color="#57565A"/>
</linearGradient>
<linearGradient id="paint2_linear_10025_65217" x1="172.906" y1="346.736" x2="172.906" y2="508.42" gradientUnits="userSpaceOnUse">
<stop stop-color="#B9B8C0"/>
<stop offset="1" stop-color="#57565A"/>
</linearGradient>
<clipPath id="clip0_10025_65217">
<rect width="507.509" height="507.509" fill="white" transform="translate(0 0.912109)"/>
</clipPath>
</defs>
</svg>
