<svg width="512" height="512" viewBox="0 0 512 512" fill="none" xmlns="http://www.w3.org/2000/svg">
<path d="M167.52 270.24L125.12 322.56C130.471 325.795 135.413 329.663 139.84 334.08L177.92 372.16C182.3 376.602 186.214 381.481 189.6 386.72L241.76 344.48L167.52 270.24ZM459.52 68.96L443.52 52.96C437.068 46.2913 429.333 40.9966 420.782 37.3946C412.231 33.7925 403.039 31.9576 393.76 32C383.332 31.9796 373.031 34.2975 363.617 38.7832C354.203 43.2688 345.914 49.8081 339.36 57.92L187.84 245.12L266.88 324.16L454.08 172.64C462.192 166.086 468.731 157.797 473.217 148.383C477.703 138.969 480.02 128.668 480 118.24C480.04 109.076 478.25 99.9959 474.733 91.5334C471.216 83.0708 466.044 75.3962 459.52 68.96ZM128 32C115.342 32 102.968 35.7535 92.4435 42.7859C81.9188 49.8183 73.7157 59.8138 68.8717 71.5083C64.0277 83.2027 62.7603 96.071 65.2297 108.486C67.6992 120.901 73.7946 132.304 82.7452 141.255C91.6957 150.205 103.099 156.301 115.514 158.77C127.929 161.24 140.797 159.972 152.492 155.128C164.186 150.284 174.182 142.081 181.214 131.556C188.246 121.032 192 108.658 192 96C192 79.0261 185.257 62.7475 173.255 50.7452C161.253 38.7428 144.974 32 128 32ZM117.28 356.64L155.36 394.72C160.425 399.264 164.511 404.793 167.368 410.969C170.225 417.145 171.794 423.839 171.978 430.641C172.163 437.443 170.959 444.212 168.44 450.533C165.921 456.855 162.14 462.597 157.329 467.409C152.517 472.22 146.775 476.001 140.453 478.52C134.132 481.039 127.363 482.243 120.561 482.058C113.759 481.874 107.065 480.305 100.889 477.448C94.7132 474.591 89.1843 470.505 84.64 465.44L46.56 427.36C38.0036 417.823 33.4282 405.369 33.775 392.561C34.1219 379.753 39.3647 367.565 48.4248 358.505C57.4848 349.445 69.6728 344.202 82.4809 343.855C95.289 343.508 107.743 348.084 117.28 356.64Z" fill="url(#paint0_linear_10025_21427)"/>
<defs>
<linearGradient id="paint0_linear_10025_21427" x1="256.879" y1="31.9993" x2="256.879" y2="482.077" gradientUnits="userSpaceOnUse">
<stop stop-color="#B9B8C0"/>
<stop offset="1" stop-color="#57565A"/>
</linearGradient>
</defs>
</svg>
