<svg width="508" height="508" viewBox="0 0 508 508" fill="none" xmlns="http://www.w3.org/2000/svg">
<path d="M145.548 344.13L152.367 346.737L150.836 339.605C149.536 333.525 148.561 327.174 147.939 320.715L147.722 318.464L145.676 317.504C101.39 296.758 72.7721 251.675 72.7721 202.646C72.7721 132.523 129.818 75.4813 199.937 75.4813C246.672 75.4813 289.55 101.117 311.84 142.386L312.912 144.374L315.163 144.467C321.579 144.73 327.756 145.334 334.053 146.308L341.235 147.422L338.277 140.785C313.979 86.2492 259.679 51.0137 199.937 51.0137C116.323 51.0137 48.3006 119.033 48.3006 202.646C48.3006 265.042 87.3807 321.906 145.548 344.13Z" fill="url(#paint0_linear_10025_57961)"/>
<path d="M199.937 89.5098C137.521 89.5098 86.7977 140.234 86.7977 202.649C86.7977 243.57 108.652 280.624 143.457 300.59C146.156 216.499 211.719 147.968 294.73 140.863C273.954 108.936 238.79 89.5098 199.937 89.5098ZM157.757 211.643H134.553C129.517 211.643 125.56 207.686 125.56 202.649C125.56 197.702 129.517 193.656 134.553 193.656H157.757C162.704 193.656 166.751 197.702 166.751 202.649C166.751 207.686 162.704 211.643 157.757 211.643ZM176.464 179.176C174.665 180.975 172.417 181.875 170.078 181.875C167.83 181.875 165.491 180.975 163.693 179.176L151.821 167.215C148.314 163.707 148.314 158.041 151.821 154.534C155.329 151.026 160.994 151.026 164.502 154.534L176.464 166.495C179.971 170.003 179.971 175.669 176.464 179.176ZM208.931 160.47C208.931 165.416 204.884 169.463 199.937 169.463C194.991 169.463 190.944 165.416 190.944 160.47V137.356C190.944 132.409 194.991 128.362 199.937 128.362C204.884 128.362 208.931 132.409 208.931 137.356V160.47Z" fill="url(#paint1_linear_10025_57961)"/>
<path d="M308.939 457.534C392.553 457.534 460.576 389.508 460.576 305.894C460.576 222.233 392.553 154.176 308.939 154.176C225.279 154.176 157.214 222.233 157.214 305.894C157.214 389.508 225.279 457.534 308.939 457.534ZM194.519 361.157L194.422 360.762L194.248 360.399C185.971 343.117 181.774 324.784 181.774 305.894C181.774 235.771 238.82 178.729 308.939 178.729C379.058 178.729 436.105 235.771 436.105 305.894C436.105 376.017 379.058 433.067 308.939 433.067C260.488 433.067 216.874 405.922 195.118 362.232L194.519 361.157Z" fill="url(#paint2_linear_10025_57961)"/>
<path d="M308.939 419.037C371.265 419.037 422.079 368.222 422.079 305.896C422.079 243.481 371.265 192.757 308.939 192.757C246.524 192.757 195.8 243.481 195.8 305.896C195.8 368.222 246.524 419.037 308.939 419.037ZM285.466 342.051L273.505 354.012C271.706 355.721 269.457 356.621 267.119 356.621C264.871 356.621 262.533 355.721 260.824 354.012C257.226 350.505 257.226 344.839 260.824 341.241L272.696 329.37C276.203 325.862 281.959 325.862 285.466 329.37C288.974 332.878 288.974 338.543 285.466 342.051ZM384.486 305.896C384.486 310.843 380.439 314.89 375.492 314.89H351.119C346.173 314.89 342.126 310.843 342.126 305.896C342.126 300.86 346.173 296.903 351.119 296.903H375.492C380.439 296.903 384.486 300.86 384.486 305.896ZM332.412 269.652L344.375 257.691C347.882 254.184 353.548 254.184 357.055 257.691C360.563 261.198 360.563 266.954 357.055 270.462L345.094 282.423C343.385 284.132 341.047 285.032 338.798 285.032C336.46 285.032 334.122 284.132 332.412 282.423C328.906 278.916 328.906 273.16 332.412 269.652ZM332.412 329.37C335.921 325.862 341.586 325.862 345.094 329.37L357.055 341.241C360.563 344.839 360.563 350.505 357.055 354.012C355.346 355.721 353.008 356.621 350.67 356.621C348.422 356.621 346.083 355.721 344.375 354.012L332.412 342.051C328.906 338.543 328.906 332.878 332.412 329.37ZM299.946 239.254C299.946 234.308 303.993 230.26 308.939 230.26C313.886 230.26 317.933 234.308 317.933 239.254V263.717C317.933 268.663 313.886 272.71 308.939 272.71C303.993 272.71 299.946 268.663 299.946 263.717V239.254ZM299.946 348.077C299.946 343.13 303.993 339.083 308.939 339.083C313.886 339.083 317.933 343.13 317.933 348.077V372.45C317.933 377.396 313.886 381.443 308.939 381.443C303.993 381.443 299.946 377.396 299.946 372.45V348.077ZM260.824 257.691C264.331 254.184 269.997 254.184 273.505 257.691L285.466 269.652C288.974 273.16 288.974 278.916 285.466 282.423C283.668 284.132 281.419 285.032 279.08 285.032C276.832 285.032 274.494 284.132 272.696 282.423L260.824 270.462C257.226 266.954 257.226 261.198 260.824 257.691ZM242.297 296.903H266.76C271.706 296.903 275.753 300.86 275.753 305.896C275.753 310.843 271.706 314.89 266.76 314.89H242.297C237.35 314.89 233.304 310.843 233.304 305.896C233.304 300.86 237.35 296.903 242.297 296.903Z" fill="url(#paint3_linear_10025_57961)"/>
<defs>
<linearGradient id="paint0_linear_10025_57961" x1="194.768" y1="51.0137" x2="194.768" y2="346.737" gradientUnits="userSpaceOnUse">
<stop stop-color="#B9B8C0"/>
<stop offset="1" stop-color="#57565A"/>
</linearGradient>
<linearGradient id="paint1_linear_10025_57961" x1="190.764" y1="89.5098" x2="190.764" y2="300.59" gradientUnits="userSpaceOnUse">
<stop stop-color="#B9B8C0"/>
<stop offset="1" stop-color="#57565A"/>
</linearGradient>
<linearGradient id="paint2_linear_10025_57961" x1="308.895" y1="154.176" x2="308.895" y2="457.534" gradientUnits="userSpaceOnUse">
<stop stop-color="#B9B8C0"/>
<stop offset="1" stop-color="#57565A"/>
</linearGradient>
<linearGradient id="paint3_linear_10025_57961" x1="308.939" y1="192.757" x2="308.939" y2="419.037" gradientUnits="userSpaceOnUse">
<stop stop-color="#B9B8C0"/>
<stop offset="1" stop-color="#57565A"/>
</linearGradient>
</defs>
</svg>
