<svg width="507" height="507" viewBox="0 0 507 507" fill="none" xmlns="http://www.w3.org/2000/svg">
<path d="M170.577 151.147C172.132 153.158 174.46 154.202 176.82 154.202C178.498 154.202 180.196 153.669 181.635 152.57C185.097 149.925 185.758 144.966 183.136 141.485C182.045 140.038 172.743 127.004 182.749 115.818C197.961 98.8001 189.634 78.355 183.109 69.9154C180.436 66.4654 175.513 65.862 172.051 68.4921C168.589 71.1377 167.928 76.0962 170.55 79.5772C171.645 81.0237 180.947 94.0659 170.937 105.252C155.729 122.262 164.052 142.707 170.577 151.147Z" fill="url(#paint0_linear_10025_57690)"/>
<path d="M247.214 151.148C248.768 153.159 251.097 154.203 253.456 154.203C255.135 154.203 256.833 153.67 258.272 152.571C261.733 149.925 262.395 144.967 259.772 141.486C258.682 140.039 249.38 127.005 259.386 115.812C274.594 98.801 266.27 78.3559 259.745 69.9164C257.084 66.474 252.149 65.8552 248.687 68.493C245.226 71.1386 244.564 76.0971 247.186 79.5781C248.277 81.0247 257.579 94.0669 247.573 105.253C232.365 122.263 240.689 142.708 247.214 151.148Z" fill="url(#paint1_linear_10025_57690)"/>
<path d="M323.85 151.148C325.413 153.159 327.753 154.219 330.12 154.219C331.814 154.219 333.519 153.677 334.962 152.563C338.424 149.887 339.058 144.913 336.382 141.447C335.941 140.883 325.699 127.353 336.022 115.812C351.23 98.801 342.907 78.3559 336.382 69.9164C333.724 66.474 328.789 65.8552 325.324 68.493C321.862 71.1386 321.201 76.0971 323.823 79.5781C324.914 81.0247 334.216 94.0669 324.214 105.253C308.998 122.263 317.325 142.708 323.85 151.148Z" fill="url(#paint2_linear_10025_57690)"/>
<path d="M341.722 315.26C344.97 292.368 344.97 269.079 341.722 246.187C339.662 231.771 327.86 220.918 314.235 220.918H79.133C74.1426 231.295 71.3704 242.939 71.3704 255.217V306.23C71.3704 318.508 74.1426 330.152 79.133 340.529H314.235C327.86 340.529 339.662 329.677 341.722 315.26ZM128.245 305.675C128.245 310.032 124.68 313.596 120.324 313.596H107.966C103.61 313.596 100.045 310.032 100.045 305.675V255.772C100.045 251.415 103.61 247.85 107.966 247.85H120.324C124.68 247.85 128.245 251.415 128.245 255.772V305.675ZM192.407 305.675C192.407 310.032 188.842 313.596 184.485 313.596H172.128C167.772 313.596 164.207 310.032 164.207 305.675V255.772C164.207 251.415 167.772 247.85 172.128 247.85H184.485C188.842 247.85 192.407 251.415 192.407 255.772V305.675ZM256.648 305.675C256.648 310.032 253.083 313.596 248.727 313.596H236.37C231.934 313.596 228.449 310.032 228.449 305.675V255.772C228.449 251.415 231.934 247.85 236.37 247.85H248.727C253.083 247.85 256.648 251.415 256.648 255.772V305.675ZM300.532 313.596C296.175 313.596 292.61 310.032 292.61 305.675V255.772C292.61 251.415 296.175 247.85 300.532 247.85H312.889C317.245 247.85 320.81 251.415 320.81 255.772V305.675C320.81 310.032 317.245 313.596 312.889 313.596H300.532Z" fill="url(#paint3_linear_10025_57690)"/>
<path d="M376.734 175.134H151.533C126.264 175.134 103.689 186.857 89.0345 205.076H314.235C335.623 205.076 354.158 221.79 357.406 243.969C360.891 268.367 360.891 293.081 357.406 317.478C354.158 339.658 335.623 356.371 314.235 356.371H89.0345C103.689 374.59 126.264 386.313 151.533 386.313H376.734C409.211 386.313 435.588 360.015 435.588 327.459V233.988C435.588 201.432 409.211 175.134 376.734 175.134ZM409.924 329.598H377.922C373.565 329.598 370.001 326.033 370.001 321.676C370.001 317.24 373.565 313.755 377.922 313.755H409.924C414.28 313.755 417.845 317.24 417.845 321.676C417.845 326.033 414.28 329.598 409.924 329.598ZM409.924 288.645H377.922C373.565 288.645 370.001 285.08 370.001 280.724C370.001 276.367 373.565 272.802 377.922 272.802H409.924C414.28 272.802 417.845 276.367 417.845 280.724C417.845 285.08 414.28 288.645 409.924 288.645ZM409.924 247.692H377.922C373.565 247.692 370.001 244.206 370.001 239.771C370.001 235.414 373.565 231.849 377.922 231.849H409.924C414.28 231.849 417.845 235.414 417.845 239.771C417.845 244.206 414.28 247.692 409.924 247.692Z" fill="url(#paint4_linear_10025_57690)"/>
<path d="M369.18 402.181H150.649C140.177 402.181 131.689 410.669 131.689 421.141C131.689 431.612 140.177 440.101 150.649 440.101H369.18C379.651 440.101 388.14 431.612 388.14 421.141C388.14 410.669 379.651 402.181 369.18 402.181Z" fill="url(#paint5_linear_10025_57690)"/>
<defs>
<linearGradient id="paint0_linear_10025_57690" x1="176.844" y1="66.8606" x2="176.844" y2="154.202" gradientUnits="userSpaceOnUse">
<stop stop-color="#B9B8C0"/>
<stop offset="1" stop-color="#57565A"/>
</linearGradient>
<linearGradient id="paint1_linear_10025_57690" x1="253.479" y1="66.8606" x2="253.479" y2="154.203" gradientUnits="userSpaceOnUse">
<stop stop-color="#B9B8C0"/>
<stop offset="1" stop-color="#57565A"/>
</linearGradient>
<linearGradient id="paint2_linear_10025_57690" x1="330.115" y1="66.8606" x2="330.115" y2="154.219" gradientUnits="userSpaceOnUse">
<stop stop-color="#B9B8C0"/>
<stop offset="1" stop-color="#57565A"/>
</linearGradient>
<linearGradient id="paint3_linear_10025_57690" x1="207.764" y1="220.918" x2="207.764" y2="340.529" gradientUnits="userSpaceOnUse">
<stop stop-color="#B9B8C0"/>
<stop offset="1" stop-color="#57565A"/>
</linearGradient>
<linearGradient id="paint4_linear_10025_57690" x1="262.312" y1="175.134" x2="262.312" y2="386.313" gradientUnits="userSpaceOnUse">
<stop stop-color="#B9B8C0"/>
<stop offset="1" stop-color="#57565A"/>
</linearGradient>
<linearGradient id="paint5_linear_10025_57690" x1="259.914" y1="402.181" x2="259.914" y2="440.101" gradientUnits="userSpaceOnUse">
<stop stop-color="#B9B8C0"/>
<stop offset="1" stop-color="#57565A"/>
</linearGradient>
</defs>
</svg>
