<svg width="508" height="507" viewBox="0 0 508 507" fill="none" xmlns="http://www.w3.org/2000/svg">
<path d="M85.4351 205.672C84.9942 205.108 74.7523 191.578 85.0754 180.044C100.284 163.034 91.9601 142.589 85.4351 134.149C82.7741 130.707 77.8465 130.096 74.3771 132.726C70.9154 135.371 70.254 140.33 72.8764 143.811C73.9671 145.257 83.2692 158.292 73.267 169.478C58.0512 186.488 66.3785 206.933 72.9035 215.373C74.4661 217.384 76.8061 218.444 79.1732 218.444C80.8673 218.444 82.573 217.902 84.0156 216.788C87.4773 214.112 88.1116 209.138 85.4351 205.672Z" fill="url(#paint0_linear_10025_57698)"/>
<path d="M125.339 132.734C121.878 135.411 121.243 140.385 123.92 143.85C124.361 144.415 134.603 157.944 124.279 169.478C109.071 186.489 117.395 206.934 123.92 215.373C125.475 217.385 127.803 218.429 130.162 218.429C131.841 218.429 133.539 217.895 134.978 216.797C138.439 214.151 139.101 209.193 136.478 205.712C135.388 204.265 126.086 191.231 136.088 180.045C151.304 163.034 142.976 142.589 136.451 134.15C133.767 130.7 128.793 130.065 125.339 132.734Z" fill="url(#paint1_linear_10025_57698)"/>
<path d="M435.613 169.478C425.611 158.292 434.909 145.258 435.977 143.85C438.654 140.385 438.019 135.411 434.561 132.734C431.096 130.065 426.137 130.7 423.445 134.15C416.917 142.589 408.593 163.034 423.809 180.045C433.788 191.207 424.544 204.211 423.422 205.704C420.769 209.162 421.411 214.12 424.869 216.789C426.308 217.903 428.009 218.444 429.703 218.444C432.071 218.444 434.414 217.385 435.977 215.366C442.498 206.934 450.822 186.489 435.613 169.478Z" fill="url(#paint2_linear_10025_57698)"/>
<path d="M372.398 205.711C369.753 209.169 370.395 214.12 373.837 216.788C375.284 217.902 376.986 218.444 378.68 218.444C381.047 218.444 383.391 217.384 384.953 215.373C391.482 206.933 399.806 186.488 384.59 169.478C374.588 158.3 383.886 145.257 384.953 143.842C387.63 140.384 386.995 135.41 383.53 132.734C380.08 130.065 375.106 130.699 372.422 134.157C365.9 142.589 357.577 163.034 372.785 180.044C382.78 191.215 373.505 204.241 372.398 205.711Z" fill="url(#paint3_linear_10025_57698)"/>
<path d="M205.563 255.188V212.492C205.563 208.135 209.128 204.571 213.485 204.571C217.841 204.571 221.406 208.135 221.406 212.492V254.712C232.416 254.395 243.506 254.237 254.437 254.237C265.369 254.237 276.379 254.395 287.469 254.712V212.492C287.469 208.135 291.033 204.571 295.39 204.571C299.747 204.571 303.311 208.135 303.311 212.492V255.188C312.183 255.425 321.134 255.821 330.006 256.296C332.541 256.455 335.075 256.851 337.61 257.484V206.076C337.61 176.371 313.53 152.29 283.825 152.29H225.049C195.345 152.29 171.264 176.371 171.264 206.076V257.405C173.799 256.851 176.334 256.455 178.948 256.296C187.741 255.821 196.612 255.425 205.563 255.188Z" fill="url(#paint4_linear_10025_57698)"/>
<path d="M337.611 274.123C334.997 273.014 332.145 272.301 329.135 272.142C279.311 269.449 229.565 269.449 179.741 272.142C176.731 272.301 173.879 273.014 171.265 274.123C161.68 278.083 155.106 287.509 155.106 298.441V337.889C155.106 348.82 165.641 356.345 176.017 353.098C183.067 350.879 191.227 348.978 199.623 348.344C209.207 347.632 219.03 348.582 227.743 352.622C232.575 354.919 242.397 357.296 254.438 357.771C265.211 358.246 277.806 357.296 290.4 353.573C296.579 351.751 302.995 351.038 309.253 351.117C318.046 351.117 326.442 352.543 333.571 354.444C343.79 357.058 353.77 349.533 353.77 338.918V298.441C353.77 287.509 347.196 278.083 337.611 274.123Z" fill="url(#paint5_linear_10025_57698)"/>
<path d="M369.613 298.441V338.919V339.077H388.604V432.154H419.794V339.077H428.705V295.035H369.534C369.534 296.144 369.613 297.253 369.613 298.441Z" fill="url(#paint6_linear_10025_57698)"/>
<path d="M139.343 295.035H80.1712V339.077H89.0826V432.154H120.272V339.077H139.343C139.264 338.681 139.264 338.285 139.264 337.889V298.441C139.264 297.253 139.343 296.144 139.343 295.035Z" fill="url(#paint7_linear_10025_57698)"/>
<path d="M331.423 424.227H309.253V366.959H308.303C303.471 366.959 298.956 367.593 294.836 368.781C283.747 372.029 271.865 373.692 259.587 373.692H259.349V424.227H248.497V373.217C237.645 372.346 227.665 370.128 220.932 366.959C216.733 364.979 211.426 363.949 205.327 363.949C203.822 363.949 202.316 364.029 200.811 364.108C200.415 364.108 200.019 364.187 199.624 364.266V424.227H177.454C173.079 424.227 169.533 427.77 169.533 432.148C169.533 436.526 173.079 440.069 177.454 440.069H331.423C335.801 440.069 339.344 436.526 339.344 432.148C339.344 427.77 335.801 424.227 331.423 424.227Z" fill="url(#paint8_linear_10025_57698)"/>
<path d="M254.438 147.09C276.583 147.09 294.536 129.138 294.536 106.993C294.536 84.8474 276.583 66.8953 254.438 66.8953C232.293 66.8953 214.341 84.8474 214.341 106.993C214.341 129.138 232.293 147.09 254.438 147.09Z" fill="url(#paint9_linear_10025_57698)"/>
<defs>
<linearGradient id="paint0_linear_10025_57698" x1="79.1689" y1="131.097" x2="79.1689" y2="218.444" gradientUnits="userSpaceOnUse">
<stop stop-color="#B9B8C0"/>
<stop offset="1" stop-color="#57565A"/>
</linearGradient>
<linearGradient id="paint1_linear_10025_57698" x1="130.186" y1="131.083" x2="130.186" y2="218.429" gradientUnits="userSpaceOnUse">
<stop stop-color="#B9B8C0"/>
<stop offset="1" stop-color="#57565A"/>
</linearGradient>
<linearGradient id="paint2_linear_10025_57698" x1="429.708" y1="131.083" x2="429.708" y2="218.444" gradientUnits="userSpaceOnUse">
<stop stop-color="#B9B8C0"/>
<stop offset="1" stop-color="#57565A"/>
</linearGradient>
<linearGradient id="paint3_linear_10025_57698" x1="378.69" y1="131.083" x2="378.69" y2="218.444" gradientUnits="userSpaceOnUse">
<stop stop-color="#B9B8C0"/>
<stop offset="1" stop-color="#57565A"/>
</linearGradient>
<linearGradient id="paint4_linear_10025_57698" x1="254.437" y1="152.29" x2="254.437" y2="257.484" gradientUnits="userSpaceOnUse">
<stop stop-color="#B9B8C0"/>
<stop offset="1" stop-color="#57565A"/>
</linearGradient>
<linearGradient id="paint5_linear_10025_57698" x1="254.438" y1="270.123" x2="254.438" y2="357.884" gradientUnits="userSpaceOnUse">
<stop stop-color="#B9B8C0"/>
<stop offset="1" stop-color="#57565A"/>
</linearGradient>
<linearGradient id="paint6_linear_10025_57698" x1="399.12" y1="295.035" x2="399.12" y2="432.154" gradientUnits="userSpaceOnUse">
<stop stop-color="#B9B8C0"/>
<stop offset="1" stop-color="#57565A"/>
</linearGradient>
<linearGradient id="paint7_linear_10025_57698" x1="109.757" y1="295.035" x2="109.757" y2="432.154" gradientUnits="userSpaceOnUse">
<stop stop-color="#B9B8C0"/>
<stop offset="1" stop-color="#57565A"/>
</linearGradient>
<linearGradient id="paint8_linear_10025_57698" x1="254.438" y1="363.949" x2="254.438" y2="440.069" gradientUnits="userSpaceOnUse">
<stop stop-color="#B9B8C0"/>
<stop offset="1" stop-color="#57565A"/>
</linearGradient>
<linearGradient id="paint9_linear_10025_57698" x1="254.438" y1="66.8953" x2="254.438" y2="147.09" gradientUnits="userSpaceOnUse">
<stop stop-color="#B9B8C0"/>
<stop offset="1" stop-color="#57565A"/>
</linearGradient>
</defs>
</svg>
