<svg width="512" height="512" viewBox="0 0 512 512" fill="none" xmlns="http://www.w3.org/2000/svg">
<g clip-path="url(#clip0_10025_62617)">
<path d="M372.435 0.0101904H300.133C295.258 0.0101904 291.305 3.96219 291.305 8.83819C291.305 13.7132 295.257 17.6662 300.133 17.6662H372.435C429.226 16.9872 475.855 62.3952 476.685 119.183C475.167 169.649 437.839 211.838 387.934 219.491C343.805 226.259 300.984 204.305 280.201 166.161L409.232 124.657L368.611 114.502C365.387 113.695 362.89 111.145 362.15 107.906C361.41 104.667 362.55 101.285 365.103 99.1572L399.336 70.6312H203.03C193.284 70.6422 185.386 78.5402 185.375 88.2862V95.8122C185.35 123.702 193.605 150.972 209.095 174.166L210.108 175.675C213.648 181.052 219.848 184.06 226.263 183.511L263.06 171.675C283.625 212.461 325.791 238.761 372.435 238.356C438.974 239.028 493.504 185.72 494.34 119.184C493.504 52.6462 438.974 -0.66181 372.435 0.0101904ZM300.837 93.7612C301.285 92.6902 301.913 91.7052 302.694 90.8472C305.229 88.3382 309.028 87.6062 312.315 88.9932C314.532 89.7972 316.278 91.5432 317.082 93.7602C317.577 94.8072 317.82 95.9562 317.79 97.1142C317.808 98.2622 317.597 99.4022 317.169 100.467C316.656 101.521 316.004 102.501 315.23 103.381C312.264 106.402 307.568 106.886 304.048 104.533C300.528 102.18 299.179 97.6562 300.837 93.7612Z" fill="url(#paint0_linear_10025_62617)"/>
<path d="M105.927 304.761C105.927 215.776 149.283 183.673 187.567 172.623C174.54 149.119 167.71 122.686 167.72 95.8131V90.7031C130.538 100.106 96.7561 119.792 70.2451 147.506C75.5241 161.084 86.2901 171.802 99.8921 177.02C102.891 178.011 105.132 180.53 105.768 183.624C106.404 186.718 105.336 189.916 102.97 192.009C100.604 194.102 97.2991 194.77 94.3061 193.761C78.5431 188.195 65.4581 176.892 57.6591 162.106C45.7951 177.174 36.2771 193.95 29.4291 211.864C29.5311 211.998 29.6841 212.068 29.7791 212.209C38.4561 224.019 51.7221 231.609 66.3011 233.106C71.0691 233.374 74.7581 237.386 74.6281 242.159C74.4971 246.932 70.5941 250.736 65.8191 250.743C65.6511 250.743 65.4871 250.734 65.3191 250.725C49.4791 249.6 34.5781 242.791 23.3611 231.551C19.6201 246.038 17.7021 260.936 17.6511 275.898C17.6511 279.412 17.7661 282.9 17.9651 286.368C27.1061 295.944 39.6321 301.562 52.8631 302.019C53.2211 302.019 53.5781 301.993 53.9581 302.01C58.7981 302.01 62.7351 305.906 62.7861 310.746C62.8371 315.586 58.9821 319.564 54.1431 319.665C53.7031 319.674 53.2641 319.674 52.8281 319.674C41.6581 319.611 30.7051 316.579 21.0931 310.889C38.0261 397.426 116.501 463.78 211.859 467.661V449.726C149.072 444.716 105.927 386.606 105.927 304.761Z" fill="url(#paint1_linear_10025_62617)"/>
<path d="M264.272 507.871C266.473 510.442 269.672 511.946 273.056 512C276.603 511.625 279.848 509.835 282.056 507.034L294.363 491.692L243.926 487.488L264.272 507.871Z" fill="url(#paint2_linear_10025_62617)"/>
<path d="M273.056 406.089L272.797 406.08C269.526 406.296 266.468 407.781 264.276 410.218L243.928 430.599L294.355 426.396L281.776 410.726C279.597 408.088 276.462 406.42 273.056 406.089Z" fill="url(#paint3_linear_10025_62617)"/>
<path d="M300.961 443.553L229.513 449.51V468.579L300.961 474.536C306.802 475.021 312.42 472.179 315.489 467.186C318.559 462.193 318.559 455.897 315.489 450.904C312.42 445.911 306.803 443.068 300.961 443.553Z" fill="url(#paint4_linear_10025_62617)"/>
</g>
<defs>
<linearGradient id="paint0_linear_10025_62617" x1="339.858" y1="0.00390625" x2="339.858" y2="238.362" gradientUnits="userSpaceOnUse">
<stop stop-color="#B9B8C0"/>
<stop offset="1" stop-color="#57565A"/>
</linearGradient>
<linearGradient id="paint1_linear_10025_62617" x1="114.755" y1="90.7031" x2="114.755" y2="467.661" gradientUnits="userSpaceOnUse">
<stop stop-color="#B9B8C0"/>
<stop offset="1" stop-color="#57565A"/>
</linearGradient>
<linearGradient id="paint2_linear_10025_62617" x1="269.145" y1="487.488" x2="269.145" y2="512" gradientUnits="userSpaceOnUse">
<stop stop-color="#B9B8C0"/>
<stop offset="1" stop-color="#57565A"/>
</linearGradient>
<linearGradient id="paint3_linear_10025_62617" x1="269.142" y1="406.08" x2="269.142" y2="430.599" gradientUnits="userSpaceOnUse">
<stop stop-color="#B9B8C0"/>
<stop offset="1" stop-color="#57565A"/>
</linearGradient>
<linearGradient id="paint4_linear_10025_62617" x1="273.652" y1="443.5" x2="273.652" y2="474.59" gradientUnits="userSpaceOnUse">
<stop stop-color="#B9B8C0"/>
<stop offset="1" stop-color="#57565A"/>
</linearGradient>
<clipPath id="clip0_10025_62617">
<rect width="511.998" height="511.998" fill="white" transform="translate(-0.00292969 0.00390625)"/>
</clipPath>
</defs>
</svg>
