<svg width="512" height="512" viewBox="0 0 512 512" fill="none" xmlns="http://www.w3.org/2000/svg">
<g clip-path="url(#clip0_10025_62560)">
<path d="M91.9821 450.127C94.3041 464.871 103.1 477.379 119.315 484.053C123.578 485.825 127.928 492.3 127.928 497.002C127.928 505.293 134.637 512.002 142.928 512.002H367.694C375.985 512.002 382.694 505.19 382.694 496.899C382.694 492.299 387.045 485.825 391.307 484.067C405.445 478.228 413.829 467.663 417.861 450.127H91.9821Z" fill="url(#paint0_linear_10025_62560)"/>
<path d="M256 166.002C226.518 166.002 201.204 183.254 188.956 208.059C194.819 222.528 205.082 232.929 218.764 237.149C233.002 241.558 248.544 238.599 260.19 229.283C279.244 214.054 303.853 209.72 326.284 215.649C315.833 186.795 288.415 166.002 256 166.002Z" fill="url(#paint1_linear_10025_62560)"/>
<path d="M278.925 252.721C259.27 268.445 233.366 273.093 209.931 265.817C199.247 262.527 189.941 256.607 181.832 249.217C185.984 286.667 217.46 316.002 256 316.002C294.278 316.002 325.595 287.064 330.092 249.978C314.189 240.352 293.861 240.782 278.925 252.721Z" fill="url(#paint2_linear_10025_62560)"/>
<path d="M392.064 30.002H406C414.291 30.002 421 23.293 421 15.002C421 6.71095 414.291 0.00195312 406 0.00195312H106C97.709 0.00195312 91 6.71095 91 15.002C91 23.293 97.709 30.002 106 30.002H118.548C100.151 44.187 91.199 62.692 91.199 82.663V418.927H420.81C420.81 418.751 420.825 418.607 420.825 418.429V82.663C420.824 62.684 410.473 44.185 392.064 30.002ZM256 346.002C198.109 346.002 151 298.893 151 241.002C151 183.111 198.109 136.002 256 136.002C313.891 136.002 361 183.111 361 241.002C361 298.893 313.891 346.002 256 346.002Z" fill="url(#paint3_linear_10025_62560)"/>
</g>
<defs>
<linearGradient id="paint0_linear_10025_62560" x1="254.922" y1="450.127" x2="254.922" y2="512.002" gradientUnits="userSpaceOnUse">
<stop stop-color="#B9B8C0"/>
<stop offset="1" stop-color="#57565A"/>
</linearGradient>
<linearGradient id="paint1_linear_10025_62560" x1="257.62" y1="166.002" x2="257.62" y2="239.156" gradientUnits="userSpaceOnUse">
<stop stop-color="#B9B8C0"/>
<stop offset="1" stop-color="#57565A"/>
</linearGradient>
<linearGradient id="paint2_linear_10025_62560" x1="255.962" y1="243.219" x2="255.962" y2="316.002" gradientUnits="userSpaceOnUse">
<stop stop-color="#B9B8C0"/>
<stop offset="1" stop-color="#57565A"/>
</linearGradient>
<linearGradient id="paint3_linear_10025_62560" x1="256" y1="0.00195312" x2="256" y2="418.927" gradientUnits="userSpaceOnUse">
<stop stop-color="#B9B8C0"/>
<stop offset="1" stop-color="#57565A"/>
</linearGradient>
<clipPath id="clip0_10025_62560">
<rect width="512" height="512" fill="white" transform="translate(0 0.00195312)"/>
</clipPath>
</defs>
</svg>
