<svg width="512" height="512" viewBox="0 0 512 512" fill="none" xmlns="http://www.w3.org/2000/svg">
<g clip-path="url(#clip0_10025_62641)">
<path d="M194.802 153.259C201.388 131.92 211.242 111.731 224.014 93.4111C218.881 80.9891 212.381 69.1761 204.635 58.1911C202.32 54.7741 199.835 51.4751 197.189 48.3071C196.116 46.4461 194.133 45.2971 191.985 45.2891C189.837 45.2821 187.847 46.4181 186.76 48.2711C169.11 70.3761 156.462 96.0451 149.687 123.51L166.201 149.932C175.419 144.58 187.059 145.935 194.802 153.259Z" fill="url(#paint0_linear_10025_62641)"/>
<path d="M115.521 249.246C121.818 218.323 134.642 189.1 153.137 163.53L120.912 111.979C107.396 150.141 100.502 190.333 100.528 230.818V241.144L103.287 242.523C107.462 244.621 111.54 246.863 115.521 249.246Z" fill="url(#paint1_linear_10025_62641)"/>
<path d="M251.389 91.4688C249.251 91.4688 247.273 92.5997 246.188 94.4417C228.155 117.049 215.322 143.35 208.601 171.475C217.139 185.037 224.522 199.294 230.67 214.093C233.964 223.025 236.736 232.141 238.972 241.395C249.513 235.46 262.387 235.458 272.93 241.389C277.993 220.578 285.943 200.579 296.549 181.972C294.153 170.222 290.862 158.672 286.706 147.423C279.661 128.221 269.485 110.318 256.59 94.4408C255.505 92.5998 253.527 91.4688 251.389 91.4688Z" fill="url(#paint2_linear_10025_62641)"/>
<path d="M386.108 214.129C390.392 225.565 393.832 237.3 396.4 249.239C400.378 246.859 404.449 244.608 408.625 242.521L411.384 241.142V230.816C411.41 190.331 404.516 150.139 391 111.977L381.498 127.179L381.46 127.237L358.739 163.586C370.168 179.08 379.379 196.091 386.108 214.129Z" fill="url(#paint3_linear_10025_62641)"/>
<path d="M285.928 104.488C293.033 116.061 299.025 128.282 303.822 140.986C306.271 147.509 308.451 154.257 310.382 161.162C311.708 159.43 312.972 157.633 314.357 155.95C321.844 146.403 335.222 143.835 345.711 149.932L363.728 121.104C356.863 94.696 344.5 70.035 327.447 48.736C326.367 46.889 324.388 45.753 322.249 45.752C320.109 45.75 318.129 46.883 317.046 48.728C313.885 52.594 310.939 56.532 308.323 60.389C299.544 73.262 292.353 87.149 286.903 101.747L285.928 104.488Z" fill="url(#paint4_linear_10025_62641)"/>
<path d="M270.689 82.7981C271.651 83.9621 272.503 85.2541 273.441 86.4491C278.2 75.2291 283.926 64.4441 290.555 54.2161C283.57 35.6811 273.646 18.3921 261.162 3.01306C260.077 1.17006 258.099 0.0390625 255.961 0.0390625C253.823 0.0390625 251.845 1.17006 250.76 3.01206C238.831 17.7321 229.263 34.2171 222.397 51.8751C228.013 60.2181 232.98 68.9801 237.253 78.0851C247.854 70.4171 262.62 72.4981 270.689 82.7981Z" fill="url(#paint5_linear_10025_62641)"/>
<path d="M117.233 272.245C117.045 272.133 116.9 271.984 116.722 271.859C109.859 266.988 102.633 262.648 95.108 258.879L86.431 254.539C98.995 300.109 127.601 339.606 166.98 365.755C168.367 356.825 170.352 347.998 172.922 339.334L164.403 324.423C152.639 303.823 136.545 286.021 117.233 272.245Z" fill="url(#paint6_linear_10025_62641)"/>
<path d="M379.956 260.468C377.494 246.872 373.828 233.522 369.001 220.575C362.495 203.058 353.407 186.613 342.039 171.783C340.666 170.764 339.617 169.37 339.016 167.769L338.876 167.584C337.791 165.742 335.813 164.611 333.675 164.611C331.537 164.611 329.559 165.742 328.474 167.584C323.181 174.028 318.362 180.846 314.054 187.986C301.884 208.652 293.273 231.215 288.579 254.734C306.435 272.571 320.769 293.613 330.831 316.759L331.635 315.353C343.868 293.98 360.306 275.309 379.956 260.468Z" fill="url(#paint7_linear_10025_62641)"/>
<path d="M416.804 258.879C409.279 262.648 402.053 266.987 395.19 271.859C395.011 271.984 394.866 272.134 394.679 272.245C375.366 286.021 359.273 303.823 347.509 324.423L338.99 339.334C341.562 347.999 343.548 356.827 344.935 365.758C384.317 339.61 412.923 300.11 425.483 254.537L416.804 258.879Z" fill="url(#paint8_linear_10025_62641)"/>
<path d="M320.243 340.162C310.833 311.239 294.334 285.132 272.251 264.218L270.367 262.504C269.269 261.495 268.162 260.477 267.019 259.495C266.769 259.281 266.528 259.049 266.305 258.816C260.241 253.993 251.65 253.997 245.591 258.825C245.377 259.057 245.136 259.28 244.895 259.495C243.752 260.477 242.645 261.495 241.547 262.504L239.484 264.379C217.484 285.259 201.049 311.304 191.671 340.149C191.575 340.541 191.452 340.925 191.303 341.3C187.754 352.438 185.27 363.886 183.883 375.493C206.198 386.92 230.886 392.942 255.957 393.076C281.028 392.943 305.717 386.921 328.034 375.495C326.649 363.886 324.163 352.435 320.61 341.296C320.462 340.926 320.34 340.548 320.243 340.162Z" fill="url(#paint9_linear_10025_62641)"/>
<path d="M227.351 408.775L219.867 504.691C242.95 514.387 268.963 514.387 292.046 504.691L284.562 408.776C265.647 412.223 246.265 412.222 227.351 408.775Z" fill="url(#paint10_linear_10025_62641)"/>
<path d="M213.572 220.594C207.263 205.541 199.676 191.057 190.893 177.299C188.616 174.067 186.072 170.71 183.5 167.656C182.438 165.776 180.452 164.608 178.293 164.594C176.134 164.579 174.132 165.72 173.045 167.585L172.887 167.793C172.273 169.431 171.19 170.853 169.773 171.88C150.428 198.059 137.486 228.407 131.984 260.49C151.622 275.329 168.05 293.992 180.277 315.354L181.078 316.756C191.133 293.605 205.467 272.559 223.328 254.725C220.963 243.112 217.701 231.701 213.572 220.594Z" fill="url(#paint11_linear_10025_62641)"/>
</g>
<defs>
<linearGradient id="paint0_linear_10025_62641" x1="186.85" y1="45.2891" x2="186.85" y2="153.259" gradientUnits="userSpaceOnUse">
<stop stop-color="#B9B8C0"/>
<stop offset="1" stop-color="#57565A"/>
</linearGradient>
<linearGradient id="paint1_linear_10025_62641" x1="126.832" y1="111.979" x2="126.832" y2="249.246" gradientUnits="userSpaceOnUse">
<stop stop-color="#B9B8C0"/>
<stop offset="1" stop-color="#57565A"/>
</linearGradient>
<linearGradient id="paint2_linear_10025_62641" x1="252.575" y1="91.4687" x2="252.575" y2="241.395" gradientUnits="userSpaceOnUse">
<stop stop-color="#B9B8C0"/>
<stop offset="1" stop-color="#57565A"/>
</linearGradient>
<linearGradient id="paint3_linear_10025_62641" x1="385.061" y1="111.977" x2="385.061" y2="249.239" gradientUnits="userSpaceOnUse">
<stop stop-color="#B9B8C0"/>
<stop offset="1" stop-color="#57565A"/>
</linearGradient>
<linearGradient id="paint4_linear_10025_62641" x1="324.828" y1="45.752" x2="324.828" y2="161.162" gradientUnits="userSpaceOnUse">
<stop stop-color="#B9B8C0"/>
<stop offset="1" stop-color="#57565A"/>
</linearGradient>
<linearGradient id="paint5_linear_10025_62641" x1="256.476" y1="0.0390625" x2="256.476" y2="86.4491" gradientUnits="userSpaceOnUse">
<stop stop-color="#B9B8C0"/>
<stop offset="1" stop-color="#57565A"/>
</linearGradient>
<linearGradient id="paint6_linear_10025_62641" x1="129.676" y1="254.539" x2="129.676" y2="365.755" gradientUnits="userSpaceOnUse">
<stop stop-color="#B9B8C0"/>
<stop offset="1" stop-color="#57565A"/>
</linearGradient>
<linearGradient id="paint7_linear_10025_62641" x1="334.267" y1="164.611" x2="334.267" y2="316.759" gradientUnits="userSpaceOnUse">
<stop stop-color="#B9B8C0"/>
<stop offset="1" stop-color="#57565A"/>
</linearGradient>
<linearGradient id="paint8_linear_10025_62641" x1="382.236" y1="254.537" x2="382.236" y2="365.758" gradientUnits="userSpaceOnUse">
<stop stop-color="#B9B8C0"/>
<stop offset="1" stop-color="#57565A"/>
</linearGradient>
<linearGradient id="paint9_linear_10025_62641" x1="255.958" y1="255.201" x2="255.958" y2="393.076" gradientUnits="userSpaceOnUse">
<stop stop-color="#B9B8C0"/>
<stop offset="1" stop-color="#57565A"/>
</linearGradient>
<linearGradient id="paint10_linear_10025_62641" x1="255.956" y1="408.775" x2="255.956" y2="511.963" gradientUnits="userSpaceOnUse">
<stop stop-color="#B9B8C0"/>
<stop offset="1" stop-color="#57565A"/>
</linearGradient>
<linearGradient id="paint11_linear_10025_62641" x1="177.656" y1="164.594" x2="177.656" y2="316.756" gradientUnits="userSpaceOnUse">
<stop stop-color="#B9B8C0"/>
<stop offset="1" stop-color="#57565A"/>
</linearGradient>
<clipPath id="clip0_10025_62641">
<rect width="511.924" height="511.924" fill="white" transform="translate(-0.00500488 0.0390625)"/>
</clipPath>
</defs>
</svg>
