<svg width="512" height="512" viewBox="0 0 512 512" fill="none" xmlns="http://www.w3.org/2000/svg">
<g clip-path="url(#clip0_10025_62672)">
<path d="M204.872 238.857C202.948 218.602 189.247 201.293 169.821 194.838C164.974 193.205 159.924 192.268 154.821 192.052C154.092 192.021 153.362 192.005 152.631 192.003C137.665 191.93 123.435 198.492 113.774 209.923L54.8949 277.489C34.6539 302.349 31.0299 336.827 45.6609 365.352C60.5399 393.95 90.2259 411.761 122.461 411.432H127.672C173.379 411.419 210.443 374.396 210.507 328.689L205.021 240.826C204.984 240.167 204.934 239.51 204.872 238.857ZM122.461 393.146C97.2039 393.511 73.8819 379.659 62.1179 357.306C50.5819 335.316 53.2429 308.57 68.8839 289.283C70.8709 286.686 74.0959 285.35 77.3369 285.782C80.5789 286.214 83.3409 288.347 84.5789 291.374C85.8169 294.401 85.3399 297.859 83.3299 300.438C71.9869 314.198 70.0729 333.445 78.4839 349.169C87.1169 365.349 104.127 375.286 122.46 374.86C127.509 374.86 131.603 378.953 131.603 384.003C131.603 389.053 127.511 393.146 122.461 393.146Z" fill="url(#paint0_linear_10025_62672)"/>
<path d="M200.723 64.0021C186.57 63.9651 173.185 70.4381 164.426 81.5561L26.826 254.539C-1.66105 290.37 -7.12405 339.347 12.769 380.574C32.662 421.802 74.3989 448.004 120.175 448.002H127.855C193.668 447.925 247.001 394.592 247.078 328.779V110.357C247.013 84.7831 226.298 64.0671 200.723 64.0021ZM199.28 399.881C180.314 418.932 154.555 429.665 127.672 429.717H122.461C83.287 430.044 47.261 408.302 29.295 373.488C11.354 338.495 15.878 296.193 40.815 265.786L100.061 197.944C118.778 176.457 148.615 168.396 175.605 177.533C202.595 186.67 221.4 211.198 223.216 239.636L228.793 328.139C228.862 355.021 218.246 380.829 199.28 399.881Z" fill="url(#paint1_linear_10025_62672)"/>
<path d="M485.616 254.539L348.016 81.4642C335.728 66.0582 315.047 60.0982 296.444 66.6012C277.841 73.1042 265.378 90.6512 265.364 110.357V328.779C265.441 394.592 318.774 447.925 384.587 448.002H392.267C438.043 448.004 479.78 421.802 499.673 380.574C519.566 339.347 514.104 290.371 485.616 254.539ZM483.239 372.574C466.833 407.891 431.205 430.27 392.267 429.717H384.587C328.86 429.67 283.696 384.507 283.65 328.78V110.357C283.667 98.4142 291.229 87.7852 302.507 83.8542C313.785 79.9232 326.316 83.5482 333.753 92.8932L471.353 265.877C495.951 296.01 500.603 337.765 483.239 372.574Z" fill="url(#paint2_linear_10025_62672)"/>
<path d="M319.398 104.23C316.789 100.993 312.425 99.7504 308.503 101.126C304.58 102.502 301.95 106.2 301.935 110.356V328.779C302.017 374.392 338.973 411.348 384.586 411.43H392.266C424.006 411.44 452.95 393.277 466.745 364.692C480.54 336.107 476.753 302.147 456.997 277.304L319.398 104.23Z" fill="url(#paint3_linear_10025_62672)"/>
</g>
<defs>
<linearGradient id="paint0_linear_10025_62672" x1="123.632" y1="192.002" x2="123.632" y2="411.436" gradientUnits="userSpaceOnUse">
<stop stop-color="#B9B8C0"/>
<stop offset="1" stop-color="#57565A"/>
</linearGradient>
<linearGradient id="paint1_linear_10025_62672" x1="123.998" y1="64.002" x2="123.998" y2="448.002" gradientUnits="userSpaceOnUse">
<stop stop-color="#B9B8C0"/>
<stop offset="1" stop-color="#57565A"/>
</linearGradient>
<linearGradient id="paint2_linear_10025_62672" x1="388.444" y1="64" x2="388.444" y2="448.002" gradientUnits="userSpaceOnUse">
<stop stop-color="#B9B8C0"/>
<stop offset="1" stop-color="#57565A"/>
</linearGradient>
<linearGradient id="paint3_linear_10025_62672" x1="388.449" y1="100.572" x2="388.449" y2="411.43" gradientUnits="userSpaceOnUse">
<stop stop-color="#B9B8C0"/>
<stop offset="1" stop-color="#57565A"/>
</linearGradient>
<clipPath id="clip0_10025_62672">
<rect width="510.604" height="510.604" fill="white" transform="translate(0.918945 0.699219)"/>
</clipPath>
</defs>
</svg>
