<svg width="513" height="512" viewBox="0 0 513 512" fill="none" xmlns="http://www.w3.org/2000/svg">
<g clip-path="url(#clip0_10025_62695)">
<path d="M423.234 329.145H398.841L354.955 402.288H379.348L423.234 329.145Z" fill="url(#paint0_linear_10025_62695)"/>
<path d="M331.805 329.145H307.412L263.526 402.288H287.92L331.805 329.145Z" fill="url(#paint1_linear_10025_62695)"/>
<path d="M377.52 329.145H353.126L309.241 402.288H333.634L377.52 329.145Z" fill="url(#paint2_linear_10025_62695)"/>
<path d="M449.454 402.476L444.413 329.385L400.671 402.289H448.523C448.837 402.334 449.148 402.397 449.454 402.476Z" fill="url(#paint3_linear_10025_62695)"/>
<path d="M256.523 137.145C221.578 137.145 213.364 181.529 211.429 201.145H301.6C299.627 181.522 291.344 137.145 256.523 137.145ZM244.729 180.208C241.124 183.744 235.352 183.744 231.747 180.208C230.944 179.296 230.265 178.281 229.729 177.19C229.291 176.085 229.076 174.905 229.095 173.716C229.127 171.295 230.074 168.976 231.746 167.225C233.928 165.054 237.054 164.125 240.067 164.752C240.638 164.857 241.192 165.043 241.71 165.306C242.293 165.503 242.845 165.78 243.353 166.127C243.833 166.465 244.292 166.832 244.729 167.225C245.556 168.099 246.208 169.123 246.649 170.243C248.108 173.644 247.348 177.592 244.729 180.208ZM281.3 180.208C279.578 181.925 277.24 182.88 274.809 182.859C273.61 182.888 272.421 182.637 271.336 182.127C270.228 181.664 269.207 181.015 268.318 180.207C267.512 179.317 266.863 178.296 266.398 177.189C265.422 174.976 265.422 172.455 266.398 170.243C266.861 169.135 267.51 168.114 268.318 167.225C270.948 164.633 274.878 163.876 278.282 165.305C279.4 165.748 280.424 166.4 281.3 167.225C282.108 168.114 282.758 169.134 283.22 170.243C284.196 172.456 284.196 174.977 283.22 177.189C282.755 178.297 282.106 179.317 281.3 180.208Z" fill="url(#paint4_linear_10025_62695)"/>
<path d="M385.766 73.1445C409.129 108.355 421.432 149.747 421.094 192.002C421.435 234.257 409.133 275.649 385.769 310.859H443.135L441.13 281.788C439.96 264.617 439.96 247.387 441.13 230.217L451.964 73.1455L385.766 73.1445Z" fill="url(#paint5_linear_10025_62695)"/>
<path d="M194.662 329.145H170.269L126.384 402.288H150.777L194.662 329.145Z" fill="url(#paint6_linear_10025_62695)"/>
<path d="M59.82 54.859H453.226L456.335 9.77895C456.512 7.25095 455.631 4.76195 453.903 2.90895C452.175 1.05495 449.754 0.00195312 447.219 0.00195312H65.827C63.294 0.00195312 60.875 1.05295 59.147 2.90495C57.419 4.75695 56.537 7.24295 56.711 9.76995L59.82 54.859ZM238.237 18.288H274.808C279.857 18.288 283.951 22.381 283.951 27.431C283.951 32.48 279.858 36.574 274.808 36.574H238.237C233.188 36.574 229.094 32.481 229.094 27.431C229.094 22.381 233.188 18.288 238.237 18.288Z" fill="url(#paint7_linear_10025_62695)"/>
<path d="M148.948 329.145H145.593L145.538 329.154L145.501 329.145H124.555L80.6689 402.288H105.062L148.948 329.145Z" fill="url(#paint8_linear_10025_62695)"/>
<path d="M64.157 394.269L103.234 329.145H68.646L64.157 394.269Z" fill="url(#paint9_linear_10025_62695)"/>
<path d="M203.454 157.885L168.183 162.923C171.127 169.496 177.66 173.724 184.862 173.718H197.799C199.303 168.311 201.193 163.02 203.454 157.885Z" fill="url(#paint10_linear_10025_62695)"/>
<path d="M286.091 329.145H261.698L217.812 402.288H242.205L286.091 329.145Z" fill="url(#paint11_linear_10025_62695)"/>
<path d="M240.377 329.145H215.984L172.098 402.288H196.491L240.377 329.145Z" fill="url(#paint12_linear_10025_62695)"/>
<path d="M315.246 173.716H328.183C335.386 173.725 341.92 169.496 344.862 162.921L309.591 157.883C311.852 163.019 313.742 168.31 315.246 173.716Z" fill="url(#paint13_linear_10025_62695)"/>
<path d="M150.064 73.1445C123.796 107.156 109.765 149.031 110.237 192.002C109.762 234.974 123.794 276.85 150.065 310.859H362.981C389.249 276.848 403.28 234.973 402.808 192.002C403.279 149.031 389.247 107.157 362.982 73.1445H150.064ZM364.871 150.626C366.295 152.933 366.622 155.752 365.765 158.324L362.872 166.994C357.91 181.937 343.93 192.017 328.185 192.003H319.066C319.781 197.019 320.205 201.778 320.386 206.156C331.739 212.615 338.768 224.655 338.81 237.717V256.002C338.79 276.192 322.428 292.553 302.239 292.573H210.81C190.62 292.553 174.259 276.191 174.239 256.002V237.716C174.281 224.654 181.31 212.614 192.663 206.155C192.844 201.777 193.268 197.018 193.983 192.002H184.864C169.118 192.014 155.135 181.935 150.168 166.993L147.284 158.323C146.426 155.751 146.754 152.932 148.178 150.625C149.602 148.318 151.976 146.762 154.659 146.376L216.008 137.613C217.729 135.624 219.579 133.75 221.547 132.004C206.559 127.257 192.523 118.14 192.523 100.573C192.523 95.5235 196.616 91.4295 201.666 91.4295C206.715 91.4295 210.809 95.5225 210.809 100.573C210.809 114.321 241.601 118.83 256.523 118.859C271.445 118.83 302.237 114.321 302.237 100.573C302.237 95.5235 306.33 91.4295 311.38 91.4295C316.429 91.4295 320.523 95.5225 320.523 100.573C320.523 118.14 306.487 127.256 291.502 132.004C293.469 133.75 295.319 135.624 297.041 137.613L358.39 146.376C361.073 146.763 363.447 148.319 364.871 150.626Z" fill="url(#paint14_linear_10025_62695)"/>
<path d="M71.916 230.216C73.086 247.387 73.086 264.617 71.916 281.787L69.911 310.858H127.28C103.914 275.65 91.611 234.258 91.952 192.002C91.611 149.747 103.913 108.355 127.277 73.1445H61.082L71.916 230.216Z" fill="url(#paint15_linear_10025_62695)"/>
<path d="M453.127 455.723C451.752 456.612 450.159 457.104 448.523 457.145H64.523C62.886 457.104 61.293 456.612 59.918 455.723L56.71 502.225C56.533 504.753 57.414 507.242 59.142 509.095C60.87 510.948 63.292 512.002 65.827 512.002H447.22C449.753 512.002 452.172 510.951 453.9 509.099C455.628 507.247 456.51 504.761 456.336 502.234L453.127 455.723ZM229.094 493.716H137.665C132.616 493.716 128.522 489.623 128.522 484.573C128.522 479.524 132.615 475.43 137.665 475.43H229.094C234.143 475.43 238.237 479.523 238.237 484.573C238.237 489.623 234.144 493.716 229.094 493.716ZM320.523 493.716H265.666C260.617 493.716 256.523 489.623 256.523 484.573C256.523 479.524 260.616 475.43 265.666 475.43H320.523C325.572 475.43 329.666 479.523 329.666 484.573C329.666 489.623 325.572 493.716 320.523 493.716ZM375.38 493.716H357.094C352.045 493.716 347.951 489.623 347.951 484.573C347.951 479.524 352.044 475.43 357.094 475.43H375.38C380.429 475.43 384.523 479.523 384.523 484.573C384.523 489.623 380.43 493.716 375.38 493.716Z" fill="url(#paint16_linear_10025_62695)"/>
<path d="M64.523 438.86H448.523C449.721 438.863 450.907 439.102 452.013 439.563L450.673 420.141C449.977 420.374 449.255 420.52 448.523 420.574H64.523C63.791 420.52 63.068 420.374 62.372 420.141L61.033 439.563C62.139 439.102 63.325 438.863 64.523 438.86Z" fill="url(#paint17_linear_10025_62695)"/>
<path d="M302.237 219.432H210.808C200.715 219.445 192.535 227.624 192.522 237.718V256.003C192.535 266.097 200.714 274.276 210.808 274.289H302.237C312.33 274.276 320.51 266.097 320.523 256.003V237.717C320.51 227.624 312.331 219.445 302.237 219.432ZM228.362 250.333C227.53 252.629 225.721 254.438 223.425 255.27C222.34 255.781 221.151 256.031 219.951 256.003C217.519 256.027 215.18 255.071 213.46 253.351C211.74 251.631 210.785 249.292 210.808 246.86C210.823 246.246 210.883 245.635 210.987 245.03C211.09 244.458 211.277 243.905 211.541 243.387C211.719 242.824 211.997 242.298 212.362 241.833C212.675 241.307 213.043 240.816 213.46 240.368C216.076 237.731 220.027 236.938 223.458 238.362C226.889 239.786 229.116 243.145 229.095 246.859C229.08 248.055 228.831 249.235 228.362 250.333ZM299.586 253.352C298.695 254.158 297.675 254.807 296.567 255.272C294.354 256.248 291.833 256.248 289.621 255.272C288.513 254.81 287.492 254.16 286.603 253.352C284.883 251.633 283.927 249.293 283.952 246.861C283.923 246.245 283.983 245.629 284.131 245.031C284.234 244.459 284.421 243.906 284.685 243.388C284.863 242.825 285.141 242.299 285.506 241.834C285.819 241.308 286.187 240.817 286.604 240.369C290.27 236.985 295.92 236.985 299.586 240.369C299.952 240.824 300.318 241.28 300.684 241.833C301.046 242.299 301.324 242.825 301.505 243.387C301.77 243.903 301.954 244.457 302.05 245.03C302.161 245.634 302.224 246.246 302.238 246.861C302.258 249.292 301.303 251.63 299.586 253.352Z" fill="url(#paint18_linear_10025_62695)"/>
</g>
<defs>
<linearGradient id="paint0_linear_10025_62695" x1="389.094" y1="329.145" x2="389.094" y2="402.288" gradientUnits="userSpaceOnUse">
<stop stop-color="#B9B8C0"/>
<stop offset="1" stop-color="#57565A"/>
</linearGradient>
<linearGradient id="paint1_linear_10025_62695" x1="297.665" y1="329.145" x2="297.665" y2="402.288" gradientUnits="userSpaceOnUse">
<stop stop-color="#B9B8C0"/>
<stop offset="1" stop-color="#57565A"/>
</linearGradient>
<linearGradient id="paint2_linear_10025_62695" x1="343.38" y1="329.145" x2="343.38" y2="402.288" gradientUnits="userSpaceOnUse">
<stop stop-color="#B9B8C0"/>
<stop offset="1" stop-color="#57565A"/>
</linearGradient>
<linearGradient id="paint3_linear_10025_62695" x1="425.062" y1="329.385" x2="425.062" y2="402.476" gradientUnits="userSpaceOnUse">
<stop stop-color="#B9B8C0"/>
<stop offset="1" stop-color="#57565A"/>
</linearGradient>
<linearGradient id="paint4_linear_10025_62695" x1="256.514" y1="137.145" x2="256.514" y2="201.145" gradientUnits="userSpaceOnUse">
<stop stop-color="#B9B8C0"/>
<stop offset="1" stop-color="#57565A"/>
</linearGradient>
<linearGradient id="paint5_linear_10025_62695" x1="418.865" y1="73.1445" x2="418.865" y2="310.859" gradientUnits="userSpaceOnUse">
<stop stop-color="#B9B8C0"/>
<stop offset="1" stop-color="#57565A"/>
</linearGradient>
<linearGradient id="paint6_linear_10025_62695" x1="160.523" y1="329.145" x2="160.523" y2="402.288" gradientUnits="userSpaceOnUse">
<stop stop-color="#B9B8C0"/>
<stop offset="1" stop-color="#57565A"/>
</linearGradient>
<linearGradient id="paint7_linear_10025_62695" x1="256.523" y1="0.00195312" x2="256.523" y2="54.859" gradientUnits="userSpaceOnUse">
<stop stop-color="#B9B8C0"/>
<stop offset="1" stop-color="#57565A"/>
</linearGradient>
<linearGradient id="paint8_linear_10025_62695" x1="114.808" y1="329.145" x2="114.808" y2="402.288" gradientUnits="userSpaceOnUse">
<stop stop-color="#B9B8C0"/>
<stop offset="1" stop-color="#57565A"/>
</linearGradient>
<linearGradient id="paint9_linear_10025_62695" x1="83.6955" y1="329.145" x2="83.6955" y2="394.269" gradientUnits="userSpaceOnUse">
<stop stop-color="#B9B8C0"/>
<stop offset="1" stop-color="#57565A"/>
</linearGradient>
<linearGradient id="paint10_linear_10025_62695" x1="185.818" y1="157.885" x2="185.818" y2="173.718" gradientUnits="userSpaceOnUse">
<stop stop-color="#B9B8C0"/>
<stop offset="1" stop-color="#57565A"/>
</linearGradient>
<linearGradient id="paint11_linear_10025_62695" x1="251.951" y1="329.145" x2="251.951" y2="402.288" gradientUnits="userSpaceOnUse">
<stop stop-color="#B9B8C0"/>
<stop offset="1" stop-color="#57565A"/>
</linearGradient>
<linearGradient id="paint12_linear_10025_62695" x1="206.237" y1="329.145" x2="206.237" y2="402.288" gradientUnits="userSpaceOnUse">
<stop stop-color="#B9B8C0"/>
<stop offset="1" stop-color="#57565A"/>
</linearGradient>
<linearGradient id="paint13_linear_10025_62695" x1="327.226" y1="157.883" x2="327.226" y2="173.716" gradientUnits="userSpaceOnUse">
<stop stop-color="#B9B8C0"/>
<stop offset="1" stop-color="#57565A"/>
</linearGradient>
<linearGradient id="paint14_linear_10025_62695" x1="256.522" y1="73.1445" x2="256.522" y2="310.859" gradientUnits="userSpaceOnUse">
<stop stop-color="#B9B8C0"/>
<stop offset="1" stop-color="#57565A"/>
</linearGradient>
<linearGradient id="paint15_linear_10025_62695" x1="94.181" y1="73.1445" x2="94.181" y2="310.858" gradientUnits="userSpaceOnUse">
<stop stop-color="#B9B8C0"/>
<stop offset="1" stop-color="#57565A"/>
</linearGradient>
<linearGradient id="paint16_linear_10025_62695" x1="256.523" y1="455.723" x2="256.523" y2="512.002" gradientUnits="userSpaceOnUse">
<stop stop-color="#B9B8C0"/>
<stop offset="1" stop-color="#57565A"/>
</linearGradient>
<linearGradient id="paint17_linear_10025_62695" x1="256.523" y1="420.141" x2="256.523" y2="439.563" gradientUnits="userSpaceOnUse">
<stop stop-color="#B9B8C0"/>
<stop offset="1" stop-color="#57565A"/>
</linearGradient>
<linearGradient id="paint18_linear_10025_62695" x1="256.522" y1="219.432" x2="256.522" y2="274.289" gradientUnits="userSpaceOnUse">
<stop stop-color="#B9B8C0"/>
<stop offset="1" stop-color="#57565A"/>
</linearGradient>
<clipPath id="clip0_10025_62695">
<rect width="512" height="512" fill="white" transform="translate(0.522949 0.00195312)"/>
</clipPath>
</defs>
</svg>
