<svg width="513" height="512" viewBox="0 0 513 512" fill="none" xmlns="http://www.w3.org/2000/svg">
<g clip-path="url(#clip0_10025_62733)">
<path d="M332.823 140.348L441.567 23.5462L447.3 15.6532L425.388 1.50218C423.271 0.109179 420.667 -0.331822 418.209 0.288178C415.783 0.857178 413.704 2.41418 412.477 4.58318L404.441 16.1282L323.849 131.376L332.823 140.348Z" fill="url(#paint0_linear_10025_62733)"/>
<path d="M345.768 153.283L348.219 155.734L348.237 155.761L356.755 164.279L356.782 164.297L359.233 166.748L476.915 57.1894L507.165 29.9304C509.037 28.2404 510.135 25.8564 510.201 23.3354C510.267 20.8144 509.295 18.3764 507.514 16.5914L495.924 5.00241C494.246 3.06541 491.733 2.06441 489.183 2.31541C486.657 2.36741 484.267 3.46641 482.585 5.35041L455.433 35.4844L455.332 35.5914L455.325 35.6004L444.469 47.2614L345.768 153.283Z" fill="url(#paint1_linear_10025_62733)"/>
<path d="M281.147 114.617C281.696 115.164 282.173 115.78 282.567 116.447H282.763L282.825 116.45C285.214 116.458 287.6 116.593 289.975 116.853C290.663 116.927 291.293 117.043 291.962 117.134C293.52 117.347 295.039 117.578 296.487 117.873C297.253 118.028 297.965 118.197 298.697 118.37C299.968 118.67 301.184 118.978 302.349 119.318C303.026 119.516 303.674 119.705 304.313 119.911C305.446 120.276 306.488 120.64 307.495 121.016C307.821 121.138 308.22 121.255 308.533 121.376L378.167 21.7963L332.212 26.0193C327.222 26.4233 322.229 25.2923 317.899 22.7783L311.792 19.0903C310.075 18.0273 307.907 18.0133 306.176 19.0543C304.393 20.0223 303.285 21.8913 303.292 23.9203C303.26 30.2583 300.736 36.3293 296.265 40.8223C292.605 44.5323 287.821 46.9273 282.658 47.6353L279.265 48.0813C277.14 48.3833 275.378 49.8803 274.738 51.9293C274.03 53.9433 274.56 56.1863 276.095 57.6703L277.193 58.7683C281.681 63.2523 284.202 69.3353 284.202 75.6793C284.202 82.0233 281.681 88.1063 277.193 92.5903L272.13 97.6443C269.934 99.8413 269.934 103.402 272.13 105.599L281.147 114.617ZM298.133 73.8503C298.791 70.6453 301.112 68.0373 304.219 67.0103C307.25 66.2793 309.8 64.2413 311.182 61.4473C312.565 58.6533 312.637 55.3893 311.379 52.5373C309.896 47.7433 312.53 42.6453 317.299 41.0823C322.051 39.5253 327.169 42.0983 328.754 46.8413C330.205 51.6063 330.614 56.6273 329.95 61.5643C328.428 72.4523 320.594 81.4013 310.004 84.3503C306.904 85.3953 303.481 84.7033 301.03 82.5353C298.58 80.3673 297.475 77.0553 298.133 73.8503Z" fill="url(#paint2_linear_10025_62733)"/>
<path d="M489.852 194.824C487.278 190.47 486.106 185.429 486.495 180.386L490.718 134.35L391.129 203.993C391.221 204.227 391.308 204.531 391.4 204.774C391.851 205.968 392.292 207.216 392.725 208.589C392.925 209.223 393.1 209.902 393.29 210.569C393.626 211.748 393.942 212.947 394.236 214.232C394.424 215.05 394.582 215.891 394.748 216.748C394.992 218.023 395.2 219.326 395.383 220.683C395.51 221.623 395.618 222.563 395.709 223.54C395.839 224.94 395.9 226.382 395.944 227.853C395.965 228.566 396.059 229.221 396.058 229.949C396.73 230.341 397.348 230.818 397.897 231.369L406.915 240.387C409.112 242.583 412.673 242.583 414.87 240.387L419.933 235.324C429.393 226.288 444.286 226.288 453.746 235.324L454.844 236.422C456.33 237.954 458.57 238.484 460.585 237.779C462.655 237.136 464.161 235.347 464.442 233.198L464.88 229.886C465.581 224.713 467.977 219.919 471.693 216.252C476.181 211.785 482.245 209.261 488.577 209.225C490.596 209.207 492.453 208.116 493.45 206.36C494.447 204.604 494.434 202.451 493.416 200.707L489.852 194.824ZM471.451 195.324C469.866 200.083 464.74 202.673 459.969 201.128C457.115 199.884 453.858 199.964 451.068 201.346C448.279 202.729 446.243 205.273 445.505 208.297C444.479 211.404 441.87 213.725 438.665 214.383C435.46 215.041 432.148 213.936 429.98 211.485C427.813 209.034 427.12 205.612 428.165 202.511C431.114 191.92 440.063 184.086 450.951 182.565C455.888 181.906 460.909 182.314 465.674 183.761C467.974 184.527 469.875 186.176 470.959 188.345C472.042 190.514 472.219 193.025 471.451 195.324Z" fill="url(#paint3_linear_10025_62733)"/>
<path d="M376.405 218.014C376.224 217.237 376.011 216.543 375.808 215.82C375.664 215.307 375.535 214.751 375.384 214.266C375.316 214.047 375.243 213.871 375.174 213.659C374.353 211.106 373.335 208.621 372.129 206.226L372.117 206.199C371.878 205.877 371.664 205.537 371.477 205.181C371.164 204.628 370.77 204.125 370.307 203.69L359.021 192.405L352.539 185.923C348.898 182.441 343.162 182.441 339.521 185.923L333.039 192.405C329.467 195.962 323.689 195.957 320.124 192.392C316.559 188.827 316.553 183.049 320.111 179.477L326.593 172.995C328.319 171.271 329.289 168.931 329.289 166.491C329.289 164.051 328.319 161.711 326.593 159.987L320.111 153.496L308.825 142.21C308.39 141.747 307.887 141.353 307.334 141.04C306.943 140.835 306.566 140.603 306.209 140.344C305.356 139.906 304.19 139.375 302.915 138.838C302.68 138.739 302.465 138.643 302.216 138.543C300.898 138.013 299.361 137.479 297.697 136.977C297.356 136.874 297.004 136.776 296.65 136.675C294.758 136.145 292.838 135.72 290.898 135.404C290.584 135.354 290.247 135.322 289.927 135.276C287.628 134.936 285.308 134.756 282.984 134.739L282.771 134.729C281.208 134.731 279.593 134.809 277.942 134.977C264.233 136.758 251.59 143.315 242.237 153.495C232.012 163.718 213.006 184.917 189.962 212.344C195.637 224.378 204.745 234.464 216.139 241.334C218.943 243.012 220.639 246.058 220.588 249.325C220.537 252.592 218.747 255.584 215.892 257.173C213.037 258.762 209.551 258.708 206.747 257.03C194.844 249.582 184.722 239.609 177.097 227.818C159.147 249.584 139.499 274.232 119.971 299.96C125.857 310.805 133.994 320.266 143.836 327.709C147.893 330.676 148.794 336.361 145.854 340.437C142.914 344.513 137.235 345.452 133.14 342.539C123.353 335.107 114.853 326.117 107.98 315.93C56.658 384.961 9.16395 458.505 0.673951 501.449C0.139951 504.336 1.06195 507.301 3.13795 509.378C5.21395 511.454 8.17895 512.376 11.067 511.842C38.304 506.457 77.8709 485.36 120.774 457.572C109.787 450.019 100.456 440.304 93.353 429.021C90.759 424.7 92.1519 419.095 96.4669 416.49C100.782 413.886 106.391 415.266 109.005 419.574C116 431.047 126.213 440.213 138.373 445.931C169.91 424.658 202.521 400.545 232.905 376.911C220.378 369.24 209.798 358.77 201.996 346.324C199.39 342.002 200.781 336.385 205.103 333.779C209.425 331.173 215.042 332.564 217.648 336.886C221.642 343.455 234.736 360.203 249.449 363.917C266.12 350.703 281.84 337.877 296.041 326.006C287.132 318.964 279.458 310.486 273.336 300.921C270.747 296.595 272.147 290.99 276.465 288.389C280.784 285.788 286.392 287.172 289.005 291.483C294.62 300.272 301.899 307.879 310.431 313.876C332.862 294.771 350.115 279.187 359.023 270.278C368.602 261.439 375.008 249.696 377.255 236.858C378.145 230.662 377.873 224.354 376.453 218.258L376.405 218.014ZM308.451 216.601C307.204 218.677 305.184 220.172 302.835 220.758C300.486 221.344 298 220.973 295.924 219.726C294.425 218.824 259.058 197.253 259.058 166.485C259.058 161.436 263.151 157.342 268.201 157.342C273.251 157.342 277.344 161.435 277.344 166.485C277.344 183.414 297.558 199.342 305.344 204.056C307.42 205.308 308.913 207.332 309.496 209.685C310.079 212.038 309.702 214.525 308.451 216.601Z" fill="url(#paint4_linear_10025_62733)"/>
<path d="M511.013 87.1278L496.861 65.2168L488.968 70.9498L372.167 179.692L381.14 188.665L496.388 108.073L507.227 100.484C509.703 99.2368 511.524 96.9868 512.227 94.3048C512.84 91.8488 512.4 89.2468 511.013 87.1278Z" fill="url(#paint5_linear_10025_62733)"/>
</g>
<defs>
<linearGradient id="paint0_linear_10025_62733" x1="385.574" y1="0.0136719" x2="385.574" y2="140.348" gradientUnits="userSpaceOnUse">
<stop stop-color="#B9B8C0"/>
<stop offset="1" stop-color="#57565A"/>
</linearGradient>
<linearGradient id="paint1_linear_10025_62733" x1="427.986" y1="2.27734" x2="427.986" y2="166.748" gradientUnits="userSpaceOnUse">
<stop stop-color="#B9B8C0"/>
<stop offset="1" stop-color="#57565A"/>
</linearGradient>
<linearGradient id="paint2_linear_10025_62733" x1="324.325" y1="18.2832" x2="324.325" y2="121.376" gradientUnits="userSpaceOnUse">
<stop stop-color="#B9B8C0"/>
<stop offset="1" stop-color="#57565A"/>
</linearGradient>
<linearGradient id="paint3_linear_10025_62733" x1="442.659" y1="134.35" x2="442.659" y2="242.034" gradientUnits="userSpaceOnUse">
<stop stop-color="#B9B8C0"/>
<stop offset="1" stop-color="#57565A"/>
</linearGradient>
<linearGradient id="paint4_linear_10025_62733" x1="189.146" y1="134.729" x2="189.146" y2="511.99" gradientUnits="userSpaceOnUse">
<stop stop-color="#B9B8C0"/>
<stop offset="1" stop-color="#57565A"/>
</linearGradient>
<linearGradient id="paint5_linear_10025_62733" x1="442.332" y1="65.2168" x2="442.332" y2="188.665" gradientUnits="userSpaceOnUse">
<stop stop-color="#B9B8C0"/>
<stop offset="1" stop-color="#57565A"/>
</linearGradient>
<clipPath id="clip0_10025_62733">
<rect width="511.977" height="511.977" fill="white" transform="translate(0.522949 0.0136719)"/>
</clipPath>
</defs>
</svg>
