<svg width="508" height="507" viewBox="0 0 508 507" fill="none" xmlns="http://www.w3.org/2000/svg">
<path d="M442.017 136.404L410.573 104.96C386.959 81.3453 349.325 79.9321 323.669 101.309C255.493 158.115 196.332 221.51 138.563 296.422L58.9579 351.8C42.5903 363.186 40.5051 386.606 54.6042 400.704L65.3856 411.486C80.5189 426.619 105.572 422.591 116.014 403.91C144.806 352.4 180.223 348.537 180.223 348.537L226.019 394.333C235.393 403.707 250.591 403.707 259.965 394.333C264.767 389.531 264.767 381.746 259.965 376.945L217.54 334.52C205.296 322.276 204.286 302.74 215.154 289.259C217.126 286.812 219.139 284.444 221.125 282.024L279.212 340.114C280.759 341.662 282.786 342.435 284.813 342.435C286.839 342.435 288.866 341.662 290.413 340.114C293.507 337.02 293.507 332.008 290.413 328.913L231.257 269.754C236.341 263.741 241.475 257.827 246.648 251.99L306.99 312.328C308.538 313.875 310.564 314.649 312.591 314.649C314.618 314.649 316.644 313.875 318.192 312.328C321.286 309.234 321.286 304.221 318.192 301.127L257.31 240.249C262.639 234.432 268.017 228.714 273.444 223.089C273.548 223.206 273.584 223.357 273.697 223.47L334.773 284.55C336.32 286.097 338.347 286.87 340.373 286.87C342.4 286.87 344.427 286.097 345.974 284.55C349.068 281.456 349.068 276.443 345.974 273.349L284.898 212.269C284.743 212.114 284.537 212.059 284.373 211.92C289.967 206.326 295.613 200.832 301.314 195.448C301.382 195.522 301.403 195.62 301.475 195.691L362.555 256.771C364.102 258.318 366.129 259.092 368.156 259.092C370.182 259.092 372.209 258.318 373.756 256.771C376.851 253.677 376.851 248.664 373.756 245.57L312.904 184.718C318.729 179.434 324.612 174.265 330.551 169.206L390.334 228.985C391.881 230.532 393.907 231.306 395.934 231.306C397.961 231.306 399.988 230.532 401.535 228.985C404.629 225.891 404.629 220.878 401.535 217.784L342.802 159.055C345.899 156.533 348.967 153.952 352.096 151.492C365.566 140.901 384.857 142.1 396.974 154.217L455.376 212.62L459.951 200.377C468.681 177.02 459.649 154.036 442.017 136.404Z" fill="url(#paint0_linear_10025_57737)"/>
<defs>
<linearGradient id="paint0_linear_10025_57737" x1="254.274" y1="86.2092" x2="254.274" y2="420.749" gradientUnits="userSpaceOnUse">
<stop stop-color="#B9B8C0"/>
<stop offset="1" stop-color="#57565A"/>
</linearGradient>
</defs>
</svg>
