<svg width="512" height="512" viewBox="0 0 512 512" fill="none" xmlns="http://www.w3.org/2000/svg">
<g clip-path="url(#clip0_10025_61809)">
<path d="M225.62 -0.00195312C195.898 -0.00195312 168.456 12.77 148.981 33.629C181.519 41.627 209.432 62.847 225.62 91.976C241.808 62.848 269.721 41.627 302.259 33.629C282.784 12.77 255.342 -0.00195312 225.62 -0.00195312Z" fill="url(#paint0_linear_10025_61809)"/>
<path d="M476.226 4.39327C470.367 -1.46573 460.874 -1.46573 455.015 4.39327L382.318 77.0903C365.641 64.9643 345.549 58.7733 324.534 60.2063C279.627 63.2623 244.24 99.2283 241.767 144.169L240.62 164.998V224.998C240.62 233.274 247.344 239.998 255.62 239.998C263.896 239.998 270.62 233.274 270.62 224.998V164.998C270.62 156.707 277.329 149.998 285.62 149.998H418.804V148.182C418.804 130.304 413.296 113.037 403.35 98.4803L476.226 25.6043C482.085 19.7443 482.085 10.2523 476.226 4.39327Z" fill="url(#paint1_linear_10025_61809)"/>
<path d="M291.128 430.934C278.662 424.21 270.62 408.401 270.62 392.2V386.463C256.076 389.427 241.028 390.999 225.62 390.999C210.212 390.999 195.164 389.428 180.62 386.463V392.2C180.62 408.401 172.578 424.211 160.127 430.92C135.752 444.03 120.62 469.343 120.62 496.999C120.62 505.29 127.329 511.999 135.62 511.999H315.62C323.911 511.999 330.62 505.29 330.62 496.999C330.62 469.342 315.488 444.029 291.128 430.934Z" fill="url(#paint2_linear_10025_61809)"/>
<path d="M114.638 60.1977C68.285 63.2977 32.436 101.726 32.436 148.182V149.998H105.62C113.911 149.998 120.62 156.707 120.62 164.998V194.998C120.62 203.274 127.344 209.998 135.62 209.998C143.896 209.998 150.62 203.274 150.62 194.998V164.998C150.62 156.707 157.329 149.998 165.62 149.998H208.804C208.804 94.2657 163.393 56.9047 114.638 60.1977Z" fill="url(#paint3_linear_10025_61809)"/>
<path d="M300.62 179.998V224.998C300.62 249.812 280.434 269.998 255.62 269.998C230.806 269.998 210.62 249.812 210.62 224.998V179.998H180.62V194.998C180.62 219.812 160.434 239.998 135.62 239.998C110.806 239.998 90.62 219.812 90.62 194.998V179.998H31.38C39.089 280.514 123.163 360.998 225.62 360.998C328.077 360.998 412.151 280.514 419.86 179.998H300.62Z" fill="url(#paint4_linear_10025_61809)"/>
</g>
<defs>
<linearGradient id="paint0_linear_10025_61809" x1="225.62" y1="-0.00195313" x2="225.62" y2="91.976" gradientUnits="userSpaceOnUse">
<stop stop-color="#B9B8C0"/>
<stop offset="1" stop-color="#57565A"/>
</linearGradient>
<linearGradient id="paint1_linear_10025_61809" x1="360.62" y1="-0.000976563" x2="360.62" y2="239.998" gradientUnits="userSpaceOnUse">
<stop stop-color="#B9B8C0"/>
<stop offset="1" stop-color="#57565A"/>
</linearGradient>
<linearGradient id="paint2_linear_10025_61809" x1="225.62" y1="386.463" x2="225.62" y2="511.999" gradientUnits="userSpaceOnUse">
<stop stop-color="#B9B8C0"/>
<stop offset="1" stop-color="#57565A"/>
</linearGradient>
<linearGradient id="paint3_linear_10025_61809" x1="120.62" y1="59.9961" x2="120.62" y2="209.998" gradientUnits="userSpaceOnUse">
<stop stop-color="#B9B8C0"/>
<stop offset="1" stop-color="#57565A"/>
</linearGradient>
<linearGradient id="paint4_linear_10025_61809" x1="225.62" y1="179.998" x2="225.62" y2="360.998" gradientUnits="userSpaceOnUse">
<stop stop-color="#B9B8C0"/>
<stop offset="1" stop-color="#57565A"/>
</linearGradient>
<clipPath id="clip0_10025_61809">
<rect width="512.001" height="512.001" fill="white" transform="translate(0 -0.00195312)"/>
</clipPath>
</defs>
</svg>
