<svg width="507" height="508" viewBox="0 0 507 508" fill="none" xmlns="http://www.w3.org/2000/svg">
<path d="M146.007 149.548C145.566 148.983 135.324 135.453 145.647 123.912C160.855 106.901 152.532 86.4563 146.007 78.0168C143.35 74.5822 138.414 73.9556 134.949 76.5935C131.487 79.239 130.826 84.1975 133.448 87.6786C134.539 89.1251 143.841 102.167 133.839 113.353C118.623 130.363 126.95 150.809 133.475 159.248C135.038 161.259 137.378 162.319 139.745 162.319C141.439 162.319 143.145 161.778 144.587 160.664C148.049 157.987 148.683 153.013 146.007 149.548Z" fill="url(#paint0_linear_10025_57739)"/>
<path d="M221.224 160.664C224.686 157.987 225.32 153.013 222.643 149.548C222.202 148.983 211.961 135.453 222.284 123.912C237.492 106.901 229.168 86.4563 222.643 78.0168C219.986 74.5822 215.051 73.9556 211.585 76.5935C208.124 79.239 207.462 84.1975 210.085 87.6786C211.175 89.1251 220.477 102.167 210.475 113.353C195.259 130.363 203.587 150.809 210.112 159.248C211.674 161.259 214.014 162.319 216.381 162.319C218.076 162.319 219.781 161.778 221.224 160.664Z" fill="url(#paint1_linear_10025_57739)"/>
<path d="M286.748 159.248C288.311 161.259 290.651 162.319 293.018 162.319C294.712 162.319 296.418 161.778 297.86 160.664C301.322 157.987 301.956 153.013 299.28 149.548C298.839 148.983 288.597 135.453 298.92 123.912C314.128 106.901 305.805 86.4563 299.28 78.0168C296.623 74.5822 291.687 73.9556 288.222 76.5935C284.76 79.239 284.099 84.1975 286.721 87.6786C287.812 89.1251 297.114 102.167 287.112 113.353C271.896 130.363 280.223 150.809 286.748 159.248Z" fill="url(#paint2_linear_10025_57739)"/>
<path d="M127.546 199.446H62.9086L66.3146 227.646H128.971L127.546 199.446Z" fill="url(#paint3_linear_10025_57739)"/>
<path d="M129.844 243.487H68.2162L72.6521 280.796H131.745L129.844 243.487Z" fill="url(#paint4_linear_10025_57739)"/>
<path d="M132.536 296.638H74.5526L86.0385 392.327C87.6228 405.159 98.4749 414.744 111.387 414.744H138.794C138.477 412.843 138.319 410.783 138.24 408.724L132.536 296.638Z" fill="url(#paint5_linear_10025_57739)"/>
<path d="M144.894 227.646H199.154V199.446H143.468L144.894 227.646Z" fill="url(#paint6_linear_10025_57739)"/>
<path d="M147.587 280.796H199.154V243.487H145.686L147.587 280.796Z" fill="url(#paint7_linear_10025_57739)"/>
<path d="M154.083 407.932C154.241 410.467 154.479 412.764 154.795 414.744H199.154V296.638H148.379L154.083 407.932Z" fill="url(#paint8_linear_10025_57739)"/>
<path d="M214.997 414.744H259.356C259.672 412.764 259.91 410.467 260.069 407.932L265.772 296.638H214.997V414.744Z" fill="url(#paint9_linear_10025_57739)"/>
<path d="M214.997 280.796H266.564L268.465 243.487H214.997V280.796Z" fill="url(#paint10_linear_10025_57739)"/>
<path d="M214.997 227.646H269.257L270.683 199.446H214.997V227.646Z" fill="url(#paint11_linear_10025_57739)"/>
<path d="M339.518 296.638H281.614L279.633 335.69H334.845L339.518 296.638Z" fill="url(#paint12_linear_10025_57739)"/>
<path d="M282.407 280.796H341.419L345.935 243.487H284.308L282.407 280.796Z" fill="url(#paint13_linear_10025_57739)"/>
<path d="M351.241 199.446H286.524L285.099 227.646H347.835L351.241 199.446Z" fill="url(#paint14_linear_10025_57739)"/>
<path d="M339.472 433.913C367.038 433.913 389.851 413.952 394.367 387.732H284.578C289.093 413.952 311.906 433.913 339.472 433.913Z" fill="url(#paint15_linear_10025_57739)"/>
<path d="M443.953 267.965V267.727C442.765 257.747 431.596 252.044 422.962 257.271C365.849 291.966 373.216 351.534 373.216 351.534H283.706V371.891H395.237V365.158C395.237 365.158 401.178 295.927 434.368 283.015C440.626 280.56 444.745 274.619 443.953 267.965Z" fill="url(#paint16_linear_10025_57739)"/>
<defs>
<linearGradient id="paint0_linear_10025_57739" x1="139.741" y1="74.9634" x2="139.741" y2="162.319" gradientUnits="userSpaceOnUse">
<stop stop-color="#B9B8C0"/>
<stop offset="1" stop-color="#57565A"/>
</linearGradient>
<linearGradient id="paint1_linear_10025_57739" x1="216.377" y1="74.9634" x2="216.377" y2="162.319" gradientUnits="userSpaceOnUse">
<stop stop-color="#B9B8C0"/>
<stop offset="1" stop-color="#57565A"/>
</linearGradient>
<linearGradient id="paint2_linear_10025_57739" x1="293.014" y1="74.9634" x2="293.014" y2="162.319" gradientUnits="userSpaceOnUse">
<stop stop-color="#B9B8C0"/>
<stop offset="1" stop-color="#57565A"/>
</linearGradient>
<linearGradient id="paint3_linear_10025_57739" x1="95.94" y1="199.446" x2="95.94" y2="227.646" gradientUnits="userSpaceOnUse">
<stop stop-color="#B9B8C0"/>
<stop offset="1" stop-color="#57565A"/>
</linearGradient>
<linearGradient id="paint4_linear_10025_57739" x1="99.9804" y1="243.487" x2="99.9804" y2="280.796" gradientUnits="userSpaceOnUse">
<stop stop-color="#B9B8C0"/>
<stop offset="1" stop-color="#57565A"/>
</linearGradient>
<linearGradient id="paint5_linear_10025_57739" x1="106.673" y1="296.638" x2="106.673" y2="414.744" gradientUnits="userSpaceOnUse">
<stop stop-color="#B9B8C0"/>
<stop offset="1" stop-color="#57565A"/>
</linearGradient>
<linearGradient id="paint6_linear_10025_57739" x1="171.311" y1="199.446" x2="171.311" y2="227.646" gradientUnits="userSpaceOnUse">
<stop stop-color="#B9B8C0"/>
<stop offset="1" stop-color="#57565A"/>
</linearGradient>
<linearGradient id="paint7_linear_10025_57739" x1="172.42" y1="243.487" x2="172.42" y2="280.796" gradientUnits="userSpaceOnUse">
<stop stop-color="#B9B8C0"/>
<stop offset="1" stop-color="#57565A"/>
</linearGradient>
<linearGradient id="paint8_linear_10025_57739" x1="173.767" y1="296.638" x2="173.767" y2="414.744" gradientUnits="userSpaceOnUse">
<stop stop-color="#B9B8C0"/>
<stop offset="1" stop-color="#57565A"/>
</linearGradient>
<linearGradient id="paint9_linear_10025_57739" x1="240.384" y1="296.638" x2="240.384" y2="414.744" gradientUnits="userSpaceOnUse">
<stop stop-color="#B9B8C0"/>
<stop offset="1" stop-color="#57565A"/>
</linearGradient>
<linearGradient id="paint10_linear_10025_57739" x1="241.731" y1="243.487" x2="241.731" y2="280.796" gradientUnits="userSpaceOnUse">
<stop stop-color="#B9B8C0"/>
<stop offset="1" stop-color="#57565A"/>
</linearGradient>
<linearGradient id="paint11_linear_10025_57739" x1="242.84" y1="199.446" x2="242.84" y2="227.646" gradientUnits="userSpaceOnUse">
<stop stop-color="#B9B8C0"/>
<stop offset="1" stop-color="#57565A"/>
</linearGradient>
<linearGradient id="paint12_linear_10025_57739" x1="309.576" y1="296.638" x2="309.576" y2="335.69" gradientUnits="userSpaceOnUse">
<stop stop-color="#B9B8C0"/>
<stop offset="1" stop-color="#57565A"/>
</linearGradient>
<linearGradient id="paint13_linear_10025_57739" x1="314.171" y1="243.487" x2="314.171" y2="280.796" gradientUnits="userSpaceOnUse">
<stop stop-color="#B9B8C0"/>
<stop offset="1" stop-color="#57565A"/>
</linearGradient>
<linearGradient id="paint14_linear_10025_57739" x1="318.17" y1="199.446" x2="318.17" y2="227.646" gradientUnits="userSpaceOnUse">
<stop stop-color="#B9B8C0"/>
<stop offset="1" stop-color="#57565A"/>
</linearGradient>
<linearGradient id="paint15_linear_10025_57739" x1="339.472" y1="387.732" x2="339.472" y2="433.913" gradientUnits="userSpaceOnUse">
<stop stop-color="#B9B8C0"/>
<stop offset="1" stop-color="#57565A"/>
</linearGradient>
<linearGradient id="paint16_linear_10025_57739" x1="363.878" y1="255.293" x2="363.878" y2="371.891" gradientUnits="userSpaceOnUse">
<stop stop-color="#B9B8C0"/>
<stop offset="1" stop-color="#57565A"/>
</linearGradient>
</defs>
</svg>
