<svg width="513" height="512" viewBox="0 0 513 512" fill="none" xmlns="http://www.w3.org/2000/svg">
<g clip-path="url(#clip0_10025_62820)">
<path d="M417.903 161.488L358.696 220.695H118.833L59.6192 161.488C56.1652 158.081 50.6092 158.1 47.1792 161.53C43.7492 164.96 43.7292 170.516 47.1362 173.97L110.006 236.832L139.229 441.384H185.8V404.395C180.181 402.182 175.059 398.872 170.731 394.66C167.337 391.204 167.362 385.659 170.787 382.234C174.212 378.809 179.757 378.784 183.213 382.178C186.298 385.366 190.278 387.542 194.627 388.419V360.257C189.008 358.044 183.886 354.734 179.558 350.522C176.164 347.066 176.189 341.521 179.614 338.096C183.039 334.671 188.584 334.646 192.04 338.04C195.125 341.228 199.105 343.404 203.454 344.281V316.119C197.835 313.906 192.713 310.596 188.385 306.384C184.991 302.928 185.016 297.383 188.441 293.958C191.866 290.533 197.411 290.508 200.867 293.902C202.876 295.781 205.136 297.371 207.583 298.626L230.868 252.057C232.526 249.275 235.526 247.57 238.765 247.57C242.004 247.57 245.004 249.275 246.662 252.057L269.946 298.625C272.403 297.363 274.672 295.764 276.688 293.876C280.147 290.467 285.711 290.493 289.138 293.934C292.565 297.376 292.568 302.939 289.144 306.384C284.817 310.596 279.694 313.906 274.075 316.119V344.281C278.435 343.399 282.425 341.213 285.515 338.013C288.974 334.604 294.538 334.63 297.965 338.071C301.392 341.513 301.395 347.076 297.971 350.521C293.644 354.733 288.521 358.043 282.902 360.256V388.418C287.262 387.536 291.252 385.35 294.342 382.15C297.801 378.741 303.365 378.767 306.792 382.208C310.219 385.65 310.222 391.213 306.798 394.658C302.471 398.87 297.348 402.18 291.729 404.393V441.382H338.3L367.523 236.829L430.384 173.968C433.778 170.512 433.753 164.967 430.328 161.542C426.904 158.119 421.359 158.094 417.903 161.488Z" fill="url(#paint0_linear_10025_62820)"/>
<path d="M326.084 150.074H151.446C148.401 150.065 145.569 151.634 143.963 154.221L113.45 203.04H364.079L333.566 154.23C331.964 151.638 329.131 150.064 326.084 150.074Z" fill="url(#paint1_linear_10025_62820)"/>
<path d="M238.765 275.746L226.567 300.143H250.964L238.765 275.746Z" fill="url(#paint2_linear_10025_62820)"/>
<path d="M141.751 459.039L144.273 476.694H333.257L335.78 459.039H203.455H141.751Z" fill="url(#paint3_linear_10025_62820)"/>
<path d="M148.235 504.428C148.874 508.766 152.587 511.986 156.972 512.006H320.558C324.943 511.987 328.656 508.766 329.295 504.428L330.735 494.35H146.795L148.235 504.428Z" fill="url(#paint4_linear_10025_62820)"/>
<path d="M221.11 344.282H256.42V317.799H247.592C247.592 322.674 243.64 326.627 238.764 326.627C233.889 326.627 229.936 322.675 229.936 317.799H221.108V344.282H221.11Z" fill="url(#paint5_linear_10025_62820)"/>
<path d="M212.283 388.419H265.248V361.936H247.593C247.593 366.811 243.641 370.764 238.765 370.764C233.89 370.764 229.937 366.812 229.937 361.936H212.282L212.283 388.419Z" fill="url(#paint6_linear_10025_62820)"/>
<path d="M203.455 441.384H229.938V432.556C229.938 427.681 233.89 423.728 238.766 423.728C243.641 423.728 247.594 427.68 247.594 432.556V441.384H274.09L274.081 406.074H203.456V441.384H203.455Z" fill="url(#paint7_linear_10025_62820)"/>
<path d="M477.11 70.626H309.386V44.608L478.507 17.548C481.629 17.058 484.252 14.937 485.383 11.985C486.514 9.03396 485.98 5.70296 483.984 3.25196C481.988 0.800962 478.834 -0.394038 475.715 0.115962L309.386 26.73V26.488C309.386 21.613 305.434 17.66 300.558 17.66C295.683 17.66 291.73 21.612 291.73 26.488V29.555L274.075 32.38V26.489C274.075 21.614 270.123 17.661 265.247 17.661C260.372 17.661 256.419 21.613 256.419 26.489V35.205L238.764 38.03V26.488C238.764 21.613 234.812 17.66 229.936 17.66C225.061 17.66 221.108 21.612 221.108 26.488V40.854L34.3341 70.738C29.7881 71.465 26.5641 75.565 26.9301 80.155C27.2961 84.745 31.1271 88.283 35.7311 88.282H221.11V132.42C221.109 134.761 222.039 137.007 223.695 138.663C225.351 140.319 227.596 141.249 229.938 141.248C232.279 141.249 234.525 140.319 236.181 138.663C237.837 137.007 238.767 134.762 238.766 132.42V88.281H256.421V97.109C256.42 99.45 257.35 101.696 259.006 103.352C260.662 105.008 262.907 105.937 265.249 105.937C267.59 105.938 269.836 105.008 271.492 103.352C273.148 101.696 274.077 99.451 274.077 97.109V88.281H291.732C291.731 90.622 292.661 92.868 294.317 94.524C295.973 96.18 298.218 97.11 300.56 97.109C302.901 97.11 305.147 96.18 306.803 94.524C308.459 92.868 309.388 90.623 309.388 88.281H477.112C481.987 88.281 485.94 84.329 485.94 79.453C485.938 74.578 481.985 70.626 477.11 70.626ZM146.778 70.626L221.11 58.733V70.626H146.778ZM238.765 70.626V55.908L256.42 53.083V70.626H238.765ZM274.076 70.626V50.258L291.731 47.433V70.626H274.076Z" fill="url(#paint8_linear_10025_62820)"/>
</g>
<defs>
<linearGradient id="paint0_linear_10025_62820" x1="238.754" y1="158.945" x2="238.754" y2="441.384" gradientUnits="userSpaceOnUse">
<stop stop-color="#B9B8C0"/>
<stop offset="1" stop-color="#57565A"/>
</linearGradient>
<linearGradient id="paint1_linear_10025_62820" x1="238.765" y1="150.074" x2="238.765" y2="203.04" gradientUnits="userSpaceOnUse">
<stop stop-color="#B9B8C0"/>
<stop offset="1" stop-color="#57565A"/>
</linearGradient>
<linearGradient id="paint2_linear_10025_62820" x1="238.766" y1="275.746" x2="238.766" y2="300.143" gradientUnits="userSpaceOnUse">
<stop stop-color="#B9B8C0"/>
<stop offset="1" stop-color="#57565A"/>
</linearGradient>
<linearGradient id="paint3_linear_10025_62820" x1="238.766" y1="459.039" x2="238.766" y2="476.694" gradientUnits="userSpaceOnUse">
<stop stop-color="#B9B8C0"/>
<stop offset="1" stop-color="#57565A"/>
</linearGradient>
<linearGradient id="paint4_linear_10025_62820" x1="238.765" y1="494.35" x2="238.765" y2="512.006" gradientUnits="userSpaceOnUse">
<stop stop-color="#B9B8C0"/>
<stop offset="1" stop-color="#57565A"/>
</linearGradient>
<linearGradient id="paint5_linear_10025_62820" x1="238.764" y1="317.799" x2="238.764" y2="344.282" gradientUnits="userSpaceOnUse">
<stop stop-color="#B9B8C0"/>
<stop offset="1" stop-color="#57565A"/>
</linearGradient>
<linearGradient id="paint6_linear_10025_62820" x1="238.765" y1="361.936" x2="238.765" y2="388.419" gradientUnits="userSpaceOnUse">
<stop stop-color="#B9B8C0"/>
<stop offset="1" stop-color="#57565A"/>
</linearGradient>
<linearGradient id="paint7_linear_10025_62820" x1="238.773" y1="406.074" x2="238.773" y2="441.384" gradientUnits="userSpaceOnUse">
<stop stop-color="#B9B8C0"/>
<stop offset="1" stop-color="#57565A"/>
</linearGradient>
<linearGradient id="paint8_linear_10025_62820" x1="256.435" y1="0" x2="256.435" y2="141.248" gradientUnits="userSpaceOnUse">
<stop stop-color="#B9B8C0"/>
<stop offset="1" stop-color="#57565A"/>
</linearGradient>
<clipPath id="clip0_10025_62820">
<rect width="512.004" height="512.004" fill="white" transform="translate(0.432129)"/>
</clipPath>
</defs>
</svg>
