<svg width="512" height="512" viewBox="0 0 512 512" fill="none" xmlns="http://www.w3.org/2000/svg">
<path d="M128 304V480H112C99.2696 480 87.0606 474.943 78.0589 465.941C69.0571 456.939 64 444.73 64 432V256H80C92.7304 256 104.939 261.057 113.941 270.059C122.943 279.061 128 291.27 128 304ZM256 141.92C302.4 115.52 304 81.28 304 80V41.12C290.748 53.5226 273.98 61.5156 256 64C238.02 61.5156 221.252 53.5226 208 41.12V80C208 81.28 209.6 115.52 256 141.92ZM443.36 180.64C400 137.44 400 112 400 48C400 43.7565 398.314 39.6869 395.314 36.6863C392.313 33.6857 388.243 32 384 32H336V80C336 82.4 335.2 138.24 263.2 174.24C260.967 175.365 258.501 175.952 256 175.952C253.499 175.952 251.033 175.365 248.8 174.24C176.8 138.24 176 82.4 176 80V32H128C123.757 32 119.687 33.6857 116.686 36.6863C113.686 39.6869 112 43.7565 112 48C112 112 112 137.44 68.64 180.64C67.1571 182.135 65.9839 183.908 65.1877 185.857C64.3914 187.807 63.9878 189.894 64 192V224H80C101.217 224 121.566 232.429 136.569 247.431C151.571 262.434 160 282.783 160 304V480H352V304C352 282.783 360.429 262.434 375.431 247.431C390.434 232.429 410.783 224 432 224H448V192C448.012 189.894 447.609 187.807 446.812 185.857C446.016 183.908 444.843 182.135 443.36 180.64ZM384 304V480H400C412.73 480 424.939 474.943 433.941 465.941C442.943 456.939 448 444.73 448 432V256H432C419.27 256 407.061 261.057 398.059 270.059C389.057 279.061 384 291.27 384 304Z" fill="url(#paint0_linear_10025_21302)"/>
<defs>
<linearGradient id="paint0_linear_10025_21302" x1="256" y1="32" x2="256" y2="480" gradientUnits="userSpaceOnUse">
<stop stop-color="#B9B8C0"/>
<stop offset="1" stop-color="#57565A"/>
</linearGradient>
</defs>
</svg>
