<svg width="508" height="508" viewBox="0 0 508 508" fill="none" xmlns="http://www.w3.org/2000/svg">
<path d="M202.087 382.594C202.087 369.762 211.909 359.226 224.346 357.88V257.993H133.252L126.756 275.341C125.489 278.588 125.013 282.153 125.33 285.638L134.44 392.1H202.087V382.594Z" fill="url(#paint0_linear_10025_57765)"/>
<path d="M240.187 257.995H263V357.565H240.187V257.995Z" fill="url(#paint1_linear_10025_57765)"/>
<path d="M217.93 382.595V392.1H285.26V382.595C285.26 377.525 281.141 373.406 276.151 373.406H227.118C222.048 373.406 217.93 377.525 217.93 382.595Z" fill="url(#paint2_linear_10025_57765)"/>
<path d="M277.418 198.664L285.498 165.632H217.692L225.772 198.664H277.418Z" fill="url(#paint3_linear_10025_57765)"/>
<path d="M184.264 165.632C174.362 165.632 165.491 171.811 162.005 181.079L139.192 242.152H363.997L341.184 181.079C337.698 171.811 328.827 165.632 318.925 165.632H301.815L291.359 208.486C290.488 211.972 287.319 214.506 283.675 214.506H219.513C215.87 214.506 212.701 211.972 211.83 208.486L201.374 165.632H184.264Z" fill="url(#paint4_linear_10025_57765)"/>
<path d="M137.767 430.835C138.796 443.192 149.094 452.619 161.451 452.619H341.817C354.175 452.619 364.393 443.192 365.502 430.835L367.483 407.943H135.787L137.767 430.835ZM234.723 418.162H268.546C272.903 418.162 276.467 421.647 276.467 426.083C276.467 430.439 272.903 434.004 268.546 434.004H234.723C230.287 434.004 226.801 430.439 226.801 426.083C226.801 421.647 230.287 418.162 234.723 418.162Z" fill="url(#paint5_linear_10025_57765)"/>
<path d="M369.938 257.993H278.844V357.88C291.359 359.226 301.102 369.762 301.102 382.594V392.1H368.829L377.859 285.638C378.176 282.153 377.7 278.588 376.433 275.341L369.938 257.993Z" fill="url(#paint6_linear_10025_57765)"/>
<path d="M125.376 153.27C120.619 146.517 120.17 138.031 124.169 130.566C127.836 123.728 135.742 119.311 143.563 119.705C148.869 119.922 153.797 118.104 157.401 114.546C160.937 111.065 162.785 106.392 162.592 101.395C162.453 97.5198 163.358 93.7293 165.276 90.14C168.951 83.3018 176.64 79.024 184.422 79.2638C188.847 79.4494 193.001 80.8728 196.435 83.3791C199.97 85.9628 204.921 85.1815 207.505 81.6541C210.081 78.1189 209.315 73.1682 205.78 70.5845C199.808 66.2216 192.653 63.754 185.095 63.4368C171.194 62.8644 157.904 70.3756 151.321 82.652C148.096 88.6625 146.518 95.3461 146.765 101.991C146.781 102.517 146.634 102.919 146.293 103.26C145.845 103.693 145.226 103.971 143.98 103.863C130.134 103.252 116.797 110.809 110.214 123.078C103.415 135.749 104.266 150.81 112.427 162.398C113.966 164.587 116.418 165.755 118.909 165.755C120.487 165.755 122.081 165.283 123.466 164.309C127.039 161.787 127.898 156.852 125.376 153.27Z" fill="url(#paint7_linear_10025_57765)"/>
<path d="M384.804 103.593C378.878 100.189 371.909 98.3715 365.62 98.4953C365.248 98.6655 364.691 98.3406 364.359 97.9848C363.933 97.5284 363.724 96.8244 363.732 96.5537C363.755 96.368 363.81 95.8497 363.817 95.6563C364.807 81.7478 357.644 68.2801 345.577 61.3568C333.115 54.1936 318.03 54.6036 306.218 62.432C302.567 64.8455 301.569 69.7654 303.983 73.4088C306.388 77.06 311.308 78.0579 314.959 75.6444C321.859 71.0804 330.345 70.8716 337.686 75.0952C344.416 78.9552 348.57 86.7682 347.99 94.7977C347.573 99.9728 349.313 105.071 352.763 108.784C356.105 112.365 360.653 114.338 365.596 114.338H365.96C369.766 114.338 373.456 115.343 376.921 117.331C383.651 121.199 387.805 129.012 387.256 136.779C386.939 141.211 385.392 145.319 382.8 148.676C380.116 152.134 380.75 157.108 384.208 159.784C385.647 160.906 387.357 161.447 389.051 161.447C391.418 161.447 393.762 160.395 395.317 158.376C399.842 152.544 402.511 145.466 403.052 137.9C404.042 124 396.879 110.532 384.804 103.593Z" fill="url(#paint8_linear_10025_57765)"/>
<path d="M233.914 134.598C234.162 134.598 234.417 134.59 234.68 134.559C239.035 134.141 242.222 130.274 241.804 125.919C241.201 119.614 243.406 113.418 247.854 108.923C256.115 100.577 269.621 100.499 277.96 108.746C279.856 110.618 281.349 112.776 282.416 115.158C284.195 119.142 288.86 120.952 292.882 119.158C296.874 117.371 298.669 112.691 296.882 108.691C295.01 104.506 292.395 100.739 289.1 97.4825C274.549 83.0944 251.002 83.2259 236.591 97.7842C228.832 105.628 224.979 116.435 226.039 127.435C226.426 131.527 229.876 134.598 233.914 134.598Z" fill="url(#paint9_linear_10025_57765)"/>
<defs>
<linearGradient id="paint0_linear_10025_57765" x1="174.791" y1="257.993" x2="174.791" y2="392.1" gradientUnits="userSpaceOnUse">
<stop stop-color="#B9B8C0"/>
<stop offset="1" stop-color="#57565A"/>
</linearGradient>
<linearGradient id="paint1_linear_10025_57765" x1="251.593" y1="257.995" x2="251.593" y2="357.565" gradientUnits="userSpaceOnUse">
<stop stop-color="#B9B8C0"/>
<stop offset="1" stop-color="#57565A"/>
</linearGradient>
<linearGradient id="paint2_linear_10025_57765" x1="251.595" y1="373.406" x2="251.595" y2="392.1" gradientUnits="userSpaceOnUse">
<stop stop-color="#B9B8C0"/>
<stop offset="1" stop-color="#57565A"/>
</linearGradient>
<linearGradient id="paint3_linear_10025_57765" x1="251.595" y1="165.632" x2="251.595" y2="198.664" gradientUnits="userSpaceOnUse">
<stop stop-color="#B9B8C0"/>
<stop offset="1" stop-color="#57565A"/>
</linearGradient>
<linearGradient id="paint4_linear_10025_57765" x1="251.594" y1="165.632" x2="251.594" y2="242.152" gradientUnits="userSpaceOnUse">
<stop stop-color="#B9B8C0"/>
<stop offset="1" stop-color="#57565A"/>
</linearGradient>
<linearGradient id="paint5_linear_10025_57765" x1="251.635" y1="407.943" x2="251.635" y2="452.619" gradientUnits="userSpaceOnUse">
<stop stop-color="#B9B8C0"/>
<stop offset="1" stop-color="#57565A"/>
</linearGradient>
<linearGradient id="paint6_linear_10025_57765" x1="328.399" y1="257.993" x2="328.399" y2="392.1" gradientUnits="userSpaceOnUse">
<stop stop-color="#B9B8C0"/>
<stop offset="1" stop-color="#57565A"/>
</linearGradient>
<linearGradient id="paint7_linear_10025_57765" x1="157.34" y1="63.4062" x2="157.34" y2="165.755" gradientUnits="userSpaceOnUse">
<stop stop-color="#B9B8C0"/>
<stop offset="1" stop-color="#57565A"/>
</linearGradient>
<linearGradient id="paint8_linear_10025_57765" x1="352.905" y1="56.2588" x2="352.905" y2="161.447" gradientUnits="userSpaceOnUse">
<stop stop-color="#B9B8C0"/>
<stop offset="1" stop-color="#57565A"/>
</linearGradient>
<linearGradient id="paint9_linear_10025_57765" x1="261.72" y1="86.7778" x2="261.72" y2="134.598" gradientUnits="userSpaceOnUse">
<stop stop-color="#B9B8C0"/>
<stop offset="1" stop-color="#57565A"/>
</linearGradient>
</defs>
</svg>
