<svg width="512" height="512" viewBox="0 0 512 512" fill="none" xmlns="http://www.w3.org/2000/svg">
<g clip-path="url(#clip0_10025_61844)">
<path d="M271.001 179.998H241.001V239.998H271.001V179.998Z" fill="url(#paint0_linear_10025_61844)"/>
<path d="M166.572 331.998C169.238 367.022 181.176 399.498 199.78 421.998H297.236C315.84 399.498 327.763 367.008 330.429 331.998H166.572Z" fill="url(#paint1_linear_10025_61844)"/>
<path d="M301.001 179.998V209.998H346.001C354.292 209.998 361.001 216.707 361.001 224.998C361.001 233.289 354.292 239.998 346.001 239.998H301.001V254.998C301.001 263.289 294.292 269.998 286.001 269.998H226.001C217.71 269.998 211.001 263.289 211.001 254.998V179.998H46.001V421.998H163.335C145.812 392.798 136.001 356.08 136.001 316.998C136.001 308.707 142.71 301.998 151.001 301.998C166.384 301.998 352.202 301.998 361.001 301.998C385.815 301.998 406.001 322.184 406.001 346.998C406.001 371.812 385.815 391.998 361.001 391.998H347.852C343.924 402.64 339.235 412.722 333.669 421.998H466.001V179.998H301.001Z" fill="url(#paint2_linear_10025_61844)"/>
<path d="M361.001 331.998H359.772C359.102 342.248 358.012 352.271 356.029 361.998H361.001C369.277 361.998 376.001 355.274 376.001 346.998C376.001 338.722 369.277 331.998 361.001 331.998Z" fill="url(#paint3_linear_10025_61844)"/>
<path d="M481.001 451.998H31.001C22.717 451.998 16.001 458.712 16.001 466.998V496.998C16.001 505.289 22.71 511.998 31.001 511.998H481.001C489.292 511.998 496.001 505.289 496.001 496.998V466.998C496.001 458.712 489.285 451.998 481.001 451.998Z" fill="url(#paint4_linear_10025_61844)"/>
<path d="M421.001 -0.00195312H91.001C49.648 -0.00195312 16.001 33.645 16.001 74.998V149.998C194.077 149.998 316.875 149.998 496.001 149.998V74.998C496.001 33.645 462.354 -0.00195312 421.001 -0.00195312ZM121.001 119.998C112.717 119.998 106.001 113.282 106.001 104.998C106.001 96.712 112.717 89.998 121.001 89.998C129.285 89.998 136.001 96.712 136.001 104.998C136.001 113.282 129.285 119.998 121.001 119.998ZM331.001 119.998H181.001C172.71 119.998 166.001 113.289 166.001 104.998C166.001 96.707 172.71 89.998 181.001 89.998H181.294H181.602H331.001C339.292 89.998 346.001 96.707 346.001 104.998C346.001 113.289 339.292 119.998 331.001 119.998ZM391.001 119.998C382.717 119.998 376.001 113.282 376.001 104.998C376.001 96.712 382.717 89.998 391.001 89.998C399.285 89.998 406.001 96.712 406.001 104.998C406.001 113.282 399.285 119.998 391.001 119.998Z" fill="url(#paint5_linear_10025_61844)"/>
</g>
<defs>
<linearGradient id="paint0_linear_10025_61844" x1="256.001" y1="179.998" x2="256.001" y2="239.998" gradientUnits="userSpaceOnUse">
<stop stop-color="#B9B8C0"/>
<stop offset="1" stop-color="#57565A"/>
</linearGradient>
<linearGradient id="paint1_linear_10025_61844" x1="248.5" y1="331.998" x2="248.5" y2="421.998" gradientUnits="userSpaceOnUse">
<stop stop-color="#B9B8C0"/>
<stop offset="1" stop-color="#57565A"/>
</linearGradient>
<linearGradient id="paint2_linear_10025_61844" x1="256.001" y1="179.998" x2="256.001" y2="421.998" gradientUnits="userSpaceOnUse">
<stop stop-color="#B9B8C0"/>
<stop offset="1" stop-color="#57565A"/>
</linearGradient>
<linearGradient id="paint3_linear_10025_61844" x1="366.015" y1="331.998" x2="366.015" y2="361.998" gradientUnits="userSpaceOnUse">
<stop stop-color="#B9B8C0"/>
<stop offset="1" stop-color="#57565A"/>
</linearGradient>
<linearGradient id="paint4_linear_10025_61844" x1="256.001" y1="451.998" x2="256.001" y2="511.998" gradientUnits="userSpaceOnUse">
<stop stop-color="#B9B8C0"/>
<stop offset="1" stop-color="#57565A"/>
</linearGradient>
<linearGradient id="paint5_linear_10025_61844" x1="256.001" y1="-0.00195313" x2="256.001" y2="149.998" gradientUnits="userSpaceOnUse">
<stop stop-color="#B9B8C0"/>
<stop offset="1" stop-color="#57565A"/>
</linearGradient>
<clipPath id="clip0_10025_61844">
<rect width="512" height="512" fill="white" transform="translate(0.000976562 -0.00195312)"/>
</clipPath>
</defs>
</svg>
