<svg width="508" height="508" viewBox="0 0 508 508" fill="none" xmlns="http://www.w3.org/2000/svg">
<path d="M421.965 337.356C409.992 300.77 376.451 268.382 348.403 272.416C345.942 263.557 339.691 245.877 325.468 226.99C313.528 211.174 298.589 197.903 281.203 187.497C301.846 185.385 327.864 179.025 348.376 161.821C388.537 128.077 391.785 65.9742 391.785 65.9742C391.785 65.9742 329.999 58.3696 289.917 92.0349C262.373 115.129 252.208 151.531 248.57 172.159C247.33 171.714 246.075 171.268 244.732 170.806C240.555 169.383 236.076 171.588 234.668 175.718C234.505 176.192 234.549 176.667 234.478 177.145C214.005 170.989 184.863 166.169 157.316 175.604C107.808 192.635 82.3814 249.43 82.3814 249.43C82.3814 249.43 137.275 278.659 186.862 261.708C224.092 248.876 247.697 213.547 257.044 196.833L259.647 194.063C278.074 202.876 293.786 214.422 306.34 228.653C261.319 249.029 243.095 272.447 237.166 282.005C236.903 282.429 236.842 282.902 236.667 283.35C205.905 274.96 163.461 305.5 144.088 344.247C123.175 385.834 136.88 421.241 167.851 436.767C198.823 452.293 235.42 442.074 256.252 400.409C275.371 362.171 274.606 310.816 250.422 290.61C250.484 290.519 250.568 290.454 250.626 290.36C254.768 283.687 271.499 261.098 316.388 241.559C326.496 256.371 331.194 269.664 333.134 276.66C333.312 277.302 333.636 277.853 333.952 278.407C312.105 294.29 305.614 337.157 316.929 371.734C329.682 410.786 360.179 424.41 389.25 414.904C418.241 405.399 434.718 376.328 421.965 337.356ZM233.073 201.307C232.963 201.33 232.888 201.354 232.78 201.377C232.349 201.474 231.94 201.583 231.515 201.681C230.64 201.889 229.793 202.097 229.071 202.306C215.083 205.812 204.699 210.921 190.506 224.399C189.001 225.825 187.021 226.538 185.12 226.538C182.981 226.538 180.922 225.745 179.337 224.082C176.327 220.914 176.486 215.923 179.654 212.913C200.308 193.247 215.644 188.439 237.177 184.376C237.885 184.956 238.664 185.469 239.58 185.782C245.691 187.886 250.526 189.743 254.889 191.685C254.903 191.69 254.913 191.696 254.927 191.702C252.2 194.434 246.155 198.531 233.073 201.307ZM264.958 178.969C264.493 178.756 264.051 178.512 263.583 178.302C263.583 178.302 262.756 177.815 261.216 177.157C257.759 175.623 253.99 174.12 249.626 172.535C251.763 170.052 253.865 167.589 255.856 165.148C272.332 145.345 287.858 126.572 327.068 122.057C331.504 121.581 335.386 124.67 335.861 129.027C336.336 133.384 333.247 137.345 328.89 137.82C295.938 141.622 283.66 156.435 268.055 175.287C267.061 176.515 266.006 177.742 264.958 178.969ZM176.248 415.142C174.663 417.043 172.366 417.994 170.148 417.994C168.327 417.994 166.505 417.439 165.079 416.172C147.414 401.438 144.959 377.754 158.266 351.297C160.168 347.416 164.921 345.832 168.881 347.812C172.762 349.713 174.347 354.465 172.366 358.426C166.663 369.753 159.455 390.824 175.218 403.973C178.624 406.825 179.02 411.815 176.248 415.142ZM348.139 310.027C344.653 317.236 341.643 330.781 343.703 346.782C344.257 351.139 341.168 355.099 336.811 355.654C336.494 355.654 336.178 355.733 335.782 355.733C331.9 355.733 328.494 352.802 327.94 348.762C325.88 332.286 328.098 315.176 333.881 303.136C335.782 299.175 340.455 297.512 344.415 299.413C348.376 301.314 350.04 306.067 348.139 310.027Z" fill="url(#paint0_linear_10025_57777)"/>
<defs>
<linearGradient id="paint0_linear_10025_57777" x1="254.356" y1="65.2378" x2="254.356" y2="443.641" gradientUnits="userSpaceOnUse">
<stop stop-color="#B9B8C0"/>
<stop offset="1" stop-color="#57565A"/>
</linearGradient>
</defs>
</svg>
