<svg width="512" height="513" viewBox="0 0 512 513" fill="none" xmlns="http://www.w3.org/2000/svg">
<g clip-path="url(#clip0_10025_62848)">
<path d="M218.393 271.641C216.824 267.708 212.993 265.149 208.759 265.204H155.429C146.259 265.204 137.696 269.786 132.609 277.416C127.522 285.046 126.585 294.713 130.112 303.177L133.723 311.847C137.243 320.293 144.743 326.427 153.719 328.203C162.695 329.979 171.966 327.163 178.437 320.695L216.133 282.999C219.165 280.045 220.063 275.53 218.393 271.641Z" fill="url(#paint0_linear_10025_62848)"/>
<path d="M276.714 264.65C278.038 261.484 279.91 258.576 282.245 256.061C277.518 251.004 274.786 244.404 274.556 237.486C267.644 237.276 261.046 234.55 256.001 229.82C250.955 234.549 244.356 237.275 237.444 237.486C237.214 244.404 234.482 251.004 229.755 256.061C234.478 261.114 237.21 267.708 237.444 274.621C244.357 274.847 250.952 277.576 256.003 282.302C261.051 277.575 267.646 274.845 274.558 274.621C274.683 271.196 275.414 267.821 276.714 264.65Z" fill="url(#paint1_linear_10025_62848)"/>
<path d="M271.576 218.454C275.468 220.116 279.981 219.219 282.942 216.195L320.634 178.499C327.105 172.029 329.924 162.758 328.148 153.781C326.372 144.804 320.237 137.304 311.79 133.785L303.12 130.169C299.753 128.752 296.139 128.017 292.486 128.008C277.377 128.12 265.178 140.38 265.142 155.49V208.82C265.087 213.053 267.644 216.884 271.576 218.454Z" fill="url(#paint2_linear_10025_62848)"/>
<path d="M240.424 293.667C236.533 292.005 232.021 292.902 229.062 295.926L191.366 333.622C184.895 340.092 182.076 349.363 183.851 358.34C185.627 367.317 191.762 374.817 200.209 378.336L208.883 381.952C217.348 385.476 227.015 384.538 234.644 379.45C242.273 374.363 246.855 365.8 246.856 356.631V303.301C246.913 299.068 244.356 295.238 240.424 293.667Z" fill="url(#paint3_linear_10025_62848)"/>
<path d="M293.607 240.48C295.176 244.413 299.007 246.972 303.241 246.918H356.571C365.741 246.918 374.304 242.335 379.391 234.706C384.478 227.076 385.415 217.409 381.888 208.945L378.277 200.275C374.82 191.783 367.291 185.623 358.282 183.918C356.472 183.557 354.632 183.375 352.787 183.373C345.559 183.375 338.634 186.276 333.564 191.427L295.872 229.123C292.837 232.074 291.937 236.59 293.607 240.48Z" fill="url(#paint4_linear_10025_62848)"/>
<path d="M229.063 216.194C232.045 219.176 236.529 220.067 240.425 218.453C244.321 216.838 246.86 213.036 246.858 208.819V155.489C246.857 146.318 242.274 137.755 234.644 132.668C227.014 127.581 217.346 126.643 208.881 130.168L200.22 133.784C191.77 137.3 185.631 144.799 183.853 153.777C182.076 162.755 184.894 172.028 191.367 178.498L229.063 216.194Z" fill="url(#paint5_linear_10025_62848)"/>
<path d="M155.429 246.918H208.759C212.975 246.919 216.777 244.38 218.391 240.484C220.005 236.589 219.114 232.105 216.134 229.123L178.438 191.427C173.368 186.275 166.443 183.373 159.215 183.373C157.371 183.374 155.532 183.557 153.724 183.918C144.713 185.624 137.182 191.783 133.719 200.275L130.112 208.945C126.585 217.409 127.523 227.076 132.609 234.706C137.696 242.336 146.259 246.918 155.429 246.918Z" fill="url(#paint6_linear_10025_62848)"/>
<path d="M282.942 295.926C281.07 293.96 278.474 292.847 275.759 292.846C274.325 292.851 272.905 293.129 271.576 293.667C267.644 295.237 265.087 299.068 265.143 303.301V356.631C265.144 365.802 269.727 374.365 277.357 379.452C284.987 384.539 294.655 385.477 303.12 381.952L311.79 378.336C320.237 374.817 326.373 367.317 328.148 358.34C329.923 349.363 327.105 340.092 320.634 333.622L282.942 295.926Z" fill="url(#paint7_linear_10025_62848)"/>
<path d="M256 54.918C144.912 54.918 54.8569 144.973 54.8569 256.061C54.8569 367.149 144.912 457.204 256 457.204C367.088 457.204 457.143 367.149 457.143 256.061C457.017 145.025 367.036 55.044 256 54.918ZM395.161 318.882C389.3 332.968 376.794 343.198 361.826 346.15C358.894 346.725 355.912 347.015 352.924 347.016C350.743 346.959 348.569 346.746 346.419 346.376C349.541 367.062 338.156 387.212 318.826 395.212L310.156 398.828C290.837 406.937 268.478 400.803 256 383.972C243.504 400.777 221.165 406.905 201.844 398.828L193.174 395.212C173.839 387.217 162.453 367.063 165.584 346.376C163.433 346.745 161.258 346.959 159.076 347.016C156.089 347.015 153.11 346.725 150.179 346.15C135.208 343.204 122.7 332.972 116.844 318.882L113.228 310.212C105.127 290.894 111.259 268.541 128.084 256.06C111.26 243.579 105.127 221.227 113.228 201.908L116.839 193.238C124.814 173.935 144.915 162.549 165.571 165.632C162.49 144.976 173.879 124.878 193.182 116.908L201.838 113.292C221.159 105.182 243.52 111.316 255.999 128.148C268.477 111.317 290.836 105.183 310.155 113.292L318.825 116.908C338.124 124.89 349.507 144.988 346.429 165.645C367.085 162.539 387.194 173.927 395.155 193.239L398.771 201.909C406.872 221.227 400.74 243.58 383.915 256.061C400.739 268.542 406.872 290.894 398.771 310.213L395.161 318.882Z" fill="url(#paint8_linear_10025_62848)"/>
<path d="M256 0.0605469C114.615 0.0605469 0 114.676 0 256.061C0 397.446 114.615 512.061 256 512.061C397.385 512.061 512 397.446 512 256.061C511.842 114.742 397.319 0.218547 256 0.0605469ZM256 475.49C134.813 475.49 36.571 377.248 36.571 256.061C36.571 134.874 134.813 36.6315 256 36.6315C377.187 36.6315 475.429 134.874 475.429 256.061C475.29 377.191 377.13 475.351 256 475.49Z" fill="url(#paint9_linear_10025_62848)"/>
<path d="M356.571 265.203H303.241C299.024 265.202 295.222 267.741 293.608 271.637C291.994 275.533 292.887 280.017 295.87 282.998L333.562 320.694C340.034 327.163 349.306 329.979 358.282 328.203C367.259 326.427 374.759 320.292 378.28 311.846L381.887 303.176C385.414 294.711 384.476 285.045 379.39 277.415C374.304 269.785 365.741 265.203 356.571 265.203Z" fill="url(#paint10_linear_10025_62848)"/>
</g>
<defs>
<linearGradient id="paint0_linear_10025_62848" x1="173.613" y1="265.203" x2="173.613" y2="328.725" gradientUnits="userSpaceOnUse">
<stop stop-color="#B9B8C0"/>
<stop offset="1" stop-color="#57565A"/>
</linearGradient>
<linearGradient id="paint1_linear_10025_62848" x1="256" y1="229.82" x2="256" y2="282.302" gradientUnits="userSpaceOnUse">
<stop stop-color="#B9B8C0"/>
<stop offset="1" stop-color="#57565A"/>
</linearGradient>
<linearGradient id="paint2_linear_10025_62848" x1="296.905" y1="128.008" x2="296.905" y2="219.279" gradientUnits="userSpaceOnUse">
<stop stop-color="#B9B8C0"/>
<stop offset="1" stop-color="#57565A"/>
</linearGradient>
<linearGradient id="paint3_linear_10025_62848" x1="215.093" y1="292.842" x2="215.093" y2="384.059" gradientUnits="userSpaceOnUse">
<stop stop-color="#B9B8C0"/>
<stop offset="1" stop-color="#57565A"/>
</linearGradient>
<linearGradient id="paint4_linear_10025_62848" x1="338.388" y1="183.373" x2="338.388" y2="246.919" gradientUnits="userSpaceOnUse">
<stop stop-color="#B9B8C0"/>
<stop offset="1" stop-color="#57565A"/>
</linearGradient>
<linearGradient id="paint5_linear_10025_62848" x1="215.094" y1="128.061" x2="215.094" y2="219.248" gradientUnits="userSpaceOnUse">
<stop stop-color="#B9B8C0"/>
<stop offset="1" stop-color="#57565A"/>
</linearGradient>
<linearGradient id="paint6_linear_10025_62848" x1="173.594" y1="183.373" x2="173.594" y2="246.918" gradientUnits="userSpaceOnUse">
<stop stop-color="#B9B8C0"/>
<stop offset="1" stop-color="#57565A"/>
</linearGradient>
<linearGradient id="paint7_linear_10025_62848" x1="296.906" y1="292.846" x2="296.906" y2="384.06" gradientUnits="userSpaceOnUse">
<stop stop-color="#B9B8C0"/>
<stop offset="1" stop-color="#57565A"/>
</linearGradient>
<linearGradient id="paint8_linear_10025_62848" x1="256" y1="54.918" x2="256" y2="457.204" gradientUnits="userSpaceOnUse">
<stop stop-color="#B9B8C0"/>
<stop offset="1" stop-color="#57565A"/>
</linearGradient>
<linearGradient id="paint9_linear_10025_62848" x1="256" y1="0.0605469" x2="256" y2="512.061" gradientUnits="userSpaceOnUse">
<stop stop-color="#B9B8C0"/>
<stop offset="1" stop-color="#57565A"/>
</linearGradient>
<linearGradient id="paint10_linear_10025_62848" x1="338.405" y1="265.203" x2="338.405" y2="328.725" gradientUnits="userSpaceOnUse">
<stop stop-color="#B9B8C0"/>
<stop offset="1" stop-color="#57565A"/>
</linearGradient>
<clipPath id="clip0_10025_62848">
<rect width="512" height="512" fill="white" transform="translate(0 0.0605469)"/>
</clipPath>
</defs>
</svg>
