<svg width="512" height="512" viewBox="0 0 512 512" fill="none" xmlns="http://www.w3.org/2000/svg">
<g clip-path="url(#clip0_10025_61888)">
<path d="M413.437 450.998C257.226 450.998 173.371 450.998 130.999 450.998C102.75 450.998 92.871 450.998 92.534 450.998C76.221 450.998 53.771 450.998 23.437 450.998C15.146 450.998 8.43701 457.707 8.43701 465.998C8.43701 474.289 15.146 480.998 23.437 480.998H59.165L61.728 486.125C69.404 501.462 84.829 511.998 101.982 511.998H334.892C352.045 511.998 367.47 501.462 375.146 486.125L377.709 480.998H413.437C421.728 480.998 428.437 474.289 428.437 465.998C428.437 457.707 421.728 450.998 413.437 450.998Z" fill="url(#paint0_linear_10025_61888)"/>
<path d="M413.437 180.998H23.437C15.146 180.998 8.43701 187.707 8.43701 195.998C8.43701 285.401 39.175 367.645 90.104 420.998H346.77C397.699 367.645 428.437 285.401 428.437 195.998C428.437 187.707 421.728 180.998 413.437 180.998Z" fill="url(#paint1_linear_10025_61888)"/>
<path d="M486.196 228.239C478.46 220.521 468.468 215.989 457.54 213.455C457.115 223.546 456.65 233.602 455.511 243.482C459.127 244.894 462.359 246.831 464.985 249.449C482.226 266.705 472.514 305.567 443.759 334.307C439.059 339.005 434.034 343.065 428.907 346.74C422.683 361.78 415.824 376.323 407.817 389.839C427.686 384.183 447.846 372.653 464.97 355.518C506.602 313.903 515.933 257.99 486.196 228.239Z" fill="url(#paint2_linear_10025_61888)"/>
<path d="M368.437 89.998H363.691C368.884 81.011 371.762 70.688 371.762 59.998C371.762 26.907 344.853 -0.00195312 311.762 -0.00195312C304.907 -0.00195312 298.139 1.15505 291.65 3.44005C286.098 5.40305 282.202 10.442 281.704 16.301C281.045 23.977 274.482 29.998 266.763 29.998H146.763C122.434 29.998 100.979 41.839 87.318 59.998H173.438C181.729 59.998 188.438 66.707 188.438 74.998C188.438 83.289 181.729 89.998 173.438 89.998H73.535H68.437C35.346 89.998 8.43701 117.907 8.43701 150.998H428.437C428.437 117.907 401.528 89.998 368.437 89.998Z" fill="url(#paint3_linear_10025_61888)"/>
</g>
<defs>
<linearGradient id="paint0_linear_10025_61888" x1="218.437" y1="450.998" x2="218.437" y2="511.998" gradientUnits="userSpaceOnUse">
<stop stop-color="#B9B8C0"/>
<stop offset="1" stop-color="#57565A"/>
</linearGradient>
<linearGradient id="paint1_linear_10025_61888" x1="218.437" y1="180.998" x2="218.437" y2="420.998" gradientUnits="userSpaceOnUse">
<stop stop-color="#B9B8C0"/>
<stop offset="1" stop-color="#57565A"/>
</linearGradient>
<linearGradient id="paint2_linear_10025_61888" x1="455.691" y1="213.455" x2="455.691" y2="389.839" gradientUnits="userSpaceOnUse">
<stop stop-color="#B9B8C0"/>
<stop offset="1" stop-color="#57565A"/>
</linearGradient>
<linearGradient id="paint3_linear_10025_61888" x1="218.437" y1="-0.00195313" x2="218.437" y2="150.998" gradientUnits="userSpaceOnUse">
<stop stop-color="#B9B8C0"/>
<stop offset="1" stop-color="#57565A"/>
</linearGradient>
<clipPath id="clip0_10025_61888">
<rect width="512" height="512" fill="white" transform="translate(0.000976562 -0.00195312)"/>
</clipPath>
</defs>
</svg>
