<svg width="512" height="513" viewBox="0 0 512 513" fill="none" xmlns="http://www.w3.org/2000/svg">
<g clip-path="url(#clip0_10025_62878)">
<path d="M256 54.918C144.912 54.918 54.8571 144.973 54.8571 256.061C54.8571 367.149 144.912 457.204 256 457.204C367.088 457.204 457.143 367.149 457.143 256.061C457.017 145.025 367.036 55.044 256 54.918ZM359.25 139.883C362.827 136.357 368.579 136.378 372.131 139.93C375.683 143.482 375.704 149.233 372.178 152.811L326.464 198.525C322.888 202.061 317.128 202.044 313.572 198.489C310.016 194.933 310 189.174 313.535 185.597L359.25 139.883ZM367.893 222.82L343.759 232.106C339.047 233.91 333.764 231.556 331.954 226.847C330.144 222.138 332.49 216.852 337.197 215.035L361.331 205.749C366.043 203.945 371.326 206.299 373.136 211.008C374.946 215.717 372.6 221.003 367.893 222.82ZM284.406 169.641L294.911 146.007C296.235 143.019 299.054 140.965 302.305 140.62C305.555 140.275 308.743 141.693 310.664 144.337C312.585 146.981 312.949 150.45 311.617 153.435L301.112 177.069C299.788 180.057 296.969 182.111 293.718 182.456C290.468 182.801 287.28 181.383 285.359 178.739C283.437 176.095 283.074 172.626 284.406 169.641ZM139.821 139.883C141.535 138.168 143.861 137.204 146.285 137.204C148.709 137.204 151.035 138.168 152.749 139.883L198.463 185.597C200.797 187.902 201.717 191.28 200.875 194.449C200.033 197.618 197.557 200.094 194.387 200.937C191.217 201.779 187.839 200.859 185.535 198.525L139.821 152.811C138.106 151.097 137.143 148.772 137.143 146.347C137.143 143.922 138.107 141.597 139.821 139.883ZM181.647 223.016C179.592 227.628 174.191 229.706 169.576 227.659L145.947 217.159C142.961 215.832 140.91 213.013 140.567 209.764C140.223 206.515 141.639 203.329 144.281 201.407C146.923 199.485 150.39 199.118 153.376 200.445L177.005 210.945C181.617 212.999 183.695 218.401 181.647 223.016ZM100.571 265.204C95.5221 265.204 91.4281 261.111 91.4281 256.061C91.4281 251.011 95.5211 246.918 100.571 246.918H201.142C206.191 246.918 210.285 251.011 210.285 256.061C210.285 261.111 206.192 265.204 201.142 265.204H100.571ZM174.804 297.088L150.67 306.374C145.958 308.178 140.675 305.824 138.865 301.115C137.055 296.406 139.401 291.12 144.107 289.303L168.241 280.017C172.953 278.213 178.236 280.567 180.046 285.276C181.856 289.985 179.511 295.271 174.804 297.088ZM152.75 372.239C149.174 375.775 143.414 375.758 139.858 372.203C136.302 368.647 136.286 362.888 139.821 359.311L185.535 313.597C189.111 310.062 194.871 310.078 198.427 313.633C201.983 317.189 201.999 322.949 198.464 326.525L152.75 372.239ZM227.594 342.48L217.089 366.114C215.765 369.102 212.946 371.156 209.695 371.501C206.444 371.846 203.257 370.428 201.336 367.784C199.415 365.14 199.052 361.671 200.383 358.686L210.888 335.052C212.212 332.064 215.031 330.01 218.282 329.665C221.532 329.32 224.72 330.738 226.641 333.382C228.562 336.026 228.926 339.495 227.594 342.48ZM226.79 180.124C222.074 181.933 216.785 179.579 214.973 174.865L205.692 150.722C204.521 147.673 205.066 144.23 207.122 141.691C209.178 139.152 212.431 137.903 215.658 138.414C218.885 138.925 221.593 141.118 222.764 144.168L232.045 168.311C233.853 173.024 231.501 178.311 226.79 180.124ZM265.143 411.49C265.143 416.539 261.05 420.633 256 420.633C250.95 420.633 246.857 416.54 246.857 411.49V310.918C246.857 305.869 250.95 301.775 256 301.775C261.049 301.775 265.143 305.868 265.143 310.918V411.49ZM265.143 201.204C265.143 206.253 261.05 210.347 256 210.347C250.95 210.347 246.857 206.254 246.857 201.204V100.632C246.857 95.583 250.95 91.489 256 91.489C261.049 91.489 265.143 95.582 265.143 100.632V201.204ZM306.132 368.39C305.147 370.607 303.322 372.342 301.058 373.213C296.346 375.021 291.061 372.672 289.245 367.963L279.959 343.82C278.777 340.77 279.314 337.321 281.368 334.776C283.422 332.231 286.679 330.976 289.91 331.486C293.141 331.996 295.853 334.194 297.022 337.249L306.308 361.392C307.18 363.655 307.117 366.173 306.132 368.39ZM372.165 372.445C368.586 376.003 362.801 375.991 359.236 372.418L313.522 326.516C311.216 324.202 310.319 320.833 311.17 317.678C312.021 314.524 314.49 312.063 317.648 311.223C320.805 310.383 324.171 311.291 326.477 313.605L372.191 359.507C375.756 363.088 375.744 368.879 372.165 372.445ZM330.353 289.106C332.411 284.498 337.809 282.422 342.424 284.463L366.053 294.963C369.039 296.29 371.09 299.109 371.433 302.358C371.777 305.607 370.361 308.793 367.719 310.715C365.077 312.637 361.61 313.004 358.624 311.677L334.995 301.177C330.383 299.123 328.305 293.721 330.353 289.106ZM411.429 265.204H310.857C305.808 265.204 301.714 261.111 301.714 256.061C301.714 251.011 305.807 246.918 310.857 246.918H411.428C416.477 246.918 420.571 251.011 420.571 256.061C420.571 261.111 416.478 265.204 411.429 265.204Z" fill="url(#paint0_linear_10025_62878)"/>
<path d="M256 0.0605469C114.615 0.0605469 0 114.676 0 256.061C0 397.446 114.615 512.061 256 512.061C397.385 512.061 512 397.446 512 256.061C511.842 114.742 397.319 0.218547 256 0.0605469ZM256 475.49C134.813 475.49 36.571 377.248 36.571 256.061C36.571 134.874 134.813 36.6315 256 36.6315C377.187 36.6315 475.429 134.874 475.429 256.061C475.29 377.191 377.13 475.351 256 475.49Z" fill="url(#paint1_linear_10025_62878)"/>
</g>
<defs>
<linearGradient id="paint0_linear_10025_62878" x1="256" y1="54.918" x2="256" y2="457.204" gradientUnits="userSpaceOnUse">
<stop stop-color="#B9B8C0"/>
<stop offset="1" stop-color="#57565A"/>
</linearGradient>
<linearGradient id="paint1_linear_10025_62878" x1="256" y1="0.0605469" x2="256" y2="512.061" gradientUnits="userSpaceOnUse">
<stop stop-color="#B9B8C0"/>
<stop offset="1" stop-color="#57565A"/>
</linearGradient>
<clipPath id="clip0_10025_62878">
<rect width="512" height="512" fill="white" transform="translate(0 0.0605469)"/>
</clipPath>
</defs>
</svg>
