<svg width="507" height="508" viewBox="0 0 507 508" fill="none" xmlns="http://www.w3.org/2000/svg">
<path d="M97.0347 243.785C69.3104 243.785 46.8138 266.281 46.8138 294.005C46.8138 321.73 69.3104 344.226 97.0347 344.226C124.759 344.226 147.255 321.73 147.255 294.005C147.255 266.281 124.759 243.785 97.0347 243.785ZM89.4301 321.492C87.9251 323.948 85.3114 325.294 82.618 325.294C81.1922 325.294 79.7664 324.898 78.4988 324.106C67.9639 317.611 61.627 306.363 61.627 294.005C61.627 283.787 66.0629 274.123 73.7462 267.39C76.9937 264.459 81.9841 264.855 84.915 268.103C87.767 271.43 87.4498 276.42 84.2023 279.272C79.925 282.995 77.4695 288.381 77.4695 294.005C77.4695 300.818 80.9543 307.075 86.8165 310.64C90.5392 312.937 91.6483 317.769 89.4301 321.492ZM119.293 312.462C117.709 314.205 115.571 315.155 113.352 315.155C111.451 315.155 109.63 314.521 108.125 313.175C104.797 310.323 104.481 305.254 107.411 302.006C109.312 299.788 110.422 296.936 110.422 294.005C110.422 289.332 107.807 285.134 103.53 283.074C99.6488 281.173 97.9852 276.42 99.8862 272.459C101.787 268.578 106.54 266.915 110.501 268.816C120.085 273.489 126.264 283.391 126.264 294.005C126.264 300.818 123.808 307.313 119.293 312.462Z" fill="url(#paint0_linear_10025_57788)"/>
<path d="M273.679 244.734C269.163 243.308 264.332 242.674 259.262 242.674C254.193 242.674 249.36 243.308 244.845 244.734C223.537 250.992 207.932 270.716 207.932 294.004C207.932 317.293 223.537 337.016 244.845 343.274C249.36 344.7 254.193 345.334 259.262 345.334C264.332 345.334 269.163 344.7 273.679 343.274C294.987 337.016 310.592 317.293 310.592 294.004C310.592 270.716 294.987 250.992 273.679 244.734ZM286.986 312.382C282.313 321.966 272.491 328.145 261.797 328.145C254.985 328.145 248.489 325.61 243.34 321.174C240.093 318.243 239.776 313.253 242.627 310.005C245.558 306.678 250.549 306.361 253.796 309.292C256.014 311.193 258.866 312.302 261.797 312.302C266.47 312.302 270.668 309.609 272.728 305.411C274.629 301.529 279.382 299.866 283.343 301.767C287.224 303.668 288.887 308.421 286.986 312.382ZM287.699 286.796C284.372 289.647 279.382 289.33 276.53 286.004C272.807 281.805 267.421 279.35 261.797 279.35C254.985 279.35 248.806 282.835 245.162 288.697C243.657 291.073 241.122 292.42 238.429 292.42C237.003 292.42 235.577 292.024 234.31 291.232C230.587 288.935 229.399 284.103 231.696 280.379C238.192 269.844 249.44 263.507 261.797 263.507C272.015 263.507 281.679 267.943 288.412 275.627C291.343 278.874 290.947 283.865 287.699 286.796Z" fill="url(#paint1_linear_10025_57788)"/>
<path d="M192.089 294.005C192.089 274.44 200.723 256.221 214.744 243.785H139.809C154.067 255.825 163.097 273.885 163.097 294.005C163.097 314.125 154.067 332.186 139.809 344.226H214.744C200.723 331.789 192.089 313.571 192.089 294.005Z" fill="url(#paint2_linear_10025_57788)"/>
<path d="M409.923 243.785H303.778C317.799 256.221 326.433 274.44 326.433 294.005C326.433 313.571 317.799 331.789 303.778 344.226H409.923C423.785 344.226 436.301 338.602 445.41 329.492C454.519 320.383 460.144 307.868 460.144 294.005C460.144 266.281 437.647 243.785 409.923 243.785ZM344.889 268.895C344.889 264.538 348.454 260.974 352.811 260.974H390.674C395.031 260.974 398.595 264.538 398.595 268.895C398.595 273.331 395.031 276.816 390.674 276.816H352.811C348.454 276.816 344.889 273.331 344.889 268.895ZM411.111 316.819H373.247C368.891 316.819 365.326 313.254 365.326 308.897C365.326 304.54 368.891 300.976 373.247 300.976H411.111C415.468 300.976 419.032 304.54 419.032 308.897C419.032 313.254 415.468 316.819 411.111 316.819Z" fill="url(#paint3_linear_10025_57788)"/>
<path d="M219.339 227.941H327.067C340.929 227.941 353.524 222.317 362.555 213.287C371.664 204.098 377.288 191.661 377.288 177.799C377.288 172.809 376.575 168.056 375.228 163.462H240.884C241.914 168.056 242.389 172.888 242.389 177.799C242.389 197.761 233.438 215.742 219.339 227.941ZM319.78 177.641H336.652C341.009 177.641 344.573 181.205 344.573 185.562C344.573 189.919 341.009 193.484 336.652 193.484H319.78C315.344 193.484 311.858 189.919 311.858 185.562C311.858 181.205 315.344 177.641 319.78 177.641ZM270.906 195.86H287.778C292.135 195.86 295.699 199.345 295.699 203.781C295.699 208.138 292.135 211.702 287.778 211.702H270.906C266.549 211.702 262.985 208.138 262.985 203.781C262.985 199.345 266.549 195.86 270.906 195.86Z" fill="url(#paint4_linear_10025_57788)"/>
<path d="M176.406 227.941C204.13 227.941 226.547 205.524 226.547 177.799C226.547 172.809 225.913 168.056 224.566 163.462H128.244C126.898 168.056 126.264 172.809 126.264 177.799C126.264 205.524 148.681 227.941 176.406 227.941ZM155.731 191.107C158.266 187.543 163.177 186.75 166.741 189.285C169.514 191.266 172.762 192.533 176.168 192.85C178.782 193.087 181.317 192.85 183.693 192.137C187.891 190.87 192.327 193.246 193.595 197.444C194.862 201.642 192.485 206.078 188.287 207.346C184.96 208.296 181.633 208.772 178.227 208.772C176.96 208.772 175.772 208.772 174.583 208.613C168.405 207.979 162.464 205.762 157.474 202.118C153.909 199.583 153.117 194.672 155.731 191.107Z" fill="url(#paint5_linear_10025_57788)"/>
<defs>
<linearGradient id="paint0_linear_10025_57788" x1="97.0347" y1="243.785" x2="97.0347" y2="344.226" gradientUnits="userSpaceOnUse">
<stop stop-color="#B9B8C0"/>
<stop offset="1" stop-color="#57565A"/>
</linearGradient>
<linearGradient id="paint1_linear_10025_57788" x1="259.262" y1="242.674" x2="259.262" y2="345.334" gradientUnits="userSpaceOnUse">
<stop stop-color="#B9B8C0"/>
<stop offset="1" stop-color="#57565A"/>
</linearGradient>
<linearGradient id="paint2_linear_10025_57788" x1="177.276" y1="243.785" x2="177.276" y2="344.226" gradientUnits="userSpaceOnUse">
<stop stop-color="#B9B8C0"/>
<stop offset="1" stop-color="#57565A"/>
</linearGradient>
<linearGradient id="paint3_linear_10025_57788" x1="381.961" y1="243.785" x2="381.961" y2="344.226" gradientUnits="userSpaceOnUse">
<stop stop-color="#B9B8C0"/>
<stop offset="1" stop-color="#57565A"/>
</linearGradient>
<linearGradient id="paint4_linear_10025_57788" x1="298.313" y1="163.462" x2="298.313" y2="227.941" gradientUnits="userSpaceOnUse">
<stop stop-color="#B9B8C0"/>
<stop offset="1" stop-color="#57565A"/>
</linearGradient>
<linearGradient id="paint5_linear_10025_57788" x1="176.405" y1="163.462" x2="176.405" y2="227.941" gradientUnits="userSpaceOnUse">
<stop stop-color="#B9B8C0"/>
<stop offset="1" stop-color="#57565A"/>
</linearGradient>
</defs>
</svg>
