<svg width="512" height="512" viewBox="0 0 512 512" fill="none" xmlns="http://www.w3.org/2000/svg">
<path d="M161.44 376.16C167.4 382.156 170.745 390.266 170.745 398.72C170.745 407.174 167.4 415.284 161.44 421.28L117.28 465.44C112.041 470.674 105.703 474.677 98.7258 477.158C91.7485 479.64 84.3064 480.538 76.9391 479.787C69.5718 479.037 62.4637 476.656 56.1301 472.819C49.7964 468.981 44.3959 463.783 40.32 457.6C34.0134 447.686 31.3324 435.895 32.7324 424.229C34.1323 412.563 39.5269 401.74 48 393.6L90.88 350.88C96.8756 344.92 104.986 341.575 113.44 341.575C121.894 341.575 130.004 344.92 136 350.88L161.44 376.16ZM480 173.12C475.054 214.604 456.303 253.22 426.762 282.762C397.22 312.303 358.604 331.054 317.12 336C283.929 339.62 250.611 330.404 224 310.24L182.72 352L160 329.28L201.76 288C181.596 261.389 172.38 228.071 176 194.88C180.946 153.396 199.697 114.78 229.238 85.2385C258.78 55.6971 297.396 36.9464 338.88 32C357.914 29.7824 377.202 31.8183 395.353 37.9609C413.504 44.1035 430.065 54.1994 443.84 67.52C457.364 81.309 467.631 97.9496 473.887 116.222C480.144 134.494 482.233 153.936 480 173.12ZM448 151.04L414.56 184L438.4 208C443.466 195.963 446.702 183.235 448 170.24C448.56 163.852 448.56 157.428 448 151.04ZM421.12 90.88C414.129 83.8057 405.952 78.0113 396.96 73.76L350.56 120L392 161.44L438.24 115.04C433.989 106.048 428.194 97.8713 421.12 90.88ZM208 216.96L240.96 184L217.6 160C212.534 172.037 209.298 184.765 208 197.76C207.44 204.148 207.44 210.572 208 216.96ZM217.28 252.96C225.942 271.016 240.504 285.578 258.56 294.24L304.96 248L264 206.56L217.28 252.96ZM327.52 225.44L368.96 184L328 142.56L286.56 184L327.52 225.44ZM304 73.6L328 97.44L360.96 64C354.572 63.44 348.148 63.44 341.76 64C328.765 65.2982 316.037 68.534 304 73.6ZM233.44 130.88L264 161.44L305.44 120L274.88 89.44C258.633 100.584 244.584 114.633 233.44 130.88ZM352 294.4L328 270.56L295.04 304C301.428 304.56 307.852 304.56 314.24 304C327.235 302.702 339.963 299.466 352 294.4ZM422.88 237.12L392 206.56L350.56 248L381.12 278.56C397.367 267.416 411.416 253.367 422.56 237.12H422.88ZM64 131.04V160C64 172.73 69.0571 184.939 78.0589 193.941C87.0606 202.943 99.2696 208 112 208C124.73 208 136.939 202.943 145.941 193.941C154.943 184.939 160 172.73 160 160V131.04L190.88 53.92C191.657 51.966 192.042 49.8779 192.013 47.7751C191.983 45.6722 191.54 43.5958 190.708 41.6643C189.876 39.7329 188.671 37.9842 187.164 36.5182C185.656 35.0521 183.874 33.8974 181.92 33.12C179.966 32.3426 177.878 31.9577 175.775 31.9872C173.672 32.0168 171.596 32.4602 169.664 33.2922C167.733 34.1242 165.984 35.3285 164.518 36.8363C163.052 38.3441 161.897 40.126 161.12 42.08L133.12 112H128V48C128 43.7566 126.314 39.6869 123.314 36.6863C120.313 33.6857 116.243 32 112 32C107.757 32 103.687 33.6857 100.686 36.6863C97.6857 39.6869 96 43.7566 96 48V112H90.88L62.88 42.08C61.3099 38.1336 58.2364 34.9725 54.3357 33.2922C50.4349 31.6119 46.0264 31.5499 42.08 33.12C38.1336 34.6901 34.9725 37.7636 33.2922 41.6643C31.6118 45.5651 31.5499 49.9736 33.12 53.92L64 131.04Z" fill="url(#paint0_linear_10025_21314)"/>
<defs>
<linearGradient id="paint0_linear_10025_21314" x1="256.427" y1="31.1302" x2="256.427" y2="480.044" gradientUnits="userSpaceOnUse">
<stop stop-color="#B9B8C0"/>
<stop offset="1" stop-color="#57565A"/>
</linearGradient>
</defs>
</svg>
