<svg width="508" height="508" viewBox="0 0 508 508" fill="none" xmlns="http://www.w3.org/2000/svg">
<path d="M331.02 173.673C317.275 173.844 304.213 177.344 292.432 183.576C268.357 196.297 238.818 196.638 214.402 184.345C202.535 178.368 189.473 175.124 175.643 175.21C123.225 175.722 81.2218 225.067 81.8193 285.425C81.8193 288.242 81.9895 290.974 82.1607 293.706C86.4293 350.137 127.834 394.274 177.863 393.762C191.608 393.676 204.669 390.176 216.45 383.944C240.525 371.139 270.064 370.882 294.481 383.176C306.347 389.152 319.409 392.396 333.239 392.225C383.268 391.713 423.734 346.807 426.893 290.291V289.95C427.064 287.303 427.064 284.657 427.064 282.01C426.466 221.652 383.438 173.161 331.02 173.673ZM150.373 251.02C150.373 241.031 158.483 232.836 168.557 232.836C178.546 232.836 186.656 241.031 186.656 251.02C186.656 261.009 178.546 269.119 168.557 269.119C158.483 269.119 150.373 261.009 150.373 251.02ZM176.241 356.283C166.252 356.283 158.056 348.174 158.056 338.099C158.056 328.111 166.252 320 176.241 320C186.229 320 194.34 328.111 194.34 338.099C194.34 348.174 186.229 356.283 176.241 356.283ZM276.126 331.441C274.418 333.83 271.857 335.026 269.21 335.026C267.418 335.026 265.71 334.514 264.174 333.404L246.075 320.428C242.233 317.61 241.38 312.317 244.111 308.476C246.843 304.633 252.222 303.78 256.063 306.512L274.162 319.574C278.004 322.305 278.858 327.598 276.126 331.441ZM269.21 269.119C259.137 269.119 251.026 261.009 251.026 251.02C251.026 241.031 259.137 232.836 269.21 232.836C279.199 232.836 287.31 241.031 287.31 251.02C287.31 261.009 279.199 269.119 269.21 269.119ZM321.543 218.237C324.873 214.907 330.337 214.993 333.581 218.323L348.179 233.092C351.509 236.422 351.509 241.8 348.094 245.129C346.472 246.751 344.253 247.605 342.118 247.605C339.899 247.605 337.679 246.751 336.057 245.044L321.458 230.36C318.129 226.945 318.214 221.567 321.543 218.237ZM338.106 349.368C328.032 349.368 319.921 341.259 319.921 331.269C319.921 321.281 328.032 313.085 338.106 313.085C348.094 313.085 356.205 321.281 356.205 331.269C356.205 341.259 348.094 349.368 338.106 349.368Z" fill="url(#paint0_linear_10025_57796)"/>
<path d="M342.374 408.702C340.923 408.958 339.387 409.043 337.935 409.128C336.399 409.214 334.777 409.299 333.239 409.299C331.191 409.299 329.227 409.299 327.178 409.128C325.471 409.043 323.678 408.872 321.971 408.702C312.324 407.506 303.103 404.604 294.481 400.249C285.005 395.383 274.674 392.566 264.174 391.627C263.15 391.456 262.125 391.456 261.101 391.371C259.479 391.286 257.771 391.2 256.149 391.2C254.527 391.2 252.819 391.286 251.197 391.371C251.112 391.371 251.026 391.371 251.026 391.371C238.989 392.054 227.208 395.298 216.45 401.018C206.462 406.311 195.535 409.64 184.009 410.58C181.96 410.75 179.912 410.836 177.863 410.836H177.009C175.216 410.836 173.423 410.75 171.63 410.665C170.35 410.58 169.069 410.494 167.789 410.324C135.091 407.336 105.894 388.042 87.0269 359.527C99.8326 410.409 136.03 446.948 178.204 446.521C191.949 446.436 205.011 442.338 216.792 435.167C240.867 420.312 270.406 419.97 294.822 434.399C306.603 441.314 319.836 445.155 333.581 444.984C375.413 444.558 410.587 408.018 422.709 357.478C404.099 386.078 375.157 405.543 342.374 408.702Z" fill="url(#paint1_linear_10025_57796)"/>
<path d="M160.277 142.531C162.923 143.214 165.655 143.555 168.557 143.555C187.766 143.555 203.389 127.932 203.389 108.724C203.389 89.4291 187.766 73.8066 168.557 73.8066C151.654 73.8066 137.482 85.8437 134.323 101.894C133.897 104.114 133.641 106.333 133.641 108.724C133.641 125.115 144.995 138.86 160.277 142.531Z" fill="url(#paint2_linear_10025_57796)"/>
<path d="M127.653 163.319C137.898 163.319 146.862 157.684 151.472 149.318C136.19 145.647 124.836 131.902 124.836 115.511C124.836 113.12 125.092 110.901 125.519 108.681C111.433 109.705 100.249 121.486 100.249 135.915C100.249 151.026 112.543 163.319 127.653 163.319Z" fill="url(#paint3_linear_10025_57796)"/>
<path d="M297.469 158.154C314.116 154.825 325.641 140.312 325.641 124.006C325.641 121.786 325.385 119.481 324.959 117.176C321.8 101.126 308.055 89.7713 292.346 89.1737C289.614 89.0031 286.882 89.2593 284.065 89.7713C265.198 93.4423 252.819 111.797 256.575 130.664C260.332 149.532 278.602 161.825 297.469 158.154Z" fill="url(#paint4_linear_10025_57796)"/>
<path d="M333.458 109.141C333.885 111.447 334.141 113.752 334.141 115.971C347.8 112.215 356.509 98.5552 353.691 84.3841C350.789 69.5294 336.361 59.8821 321.506 62.7844C311.432 64.7483 303.749 72.0047 300.846 81.1395C316.554 81.7376 330.3 93.0919 333.458 109.141Z" fill="url(#paint5_linear_10025_57796)"/>
<defs>
<linearGradient id="paint0_linear_10025_57796" x1="254.438" y1="173.669" x2="254.438" y2="393.766" gradientUnits="userSpaceOnUse">
<stop stop-color="#B9B8C0"/>
<stop offset="1" stop-color="#57565A"/>
</linearGradient>
<linearGradient id="paint1_linear_10025_57796" x1="254.868" y1="357.478" x2="254.868" y2="446.525" gradientUnits="userSpaceOnUse">
<stop stop-color="#B9B8C0"/>
<stop offset="1" stop-color="#57565A"/>
</linearGradient>
<linearGradient id="paint2_linear_10025_57796" x1="168.515" y1="73.8066" x2="168.515" y2="143.555" gradientUnits="userSpaceOnUse">
<stop stop-color="#B9B8C0"/>
<stop offset="1" stop-color="#57565A"/>
</linearGradient>
<linearGradient id="paint3_linear_10025_57796" x1="125.861" y1="108.681" x2="125.861" y2="163.319" gradientUnits="userSpaceOnUse">
<stop stop-color="#B9B8C0"/>
<stop offset="1" stop-color="#57565A"/>
</linearGradient>
<linearGradient id="paint4_linear_10025_57796" x1="290.772" y1="89.1211" x2="290.772" y2="158.802" gradientUnits="userSpaceOnUse">
<stop stop-color="#B9B8C0"/>
<stop offset="1" stop-color="#57565A"/>
</linearGradient>
<linearGradient id="paint5_linear_10025_57796" x1="327.533" y1="62.269" x2="327.533" y2="115.971" gradientUnits="userSpaceOnUse">
<stop stop-color="#B9B8C0"/>
<stop offset="1" stop-color="#57565A"/>
</linearGradient>
</defs>
</svg>
