<svg width="512" height="512" viewBox="0 0 512 512" fill="none" xmlns="http://www.w3.org/2000/svg">
<g clip-path="url(#clip0_10025_61949)">
<path d="M511.945 447.289C511.227 430.01 503.232 413.683 490.464 402.891L238.518 171.104C248.695 131.274 234.476 86.5689 200.021 52.1279C150.741 2.81691 65.647 -20.4051 22.604 22.6359C-20.256 65.4659 2.45401 150.426 52.095 200.067C86.989 234.947 132.164 249.019 172.242 238.256L402.517 489.989C425.899 517.589 468.014 519.569 493.802 493.782C506.059 481.525 512.663 464.568 511.945 447.289Z" fill="url(#paint0_linear_10025_61949)"/>
<path d="M161.8 274.817L22.172 402.369C8.95 413.571 0.954998 429.912 0.236998 447.19C-0.481002 464.484 6.138 481.411 18.379 493.652C44.172 519.445 86.408 517.362 109.269 490.313L234.362 354.245L161.8 274.817Z" fill="url(#paint1_linear_10025_61949)"/>
<path d="M489.409 22.613C446.934 -19.862 362.174 1.907 311.978 52.103C281.013 83.068 266.523 122.087 271.181 158.512L361.291 241.346C395.476 243.114 431.236 228.724 459.919 200.029C509.493 150.484 532.278 65.451 489.409 22.613Z" fill="url(#paint2_linear_10025_61949)"/>
</g>
<defs>
<linearGradient id="paint0_linear_10025_61949" x1="255.999" y1="0.0361328" x2="255.999" y2="511.964" gradientUnits="userSpaceOnUse">
<stop stop-color="#B9B8C0"/>
<stop offset="1" stop-color="#57565A"/>
</linearGradient>
<linearGradient id="paint1_linear_10025_61949" x1="117.273" y1="274.817" x2="117.273" y2="511.851" gradientUnits="userSpaceOnUse">
<stop stop-color="#B9B8C0"/>
<stop offset="1" stop-color="#57565A"/>
</linearGradient>
<linearGradient id="paint2_linear_10025_61949" x1="391.163" y1="0.0361328" x2="391.163" y2="241.491" gradientUnits="userSpaceOnUse">
<stop stop-color="#B9B8C0"/>
<stop offset="1" stop-color="#57565A"/>
</linearGradient>
<clipPath id="clip0_10025_61949">
<rect width="512" height="512" fill="white"/>
</clipPath>
</defs>
</svg>
