<svg width="512" height="512" viewBox="0 0 512 512" fill="none" xmlns="http://www.w3.org/2000/svg">
<path d="M414.812 89.999H177.313L136.418 21.825C128.318 8.36302 113.523 -0.000976562 97.82 -0.000976562H24.811C16.52 -0.000976562 9.811 6.70802 9.811 14.999C9.811 23.29 16.52 29.999 24.811 29.999H97.82C103.064 29.999 108.001 32.797 110.696 37.279L142.323 89.999H84.811C76.52 89.999 69.811 96.708 69.811 104.999C69.811 163.402 107.355 214.569 162.301 232.748C171.28 280.297 207.477 314.999 249.811 314.999C292.145 314.999 328.341 280.297 337.321 232.748C392.267 214.569 429.811 163.402 429.811 104.999C429.812 96.708 423.102 89.999 414.812 89.999Z" fill="url(#paint0_linear_10025_61959)"/>
<path d="M315.32 430.935C302.854 424.211 294.812 409.402 294.812 393.201V335.568C280.744 342.085 265.603 346 249.812 346C234.021 346 218.88 342.085 204.812 335.568V393.201C204.812 409.402 196.77 424.212 184.319 430.921C159.944 444.031 144.812 469.344 144.812 497C144.812 505.291 151.521 512 159.812 512H339.812C348.103 512 354.812 505.291 354.812 497C354.812 469.343 339.68 444.03 315.32 430.935Z" fill="url(#paint1_linear_10025_61959)"/>
<path d="M467.034 38.8608C420.247 -7.92624 344.119 -7.92624 297.332 38.8608C291.526 44.6668 291.435 54.0818 297.283 59.9988H415.281C439.832 59.9988 459.812 79.9788 459.812 104.53C459.812 137.875 450.032 169.192 432.744 195.478L445.823 208.563C451.683 214.423 461.174 214.423 467.034 208.563C489.71 185.902 502.19 155.77 502.19 123.719C502.19 91.6538 489.708 61.5218 467.034 38.8608Z" fill="url(#paint2_linear_10025_61959)"/>
<defs>
<linearGradient id="paint0_linear_10025_61959" x1="219.811" y1="-0.000976563" x2="219.811" y2="314.999" gradientUnits="userSpaceOnUse">
<stop stop-color="#B9B8C0"/>
<stop offset="1" stop-color="#57565A"/>
</linearGradient>
<linearGradient id="paint1_linear_10025_61959" x1="249.812" y1="335.568" x2="249.812" y2="512" gradientUnits="userSpaceOnUse">
<stop stop-color="#B9B8C0"/>
<stop offset="1" stop-color="#57565A"/>
</linearGradient>
<linearGradient id="paint2_linear_10025_61959" x1="397.564" y1="3.77051" x2="397.564" y2="212.958" gradientUnits="userSpaceOnUse">
<stop stop-color="#B9B8C0"/>
<stop offset="1" stop-color="#57565A"/>
</linearGradient>
</defs>
</svg>
