<svg width="512" height="512" viewBox="0 0 512 512" fill="none" xmlns="http://www.w3.org/2000/svg">
<g clip-path="url(#clip0_10025_61969)">
<path d="M405.987 90H395.306L396.655 76.494C397.08 72.275 395.688 68.071 392.846 64.936C390.006 61.787 385.963 60 381.729 60L76.016 60.059C69.952 60.059 64.473 63.721 62.159 69.317C59.83 74.927 61.119 81.387 65.411 85.665L95.85 116.075L124.121 349.615C124.714 355.535 129.664 360.001 135.589 360.001H357.74C363.74 360.001 368.767 355.454 369.365 349.483L374.313 300H405.987C430.801 300 450.987 279.814 450.987 255V135C450.987 110.186 430.801 90 405.987 90ZM252.72 330.103H231.729C223.438 330.103 216.729 323.394 216.729 315.103C216.729 306.812 223.438 299.903 231.729 299.903H252.72C261.011 299.903 267.72 306.812 267.72 315.103C267.72 323.394 261.011 330.103 252.72 330.103ZM252.72 270.103H231.729C223.438 270.103 216.729 263.394 216.729 255.103C216.729 246.812 223.438 239.903 231.729 239.903H252.72C261.011 239.903 267.72 246.812 267.72 255.103C267.72 263.394 261.011 270.103 252.72 270.103ZM252.72 210.103H231.729C223.438 210.103 216.729 203.394 216.729 195.103C216.729 186.812 223.438 179.903 231.729 179.903H252.72C261.011 179.903 267.72 186.812 267.72 195.103C267.72 203.394 261.011 210.103 252.72 210.103ZM252.72 150.103H231.729C223.438 150.103 216.729 143.394 216.729 135.103C216.729 126.812 223.438 119.903 231.729 119.903H252.72C261.011 119.903 267.72 126.812 267.72 135.103C267.72 143.394 261.011 150.103 252.72 150.103ZM420.987 255C420.987 263.276 414.263 270 405.987 270H377.311L392.307 120H405.987C414.263 120 420.987 126.724 420.987 135V255Z" fill="url(#paint0_linear_10025_61969)"/>
<path d="M315.987 0H165.987C146.439 0 129.932 12.401 123.735 29.851L358.225 29.811C352.017 12.383 335.521 0 315.987 0Z" fill="url(#paint1_linear_10025_61969)"/>
<path d="M396.276 493.367L371.959 394.072C371.362 391.679 369.212 390 366.744 390H126.735C124.259 390 122.101 391.685 121.5 394.087L97.184 493.367C96.056 497.849 97.067 502.596 99.909 506.228C102.751 509.875 107.116 511.999 111.73 511.999H381.73C386.344 511.999 390.709 509.875 393.551 506.228C396.393 502.595 397.404 497.849 396.276 493.367ZM261.729 452H231.729C223.438 452 216.729 445.291 216.729 437C216.729 428.709 223.438 422 231.729 422H261.729C270.02 422 276.729 428.709 276.729 437C276.729 445.291 270.02 452 261.729 452Z" fill="url(#paint2_linear_10025_61969)"/>
</g>
<defs>
<linearGradient id="paint0_linear_10025_61969" x1="256" y1="60" x2="256" y2="360.001" gradientUnits="userSpaceOnUse">
<stop stop-color="#B9B8C0"/>
<stop offset="1" stop-color="#57565A"/>
</linearGradient>
<linearGradient id="paint1_linear_10025_61969" x1="240.98" y1="0" x2="240.98" y2="29.851" gradientUnits="userSpaceOnUse">
<stop stop-color="#B9B8C0"/>
<stop offset="1" stop-color="#57565A"/>
</linearGradient>
<linearGradient id="paint2_linear_10025_61969" x1="246.73" y1="390" x2="246.73" y2="511.999" gradientUnits="userSpaceOnUse">
<stop stop-color="#B9B8C0"/>
<stop offset="1" stop-color="#57565A"/>
</linearGradient>
<clipPath id="clip0_10025_61969">
<rect width="511.999" height="511.999" fill="white" transform="translate(0.000976562)"/>
</clipPath>
</defs>
</svg>
