<svg width="513" height="513" viewBox="0 0 513 513" fill="none" xmlns="http://www.w3.org/2000/svg">
<g clip-path="url(#clip0_10025_63059)">
<path d="M130.821 184.253C135.279 187.321 138.203 192.157 138.848 197.53L139.143 200.181C144.625 249.038 161.322 284.547 184.706 322.832L197.268 343.35C197.268 343.377 198.241 343.386 198.411 343.386H198.438L222.099 310.243C245.491 277.502 262.594 240.699 272.537 201.708L283.724 157.672C285.087 152.353 288.713 147.899 293.644 145.485C298.692 143.003 304.572 142.85 309.742 145.065L340.438 158.494C372.313 172.37 402.392 190.052 430.018 211.155L444.625 222.289C426.376 190.935 404 162.172 378.098 136.771L359.587 118.008L307.954 104.887C295.737 102.602 284.637 96.29 276.427 86.958L260.445 66.94C257.724 63.907 253.26 63.176 249.713 65.181L212.293 86.029C205.644 89.753 198.155 91.719 190.534 91.743H189.373C166.144 91.843 143.573 99.468 125.043 113.476L93.195 137.146C78.485 148.235 66.373 162.401 57.704 178.655L51.304 190.539L115.909 181.325C121.071 180.193 126.471 181.253 130.821 184.253ZM213.116 112.458C222.487 104.33 234.615 100.1 247.009 100.636C259.402 100.099 271.531 104.33 280.902 112.458C283.246 114.76 284.175 118.144 283.334 121.32C282.493 124.496 280.012 126.977 276.836 127.818C273.66 128.659 270.276 127.73 267.974 125.386C261.973 120.814 254.543 118.523 247.009 118.922C239.424 118.514 231.946 120.846 225.938 125.493C222.285 128.914 216.57 128.795 213.063 125.225C209.581 121.673 209.605 115.982 213.116 112.458ZM235.186 213.03C236.901 214.744 237.864 217.069 237.864 219.494C237.864 221.919 236.901 224.244 235.186 225.958C233.472 227.673 231.146 228.637 228.722 228.637C226.298 228.637 223.972 227.673 222.258 225.958C216.257 221.386 208.827 219.095 201.294 219.494C193.709 219.086 186.231 221.418 180.223 226.065C176.569 229.482 170.857 229.363 167.348 225.797C163.868 222.244 163.892 216.553 167.402 213.029C176.773 204.901 188.901 200.671 201.295 201.207C213.687 200.671 225.815 204.902 235.186 213.03ZM130.83 149.03C140.201 140.902 152.329 136.672 164.723 137.208C177.116 136.671 189.245 140.902 198.616 149.03C200.96 151.332 201.889 154.716 201.048 157.892C200.207 161.068 197.726 163.549 194.55 164.39C191.374 165.231 187.99 164.302 185.688 161.958C179.687 157.386 172.257 155.095 164.723 155.494C157.138 155.086 149.66 157.418 143.652 162.065C139.999 165.486 134.284 165.367 130.777 161.797C127.296 158.244 127.32 152.553 130.83 149.03Z" fill="url(#paint0_linear_10025_63059)"/>
<path d="M394.687 127.477C425.714 158.684 451.694 194.529 471.696 233.727C474.529 239.352 473.087 246.188 468.225 250.191C463.363 254.193 456.377 254.294 451.401 250.433L418.928 225.701C392.47 205.485 363.662 188.547 333.133 175.255L302.472 161.844L301.436 162.174L290.248 206.219C279.756 247.409 261.693 286.288 236.98 320.87L213.31 354.013C209.595 359.182 203.542 362.151 197.18 361.923C190.819 361.695 184.993 358.301 181.658 352.879L169.105 332.379C139.926 284.602 125.98 246.897 120.971 202.227L120.685 199.638C120.096 199.594 119.511 199.504 118.935 199.37L118.872 199.379L23.4009 212.95C21.1589 213.652 19.2439 215.139 18.0079 217.137C6.49288 235.705 0.313879 257.085 0.150879 278.933C0.150879 403.638 132.392 448.067 256.151 448.067C351.758 448.067 512.151 426.094 512.151 278.933C512.151 205.003 471.705 153.138 394.687 127.477ZM354.437 414.968C353.605 417.265 351.796 419.073 349.5 419.905C347.287 420.881 344.766 420.881 342.554 419.905C341.446 419.442 340.425 418.793 339.536 417.985C338.733 417.073 338.054 416.058 337.518 414.967C337.081 413.862 336.865 412.683 336.884 411.495C336.851 410.296 337.102 409.106 337.616 408.022C338.035 406.892 338.69 405.863 339.536 405.004C339.969 404.611 340.425 404.244 340.902 403.906C341.413 403.558 341.968 403.282 342.554 403.085C343.071 402.82 343.625 402.633 344.197 402.531C345.369 402.263 346.587 402.263 347.76 402.531C348.366 402.62 348.954 402.807 349.501 403.085C350.063 403.265 350.589 403.543 351.055 403.906C351.579 404.221 352.069 404.589 352.519 405.004C353.365 405.863 354.02 406.892 354.439 408.022C355.413 410.234 355.413 412.755 354.437 414.968ZM398.231 408.843C397.341 409.649 396.32 410.298 395.213 410.763C393 411.739 390.479 411.739 388.267 410.763C387.159 410.301 386.138 409.651 385.249 408.843C384.416 407.954 383.735 406.934 383.231 405.825C382.794 404.72 382.578 403.54 382.598 402.351C382.63 399.93 383.577 397.611 385.249 395.86C386.121 395.031 387.146 394.379 388.267 393.94C389.934 393.207 391.788 393.013 393.571 393.386C394.142 393.491 394.696 393.677 395.214 393.94C395.776 394.12 396.302 394.398 396.768 394.761C397.313 395.127 397.777 395.493 398.232 395.859C399.901 397.612 400.848 399.93 400.883 402.35C400.903 404.783 399.948 407.122 398.231 408.843ZM400.151 369.254C399.686 370.361 399.037 371.382 398.231 372.272C394.626 375.808 388.854 375.808 385.249 372.272C384.446 371.36 383.767 370.345 383.231 369.254C382.386 367.016 382.386 364.546 383.231 362.308C383.743 361.203 384.424 360.185 385.249 359.29C386.121 358.461 387.146 357.809 388.267 357.37C390.473 356.361 393.008 356.361 395.213 357.37C396.32 357.835 397.341 358.484 398.231 359.29C399.058 360.164 399.71 361.188 400.151 362.308C401.127 364.52 401.127 367.041 400.151 369.254ZM430.963 331.861C431.835 331.032 432.86 330.38 433.981 329.941C437.386 328.514 441.314 329.271 443.945 331.861C445.614 333.614 446.561 335.932 446.596 338.352C446.581 339.546 446.333 340.726 445.865 341.825C445.033 344.121 443.224 345.93 440.928 346.762C437.527 348.221 433.579 347.461 430.964 344.842C430.161 343.93 429.482 342.915 428.946 341.824C428.508 340.719 428.293 339.539 428.312 338.351C428.343 335.931 429.291 333.611 430.963 331.861ZM445.865 378.396C445.033 380.693 443.224 382.502 440.928 383.334C438.715 384.31 436.194 384.31 433.982 383.334C432.874 382.871 431.853 382.222 430.964 381.414C430.158 380.524 429.509 379.503 429.044 378.396C428.068 376.183 428.068 373.662 429.044 371.45C429.485 370.331 430.137 369.306 430.964 368.432C431.397 368.039 431.853 367.672 432.33 367.334C432.841 366.986 433.396 366.71 433.982 366.513C434.499 366.248 435.053 366.061 435.625 365.959C436.797 365.691 438.015 365.691 439.188 365.959C439.794 366.048 440.382 366.235 440.929 366.513C441.491 366.693 442.017 366.971 442.483 367.334C443.007 367.649 443.498 368.017 443.947 368.432C444.774 369.306 445.426 370.33 445.867 371.45C446.841 373.662 446.841 376.184 445.865 378.396ZM480.517 344.843C479.627 345.649 478.606 346.298 477.499 346.763C474.098 348.222 470.15 347.462 467.535 344.843C466.732 343.931 466.053 342.916 465.517 341.825C465.08 340.72 464.864 339.54 464.883 338.351C464.883 333.302 468.976 329.208 474.026 329.208C479.075 329.208 483.169 333.301 483.169 338.351C483.189 340.784 482.234 343.122 480.517 344.843ZM486.642 310.191C483.219 311.592 479.29 310.8 476.677 308.183C474.945 306.508 473.985 304.19 474.026 301.781C474.058 299.36 475.005 297.041 476.677 295.29C477.549 294.461 478.574 293.809 479.695 293.37C483.1 291.943 487.028 292.7 489.659 295.29C491.328 297.043 492.275 299.361 492.31 301.781C492.347 304.189 491.388 306.506 489.659 308.183C488.796 309.045 487.771 309.727 486.642 310.191Z" fill="url(#paint1_linear_10025_63059)"/>
</g>
<defs>
<linearGradient id="paint0_linear_10025_63059" x1="247.964" y1="64.0566" x2="247.964" y2="343.386" gradientUnits="userSpaceOnUse">
<stop stop-color="#B9B8C0"/>
<stop offset="1" stop-color="#57565A"/>
</linearGradient>
<linearGradient id="paint1_linear_10025_63059" x1="256.151" y1="127.477" x2="256.151" y2="448.067" gradientUnits="userSpaceOnUse">
<stop stop-color="#B9B8C0"/>
<stop offset="1" stop-color="#57565A"/>
</linearGradient>
<clipPath id="clip0_10025_63059">
<rect width="512" height="512" fill="white" transform="translate(0.150879 0.0605469)"/>
</clipPath>
</defs>
</svg>
