<svg width="508" height="508" viewBox="0 0 508 508" fill="none" xmlns="http://www.w3.org/2000/svg">
<path d="M459.173 234.712C461.557 224.028 461.91 207.339 449.901 188.708C405.31 119.656 272.858 120.363 254.315 120.893C235.772 120.363 103.32 119.656 58.7292 188.708C46.7197 207.339 47.0731 224.028 49.4571 234.712C52.5475 249.017 60.5828 259.437 67.4709 266.06L67.7455 265.641C62.5423 277.054 59.5438 289.911 59.5438 303.58C59.5438 350.233 93.8004 387.997 136.05 387.997C160.518 387.997 182.377 375.273 196.243 355.616C197.303 353.496 198.608 351.375 200.239 349.499C200.239 349.337 200.484 349.255 200.565 349.01C211.25 334.737 231.314 325.194 254.315 325.194C277.234 325.194 297.299 334.737 308.065 348.928L308.146 349.01C309.859 351.049 311.246 353.333 312.388 355.616C326.253 375.273 348.112 387.997 372.58 387.997C414.83 387.997 449.086 350.233 449.086 303.58C449.086 289.911 446.088 277.054 440.885 265.641L441.159 266.06C448.047 259.437 456.083 249.017 459.173 234.712ZM193.061 304.314C191.594 305.456 189.881 306.026 188.168 306.026C185.721 306.026 183.274 304.966 181.643 302.846L176.423 295.994C172.427 298.278 167.778 299.909 162.72 300.807V307.902C162.72 312.388 159.05 316.059 154.564 316.059C150.078 316.059 146.408 312.388 146.408 307.902V300.807C141.351 299.909 136.784 298.278 132.787 295.994L127.485 302.846C125.854 304.966 123.489 306.026 121.042 306.026C119.329 306.026 117.535 305.456 116.067 304.314C112.478 301.622 111.826 296.484 114.598 292.895L120.879 284.657C118.758 280.987 117.535 276.909 117.535 272.504C117.535 269.65 118.106 266.795 119.085 264.022C120.716 259.78 125.447 257.741 129.688 259.291C133.847 260.923 135.968 265.653 134.337 269.894C134.01 270.71 133.847 271.607 133.847 272.504C133.847 278.54 142.33 285.228 154.564 285.228C166.799 285.228 175.281 278.54 175.281 272.504C175.281 271.933 175.281 271.444 175.118 270.873C174.139 266.469 176.831 262.146 181.235 261.086C185.64 260.107 190.044 262.798 191.023 267.203C191.43 268.997 191.594 270.71 191.594 272.504C191.594 276.909 190.37 280.987 188.25 284.657L194.611 292.895C197.303 296.484 196.65 301.622 193.061 304.314ZM392.563 304.314C391.096 305.456 389.301 306.026 387.588 306.026C385.141 306.026 382.776 304.966 381.145 302.846L375.843 295.994C371.847 298.278 367.279 299.909 362.222 300.807V307.902C362.222 312.388 358.552 316.059 354.066 316.059C349.58 316.059 345.91 312.388 345.91 307.902V300.807C340.853 299.909 336.203 298.278 332.207 295.994L326.987 302.846C325.356 304.966 322.909 306.026 320.462 306.026C318.75 306.026 317.037 305.456 315.569 304.314C311.98 301.622 311.327 296.484 314.019 292.895L320.38 284.657C318.26 280.987 317.037 276.909 317.037 272.504C317.037 270.71 317.2 268.997 317.608 267.203C318.668 262.798 322.991 260.107 327.395 261.086C331.799 262.146 334.491 266.469 333.512 270.873C333.349 271.444 333.349 271.933 333.349 272.504C333.349 278.54 341.832 285.228 354.066 285.228C366.3 285.228 374.783 278.54 374.783 272.504C374.783 271.607 374.62 270.71 374.293 269.894C372.662 265.653 374.783 260.923 378.942 259.291C383.184 257.741 387.914 259.78 389.546 264.022C390.525 266.795 391.096 269.65 391.096 272.504C391.096 276.909 389.872 280.987 387.751 284.657L394.032 292.895C396.804 296.484 396.152 301.622 392.563 304.314ZM426.312 243.438C412.495 228.382 393.528 219.081 372.58 219.081H136.05C115.102 219.081 96.1351 228.382 82.3183 243.438L82.4818 243.189C75.6827 234.801 69.5899 220.849 81.069 203.012C119.48 143.498 254.315 147.383 254.315 147.383C254.315 147.383 389.151 143.498 427.561 203.012C439.04 220.849 432.947 234.801 426.148 243.189L426.312 243.438Z" fill="url(#paint0_linear_10025_57824)"/>
<defs>
<linearGradient id="paint0_linear_10025_57824" x1="254.315" y1="120.796" x2="254.315" y2="387.997" gradientUnits="userSpaceOnUse">
<stop stop-color="#B9B8C0"/>
<stop offset="1" stop-color="#57565A"/>
</linearGradient>
</defs>
</svg>
