<svg width="512" height="512" viewBox="0 0 512 512" fill="none" xmlns="http://www.w3.org/2000/svg">
<path d="M96 352H112V480H96C79.0261 480 62.7475 473.257 50.7452 461.255C38.7428 449.252 32 432.974 32 416C32 399.026 38.7428 382.748 50.7452 370.745C62.7475 358.743 79.0261 352 96 352ZM218.56 320L204.48 352H144V480H208C224.161 479.972 239.935 475.05 253.245 465.882C266.554 456.714 276.774 443.73 282.56 428.64L324.96 320H218.56ZM232.8 288H337.28L349.6 256H246.88L232.8 288ZM389.6 35.04C379.348 30.9792 367.925 31.0243 357.705 35.166C347.485 39.3076 339.253 47.2274 334.72 57.28L261.12 224H361.92L413.12 90.88C417.309 80.3478 417.191 68.5911 412.791 58.1452C408.391 47.6993 400.062 39.4011 389.6 35.04ZM448 384H368C359.513 384 351.374 387.371 345.373 393.373C339.371 399.374 336 407.513 336 416V448C336 456.487 339.371 464.626 345.373 470.627C351.374 476.629 359.513 480 368 480H448C456.487 480 464.626 476.629 470.627 470.627C476.629 464.626 480 456.487 480 448V416C480 407.513 476.629 399.374 470.627 393.373C464.626 387.371 456.487 384 448 384Z" fill="url(#paint0_linear_10025_21326)"/>
<defs>
<linearGradient id="paint0_linear_10025_21326" x1="256" y1="32.0267" x2="256" y2="480" gradientUnits="userSpaceOnUse">
<stop stop-color="#B9B8C0"/>
<stop offset="1" stop-color="#57565A"/>
</linearGradient>
</defs>
</svg>
