<svg width="512" height="512" viewBox="0 0 512 512" fill="none" xmlns="http://www.w3.org/2000/svg">
<path d="M208 336V352H176V368C176 372.243 174.314 376.313 171.314 379.314C168.313 382.314 164.243 384 160 384C155.757 384 151.687 382.314 148.686 379.314C145.686 376.313 144 372.243 144 368V352H112V368C112 372.243 110.314 376.313 107.314 379.314C104.313 382.314 100.243 384 96 384C91.7565 384 87.6869 382.314 84.6863 379.314C81.6857 376.313 80 372.243 80 368V349.76C66.2964 346.222 54.1521 338.241 45.467 327.066C36.7819 315.891 32.046 302.153 32 288H160C172.73 288 184.939 293.057 193.941 302.059C202.943 311.061 208 323.27 208 336ZM442.56 228.32L414.24 215.2L402.08 240C399.997 243.462 396.682 246.007 392.8 247.125C388.918 248.244 384.756 247.852 381.151 246.029C377.546 244.206 374.763 241.087 373.363 237.298C371.962 233.508 372.047 229.33 373.6 225.6L385.28 202.24L362.56 191.52L350.4 215.84C348.51 219.554 345.246 222.385 341.302 223.729C337.358 225.074 333.045 224.827 329.28 223.04C327.352 222.134 325.625 220.851 324.199 219.268C322.773 217.685 321.678 215.833 320.978 213.821C320.277 211.809 319.986 209.678 320.12 207.552C320.254 205.426 320.812 203.348 321.76 201.44L333.44 178.08L310.4 167.36L298.4 191.36C296.567 195.131 293.327 198.031 289.377 199.437C285.428 200.844 281.084 200.644 277.28 198.88C275.18 197.989 273.295 196.66 271.752 194.981C270.208 193.303 269.04 191.313 268.328 189.146C267.616 186.98 267.376 184.686 267.622 182.418C267.869 180.151 268.598 177.963 269.76 176L281.44 152.64L230.72 129.44C228.679 128.536 226.472 128.069 224.24 128.069C222.008 128.069 219.801 128.536 217.76 129.44C215.672 130.315 213.794 131.624 212.25 133.278C210.705 134.933 209.529 136.897 208.8 139.04C204.273 150.287 196.393 159.868 186.231 166.481C176.069 173.093 164.117 176.417 152 176C143.62 176.115 135.355 174.034 128.029 169.964C120.702 165.894 114.569 159.976 110.24 152.8C108.91 150.161 106.876 147.942 104.363 146.389C101.849 144.836 98.9547 144.009 96 144C79.0261 144 62.7475 150.743 50.7452 162.745C38.7428 174.748 32 191.026 32 208V256H160C170.506 256 180.909 258.069 190.615 262.09C200.321 266.11 209.14 272.003 216.569 279.431C223.997 286.86 229.89 295.679 233.91 305.385C237.931 315.091 240 325.494 240 336V352H272V368C272 372.243 273.686 376.313 276.686 379.314C279.687 382.314 283.757 384 288 384C292.243 384 296.313 382.314 299.314 379.314C302.314 376.313 304 372.243 304 368V352H336V368C336 372.243 337.686 376.313 340.686 379.314C343.687 382.314 347.757 384 352 384C356.243 384 360.313 382.314 363.314 379.314C366.314 376.313 368 372.243 368 368V352H400V368C400 372.243 401.686 376.313 404.686 379.314C407.687 382.314 411.757 384 416 384C420.243 384 424.313 382.314 427.314 379.314C430.314 376.313 432 372.243 432 368V349.28C441.35 346.878 450.035 342.391 457.405 336.157C464.776 329.923 470.64 322.102 474.56 313.28C481.335 297.739 481.782 280.169 475.806 264.304C469.831 248.439 457.904 235.53 442.56 228.32Z" fill="url(#paint0_linear_10025_21329)"/>
<defs>
<linearGradient id="paint0_linear_10025_21329" x1="255.993" y1="128.069" x2="255.993" y2="384" gradientUnits="userSpaceOnUse">
<stop stop-color="#B9B8C0"/>
<stop offset="1" stop-color="#57565A"/>
</linearGradient>
</defs>
</svg>
