<svg width="512" height="512" viewBox="0 0 512 512" fill="none" xmlns="http://www.w3.org/2000/svg">
<path d="M416 272C416 259.27 410.943 247.061 401.941 238.059C392.939 229.057 380.73 224 368 224H144C131.27 223.024 118.673 227.145 108.981 235.457C99.2891 243.768 93.296 255.59 92.32 268.32C91.344 281.05 95.4651 293.647 103.777 303.339C112.088 313.031 123.91 319.024 136.64 320C142.4 327.2 160 359.84 160 464C160 468.243 161.686 472.313 164.686 475.314C167.687 478.314 171.757 480 176 480C180.243 480 184.313 478.314 187.314 475.314C190.314 472.313 192 468.243 192 464C192 458.4 192 453.28 192 448H240V464C240 468.243 241.686 472.313 244.686 475.314C247.687 478.314 251.757 480 256 480C260.243 480 264.313 478.314 267.314 475.314C270.314 472.313 272 468.243 272 464V448H320V464C320 468.243 321.686 472.313 324.686 475.314C327.687 478.314 331.757 480 336 480C340.243 480 344.313 478.314 347.314 475.314C350.314 472.313 352 468.243 352 464C352 359.84 369.6 327.2 375.36 320C386.777 318.229 397.171 312.4 404.637 303.583C412.102 294.766 416.136 283.552 416 272ZM339.04 320C334.922 330.356 331.762 341.067 329.6 352H272V320H339.04ZM172.96 320H240V352H182.4C180.238 341.067 177.078 330.356 172.96 320ZM190.56 416C190.56 404.16 188.96 393.76 187.68 384H240V416H190.56ZM272 416V384H324.32C323.04 393.76 322.08 404.16 321.44 416H272ZM336 128V192H176V128H336ZM480 80V336C480 348.73 474.943 360.939 465.941 369.941C456.939 378.943 444.73 384 432 384H388.8C390.356 371.147 393.252 358.491 397.44 346.24C414.657 339.328 428.936 326.648 437.834 310.368C446.732 294.089 449.695 275.224 446.217 257C442.739 238.777 433.035 222.329 418.767 210.472C404.498 198.614 386.552 192.084 368 192V112C368 107.757 366.314 103.687 363.314 100.686C360.313 97.6857 356.243 96 352 96H160C155.757 96 151.687 97.6857 148.686 100.686C145.686 103.687 144 107.757 144 112V192C125.448 192.084 107.502 198.614 93.2335 210.472C78.965 222.329 69.2613 238.777 65.783 257C62.3047 275.224 65.2681 294.089 74.1661 310.368C83.064 326.648 97.3433 339.328 114.56 346.24C118.748 358.491 121.644 371.147 123.2 384H80C67.2696 384 55.0606 378.943 46.0589 369.941C37.0571 360.939 32 348.73 32 336V80C32 67.2696 37.0571 55.0606 46.0589 46.0589C55.0606 37.0571 67.2696 32 80 32H432C444.73 32 456.939 37.0571 465.941 46.0589C474.943 55.0606 480 67.2696 480 80Z" fill="url(#paint0_linear_10025_21335)"/>
<defs>
<linearGradient id="paint0_linear_10025_21335" x1="256" y1="32" x2="256" y2="480" gradientUnits="userSpaceOnUse">
<stop stop-color="#B9B8C0"/>
<stop offset="1" stop-color="#57565A"/>
</linearGradient>
</defs>
</svg>
