<svg width="513" height="513" viewBox="0 0 513 513" fill="none" xmlns="http://www.w3.org/2000/svg">
<g clip-path="url(#clip0_10025_63133)">
<path d="M503.459 329.113H404.266L382.616 353.47C380.881 355.423 378.394 356.541 375.781 356.541C373.169 356.541 370.681 355.423 368.946 353.47L331.653 311.516C313.806 334.606 286.102 347.909 256.923 347.399C227.745 347.909 200.04 334.606 182.194 311.516L144.901 353.47C143.166 355.424 140.679 356.541 138.066 356.541C135.453 356.541 132.966 355.423 131.231 353.47L109.58 329.113H10.3881C8.00708 329.235 5.81308 330.443 4.43708 332.39C2.08708 335.354 0.845081 339.045 0.924081 342.827C0.924081 375.595 21.8661 402.256 47.6031 402.256H466.246C479.018 401.946 490.939 395.783 498.576 385.542C508.142 373.385 513.211 358.295 512.924 342.828C512.924 335.523 508.499 329.113 503.459 329.113ZM45.9061 378.3C45.4401 379.407 44.7911 380.427 43.9861 381.318C41.3691 383.937 37.4201 384.697 34.0171 383.238C32.9101 382.774 31.8911 382.125 31.0041 381.318C30.1971 380.428 29.5461 379.408 29.0801 378.3C28.5711 377.214 28.3221 376.025 28.3531 374.826C28.3661 373.632 28.6131 372.452 29.0811 371.353C29.5231 370.233 30.1761 369.209 31.0051 368.335C31.8931 367.528 32.9121 366.879 34.0181 366.415C36.2251 365.406 38.7621 365.406 40.9691 366.415C42.0881 366.857 43.1121 367.509 43.9871 368.335C44.7941 369.225 45.4431 370.245 45.9071 371.353C46.8821 373.566 46.8821 376.087 45.9061 378.3ZM73.3341 360.015C72.8681 361.122 72.2191 362.142 71.4141 363.033C70.5251 363.84 69.5041 364.489 68.3961 364.953C64.9951 366.412 61.0471 365.652 58.4321 363.033C57.6251 362.143 56.9741 361.123 56.5081 360.015C55.9991 358.929 55.7501 357.74 55.7811 356.541C55.7941 355.347 56.0411 354.167 56.5091 353.068C56.9511 351.948 57.6041 350.924 58.4331 350.05C59.3211 349.243 60.3401 348.594 61.4461 348.13C63.6531 347.121 66.1901 347.121 68.3971 348.13C69.5051 348.594 70.5261 349.243 71.4151 350.05C72.2411 350.925 72.8921 351.949 73.3351 353.068C73.8041 354.167 74.0521 355.347 74.0671 356.542C74.0981 357.74 73.8471 358.93 73.3341 360.015ZM100.763 378.3C100.297 379.407 99.6481 380.427 98.8431 381.318C96.2261 383.937 92.2771 384.697 88.8741 383.238C86.5801 382.402 84.7731 380.595 83.9371 378.301C83.4281 377.215 83.1791 376.026 83.2091 374.827C83.2221 373.633 83.4691 372.453 83.9371 371.354C84.3791 370.234 85.0331 369.21 85.8611 368.336C86.7491 367.529 87.7681 366.88 88.8741 366.416C91.0811 365.407 93.6181 365.407 95.8251 366.416C96.9441 366.858 97.9681 367.51 98.8431 368.336C99.6501 369.226 100.299 370.246 100.763 371.354C101.739 373.566 101.739 376.087 100.763 378.3ZM173.906 378.3C173.44 379.407 172.791 380.427 171.986 381.318C171.097 382.125 170.076 382.774 168.968 383.238C166.754 384.214 164.231 384.214 162.017 383.238C159.723 382.402 157.916 380.595 157.08 378.301C156.11 376.087 156.11 373.568 157.08 371.355C157.522 370.235 158.175 369.21 159.004 368.336C161.141 366.116 164.264 365.142 167.283 365.754C170.303 366.366 172.801 368.478 173.905 371.354C174.882 373.566 174.882 376.087 173.906 378.3ZM201.334 360.015C200.868 361.122 200.219 362.142 199.414 363.033C198.525 363.84 197.504 364.489 196.396 364.953C192.995 366.412 189.047 365.652 186.432 363.033C185.627 362.123 184.95 361.108 184.419 360.015C183.98 358.91 183.763 357.73 183.781 356.541C183.75 355.343 184 354.153 184.509 353.068C185.345 350.774 187.152 348.967 189.446 348.131C191.653 347.122 194.19 347.122 196.397 348.131C197.505 348.595 198.526 349.244 199.415 350.051C200.241 350.926 200.892 351.95 201.335 353.069C201.804 354.168 202.052 355.347 202.067 356.541C202.098 357.74 201.847 358.93 201.334 360.015ZM228.763 378.3C228.297 379.407 227.648 380.427 226.843 381.318C225.954 382.125 224.933 382.774 223.825 383.238C221.611 384.214 219.088 384.214 216.874 383.238C214.58 382.402 212.773 380.595 211.937 378.301C210.967 376.087 210.967 373.568 211.937 371.355C212.379 370.235 213.032 369.21 213.861 368.336C215.998 366.116 219.121 365.142 222.14 365.754C225.16 366.366 227.658 368.478 228.762 371.354C229.739 373.566 229.739 376.087 228.763 378.3ZM301.995 378.3C301.464 379.392 300.788 380.407 299.986 381.318C299.097 382.125 298.076 382.774 296.968 383.238C293.566 384.697 289.619 383.937 287.003 381.318C286.198 380.408 285.521 379.393 284.99 378.3C284.551 377.195 284.334 376.015 284.352 374.826C284.321 373.627 284.571 372.438 285.08 371.353C285.522 370.233 286.175 369.209 287.004 368.335C287.892 367.528 288.911 366.879 290.017 366.415C292.224 365.406 294.761 365.406 296.968 366.415C298.087 366.857 299.111 367.509 299.986 368.335C300.793 369.225 301.442 370.245 301.906 371.353C302.419 372.438 302.669 373.627 302.638 374.827C302.656 376.016 302.437 377.197 301.995 378.3ZM329.334 360.015C328.868 361.122 328.219 362.142 327.414 363.033C326.525 363.84 325.504 364.489 324.396 364.953C320.995 366.412 317.047 365.652 314.432 363.033C311.816 360.416 311.055 356.471 312.508 353.069C313.344 350.775 315.151 348.968 317.445 348.132C319.652 347.123 322.189 347.123 324.396 348.132C325.504 348.596 326.525 349.245 327.414 350.052C328.24 350.927 328.891 351.951 329.334 353.07C329.803 354.168 330.052 355.348 330.067 356.542C330.098 357.74 329.847 358.93 329.334 360.015ZM356.852 378.3C356.321 379.392 355.645 380.407 354.843 381.318C353.954 382.125 352.933 382.774 351.825 383.238C348.423 384.697 344.476 383.937 341.86 381.318C341.055 380.408 340.378 379.393 339.847 378.3C339.408 377.195 339.191 376.015 339.209 374.826C339.178 373.627 339.428 372.438 339.937 371.353C340.379 370.233 341.032 369.209 341.861 368.335C342.749 367.528 343.768 366.879 344.874 366.415C347.081 365.406 349.618 365.406 351.825 366.415C352.944 366.857 353.968 367.509 354.843 368.335C355.65 369.225 356.299 370.245 356.763 371.353C357.276 372.438 357.526 373.627 357.495 374.827C357.513 376.016 357.295 377.197 356.852 378.3ZM429.906 378.3C429.439 379.407 428.79 380.427 427.985 381.318C427.096 382.125 426.075 382.774 424.967 383.238C422.753 384.214 420.23 384.214 418.016 383.238C415.722 382.402 413.915 380.595 413.079 378.301C412.109 376.087 412.109 373.568 413.079 371.355C413.521 370.235 414.174 369.21 415.003 368.336C417.191 366.179 420.309 365.251 423.32 365.863C423.893 365.966 424.448 366.153 424.967 366.417C425.551 366.614 426.105 366.891 426.614 367.238C427.092 367.578 427.549 367.944 427.985 368.336C428.811 369.211 429.462 370.235 429.905 371.354C430.883 373.566 430.883 376.087 429.906 378.3ZM457.334 360.015C456.868 361.122 456.219 362.142 455.414 363.033C454.525 363.84 453.504 364.489 452.396 364.953C448.995 366.412 445.047 365.652 442.432 363.033C439.816 360.416 439.055 356.471 440.508 353.069C441.344 350.775 443.151 348.968 445.445 348.132C447.652 347.123 450.189 347.123 452.396 348.132C453.504 348.596 454.525 349.245 455.414 350.052C456.24 350.927 456.891 351.951 457.334 353.07C457.803 354.168 458.052 355.348 458.067 356.542C458.098 357.74 457.847 358.93 457.334 360.015ZM484.764 378.3C484.297 379.407 483.648 380.427 482.843 381.318C481.954 382.125 480.933 382.774 479.825 383.238C477.611 384.214 475.088 384.214 472.874 383.238C470.58 382.402 468.773 380.595 467.937 378.301C466.967 376.087 466.967 373.568 467.937 371.355C468.379 370.235 469.032 369.21 469.861 368.336C470.295 367.942 470.752 367.575 471.231 367.238C471.739 366.891 472.292 366.615 472.874 366.417C473.393 366.153 473.948 365.967 474.521 365.863C475.725 365.595 476.973 365.595 478.177 365.863C478.75 365.966 479.305 366.153 479.824 366.417C480.408 366.614 480.962 366.891 481.471 367.238C481.949 367.578 482.406 367.944 482.842 368.336C483.668 369.211 484.319 370.235 484.762 371.354C485.74 373.566 485.74 376.087 484.764 378.3Z" fill="url(#paint0_linear_10025_63133)"/>
<path d="M319.046 297.332L298.533 274.256H215.315L194.802 297.332C209.202 317.289 232.314 329.113 256.924 329.113C281.534 329.113 304.646 317.289 319.046 297.332Z" fill="url(#paint1_linear_10025_63133)"/>
<path d="M19.2091 274.256V310.827H93.3301L60.8181 274.256H19.2091Z" fill="url(#paint2_linear_10025_63133)"/>
<path d="M190.848 274.256H85.285L138.066 333.639L190.848 274.256Z" fill="url(#paint3_linear_10025_63133)"/>
<path d="M375.781 333.639L428.562 274.256H322.999L375.781 333.639Z" fill="url(#paint4_linear_10025_63133)"/>
<path d="M355.088 119.537C362.498 130.036 366.527 142.547 366.638 155.397C366.638 160.446 362.545 164.54 357.495 164.54C352.446 164.54 348.352 160.447 348.352 155.397C347.831 137.381 337.12 121.225 320.729 113.73C305.66 111.779 290.04 110.537 274.04 110.002C286.325 121.93 293.33 138.275 293.494 155.397C293.494 160.446 289.401 164.54 284.351 164.54C279.301 164.54 275.208 160.447 275.208 155.397C274.594 132.79 258.009 113.805 235.689 110.16C224.594 110.621 213.712 111.426 203.042 112.575C213.897 124.224 220.062 139.476 220.351 155.396C220.351 160.445 216.258 164.539 211.208 164.539C206.159 164.539 202.065 160.446 202.065 155.396C201.624 139.02 192.697 124.053 178.499 115.883C75.5931 132.574 0.924072 181.163 0.924072 238.371V255.969H512.924V238.371C512.924 184.889 447.667 138.935 355.088 119.537Z" fill="url(#paint5_linear_10025_63133)"/>
<path d="M494.638 274.256H453.029L420.517 310.827H494.638V274.256Z" fill="url(#paint6_linear_10025_63133)"/>
</g>
<defs>
<linearGradient id="paint0_linear_10025_63133" x1="256.928" y1="311.516" x2="256.928" y2="402.256" gradientUnits="userSpaceOnUse">
<stop stop-color="#B9B8C0"/>
<stop offset="1" stop-color="#57565A"/>
</linearGradient>
<linearGradient id="paint1_linear_10025_63133" x1="256.924" y1="274.256" x2="256.924" y2="329.113" gradientUnits="userSpaceOnUse">
<stop stop-color="#B9B8C0"/>
<stop offset="1" stop-color="#57565A"/>
</linearGradient>
<linearGradient id="paint2_linear_10025_63133" x1="56.2696" y1="274.256" x2="56.2696" y2="310.827" gradientUnits="userSpaceOnUse">
<stop stop-color="#B9B8C0"/>
<stop offset="1" stop-color="#57565A"/>
</linearGradient>
<linearGradient id="paint3_linear_10025_63133" x1="138.067" y1="274.256" x2="138.067" y2="333.639" gradientUnits="userSpaceOnUse">
<stop stop-color="#B9B8C0"/>
<stop offset="1" stop-color="#57565A"/>
</linearGradient>
<linearGradient id="paint4_linear_10025_63133" x1="375.781" y1="274.256" x2="375.781" y2="333.639" gradientUnits="userSpaceOnUse">
<stop stop-color="#B9B8C0"/>
<stop offset="1" stop-color="#57565A"/>
</linearGradient>
<linearGradient id="paint5_linear_10025_63133" x1="256.924" y1="110.002" x2="256.924" y2="255.969" gradientUnits="userSpaceOnUse">
<stop stop-color="#B9B8C0"/>
<stop offset="1" stop-color="#57565A"/>
</linearGradient>
<linearGradient id="paint6_linear_10025_63133" x1="457.578" y1="274.256" x2="457.578" y2="310.827" gradientUnits="userSpaceOnUse">
<stop stop-color="#B9B8C0"/>
<stop offset="1" stop-color="#57565A"/>
</linearGradient>
<clipPath id="clip0_10025_63133">
<rect width="512.015" height="512.015" fill="white" transform="translate(0.920044 0.121094)"/>
</clipPath>
</defs>
</svg>
