<svg width="512" height="512" viewBox="0 0 512 512" fill="none" xmlns="http://www.w3.org/2000/svg">
<g clip-path="url(#clip0_10025_62008)">
<path d="M510.916 165.835C505.93 133.429 481.372 106.994 450.504 95.7881C448.666 129.8 432.712 162.155 406 183.662V377C406 418.353 372.353 452 331 452H136V467C136 491.814 156.186 512 181 512H421C445.814 512 466 491.814 466 467V257.959C497.802 239.561 516.614 203.057 510.916 165.835Z" fill="url(#paint0_linear_10025_62008)"/>
<path d="M419.916 75.835C413.266 32.607 373.568 0 327.558 0H94.442C48.432 0 7.73402 32.607 1.08402 75.85C-4.61398 113.057 14.198 149.561 46 167.959V377C46 401.814 66.186 422 91 422H331C355.814 422 376 401.814 376 377V167.959C407.802 149.561 425.614 113.057 419.916 75.835ZM266.605 235.605L176.605 325.605C170.745 331.465 161.254 331.465 155.394 325.605C149.535 319.746 149.535 310.253 155.394 304.394L245.394 214.394C251.253 208.535 260.746 208.535 266.605 214.394C272.464 220.253 272.465 229.746 266.605 235.605ZM266.605 115.605L176.605 205.605C170.745 211.465 161.254 211.465 155.394 205.605C149.535 199.746 149.535 190.253 155.394 184.394L245.394 94.394C251.253 88.535 260.746 88.535 266.605 94.394C272.464 100.253 272.465 109.746 266.605 115.605Z" fill="url(#paint1_linear_10025_62008)"/>
</g>
<defs>
<linearGradient id="paint0_linear_10025_62008" x1="323.964" y1="95.7881" x2="323.964" y2="512" gradientUnits="userSpaceOnUse">
<stop stop-color="#B9B8C0"/>
<stop offset="1" stop-color="#57565A"/>
</linearGradient>
<linearGradient id="paint1_linear_10025_62008" x1="210.521" y1="0" x2="210.521" y2="422" gradientUnits="userSpaceOnUse">
<stop stop-color="#B9B8C0"/>
<stop offset="1" stop-color="#57565A"/>
</linearGradient>
<clipPath id="clip0_10025_62008">
<rect width="512" height="512" fill="white"/>
</clipPath>
</defs>
</svg>
