<svg width="513" height="513" viewBox="0 0 513 513" fill="none" xmlns="http://www.w3.org/2000/svg">
<g clip-path="url(#clip0_10025_63159)">
<path d="M174.101 411.47C196.199 411.007 217.984 406.159 238.192 397.207C221.003 385.365 205.869 370.787 193.392 354.053C185.734 355.747 177.92 356.636 170.078 356.704H37.507C34.901 356.696 32.309 357.097 29.827 357.893C18.151 361.289 10.11 371.973 10.078 384.133C10.047 391.417 12.927 398.411 18.078 403.562C23.228 408.713 30.223 411.593 37.507 411.562H170.627C171.815 411.561 173.004 411.561 174.101 411.47ZM183.884 374.99H183.975C189.024 374.99 193.118 379.083 193.118 384.133C193.118 389.183 189.025 393.276 183.975 393.276C178.926 393.301 174.812 389.228 174.786 384.179C174.761 379.129 178.834 375.015 183.884 374.99ZM37.689 393.276C32.64 393.301 28.526 389.228 28.5 384.179C28.475 379.13 32.548 375.016 37.597 374.99H37.688C42.737 374.99 46.831 379.083 46.831 384.133C46.831 389.183 42.739 393.276 37.689 393.276ZM74.261 393.276C69.212 393.301 65.098 389.228 65.072 384.179C65.047 379.13 69.12 375.016 74.169 374.99H74.26C79.309 374.99 83.403 379.083 83.403 384.133C83.403 389.183 79.31 393.276 74.261 393.276ZM110.832 393.276C105.783 393.301 101.669 389.228 101.643 384.179C101.618 379.13 105.691 375.016 110.74 374.99H110.831C115.88 374.99 119.974 379.083 119.974 384.133C119.974 389.183 115.882 393.276 110.832 393.276ZM147.404 393.276C142.355 393.301 138.241 389.228 138.215 384.179C138.19 379.13 142.263 375.016 147.312 374.99H147.403C152.452 374.99 156.546 379.083 156.546 384.133C156.546 389.183 152.453 393.276 147.404 393.276Z" fill="url(#paint0_linear_10025_63159)"/>
<path d="M338.693 429.741H338.663C310.157 428.953 282.209 421.662 256.951 408.424C231.678 421.683 203.704 428.975 175.175 429.742C174.991 429.753 174.836 429.848 174.65 429.848H162.499C193.594 436.036 225.231 439.099 256.936 438.991C288.641 439.099 320.277 436.036 351.373 429.848H339.222C339.034 429.848 338.877 429.752 338.693 429.741Z" fill="url(#paint1_linear_10025_63159)"/>
<path d="M320.48 130.769C328.141 129.102 335.952 128.219 343.793 128.133C394.496 128.091 439.155 161.488 453.448 210.135C467.741 258.782 448.245 311.028 405.577 338.419H476.364C478.461 338.427 480.555 338.583 482.63 338.888C525.914 276.703 522.534 193.314 474.36 134.836C426.185 76.3568 344.985 57.0758 275.664 87.6548C292.887 99.4448 308.032 114.015 320.48 130.769Z" fill="url(#paint2_linear_10025_63159)"/>
<path d="M37.507 338.418H108.294C65.626 311.027 46.13 258.781 60.423 210.134C74.716 161.487 119.375 128.091 170.078 128.132C179.882 128.157 189.644 129.421 199.13 131.895L199.302 131.93C199.417 131.96 199.534 131.968 199.649 131.998C226.113 139.139 249.132 155.549 264.511 178.239L264.608 178.393L264.643 178.449C289.661 215.139 290.977 263.051 268.008 301.058C279.438 315.887 294.957 327.047 312.653 333.163C349.346 275.794 347.924 201.984 309.051 146.069C266.923 85.2712 190.172 58.9062 119.576 80.9812C48.98 103.058 0.922031 168.451 0.935031 242.418C0.888031 276.922 11.469 310.604 31.238 338.883C33.314 338.581 35.409 338.425 37.507 338.418Z" fill="url(#paint3_linear_10025_63159)"/>
<path d="M484.135 357.895C481.62 357.105 478.999 356.704 476.364 356.705H343.792C333.982 356.68 324.213 355.421 314.718 352.956C314.648 352.949 314.583 352.917 314.535 352.865H314.261C287.782 345.714 264.748 329.298 249.347 306.602C249.347 306.511 249.256 306.511 249.256 306.419C224.207 269.742 222.885 221.816 245.873 183.813C234.433 168.989 218.932 157.808 201.256 151.631C164.525 209.007 165.932 282.85 204.822 338.785C235.491 383.127 285.507 410.14 339.405 411.471C341.051 411.562 342.514 411.562 343.794 411.562H476.365C489.99 411.579 501.556 401.58 503.509 388.096C505.46 374.612 497.205 361.743 484.135 357.895ZM284.547 384.134C279.498 384.159 275.384 380.086 275.358 375.037C275.333 369.988 279.406 365.874 284.455 365.848H284.546C289.595 365.848 293.689 369.941 293.689 374.991C293.689 380.04 289.596 384.134 284.547 384.134ZM321.118 393.277C316.069 393.302 311.955 389.229 311.929 384.18C311.904 379.131 315.977 375.017 321.026 374.991H321.117C326.166 374.991 330.26 379.084 330.26 384.134C330.26 389.184 326.168 393.277 321.118 393.277ZM357.689 393.277C352.64 393.302 348.526 389.229 348.5 384.18C348.475 379.131 352.548 375.017 357.597 374.991H357.688C362.737 374.991 366.831 379.084 366.831 384.134C366.831 389.184 362.739 393.277 357.689 393.277ZM394.261 393.277C389.212 393.302 385.098 389.229 385.072 384.18C385.047 379.131 389.12 375.017 394.169 374.991H394.26C399.309 374.991 403.403 379.084 403.403 384.134C403.403 389.184 399.31 393.277 394.261 393.277ZM430.832 393.277C425.783 393.302 421.669 389.229 421.643 384.18C421.618 379.131 425.691 375.017 430.74 374.991H430.831C435.88 374.991 439.974 379.084 439.974 384.134C439.974 389.184 435.882 393.277 430.832 393.277ZM467.404 393.277C462.355 393.302 458.241 389.229 458.215 384.18C458.19 379.131 462.263 375.017 467.312 374.991H467.403C472.452 374.991 476.546 379.084 476.546 384.134C476.546 389.184 472.453 393.277 467.404 393.277Z" fill="url(#paint4_linear_10025_63159)"/>
</g>
<defs>
<linearGradient id="paint0_linear_10025_63159" x1="124.135" y1="354.053" x2="124.135" y2="411.562" gradientUnits="userSpaceOnUse">
<stop stop-color="#B9B8C0"/>
<stop offset="1" stop-color="#57565A"/>
</linearGradient>
<linearGradient id="paint1_linear_10025_63159" x1="256.936" y1="408.424" x2="256.936" y2="438.994" gradientUnits="userSpaceOnUse">
<stop stop-color="#B9B8C0"/>
<stop offset="1" stop-color="#57565A"/>
</linearGradient>
<linearGradient id="paint2_linear_10025_63159" x1="394.297" y1="73.2656" x2="394.297" y2="338.888" gradientUnits="userSpaceOnUse">
<stop stop-color="#B9B8C0"/>
<stop offset="1" stop-color="#57565A"/>
</linearGradient>
<linearGradient id="paint3_linear_10025_63159" x1="170.078" y1="73.2617" x2="170.078" y2="338.883" gradientUnits="userSpaceOnUse">
<stop stop-color="#B9B8C0"/>
<stop offset="1" stop-color="#57565A"/>
</linearGradient>
<linearGradient id="paint4_linear_10025_63159" x1="339.222" y1="151.631" x2="339.222" y2="411.562" gradientUnits="userSpaceOnUse">
<stop stop-color="#B9B8C0"/>
<stop offset="1" stop-color="#57565A"/>
</linearGradient>
<clipPath id="clip0_10025_63159">
<rect width="511.995" height="511.995" fill="white" transform="translate(0.935059 0.130859)"/>
</clipPath>
</defs>
</svg>
