<svg width="508" height="508" viewBox="0 0 508 508" fill="none" xmlns="http://www.w3.org/2000/svg">
<path d="M282.523 232.843C284.086 234.862 286.426 235.918 288.793 235.918C290.487 235.918 292.192 235.376 293.635 234.262C297.097 231.586 297.731 226.612 295.055 223.15C294.614 222.582 284.372 209.056 294.691 197.511C309.907 180.508 301.58 160.059 295.055 151.623C292.374 148.162 287.396 147.535 283.942 150.204C280.481 152.88 279.847 157.858 282.523 161.316C282.964 161.888 293.206 175.41 282.883 186.952C267.675 203.958 275.998 224.407 282.523 232.843Z" fill="url(#paint0_linear_10025_57869)"/>
<path d="M343.317 232.843C344.88 234.862 347.22 235.918 349.587 235.918C351.281 235.918 352.986 235.376 354.429 234.262C357.891 231.586 358.525 226.612 355.849 223.15C355.408 222.582 345.166 209.056 355.485 197.511C370.701 180.508 362.374 160.059 355.849 151.623C353.164 148.162 348.194 147.535 344.736 150.204C341.275 152.88 340.64 157.858 343.317 161.316C343.758 161.888 354 175.41 343.677 186.952C328.469 203.958 336.792 224.407 343.317 232.843Z" fill="url(#paint1_linear_10025_57869)"/>
<path d="M404.111 232.843C405.673 234.862 408.013 235.918 410.381 235.918C412.075 235.918 413.78 235.376 415.223 234.262C418.685 231.586 419.319 226.612 416.642 223.15C416.202 222.582 405.96 209.056 416.279 197.511C431.495 180.508 423.167 160.059 416.642 151.623C413.962 148.162 408.992 147.535 405.53 150.204C402.069 152.88 401.434 157.858 404.111 161.316C404.552 161.888 414.794 175.41 404.471 186.952C389.262 203.958 397.586 224.407 404.111 232.843Z" fill="url(#paint2_linear_10025_57869)"/>
<path d="M127.434 161.891C147.121 161.891 163.08 145.932 163.08 126.245C163.08 106.559 147.121 90.5996 127.434 90.5996C107.748 90.5996 91.7888 106.559 91.7888 126.245C91.7888 145.932 107.748 161.891 127.434 161.891Z" fill="url(#paint3_linear_10025_57869)"/>
<path d="M213.034 279.922H145.87C133.201 279.922 122.93 269.651 122.93 256.982V227.301C122.93 225.116 124.706 223.341 126.891 223.341C129.076 223.341 130.852 225.116 130.852 227.301V256.986C130.852 265.278 137.574 272 145.866 272H195.396C201.851 272 207.846 267.604 208.893 261.235C210.227 253.129 203.982 246.094 196.12 246.094H162.536C160.349 246.094 158.576 244.321 158.576 242.133V205.802C158.576 186.141 142.638 170.203 122.977 170.203C103.316 170.203 87.3776 186.141 87.3776 205.802V284.462C87.3776 300.731 100.566 313.92 116.835 313.92H209.074C211.261 313.92 213.034 315.692 213.034 317.88V378.315C213.034 386.774 219.103 394.498 227.518 395.354C237.191 396.34 245.381 388.741 245.381 379.27V312.268C245.381 294.404 230.899 279.922 213.034 279.922Z" fill="url(#paint4_linear_10025_57869)"/>
<path d="M67.9216 330.027H196.959V347.533H67.9216V330.027Z" fill="url(#paint5_linear_10025_57869)"/>
<path d="M67.9216 363.375H196.959V384.763H67.9216V363.375Z" fill="url(#paint6_linear_10025_57869)"/>
<path d="M67.9216 400.605H196.959V418.111H67.9216V400.605Z" fill="url(#paint7_linear_10025_57869)"/>
<path d="M306.27 295.094H269.754C269.754 354.578 269.282 355.235 271.338 365.514C271.972 365.355 272.605 365.276 273.318 365.276H304.449C299.696 341.987 300.33 318.382 306.27 295.094Z" fill="url(#paint8_linear_10025_57869)"/>
<path d="M341.679 295.094H322.668C316.094 318.382 315.46 341.987 320.767 365.276H341.679V295.094Z" fill="url(#paint9_linear_10025_57869)"/>
<path d="M376.057 295.094H357.521V365.276H378.037C383.345 341.909 382.711 318.382 376.057 295.094Z" fill="url(#paint10_linear_10025_57869)"/>
<path d="M384.295 381.119H276.249C277.992 385.238 280.131 389.199 282.586 393.001L290.983 405.992H408.217L416.613 393.001C419.07 389.199 421.129 385.238 422.872 381.119C422.217 381.119 383.651 381.119 384.295 381.119Z" fill="url(#paint11_linear_10025_57869)"/>
<path d="M394.277 365.276H425.882C426.516 365.276 427.149 365.355 427.783 365.514C428.892 360.365 429.447 355.058 429.447 349.671V295.094H392.454C398.475 318.461 399.029 341.909 394.277 365.276Z" fill="url(#paint12_linear_10025_57869)"/>
<path d="M426.853 251.415H272.315C264.618 251.415 258.378 257.654 258.378 265.351C258.378 273.048 264.618 279.288 272.315 279.288H426.853C434.55 279.288 440.79 273.048 440.79 265.351C440.79 257.654 434.55 251.415 426.853 251.415Z" fill="url(#paint13_linear_10025_57869)"/>
<defs>
<linearGradient id="paint0_linear_10025_57869" x1="288.789" y1="148.551" x2="288.789" y2="235.918" gradientUnits="userSpaceOnUse">
<stop stop-color="#B9B8C0"/>
<stop offset="1" stop-color="#57565A"/>
</linearGradient>
<linearGradient id="paint1_linear_10025_57869" x1="349.583" y1="148.551" x2="349.583" y2="235.918" gradientUnits="userSpaceOnUse">
<stop stop-color="#B9B8C0"/>
<stop offset="1" stop-color="#57565A"/>
</linearGradient>
<linearGradient id="paint2_linear_10025_57869" x1="410.377" y1="148.551" x2="410.377" y2="235.918" gradientUnits="userSpaceOnUse">
<stop stop-color="#B9B8C0"/>
<stop offset="1" stop-color="#57565A"/>
</linearGradient>
<linearGradient id="paint3_linear_10025_57869" x1="127.434" y1="90.5996" x2="127.434" y2="161.891" gradientUnits="userSpaceOnUse">
<stop stop-color="#B9B8C0"/>
<stop offset="1" stop-color="#57565A"/>
</linearGradient>
<linearGradient id="paint4_linear_10025_57869" x1="166.379" y1="170.203" x2="166.379" y2="395.441" gradientUnits="userSpaceOnUse">
<stop stop-color="#B9B8C0"/>
<stop offset="1" stop-color="#57565A"/>
</linearGradient>
<linearGradient id="paint5_linear_10025_57869" x1="132.44" y1="330.027" x2="132.44" y2="347.533" gradientUnits="userSpaceOnUse">
<stop stop-color="#B9B8C0"/>
<stop offset="1" stop-color="#57565A"/>
</linearGradient>
<linearGradient id="paint6_linear_10025_57869" x1="132.44" y1="363.375" x2="132.44" y2="384.763" gradientUnits="userSpaceOnUse">
<stop stop-color="#B9B8C0"/>
<stop offset="1" stop-color="#57565A"/>
</linearGradient>
<linearGradient id="paint7_linear_10025_57869" x1="132.44" y1="400.605" x2="132.44" y2="418.111" gradientUnits="userSpaceOnUse">
<stop stop-color="#B9B8C0"/>
<stop offset="1" stop-color="#57565A"/>
</linearGradient>
<linearGradient id="paint8_linear_10025_57869" x1="287.989" y1="295.094" x2="287.989" y2="365.514" gradientUnits="userSpaceOnUse">
<stop stop-color="#B9B8C0"/>
<stop offset="1" stop-color="#57565A"/>
</linearGradient>
<linearGradient id="paint9_linear_10025_57869" x1="329.445" y1="295.094" x2="329.445" y2="365.276" gradientUnits="userSpaceOnUse">
<stop stop-color="#B9B8C0"/>
<stop offset="1" stop-color="#57565A"/>
</linearGradient>
<linearGradient id="paint10_linear_10025_57869" x1="369.554" y1="295.094" x2="369.554" y2="365.276" gradientUnits="userSpaceOnUse">
<stop stop-color="#B9B8C0"/>
<stop offset="1" stop-color="#57565A"/>
</linearGradient>
<linearGradient id="paint11_linear_10025_57869" x1="349.561" y1="381.119" x2="349.561" y2="405.992" gradientUnits="userSpaceOnUse">
<stop stop-color="#B9B8C0"/>
<stop offset="1" stop-color="#57565A"/>
</linearGradient>
<linearGradient id="paint12_linear_10025_57869" x1="410.951" y1="295.094" x2="410.951" y2="365.514" gradientUnits="userSpaceOnUse">
<stop stop-color="#B9B8C0"/>
<stop offset="1" stop-color="#57565A"/>
</linearGradient>
<linearGradient id="paint13_linear_10025_57869" x1="349.584" y1="251.415" x2="349.584" y2="279.288" gradientUnits="userSpaceOnUse">
<stop stop-color="#B9B8C0"/>
<stop offset="1" stop-color="#57565A"/>
</linearGradient>
</defs>
</svg>
