<svg width="512" height="512" viewBox="0 0 512 512" fill="none" xmlns="http://www.w3.org/2000/svg">
<path d="M437.28 243.04C405.28 227.04 349.12 208 256 208C162.88 208 106.08 227.04 74.72 243.04C61.7335 249.697 50.8579 259.839 43.3123 272.33C35.7668 284.822 31.8496 299.168 32 313.76V352C32 381.704 43.8 410.192 64.8041 431.196C85.8081 452.2 114.296 464 144 464H208C210.635 463.986 213.226 463.322 215.543 462.066C217.86 460.81 219.831 459.001 221.28 456.8L244.48 422.24C245.801 420.422 247.533 418.943 249.535 417.923C251.538 416.902 253.753 416.371 256 416.371C258.247 416.371 260.462 416.902 262.465 417.923C264.467 418.943 266.199 420.422 267.52 422.24L290.72 456.8C292.169 459.001 294.14 460.81 296.457 462.066C298.774 463.322 301.365 463.986 304 464H368C397.704 464 426.192 452.2 447.196 431.196C468.2 410.192 480 381.704 480 352V313.76C480.15 299.168 476.233 284.822 468.688 272.33C461.142 259.839 450.267 249.697 437.28 243.04ZM187.36 379.36C185.873 380.86 184.103 382.05 182.153 382.862C180.203 383.675 178.112 384.093 176 384.093C173.888 384.093 171.797 383.675 169.847 382.862C167.897 382.05 166.127 380.86 164.64 379.36L100.64 315.36C97.6272 312.347 95.9346 308.261 95.9346 304C95.9346 299.739 97.6272 295.653 100.64 292.64C103.653 289.627 107.739 287.935 112 287.935C116.261 287.935 120.347 289.627 123.36 292.64L187.36 356.64C188.86 358.127 190.05 359.897 190.862 361.847C191.675 363.797 192.093 365.888 192.093 368C192.093 370.112 191.675 372.203 190.862 374.153C190.05 376.103 188.86 377.873 187.36 379.36ZM235.36 347.36C233.873 348.86 232.103 350.05 230.153 350.862C228.203 351.675 226.112 352.093 224 352.093C221.888 352.093 219.797 351.675 217.847 350.862C215.897 350.05 214.127 348.86 212.64 347.36L180.64 315.36C177.627 312.347 175.935 308.261 175.935 304C175.935 299.739 177.627 295.653 180.64 292.64C183.653 289.627 187.739 287.935 192 287.935C196.261 287.935 200.347 289.627 203.36 292.64L235.36 324.64C236.86 326.127 238.05 327.897 238.862 329.847C239.675 331.797 240.093 333.888 240.093 336C240.093 338.112 239.675 340.203 238.862 342.153C238.05 344.103 236.86 345.873 235.36 347.36ZM480 224V235.2C471.801 226.832 462.289 219.86 451.84 214.56C445.92 211.52 439.2 208.48 431.52 205.44C419.363 182.117 401.051 162.57 378.571 148.918C356.091 135.266 330.301 128.032 304 128H208C181.618 127.944 155.727 135.137 133.154 148.793C110.582 162.45 92.1945 182.045 80 205.44C72.32 208.48 65.6 211.52 59.68 214.56C49.4017 219.904 40.0545 226.874 32 235.2V224C32 177.322 50.5428 132.556 83.5492 99.5492C116.556 66.5428 161.322 48 208 48H304C327.113 48 349.999 52.5524 371.352 61.3972C392.706 70.242 412.108 83.2061 428.451 99.5492C444.794 115.892 457.758 135.294 466.603 156.648C475.448 178.001 480 200.887 480 224Z" fill="url(#paint0_linear_10025_21341)"/>
<defs>
<linearGradient id="paint0_linear_10025_21341" x1="256" y1="48" x2="256" y2="464" gradientUnits="userSpaceOnUse">
<stop stop-color="#B9B8C0"/>
<stop offset="1" stop-color="#57565A"/>
</linearGradient>
</defs>
</svg>
