<svg width="513" height="513" viewBox="0 0 513 513" fill="none" xmlns="http://www.w3.org/2000/svg">
<g clip-path="url(#clip0_10025_63212)">
<path d="M293.501 480.133C185.977 480.133 97.4812 395.541 92.6322 288.127H74.2562C79.1592 405.658 175.868 498.417 293.502 498.417C411.136 498.417 507.844 405.659 512.748 288.127H494.37C489.522 395.542 401.025 480.133 293.501 480.133Z" fill="url(#paint0_linear_10025_63212)"/>
<path d="M420.221 319.67C412.511 329.592 400.65 335.396 388.084 335.396C375.518 335.396 363.658 329.592 355.947 319.67C337.253 319.316 321.18 306.33 316.907 288.127H111.101C115.844 385.411 196.102 461.85 293.501 461.85C390.9 461.85 471.158 385.41 475.901 288.127H459.261C454.988 306.329 438.915 319.316 420.221 319.67ZM428.541 364.561C428.79 364.86 429.009 365.176 429.215 365.499C429.278 365.598 429.338 365.699 429.398 365.8C429.551 366.061 429.69 366.329 429.815 366.602C429.851 366.681 429.894 366.757 429.928 366.837C430.068 367.167 430.183 367.505 430.283 367.848C430.32 367.975 430.351 368.104 430.382 368.233C430.443 368.483 430.493 368.735 430.534 368.989C430.554 369.115 430.578 369.24 430.593 369.366C430.633 369.713 430.654 370.062 430.654 370.413C430.654 370.544 430.643 370.675 430.637 370.806C430.626 371.055 430.607 371.304 430.575 371.552C430.557 371.696 430.539 371.841 430.514 371.984C430.456 372.317 430.384 372.649 430.288 372.977C430.259 373.076 430.222 373.172 430.19 373.271C430.097 373.554 429.99 373.834 429.867 374.11C429.814 374.229 429.76 374.347 429.702 374.464C429.55 374.77 429.386 375.068 429.204 375.352C429.164 375.414 429.123 375.476 429.082 375.538C428.89 375.822 428.681 376.091 428.46 376.349C428.384 376.438 428.306 376.524 428.226 376.61C428.012 376.842 427.788 377.063 427.552 377.27C427.502 377.314 427.456 377.362 427.404 377.406C427.123 377.642 426.826 377.857 426.519 378.058C426.439 378.11 426.358 378.16 426.277 378.21C425.97 378.397 425.655 378.572 425.328 378.723C425.268 378.751 425.205 378.772 425.144 378.798C424.856 378.922 424.561 379.03 424.261 379.125C424.164 379.156 424.068 379.188 423.97 379.216C423.629 379.311 423.282 379.386 422.929 379.441C422.836 379.456 422.743 379.466 422.649 379.477C422.27 379.524 421.888 379.558 421.499 379.558C418.777 379.575 416.191 378.366 414.459 376.267L402.756 362.278C402.53 362.012 402.329 361.731 402.138 361.446C402.043 361.303 401.955 361.157 401.868 361.009C401.786 360.87 401.709 360.729 401.634 360.587C401.537 360.399 401.44 360.211 401.356 360.018C401.333 359.965 401.315 359.91 401.293 359.857C400.745 358.524 400.509 357.069 400.633 355.605C400.839 353.187 401.998 350.95 403.854 349.387C405.719 347.831 408.127 347.081 410.546 347.304C411.136 347.358 411.713 347.471 412.273 347.635C412.303 347.644 412.333 347.653 412.363 347.662C413.13 347.895 413.857 348.233 414.535 348.655C414.617 348.707 414.702 348.753 414.782 348.807C414.946 348.916 415.102 349.036 415.259 349.156C415.398 349.263 415.534 349.373 415.667 349.488C415.79 349.594 415.912 349.7 416.029 349.812C416.278 350.053 416.521 350.302 416.745 350.574L428.541 364.561ZM366.095 398.938C366.308 399.531 366.457 400.132 366.544 400.733C366.588 401.033 366.616 401.334 366.629 401.633V401.637C366.8 405.526 364.46 409.241 360.611 410.641C360.112 410.821 359.6 410.957 359.08 411.048C358.56 411.14 358.032 411.187 357.502 411.189C353.651 411.194 350.211 408.779 348.908 405.155L342.69 387.966C342.564 387.623 342.468 387.275 342.385 386.925C342.356 386.802 342.334 386.678 342.31 386.555C342.265 386.321 342.228 386.086 342.202 385.851C342.187 385.716 342.171 385.58 342.162 385.445C342.145 385.192 342.142 384.939 342.146 384.686C342.149 384.514 342.155 384.342 342.168 384.171C342.186 383.922 342.211 383.673 342.249 383.426C342.277 383.248 342.314 383.073 342.353 382.898C342.386 382.744 342.423 382.592 342.464 382.44C342.516 382.249 342.569 382.057 342.634 381.87C342.672 381.758 342.72 381.649 342.762 381.538C342.905 381.169 343.071 380.81 343.26 380.462C343.313 380.364 343.363 380.265 343.42 380.169C343.529 379.985 343.648 379.806 343.77 379.629C343.846 379.519 343.926 379.412 344.008 379.304C344.135 379.137 344.261 378.969 344.4 378.81C344.471 378.729 344.549 378.656 344.623 378.578C344.89 378.293 345.176 378.024 345.481 377.773C345.59 377.684 345.698 377.594 345.811 377.51C345.977 377.386 346.148 377.267 346.324 377.153C346.433 377.083 346.546 377.018 346.658 376.952C347.108 376.688 347.582 376.452 348.087 376.263C352.238 374.759 356.766 376.422 359.027 380.016C359.06 380.069 359.092 380.122 359.123 380.176C359.25 380.388 359.371 380.605 359.483 380.829C359.628 381.128 359.768 381.431 359.882 381.749L366.095 398.938ZM284.359 342.984C284.359 337.935 288.452 333.841 293.502 333.841C298.551 333.841 302.645 337.934 302.645 342.984V361.27C302.645 366.319 298.552 370.413 293.502 370.413C288.453 370.413 284.359 366.32 284.359 361.27V342.984ZM284.359 406.984C284.359 401.935 288.452 397.841 293.502 397.841C298.551 397.841 302.645 401.934 302.645 406.984V425.27C302.645 430.319 298.552 434.413 293.502 434.413C288.453 434.413 284.359 430.32 284.359 425.27V406.984ZM226.905 380.77C226.965 380.648 227.031 380.53 227.097 380.411C227.201 380.22 227.313 380.035 227.43 379.854C227.515 379.722 227.599 379.59 227.691 379.463C227.809 379.3 227.937 379.146 228.065 378.991C228.265 378.75 228.477 378.52 228.701 378.301C228.799 378.205 228.895 378.106 228.997 378.014C229.162 377.867 229.334 377.729 229.51 377.594C229.595 377.529 229.681 377.465 229.768 377.402C229.965 377.261 230.165 377.124 230.373 376.999C230.4 376.983 230.428 376.969 230.454 376.953C230.693 376.813 230.937 376.681 231.189 376.563C231.731 376.309 232.293 376.112 232.866 375.97C232.881 375.966 232.895 375.963 232.909 375.959C234.646 375.539 236.483 375.636 238.186 376.263C239.857 376.872 241.295 377.956 242.344 379.358C242.388 379.417 242.431 379.476 242.473 379.536C242.62 379.743 242.762 379.954 242.891 380.173C242.915 380.214 242.935 380.257 242.959 380.298C243.088 380.524 243.211 380.752 243.321 380.99C243.407 381.177 243.478 381.37 243.551 381.561C243.592 381.67 243.639 381.778 243.676 381.888C243.739 382.075 243.79 382.264 243.84 382.454C243.882 382.611 243.92 382.769 243.953 382.927C243.989 383.101 244.024 383.274 244.05 383.449C244.082 383.668 244.102 383.888 244.118 384.108C244.131 384.286 244.142 384.463 244.145 384.641C244.149 384.916 244.144 385.192 244.123 385.468C244.113 385.601 244.095 385.733 244.079 385.866C244.05 386.102 244.014 386.337 243.966 386.571C243.942 386.693 243.918 386.814 243.889 386.935C243.807 387.271 243.711 387.605 243.59 387.933C243.586 387.943 243.584 387.954 243.58 387.964L237.363 405.153C236.06 408.778 232.62 411.193 228.768 411.187C227.709 411.183 226.658 410.997 225.661 410.638C220.921 408.914 218.468 403.681 220.174 398.935L226.482 381.746C226.603 381.412 226.749 381.088 226.905 380.77ZM265.523 327.807L259.307 344.996C257.982 348.604 254.556 351.009 250.713 351.03C249.623 351.026 248.541 350.841 247.512 350.481C242.806 348.723 240.398 343.498 242.118 338.778L248.336 321.589C249.447 318.519 252.111 316.274 255.325 315.701C255.727 315.629 256.129 315.585 256.531 315.568C259.34 315.445 262.078 316.625 263.919 318.81C266.022 321.307 266.634 324.737 265.523 327.807ZM199.604 315.556L211.398 301.476C214.666 297.656 220.404 297.188 224.248 300.428C228.092 303.668 228.6 309.404 225.387 313.27L213.684 327.259C211.952 329.359 209.366 330.568 206.644 330.55C204.491 330.56 202.409 329.779 200.793 328.356C198.925 326.825 197.748 324.609 197.525 322.204C197.302 319.799 198.05 317.405 199.604 315.556ZM170.256 350.573C172.336 348.04 175.616 346.818 178.847 347.373C182.078 347.928 184.762 350.173 185.878 353.255C186.994 356.337 186.371 359.781 184.245 362.276L172.542 376.265C170.81 378.365 168.224 379.574 165.502 379.556C165.114 379.557 164.731 379.523 164.352 379.475C164.259 379.463 164.165 379.453 164.072 379.439C163.719 379.384 163.372 379.309 163.031 379.214C162.933 379.187 162.837 379.154 162.74 379.123C162.44 379.028 162.145 378.921 161.857 378.796C161.796 378.77 161.733 378.748 161.673 378.721C161.345 378.571 161.031 378.396 160.724 378.208C160.643 378.158 160.562 378.108 160.482 378.056C160.175 377.855 159.878 377.641 159.597 377.404C159.546 377.361 159.499 377.313 159.449 377.268C159.213 377.061 158.989 376.84 158.775 376.608C158.696 376.522 158.617 376.436 158.541 376.347C158.32 376.089 158.111 375.82 157.919 375.536C157.877 375.474 157.837 375.413 157.797 375.35C157.615 375.067 157.451 374.769 157.3 374.463C157.242 374.346 157.188 374.228 157.135 374.109C157.013 373.833 156.906 373.553 156.813 373.27C156.781 373.172 156.744 373.076 156.715 372.976C156.619 372.648 156.547 372.316 156.489 371.983C156.464 371.84 156.446 371.696 156.428 371.551C156.397 371.303 156.377 371.054 156.366 370.805C156.36 370.674 156.349 370.543 156.349 370.412C156.349 370.062 156.37 369.713 156.41 369.365C156.425 369.238 156.449 369.114 156.469 368.988C156.509 368.734 156.559 368.482 156.621 368.232C156.653 368.103 156.683 367.974 156.72 367.847C156.82 367.505 156.935 367.166 157.075 366.836C157.109 366.756 157.152 366.68 157.188 366.601C157.313 366.328 157.452 366.06 157.605 365.799C157.664 365.698 157.725 365.597 157.788 365.498C157.994 365.176 158.213 364.859 158.462 364.56L170.256 350.573Z" fill="url(#paint1_linear_10025_63212)"/>
<path d="M64.9302 269.842H318.004C326.14 269.868 333.117 275.656 334.645 283.648C336.913 293.964 346.026 301.33 356.588 301.385C357.413 301.37 358.237 301.309 359.056 301.202C362.901 300.542 366.745 302.373 368.656 305.773C372.615 312.778 380.038 317.11 388.085 317.11C396.132 317.11 403.555 312.778 407.514 305.773C409.425 302.373 413.269 300.542 417.114 301.202C428.608 302.709 439.295 295.024 441.525 283.648C443.08 275.672 450.041 269.897 458.167 269.842H510.921C512.178 260.752 512.85 251.59 512.932 242.413C512.932 116.333 398.097 13.8418 256.932 13.8418C115.767 13.8418 0.930176 116.334 0.930176 242.414C0.930176 318.3 42.2562 387.328 109.639 429.477C74.7752 387.078 55.7382 333.877 55.7882 278.986C55.8022 273.942 59.8872 269.857 64.9302 269.842ZM38.5072 162.14C51.7132 140.759 69.2852 122.409 90.0732 108.289C113.052 92.3738 138.465 80.3008 165.319 72.5398C225.167 55.2298 288.694 55.2298 348.542 72.5398C375.395 80.2998 400.809 92.3738 423.788 108.289C444.576 122.409 462.148 140.76 475.354 162.14C476.611 164.211 476.99 166.698 476.406 169.05C475.822 171.402 474.325 173.423 472.245 174.666C470.841 175.521 469.226 175.965 467.582 175.946C464.374 175.956 461.394 174.293 459.718 171.557C447.791 152.388 431.967 135.94 413.272 123.283C391.937 108.457 368.307 97.2438 343.329 90.0938C286.879 73.8198 226.98 73.8198 170.53 90.0938C145.552 97.2438 121.922 108.456 100.587 123.283C81.8922 135.94 66.0682 152.388 54.1412 171.557C51.5162 175.817 45.9492 177.169 41.6632 174.587C37.3762 172.004 35.9692 166.452 38.5072 162.14ZM36.4082 242.348C33.1652 241.957 30.3772 239.866 29.0942 236.862C27.8112 233.858 28.2282 230.398 30.1882 227.785C44.8282 209.149 63.1622 193.74 84.0412 182.528C108.537 168.971 134.822 158.937 162.12 152.722C193.185 145.377 225.01 141.725 256.931 141.842C288.853 141.725 320.677 145.377 351.742 152.722C379.04 158.937 405.326 168.971 429.821 182.528C450.699 193.741 469.034 209.149 483.673 227.785C486.687 231.829 485.87 237.547 481.844 240.585C480.273 241.794 478.341 242.439 476.358 242.414C473.485 242.395 470.783 241.044 469.044 238.757C455.933 222.14 439.529 208.413 420.861 198.437C397.846 185.732 373.164 176.314 347.535 170.46C317.84 163.488 287.431 160.021 256.929 160.129C226.427 160.021 196.018 163.489 166.324 170.46C140.695 176.314 116.013 185.732 92.9982 198.437C74.3302 208.413 57.9252 222.14 44.8142 238.757C42.8562 241.37 39.6512 242.739 36.4082 242.348Z" fill="url(#paint2_linear_10025_63212)"/>
</g>
<defs>
<linearGradient id="paint0_linear_10025_63212" x1="293.502" y1="288.127" x2="293.502" y2="498.417" gradientUnits="userSpaceOnUse">
<stop stop-color="#B9B8C0"/>
<stop offset="1" stop-color="#57565A"/>
</linearGradient>
<linearGradient id="paint1_linear_10025_63212" x1="293.501" y1="288.127" x2="293.501" y2="461.85" gradientUnits="userSpaceOnUse">
<stop stop-color="#B9B8C0"/>
<stop offset="1" stop-color="#57565A"/>
</linearGradient>
<linearGradient id="paint2_linear_10025_63212" x1="256.931" y1="13.8418" x2="256.931" y2="429.477" gradientUnits="userSpaceOnUse">
<stop stop-color="#B9B8C0"/>
<stop offset="1" stop-color="#57565A"/>
</linearGradient>
<clipPath id="clip0_10025_63212">
<rect width="512" height="512" fill="white" transform="translate(0.930176 0.128906)"/>
</clipPath>
</defs>
</svg>
