<svg width="508" height="508" viewBox="0 0 508 508" fill="none" xmlns="http://www.w3.org/2000/svg">
<path d="M240.509 112.55C233.601 108.791 225.906 106.604 217.862 106.604H215.326C202.21 107.479 190.143 113.862 182.186 124.18L178.688 128.552C172.48 136.509 169.07 146.477 169.07 156.621V159.856C184.634 152.686 200.723 148.926 216.025 147.002C219.873 133.536 228.529 121.382 240.509 112.55Z" fill="url(#paint0_linear_10025_57885)"/>
<path d="M269.364 205.15C276.01 202.003 282.393 198.505 288.339 194.57C288.427 194.57 288.514 194.482 288.601 194.482C299.794 187.138 308.363 179.18 314.221 170.699C315.621 168.513 316.757 166.502 317.456 164.578C321.129 155.309 319.642 144.642 313.347 135.285C306.089 124.442 293.935 117.71 281.693 117.535H281.256C274.786 117.535 268.053 119.109 261.757 122.082C250.652 127.153 241.996 135.547 237.186 145.253C241.908 145.079 246.542 144.991 250.914 144.991C256.248 144.991 260.533 149.276 260.533 154.609C260.533 159.856 256.248 164.141 250.914 164.141C226.693 164.141 195.39 166.152 168.196 181.804C161.987 185.301 153.68 191.422 149.221 200.341C142.225 214.157 141.963 234.268 148.521 250.27C151.145 256.828 154.817 262.249 159.189 266.534V253.855C159.189 232.694 175.103 215.031 196.176 212.758L269.364 205.15Z" fill="url(#paint1_linear_10025_57885)"/>
<path d="M318.943 225.35L294.372 213.545C288.427 217.043 282.306 220.366 275.835 223.251C274.96 223.688 273.911 223.95 272.949 224.038L198.188 231.82C186.907 233.045 178.426 242.488 178.426 253.856V318.387C178.426 338.673 189.268 357.56 206.757 367.703L226.081 378.983C243.656 389.214 266.391 389.126 283.704 378.983L303.029 367.703C320.517 357.56 331.447 338.673 331.447 318.387V245.199C331.447 236.804 326.551 229.022 318.943 225.35ZM245.318 275.803C243.569 277.464 241.383 278.339 239.11 278.339C236.836 278.339 234.65 277.552 232.989 275.803C225.994 268.983 221.097 268.983 214.189 275.803C210.779 279.213 205.183 279.213 201.772 275.803C198.45 272.305 198.45 266.797 201.86 263.386C215.676 249.746 231.503 249.746 245.231 263.386C248.641 266.797 248.728 272.305 245.318 275.803ZM307.926 275.803C306.177 277.464 303.903 278.339 301.63 278.339C299.444 278.339 297.258 277.552 295.509 275.803C288.601 268.983 283.617 268.983 276.709 275.803C273.299 279.213 267.79 279.213 264.38 275.803C260.97 272.305 261.058 266.797 264.467 263.386C278.196 249.746 294.022 249.746 307.838 263.386C311.248 266.797 311.248 272.305 307.926 275.803Z" fill="url(#paint2_linear_10025_57885)"/>
<path d="M335.207 180.054L331.447 179.18C331.01 179.967 330.572 180.667 330.135 181.453C325.326 188.274 319.38 194.744 312.21 200.778L327.25 208.123C341.415 214.943 350.596 229.546 350.596 245.198V254.116C362.313 244.498 367.385 227.622 363.625 210.921C360.04 195.006 349.372 183.464 335.207 180.054Z" fill="url(#paint3_linear_10025_57885)"/>
<path d="M405.392 200.574L364.849 282.267L371.992 322.133C372.754 326.384 376.623 329.358 380.927 329.001C385.455 328.626 388.857 324.708 388.594 320.172L386.729 287.941C386.418 283.118 390.076 278.965 394.899 278.659C399.721 278.352 403.871 282.005 404.181 286.828L404.368 289.699C404.379 289.819 404.39 289.935 404.392 290.053L406.23 319.024C406.241 319.14 406.244 319.254 406.247 319.364L407.12 333.064C407.245 335.011 406.713 336.944 405.61 338.553L370.336 390.005C368.374 392.858 368.563 396.697 370.784 399.345C372.22 401.056 374.239 402.01 376.477 402.102C378.704 402.167 380.781 401.306 382.316 399.686L430.088 349.175L434.188 283.32C434.273 281.954 434.677 280.629 435.367 279.448L464.756 229.139L405.392 200.574Z" fill="url(#paint4_linear_10025_57885)"/>
<path d="M127.704 329.001C132.007 329.358 135.877 326.384 136.638 322.133L143.782 282.267L103.238 200.574L43.8743 229.139L73.2633 279.448C73.9534 280.629 74.3569 281.954 74.4422 283.32L78.5421 349.175L126.314 399.686C127.849 401.306 129.926 402.167 132.153 402.102C134.391 402.01 136.41 401.056 137.846 399.345C140.067 396.697 140.257 392.858 138.294 390.005L103.021 338.553C101.917 336.944 101.385 335.011 101.51 333.064L102.383 319.364C102.387 319.254 102.389 319.14 102.4 319.024L104.238 290.053C104.24 289.935 104.251 289.819 104.262 289.699L104.449 286.828C104.759 282.005 108.909 278.352 113.731 278.659C118.554 278.965 122.212 283.118 121.901 287.941L120.036 320.172C119.773 324.708 123.176 328.626 127.704 329.001Z" fill="url(#paint5_linear_10025_57885)"/>
<defs>
<linearGradient id="paint0_linear_10025_57885" x1="204.789" y1="106.604" x2="204.789" y2="159.856" gradientUnits="userSpaceOnUse">
<stop stop-color="#B9B8C0"/>
<stop offset="1" stop-color="#57565A"/>
</linearGradient>
<linearGradient id="paint1_linear_10025_57885" x1="231.608" y1="117.535" x2="231.608" y2="266.534" gradientUnits="userSpaceOnUse">
<stop stop-color="#B9B8C0"/>
<stop offset="1" stop-color="#57565A"/>
</linearGradient>
<linearGradient id="paint2_linear_10025_57885" x1="254.937" y1="213.545" x2="254.937" y2="386.623" gradientUnits="userSpaceOnUse">
<stop stop-color="#B9B8C0"/>
<stop offset="1" stop-color="#57565A"/>
</linearGradient>
<linearGradient id="paint3_linear_10025_57885" x1="338.529" y1="179.18" x2="338.529" y2="254.116" gradientUnits="userSpaceOnUse">
<stop stop-color="#B9B8C0"/>
<stop offset="1" stop-color="#57565A"/>
</linearGradient>
<linearGradient id="paint4_linear_10025_57885" x1="414.802" y1="200.574" x2="414.802" y2="402.106" gradientUnits="userSpaceOnUse">
<stop stop-color="#B9B8C0"/>
<stop offset="1" stop-color="#57565A"/>
</linearGradient>
<linearGradient id="paint5_linear_10025_57885" x1="93.828" y1="200.574" x2="93.828" y2="402.106" gradientUnits="userSpaceOnUse">
<stop stop-color="#B9B8C0"/>
<stop offset="1" stop-color="#57565A"/>
</linearGradient>
</defs>
</svg>
