<svg width="512" height="512" viewBox="0 0 512 512" fill="none" xmlns="http://www.w3.org/2000/svg">
<path d="M400 64H384V48C384 43.7565 385.686 39.6869 388.686 36.6863C391.687 33.6857 395.757 32 400 32H432C436.243 32 440.313 33.6857 443.314 36.6863C446.314 39.6869 448 43.7565 448 48V74.88C433.026 67.6771 416.616 63.9575 400 64ZM384 384C384 392.487 380.629 400.626 374.627 406.627C368.626 412.629 360.487 416 352 416H320C311.513 416 303.374 412.629 297.373 406.627C291.371 400.626 288 392.487 288 384V368C288 363.757 286.314 359.687 283.314 356.686C280.313 353.686 276.243 352 272 352H240C235.757 352 231.687 353.686 228.686 356.686C225.686 359.687 224 363.757 224 368V384C224 409.461 234.114 433.879 252.118 451.882C270.121 469.886 294.539 480 320 480H352C377.461 480 401.879 469.886 419.882 451.882C437.886 433.879 448 409.461 448 384V343.68C428.842 356.474 406.895 364.485 384 367.04V384ZM480 176V224C480 253.704 468.2 282.192 447.196 303.196C426.192 324.2 397.704 336 368 336H304C301.365 335.986 298.774 335.322 296.457 334.066C294.14 332.81 292.169 331.001 290.72 328.8L267.52 294.24C266.199 292.422 264.467 290.943 262.465 289.923C260.462 288.902 258.247 288.371 256 288.371C253.753 288.371 251.538 288.902 249.535 289.923C247.533 290.943 245.801 292.422 244.48 294.24L221.28 328.8C219.831 331.001 217.86 332.81 215.543 334.066C213.226 335.322 210.635 335.986 208 336H144C114.296 336 85.8081 324.2 64.804 303.196C43.8 282.192 32 253.704 32 224V176C32 154.783 40.4285 134.434 55.4315 119.431C70.4344 104.429 90.7827 96 112 96H400C421.217 96 441.566 104.429 456.569 119.431C471.571 134.434 480 154.783 480 176ZM187.36 228.64L123.36 164.64C120.347 161.627 116.261 159.935 112 159.935C107.739 159.935 103.653 161.627 100.64 164.64C97.6271 167.653 95.9345 171.739 95.9345 176C95.9345 180.261 97.6271 184.347 100.64 187.36L164.64 251.36C167.653 254.373 171.739 256.065 176 256.065C180.261 256.065 184.347 254.373 187.36 251.36C190.373 248.347 192.065 244.261 192.065 240C192.065 235.739 190.373 231.653 187.36 228.64ZM235.36 196.64L203.36 164.64C200.347 161.627 196.261 159.935 192 159.935C187.739 159.935 183.653 161.627 180.64 164.64C177.627 167.653 175.935 171.739 175.935 176C175.935 180.261 177.627 184.347 180.64 187.36L212.64 219.36C215.653 222.373 219.739 224.065 224 224.065C228.261 224.065 232.347 222.373 235.36 219.36C238.373 216.347 240.065 212.261 240.065 208C240.065 203.739 238.373 199.653 235.36 196.64Z" fill="url(#paint0_linear_10025_21347)"/>
<defs>
<linearGradient id="paint0_linear_10025_21347" x1="256" y1="32" x2="256" y2="480" gradientUnits="userSpaceOnUse">
<stop stop-color="#B9B8C0"/>
<stop offset="1" stop-color="#57565A"/>
</linearGradient>
</defs>
</svg>
