<svg width="506" height="506" viewBox="0 0 506 506" fill="none" xmlns="http://www.w3.org/2000/svg">
<g clip-path="url(#clip0_10025_63234)">
<path d="M494.645 202.78C488.176 167.941 470.064 136.334 443.277 113.138C400.723 75.7039 341.465 53.9639 275.409 51.3629C272.671 56.7369 270.37 62.3229 268.527 68.0659C261.077 95.2359 258.491 123.51 260.889 151.581C269.824 151.272 278.707 150.091 287.412 148.056C296.892 145.989 306.042 142.628 314.607 138.068C317.246 136.629 320.452 136.706 323.018 138.272C325.584 139.838 327.12 142.653 327.047 145.658C326.974 148.663 325.304 151.401 322.665 152.84C312.744 158.104 302.156 162.001 291.19 164.423C278.77 167.246 266.071 168.653 253.335 168.62C240.599 168.654 227.9 167.246 215.481 164.423C204.514 162.001 193.926 158.105 184.006 152.84C179.927 150.615 178.424 145.504 180.649 141.425C182.874 137.346 187.985 135.843 192.064 138.068C200.628 142.628 209.779 145.989 219.259 148.056C227.393 149.941 235.68 151.092 244.02 151.497C242.978 136.685 243.034 121.816 244.187 107.012C244.173 106.757 244.202 106.502 244.271 106.257C244.355 105.166 244.439 104.075 244.523 102.9C245.027 97.6119 245.782 92.2399 246.705 86.8689L246.957 85.6099C247.125 84.4349 247.377 83.1759 247.629 82.0009C247.72 81.2649 247.86 80.5359 248.048 79.8189C248.132 79.3149 248.216 78.8959 248.3 78.4759C248.803 76.3779 249.307 74.2789 249.811 72.2639C250.062 71.1729 250.398 69.9979 250.733 68.9069L251.741 65.3819C251.83 64.9739 251.971 64.5789 252.16 64.2069C252.21 63.7359 252.353 63.2799 252.579 62.8639C252.747 62.2759 252.915 61.7729 253.083 61.1849V61.1009C253.587 59.5899 254.091 58.0789 254.677 56.5689V56.4849C255.181 55.1419 255.685 53.8829 256.189 52.6239C255.337 53.2909 254.624 54.1179 254.091 55.0579C254.091 54.9739 254.007 54.8899 254.007 54.8059C243.942 32.0429 224.546 14.7279 200.792 7.29892C142.456 -12.5961 77.5762 18.8799 74.8052 20.2229C72.8152 21.1939 71.2972 22.9199 70.5872 25.0169C69.8782 27.1139 70.0362 29.4069 71.0282 31.3869C80.8312 50.1929 93.3612 67.4459 108.211 82.5869C92.0952 90.9299 77.0462 101.188 63.3902 113.139C36.6032 136.335 18.4912 167.942 12.0222 202.781C5.81116 238.621 12.9452 277.818 21.5912 314.917C29.1402 347.31 40.2892 378.757 54.8292 408.672C79.5062 459.788 127.348 505.532 184.172 505.532C193.031 505.541 201.857 504.441 210.443 502.259C225.98 498.195 240.558 491.092 253.334 481.359C266.109 491.091 280.687 498.195 296.225 502.259C364.296 519.214 423.47 467.51 451.839 408.756C466.366 378.807 477.514 347.333 485.077 314.917C493.722 277.818 500.857 238.62 494.645 202.78ZM90.1662 329.689C72.6652 328.555 59.3382 313.544 60.2852 296.031C59.3382 278.519 72.6652 263.508 90.1662 262.373C107.698 263.469 121.071 278.49 120.13 296.031C121.07 313.572 107.698 328.593 90.1662 329.689ZM104.686 236.942C98.8452 242.337 91.2332 245.412 83.2832 245.587C81.3342 245.571 79.3922 245.346 77.4922 244.915C59.1102 241.054 48.1992 218.979 53.0672 195.813C58.0192 172.563 76.9882 156.951 95.4532 160.812C105.161 163.206 113.162 170.055 117.025 179.278C125.332 199.193 120.415 222.171 104.686 236.942ZM373.276 364.102C374.079 363.343 375.019 362.745 376.046 362.339C377.577 361.669 379.279 361.493 380.914 361.835C381.44 361.926 381.95 362.096 382.425 362.339C382.96 362.523 383.468 362.777 383.936 363.094L385.194 364.101C386.727 365.71 387.596 367.838 387.628 370.06C387.616 371.157 387.387 372.241 386.956 373.25C386.531 374.267 385.935 375.204 385.193 376.02C381.883 379.266 376.585 379.266 373.275 376.02C372.534 375.204 371.937 374.267 371.512 373.25C371.081 372.241 370.853 371.157 370.84 370.06C370.874 367.839 371.743 365.711 373.276 364.102ZM353.384 440.399C352.619 442.506 350.96 444.167 348.852 444.931C346.82 445.827 344.505 445.827 342.473 444.931C341.456 444.505 340.519 443.909 339.703 443.168C338.936 442.355 338.312 441.419 337.856 440.398C337.451 439.384 337.251 438.3 337.268 437.208C337.3 434.986 338.169 432.858 339.702 431.249C342.114 428.865 345.725 428.169 348.851 429.486C349.868 429.912 350.804 430.508 351.621 431.249C352.38 432.051 352.978 432.991 353.384 434.019C354.28 436.051 354.28 438.367 353.384 440.399ZM370.171 406.825C369.406 408.932 367.746 410.592 365.639 411.357C363.058 412.462 360.093 412.19 357.757 410.632C355.421 409.074 354.029 406.443 354.056 403.635C354.088 401.413 354.957 399.285 356.49 397.676C357.279 396.9 358.222 396.299 359.26 395.913C362.385 394.596 365.997 395.292 368.409 397.676C369.15 398.492 369.746 399.429 370.172 400.446C371.067 402.478 371.067 404.793 370.171 406.825ZM386.958 440.399C386.533 441.416 385.937 442.353 385.195 443.169C381.885 446.415 376.587 446.415 373.277 443.169C372.536 442.353 371.939 441.416 371.514 440.399C370.618 438.367 370.618 436.052 371.514 434.02H371.513C371.938 433.003 372.534 432.066 373.276 431.25C374.079 430.491 375.019 429.893 376.046 429.487C377.577 428.817 379.279 428.641 380.914 428.983C381.44 429.074 381.95 429.244 382.425 429.487C382.96 429.671 383.468 429.925 383.936 430.242C384.375 430.552 384.795 430.889 385.194 431.249C385.935 432.065 386.531 433.002 386.957 434.019C387.854 436.051 387.854 438.367 386.958 440.399ZM401.981 409.595C401.165 410.336 400.228 410.932 399.211 411.358C397.179 412.254 394.864 412.254 392.832 411.358C391.805 410.953 390.865 410.354 390.062 409.595C388.483 408.017 387.605 405.868 387.628 403.636C387.599 402.535 387.829 401.442 388.3 400.446C388.725 399.429 389.321 398.492 390.063 397.676C392.046 395.709 394.878 394.859 397.616 395.41C398.172 395.488 398.711 395.658 399.211 395.914C399.727 396.081 400.21 396.337 400.638 396.669C401.119 396.957 401.569 397.295 401.98 397.676C402.721 398.492 403.317 399.429 403.743 400.446C405.084 403.569 404.385 407.193 401.981 409.595ZM420.531 373.251C419.766 375.358 418.107 377.019 415.999 377.783C412.876 379.122 409.252 378.424 406.85 376.02C406.083 375.207 405.459 374.271 405.003 373.25C404.598 372.236 404.399 371.152 404.415 370.06C404.399 368.968 404.598 367.884 405.003 366.87C405.489 365.867 406.111 364.935 406.85 364.1C407.249 363.739 407.669 363.403 408.108 363.093C408.594 362.782 409.098 362.501 409.619 362.254C410.111 362.075 410.616 361.935 411.13 361.834C412.206 361.582 413.326 361.582 414.403 361.834C414.947 361.924 415.481 362.064 415.998 362.254C416.988 362.764 417.917 363.383 418.768 364.101C419.527 364.903 420.125 365.843 420.531 366.871C421.427 368.904 421.427 371.219 420.531 373.251Z" fill="url(#paint0_linear_10025_63234)"/>
<path d="M314.354 17.2015C316.501 16.6165 318.324 15.1935 319.412 13.2525C320.501 11.3115 320.765 9.01453 320.145 6.87753C319.56 4.73053 318.137 2.90853 316.196 1.81953C314.255 0.730534 311.958 0.466534 309.821 1.08653C284.78 8.70353 264.882 27.8215 256.271 52.5385C257.636 51.6185 259.242 51.1225 260.887 51.1115H261.726C266.342 51.1115 270.876 51.1955 275.407 51.3635C282.905 34.9285 297.083 22.4925 314.354 17.2015Z" fill="url(#paint1_linear_10025_63234)"/>
<path d="M90.1662 279.16C81.9652 280.331 76.1722 287.796 77.0722 296.031C76.1722 304.266 81.9652 311.731 90.1662 312.902C98.4012 311.772 104.241 304.294 103.343 296.031C104.241 287.767 98.4002 280.29 90.1662 279.16Z" fill="url(#paint2_linear_10025_63234)"/>
<path d="M91.9282 177.264C91.1562 177.093 90.3682 177.009 89.5782 177.012C81.1012 177.012 72.2032 186.58 69.5182 199.255C66.5802 213.188 71.8682 226.618 81.0172 228.548C85.6342 229.145 90.2722 227.6 93.6072 224.351C98.6662 219.562 102.1 213.311 103.427 206.473C103.996 203.91 104.278 201.292 104.266 198.667C104.325 194.394 103.467 190.158 101.748 186.245C100.016 181.91 96.4002 178.604 91.9282 177.264Z" fill="url(#paint3_linear_10025_63234)"/>
</g>
<defs>
<linearGradient id="paint0_linear_10025_63234" x1="253.334" y1="0.724609" x2="253.334" y2="505.532" gradientUnits="userSpaceOnUse">
<stop stop-color="#B9B8C0"/>
<stop offset="1" stop-color="#57565A"/>
</linearGradient>
<linearGradient id="paint1_linear_10025_63234" x1="288.372" y1="0.757812" x2="288.372" y2="52.5385" gradientUnits="userSpaceOnUse">
<stop stop-color="#B9B8C0"/>
<stop offset="1" stop-color="#57565A"/>
</linearGradient>
<linearGradient id="paint2_linear_10025_63234" x1="90.2071" y1="279.16" x2="90.2071" y2="312.902" gradientUnits="userSpaceOnUse">
<stop stop-color="#B9B8C0"/>
<stop offset="1" stop-color="#57565A"/>
</linearGradient>
<linearGradient id="paint3_linear_10025_63234" x1="86.4867" y1="177.012" x2="86.4867" y2="228.674" gradientUnits="userSpaceOnUse">
<stop stop-color="#B9B8C0"/>
<stop offset="1" stop-color="#57565A"/>
</linearGradient>
<clipPath id="clip0_10025_63234">
<rect width="504.808" height="504.808" fill="white" transform="translate(0.930176 0.724609)"/>
</clipPath>
</defs>
</svg>
