<svg width="508" height="508" viewBox="0 0 508 508" fill="none" xmlns="http://www.w3.org/2000/svg">
<path d="M168.012 205.402C180.131 205.402 189.953 195.58 189.953 183.46V164.37C189.953 159.459 191.934 155.023 195.102 151.775C198.35 148.607 202.786 146.627 207.697 146.627C217.44 146.627 225.361 154.548 225.361 164.37V241.048C225.361 270.356 201.677 294.12 172.368 294.12H122.227C135.534 356.064 190.745 402.641 256.571 402.641C322.396 402.641 377.608 356.064 390.915 294.12H318.515C289.206 294.12 265.443 270.356 265.443 241.048V100.683C265.443 89.4353 260.135 79.3752 251.897 73.0383C245.956 68.365 238.51 65.5923 230.352 65.5923H181.161C161.754 65.5923 146.07 81.2767 146.07 100.683V183.46C146.07 189.48 148.525 195.025 152.486 198.986C156.446 202.947 161.991 205.402 168.012 205.402Z" fill="url(#paint0_linear_10025_57893)"/>
<path d="M281.285 121.357H388.618C395.272 121.357 401.292 118.664 405.649 114.228C410.084 109.872 412.777 103.931 412.777 97.1973C412.777 83.8108 401.925 73.0376 388.618 73.0376H273.126C278.354 81.1174 281.285 90.7811 281.285 100.683V121.357Z" fill="url(#paint1_linear_10025_57893)"/>
<path d="M281.285 238.751V241.048C281.285 261.564 297.999 278.278 318.515 278.278H410.56L406.441 297.447C391.311 367.55 328.337 418.484 256.571 418.484C184.805 418.484 121.831 367.55 106.701 297.447L102.582 278.278H172.368C192.884 278.278 209.519 261.564 209.519 241.048V238.751L98.2255 238.909H74.6992V263.544C74.6992 362.718 155.1 443.119 254.274 443.119C303.86 443.119 348.774 422.999 381.251 390.522C413.728 358.045 433.848 313.131 433.848 263.544V238.593L281.285 238.751Z" fill="url(#paint2_linear_10025_57893)"/>
<defs>
<linearGradient id="paint0_linear_10025_57893" x1="256.571" y1="65.5923" x2="256.571" y2="402.641" gradientUnits="userSpaceOnUse">
<stop stop-color="#B9B8C0"/>
<stop offset="1" stop-color="#57565A"/>
</linearGradient>
<linearGradient id="paint1_linear_10025_57893" x1="342.952" y1="73.0376" x2="342.952" y2="121.357" gradientUnits="userSpaceOnUse">
<stop stop-color="#B9B8C0"/>
<stop offset="1" stop-color="#57565A"/>
</linearGradient>
<linearGradient id="paint2_linear_10025_57893" x1="254.274" y1="238.593" x2="254.274" y2="443.119" gradientUnits="userSpaceOnUse">
<stop stop-color="#B9B8C0"/>
<stop offset="1" stop-color="#57565A"/>
</linearGradient>
</defs>
</svg>
