<svg width="512" height="512" viewBox="0 0 512 512" fill="none" xmlns="http://www.w3.org/2000/svg">
<path d="M57.92 135.2C51.9155 129.196 48.5422 121.052 48.5422 112.56C48.5422 104.068 51.9155 95.9245 57.92 89.92C63.9245 83.9155 72.0684 80.5422 80.56 80.5422C89.0517 80.5422 97.1955 83.9155 103.2 89.92L125.28 112H192C230.56 111.942 268.364 122.696 301.12 143.04L254.08 190.08C234.696 180.814 213.485 176.003 192 176H112C103.527 175.964 95.4136 172.569 89.44 166.56L57.92 135.2ZM400 386.72V320C400.058 281.44 389.304 243.636 368.96 210.88L321.92 257.92C331.186 277.304 335.997 298.515 336 320V400C336.036 408.473 339.431 416.586 345.44 422.56L387.52 464.8C392.899 470.404 400.077 473.939 407.798 474.787C415.519 475.635 423.293 473.743 429.76 469.44C433.573 466.75 436.752 463.26 439.074 459.212C441.395 455.164 442.804 450.658 443.2 446.008C443.596 441.359 442.971 436.679 441.368 432.297C439.765 427.915 437.223 423.936 433.92 420.64L400 386.72ZM208 390.56C208 390.56 209.76 414.88 202.56 422.56L316.48 438.56C309.031 428.508 304.693 416.492 304 404L208 390.56ZM74.08 195.52L90.08 309.44C100.117 304.955 111.125 303.083 122.08 304L108.64 208C96.1478 207.308 84.1325 202.969 74.08 195.52ZM475.36 36.64C473.291 34.611 470.709 33.182 467.891 32.5056C465.073 31.8293 462.125 31.9311 459.36 32.8L363.36 64.8C360.761 65.6588 358.425 67.17 356.577 69.1892C354.729 71.2084 353.43 73.6681 352.804 76.3329C352.177 78.9977 352.246 81.7786 353.001 84.4096C353.757 87.0406 355.175 89.4337 357.12 91.36L377.44 112L153.44 336H112C107.764 336.059 103.706 337.716 100.64 340.64L36.64 404.64C34.4199 406.89 32.916 409.747 32.318 412.851C31.72 415.955 32.0548 419.166 33.28 422.08C34.4804 425.002 36.5187 427.503 39.1382 429.268C41.7578 431.034 44.8412 431.984 48 432H80V464C80.0158 467.159 80.9662 470.242 82.7316 472.862C84.4969 475.481 86.9981 477.52 89.92 478.72C92.8338 479.945 96.0452 480.28 99.1491 479.682C102.253 479.084 105.11 477.58 107.36 475.36L171.36 411.36C174.284 408.294 175.941 404.236 176 400V358.56L400 134.56L420.64 155.36C422.583 157.28 424.986 158.67 427.618 159.398C430.251 160.126 433.026 160.168 435.68 159.52C438.441 158.959 441.016 157.712 443.169 155.894C445.322 154.077 446.983 151.748 448 149.12L480 53.12C480.867 50.2157 480.891 47.1248 480.07 44.2072C479.248 41.2896 477.615 38.6654 475.36 36.64Z" fill="url(#paint0_linear_10025_21350)"/>
<defs>
<linearGradient id="paint0_linear_10025_21350" x1="256.349" y1="32.0638" x2="256.349" y2="479.971" gradientUnits="userSpaceOnUse">
<stop stop-color="#B9B8C0"/>
<stop offset="1" stop-color="#57565A"/>
</linearGradient>
</defs>
</svg>
