<svg width="512" height="512" viewBox="0 0 512 512" fill="none" xmlns="http://www.w3.org/2000/svg">
<path d="M441.12 70.88C426.697 56.6508 409.305 45.7865 390.192 39.0649C371.078 32.3434 350.715 29.9308 330.56 32C287.329 36.75 246.991 56.0367 216.15 86.7026C185.31 117.368 165.795 157.596 160.8 200.8C153.703 238.572 141.427 275.184 124.32 309.6L148.16 333.44C157.977 315.178 166.375 296.189 173.28 276.64C179.614 290.203 188.279 302.551 198.88 313.12C209.543 323.681 221.935 332.34 235.52 338.72C215.91 345.601 196.865 354 178.56 363.84L202.4 387.68C236.857 370.849 273.468 358.843 311.2 352C354.525 346.971 394.847 327.34 425.528 296.339C456.209 265.338 475.42 224.815 480 181.44C482.092 161.284 479.69 140.914 472.967 121.797C466.244 102.68 455.368 85.2905 441.12 70.88ZM418.56 93.44C425.509 100.513 431.337 108.606 435.84 117.44L384 169.44L342.56 128L394.56 76.16C403.394 80.6632 411.487 86.4905 418.56 93.44ZM361.44 192L320 233.44L278.56 192L320 150.56L361.44 192ZM333.12 64C342.103 62.9517 351.177 62.9517 360.16 64L320 105.44L289.92 75.2C303.624 69.1676 318.211 65.3857 333.12 64ZM260.64 91.36L297.44 128L256 169.44L219.36 132.64C230.616 116.585 244.585 102.616 260.64 91.36ZM193.28 232.16C191.805 223.227 191.376 214.152 192 205.12C193.233 190.238 196.853 175.652 202.72 161.92L233.44 192L193.28 232.16ZM221.44 290.56C214.491 283.487 208.663 275.394 204.16 266.56L256 214.56L297.44 256L245.44 307.84C236.606 303.337 228.513 297.509 221.44 290.56ZM306.88 320C297.897 321.048 288.823 321.048 279.84 320L320 278.56L350.08 308.8C336.376 314.832 321.789 318.614 306.88 320ZM379.36 293.12L342.56 256L384 214.56L420.64 251.36C409.384 267.415 395.415 281.384 379.36 292.64V293.12ZM448 178.88C446.767 193.762 443.147 208.348 437.28 222.08L406.56 192L446.72 151.84C448.195 160.773 448.624 169.848 448 178.88ZM105.28 336L176 406.72L117.28 465.44C112.736 470.505 107.207 474.591 101.031 477.448C94.855 480.305 88.1615 481.874 81.3591 482.058C74.5568 482.243 67.7882 481.039 61.4667 478.52C55.1451 476.001 49.4032 472.22 44.5914 467.409C39.7797 462.597 35.999 456.855 33.4803 450.533C30.9615 444.212 29.7575 437.443 29.9417 430.641C30.1259 423.839 31.6945 417.145 34.5517 410.969C37.409 404.793 41.4949 399.264 46.56 394.72L105.28 336ZM32 96C32 83.342 35.7535 70.9683 42.7859 60.4435C49.8184 49.9188 59.8138 41.7157 71.5083 36.8717C83.2027 32.0277 96.071 30.7603 108.486 33.2298C120.901 35.6992 132.304 41.7946 141.255 50.7452C150.205 59.6957 156.301 71.0994 158.77 83.5142C161.24 95.929 159.972 108.797 155.128 120.492C150.284 132.186 142.081 142.182 131.556 149.214C121.032 156.246 108.658 160 96 160C79.0262 160 62.7475 153.257 50.7452 141.255C38.7428 129.253 32 112.974 32 96Z" fill="url(#paint0_linear_10025_21353)"/>
<defs>
<linearGradient id="paint0_linear_10025_21353" x1="255.328" y1="31.2814" x2="255.328" y2="482.077" gradientUnits="userSpaceOnUse">
<stop stop-color="#B9B8C0"/>
<stop offset="1" stop-color="#57565A"/>
</linearGradient>
</defs>
</svg>
