<svg width="513" height="512" viewBox="0 0 513 512" fill="none" xmlns="http://www.w3.org/2000/svg">
<g clip-path="url(#clip0_10025_63276)">
<path d="M311.296 202.92L342.484 209.156C346.035 209.87 349.692 209.87 353.243 209.156L384.609 202.888C390.528 201.692 396.627 201.692 402.547 202.888L433.913 209.156C437.464 209.87 441.121 209.87 444.672 209.156L475.868 202.919V164.7C475.865 159.652 471.773 155.561 466.725 155.557H311.296V202.92Z" fill="url(#paint0_linear_10025_63276)"/>
<path d="M270.797 105.594C271.349 107.422 271.843 109.275 272.277 111.155C272.545 112.302 272.81 113.448 273.033 114.616C273.36 116.343 273.606 118.1 273.835 119.866C273.99 121.057 274.179 122.232 274.289 123.442C274.531 126.09 274.657 128.781 274.684 131.507C274.686 131.793 274.725 132.064 274.725 132.352V137.272H298.841C318.226 122.214 327.509 97.5434 322.859 73.4424L322.83 73.2734C302.76 77.2614 284.207 86.7874 269.27 100.772C269.57 101.585 269.783 102.437 270.059 103.26C270.321 104.031 270.557 104.813 270.797 105.594Z" fill="url(#paint1_linear_10025_63276)"/>
<path d="M430.332 227.084L398.957 220.816C395.403 220.106 391.743 220.106 388.189 220.816L356.832 227.084C350.915 228.272 344.821 228.272 338.903 227.084L311.296 221.566V254.12L338.894 248.602C344.814 247.412 350.912 247.412 356.831 248.602L388.197 254.87C391.748 255.584 395.405 255.584 398.956 254.87L430.322 248.602C436.241 247.406 442.34 247.406 448.26 248.602L475.867 254.12V221.566L448.26 227.084C442.343 228.271 436.249 228.271 430.332 227.084Z" fill="url(#paint2_linear_10025_63276)"/>
<path d="M473.789 339.136C471.463 338.667 469.097 338.425 466.725 338.414C451.859 338.414 439.296 346.789 439.296 356.7C439.296 366.611 451.858 374.986 466.725 374.986C469.097 374.975 471.462 374.733 473.788 374.264C474.078 374.209 474.359 374.141 474.646 374.081C476.945 373.587 479.19 372.87 481.35 371.941C481.594 371.836 481.853 371.805 482.102 371.722C488.683 369.463 493.375 363.615 494.153 356.7C493.374 349.785 488.683 343.937 482.102 341.678C481.853 341.595 481.594 341.563 481.35 341.459C479.189 340.529 476.944 339.812 474.644 339.318C474.359 339.257 474.078 339.19 473.789 339.136Z" fill="url(#paint3_linear_10025_63276)"/>
<path d="M230.921 137.272H256.439V132.513C256.455 127.219 255.926 121.936 254.861 116.75C254.71 116.029 254.481 115.351 254.307 114.642C253.914 113.011 253.515 111.383 253.01 109.807C252.294 107.61 251.453 105.455 250.493 103.353C240.46 79.3966 216.928 63.8936 190.957 64.1296C184.751 94.9796 201.607 125.829 230.921 137.272Z" fill="url(#paint4_linear_10025_63276)"/>
<path d="M411.662 320.861C410.469 320.372 409.192 320.123 407.903 320.129C406.024 320.163 404.174 320.595 402.475 321.397C394.959 325.481 389.36 332.367 386.895 340.558C381.279 356.442 386.02 371.067 393.779 374.254C396.779 375.384 400.118 375.189 402.967 373.718C410.483 369.634 416.082 362.748 418.547 354.557C424.162 338.673 419.421 324.048 411.662 320.861Z" fill="url(#paint5_linear_10025_63276)"/>
<path d="M437.806 328.612C446.409 323.017 456.463 320.068 466.725 320.128C469.788 320.128 472.845 320.375 475.868 320.868V272.766L444.672 266.529C441.117 265.824 437.459 265.824 433.904 266.529L402.547 272.797C396.63 273.989 390.535 273.989 384.618 272.797L353.243 266.529C349.688 265.824 346.03 265.824 342.475 266.529L311.296 272.764V374.984H370.567C364.977 362.117 364.646 347.574 369.644 334.466C373.725 321.523 382.877 310.787 395.01 304.707C402.437 301.207 410.98 300.932 418.617 303.948C428.635 308.571 435.789 317.765 437.806 328.612Z" fill="url(#paint6_linear_10025_63276)"/>
<path d="M128.439 201.271H82.7253V237.843H128.448L128.443 219.579L128.439 219.557L128.443 219.535L128.439 201.271Z" fill="url(#paint7_linear_10025_63276)"/>
<path d="M293.01 354.691L273.698 349.861C268.633 348.588 263.309 348.795 258.359 350.459L252.609 352.37C243.219 355.495 233.07 355.495 223.68 352.37L217.046 350.165C212.513 348.661 207.669 348.357 202.983 349.281L174.867 354.906C168.229 356.224 161.382 356.062 154.813 354.433L136.546 349.862C131.484 348.589 126.163 348.796 121.216 350.46L115.466 352.371C106.076 355.496 95.9273 355.496 86.5373 352.371L79.9033 350.166C75.3703 348.662 70.5263 348.358 65.8403 349.282L37.0103 355.052V374.987H293.01V354.691Z" fill="url(#paint8_linear_10025_63276)"/>
<path d="M64.4392 438.985C64.4422 444.033 68.5342 448.124 73.5822 448.128H439.296C444.344 448.125 448.435 444.033 448.439 438.985V429.842H64.4392V438.985Z" fill="url(#paint9_linear_10025_63276)"/>
<path d="M485.598 393.153C485.393 393.167 485.219 393.271 485.011 393.271H27.8683L27.8353 393.264L0.760254 393.271L14.6173 411.432L497.876 411.557C498.002 411.561 498.126 411.52 498.225 411.441L512.43 393.146L485.598 393.153Z" fill="url(#paint10_linear_10025_63276)"/>
<path d="M79.9123 290.093L86.5463 287.888C95.9333 284.787 106.068 284.784 115.457 287.879L121.225 289.808C126.175 291.46 131.493 291.665 136.555 290.397L154.805 285.826C161.377 284.197 168.226 284.035 174.868 285.353L202.993 290.978C207.679 291.893 212.521 291.589 217.056 290.094L223.69 287.889C233.077 284.788 243.212 284.785 252.601 287.88L258.36 289.8C263.31 291.464 268.634 291.671 273.699 290.398L293.011 285.568V228.701H265.582V237.844C265.569 247.937 257.39 256.117 247.296 256.13H201.582C191.489 256.117 183.309 247.938 183.296 237.844V228.701H146.725V237.844C146.712 247.937 138.533 256.117 128.439 256.13H82.7253C72.6313 256.117 64.4523 247.938 64.4393 237.844V228.701H37.0103V285.207L65.8493 290.978C70.5353 291.892 75.3783 291.588 79.9123 290.093Z" fill="url(#paint11_linear_10025_63276)"/>
<path d="M85.6713 332.808L92.3233 335.022C97.9543 336.891 104.038 336.894 109.671 335.031L115.439 333.111C123.687 330.359 132.549 330.018 140.984 332.129L159.251 336.7C163.19 337.68 167.298 337.774 171.278 336.977L199.403 331.352C207.201 329.806 215.267 330.307 222.814 332.807L229.466 335.021C235.097 336.89 241.181 336.893 246.814 335.03L252.582 333.11C260.827 330.343 269.693 330.003 278.127 332.128L293.012 335.842V304.413L278.128 308.127C269.697 310.238 260.838 309.9 252.592 307.154L252.583 307.145L246.824 305.225C241.187 303.366 235.102 303.37 229.467 305.234L222.833 307.439C215.287 309.955 207.214 310.46 199.413 308.903L171.279 303.278C167.295 302.49 163.187 302.584 159.244 303.555L140.994 308.126C132.561 310.25 123.696 309.912 115.449 307.153L109.681 305.224C104.044 303.365 97.9593 303.369 92.3243 305.233L85.6903 307.438C78.1443 309.954 70.0713 310.459 62.2703 308.902L37.0103 303.853V336.407L62.2603 331.354C70.0583 329.806 78.1243 330.308 85.6713 332.808Z" fill="url(#paint12_linear_10025_63276)"/>
<path d="M247.296 201.271H201.582V237.843H247.305L247.301 219.579L247.296 219.557L247.301 219.535L247.296 201.271Z" fill="url(#paint13_linear_10025_63276)"/>
<path d="M64.4393 201.271C64.4523 191.178 72.6313 182.998 82.7253 182.985H128.439C138.532 182.998 146.712 191.177 146.725 201.271V210.414H183.296V201.271C183.309 191.178 191.488 182.998 201.582 182.985H247.296C257.39 182.998 265.569 191.177 265.582 201.271V210.414H293.011V155.557H46.1533C41.1053 155.56 37.0143 159.652 37.0103 164.7V210.414H64.4393V201.271Z" fill="url(#paint14_linear_10025_63276)"/>
</g>
<defs>
<linearGradient id="paint0_linear_10025_63276" x1="393.582" y1="155.557" x2="393.582" y2="209.691" gradientUnits="userSpaceOnUse">
<stop stop-color="#B9B8C0"/>
<stop offset="1" stop-color="#57565A"/>
</linearGradient>
<linearGradient id="paint1_linear_10025_63276" x1="296.656" y1="73.2734" x2="296.656" y2="137.272" gradientUnits="userSpaceOnUse">
<stop stop-color="#B9B8C0"/>
<stop offset="1" stop-color="#57565A"/>
</linearGradient>
<linearGradient id="paint2_linear_10025_63276" x1="393.582" y1="220.283" x2="393.582" y2="255.405" gradientUnits="userSpaceOnUse">
<stop stop-color="#B9B8C0"/>
<stop offset="1" stop-color="#57565A"/>
</linearGradient>
<linearGradient id="paint3_linear_10025_63276" x1="466.725" y1="338.414" x2="466.725" y2="374.986" gradientUnits="userSpaceOnUse">
<stop stop-color="#B9B8C0"/>
<stop offset="1" stop-color="#57565A"/>
</linearGradient>
<linearGradient id="paint4_linear_10025_63276" x1="223.059" y1="64.127" x2="223.059" y2="137.272" gradientUnits="userSpaceOnUse">
<stop stop-color="#B9B8C0"/>
<stop offset="1" stop-color="#57565A"/>
</linearGradient>
<linearGradient id="paint5_linear_10025_63276" x1="402.721" y1="320.129" x2="402.721" y2="374.981" gradientUnits="userSpaceOnUse">
<stop stop-color="#B9B8C0"/>
<stop offset="1" stop-color="#57565A"/>
</linearGradient>
<linearGradient id="paint6_linear_10025_63276" x1="393.582" y1="266" x2="393.582" y2="374.984" gradientUnits="userSpaceOnUse">
<stop stop-color="#B9B8C0"/>
<stop offset="1" stop-color="#57565A"/>
</linearGradient>
<linearGradient id="paint7_linear_10025_63276" x1="105.587" y1="201.271" x2="105.587" y2="237.843" gradientUnits="userSpaceOnUse">
<stop stop-color="#B9B8C0"/>
<stop offset="1" stop-color="#57565A"/>
</linearGradient>
<linearGradient id="paint8_linear_10025_63276" x1="165.01" y1="348.758" x2="165.01" y2="374.987" gradientUnits="userSpaceOnUse">
<stop stop-color="#B9B8C0"/>
<stop offset="1" stop-color="#57565A"/>
</linearGradient>
<linearGradient id="paint9_linear_10025_63276" x1="256.439" y1="429.842" x2="256.439" y2="448.128" gradientUnits="userSpaceOnUse">
<stop stop-color="#B9B8C0"/>
<stop offset="1" stop-color="#57565A"/>
</linearGradient>
<linearGradient id="paint10_linear_10025_63276" x1="256.595" y1="393.146" x2="256.595" y2="411.558" gradientUnits="userSpaceOnUse">
<stop stop-color="#B9B8C0"/>
<stop offset="1" stop-color="#57565A"/>
</linearGradient>
<linearGradient id="paint11_linear_10025_63276" x1="165.011" y1="228.701" x2="165.011" y2="291.495" gradientUnits="userSpaceOnUse">
<stop stop-color="#B9B8C0"/>
<stop offset="1" stop-color="#57565A"/>
</linearGradient>
<linearGradient id="paint12_linear_10025_63276" x1="165.011" y1="302.75" x2="165.011" y2="337.513" gradientUnits="userSpaceOnUse">
<stop stop-color="#B9B8C0"/>
<stop offset="1" stop-color="#57565A"/>
</linearGradient>
<linearGradient id="paint13_linear_10025_63276" x1="224.444" y1="201.271" x2="224.444" y2="237.843" gradientUnits="userSpaceOnUse">
<stop stop-color="#B9B8C0"/>
<stop offset="1" stop-color="#57565A"/>
</linearGradient>
<linearGradient id="paint14_linear_10025_63276" x1="165.011" y1="155.557" x2="165.011" y2="210.414" gradientUnits="userSpaceOnUse">
<stop stop-color="#B9B8C0"/>
<stop offset="1" stop-color="#57565A"/>
</linearGradient>
<clipPath id="clip0_10025_63276">
<rect width="511.67" height="511.67" fill="white" transform="translate(0.760254 0.292969)"/>
</clipPath>
</defs>
</svg>
