<svg width="512" height="512" viewBox="0 0 512 512" fill="none" xmlns="http://www.w3.org/2000/svg">
<g clip-path="url(#clip0_10025_62099)">
<path d="M314.81 121H74.8101V151H314.81V121Z" fill="url(#paint0_linear_10025_62099)"/>
<path d="M334.776 181H54.808C21.823 215.067 2.15199 260.003 0.192993 308.18L5.84199 303.974C7.65799 302.626 50.754 271 104.807 271C158.613 271 201.494 302.291 203.664 303.908C203.688 303.926 203.719 303.926 203.743 303.945C204.109 304.223 240.92 331 284.807 331C328.694 331 365.505 304.223 365.871 303.944L387.505 287.838C381.521 247.472 363.068 210.223 334.776 181Z" fill="url(#paint1_linear_10025_62099)"/>
<path d="M383.772 329.027C381.955 330.374 338.86 362 284.807 362C231.003 362 188.12 330.709 185.95 329.092C185.926 329.074 185.895 329.074 185.871 329.055C185.505 328.777 148.694 302 104.807 302C60.92 302 24.109 328.777 23.743 329.056L2.08301 345.182C15.812 439.36 96.882 512 194.807 512C299.684 512 385.255 428.705 389.41 324.828L383.772 329.027Z" fill="url(#paint2_linear_10025_62099)"/>
<path d="M324.036 46.7114C321.692 43.2254 317.986 40.8814 313.841 40.2514L47.59 0.129417C42.111 -0.573583 36.486 1.60842 33.205 6.16442C29.909 10.7054 29.426 16.6964 31.945 21.7064L65.476 88.4014H319.015L326.189 58.6064C327.17 54.5194 326.394 50.1984 324.036 46.7114Z" fill="url(#paint3_linear_10025_62099)"/>
<path d="M384.307 91H346.807V151H384.307C421.529 151 451.807 181.278 451.807 218.5C451.807 243.368 438.343 265.038 418.119 276.898C420.373 289.717 421.807 302.749 421.807 316C421.807 324.093 421.331 332.073 420.494 339.948C473.463 324.283 511.807 275.905 511.807 218.5C511.807 148.202 454.605 91 384.307 91Z" fill="url(#paint4_linear_10025_62099)"/>
</g>
<defs>
<linearGradient id="paint0_linear_10025_62099" x1="194.81" y1="121" x2="194.81" y2="151" gradientUnits="userSpaceOnUse">
<stop stop-color="#B9B8C0"/>
<stop offset="1" stop-color="#57565A"/>
</linearGradient>
<linearGradient id="paint1_linear_10025_62099" x1="193.849" y1="181" x2="193.849" y2="331" gradientUnits="userSpaceOnUse">
<stop stop-color="#B9B8C0"/>
<stop offset="1" stop-color="#57565A"/>
</linearGradient>
<linearGradient id="paint2_linear_10025_62099" x1="195.747" y1="302" x2="195.747" y2="512" gradientUnits="userSpaceOnUse">
<stop stop-color="#B9B8C0"/>
<stop offset="1" stop-color="#57565A"/>
</linearGradient>
<linearGradient id="paint3_linear_10025_62099" x1="178.475" y1="0" x2="178.475" y2="88.4014" gradientUnits="userSpaceOnUse">
<stop stop-color="#B9B8C0"/>
<stop offset="1" stop-color="#57565A"/>
</linearGradient>
<linearGradient id="paint4_linear_10025_62099" x1="429.307" y1="91" x2="429.307" y2="339.948" gradientUnits="userSpaceOnUse">
<stop stop-color="#B9B8C0"/>
<stop offset="1" stop-color="#57565A"/>
</linearGradient>
<clipPath id="clip0_10025_62099">
<rect width="512" height="512" fill="white"/>
</clipPath>
</defs>
</svg>
