<svg width="513" height="513" viewBox="0 0 513 513" fill="none" xmlns="http://www.w3.org/2000/svg">
<g clip-path="url(#clip0_10025_63310)">
<path d="M82.4882 148.342C83.2792 155.72 86.5052 162.624 91.6572 167.965C100.67 176.226 113.163 179.539 125.086 176.831C126.364 176.609 127.674 176.67 128.926 177.008C136.182 168.338 143.737 159.805 151.925 151.616C153.09 150.451 154.323 149.408 155.499 148.262C148.967 144.306 143.426 138.908 139.3 132.482C130.384 117.47 129.133 99.1152 135.932 83.0332C122.571 85.1672 110.256 91.5562 100.818 101.25C94.7452 107.317 89.8982 114.498 86.5422 122.4C86.1852 123.244 85.7882 124.086 85.4752 124.931C84.9582 126.33 84.5482 127.738 84.1472 129.147C83.9332 129.895 83.6972 130.645 83.5172 131.39C83.1652 132.858 82.9102 134.325 82.6892 135.79C82.5872 136.462 82.4752 137.135 82.4022 137.801C82.2412 139.281 82.1682 140.751 82.1462 142.215C82.1372 142.861 82.1282 143.507 82.1472 144.145C82.1872 145.56 82.3102 146.958 82.4882 148.342Z" fill="url(#paint0_linear_10025_63310)"/>
<path d="M169.565 135.06C186.593 120.033 204.961 106.595 224.437 94.9147C217.095 87.5867 212.185 78.1787 210.371 67.9657C209.345 61.6997 209.532 55.2937 210.92 49.0977C199.337 49.5987 188.094 53.1607 178.337 59.4227L178.264 59.4927C177.509 59.9727 176.81 60.4997 176.081 61.0017C175.16 61.6347 174.236 62.2627 173.35 62.9397C172.56 63.5417 171.814 64.1727 171.06 64.7997C170.019 65.6727 168.994 66.5617 168.012 67.4937C167.584 67.8947 167.153 68.2947 166.739 68.7037C163.592 71.8347 160.784 75.2887 158.363 79.0097C158.272 79.1497 158.139 79.2447 158.042 79.3787C148.567 91.9397 147.287 108.872 154.765 122.715C158.348 128.221 163.505 132.522 169.565 135.06Z" fill="url(#paint1_linear_10025_63310)"/>
<path d="M241.227 85.5236C263.784 73.4916 287.709 64.2216 312.484 57.9146C306.894 45.6976 306.125 31.8196 310.333 19.0596C298.912 14.2286 286.322 12.8596 274.13 15.1246C265.708 16.6056 257.653 19.7056 250.411 24.2526C249.028 25.1266 247.689 26.0356 246.419 26.9926C245.87 27.4046 245.335 27.8286 244.806 28.2576C243.553 29.2746 242.363 30.3276 241.236 31.4186C240.772 31.8676 240.318 32.3206 239.874 32.7826C238.813 33.8906 237.823 35.0326 236.893 36.1986C236.469 36.7316 236.053 37.2666 235.655 37.8126C234.846 38.9226 234.114 40.0586 233.426 41.2076C233.016 41.8956 232.619 42.5876 232.251 43.2926C228.619 49.8566 227.261 57.4386 228.389 64.8556C229.955 73.1006 234.531 80.4666 241.227 85.5236Z" fill="url(#paint2_linear_10025_63310)"/>
<path d="M391.274 50.4515C391.985 37.8005 397.263 25.8375 406.13 16.7855C407.061 15.8545 408.088 15.0535 409.08 14.2055C404.318 10.4705 399.062 7.41452 393.461 5.12452C368.418 -5.17448 340.713 1.01751 330.213 19.2105C329.51 20.3845 328.883 21.6025 328.336 22.8565C324.459 33.0625 325.418 44.4765 330.944 53.8925C350.833 50.2495 371.099 49.0935 391.274 50.4515Z" fill="url(#paint3_linear_10025_63310)"/>
<path d="M65.4242 244.912C70.1772 247.876 75.6252 249.542 81.2232 249.742C90.6212 230.769 101.684 212.668 114.28 195.649C100.987 195.415 88.2802 190.141 78.7282 180.893C74.6152 176.765 71.2622 171.944 68.8222 166.652C65.4142 170.083 62.3812 173.866 59.7732 177.938C54.8972 185.61 51.6192 194.188 50.1362 203.157C49.8562 204.943 49.6482 206.709 49.5372 208.448C49.5172 208.734 49.4852 209.021 49.4702 209.306C47.9202 223.193 54.0292 236.826 65.4242 244.912Z" fill="url(#paint4_linear_10025_63310)"/>
<path d="M18.2514 307.841C19.3524 310.686 20.7074 313.427 22.2974 316.031C27.3224 325.015 36.0324 331.345 46.1294 333.35C48.6584 333.741 51.2254 333.827 53.7744 333.603C57.6524 310.775 64.1834 288.477 73.2334 267.163C66.9964 266.048 61.0314 263.744 55.6644 260.376C46.8974 254.735 40.0684 246.543 36.0984 236.904C25.0404 246.37 17.7064 259.458 15.4054 273.831C13.3784 284.793 14.2204 296.092 17.8484 306.633C17.9914 307.029 18.1034 307.452 18.2514 307.841Z" fill="url(#paint5_linear_10025_63310)"/>
<path d="M21.6383 416.618C25.9073 420.531 30.8103 423.689 36.1393 425.957C42.6743 428.835 49.9113 429.725 56.9483 428.518C50.5793 403.569 48.6673 377.691 51.2983 352.077C48.5253 352.072 45.7573 351.835 43.0243 351.368C31.5353 349.235 21.1083 343.269 13.4473 334.445C0.0552893 347.071 -3.65971 371.151 5.38929 393.135C6.25429 395.246 7.22729 397.311 8.30429 399.321C8.56629 399.816 8.86229 400.281 9.13429 400.767C10.0103 402.319 10.9263 403.843 11.9163 405.307C12.1873 405.71 12.4703 406.098 12.7483 406.492C13.8963 408.108 15.0983 409.674 16.3783 411.161C16.5153 411.321 16.6493 411.484 16.7873 411.642C18.2763 413.343 19.8603 414.96 21.5313 416.483L21.6383 416.618Z" fill="url(#paint6_linear_10025_63310)"/>
<path d="M486.442 37.51C478.577 29.516 468.736 23.747 457.92 20.788C456.677 21.07 455.388 21.085 454.139 20.831C441.696 17.678 428.501 21.019 419.059 29.715C413.112 35.875 409.657 44.019 409.361 52.576C428.694 55.553 447.44 61.545 464.916 70.331C467.834 71.811 469.74 74.737 469.913 78.004C470.087 81.271 468.502 84.383 465.757 86.164C463.012 87.945 459.525 88.124 456.612 86.634C373.202 44.143 253.21 76.188 164.853 164.545C76.5053 252.894 44.4603 372.894 86.9423 456.358C89.2143 460.858 87.4163 466.347 82.9223 468.631C78.4283 470.915 72.9343 469.131 70.6383 464.644C67.5673 458.553 64.8483 452.291 62.4943 445.889C58.7233 446.807 54.8593 447.291 50.9773 447.332C43.4603 447.292 36.0263 445.766 29.1023 442.841C25.9983 441.51 23.0013 439.943 20.1373 438.155C18.0393 456.056 24.5953 473.885 37.7903 486.163C59.5673 507.922 84.6563 516.413 108.46 510.029C143.111 500.788 232.031 437.583 334.951 334.672C437.862 231.752 501.067 142.833 510.308 108.19C516.683 84.385 508.21 59.287 486.442 37.51ZM324.925 306.885C289.269 342.802 251.823 376.896 212.728 409.037C208.813 412.227 203.052 411.64 199.862 407.724C196.672 403.809 197.259 398.048 201.175 394.858C239.792 363.113 276.779 329.436 311.996 293.956C315.566 290.386 321.354 290.386 324.925 293.956C328.494 297.526 328.494 303.315 324.925 306.885ZM377.308 252.18C371.745 258.26 366.013 264.43 360.112 270.689C357.874 273.084 354.525 274.098 351.334 273.347C348.143 272.596 345.598 270.195 344.664 267.053C343.729 263.911 344.547 260.509 346.808 258.136C352.656 251.948 358.323 245.85 363.808 239.841C366.011 237.426 369.336 236.371 372.529 237.073C375.722 237.776 378.297 240.129 379.283 243.246C380.269 246.362 379.516 249.769 377.308 252.18Z" fill="url(#paint7_linear_10025_63310)"/>
</g>
<defs>
<linearGradient id="paint0_linear_10025_63310" x1="118.818" y1="83.0332" x2="118.818" y2="177.757" gradientUnits="userSpaceOnUse">
<stop stop-color="#B9B8C0"/>
<stop offset="1" stop-color="#57565A"/>
</linearGradient>
<linearGradient id="paint1_linear_10025_63310" x1="187.184" y1="49.0977" x2="187.184" y2="135.06" gradientUnits="userSpaceOnUse">
<stop stop-color="#B9B8C0"/>
<stop offset="1" stop-color="#57565A"/>
</linearGradient>
<linearGradient id="paint2_linear_10025_63310" x1="270.244" y1="14.0605" x2="270.244" y2="85.5236" gradientUnits="userSpaceOnUse">
<stop stop-color="#B9B8C0"/>
<stop offset="1" stop-color="#57565A"/>
</linearGradient>
<linearGradient id="paint3_linear_10025_63310" x1="367.534" y1="0.154297" x2="367.534" y2="53.8925" gradientUnits="userSpaceOnUse">
<stop stop-color="#B9B8C0"/>
<stop offset="1" stop-color="#57565A"/>
</linearGradient>
<linearGradient id="paint4_linear_10025_63310" x1="81.7563" y1="166.652" x2="81.7563" y2="249.742" gradientUnits="userSpaceOnUse">
<stop stop-color="#B9B8C0"/>
<stop offset="1" stop-color="#57565A"/>
</linearGradient>
<linearGradient id="paint5_linear_10025_63310" x1="43.7805" y1="236.904" x2="43.7805" y2="333.725" gradientUnits="userSpaceOnUse">
<stop stop-color="#B9B8C0"/>
<stop offset="1" stop-color="#57565A"/>
</linearGradient>
<linearGradient id="paint6_linear_10025_63310" x1="28.6895" y1="334.445" x2="28.6895" y2="429.042" gradientUnits="userSpaceOnUse">
<stop stop-color="#B9B8C0"/>
<stop offset="1" stop-color="#57565A"/>
</linearGradient>
<linearGradient id="paint7_linear_10025_63310" x1="266.064" y1="19.666" x2="266.064" y2="512.1" gradientUnits="userSpaceOnUse">
<stop stop-color="#B9B8C0"/>
<stop offset="1" stop-color="#57565A"/>
</linearGradient>
<clipPath id="clip0_10025_63310">
<rect width="511.947" height="511.947" fill="white" transform="translate(0.430176 0.154297)"/>
</clipPath>
</defs>
</svg>
