<svg width="513" height="513" viewBox="0 0 513 513" fill="none" xmlns="http://www.w3.org/2000/svg">
<g clip-path="url(#clip0_10025_63337)">
<path d="M427.15 250.45C425.207 250.198 423.234 249.747 421.275 249.406C418.262 248.879 415.263 248.41 412.22 247.675C410.005 247.141 407.777 246.389 405.553 245.745C402.728 244.926 399.914 244.192 397.08 243.198C394.592 242.326 392.11 241.218 389.622 240.213C387.039 239.168 384.456 238.229 381.881 237.042C379.143 235.78 376.437 234.266 373.716 232.844C371.403 231.635 369.078 230.549 366.784 229.226C363.788 227.498 360.853 225.505 357.898 223.585C355.922 222.3 353.916 221.151 351.962 219.781C348.634 217.448 345.398 214.836 342.151 212.258C340.634 211.054 339.071 209.986 337.575 208.729C332.873 204.779 328.283 200.572 323.806 196.11C319.755 192.059 315.974 187.877 312.347 183.63C311.199 182.285 310.14 180.912 309.034 179.55C306.613 176.568 304.276 173.563 302.063 170.509C300.925 168.938 299.822 167.366 298.739 165.779C296.665 162.739 294.715 159.675 292.847 156.586C291.95 155.102 291.018 153.631 290.168 152.137C287.862 148.081 285.732 144.001 283.779 139.896C283.545 139.404 283.261 138.918 283.032 138.426C280.902 133.834 279.048 129.227 277.374 124.618C276.863 123.212 276.453 121.814 275.986 120.409C274.902 117.152 273.907 113.906 273.055 110.663C272.628 109.036 272.245 107.422 271.877 105.801C271.167 102.675 270.583 99.5761 270.095 96.4841C269.857 94.9751 269.588 93.4681 269.403 91.9701C268.937 88.1981 268.656 84.4721 268.531 80.7831C268.51 80.1671 268.397 79.5271 268.385 78.9141C242.19 129.958 221.127 183.476 205.506 238.682C202.026 250.699 196.621 262.073 189.501 272.361L147.43 333.12L147.492 333.181C148.201 333.467 148.766 334.027 149.058 334.734L186.092 371.468L186.105 371.476L186.113 371.488L187.172 372.538L247.561 330.413C257.85 323.297 269.223 317.893 281.24 314.413C336.452 298.793 389.977 277.728 441.026 251.529C439.546 251.502 438.012 251.261 436.516 251.178C433.407 251.004 430.314 250.863 427.15 250.45Z" fill="url(#paint0_linear_10025_63337)"/>
<path d="M461.882 58.0387C429.266 25.4227 389.351 7.76166 355.646 7.76166C337.032 7.03566 318.91 13.8397 305.374 26.6377L305.371 26.6427L305.316 26.6957C304.343 27.6267 303.421 28.6077 302.552 29.6367C271.481 65.6817 286.579 133.021 336.735 183.182C386.891 233.334 454.257 248.441 490.052 217.557C491.177 216.62 492.25 215.621 493.266 214.566C527.766 180.066 513.686 109.843 461.882 58.0387ZM430.882 152.182C424.806 158.062 416.624 161.256 408.172 161.048C395.242 160.671 382.977 155.233 374.016 145.905C356.61 128.494 353.797 102.985 367.739 89.0387C381.685 75.0927 407.19 77.8957 424.605 95.3157C442.007 112.727 444.829 138.244 430.882 152.182Z" fill="url(#paint1_linear_10025_63337)"/>
<path d="M390.485 98.3429C386.859 98.1849 383.322 99.4909 380.668 101.968C373.972 108.673 376.842 122.87 386.945 132.977C397.052 143.075 411.244 145.95 417.954 139.254C424.65 132.558 421.776 118.352 411.677 108.245C406.137 102.358 398.554 98.8149 390.485 98.3429Z" fill="url(#paint2_linear_10025_63337)"/>
<path d="M166.714 377.939L141.986 353.207L84.3061 410.887C78.0321 417.159 67.8611 417.159 61.5871 410.887C48.6761 397.447 27.7351 395.837 12.9221 407.146C-0.621912 418.218 -3.97891 437.557 5.04209 452.546C14.0631 467.535 32.7221 473.623 48.8471 466.84C50.7891 459.268 54.7081 452.349 60.2031 446.79C62.5131 444.481 65.8791 443.579 69.0331 444.424C72.1881 445.269 74.6521 447.734 75.4971 450.888C76.3421 454.043 75.4401 457.409 73.1311 459.718C68.7761 464.111 66.1221 469.907 65.6411 476.074C65.5301 477.264 65.4991 478.46 65.5471 479.654C65.5861 480.442 65.6631 481.227 65.7721 482.009C65.9261 483.075 66.1451 484.13 66.4291 485.169C66.6371 485.947 66.8341 486.726 67.1141 487.485C67.5401 488.582 68.0391 489.649 68.6091 490.679C68.9301 491.282 69.1901 491.909 69.5621 492.492C74.6011 500.522 83.5961 505.192 93.0631 504.692C100.503 504.357 107.445 500.857 112.139 495.076C120.613 483.991 119.41 468.31 109.344 458.647C106.157 455.6 104.347 451.387 104.331 446.977C104.317 442.715 106.01 438.625 109.032 435.62L166.714 377.939Z" fill="url(#paint3_linear_10025_63337)"/>
</g>
<defs>
<linearGradient id="paint0_linear_10025_63337" x1="294.228" y1="78.9141" x2="294.228" y2="372.538" gradientUnits="userSpaceOnUse">
<stop stop-color="#B9B8C0"/>
<stop offset="1" stop-color="#57565A"/>
</linearGradient>
<linearGradient id="paint1_linear_10025_63337" x1="399.289" y1="7.70898" x2="399.289" y2="233.552" gradientUnits="userSpaceOnUse">
<stop stop-color="#B9B8C0"/>
<stop offset="1" stop-color="#57565A"/>
</linearGradient>
<linearGradient id="paint2_linear_10025_63337" x1="399.311" y1="98.3301" x2="399.311" y2="142.875" gradientUnits="userSpaceOnUse">
<stop stop-color="#B9B8C0"/>
<stop offset="1" stop-color="#57565A"/>
</linearGradient>
<linearGradient id="paint3_linear_10025_63337" x1="83.3569" y1="353.207" x2="83.3569" y2="504.728" gradientUnits="userSpaceOnUse">
<stop stop-color="#B9B8C0"/>
<stop offset="1" stop-color="#57565A"/>
</linearGradient>
<clipPath id="clip0_10025_63337">
<rect width="512.159" height="512.159" fill="white" transform="translate(0 0.138672)"/>
</clipPath>
</defs>
</svg>
