<svg width="512" height="512" viewBox="0 0 512 512" fill="none" xmlns="http://www.w3.org/2000/svg">
<path d="M246.08 195.36L316.64 265.92L265.92 316.64L195.36 246.08L246.08 195.36ZM470.08 67.36L445.12 41.44C439.124 35.48 431.014 32.1346 422.56 32.1346C414.106 32.1346 405.996 35.48 400 41.44L470.56 112C476.52 106.004 479.865 97.8939 479.865 89.44C479.865 80.9861 476.52 72.8756 470.56 66.88L470.08 67.36ZM123.36 219.36C120.388 216.385 116.859 214.024 112.974 212.414C109.089 210.804 104.925 209.975 100.72 209.975C96.5147 209.975 92.3507 210.804 88.4659 212.414C84.5812 214.024 81.052 216.385 78.08 219.36L64 233.44C58.04 239.436 54.6946 247.546 54.6946 256C54.6946 264.454 58.04 272.564 64 278.56L233.44 448C239.436 453.96 247.546 457.305 256 457.305C264.454 457.305 272.564 453.96 278.56 448L292.64 433.92C295.615 430.948 297.976 427.419 299.586 423.534C301.196 419.649 302.025 415.485 302.025 411.28C302.025 407.075 301.196 402.911 299.586 399.026C297.976 395.141 295.615 391.612 292.64 388.64L123.36 219.36ZM48 358.56L153.44 464C159.436 469.96 167.546 473.305 176 473.305C184.454 473.305 192.564 469.96 198.56 464L48 313.44C42.04 319.436 38.6946 327.546 38.6946 336C38.6946 344.454 42.04 352.564 48 358.56ZM278.56 64C272.564 58.04 264.454 54.6946 256 54.6946C247.546 54.6946 239.436 58.04 233.44 64L219.36 78.08C216.385 81.0519 214.024 84.5812 212.414 88.4659C210.804 92.3506 209.975 96.5147 209.975 100.72C209.975 104.925 210.804 109.089 212.414 112.974C214.024 116.859 216.385 120.388 219.36 123.36L388.64 292.64C391.612 295.615 395.141 297.976 399.026 299.586C402.911 301.196 407.075 302.025 411.28 302.025C415.485 302.025 419.649 301.196 423.534 299.586C427.419 297.976 430.948 295.615 433.92 292.64L448 278.56C453.96 272.564 457.305 264.454 457.305 256C457.305 247.546 453.96 239.436 448 233.44L278.56 64ZM358.56 48C352.564 42.04 344.454 38.6946 336 38.6946C327.546 38.6946 319.436 42.04 313.44 48L464 198.56C469.96 192.564 473.305 184.454 473.305 176C473.305 167.546 469.96 159.436 464 153.44L358.56 48ZM41.44 445.12L66.88 470.56C72.8756 476.52 80.9861 479.865 89.44 479.865C97.894 479.865 106.004 476.52 112 470.56L41.44 400C35.48 405.996 32.1346 414.106 32.1346 422.56C32.1346 431.014 35.48 439.124 41.44 445.12Z" fill="url(#paint0_linear_10025_21362)"/>
<defs>
<linearGradient id="paint0_linear_10025_21362" x1="256" y1="32.1346" x2="256" y2="479.865" gradientUnits="userSpaceOnUse">
<stop stop-color="#B9B8C0"/>
<stop offset="1" stop-color="#57565A"/>
</linearGradient>
</defs>
</svg>
