<svg width="512" height="512" viewBox="0 0 512 512" fill="none" xmlns="http://www.w3.org/2000/svg">
<path d="M316.001 106.001C304.896 106.001 294.173 108.198 284.139 112.001C313.796 118.795 335.057 138.712 345.84 165.415C373.509 176.597 393.454 198.97 399.715 228.68C403.716 218.42 406.001 207.407 406.001 196.001C406.001 146.372 365.63 106.001 316.001 106.001Z" fill="url(#paint0_linear_10025_62141)"/>
<path d="M488.12 149.404C500.209 111.454 481.062 77.9077 441.904 69.3497C433.435 30.5957 400.243 10.9288 361.836 23.1338C333.806 -7.69725 297.478 -7.72525 269.404 23.1338C231.774 11.0998 197.964 29.9337 189.35 69.3497C167.242 74.1807 149.893 86.8438 142.675 109.106C171.582 87.7158 209.327 85.8147 239.855 103.364C260.972 86.0057 287.687 76.0007 316.001 76.0007C382.168 76.0007 436.001 129.834 436.001 196.001C436.001 224.375 425.954 251.134 408.532 272.27C416.189 285.682 420.254 300.357 420.254 315.62C420.254 334.659 413.931 352.746 402.163 368.592C424.426 361.377 437.093 343.921 441.904 321.904C480.905 313.381 500.252 279.966 488.12 241.85C519.961 212.869 519.961 178.386 488.12 149.404Z" fill="url(#paint1_linear_10025_62141)"/>
<path d="M196.001 226.001C146.372 226.001 106.001 266.372 106.001 316.001C106.001 365.63 146.372 406.001 196.001 406.001C245.63 406.001 286.001 365.63 286.001 316.001C286.001 266.372 245.63 226.001 196.001 226.001ZM151.001 331.001C142.717 331.001 136.001 324.285 136.001 316.001C136.001 307.715 142.717 301.001 151.001 301.001C159.285 301.001 166.001 307.715 166.001 316.001C166.001 324.285 159.285 331.001 151.001 331.001ZM196.001 376.001C187.717 376.001 181.001 369.285 181.001 361.001C181.001 352.715 187.717 346.001 196.001 346.001C204.285 346.001 211.001 352.715 211.001 361.001C211.001 369.285 204.285 376.001 196.001 376.001ZM196.001 286.001C187.717 286.001 181.001 279.285 181.001 271.001C181.001 262.715 187.717 256.001 196.001 256.001C204.285 256.001 211.001 262.715 211.001 271.001C211.001 279.285 204.285 286.001 196.001 286.001ZM241.001 331.001C232.717 331.001 226.001 324.285 226.001 316.001C226.001 307.715 232.717 301.001 241.001 301.001C249.285 301.001 256.001 307.715 256.001 316.001C256.001 324.285 249.285 331.001 241.001 331.001Z" fill="url(#paint2_linear_10025_62141)"/>
<path d="M368.12 269.404C380.209 231.454 361.062 197.908 321.904 189.35C313.338 150.153 279.744 131.048 241.836 143.134C215.747 114.438 175.552 114.408 149.404 143.134C111.902 131.18 77.999 149.772 69.35 189.35C35.11 196.833 11.206 232.021 23.134 269.404C-7.44799 297.239 -7.97299 333.553 23.134 361.836C17.231 380.352 18.534 398.164 27.074 412.944C35.614 427.724 50.38 437.758 69.349 441.904C78.005 481.512 111.911 500.072 149.403 488.12C178.145 519.697 212.646 520.224 241.835 488.12C279.215 500.027 313.223 481.625 321.903 441.904C360.973 433.366 380.235 399.885 368.119 361.85C397.692 334.934 397.692 296.321 368.12 269.404ZM196.001 436.001C129.834 436.001 76.001 382.168 76.001 316.001C76.001 249.834 129.834 196.001 196.001 196.001C262.168 196.001 316.001 249.834 316.001 316.001C316.001 382.168 262.168 436.001 196.001 436.001Z" fill="url(#paint3_linear_10025_62141)"/>
<defs>
<linearGradient id="paint0_linear_10025_62141" x1="345.07" y1="106.001" x2="345.07" y2="228.68" gradientUnits="userSpaceOnUse">
<stop stop-color="#B9B8C0"/>
<stop offset="1" stop-color="#57565A"/>
</linearGradient>
<linearGradient id="paint1_linear_10025_62141" x1="327.338" y1="0" x2="327.338" y2="368.592" gradientUnits="userSpaceOnUse">
<stop stop-color="#B9B8C0"/>
<stop offset="1" stop-color="#57565A"/>
</linearGradient>
<linearGradient id="paint2_linear_10025_62141" x1="196.001" y1="226.001" x2="196.001" y2="406.001" gradientUnits="userSpaceOnUse">
<stop stop-color="#B9B8C0"/>
<stop offset="1" stop-color="#57565A"/>
</linearGradient>
<linearGradient id="paint3_linear_10025_62141" x1="195.15" y1="121.601" x2="195.15" y2="512.001" gradientUnits="userSpaceOnUse">
<stop stop-color="#B9B8C0"/>
<stop offset="1" stop-color="#57565A"/>
</linearGradient>
</defs>
</svg>
