<svg width="513" height="513" viewBox="0 0 513 513" fill="none" xmlns="http://www.w3.org/2000/svg">
<g clip-path="url(#clip0_10025_63382)">
<path d="M197.985 258.509C197.292 256.996 196.497 255.533 195.605 254.129C194.996 253.17 194.31 252.272 193.618 251.381C193.157 250.782 192.674 250.203 192.177 249.635C185.988 242.605 177.339 238.215 168.011 237.367C167.888 237.356 167.778 237.303 167.656 237.287C166.679 237.208 165.741 236.992 164.744 236.992C163.749 236.992 162.814 237.207 161.84 237.285C161.717 237.301 161.605 237.355 161.481 237.366C152.145 238.211 143.489 242.607 137.3 249.648C136.816 250.202 136.346 250.766 135.896 251.349C135.188 252.26 134.488 253.177 133.868 254.158C133.192 255.259 132.574 256.395 132.019 257.561C131.843 257.921 131.62 258.25 131.455 258.617L131.376 258.744C129.276 263.403 128.185 268.453 128.173 273.564C128.184 280.004 129.933 286.321 133.236 291.85H196.254C199.557 286.322 201.306 280.004 201.316 273.564C201.302 268.41 200.189 263.319 198.051 258.629L198.044 258.617L197.985 258.509Z" fill="url(#paint0_linear_10025_63382)"/>
<path d="M287.681 291.847C290.984 286.319 292.733 280.001 292.744 273.561C292.73 268.407 291.617 263.316 289.479 258.626L289.472 258.614L289.415 258.507C288.722 256.994 287.927 255.531 287.035 254.127C286.426 253.168 285.74 252.27 285.048 251.379C284.587 250.78 284.104 250.201 283.607 249.633C277.418 242.603 268.769 238.213 259.441 237.365C259.318 237.354 259.208 237.301 259.085 237.285C258.108 237.206 257.17 236.99 256.173 236.99C255.179 236.99 254.243 237.205 253.269 237.283C253.146 237.299 253.034 237.353 252.91 237.364C243.574 238.209 234.918 242.605 228.729 249.646C228.245 250.2 227.775 250.764 227.325 251.347C226.617 252.258 225.917 253.175 225.297 254.156C224.621 255.257 224.003 256.393 223.448 257.559C223.272 257.919 223.049 258.248 222.884 258.615L222.805 258.742C220.705 263.401 219.614 268.451 219.602 273.562C219.613 280.002 221.362 286.319 224.665 291.848H287.681V291.847Z" fill="url(#paint1_linear_10025_63382)"/>
<path d="M411.585 249.647C411.101 250.201 410.631 250.765 410.181 251.348C409.473 252.259 408.773 253.176 408.153 254.157C407.477 255.258 406.859 256.394 406.304 257.56C406.128 257.92 405.905 258.249 405.74 258.616L405.661 258.743C403.561 263.402 402.47 268.452 402.458 273.563C402.469 280.003 404.218 286.32 407.521 291.849H470.539C473.842 286.321 475.591 280.003 475.602 273.563C475.581 253.374 459.22 237.013 439.031 236.992C438.037 236.992 437.101 237.207 436.127 237.285C436.004 237.301 435.892 237.355 435.768 237.366C426.43 238.21 417.774 242.606 411.585 249.647Z" fill="url(#paint2_linear_10025_63382)"/>
<path d="M379.11 291.847C382.413 286.319 384.162 280.001 384.173 273.561C384.159 268.407 383.046 263.316 380.908 258.626L380.901 258.614L380.844 258.507C380.151 256.994 379.356 255.531 378.464 254.127C377.855 253.168 377.169 252.27 376.477 251.379C376.016 250.78 375.533 250.201 375.036 249.633C368.847 242.603 360.198 238.213 350.87 237.365C350.747 237.354 350.637 237.301 350.515 237.285C349.538 237.206 348.6 236.99 347.603 236.99C346.609 236.99 345.673 237.205 344.699 237.283C344.576 237.299 344.464 237.353 344.34 237.364C335.004 238.209 326.348 242.605 320.159 249.646C319.675 250.2 319.205 250.764 318.755 251.347C318.047 252.258 317.347 253.175 316.727 254.156C316.051 255.257 315.433 256.393 314.878 257.559C314.702 257.919 314.479 258.248 314.314 258.615L314.235 258.742C312.135 263.401 311.044 268.451 311.032 273.562C311.043 280.002 312.792 286.319 316.095 291.848H379.11V291.847Z" fill="url(#paint3_linear_10025_63382)"/>
<path d="M301.886 243.304C309.97 231.103 322.586 222.631 336.938 219.764C337.938 216.455 338.449 213.019 338.458 209.563C338.444 204.409 337.331 199.317 335.193 194.628L335.186 194.616L335.129 194.509C334.436 192.996 333.641 191.533 332.749 190.129C332.14 189.17 331.454 188.272 330.762 187.381C330.301 186.782 329.818 186.203 329.321 185.635C323.132 178.605 314.483 174.215 305.155 173.367C305.032 173.356 304.922 173.303 304.8 173.287C303.823 173.208 302.885 172.992 301.888 172.992C300.894 172.992 299.958 173.207 298.984 173.285C298.861 173.301 298.749 173.355 298.625 173.366C289.289 174.211 280.633 178.607 274.444 185.648C273.96 186.202 273.49 186.766 273.04 187.349C272.332 188.26 271.632 189.177 271.012 190.158C270.336 191.259 269.718 192.395 269.163 193.561C268.987 193.921 268.764 194.25 268.599 194.617L268.52 194.744C266.42 199.403 265.329 204.453 265.317 209.564C265.325 213.02 265.837 216.457 266.837 219.765C281.187 222.631 293.803 231.103 301.886 243.304Z" fill="url(#paint4_linear_10025_63382)"/>
<path d="M210.458 243.304C218.542 231.103 231.158 222.631 245.51 219.764C246.51 216.455 247.021 213.019 247.03 209.563C247.016 204.409 245.903 199.318 243.765 194.628L243.758 194.616L243.7 194.509C243.007 192.996 242.212 191.533 241.32 190.129C240.711 189.17 240.025 188.272 239.333 187.381C238.872 186.782 238.389 186.203 237.892 185.635C231.703 178.605 223.054 174.215 213.726 173.367C213.603 173.356 213.493 173.303 213.371 173.287C212.394 173.208 211.456 172.992 210.459 172.992C209.465 172.992 208.529 173.207 207.555 173.285C207.432 173.301 207.32 173.355 207.196 173.366C197.86 174.211 189.204 178.607 183.015 185.648C182.531 186.202 182.061 186.766 181.611 187.349C180.903 188.26 180.203 189.177 179.583 190.158C178.907 191.259 178.289 192.395 177.734 193.561C177.558 193.921 177.335 194.25 177.17 194.617L177.091 194.744C174.991 199.403 173.9 204.453 173.888 209.564C173.896 213.02 174.408 216.457 175.408 219.765C189.758 222.631 202.374 231.103 210.458 243.304Z" fill="url(#paint5_linear_10025_63382)"/>
<path d="M365.871 185.647C365.387 186.201 364.917 186.765 364.467 187.348C363.759 188.259 363.059 189.176 362.439 190.157C361.763 191.258 361.145 192.394 360.59 193.56C360.414 193.92 360.191 194.249 360.026 194.616L359.947 194.743C357.847 199.402 356.756 204.452 356.744 209.563C356.752 213.019 357.264 216.456 358.264 219.764C372.616 222.631 385.232 231.103 393.316 243.304C401.4 231.103 414.016 222.631 428.368 219.764C429.368 216.455 429.879 213.019 429.888 209.563C429.867 189.374 413.506 173.013 393.317 172.992C392.323 172.992 391.387 173.207 390.413 173.285C390.29 173.301 390.178 173.355 390.054 173.366C380.715 174.21 372.06 178.606 365.871 185.647Z" fill="url(#paint6_linear_10025_63382)"/>
<path d="M339.966 109.822C337.353 110.4 334.813 111.267 332.392 112.407C331.731 112.712 331.123 113.102 330.484 113.444C328.75 114.361 327.093 115.416 325.529 116.598C324.878 117.096 324.253 117.621 323.637 118.16C322.161 119.459 320.791 120.875 319.542 122.393C319.089 122.94 318.608 123.461 318.187 124.034C313.534 130.246 311.022 137.801 311.03 145.563C311.038 149.019 311.55 152.456 312.55 155.764C326.902 158.631 339.518 167.103 347.602 179.304C355.686 167.103 368.302 158.631 382.654 155.764C383.654 152.455 384.165 149.019 384.174 145.563C384.204 134.515 379.224 124.049 370.633 117.102C362.04 110.157 350.763 107.479 339.966 109.822Z" fill="url(#paint7_linear_10025_63382)"/>
<path d="M104.824 291.847C108.127 286.319 109.876 280.001 109.887 273.561C109.873 268.407 108.76 263.316 106.622 258.626L106.615 258.614L106.558 258.507C105.865 256.994 105.07 255.531 104.178 254.127C103.569 253.168 102.883 252.27 102.191 251.379C101.73 250.78 101.247 250.201 100.75 249.633C94.561 242.603 85.912 238.213 76.584 237.365C76.461 237.354 76.351 237.301 76.228 237.285C75.251 237.206 74.313 236.99 73.316 236.99C53.127 237.012 36.766 253.373 36.745 273.561C36.756 280.001 38.505 286.318 41.808 291.847H104.824Z" fill="url(#paint8_linear_10025_63382)"/>
<path d="M119.029 243.304C127.113 231.103 139.729 222.631 154.081 219.764C155.081 216.455 155.592 213.019 155.601 209.563C155.587 204.409 154.474 199.318 152.336 194.628L152.329 194.616L152.272 194.509C151.579 192.996 150.784 191.533 149.892 190.129C149.283 189.17 148.597 188.272 147.905 187.381C147.444 186.782 146.961 186.203 146.464 185.635C140.275 178.605 131.626 174.215 122.298 173.367C122.175 173.356 122.065 173.303 121.942 173.287C120.965 173.208 120.027 172.992 119.03 172.992C98.841 173.014 82.48 189.375 82.459 209.563C82.467 213.019 82.979 216.456 83.979 219.764C98.329 222.631 110.946 231.103 119.029 243.304Z" fill="url(#paint9_linear_10025_63382)"/>
<path d="M37.447 383.278H100.743C105.792 383.278 109.886 387.371 109.886 392.421C109.886 397.471 105.793 401.564 100.743 401.564H44.762L66.705 456.421H274.458C279.507 456.421 283.601 460.514 283.601 465.564C283.601 470.613 279.508 474.707 274.458 474.707H74.019L86.351 505.537C87.732 509.012 91.098 511.29 94.838 511.278H417.508C421.251 511.288 424.619 509.007 425.999 505.528L438.327 474.707H411.602C406.553 474.707 402.459 470.614 402.459 465.564C402.459 460.515 406.552 456.421 411.602 456.421H445.641L467.584 401.564H237.886C232.837 401.564 228.743 397.471 228.743 392.421C228.743 387.371 232.836 383.278 237.886 383.278H474.896L489.523 346.707H22.819L37.447 383.278Z" fill="url(#paint10_linear_10025_63382)"/>
<path d="M503.029 310.135H9.315C4.266 310.135 0.171997 314.228 0.171997 319.278C0.171997 324.327 4.265 328.421 9.315 328.421H503.029C508.078 328.421 512.172 324.328 512.172 319.278C512.172 314.228 508.079 310.135 503.029 310.135Z" fill="url(#paint11_linear_10025_63382)"/>
<path d="M329.315 54.1322C334.364 54.1322 338.458 58.2252 338.458 63.2752C338.458 68.3252 334.365 72.4182 329.315 72.4182C325.727 72.8242 319.575 85.0892 314.953 101.556C315.153 101.407 315.359 101.27 315.561 101.124C317.951 99.3972 320.477 97.8652 323.113 96.5432C323.396 96.4022 323.68 96.2692 323.966 96.1322C326.68 94.8212 329.498 93.7392 332.391 92.8952C332.474 92.8712 332.548 92.8262 332.631 92.8032L332.97 92.5352C356.983 74.5262 358.394 42.0352 357.617 27.0352C332.283 29.6012 308.543 40.5922 290.195 58.2472C293.516 69.5782 296.226 81.0782 298.316 92.6982C303.867 73.9942 313.474 54.1322 329.315 54.1322Z" fill="url(#paint12_linear_10025_63382)"/>
<path d="M278.911 117.148C277.195 115.772 275.357 114.556 273.42 113.513C272.86 113.211 272.322 112.878 271.746 112.603C269.931 111.759 268.049 111.068 266.118 110.539C265.452 110.349 264.823 110.077 264.143 109.925C259.37 108.777 254.403 108.686 249.591 109.657C248.774 109.81 247.982 110.035 247.183 110.242C245.944 110.557 244.723 110.936 243.524 111.38C242.551 111.746 241.585 112.128 240.651 112.575C239.8 112.977 238.996 113.452 238.182 113.916C230.477 118.333 224.636 125.397 221.746 133.795L221.667 133.945C220.345 137.678 219.646 141.603 219.599 145.563C219.607 149.019 220.119 152.455 221.118 155.764C235.47 158.631 248.086 167.103 256.17 179.304C264.254 167.103 276.87 158.631 291.222 155.764C292.222 152.455 292.733 149.019 292.742 145.563C292.711 138.942 290.865 132.455 287.403 126.811C286.778 125.813 286.122 124.809 285.337 123.76L285.333 123.753L285.32 123.742C283.685 121.586 281.823 119.612 279.766 117.854C279.485 117.614 279.2 117.379 278.911 117.148Z" fill="url(#paint13_linear_10025_63382)"/>
<path d="M197.677 101.795L197.683 101.799C202.674 105.547 206.993 110.113 210.458 115.303C215.155 108.251 221.411 102.373 228.744 98.1271V63.2771C228.744 58.2281 232.837 54.1341 237.887 54.1341C242.937 54.1341 247.03 58.2271 247.03 63.2771V91.5321C247.403 91.4691 247.779 91.4141 248.154 91.3601C248.685 91.2811 249.207 91.1811 249.742 91.1171C253.868 90.5931 258.042 90.5701 262.173 91.0511C262.811 91.1211 263.432 91.2491 264.065 91.3411C265.4 91.5351 266.729 91.7461 268.032 92.0341C268.732 92.1901 269.415 92.3861 270.107 92.5691C271.354 92.8971 272.586 93.2521 273.797 93.6641C274.417 93.8761 275.028 94.1041 275.639 94.3391C276.988 94.8561 278.311 95.4221 279.609 96.0391C279.85 96.1541 280.107 96.2341 280.346 96.3541C278.062 83.4891 274.968 70.7811 271.085 58.3051C271.045 58.1801 271.054 58.0511 271.02 57.9251C264.017 35.7731 253.466 13.2411 237.835 1.16211C204.563 25.8051 194.34 85.2151 192.46 98.2961L192.561 98.3641C194.328 99.4101 196.036 100.556 197.677 101.795Z" fill="url(#paint14_linear_10025_63382)"/>
<path d="M164.743 179.304C172.827 167.103 185.443 158.631 199.795 155.764C200.795 152.455 201.306 149.019 201.315 145.563C201.272 141.462 200.531 137.399 199.123 133.547L199.052 133.411C195.599 123.57 188.103 115.674 178.455 111.713L178.449 111.709C174.1 109.925 169.445 109.002 164.744 108.992C144.555 109.014 128.194 125.375 128.173 145.563C128.181 149.019 128.693 152.456 129.693 155.764C144.044 158.631 156.66 167.103 164.743 179.304Z" fill="url(#paint15_linear_10025_63382)"/>
</g>
<defs>
<linearGradient id="paint0_linear_10025_63382" x1="164.744" y1="236.992" x2="164.744" y2="291.85" gradientUnits="userSpaceOnUse">
<stop stop-color="#B9B8C0"/>
<stop offset="1" stop-color="#57565A"/>
</linearGradient>
<linearGradient id="paint1_linear_10025_63382" x1="256.173" y1="236.99" x2="256.173" y2="291.848" gradientUnits="userSpaceOnUse">
<stop stop-color="#B9B8C0"/>
<stop offset="1" stop-color="#57565A"/>
</linearGradient>
<linearGradient id="paint2_linear_10025_63382" x1="439.03" y1="236.992" x2="439.03" y2="291.849" gradientUnits="userSpaceOnUse">
<stop stop-color="#B9B8C0"/>
<stop offset="1" stop-color="#57565A"/>
</linearGradient>
<linearGradient id="paint3_linear_10025_63382" x1="347.602" y1="236.99" x2="347.602" y2="291.848" gradientUnits="userSpaceOnUse">
<stop stop-color="#B9B8C0"/>
<stop offset="1" stop-color="#57565A"/>
</linearGradient>
<linearGradient id="paint4_linear_10025_63382" x1="301.888" y1="172.992" x2="301.888" y2="243.304" gradientUnits="userSpaceOnUse">
<stop stop-color="#B9B8C0"/>
<stop offset="1" stop-color="#57565A"/>
</linearGradient>
<linearGradient id="paint5_linear_10025_63382" x1="210.459" y1="172.992" x2="210.459" y2="243.304" gradientUnits="userSpaceOnUse">
<stop stop-color="#B9B8C0"/>
<stop offset="1" stop-color="#57565A"/>
</linearGradient>
<linearGradient id="paint6_linear_10025_63382" x1="393.316" y1="172.992" x2="393.316" y2="243.304" gradientUnits="userSpaceOnUse">
<stop stop-color="#B9B8C0"/>
<stop offset="1" stop-color="#57565A"/>
</linearGradient>
<linearGradient id="paint7_linear_10025_63382" x1="347.602" y1="108.992" x2="347.602" y2="179.304" gradientUnits="userSpaceOnUse">
<stop stop-color="#B9B8C0"/>
<stop offset="1" stop-color="#57565A"/>
</linearGradient>
<linearGradient id="paint8_linear_10025_63382" x1="73.316" y1="236.99" x2="73.316" y2="291.847" gradientUnits="userSpaceOnUse">
<stop stop-color="#B9B8C0"/>
<stop offset="1" stop-color="#57565A"/>
</linearGradient>
<linearGradient id="paint9_linear_10025_63382" x1="119.03" y1="172.992" x2="119.03" y2="243.304" gradientUnits="userSpaceOnUse">
<stop stop-color="#B9B8C0"/>
<stop offset="1" stop-color="#57565A"/>
</linearGradient>
<linearGradient id="paint10_linear_10025_63382" x1="256.171" y1="346.707" x2="256.171" y2="511.278" gradientUnits="userSpaceOnUse">
<stop stop-color="#B9B8C0"/>
<stop offset="1" stop-color="#57565A"/>
</linearGradient>
<linearGradient id="paint11_linear_10025_63382" x1="256.172" y1="310.135" x2="256.172" y2="328.421" gradientUnits="userSpaceOnUse">
<stop stop-color="#B9B8C0"/>
<stop offset="1" stop-color="#57565A"/>
</linearGradient>
<linearGradient id="paint12_linear_10025_63382" x1="323.981" y1="27.0352" x2="323.981" y2="101.556" gradientUnits="userSpaceOnUse">
<stop stop-color="#B9B8C0"/>
<stop offset="1" stop-color="#57565A"/>
</linearGradient>
<linearGradient id="paint13_linear_10025_63382" x1="256.171" y1="108.99" x2="256.171" y2="179.304" gradientUnits="userSpaceOnUse">
<stop stop-color="#B9B8C0"/>
<stop offset="1" stop-color="#57565A"/>
</linearGradient>
<linearGradient id="paint14_linear_10025_63382" x1="236.403" y1="1.16211" x2="236.403" y2="115.303" gradientUnits="userSpaceOnUse">
<stop stop-color="#B9B8C0"/>
<stop offset="1" stop-color="#57565A"/>
</linearGradient>
<linearGradient id="paint15_linear_10025_63382" x1="164.744" y1="108.992" x2="164.744" y2="179.304" gradientUnits="userSpaceOnUse">
<stop stop-color="#B9B8C0"/>
<stop offset="1" stop-color="#57565A"/>
</linearGradient>
<clipPath id="clip0_10025_63382">
<rect width="512" height="512" fill="white" transform="translate(0.171997 0.21875)"/>
</clipPath>
</defs>
</svg>
