<svg width="512" height="512" viewBox="0 0 512 512" fill="none" xmlns="http://www.w3.org/2000/svg">
<path d="M48 329.28L238.08 139.36C241.078 136.38 245.133 134.707 249.36 134.707C253.587 134.707 257.642 136.38 260.64 139.36L372.64 251.36C375.62 254.358 377.293 258.413 377.293 262.64C377.293 266.867 375.62 270.922 372.64 273.92L182.72 464C172.462 474.23 158.567 479.974 144.08 479.974C129.593 479.974 115.698 474.23 105.44 464L48 406.56C37.7703 396.302 32.0257 382.407 32.0257 367.92C32.0257 353.433 37.7703 339.538 48 329.28ZM283.2 116.8L395.2 228.8C389.738 223.287 386.674 215.84 386.674 208.08C386.674 200.32 389.738 192.873 395.2 187.36L400 182.56L329.44 112L324.64 116.8C319.127 122.262 311.68 125.326 303.92 125.326C296.16 125.326 288.713 122.262 283.2 116.8ZM395.2 46.72L352 89.28L422.72 160L465.28 117.28C470.164 112.704 474.078 107.193 476.79 101.075C479.502 94.9562 480.955 88.3547 481.064 81.663C481.173 74.9713 479.936 68.3259 477.425 62.1221C474.915 55.9183 471.182 50.2826 466.45 45.5502C461.717 40.8178 456.082 37.0854 449.878 34.5747C443.674 32.0641 437.029 30.8265 430.337 30.9356C423.645 31.0448 417.044 32.4983 410.925 35.21C404.807 37.9216 399.296 41.8358 394.72 46.72H395.2ZM416 352C403.342 352 390.968 355.754 380.444 362.786C369.919 369.818 361.716 379.814 356.872 391.508C352.028 403.203 350.76 416.071 353.23 428.486C355.699 440.901 361.795 452.304 370.745 461.255C379.696 470.205 391.099 476.301 403.514 478.77C415.929 481.24 428.797 479.972 440.492 475.128C452.186 470.284 462.182 462.081 469.214 451.557C476.246 441.032 480 428.658 480 416C480 399.026 473.257 382.748 461.255 370.745C449.252 358.743 432.974 352 416 352Z" fill="url(#paint0_linear_10025_21368)"/>
<defs>
<linearGradient id="paint0_linear_10025_21368" x1="256.548" y1="30.929" x2="256.548" y2="480" gradientUnits="userSpaceOnUse">
<stop stop-color="#B9B8C0"/>
<stop offset="1" stop-color="#57565A"/>
</linearGradient>
</defs>
</svg>
