<svg width="512" height="512" viewBox="0 0 512 512" fill="none" xmlns="http://www.w3.org/2000/svg">
<path d="M160 320V48C160.006 45.3313 160.679 42.7064 161.958 40.3643C163.237 38.0221 165.082 36.0371 167.324 34.59C169.566 33.1429 172.135 32.2796 174.796 32.0787C177.457 31.8779 180.126 32.3458 182.56 33.44L326.56 97.44C329.367 98.7019 331.751 100.747 333.425 103.329C335.1 105.912 335.994 108.922 336 112C335.994 115.078 335.1 118.088 333.425 120.671C331.751 123.253 329.367 125.298 326.56 126.56L192 186.4V320C192 324.243 190.314 328.313 187.314 331.314C184.313 334.314 180.243 336 176 336C171.757 336 167.687 334.314 164.686 331.314C161.686 328.313 160 324.243 160 320ZM258.08 192L224 208V284.8C233.321 289.821 241.173 297.182 246.784 306.16C252.395 315.138 255.571 325.422 256 336C256 371.36 220.16 400 176 400C131.84 400 96 371.36 96 336C96.4287 325.422 99.605 315.138 105.216 306.16C110.827 297.182 118.679 289.821 128 284.8V217.12C69.6 242.88 32 286.08 32 336C32 416.8 130.4 480 256 480C381.6 480 480 416.8 480 336C480 255.2 382.72 192 258.08 192ZM368 384C358.506 384 349.226 381.185 341.333 375.911C333.439 370.636 327.287 363.14 323.654 354.369C320.021 345.598 319.07 335.947 320.922 326.636C322.774 317.325 327.346 308.772 334.059 302.059C340.772 295.346 349.325 290.774 358.636 288.922C367.947 287.07 377.598 288.021 386.369 291.654C395.14 295.287 402.636 301.439 407.911 309.333C413.185 317.226 416 326.506 416 336C416 348.73 410.943 360.939 401.941 369.941C392.939 378.943 380.73 384 368 384Z" fill="url(#paint0_linear_10025_21371)"/>
<defs>
<linearGradient id="paint0_linear_10025_21371" x1="256" y1="32.0333" x2="256" y2="480" gradientUnits="userSpaceOnUse">
<stop stop-color="#B9B8C0"/>
<stop offset="1" stop-color="#57565A"/>
</linearGradient>
</defs>
</svg>
