<svg width="513" height="513" viewBox="0 0 513 513" fill="none" xmlns="http://www.w3.org/2000/svg">
<g clip-path="url(#clip0_10025_63443)">
<path d="M272.731 75.1577C268.189 67.1427 267.985 57.3797 272.187 49.1817L279.044 35.6547C285.004 24.0367 298.186 18.0607 310.852 21.2347L331.075 24.4487L332.191 24.4577L336.945 5.80674L305.209 0.825745C298.869 -0.514255 292.262 0.308745 286.446 3.16474L253.576 19.3697C247.696 22.2947 243.008 27.1617 240.304 33.1467L220.73 82.0997C231.737 76.4397 243.918 73.4407 256.295 73.3427C261.823 73.3467 267.334 73.9557 272.731 75.1577Z" fill="url(#paint0_linear_10025_63443)"/>
<path d="M375.156 119.056C363.183 119.439 351.688 123.84 342.521 131.55C351.94 146.812 359.645 163.067 365.495 180.021C367.171 184.784 364.669 190.005 359.906 191.682C358.93 192.023 357.904 192.198 356.87 192.2C352.99 192.2 349.533 189.752 348.245 186.093C342.241 168.474 334.033 151.685 323.814 136.127L323.803 136.119L323.753 136.039C304.596 107.633 280.994 91.6289 256.294 91.6289C219.535 91.6289 185.164 126.933 164.352 186.058C162.665 190.807 157.454 193.296 152.7 191.623C147.946 189.95 145.442 184.745 147.102 179.987C152.944 163.063 160.634 146.835 170.034 131.596C160.931 123.8 149.422 119.373 137.441 119.058C87.8831 119.058 46.0121 202.799 46.0121 301.915C46.0121 401.031 87.8831 484.772 137.441 484.772C139.663 484.772 141.837 484.908 144.017 485.021C141.703 479.925 139.663 474.71 137.905 469.397C136.878 466.296 137.583 462.883 139.754 460.444C141.926 458.004 145.234 456.908 148.433 457.569C151.632 458.23 154.235 460.547 155.262 463.647C172.351 515.227 196.463 513.71 232.927 511.335C248.482 510.371 264.082 510.371 279.637 511.335C316.146 513.656 340.24 515.21 357.333 463.612C358.36 460.511 360.963 458.194 364.162 457.534C367.361 456.873 370.669 457.969 372.841 460.409C375.013 462.849 375.718 466.262 374.69 469.362C372.942 474.603 370.915 479.747 368.62 484.773H375.155C424.713 484.773 466.584 401.032 466.584 301.916C466.584 202.8 424.714 119.056 375.156 119.056ZM83.0711 284.137C82.7501 289.914 82.5871 295.839 82.5841 301.914C82.5841 306.963 78.4911 311.057 73.4411 311.057C68.3921 311.057 64.298 306.964 64.298 301.914C64.298 295.503 64.4691 289.238 64.8111 283.119C65.1071 278.089 69.4171 274.246 74.4481 274.526C79.4801 274.807 83.3361 279.105 83.0711 284.137ZM117.281 170.923C101.535 194.247 91.2341 220.813 87.1381 248.655C86.3631 253.015 82.575 256.193 78.147 256.2C77.607 256.201 77.067 256.153 76.535 256.057C71.566 255.172 68.2551 250.427 69.1381 245.458C73.6451 214.722 85.1421 185.429 102.745 159.833C105.812 155.834 111.537 155.072 115.543 158.129C119.549 161.186 120.327 166.908 117.281 170.923Z" fill="url(#paint1_linear_10025_63443)"/>
</g>
<defs>
<linearGradient id="paint0_linear_10025_63443" x1="278.838" y1="0.199219" x2="278.838" y2="82.0997" gradientUnits="userSpaceOnUse">
<stop stop-color="#B9B8C0"/>
<stop offset="1" stop-color="#57565A"/>
</linearGradient>
<linearGradient id="paint1_linear_10025_63443" x1="256.298" y1="91.6289" x2="256.298" y2="512.239" gradientUnits="userSpaceOnUse">
<stop stop-color="#B9B8C0"/>
<stop offset="1" stop-color="#57565A"/>
</linearGradient>
<clipPath id="clip0_10025_63443">
<rect width="512.039" height="512.039" fill="white" transform="translate(0.279053 0.199219)"/>
</clipPath>
</defs>
</svg>
