<svg width="512" height="512" viewBox="0 0 512 512" fill="none" xmlns="http://www.w3.org/2000/svg">
<path d="M142.72 341.44L186.56 385.28L105.28 469.76C102.23 473.016 98.5556 475.626 94.4765 477.433C90.3974 479.241 85.9964 480.21 81.5353 480.283C77.0742 480.356 72.6439 479.531 68.5081 477.857C64.3722 476.183 60.6151 473.695 57.4601 470.54C54.3052 467.385 51.8169 463.628 50.1431 459.492C48.4694 455.356 47.6443 450.926 47.7171 446.465C47.7898 442.004 48.7589 437.603 50.5666 433.523C52.3744 429.444 54.9839 425.77 58.24 422.72L142.72 341.44ZM165.92 320L208.8 362.88L421.92 140.64L387.36 106.08L165.92 320ZM475.36 64L465.44 54.08C462.449 51.1484 458.428 49.5063 454.24 49.5063C450.052 49.5063 446.031 51.1484 443.04 54.08L411.04 86.08L444.64 119.68L476.64 87.68C478.465 86.0878 479.905 84.1021 480.851 81.8726C481.797 79.6431 482.224 77.2279 482.101 74.8091C481.978 72.3904 481.307 70.0311 480.139 67.9093C478.971 65.7875 477.337 63.9584 475.36 62.56V64ZM136 128C143.911 128 151.645 125.654 158.223 121.259C164.801 116.864 169.928 110.616 172.955 103.307C175.983 95.9983 176.775 87.9556 175.231 80.1964C173.688 72.4372 169.878 65.3098 164.284 59.7157C158.69 54.1216 151.563 50.312 143.804 48.7686C136.044 47.2252 128.002 48.0173 120.693 51.0448C113.384 54.0723 107.136 59.1992 102.741 65.7772C98.3459 72.3552 96 80.0888 96 88C96 98.6087 100.214 108.783 107.716 116.284C115.217 123.786 125.391 128 136 128ZM88 208C95.9112 208 103.645 205.654 110.223 201.259C116.801 196.864 121.928 190.616 124.955 183.307C127.983 175.998 128.775 167.956 127.231 160.196C125.688 152.437 121.878 145.31 116.284 139.716C110.69 134.122 103.563 130.312 95.8036 128.769C88.0444 127.225 80.0017 128.017 72.6926 131.045C65.3836 134.072 59.1365 139.199 54.7412 145.777C50.3459 152.355 48 160.089 48 168C48 178.609 52.2143 188.783 59.7157 196.284C67.2172 203.786 77.3913 208 88 208ZM144 168C144 175.911 146.346 183.645 150.741 190.223C155.136 196.801 161.384 201.928 168.693 204.955C176.002 207.983 184.044 208.775 191.804 207.231C199.563 205.688 206.69 201.878 212.284 196.284C217.878 190.69 221.688 183.563 223.231 175.804C224.775 168.044 223.983 160.002 220.955 152.693C217.928 145.384 212.801 139.136 206.223 134.741C199.645 130.346 191.911 128 184 128C173.391 128 163.217 132.214 155.716 139.716C148.214 147.217 144 157.391 144 168Z" fill="url(#paint0_linear_10025_21374)"/>
<defs>
<linearGradient id="paint0_linear_10025_21374" x1="264.917" y1="48" x2="264.917" y2="480.287" gradientUnits="userSpaceOnUse">
<stop stop-color="#B9B8C0"/>
<stop offset="1" stop-color="#57565A"/>
</linearGradient>
</defs>
</svg>
