<svg width="512" height="512" viewBox="0 0 512 512" fill="none" xmlns="http://www.w3.org/2000/svg">
<path d="M128 336C127.28 386.042 138.873 435.493 161.76 480H80C77.5565 479.994 75.1468 479.429 72.9558 478.347C70.7647 477.265 68.8505 475.696 67.36 473.76C43.1889 437.842 30.8278 395.278 32 352C32.2642 319.302 40.678 287.187 56.48 258.56L57.76 256H144C133.196 281.274 127.748 308.514 128 336ZM71.52 192V208C71.5416 213.392 70.8967 218.766 69.6 224H160.48L167.68 211.68C167.68 210.56 167.68 196.96 167.68 192H71.52ZM68.32 160H171.68L172.64 153.76C174.63 142.61 175.753 131.323 176 120C176 105.148 170.1 90.9041 159.598 80.402C149.096 69.9 134.852 64 120 64C105.148 64 90.9041 69.9 80.402 80.402C69.9 90.9041 64 105.148 64 120C64.2468 131.323 65.3701 142.61 67.36 153.76L68.32 160ZM340.32 160H443.68L444.64 153.76C446.63 142.61 447.753 131.323 448 120C448 105.148 442.1 90.9041 431.598 80.402C421.096 69.9 406.852 64 392 64C377.148 64 362.904 69.9 352.402 80.402C341.9 90.9041 336 105.148 336 120C336.247 131.323 337.37 142.61 339.36 153.76L340.32 160ZM351.04 224H441.92C440.623 218.766 439.978 213.392 440 208C440 202.24 440 196.96 440 192H343.52V211.68L351.04 224ZM455.52 258.56C455.52 257.76 455.52 256.8 454.24 256H368C378.804 281.274 384.252 308.514 384 336C384.72 386.042 373.127 435.493 350.24 480H432C434.443 479.994 436.853 479.429 439.044 478.347C441.235 477.265 443.149 475.696 444.64 473.76C468.811 437.842 481.172 395.278 480 352C479.736 319.302 471.322 287.187 455.52 258.56ZM201.12 144H310.88C310.88 142.08 312 140.16 312.64 138.24C317.133 124.592 319.612 110.363 320 96C320 79.0261 313.257 62.7475 301.255 50.7452C289.252 38.7428 272.974 32 256 32C239.026 32 222.747 38.7428 210.745 50.7452C198.743 62.7475 192 79.0261 192 96C192.388 110.363 194.867 124.592 199.36 138.24C200 140.16 200.48 142.08 201.12 144ZM306.56 208C304.868 202.835 304.004 197.435 304 192C304 186.24 304 180.96 304.8 176H208C208 180.96 208.8 186.24 208.8 192C208.796 197.435 207.932 202.835 206.24 208H306.56ZM323.36 240H188.64C169.487 268.312 159.49 301.822 160 336C158.747 383.928 170.762 431.27 194.72 472.8C196.169 475.001 198.14 476.81 200.457 478.066C202.774 479.322 205.365 479.986 208 480H304C306.635 479.986 309.226 479.322 311.543 478.066C313.86 476.81 315.831 475.001 317.28 472.8C341.238 431.27 353.253 383.928 352 336C352.51 301.822 342.513 268.312 323.36 240Z" fill="url(#paint0_linear_10025_21377)"/>
<defs>
<linearGradient id="paint0_linear_10025_21377" x1="256" y1="32" x2="256" y2="480" gradientUnits="userSpaceOnUse">
<stop stop-color="#B9B8C0"/>
<stop offset="1" stop-color="#57565A"/>
</linearGradient>
</defs>
</svg>
