<svg width="512" height="512" viewBox="0 0 512 512" fill="none" xmlns="http://www.w3.org/2000/svg">
<g clip-path="url(#clip0_10025_62234)">
<path d="M269.7 392.001H239.7V422.001H269.7V392.001Z" fill="url(#paint0_linear_10025_62234)"/>
<path d="M407.934 0.000976562H104.066C95.502 0.000976562 88.571 7.21998 89.095 15.909L91.756 60.001H420.244L422.905 15.909C423.428 7.21998 416.497 0.000976562 407.934 0.000976562Z" fill="url(#paint1_linear_10025_62234)"/>
<path d="M209.695 143.789L188.484 165L209.695 186.211L230.906 165L209.695 143.789Z" fill="url(#paint2_linear_10025_62234)"/>
<path d="M284.692 248.794L263.481 270.005L284.692 291.216L305.903 270.005L284.692 248.794Z" fill="url(#paint3_linear_10025_62234)"/>
<path d="M93.567 90.001L99.408 186.813C99.554 189.186 100.258 191.501 101.473 193.551L118.787 222.789L131.253 469.286C132.47 493.236 152.216 512.001 176.195 512.001H335.453C359.403 512.001 379.135 493.266 380.394 469.359L393.226 222.73L410.526 193.55C411.742 191.499 412.445 189.185 412.591 186.812L418.433 90.001H93.567ZM156.669 175.606C150.81 169.747 150.81 160.254 156.669 154.395L199.091 111.973C204.95 106.114 214.443 106.114 220.302 111.973L262.724 154.395C268.583 160.254 268.583 169.747 262.724 175.606L220.302 218.028C214.442 223.888 204.951 223.888 199.091 218.028L156.669 175.606ZM299.696 437.001C299.696 445.292 292.987 452.001 284.696 452.001H224.696C216.405 452.001 209.696 445.292 209.696 437.001V377.001C209.696 368.71 216.405 362.001 224.696 362.001H284.696C292.987 362.001 299.696 368.71 299.696 377.001V437.001ZM337.724 280.606L295.302 323.028C289.442 328.888 279.951 328.888 274.091 323.028L231.669 280.606C225.81 274.747 225.81 265.254 231.669 259.395L274.091 216.973C279.95 211.114 289.443 211.114 295.302 216.973L337.724 259.395C343.583 265.255 343.583 274.747 337.724 280.606Z" fill="url(#paint4_linear_10025_62234)"/>
</g>
<defs>
<linearGradient id="paint0_linear_10025_62234" x1="254.7" y1="392.001" x2="254.7" y2="422.001" gradientUnits="userSpaceOnUse">
<stop stop-color="#B9B8C0"/>
<stop offset="1" stop-color="#57565A"/>
</linearGradient>
<linearGradient id="paint1_linear_10025_62234" x1="256" y1="0.000976562" x2="256" y2="60.001" gradientUnits="userSpaceOnUse">
<stop stop-color="#B9B8C0"/>
<stop offset="1" stop-color="#57565A"/>
</linearGradient>
<linearGradient id="paint2_linear_10025_62234" x1="199.09" y1="154.395" x2="220.301" y2="175.605" gradientUnits="userSpaceOnUse">
<stop stop-color="#B9B8C0"/>
<stop offset="1" stop-color="#57565A"/>
</linearGradient>
<linearGradient id="paint3_linear_10025_62234" x1="274.086" y1="259.399" x2="295.297" y2="280.61" gradientUnits="userSpaceOnUse">
<stop stop-color="#B9B8C0"/>
<stop offset="1" stop-color="#57565A"/>
</linearGradient>
<linearGradient id="paint4_linear_10025_62234" x1="256" y1="90.001" x2="256" y2="512.001" gradientUnits="userSpaceOnUse">
<stop stop-color="#B9B8C0"/>
<stop offset="1" stop-color="#57565A"/>
</linearGradient>
<clipPath id="clip0_10025_62234">
<rect width="512" height="512" fill="white" transform="translate(0 0.000976562)"/>
</clipPath>
</defs>
</svg>
