<svg width="513" height="513" viewBox="0 0 513 513" fill="none" xmlns="http://www.w3.org/2000/svg">
<g clip-path="url(#clip0_10025_63547)">
<path d="M146.381 493.934H91.5237V512.22H146.381V493.934Z" fill="url(#paint0_linear_10025_63547)"/>
<path d="M283.523 36.7891H228.666V73.3601H283.523V36.7891Z" fill="url(#paint1_linear_10025_63547)"/>
<path d="M256.095 219.648C291.425 219.609 320.056 190.978 320.095 155.648V9.36175C320.08 4.31875 315.995 0.23375 310.952 0.21875H201.238C196.195 0.23375 192.11 4.31875 192.095 9.36175V155.648C192.134 190.978 220.765 219.609 256.095 219.648ZM274.381 164.79H237.81C232.761 164.79 228.667 160.697 228.667 155.647C228.667 150.597 232.76 146.504 237.81 146.504H274.381C279.43 146.504 283.524 150.597 283.524 155.647C283.524 160.697 279.43 164.79 274.381 164.79ZM274.381 128.219H237.81C232.761 128.219 228.667 124.126 228.667 119.076C228.667 114.027 232.76 109.933 237.81 109.933H274.381C279.43 109.933 283.524 114.026 283.524 119.076C283.524 124.126 279.43 128.219 274.381 128.219ZM210.381 27.6478C210.396 22.6048 214.481 18.5197 219.524 18.5047H292.667C297.71 18.5197 301.795 22.6048 301.81 27.6478V82.5048C301.795 87.5478 297.71 91.6328 292.667 91.6478H219.524C214.481 91.6328 210.396 87.5478 210.381 82.5048V27.6478Z" fill="url(#paint2_linear_10025_63547)"/>
<path d="M420.666 493.934H365.809V512.22H420.666V493.934Z" fill="url(#paint3_linear_10025_63547)"/>
<path d="M429.809 36.7891H338.38V155.646C338.305 199.429 304.022 235.519 260.3 237.84C258.929 237.931 257.557 237.931 256.094 237.931C210.677 237.863 173.877 201.062 173.808 155.645V36.7891H82.3808C57.1368 36.7981 36.6757 57.2601 36.6667 82.5031V146.503H38.0378C92.6637 147.147 143.858 173.252 176.461 217.086C195.461 241.822 224.904 256.29 256.095 256.217C257.682 256.247 259.269 256.186 260.849 256.034C290.343 254.772 317.763 240.51 335.729 217.085C368.332 173.251 419.526 147.147 474.152 146.502H475.523V82.5021C475.514 57.2601 455.053 36.7991 429.809 36.7891Z" fill="url(#paint4_linear_10025_63547)"/>
<path d="M350.175 228.241C327.684 257.415 292.932 274.504 256.095 274.504C219.258 274.504 184.506 257.415 162.015 228.241C132.835 188.926 86.9928 165.464 38.0378 164.79H36.6667V348.561C57.9217 352.961 73.1827 371.656 73.2377 393.361V411.647C73.2817 426.777 85.5367 439.031 100.667 439.076H411.524C426.654 439.032 438.908 426.777 438.953 411.647V393.361C439.008 371.656 454.27 352.961 475.524 348.561V164.789H474.153C425.197 165.464 379.355 188.926 350.175 228.241ZM338.381 363.189C338.35 384.889 320.766 402.472 299.067 402.503H213.124C191.424 402.472 173.841 384.888 173.81 363.189V350.389C173.841 328.689 191.425 311.106 213.124 311.075H299.067C320.767 311.106 338.35 328.69 338.381 350.389V363.189Z" fill="url(#paint5_linear_10025_63547)"/>
<path d="M299.066 329.361H213.123C201.51 329.363 192.096 338.776 192.094 350.39V363.19C192.096 374.803 201.51 384.217 213.123 384.219H299.066C310.679 384.217 320.093 374.803 320.095 363.19V350.39C320.093 338.776 310.68 329.362 299.066 329.361ZM283.524 365.932H228.667C223.618 365.932 219.524 361.839 219.524 356.789C219.524 351.74 223.617 347.646 228.667 347.646H283.524C288.573 347.646 292.667 351.739 292.667 356.789C292.666 361.839 288.573 365.932 283.524 365.932Z" fill="url(#paint6_linear_10025_63547)"/>
<path d="M457.238 393.362V411.648C457.229 436.892 436.767 457.353 411.524 457.362H100.666C75.4218 457.353 54.9608 436.891 54.9518 411.648V393.362C54.9208 381.745 47.6068 371.395 36.6658 367.488V429.934C36.6748 455.178 57.1368 475.639 82.3798 475.648H429.809C455.053 475.639 475.514 455.177 475.523 429.934V367.488C464.583 371.395 457.269 381.745 457.238 393.362Z" fill="url(#paint7_linear_10025_63547)"/>
</g>
<defs>
<linearGradient id="paint0_linear_10025_63547" x1="118.952" y1="493.934" x2="118.952" y2="512.22" gradientUnits="userSpaceOnUse">
<stop stop-color="#B9B8C0"/>
<stop offset="1" stop-color="#57565A"/>
</linearGradient>
<linearGradient id="paint1_linear_10025_63547" x1="256.094" y1="36.7891" x2="256.094" y2="73.3601" gradientUnits="userSpaceOnUse">
<stop stop-color="#B9B8C0"/>
<stop offset="1" stop-color="#57565A"/>
</linearGradient>
<linearGradient id="paint2_linear_10025_63547" x1="256.095" y1="0.21875" x2="256.095" y2="219.648" gradientUnits="userSpaceOnUse">
<stop stop-color="#B9B8C0"/>
<stop offset="1" stop-color="#57565A"/>
</linearGradient>
<linearGradient id="paint3_linear_10025_63547" x1="393.237" y1="493.934" x2="393.237" y2="512.22" gradientUnits="userSpaceOnUse">
<stop stop-color="#B9B8C0"/>
<stop offset="1" stop-color="#57565A"/>
</linearGradient>
<linearGradient id="paint4_linear_10025_63547" x1="256.095" y1="36.7891" x2="256.095" y2="256.224" gradientUnits="userSpaceOnUse">
<stop stop-color="#B9B8C0"/>
<stop offset="1" stop-color="#57565A"/>
</linearGradient>
<linearGradient id="paint5_linear_10025_63547" x1="256.095" y1="164.789" x2="256.095" y2="439.076" gradientUnits="userSpaceOnUse">
<stop stop-color="#B9B8C0"/>
<stop offset="1" stop-color="#57565A"/>
</linearGradient>
<linearGradient id="paint6_linear_10025_63547" x1="256.094" y1="329.361" x2="256.094" y2="384.219" gradientUnits="userSpaceOnUse">
<stop stop-color="#B9B8C0"/>
<stop offset="1" stop-color="#57565A"/>
</linearGradient>
<linearGradient id="paint7_linear_10025_63547" x1="256.094" y1="367.488" x2="256.094" y2="475.648" gradientUnits="userSpaceOnUse">
<stop stop-color="#B9B8C0"/>
<stop offset="1" stop-color="#57565A"/>
</linearGradient>
<clipPath id="clip0_10025_63547">
<rect width="512" height="512" fill="white" transform="translate(0.0947266 0.21875)"/>
</clipPath>
</defs>
</svg>
