<svg width="511" height="511" viewBox="0 0 511 511" fill="none" xmlns="http://www.w3.org/2000/svg">
<g clip-path="url(#clip0_10025_63574)">
<path d="M120.162 140.154C108.134 156.861 104.902 178.344 111.482 197.851C113.201 200.126 114.931 202.613 116.663 205.162C117.381 206.221 118.101 207.305 118.822 208.413C120.107 210.386 121.383 212.345 122.58 214.324C123.812 214.244 125.098 214.19 126.419 214.19C130.254 214.2 134.081 214.518 137.865 215.14C139.108 215.341 140.291 215.727 141.517 215.991C143.988 216.478 146.433 217.093 148.84 217.833C150.255 218.296 151.591 218.924 152.971 219.47C155.073 220.302 157.171 221.122 159.181 222.14C160.586 222.851 161.902 223.694 163.257 224.492C165.114 225.586 166.956 226.681 168.71 227.931C170.032 228.874 171.265 229.911 172.523 230.938C174.151 232.268 175.749 233.615 177.26 235.08C178.447 236.231 179.552 237.443 180.662 238.672C182.058 240.219 183.399 241.799 184.662 243.464C185.675 244.799 186.622 246.168 187.544 247.576C188.69 249.323 189.748 251.115 190.744 252.966C191.546 254.457 192.306 255.956 193.006 257.511C193.374 258.327 193.859 259.072 194.197 259.905H206.527C206.433 259.306 206.435 258.722 206.352 258.125C205.931 255.168 205.637 252.234 205.489 249.326C205.457 248.659 205.441 247.997 205.423 247.334C205.322 244.053 205.399 240.769 205.654 237.497C205.67 237.307 205.676 237.114 205.693 236.924C206.825 223.577 210.955 210.657 217.777 199.129C218.442 197.993 219.249 196.959 219.956 195.853C220.428 195.111 220.931 194.378 221.426 193.642C223.138 191.108 224.925 188.641 226.837 186.262C227.451 185.495 228.092 184.736 228.733 183.976C230.765 181.574 232.867 179.248 235.069 177.007C235.417 176.652 235.7 176.277 236.054 175.924C235.157 144.39 211.598 118.705 181.234 114.298C181.25 114.074 181.268 113.849 181.268 113.621C181.288 93.4317 197.65 77.0697 217.839 77.0497C222.888 77.0497 226.982 72.9567 226.982 67.9067C226.982 62.8577 222.889 58.7637 217.839 58.7637C199.439 58.7737 182.271 68.0117 172.125 83.3617C161.982 68.0127 144.817 58.7747 126.419 58.7637C121.37 58.7637 117.276 62.8567 117.276 67.9067C117.276 72.9557 121.369 77.0497 126.419 77.0497C146.605 77.0737 162.962 93.4347 162.981 113.621C162.981 113.835 162.999 114.045 163.013 114.256C145.929 116.672 130.396 125.94 120.162 140.154Z" fill="url(#paint0_linear_10025_63574)"/>
<path d="M223.656 244.15C223.654 244.438 223.634 244.723 223.635 245.013C223.655 248.279 223.881 251.541 224.312 254.779C224.393 255.398 224.499 256.022 224.595 256.644C224.759 257.719 225.06 258.82 225.268 259.903H242.991C243.05 259.752 243.136 259.617 243.196 259.467C244.679 255.74 246.382 252.104 248.297 248.579C248.583 248.052 248.869 247.53 249.164 247.009C262.049 224.054 283.477 207.116 308.787 199.879L308.981 199.823C313.226 198.606 317.547 197.671 321.916 197.023C323.366 194.919 324.816 192.815 326.064 190.766C326.405 190.205 326.699 189.669 327.021 189.118C328.46 186.665 329.768 184.25 330.909 181.884C331.198 181.282 331.463 180.697 331.728 180.109C332.698 177.976 333.519 175.889 334.24 173.832C334.56 172.912 334.865 172.004 335.128 171.123C335.66 169.363 336.072 167.644 336.413 165.947C338.45 157.984 337.403 149.545 333.482 142.322C303.289 151.113 275.298 166.192 251.346 186.569C245.694 191.834 240.66 197.724 236.34 204.127C236.142 204.423 235.948 204.722 235.754 205.02C228.019 216.618 223.816 230.211 223.656 244.15Z" fill="url(#paint1_linear_10025_63574)"/>
<path d="M330.942 214.594C329.713 214.679 328.473 214.714 327.258 214.853C324.368 215.203 321.499 215.707 318.663 216.361C317.654 216.586 316.624 216.749 315.628 217.01C312.581 217.831 309.585 218.827 306.653 219.994C305.972 220.26 305.261 220.464 304.588 220.748C301.354 222.124 298.212 223.707 295.182 225.486C294.876 225.664 294.547 225.801 294.244 225.984C280.803 234.071 269.962 245.843 263.008 259.903H410.423C408.572 256.177 406.438 252.598 404.04 249.198C403.738 248.766 403.375 248.388 403.066 247.963C400.922 245.007 398.583 242.198 396.064 239.555C395.661 239.134 395.216 238.759 394.804 238.346C392.255 235.795 389.544 233.412 386.687 231.212C383.398 228.702 379.923 226.447 376.292 224.465C373.018 222.664 369.621 221.095 366.127 219.769C365.589 219.563 365.045 219.37 364.501 219.175C361.197 218.001 357.822 217.037 354.396 216.289C353.697 216.137 353.003 215.975 352.298 215.84C349.154 215.251 345.979 214.843 342.788 214.617C341.717 214.538 340.656 214.429 339.576 214.392C336.698 214.305 333.815 214.373 330.942 214.594Z" fill="url(#paint2_linear_10025_63574)"/>
<path d="M419.993 240.137C421.804 242.827 423.488 245.614 425.045 248.498C425.307 248.98 425.586 249.451 425.84 249.937C427.447 253.025 428.895 256.193 430.176 259.43C430.24 259.592 430.329 259.741 430.392 259.904H450.91C461.842 245.369 469.433 228.602 473.142 210.797C450.122 200.121 422.908 204.676 404.62 222.267C410.205 227.382 415.19 233.116 419.479 239.358C419.656 239.615 419.819 239.879 419.993 240.137Z" fill="url(#paint3_linear_10025_63574)"/>
<path d="M97.7421 240.748C96.8291 241.312 95.9521 241.927 95.0751 242.543C93.9741 243.311 92.8931 244.103 91.8521 244.949C90.9181 245.71 90.0181 246.51 89.1351 247.33C88.2271 248.17 87.3491 249.041 86.5001 249.942C85.6451 250.846 84.8221 251.779 84.0301 252.743C83.2461 253.698 82.5081 254.688 81.7881 255.697C81.0741 256.698 80.3741 257.708 79.7261 258.76C79.4981 259.131 79.3101 259.528 79.0901 259.905H173.681C173.183 259.053 172.712 258.184 172.171 257.363C171.654 256.579 171.155 255.784 170.6 255.031C169.375 253.386 168.06 251.81 166.659 250.311C166.235 249.853 165.859 249.351 165.421 248.908C163.549 247.019 161.545 245.266 159.423 243.664C158.895 243.265 158.319 242.937 157.777 242.557C156.138 241.395 154.438 240.322 152.683 239.343C151.87 238.895 151.028 238.504 150.194 238.097C148.595 237.319 146.962 236.611 145.289 235.988C144.384 235.652 143.475 235.326 142.551 235.037C140.767 234.49 138.957 234.034 137.126 233.673C136.289 233.503 135.465 233.288 134.617 233.157C130.133 232.369 125.556 232.263 121.041 232.842C120.185 232.942 119.299 233.041 118.57 233.146C115.976 233.52 113.413 234.08 110.9 234.822C110.786 234.856 110.677 234.903 110.564 234.939C108.362 235.611 106.204 236.42 104.104 237.364C103.396 237.683 102.718 238.057 102.025 238.405C100.565 239.131 99.1271 239.897 97.7421 240.748Z" fill="url(#paint4_linear_10025_63574)"/>
<path d="M3.098 285.753C28.391 347.147 72.527 398.924 129.141 433.619H245.276C250.325 433.619 254.419 437.712 254.419 442.762C254.419 447.812 250.326 451.905 245.276 451.905H135.563V462.084C135.57 466.562 139.201 470.189 143.679 470.191H365.161C369.639 470.189 373.27 466.562 373.277 462.084V451.905H354.991C349.942 451.905 345.848 447.812 345.848 442.762C345.848 437.712 349.941 433.619 354.991 433.619H379.69C436.291 398.927 480.421 347.165 505.723 285.789L508.839 278.191H0L3.098 285.753Z" fill="url(#paint5_linear_10025_63574)"/>
<path d="M58.6341 259.904C59.0871 258.787 59.6611 257.74 60.1661 256.652C60.5011 255.933 60.8201 255.211 61.1771 254.505C62.7501 251.352 64.5511 248.318 66.5641 245.427C66.6911 245.247 66.8381 245.086 66.9661 244.907C68.9301 242.194 71.0781 239.62 73.3951 237.202C73.8371 236.737 74.2711 236.273 74.7241 235.82C79.6621 230.884 85.2801 226.679 91.4081 223.332C92.2021 222.895 92.9971 222.478 93.8071 222.071C96.3831 220.778 99.0331 219.639 101.743 218.66C102.268 218.469 102.751 218.189 103.281 218.011C103.134 217.786 102.985 217.521 102.838 217.298C102.291 216.467 101.75 215.712 101.206 214.914C99.4471 212.365 97.7961 210.052 96.1961 207.973C74.8071 180.096 56.3521 177.427 49.1601 177.129C32.5921 201.547 29.4561 232.674 40.8211 259.906H58.6341V259.904Z" fill="url(#paint6_linear_10025_63574)"/>
<path d="M504.173 77.5204L490.768 73.0524L507.744 56.0814C511.276 52.5044 511.257 46.7474 507.703 43.1934C504.149 39.6394 498.392 39.6214 494.815 43.1534L477.846 60.1164L473.386 46.7244C471.788 41.9314 466.608 39.3414 461.815 40.9384C457.022 42.5364 454.432 47.7164 456.029 52.5094L461.227 68.1204C459.309 67.8974 457.354 67.8374 455.373 68.0004C449.295 68.5264 443.531 70.9274 438.877 74.8714L452.873 88.8674C456.402 92.4444 456.382 98.1984 452.829 101.751C449.276 105.304 443.522 105.323 439.945 101.795L426.583 88.4334L412.954 103.803L425.446 116.295C428.974 119.872 428.955 125.626 425.402 129.179C421.849 132.732 416.095 132.751 412.518 129.223L400.802 117.508L382.876 137.724L398.018 152.866C401.546 156.443 401.527 162.197 397.974 165.75C394.421 169.303 388.667 169.322 385.09 165.794L370.724 151.429L354.384 169.857C354.354 170 354.304 170.148 354.274 170.292C353.928 171.906 353.502 173.561 353.011 175.263C352.764 176.125 352.481 176.995 352.2 177.864C351.727 179.319 351.255 180.768 350.669 182.284C349.855 184.398 348.936 186.534 347.927 188.689C347.445 189.714 346.898 190.767 346.364 191.817C345.629 193.267 344.921 194.712 344.1 196.179L344.333 196.207C356.721 197.137 368.83 200.358 380.043 205.706L474.261 122.161C474.499 121.947 474.749 121.747 475.011 121.563C484.802 114.567 489.255 102.441 486.64 90.9434L498.39 94.8584C503.173 96.4384 508.332 93.8514 509.927 89.0734C511.522 84.2954 508.947 79.1294 504.173 77.5204Z" fill="url(#paint7_linear_10025_63574)"/>
</g>
<defs>
<linearGradient id="paint0_linear_10025_63574" x1="172.094" y1="58.7637" x2="172.094" y2="259.905" gradientUnits="userSpaceOnUse">
<stop stop-color="#B9B8C0"/>
<stop offset="1" stop-color="#57565A"/>
</linearGradient>
<linearGradient id="paint1_linear_10025_63574" x1="280.532" y1="142.322" x2="280.532" y2="259.903" gradientUnits="userSpaceOnUse">
<stop stop-color="#B9B8C0"/>
<stop offset="1" stop-color="#57565A"/>
</linearGradient>
<linearGradient id="paint2_linear_10025_63574" x1="336.716" y1="214.355" x2="336.716" y2="259.903" gradientUnits="userSpaceOnUse">
<stop stop-color="#B9B8C0"/>
<stop offset="1" stop-color="#57565A"/>
</linearGradient>
<linearGradient id="paint3_linear_10025_63574" x1="438.881" y1="205.086" x2="438.881" y2="259.904" gradientUnits="userSpaceOnUse">
<stop stop-color="#B9B8C0"/>
<stop offset="1" stop-color="#57565A"/>
</linearGradient>
<linearGradient id="paint4_linear_10025_63574" x1="126.386" y1="232.475" x2="126.386" y2="259.905" gradientUnits="userSpaceOnUse">
<stop stop-color="#B9B8C0"/>
<stop offset="1" stop-color="#57565A"/>
</linearGradient>
<linearGradient id="paint5_linear_10025_63574" x1="254.419" y1="278.191" x2="254.419" y2="470.191" gradientUnits="userSpaceOnUse">
<stop stop-color="#B9B8C0"/>
<stop offset="1" stop-color="#57565A"/>
</linearGradient>
<linearGradient id="paint6_linear_10025_63574" x1="68.678" y1="177.129" x2="68.678" y2="259.906" gradientUnits="userSpaceOnUse">
<stop stop-color="#B9B8C0"/>
<stop offset="1" stop-color="#57565A"/>
</linearGradient>
<linearGradient id="paint7_linear_10025_63574" x1="427.25" y1="40.4668" x2="427.25" y2="205.706" gradientUnits="userSpaceOnUse">
<stop stop-color="#B9B8C0"/>
<stop offset="1" stop-color="#57565A"/>
</linearGradient>
<clipPath id="clip0_10025_63574">
<rect width="510.397" height="510.397" fill="white" transform="translate(0 0.130859)"/>
</clipPath>
</defs>
</svg>
