<svg width="512" height="512" viewBox="0 0 512 512" fill="none" xmlns="http://www.w3.org/2000/svg">
<path d="M80 240V80C80 67.2696 85.0571 55.0606 94.0589 46.0589C103.061 37.0571 115.27 32 128 32H160V48C160 73.4608 170.114 97.8788 188.118 115.882C206.121 133.886 230.539 144 256 144C281.461 144 305.879 133.886 323.882 115.882C341.886 97.8788 352 73.4608 352 48V32H384C396.73 32 408.939 37.0571 417.941 46.0589C426.943 55.0606 432 67.2696 432 80V240H334.4C330.728 221.915 320.916 205.656 306.628 193.978C292.34 182.3 274.454 175.92 256 175.92C237.546 175.92 219.66 182.3 205.372 193.978C191.084 205.656 181.272 221.915 177.6 240H80ZM256 112C272.974 112 289.252 105.257 301.255 93.2548C313.257 81.2525 320 64.9739 320 48V32H192V48C192 64.9739 198.743 81.2525 210.745 93.2548C222.747 105.257 239.026 112 256 112ZM256 208C246.097 208.028 236.445 211.118 228.367 216.847C220.289 222.576 214.181 230.663 210.88 240H301.12C297.819 230.663 291.711 222.576 283.633 216.847C275.555 211.118 265.903 208.028 256 208ZM256 304C265.903 303.972 275.555 300.882 283.633 295.153C291.711 289.424 297.819 281.337 301.12 272H210.88C214.181 281.337 220.289 289.424 228.367 295.153C236.445 300.882 246.097 303.972 256 304ZM334.4 272C330.728 290.085 320.916 306.344 306.628 318.022C292.34 329.7 274.454 336.08 256 336.08C237.546 336.08 219.66 329.7 205.372 318.022C191.084 306.344 181.272 290.085 177.6 272H80V432C80 444.73 85.0571 456.939 94.0589 465.941C103.061 474.943 115.27 480 128 480H160V464C160 438.539 170.114 414.121 188.118 396.118C206.121 378.114 230.539 368 256 368C281.461 368 305.879 378.114 323.882 396.118C341.886 414.121 352 438.539 352 464V480H384C396.73 480 408.939 474.943 417.941 465.941C426.943 456.939 432 444.73 432 432V272H334.4ZM256 400C239.026 400 222.747 406.743 210.745 418.745C198.743 430.748 192 447.026 192 464V480H320V464C320 447.026 313.257 430.748 301.255 418.745C289.252 406.743 272.974 400 256 400Z" fill="url(#paint0_linear_10025_21386)"/>
<defs>
<linearGradient id="paint0_linear_10025_21386" x1="256" y1="32" x2="256" y2="480" gradientUnits="userSpaceOnUse">
<stop stop-color="#B9B8C0"/>
<stop offset="1" stop-color="#57565A"/>
</linearGradient>
</defs>
</svg>
