<svg width="512" height="512" viewBox="0 0 512 512" fill="none" xmlns="http://www.w3.org/2000/svg">
<g clip-path="url(#clip0_10025_62250)">
<path d="M404.712 31.53C398.945 13.324 382.09 0.000976562 362 0.000976562H242C221.899 0.000976562 205.036 13.335 199.28 31.559C150.132 40.011 124.457 91.683 142.7 134.8C153.5 160.9 159.5 178 161 196.9C170 190.601 179.3 184.601 189.2 179.201C185.9 162.101 179.299 145.301 170.3 123.101C158.878 96.26 176.2 67.657 200.223 61.477C206.82 78.143 223.014 90.001 242 90.001H362C380.972 90.001 397.154 78.167 403.763 61.521C428.221 67.903 445.001 96.545 433.701 123.101C424.701 145.301 418.1 162.101 414.801 179.201C424.702 184.601 434.001 190.601 443.001 196.9C444.501 178 450.501 160.9 461.301 134.8C479.517 91.749 453.95 39.834 404.712 31.53Z" fill="url(#paint0_linear_10025_62250)"/>
<path d="M92 451.001V467.001C92 491.815 112.186 512.001 137 512.001H467C491.814 512.001 512 491.815 512 467.001V451.001H92Z" fill="url(#paint1_linear_10025_62250)"/>
<path d="M342.4 185.449C345.258 179.538 347 172.996 347 166.001C347 141.187 326.814 121.001 302 121.001C277.186 121.001 257 141.187 257 166.001C257 172.996 258.741 179.538 261.6 185.449C236.291 190.49 212.454 199.674 191.249 212.911C215.853 248.437 256.528 271.001 302 271.001C348.031 271.001 388.376 248.148 412.753 212.913C391.548 199.676 367.709 190.49 342.4 185.449ZM302 181.001C293.724 181.001 287 174.277 287 166.001C287 157.725 293.724 151.001 302 151.001C310.276 151.001 317 157.725 317 166.001C317 174.277 310.276 181.001 302 181.001Z" fill="url(#paint2_linear_10025_62250)"/>
<path d="M437.073 230.441C407.24 273.264 358.056 301.001 302 301.001C246.614 301.001 197.068 273.583 166.958 230.412C121.187 268.965 92 326.612 92 391.001V421.001H512V391.001C512 326.627 482.826 268.994 437.073 230.441Z" fill="url(#paint3_linear_10025_62250)"/>
<path d="M68.027 284.185C62.168 278.325 52.676 278.325 46.816 284.185L4.39501 326.606C-1.46399 332.465 -1.46399 341.958 4.39501 347.817L60 403.423V391.001C60 357.22 67.094 325.087 79.744 295.902L68.027 284.185Z" fill="url(#paint4_linear_10025_62250)"/>
</g>
<defs>
<linearGradient id="paint0_linear_10025_62250" x1="302" y1="0.000976562" x2="302" y2="196.9" gradientUnits="userSpaceOnUse">
<stop stop-color="#B9B8C0"/>
<stop offset="1" stop-color="#57565A"/>
</linearGradient>
<linearGradient id="paint1_linear_10025_62250" x1="302" y1="451.001" x2="302" y2="512.001" gradientUnits="userSpaceOnUse">
<stop stop-color="#B9B8C0"/>
<stop offset="1" stop-color="#57565A"/>
</linearGradient>
<linearGradient id="paint2_linear_10025_62250" x1="302.001" y1="121.001" x2="302.001" y2="271.001" gradientUnits="userSpaceOnUse">
<stop stop-color="#B9B8C0"/>
<stop offset="1" stop-color="#57565A"/>
</linearGradient>
<linearGradient id="paint3_linear_10025_62250" x1="302" y1="230.412" x2="302" y2="421.001" gradientUnits="userSpaceOnUse">
<stop stop-color="#B9B8C0"/>
<stop offset="1" stop-color="#57565A"/>
</linearGradient>
<linearGradient id="paint4_linear_10025_62250" x1="39.8724" y1="279.79" x2="39.8724" y2="403.423" gradientUnits="userSpaceOnUse">
<stop stop-color="#B9B8C0"/>
<stop offset="1" stop-color="#57565A"/>
</linearGradient>
<clipPath id="clip0_10025_62250">
<rect width="512" height="512" fill="white" transform="translate(0 0.000976562)"/>
</clipPath>
</defs>
</svg>
