<svg width="513" height="513" viewBox="0 0 513 513" fill="none" xmlns="http://www.w3.org/2000/svg">
<g clip-path="url(#clip0_10025_63601)">
<path d="M503.864 461.129H495.331V469.662C495.317 474.369 491.505 478.181 486.798 478.195H25.997C21.29 478.181 17.478 474.369 17.464 469.662V461.129H8.92997C4.22297 461.143 0.410973 464.955 0.396973 469.662C0.405973 493.223 19.503 512.321 43.064 512.329H469.731C493.292 512.321 512.389 493.223 512.398 469.662C512.383 464.955 508.571 461.143 503.864 461.129Z" fill="url(#paint0_linear_10025_63601)"/>
<path d="M495.33 461.128V94.1951C495.299 42.3661 453.292 0.359125 401.464 0.328125H111.33C59.502 0.359125 17.495 42.3661 17.464 94.1951V162.462C17.478 167.169 21.29 170.981 25.997 170.995H77.197V196.595C77.211 201.302 81.023 205.114 85.73 205.128V239.517C85.744 244.224 89.556 248.036 94.263 248.05H102.796V273.394H51.597C46.89 273.408 43.078 277.22 43.064 281.927V324.764C43.079 351.553 55.69 376.775 77.112 392.86H25.997C21.29 392.874 17.478 396.686 17.464 401.393V461.128H478.264H495.33ZM116.792 343.624C120.388 346.657 120.882 352.016 117.901 355.656C116.284 357.616 113.871 358.744 111.33 358.728C109.342 358.7 107.42 358.009 105.869 356.765C100.587 352.401 97.37 346.028 96.994 339.186C96.653 332.488 98.846 325.907 103.138 320.754C104.954 316.537 105.574 311.902 104.93 307.357L104.333 302.322C103.906 298.311 103.394 294.557 103.138 290.461H120.205C120.546 293.704 120.888 296.861 121.314 300.274L121.911 305.479C123.271 314.605 121.27 323.915 116.279 331.676C114.771 333.527 113.983 335.861 114.06 338.247C114.151 340.351 115.147 342.311 116.792 343.624ZM162.53 248.051H171.063V273.395H119.863V248.051H128.397C133.104 248.037 136.916 244.225 136.93 239.518V205.128H153.997V239.517C154.011 244.224 157.823 248.037 162.53 248.051ZM119.864 230.984H102.797V205.128H119.864V230.984ZM185.058 343.624C188.654 346.657 189.148 352.016 186.167 355.656C184.55 357.616 182.137 358.744 179.596 358.728C177.608 358.7 175.686 358.009 174.135 356.765C168.853 352.401 165.636 346.028 165.26 339.186C164.919 332.488 167.112 325.907 171.404 320.754C173.22 316.537 173.84 311.902 173.196 307.357L172.599 302.322C172.172 298.311 171.66 294.557 171.404 290.461H188.471C188.812 293.704 189.154 296.861 189.58 300.274L190.177 305.479C191.537 314.605 189.536 323.915 184.545 331.676C183.037 333.527 182.249 335.861 182.326 338.247C182.418 340.351 183.413 342.311 185.058 343.624ZM171.064 230.984V205.128H188.131V230.984H171.064ZM273.464 367.261C273.423 381.382 261.985 392.82 247.864 392.861H213.816C235.238 376.776 247.849 351.554 247.864 324.765V281.928C247.85 277.221 244.038 273.409 239.331 273.395H188.131V248.051H196.664C201.371 248.037 205.183 244.225 205.197 239.518V205.128C209.904 205.114 213.716 201.302 213.73 196.595V170.995H247.863C261.984 171.036 273.422 182.474 273.463 196.595L273.464 367.261ZM440.675 370.253C432.204 394.056 409.663 409.948 384.397 409.928C351.407 409.928 324.664 383.184 324.664 350.195C324.664 317.206 351.407 290.461 384.397 290.461C397.487 290.429 410.216 294.751 420.578 302.749C421.141 303.077 421.657 303.479 422.114 303.944C441.712 319.891 449.147 346.449 440.675 370.253ZM324.664 213.661C324.664 180.671 351.408 153.928 384.397 153.928C417.386 153.928 444.13 180.671 444.13 213.661C444.094 246.636 417.371 273.358 384.397 273.394C351.407 273.395 324.664 246.651 324.664 213.661ZM442.765 100.595C437.913 81.7531 420.92 68.5871 401.464 68.5951H111.33C91.874 68.5871 74.881 81.7531 70.029 100.595C67.102 111.875 56.936 119.762 45.282 119.795H34.53V102.728H45.282C49.153 102.714 52.524 100.081 53.474 96.3281C60.304 69.9601 84.091 51.5401 111.33 51.5281H401.463C428.701 51.5401 452.489 69.9601 459.319 96.3281C460.269 100.081 463.64 102.714 467.511 102.728H478.263V119.795H467.511C455.858 119.762 445.692 111.875 442.765 100.595Z" fill="url(#paint1_linear_10025_63601)"/>
<path d="M384.397 256.319C406.301 256.319 424.646 239.733 426.848 217.941C429.05 196.148 414.392 176.229 392.931 171.848V196.595C392.931 201.308 389.111 205.128 384.398 205.128C379.685 205.128 375.865 201.308 375.865 196.595V171.848C354.404 176.229 339.746 196.148 341.948 217.941C344.148 239.734 362.493 256.319 384.397 256.319Z" fill="url(#paint2_linear_10025_63601)"/>
<path d="M398.989 339.188C395.624 342.488 390.237 342.488 386.872 339.188C383.544 335.834 383.544 330.424 386.872 327.071L402.488 311.54C382.521 302.053 358.614 309.229 347.173 328.144C335.731 347.058 340.473 371.565 358.145 384.846C375.817 398.127 400.675 395.867 415.661 379.617C430.647 363.367 430.892 338.407 416.227 321.866L398.989 339.188Z" fill="url(#paint3_linear_10025_63601)"/>
</g>
<defs>
<linearGradient id="paint0_linear_10025_63601" x1="256.397" y1="461.129" x2="256.397" y2="512.329" gradientUnits="userSpaceOnUse">
<stop stop-color="#B9B8C0"/>
<stop offset="1" stop-color="#57565A"/>
</linearGradient>
<linearGradient id="paint1_linear_10025_63601" x1="256.397" y1="0.328125" x2="256.397" y2="461.128" gradientUnits="userSpaceOnUse">
<stop stop-color="#B9B8C0"/>
<stop offset="1" stop-color="#57565A"/>
</linearGradient>
<linearGradient id="paint2_linear_10025_63601" x1="384.398" y1="171.848" x2="384.398" y2="256.319" gradientUnits="userSpaceOnUse">
<stop stop-color="#B9B8C0"/>
<stop offset="1" stop-color="#57565A"/>
</linearGradient>
<linearGradient id="paint3_linear_10025_63601" x1="384.009" y1="307.367" x2="384.009" y2="393.483" gradientUnits="userSpaceOnUse">
<stop stop-color="#B9B8C0"/>
<stop offset="1" stop-color="#57565A"/>
</linearGradient>
<clipPath id="clip0_10025_63601">
<rect width="512" height="512" fill="white" transform="translate(0.396973 0.328125)"/>
</clipPath>
</defs>
</svg>
