<svg width="505" height="505" viewBox="0 0 505 505" fill="none" xmlns="http://www.w3.org/2000/svg">
<g clip-path="url(#clip0_10025_63624)">
<path d="M41.745 303.459C38.724 303.461 35.899 304.954 34.197 307.449C32.495 309.944 32.133 313.119 33.232 315.932L96.937 486.753C100.962 497.463 111.192 504.568 122.633 504.601H129.758L54.33 303.459H41.745Z" fill="url(#paint0_linear_10025_63624)"/>
<path d="M111.062 276.049L71.967 298.395L149.295 504.602H179.527V299.621L138.277 276.048C129.836 271.263 119.502 271.263 111.062 276.049Z" fill="url(#paint1_linear_10025_63624)"/>
<path d="M181.37 46.0516C181.967 48.1656 182.677 50.2456 183.496 52.2836C183.631 52.6136 183.791 52.9306 183.932 53.2576C184.684 55.0306 185.502 56.7636 186.41 58.4366C186.846 59.2286 187.338 59.9826 187.809 60.7526C188.508 61.9086 189.201 63.0676 189.973 64.1676C190.874 65.4386 191.858 66.6416 192.855 67.8346C193.318 68.3926 193.746 68.9806 194.229 69.5196C195.609 71.0426 197.068 72.4936 198.599 73.8646C198.807 74.0526 198.993 74.2626 199.204 74.4486C200.907 75.9336 202.693 77.3196 204.554 78.5996C204.668 78.6776 204.768 78.7716 204.883 78.8486C206.723 80.0876 208.631 81.2226 210.598 82.2486C210.794 82.3516 210.971 82.4806 211.169 82.5816C213.352 83.7026 215.601 84.6876 217.906 85.5316C222.801 87.3226 228.048 89.1386 233.566 90.9386C235.688 91.6296 238.036 92.2956 240.245 92.9796C243.763 94.0706 247.234 95.1686 250.961 96.2246C253.857 97.0446 256.97 97.8036 259.985 98.5926C263.292 99.4596 266.539 100.343 269.98 101.162C273.332 101.958 276.87 102.66 280.343 103.398C283.701 104.112 287.014 104.849 290.479 105.5C294.107 106.18 297.884 106.744 301.619 107.344C305.168 107.914 308.69 108.504 312.33 108.99C316.103 109.493 319.99 109.865 323.853 110.269C327.669 110.667 331.476 111.074 335.373 111.364C339.188 111.648 343.085 111.794 346.97 111.964C351.105 112.144 355.244 112.313 359.452 112.352C363.224 112.388 367.052 112.29 370.876 112.204C373.677 112.14 376.501 112.006 379.327 111.872C374.666 86.6096 355.322 20.3166 280.586 20.0316C270.693 21.1026 210.099 26.3446 187.291 0.0585938C179.328 13.1116 176.931 28.8126 180.635 43.6476C180.831 44.4686 181.14 45.2416 181.37 46.0516Z" fill="url(#paint2_linear_10025_63624)"/>
<path d="M113.344 152.011C117.583 158.246 124.191 162.473 131.63 163.707C177.491 171.561 223.954 175.358 270.481 175.053C301.743 174.844 332.921 171.788 363.629 165.923C375.936 163.497 388.11 160.439 400.102 156.761C402.592 155.976 404.719 154.326 406.097 152.109C406.189 151.971 406.319 151.869 406.418 151.736C407.328 150.304 407.929 148.697 408.182 147.019C408.897 142.675 406.96 138.323 403.253 135.948H403.248C398.829 133.197 394.016 131.134 388.976 129.832C386.087 130.041 383.228 130.157 380.363 130.295C378.961 130.363 377.548 130.471 376.152 130.521C364.558 130.943 353.197 130.762 342.091 130.164C341.147 130.113 340.198 130.079 339.258 130.022C332.829 129.63 326.513 129.076 320.292 128.402C319.164 128.281 318.047 128.155 316.927 128.025C310.765 127.314 304.728 126.485 298.816 125.54C297.907 125.394 297.024 125.235 296.121 125.085C290.014 124.068 284.006 122.973 278.194 121.761L278.106 121.744C272.233 120.518 266.565 119.188 261.024 117.811C260.21 117.608 259.386 117.415 258.579 117.21C253.363 115.885 248.332 114.506 243.449 113.094C242.516 112.824 241.599 112.556 240.678 112.284C235.888 110.868 231.257 109.429 226.83 107.974C226.107 107.736 225.427 107.502 224.715 107.265C220.158 105.744 215.746 104.219 211.619 102.709C208.738 101.641 205.922 100.406 203.184 99.0112C202.582 98.7062 202.017 98.3522 201.425 98.0322C199.274 96.8782 197.185 95.6482 195.173 94.3112C194.626 93.9452 194.101 93.5572 193.564 93.1782C191.556 91.7702 189.625 90.2722 187.772 88.6842C187.316 88.2932 186.865 87.9002 186.418 87.4992C184.573 85.8352 182.813 84.0852 181.138 82.2512C180.745 81.8232 180.341 81.4092 179.957 80.9722C178.347 79.1252 176.842 77.1922 175.413 75.1912C175.044 74.6782 174.64 74.1942 174.283 73.6722C172.971 71.7342 171.776 69.7082 170.638 67.6422C169.273 65.1712 168.043 62.6272 166.956 60.0222C166.768 59.5722 166.531 59.1532 166.351 58.6992C136.256 71.1112 114.624 98.0832 109.043 130.154C107.402 137.661 108.913 145.513 113.223 151.875L113.344 152.011Z" fill="url(#paint3_linear_10025_63624)"/>
<path d="M471.182 307.509C469.485 304.98 466.639 303.461 463.593 303.459H451.008L375.579 504.602H382.704C394.147 504.569 404.378 497.465 408.405 486.754L472.052 316.067C473.206 313.246 472.88 310.038 471.182 307.509Z" fill="url(#paint4_linear_10025_63624)"/>
<path d="M239.062 276.049L197.812 299.621V504.602H307.527V299.621L266.277 276.048C257.836 271.263 247.502 271.263 239.062 276.049Z" fill="url(#paint5_linear_10025_63624)"/>
<path d="M394.276 276.048C385.836 271.262 375.502 271.262 367.062 276.048L325.812 299.62V504.601H356.044L433.371 298.394L394.276 276.048Z" fill="url(#paint6_linear_10025_63624)"/>
<path d="M403.348 260.173L447.098 285.173H465.557C490.132 208.028 432.578 174.564 417.332 167.221C415.706 168.777 413.906 170.141 411.969 171.286C411.814 171.38 411.655 171.46 411.499 171.551C409.603 172.66 407.592 173.557 405.5 174.227C399.494 176.068 393.434 177.76 387.319 179.305C385.09 179.869 382.829 180.326 380.587 180.85C376.693 181.76 372.806 182.688 368.881 183.484C366.131 184.042 363.364 184.501 360.602 185.005C357.153 185.634 353.712 186.286 350.25 186.835C347.278 187.306 344.303 187.693 341.326 188.107C338.051 188.563 334.781 189.034 331.503 189.423C328.436 189.787 325.379 190.084 322.313 190.393C319.117 190.715 315.926 191.041 312.736 191.305C309.651 191.561 306.582 191.766 303.507 191.971C300.334 192.181 297.169 192.387 294.011 192.546C290.992 192.698 287.995 192.813 284.993 192.919C281.772 193.033 278.565 193.134 275.369 193.199C272.503 193.256 269.659 193.293 266.815 193.312C265.202 193.325 263.563 193.378 261.959 193.378C260.457 193.378 259.002 193.325 257.508 193.314C254.011 193.291 250.55 193.241 247.101 193.167C244.222 193.106 241.364 193.04 238.522 192.945C235.135 192.833 231.801 192.691 228.473 192.536C225.654 192.405 222.85 192.276 220.078 192.116C216.836 191.93 213.665 191.715 210.493 191.493C207.763 191.302 205.037 191.119 202.362 190.904C199.252 190.656 196.234 190.381 193.205 190.104C190.614 189.867 188.01 189.639 185.482 189.385C182.512 189.086 179.661 188.767 176.784 188.447C174.349 188.176 171.883 187.916 169.519 187.633C166.642 187.288 163.915 186.928 161.151 186.57C158.985 186.289 156.76 186.017 154.667 185.73C151.69 185.321 148.901 184.904 146.079 184.486C144.388 184.237 142.607 183.993 140.974 183.741C136.627 183.072 132.476 182.402 128.569 181.742C125.7 181.237 122.884 180.466 120.158 179.437C119.16 179.067 118.244 178.559 117.279 178.124C115.625 177.406 114.016 176.59 112.459 175.68C111.397 175.04 110.412 174.304 109.406 173.579C108.087 172.64 106.819 171.63 105.607 170.555C104.633 169.681 103.711 168.765 102.809 167.803C102.322 167.284 101.759 166.857 101.295 166.312H98.947C87.268 171.036 14.362 204.134 39.791 285.17H58.237L101.987 260.17C116.048 252.17 133.283 252.17 147.344 260.17L188.665 283.783L229.986 260.17C244.049 252.179 261.28 252.179 275.343 260.17L316.664 283.783L357.985 260.17C372.052 252.173 389.288 252.173 403.348 260.173Z" fill="url(#paint7_linear_10025_63624)"/>
</g>
<defs>
<linearGradient id="paint0_linear_10025_63624" x1="81.1817" y1="303.459" x2="81.1817" y2="504.601" gradientUnits="userSpaceOnUse">
<stop stop-color="#B9B8C0"/>
<stop offset="1" stop-color="#57565A"/>
</linearGradient>
<linearGradient id="paint1_linear_10025_63624" x1="125.747" y1="272.459" x2="125.747" y2="504.602" gradientUnits="userSpaceOnUse">
<stop stop-color="#B9B8C0"/>
<stop offset="1" stop-color="#57565A"/>
</linearGradient>
<linearGradient id="paint2_linear_10025_63624" x1="279.13" y1="0.0585937" x2="279.13" y2="112.359" gradientUnits="userSpaceOnUse">
<stop stop-color="#B9B8C0"/>
<stop offset="1" stop-color="#57565A"/>
</linearGradient>
<linearGradient id="paint3_linear_10025_63624" x1="258.362" y1="58.6992" x2="258.362" y2="175.07" gradientUnits="userSpaceOnUse">
<stop stop-color="#B9B8C0"/>
<stop offset="1" stop-color="#57565A"/>
</linearGradient>
<linearGradient id="paint4_linear_10025_63624" x1="424.156" y1="303.459" x2="424.156" y2="504.602" gradientUnits="userSpaceOnUse">
<stop stop-color="#B9B8C0"/>
<stop offset="1" stop-color="#57565A"/>
</linearGradient>
<linearGradient id="paint5_linear_10025_63624" x1="252.669" y1="272.459" x2="252.669" y2="504.602" gradientUnits="userSpaceOnUse">
<stop stop-color="#B9B8C0"/>
<stop offset="1" stop-color="#57565A"/>
</linearGradient>
<linearGradient id="paint6_linear_10025_63624" x1="379.592" y1="272.459" x2="379.592" y2="504.601" gradientUnits="userSpaceOnUse">
<stop stop-color="#B9B8C0"/>
<stop offset="1" stop-color="#57565A"/>
</linearGradient>
<linearGradient id="paint7_linear_10025_63624" x1="253.013" y1="166.312" x2="253.013" y2="285.173" gradientUnits="userSpaceOnUse">
<stop stop-color="#B9B8C0"/>
<stop offset="1" stop-color="#57565A"/>
</linearGradient>
<clipPath id="clip0_10025_63624">
<rect width="504.545" height="504.545" fill="white" transform="translate(0.396973 0.0566406)"/>
</clipPath>
</defs>
</svg>
