<svg width="512" height="512" viewBox="0 0 512 512" fill="none" xmlns="http://www.w3.org/2000/svg">
<g clip-path="url(#clip0_10025_62307)">
<path d="M420.984 360.002H374.344C370.228 362.576 365.458 364.576 360.977 366.835L327.238 512.002H375.984C382.444 512.002 388.171 507.871 390.208 501.748L437.372 358.27C431.936 359.028 426.532 360.002 420.984 360.002Z" fill="url(#paint0_linear_10025_62307)"/>
<path d="M270.984 389.119V512.002H296.406L327.001 380.169C309.615 385.149 290.77 388.07 270.984 389.119Z" fill="url(#paint1_linear_10025_62307)"/>
<path d="M184.033 379.892L213.513 512.002H240.984V389.119C220.897 388.042 201.697 384.979 184.033 379.892Z" fill="url(#paint2_linear_10025_62307)"/>
<path d="M150.263 366.643C146.463 364.71 142.292 363.049 138.811 360.896L94.954 360.002C88.007 360.002 81.225 359.209 74.541 358.103L121.76 501.748C123.796 507.871 129.524 512.002 135.984 512.002H182.744L150.263 366.643Z" fill="url(#paint3_linear_10025_62307)"/>
<path d="M255.984 90.002C247.708 90.002 240.984 96.726 240.984 105.002C240.984 113.278 247.708 120.002 255.984 120.002C264.26 120.002 270.984 113.278 270.984 105.002C270.984 96.726 264.261 90.002 255.984 90.002Z" fill="url(#paint4_linear_10025_62307)"/>
<path d="M511.382 230.702C508.348 195.776 482.402 167.085 455.485 158.101C422.784 146.102 381.384 152.102 357.384 176.402C351.384 182.102 342.084 182.102 336.083 176.402C330.383 170.402 330.383 161.102 336.083 155.101C357.684 133.502 388.583 120.901 420.984 120.901C426.083 120.901 431.185 121.201 435.984 122.102C407.184 49.503 337.285 0.00195312 255.984 0.00195312C174.683 0.00195312 103.884 49.503 75.083 122.102C80.184 121.201 85.584 120.901 90.984 120.901C123.084 120.901 154.284 133.502 175.885 155.101C181.585 161.101 181.585 170.401 175.885 176.402C169.654 182.629 160.332 182.15 154.584 176.402C120.351 141.824 52.812 146.42 28.584 175.501C9.38495 194.101 -2.41605 220.801 0.584951 249.302C5.08395 294.602 47.184 330.002 95.185 330.002H141.985C144.984 330.002 148.284 331.201 151.585 333.602C177.084 350.402 214.885 360.002 255.984 360.002C297.083 360.002 334.884 350.402 360.383 333.602C363.684 331.201 366.984 330.002 369.983 330.002H420.983C446.482 330.002 471.782 319.202 488.882 300.302C505.682 281.702 514.083 256.201 511.382 230.702ZM135.984 270.002C127.7 270.002 120.984 263.286 120.984 255.002C120.984 246.716 127.7 240.002 135.984 240.002C144.268 240.002 150.984 246.716 150.984 255.002C150.984 263.286 144.268 270.002 135.984 270.002ZM255.984 300.002C247.7 300.002 240.984 293.286 240.984 285.002C240.984 276.716 247.7 270.002 255.984 270.002C264.268 270.002 270.984 276.716 270.984 285.002C270.984 293.286 264.268 300.002 255.984 300.002ZM285.984 210.002C277.7 210.002 270.984 203.286 270.984 195.002C270.984 186.716 277.7 180.002 285.984 180.002C294.268 180.002 300.984 186.716 300.984 195.002C300.984 203.286 294.268 210.002 285.984 210.002ZM255.984 150.002C231.17 150.002 210.984 129.816 210.984 105.002C210.984 80.188 231.17 60.002 255.984 60.002C280.798 60.002 300.984 80.188 300.984 105.002C300.984 129.816 280.799 150.002 255.984 150.002ZM375.984 270.002C367.7 270.002 360.984 263.286 360.984 255.002C360.984 246.716 367.7 240.002 375.984 240.002C384.268 240.002 390.984 246.716 390.984 255.002C390.984 263.286 384.268 270.002 375.984 270.002Z" fill="url(#paint5_linear_10025_62307)"/>
</g>
<defs>
<linearGradient id="paint0_linear_10025_62307" x1="382.305" y1="358.27" x2="382.305" y2="512.002" gradientUnits="userSpaceOnUse">
<stop stop-color="#B9B8C0"/>
<stop offset="1" stop-color="#57565A"/>
</linearGradient>
<linearGradient id="paint1_linear_10025_62307" x1="298.993" y1="380.169" x2="298.993" y2="512.002" gradientUnits="userSpaceOnUse">
<stop stop-color="#B9B8C0"/>
<stop offset="1" stop-color="#57565A"/>
</linearGradient>
<linearGradient id="paint2_linear_10025_62307" x1="212.508" y1="379.892" x2="212.508" y2="512.002" gradientUnits="userSpaceOnUse">
<stop stop-color="#B9B8C0"/>
<stop offset="1" stop-color="#57565A"/>
</linearGradient>
<linearGradient id="paint3_linear_10025_62307" x1="128.643" y1="358.103" x2="128.643" y2="512.002" gradientUnits="userSpaceOnUse">
<stop stop-color="#B9B8C0"/>
<stop offset="1" stop-color="#57565A"/>
</linearGradient>
<linearGradient id="paint4_linear_10025_62307" x1="255.984" y1="90.002" x2="255.984" y2="120.002" gradientUnits="userSpaceOnUse">
<stop stop-color="#B9B8C0"/>
<stop offset="1" stop-color="#57565A"/>
</linearGradient>
<linearGradient id="paint5_linear_10025_62307" x1="256" y1="0.00195312" x2="256" y2="360.002" gradientUnits="userSpaceOnUse">
<stop stop-color="#B9B8C0"/>
<stop offset="1" stop-color="#57565A"/>
</linearGradient>
<clipPath id="clip0_10025_62307">
<rect width="512" height="512" fill="white" transform="translate(0 0.00195312)"/>
</clipPath>
</defs>
</svg>
