<svg width="513" height="513" viewBox="0 0 513 513" fill="none" xmlns="http://www.w3.org/2000/svg">
<g clip-path="url(#clip0_10025_63742)">
<path d="M248.137 312.852L236.16 311.389C235.817 311.755 235.511 312.153 235.246 312.578L222.263 334.247L226.286 334.704C246.107 336.833 264.154 347.098 276.115 363.047L299.886 396.236C308.763 409.081 322.839 417.373 338.377 418.91L349.349 420.281C349.532 420.007 349.897 419.55 350.172 419.092L363.155 397.423L360.228 397.057C339.64 394.835 321.012 383.838 309.119 366.886L285.439 333.88C276.522 321.929 262.978 314.294 248.137 312.852Z" fill="url(#paint0_linear_10025_63742)"/>
<path d="M361.233 128.805C336.263 104.961 306.136 87.1913 273.188 76.8743L265.874 74.4973C260.319 73.3083 254.608 75.6733 251.519 80.4403C251.519 80.5313 251.429 80.6233 251.337 80.7143C249.089 83.5843 248.342 87.3523 249.325 90.8633C249.949 92.9383 251.615 94.5343 253.714 95.0693C289.335 106.304 321.899 125.573 348.891 151.389C350.718 152.993 353.165 153.697 355.565 153.309C359.869 152.77 363.732 150.405 366.17 146.818C369.367 143.176 369.559 137.786 366.627 133.927L361.233 128.805Z" fill="url(#paint1_linear_10025_63742)"/>
<path d="M137.416 226.909C161.174 226.934 180.454 207.695 180.479 183.938C180.504 160.18 161.265 140.9 137.508 140.875C113.75 140.85 94.4701 160.089 94.4451 183.846C94.4421 207.595 113.668 226.861 137.416 226.909ZM137.416 160.532C142.465 160.532 146.559 164.625 146.559 169.675C146.559 174.724 142.466 178.818 137.416 178.818C136.081 178.814 134.8 179.343 133.856 180.287C132.912 181.231 132.384 182.512 132.388 183.847C132.388 188.896 128.295 192.99 123.245 192.99C118.196 192.99 114.102 188.897 114.102 183.847C114.124 170.979 124.549 160.554 137.416 160.532Z" fill="url(#paint2_linear_10025_63742)"/>
<path d="M190.262 385.172L166.582 352.166C157.665 340.215 144.12 332.579 129.279 331.137L117.302 329.674C116.959 330.04 116.653 330.438 116.388 330.863L103.405 352.532L107.428 352.989C127.249 355.118 145.296 365.383 157.257 381.332L181.028 414.521C189.905 427.366 203.981 435.658 219.519 437.195L230.491 438.566C230.674 438.292 231.039 437.835 231.314 437.377L244.297 415.708L241.37 415.342C220.783 413.121 202.155 402.124 190.262 385.172Z" fill="url(#paint3_linear_10025_63742)"/>
<path d="M35.565 216.668C35.508 229.979 40.84 242.747 50.347 252.065C59.854 261.382 72.726 266.456 86.034 266.131H106.331C112.249 266.235 118.018 268.01 122.971 271.251C134.714 279.164 148.494 283.513 162.651 283.777C205.36 282.916 239.331 247.678 238.629 204.966C238.717 180.144 227.306 156.68 207.726 141.423C203.711 138.424 200.325 134.665 197.76 130.36C185.352 111.409 163.991 100.261 141.349 100.92C123.14 100.651 105.585 107.7 92.618 120.486C79.727 133.743 65.098 146.452 41.234 142.703C39.779 142.518 38.313 142.426 36.845 142.429C29.115 142.253 21.507 144.386 14.995 148.555C0.732042 162.635 21.486 189.515 28.252 197.378C32.903 202.734 35.496 209.573 35.565 216.668ZM137.416 122.588C162.219 122.57 184.589 137.499 194.089 160.41C203.589 183.321 198.347 209.7 180.809 227.238C163.271 244.776 136.892 250.018 113.981 240.518C91.07 231.018 76.14 208.648 76.159 183.845C76.193 150.028 103.599 122.622 137.416 122.588Z" fill="url(#paint4_linear_10025_63742)"/>
<path d="M441.782 220.143C432.289 211.274 418.652 208.419 406.399 212.737C396.042 216.108 384.841 215.818 374.673 211.914C369.666 210.16 364.207 210.192 359.221 212.005C351.705 215.005 346.045 221.376 343.953 229.194C341.198 238.583 335.035 246.604 326.673 251.685C316.707 256.861 310.882 267.569 311.953 278.748C313.806 290.553 323.16 299.759 334.993 301.422C339.359 302.217 342.522 306.036 342.49 310.473C343.509 326.696 357.239 339.17 373.485 338.633C378.866 338.037 384.049 336.257 388.661 333.422C393.667 330.847 399.214 329.499 404.844 329.491C410.376 329.491 415.829 330.807 420.753 333.331C425.426 336.195 430.669 338.005 436.114 338.634C451.108 338.634 467.2 331.137 467.2 314.68C466.493 306.987 464.387 299.489 460.984 292.554C453.295 275.383 449.308 256.785 449.281 237.971C449.317 231.255 446.608 224.815 441.782 220.143ZM348.342 279.206C348.342 284.255 344.249 288.349 339.199 288.349C334.15 288.349 330.056 284.256 330.056 279.206V270.063C330.056 265.014 334.149 260.92 339.199 260.92C344.248 260.92 348.342 265.013 348.342 270.063V279.206ZM360.164 231.599C361.878 229.884 364.203 228.92 366.628 228.92C369.053 228.92 371.378 229.884 373.092 231.599L379.556 238.063C381.866 240.372 382.767 243.739 381.922 246.893C381.077 250.048 378.612 252.512 375.458 253.357C372.303 254.202 368.937 253.3 366.628 250.991L360.164 244.527C358.449 242.813 357.485 240.488 357.485 238.063C357.485 235.639 358.449 233.313 360.164 231.599ZM379.557 314.992C377.843 316.707 375.517 317.671 373.093 317.671C370.668 317.671 368.343 316.707 366.629 314.992L360.165 308.528C356.633 304.952 356.651 299.195 360.205 295.64C363.759 292.086 369.516 292.067 373.093 295.599L379.557 302.063C381.272 303.777 382.236 306.102 382.236 308.527C382.235 310.952 381.271 313.278 379.557 314.992ZM394.057 283.778H384.914C379.865 283.778 375.771 279.685 375.771 274.635C375.771 269.586 379.864 265.492 384.914 265.492H394.057C399.106 265.492 403.2 269.585 403.2 274.635C403.199 279.684 399.106 283.778 394.057 283.778ZM405.919 250.951C402.365 247.397 402.346 241.64 405.878 238.063L412.342 231.599C415.918 228.067 421.675 228.085 425.23 231.639C428.784 235.193 428.803 240.95 425.271 244.527L418.807 250.991C415.23 254.523 409.473 254.505 405.919 250.951ZM434.414 317.67C432.7 319.385 430.375 320.349 427.95 320.349C425.525 320.349 423.2 319.385 421.486 317.67L415.022 311.206C411.49 307.63 411.508 301.873 415.062 298.318C418.616 294.764 424.373 294.745 427.95 298.277L434.414 304.741C436.129 306.455 437.093 308.78 437.093 311.205C437.092 313.631 436.129 315.956 434.414 317.67ZM439.771 279.206C439.771 284.255 435.678 288.349 430.628 288.349C425.578 288.349 421.485 284.256 421.485 279.206V270.063C421.485 265.014 425.578 260.92 430.628 260.92C435.678 260.92 439.771 265.013 439.771 270.063V279.206Z" fill="url(#paint5_linear_10025_63742)"/>
<path d="M498.488 171.61C462.505 69.0126 365.638 0.340617 256.914 0.348617C167.125 0.102617 83.834 47.1316 37.668 124.143C39.862 124.234 42.057 124.326 43.976 124.6C49.53 125.635 55.267 124.966 60.433 122.68C126.624 25.5116 253.926 -8.63938 359.863 42.3526C465.8 93.3446 518.518 214.146 483.862 326.493C449.206 438.84 337.596 508.95 221.342 491.401C105.089 473.851 19.148 373.92 19.199 256.349C19.199 249.035 19.565 242.543 20.113 236.326C18.232 230.225 17.277 223.876 17.279 217.492C17.318 214.488 16.28 211.569 14.353 209.263C11.702 206.154 9.41604 203.046 7.22204 200.029C-16.691 306.091 29.004 415.686 121.179 473.346C213.354 531.006 331.896 524.148 416.807 456.244C501.718 388.34 534.471 274.207 498.488 171.61Z" fill="url(#paint6_linear_10025_63742)"/>
<path d="M475.245 278.565C475.976 271.251 476.342 263.845 476.342 256.348C476.351 171.894 427.886 94.932 351.719 58.449C275.552 21.965 185.206 32.438 119.405 85.377C126.582 83.583 133.95 82.662 141.348 82.634C170.404 81.953 197.711 96.474 213.394 120.943C214.791 123.255 216.623 125.273 218.789 126.886C242.882 145.622 256.956 174.446 256.914 204.966C257.622 257.779 215.462 301.207 162.651 302.063C145.005 301.782 127.809 296.452 113.097 286.703C111.121 285.281 108.764 284.485 106.331 284.417H86.034C68.009 284.468 50.669 277.519 37.668 265.034C41.608 365.1 112.813 449.796 210.715 470.867C308.617 491.938 408.361 444.036 453.119 354.451C447.599 356.09 441.871 356.921 436.113 356.92C427.857 356.428 419.835 353.984 412.707 349.789C407.872 347.173 402.059 347.105 397.164 349.606C389.981 353.93 381.854 356.44 373.484 356.92C349.84 357.412 329.272 340.819 324.752 317.606C308.297 312.395 296.285 298.214 293.85 281.126C291.882 262.667 301.18 244.828 317.439 235.869C321.841 233.1 325.065 228.802 326.49 223.8C330.262 210.477 340.084 199.706 353.004 194.726C361.904 191.587 371.604 191.555 380.524 194.635C386.788 197.155 393.728 197.446 400.18 195.458C419.149 188.885 440.201 193.433 454.764 207.252C463.04 215.394 467.659 226.545 467.564 238.155C467.422 252 470.032 265.737 475.245 278.565ZM261.119 423.297L247.039 446.794C243.941 452.618 238.074 456.448 231.496 456.943C231.007 456.958 230.517 456.928 230.034 456.852L217.324 455.389C196.694 453.15 178.034 442.12 166.125 425.126L142.536 392.212C133.601 380.266 120.073 372.607 105.232 371.092L94.261 369.812C90.104 369.304 86.489 366.722 84.661 362.955C82.277 357.004 82.996 350.258 86.582 344.944L100.753 321.355C103.968 314.966 110.612 311.037 117.759 311.298L131.473 312.944C151.282 315.111 169.314 325.368 181.302 341.287L205.074 374.476C213.967 387.304 228.035 395.591 243.565 397.15L253.531 398.43C257.666 398.867 261.271 401.433 263.039 405.196C265.518 411.162 264.795 417.981 261.119 423.297ZM300.159 322.999L323.931 356.188C332.824 369.016 346.892 377.303 362.422 378.862L372.388 380.142C376.523 380.579 380.128 383.145 381.896 386.908C384.375 392.876 383.651 399.695 379.976 405.011L365.896 428.508C362.798 434.332 356.931 438.162 350.353 438.657C349.864 438.672 349.374 438.642 348.891 438.566L336.181 437.103C315.552 434.864 296.891 423.834 284.982 406.84L261.392 373.926C252.457 361.98 238.929 354.321 224.088 352.806L213.117 351.526C208.96 351.018 205.345 348.436 203.517 344.669C201.133 338.718 201.852 331.972 205.438 326.658L219.609 303.069C222.824 296.68 229.468 292.751 236.615 293.012L250.329 294.658C270.14 296.824 288.172 307.081 300.159 322.999ZM396.525 163.548L388.571 165.742L389.577 172.691C390.315 177.685 386.885 182.34 381.896 183.114C381.443 183.19 380.984 183.221 380.525 183.205C376.012 183.18 372.181 179.891 371.474 175.434L370.285 167.205C366.341 169.607 361.9 171.077 357.302 171.502C356.335 171.657 355.355 171.718 354.376 171.685C347.643 171.76 341.146 169.201 336.273 164.554C311.265 140.694 281.111 122.895 248.137 112.531C240.479 110.171 234.445 104.239 231.954 96.622C231.247 94.46 230.817 92.218 230.674 89.948L225.828 93.605C224.237 94.775 222.317 95.415 220.342 95.434C217.441 95.44 214.717 94.044 213.028 91.685C210.014 87.641 210.831 81.923 214.857 78.885L221.166 74.222L217.965 69.651C215.045 65.508 216.026 59.784 220.159 56.851C222.133 55.449 224.584 54.892 226.97 55.304C229.356 55.716 231.479 57.062 232.868 59.045L238.719 67.365C246.602 57.716 259.474 53.689 271.451 57.125H271.542L278.765 59.411C314.371 70.634 346.93 89.87 373.942 115.64L379.245 120.76C386.273 127.757 388.813 138.091 385.828 147.549L391.588 145.995C396.435 144.632 401.47 147.456 402.834 152.304C404.197 157.15 401.373 162.185 396.525 163.548Z" fill="url(#paint7_linear_10025_63742)"/>
</g>
<defs>
<linearGradient id="paint0_linear_10025_63742" x1="292.709" y1="311.389" x2="292.709" y2="420.281" gradientUnits="userSpaceOnUse">
<stop stop-color="#B9B8C0"/>
<stop offset="1" stop-color="#57565A"/>
</linearGradient>
<linearGradient id="paint1_linear_10025_63742" x1="308.802" y1="74.1934" x2="308.802" y2="153.414" gradientUnits="userSpaceOnUse">
<stop stop-color="#B9B8C0"/>
<stop offset="1" stop-color="#57565A"/>
</linearGradient>
<linearGradient id="paint2_linear_10025_63742" x1="137.462" y1="140.875" x2="137.462" y2="226.909" gradientUnits="userSpaceOnUse">
<stop stop-color="#B9B8C0"/>
<stop offset="1" stop-color="#57565A"/>
</linearGradient>
<linearGradient id="paint3_linear_10025_63742" x1="173.851" y1="329.674" x2="173.851" y2="438.566" gradientUnits="userSpaceOnUse">
<stop stop-color="#B9B8C0"/>
<stop offset="1" stop-color="#57565A"/>
</linearGradient>
<linearGradient id="paint4_linear_10025_63742" x1="124.368" y1="100.893" x2="124.368" y2="283.777" gradientUnits="userSpaceOnUse">
<stop stop-color="#B9B8C0"/>
<stop offset="1" stop-color="#57565A"/>
</linearGradient>
<linearGradient id="paint5_linear_10025_63742" x1="389.513" y1="210.621" x2="389.513" y2="338.649" gradientUnits="userSpaceOnUse">
<stop stop-color="#B9B8C0"/>
<stop offset="1" stop-color="#57565A"/>
</linearGradient>
<linearGradient id="paint6_linear_10025_63742" x1="256.933" y1="0.347656" x2="256.933" y2="512.309" gradientUnits="userSpaceOnUse">
<stop stop-color="#B9B8C0"/>
<stop offset="1" stop-color="#57565A"/>
</linearGradient>
<linearGradient id="paint7_linear_10025_63742" x1="257.005" y1="36.918" x2="257.005" y2="475.797" gradientUnits="userSpaceOnUse">
<stop stop-color="#B9B8C0"/>
<stop offset="1" stop-color="#57565A"/>
</linearGradient>
<clipPath id="clip0_10025_63742">
<rect width="511.99" height="511.99" fill="white" transform="translate(0.937988 0.333984)"/>
</clipPath>
</defs>
</svg>
