<svg width="512" height="513" viewBox="0 0 512 513" fill="none" xmlns="http://www.w3.org/2000/svg">
<g clip-path="url(#clip0_10025_63795)">
<path d="M74.3081 270.012C70.5301 263.206 63.9211 258.432 56.2721 256.985C54.5391 256.665 52.7801 256.506 51.0171 256.51C45.0651 256.73 39.3341 258.821 34.6381 262.485C32.4311 264.216 30.0091 265.653 27.4331 266.762V311.271H100.576V291.022C89.4011 287.739 79.9661 280.192 74.3081 270.012Z" fill="url(#paint0_linear_10025_63795)"/>
<path d="M347.432 329.557H228.575V366.128H347.432V329.557Z" fill="url(#paint1_linear_10025_63795)"/>
<path d="M192.004 430.136C202.103 430.136 210.29 421.949 210.29 411.85V279.279C209.678 278.782 209.22 278.222 208.657 277.704C207.877 276.984 207.083 276.289 206.377 275.506C204.814 273.837 203.448 271.993 202.308 270.011C197.635 261.714 188.892 256.538 179.37 256.431C169.061 256.326 159.45 261.628 154.04 270.404C152.836 272.318 151.503 274.148 150.051 275.88L149.942 276.029C149.576 276.475 149.192 276.868 148.817 277.261C148.024 278.116 147.338 278.837 146.675 279.507C146.337 279.838 146.004 280.175 145.657 280.496C145.524 280.621 145.389 280.765 145.255 280.887C144.791 281.307 144.317 281.691 143.826 282.074C143.505 282.336 143.283 282.478 142.988 282.713C142.167 283.368 141.35 284.02 140.492 284.616C140.347 284.718 140.176 284.868 140.031 284.967L138.656 285.815C138.356 285.998 138.126 286.124 137.851 286.288C136.87 286.877 135.882 287.439 134.863 287.953C134.717 288.028 134.561 288.117 134.415 288.19C133.933 288.431 133.388 288.672 132.844 288.904L132.683 288.966C131.292 289.582 129.878 290.121 128.434 290.596L128.353 290.627C128.282 290.654 127.389 290.931 127.326 290.948L127.225 290.974C124.498 291.822 121.698 292.411 118.86 292.734V320.411C118.86 330.51 127.047 338.697 137.146 338.697C147.245 338.697 155.432 330.51 155.432 320.411C155.432 315.362 159.525 311.268 164.575 311.268C169.624 311.268 173.718 315.361 173.718 320.411V411.849C173.718 421.95 181.905 430.136 192.004 430.136Z" fill="url(#paint2_linear_10025_63795)"/>
<path d="M384.004 402.699C394.103 402.699 402.29 394.512 402.29 384.413V320.413C402.289 317.988 403.251 315.661 404.966 313.946C406.681 312.231 409.007 311.268 411.432 311.27H484.575L484.602 266.109C482.594 265.092 480.692 263.877 478.923 262.484C477.488 261.387 475.951 260.429 474.333 259.625C473.783 259.345 473.218 259.098 472.649 258.855C471.584 258.403 470.493 258.016 469.381 257.697C468.668 257.491 467.969 257.248 467.238 257.098C465.705 256.774 464.148 256.578 462.582 256.511H462.573C452.921 256.42 443.986 261.594 439.261 270.011C431.201 284.245 416.073 293.008 399.715 292.917C399.559 292.923 399.409 292.954 399.252 292.958C382.438 293.402 366.678 284.793 357.966 270.404C356.587 268.189 354.927 266.162 353.026 264.375C352.96 264.311 352.877 264.274 352.81 264.212C349.234 260.911 344.888 258.558 340.168 257.369C339.476 257.2 338.736 257.193 338.027 257.076C336.491 256.77 334.933 256.583 333.367 256.518C324.151 256.858 315.775 261.969 311.26 270.011C301.144 288.145 272.742 292.984 257.564 292.984C257.423 292.984 256.884 292.964 256.603 292.961C256.417 292.963 256.184 292.984 256.001 292.984C249.33 292.919 242.684 292.16 236.17 290.718C236.031 290.687 235.895 290.671 235.756 290.639C233.989 290.243 232.227 289.723 230.453 289.206C229.828 289.023 229.192 288.896 228.571 288.698V311.269H356.571C358.996 311.268 361.323 312.23 363.037 313.945C364.752 315.66 365.715 317.986 365.713 320.412V384.412C365.718 394.512 373.905 402.699 384.004 402.699Z" fill="url(#paint3_linear_10025_63795)"/>
<path d="M256.004 36.9844C155.089 37.2054 66.592 104.407 39.28 201.556H472.726C445.416 104.407 356.918 37.2054 256.004 36.9844ZM152.753 153.172C151.039 154.887 148.713 155.851 146.289 155.851C143.865 155.851 141.539 154.887 139.825 153.172L121.539 134.886C117.981 131.314 117.987 125.536 121.552 121.971C125.117 118.406 130.895 118.4 134.467 121.958L152.753 140.244C154.468 141.958 155.431 144.283 155.431 146.708C155.431 149.133 154.468 151.458 152.753 153.172ZM216.753 80.0294L198.467 98.3154C194.89 101.844 189.136 101.824 185.583 98.2714C182.03 94.7184 182.011 88.9644 185.539 85.3874L203.825 67.1014C207.402 63.5734 213.156 63.5924 216.709 67.1454C220.262 70.6984 220.282 76.4524 216.753 80.0294ZM262.468 153.172L244.182 171.458C240.605 174.986 234.851 174.967 231.298 171.414C227.745 167.861 227.726 162.107 231.254 158.53L249.54 140.244C253.117 136.716 258.871 136.735 262.424 140.288C265.977 143.841 265.996 149.595 262.468 153.172ZM317.325 116.6C315.611 118.315 313.286 119.279 310.861 119.279C308.436 119.279 306.111 118.315 304.397 116.6L286.111 98.3144C282.553 94.7424 282.559 88.9644 286.124 85.3994C289.689 81.8344 295.467 81.8284 299.039 85.3864L317.325 103.672C319.04 105.386 320.004 107.711 320.004 110.136C320.004 112.561 319.04 114.886 317.325 116.6ZM390.468 162.315C388.754 164.03 386.428 164.994 384.004 164.994C381.579 164.994 379.254 164.03 377.54 162.315L359.254 144.029C355.696 140.457 355.702 134.679 359.267 131.114C362.832 127.549 368.61 127.543 372.182 131.101L390.468 149.387C392.183 151.101 393.146 153.426 393.146 155.851C393.146 158.276 392.183 160.601 390.468 162.315Z" fill="url(#paint4_linear_10025_63795)"/>
<path d="M8.28001 250.941C12.975 252.179 17.978 251.13 21.78 248.111C30.064 241.623 40.297 238.126 50.819 238.186C54.378 238.073 57.939 238.365 61.432 239.057C74.305 241.599 85.417 249.656 91.834 261.102C95.868 268.263 102.995 273.147 111.128 274.325C111.207 274.337 111.268 274.386 111.346 274.401C111.616 274.426 111.868 274.504 112.14 274.521C112.898 274.599 113.661 274.631 114.423 274.62L114.61 274.609C116.539 274.559 118.458 274.315 120.338 273.88C120.888 273.757 121.371 273.636 121.843 273.504L122.082 273.431C123.751 272.929 125.368 272.27 126.913 271.463C127.505 271.154 128.093 270.843 128.673 270.485L128.677 270.489C130.336 269.485 131.888 268.315 133.31 266.998C133.669 266.657 134.012 266.291 134.354 265.923C135.917 264.348 137.309 262.613 138.509 260.747L138.531 260.717C138.898 260.129 139.337 259.615 139.725 259.047C140.516 257.887 141.291 256.71 142.164 255.637C142.825 254.823 143.567 254.108 144.272 253.346C144.958 252.604 145.606 251.819 146.331 251.127C147.04 250.45 147.817 249.87 148.562 249.242C149.367 248.563 150.142 247.846 150.985 247.225C151.674 246.718 152.415 246.301 153.128 245.834C154.101 245.196 155.058 244.531 156.073 243.969C156.703 243.622 157.369 243.352 158.014 243.034C159.177 242.459 160.332 241.874 161.539 241.397C162.11 241.173 162.706 241.018 163.286 240.816C164.608 240.355 165.931 239.9 167.295 239.559C167.875 239.414 168.474 239.337 169.06 239.215C170.443 238.926 171.826 238.647 173.242 238.484C173.958 238.4 174.691 238.395 175.415 238.344C176.489 238.27 177.552 238.137 178.639 238.137C179.032 238.137 179.434 238.146 179.827 238.155C195.82 238.389 210.475 247.135 218.273 261.101C219.787 263.485 221.863 265.463 224.318 266.86C231.522 270.897 239.491 273.381 247.713 274.152C248.018 274.188 248.322 274.23 248.627 274.262C251.077 274.537 253.54 274.684 256.006 274.7C270.827 274.7 288.988 269.611 293.739 261.102C301.537 247.136 316.191 238.39 332.185 238.156C332.583 238.148 332.97 238.207 333.366 238.209L333.452 238.201C333.598 238.203 333.738 238.229 333.883 238.232C345.819 238.362 357.254 243.046 365.85 251.327C365.967 251.438 366.065 251.57 366.18 251.683C367.492 252.955 368.731 254.299 369.891 255.711C371.187 257.301 372.382 258.97 373.469 260.709C378.053 268.105 385.721 273.046 394.35 274.164C395.877 274.447 397.425 274.608 398.978 274.646H399.036C408.468 274.469 417.102 269.317 421.738 261.101C428.155 249.655 439.267 241.598 452.14 239.056C460.638 237.364 469.438 238.06 477.564 241.067L477.585 241.075C479.569 241.821 481.499 242.702 483.363 243.711C483.851 243.969 484.335 244.231 484.813 244.507C486.608 245.534 488.332 246.68 489.974 247.937C490.053 247.998 490.142 248.039 490.22 248.1C490.34 248.194 490.48 248.251 490.602 248.342C491.422 248.958 492.3 249.493 493.223 249.94C493.471 250.059 493.742 250.125 493.997 250.23C497.07 251.549 500.497 251.799 503.729 250.94C507.113 250.052 509.83 247.533 510.97 244.226C511.774 241.953 512.117 239.543 511.979 237.137C510.901 227.085 502.272 219.553 492.166 219.842H19.843C9.73701 219.553 1.10901 227.085 0.0300077 237.137C-0.109992 239.538 0.233008 241.942 1.03901 244.208C2.17301 247.524 4.89201 250.051 8.28001 250.941Z" fill="url(#paint5_linear_10025_63795)"/>
<path d="M493.718 329.557H420.575V366.128H493.718C503.817 366.128 512.004 357.941 512.004 347.842C512.004 337.744 503.817 329.557 493.718 329.557Z" fill="url(#paint6_linear_10025_63795)"/>
<path d="M384.004 420.985C363.815 420.965 347.453 404.603 347.433 384.414H228.575V411.852C228.575 432.05 212.201 448.423 192.004 448.423C171.806 448.423 155.433 432.049 155.433 411.852V384.423L27.4331 384.414V439.271C27.4561 459.464 43.8201 475.828 64.0141 475.852H447.996C468.189 475.829 484.553 459.465 484.577 439.271V384.414H420.577C420.555 404.604 404.193 420.965 384.004 420.985ZM107.039 427.459L88.7531 445.745C85.1761 449.274 79.4221 449.254 75.8691 445.701C72.3161 442.148 72.2971 436.394 75.8251 432.817L94.1111 414.531C97.6881 411.003 103.442 411.022 106.995 414.575C110.548 418.127 110.568 423.882 107.039 427.459ZM308.182 445.744C306.468 447.459 304.143 448.423 301.718 448.423C299.293 448.423 296.968 447.459 295.254 445.744L276.968 427.458C273.41 423.886 273.416 418.108 276.981 414.543C280.546 410.978 286.324 410.972 289.896 414.53L308.182 432.816C309.897 434.53 310.861 436.856 310.861 439.28C310.861 441.704 309.897 444.03 308.182 445.744ZM423.254 441.959L441.54 423.673C445.117 420.145 450.871 420.164 454.424 423.717C457.977 427.27 457.996 433.024 454.468 436.601L436.182 454.887C432.605 458.415 426.851 458.396 423.298 454.843C419.745 451.29 419.725 445.536 423.254 441.959Z" fill="url(#paint7_linear_10025_63795)"/>
<path d="M155.432 352.075C147.85 356.51 138.905 358.011 130.291 356.293C129.567 356.155 128.886 355.922 128.178 355.742C126.709 355.384 125.264 354.935 123.851 354.397C123.072 354.091 122.331 353.734 121.579 353.378C120.321 352.785 119.098 352.12 117.916 351.387C117.204 350.943 116.509 350.496 115.831 350.006C114.687 349.168 113.592 348.264 112.553 347.3C111.984 346.779 111.397 346.291 110.862 345.736C109.694 344.505 108.612 343.195 107.625 341.815C107.34 341.423 107.002 341.077 106.733 340.673C105.522 338.855 104.477 336.932 103.611 334.927C103.364 334.359 103.214 333.749 102.996 333.166C102.513 331.987 102.092 330.783 101.737 329.559L18.2901 329.568L18.2601 329.562C8.18906 329.608 0.0520645 337.79 0.0600645 347.861C0.0680645 357.932 8.21907 366.101 18.2901 366.131H155.433L155.432 352.075Z" fill="url(#paint8_linear_10025_63795)"/>
</g>
<defs>
<linearGradient id="paint0_linear_10025_63795" x1="64.0046" y1="256.51" x2="64.0046" y2="311.271" gradientUnits="userSpaceOnUse">
<stop stop-color="#B9B8C0"/>
<stop offset="1" stop-color="#57565A"/>
</linearGradient>
<linearGradient id="paint1_linear_10025_63795" x1="288.003" y1="329.557" x2="288.003" y2="366.128" gradientUnits="userSpaceOnUse">
<stop stop-color="#B9B8C0"/>
<stop offset="1" stop-color="#57565A"/>
</linearGradient>
<linearGradient id="paint2_linear_10025_63795" x1="164.575" y1="256.43" x2="164.575" y2="430.136" gradientUnits="userSpaceOnUse">
<stop stop-color="#B9B8C0"/>
<stop offset="1" stop-color="#57565A"/>
</linearGradient>
<linearGradient id="paint3_linear_10025_63795" x1="356.587" y1="256.51" x2="356.587" y2="402.699" gradientUnits="userSpaceOnUse">
<stop stop-color="#B9B8C0"/>
<stop offset="1" stop-color="#57565A"/>
</linearGradient>
<linearGradient id="paint4_linear_10025_63795" x1="256.003" y1="36.9844" x2="256.003" y2="201.556" gradientUnits="userSpaceOnUse">
<stop stop-color="#B9B8C0"/>
<stop offset="1" stop-color="#57565A"/>
</linearGradient>
<linearGradient id="paint5_linear_10025_63795" x1="256.004" y1="219.834" x2="256.004" y2="274.7" gradientUnits="userSpaceOnUse">
<stop stop-color="#B9B8C0"/>
<stop offset="1" stop-color="#57565A"/>
</linearGradient>
<linearGradient id="paint6_linear_10025_63795" x1="466.289" y1="329.557" x2="466.289" y2="366.128" gradientUnits="userSpaceOnUse">
<stop stop-color="#B9B8C0"/>
<stop offset="1" stop-color="#57565A"/>
</linearGradient>
<linearGradient id="paint7_linear_10025_63795" x1="256.005" y1="384.414" x2="256.005" y2="475.852" gradientUnits="userSpaceOnUse">
<stop stop-color="#B9B8C0"/>
<stop offset="1" stop-color="#57565A"/>
</linearGradient>
<linearGradient id="paint8_linear_10025_63795" x1="77.7466" y1="329.559" x2="77.7466" y2="366.131" gradientUnits="userSpaceOnUse">
<stop stop-color="#B9B8C0"/>
<stop offset="1" stop-color="#57565A"/>
</linearGradient>
<clipPath id="clip0_10025_63795">
<rect width="512.007" height="512.007" fill="white" transform="translate(0 0.414062)"/>
</clipPath>
</defs>
</svg>
