<svg width="513" height="513" viewBox="0 0 513 513" fill="none" xmlns="http://www.w3.org/2000/svg">
<g clip-path="url(#clip0_10025_63823)">
<path d="M128.992 331.878C147.461 313.501 150.569 297.135 148.283 294.849C147.488 294.364 146.561 294.141 145.632 294.21C132.246 296.711 120.117 303.711 111.255 314.05C92.7861 332.519 89.6781 348.792 91.9641 351.169C94.3411 353.456 110.523 350.347 128.992 331.878Z" fill="url(#paint0_linear_10025_63823)"/>
<path d="M501.838 64.2674L476.421 38.9414V39.7644C476.421 41.9584 476.421 44.1534 476.238 46.4384V48.4494C475.964 51.3754 475.689 54.4834 475.232 57.6834C475.141 58.3234 474.958 58.9634 474.866 59.6944C474.5 62.1634 474.043 64.7234 473.495 67.3744C473.312 68.4714 472.946 69.6604 472.764 70.8484C472.215 73.0424 471.667 75.3284 471.027 77.6144C470.661 78.8944 470.296 80.2654 469.93 81.5454C469.29 83.8314 468.559 86.0254 467.827 88.3114C467.37 89.6824 466.913 91.1454 466.456 92.6084C465.633 94.8944 464.81 97.2714 463.896 99.6484C463.347 101.019 462.799 102.482 462.25 103.945C461.244 106.505 460.147 109.156 458.959 111.808C458.41 113.088 457.953 114.277 457.313 115.557C455.576 119.58 453.747 123.603 451.736 127.626C423.759 185.135 375.119 250.049 314.867 310.209C307.827 317.249 300.787 324.106 293.747 330.689C291.736 332.609 289.633 334.438 287.621 336.358C282.41 341.112 277.29 345.775 272.078 350.347L265.221 356.381C260.101 360.678 255.072 364.975 249.952 369.181C247.758 370.918 245.563 372.747 243.369 374.575C237.7 379.146 232.032 383.535 226.363 387.741C224.809 388.93 223.254 390.21 221.7 391.398C214.843 396.518 208.077 401.364 201.403 406.027C198.294 408.13 195.369 410.05 192.352 412.061C188.695 414.53 185.129 416.907 181.472 419.192C177.632 421.661 173.701 424.038 169.769 426.415C167.483 427.786 165.289 429.158 163.003 430.438C152.58 436.564 142.34 442.232 132.283 447.078C97.4491 464.084 67.094 472.312 43.597 471.764L68.923 497.181C86.203 514.461 126.066 509.89 178.088 484.472C233.859 457.318 296.945 409.958 355.734 351.169C414.614 292.289 461.974 229.203 489.128 173.432C514.455 121.41 519.118 81.6384 501.838 64.2674Z" fill="url(#paint1_linear_10025_63823)"/>
<path d="M45.6091 411.238C72.2151 411.238 162.546 375.307 274.82 263.032C365.975 171.878 410.318 91.2378 421.198 48.1758C386.752 67.0158 353.389 87.7718 321.267 110.347C272.993 142.896 223.256 176.358 177.724 195.65C152.013 206.54 128.639 222.278 108.878 242.004C46.2491 304.633 37.7461 388.473 44.9691 411.238H45.6091ZM98.2721 301.158C118.661 280.769 146.821 267.604 161.175 281.958C175.529 296.312 162.364 324.472 141.975 344.861C127.529 359.307 109.244 370.095 94.6151 370.095C88.8281 370.288 83.2131 368.108 79.0721 364.061C64.7181 349.707 77.8831 321.547 98.2721 301.158Z" fill="url(#paint2_linear_10025_63823)"/>
<path d="M48.4431 453.571H49.5401C50.6381 453.571 51.7351 453.388 52.8311 453.297C54.1111 453.206 55.3001 453.206 56.5801 453.023C56.8541 453.023 57.0371 452.932 57.3111 452.932C80.7021 449.14 103.331 441.608 124.328 430.623C181.228 401.073 233.549 363.441 279.665 318.897C279.756 318.806 279.756 318.806 279.848 318.806C287.254 311.766 294.659 304.635 301.974 297.32C360.854 238.531 408.123 175.354 435.277 119.674C460.694 67.5587 465.266 27.7877 447.986 10.5077C444.056 6.86468 438.794 5.01168 433.449 5.38768C403.095 5.38768 344.306 44.6107 291.278 79.9937C245.929 110.257 198.935 141.617 158.249 158.531C40.6721 207.262 10.6831 315.788 4.28309 347.971C-5.40791 396.702 2.72909 430.988 15.1631 443.331C24.3451 451.233 36.4081 454.945 48.4431 453.571ZM27.9631 418.188C16.6261 386.097 29.5171 295.491 95.8941 229.114C117.325 207.701 142.688 190.627 170.591 178.828C214.477 160.268 263.482 127.171 310.842 95.2617C344.585 71.4067 379.794 49.6957 416.259 30.2557C422.07 27.4797 428.955 28.2607 433.996 32.2667C438.973 36.1937 441.249 42.6327 439.847 48.8157C429.881 93.4327 384.076 179.65 287.71 275.925C170.407 393.319 75.5041 429.525 44.8761 429.525C37.4171 429.676 30.6591 425.146 27.9631 418.188Z" fill="url(#paint3_linear_10025_63823)"/>
</g>
<defs>
<linearGradient id="paint0_linear_10025_63823" x1="120.124" y1="294.197" x2="120.124" y2="351.822" gradientUnits="userSpaceOnUse">
<stop stop-color="#B9B8C0"/>
<stop offset="1" stop-color="#57565A"/>
</linearGradient>
<linearGradient id="paint1_linear_10025_63823" x1="277.86" y1="38.9414" x2="277.86" y2="507.493" gradientUnits="userSpaceOnUse">
<stop stop-color="#B9B8C0"/>
<stop offset="1" stop-color="#57565A"/>
</linearGradient>
<linearGradient id="paint2_linear_10025_63823" x1="232.008" y1="48.1758" x2="232.008" y2="411.238" gradientUnits="userSpaceOnUse">
<stop stop-color="#B9B8C0"/>
<stop offset="1" stop-color="#57565A"/>
</linearGradient>
<linearGradient id="paint3_linear_10025_63823" x1="229.152" y1="5.33984" x2="229.152" y2="453.851" gradientUnits="userSpaceOnUse">
<stop stop-color="#B9B8C0"/>
<stop offset="1" stop-color="#57565A"/>
</linearGradient>
<clipPath id="clip0_10025_63823">
<rect width="512.116" height="512.116" fill="white" transform="translate(0.00708008 0.359375)"/>
</clipPath>
</defs>
</svg>
