<svg width="513" height="513" viewBox="0 0 513 513" fill="none" xmlns="http://www.w3.org/2000/svg">
<g clip-path="url(#clip0_10025_63868)">
<path d="M512.469 188.008C511.623 185.439 509.589 183.437 507.008 182.632L429.867 157.715C417.733 153.788 405.286 150.905 392.662 149.096L343.51 142.184L327.893 107.283C323.188 96.7337 317.652 86.5757 311.338 76.9037L264.064 4.19973C262.395 1.90773 259.731 0.552734 256.896 0.552734C254.061 0.552734 251.397 1.90873 249.728 4.19973L202.453 76.9037C196.139 86.5757 190.604 96.7337 185.898 107.283L170.282 142.184L121.13 149.096C108.505 150.904 96.0581 153.788 83.9251 157.715L6.78406 182.632C4.20206 183.437 2.16906 185.439 1.32306 188.008C0.464059 190.611 0.909059 193.469 2.51806 195.688L52.3531 265.747C59.2151 275.41 66.8341 284.512 75.1371 292.968L112.684 330.941L104.236 380.776C102.438 391.84 101.44 403.019 101.249 414.227L99.8841 503.656C99.8691 505.932 100.761 508.119 102.362 509.736C103.963 511.353 106.142 512.266 108.417 512.274C109.435 512.277 110.445 512.104 111.404 511.762L187.863 482.834C199.438 478.455 210.627 473.117 221.314 466.877L257.666 445.629L294.103 466.877C304.781 473.133 315.972 478.472 327.554 482.834L403.927 511.762C406.583 512.721 409.538 512.34 411.863 510.738C414.166 509.115 415.535 506.473 415.533 503.655L414.168 414.226C413.999 403.042 412.972 391.887 411.096 380.861L402.563 329.576L438.659 292.968C446.982 284.56 454.602 275.484 461.443 265.832L511.278 195.688C512.884 193.469 513.328 190.611 512.469 188.008ZM243.925 86.9727C245.525 81.1277 250.836 77.0747 256.896 77.0747C262.956 77.0747 268.267 81.1277 269.867 86.9727C276.635 102.859 280.896 119.7 282.496 136.893C282.496 161.128 271.488 179.474 256.896 179.474C242.304 179.474 231.296 161.127 231.296 136.893C232.896 119.7 237.157 102.859 243.925 86.9727ZM129.749 255.592C113.171 248.871 97.6061 239.882 83.4981 228.883C78.1541 225.782 75.6201 219.431 77.3601 213.503C79.1001 207.575 84.6641 203.602 90.8361 203.88C108.646 202.24 126.598 203.102 144.169 206.44C153.743 209.066 162.626 213.755 170.196 220.179C177.682 225.371 181.262 234.591 179.241 243.475C176.34 253.288 165.332 258.835 150.74 258.835C143.628 258.726 136.564 257.635 129.749 255.592ZM211.328 377.021C202.624 389.71 191.73 400.748 179.157 409.618C176.547 411.733 173.3 412.905 169.941 412.946C167.743 412.954 165.575 412.427 163.626 411.41C158.688 408.58 155.93 403.064 156.629 397.415C157.141 382.017 160.437 366.839 166.357 352.615C174.378 337.852 186.581 329.063 197.76 329.063C200.974 329.067 204.138 329.858 206.976 331.367C219.776 338.28 221.653 357.907 211.328 377.021ZM261.589 318.909C260.515 322.493 257.223 324.952 253.482 324.968H253.311C249.531 324.905 246.239 322.375 245.204 318.739L235.732 284.691L201.513 283.667C197.784 283.543 194.567 281.011 193.57 277.415C192.573 273.819 194.027 269.993 197.161 267.966L225.15 250.046L214.142 216.766C212.914 213.144 214.281 209.149 217.47 207.038C220.622 204.928 224.785 205.136 227.71 207.55L254.59 230.078L281.555 210.707C284.614 208.539 288.726 208.608 291.71 210.878C294.696 213.141 295.841 217.097 294.526 220.606L282.835 252.691L310.995 274.11C314.019 276.404 315.16 280.421 313.795 283.962C312.43 287.503 308.887 289.714 305.107 289.385L271.486 286.654L261.589 318.909ZM343.253 414.397C341.346 415.443 339.198 415.973 337.024 415.933C333.546 415.878 330.195 414.611 327.552 412.349C314.668 402.949 303.497 391.403 294.527 378.216C283.86 358.419 285.482 338.28 298.282 331.368C311.167 324.456 328.917 334.099 339.583 353.811C345.728 368.54 349.306 384.211 350.164 400.147C350.977 405.861 348.243 411.497 343.253 414.397ZM430.549 229.224C416.766 240.199 401.477 249.136 385.152 255.763C378.562 257.746 371.724 258.78 364.843 258.835C361.957 258.833 359.075 258.605 356.224 258.152C347.207 257.764 339.318 251.965 336.256 243.475C334.238 234.674 337.704 225.522 345.045 220.264C352.504 213.887 361.272 209.226 370.73 206.611C380.688 204.328 390.897 203.325 401.109 203.624C408.704 203.624 416.469 203.965 423.21 204.392C429.254 204.344 434.635 208.207 436.522 213.949C438.017 219.795 435.613 225.943 430.549 229.224Z" fill="url(#paint0_linear_10025_63868)"/>
<path d="M139.307 222.823C130.115 220.847 120.714 220.016 111.318 220.348C108.161 220.348 104.833 220.433 101.334 220.519C111.523 228.191 122.685 234.475 134.529 239.207C151.425 244.156 162.006 240.402 162.86 238.61C163.115 236.647 156.203 227.772 139.307 222.823Z" fill="url(#paint1_linear_10025_63868)"/>
<path d="M256.896 162.408C259.029 162.408 265.429 153.363 265.429 136.893C264.227 124.752 261.356 112.835 256.896 101.48C252.445 112.838 249.573 124.754 248.363 136.893C248.363 153.363 254.763 162.408 256.896 162.408Z" fill="url(#paint2_linear_10025_63868)"/>
<path d="M397.886 220.624C390.366 220.587 382.862 221.382 375.51 222.995C359.894 227.518 352.64 235.966 352.64 238.44V238.611C353.408 240.659 364.245 244.072 380.373 239.379C391.941 234.679 402.843 228.482 412.8 220.947C408.704 220.776 404.779 220.691 401.11 220.691C400.035 220.652 398.96 220.629 397.886 220.624Z" fill="url(#paint3_linear_10025_63868)"/>
<path d="M307.413 346.215C306.986 346.215 306.645 346.215 306.474 346.386C304.17 347.581 302.975 357.821 309.546 370.109C315.854 379.181 323.508 387.238 332.245 394.002C331.288 383.013 328.7 372.228 324.565 362.002C318.677 350.994 310.656 346.215 307.413 346.215Z" fill="url(#paint4_linear_10025_63868)"/>
<path d="M264.661 252.776L269.098 240.744L259.114 247.827C255.97 250.134 251.648 249.956 248.703 247.4L239.828 240.061L243.497 250.984C244.691 254.67 243.255 258.698 239.998 260.797L229.673 267.453L242.558 267.794C246.286 267.899 249.507 270.427 250.494 274.023L253.822 286.055L257.15 275.132C258.351 271.303 262.021 268.797 266.025 269.073L277.46 270.012L267.561 262.503C264.566 260.249 263.39 256.304 264.661 252.776Z" fill="url(#paint5_linear_10025_63868)"/>
<path d="M198.784 346.386C196.224 344.935 187.435 349.458 181.376 360.722C177.47 370.535 175.137 380.902 174.464 391.442C182.868 385.108 190.237 377.508 196.309 368.914C202.453 357.65 201.429 347.751 198.784 346.386Z" fill="url(#paint6_linear_10025_63868)"/>
</g>
<defs>
<linearGradient id="paint0_linear_10025_63868" x1="256.896" y1="0.552734" x2="256.896" y2="512.282" gradientUnits="userSpaceOnUse">
<stop stop-color="#B9B8C0"/>
<stop offset="1" stop-color="#57565A"/>
</linearGradient>
<linearGradient id="paint1_linear_10025_63868" x1="132.1" y1="220.277" x2="132.1" y2="241.667" gradientUnits="userSpaceOnUse">
<stop stop-color="#B9B8C0"/>
<stop offset="1" stop-color="#57565A"/>
</linearGradient>
<linearGradient id="paint2_linear_10025_63868" x1="256.896" y1="101.48" x2="256.896" y2="162.408" gradientUnits="userSpaceOnUse">
<stop stop-color="#B9B8C0"/>
<stop offset="1" stop-color="#57565A"/>
</linearGradient>
<linearGradient id="paint3_linear_10025_63868" x1="382.72" y1="220.623" x2="382.72" y2="241.739" gradientUnits="userSpaceOnUse">
<stop stop-color="#B9B8C0"/>
<stop offset="1" stop-color="#57565A"/>
</linearGradient>
<linearGradient id="paint4_linear_10025_63868" x1="318.444" y1="346.215" x2="318.444" y2="394.002" gradientUnits="userSpaceOnUse">
<stop stop-color="#B9B8C0"/>
<stop offset="1" stop-color="#57565A"/>
</linearGradient>
<linearGradient id="paint5_linear_10025_63868" x1="253.567" y1="240.061" x2="253.567" y2="286.055" gradientUnits="userSpaceOnUse">
<stop stop-color="#B9B8C0"/>
<stop offset="1" stop-color="#57565A"/>
</linearGradient>
<linearGradient id="paint6_linear_10025_63868" x1="187.665" y1="346.123" x2="187.665" y2="391.442" gradientUnits="userSpaceOnUse">
<stop stop-color="#B9B8C0"/>
<stop offset="1" stop-color="#57565A"/>
</linearGradient>
<clipPath id="clip0_10025_63868">
<rect width="512.006" height="512.006" fill="white" transform="translate(0.893066 0.414062)"/>
</clipPath>
</defs>
</svg>
