<svg width="513" height="513" viewBox="0 0 513 513" fill="none" xmlns="http://www.w3.org/2000/svg">
<g clip-path="url(#clip0_10025_63894)">
<path d="M29.7079 392.596C26.0959 388.985 20.2409 388.986 16.6299 392.598C13.0189 396.21 13.0199 402.065 16.6319 405.676L107.659 496.703C111.315 500.203 117.079 500.203 120.735 496.703C122.473 494.97 123.449 492.617 123.449 490.163C123.449 487.709 122.472 485.356 120.735 483.623L29.7079 392.596Z" fill="url(#paint0_linear_10025_63894)"/>
<path d="M310.212 139.936C258.538 206.248 122.887 341.9 56.5559 393.587L88.1509 425.181L119.747 456.775C171.426 390.462 307.081 254.811 373.403 203.124L341.808 171.53L310.212 139.936Z" fill="url(#paint1_linear_10025_63894)"/>
<path d="M3.62693 431.605C1.89193 433.339 0.916931 435.692 0.916931 438.145C0.916931 440.598 1.89193 442.951 3.62693 444.685L68.6449 509.712C72.2589 513.319 78.1109 513.319 81.7249 509.712L88.2629 503.17L10.1669 425.07L3.62693 431.605Z" fill="url(#paint2_linear_10025_63894)"/>
<path d="M354.773 80.4648L341.699 93.5388L419.797 171.646L432.881 158.563L393.822 119.514L354.773 80.4648Z" fill="url(#paint3_linear_10025_63894)"/>
<path d="M491.355 21.98C477.55 8.17397 458.825 0.417969 439.301 0.417969C419.777 0.417969 401.053 8.17397 387.247 21.981C375.087 33.048 366.993 47.875 364.26 64.088L449.247 149.07C465.46 146.34 480.288 138.247 491.354 126.088C520.056 97.32 520.056 50.749 491.355 21.98ZM478.279 113.007C474.709 116.577 468.921 116.577 465.35 113.007C461.78 109.437 461.78 103.649 465.35 100.078C479.701 85.68 479.701 62.386 465.35 47.989C461.78 44.419 461.78 38.631 465.35 35.06C468.92 31.489 474.708 31.49 478.279 35.06C499.773 56.598 499.773 91.47 478.279 113.007Z" fill="url(#paint4_linear_10025_63894)"/>
<path d="M322.301 100.008C318.645 96.5078 312.881 96.5078 309.225 100.008C305.618 103.622 305.618 109.474 309.225 113.088L400.252 204.115C402.588 206.456 405.995 207.372 409.19 206.517C412.385 205.662 414.88 203.167 415.734 199.973C416.589 196.778 415.673 193.371 413.332 191.035L322.301 100.008Z" fill="url(#paint5_linear_10025_63894)"/>
</g>
<defs>
<linearGradient id="paint0_linear_10025_63894" x1="68.6856" y1="389.889" x2="68.6856" y2="499.328" gradientUnits="userSpaceOnUse">
<stop stop-color="#B9B8C0"/>
<stop offset="1" stop-color="#57565A"/>
</linearGradient>
<linearGradient id="paint1_linear_10025_63894" x1="214.979" y1="139.936" x2="214.979" y2="456.775" gradientUnits="userSpaceOnUse">
<stop stop-color="#B9B8C0"/>
<stop offset="1" stop-color="#57565A"/>
</linearGradient>
<linearGradient id="paint2_linear_10025_63894" x1="44.5899" y1="425.07" x2="44.5899" y2="512.418" gradientUnits="userSpaceOnUse">
<stop stop-color="#B9B8C0"/>
<stop offset="1" stop-color="#57565A"/>
</linearGradient>
<linearGradient id="paint3_linear_10025_63894" x1="387.29" y1="80.4648" x2="387.29" y2="171.646" gradientUnits="userSpaceOnUse">
<stop stop-color="#B9B8C0"/>
<stop offset="1" stop-color="#57565A"/>
</linearGradient>
<linearGradient id="paint4_linear_10025_63894" x1="438.57" y1="0.417969" x2="438.57" y2="149.07" gradientUnits="userSpaceOnUse">
<stop stop-color="#B9B8C0"/>
<stop offset="1" stop-color="#57565A"/>
</linearGradient>
<linearGradient id="paint5_linear_10025_63894" x1="361.284" y1="97.3828" x2="361.284" y2="206.831" gradientUnits="userSpaceOnUse">
<stop stop-color="#B9B8C0"/>
<stop offset="1" stop-color="#57565A"/>
</linearGradient>
<clipPath id="clip0_10025_63894">
<rect width="512" height="512" fill="white" transform="translate(0.898926 0.417969)"/>
</clipPath>
</defs>
</svg>
