<svg width="513" height="513" viewBox="0 0 513 513" fill="none" xmlns="http://www.w3.org/2000/svg">
<g clip-path="url(#clip0_10025_63940)">
<path d="M503.757 82.7037C508.806 82.7037 512.9 78.6107 512.9 73.5607C512.9 68.5117 508.807 64.4177 503.757 64.4177C498.707 64.4177 494.614 60.3247 494.614 55.2747C494.614 50.2257 498.707 46.1317 503.757 46.1317C508.807 46.1317 512.9 42.0387 512.9 36.9887C512.9 31.9397 508.807 27.8457 503.757 27.8457H494.614C489.571 27.8307 485.486 23.7457 485.471 18.7027V9.56172C485.512 7.17972 484.549 4.89072 482.82 3.25272C481.158 1.42672 478.797 0.395716 476.329 0.418716C471.286 0.433716 467.201 4.51872 467.186 9.56172C467.186 14.6107 463.093 18.7047 458.043 18.7047C452.993 18.7047 448.9 14.6117 448.9 9.56172C448.941 7.17972 447.979 4.89072 446.249 3.25272C444.587 1.42672 442.226 0.395716 439.758 0.418716C434.864 0.453716 430.85 4.30672 430.615 9.19572C430.316 14.0257 426.312 17.7907 421.472 17.7907C416.632 17.7907 412.628 14.0257 412.329 9.19572C412.231 6.90472 411.248 4.74172 409.586 3.16172C407.936 1.38372 405.611 0.386716 403.186 0.418716C398.292 0.453716 394.278 4.30672 394.043 9.19572C393.744 14.0257 389.74 17.7907 384.9 17.7907C380.06 17.7907 376.056 14.0257 375.757 9.19572C375.659 6.90472 374.676 4.74172 373.014 3.16172C371.364 1.38372 369.039 0.386716 366.614 0.418716C361.72 0.453716 357.706 4.30672 357.471 9.19572C357.172 14.0257 353.168 17.7907 348.328 17.7907C343.488 17.7907 339.484 14.0257 339.185 9.19572C339.087 6.90472 338.104 4.74172 336.442 3.16172C334.792 1.38372 332.467 0.386716 330.042 0.418716C325.148 0.453716 321.134 4.30672 320.899 9.19572C320.6 14.0257 316.596 17.7907 311.756 17.7907C306.916 17.7907 302.912 14.0257 302.613 9.19572C302.515 6.90472 301.532 4.74172 299.87 3.16172C298.22 1.38372 295.895 0.386716 293.47 0.418716C288.576 0.453716 284.562 4.30672 284.327 9.19572C284.028 14.0257 280.024 17.7907 275.184 17.7907C270.344 17.7907 266.34 14.0257 266.041 9.19572C265.943 6.90472 264.96 4.74172 263.298 3.16172C261.648 1.38372 259.323 0.386716 256.898 0.418716C252.004 0.453716 247.99 4.30672 247.755 9.19572C247.456 14.0257 243.452 17.7907 238.612 17.7907C233.772 17.7907 229.768 14.0257 229.469 9.19572C229.371 6.90472 228.388 4.74172 226.726 3.16172C225.076 1.38372 222.751 0.386716 220.326 0.418716C215.432 0.453716 211.418 4.30672 211.183 9.19572C210.884 14.0257 206.88 17.7907 202.04 17.7907C197.2 17.7907 193.196 14.0257 192.897 9.19572C192.799 6.90472 191.816 4.74172 190.154 3.16172C188.504 1.38372 186.179 0.386716 183.754 0.418716C178.86 0.453716 174.846 4.30672 174.611 9.19572C174.312 14.0257 170.308 17.7907 165.468 17.7907C160.628 17.7907 156.624 14.0257 156.325 9.19572C156.227 6.90472 155.244 4.74172 153.582 3.16172C151.932 1.38372 149.607 0.386716 147.182 0.418716C142.288 0.453716 138.274 4.30672 138.039 9.19572C137.74 14.0257 133.736 17.7907 128.896 17.7907C124.056 17.7907 120.052 14.0257 119.753 9.19572C119.655 6.90472 118.672 4.74172 117.01 3.16172C115.36 1.38372 113.035 0.386716 110.61 0.418716C105.716 0.453716 101.702 4.30672 101.467 9.19572C101.168 14.0257 97.1639 17.7907 92.3239 17.7907C87.4839 17.7907 83.4799 14.0257 83.1809 9.19572C83.0829 6.90472 82.0999 4.74172 80.4379 3.16172C78.7879 1.38372 76.4629 0.386716 74.0379 0.418716C69.1439 0.453716 65.1299 4.30672 64.8949 9.19572C64.5959 14.0257 60.5919 17.7907 55.7519 17.7907C50.9119 17.7907 46.9079 14.0257 46.6089 9.19572C46.5109 6.90472 45.5279 4.74172 43.8659 3.16172C42.2159 1.38372 39.8909 0.386716 37.4659 0.418716C32.4229 0.433716 28.3379 4.51872 28.3229 9.56172V18.7047C28.3079 23.7477 24.2229 27.8327 19.1799 27.8477H10.0429C7.66091 27.8067 5.37191 28.7697 3.73391 30.4987C1.90791 32.1607 0.876913 34.5217 0.899913 36.9897C0.914913 42.0327 4.99991 46.1177 10.0429 46.1327C15.0919 46.1327 19.1859 50.2257 19.1859 55.2757C19.1859 60.3247 15.0929 64.4187 10.0429 64.4187C7.66091 64.3777 5.37191 65.3407 3.73391 67.0697C1.90791 68.7317 0.876913 71.0927 0.899913 73.5607C0.914913 78.6037 4.99991 82.6887 10.0429 82.7037C15.0919 82.7037 19.1859 86.7967 19.1859 91.8467C19.1859 96.8957 15.0929 100.99 10.0429 100.99C7.66091 100.949 5.37191 101.912 3.73391 103.641C1.90791 105.303 0.876913 107.664 0.899913 110.132C0.914913 115.175 4.99991 119.26 10.0429 119.275C15.0919 119.275 19.1859 123.368 19.1859 128.418C19.1859 133.467 15.0929 137.561 10.0429 137.561C7.66091 137.52 5.37191 138.483 3.73391 140.212C1.90791 141.874 0.876913 144.235 0.899913 146.703C0.914913 151.746 4.99991 155.831 10.0429 155.846C15.0919 155.846 19.1859 159.939 19.1859 164.989C19.1859 170.038 15.0929 174.132 10.0429 174.132C7.66091 174.091 5.37191 175.054 3.73391 176.783C1.90791 178.445 0.876913 180.806 0.899913 183.274C0.914913 188.317 4.99991 192.402 10.0429 192.417C15.0919 192.417 19.1859 196.51 19.1859 201.56C19.1859 206.609 15.0929 210.703 10.0429 210.703C7.66091 210.662 5.37191 211.625 3.73391 213.354C1.90791 215.016 0.876913 217.377 0.899913 219.845C0.914913 224.888 4.99991 228.973 10.0429 228.988C15.0919 228.988 19.1859 233.081 19.1859 238.131C19.1859 243.181 15.0929 247.274 10.0429 247.274C7.66091 247.233 5.37191 248.195 3.73391 249.925C1.90791 251.587 0.876913 253.948 0.899913 256.416C0.914913 261.459 4.99991 265.544 10.0429 265.559C15.0919 265.559 19.1859 269.652 19.1859 274.702C19.1859 279.751 15.0929 283.845 10.0429 283.845C7.66091 283.804 5.37191 284.767 3.73391 286.496C1.90791 288.158 0.876913 290.519 0.899913 292.987C0.914913 298.03 4.99991 302.115 10.0429 302.13C15.0919 302.13 19.1859 306.223 19.1859 311.273C19.1859 316.322 15.0929 320.416 10.0429 320.416C7.66091 320.375 5.37191 321.338 3.73391 323.067C1.90791 324.729 0.876913 327.09 0.899913 329.558C0.914913 334.601 4.99991 338.686 10.0429 338.701C15.0919 338.701 19.1859 342.794 19.1859 347.844C19.1859 352.894 15.0929 356.987 10.0429 356.987C7.66091 356.946 5.37191 357.908 3.73391 359.638C1.90791 361.3 0.876913 363.661 0.899913 366.129C0.914913 371.172 4.99991 375.257 10.0429 375.272C15.0919 375.272 19.1859 379.365 19.1859 384.415C19.1859 389.464 15.0929 393.558 10.0429 393.558C7.66091 393.517 5.37191 394.48 3.73391 396.209C1.90791 397.871 0.876913 400.232 0.899913 402.7C0.914913 407.743 4.99991 411.828 10.0429 411.843C15.0919 411.843 19.1859 415.936 19.1859 420.986C19.1859 426.035 15.0929 430.129 10.0429 430.129C7.66091 430.088 5.37191 431.051 3.73391 432.78C1.90791 434.442 0.876913 436.803 0.899913 439.271C0.914913 444.314 4.99991 448.399 10.0429 448.414C15.0919 448.414 19.1859 452.507 19.1859 457.557C19.1859 462.607 15.0929 466.7 10.0429 466.7C7.66091 466.659 5.37191 467.622 3.73391 469.351C1.90791 471.013 0.876913 473.374 0.899913 475.842C0.914913 480.885 4.99991 484.97 10.0429 484.985H19.1859C24.2289 485 28.3139 489.085 28.3289 494.128V503.271C28.3289 508.32 32.4219 512.414 37.4719 512.414C42.5209 512.414 46.6149 508.321 46.6149 503.271C46.6149 498.221 50.7079 494.128 55.7579 494.128C60.8069 494.128 64.9009 498.221 64.9009 503.271C64.9029 508.267 68.9129 512.337 73.9089 512.412C78.9039 512.487 83.0349 508.539 83.1869 503.545C83.3869 498.64 87.4209 494.767 92.3299 494.767C97.2389 494.767 101.273 498.64 101.473 503.545C101.623 508.487 105.672 512.415 110.616 512.415C115.56 512.415 119.609 508.487 119.759 503.545C119.959 498.64 123.993 494.767 128.902 494.767C133.811 494.767 137.845 498.64 138.045 503.545C138.195 508.487 142.244 512.415 147.188 512.415C152.132 512.415 156.181 508.487 156.331 503.545C156.531 498.64 160.565 494.767 165.474 494.767C170.383 494.767 174.417 498.64 174.617 503.545C174.767 508.487 178.816 512.415 183.76 512.415C188.704 512.415 192.753 508.487 192.903 503.545C193.103 498.64 197.137 494.767 202.046 494.767C206.955 494.767 210.989 498.64 211.189 503.545C211.339 508.487 215.388 512.415 220.332 512.415C225.276 512.415 229.325 508.487 229.475 503.545C229.675 498.64 233.709 494.767 238.618 494.767C243.527 494.767 247.561 498.64 247.761 503.545C247.911 508.487 251.96 512.415 256.904 512.415C261.848 512.415 265.897 508.487 266.047 503.545C266.247 498.64 270.281 494.767 275.19 494.767C280.099 494.767 284.133 498.64 284.333 503.545C284.483 508.487 288.532 512.415 293.476 512.415C298.42 512.415 302.469 508.487 302.619 503.545C302.819 498.64 306.853 494.767 311.762 494.767C316.671 494.767 320.705 498.64 320.905 503.545C321.055 508.487 325.104 512.415 330.048 512.415C334.992 512.415 339.041 508.487 339.191 503.545C339.391 498.64 343.425 494.767 348.334 494.767C353.243 494.767 357.277 498.64 357.477 503.545C357.627 508.487 361.676 512.415 366.62 512.415C371.564 512.415 375.613 508.487 375.763 503.545C375.963 498.64 379.997 494.767 384.906 494.767C389.815 494.767 393.849 498.64 394.049 503.545C394.199 508.487 398.248 512.415 403.192 512.415C408.136 512.415 412.185 508.487 412.335 503.545C412.535 498.64 416.569 494.767 421.478 494.767C426.387 494.767 430.421 498.64 430.621 503.545C430.771 508.487 434.82 512.415 439.764 512.415C444.708 512.415 448.757 508.487 448.907 503.545C449.107 498.64 453.141 494.767 458.05 494.767C462.959 494.767 466.993 498.64 467.193 503.545C467.345 508.539 471.476 512.487 476.471 512.412C481.466 512.337 485.477 508.267 485.479 503.271V494.128C485.494 489.085 489.579 485 494.622 484.985H503.765C508.814 484.985 512.908 480.892 512.908 475.842C512.908 470.792 508.815 466.699 503.765 466.699C498.715 466.699 494.622 462.606 494.622 457.556C494.622 452.506 498.715 448.413 503.765 448.413C508.815 448.413 512.908 444.32 512.908 439.27C512.908 434.221 508.815 430.127 503.765 430.127C498.715 430.127 494.622 426.034 494.622 420.984C494.622 415.935 498.715 411.841 503.765 411.841C508.815 411.841 512.908 407.748 512.908 402.698C512.908 397.649 508.815 393.555 503.765 393.555C498.715 393.555 494.622 389.462 494.622 384.412C494.622 379.363 498.715 375.269 503.765 375.269C508.815 375.269 512.908 371.176 512.908 366.126C512.908 361.076 508.815 356.983 503.765 356.983C498.715 356.983 494.622 352.89 494.622 347.84C494.622 342.79 498.715 338.697 503.765 338.697C508.815 338.697 512.908 334.604 512.908 329.554C512.908 324.504 508.815 320.411 503.765 320.411C498.715 320.411 494.622 316.318 494.622 311.268C494.622 306.219 498.715 302.125 503.765 302.125C508.815 302.125 512.908 298.032 512.908 292.982C512.908 287.933 508.815 283.839 503.765 283.839C498.715 283.839 494.622 279.746 494.622 274.696C494.622 269.647 498.715 265.553 503.765 265.553C508.815 265.553 512.908 261.46 512.908 256.41C512.908 251.36 508.815 247.267 503.765 247.267C498.715 247.267 494.622 243.174 494.622 238.124C494.622 233.074 498.715 228.981 503.765 228.981C508.815 228.981 512.908 224.888 512.908 219.838C512.908 214.788 508.815 210.695 503.765 210.695C498.715 210.695 494.622 206.602 494.622 201.552C494.622 196.503 498.715 192.409 503.765 192.409C508.815 192.409 512.908 188.316 512.908 183.266C512.908 178.217 508.815 174.123 503.765 174.123C498.715 174.123 494.622 170.03 494.622 164.98C494.622 159.931 498.715 155.837 503.765 155.837C508.815 155.837 512.908 151.744 512.908 146.694C512.908 141.645 508.815 137.551 503.765 137.551C498.715 137.551 494.622 133.458 494.622 128.408C494.622 123.359 498.715 119.265 503.765 119.265C508.815 119.265 512.908 115.172 512.908 110.122C512.908 105.072 508.815 100.979 503.765 100.979C498.715 100.979 494.622 96.8857 494.622 91.8357C494.614 86.7977 498.708 82.7037 503.757 82.7037ZM83.1859 448.419C68.0379 448.419 55.7569 436.139 55.7569 420.99C55.7569 405.842 68.0369 393.561 83.1859 393.561C98.3349 393.561 110.615 405.841 110.615 420.99C110.57 436.12 98.3159 448.374 83.1859 448.419ZM83.1859 283.847C68.0379 283.847 55.7569 271.567 55.7569 256.418C55.7569 241.269 68.0369 228.989 83.1859 228.989C98.3349 228.989 110.615 241.269 110.615 256.418C110.57 271.549 98.3159 283.803 83.1859 283.847ZM83.1859 119.276C68.0379 119.276 55.7569 106.996 55.7569 91.8467C55.7569 76.6977 68.0369 64.4177 83.1859 64.4177C98.3349 64.4177 110.615 76.6977 110.615 91.8467C110.57 106.977 98.3159 119.232 83.1859 119.276ZM165.472 366.133C150.324 366.133 138.043 353.853 138.043 338.704C138.043 323.556 150.323 311.275 165.472 311.275C180.62 311.275 192.901 323.555 192.901 338.704C192.856 353.834 180.602 366.089 165.472 366.133ZM165.472 201.562C150.324 201.562 138.043 189.282 138.043 174.133C138.043 158.984 150.323 146.704 165.472 146.704C180.62 146.704 192.901 158.984 192.901 174.133C192.856 189.263 180.602 201.517 165.472 201.562ZM256.9 448.419C241.752 448.419 229.471 436.139 229.471 420.99C229.471 405.842 241.751 393.561 256.9 393.561C272.048 393.561 284.329 405.841 284.329 420.99C284.284 436.12 272.03 448.374 256.9 448.419ZM256.9 283.847C241.752 283.847 229.471 271.567 229.471 256.418C229.471 241.269 241.751 228.989 256.9 228.989C272.048 228.989 284.329 241.269 284.329 256.418C284.284 271.549 272.03 283.803 256.9 283.847ZM256.9 119.276C241.752 119.276 229.471 106.996 229.471 91.8467C229.471 76.6977 241.751 64.4177 256.9 64.4177C272.048 64.4177 284.329 76.6977 284.329 91.8467C284.284 106.977 272.03 119.232 256.9 119.276ZM348.329 366.133C333.181 366.133 320.9 353.853 320.9 338.704C320.9 323.556 333.18 311.275 348.329 311.275C363.478 311.275 375.758 323.555 375.758 338.704C375.713 353.834 363.459 366.089 348.329 366.133ZM348.329 201.562C333.181 201.562 320.9 189.282 320.9 174.133C320.9 158.984 333.18 146.704 348.329 146.704C363.478 146.704 375.758 158.984 375.758 174.133C375.713 189.263 363.459 201.517 348.329 201.562ZM430.614 448.419C415.466 448.419 403.185 436.139 403.185 420.99C403.185 405.842 415.465 393.561 430.614 393.561C445.763 393.561 458.043 405.841 458.043 420.99C457.999 436.12 445.744 448.374 430.614 448.419ZM430.614 283.847C415.466 283.847 403.185 271.567 403.185 256.418C403.185 241.269 415.465 228.989 430.614 228.989C445.763 228.989 458.043 241.269 458.043 256.418C457.999 271.549 445.744 283.803 430.614 283.847ZM430.614 119.276C415.466 119.276 403.185 106.996 403.185 91.8467C403.185 76.6977 415.465 64.4177 430.614 64.4177C445.763 64.4177 458.043 76.6977 458.043 91.8467C457.999 106.977 445.744 119.232 430.614 119.276Z" fill="url(#paint0_linear_10025_63940)"/>
</g>
<defs>
<linearGradient id="paint0_linear_10025_63940" x1="256.904" y1="0.417969" x2="256.904" y2="512.415" gradientUnits="userSpaceOnUse">
<stop stop-color="#B9B8C0"/>
<stop offset="1" stop-color="#57565A"/>
</linearGradient>
<clipPath id="clip0_10025_63940">
<rect width="512.002" height="512.002" fill="white" transform="translate(0.898926 0.417969)"/>
</clipPath>
</defs>
</svg>
