<svg width="513" height="513" viewBox="0 0 513 513" fill="none" xmlns="http://www.w3.org/2000/svg">
<g clip-path="url(#clip0_10025_63959)">
<path d="M264.068 9.57073C264.053 4.52773 259.969 0.442734 254.925 0.427734C249.882 0.442734 245.797 4.52673 245.782 9.57073V155.857H264.068V9.57073Z" fill="url(#paint0_linear_10025_63959)"/>
<path d="M301.463 161.341C303.292 161.798 305.211 162.072 307.039 162.53L354.948 30.9639V30.8729C355.776 28.6729 355.677 26.2319 354.673 24.1069C353.646 21.8659 351.772 20.1239 349.463 19.2609C347.184 18.4199 344.664 18.5269 342.465 19.5579C340.266 20.5889 338.571 22.4569 337.76 24.7469L289.028 158.69C290.399 158.873 291.679 159.33 293.05 159.513C295.885 160.061 298.628 160.701 301.463 161.341Z" fill="url(#paint1_linear_10025_63959)"/>
<path d="M202.811 162.53C204.64 162.073 206.467 161.799 208.297 161.341C211.131 160.701 213.966 160.061 216.892 159.512C218.171 159.238 219.451 158.872 220.823 158.689L172.09 24.747C171.261 22.447 169.55 20.572 167.336 19.536C166.126 19.002 164.819 18.722 163.497 18.713C162.466 18.709 161.443 18.895 160.479 19.262C158.129 20.093 156.216 21.841 155.178 24.108C154.175 26.233 154.076 28.674 154.904 30.874L202.811 162.53Z" fill="url(#paint2_linear_10025_63959)"/>
<path d="M448.205 72.291C444.61 68.817 438.909 68.817 435.314 72.291L335.291 172.314C336.297 172.771 337.302 173.32 338.308 173.777C341.142 175.057 343.885 176.52 346.719 177.983C348.639 178.989 350.65 179.812 352.569 180.817L448.204 85.183C451.739 81.612 451.739 75.861 448.205 72.291Z" fill="url(#paint3_linear_10025_63959)"/>
<path d="M166.423 176.337C169.165 174.966 171.816 173.686 174.559 172.406C175.566 172.04 176.388 171.492 177.394 171.126L78.4678 72.2912C75.8438 69.7192 71.9348 68.9683 68.5438 70.3843C65.1528 71.8003 62.9398 75.1083 62.9248 78.7833C62.9188 81.1853 63.8728 83.4892 65.5758 85.1832L159.839 179.446C161.943 178.257 164.229 177.342 166.423 176.337Z" fill="url(#paint4_linear_10025_63959)"/>
<path d="M364.639 329.57C382.164 330.493 399.415 324.927 413.096 313.936C414.761 312.314 416.988 311.397 419.313 311.376C417.775 285.469 408.614 260.595 392.982 239.879C376.615 251.165 357.085 256.96 337.211 256.428C332.162 256.428 328.068 252.335 328.068 247.285C328.068 242.236 332.161 238.142 337.211 238.142C352.778 238.654 368.128 234.378 381.189 225.891C371.736 215.927 361.007 207.258 349.28 200.108C338.835 193.674 327.702 188.43 316.09 184.474C315.725 184.291 315.359 184.2 314.994 184.017C313.44 183.468 311.793 183.011 310.148 182.463C298.879 178.982 287.308 176.564 275.588 175.24C261.882 173.777 248.059 173.777 234.354 175.24C222.659 176.536 211.117 178.955 199.885 182.463C198.92 182.662 197.972 182.937 197.05 183.286C185.166 187.171 173.733 192.321 162.947 198.646C146.57 208.234 132.047 220.683 120.067 235.4C133.036 243.6 148.159 247.739 163.496 247.286C168.545 247.286 172.639 251.379 172.639 256.429C172.639 261.479 168.546 265.572 163.496 265.572C144.431 266.018 125.671 260.731 109.645 250.395C93.5449 276.062 87.2159 306.665 91.8159 336.612C106.318 350.041 125.449 357.346 145.211 357.001C150.26 357.001 154.354 361.094 154.354 366.144C154.354 371.194 150.261 375.287 145.211 375.287C129.205 375.438 113.409 371.638 99.2219 364.224C114.295 400.79 143.121 429.977 179.496 445.504C184.159 447.607 188.547 449.344 192.57 450.807C217.344 458.728 236.501 478.536 243.588 503.561C243.679 503.835 243.679 504.11 243.771 504.384C245.415 509.31 250.099 512.571 255.289 512.402C260.479 512.233 264.942 508.675 266.262 503.652C266.719 501.823 267.086 500.361 267.633 498.806C275.639 475.96 293.928 458.213 317.004 450.897C322.123 449.068 326.33 447.331 330.261 445.503C380.181 423.012 412.912 380.589 418.49 332.68C402.464 343.016 383.704 348.303 364.639 347.857C359.596 347.842 355.511 343.758 355.496 338.714C355.511 333.669 359.596 329.585 364.639 329.57ZM302.834 414.141C287.115 417.926 271.075 420.221 254.925 420.998C238.776 420.221 222.735 417.925 207.016 414.141C202.151 412.904 199.185 407.985 200.362 403.105C201.538 398.225 206.419 395.198 211.313 396.312C225.62 399.794 240.22 401.937 254.924 402.712C269.628 401.937 284.228 399.794 298.535 396.312C303.429 395.197 308.31 398.225 309.487 403.105C310.664 407.985 307.698 412.904 302.834 414.141ZM303.566 301.684C287.828 306.945 271.482 310.171 254.925 311.284C238.368 310.171 222.022 306.945 206.284 301.684C201.51 300.051 198.954 294.867 200.565 290.085C202.176 285.304 207.348 282.723 212.137 284.312C225.985 288.969 240.357 291.887 254.925 292.998C269.494 291.899 283.868 288.981 297.713 284.312C302.502 282.723 307.674 285.303 309.285 290.085C310.896 294.867 308.34 300.051 303.566 301.684Z" fill="url(#paint5_linear_10025_63959)"/>
</g>
<defs>
<linearGradient id="paint0_linear_10025_63959" x1="254.925" y1="0.427734" x2="254.925" y2="155.857" gradientUnits="userSpaceOnUse">
<stop stop-color="#B9B8C0"/>
<stop offset="1" stop-color="#57565A"/>
</linearGradient>
<linearGradient id="paint1_linear_10025_63959" x1="322.266" y1="18.6992" x2="322.266" y2="162.53" gradientUnits="userSpaceOnUse">
<stop stop-color="#B9B8C0"/>
<stop offset="1" stop-color="#57565A"/>
</linearGradient>
<linearGradient id="paint2_linear_10025_63959" x1="187.585" y1="18.7129" x2="187.585" y2="162.53" gradientUnits="userSpaceOnUse">
<stop stop-color="#B9B8C0"/>
<stop offset="1" stop-color="#57565A"/>
</linearGradient>
<linearGradient id="paint3_linear_10025_63959" x1="393.073" y1="69.6855" x2="393.073" y2="180.817" gradientUnits="userSpaceOnUse">
<stop stop-color="#B9B8C0"/>
<stop offset="1" stop-color="#57565A"/>
</linearGradient>
<linearGradient id="paint4_linear_10025_63959" x1="120.159" y1="69.6777" x2="120.159" y2="179.446" gradientUnits="userSpaceOnUse">
<stop stop-color="#B9B8C0"/>
<stop offset="1" stop-color="#57565A"/>
</linearGradient>
<linearGradient id="paint5_linear_10025_63959" x1="254.833" y1="174.143" x2="254.833" y2="512.408" gradientUnits="userSpaceOnUse">
<stop stop-color="#B9B8C0"/>
<stop offset="1" stop-color="#57565A"/>
</linearGradient>
<clipPath id="clip0_10025_63959">
<rect width="511.979" height="511.979" fill="white" transform="translate(0.900879 0.427734)"/>
</clipPath>
</defs>
</svg>
