<svg width="513" height="513" viewBox="0 0 513 513" fill="none" xmlns="http://www.w3.org/2000/svg">
<g clip-path="url(#clip0_10025_63984)">
<path d="M354.395 42.9488C356.266 40.7498 356.855 37.7348 355.949 34.9938C354.95 31.9208 352.446 29.5728 349.315 28.7748L323.306 21.6498C319.597 20.5228 315.573 21.6798 313.029 24.6048C285.384 59.9198 264.414 99.9828 251.149 142.825L299.551 150.04C309.891 110.804 328.6 74.2698 354.395 42.9488Z" fill="url(#paint0_linear_10025_63984)"/>
<path d="M136.207 125.836C136.655 125.835 137.103 125.868 137.546 125.934L166.742 130.255C177.036 90.5812 195.942 53.6622 222.117 22.1212C223.97 19.8772 224.537 16.8372 223.617 14.0762C222.594 11.0262 220.086 8.70922 216.965 7.92922L191.02 0.805221C187.277 -0.324779 183.218 0.813221 180.609 3.72522C152.19 40.1852 130.813 81.6212 117.573 125.912C118.475 125.863 119.377 125.836 120.287 125.836H136.207Z" fill="url(#paint1_linear_10025_63984)"/>
<path d="M103.502 299.528C99.063 311.637 95.893 324.173 94.042 336.937L172.985 349.402C175.016 335.44 178.486 321.726 183.341 308.48C183.883 306.998 184.561 305.501 185.14 304.015L106.952 290.984C105.77 293.836 104.541 296.696 103.502 299.528Z" fill="url(#paint2_linear_10025_63984)"/>
<path d="M247.779 375.257C247.779 284.395 321.199 206.784 352.761 177.632C353.161 177.262 353.636 177.004 354.048 176.649L172.574 149.605L172.567 149.603L135.538 144.123H120.288C116.569 144.122 112.882 144.809 109.413 146.15C105.982 147.497 102.83 149.47 100.118 151.967C70.3589 179.471 1.04587 252.543 1.04587 336.128C-0.455129 376.237 16.2319 414.88 46.4569 441.289C73.0109 463.575 109.796 469.213 145.359 474.668L307.042 500.242C304.56 498.427 302.1 496.529 299.68 494.503C265.725 466.078 247.779 424.842 247.779 375.257ZM238.454 302.863C238.065 307.603 234.107 311.253 229.351 311.257C228.846 311.257 228.341 311.215 227.842 311.132L203.605 307.092C202.558 309.654 201.442 312.225 200.511 314.77C196.059 326.901 192.882 339.463 191.033 352.252L221.627 357.083C226.336 357.831 229.681 362.072 229.309 366.826C228.938 371.58 224.975 375.25 220.207 375.257C219.726 375.257 219.245 375.22 218.769 375.145L189.405 370.509C189.365 371.93 189.197 373.376 189.197 374.788C189.175 384.812 190.059 394.817 191.84 404.681C192.664 409.154 193.737 413.511 194.94 417.79L212.741 421.128C217.378 422.001 220.589 426.259 220.154 430.957C219.719 435.655 215.781 439.251 211.063 439.258C210.494 439.258 209.926 439.206 209.367 439.102L200.474 437.435C199.954 441.96 196.118 445.372 191.563 445.361C187.859 445.359 184.521 443.124 183.108 439.7C182.322 437.795 181.753 435.746 181.041 433.79L103.353 419.224C104.266 423.459 102.037 427.744 98.0449 429.427C95.8019 430.354 93.2829 430.349 91.0429 429.416C88.8029 428.482 87.0269 426.695 86.1069 424.45C84.9039 421.526 83.9709 418.432 82.9419 415.397L63.0799 411.673C58.1229 410.735 54.8619 405.96 55.7929 401.001C56.7239 396.043 61.4949 392.775 66.4549 393.7L77.5779 395.785C77.3679 394.756 77.0479 393.776 76.8569 392.74C74.8719 381.788 73.8859 370.679 73.9099 359.548C73.9099 357.162 74.1539 354.733 74.2569 352.329L45.0529 347.718C40.0649 346.929 36.6609 342.246 37.4499 337.258C38.2389 332.27 42.9219 328.866 47.9099 329.655L75.9929 334.089C78.0259 320.151 81.4929 306.461 86.3389 293.235C86.9859 291.467 87.7889 289.681 88.4889 287.907L63.2679 283.704C58.2879 282.876 54.9219 278.167 55.7499 273.186C56.5779 268.206 61.2869 264.84 66.2679 265.668L96.0649 270.634C101.799 258.727 108.307 247.208 115.545 236.15C117.334 233.416 120.446 231.845 123.709 232.028C126.971 232.211 129.888 234.12 131.361 237.037C132.834 239.954 132.639 243.434 130.849 246.168C125.004 255.064 119.653 264.276 114.82 273.76L192.65 286.732C198.482 274.516 205.131 262.707 212.554 251.387C214.345 248.656 217.457 247.089 220.717 247.275C223.977 247.461 226.891 249.372 228.36 252.288C229.829 255.204 229.631 258.683 227.84 261.414C221.824 270.574 216.337 280.071 211.405 289.857L230.84 293.096C235.533 293.876 238.843 298.123 238.454 302.863Z" fill="url(#paint3_linear_10025_63984)"/>
<path d="M170.913 374.787C170.913 372.426 171.156 370.021 171.257 367.642L92.4099 355.193C92.3679 356.638 92.1979 358.11 92.1979 359.546C92.1749 369.567 93.0599 379.569 94.8409 389.43C95.4679 392.848 96.3589 396.149 97.2129 399.465L175.308 414.108C174.848 412.056 174.243 410.073 173.859 407.989C171.875 397.033 170.889 385.921 170.913 374.787Z" fill="url(#paint4_linear_10025_63984)"/>
<path d="M366.788 283.828H397.101C399.97 283.831 402.674 282.485 404.401 280.194C406.128 277.903 406.679 274.934 405.887 272.176L399.619 250.247C397.676 243.441 391.659 238.595 384.596 238.147C377.532 237.699 370.951 241.746 368.164 248.252L358.378 271.087C357.172 273.913 357.464 277.155 359.157 279.72C360.848 282.284 363.715 283.827 366.788 283.828Z" fill="url(#paint5_linear_10025_63984)"/>
<path d="M401.243 164.971C411.876 164.985 422.195 168.573 430.544 175.157C440.415 133.357 459.748 94.3809 487.055 61.2299C488.917 59.0309 489.506 56.0219 488.609 53.2839C487.609 50.2069 485.102 47.8579 481.966 47.0609L455.957 39.9359C452.248 38.7999 448.219 39.9589 445.68 42.8909C417.648 78.5509 396.506 119.123 383.339 162.529L399.724 164.971H401.243Z" fill="url(#paint6_linear_10025_63984)"/>
<path d="M484.02 347.332C454.539 306.067 435.883 258.064 429.761 207.721C427.836 193.514 415.578 182.998 401.243 183.257H385.27C377.825 183.229 370.645 186.018 365.172 191.065C335.368 218.587 266.065 291.619 266.065 375.257C264.578 415.369 281.234 454.019 311.414 480.485C339.078 502.114 373.428 513.403 408.53 512.4C447.021 512.4 479.423 497.98 497.405 472.837C530.457 426.666 503.207 374.385 484.02 347.332ZM341.573 263.881L351.359 241.046C357.196 227.429 370.972 218.959 385.758 219.897C400.544 220.835 413.139 230.978 417.208 245.224L423.476 267.148C425.842 275.424 424.186 284.331 419.002 291.203C413.818 298.075 405.709 302.114 397.101 302.112H366.788C357.568 302.111 348.966 297.479 343.89 289.783C338.814 282.087 337.943 272.356 341.573 263.881ZM465.841 467.796C451.96 484.491 431.365 494.137 409.653 494.113H395.528C374.434 494.115 354.366 485.01 340.474 469.135L321.18 447.082C303.218 426.513 294.694 399.36 297.68 372.216C300.92 342.928 326.727 321.437 356.118 323.551L398.707 326.596C427.675 328.736 453.393 345.926 466.448 371.873L474.993 388.967C487.87 414.728 484.278 445.669 465.841 467.796Z" fill="url(#paint7_linear_10025_63984)"/>
<path d="M450.091 380.05C439.937 359.869 419.934 346.5 397.403 344.836L354.814 341.791C353.921 341.728 353.028 341.693 352.144 341.693C333.512 341.678 317.865 355.71 315.858 374.233C313.428 396.278 320.348 418.332 334.938 435.037L354.242 457.091C364.658 468.999 379.708 475.829 395.528 475.828H409.653C428.533 475.886 446.098 466.165 456.076 450.137C466.054 434.108 467.022 414.056 458.635 397.141L450.091 380.05Z" fill="url(#paint8_linear_10025_63984)"/>
</g>
<defs>
<linearGradient id="paint0_linear_10025_63984" x1="303.758" y1="21.2246" x2="303.758" y2="150.04" gradientUnits="userSpaceOnUse">
<stop stop-color="#B9B8C0"/>
<stop offset="1" stop-color="#57565A"/>
</linearGradient>
<linearGradient id="paint1_linear_10025_63984" x1="170.811" y1="0.375" x2="170.811" y2="130.255" gradientUnits="userSpaceOnUse">
<stop stop-color="#B9B8C0"/>
<stop offset="1" stop-color="#57565A"/>
</linearGradient>
<linearGradient id="paint2_linear_10025_63984" x1="139.591" y1="290.984" x2="139.591" y2="349.402" gradientUnits="userSpaceOnUse">
<stop stop-color="#B9B8C0"/>
<stop offset="1" stop-color="#57565A"/>
</linearGradient>
<linearGradient id="paint3_linear_10025_63984" x1="177.5" y1="144.123" x2="177.5" y2="500.242" gradientUnits="userSpaceOnUse">
<stop stop-color="#B9B8C0"/>
<stop offset="1" stop-color="#57565A"/>
</linearGradient>
<linearGradient id="paint4_linear_10025_63984" x1="133.753" y1="355.193" x2="133.753" y2="414.108" gradientUnits="userSpaceOnUse">
<stop stop-color="#B9B8C0"/>
<stop offset="1" stop-color="#57565A"/>
</linearGradient>
<linearGradient id="paint5_linear_10025_63984" x1="381.942" y1="238.113" x2="381.942" y2="283.828" gradientUnits="userSpaceOnUse">
<stop stop-color="#B9B8C0"/>
<stop offset="1" stop-color="#57565A"/>
</linearGradient>
<linearGradient id="paint6_linear_10025_63984" x1="436.18" y1="39.5059" x2="436.18" y2="175.157" gradientUnits="userSpaceOnUse">
<stop stop-color="#B9B8C0"/>
<stop offset="1" stop-color="#57565A"/>
</linearGradient>
<linearGradient id="paint7_linear_10025_63984" x1="389.433" y1="183.252" x2="389.433" y2="512.461" gradientUnits="userSpaceOnUse">
<stop stop-color="#B9B8C0"/>
<stop offset="1" stop-color="#57565A"/>
</linearGradient>
<linearGradient id="paint8_linear_10025_63984" x1="389.843" y1="341.693" x2="389.843" y2="475.829" gradientUnits="userSpaceOnUse">
<stop stop-color="#B9B8C0"/>
<stop offset="1" stop-color="#57565A"/>
</linearGradient>
<clipPath id="clip0_10025_63984">
<rect width="512.085" height="512.085" fill="white" transform="translate(0.879883 0.375)"/>
</clipPath>
</defs>
</svg>
