<svg width="513" height="513" viewBox="0 0 513 513" fill="none" xmlns="http://www.w3.org/2000/svg">
<g clip-path="url(#clip0_10025_64039)">
<path d="M210.298 155.928C154.754 155.928 109.727 200.955 109.727 256.499C109.727 312.043 154.754 357.07 210.298 357.07C265.842 357.07 310.87 312.043 310.87 256.499C310.837 200.969 265.829 155.961 210.298 155.928ZM210.298 192.499C174.968 192.538 146.337 221.169 146.298 256.499C146.298 261.548 142.205 265.642 137.155 265.642C132.106 265.642 128.012 261.549 128.012 256.499C128.08 211.082 164.881 174.281 210.298 174.213C215.347 174.213 219.441 178.306 219.441 183.356C219.441 188.406 215.348 192.499 210.298 192.499Z" fill="url(#paint0_linear_10025_64039)"/>
<path d="M496.013 281.459C478.701 247.34 469.887 209.545 470.322 171.288C470.74 156.527 469.234 141.774 465.842 127.402C449.798 59.3591 392.618 8.80912 323.121 1.23112C281.354 -2.71188 239.713 9.93112 207.19 36.4311C167.939 66.7091 126.328 93.7971 82.7561 117.437C25.0801 151.062 -6.97494 215.85 1.28606 282.099C9.54705 348.348 56.5321 403.28 120.698 421.711C127.156 423.544 133.721 424.979 140.355 426.008C182.71 432.014 222.612 449.499 255.738 476.568C286.236 502.018 325.36 514.754 364.995 512.134C443.108 506.014 505.197 444.041 511.464 365.94C513.907 336.907 508.573 307.748 496.013 281.459ZM210.298 375.356C144.655 375.356 91.4411 322.142 91.4411 256.499C91.4411 190.856 144.655 137.642 210.298 137.642C275.941 137.642 329.155 190.856 329.155 256.499C329.093 322.116 275.915 375.294 210.298 375.356Z" fill="url(#paint1_linear_10025_64039)"/>
</g>
<defs>
<linearGradient id="paint0_linear_10025_64039" x1="210.299" y1="155.928" x2="210.299" y2="357.07" gradientUnits="userSpaceOnUse">
<stop stop-color="#B9B8C0"/>
<stop offset="1" stop-color="#57565A"/>
</linearGradient>
<linearGradient id="paint1_linear_10025_64039" x1="256.021" y1="0.523437" x2="256.021" y2="512.471" gradientUnits="userSpaceOnUse">
<stop stop-color="#B9B8C0"/>
<stop offset="1" stop-color="#57565A"/>
</linearGradient>
<clipPath id="clip0_10025_64039">
<rect width="512.042" height="512.042" fill="white" transform="translate(0 0.476562)"/>
</clipPath>
</defs>
</svg>
