<svg width="513" height="513" viewBox="0 0 513 513" fill="none" xmlns="http://www.w3.org/2000/svg">
<g clip-path="url(#clip0_10025_64060)">
<path d="M187.466 73.7012C186.202 73.7012 185.041 74.3962 184.444 75.5092C163.778 101.268 150.713 132.285 146.719 165.067H228.222C224.23 132.283 211.161 101.265 190.488 75.5092C189.891 74.3962 188.73 73.7012 187.466 73.7012ZM180.248 144.13C179.357 144.935 178.337 145.584 177.23 146.051C176.131 146.519 174.951 146.768 173.756 146.782C170.059 146.767 166.732 144.537 165.314 141.122C163.896 137.708 164.665 133.776 167.265 131.147C169.891 128.549 173.825 127.789 177.229 129.223C178.337 129.689 179.357 130.34 180.248 131.147C183.783 134.753 183.783 140.524 180.248 144.13Z" fill="url(#paint0_linear_10025_64060)"/>
<path d="M109.756 192.497C109.83 258.109 163.001 311.28 228.613 311.354H283.47C349.082 311.28 402.253 258.109 402.327 192.497V183.354H109.756V192.497ZM227.881 287.399C227.439 288.518 226.787 289.542 225.961 290.417C225.07 291.222 224.05 291.871 222.943 292.337C221.844 292.806 220.664 293.054 219.47 293.069C217.05 293.033 214.732 292.087 212.979 290.418C212.153 289.543 211.501 288.519 211.059 287.4C210.083 285.186 210.083 282.663 211.059 280.449C211.523 279.342 212.172 278.323 212.979 277.436C215.626 274.878 219.534 274.124 222.943 275.512C225.237 276.348 227.044 278.155 227.88 280.449C228.857 282.662 228.857 285.185 227.881 287.399ZM262.533 290.417C262.077 290.782 261.613 291.149 261.068 291.51C260.602 291.873 260.076 292.152 259.514 292.336C258.967 292.612 258.379 292.797 257.773 292.885C257.201 292.99 256.622 293.051 256.041 293.068C252.344 293.053 249.017 290.823 247.599 287.408C246.181 283.994 246.95 280.062 249.55 277.433C251.731 275.329 254.794 274.41 257.773 274.964C258.379 275.048 258.968 275.232 259.514 275.509C260.076 275.692 260.601 275.972 261.068 276.335C261.613 276.701 262.077 277.067 262.532 277.433C264.201 279.186 265.148 281.504 265.184 283.924C265.166 286.349 264.217 288.673 262.533 290.417ZM301.024 287.399C300.56 288.507 299.911 289.527 299.104 290.417C298.649 290.783 298.184 291.149 297.64 291.511C297.174 291.874 296.648 292.153 296.086 292.337C295.539 292.613 294.951 292.798 294.345 292.886C293.773 292.991 293.194 293.052 292.613 293.069C292.029 293.052 291.447 292.991 290.872 292.886C290.269 292.798 289.684 292.613 289.14 292.337C288.555 292.136 288 291.858 287.488 291.511C287.033 291.149 286.577 290.783 286.121 290.417C285.314 289.528 284.665 288.507 284.201 287.399C283.687 286.315 283.436 285.125 283.47 283.925C283.502 281.504 284.449 279.185 286.121 277.434L287.487 276.336C287.998 275.989 288.554 275.711 289.139 275.51C289.682 275.234 290.268 275.05 290.871 274.965C292.012 274.688 293.203 274.688 294.344 274.965C294.95 275.049 295.539 275.233 296.085 275.51C296.647 275.693 297.172 275.973 297.639 276.336C298.184 276.702 298.648 277.068 299.103 277.434C300.772 279.187 301.719 281.505 301.755 283.925C301.742 285.12 301.493 286.3 301.024 287.399ZM356.792 208.952C356.895 208.379 357.082 207.824 357.346 207.305C357.544 206.723 357.821 206.17 358.167 205.662C358.504 205.183 358.871 204.725 359.265 204.291C361.422 202.147 364.507 201.221 367.488 201.822C368.094 201.906 368.683 202.09 369.229 202.367C369.791 202.55 370.316 202.83 370.783 203.193C371.328 203.559 371.792 203.925 372.247 204.291C375.783 207.896 375.783 213.668 372.247 217.273C371.792 217.639 371.327 218.005 370.783 218.367C370.317 218.73 369.791 219.01 369.229 219.193C368.682 219.469 368.094 219.654 367.488 219.742C366.916 219.847 366.337 219.908 365.756 219.925C365.142 219.908 364.531 219.847 363.926 219.742C363.354 219.64 362.801 219.455 362.283 219.193C361.698 218.992 361.143 218.714 360.631 218.367C360.176 218.005 359.72 217.639 359.265 217.273C357.593 215.522 356.646 213.203 356.614 210.782C356.633 210.169 356.693 209.558 356.792 208.952ZM342.346 239.765C342.858 239.418 343.413 239.14 343.998 238.939C344.515 238.676 345.069 238.492 345.641 238.394C348.65 237.839 351.743 238.756 353.962 240.863C357.498 244.468 357.498 250.24 353.962 253.845C353.507 254.211 353.042 254.577 352.498 254.939C352.032 255.302 351.506 255.582 350.944 255.765C350.397 256.041 349.809 256.226 349.203 256.314C348.631 256.419 348.052 256.481 347.471 256.497C346.857 256.48 346.246 256.419 345.641 256.314C345.069 256.212 344.516 256.027 343.998 255.765C343.413 255.564 342.858 255.286 342.346 254.939C341.891 254.577 341.435 254.211 340.98 253.845C340.588 253.409 340.221 252.952 339.882 252.475C339.534 251.966 339.258 251.412 339.061 250.828C338.797 250.309 338.611 249.754 338.507 249.181C338.408 248.577 338.348 247.967 338.329 247.355C338.361 244.934 339.308 242.615 340.98 240.864L342.346 239.765ZM320.773 207.305C321.237 206.198 321.887 205.179 322.694 204.291C324.851 202.147 327.936 201.221 330.917 201.822C331.523 201.906 332.112 202.09 332.658 202.367C333.24 202.568 333.792 202.846 334.301 203.193C334.782 203.53 335.241 203.897 335.676 204.291C336.483 205.179 337.132 206.198 337.596 207.304C338.065 208.404 338.313 209.586 338.327 210.782C338.29 213.202 337.344 215.52 335.676 217.273C335.241 217.666 334.782 218.031 334.301 218.367C333.793 218.714 333.24 218.992 332.658 219.193C332.111 219.469 331.523 219.654 330.917 219.742C330.345 219.847 329.766 219.908 329.185 219.925C326.765 219.889 324.447 218.942 322.694 217.274C321.868 216.399 321.216 215.375 320.774 214.256C319.797 212.042 319.797 209.52 320.773 207.305ZM312.631 238.394C313.237 238.478 313.826 238.662 314.372 238.939C314.954 239.14 315.506 239.418 316.015 239.765C316.47 240.131 316.935 240.497 317.39 240.863C319.073 242.607 320.023 244.931 320.042 247.354C320.027 248.548 319.779 249.728 319.31 250.827C318.868 251.946 318.216 252.97 317.39 253.845C313.785 257.381 308.013 257.381 304.408 253.845C303.601 252.956 302.952 251.935 302.488 250.827C301.974 249.743 301.723 248.553 301.757 247.354C301.789 244.933 302.736 242.614 304.408 240.863C306.565 238.719 309.65 237.793 312.631 238.394ZM284.203 207.305C284.644 206.187 285.296 205.164 286.123 204.291L287.489 203.193C288 202.846 288.556 202.568 289.141 202.367C289.684 202.091 290.27 201.907 290.873 201.822C292.014 201.545 293.205 201.545 294.346 201.822C294.952 201.906 295.541 202.09 296.087 202.367C296.649 202.55 297.174 202.83 297.641 203.193C298.186 203.559 298.65 203.925 299.105 204.291C299.932 205.163 300.584 206.186 301.025 207.304C301.494 208.404 301.743 209.586 301.757 210.782C301.72 213.202 300.774 215.52 299.106 217.273C298.658 217.688 298.167 218.055 297.642 218.367C297.176 218.73 296.65 219.01 296.088 219.193C295.541 219.469 294.953 219.654 294.347 219.742C293.775 219.847 293.196 219.908 292.615 219.925C292.031 219.908 291.449 219.847 290.874 219.742C290.271 219.654 289.686 219.469 289.142 219.193C288.557 218.992 288.002 218.714 287.49 218.367C287.012 218.031 286.556 217.666 286.123 217.273C284.451 215.522 283.504 213.203 283.472 210.782C283.437 209.582 283.688 208.39 284.203 207.305ZM267.836 240.863C268.71 240.035 269.734 239.381 270.854 238.939C274.269 237.609 278.145 238.357 280.819 240.863C281.626 241.751 282.275 242.77 282.739 243.876C283.208 244.976 283.456 246.158 283.47 247.354C283.451 249.778 282.502 252.102 280.819 253.845C280.364 254.211 279.899 254.577 279.355 254.939C278.889 255.302 278.363 255.582 277.801 255.765C277.254 256.041 276.666 256.226 276.06 256.314C275.488 256.419 274.909 256.48 274.328 256.497C273.129 256.528 271.939 256.277 270.855 255.765C267.372 254.449 265.099 251.077 265.185 247.354C265.199 246.158 265.448 244.976 265.917 243.876C266.38 242.77 267.029 241.751 267.836 240.863ZM247.077 209.046C247.166 208.439 247.353 207.851 247.631 207.305C247.812 206.743 248.09 206.217 248.452 205.751C248.766 205.227 249.134 204.738 249.55 204.291C251.707 202.147 254.792 201.221 257.773 201.822C258.379 201.906 258.968 202.09 259.514 202.367C260.076 202.55 260.601 202.83 261.068 203.193C261.613 203.559 262.077 203.925 262.532 204.291C264.201 206.044 265.148 208.362 265.184 210.782C265.169 211.976 264.921 213.156 264.452 214.255C264.031 215.385 263.377 216.413 262.532 217.273C262.084 217.688 261.593 218.055 261.068 218.367C260.602 218.73 260.076 219.01 259.514 219.193C258.967 219.469 258.379 219.654 257.773 219.742C257.201 219.847 256.622 219.908 256.041 219.925C253.621 219.889 251.303 218.942 249.55 217.274C248.724 216.399 248.072 215.375 247.63 214.256C247.161 213.157 246.913 211.977 246.899 210.782C246.914 210.2 246.974 209.62 247.077 209.046ZM233.183 239.391C236.779 237.32 241.318 237.924 244.247 240.863C247.783 244.468 247.783 250.24 244.247 253.845C243.792 254.211 243.327 254.577 242.872 254.939C242.364 255.286 241.811 255.564 241.229 255.765C240.711 256.026 240.157 256.211 239.586 256.314C238.981 256.419 238.369 256.48 237.755 256.497C233.605 256.497 229.974 253.708 228.902 249.699C227.83 245.69 229.587 241.462 233.183 239.391ZM212.979 204.291C215.606 201.692 219.539 200.933 222.944 202.367C224.052 202.833 225.072 203.484 225.962 204.291C227.631 206.044 228.578 208.362 228.613 210.782C228.599 211.395 228.537 212.005 228.425 212.608C228.329 213.182 228.145 213.737 227.88 214.255C227.697 214.816 227.419 215.342 227.059 215.809C226.693 216.358 226.327 216.813 225.961 217.273C225.07 218.078 224.05 218.727 222.943 219.193C221.844 219.662 220.664 219.91 219.47 219.925C217.046 219.908 214.721 218.958 212.979 217.274C212.613 216.814 212.247 216.359 211.881 215.81C211.517 215.345 211.239 214.819 211.06 214.256C210.796 213.737 210.61 213.182 210.506 212.609C210.402 212.005 210.343 211.395 210.328 210.783C210.359 208.362 211.307 206.042 212.979 204.291ZM194.693 240.863C197.32 238.265 201.253 237.505 204.658 238.939C206.952 239.775 208.759 241.582 209.595 243.876C210.571 246.09 210.571 248.613 209.595 250.827C209.131 251.935 208.482 252.956 207.675 253.845C206.784 254.65 205.764 255.299 204.657 255.765C203.573 256.278 202.383 256.529 201.184 256.498C198.764 256.462 196.446 255.515 194.693 253.847C193.886 252.958 193.237 251.937 192.773 250.829C191.797 248.615 191.797 246.092 192.773 243.878C193.237 242.77 193.886 241.751 194.693 240.863ZM176.408 204.291C177.282 203.463 178.307 202.809 179.427 202.367C182.833 200.944 186.76 201.702 189.391 204.291C191.06 206.044 192.007 208.362 192.042 210.782C192.028 211.395 191.965 212.005 191.854 212.608C191.758 213.182 191.574 213.737 191.309 214.255C191.108 214.837 190.832 215.391 190.488 215.902C190.122 216.357 189.756 216.813 189.39 217.272C188.935 217.638 188.47 218.004 188.015 218.366C187.507 218.713 186.954 218.991 186.372 219.192C185.854 219.453 185.3 219.638 184.729 219.741C184.123 219.841 183.512 219.902 182.899 219.924C181.705 219.909 180.525 219.661 179.426 219.192C178.307 218.749 177.283 218.098 176.408 217.272C176.016 216.836 175.649 216.379 175.31 215.901C174.962 215.392 174.686 214.838 174.489 214.254C174.225 213.735 174.039 213.18 173.935 212.607C173.787 212.01 173.727 211.395 173.756 210.781C173.747 208.353 174.7 206.019 176.408 204.291ZM162.237 238.487C165.405 237.638 168.785 238.544 171.104 240.863C173.741 243.479 174.534 247.43 173.11 250.861C171.686 254.292 168.327 256.519 164.613 256.498C162.189 256.481 159.865 255.531 158.122 253.847C155.803 251.528 154.897 248.148 155.746 244.98C156.595 241.812 159.069 239.336 162.237 238.487ZM137.917 207.305C138.359 206.187 139.01 205.164 139.837 204.291C143.503 200.907 149.153 200.907 152.819 204.291C153.626 205.179 154.275 206.198 154.739 207.304C155.208 208.404 155.456 209.586 155.47 210.782C155.494 213.214 154.538 215.553 152.818 217.273C151.098 218.993 148.759 219.948 146.327 219.925C143.903 219.908 141.579 218.958 139.836 217.274C138.164 215.523 137.217 213.204 137.185 210.783C137.151 209.582 137.402 208.39 137.917 207.305Z" fill="url(#paint1_linear_10025_64060)"/>
<path d="M192.042 388.779V324.538C179.119 320.956 166.796 315.486 155.471 308.305V311.354C155.379 338.05 165.969 363.673 184.882 382.515C187.111 384.741 189.584 386.754 192.042 388.779Z" fill="url(#paint2_linear_10025_64060)"/>
<path d="M356.613 308.305C345.287 315.486 332.964 320.956 320.042 324.538V388.756C343.117 369.662 356.516 341.304 356.613 311.354V308.305Z" fill="url(#paint3_linear_10025_64060)"/>
<path d="M283.471 439.354C293.565 439.342 301.745 431.162 301.757 421.068V329.639H210.328V421.068C210.34 431.162 218.52 439.342 228.614 439.354H283.471ZM262.533 409.274C262.078 409.64 261.613 410.006 261.069 410.368C260.603 410.731 260.077 411.011 259.515 411.194C258.968 411.47 258.38 411.655 257.774 411.743C257.202 411.848 256.623 411.909 256.042 411.926C253.622 411.89 251.304 410.943 249.551 409.275C249.159 408.839 248.792 408.382 248.453 407.905C248.105 407.396 247.829 406.842 247.632 406.258C247.368 405.739 247.182 405.184 247.078 404.611C246.974 404.007 246.915 403.397 246.9 402.785C246.932 400.364 247.879 398.045 249.551 396.294C251.732 394.19 254.795 393.271 257.774 393.825C258.38 393.909 258.969 394.093 259.515 394.37C260.077 394.553 260.602 394.833 261.069 395.196C261.614 395.562 262.078 395.928 262.533 396.294C264.202 398.047 265.149 400.365 265.185 402.785C265.166 405.206 264.217 407.53 262.533 409.274ZM240.042 347.926H272.042C277.091 347.926 281.185 352.019 281.185 357.069C281.185 362.118 277.092 366.212 272.042 366.212H240.042C234.993 366.212 230.899 362.119 230.899 357.069C230.899 352.019 234.993 347.926 240.042 347.926Z" fill="url(#paint4_linear_10025_64060)"/>
<path d="M338.328 0.496094H173.756C118.238 0.559094 73.248 45.5491 73.185 101.067V411.924C73.248 467.443 118.238 512.433 173.756 512.496H338.327C393.845 512.433 438.836 467.443 438.898 411.925V101.067C438.836 45.5491 393.846 0.559094 338.328 0.496094ZM420.613 174.21V411.924C420.562 457.348 383.751 494.159 338.327 494.21H173.756C128.332 494.159 91.521 457.348 91.47 411.924V101.067C91.521 55.6431 128.332 18.8321 173.756 18.7811H338.327C383.751 18.8321 420.562 55.6431 420.613 101.067V174.21Z" fill="url(#paint5_linear_10025_64060)"/>
<path d="M374.899 294.428V311.354C374.816 351.89 354.155 389.611 320.042 411.508V421.068C320.021 441.257 303.659 457.618 283.471 457.639H228.614C208.425 457.617 192.064 441.256 192.043 421.068V411.296C184.802 406.743 178.067 401.43 171.954 395.448C149.602 373.183 137.083 342.903 137.186 311.354V294.428C126.311 284.684 117.053 273.274 109.757 260.625V411.926C109.798 447.255 138.428 475.885 173.757 475.926H338.328C373.657 475.885 402.287 447.255 402.328 411.926V260.625C395.032 273.274 385.774 284.684 374.899 294.428Z" fill="url(#paint6_linear_10025_64060)"/>
<path d="M338.328 37.0664H173.756C138.427 37.1074 109.797 65.7374 109.756 101.066V165.066H128.359C132.363 128.223 146.792 93.2874 169.952 64.3564C174.149 58.9414 180.614 55.7714 187.465 55.7714C194.316 55.7714 200.782 58.9404 204.978 64.3564C228.145 93.2844 242.577 128.221 246.58 165.066H265.501C269.505 128.223 283.933 93.2874 307.094 64.3564C311.291 58.9414 317.756 55.7714 324.607 55.7714C331.458 55.7714 337.924 58.9404 342.12 64.3564C365.287 93.2844 379.719 128.221 383.722 165.066H402.325V101.066C402.287 65.7374 373.657 37.1084 338.328 37.0664Z" fill="url(#paint7_linear_10025_64060)"/>
<path d="M324.609 73.7012C323.345 73.7012 322.184 74.3962 321.587 75.5092C300.921 101.268 287.856 132.285 283.862 165.067H365.365C361.373 132.283 348.304 101.265 327.631 75.5092C327.034 74.3962 325.873 73.7012 324.609 73.7012ZM319.855 139.465C319.759 140.039 319.575 140.594 319.31 141.112C319.109 141.694 318.833 142.248 318.489 142.759C318.149 143.236 317.783 143.694 317.391 144.13C316.936 144.496 316.471 144.862 316.016 145.224C315.508 145.571 314.955 145.849 314.373 146.05C313.826 146.326 313.238 146.511 312.632 146.599C312.06 146.704 311.481 146.765 310.9 146.782C310.286 146.765 309.674 146.704 309.07 146.599C308.498 146.497 307.945 146.312 307.427 146.05C306.842 145.849 306.287 145.571 305.775 145.224C305.32 144.862 304.864 144.496 304.409 144.13C304.017 143.694 303.65 143.237 303.311 142.76C302.963 142.251 302.687 141.697 302.49 141.113C302.226 140.594 302.04 140.039 301.936 139.466C301.832 138.862 301.773 138.252 301.758 137.64C301.724 136.439 301.975 135.247 302.49 134.162C302.931 133.044 303.583 132.021 304.41 131.149C308.076 127.765 313.726 127.765 317.392 131.149C318.219 132.021 318.871 133.044 319.312 134.162C319.781 135.262 320.029 136.444 320.043 137.64C320.028 138.252 319.965 138.862 319.855 139.465Z" fill="url(#paint8_linear_10025_64060)"/>
</g>
<defs>
<linearGradient id="paint0_linear_10025_64060" x1="187.47" y1="73.7012" x2="187.47" y2="165.067" gradientUnits="userSpaceOnUse">
<stop stop-color="#B9B8C0"/>
<stop offset="1" stop-color="#57565A"/>
</linearGradient>
<linearGradient id="paint1_linear_10025_64060" x1="256.041" y1="183.354" x2="256.041" y2="311.354" gradientUnits="userSpaceOnUse">
<stop stop-color="#B9B8C0"/>
<stop offset="1" stop-color="#57565A"/>
</linearGradient>
<linearGradient id="paint2_linear_10025_64060" x1="173.756" y1="308.305" x2="173.756" y2="388.779" gradientUnits="userSpaceOnUse">
<stop stop-color="#B9B8C0"/>
<stop offset="1" stop-color="#57565A"/>
</linearGradient>
<linearGradient id="paint3_linear_10025_64060" x1="338.327" y1="308.305" x2="338.327" y2="388.756" gradientUnits="userSpaceOnUse">
<stop stop-color="#B9B8C0"/>
<stop offset="1" stop-color="#57565A"/>
</linearGradient>
<linearGradient id="paint4_linear_10025_64060" x1="256.043" y1="329.639" x2="256.043" y2="439.354" gradientUnits="userSpaceOnUse">
<stop stop-color="#B9B8C0"/>
<stop offset="1" stop-color="#57565A"/>
</linearGradient>
<linearGradient id="paint5_linear_10025_64060" x1="256.041" y1="0.496094" x2="256.041" y2="512.496" gradientUnits="userSpaceOnUse">
<stop stop-color="#B9B8C0"/>
<stop offset="1" stop-color="#57565A"/>
</linearGradient>
<linearGradient id="paint6_linear_10025_64060" x1="256.043" y1="260.625" x2="256.043" y2="475.926" gradientUnits="userSpaceOnUse">
<stop stop-color="#B9B8C0"/>
<stop offset="1" stop-color="#57565A"/>
</linearGradient>
<linearGradient id="paint7_linear_10025_64060" x1="256.04" y1="37.0664" x2="256.04" y2="165.066" gradientUnits="userSpaceOnUse">
<stop stop-color="#B9B8C0"/>
<stop offset="1" stop-color="#57565A"/>
</linearGradient>
<linearGradient id="paint8_linear_10025_64060" x1="324.613" y1="73.7012" x2="324.613" y2="165.067" gradientUnits="userSpaceOnUse">
<stop stop-color="#B9B8C0"/>
<stop offset="1" stop-color="#57565A"/>
</linearGradient>
<clipPath id="clip0_10025_64060">
<rect width="512" height="512" fill="white" transform="translate(0.0419922 0.496094)"/>
</clipPath>
</defs>
</svg>
