<svg width="511" height="511" viewBox="0 0 511 511" fill="none" xmlns="http://www.w3.org/2000/svg">
<g clip-path="url(#clip0_10025_64170)">
<path d="M264.526 143.215V103.078C264.697 96.2333 261.816 89.6673 256.663 85.1583C253.485 82.3763 249.195 81.2273 245.052 82.0493C211.988 88.5643 183.613 109.618 167.795 139.375C178.279 137.604 188.889 136.687 199.521 136.632C221.353 136.677 243.127 138.882 264.526 143.215Z" fill="url(#paint0_linear_10025_64170)"/>
<path d="M127.383 266.004C127.646 287.546 123.314 308.897 114.674 328.633H352.937C359.703 323.604 375.154 311.262 378.811 308.062C393.013 295.321 412.429 290.094 431.108 293.982C431.867 294.175 432.603 294.451 433.303 294.805L499.04 328.542C500.108 328.587 501.131 328.109 501.783 327.262C502.157 326.696 502.319 326.016 502.24 325.342L480.114 281.913C479.931 281.456 479.748 281.09 479.565 280.633C477.279 273.841 477.279 266.488 479.565 259.696L502.331 206.027C502.406 205.235 502.101 204.455 501.508 203.924C500.835 203.186 499.85 202.812 498.857 202.918L432.388 228.152C431.97 228.304 431.543 228.426 431.108 228.518C412.427 232.463 392.986 227.229 378.811 214.438C347.634 187.009 281.988 154.918 199.52 154.918C165.332 155.669 131.856 164.839 102.057 181.615C119.372 206.281 128.255 235.88 127.383 266.004ZM238.651 214.804C235.9 210.614 237.054 204.988 241.233 202.22C245.411 199.451 251.042 200.581 253.829 204.747C268.092 226.05 268.092 284.93 253.829 306.233C252.15 308.791 249.3 310.337 246.24 310.347C244.442 310.369 242.683 309.825 241.211 308.793C239.186 307.469 237.776 305.39 237.295 303.019C236.814 300.648 237.302 298.184 238.651 296.176C248.8 280.907 248.8 230.073 238.651 214.804ZM202.08 214.804C199.329 210.614 200.483 204.988 204.662 202.22C208.84 199.451 214.471 200.581 217.257 204.747C231.52 226.05 231.52 284.93 217.257 306.233C215.579 308.791 212.728 310.337 209.668 310.347C207.87 310.369 206.111 309.825 204.639 308.793C202.614 307.469 201.204 305.39 200.723 303.019C200.242 300.648 200.73 298.184 202.079 296.176C212.228 280.907 212.228 230.073 202.08 214.804ZM165.508 214.804C162.757 210.614 163.911 204.988 168.09 202.22C172.269 199.452 177.899 200.581 180.685 204.747C194.948 226.05 194.948 284.93 180.685 306.233C179.007 308.791 176.156 310.337 173.096 310.347C171.298 310.369 169.539 309.825 168.067 308.793C166.042 307.469 164.632 305.39 164.151 303.019C163.67 300.648 164.158 298.184 165.507 296.176C175.657 280.907 175.657 230.073 165.508 214.804Z" fill="url(#paint1_linear_10025_64170)"/>
<path d="M0.296875 346.918C4.66988 368.189 23.3809 383.463 45.0969 383.489H465.668C487.388 383.475 506.106 368.195 510.468 346.918H0.296875Z" fill="url(#paint2_linear_10025_64170)"/>
<path d="M101.966 423.535C103.606 426.747 106.784 428.889 110.377 429.204H400.937C404.538 428.913 407.727 426.764 409.348 423.535L422.422 401.775H88.9829L101.966 423.535Z" fill="url(#paint3_linear_10025_64170)"/>
<path d="M67.4059 328.633H94.2859C104.421 309.338 109.516 287.795 109.097 266.004C110.03 239.04 101.885 212.542 85.9659 190.758C61.0839 206.23 37.9949 224.414 17.1199 244.975C5.66088 256.474 5.66088 275.076 17.1199 286.575C32.7249 301.923 49.5409 315.987 67.4059 328.633ZM56.8909 248.998C59.5229 246.409 63.4509 245.653 66.8569 247.078C67.9639 247.542 68.9849 248.191 69.8739 248.998C71.5429 250.751 72.4899 253.069 72.5249 255.489C72.5119 256.684 72.2629 257.864 71.7939 258.963C70.9609 261.259 69.1529 263.067 66.8569 263.9C65.7579 264.369 64.5779 264.618 63.3829 264.631C60.9629 264.596 58.6439 263.649 56.8919 261.98C56.0849 261.091 55.4359 260.07 54.9719 258.963C54.4599 257.878 54.2089 256.688 54.2409 255.489C54.2749 253.069 55.2219 250.751 56.8909 248.998Z" fill="url(#paint4_linear_10025_64170)"/>
</g>
<defs>
<linearGradient id="paint0_linear_10025_64170" x1="216.164" y1="81.7891" x2="216.164" y2="143.215" gradientUnits="userSpaceOnUse">
<stop stop-color="#B9B8C0"/>
<stop offset="1" stop-color="#57565A"/>
</linearGradient>
<linearGradient id="paint1_linear_10025_64170" x1="302.199" y1="154.918" x2="302.199" y2="328.633" gradientUnits="userSpaceOnUse">
<stop stop-color="#B9B8C0"/>
<stop offset="1" stop-color="#57565A"/>
</linearGradient>
<linearGradient id="paint2_linear_10025_64170" x1="255.382" y1="346.918" x2="255.382" y2="383.489" gradientUnits="userSpaceOnUse">
<stop stop-color="#B9B8C0"/>
<stop offset="1" stop-color="#57565A"/>
</linearGradient>
<linearGradient id="paint3_linear_10025_64170" x1="255.702" y1="401.775" x2="255.702" y2="429.204" gradientUnits="userSpaceOnUse">
<stop stop-color="#B9B8C0"/>
<stop offset="1" stop-color="#57565A"/>
</linearGradient>
<linearGradient id="paint4_linear_10025_64170" x1="58.8473" y1="190.758" x2="58.8473" y2="328.633" gradientUnits="userSpaceOnUse">
<stop stop-color="#B9B8C0"/>
<stop offset="1" stop-color="#57565A"/>
</linearGradient>
<clipPath id="clip0_10025_64170">
<rect width="510.171" height="510.171" fill="white" transform="translate(0.296875 0.412109)"/>
</clipPath>
</defs>
</svg>
