<svg width="513" height="513" viewBox="0 0 513 513" fill="none" xmlns="http://www.w3.org/2000/svg">
<g clip-path="url(#clip0_10025_64194)">
<path d="M92.0437 222.005C92.5257 222.333 92.9857 222.691 93.4237 223.076L97.2767 226.482L96.3657 231.545C93.1237 249.25 98.7557 267.42 111.442 280.188L137.299 306.05C158.734 327.402 193.41 327.368 214.804 305.974C236.198 284.58 236.232 249.905 214.88 228.469L189.023 202.607C176.256 189.916 158.082 184.284 140.376 187.531L135.291 188.446L131.881 184.558C131.519 184.147 131.189 183.723 130.863 183.29L111.444 163.817C104.515 156.888 94.4147 154.182 84.9497 156.718C75.4847 159.254 68.0907 166.648 65.5547 176.113C63.0187 185.578 65.7247 195.678 72.6537 202.607L92.0437 222.005Z" fill="url(#paint0_linear_10025_64194)"/>
<path d="M182.058 109.301C179.749 108.784 177.386 108.552 175.021 108.61C174.91 108.604 174.802 108.612 174.69 108.602C172.604 108.7 170.538 109.054 168.538 109.657L167.571 109.961H167.567L167.978 109.765C167.729 109.885 167.468 109.988 167.208 110.086C165.298 110.739 163.471 111.616 161.767 112.699C161.615 112.82 161.429 112.932 161.259 113.049C159.332 114.35 157.569 115.88 156.01 117.604L156.009 117.605L155.912 117.716C149.358 124.917 147.131 135.061 150.064 144.346L157.84 168.79C166.283 169.648 174.513 171.967 182.163 175.644C195.473 170.621 209.214 166.823 223.214 164.296C221.252 163.415 219.24 162.649 217.189 162.002C214.137 161.057 211.8 158.588 211.024 155.489C210.89 154.94 210.783 154.395 210.68 153.851L202.403 127.699C199.45 118.408 191.762 111.4 182.238 109.318L182.058 109.301Z" fill="url(#paint1_linear_10025_64194)"/>
<path d="M6.9097 155.689C10.8767 157.894 15.6847 157.968 19.7177 155.885C20.5467 155.458 21.3397 154.963 22.0887 154.407C29.3037 148.753 39.5937 149.328 46.1337 155.751L52.0007 161.618C54.0337 157.682 56.6357 154.067 59.7237 150.89C61.2337 149.474 62.8397 148.164 64.5307 146.969L59.7197 142.157C53.3007 135.621 52.7237 125.339 58.3717 118.126C58.9367 117.368 59.4377 116.564 59.8717 115.724C61.9537 111.698 61.8757 106.894 59.6617 102.938C57.6397 99.4296 54.0837 97.0796 50.0637 96.5936C45.5937 96.0736 41.1337 97.6526 37.9877 100.871C36.2287 103.257 35.1467 106.073 34.8537 109.023C33.6877 120.455 24.6327 129.486 13.1977 130.621C10.0767 130.614 7.0767 131.832 4.8447 134.014C1.6247 137.159 0.0446968 141.619 0.567697 146.09C1.0517 150.111 3.4027 153.667 6.9097 155.689Z" fill="url(#paint2_linear_10025_64194)"/>
<path d="M127.526 73.828L127.758 73.832C130.198 73.855 132.602 73.246 134.736 72.064C137.131 70.725 140.002 70.533 142.554 71.542C145.106 72.551 147.069 74.654 147.901 77.269L153.888 96.046C154.105 95.923 154.354 95.865 154.574 95.745C154.93 95.549 155.283 95.35 155.661 95.162C155.822 95.082 155.987 95.006 156.152 94.934C156.917 94.535 157.706 94.183 158.514 93.88C158.675 93.817 159.764 93.384 160.152 93.237L160.277 93.179C160.431 93.092 160.595 93.022 160.764 92.969C160.985 92.878 161.082 92.871 161.282 92.801C161.636 92.678 161.946 92.467 162.304 92.353C162.634 92.248 162.981 92.242 163.312 92.145L164.188 91.862C164.326 91.813 164.469 91.764 164.608 91.724C165.077 91.555 165.559 91.425 166.05 91.336L168.974 90.881C169.179 90.845 169.916 90.756 170.121 90.729L170.227 90.717C170.594 90.671 170.946 90.529 171.314 90.493L165.331 71.716C164.497 69.101 164.881 66.25 166.379 63.949C167.877 61.648 170.329 60.144 173.058 59.85C175.563 59.566 177.947 58.623 179.969 57.118C183.579 54.413 185.591 50.077 185.326 45.573C185.115 41.312 182.938 37.39 179.434 34.957C175.93 32.524 171.495 31.854 167.429 33.144C164.931 34.436 162.829 36.382 161.349 38.773C155.289 48.569 142.983 52.472 132.384 47.96C129.793 46.504 126.721 46.165 123.875 47.022C119.812 48.324 116.583 51.437 115.134 55.449C113.684 59.461 114.177 63.919 116.469 67.517C118.859 71.348 123.014 73.718 127.526 73.828Z" fill="url(#paint3_linear_10025_64194)"/>
<path d="M400.939 398.207H402.75L401.095 398.189L400.939 398.207Z" fill="url(#paint4_linear_10025_64194)"/>
<path d="M366.183 178.779C356.384 179.199 346.646 180.542 337.098 182.788C331.491 183.918 326.196 184.984 321.669 185.489C321.051 185.562 320.427 185.568 319.807 185.507C314.481 185.016 308.124 183.958 301.387 182.837C289.587 180.555 277.626 179.198 265.615 178.779C243.637 178.789 221.786 182.12 200.804 188.659C201.175 189.014 201.586 189.317 201.95 189.681L227.807 215.543C256.299 244.119 256.265 290.371 227.731 318.904C199.197 347.437 152.945 347.472 124.37 318.98L98.5126 293.118C92.9866 287.568 88.3966 281.157 84.9246 274.136C59.6796 313.986 46.2496 360.176 46.1916 407.35C46.1916 412.399 42.0986 416.493 37.0486 416.493H32.4776C24.0036 416.443 15.8666 419.813 9.91063 425.841C4.07963 431.613 0.698628 439.412 0.473628 447.613C0.332628 455.952 3.59363 463.988 9.50463 469.872C16.0406 476.609 25.0106 480.436 34.3976 480.493H366.184C413.683 480.44 458.211 457.375 485.657 418.609C485.806 418.338 485.97 418.076 486.148 417.823C503.445 389.983 512.564 357.84 512.465 325.064C512.374 244.312 446.935 178.871 366.183 178.779ZM366.178 197.064C372.769 197.064 379.351 197.568 385.866 198.573C390.587 199.302 393.95 203.542 393.587 208.305C393.223 213.068 389.255 216.748 384.478 216.752C384.004 216.752 383.531 216.716 383.063 216.645C377.476 215.783 371.832 215.351 366.179 215.351C361.13 215.351 357.036 211.258 357.036 206.208C357.035 201.158 361.129 197.064 366.178 197.064ZM401.169 424.055C394.331 430.938 385.023 434.8 375.321 434.778H302.178C281.98 434.778 265.607 418.404 265.607 398.207C265.607 378.01 281.981 361.636 302.178 361.636H313.446L298.093 336.082C293.666 328.723 294.965 319.273 301.214 313.381L310.835 304.122C318.048 297.26 329.427 297.433 336.429 304.51L401.17 369.251C408.423 376.514 412.294 386.488 411.84 396.742C411.894 397.358 411.894 397.863 411.894 398.206C411.914 407.91 408.053 417.217 401.169 424.055ZM485.384 325.037C485.147 325.055 484.911 325.064 484.679 325.064C479.903 325.059 475.936 321.379 475.572 316.618C472.478 278.887 450.306 245.359 416.8 227.739C412.342 225.393 410.622 219.882 412.954 215.417C415.286 210.952 420.792 209.215 425.264 211.534C464.348 232.093 490.205 271.211 493.804 315.226C493.989 317.644 493.206 320.036 491.627 321.876C490.047 323.716 487.801 324.853 485.384 325.037Z" fill="url(#paint5_linear_10025_64194)"/>
<path d="M393.54 396.461C393.928 391.157 391.992 385.945 388.236 382.18L323.419 317.359L313.821 326.627L337.442 366.069C339.141 368.893 339.188 372.412 337.566 375.281C335.944 378.149 332.903 379.922 329.608 379.922H302.178C292.079 379.922 283.892 388.109 283.892 398.208C283.892 408.307 292.079 416.494 302.178 416.494H375.321C385.346 416.474 393.494 408.402 393.607 398.378C393.518 397.741 393.495 397.1 393.54 396.461Z" fill="url(#paint6_linear_10025_64194)"/>
</g>
<defs>
<linearGradient id="paint0_linear_10025_64194" x1="147.746" y1="155.783" x2="147.746" y2="322.042" gradientUnits="userSpaceOnUse">
<stop stop-color="#B9B8C0"/>
<stop offset="1" stop-color="#57565A"/>
</linearGradient>
<linearGradient id="paint1_linear_10025_64194" x1="186.004" y1="108.602" x2="186.004" y2="175.644" gradientUnits="userSpaceOnUse">
<stop stop-color="#B9B8C0"/>
<stop offset="1" stop-color="#57565A"/>
</linearGradient>
<linearGradient id="paint2_linear_10025_64194" x1="32.5" y1="96.4961" x2="32.5" y2="161.618" gradientUnits="userSpaceOnUse">
<stop stop-color="#B9B8C0"/>
<stop offset="1" stop-color="#57565A"/>
</linearGradient>
<linearGradient id="paint3_linear_10025_64194" x1="149.832" y1="32.5" x2="149.832" y2="96.046" gradientUnits="userSpaceOnUse">
<stop stop-color="#B9B8C0"/>
<stop offset="1" stop-color="#57565A"/>
</linearGradient>
<linearGradient id="paint4_linear_10025_64194" x1="401.844" y1="398.189" x2="401.844" y2="398.207" gradientUnits="userSpaceOnUse">
<stop stop-color="#B9B8C0"/>
<stop offset="1" stop-color="#57565A"/>
</linearGradient>
<linearGradient id="paint5_linear_10025_64194" x1="256.467" y1="178.779" x2="256.467" y2="480.493" gradientUnits="userSpaceOnUse">
<stop stop-color="#B9B8C0"/>
<stop offset="1" stop-color="#57565A"/>
</linearGradient>
<linearGradient id="paint6_linear_10025_64194" x1="338.749" y1="317.359" x2="338.749" y2="416.494" gradientUnits="userSpaceOnUse">
<stop stop-color="#B9B8C0"/>
<stop offset="1" stop-color="#57565A"/>
</linearGradient>
<clipPath id="clip0_10025_64194">
<rect width="511.997" height="511.997" fill="white" transform="translate(0.467773 0.498047)"/>
</clipPath>
</defs>
</svg>
