<svg width="513" height="513" viewBox="0 0 513 513" fill="none" xmlns="http://www.w3.org/2000/svg">
<g clip-path="url(#clip0_10025_64220)">
<path d="M138.439 222.601C138.843 222.899 139.227 223.223 139.588 223.572C141.795 225.426 144.09 227.191 146.474 228.957C146.915 229.31 147.355 229.663 147.886 230.016C150.181 231.693 152.565 233.37 155.037 235.048L156.625 236.107C159.627 238.137 162.716 240.079 165.983 242.11C166.954 242.728 168.543 243.876 170.309 245.288C173.034 247.203 175.629 249.297 178.077 251.556C180.284 253.41 182.491 255.264 184.609 257.117L185.315 253.763L189.287 215.275L160.774 186.762L131.378 216.07L131.995 216.688C134.026 218.716 136.233 220.659 138.439 222.601Z" fill="url(#paint0_linear_10025_64220)"/>
<path d="M313.756 204.326L314.55 212.183L320.465 269.915C320.818 269.465 321.143 268.994 321.436 268.503C323.378 265.502 325.497 262.412 327.704 259.234C328.145 258.616 328.498 257.998 328.94 257.38C331.677 253.584 334.413 249.612 337.414 245.375C337.855 244.757 338.386 244.139 338.826 243.521C341.386 239.902 344.123 236.282 346.859 232.487C347.653 231.428 348.447 230.28 349.331 229.221C352.596 224.719 356.04 220.129 359.747 215.362L363.101 211.301C357.85 201.124 347.364 194.723 335.913 194.705C327.514 194.706 319.492 198.19 313.756 204.326Z" fill="url(#paint1_linear_10025_64220)"/>
<path d="M402.738 282.98H444.757C441.522 274.098 433.836 267.586 424.543 265.855L417.127 272.123C412.007 276.006 407.24 279.626 402.738 282.98Z" fill="url(#paint2_linear_10025_64220)"/>
<path d="M360.366 243.873C357.01 248.552 353.745 252.965 350.655 257.291L350.567 257.379C347.479 261.616 344.742 265.677 342.004 269.561C341.563 270.267 341.033 270.973 340.504 271.768C337.856 275.652 335.384 279.36 333.089 282.891C333.089 282.915 333.08 282.937 333.064 282.954C333.048 282.971 333.025 282.98 333.001 282.979H372.813C374.225 282.008 375.727 280.86 377.139 279.801H377.227L379.964 277.771C383.848 274.946 387.82 272.033 391.969 268.943C394.97 266.736 397.972 264.441 401.061 262.146C402.739 260.91 404.327 259.763 406.093 258.35L418.716 247.669L439.285 230.19C441.359 228.393 442.55 225.784 442.551 223.04C442.314 215.189 438.906 207.768 433.106 202.472L431.429 200.795H431.342L429.664 199.029C424.374 193.22 416.95 189.81 409.096 189.584C406.394 189.575 403.819 190.733 402.034 192.762L394.618 201.501L406.447 213.242C408.707 215.474 409.594 218.747 408.772 221.815C407.949 224.883 405.542 227.273 402.469 228.074C399.395 228.875 396.128 227.965 393.912 225.689L383.142 215.008L373.432 226.396C369.636 231.428 366.104 236.195 362.662 240.785C361.866 241.843 361.16 242.902 360.366 243.873Z" fill="url(#paint3_linear_10025_64220)"/>
<path d="M300.25 246.081L298.662 230.015H269.707C264.832 230.015 260.879 226.063 260.879 221.187C260.879 216.312 264.831 212.359 269.707 212.359H296.808L293.277 177.578C290.431 157.131 273.013 141.87 252.369 141.737C231.726 141.604 214.112 156.64 211.003 177.048H234.396C239.271 177.048 243.224 181 243.224 185.876C243.224 190.751 239.272 194.704 234.396 194.704H209.148L207.206 212.889H207.294L203.675 247.67H234.395C239.27 247.67 243.223 251.622 243.223 256.498C243.223 261.374 239.271 265.326 234.395 265.326H201.822L200.056 282.981H304.045L300.25 246.081Z" fill="url(#paint4_linear_10025_64220)"/>
<path d="M41.891 164.223C41.908 164.24 41.93 164.249 41.954 164.248L58.638 203.089L91.124 189.053L82.208 168.485L38.158 155.508L41.865 164.159C41.865 164.184 41.875 164.206 41.891 164.223Z" fill="url(#paint5_linear_10025_64220)"/>
<path d="M349.155 494.842H154.948C150.073 494.842 146.12 498.794 146.12 503.67C146.12 508.545 150.072 512.498 154.948 512.498H349.155C354.03 512.498 357.983 508.546 357.983 503.67C357.983 498.795 354.03 494.842 349.155 494.842Z" fill="url(#paint6_linear_10025_64220)"/>
<path d="M308.37 459.531H195.731L186.991 477.186H317.198L308.371 459.531H308.37Z" fill="url(#paint7_linear_10025_64220)"/>
<path d="M22.5339 300.635V309.463C22.6229 382.556 81.8549 441.788 154.948 441.877H357.982C431.075 441.788 490.307 382.556 490.396 309.463V300.635H22.5339ZM190.258 415.394C140.373 415.44 95.3659 385.448 76.2059 339.389C74.3419 334.879 76.4719 329.711 80.9729 327.825C83.1149 326.922 85.5279 326.907 87.6809 327.785C89.8339 328.663 91.5489 330.36 92.4489 332.504C108.872 372.018 147.468 397.761 190.259 397.74C195.134 397.74 199.087 401.692 199.087 406.568C199.086 411.442 195.134 415.394 190.258 415.394Z" fill="url(#paint8_linear_10025_64220)"/>
<path d="M64.731 219.686C68.981 240.548 69.22 262.028 65.437 282.98H179.755C176.519 276.217 172.059 270.112 166.601 264.972C163.6 262.5 160.863 260.205 158.921 258.704C158.127 258.174 157.421 257.556 156.626 257.115C152.742 254.732 149.211 252.348 145.68 249.965C144.797 249.435 143.914 248.817 143.032 248.199C139.679 245.904 136.501 243.609 133.498 241.313C133.247 241.158 133.011 240.981 132.792 240.783C129.261 238.046 125.995 235.222 122.817 232.309C122.464 232.044 122.2 231.691 121.846 231.426C113.322 223.422 105.767 214.444 99.336 204.678L86.183 210.416L64.731 219.686Z" fill="url(#paint9_linear_10025_64220)"/>
<path d="M175.088 121.384C178.473 124.893 184.062 124.993 187.571 121.608C191.08 118.223 191.18 112.634 187.795 109.125C179.312 100.191 179.312 86.1791 187.795 77.2461C202.804 61.4431 202.804 36.6531 187.795 20.8491C184.41 17.3401 178.821 17.2401 175.312 20.6251C171.803 24.0101 171.703 29.5991 175.088 33.1081C183.571 42.0421 183.571 56.0541 175.088 64.9871C160.088 80.7941 160.088 105.578 175.088 121.384Z" fill="url(#paint10_linear_10025_64220)"/>
<path d="M245.709 103.73C249.094 107.239 254.683 107.339 258.192 103.954C261.701 100.569 261.801 94.9798 258.416 91.4708C249.933 82.5368 249.933 68.5248 258.416 59.5918C273.425 43.7888 273.425 18.9988 258.416 3.19477C255.031 -0.314229 249.442 -0.414229 245.933 2.97077C242.424 6.35577 242.324 11.9448 245.709 15.4538C254.192 24.3878 254.192 38.3998 245.709 47.3328C230.709 63.1398 230.709 87.9238 245.709 103.73Z" fill="url(#paint11_linear_10025_64220)"/>
<path d="M316.33 121.384C319.715 124.893 325.304 124.993 328.813 121.608C332.322 118.223 332.422 112.634 329.037 109.125C320.554 100.191 320.554 86.1791 329.037 77.2461C344.046 61.4431 344.046 36.6531 329.037 20.8491C325.652 17.3401 320.063 17.2401 316.554 20.6251C313.045 24.0101 312.945 29.5991 316.33 33.1081C324.813 42.0421 324.813 56.0541 316.33 64.9871C301.33 80.7941 301.33 105.578 316.33 121.384Z" fill="url(#paint12_linear_10025_64220)"/>
</g>
<defs>
<linearGradient id="paint0_linear_10025_64220" x1="160.332" y1="186.762" x2="160.332" y2="257.117" gradientUnits="userSpaceOnUse">
<stop stop-color="#B9B8C0"/>
<stop offset="1" stop-color="#57565A"/>
</linearGradient>
<linearGradient id="paint1_linear_10025_64220" x1="338.428" y1="194.705" x2="338.428" y2="269.915" gradientUnits="userSpaceOnUse">
<stop stop-color="#B9B8C0"/>
<stop offset="1" stop-color="#57565A"/>
</linearGradient>
<linearGradient id="paint2_linear_10025_64220" x1="423.747" y1="265.855" x2="423.747" y2="282.98" gradientUnits="userSpaceOnUse">
<stop stop-color="#B9B8C0"/>
<stop offset="1" stop-color="#57565A"/>
</linearGradient>
<linearGradient id="paint3_linear_10025_64220" x1="387.776" y1="189.584" x2="387.776" y2="282.979" gradientUnits="userSpaceOnUse">
<stop stop-color="#B9B8C0"/>
<stop offset="1" stop-color="#57565A"/>
</linearGradient>
<linearGradient id="paint4_linear_10025_64220" x1="252.05" y1="141.736" x2="252.05" y2="282.981" gradientUnits="userSpaceOnUse">
<stop stop-color="#B9B8C0"/>
<stop offset="1" stop-color="#57565A"/>
</linearGradient>
<linearGradient id="paint5_linear_10025_64220" x1="64.641" y1="155.508" x2="64.641" y2="203.089" gradientUnits="userSpaceOnUse">
<stop stop-color="#B9B8C0"/>
<stop offset="1" stop-color="#57565A"/>
</linearGradient>
<linearGradient id="paint6_linear_10025_64220" x1="252.051" y1="494.842" x2="252.051" y2="512.498" gradientUnits="userSpaceOnUse">
<stop stop-color="#B9B8C0"/>
<stop offset="1" stop-color="#57565A"/>
</linearGradient>
<linearGradient id="paint7_linear_10025_64220" x1="252.094" y1="459.531" x2="252.094" y2="477.186" gradientUnits="userSpaceOnUse">
<stop stop-color="#B9B8C0"/>
<stop offset="1" stop-color="#57565A"/>
</linearGradient>
<linearGradient id="paint8_linear_10025_64220" x1="256.465" y1="300.635" x2="256.465" y2="441.877" gradientUnits="userSpaceOnUse">
<stop stop-color="#B9B8C0"/>
<stop offset="1" stop-color="#57565A"/>
</linearGradient>
<linearGradient id="paint9_linear_10025_64220" x1="122.243" y1="204.678" x2="122.243" y2="282.98" gradientUnits="userSpaceOnUse">
<stop stop-color="#B9B8C0"/>
<stop offset="1" stop-color="#57565A"/>
</linearGradient>
<linearGradient id="paint10_linear_10025_64220" x1="181.445" y1="18.1504" x2="181.445" y2="124.083" gradientUnits="userSpaceOnUse">
<stop stop-color="#B9B8C0"/>
<stop offset="1" stop-color="#57565A"/>
</linearGradient>
<linearGradient id="paint11_linear_10025_64220" x1="252.066" y1="0.496094" x2="252.066" y2="106.428" gradientUnits="userSpaceOnUse">
<stop stop-color="#B9B8C0"/>
<stop offset="1" stop-color="#57565A"/>
</linearGradient>
<linearGradient id="paint12_linear_10025_64220" x1="322.687" y1="18.1504" x2="322.687" y2="124.083" gradientUnits="userSpaceOnUse">
<stop stop-color="#B9B8C0"/>
<stop offset="1" stop-color="#57565A"/>
</linearGradient>
<clipPath id="clip0_10025_64220">
<rect width="512" height="512" fill="white" transform="translate(0.464844 0.496094)"/>
</clipPath>
</defs>
</svg>
