<svg width="513" height="513" viewBox="0 0 513 513" fill="none" xmlns="http://www.w3.org/2000/svg">
<g clip-path="url(#clip0_10025_64357)">
<path d="M486.545 290.738H440.721C453.548 272.384 455.995 248.71 447.194 228.121C438.392 207.532 419.588 192.942 397.457 189.533C394.341 200.062 392.732 210.979 392.678 221.96C398.557 220.909 404.16 218.674 409.147 215.389C413.105 212.852 418.371 214.001 420.913 217.955C423.455 221.909 422.314 227.177 418.363 229.725C408.933 236.098 397.83 239.542 386.448 239.624C385.849 239.638 385.251 239.61 384.656 239.539H384.4C383.856 239.524 383.314 239.467 382.779 239.368C372.312 238.749 362.204 235.33 353.51 229.469C351.023 227.677 349.687 224.69 350.006 221.642C350.325 218.594 352.251 215.949 355.055 214.71C357.859 213.471 361.111 213.828 363.58 215.645C367.244 218.074 371.279 219.89 375.527 221.02C375.633 210.404 376.979 199.836 379.538 189.532C357.37 192.88 338.507 207.449 329.665 228.051C320.823 248.653 323.258 272.362 336.103 290.737H316.391C310.404 279.252 307.3 266.483 307.346 253.532C307.314 229.294 318.035 206.291 336.615 190.727C320.741 182.902 303.19 179.093 285.5 179.634C226.961 179.634 179.345 216.839 179.345 262.663C179.371 272.371 181.526 281.954 185.66 290.738H167.228C163.934 281.745 162.258 272.24 162.279 262.663C162.506 241.15 170.682 220.482 185.234 204.636C189.195 200.095 193.534 195.899 198.205 192.092C193.853 179.463 198.802 161.543 201.533 153.436C206.053 140.991 206.143 127.369 201.789 114.865C195.633 96.6533 178.057 84.8083 158.866 85.9373H158.61C157.213 85.9453 155.817 86.0313 154.429 86.1933C152.705 82.7033 150.647 79.3883 148.285 76.2943C184.552 70.7473 212.37 43.0143 213.48 9.39334C213.544 7.06534 212.649 4.81334 211.005 3.16434C209.382 1.41934 207.07 0.48234 204.69 0.60434C166.631 1.54334 135.314 26.4603 129.17 58.9723C121.08 54.2833 111.897 51.8113 102.546 51.8043C97.8331 51.8043 94.0131 55.6243 94.0131 60.3373C94.0131 65.0503 97.8331 68.8703 102.546 68.8703C117.318 69.3813 130.691 77.7443 137.618 90.8013C116.047 100.823 100.658 120.663 96.3171 144.049C93.4501 157.549 86.2961 169.762 75.9221 178.865C58.2581 193.713 25.8311 233.052 25.8311 252.166C24.9171 265.682 28.1951 279.152 35.2181 290.737H25.7461C21.0391 290.751 17.2271 294.563 17.2131 299.27V316.337C17.3151 399.228 79.8581 468.724 162.28 477.532V496.988C162.284 505.611 169.273 512.6 177.896 512.604H334.227C342.941 512.594 350.003 505.532 350.014 496.817V477.532C432.436 468.724 494.979 399.228 495.081 316.337V299.27C495.065 294.564 491.252 290.752 486.545 290.738ZM240.529 260.359C240.844 259.912 241.186 259.485 241.553 259.079C243.618 257.103 246.51 256.244 249.318 256.775C249.853 256.868 250.37 257.041 250.854 257.287C251.378 257.457 251.869 257.717 252.305 258.055C252.817 258.396 253.244 258.738 253.67 259.079L254.694 260.359C255.017 260.834 255.276 261.351 255.462 261.895C255.709 262.378 255.881 262.896 255.974 263.431C256.069 263.995 256.126 264.566 256.145 265.138C256.112 267.397 255.229 269.561 253.67 271.197C253.243 271.538 252.817 271.88 252.305 272.221C251.87 272.559 251.379 272.819 250.854 272.989C250.37 273.236 249.853 273.408 249.318 273.501C248.754 273.596 248.183 273.653 247.611 273.672C245.352 273.639 243.188 272.756 241.552 271.197C241.185 270.791 240.843 270.364 240.528 269.917C240.205 269.441 239.946 268.925 239.76 268.381C239.501 267.873 239.328 267.325 239.248 266.76C239.149 266.225 239.092 265.683 239.077 265.139C239.096 264.567 239.153 263.997 239.248 263.432C239.341 262.897 239.513 262.38 239.76 261.896C239.948 261.351 240.206 260.835 240.529 260.359ZM224.487 233.479C227.383 230.525 231.965 230.034 235.421 232.307C238.878 234.58 240.242 238.981 238.678 242.81C237.114 246.64 233.058 248.827 228.999 248.03C224.94 247.233 222.012 243.675 222.012 239.538C222.041 237.278 222.925 235.113 224.487 233.479ZM207.42 259.079C208.236 258.308 209.192 257.7 210.236 257.287C211.792 256.605 213.522 256.426 215.185 256.775C215.72 256.868 216.237 257.041 216.721 257.287C217.245 257.457 217.736 257.717 218.172 258.055C218.684 258.396 219.111 258.738 219.537 259.079L220.561 260.359C220.884 260.834 221.143 261.351 221.329 261.895C221.576 262.378 221.748 262.896 221.841 263.431C221.94 263.995 221.997 264.565 222.012 265.138C221.999 266.253 221.768 267.355 221.329 268.381C220.917 269.425 220.308 270.381 219.537 271.197C219.119 271.585 218.661 271.929 218.172 272.221C217.737 272.559 217.246 272.819 216.721 272.989C216.238 273.236 215.72 273.408 215.185 273.501C214.621 273.6 214.051 273.657 213.478 273.672C212.363 273.659 211.261 273.428 210.235 272.989C208.092 272.212 206.404 270.524 205.627 268.381C205.189 267.355 204.957 266.254 204.944 265.138C204.962 262.876 205.848 260.706 207.42 259.079ZM195.047 18.6103C188.274 40.5603 169.282 56.5153 146.492 59.3993C153.289 37.4653 172.269 21.5213 195.047 18.6103ZM73.4471 351.495C71.6111 347.159 73.6351 342.156 77.9701 340.316C80.0501 339.415 82.4051 339.386 84.5071 340.236C86.6091 341.086 88.2811 342.744 89.1491 344.839C106.564 386.14 147.068 412.952 191.89 412.85C196.603 412.85 200.423 416.67 200.423 421.383C200.423 426.096 196.603 429.916 191.89 429.916C140.209 430.044 93.5081 399.123 73.4471 351.495ZM332.945 495.538H179.345V478.471H332.945V495.538Z" fill="url(#paint0_linear_10025_64357)"/>
<path d="M397.457 189.532C399.232 183.875 401.697 178.458 404.796 173.404H404.881C410.511 164.142 419.253 157.186 429.542 153.778C433.988 152.247 436.364 147.415 434.863 142.959C433.362 138.503 428.546 136.093 424.08 137.564C407.128 143.161 393.294 155.602 385.936 171.868C383.228 177.532 381.085 183.448 379.536 189.532C382.469 189.047 385.438 188.818 388.411 188.849C391.439 188.861 394.462 189.089 397.457 189.532Z" fill="url(#paint1_linear_10025_64357)"/>
</g>
<defs>
<linearGradient id="paint0_linear_10025_64357" x1="256.147" y1="0.59375" x2="256.147" y2="512.604" gradientUnits="userSpaceOnUse">
<stop stop-color="#B9B8C0"/>
<stop offset="1" stop-color="#57565A"/>
</linearGradient>
<linearGradient id="paint1_linear_10025_64357" x1="407.425" y1="137.133" x2="407.425" y2="189.532" gradientUnits="userSpaceOnUse">
<stop stop-color="#B9B8C0"/>
<stop offset="1" stop-color="#57565A"/>
</linearGradient>
<clipPath id="clip0_10025_64357">
<rect width="512.011" height="512.011" fill="white" transform="translate(0.140137 0.59375)"/>
</clipPath>
</defs>
</svg>
