<svg width="504" height="505" viewBox="0 0 504 505" fill="none" xmlns="http://www.w3.org/2000/svg">
<g clip-path="url(#clip0_10025_64378)">
<path d="M486.971 370.107H478.326V378.5C478.312 383.13 474.562 386.88 469.933 386.893H33.4731C28.8431 386.879 25.0931 383.129 25.0801 378.5V370.107H16.9381C7.67812 370.134 0.178123 377.634 0.151123 386.894V395.287C0.159123 418.461 18.9441 437.246 42.1181 437.254H193.2V437.338C193.136 446.569 185.644 454.024 176.413 454.041H142.839C128.949 454.082 117.699 465.331 117.659 479.221V487.614H100.887C96.2511 487.614 92.4941 491.372 92.4941 496.007C92.4941 500.643 96.2521 504.4 100.887 504.4H377.856L377.863 504.398L377.87 504.4H403.05C407.686 504.4 411.443 500.642 411.443 496.007C411.443 491.371 407.685 487.614 403.05 487.614H386.249V479.221C386.238 465.319 374.971 454.052 361.069 454.041H327.495C318.247 453.985 310.764 446.502 310.708 437.254H461.79C484.964 437.245 503.749 418.461 503.757 395.287V386.894C503.73 377.634 496.231 370.135 486.971 370.107ZM327.495 470.829H361.069C365.699 470.843 369.449 474.593 369.462 479.222V487.615H134.446V479.222C134.459 474.592 138.209 470.842 142.839 470.829H176.413C185.318 470.831 193.859 467.295 200.156 460.998C206.453 454.701 209.989 446.16 209.987 437.255H293.921C293.946 455.787 308.963 470.804 327.495 470.829Z" fill="url(#paint0_linear_10025_64378)"/>
<path d="M361.153 143.568C351.634 152.241 345.781 164.218 344.786 177.058H377.437C376.448 164.235 370.628 152.265 361.153 143.568Z" fill="url(#paint1_linear_10025_64378)"/>
<path d="M252.038 143.568C242.519 152.241 236.666 164.218 235.671 177.058H268.322C267.333 164.235 261.513 152.265 252.038 143.568Z" fill="url(#paint2_linear_10025_64378)"/>
<path d="M142.923 143.568C133.404 152.241 127.551 164.218 126.556 177.058H159.207C158.218 164.235 152.399 152.265 142.923 143.568Z" fill="url(#paint3_linear_10025_64378)"/>
<path d="M134.446 240.26C134.43 237.81 132.448 235.829 129.998 235.812H92.4791V252.6H134.446V240.26Z" fill="url(#paint4_linear_10025_64378)"/>
<path d="M366.861 235.812H268.741C259.456 235.88 251.907 243.316 251.702 252.599H377.855V246.807C377.835 240.744 372.924 235.833 366.861 235.812Z" fill="url(#paint5_linear_10025_64378)"/>
<path d="M75.6921 234.302C65.6571 230.753 58.9361 221.277 58.9051 210.633V206.94C58.9511 190.424 72.3531 177.059 88.8701 177.059H109.686C110.751 159.305 118.773 142.688 132.013 130.811C138.227 125.373 147.496 125.337 153.752 130.727C166.976 142.641 174.969 159.289 175.995 177.059H218.802C219.867 159.305 227.889 142.688 241.129 130.811C247.343 125.373 256.612 125.337 262.868 130.727C276.092 142.641 284.085 159.289 285.111 177.059H327.918C328.983 159.305 337.005 142.688 350.245 130.811C356.459 125.373 365.728 125.337 371.984 130.727C385.208 142.641 393.201 159.289 394.227 177.059H415.127C431.614 177.095 444.971 190.452 445.008 206.94V260.994C445.01 270.206 441.214 279.011 434.516 285.335C432.607 287.165 430.495 288.77 428.221 290.119V370.109H478.33V197.286C478.33 112.093 406.398 42.7629 317.931 42.7629C307.85 42.9389 298.662 37.0019 294.681 27.7389L294.01 26.1439C292.756 23.0959 291.12 20.2189 289.142 17.5829H302.32C306.956 17.5829 310.713 13.8249 310.713 9.18987C310.713 4.55387 306.955 0.796875 302.32 0.796875H201.594C196.958 0.796875 193.201 4.55487 193.201 9.18987C193.201 13.8259 196.959 17.5829 201.594 17.5829H214.268C212.29 20.2189 210.654 23.0959 209.4 26.1439L208.729 27.7389C204.748 37.0029 195.561 42.9399 185.479 42.7629C97.0121 42.7629 25.0801 112.093 25.0801 197.286V370.107H75.6921V234.302Z" fill="url(#paint6_linear_10025_64378)"/>
<path d="M411.43 328.141H92.4791V370.108H411.43V328.141Z" fill="url(#paint7_linear_10025_64378)"/>
<path d="M84.0851 219.025H129.997C135.631 219.017 141.037 221.252 145.021 225.236C149.005 229.22 151.24 234.626 151.232 240.26V269.385C151.232 278.656 158.748 286.172 168.019 286.172C177.29 286.172 184.806 278.656 184.806 269.385C184.833 260.125 192.333 252.625 201.593 252.598H234.915C234.999 233.992 250.135 218.969 268.741 219.024H366.86C382.196 219.043 394.624 231.47 394.642 246.806V259.564C394.64 261.244 394.895 262.914 395.397 264.516C395.481 264.852 395.565 265.104 395.649 265.439C395.847 266.235 396.158 266.998 396.572 267.705C396.846 268.49 397.243 269.226 397.747 269.887C398.183 270.586 398.659 271.259 399.174 271.901C399.321 272.114 399.489 272.311 399.678 272.489L400.014 272.825H400.098C400.686 273.413 401.189 273.916 401.861 274.504H401.945C401.99 274.55 402.049 274.579 402.113 274.588C402.491 274.949 402.914 275.26 403.372 275.511C403.776 275.712 404.169 275.936 404.547 276.183C404.867 276.257 405.177 276.37 405.47 276.519L406.058 276.771C406.407 276.947 406.772 277.088 407.149 277.191H407.233C407.779 277.38 408.341 277.521 408.912 277.611C409.416 277.695 410.003 277.695 410.507 277.779C411.068 277.791 411.629 277.763 412.186 277.695C412.747 277.753 413.313 277.725 413.865 277.611H413.949C414.979 277.42 415.99 277.14 416.971 276.772H417.055C417.223 276.688 417.391 276.688 417.559 276.604C419.589 275.833 421.445 274.663 423.015 273.163C426.353 269.997 428.236 265.593 428.219 260.992V206.938C428.21 199.71 422.353 193.853 415.125 193.844H88.8701C85.3861 193.831 82.0391 195.204 79.5671 197.659C77.0951 200.115 75.7011 203.453 75.6921 206.937V210.63C75.7051 215.262 79.4551 219.012 84.0851 219.025Z" fill="url(#paint8_linear_10025_64378)"/>
<path d="M403.12 293.476C402.631 293.386 402.153 293.246 401.693 293.056C401.357 292.888 401.105 292.804 400.77 292.636L399.931 292.3C399.427 292.132 398.924 291.964 398.504 291.796C398.084 291.628 397.581 291.46 397.161 291.292L397.077 291.208C396.556 290.961 396.051 290.68 395.566 290.369L394.055 289.362C393.719 289.194 393.467 289.026 393.3 288.942C392.796 288.606 392.461 288.355 392.209 288.187C392.041 288.019 391.873 287.935 391.789 287.851C391.201 287.347 390.53 286.843 389.942 286.34C389.27 285.753 388.683 285.165 388.095 284.577C387.86 284.335 387.608 284.111 387.34 283.906V283.822C386.655 283.126 386.037 282.367 385.493 281.556C384.878 280.813 384.318 280.028 383.814 279.206C383.586 278.86 383.39 278.495 383.226 278.115C382.976 277.676 382.695 277.256 382.387 276.856C382.303 276.772 382.303 276.604 382.219 276.52C382.135 276.352 382.051 276.268 381.967 276.1C380.855 273.964 379.983 271.712 379.365 269.385H201.594C201.594 287.927 186.563 302.959 168.02 302.959C149.477 302.959 134.446 287.928 134.446 269.385H92.4791V311.352H411.43V294.566C410.841 294.582 410.252 294.554 409.667 294.482C407.454 294.395 405.258 294.057 403.12 293.476Z" fill="url(#paint9_linear_10025_64378)"/>
</g>
<defs>
<linearGradient id="paint0_linear_10025_64378" x1="251.954" y1="370.107" x2="251.954" y2="504.4" gradientUnits="userSpaceOnUse">
<stop stop-color="#B9B8C0"/>
<stop offset="1" stop-color="#57565A"/>
</linearGradient>
<linearGradient id="paint1_linear_10025_64378" x1="361.112" y1="143.568" x2="361.112" y2="177.058" gradientUnits="userSpaceOnUse">
<stop stop-color="#B9B8C0"/>
<stop offset="1" stop-color="#57565A"/>
</linearGradient>
<linearGradient id="paint2_linear_10025_64378" x1="251.997" y1="143.568" x2="251.997" y2="177.058" gradientUnits="userSpaceOnUse">
<stop stop-color="#B9B8C0"/>
<stop offset="1" stop-color="#57565A"/>
</linearGradient>
<linearGradient id="paint3_linear_10025_64378" x1="142.882" y1="143.568" x2="142.882" y2="177.058" gradientUnits="userSpaceOnUse">
<stop stop-color="#B9B8C0"/>
<stop offset="1" stop-color="#57565A"/>
</linearGradient>
<linearGradient id="paint4_linear_10025_64378" x1="113.463" y1="235.812" x2="113.463" y2="252.6" gradientUnits="userSpaceOnUse">
<stop stop-color="#B9B8C0"/>
<stop offset="1" stop-color="#57565A"/>
</linearGradient>
<linearGradient id="paint5_linear_10025_64378" x1="314.779" y1="235.812" x2="314.779" y2="252.599" gradientUnits="userSpaceOnUse">
<stop stop-color="#B9B8C0"/>
<stop offset="1" stop-color="#57565A"/>
</linearGradient>
<linearGradient id="paint6_linear_10025_64378" x1="251.705" y1="0.796875" x2="251.705" y2="370.109" gradientUnits="userSpaceOnUse">
<stop stop-color="#B9B8C0"/>
<stop offset="1" stop-color="#57565A"/>
</linearGradient>
<linearGradient id="paint7_linear_10025_64378" x1="251.955" y1="328.141" x2="251.955" y2="370.108" gradientUnits="userSpaceOnUse">
<stop stop-color="#B9B8C0"/>
<stop offset="1" stop-color="#57565A"/>
</linearGradient>
<linearGradient id="paint8_linear_10025_64378" x1="251.956" y1="193.844" x2="251.956" y2="286.172" gradientUnits="userSpaceOnUse">
<stop stop-color="#B9B8C0"/>
<stop offset="1" stop-color="#57565A"/>
</linearGradient>
<linearGradient id="paint9_linear_10025_64378" x1="251.955" y1="269.385" x2="251.955" y2="311.352" gradientUnits="userSpaceOnUse">
<stop stop-color="#B9B8C0"/>
<stop offset="1" stop-color="#57565A"/>
</linearGradient>
<clipPath id="clip0_10025_64378">
<rect width="503.607" height="503.607" fill="white" transform="translate(0.151123 0.794922)"/>
</clipPath>
</defs>
</svg>
