<svg width="513" height="513" viewBox="0 0 513 513" fill="none" xmlns="http://www.w3.org/2000/svg">
<g clip-path="url(#clip0_10025_64484)">
<path d="M420.66 293.429C439.999 293.378 456.017 308.43 457.168 327.735C458.318 347.04 444.202 363.888 424.993 366.134L429.141 421.429H474.803L462.424 256.458C444.917 254.642 431.223 240.552 429.906 223.001C428.589 205.45 440.027 189.474 457.066 185.065L455.616 165.746C454.812 155.261 446.078 147.159 435.562 147.143H408.56L419.544 293.529C419.918 293.518 420.285 293.429 420.66 293.429Z" fill="url(#paint0_linear_10025_64484)"/>
<path d="M226.017 55.7127H286.16C286.645 55.7127 287.098 55.8347 287.577 55.8497C296.649 40.4897 293.316 20.8257 279.688 9.31369C266.06 -2.19831 246.115 -2.19831 232.488 9.31369C218.86 20.8257 215.527 40.4897 224.599 55.8497C225.079 55.8357 225.533 55.7127 226.017 55.7127Z" fill="url(#paint1_linear_10025_64484)"/>
<path d="M438.894 328.568C438.186 319.136 430.368 311.82 420.91 311.738L423.624 347.894C432.964 346.402 439.602 338.001 438.894 328.568Z" fill="url(#paint2_linear_10025_64484)"/>
<path d="M278.945 229.426C286.519 229.426 292.659 223.286 292.659 215.712C292.659 208.138 286.519 201.998 278.945 201.998C271.371 201.998 265.231 208.138 265.231 215.712C265.231 223.286 271.371 229.426 278.945 229.426Z" fill="url(#paint3_linear_10025_64484)"/>
<path d="M251.517 147.141C259.091 147.141 265.231 141.001 265.231 133.427C265.231 125.853 259.091 119.713 251.517 119.713C243.943 119.713 237.803 125.853 237.803 133.427C237.803 141.001 243.943 147.141 251.517 147.141Z" fill="url(#paint4_linear_10025_64484)"/>
<path d="M356.66 151.713C356.673 146.562 353.791 141.841 349.204 139.497C344.617 137.153 339.103 137.584 334.936 140.613L336.664 163.665C338.576 164.771 340.737 165.377 342.945 165.428C350.516 165.419 356.651 159.284 356.66 151.713Z" fill="url(#paint5_linear_10025_64484)"/>
<path d="M233.231 311.713C240.805 311.713 246.945 305.573 246.945 297.999C246.945 290.425 240.805 284.285 233.231 284.285C225.657 284.285 219.517 290.425 219.517 297.999C219.517 305.573 225.657 311.713 233.231 311.713Z" fill="url(#paint6_linear_10025_64484)"/>
<path d="M342.945 119.712C355.07 119.531 366.256 126.218 371.836 136.984C377.417 147.75 376.433 160.745 369.296 170.548C362.159 180.351 350.094 185.279 338.135 183.275L345.045 275.388C345.872 275.332 346.684 275.14 347.517 275.14C367.121 275.089 383.259 290.543 384.059 310.13C384.858 329.718 370.033 346.435 350.49 347.982L353.338 385.95C362.907 383.361 373.136 385.408 380.972 391.479C388.808 397.55 393.346 406.943 393.231 416.855C393.219 418.386 393.097 419.913 392.865 421.426H410.802L399.101 265.461C397.162 265.8 395.199 265.979 393.23 265.997C373.032 265.997 356.659 249.623 356.659 229.426C356.659 209.228 373.033 192.855 393.23 192.855C393.373 192.855 393.513 192.896 393.657 192.898L388.506 124.239C387.502 111.377 376.782 101.446 363.881 101.426H331.995L333.488 121.332C336.541 120.315 339.729 119.769 342.945 119.712Z" fill="url(#paint7_linear_10025_64484)"/>
<path d="M374.945 229.429C374.957 239.523 383.137 247.703 393.231 247.715C394.749 247.699 396.259 247.49 397.724 247.093L395.041 211.322C394.441 211.232 393.837 211.172 393.231 211.143C383.137 211.154 374.957 219.334 374.945 229.429Z" fill="url(#paint8_linear_10025_64484)"/>
<path d="M347.517 293.428C347.144 293.428 346.778 293.518 346.407 293.541L349.129 329.836C358.871 328.998 366.219 320.627 365.787 310.859C365.355 301.091 357.295 293.401 347.517 293.428Z" fill="url(#paint9_linear_10025_64484)"/>
<path d="M354.764 404.973L355.998 421.428H374.121C374.661 419.964 374.94 418.417 374.945 416.857C374.937 409.286 368.801 403.151 361.231 403.143C358.956 403.2 356.732 403.829 354.764 404.973Z" fill="url(#paint10_linear_10025_64484)"/>
<path d="M278.945 384.856C286.519 384.856 292.659 378.716 292.659 371.142C292.659 363.568 286.519 357.428 278.945 357.428C271.371 357.428 265.231 363.568 265.231 371.142C265.231 378.716 271.371 384.856 278.945 384.856Z" fill="url(#paint11_linear_10025_64484)"/>
<path d="M87.1838 366.133C67.9748 363.887 53.8578 347.039 55.0088 327.734C56.1598 308.429 72.1768 293.377 91.5168 293.428C91.8918 293.428 92.2578 293.517 92.6318 293.529L103.615 147.143H76.6148C66.1078 147.156 57.3768 155.244 56.5608 165.719L55.1098 185.064C72.1498 189.472 83.5888 205.449 82.2718 223C80.9548 240.551 67.2598 254.642 49.7528 256.458L37.3738 421.429H83.0348L87.1838 366.133Z" fill="url(#paint12_linear_10025_64484)"/>
<path d="M137.231 416.857C137.236 418.417 137.515 419.964 138.055 421.428H156.178L157.412 404.973C155.445 403.829 153.221 403.199 150.946 403.143C143.374 403.151 137.239 409.286 137.231 416.857Z" fill="url(#paint13_linear_10025_64484)"/>
<path d="M88.5528 347.88L91.2638 311.738C81.8078 311.819 73.9928 319.133 73.2848 328.562C72.5788 337.992 79.2158 346.39 88.5528 347.88Z" fill="url(#paint14_linear_10025_64484)"/>
<path d="M64.0879 220.284C64.0669 213.269 60.0289 206.887 53.6989 203.865L51.1619 237.675C58.8179 235.34 64.0599 228.288 64.0879 220.284Z" fill="url(#paint15_linear_10025_64484)"/>
<path d="M502.945 476.285H0.0878906V485.428C0.104891 500.57 12.3749 512.84 27.5169 512.857H484.66C499.802 512.841 512.072 500.57 512.089 485.428V476.285H502.945Z" fill="url(#paint16_linear_10025_64484)"/>
<path d="M448.088 220.285C448.116 228.289 453.356 235.34 461.012 237.676L458.482 203.955C452.155 206.934 448.109 213.291 448.088 220.285Z" fill="url(#paint17_linear_10025_64484)"/>
<path d="M493.802 448.856C493.797 443.809 489.707 439.718 484.659 439.713H27.5168C22.4698 439.718 18.3788 443.808 18.3738 448.856V457.999H493.803V448.856H493.802Z" fill="url(#paint18_linear_10025_64484)"/>
<path d="M251.517 421.427H337.66L331.504 339.337L331.493 339.182L316.375 137.594L316.366 137.477L313.509 99.373C312.383 85.088 300.49 74.053 286.161 73.998H226.018C211.689 74.053 199.796 85.088 198.67 99.373L195.813 137.477L195.804 137.594L180.686 339.182L180.675 339.337L174.519 421.427H251.517ZM278.945 403.141C261.272 403.141 246.945 388.814 246.945 371.141C246.945 353.468 261.272 339.141 278.945 339.141C296.618 339.141 310.945 353.468 310.945 371.141C310.924 388.805 296.609 403.119 278.945 403.141ZM310.945 215.712C310.945 233.385 296.618 247.712 278.945 247.712C261.272 247.712 246.945 233.385 246.945 215.712C246.945 198.039 261.272 183.712 278.945 183.712C296.609 183.734 310.924 198.048 310.945 215.712ZM251.517 101.427C269.19 101.427 283.517 115.754 283.517 133.427C283.517 151.1 269.19 165.427 251.517 165.427C233.844 165.427 219.517 151.1 219.517 133.427C219.538 115.762 233.852 101.448 251.517 101.427ZM233.231 265.998C250.904 265.998 265.231 280.325 265.231 297.998C265.231 315.671 250.904 329.998 233.231 329.998C215.558 329.998 201.231 315.671 201.231 297.998C201.252 280.334 215.567 266.019 233.231 265.998Z" fill="url(#paint19_linear_10025_64484)"/>
<path d="M169.231 137.998C161.657 137.998 155.517 144.138 155.517 151.712C155.517 159.286 161.657 165.426 169.231 165.426C171.44 165.375 173.6 164.769 175.512 163.663L177.24 140.611C174.913 138.917 172.11 138.002 169.231 137.998Z" fill="url(#paint20_linear_10025_64484)"/>
<path d="M146.374 311.713C146.404 321.159 153.637 329.021 163.048 329.836L165.77 293.541C165.398 293.518 165.032 293.428 164.659 293.428C154.565 293.439 146.385 301.619 146.374 311.713Z" fill="url(#paint21_linear_10025_64484)"/>
<path d="M119.311 421.427C117.9 412.229 120.595 402.874 126.683 395.836C132.771 388.798 141.64 384.784 150.945 384.855C153.611 384.891 156.263 385.259 158.838 385.95L161.686 347.982C142.143 346.435 127.318 329.718 128.117 310.13C128.916 290.542 145.055 275.089 164.659 275.14C165.492 275.14 166.304 275.332 167.131 275.388L174.041 183.275C160.904 185.535 147.741 179.419 140.997 167.921C134.253 156.423 135.338 141.949 143.722 131.586C152.106 121.222 166.034 117.138 178.687 121.332L180.18 101.426H148.294C135.401 101.444 124.683 111.363 123.669 124.216L118.517 192.897C118.661 192.896 118.801 192.854 118.945 192.854C139.143 192.854 155.516 209.228 155.516 229.425C155.516 249.623 139.142 265.996 118.945 265.996C116.976 265.978 115.012 265.799 113.072 265.46L101.373 421.425H119.311V421.427Z" fill="url(#paint22_linear_10025_64484)"/>
<path d="M137.231 229.429C137.219 219.335 129.039 211.155 118.945 211.143C118.339 211.172 117.735 211.231 117.135 211.322L114.452 247.092C115.917 247.489 117.427 247.699 118.945 247.715C129.039 247.703 137.219 239.523 137.231 229.429Z" fill="url(#paint23_linear_10025_64484)"/>
</g>
<defs>
<linearGradient id="paint0_linear_10025_64484" x1="441.681" y1="147.143" x2="441.681" y2="421.429" gradientUnits="userSpaceOnUse">
<stop stop-color="#B9B8C0"/>
<stop offset="1" stop-color="#57565A"/>
</linearGradient>
<linearGradient id="paint1_linear_10025_64484" x1="256.088" y1="0.679687" x2="256.088" y2="55.8497" gradientUnits="userSpaceOnUse">
<stop stop-color="#B9B8C0"/>
<stop offset="1" stop-color="#57565A"/>
</linearGradient>
<linearGradient id="paint2_linear_10025_64484" x1="429.928" y1="311.738" x2="429.928" y2="347.894" gradientUnits="userSpaceOnUse">
<stop stop-color="#B9B8C0"/>
<stop offset="1" stop-color="#57565A"/>
</linearGradient>
<linearGradient id="paint3_linear_10025_64484" x1="278.945" y1="201.998" x2="278.945" y2="229.426" gradientUnits="userSpaceOnUse">
<stop stop-color="#B9B8C0"/>
<stop offset="1" stop-color="#57565A"/>
</linearGradient>
<linearGradient id="paint4_linear_10025_64484" x1="251.517" y1="119.713" x2="251.517" y2="147.141" gradientUnits="userSpaceOnUse">
<stop stop-color="#B9B8C0"/>
<stop offset="1" stop-color="#57565A"/>
</linearGradient>
<linearGradient id="paint5_linear_10025_64484" x1="345.798" y1="137.998" x2="345.798" y2="165.428" gradientUnits="userSpaceOnUse">
<stop stop-color="#B9B8C0"/>
<stop offset="1" stop-color="#57565A"/>
</linearGradient>
<linearGradient id="paint6_linear_10025_64484" x1="233.231" y1="284.285" x2="233.231" y2="311.713" gradientUnits="userSpaceOnUse">
<stop stop-color="#B9B8C0"/>
<stop offset="1" stop-color="#57565A"/>
</linearGradient>
<linearGradient id="paint7_linear_10025_64484" x1="371.398" y1="101.426" x2="371.398" y2="421.426" gradientUnits="userSpaceOnUse">
<stop stop-color="#B9B8C0"/>
<stop offset="1" stop-color="#57565A"/>
</linearGradient>
<linearGradient id="paint8_linear_10025_64484" x1="386.334" y1="211.143" x2="386.334" y2="247.715" gradientUnits="userSpaceOnUse">
<stop stop-color="#B9B8C0"/>
<stop offset="1" stop-color="#57565A"/>
</linearGradient>
<linearGradient id="paint9_linear_10025_64484" x1="356.106" y1="293.428" x2="356.106" y2="329.836" gradientUnits="userSpaceOnUse">
<stop stop-color="#B9B8C0"/>
<stop offset="1" stop-color="#57565A"/>
</linearGradient>
<linearGradient id="paint10_linear_10025_64484" x1="364.854" y1="403.143" x2="364.854" y2="421.428" gradientUnits="userSpaceOnUse">
<stop stop-color="#B9B8C0"/>
<stop offset="1" stop-color="#57565A"/>
</linearGradient>
<linearGradient id="paint11_linear_10025_64484" x1="278.945" y1="357.428" x2="278.945" y2="384.856" gradientUnits="userSpaceOnUse">
<stop stop-color="#B9B8C0"/>
<stop offset="1" stop-color="#57565A"/>
</linearGradient>
<linearGradient id="paint12_linear_10025_64484" x1="70.4943" y1="147.143" x2="70.4943" y2="421.429" gradientUnits="userSpaceOnUse">
<stop stop-color="#B9B8C0"/>
<stop offset="1" stop-color="#57565A"/>
</linearGradient>
<linearGradient id="paint13_linear_10025_64484" x1="147.321" y1="403.143" x2="147.321" y2="421.428" gradientUnits="userSpaceOnUse">
<stop stop-color="#B9B8C0"/>
<stop offset="1" stop-color="#57565A"/>
</linearGradient>
<linearGradient id="paint14_linear_10025_64484" x1="82.2486" y1="311.738" x2="82.2486" y2="347.88" gradientUnits="userSpaceOnUse">
<stop stop-color="#B9B8C0"/>
<stop offset="1" stop-color="#57565A"/>
</linearGradient>
<linearGradient id="paint15_linear_10025_64484" x1="57.6249" y1="203.865" x2="57.6249" y2="237.675" gradientUnits="userSpaceOnUse">
<stop stop-color="#B9B8C0"/>
<stop offset="1" stop-color="#57565A"/>
</linearGradient>
<linearGradient id="paint16_linear_10025_64484" x1="256.088" y1="476.285" x2="256.088" y2="512.857" gradientUnits="userSpaceOnUse">
<stop stop-color="#B9B8C0"/>
<stop offset="1" stop-color="#57565A"/>
</linearGradient>
<linearGradient id="paint17_linear_10025_64484" x1="454.55" y1="203.955" x2="454.55" y2="237.676" gradientUnits="userSpaceOnUse">
<stop stop-color="#B9B8C0"/>
<stop offset="1" stop-color="#57565A"/>
</linearGradient>
<linearGradient id="paint18_linear_10025_64484" x1="256.088" y1="439.713" x2="256.088" y2="457.999" gradientUnits="userSpaceOnUse">
<stop stop-color="#B9B8C0"/>
<stop offset="1" stop-color="#57565A"/>
</linearGradient>
<linearGradient id="paint19_linear_10025_64484" x1="256.089" y1="73.998" x2="256.089" y2="421.427" gradientUnits="userSpaceOnUse">
<stop stop-color="#B9B8C0"/>
<stop offset="1" stop-color="#57565A"/>
</linearGradient>
<linearGradient id="paint20_linear_10025_64484" x1="166.378" y1="137.998" x2="166.378" y2="165.426" gradientUnits="userSpaceOnUse">
<stop stop-color="#B9B8C0"/>
<stop offset="1" stop-color="#57565A"/>
</linearGradient>
<linearGradient id="paint21_linear_10025_64484" x1="156.072" y1="293.428" x2="156.072" y2="329.836" gradientUnits="userSpaceOnUse">
<stop stop-color="#B9B8C0"/>
<stop offset="1" stop-color="#57565A"/>
</linearGradient>
<linearGradient id="paint22_linear_10025_64484" x1="140.776" y1="101.426" x2="140.776" y2="421.427" gradientUnits="userSpaceOnUse">
<stop stop-color="#B9B8C0"/>
<stop offset="1" stop-color="#57565A"/>
</linearGradient>
<linearGradient id="paint23_linear_10025_64484" x1="125.841" y1="211.143" x2="125.841" y2="247.715" gradientUnits="userSpaceOnUse">
<stop stop-color="#B9B8C0"/>
<stop offset="1" stop-color="#57565A"/>
</linearGradient>
<clipPath id="clip0_10025_64484">
<rect width="512.176" height="512.176" fill="white" transform="translate(0 0.679688)"/>
</clipPath>
</defs>
</svg>
