<svg width="513" height="513" viewBox="0 0 513 513" fill="none" xmlns="http://www.w3.org/2000/svg">
<g clip-path="url(#clip0_10025_64527)">
<path d="M100.633 75.7386C105.077 91.4806 112.223 106.331 121.753 119.625H144.884C132.48 105.542 123.389 88.8586 118.277 70.8016L106.94 30.6646C105.607 25.8276 108.432 20.8236 113.262 19.4646C118.092 18.1066 123.111 20.9046 124.495 25.7276L135.833 65.8646C141.852 86.9126 154.089 105.652 170.941 119.625H390.553C400.083 106.331 407.229 91.4806 411.673 75.7386L429.593 12.2876C430.562 8.25658 428.731 4.07258 425.113 2.04758C423.599 1.21958 421.903 0.779578 420.176 0.767578H92.131C90.405 0.779578 88.709 1.21958 87.194 2.04758C83.545 4.08658 81.74 8.33758 82.805 12.3786L100.633 75.7386Z" fill="url(#paint0_linear_10025_64527)"/>
<path d="M311.011 476.197H201.296C179.58 476.224 160.87 491.498 156.496 512.768H355.81C351.437 491.497 332.726 476.223 311.011 476.197Z" fill="url(#paint1_linear_10025_64527)"/>
<path d="M425.114 139.19C423.599 138.362 421.903 137.922 420.177 137.91H92.131C90.405 137.922 88.709 138.362 87.194 139.19C83.545 141.229 81.74 145.48 82.805 149.521L100.634 212.881C105.078 228.623 112.224 243.473 121.754 256.767H144.885C132.481 242.684 123.39 226.001 118.278 207.944L106.941 167.807C105.608 162.97 108.433 157.966 113.263 156.607C118.093 155.248 123.112 158.047 124.496 162.87L135.834 203.007C141.853 224.055 154.09 242.794 170.942 256.767H390.554C400.084 243.473 407.23 228.623 411.674 212.881L429.594 149.43C430.562 145.398 428.732 141.214 425.114 139.19Z" fill="url(#paint2_linear_10025_64527)"/>
<path d="M425.114 276.333C423.599 275.505 421.903 275.065 420.177 275.053H92.131C90.405 275.065 88.709 275.505 87.194 276.333C83.545 278.372 81.74 282.623 82.805 286.664L100.634 350.024C119.794 414.488 179.306 458.488 246.554 457.91H265.754C333.002 458.488 392.514 414.488 411.674 350.024L429.594 286.573C430.562 282.541 428.732 278.357 425.114 276.333ZM181.366 412.927C179.649 415.372 176.856 416.837 173.868 416.858C171.976 416.848 170.13 416.275 168.564 415.212C144.212 398.34 126.446 373.564 118.278 345.086L106.941 304.949C105.608 300.112 108.433 295.108 113.263 293.749C118.093 292.391 123.112 295.189 124.496 300.012L135.834 340.149C142.878 364.566 158.159 385.791 179.08 400.218C183.183 403.12 184.2 408.777 181.366 412.927ZM237.844 429.844C237.507 434.632 233.525 438.344 228.725 438.345C228.296 438.357 227.868 438.326 227.445 438.254C220.825 437.354 214.284 435.948 207.879 434.048C205.543 433.382 203.57 431.808 202.402 429.678C201.234 427.548 200.967 425.039 201.662 422.711C203.102 417.885 208.155 415.114 212.999 416.494C218.56 418.167 224.247 419.39 230.005 420.151C234.757 420.822 238.181 425.056 237.844 429.844Z" fill="url(#paint3_linear_10025_64527)"/>
</g>
<defs>
<linearGradient id="paint0_linear_10025_64527" x1="256.176" y1="0.767578" x2="256.176" y2="119.625" gradientUnits="userSpaceOnUse">
<stop stop-color="#B9B8C0"/>
<stop offset="1" stop-color="#57565A"/>
</linearGradient>
<linearGradient id="paint1_linear_10025_64527" x1="256.153" y1="476.197" x2="256.153" y2="512.768" gradientUnits="userSpaceOnUse">
<stop stop-color="#B9B8C0"/>
<stop offset="1" stop-color="#57565A"/>
</linearGradient>
<linearGradient id="paint2_linear_10025_64527" x1="256.176" y1="137.91" x2="256.176" y2="256.767" gradientUnits="userSpaceOnUse">
<stop stop-color="#B9B8C0"/>
<stop offset="1" stop-color="#57565A"/>
</linearGradient>
<linearGradient id="paint3_linear_10025_64527" x1="256.176" y1="275.053" x2="256.176" y2="457.915" gradientUnits="userSpaceOnUse">
<stop stop-color="#B9B8C0"/>
<stop offset="1" stop-color="#57565A"/>
</linearGradient>
<clipPath id="clip0_10025_64527">
<rect width="512" height="512" fill="white" transform="translate(0.176025 0.767578)"/>
</clipPath>
</defs>
</svg>
