<svg width="513" height="513" viewBox="0 0 513 513" fill="none" xmlns="http://www.w3.org/2000/svg">
<g clip-path="url(#clip0_10025_64574)">
<path d="M402.462 0.767578H137.319V128.768C137.304 133.811 133.219 137.896 128.176 137.911H0.176025V403.054H402.462V0.767578Z" fill="url(#paint0_linear_10025_64574)"/>
<path d="M119.033 13.6582L13.067 119.624H119.033V13.6582Z" fill="url(#paint1_linear_10025_64574)"/>
<path d="M420.747 0.767578V403.237C420.72 404.781 420.505 406.316 420.107 407.808L512.176 499.877V0.767578H420.747ZM448.359 403.054C445.093 403.07 442.066 401.343 440.418 398.522C438.77 395.701 438.753 392.216 440.372 389.379C441.991 386.542 445.001 384.784 448.267 384.768H448.358C453.407 384.768 457.501 388.861 457.501 393.911C457.501 398.961 453.408 403.054 448.359 403.054ZM448.359 357.339C445.093 357.355 442.066 355.628 440.418 352.807C438.771 349.986 438.753 346.501 440.372 343.664C441.991 340.827 445.001 339.069 448.267 339.053H448.358C453.407 339.053 457.501 343.146 457.501 348.196C457.501 353.246 453.408 357.339 448.359 357.339ZM448.359 311.625C443.31 311.65 439.196 307.577 439.17 302.528C439.145 297.479 443.218 293.365 448.267 293.339H448.358C453.407 293.339 457.501 297.432 457.501 302.482C457.501 307.532 453.408 311.625 448.359 311.625ZM448.359 265.911C443.31 265.936 439.196 261.863 439.17 256.814C439.145 251.765 443.218 247.651 448.267 247.625H448.358C453.407 247.625 457.501 251.718 457.501 256.768C457.501 261.818 453.408 265.911 448.359 265.911ZM448.359 220.197C443.31 220.222 439.196 216.149 439.17 211.1C439.145 206.051 443.218 201.937 448.267 201.911H448.358C453.407 201.911 457.501 206.004 457.501 211.054C457.502 216.103 453.408 220.197 448.359 220.197ZM448.359 174.482C443.31 174.507 439.196 170.434 439.17 165.385C439.145 160.336 443.218 156.222 448.267 156.196H448.358C453.407 156.196 457.501 160.289 457.501 165.339C457.502 170.389 453.408 174.482 448.359 174.482ZM448.359 128.768C443.31 128.793 439.196 124.72 439.17 119.671C439.145 114.622 443.218 110.508 448.267 110.482H448.358C453.407 110.482 457.501 114.575 457.501 119.625C457.502 124.675 453.408 128.768 448.359 128.768ZM448.359 83.0536C443.31 83.0786 439.196 79.0056 439.17 73.9566C439.145 68.9076 443.218 64.7936 448.267 64.7676H448.358C453.407 64.7676 457.501 68.8606 457.501 73.9106C457.502 78.9596 453.408 83.0536 448.359 83.0536ZM448.359 37.3386C445.093 37.3546 442.066 35.6276 440.418 32.8066C438.771 29.9856 438.753 26.5006 440.372 23.6636C441.991 20.8266 445.001 19.0686 448.267 19.0526H448.358C453.407 19.0526 457.501 23.1456 457.501 28.1956C457.502 33.2456 453.408 37.3386 448.359 37.3386ZM484.93 448.768C481.664 448.784 478.637 447.057 476.989 444.236C475.342 441.415 475.324 437.93 476.943 435.093C478.562 432.256 481.572 430.498 484.838 430.482H484.929C489.978 430.482 494.072 434.575 494.072 439.625C494.073 444.675 489.98 448.768 484.93 448.768ZM484.93 403.054C481.664 403.07 478.637 401.343 476.989 398.522C475.342 395.701 475.324 392.216 476.943 389.379C478.562 386.542 481.572 384.784 484.838 384.768H484.929C489.978 384.768 494.072 388.861 494.072 393.911C494.072 398.961 489.98 403.054 484.93 403.054ZM484.93 357.339C481.664 357.355 478.637 355.628 476.989 352.807C475.342 349.986 475.324 346.501 476.943 343.664C478.562 340.827 481.572 339.069 484.838 339.053H484.929C489.978 339.053 494.072 343.146 494.072 348.196C494.072 353.246 489.98 357.339 484.93 357.339ZM484.93 311.625C481.664 311.641 478.637 309.914 476.989 307.093C475.342 304.272 475.324 300.787 476.943 297.95C478.562 295.113 481.572 293.355 484.838 293.339H484.929C489.978 293.339 494.072 297.432 494.072 302.482C494.072 307.532 489.98 311.625 484.93 311.625ZM484.93 265.911C481.664 265.927 478.637 264.2 476.989 261.379C475.342 258.558 475.324 255.073 476.943 252.236C478.562 249.399 481.572 247.641 484.838 247.625H484.929C489.978 247.625 494.072 251.718 494.072 256.768C494.072 261.818 489.98 265.911 484.93 265.911ZM484.93 220.197C481.664 220.213 478.637 218.486 476.989 215.665C475.342 212.844 475.324 209.359 476.943 206.522C478.562 203.685 481.572 201.927 484.838 201.911H484.929C489.978 201.911 494.072 206.004 494.072 211.054C494.073 216.103 489.98 220.197 484.93 220.197ZM484.93 174.482C481.664 174.498 478.637 172.771 476.989 169.95C475.342 167.129 475.324 163.644 476.943 160.807C478.562 157.97 481.572 156.212 484.838 156.196H484.929C489.978 156.196 494.072 160.289 494.072 165.339C494.073 170.389 489.98 174.482 484.93 174.482ZM484.93 128.768C481.664 128.784 478.637 127.057 476.989 124.236C475.342 121.415 475.324 117.93 476.943 115.093C478.562 112.256 481.572 110.498 484.838 110.482H484.929C489.978 110.482 494.072 114.575 494.072 119.625C494.073 124.675 489.98 128.768 484.93 128.768ZM484.93 83.0536C481.664 83.0696 478.637 81.3426 476.989 78.5216C475.342 75.7006 475.324 72.2156 476.943 69.3786C478.562 66.5416 481.572 64.7836 484.838 64.7676H484.929C489.978 64.7676 494.072 68.8606 494.072 73.9106C494.073 78.9596 489.98 83.0536 484.93 83.0536ZM484.93 37.3386C481.664 37.3546 478.637 35.6276 476.989 32.8066C475.342 29.9856 475.324 26.5006 476.943 23.6636C478.562 20.8266 481.572 19.0686 484.838 19.0526H484.929C489.978 19.0526 494.072 23.1456 494.072 28.1956C494.073 33.2456 489.98 37.3386 484.93 37.3386Z" fill="url(#paint2_linear_10025_64574)"/>
<path d="M402.462 421.339H0.176025V512.768H499.285L407.125 420.699C405.603 421.104 404.036 421.319 402.462 421.339ZM27.787 494.482C24.521 494.498 21.494 492.771 19.846 489.95C18.199 487.129 18.181 483.644 19.8 480.807C21.419 477.97 24.429 476.212 27.695 476.196H27.786C32.835 476.196 36.929 480.289 36.929 485.339C36.93 490.389 32.837 494.482 27.787 494.482ZM27.787 457.911C24.521 457.927 21.494 456.2 19.846 453.379C18.199 450.558 18.181 447.073 19.8 444.236C21.419 441.399 24.429 439.641 27.695 439.625H27.786C32.835 439.625 36.929 443.718 36.929 448.768C36.93 453.817 32.837 457.911 27.787 457.911ZM73.502 494.482C70.236 494.498 67.209 492.771 65.561 489.95C63.914 487.129 63.896 483.644 65.515 480.807C67.134 477.97 70.144 476.212 73.41 476.196H73.501C78.55 476.196 82.644 480.289 82.644 485.339C82.645 490.389 78.551 494.482 73.502 494.482ZM73.502 457.911C70.236 457.927 67.209 456.2 65.561 453.379C63.914 450.558 63.896 447.073 65.515 444.236C67.134 441.399 70.144 439.641 73.41 439.625H73.501C78.55 439.625 82.644 443.718 82.644 448.768C82.645 453.817 78.551 457.911 73.502 457.911ZM119.216 494.482C115.95 494.498 112.923 492.771 111.275 489.95C109.628 487.129 109.61 483.644 111.229 480.807C112.848 477.97 115.858 476.212 119.124 476.196H119.215C124.264 476.196 128.358 480.289 128.358 485.339C128.359 490.389 124.265 494.482 119.216 494.482ZM119.216 457.911C115.95 457.927 112.923 456.2 111.275 453.379C109.628 450.558 109.61 447.073 111.229 444.236C112.848 441.399 115.858 439.641 119.124 439.625H119.215C124.264 439.625 128.358 443.718 128.358 448.768C128.359 453.817 124.265 457.911 119.216 457.911ZM164.93 494.482C161.664 494.498 158.637 492.771 156.989 489.95C155.342 487.129 155.324 483.644 156.943 480.807C158.562 477.97 161.572 476.212 164.838 476.196H164.929C169.978 476.196 174.072 480.289 174.072 485.339C174.073 490.389 169.98 494.482 164.93 494.482ZM164.93 457.911C161.664 457.927 158.637 456.2 156.989 453.379C155.342 450.558 155.324 447.073 156.943 444.236C158.562 441.399 161.572 439.641 164.838 439.625H164.929C169.978 439.625 174.072 443.718 174.072 448.768C174.073 453.817 169.98 457.911 164.93 457.911ZM210.645 494.482C207.379 494.498 204.352 492.771 202.704 489.95C201.057 487.129 201.039 483.644 202.658 480.807C204.277 477.97 207.287 476.212 210.553 476.196H210.644C215.693 476.196 219.787 480.289 219.787 485.339C219.787 490.389 215.694 494.482 210.645 494.482ZM210.645 457.911C207.379 457.927 204.352 456.2 202.704 453.379C201.057 450.558 201.039 447.073 202.658 444.236C204.277 441.399 207.287 439.641 210.553 439.625H210.644C215.693 439.625 219.787 443.718 219.787 448.768C219.787 453.817 215.694 457.911 210.645 457.911ZM256.359 494.482C253.093 494.498 250.066 492.771 248.418 489.95C246.771 487.129 246.753 483.644 248.372 480.807C249.991 477.97 253.001 476.212 256.267 476.196H256.358C261.407 476.196 265.501 480.289 265.501 485.339C265.502 490.389 261.408 494.482 256.359 494.482ZM256.359 457.911C253.093 457.927 250.066 456.2 248.418 453.379C246.771 450.558 246.753 447.073 248.372 444.236C249.991 441.399 253.001 439.641 256.267 439.625H256.358C261.407 439.625 265.501 443.718 265.501 448.768C265.502 453.817 261.408 457.911 256.359 457.911ZM302.073 494.482C298.807 494.498 295.78 492.771 294.132 489.95C292.485 487.129 292.467 483.644 294.086 480.807C295.705 477.97 298.715 476.212 301.981 476.196H302.072C307.121 476.196 311.215 480.289 311.215 485.339C311.216 490.389 307.123 494.482 302.073 494.482ZM302.073 457.911C298.807 457.927 295.78 456.2 294.132 453.379C292.485 450.558 292.467 447.073 294.086 444.236C295.705 441.399 298.715 439.641 301.981 439.625H302.072C307.121 439.625 311.215 443.718 311.215 448.768C311.216 453.817 307.123 457.911 302.073 457.911ZM347.787 494.482C344.521 494.498 341.494 492.771 339.846 489.95C338.199 487.129 338.181 483.644 339.8 480.807C341.419 477.97 344.429 476.212 347.695 476.196H347.786C352.835 476.196 356.929 480.289 356.929 485.339C356.93 490.389 352.837 494.482 347.787 494.482ZM347.787 457.911C344.521 457.927 341.494 456.2 339.846 453.379C338.199 450.558 338.181 447.073 339.8 444.236C341.419 441.399 344.429 439.641 347.695 439.625H347.786C352.835 439.625 356.929 443.718 356.929 448.768C356.93 453.817 352.837 457.911 347.787 457.911ZM393.502 494.482C390.236 494.498 387.209 492.771 385.561 489.95C383.914 487.129 383.896 483.644 385.515 480.807C387.134 477.97 390.144 476.212 393.41 476.196H393.501C398.55 476.196 402.644 480.289 402.644 485.339C402.645 490.389 398.551 494.482 393.502 494.482ZM393.502 457.911C390.236 457.927 387.209 456.2 385.561 453.379C383.914 450.558 383.896 447.073 385.515 444.236C387.134 441.399 390.144 439.641 393.41 439.625H393.501C398.55 439.625 402.644 443.718 402.644 448.768C402.645 453.817 398.551 457.911 393.502 457.911ZM431.229 480.808C432.848 477.971 435.858 476.213 439.124 476.197H439.215C444.264 476.197 448.358 480.29 448.358 485.34C448.358 490.389 444.265 494.483 439.215 494.483C435.949 494.499 432.922 492.772 431.274 489.951C429.628 487.13 429.61 483.645 431.229 480.808Z" fill="url(#paint3_linear_10025_64574)"/>
</g>
<defs>
<linearGradient id="paint0_linear_10025_64574" x1="201.319" y1="0.767578" x2="201.319" y2="403.054" gradientUnits="userSpaceOnUse">
<stop stop-color="#B9B8C0"/>
<stop offset="1" stop-color="#57565A"/>
</linearGradient>
<linearGradient id="paint1_linear_10025_64574" x1="66.05" y1="13.6582" x2="66.05" y2="119.624" gradientUnits="userSpaceOnUse">
<stop stop-color="#B9B8C0"/>
<stop offset="1" stop-color="#57565A"/>
</linearGradient>
<linearGradient id="paint2_linear_10025_64574" x1="466.142" y1="0.767578" x2="466.142" y2="499.877" gradientUnits="userSpaceOnUse">
<stop stop-color="#B9B8C0"/>
<stop offset="1" stop-color="#57565A"/>
</linearGradient>
<linearGradient id="paint3_linear_10025_64574" x1="249.731" y1="420.699" x2="249.731" y2="512.768" gradientUnits="userSpaceOnUse">
<stop stop-color="#B9B8C0"/>
<stop offset="1" stop-color="#57565A"/>
</linearGradient>
<clipPath id="clip0_10025_64574">
<rect width="512" height="512" fill="white" transform="translate(0.176025 0.767578)"/>
</clipPath>
</defs>
</svg>
