<svg width="513" height="513" viewBox="0 0 513 513" fill="none" xmlns="http://www.w3.org/2000/svg">
<g clip-path="url(#clip0_10025_64619)">
<path d="M495.109 384.768V197.035C495.1 173.474 476.003 154.377 452.442 154.368H426.842V137.301C426.831 123.167 415.376 111.712 401.242 111.701H392.709V103.168C392.698 89.0336 381.243 77.5786 367.109 77.5676H239.109C224.988 77.6086 213.55 89.0466 213.509 103.168V111.701H204.976C190.855 111.742 179.417 123.18 179.376 137.301V171.434H162.309V60.5006H247.642C271.706 60.5006 290.309 32.9376 290.309 9.30058C290.295 4.59358 286.483 0.781578 281.776 0.767578H34.309C29.602 0.781578 25.79 4.59358 25.776 9.30058C25.776 32.9376 44.464 60.5006 68.443 60.5006H76.976V171.434H67.589C63.532 151.566 46.053 137.298 25.776 137.301H17.243C7.82802 137.329 0.204025 144.954 0.176025 154.368V273.835C0.204025 283.249 7.82903 290.874 17.243 290.902H25.776C46.054 290.904 63.532 276.636 67.589 256.769H179.376V299.436C179.306 342.612 147.057 378.96 104.197 384.172H104.026C103.777 384.247 103.517 384.276 103.258 384.257C103.027 384.243 102.796 384.272 102.575 384.342C101.978 384.427 101.466 384.427 100.868 384.513C98.649 384.684 96.345 384.769 94.041 384.769C70.48 384.778 51.383 403.875 51.374 427.436V435.969C51.382 459.53 70.48 478.627 94.041 478.636H111.108V487.169C111.149 501.29 122.587 512.728 136.708 512.769H170.841C184.975 512.758 196.43 501.303 196.441 487.169V478.636H315.908V487.169C315.949 501.29 327.387 512.728 341.508 512.769H375.641C389.775 512.758 401.23 501.303 401.241 487.169V475.137C416.371 468.475 426.305 453.689 426.756 437.164C426.83 436.77 426.859 436.369 426.841 435.969V205.568H435.374C440.081 205.582 443.893 209.394 443.907 214.101V427.434C443.935 436.848 451.56 444.473 460.974 444.501H495.107C504.521 444.473 512.146 436.849 512.174 427.434V401.834C512.149 392.42 504.524 384.796 495.109 384.768ZM25.776 256.768H17.243V239.701H25.776C30.489 239.701 34.309 243.521 34.309 248.234C34.309 252.947 30.489 256.768 25.776 256.768ZM25.776 222.635H17.243V205.568H25.776C30.489 205.568 34.309 209.389 34.309 214.101C34.309 218.814 30.489 222.635 25.776 222.635ZM25.776 188.501H17.243V171.434H25.776C30.489 171.434 34.309 175.254 34.309 179.967C34.309 184.68 30.489 188.501 25.776 188.501ZM222.043 154.368C222.043 149.655 225.863 145.835 230.576 145.835C235.289 145.835 239.109 149.656 239.109 154.368V342.101C239.109 346.814 235.289 350.634 230.576 350.634C225.863 350.634 222.043 346.814 222.043 342.101V154.368ZM128.176 231.168C123.469 231.154 119.657 227.342 119.643 222.635C119.657 217.928 123.469 214.116 128.176 214.102H179.376V231.168H128.176ZM179.376 487.168C179.362 491.875 175.55 495.687 170.843 495.701H136.71C132.003 495.687 128.191 491.875 128.177 487.168V478.635H179.377V487.168H179.376ZM247.643 444.501H119.643C105.522 444.46 94.084 433.022 94.043 418.901V401.834C99.762 401.828 105.471 401.343 111.11 400.383V418.9C111.124 423.607 114.936 427.419 119.643 427.433H247.643C252.356 427.433 256.176 431.253 256.176 435.966C256.176 440.679 252.356 444.501 247.643 444.501ZM281.776 342.101C281.776 346.814 277.955 350.634 273.243 350.634C268.53 350.634 264.71 346.814 264.71 342.101V154.368C264.71 149.655 268.531 145.835 273.243 145.835C277.956 145.835 281.776 149.656 281.776 154.368V342.101ZM230.576 111.701V103.168C230.59 98.4606 234.402 94.6486 239.109 94.6346H367.109C371.816 94.6486 375.628 98.4606 375.642 103.168V111.701H230.576ZM384.176 487.168C384.162 491.875 380.35 495.687 375.643 495.701H341.51C336.803 495.687 332.991 491.875 332.977 487.168V478.635H384.176V487.168ZM409.776 435.968C409.794 438.883 409.273 441.776 408.24 444.501H358.576C353.863 444.501 350.043 440.681 350.043 435.968C350.043 431.255 353.863 427.435 358.576 427.435H409.776V435.968ZM409.776 171.435H392.709C388.002 171.449 384.19 175.261 384.176 179.968V239.701C384.19 244.408 388.002 248.22 392.709 248.234H409.776V265.301H392.709C378.588 265.26 367.15 253.822 367.109 239.701V179.968C367.15 165.847 378.588 154.409 392.709 154.368H409.776V171.435Z" fill="url(#paint0_linear_10025_64619)"/>
</g>
<defs>
<linearGradient id="paint0_linear_10025_64619" x1="256.175" y1="0.767578" x2="256.175" y2="512.769" gradientUnits="userSpaceOnUse">
<stop stop-color="#B9B8C0"/>
<stop offset="1" stop-color="#57565A"/>
</linearGradient>
<clipPath id="clip0_10025_64619">
<rect width="512" height="512" fill="white" transform="translate(0.176025 0.767578)"/>
</clipPath>
</defs>
</svg>
