<svg width="511" height="511" viewBox="0 0 511 511" fill="none" xmlns="http://www.w3.org/2000/svg">
<g clip-path="url(#clip0_10025_64638)">
<path d="M44.3331 213.289C28.6451 216.983 17.5521 230.973 17.5321 247.09V251.692C17.4581 279.03 29.9831 304.877 51.4851 321.76L53.5061 323.353L52.9351 316.503L44.3331 213.289Z" fill="url(#paint0_linear_10025_64638)"/>
<path d="M364.638 271.997C364.931 288.83 353.313 303.534 336.869 307.143C328.554 308.82 319.912 307.401 312.571 303.151V307.837C312.496 326.977 296.999 342.474 277.859 342.549C275.528 342.533 273.204 342.3 270.917 341.855C254.492 338.216 242.888 323.531 243.147 306.709V289.006C235 291.9 225.948 290.56 218.99 285.428C212.032 280.296 208.077 272.044 208.435 263.406V231.384C208.437 226.343 206.435 221.508 202.87 217.944C199.306 214.38 194.471 212.378 189.43 212.379H61.6901L68.1981 290.307L74.0991 361.727L84.0791 481.309C85.3831 496.033 97.6751 507.347 112.456 507.43H408.548C423.329 507.348 435.621 496.033 436.925 481.309L459.314 212.379H364.637V271.997H364.638ZM156.367 490.074H126.168C112.66 489.999 101.423 479.665 100.221 466.21L94.3201 395.311C93.9371 390.518 97.5111 386.322 102.304 385.939C107.097 385.556 111.293 389.13 111.676 393.923L117.577 464.735C117.937 469.221 121.667 472.688 126.168 472.719H156.367C161.16 472.719 165.045 476.604 165.045 481.397C165.045 486.189 161.159 490.074 156.367 490.074Z" fill="url(#paint1_linear_10025_64638)"/>
<path d="M274.3 324.846C279.421 325.93 284.758 324.64 288.82 321.337C292.881 318.034 295.232 313.072 295.214 307.837V273.125C295.214 268.332 299.099 264.447 303.892 264.447C308.685 264.447 312.57 268.332 312.57 273.125C312.587 278.348 314.947 283.287 318.999 286.582C323.051 289.877 328.367 291.181 333.484 290.134C341.758 288.058 347.489 280.525 347.282 271.997V212.379H220.41C223.957 218.081 225.822 224.669 225.79 231.384V263.406C225.596 267.902 228.616 271.904 232.993 272.952C235.506 273.452 238.108 272.745 240.022 271.043C241.994 269.42 243.14 267.002 243.146 264.448C243.146 259.655 247.031 255.77 251.824 255.77C256.617 255.77 260.502 259.655 260.502 264.448V306.71C260.33 315.226 266.046 322.739 274.3 324.846Z" fill="url(#paint2_linear_10025_64638)"/>
<path d="M476.697 213.289L467.527 323.352L469.544 321.759C491.046 304.876 503.571 279.029 503.497 251.691V247.089C503.478 230.974 492.385 216.983 476.697 213.289Z" fill="url(#paint3_linear_10025_64638)"/>
<path d="M147.689 195.023C157.274 195.023 165.045 187.252 165.045 177.667C165.017 168.093 157.263 160.339 147.689 160.311C138.104 160.311 130.333 168.082 130.333 177.667C130.333 187.252 138.103 195.023 147.689 195.023Z" fill="url(#paint4_linear_10025_64638)"/>
<path d="M490.384 105.349L354.724 71.875C355.563 51.275 341.786 32.931 321.769 27.994L304.917 23.833C284.9 18.907 264.179 28.733 255.326 47.349L119.672 13.875C112.968 12.219 105.881 13.294 99.9711 16.865C94.0611 20.436 89.8121 26.209 88.1591 32.913L86.0781 41.336C84.9751 45.805 85.6921 50.529 88.0721 54.469C90.4521 58.409 94.3001 61.242 98.7691 62.345L486.333 157.976C487.704 158.316 489.111 158.488 490.524 158.489C498.496 158.468 505.431 153.025 507.346 145.286L509.418 136.862C512.863 122.904 504.341 108.796 490.384 105.349Z" fill="url(#paint5_linear_10025_64638)"/>
<path d="M112.977 82.209C98.605 82.225 86.959 93.871 86.943 108.243C86.943 122.621 98.599 134.277 112.977 134.277C127.355 134.277 139.011 122.621 139.011 108.243C139.011 93.865 127.355 82.209 112.977 82.209ZM112.977 116.921C108.184 116.921 104.299 113.036 104.299 108.243C104.299 103.45 108.184 99.565 112.977 99.565C117.767 99.571 121.649 103.453 121.655 108.243C121.655 113.035 117.77 116.921 112.977 116.921Z" fill="url(#paint6_linear_10025_64638)"/>
<path d="M86.943 160.311C86.901 145.95 75.27 134.319 60.909 134.277C46.531 134.277 34.875 145.933 34.875 160.311C34.875 174.689 46.531 186.345 60.909 186.345C75.287 186.345 86.943 174.69 86.943 160.311ZM60.909 168.989C56.116 168.989 52.231 165.104 52.231 160.311C52.231 155.518 56.116 151.633 60.909 151.633C65.699 151.639 69.581 155.521 69.587 160.311C69.587 165.104 65.702 168.989 60.909 168.989Z" fill="url(#paint7_linear_10025_64638)"/>
<path d="M212.786 99.5645C196.02 99.5845 182.433 113.171 182.413 129.937C182.413 146.711 196.011 160.31 212.786 160.31C229.561 160.31 243.159 146.712 243.159 129.937C243.159 113.162 229.561 99.5645 212.786 99.5645ZM212.786 142.954C205.597 142.954 199.769 137.126 199.769 129.937C199.769 122.748 205.597 116.92 212.786 116.92C219.972 116.928 225.795 122.751 225.803 129.937C225.803 137.126 219.975 142.954 212.786 142.954Z" fill="url(#paint8_linear_10025_64638)"/>
<path d="M60.922 95.2265C60.922 78.4525 47.324 64.8535 30.549 64.8535C13.774 64.8535 0.176025 78.4515 0.176025 95.2265C0.196025 111.993 13.783 125.58 30.549 125.6C47.323 125.6 60.922 112.001 60.922 95.2265ZM17.532 95.2265C17.54 88.0405 23.363 82.2175 30.549 82.2095C37.738 82.2095 43.566 88.0375 43.566 95.2265C43.566 102.416 37.738 108.244 30.549 108.244C23.36 108.244 17.532 102.416 17.532 95.2265Z" fill="url(#paint9_linear_10025_64638)"/>
<path d="M52.2441 56.1754C66.6221 56.1754 78.2781 44.5194 78.2781 30.1414C78.2781 15.7634 66.6221 4.10742 52.2441 4.10742C37.8661 4.10742 26.2101 15.7634 26.2101 30.1414C26.2261 44.5134 37.8721 56.1594 52.2441 56.1754ZM52.2441 21.4634C57.0371 21.4634 60.9221 25.3484 60.9221 30.1414C60.9221 34.9344 57.0371 38.8194 52.2441 38.8194C47.4511 38.8194 43.5661 34.9344 43.5661 30.1414C43.5721 25.3514 47.4541 21.4694 52.2441 21.4634Z" fill="url(#paint10_linear_10025_64638)"/>
</g>
<defs>
<linearGradient id="paint0_linear_10025_64638" x1="35.5189" y1="213.289" x2="35.5189" y2="323.353" gradientUnits="userSpaceOnUse">
<stop stop-color="#B9B8C0"/>
<stop offset="1" stop-color="#57565A"/>
</linearGradient>
<linearGradient id="paint1_linear_10025_64638" x1="260.502" y1="212.379" x2="260.502" y2="507.43" gradientUnits="userSpaceOnUse">
<stop stop-color="#B9B8C0"/>
<stop offset="1" stop-color="#57565A"/>
</linearGradient>
<linearGradient id="paint2_linear_10025_64638" x1="283.849" y1="212.379" x2="283.849" y2="325.222" gradientUnits="userSpaceOnUse">
<stop stop-color="#B9B8C0"/>
<stop offset="1" stop-color="#57565A"/>
</linearGradient>
<linearGradient id="paint3_linear_10025_64638" x1="485.512" y1="213.289" x2="485.512" y2="323.352" gradientUnits="userSpaceOnUse">
<stop stop-color="#B9B8C0"/>
<stop offset="1" stop-color="#57565A"/>
</linearGradient>
<linearGradient id="paint4_linear_10025_64638" x1="147.689" y1="160.311" x2="147.689" y2="195.023" gradientUnits="userSpaceOnUse">
<stop stop-color="#B9B8C0"/>
<stop offset="1" stop-color="#57565A"/>
</linearGradient>
<linearGradient id="paint5_linear_10025_64638" x1="297.877" y1="13.1152" x2="297.877" y2="158.489" gradientUnits="userSpaceOnUse">
<stop stop-color="#B9B8C0"/>
<stop offset="1" stop-color="#57565A"/>
</linearGradient>
<linearGradient id="paint6_linear_10025_64638" x1="112.977" y1="82.209" x2="112.977" y2="134.277" gradientUnits="userSpaceOnUse">
<stop stop-color="#B9B8C0"/>
<stop offset="1" stop-color="#57565A"/>
</linearGradient>
<linearGradient id="paint7_linear_10025_64638" x1="60.909" y1="134.277" x2="60.909" y2="186.345" gradientUnits="userSpaceOnUse">
<stop stop-color="#B9B8C0"/>
<stop offset="1" stop-color="#57565A"/>
</linearGradient>
<linearGradient id="paint8_linear_10025_64638" x1="212.786" y1="99.5645" x2="212.786" y2="160.31" gradientUnits="userSpaceOnUse">
<stop stop-color="#B9B8C0"/>
<stop offset="1" stop-color="#57565A"/>
</linearGradient>
<linearGradient id="paint9_linear_10025_64638" x1="30.549" y1="64.8535" x2="30.549" y2="125.6" gradientUnits="userSpaceOnUse">
<stop stop-color="#B9B8C0"/>
<stop offset="1" stop-color="#57565A"/>
</linearGradient>
<linearGradient id="paint10_linear_10025_64638" x1="52.2441" y1="4.10742" x2="52.2441" y2="56.1754" gradientUnits="userSpaceOnUse">
<stop stop-color="#B9B8C0"/>
<stop offset="1" stop-color="#57565A"/>
</linearGradient>
<clipPath id="clip0_10025_64638">
<rect width="510.006" height="510.006" fill="white" transform="translate(0.176025 0.765625)"/>
</clipPath>
</defs>
</svg>
