<svg width="513" height="513" viewBox="0 0 513 513" fill="none" xmlns="http://www.w3.org/2000/svg">
<g clip-path="url(#clip0_10025_64668)">
<path d="M209.138 156.698C181.174 136.644 144.895 132.288 112.978 145.151C81.061 158.014 57.942 186.309 51.698 220.15H249.275C244.601 194.605 230.216 171.865 209.138 156.698Z" fill="url(#paint0_linear_10025_64668)"/>
<path d="M230.166 150.206C250.34 168.523 263.607 193.216 267.743 220.149H377.183C368.41 172.502 326.888 137.9 278.44 137.863C261.567 137.851 244.963 142.096 230.166 150.206Z" fill="url(#paint1_linear_10025_64668)"/>
<path d="M345.275 140.332L370.235 115.372L349.389 110.161C349.298 110.161 349.206 110.07 349.115 110.07L332.749 126.436C332.932 128.539 332.932 130.733 333.023 132.836C337.255 135.084 341.347 137.587 345.275 140.332Z" fill="url(#paint2_linear_10025_64668)"/>
<path d="M269.298 476.15H159.584C137.868 476.176 119.157 491.451 114.784 512.721H314.098C309.725 491.451 291.013 476.176 269.298 476.15Z" fill="url(#paint3_linear_10025_64668)"/>
<path d="M214.441 138.322C244.036 119.295 280.578 114.467 314.098 125.156C307.658 74.997 265.011 37.397 214.441 37.293C163.871 37.397 121.224 74.997 114.784 125.156C148.304 114.467 184.846 119.294 214.441 138.322Z" fill="url(#paint4_linear_10025_64668)"/>
<path d="M458.464 0.8125L437.344 21.8415L458.464 27.1435L471.538 13.9785L458.464 0.8125Z" fill="url(#paint5_linear_10025_64668)"/>
<path d="M385.686 73.498L364.2 94.984L385.32 100.287L406.806 78.801L385.96 73.59C385.869 73.589 385.778 73.498 385.686 73.498Z" fill="url(#paint6_linear_10025_64668)"/>
<path d="M422.349 36.9258L400.772 58.4118L421.892 63.7148L443.378 42.2288L422.532 37.0178C422.463 37.0078 422.399 36.9758 422.349 36.9258Z" fill="url(#paint7_linear_10025_64668)"/>
<path d="M383.401 239.716C381.886 238.888 380.19 238.448 378.464 238.436H50.4181C48.6921 238.448 46.9961 238.888 45.4811 239.716C41.8421 241.768 40.0121 245.989 41.0011 250.047L58.9211 313.407C78.0811 377.871 137.593 421.871 204.841 421.293H224.041C291.289 421.871 350.801 377.871 369.961 313.407L387.881 249.956C388.849 245.924 387.019 241.741 383.401 239.716ZM70.3491 286.619L65.2291 268.333C64.3471 265.197 65.2051 261.829 67.4801 259.497C69.7551 257.165 73.1001 256.224 76.2571 257.028C79.4141 257.832 81.9021 260.259 82.7831 263.395L87.9941 281.681C88.6491 284.009 88.3521 286.502 87.1691 288.611C85.9861 290.72 84.0131 292.273 81.6851 292.927C80.8881 293.182 80.0541 293.306 79.2161 293.293C75.1091 293.279 71.5001 290.563 70.3491 286.619ZM177.504 391.213C176.361 395.11 172.788 397.79 168.727 397.796C167.86 397.809 166.996 397.686 166.167 397.43C128.704 386.8 97.9321 360.017 82.2361 324.379C80.2621 319.768 82.3761 314.428 86.9721 312.419C91.5681 310.41 96.9241 312.484 98.9671 317.065C112.532 347.716 139.038 370.737 171.287 379.876C176.125 381.301 178.903 386.367 177.504 391.213Z" fill="url(#paint8_linear_10025_64668)"/>
<path d="M256.864 457.864C255.422 450.86 255.021 443.682 255.675 436.561C245.245 438.538 234.656 439.548 224.041 439.578H204.841C194.226 439.547 183.636 438.537 173.207 436.561C173.866 443.682 173.466 450.861 172.018 457.864H256.864Z" fill="url(#paint9_linear_10025_64668)"/>
</g>
<defs>
<linearGradient id="paint0_linear_10025_64668" x1="150.486" y1="137.863" x2="150.486" y2="220.15" gradientUnits="userSpaceOnUse">
<stop stop-color="#B9B8C0"/>
<stop offset="1" stop-color="#57565A"/>
</linearGradient>
<linearGradient id="paint1_linear_10025_64668" x1="303.675" y1="137.863" x2="303.675" y2="220.149" gradientUnits="userSpaceOnUse">
<stop stop-color="#B9B8C0"/>
<stop offset="1" stop-color="#57565A"/>
</linearGradient>
<linearGradient id="paint2_linear_10025_64668" x1="351.492" y1="110.07" x2="351.492" y2="140.332" gradientUnits="userSpaceOnUse">
<stop stop-color="#B9B8C0"/>
<stop offset="1" stop-color="#57565A"/>
</linearGradient>
<linearGradient id="paint3_linear_10025_64668" x1="214.441" y1="476.15" x2="214.441" y2="512.721" gradientUnits="userSpaceOnUse">
<stop stop-color="#B9B8C0"/>
<stop offset="1" stop-color="#57565A"/>
</linearGradient>
<linearGradient id="paint4_linear_10025_64668" x1="214.441" y1="37.293" x2="214.441" y2="138.322" gradientUnits="userSpaceOnUse">
<stop stop-color="#B9B8C0"/>
<stop offset="1" stop-color="#57565A"/>
</linearGradient>
<linearGradient id="paint5_linear_10025_64668" x1="454.441" y1="0.8125" x2="454.441" y2="27.1435" gradientUnits="userSpaceOnUse">
<stop stop-color="#B9B8C0"/>
<stop offset="1" stop-color="#57565A"/>
</linearGradient>
<linearGradient id="paint6_linear_10025_64668" x1="385.503" y1="73.498" x2="385.503" y2="100.287" gradientUnits="userSpaceOnUse">
<stop stop-color="#B9B8C0"/>
<stop offset="1" stop-color="#57565A"/>
</linearGradient>
<linearGradient id="paint7_linear_10025_64668" x1="422.075" y1="36.9258" x2="422.075" y2="63.7148" gradientUnits="userSpaceOnUse">
<stop stop-color="#B9B8C0"/>
<stop offset="1" stop-color="#57565A"/>
</linearGradient>
<linearGradient id="paint8_linear_10025_64668" x1="214.436" y1="238.436" x2="214.436" y2="421.298" gradientUnits="userSpaceOnUse">
<stop stop-color="#B9B8C0"/>
<stop offset="1" stop-color="#57565A"/>
</linearGradient>
<linearGradient id="paint9_linear_10025_64668" x1="214.441" y1="436.561" x2="214.441" y2="457.864" gradientUnits="userSpaceOnUse">
<stop stop-color="#B9B8C0"/>
<stop offset="1" stop-color="#57565A"/>
</linearGradient>
<clipPath id="clip0_10025_64668">
<rect width="511.909" height="511.909" fill="white" transform="translate(0.182129 0.8125)"/>
</clipPath>
</defs>
</svg>
