<svg width="509" height="509" viewBox="0 0 509 509" fill="none" xmlns="http://www.w3.org/2000/svg">
<g clip-path="url(#clip0_10025_64697)">
<path d="M379.624 116.943C381.39 120.887 383.049 124.844 384.455 128.806C386.179 127.683 387.794 126.402 389.28 124.979C395.425 118.957 398.888 110.715 398.887 102.112C398.886 93.5083 395.422 85.2673 389.276 79.2473C379.793 70.2243 365.995 67.3993 353.729 71.9693L368.763 96.5723C372.805 103.129 376.433 109.933 379.624 116.943Z" fill="url(#paint0_linear_10025_64697)"/>
<path d="M113.573 403.749L113.473 403.765C112.445 403.763 111.425 403.588 110.455 403.247C96.7734 398.418 83.6374 392.164 71.2634 384.586L4.71436 346.145C26.5394 375.976 51.1704 403.648 78.2714 428.783C125.003 474.516 152.55 494.823 167.578 503.826L131.071 443.171C123.673 430.783 117.798 417.546 113.573 403.749Z" fill="url(#paint1_linear_10025_64697)"/>
<path d="M108.339 382.879C96.9263 313.075 120.89 242.157 172.303 193.582C206.178 160.386 249.432 138.397 296.214 130.591C319.284 126.903 342.815 127.181 365.792 131.413C364.872 129.092 363.986 126.762 362.959 124.47C360.084 118.161 356.817 112.037 353.178 106.135L303.736 25.2109L0.0913086 322.363L80.5893 368.863C89.4493 374.27 98.7283 378.957 108.339 382.879Z" fill="url(#paint2_linear_10025_64697)"/>
<path d="M501.102 162.551C495.558 157.268 487.948 154.73 480.343 155.627C476.213 156.064 472.308 153.663 470.834 149.78C469.36 145.898 470.687 141.51 474.066 139.095C474.629 138.652 475.157 138.167 475.646 137.644C482.997 130.57 487.214 120.85 487.356 110.648C487.43 101.92 483.958 93.536 477.735 87.416C470.66 80.637 461.026 77.201 451.257 77.974C448.701 78.12 446.202 77.187 444.366 75.404C442.53 73.621 441.525 71.149 441.597 68.59C441.976 58.434 438.054 48.59 430.793 41.478C418.36 29.987 400.099 27.421 384.98 35.04C382.551 36.195 379.736 36.222 377.285 35.115C374.834 34.008 372.995 31.877 372.256 29.29C370.738 23.911 367.828 19.028 363.819 15.134C350.917 3.42695 331.564 2.39695 317.494 12.67L344.013 56.07C363.594 47.122 386.661 51.139 402.065 66.179C410.07 74.014 415.221 84.303 416.699 95.406C427.53 96.352 437.695 101.031 445.458 108.643C461.464 124.151 463.856 148.98 451.105 167.259L502.28 196.752C506.091 191.929 508.193 185.977 508.257 179.83C508.314 173.34 505.731 167.103 501.102 162.551Z" fill="url(#paint3_linear_10025_64697)"/>
<path d="M371.647 151.073C347.859 145.498 323.205 144.674 299.098 148.649C256.05 155.848 216.253 176.096 185.089 206.653C133.955 256.693 112.384 327.265 128.799 390.827C132.68 405.922 138.723 420.377 146.741 433.742L188.985 503.927L466.052 232.784L466.053 232.782L489.08 210.248L417.683 169.099C403.312 160.848 387.799 154.774 371.647 151.073ZM231.959 435.185C230.262 436.917 227.947 437.905 225.522 437.93C223.097 437.955 220.762 437.016 219.03 435.319L205.681 422.252C203.336 419.969 202.389 416.606 203.201 413.435C204.013 410.264 206.456 407.768 209.61 406.892C212.764 406.015 216.145 406.892 218.476 409.189L231.825 422.256C233.558 423.952 234.545 426.268 234.571 428.693C234.596 431.118 233.657 433.453 231.959 435.185ZM238.643 376.377C236.948 378.111 234.633 379.1 232.208 379.126C229.783 379.152 227.447 378.215 225.714 376.519L212.361 363.452C208.808 359.911 208.772 354.169 212.279 350.583C215.786 346.997 221.528 346.907 225.147 350.38L238.5 363.447C240.234 365.142 241.223 367.457 241.25 369.882C241.276 372.308 240.338 374.644 238.643 376.377ZM298.728 369.846C297.033 371.58 294.718 372.569 292.293 372.596C289.868 372.623 287.532 371.685 285.799 369.989L272.446 356.922C268.893 353.381 268.857 347.639 272.364 344.053C275.871 340.467 281.613 340.377 285.232 343.85L298.585 356.917C300.319 358.612 301.308 360.927 301.335 363.352C301.361 365.776 300.423 368.112 298.728 369.846ZM352.138 317.578C350.443 319.312 348.128 320.301 345.703 320.328C343.278 320.355 340.942 319.417 339.209 317.721L325.856 304.654C322.303 301.113 322.267 295.371 325.774 291.785C329.281 288.199 335.023 288.109 338.642 291.582L351.995 304.649C353.729 306.344 354.718 308.659 354.745 311.084C354.772 313.508 353.834 315.844 352.138 317.578ZM358.813 258.779C357.118 260.513 354.803 261.502 352.378 261.528C349.953 261.554 347.617 260.617 345.884 258.921L332.531 245.854C328.978 242.313 328.942 236.571 332.449 232.985C335.956 229.399 341.698 229.309 345.317 232.782L358.67 245.849C360.404 247.544 361.393 249.859 361.419 252.284C361.445 254.709 360.508 257.045 358.813 258.779ZM421.504 245.749C421.531 248.174 420.593 250.51 418.897 252.243H418.898C417.203 253.977 414.888 254.966 412.463 254.993C410.038 255.02 407.702 254.082 405.969 252.386L392.616 239.319C389.071 235.777 389.039 230.041 392.542 226.459C396.046 222.877 401.781 222.782 405.401 226.247L418.754 239.314C420.488 241.009 421.477 243.324 421.504 245.749Z" fill="url(#paint4_linear_10025_64697)"/>
<path d="M435.074 158.019C443.808 147.125 442.764 131.362 432.669 121.715C428.099 117.237 422.165 114.415 415.808 113.695C413.636 122.953 408.871 131.401 402.071 138.049C401.193 138.907 400.218 139.621 399.291 140.408C408.804 143.919 418.008 148.216 426.808 153.254L435.074 158.019Z" fill="url(#paint5_linear_10025_64697)"/>
</g>
<defs>
<linearGradient id="paint0_linear_10025_64697" x1="376.308" y1="69.8145" x2="376.308" y2="128.806" gradientUnits="userSpaceOnUse">
<stop stop-color="#B9B8C0"/>
<stop offset="1" stop-color="#57565A"/>
</linearGradient>
<linearGradient id="paint1_linear_10025_64697" x1="86.1464" y1="346.145" x2="86.1464" y2="503.826" gradientUnits="userSpaceOnUse">
<stop stop-color="#B9B8C0"/>
<stop offset="1" stop-color="#57565A"/>
</linearGradient>
<linearGradient id="paint2_linear_10025_64697" x1="182.942" y1="25.2109" x2="182.942" y2="382.879" gradientUnits="userSpaceOnUse">
<stop stop-color="#B9B8C0"/>
<stop offset="1" stop-color="#57565A"/>
</linearGradient>
<linearGradient id="paint3_linear_10025_64697" x1="412.876" y1="5.60742" x2="412.876" y2="196.752" gradientUnits="userSpaceOnUse">
<stop stop-color="#B9B8C0"/>
<stop offset="1" stop-color="#57565A"/>
</linearGradient>
<linearGradient id="paint4_linear_10025_64697" x1="306.236" y1="146.176" x2="306.236" y2="503.927" gradientUnits="userSpaceOnUse">
<stop stop-color="#B9B8C0"/>
<stop offset="1" stop-color="#57565A"/>
</linearGradient>
<linearGradient id="paint5_linear_10025_64697" x1="420.142" y1="113.695" x2="420.142" y2="158.019" gradientUnits="userSpaceOnUse">
<stop stop-color="#B9B8C0"/>
<stop offset="1" stop-color="#57565A"/>
</linearGradient>
<clipPath id="clip0_10025_64697">
<rect width="508.168" height="508.168" fill="white" transform="translate(0.0913086 0.683594)"/>
</clipPath>
</defs>
</svg>
