<svg width="512" height="513" viewBox="0 0 512 513" fill="none" xmlns="http://www.w3.org/2000/svg">
<g clip-path="url(#clip0_10025_64722)">
<path d="M256.325 90.2515C255.964 89.6915 255.632 89.1135 255.329 88.5195C254.641 87.4395 254.088 86.2785 253.682 85.0645C252.388 82.2945 251.288 79.4375 250.391 76.5145L180.133 72.6535C175.243 72.3935 171.052 76.1115 170.727 80.9975L166.148 145.93C192.999 122.341 224.452 104.579 258.518 93.7685C257.718 92.6395 256.985 91.4655 256.325 90.2515Z" fill="url(#paint0_linear_10025_64722)"/>
<path d="M250.392 35.17C251.038 33.058 251.885 31.009 252.725 28.96C237.007 24.087 219.883 28.444 208.406 40.237C204.104 44.559 200.705 49.694 198.409 55.342L247.306 58.029C247.088 50.293 248.131 42.573 250.392 35.17Z" fill="url(#paint1_linear_10025_64722)"/>
<path d="M148.52 135.948L151.185 98.1537C133.973 92.2407 114.9 96.4077 101.722 108.961C91.814 119.094 86.96 133.128 88.49 147.217L148.52 135.948Z" fill="url(#paint2_linear_10025_64722)"/>
<path d="M74.8748 251.081C78.0508 252.017 81.1518 253.192 84.1508 254.596C85.5278 255.077 86.8418 255.725 88.0618 256.525C88.5078 256.725 88.9348 256.964 89.3388 257.239C90.5528 257.904 91.7258 258.643 92.8498 259.452C103.868 224.668 122.134 192.616 146.444 165.407L147.191 154.805L68.6608 169.547C66.2958 169.991 64.2068 171.364 62.8618 173.36C61.5318 175.269 61.0208 177.63 61.4418 179.918L74.8748 251.081Z" fill="url(#paint3_linear_10025_64722)"/>
<path d="M34.2669 251.3C41.2209 249.181 48.4559 248.133 55.7249 248.192L47.7259 205.818C42.2239 208.106 37.2209 211.443 32.9939 215.643C22.0439 226.393 17.4879 242.072 20.9709 257.016C25.2019 254.674 29.6559 252.759 34.2669 251.3Z" fill="url(#paint4_linear_10025_64722)"/>
<path d="M65.4849 367.275C66.2259 366.924 66.9899 366.623 67.7709 366.373C70.3289 365.398 72.8069 364.225 75.1819 362.864C76.5429 361.921 78.1359 361.371 79.7889 361.273C78.3169 333.343 80.9409 305.348 87.5749 278.177C87.2149 277.986 86.8689 277.769 86.5389 277.529C86.1909 277.269 85.8629 276.984 85.5569 276.676C85.4589 276.605 84.4499 275.846 84.3559 275.77L84.4009 275.703C83.8129 275.417 83.2579 275.068 82.7449 274.663C81.9919 274.091 81.1879 273.589 80.3429 273.163C79.9279 272.944 79.5299 272.695 79.1509 272.417C78.9189 272.292 78.3159 271.997 78.0969 271.855C77.6149 271.706 77.1439 271.519 76.6909 271.297C65.1009 265.776 51.8429 264.879 39.6149 268.788C30.8469 271.476 22.8829 276.297 16.4359 282.819C-4.45807 302.421 -5.58107 335.222 13.9229 356.207C27.5669 369.478 47.5979 373.777 65.4849 367.275ZM35.0119 288.998C36.7259 287.283 39.0509 286.32 41.4759 286.32C43.9009 286.32 46.2259 287.284 47.9399 288.999L54.2699 295.329C56.5789 297.638 57.4809 301.005 56.6359 304.159C55.7909 307.314 53.3259 309.778 50.1719 310.623C47.0169 311.468 43.6509 310.566 41.3419 308.257L35.0119 301.927C33.2969 300.213 32.3329 297.887 32.3329 295.463C32.3339 293.038 33.2969 290.712 35.0119 288.998ZM41.4769 355.221C37.7769 355.222 34.4419 352.994 33.0259 349.576C31.6109 346.158 32.3949 342.224 35.0119 339.61L41.3419 333.284C43.6489 330.953 47.0269 330.035 50.1959 330.879C53.3649 331.723 55.8399 334.199 56.6819 337.369C57.5239 340.539 56.6039 343.917 54.2709 346.222L47.9409 352.548C46.2269 354.262 43.9009 355.224 41.4769 355.221Z" fill="url(#paint5_linear_10025_64722)"/>
<path d="M88.6679 269.147L89.3439 268.105L88.6589 268.873L88.6679 269.147Z" fill="url(#paint6_linear_10025_64722)"/>
<path d="M511.874 167.158C511.356 160.062 507.763 153.548 502.039 149.323C400.74 74.4804 254.084 83.1494 168.151 169.064C82.2308 254.988 73.5618 401.649 148.41 502.952C152.635 508.676 159.15 512.269 166.245 512.787C173.341 513.305 180.308 510.698 185.32 505.649L504.735 186.234C509.785 181.222 512.392 174.254 511.874 167.158ZM218.49 282.948C216.775 281.234 215.811 278.909 215.811 276.484C215.811 274.059 216.775 271.734 218.49 270.02L224.816 263.694C228.386 260.124 234.174 260.124 237.745 263.694C241.315 267.264 241.315 273.052 237.745 276.623L231.419 282.949C229.705 284.664 227.379 285.628 224.955 285.628C222.531 285.628 220.204 284.663 218.49 282.948ZM250.401 339.89L244.075 346.216C240.505 349.786 234.717 349.786 231.146 346.216C227.575 342.646 227.576 336.858 231.146 333.287L237.472 326.961C241.042 323.391 246.83 323.391 250.401 326.961C253.971 330.531 253.971 336.32 250.401 339.89ZM269.106 232.332C267.391 230.618 266.427 228.293 266.427 225.868C266.427 223.443 267.391 221.118 269.106 219.404L275.432 213.078C279.002 209.508 284.79 209.508 288.361 213.078C291.931 216.648 291.931 222.436 288.361 226.007L282.035 232.333C280.321 234.048 277.996 235.012 275.571 235.012C273.146 235.01 270.82 234.047 269.106 232.332ZM301.012 289.273L294.686 295.599C292.377 297.908 289.01 298.81 285.856 297.965C282.702 297.12 280.237 294.656 279.392 291.501C278.547 288.346 279.449 284.98 281.758 282.671L288.084 276.345C291.654 272.775 297.442 272.775 301.013 276.345C304.582 279.915 304.582 285.703 301.012 289.273ZM351.633 238.657L345.307 244.987C341.731 248.525 335.969 248.51 332.411 244.955C328.853 241.399 328.835 235.637 332.37 232.059L338.696 225.729C341.001 223.396 344.379 222.476 347.549 223.318C350.719 224.16 353.195 226.634 354.039 229.804C354.883 232.974 353.964 236.351 351.633 238.657Z" fill="url(#paint7_linear_10025_64722)"/>
<path d="M435 94.541L389.316 48.854C388.691 48.426 388.044 48.03 387.379 47.668C387.591 56.026 386.337 64.357 383.673 72.282C383.395 73.12 383.071 73.943 382.704 74.746C382.655 74.889 382.601 75.032 382.543 75.175L382.552 75.179C381.605 77.61 380.528 79.988 379.325 82.303C398.244 84.523 416.894 88.622 435 94.541Z" fill="url(#paint8_linear_10025_64722)"/>
<path d="M270.914 78.9347C271.07 79.1757 271.392 79.7827 271.526 80.0377C271.799 80.4247 272.04 80.8317 272.249 81.2567C272.675 82.1017 273.177 82.9057 273.749 83.6587C274.02 84.0007 274.266 84.3617 274.486 84.7387L275.54 86.1767C275.946 86.5947 276.32 87.0427 276.661 87.5157C276.874 87.8297 277.066 88.1567 277.237 88.4947C304.409 81.8567 332.407 79.2317 360.339 80.7017C360.439 79.0247 361.008 77.4107 361.982 76.0417C363.342 73.6627 364.512 71.1807 365.482 68.6177L365.509 68.5547C365.691 68.0037 365.91 67.4647 366.165 66.9427C372.889 48.9307 368.659 28.6567 355.294 14.8357C334.307 -4.66331 301.509 -3.54031 281.906 17.3487C275.386 23.7927 270.566 31.7537 267.879 40.5187C263.963 52.7487 264.859 66.0117 270.384 77.6037C270.595 78.0327 270.773 78.4777 270.914 78.9347ZM332.369 42.2557L338.695 35.9257C342.271 32.3877 348.033 32.4027 351.591 35.9577C355.149 39.5127 355.167 45.2757 351.632 48.8537L345.306 55.1837C343.001 57.5167 339.623 58.4367 336.453 57.5947C333.283 56.7527 330.807 54.2787 329.963 51.1087C329.12 47.9407 330.038 44.5627 332.369 42.2557ZM288.084 35.9257C289.798 34.2107 292.124 33.2467 294.548 33.2467C296.973 33.2467 299.298 34.2107 301.012 35.9257L307.342 42.2557C309.659 44.5637 310.567 47.9337 309.723 51.0937C308.879 54.2537 306.411 56.7217 303.251 57.5657C300.091 58.4097 296.721 57.5017 294.413 55.1847L288.083 48.8547C286.368 47.1407 285.404 44.8157 285.404 42.3907C285.404 39.9657 286.369 37.6397 288.084 35.9257Z" fill="url(#paint9_linear_10025_64722)"/>
<path d="M74.267 383.466V383.457L73.923 383.591C73.32 383.877 72.503 384.194 71.735 384.461C64.139 387.065 56.167 388.403 48.137 388.421C47.692 388.421 47.255 388.367 46.811 388.358C47.195 389.061 47.625 389.738 48.097 390.385L93.626 435.911C87.707 417.806 83.608 399.156 81.389 380.238C79.075 381.441 76.697 382.519 74.267 383.466Z" fill="url(#paint10_linear_10025_64722)"/>
</g>
<defs>
<linearGradient id="paint0_linear_10025_64722" x1="212.333" y1="72.6406" x2="212.333" y2="145.93" gradientUnits="userSpaceOnUse">
<stop stop-color="#B9B8C0"/>
<stop offset="1" stop-color="#57565A"/>
</linearGradient>
<linearGradient id="paint1_linear_10025_64722" x1="225.567" y1="26.9961" x2="225.567" y2="58.029" gradientUnits="userSpaceOnUse">
<stop stop-color="#B9B8C0"/>
<stop offset="1" stop-color="#57565A"/>
</linearGradient>
<linearGradient id="paint2_linear_10025_64722" x1="119.699" y1="95.5078" x2="119.699" y2="147.217" gradientUnits="userSpaceOnUse">
<stop stop-color="#B9B8C0"/>
<stop offset="1" stop-color="#57565A"/>
</linearGradient>
<linearGradient id="paint3_linear_10025_64722" x1="104.244" y1="154.805" x2="104.244" y2="259.452" gradientUnits="userSpaceOnUse">
<stop stop-color="#B9B8C0"/>
<stop offset="1" stop-color="#57565A"/>
</linearGradient>
<linearGradient id="paint4_linear_10025_64722" x1="37.7733" y1="205.818" x2="37.7733" y2="257.016" gradientUnits="userSpaceOnUse">
<stop stop-color="#B9B8C0"/>
<stop offset="1" stop-color="#57565A"/>
</linearGradient>
<linearGradient id="paint5_linear_10025_64722" x1="43.7872" y1="266.391" x2="43.7872" y2="370.262" gradientUnits="userSpaceOnUse">
<stop stop-color="#B9B8C0"/>
<stop offset="1" stop-color="#57565A"/>
</linearGradient>
<linearGradient id="paint6_linear_10025_64722" x1="89.0014" y1="268.105" x2="89.0014" y2="269.147" gradientUnits="userSpaceOnUse">
<stop stop-color="#B9B8C0"/>
<stop offset="1" stop-color="#57565A"/>
</linearGradient>
<linearGradient id="paint7_linear_10025_64722" x1="304.73" y1="98.4395" x2="304.73" y2="512.852" gradientUnits="userSpaceOnUse">
<stop stop-color="#B9B8C0"/>
<stop offset="1" stop-color="#57565A"/>
</linearGradient>
<linearGradient id="paint8_linear_10025_64722" x1="407.162" y1="47.668" x2="407.162" y2="94.541" gradientUnits="userSpaceOnUse">
<stop stop-color="#B9B8C0"/>
<stop offset="1" stop-color="#57565A"/>
</linearGradient>
<linearGradient id="paint9_linear_10025_64722" x1="317.396" y1="0.916016" x2="317.396" y2="88.4947" gradientUnits="userSpaceOnUse">
<stop stop-color="#B9B8C0"/>
<stop offset="1" stop-color="#57565A"/>
</linearGradient>
<linearGradient id="paint10_linear_10025_64722" x1="70.2185" y1="380.238" x2="70.2185" y2="435.911" gradientUnits="userSpaceOnUse">
<stop stop-color="#B9B8C0"/>
<stop offset="1" stop-color="#57565A"/>
</linearGradient>
<clipPath id="clip0_10025_64722">
<rect width="511.939" height="511.939" fill="white" transform="translate(0 0.914062)"/>
</clipPath>
</defs>
</svg>
