<svg width="513" height="513" viewBox="0 0 513 513" fill="none" xmlns="http://www.w3.org/2000/svg">
<g clip-path="url(#clip0_10025_64752)">
<path d="M64.939 505.794C64.942 509.708 68.114 512.88 72.028 512.883H85.269C89.185 512.88 92.36 509.709 92.367 505.794V494.598H64.939V505.794Z" fill="url(#paint0_linear_10025_64752)"/>
<path d="M339.206 108.767V156.312H357.492V108.767C357.45 95.3938 364.151 82.8988 375.313 75.5348C381.341 71.5508 384.953 64.7958 384.92 57.5708V22.5528C384.907 10.5898 375.213 0.895813 363.251 0.882812H360.233C361.376 2.67681 362.374 4.55981 363.217 6.51281C363.459 7.06081 363.639 7.63181 363.857 8.19181C364.509 9.87081 365.044 11.5928 365.46 13.3448C365.618 14.0118 365.783 14.6678 365.908 15.3468C366.369 17.7218 366.613 20.1338 366.635 22.5528V57.5708C366.677 70.9438 359.976 83.4378 348.814 90.8028C342.786 94.7868 339.174 101.542 339.206 108.767Z" fill="url(#paint1_linear_10025_64752)"/>
<path d="M375.778 108.767V156.312H394.064V108.767C394.022 95.3938 400.723 82.8988 411.885 75.5348C417.913 71.5508 421.525 64.7958 421.492 57.5708V22.5528C421.479 10.5898 411.785 0.895813 399.822 0.882812H396.804C397.947 2.67681 398.945 4.55981 399.788 6.51281C400.03 7.06081 400.21 7.63181 400.428 8.19181C401.08 9.87081 401.615 11.5928 402.031 13.3448C402.189 14.0118 402.354 14.6678 402.479 15.3468C402.94 17.7218 403.184 20.1338 403.206 22.5528V57.5708C403.248 70.9438 396.547 83.4378 385.385 90.8028C379.357 94.7868 375.745 101.542 375.778 108.767Z" fill="url(#paint2_linear_10025_64752)"/>
<path d="M284.368 505.794C284.371 509.708 287.543 512.88 291.457 512.883H304.698C308.614 512.88 311.789 509.709 311.796 505.794V494.598H284.367L284.368 505.794Z" fill="url(#paint3_linear_10025_64752)"/>
<path d="M65.3849 75.5338C76.5479 82.8988 83.2479 95.3928 83.2059 108.766V156.496C84.4269 156.445 85.6259 156.311 86.8579 156.311H320.921V108.766C320.879 95.3928 327.58 82.8978 338.742 75.5338C344.77 71.5498 348.382 64.7948 348.349 57.5698V22.5528C348.336 10.5898 338.642 0.895813 326.68 0.882812H77.4479C65.4859 0.895813 55.7919 10.5898 55.7779 22.5528V57.5708C55.7449 64.7958 59.3569 71.5498 65.3849 75.5338ZM229.51 46.5968C229.51 41.5478 233.603 37.4538 238.653 37.4538C243.702 37.4538 247.796 41.5468 247.796 46.5968V55.7398C247.796 60.7888 243.703 64.8828 238.653 64.8828C233.604 64.8828 229.51 60.7898 229.51 55.7398V46.5968ZM192.939 83.1688C192.939 78.1198 197.032 74.0258 202.082 74.0258C207.131 74.0258 211.225 78.1188 211.225 83.1688V92.3118C211.225 97.3608 207.132 101.455 202.082 101.455C197.033 101.455 192.939 97.3618 192.939 92.3118V83.1688ZM156.368 46.5968C156.368 41.5478 160.461 37.4538 165.511 37.4538C170.561 37.4538 174.654 41.5468 174.654 46.5968V55.7398C174.654 60.7888 170.561 64.8828 165.511 64.8828C160.461 64.8828 156.368 60.7898 156.368 55.7398V46.5968Z" fill="url(#paint4_linear_10025_64752)"/>
<path d="M439.796 357.453H421.51C416.461 357.453 412.367 361.546 412.367 366.596C412.367 371.646 416.46 375.739 421.51 375.739H439.796C444.845 375.739 448.939 371.646 448.939 366.596C448.939 361.546 444.846 357.453 439.796 357.453Z" fill="url(#paint5_linear_10025_64752)"/>
<path d="M427.488 174.662C446.83 190.251 458.078 213.756 458.082 238.598C458.082 243.647 453.989 247.741 448.939 247.741C443.89 247.741 439.796 243.648 439.796 238.598C439.753 205.717 414.832 178.204 382.115 174.918C401.259 190.518 412.368 213.903 412.367 238.598C412.367 243.647 408.274 247.741 403.224 247.741C398.175 247.741 394.081 243.648 394.081 238.598C394.04 203.269 365.41 174.639 330.081 174.598H323.872C345.069 190.967 357.49 216.231 357.509 243.013V457.249C357.476 463.977 355.606 470.569 352.1 476.312H475.58C486.106 476.303 494.638 467.775 494.652 457.249V243.013C494.598 205.747 464.747 175.37 427.488 174.662ZM439.796 394.027V430.598C439.796 435.647 435.703 439.741 430.653 439.741C425.604 439.741 421.51 435.648 421.51 430.598V394.027C406.362 394.027 394.081 381.747 394.081 366.598C394.081 351.449 406.361 339.169 421.51 339.169V302.598C421.51 297.549 425.603 293.455 430.653 293.455C435.702 293.455 439.796 297.548 439.796 302.598V339.169C454.944 339.169 467.225 351.449 467.225 366.598C467.225 381.747 454.945 394.027 439.796 394.027Z" fill="url(#paint6_linear_10025_64752)"/>
<path d="M439.796 505.794C439.799 509.708 442.971 512.88 446.885 512.883H460.126C464.042 512.88 467.217 509.709 467.224 505.794V494.598H439.795L439.796 505.794Z" fill="url(#paint7_linear_10025_64752)"/>
<path d="M270.805 174.598H87.635C49.869 174.642 19.266 205.248 19.225 243.013V457.249C19.238 467.771 27.765 476.298 38.287 476.312H320.153C330.679 476.303 339.211 467.775 339.225 457.249V243.013C339.179 205.246 308.572 174.641 270.805 174.598ZM55.796 448.884C55.796 453.933 51.703 458.027 46.653 458.027C41.604 458.027 37.51 453.934 37.51 448.884V430.598C37.51 425.549 41.603 421.455 46.653 421.455C51.702 421.455 55.796 425.548 55.796 430.598V448.884ZM87.635 211.17C70.059 211.192 55.816 225.437 55.796 243.014V394.027C55.796 399.076 51.703 403.17 46.653 403.17C41.604 403.17 37.51 399.077 37.51 394.027V243.013C37.539 215.341 59.963 192.915 87.635 192.884C92.684 192.884 96.778 196.977 96.778 202.027C96.778 207.076 92.685 211.17 87.635 211.17Z" fill="url(#paint8_linear_10025_64752)"/>
</g>
<defs>
<linearGradient id="paint0_linear_10025_64752" x1="78.653" y1="494.598" x2="78.653" y2="512.883" gradientUnits="userSpaceOnUse">
<stop stop-color="#B9B8C0"/>
<stop offset="1" stop-color="#57565A"/>
</linearGradient>
<linearGradient id="paint1_linear_10025_64752" x1="362.063" y1="0.882812" x2="362.063" y2="156.312" gradientUnits="userSpaceOnUse">
<stop stop-color="#B9B8C0"/>
<stop offset="1" stop-color="#57565A"/>
</linearGradient>
<linearGradient id="paint2_linear_10025_64752" x1="398.635" y1="0.882812" x2="398.635" y2="156.312" gradientUnits="userSpaceOnUse">
<stop stop-color="#B9B8C0"/>
<stop offset="1" stop-color="#57565A"/>
</linearGradient>
<linearGradient id="paint3_linear_10025_64752" x1="298.081" y1="494.598" x2="298.081" y2="512.883" gradientUnits="userSpaceOnUse">
<stop stop-color="#B9B8C0"/>
<stop offset="1" stop-color="#57565A"/>
</linearGradient>
<linearGradient id="paint4_linear_10025_64752" x1="202.063" y1="0.882812" x2="202.063" y2="156.496" gradientUnits="userSpaceOnUse">
<stop stop-color="#B9B8C0"/>
<stop offset="1" stop-color="#57565A"/>
</linearGradient>
<linearGradient id="paint5_linear_10025_64752" x1="430.653" y1="357.453" x2="430.653" y2="375.739" gradientUnits="userSpaceOnUse">
<stop stop-color="#B9B8C0"/>
<stop offset="1" stop-color="#57565A"/>
</linearGradient>
<linearGradient id="paint6_linear_10025_64752" x1="409.262" y1="174.598" x2="409.262" y2="476.312" gradientUnits="userSpaceOnUse">
<stop stop-color="#B9B8C0"/>
<stop offset="1" stop-color="#57565A"/>
</linearGradient>
<linearGradient id="paint7_linear_10025_64752" x1="453.509" y1="494.598" x2="453.509" y2="512.883" gradientUnits="userSpaceOnUse">
<stop stop-color="#B9B8C0"/>
<stop offset="1" stop-color="#57565A"/>
</linearGradient>
<linearGradient id="paint8_linear_10025_64752" x1="179.225" y1="174.598" x2="179.225" y2="476.312" gradientUnits="userSpaceOnUse">
<stop stop-color="#B9B8C0"/>
<stop offset="1" stop-color="#57565A"/>
</linearGradient>
<clipPath id="clip0_10025_64752">
<rect width="512" height="512" fill="white" transform="translate(0.938965 0.882812)"/>
</clipPath>
</defs>
</svg>
