<svg width="512" height="512" viewBox="0 0 512 512" fill="none" xmlns="http://www.w3.org/2000/svg">
<g clip-path="url(#clip0_10025_64860)">
<path d="M282.336 301.171H300.79C299.556 284.96 295.257 269.131 288.123 254.523L273.448 266.16C278.334 277.256 281.338 289.088 282.336 301.171Z" fill="url(#paint0_linear_10025_64860)"/>
<path d="M317.913 232.217L303.011 243.116C312.328 261.148 317.806 280.916 319.099 301.172H337.442C336.434 281.848 331.949 262.864 324.201 245.132C322.312 240.698 320.184 236.435 317.913 232.217Z" fill="url(#paint1_linear_10025_64860)"/>
<path d="M492.234 301.171C485.535 243.674 436.72 200.381 378.834 200.6C372.045 200.636 365.272 201.26 358.591 202.465L332.756 221.36C334.136 223.834 335.483 226.344 336.726 228.854C364.235 215.196 396.633 215.591 423.8 229.918C450.967 244.244 469.593 270.755 473.86 301.171H492.234Z" fill="url(#paint2_linear_10025_64860)"/>
<path d="M436.525 301.172H455.301C448.692 264.125 416.466 237.153 378.834 237.172C366.688 237.212 354.724 240.133 343.927 245.695C346.123 251.432 348.021 257.278 349.611 263.212C358.508 258.119 368.583 255.445 378.835 255.458C406.276 255.653 430.063 274.502 436.525 301.172Z" fill="url(#paint3_linear_10025_64860)"/>
<path d="M302.826 197.934L252.527 234.712C256.956 239.421 260.961 244.511 264.495 249.924L285.477 233.295L507.647 70.7954C509.991 69.0824 511.386 66.3594 511.406 63.4564C511.384 61.4934 510.74 59.5884 509.567 58.0144C508.141 56.0644 505.993 54.7684 503.603 54.4164C501.243 54.0484 498.835 54.6484 496.924 56.0814L303.692 197.371C303.413 197.573 303.124 197.761 302.826 197.934Z" fill="url(#paint4_linear_10025_64860)"/>
<path d="M353.671 282.653C354.601 288.79 355.217 294.971 355.518 301.171H417.384C411.562 284.845 396.167 273.891 378.834 273.742C369.676 273.757 360.798 276.9 353.671 282.653Z" fill="url(#paint5_linear_10025_64860)"/>
<path d="M208.375 301.172H227.2C222.734 274.777 199.872 255.457 173.102 255.457C146.332 255.457 123.469 274.776 119.004 301.172H137.829C141.93 285.038 156.455 273.742 173.102 273.742C189.749 273.743 204.275 285.038 208.375 301.172Z" fill="url(#paint6_linear_10025_64860)"/>
<path d="M198.412 203.585L211.262 188.098C173.931 176.484 133.339 182.554 101.038 204.581C68.7371 226.607 48.2631 262.179 45.4421 301.173H63.8691C66.4791 269.335 82.8591 240.223 108.718 221.466C134.577 202.709 167.337 196.178 198.412 203.585Z" fill="url(#paint7_linear_10025_64860)"/>
<path d="M173.12 164.029C190.369 164.051 207.476 167.151 223.636 173.183L236.009 158.271C216.087 149.955 194.707 145.696 173.119 145.743C85.8221 145.846 13.7541 214.015 8.79907 301.172H27.2981C32.1541 224.165 95.9611 164.156 173.12 164.029Z" fill="url(#paint8_linear_10025_64860)"/>
<path d="M0.978088 319.457L4.06709 327.028C29.3641 388.42 73.5021 440.194 130.119 474.885H218.825C223.874 474.885 227.968 478.978 227.968 484.028C227.968 489.077 223.875 493.171 218.825 493.171H136.54V503.345C136.547 507.824 140.177 511.452 144.656 511.457H366.147C370.624 511.452 374.252 507.822 374.254 503.345V493.171H355.959C350.91 493.171 346.816 489.078 346.816 484.028C346.816 478.979 350.909 474.885 355.959 474.885H380.66C437.269 440.197 481.405 388.435 506.709 327.055L509.825 319.457H310.263H0.978088ZM379.353 430.113C413.15 409.294 440.209 379.15 457.273 343.309C458.551 340.304 461.334 338.209 464.575 337.813C467.816 337.417 471.022 338.78 472.986 341.389C474.95 343.998 475.372 347.456 474.095 350.461C455.274 390.035 425.371 423.296 388.015 446.207L383.398 438.314L379.309 430.135L379.353 430.113Z" fill="url(#paint9_linear_10025_64860)"/>
<path d="M209.717 247.094L402.058 15.2872C404.164 12.7932 404.774 9.3632 403.656 6.2962C402.538 3.2292 399.863 0.997204 396.646 0.444204C393.429 -0.108796 390.163 1.1042 388.085 3.6212L192.145 239.773C198.298 241.432 204.206 243.893 209.717 247.094Z" fill="url(#paint10_linear_10025_64860)"/>
<path d="M157.272 301.171H188.933C185.669 295.514 179.634 292.029 173.103 292.029C166.571 292.029 160.536 295.514 157.272 301.171Z" fill="url(#paint11_linear_10025_64860)"/>
<path d="M264.094 301.171C261.865 279.389 251.878 259.135 235.956 244.105L224.294 258.16C236.049 269.681 243.562 284.84 245.611 301.171H264.094Z" fill="url(#paint12_linear_10025_64860)"/>
<path d="M170.431 237.308L185.009 219.738C160.474 216.353 135.62 223.132 116.201 238.506C96.7821 253.88 84.4821 276.515 82.1481 301.173H100.596C105.118 265.667 134.664 238.648 170.431 237.308Z" fill="url(#paint13_linear_10025_64860)"/>
</g>
<defs>
<linearGradient id="paint0_linear_10025_64860" x1="287.119" y1="254.523" x2="287.119" y2="301.171" gradientUnits="userSpaceOnUse">
<stop stop-color="#B9B8C0"/>
<stop offset="1" stop-color="#57565A"/>
</linearGradient>
<linearGradient id="paint1_linear_10025_64860" x1="320.227" y1="232.217" x2="320.227" y2="301.172" gradientUnits="userSpaceOnUse">
<stop stop-color="#B9B8C0"/>
<stop offset="1" stop-color="#57565A"/>
</linearGradient>
<linearGradient id="paint2_linear_10025_64860" x1="412.495" y1="200.6" x2="412.495" y2="301.171" gradientUnits="userSpaceOnUse">
<stop stop-color="#B9B8C0"/>
<stop offset="1" stop-color="#57565A"/>
</linearGradient>
<linearGradient id="paint3_linear_10025_64860" x1="399.614" y1="237.172" x2="399.614" y2="301.172" gradientUnits="userSpaceOnUse">
<stop stop-color="#B9B8C0"/>
<stop offset="1" stop-color="#57565A"/>
</linearGradient>
<linearGradient id="paint4_linear_10025_64860" x1="381.967" y1="54.3105" x2="381.967" y2="249.924" gradientUnits="userSpaceOnUse">
<stop stop-color="#B9B8C0"/>
<stop offset="1" stop-color="#57565A"/>
</linearGradient>
<linearGradient id="paint5_linear_10025_64860" x1="385.528" y1="273.742" x2="385.528" y2="301.171" gradientUnits="userSpaceOnUse">
<stop stop-color="#B9B8C0"/>
<stop offset="1" stop-color="#57565A"/>
</linearGradient>
<linearGradient id="paint6_linear_10025_64860" x1="173.102" y1="255.457" x2="173.102" y2="301.172" gradientUnits="userSpaceOnUse">
<stop stop-color="#B9B8C0"/>
<stop offset="1" stop-color="#57565A"/>
</linearGradient>
<linearGradient id="paint7_linear_10025_64860" x1="128.352" y1="182.314" x2="128.352" y2="301.173" gradientUnits="userSpaceOnUse">
<stop stop-color="#B9B8C0"/>
<stop offset="1" stop-color="#57565A"/>
</linearGradient>
<linearGradient id="paint8_linear_10025_64860" x1="122.404" y1="145.742" x2="122.404" y2="301.172" gradientUnits="userSpaceOnUse">
<stop stop-color="#B9B8C0"/>
<stop offset="1" stop-color="#57565A"/>
</linearGradient>
<linearGradient id="paint9_linear_10025_64860" x1="255.402" y1="319.457" x2="255.402" y2="511.457" gradientUnits="userSpaceOnUse">
<stop stop-color="#B9B8C0"/>
<stop offset="1" stop-color="#57565A"/>
</linearGradient>
<linearGradient id="paint10_linear_10025_64860" x1="298.176" y1="0.3125" x2="298.176" y2="247.094" gradientUnits="userSpaceOnUse">
<stop stop-color="#B9B8C0"/>
<stop offset="1" stop-color="#57565A"/>
</linearGradient>
<linearGradient id="paint11_linear_10025_64860" x1="173.103" y1="292.029" x2="173.103" y2="301.171" gradientUnits="userSpaceOnUse">
<stop stop-color="#B9B8C0"/>
<stop offset="1" stop-color="#57565A"/>
</linearGradient>
<linearGradient id="paint12_linear_10025_64860" x1="244.194" y1="244.105" x2="244.194" y2="301.171" gradientUnits="userSpaceOnUse">
<stop stop-color="#B9B8C0"/>
<stop offset="1" stop-color="#57565A"/>
</linearGradient>
<linearGradient id="paint13_linear_10025_64860" x1="133.579" y1="218.885" x2="133.579" y2="301.173" gradientUnits="userSpaceOnUse">
<stop stop-color="#B9B8C0"/>
<stop offset="1" stop-color="#57565A"/>
</linearGradient>
<clipPath id="clip0_10025_64860">
<rect width="511.144" height="511.144" fill="white" transform="translate(0.620117 0.3125)"/>
</clipPath>
</defs>
</svg>
