<svg width="512" height="512" viewBox="0 0 512 512" fill="none" xmlns="http://www.w3.org/2000/svg">
<g clip-path="url(#clip0_10025_64893)">
<path d="M321.051 141.701L278.038 193.538L343.428 145.735H339.745C333.298 145.726 326.927 144.351 321.051 141.701Z" fill="url(#paint0_linear_10025_64893)"/>
<path d="M205.864 245.843C205.958 245.937 206.085 245.977 206.183 246.066L217.644 237.687L402.194 15.2799C404.292 12.7849 404.895 9.35994 403.777 6.29794C402.658 3.23694 399.988 1.00694 396.776 0.452939C393.564 -0.101061 390.301 1.10494 388.221 3.61394L193.17 238.674C197.977 239.858 202.367 242.338 205.864 245.843Z" fill="url(#paint1_linear_10025_64893)"/>
<path d="M248.489 238.557L261.882 243.021C263.697 243.628 265.661 243.628 267.476 243.021L276.355 240.063L507.779 70.7891C510.123 69.0761 511.518 66.3531 511.538 63.4501C511.516 61.4871 510.872 59.5821 509.699 58.0081C508.273 56.0581 506.125 54.7621 503.735 54.4101C501.375 54.0431 498.968 54.6431 497.056 56.0751L247.669 238.384C247.94 238.465 248.22 238.468 248.489 238.557Z" fill="url(#paint2_linear_10025_64893)"/>
<path d="M4.21714 327.016C29.5081 388.413 73.6482 440.189 130.269 474.878H246.404C251.453 474.878 255.547 478.971 255.547 484.021C255.547 489.07 251.454 493.164 246.404 493.164H136.69V503.338C136.694 507.815 140.32 511.443 144.797 511.45H366.292C370.77 511.445 374.399 507.816 374.404 503.338V493.164H356.118C351.069 493.164 346.975 489.071 346.975 484.021C346.975 478.972 351.068 474.878 356.118 474.878H380.811C437.405 440.171 481.535 388.412 506.859 327.043L509.966 319.449H1.11914L4.21714 327.016ZM378.704 430.552L378.739 430.53C412.862 409.687 440.197 379.382 457.422 343.298C458.701 340.293 461.486 338.199 464.728 337.804C467.97 337.409 471.176 338.774 473.139 341.384C475.102 343.994 475.523 347.453 474.244 350.458C455.418 390.03 425.512 423.289 388.155 446.199C383.842 448.706 378.316 447.292 375.736 443.022C373.157 438.752 374.478 433.202 378.704 430.552Z" fill="url(#paint3_linear_10025_64893)"/>
<path d="M502.395 278.307C502.392 275.784 500.347 273.739 497.824 273.736C485.206 273.723 474.98 263.497 474.967 250.879V241.736C474.964 239.213 472.919 237.168 470.396 237.165H458.235C447.696 237.203 438.519 229.977 436.083 219.723L431.726 202.571C428.846 203.25 425.899 203.599 422.94 203.611C407.905 203.596 394.425 194.344 389.006 180.32L304.794 241.916L324.61 255.129C327.354 256.93 328.921 260.063 328.718 263.339C328.515 266.615 326.571 269.53 323.626 270.978C320.681 272.426 317.185 272.184 314.468 270.344L294.356 256.938C292.082 255.439 289.248 255.06 286.66 255.907L273.258 260.371C267.689 262.219 261.671 262.219 256.102 260.371L242.709 255.907C240.122 255.048 237.282 255.428 235.013 256.938L227.165 262.166C216.398 269.308 202.093 267.89 192.937 258.773C190.576 256.392 187.064 255.564 183.888 256.639L174.071 259.911C167.247 262.209 159.787 261.679 153.357 258.438C149.949 256.721 145.824 257.383 143.125 260.081L134.004 269.202C130.434 272.772 124.646 272.772 121.075 269.202C117.505 265.632 117.505 259.844 121.075 256.273L130.196 247.152C138.447 238.889 151.062 236.84 161.504 242.067C162.886 242.717 164.414 242.991 165.935 242.861L251.075 140.257C245.138 139.131 239.485 136.831 234.449 133.491C228.5 129.559 221.527 127.459 214.395 127.451H210.462C207.429 127.44 204.594 128.954 202.917 131.482C198.173 138.633 190.777 143.601 182.362 145.289C173.948 146.977 165.208 145.246 158.073 140.478C156.905 139.89 155.501 140.04 154.484 140.862L146.252 149.094C144.857 150.535 143.687 152.179 142.783 153.969C136.764 165.695 124.718 173.096 111.538 173.165C105.234 173.183 100.128 178.289 100.109 184.594C100.093 192.272 95.7321 199.279 88.8501 202.683L70.4621 211.879C66.2591 214.046 63.5961 218.356 63.5381 223.085C63.5281 229.202 60.4821 234.914 55.4091 238.331L44.3021 245.768C39.1871 249.16 36.1111 254.889 36.1101 261.027V264.594C36.1001 274.689 27.9191 282.87 17.8241 282.88V301.166H502.395V278.307Z" fill="url(#paint4_linear_10025_64893)"/>
</g>
<defs>
<linearGradient id="paint0_linear_10025_64893" x1="310.733" y1="141.701" x2="310.733" y2="193.538" gradientUnits="userSpaceOnUse">
<stop stop-color="#B9B8C0"/>
<stop offset="1" stop-color="#57565A"/>
</linearGradient>
<linearGradient id="paint1_linear_10025_64893" x1="298.75" y1="0.320312" x2="298.75" y2="246.066" gradientUnits="userSpaceOnUse">
<stop stop-color="#B9B8C0"/>
<stop offset="1" stop-color="#57565A"/>
</linearGradient>
<linearGradient id="paint2_linear_10025_64893" x1="379.604" y1="54.3047" x2="379.604" y2="243.476" gradientUnits="userSpaceOnUse">
<stop stop-color="#B9B8C0"/>
<stop offset="1" stop-color="#57565A"/>
</linearGradient>
<linearGradient id="paint3_linear_10025_64893" x1="255.543" y1="319.449" x2="255.543" y2="511.45" gradientUnits="userSpaceOnUse">
<stop stop-color="#B9B8C0"/>
<stop offset="1" stop-color="#57565A"/>
</linearGradient>
<linearGradient id="paint4_linear_10025_64893" x1="260.11" y1="127.451" x2="260.11" y2="301.166" gradientUnits="userSpaceOnUse">
<stop stop-color="#B9B8C0"/>
<stop offset="1" stop-color="#57565A"/>
</linearGradient>
<clipPath id="clip0_10025_64893">
<rect width="511.129" height="511.129" fill="white" transform="translate(0.76416 0.320312)"/>
</clipPath>
</defs>
</svg>
