<svg width="513" height="513" viewBox="0 0 513 513" fill="none" xmlns="http://www.w3.org/2000/svg">
<g clip-path="url(#clip0_10025_64917)">
<path d="M505.485 77.6912L436.114 8.32019C431.025 3.22919 424.02 0.528194 416.83 0.887194C409.64 1.24619 402.938 4.62819 398.38 10.2002L361.18 55.6712C355.616 62.4232 356.107 72.3002 362.313 78.4672L392.797 108.951L374.911 126.842C364.813 117.23 348.946 117.243 338.863 126.871L326.937 138.801L305.963 117.825C303.546 115.456 300.738 113.521 297.662 112.108C297.565 102.413 293.572 93.1642 286.583 86.4442C279.594 79.7242 270.196 76.0972 260.504 76.3802C244.985 76.7642 231.169 86.3082 225.32 100.688L15.6969 201.249C11.5109 203.259 9.69895 208.246 11.6179 212.474L15.1009 220.145C18.6829 228.341 25.4739 234.706 33.8839 237.749C37.6229 239.115 41.5739 239.81 45.5549 239.803C50.8459 239.801 56.0669 238.599 60.8259 236.286L243.626 148.274C248.191 150.373 253.139 151.509 258.162 151.612C258.993 153.361 259.995 155.023 261.154 156.575L141.168 276.578L135.164 282.582C121.906 295.87 121.906 317.382 135.164 330.669L171.085 366.594L159.247 378.436L129.335 348.524C127.735 346.923 125.565 346.024 123.302 346.024C121.039 346.024 118.869 346.923 117.269 348.524L93.3059 372.487C91.7049 374.087 90.8059 376.257 90.8059 378.52C90.8059 380.783 91.7049 382.953 93.3059 384.553L123.218 414.466L111.323 426.361L81.4109 396.449C79.8109 394.848 77.6409 393.949 75.3779 393.949C73.1149 393.949 70.9449 394.848 69.3449 396.449L45.3819 420.411C43.7809 422.011 42.8819 424.181 42.8819 426.444C42.8819 428.707 43.7809 430.877 45.3819 432.477L57.3199 444.419L3.44695 498.291C1.25895 500.44 0.391947 503.598 1.17695 506.562C1.96195 509.527 4.27695 511.842 7.24195 512.627C10.2069 513.412 13.3639 512.545 15.5129 510.357L75.4169 450.453C77.0179 448.853 77.9169 446.683 77.9169 444.42C77.9169 442.157 77.0179 439.987 75.4169 438.387L63.4799 426.445L75.3749 414.55L105.287 444.462C106.887 446.063 109.057 446.962 111.32 446.962C113.583 446.962 115.753 446.063 117.353 444.462L141.316 420.499C142.917 418.899 143.816 416.729 143.816 414.466C143.816 412.203 142.917 410.033 141.316 408.433L111.403 378.52L123.299 366.625L153.211 396.537C156.597 399.737 161.892 399.737 165.278 396.537L183.149 378.662L183.19 378.703C196.477 391.959 217.986 391.959 231.273 378.703L237.277 372.699L357.265 252.695C358.816 253.854 360.479 254.857 362.228 255.688C362.297 260.714 363.397 265.672 365.461 270.254L277.512 452.956C273.394 461.38 272.862 471.112 276.037 479.935C279.063 488.316 285.392 495.09 293.55 498.677L301.313 502.202C305.541 504.12 310.527 502.308 312.538 498.123L413.061 288.541C417.913 286.587 422.322 283.678 426.026 279.986C440.933 265.483 441.297 241.653 426.839 226.703C420.146 220.08 411.146 216.31 401.732 216.185C400.318 213.109 398.384 210.3 396.015 207.882L375.023 186.889L386.952 174.957C396.889 165 396.901 148.88 386.978 138.909L404.866 121.016L435.34 151.49C441.503 157.698 451.381 158.191 458.132 152.628L503.607 115.424C509.179 110.866 512.562 104.164 512.92 96.9742C513.278 89.7842 510.576 82.7802 505.485 77.6912ZM302.933 198.968L314.888 210.925L302.964 222.891L297.597 217.521C297.354 216.925 296.881 216.453 296.286 216.209L290.99 210.911L302.933 198.968ZM207.168 330.512L177.26 300.604L177.255 300.601L159.268 282.612L272.916 168.948L290.867 186.9L278.889 198.878C272.262 205.505 272.242 216.243 278.844 222.895L261.043 240.696C259.442 242.296 258.543 244.466 258.543 246.729C258.543 248.992 259.442 251.162 261.043 252.762L272.981 264.699L261.085 276.594L231.176 246.686C229.576 245.085 227.406 244.186 225.143 244.186C222.88 244.186 220.71 245.085 219.11 246.686L195.147 270.649C193.546 272.249 192.647 274.419 192.647 276.682C192.647 278.945 193.546 281.115 195.147 282.715L225.055 312.623L207.168 330.512ZM231.247 354.598L219.231 342.581L243.155 318.657C244.756 317.057 245.655 314.887 245.655 312.624C245.655 310.361 244.756 308.191 243.155 306.591L213.247 276.683L225.142 264.788L255.05 294.696C256.65 296.297 258.82 297.196 261.083 297.196C263.346 297.196 265.516 296.297 267.116 294.696L291.079 270.733C292.68 269.133 293.579 266.963 293.579 264.7C293.579 262.437 292.68 260.267 291.079 258.667L279.141 246.729L290.905 234.965C294.097 238.155 298.425 239.947 302.937 239.945C307.449 239.943 311.777 238.15 314.966 234.958L326.944 222.983L344.895 240.935L231.247 354.598ZM492.797 102.217L447.405 139.425L374.422 66.4372L411.589 21.0082L424.047 20.3872L493.418 89.7582C495.099 91.4382 495.991 93.7512 495.873 96.1252C495.754 98.4992 494.637 100.712 492.797 102.217Z" fill="url(#paint0_linear_10025_64917)"/>
</g>
<defs>
<linearGradient id="paint0_linear_10025_64917" x1="256.922" y1="0.855469" x2="256.922" y2="512.912" gradientUnits="userSpaceOnUse">
<stop stop-color="#B9B8C0"/>
<stop offset="1" stop-color="#57565A"/>
</linearGradient>
<clipPath id="clip0_10025_64917">
<rect width="512.057" height="512.057" fill="white" transform="translate(0.893066 0.855469)"/>
</clipPath>
</defs>
</svg>
