<svg width="504" height="504" viewBox="0 0 504 504" fill="none" xmlns="http://www.w3.org/2000/svg">
<g clip-path="url(#clip0_10025_64958)">
<path d="M498.778 329.729C473.702 391.281 420.903 437.281 356.496 453.687C356.227 453.777 355.868 453.867 355.598 453.956L354.251 454.315H354.161C338.52 457.938 322.519 459.776 306.464 459.794C240.972 459.802 179.328 428.864 140.199 376.347C167.557 453.652 241.499 504.618 323.48 502.677C405.46 500.736 476.907 446.327 500.576 367.813C500.837 367.172 501.047 366.511 501.205 365.837C501.221 365.472 501.281 365.11 501.385 364.759C502.646 360.318 503.281 355.722 503.271 351.106C503.273 343.747 501.744 336.466 498.778 329.729Z" fill="url(#paint0_linear_10025_64958)"/>
<path d="M134.27 96.8137C132.678 95.3807 130.566 94.6657 128.431 94.8377C119.692 95.7187 111.592 99.8167 105.705 106.335C94.926 117.024 91.782 130.498 96.184 134.899C100.675 139.39 113.79 136.246 124.748 125.378C135.617 114.42 138.761 101.305 134.27 96.8137Z" fill="url(#paint1_linear_10025_64958)"/>
<path d="M314.637 351.197C331.434 351.197 350.657 344.909 353.262 327.843C349.04 328.562 344.729 329.19 340.417 329.64C333.68 330.359 326.853 330.718 320.027 330.808H317.781C310.955 330.718 304.128 330.359 297.391 329.64C290.571 328.927 283.795 327.848 277.091 326.406C278.977 349.311 306.104 351.197 314.637 351.197Z" fill="url(#paint2_linear_10025_64958)"/>
<path d="M259.036 321.825C257.24 321.286 255.443 320.747 253.736 320.208C246.773 317.872 239.937 315.174 233.256 312.124C230.561 310.866 227.956 309.519 225.351 308.262C222.028 306.555 218.704 304.849 215.291 303.501C209.63 301.149 203.767 299.315 197.775 298.022C194.659 297.498 191.503 297.257 188.343 297.303C164.83 297.354 144.052 312.61 136.963 335.029C138.012 338.55 139.427 341.952 141.185 345.179C141.408 345.858 141.742 346.495 142.173 347.065L142.712 347.873C180.217 412.241 251.973 448.645 326.066 440.895C400.159 433.145 462.828 382.68 486.201 311.943C476.281 302.539 463.132 297.298 449.463 297.302C446.304 297.256 443.147 297.497 440.031 298.021C434.039 299.314 428.176 301.148 422.515 303.5C419.078 304.904 415.72 306.493 412.455 308.261C409.85 309.519 407.245 310.866 404.55 312.123C397.869 315.173 391.033 317.871 384.07 320.207C380.028 321.554 375.896 322.722 371.764 323.8V323.89C371.922 333.556 368.607 342.958 362.422 350.388L374.908 362.784C378.411 366.314 378.411 372.009 374.908 375.539C371.366 379.012 365.695 379.012 362.153 375.539L348.32 361.616C340.607 365.518 332.226 367.925 323.618 368.712V387.126C323.618 392.087 319.596 396.108 314.636 396.108C309.676 396.108 305.654 392.086 305.654 387.126V368.712C297.082 367.978 288.744 365.535 281.132 361.526L267.119 375.539C263.577 379.012 257.906 379.012 254.364 375.539C250.861 372.009 250.861 366.314 254.364 362.784L267.299 349.849C261.689 342.374 258.747 333.234 258.945 323.89C258.946 323.172 259.036 322.453 259.036 321.825Z" fill="url(#paint3_linear_10025_64958)"/>
<path d="M120.077 373.114C119.569 371.804 119.178 370.451 118.909 369.072C117.365 363.208 116.581 357.171 116.574 351.107C116.604 345.352 117.328 339.622 118.73 334.04C118.73 333.95 118.82 333.771 118.82 333.681C126.831 301.793 155.465 279.41 188.344 279.337C192.745 279.253 197.142 279.645 201.458 280.505C208.534 281.96 215.453 284.096 222.118 286.883C225.98 288.41 229.753 290.296 233.436 292.183C235.861 293.441 238.287 294.698 240.712 295.776C246.82 298.561 253.108 300.986 259.395 303.142C263.078 304.31 266.85 305.477 270.534 306.465H270.803C270.893 306.465 270.983 306.555 271.072 306.555C280.327 309.008 289.756 310.75 299.277 311.765C312.322 313.202 325.485 313.202 338.53 311.765C345.869 310.946 353.156 309.716 360.357 308.082C360.446 308.082 360.537 307.992 360.626 307.992H360.716C366.734 306.645 372.663 305.028 378.411 303.141C384.699 300.985 390.986 298.56 397.094 295.775C399.519 294.697 401.945 293.44 404.37 292.182C408.053 290.296 411.825 288.409 415.688 286.882C422.353 284.095 429.272 281.96 436.348 280.504C440.664 279.64 445.062 279.248 449.462 279.336C467.874 279.334 485.574 286.446 498.866 299.187C514.161 217.469 488.262 133.458 429.611 74.5359C350.59 -4.68008 228.737 -22.1711 130.623 31.6219C32.508 85.4139 -18.274 197.553 6.01803 306.777C30.31 416.001 123.836 496.045 235.501 503.18C179.8 478.87 137.595 431.311 120.077 373.114ZM482.699 267.75C480.977 269.39 478.699 270.321 476.321 270.355C475.147 270.342 473.987 270.098 472.908 269.636C471.82 269.18 470.817 268.542 469.944 267.75C466.471 264.208 466.471 258.537 469.944 254.995C470.818 254.203 471.82 253.565 472.908 253.109C476.253 251.7 480.117 252.444 482.699 254.995C486.172 258.538 486.172 264.208 482.699 267.75ZM482.699 219.065C483.492 219.939 484.13 220.941 484.585 222.029C485.046 223.109 485.29 224.268 485.304 225.442C485.27 227.82 484.339 230.097 482.699 231.82C480.977 233.46 478.699 234.391 476.321 234.425C475.147 234.412 473.987 234.168 472.908 233.706C471.82 233.25 470.817 232.612 469.944 231.82C468.304 230.098 467.373 227.82 467.339 225.442C467.352 224.268 467.596 223.108 468.058 222.029C468.876 219.773 470.653 217.997 472.909 217.178C476.253 215.77 480.117 216.514 482.699 219.065ZM460.962 183.136C461.836 182.344 462.838 181.706 463.926 181.25C467.28 179.932 471.093 180.667 473.717 183.136C475.357 184.858 476.287 187.136 476.322 189.514C476.309 190.688 476.065 191.848 475.603 192.927C475.147 194.015 474.509 195.018 473.717 195.891C471.995 197.531 469.717 198.462 467.339 198.496C466.165 198.483 465.005 198.239 463.926 197.777C462.838 197.321 461.835 196.683 460.962 195.891C460.169 195.017 459.531 194.015 459.076 192.927C458.615 191.847 458.371 190.688 458.357 189.514C458.391 187.135 459.321 184.858 460.962 183.136ZM448.656 255.804C448.2 256.892 447.562 257.895 446.77 258.768C445.911 259.58 444.905 260.22 443.806 260.654C441.631 261.612 439.154 261.612 436.979 260.654C434.723 259.836 432.947 258.059 432.128 255.803C431.667 254.723 431.423 253.564 431.409 252.39C431.444 250.012 432.374 247.735 434.014 246.012C434.888 245.22 435.89 244.582 436.978 244.126C440.332 242.808 444.145 243.543 446.769 246.012C448.409 247.734 449.339 250.012 449.374 252.39C449.405 253.569 449.159 254.738 448.656 255.804ZM446.769 210.083C448.409 211.805 449.339 214.083 449.374 216.461C449.359 217.063 449.299 217.664 449.194 218.258C449.096 218.821 448.915 219.366 448.655 219.875C448.459 220.448 448.187 220.991 447.847 221.492C447.515 221.963 447.155 222.412 446.769 222.839C445.91 223.651 444.904 224.291 443.805 224.725C441.63 225.683 439.153 225.683 436.978 224.725C435.89 224.269 434.887 223.631 434.014 222.839C432.359 221.126 431.427 218.843 431.409 216.461C431.444 214.083 432.374 211.806 434.014 210.083C434.888 209.291 435.89 208.653 436.978 208.197C440.328 206.833 444.166 207.573 446.769 210.083ZM423.145 177.117C423.579 176.018 424.22 175.012 425.031 174.153C428.561 170.676 434.235 170.697 437.738 174.201C441.242 177.705 441.263 183.378 437.786 186.908C436.927 187.72 435.921 188.36 434.822 188.794C433.742 189.255 432.583 189.499 431.409 189.513C429.02 189.536 426.721 188.598 425.032 186.908C423.342 185.218 422.404 182.92 422.427 180.53C422.44 179.357 422.684 178.197 423.145 177.117ZM410.839 276.733C407.309 280.21 401.635 280.189 398.132 276.685C394.628 273.181 394.607 267.508 398.084 263.978C398.958 263.186 399.96 262.548 401.048 262.092C404.402 260.774 408.215 261.509 410.839 263.978C414.313 267.52 414.313 273.19 410.839 276.733ZM410.839 228.048C411.632 228.922 412.27 229.924 412.725 231.012C413.186 232.092 413.43 233.251 413.444 234.425C413.41 236.803 412.479 239.081 410.839 240.803C409.126 242.458 406.843 243.391 404.461 243.408C403.287 243.395 402.127 243.151 401.048 242.689C399.96 242.233 398.957 241.595 398.084 240.803C396.444 239.081 395.513 236.803 395.479 234.425C395.492 233.251 395.736 232.091 396.198 231.012C397.016 228.756 398.793 226.98 401.048 226.161C404.398 224.798 408.236 225.538 410.839 228.048ZM387.216 195.082C387.672 193.994 388.31 192.991 389.102 192.118C392.704 188.795 398.255 188.795 401.857 192.118C402.65 192.992 403.288 193.994 403.743 195.082C404.246 196.148 404.492 197.317 404.462 198.495C404.428 200.873 403.497 203.151 401.857 204.873C401.013 205.704 400.003 206.347 398.893 206.759C397.813 207.22 396.654 207.464 395.48 207.478C393.091 207.501 390.792 206.563 389.103 204.873C387.413 203.183 386.474 200.885 386.498 198.495C386.51 197.322 386.754 196.162 387.216 195.082ZM83.429 147.565C70.943 135.079 75.165 111.366 92.95 93.5809C110.735 75.7959 134.539 71.5739 146.935 84.0599C159.421 96.5449 155.199 120.259 137.414 138.044C128.246 148.014 115.547 154.009 102.023 154.751C95.11 154.957 88.406 152.366 83.429 147.565Z" fill="url(#paint4_linear_10025_64958)"/>
</g>
<defs>
<linearGradient id="paint0_linear_10025_64958" x1="321.735" y1="329.729" x2="321.735" y2="502.73" gradientUnits="userSpaceOnUse">
<stop stop-color="#B9B8C0"/>
<stop offset="1" stop-color="#57565A"/>
</linearGradient>
<linearGradient id="paint1_linear_10025_64958" x1="115.255" y1="94.8125" x2="115.255" y2="136.878" gradientUnits="userSpaceOnUse">
<stop stop-color="#B9B8C0"/>
<stop offset="1" stop-color="#57565A"/>
</linearGradient>
<linearGradient id="paint2_linear_10025_64958" x1="315.177" y1="326.406" x2="315.177" y2="351.197" gradientUnits="userSpaceOnUse">
<stop stop-color="#B9B8C0"/>
<stop offset="1" stop-color="#57565A"/>
</linearGradient>
<linearGradient id="paint3_linear_10025_64958" x1="311.582" y1="297.297" x2="311.582" y2="441.927" gradientUnits="userSpaceOnUse">
<stop stop-color="#B9B8C0"/>
<stop offset="1" stop-color="#57565A"/>
</linearGradient>
<linearGradient id="paint4_linear_10025_64958" x1="251.59" y1="0.642578" x2="251.59" y2="503.18" gradientUnits="userSpaceOnUse">
<stop stop-color="#B9B8C0"/>
<stop offset="1" stop-color="#57565A"/>
</linearGradient>
<clipPath id="clip0_10025_64958">
<rect width="503.269" height="503.269" fill="white" transform="translate(0 0.277344)"/>
</clipPath>
</defs>
</svg>
