<svg width="513" height="513" viewBox="0 0 513 513" fill="none" xmlns="http://www.w3.org/2000/svg">
<g clip-path="url(#clip0_10025_64982)">
<path d="M71.821 220.064C70.987 219.887 70.137 219.799 69.285 219.801C59.99 219.801 50.352 230.189 47.397 244.06C44.178 259.203 49.919 273.793 59.928 275.926C64.972 276.604 70.046 274.907 73.669 271.332C79.17 266.141 82.905 259.355 84.348 251.93C87.571 236.787 81.835 222.198 71.821 220.064Z" fill="url(#paint0_linear_10025_64982)"/>
<path d="M111.371 341.422C110.682 333.882 113.197 326.4 118.3 320.806C123.54 315.059 130.955 311.779 138.733 311.77H483.029C484.481 301.84 485.227 291.819 485.263 281.783C485.263 195.605 438.031 132.969 352.164 104.258C341.377 110.327 330.992 117.086 321.076 124.492C319.152 126.014 317.643 127.3 316.46 128.38C330.433 142.005 363.161 176.608 374.88 212.17C375.315 213.257 375.542 214.415 375.55 215.585C375.566 219.471 373.114 222.939 369.445 224.219C365.776 225.499 361.698 224.309 359.294 221.256C352.913 213.927 321.041 179.355 284.117 174.839C279.308 207.647 270.107 239.659 256.76 270.013C255.237 273.182 252.031 275.197 248.514 275.196C248.189 275.14 247.867 275.066 247.55 274.977C247.233 275.067 246.911 275.14 246.586 275.196C243.07 275.198 239.864 273.182 238.34 270.013C224.993 239.659 215.791 207.647 210.983 174.839C174.059 179.356 142.187 213.928 135.806 221.256C133.401 224.309 129.324 225.499 125.655 224.219C121.986 222.939 119.534 219.471 119.55 215.585C119.558 214.415 119.785 213.256 120.22 212.17C131.939 176.607 164.666 142.009 178.64 128.38C177.453 127.295 175.935 126.001 173.997 124.469C164.088 117.07 153.713 110.318 142.934 104.256C57.0691 132.968 9.83508 195.607 9.83508 281.783C9.83508 381.26 75.1661 455.268 179.029 478.038C140.228 442.531 116.097 393.805 111.371 341.422ZM457.765 286.129C457.153 289.149 455.041 291.647 452.165 292.751C451.066 293.22 449.886 293.469 448.691 293.483C444.994 293.468 441.667 291.238 440.249 287.823C438.831 284.408 439.6 280.477 442.2 277.848C444.826 275.25 448.759 274.49 452.164 275.924C453.283 276.368 454.308 277.021 455.183 277.848C457.403 279.987 458.377 283.11 457.765 286.129ZM442.201 241.279C444.85 238.723 448.756 237.969 452.165 239.355C453.284 239.799 454.309 240.452 455.184 241.279C455.55 241.734 455.916 242.19 456.278 242.649C456.624 243.158 456.902 243.71 457.104 244.292C457.366 244.811 457.552 245.366 457.653 245.939C457.754 246.545 457.815 247.156 457.836 247.77C457.867 248.969 457.616 250.159 457.104 251.243C456.272 253.539 454.463 255.348 452.167 256.18C451.082 256.693 449.893 256.944 448.693 256.913C448.079 256.897 447.467 256.835 446.863 256.73C446.29 256.628 445.735 256.443 445.216 256.181C444.634 255.979 444.082 255.701 443.573 255.355C443.113 254.993 442.658 254.627 442.202 254.261C441.375 253.387 440.722 252.362 440.278 251.243C439.811 250.144 439.564 248.964 439.55 247.77C439.583 245.349 440.53 243.031 442.201 241.279ZM418.612 281.69C416.892 283.41 414.553 284.365 412.121 284.342C410.925 284.328 409.743 284.079 408.643 283.61C407.526 283.167 406.503 282.516 405.63 281.69C403.96 279.938 403.013 277.62 402.978 275.199C402.991 274.003 403.238 272.822 403.706 271.721C404.546 269.429 406.351 267.623 408.643 266.784C410.312 266.057 412.165 265.866 413.947 266.239C414.52 266.337 415.076 266.521 415.594 266.784C416.177 266.985 416.731 267.263 417.241 267.61C417.696 267.976 418.152 268.342 418.611 268.708C419.437 269.581 420.088 270.604 420.531 271.721C421 272.821 421.249 274.003 421.263 275.199C421.287 277.631 420.331 279.97 418.612 281.69ZM403.705 235.15C404.913 232.37 407.403 230.356 410.373 229.756C413.343 229.156 416.419 230.044 418.612 232.136C419.418 233.025 420.067 234.044 420.532 235.149C421.001 236.249 421.249 237.431 421.263 238.627C421.226 241.047 420.28 243.365 418.612 245.118C417.722 245.924 416.701 246.573 415.594 247.038C414.509 247.55 413.32 247.801 412.12 247.769C411.506 247.753 410.894 247.691 410.29 247.586C409.717 247.484 409.162 247.299 408.643 247.037C408.061 246.835 407.509 246.557 407 246.211C406.52 245.877 406.062 245.511 405.629 245.117C404.802 244.243 404.149 243.218 403.705 242.099C402.735 239.885 402.735 237.365 403.705 235.15ZM102.233 255.734C100.002 267.014 94.2281 277.286 85.7511 285.055C79.3611 290.935 71.0441 294.279 62.3631 294.461C60.2671 294.463 58.1771 294.244 56.1261 293.809C36.0811 289.541 24.1441 265.519 29.5141 240.255C34.8931 214.992 55.6081 197.925 75.6261 202.179C95.6741 206.449 107.612 230.475 102.233 255.734Z" fill="url(#paint1_linear_10025_64982)"/>
<path d="M199.393 125.3C201.108 128.959 200.219 133.309 197.205 136.001C184.313 147.972 172.457 161.012 161.762 174.981C178.615 163.397 198.412 156.838 218.847 156.068C223.472 156.068 227.368 159.521 227.923 164.113C231.679 191.64 238.255 218.708 247.549 244.889C256.851 218.71 263.427 191.641 267.173 164.113C267.728 159.522 271.624 156.068 276.249 156.068C296.693 156.839 316.497 163.402 333.357 174.992C322.661 161.015 310.797 147.973 297.892 136.005C294.877 133.312 293.987 128.959 295.704 125.3C299.195 119.258 303.996 114.074 309.753 110.13C316.311 105.107 323.125 100.428 330.168 96.112C314.788 96.918 299.477 98.718 284.33 101.503C284.76 103.011 285.242 104.466 285.798 105.912C286.976 108.963 286.435 112.41 284.379 114.953C282.323 117.496 279.066 118.748 275.836 118.237C272.606 117.725 269.895 115.528 268.726 112.474C267.197 108.513 266.035 104.42 265.253 100.246C263.756 93.978 263.123 87.534 263.369 81.094C265.171 54.652 276.823 29.848 296.025 11.581C297.032 10.593 297.603 9.24395 297.611 7.83395C297.619 6.42395 297.065 5.06795 296.07 4.06795L294.476 2.46995C292.477 0.500953 289.304 0.386953 287.168 2.20695C263.152 24.688 245.036 52.732 234.418 83.868C232.299 89.687 230.487 95.613 228.989 101.622C228.404 103.975 226.907 105.999 224.829 107.248C222.751 108.497 220.261 108.869 217.909 108.283C214.661 107.446 212.144 104.879 211.37 101.616C196.028 98.763 180.515 96.925 164.931 96.113C171.963 100.422 178.767 105.094 185.315 110.109C191.085 114.058 195.894 119.249 199.393 125.3Z" fill="url(#paint2_linear_10025_64982)"/>
<path d="M500.415 333.113C498.644 331.169 496.138 330.06 493.509 330.055H138.732C136.103 330.06 133.596 331.169 131.826 333.113C130.171 334.887 129.353 337.282 129.576 339.698C134.824 399.232 167.566 452.903 218.102 484.809C218.411 484.962 218.71 485.133 218.999 485.322C248.17 503.388 281.808 512.944 316.121 512.913C413.807 512.274 494.799 437.07 502.666 339.699C502.888 337.282 502.07 334.887 500.415 333.113ZM471.75 389.381C446.241 452.959 384.625 494.627 316.121 494.627C247.617 494.627 186.001 452.958 160.491 389.381C156.65 380.173 157.669 369.654 163.205 361.354C168.643 353.211 177.793 348.327 187.584 348.341C195.737 348.381 203.518 351.758 209.115 357.685C237.116 386.767 275.748 403.198 316.12 403.198C356.491 403.198 395.123 386.766 423.124 357.685C428.709 351.766 436.473 348.39 444.61 348.341H444.655C454.447 348.328 463.596 353.212 469.034 361.354C474.572 369.654 475.591 380.173 471.75 389.381Z" fill="url(#paint3_linear_10025_64982)"/>
<path d="M444.656 366.626H444.611C441.428 366.696 438.411 368.062 436.258 370.407C404.812 403.044 361.441 421.483 316.12 421.483C270.799 421.483 227.428 403.044 195.982 370.407C193.829 368.062 190.812 366.696 187.629 366.626C183.924 366.58 180.451 368.422 178.41 371.514C176.243 374.729 175.856 378.825 177.383 382.389C200.065 439.13 255.013 476.34 316.12 476.34C377.227 476.34 432.174 439.13 454.857 382.389C456.384 378.825 455.997 374.729 453.83 371.514C451.801 368.433 448.346 366.592 444.656 366.626ZM235.755 427.975C232.15 431.511 226.378 431.511 222.773 427.975C221.965 427.086 221.314 426.065 220.849 424.957C220.382 423.858 220.134 422.678 220.121 421.483C220.145 417.356 222.931 413.757 226.919 412.699C230.908 411.641 235.111 413.386 237.177 416.958C239.244 420.531 238.661 425.045 235.755 427.975ZM263.183 446.26C260.081 449.424 255.173 449.95 251.471 447.515C247.769 445.08 246.307 440.366 247.982 436.264C249.657 432.162 254.002 429.819 258.35 430.673C262.698 431.527 265.834 435.338 265.835 439.769C265.798 442.189 264.852 444.507 263.183 446.26ZM299.755 455.403C298.864 456.209 297.844 456.858 296.737 457.323C295.638 457.792 294.458 458.04 293.263 458.054C290.831 458.078 288.492 457.122 286.772 455.402C285.052 453.682 284.097 451.343 284.12 448.911C284.133 447.715 284.38 446.534 284.848 445.433C285.291 444.315 285.944 443.292 286.772 442.419C290.438 439.035 296.088 439.035 299.754 442.419C300.58 443.292 301.231 444.315 301.674 445.432C302.143 446.532 302.392 447.714 302.406 448.91C302.37 451.332 301.423 453.65 299.755 455.403ZM345.469 455.403C343.725 457.087 341.401 458.036 338.978 458.055C337.782 458.041 336.6 457.792 335.5 457.323C334.383 456.88 333.36 456.229 332.487 455.403C330.817 453.651 329.87 451.333 329.835 448.912C329.848 447.716 330.095 446.535 330.563 445.434C331.006 444.316 331.659 443.293 332.487 442.42C334.704 440.313 337.796 439.396 340.804 439.951C341.377 440.049 341.933 440.233 342.451 440.496C343.034 440.697 343.588 440.975 344.098 441.322C344.577 441.66 345.035 442.027 345.469 442.42C349.005 446.026 349.005 451.797 345.469 455.403ZM382.04 446.26C378.938 449.424 374.03 449.95 370.328 447.515C366.626 445.08 365.164 440.366 366.839 436.264C368.514 432.162 372.859 429.819 377.207 430.673C381.555 431.527 384.691 435.338 384.692 439.769C384.655 442.189 383.709 444.507 382.04 446.26ZM409.469 427.975C405.864 431.511 400.092 431.511 396.487 427.975C395.679 427.086 395.028 426.065 394.563 424.957C394.096 423.858 393.848 422.678 393.835 421.483C393.859 417.356 396.645 413.757 400.633 412.699C404.622 411.641 408.825 413.386 410.891 416.958C412.958 420.531 412.375 425.045 409.469 427.975Z" fill="url(#paint4_linear_10025_64982)"/>
</g>
<defs>
<linearGradient id="paint0_linear_10025_64982" x1="65.8737" y1="219.801" x2="65.8737" y2="276.072" gradientUnits="userSpaceOnUse">
<stop stop-color="#B9B8C0"/>
<stop offset="1" stop-color="#57565A"/>
</linearGradient>
<linearGradient id="paint1_linear_10025_64982" x1="247.549" y1="104.256" x2="247.549" y2="478.038" gradientUnits="userSpaceOnUse">
<stop stop-color="#B9B8C0"/>
<stop offset="1" stop-color="#57565A"/>
</linearGradient>
<linearGradient id="paint2_linear_10025_64982" x1="247.56" y1="0.914062" x2="247.56" y2="244.889" gradientUnits="userSpaceOnUse">
<stop stop-color="#B9B8C0"/>
<stop offset="1" stop-color="#57565A"/>
</linearGradient>
<linearGradient id="paint3_linear_10025_64982" x1="316.121" y1="330.055" x2="316.121" y2="512.913" gradientUnits="userSpaceOnUse">
<stop stop-color="#B9B8C0"/>
<stop offset="1" stop-color="#57565A"/>
</linearGradient>
<linearGradient id="paint4_linear_10025_64982" x1="316.12" y1="366.625" x2="316.12" y2="476.34" gradientUnits="userSpaceOnUse">
<stop stop-color="#B9B8C0"/>
<stop offset="1" stop-color="#57565A"/>
</linearGradient>
<clipPath id="clip0_10025_64982">
<rect width="511.998" height="511.998" fill="white" transform="translate(0.269043 0.914062)"/>
</clipPath>
</defs>
</svg>
