<svg xmlns="http://www.w3.org/2000/svg" width="158" height="121" viewBox="0 0 158 121" fill="none">
  <g clip-path="url(#clip0_515_58008)">
    <path d="M63.251 25.1352H62.6756V9.37285C62.6756 8.17482 62.4397 6.98852 61.9812 5.88169C61.5227 4.77486 60.8507 3.76916 60.0036 2.92202C59.1565 2.07489 58.1508 1.40291 57.0439 0.944439C55.9371 0.485972 54.7508 0.250001 53.5528 0.25H20.158C17.7385 0.249995 15.4181 1.21114 13.7072 2.922C11.9963 4.63286 11.0352 6.95329 11.0352 9.37282V95.8465C11.0352 97.0446 11.2711 98.2309 11.7296 99.3377C12.1881 100.445 12.86 101.45 13.7072 102.297C14.5543 103.144 15.56 103.816 16.6668 104.275C17.7737 104.733 18.96 104.969 20.158 104.969H53.5527C55.9723 104.969 58.2927 104.008 60.0036 102.297C61.7144 100.587 62.6756 98.2661 62.6756 95.8466V36.3552H63.251V25.1352Z" fill="#3F3D56"/>
    <path d="M53.9212 2.62341H49.562C49.7625 3.11489 49.839 3.64812 49.7849 4.17614C49.7307 4.70415 49.5475 5.21074 49.2514 5.65129C48.9554 6.09183 48.5555 6.4528 48.0871 6.7024C47.6187 6.95201 47.096 7.08258 46.5652 7.08262H27.4338C26.903 7.08258 26.3804 6.95201 25.912 6.70241C25.4435 6.4528 25.0437 6.09183 24.7476 5.65129C24.4515 5.21075 24.2683 4.70415 24.2142 4.17614C24.16 3.64812 24.2365 3.11489 24.437 2.62341H20.3656C19.4709 2.62341 18.585 2.79963 17.7584 3.14201C16.9318 3.48438 16.1808 3.98621 15.5482 4.61884C14.9155 5.25147 14.4137 6.00252 14.0713 6.82909C13.729 7.65566 13.5527 8.54157 13.5527 9.43625V95.7831C13.5527 96.6777 13.729 97.5637 14.0713 98.3902C14.4137 99.2168 14.9155 99.9678 15.5482 100.6C16.1808 101.233 16.9318 101.735 17.7584 102.077C18.585 102.42 19.4709 102.596 20.3656 102.596H53.9212C54.8158 102.596 55.7017 102.42 56.5283 102.077C57.3549 101.735 58.1059 101.233 58.7386 100.6C59.3712 99.9678 59.873 99.2168 60.2154 98.3902C60.5578 97.5637 60.734 96.6777 60.734 95.7831V9.43625C60.734 8.54157 60.5578 7.65566 60.2154 6.82909C59.873 6.00251 59.3712 5.25147 58.7386 4.61884C58.1059 3.98621 57.3549 3.48438 56.5283 3.14201C55.7017 2.79963 54.8158 2.62341 53.9212 2.62341Z" fill="white"/>
    <path d="M73.9551 104.984H0.331909C0.280659 104.984 0.231508 104.964 0.195269 104.928C0.159031 104.891 0.138672 104.842 0.138672 104.791C0.138672 104.74 0.159031 104.691 0.195269 104.654C0.231508 104.618 0.280659 104.598 0.331909 104.598H73.9551C74.0063 104.598 74.0555 104.618 74.0917 104.654C74.128 104.691 74.1483 104.74 74.1483 104.791C74.1483 104.842 74.128 104.891 74.0917 104.928C74.0555 104.964 74.0063 104.984 73.9551 104.984Z" fill="#CBCBCB"/>
    <path d="M37.1443 67.0481C46.1565 67.0481 53.4624 59.7422 53.4624 50.73C53.4624 41.7177 46.1565 34.4119 37.1443 34.4119C28.132 34.4119 20.8262 41.7177 20.8262 50.73C20.8262 59.7422 28.132 67.0481 37.1443 67.0481Z" fill="#6C63FF"/>
    <path d="M35.527 56.9548C35.1599 56.9554 34.8025 56.8366 34.5088 56.6164L34.4906 56.6027L30.6556 53.6691C30.478 53.5329 30.329 53.3631 30.217 53.1693C30.105 52.9756 30.0323 52.7616 30.003 52.5398C29.9737 52.3179 29.9883 52.0924 30.0462 51.8762C30.104 51.66 30.2038 51.4573 30.34 51.2797C30.4762 51.1021 30.646 50.953 30.8398 50.841C31.0335 50.7291 31.2475 50.6563 31.4693 50.627C31.6912 50.5977 31.9167 50.6124 32.1329 50.6702C32.3491 50.7281 32.5518 50.8279 32.7294 50.9641L35.2134 52.8689L41.0832 45.2111C41.2193 45.0336 41.389 44.8846 41.5827 44.7727C41.7764 44.6607 41.9903 44.588 42.2121 44.5587C42.4338 44.5294 42.6592 44.5441 42.8753 44.6019C43.0914 44.6597 43.2941 44.7595 43.4716 44.8957L43.4721 44.896L43.4357 44.9466L43.4731 44.896C43.8313 45.1713 44.0656 45.5774 44.1247 46.0253C44.1837 46.4732 44.0627 46.9262 43.7882 47.2849L36.884 56.2881C36.7243 56.4956 36.5189 56.6634 36.2838 56.7787C36.0488 56.894 35.7903 56.9535 35.5285 56.9528L35.527 56.9548Z" fill="white"/>
    <path d="M134.293 106.588C134.491 106.267 134.725 105.969 134.99 105.7C135.099 105.587 135.214 105.48 135.332 105.377C136.054 104.735 136.933 104.296 137.881 104.107C138.828 103.917 139.808 103.983 140.721 104.298C141.634 104.613 142.447 105.166 143.076 105.899C143.705 106.632 144.127 107.519 144.299 108.47C145.096 105.523 143.021 102.62 140.935 100.39C138.849 98.1604 136.463 95.715 136.475 92.6605C136.481 90.9608 137.313 89.4445 138.568 88.3203C138.607 88.2863 138.645 88.2523 138.685 88.2194C140.202 86.9189 142.154 86.2386 144.151 86.3144C147.861 86.5132 151.101 89.0066 153.35 91.9642C156.971 96.7231 158.558 103.403 156.023 108.82C153.793 113.585 149.038 116.414 144.184 118.689C143.507 119.007 142.83 119.315 142.155 119.613C142.151 119.614 142.146 119.618 142.141 119.619C142.109 119.633 142.076 119.647 142.046 119.662C141.907 119.723 141.767 119.785 141.629 119.846L141.693 119.887L141.893 120.017C141.823 119.975 141.755 119.934 141.686 119.892C141.665 119.88 141.643 119.868 141.623 119.855C139.239 118.425 136.822 116.911 135.176 114.678C133.468 112.36 132.781 109.039 134.293 106.588Z" fill="#F1F1F1"/>
    <path d="M150.195 101.204C150.723 102.405 151.073 103.676 151.234 104.978C151.361 106.139 151.313 107.312 151.093 108.458C150.62 110.815 149.587 113.023 148.083 114.898C146.948 116.321 145.637 117.594 144.183 118.689C143.505 119.007 142.829 119.315 142.154 119.613C142.149 119.614 142.145 119.618 142.14 119.619C142.108 119.633 142.075 119.647 142.045 119.662C141.905 119.723 141.766 119.785 141.628 119.846L141.692 119.888L141.891 120.017C141.822 119.975 141.754 119.934 141.685 119.892C141.664 119.88 141.642 119.868 141.622 119.855C142.146 118.02 142.223 116.086 141.847 114.215C141.47 112.344 140.65 110.591 139.456 109.102C138.256 107.632 136.725 106.466 134.988 105.7C135.097 105.587 135.212 105.481 135.331 105.377C136 105.684 136.64 106.05 137.245 106.47C139.407 107.964 141.03 110.114 141.874 112.603C142.628 114.861 142.723 117.286 142.146 119.596C142.266 119.518 142.386 119.437 142.502 119.357C144.723 117.86 146.77 116.061 148.311 113.856C149.641 111.992 150.492 109.829 150.789 107.559C151.084 105.079 150.464 102.641 149.357 100.428C148.134 98.0605 146.593 95.8714 144.778 93.9215C142.954 91.9177 140.892 90.1447 138.637 88.6419C138.587 88.6076 138.551 88.5551 138.538 88.4953C138.525 88.4354 138.535 88.3728 138.567 88.3204C138.591 88.2727 138.633 88.2364 138.684 88.2195C138.709 88.2129 138.736 88.2122 138.762 88.2175C138.788 88.2228 138.813 88.2339 138.834 88.25C139.113 88.4357 139.388 88.623 139.661 88.816C141.931 90.4236 143.993 92.307 145.799 94.4229C147.544 96.4625 149.133 98.7286 150.195 101.204Z" fill="white"/>
    <path d="M101.596 7.82691C103.51 7.82691 105.062 6.27535 105.062 4.36139C105.062 2.44744 103.51 0.895874 101.596 0.895874C99.6824 0.895874 98.1309 2.44744 98.1309 4.36139C98.1309 6.27535 99.6824 7.82691 101.596 7.82691Z" fill="#F1F1F1"/>
    <path d="M144.687 54.2037C145.854 54.2037 146.8 53.2578 146.8 52.0909C146.8 50.924 145.854 49.978 144.687 49.978C143.52 49.978 142.574 50.924 142.574 52.0909C142.574 53.2578 143.52 54.2037 144.687 54.2037Z" fill="#F1F1F1"/>
    <path d="M82.8511 60.0009C84.018 60.0009 84.964 59.0549 84.964 57.888C84.964 56.7211 84.018 55.7751 82.8511 55.7751C81.6842 55.7751 80.7383 56.7211 80.7383 57.888C80.7383 59.0549 81.6842 60.0009 82.8511 60.0009Z" fill="#F1F1F1"/>
    <path d="M84.0448 120.25H157.668C157.719 120.25 157.768 120.23 157.805 120.193C157.841 120.157 157.861 120.108 157.861 120.057C157.861 120.006 157.841 119.956 157.805 119.92C157.768 119.884 157.719 119.864 157.668 119.864H84.0448C83.9935 119.864 83.9444 119.884 83.9082 119.92C83.8719 119.956 83.8516 120.006 83.8516 120.057C83.8516 120.108 83.8719 120.157 83.9082 120.193C83.9444 120.23 83.9935 120.25 84.0448 120.25Z" fill="#CBCBCB"/>
    <path d="M149.544 18.9235C149.641 18.2371 149.482 17.5391 149.099 16.9618C148.715 16.3845 148.133 15.9679 147.463 15.791C146.793 15.6141 146.081 15.6892 145.463 16.0021C144.844 16.3149 144.362 16.8438 144.107 17.4885L138.133 24.3376L139.886 29.2336L145.894 21.2306C146.286 21.3562 146.701 21.3943 147.109 21.3423C147.518 21.2902 147.91 21.1492 148.258 20.9292C148.606 20.7093 148.901 20.4157 149.124 20.0691C149.346 19.7226 149.489 19.3315 149.544 18.9235Z" fill="#FFB7B7"/>
    <path d="M124.78 45.5735L144.611 24.4085L141.937 20.1558L117.062 41.1923L124.78 45.5735Z" fill="#3F3D56"/>
    <path d="M120.353 32.7138C124.195 32.7138 127.31 29.5993 127.31 25.7573C127.31 21.9153 124.195 18.8008 120.353 18.8008C116.511 18.8008 113.396 21.9153 113.396 25.7573C113.396 29.5993 116.511 32.7138 120.353 32.7138Z" fill="#2F2E41"/>
    <path d="M120.912 21.8274C122.409 20.3094 124.221 19.138 126.219 18.3956C127.502 17.9204 128.898 17.6268 130.239 17.8967C131.58 18.1665 132.849 19.0944 133.223 20.4102C133.529 21.4862 133.213 22.6448 132.738 23.6577C132.263 24.6706 131.629 25.6099 131.245 26.6606C130.854 27.7326 130.736 28.8856 130.903 30.0148C131.07 31.1439 131.516 32.2136 132.201 33.1265C132.886 34.0395 133.788 34.7669 134.826 35.2428C135.863 35.7186 137.003 35.9278 138.142 35.8513C136.824 36.028 135.609 36.6473 134.321 36.9769C133.033 37.3065 131.513 37.2842 130.556 36.3614C129.543 35.3851 129.523 33.7977 129.572 32.3918C129.645 30.302 129.718 28.2121 129.79 26.1223C129.827 25.0565 129.859 23.9566 129.475 22.9618C129.09 21.967 128.177 21.096 127.111 21.105C126.302 21.1119 125.587 21.6015 124.939 22.0843C124.291 22.5672 123.605 23.0824 122.8 23.1542C121.995 23.226 121.075 22.6302 121.136 21.8242L120.912 21.8274Z" fill="#2F2E41"/>
    <path d="M93.931 72.467C93.2631 72.6525 92.5504 72.5866 91.9279 72.2818C91.3054 71.977 90.8164 71.4544 90.5534 70.8131C90.2905 70.1717 90.2719 69.4562 90.5013 68.8021C90.7306 68.1481 91.1919 67.6008 91.7978 67.2641L97.8076 60.446L102.891 61.5442L95.7414 68.5467C95.9172 68.919 96.0091 69.3253 96.0109 69.737C96.0126 70.1487 95.924 70.5558 95.7514 70.9295C95.5788 71.3033 95.3264 71.6347 95.0118 71.9003C94.6973 72.1659 94.3283 72.3594 93.931 72.467Z" fill="#FFB7B7"/>
    <path d="M113.703 48.0577L98.724 66.8597L94.1582 64.7634L111.764 37.3538L113.703 48.0577Z" fill="#3F3D56"/>
    <path d="M101.752 104.832L98.1816 104.776L98.611 116.943H101.751L101.752 104.832Z" fill="#FFB7B7"/>
    <path d="M102.553 115.918L96.3688 115.918H96.3685C95.3234 115.918 94.3211 116.333 93.582 117.072C92.843 117.811 92.4278 118.813 92.4277 119.858V119.987L102.552 119.987L102.553 115.918Z" fill="#2F2E41"/>
    <path d="M125.388 101.605L121.488 104.108L129.289 113.493L131.931 111.796L125.388 101.605Z" fill="#FFB7B7"/>
    <path d="M132.051 110.501L126.847 113.842L126.847 113.842C125.967 114.407 125.348 115.298 125.126 116.319C124.903 117.34 125.095 118.408 125.66 119.287L125.729 119.395L134.249 113.925L132.051 110.501Z" fill="#2F2E41"/>
    <path d="M126.778 64.451C126.778 64.451 118.113 35.6728 115.329 35.2839C112.544 34.895 108.057 42.6681 108.057 42.6681C102.24 50.0899 96.2422 74.131 96.2422 74.131C96.2422 74.131 106.242 74.7567 113.551 78.6457C120.861 82.5347 129.487 78.4488 129.487 78.4488L126.778 64.451Z" fill="#3F3D56"/>
    <path opacity="0.1" d="M126.778 64.451C126.778 64.451 118.113 35.6728 115.329 35.2839C112.544 34.895 109.197 42.7469 109.197 42.7469C106.298 54.7276 96.2422 74.131 96.2422 74.131C96.2422 74.131 106.242 74.7567 113.551 78.6457C120.861 82.5346 129.487 78.4488 129.487 78.4488L126.778 64.451Z" fill="black"/>
    <path d="M119.669 55.8408V70.3017L121.371 91.2493L129.874 107.095L125.816 109.993L114.222 94.9208L109.636 79.9548L102.434 113.085L97.0234 112.699L100.781 66.7641L107.912 53.8346L119.669 55.8408Z" fill="#2F2E41"/>
    <path d="M110.932 41.8539C108.226 44.5592 110.738 47.4577 110.738 47.4577L107.646 54.4142L119.82 57.6993L124.075 38.689L121.176 35.5972C115.379 35.404 115.376 35.2838 115.376 35.2838C114.36 36.2778 110.932 41.8539 110.932 41.8539Z" fill="#6C63FF"/>
    <path d="M124.566 36.7194C124.013 36.3113 123.385 36.0169 122.717 35.8534C122.05 35.6898 121.356 35.6603 120.677 35.7666C119.998 35.8729 119.347 36.1128 118.762 36.4725C118.176 36.8322 117.668 37.3045 117.266 37.8621C114.206 42.1234 111.376 49.0043 115.275 57.5861C121.535 71.3657 126.984 78.4198 129.199 78.4191C129.295 78.4199 129.391 78.4048 129.483 78.3743C130.846 77.9118 132.818 75.6049 133.174 73.5719C133.302 72.8442 133.272 71.8307 132.402 71.1347C129.902 69.1355 125.415 62.9103 124.015 54.7166C123.241 50.1891 124.741 46.065 126.136 43.4026C126.725 42.301 126.898 41.024 126.622 39.8056C126.346 38.5872 125.64 37.5091 124.633 36.769L124.566 36.7194Z" fill="#3F3D56"/>
    <path d="M120.71 32.0304C123.192 30.6739 124.104 27.5625 122.747 25.0809C121.391 22.5993 118.28 21.6873 115.798 23.0439C113.316 24.4004 112.404 27.5118 113.761 29.9934C115.117 32.475 118.229 33.387 120.71 32.0304Z" fill="#FFB7B7"/>
    <path d="M111.053 27.1499H118.447L118.523 26.0883L118.902 27.1499H120.041L120.191 25.0459L120.942 27.1499H123.145V27.0457C123.144 25.5809 122.561 24.1765 121.525 23.1407C120.489 22.1049 119.085 21.5223 117.62 21.5206H116.578C115.113 21.5223 113.709 22.1049 112.673 23.1407C111.637 24.1765 111.054 25.5809 111.053 27.0457V27.1499Z" fill="#2F2E41"/>
    <path d="M122.027 30.9658L125.183 29.9419V22.2789H119.223L119.37 22.4263C121.423 24.4767 123.707 31.7513 122.027 30.9658Z" fill="#2F2E41"/>
  </g>
  <defs>
    <clipPath id="clip0_515_58008">
      <rect width="157.723" height="120" fill="white" transform="translate(0.138672 0.25)"/>
    </clipPath>
  </defs>
</svg>