<svg xmlns="http://www.w3.org/2000/svg" width="186" height="121" viewBox="0 0 186 121" fill="none">
  <g clip-path="url(#clip0_515_57976)">
    <path d="M185.733 56.5896C185.733 61.3638 183.931 65.9622 180.688 69.4655C177.444 72.9689 172.998 75.119 168.238 75.486C168.078 75.4982 167.915 75.5103 167.752 75.5176V57.5299C167.752 57.3501 167.712 57.1726 167.635 57.0103C167.558 56.848 167.445 56.7051 167.305 56.592C167.289 56.5754 167.271 56.5607 167.252 56.5483C167.234 56.5339 167.215 56.5209 167.196 56.5094C167.025 56.3995 166.83 56.3342 166.627 56.3193C166.425 56.3044 166.222 56.3406 166.037 56.4243L165.835 55.9821C166.056 55.8817 166.295 55.8295 166.537 55.829L152.697 43.9061C152.804 43.7846 152.916 43.6655 153.028 43.5465C155.637 40.796 159.011 38.8912 162.714 38.0782C166.417 37.2652 170.278 37.5813 173.8 38.9857C177.321 40.39 180.341 42.8182 182.468 45.9563C184.595 49.0945 185.732 52.7984 185.733 56.5896Z" fill="#F2F2F2"/>
    <path d="M5.739 69.5127C5.67017 69.161 5.67928 68.7985 5.76569 68.4508C5.8521 68.1031 6.0137 67.7785 6.23911 67.5C6.46453 67.2214 6.74827 66.9957 7.07035 66.8387C7.39244 66.6817 7.74503 66.5972 8.1033 66.5912L19.0281 53.5862L21.7556 57.0734L10.6216 69.1768C10.5918 69.7793 10.342 70.35 9.91956 70.7806C9.49711 71.2113 8.93136 71.472 8.32951 71.5134C7.72767 71.5548 7.13154 71.374 6.6541 71.0053C6.17665 70.6365 5.85105 70.1054 5.739 69.5127Z" fill="#FFB8B8"/>
    <path d="M57.6181 53.5058C57.5416 53.6164 57.474 53.7328 57.4158 53.854L45.487 55.5592L43.6756 53.2595L39.8477 55.5396L43.4459 61.1497L57.9943 56.8611C58.3783 57.2086 58.8589 57.431 59.3723 57.4988C59.8857 57.5665 60.4076 57.4763 60.8685 57.2402C61.3294 57.0041 61.7075 56.6333 61.9525 56.1771C62.1976 55.7209 62.2979 55.2009 62.2402 54.6862C62.1825 54.1716 61.9695 53.6867 61.6295 53.2961C61.2895 52.9055 60.8386 52.6276 60.3369 52.4995C59.8351 52.3713 59.3063 52.399 58.8206 52.5787C58.3349 52.7585 57.9155 53.0818 57.6181 53.5058Z" fill="#FFB8B8"/>
    <path d="M37.2402 96.9578L39.3512 99.0595L48.4629 91.9179L45.3475 88.8158L37.2402 96.9578Z" fill="#FFB8B8"/>
    <path d="M41.4707 105.073L34.8364 98.4674L37.3887 95.9042L41.4597 99.9578C41.7963 100.293 42.0636 100.691 42.2463 101.13C42.4291 101.568 42.5236 102.038 42.5247 102.513C42.5257 102.988 42.4331 103.459 42.2523 103.898C42.0714 104.337 41.8059 104.737 41.4707 105.073Z" fill="#2F2E41"/>
    <path d="M26.02 117.118H28.9989L30.416 105.628H26.0195L26.02 117.118Z" fill="#FFB8B8"/>
    <path d="M34.7441 119.884L25.382 119.884L25.3818 116.267L31.1268 116.267C31.6018 116.267 32.0722 116.36 32.511 116.542C32.9499 116.724 33.3487 116.99 33.6846 117.326C34.0205 117.662 34.2869 118.061 34.4687 118.499C34.6505 118.938 34.7441 119.409 34.7441 119.884Z" fill="#2F2E41"/>
    <path d="M25.3732 108.244L21.9802 83.22C21.4492 79.4383 21.614 75.5914 22.4664 71.8689C23.1627 68.8774 24.1034 66.8052 25.2623 65.7102C25.4452 65.5386 25.6794 65.4317 25.9288 65.4058L37.1317 64.2388C37.3475 64.2168 37.5651 64.2565 37.7592 64.3535C37.9532 64.4505 38.1157 64.6006 38.2276 64.7865L38.5959 65.4002C38.6406 65.4747 38.6766 65.554 38.7033 65.6367L41.0719 72.9795C41.1073 73.0905 41.1643 73.1933 41.2398 73.282C41.3152 73.3707 41.4075 73.4435 41.5114 73.4962C45.2406 75.4001 57.3544 81.8273 56.6611 84.6003C56.0097 87.2058 49.9113 91.4304 48.0578 92.663C47.869 92.7892 47.6467 92.8558 47.4197 92.854C47.1926 92.8523 46.9713 92.7824 46.7845 92.6533L43.7077 90.5482C43.5574 90.4454 43.434 90.3082 43.3477 90.1479C43.2614 89.9876 43.2147 89.809 43.2115 89.627C43.2083 89.445 43.2488 89.2649 43.3294 89.1018C43.4101 88.9386 43.5286 88.7971 43.6752 88.6891L45.797 87.1257C45.9268 87.0299 46.0281 86.9006 46.09 86.7517C46.1518 86.6027 46.1719 86.4396 46.148 86.2801C46.124 86.1206 46.0571 85.9706 45.9543 85.8463C45.8515 85.722 45.7167 85.628 45.5645 85.5746L34.1692 81.5762C34.0412 81.5313 33.9047 81.5163 33.77 81.5324C33.6354 81.5486 33.5062 81.5953 33.3925 81.6692C33.2788 81.743 33.1835 81.842 33.114 81.9584C33.0445 82.0749 33.0026 82.2057 32.9916 82.3408L30.8905 108.021C30.8673 108.296 30.7452 108.554 30.5467 108.746C30.3483 108.938 30.0869 109.052 29.811 109.066L26.5601 109.229C26.5403 109.23 26.5206 109.231 26.501 109.231C26.2251 109.232 25.9583 109.132 25.7507 108.95C25.543 108.768 25.4088 108.517 25.3732 108.244Z" fill="#2F2E41"/>
    <path d="M30.5108 43.5208C33.8067 43.5208 36.4786 40.8489 36.4786 37.553C36.4786 34.2571 33.8067 31.5852 30.5108 31.5852C27.2148 31.5852 24.543 34.2571 24.543 37.553C24.543 40.8489 27.2148 43.5208 30.5108 43.5208Z" fill="#FFB8B8"/>
    <path d="M24.928 64.688L20.5352 48.6599L20.6104 48.6092C20.7047 48.5456 30.1732 42.2933 41.2588 47.3318L41.4598 47.4471L38.8568 64.0832C38.8 64.4628 38.6125 64.8108 38.3267 65.067C38.0409 65.3232 37.6746 65.4717 37.291 65.4867L26.5798 65.8987C26.5582 65.8995 26.5367 65.9 26.5153 65.9C26.1542 65.9008 25.8029 65.7825 25.5159 65.5633C25.229 65.3442 25.0223 65.0365 24.928 64.688Z" fill="#CCCCCC"/>
    <path d="M20.3686 59.0944L16.71 54.8872C16.5338 54.685 16.4346 54.4272 16.4299 54.159C16.4251 53.8909 16.5152 53.6297 16.6842 53.4215L20.5088 48.6968L23.4448 49.4975L25.0014 54.9456L22.1632 59.0002C22.0642 59.1424 21.9339 59.2601 21.7823 59.3442C21.6308 59.4282 21.4619 59.4764 21.2888 59.4849C21.2683 59.4859 21.248 59.4864 21.2276 59.4864C21.0647 59.4867 20.9036 59.4519 20.7553 59.3842C20.6071 59.3166 20.4752 59.2177 20.3686 59.0944Z" fill="#CCCCCC"/>
    <path d="M40.5993 58.2179C40.4262 58.2094 40.2573 58.1612 40.1058 58.0772C39.9542 57.9931 39.8239 57.8755 39.7249 57.7332L36.8867 53.6786L38.2519 47.9437L40.9551 47.2064L41.4595 47.4471L45.2039 52.1545C45.3729 52.3627 45.463 52.6239 45.4582 52.8921C45.4535 53.1602 45.3543 53.418 45.1781 53.6202L41.5195 57.8275C41.4129 57.9508 41.281 58.0496 41.1328 58.1172C40.9846 58.1849 40.8234 58.2198 40.6605 58.2194C40.6402 58.2194 40.6197 58.2189 40.5993 58.2179Z" fill="#CCCCCC"/>
    <path d="M167.752 56.3393C167.754 56.3998 167.733 56.4589 167.694 56.5046C167.652 56.5535 167.592 56.5839 167.528 56.5889C167.464 56.5939 167.4 56.5732 167.351 56.5313L166.537 55.8291L152.697 43.9061L113.879 10.4601C113.657 10.2705 113.375 10.1666 113.084 10.167C112.792 10.1674 112.511 10.2723 112.29 10.4625L60.0153 55.8777L59.544 56.2859C59.5258 56.3019 59.5053 56.315 59.4832 56.3248C59.4443 56.342 59.4015 56.3487 59.3592 56.3442C59.2985 56.3377 59.2424 56.3092 59.2013 56.264C59.1802 56.2401 59.164 56.2123 59.1537 56.1821C59.1434 56.1519 59.1391 56.12 59.1411 56.0882C59.1431 56.0564 59.1514 56.0253 59.1655 55.9966C59.1796 55.968 59.1992 55.9425 59.2231 55.9214L59.2888 55.8631L111.971 10.0956C112.281 9.82974 112.675 9.68315 113.083 9.68226C113.491 9.68136 113.886 9.82623 114.197 10.0908L153.028 43.5465L167.667 56.162C167.693 56.1841 167.713 56.2113 167.728 56.2418C167.743 56.2723 167.751 56.3055 167.752 56.3393Z" fill="#3F3D56"/>
    <path d="M138.236 63.5144L137.597 61.7552L135.396 55.6808L130.653 42.6012L125.351 27.9812L115.79 1.61069C115.602 1.09645 115.218 0.677557 114.722 0.445753C114.226 0.213948 113.659 0.188124 113.144 0.373933L57.8637 20.4173C57.3493 20.6048 56.9303 20.9886 56.6985 21.4847C56.4666 21.9807 56.4409 22.5484 56.627 23.0633L70.1828 60.448L70.4136 61.087L84.6424 67.5357L88.6418 69.3483L89.2906 69.6423L106.224 77.318L106.88 77.0799L117.986 73.0537L134.74 66.9793L136.997 66.1604C137.512 65.9731 137.931 65.5894 138.163 65.0934C138.396 64.5975 138.422 64.0297 138.236 63.5144Z" fill="#E6E6E6"/>
    <path d="M115.057 32.3743C114.781 31.6174 114.217 31.0008 113.487 30.6597C112.757 30.3185 111.922 30.2806 111.164 30.5543L89.2914 38.4876L78.7292 42.3169C78.3539 42.4526 78.009 42.6609 77.7143 42.9299C77.4195 43.1989 77.1807 43.5234 77.0114 43.8847C76.8421 44.2461 76.7457 44.6373 76.7277 45.0359C76.7097 45.4346 76.7704 45.8329 76.9065 46.208C77.0425 46.5832 77.2511 46.9279 77.5204 47.2224C77.7897 47.5169 78.1144 47.7554 78.476 47.9243C78.8375 48.0932 79.2288 48.1892 79.6274 48.2068C80.0261 48.2245 80.4243 48.1633 80.7994 48.0269L89.2914 44.9484L113.237 36.2668C113.994 35.991 114.61 35.4264 114.952 34.6967C115.293 33.967 115.331 33.1318 115.057 32.3743Z" fill="white"/>
    <path d="M118.908 42.9973C118.632 42.2404 118.068 41.6239 117.338 41.2827C116.608 40.9415 115.773 40.9037 115.016 41.1774L111.31 42.521L89.2913 50.5053L82.5803 52.9375C81.8235 53.2126 81.2069 53.7769 80.8659 54.5063C80.5249 55.2358 80.4875 56.0708 80.7619 56.8279C81.0362 57.5849 81.5999 58.2021 82.3291 58.5438C83.0582 58.8854 83.8932 58.9236 84.6505 58.65L89.2913 56.9661L117.088 46.8874C117.151 46.8655 117.212 46.8388 117.273 46.812C117.979 46.5024 118.54 45.936 118.844 45.2276C119.147 44.5192 119.17 43.7219 118.908 42.9973Z" fill="white"/>
    <path d="M122.8 53.7321C122.525 52.9754 121.961 52.3588 121.232 52.0176C120.502 51.6764 119.668 51.6385 118.91 51.9122L108.518 55.6808L100.473 58.599L89.2912 62.6519L86.4727 63.6748C85.8213 63.9121 85.2704 64.3646 84.9112 64.9576C84.552 65.5505 84.4059 66.2483 84.4972 66.9356C84.5251 67.1401 84.5739 67.3412 84.643 67.5357L88.6425 69.3484L89.2912 69.1127H89.296L109.587 61.7553L120.98 57.6246C121.738 57.3494 122.355 56.7849 122.696 56.055C123.037 55.3251 123.075 54.4896 122.8 53.7321Z" fill="white"/>
    <path d="M100.025 21.9311C99.7494 21.1743 99.1848 20.5577 98.4551 20.2165C97.7254 19.8754 96.8902 19.8375 96.1326 20.1112L83.5706 24.6646C82.8138 24.9397 82.1971 25.5039 81.8561 26.2334C81.5152 26.9629 81.4777 27.7979 81.7521 28.555C82.0264 29.312 82.5901 29.9292 83.3193 30.2708C84.0485 30.6125 84.8834 30.6507 85.6407 30.3771L89.616 28.9362L92.2473 27.9813L98.2053 25.8212C98.962 25.546 99.5785 24.9818 99.9197 24.2525C100.261 23.5232 100.299 22.6883 100.025 21.9311Z" fill="white"/>
    <path d="M150.157 27.9812H91.3563C91.0095 27.9815 90.6684 28.0692 90.3643 28.2361C90.0603 28.403 89.8032 28.6437 89.6167 28.9361C89.4035 29.2672 89.2904 29.6527 89.291 30.0465V69.6423L106.224 77.318L108.61 78.3993L112.379 80.1074C112.6 80.2071 112.839 80.2587 113.081 80.2587C113.323 80.2587 113.563 80.2071 113.783 80.1074L117.552 78.3993L129.346 73.0538L140.339 68.0703L152.223 62.6859V30.0465C152.222 29.4989 152.004 28.9738 151.617 28.5865C151.23 28.1993 150.705 27.9816 150.157 27.9812Z" fill="#6C63FF"/>
    <path d="M138.009 55.6808H103.506C102.722 55.6812 101.968 55.9853 101.402 56.5293C100.837 57.0733 100.504 57.815 100.474 58.599C100.47 58.6385 100.468 58.6783 100.469 58.718C100.47 59.5232 100.79 60.2951 101.36 60.8644C101.929 61.4338 102.701 61.7541 103.506 61.7553H138.009C138.815 61.7553 139.587 61.4353 140.157 60.8657C140.726 60.2961 141.046 59.5235 141.046 58.718C141.046 57.9125 140.726 57.14 140.157 56.5704C139.587 56.0008 138.815 55.6808 138.009 55.6808Z" fill="white"/>
    <path d="M139.975 67.7034C139.427 67.2349 138.73 66.9781 138.009 66.9794H103.506C102.7 66.9794 101.928 67.2994 101.358 67.869C100.789 68.4386 100.469 69.2111 100.469 70.0166C100.469 70.8221 100.789 71.5947 101.358 72.1643C101.928 72.7339 102.7 73.0538 103.506 73.0538H129.347L140.339 68.0703C140.228 67.938 140.106 67.8152 139.975 67.7034Z" fill="white"/>
    <path d="M108.611 78.3993L112.38 80.1074C112.601 80.2071 112.84 80.2587 113.082 80.2587C113.324 80.2587 113.564 80.2071 113.784 80.1074L117.553 78.3993H108.611Z" fill="white"/>
    <path d="M130.291 42.7325C130.077 42.1478 129.689 41.6429 129.178 41.2862C128.668 40.9294 128.061 40.7379 127.438 40.7377H114.074C113.491 40.7382 112.92 40.9067 112.43 41.2229C111.939 41.5391 111.55 41.9898 111.309 42.5211C111.129 42.9146 111.036 43.3423 111.037 43.7749C111.038 44.5801 111.359 45.352 111.928 45.9213C112.497 46.4906 113.269 46.811 114.074 46.8121H127.438C127.927 46.8122 128.408 46.6943 128.842 46.4686C129.275 46.2429 129.647 45.9159 129.927 45.5155C130.207 45.1151 130.387 44.653 130.45 44.1685C130.513 43.684 130.459 43.1914 130.291 42.7325Z" fill="white"/>
    <path d="M128.168 73.0538L116.374 78.3993L113.583 79.6652C113.425 79.7361 113.255 79.7727 113.082 79.7727C112.909 79.7727 112.739 79.7361 112.581 79.6652L109.79 78.3993H108.611L112.38 80.1074C112.6 80.2071 112.84 80.2587 113.082 80.2587C113.324 80.2587 113.564 80.2071 113.784 80.1074L117.553 78.3993L129.347 73.0538H128.168ZM128.168 73.0538L116.374 78.3993L113.583 79.6652C113.425 79.7361 113.255 79.7727 113.082 79.7727C112.909 79.7727 112.739 79.7361 112.581 79.6652L109.79 78.3993H108.611L112.38 80.1074C112.6 80.2071 112.84 80.2587 113.082 80.2587C113.324 80.2587 113.564 80.2071 113.784 80.1074L117.553 78.3993L129.347 73.0538H128.168ZM128.168 73.0538L116.374 78.3993L113.583 79.6652C113.425 79.7361 113.255 79.7727 113.082 79.7727C112.909 79.7727 112.739 79.7361 112.581 79.6652L109.79 78.3993H108.611L112.38 80.1074C112.6 80.2071 112.84 80.2587 113.082 80.2587C113.324 80.2587 113.564 80.2071 113.784 80.1074L117.553 78.3993L129.347 73.0538H128.168ZM167.752 56.3393C167.663 56.2501 167.564 56.1703 167.458 56.1011C167.219 55.9464 166.946 55.8543 166.662 55.8335C166.378 55.8127 166.094 55.8638 165.835 55.9821L139.975 67.7034L128.168 73.0538L116.374 78.3993L113.583 79.6652C113.425 79.7361 113.255 79.7727 113.082 79.7727C112.909 79.7727 112.739 79.7361 112.581 79.6652L109.79 78.3993L106.881 77.0799L89.2967 69.1126L89.2919 69.1102L84.4979 66.9356L70.1841 60.448L60.3289 55.9821C60.2286 55.9357 60.1235 55.9007 60.0154 55.8776C59.7774 55.8181 59.5291 55.8131 59.2889 55.863C58.9046 55.9417 58.5592 56.1504 58.3109 56.454C58.0626 56.7577 57.9266 57.1376 57.9258 57.5299V118.549C57.9263 119 58.1056 119.432 58.4245 119.751C58.7434 120.07 59.1757 120.249 59.6266 120.25H166.537C166.988 120.249 167.421 120.07 167.739 119.751C168.058 119.432 168.238 119 168.238 118.549V57.5299C168.239 57.0845 168.064 56.6568 167.752 56.3393ZM167.752 118.549C167.752 118.871 167.624 119.18 167.396 119.408C167.168 119.636 166.859 119.764 166.537 119.764H59.6266C59.3045 119.764 58.9955 119.636 58.7677 119.408C58.5399 119.18 58.4119 118.871 58.4117 118.549V57.5298C58.4118 57.3268 58.4628 57.127 58.56 56.9487C58.6572 56.7705 58.7975 56.6194 58.9682 56.5093C59.0882 56.4325 59.2205 56.3766 59.3593 56.3441C59.4002 56.3353 59.4416 56.3288 59.4833 56.3247C59.5307 56.3178 59.5787 56.3146 59.6266 56.315C59.7994 56.3152 59.97 56.3525 60.1272 56.4243L70.4148 61.0871L84.6437 67.5357L88.6431 69.3483L89.2919 69.6423L106.225 77.318L108.611 78.3993L112.38 80.1074C112.6 80.2071 112.84 80.2587 113.082 80.2587C113.324 80.2587 113.564 80.2071 113.784 80.1074L117.553 78.3993L129.347 73.0538L140.339 68.0703L166.037 56.4243C166.222 56.3405 166.425 56.3044 166.627 56.3193C166.83 56.3341 167.025 56.3995 167.196 56.5093C167.215 56.5209 167.234 56.5339 167.252 56.5482C167.271 56.5607 167.289 56.5754 167.305 56.5919C167.445 56.705 167.558 56.848 167.635 57.0102C167.712 57.1725 167.752 57.3501 167.752 57.5298L167.752 118.549ZM128.168 73.0538L116.374 78.3993L113.583 79.6652C113.425 79.7361 113.255 79.7727 113.082 79.7727C112.909 79.7727 112.739 79.7361 112.581 79.6652L109.79 78.3993H108.611L112.38 80.1074C112.6 80.2071 112.84 80.2587 113.082 80.2587C113.324 80.2587 113.564 80.2071 113.784 80.1074L117.553 78.3993L129.347 73.0538H128.168ZM128.168 73.0538L116.374 78.3993L113.583 79.6652C113.425 79.7361 113.255 79.7727 113.082 79.7727C112.909 79.7727 112.739 79.7361 112.581 79.6652L109.79 78.3993H108.611L112.38 80.1074C112.6 80.2071 112.84 80.2587 113.082 80.2587C113.324 80.2587 113.564 80.2071 113.784 80.1074L117.553 78.3993L129.347 73.0538H128.168ZM88.6431 69.3483L89.2919 69.6423V69.1126L88.6431 69.3483ZM128.168 73.0538L116.374 78.3993L113.583 79.6652C113.425 79.7361 113.255 79.7727 113.082 79.7727C112.909 79.7727 112.739 79.7361 112.581 79.6652L109.79 78.3993H108.611L112.38 80.1074C112.6 80.2071 112.84 80.2587 113.082 80.2587C113.324 80.2587 113.564 80.2071 113.784 80.1074L117.553 78.3993L129.347 73.0538H128.168Z" fill="#3F3D56"/>
    <path d="M43.5824 120.25H16.1258C16.0613 120.25 15.9995 120.224 15.954 120.179C15.9084 120.133 15.8828 120.071 15.8828 120.007C15.8828 119.943 15.9084 119.881 15.954 119.835C15.9995 119.79 16.0613 119.764 16.1258 119.764H43.5824C43.6468 119.764 43.7086 119.79 43.7542 119.835C43.7998 119.881 43.8254 119.943 43.8254 120.007C43.8254 120.071 43.7998 120.133 43.7542 120.179C43.7086 120.224 43.6468 120.25 43.5824 120.25Z" fill="#3F3D56"/>
    <path d="M28.2413 41.9174C27.793 41.6899 27.4203 41.3374 27.1682 40.9025C26.9161 40.4676 26.7955 39.9689 26.821 39.4669C26.8464 38.9649 27.0168 38.481 27.3116 38.0738C27.6063 37.6666 28.0128 37.3536 28.4818 37.1726C30.2826 36.4777 32.3015 37.8959 34.1892 37.4927C36.0706 37.0908 37.159 34.8415 36.7099 32.9707C36.2608 31.0999 34.6263 29.6908 32.8239 29.0179C31.6468 28.5795 30.3861 28.4114 29.1352 28.5261C27.8843 28.6407 26.6753 29.0352 25.5974 29.6803C24.5307 30.3443 23.6423 31.2588 23.0095 32.3443C22.3766 33.4297 22.0185 34.6534 21.9662 35.9087C21.9417 37.1653 22.2487 38.4061 22.8563 39.5062C23.4638 40.6063 24.3505 41.5269 25.4271 42.1754C25.9069 42.4519 26.4653 42.6739 27.0049 42.5494C27.4479 42.4055 27.8652 42.1922 28.2413 41.9174Z" fill="#2F2E41"/>
    <path d="M26.3075 29.5349C24.7195 27.4286 22.5759 25.6983 20.0815 24.8404C17.5871 23.9826 14.7366 24.0514 12.394 25.2638C10.0513 26.4761 8.30419 28.8838 8.12183 31.5153C7.81832 35.8949 11.5606 39.6178 11.9446 43.9911C12.0664 45.3773 11.8414 46.772 11.2899 48.0496C10.7385 49.3272 9.87787 50.4475 8.78565 51.3097C7.69343 52.1719 6.40389 52.7489 5.03318 52.9887C3.66247 53.2284 2.25364 53.1235 0.933594 52.6832C1.87381 53.4572 2.96391 54.0283 4.13543 54.3608C5.30695 54.6933 6.53456 54.7799 7.74115 54.6152C8.94577 54.4344 10.0951 53.9878 11.1057 53.3077C12.1163 52.6277 12.9629 51.7313 13.5841 50.6835C14.4263 49.2202 14.7722 47.5204 14.9065 45.8373C15.1175 43.1761 14.8318 40.4988 14.0639 37.9421C13.6442 36.5471 13.0749 35.1116 13.3411 33.6794C13.4928 32.9344 13.8601 32.2504 14.3973 31.7125C14.9345 31.1745 15.6179 30.8062 16.3627 30.6534C17.5662 30.4279 18.7968 30.7952 19.946 31.2179C21.0952 31.6407 22.2538 32.1299 23.478 32.1579C24.7022 32.1859 26.0356 31.6255 26.5087 30.4961L26.3075 29.5349Z" fill="#2F2E41"/>
  </g>
  <defs>
    <clipPath id="clip0_515_57976">
      <rect width="184.798" height="120" fill="white" transform="translate(0.933594 0.25)"/>
    </clipPath>
  </defs>
</svg>