<svg xmlns="http://www.w3.org/2000/svg" width="158" height="92" viewBox="0 0 158 92" fill="none">
  <g clip-path="url(#clip0_515_57723)">
    <path d="M43.6692 77.2391C47.935 77.2391 51.3931 73.781 51.3931 69.5152C51.3931 65.2494 47.935 61.7913 43.6692 61.7913C39.4034 61.7913 35.9453 65.2494 35.9453 69.5152C35.9453 73.781 39.4034 77.2391 43.6692 77.2391Z" fill="#6C63FF"/>
    <path opacity="0.2" d="M37.9669 64.3562C37.2465 66.0415 37.1487 67.9281 37.6912 69.6788C38.2336 71.4295 39.381 72.9303 40.9281 73.913C42.4752 74.8957 44.3214 75.2962 46.1367 75.0431C47.9519 74.7899 49.618 73.8995 50.8372 72.531C50.3971 73.5606 49.7384 74.4823 48.9067 75.2321C48.0751 75.9819 47.0903 76.5419 46.0207 76.8733C44.9511 77.2048 43.8223 77.2997 42.7124 77.1515C41.6024 77.0034 40.538 76.6157 39.5928 76.0153C38.6476 75.415 37.8442 74.6163 37.2383 73.6746C36.6324 72.7329 36.2384 71.6708 36.0838 70.5617C35.9291 69.4527 36.0175 68.3233 36.3426 67.2518C36.6678 66.1803 37.222 65.1923 37.9669 64.3562Z" fill="black"/>
    <path d="M43.6904 69.5149H43.7115L44.0935 91.4135H43.2871L43.6904 69.5149Z" fill="#3F3D56"/>
    <path d="M28.0415 62.835C36.6421 62.835 43.6143 55.8629 43.6143 47.2622C43.6143 38.6616 36.6421 31.6895 28.0415 31.6895C19.4409 31.6895 12.4688 38.6616 12.4688 47.2622C12.4688 55.8629 19.4409 62.835 28.0415 62.835Z" fill="#6C63FF"/>
    <path opacity="0.2" d="M16.5437 36.8608C15.0911 40.2587 14.894 44.0624 15.9877 47.5922C17.0814 51.122 19.3946 54.1478 22.5139 56.1291C25.6332 58.1104 29.3554 58.9179 33.0153 58.4075C36.6752 57.897 40.0344 56.1018 42.4925 53.3426C41.6052 55.4186 40.2771 57.2768 38.6003 58.7885C36.9235 60.3003 34.9381 61.4294 32.7816 62.0976C30.6251 62.7659 28.3491 62.9573 26.1113 62.6586C23.8735 62.3599 21.7274 61.5782 19.8216 60.3678C17.9159 59.1573 16.2961 57.547 15.0745 55.6484C13.8529 53.7498 13.0587 51.6083 12.7469 49.3723C12.4351 47.1363 12.6132 44.8592 13.2687 42.6988C13.9243 40.5385 15.0418 38.5465 16.5437 36.8608Z" fill="black"/>
    <path d="M28.0843 47.2622H28.1272L28.8973 91.4137H27.2715L28.0843 47.2622Z" fill="#3F3D56"/>
    <path d="M130.715 68.561H59.3359V89.7208H130.715V68.561Z" fill="#F0F0F0"/>
    <path d="M99.1861 72.9341H90.8633V89.7208H99.1861V72.9341Z" fill="#CACACA"/>
    <path d="M126.552 43.5925H63.4961V63.0595H126.552V43.5925Z" fill="#F0F0F0"/>
    <path d="M132.945 44.7917H57.1035C56.9769 44.7917 56.8532 44.7538 56.7483 44.6829C56.6433 44.6121 56.562 44.5114 56.5147 44.394C56.4674 44.2765 56.4563 44.1476 56.4829 44.0238C56.5094 43.9 56.5723 43.787 56.6636 43.6992L77.3912 23.7757V15.0975C77.3914 14.9292 77.4583 14.7678 77.5773 14.6488C77.6963 14.5298 77.8577 14.4629 78.026 14.4627H82.1169C82.2852 14.4629 82.4465 14.5298 82.5655 14.6488C82.6845 14.7678 82.7515 14.9292 82.7517 15.0975V18.6233L84.3172 17.1184C86.8792 14.6558 90.2782 13.2541 93.8313 13.1951C97.3844 13.136 100.828 14.4239 103.471 16.7999L133.37 43.6848C133.465 43.7707 133.532 43.8835 133.562 44.0083C133.592 44.1332 133.584 44.2642 133.538 44.3841C133.492 44.504 133.411 44.6072 133.305 44.6799C133.199 44.7527 133.074 44.7917 132.945 44.7917Z" fill="#CACACA"/>
    <path d="M80.1414 48.5298C80.6694 48.5298 81.1922 48.6338 81.68 48.8358C82.1677 49.0379 82.6109 49.334 82.9843 49.7073C83.3576 50.0806 83.6537 50.5238 83.8558 51.0116C84.0578 51.4994 84.1618 52.0222 84.1618 52.5501V57.9811H76.1211V52.5501C76.1211 51.4839 76.5447 50.4613 77.2986 49.7073C78.0526 48.9534 79.0752 48.5298 80.1414 48.5298Z" fill="white"/>
    <path d="M95.0243 48.6003C95.5522 48.6003 96.075 48.7043 96.5628 48.9064C97.0505 49.1084 97.4938 49.4046 97.8671 49.7779C98.2404 50.1512 98.5365 50.5944 98.7386 51.0822C98.9406 51.5699 99.0446 52.0927 99.0446 52.6207V58.0517H91.0039V52.6207C91.0039 52.0927 91.1079 51.5699 91.3099 51.0822C91.512 50.5944 91.8081 50.1512 92.1814 49.7779C92.5548 49.4046 92.998 49.1084 93.4857 48.9064C93.9735 48.7043 94.4963 48.6003 95.0243 48.6003Z" fill="white"/>
    <path d="M109.907 48.6709C110.435 48.6709 110.958 48.7749 111.446 48.9769C111.933 49.179 112.377 49.4751 112.75 49.8484C113.123 50.2218 113.419 50.665 113.621 51.1527C113.823 51.6405 113.927 52.1633 113.927 52.6913V58.1223H105.887V52.6913C105.887 52.1633 105.991 51.6405 106.193 51.1527C106.395 50.665 106.691 50.2218 107.064 49.8484C107.438 49.4751 107.881 49.179 108.369 48.9769C108.856 48.7749 109.379 48.6709 109.907 48.6709Z" fill="white"/>
    <path d="M115.831 72.7224C116.897 72.7224 117.92 73.146 118.674 73.8999C119.428 74.6539 119.851 75.6765 119.851 76.7428V82.1738H111.811V76.7428C111.811 75.6765 112.234 74.6539 112.988 73.8999C113.742 73.146 114.765 72.7224 115.831 72.7224Z" fill="white"/>
    <path d="M76.0516 72.7224C77.1179 72.7224 78.1405 73.146 78.8944 73.8999C79.6484 74.6539 80.072 75.6765 80.072 76.7428V82.1738H72.0312V76.7428C72.0312 76.2148 72.1352 75.692 72.3373 75.2042C72.5393 74.7165 72.8355 74.2733 73.2088 73.8999C73.5821 73.5266 74.0253 73.2305 74.5131 73.0284C75.0009 72.8264 75.5236 72.7224 76.0516 72.7224Z" fill="white"/>
    <path d="M141.142 68.8914L127.752 62.9667C127.68 62.9349 127.602 62.9185 127.523 62.9185H63.7094C63.6366 62.9184 63.5644 62.9326 63.4969 62.96L48.9221 68.8847C48.8008 68.934 48.7005 69.0239 48.6383 69.139C48.576 69.2541 48.5557 69.3873 48.5808 69.5157C48.6059 69.6441 48.6749 69.7598 48.7759 69.843C48.8769 69.9262 49.0037 69.9717 49.1346 69.9717H52.916V89.4387H52.4928V91.4136H137.555V89.4387H136.85V69.9717H140.913C141.043 69.9717 141.168 69.9272 141.269 69.8458C141.369 69.7643 141.439 69.6507 141.465 69.5241C141.492 69.3975 141.474 69.2656 141.416 69.1504C141.357 69.0352 141.26 68.9438 141.142 68.8914ZM135.721 89.4387H54.0446V69.9717H135.721V89.4387Z" fill="#CACACA"/>
    <path d="M85.1493 57.2053H74.8516V58.8981H85.1493V57.2053Z" fill="#CACACA"/>
    <path d="M100.243 57.2053H89.9453V58.8981H100.243V57.2053Z" fill="#CACACA"/>
    <path d="M115.339 57.2053H105.041V58.8981H115.339V57.2053Z" fill="#CACACA"/>
    <path d="M120.981 81.6096H110.684V83.3024H120.981V81.6096Z" fill="#CACACA"/>
    <path d="M81.0595 81.6096H70.7617V83.3024H81.0595V81.6096Z" fill="#CACACA"/>
    <path d="M157.727 91.5H0.940441C0.894595 91.5 0.850626 91.4818 0.818208 91.4494C0.78579 91.417 0.767578 91.373 0.767578 91.3272C0.767578 91.2813 0.78579 91.2373 0.818208 91.2049C0.850626 91.1725 0.894595 91.1543 0.940441 91.1543H157.727C157.773 91.1543 157.817 91.1725 157.849 91.2049C157.882 91.2373 157.9 91.2813 157.9 91.3272C157.9 91.373 157.882 91.417 157.849 91.4494C157.817 91.4818 157.773 91.5 157.727 91.5Z" fill="#3F3D56"/>
    <path d="M116.239 76.9205L116.19 76.3131C116.127 76.0747 115.531 76.8226 115.46 76.8388C115.272 76.7992 115.079 76.7905 114.888 76.8131C114.914 75.723 114.746 76.2172 114.259 76.7092C112.69 77.5046 113.265 80.0177 115.052 80.0304C116.681 80.1252 117.492 77.9108 116.239 76.9205Z" fill="#3F3D56"/>
    <path d="M116.458 79.3858C117.108 79.3755 117.926 81.6557 116.386 81.6676C115.589 81.6737 114.178 81.8291 114.178 81.8291C114.178 81.8291 113.082 80.1835 113.571 79.1597L116.458 79.3858Z" fill="#3F3D56"/>
    <path d="M115.029 80.5907V81.772H115.582L116.02 80.5691" fill="#3F3D56"/>
    <path d="M115.582 81.7936C115.571 81.7812 114.985 81.8203 115.008 81.7721L115.009 80.5907C115.106 80.4324 115.028 81.7658 115.052 81.7506H115.567C115.593 81.7357 115.974 80.5256 116.028 80.5489C116.031 80.5499 116.033 80.5513 116.035 80.5532C116.037 80.5551 116.039 80.5575 116.04 80.56C116.041 80.5626 116.042 80.5654 116.042 80.5682C116.042 80.571 116.042 80.5738 116.041 80.5765C116.02 80.5912 115.624 81.801 115.582 81.7936Z" fill="white"/>
    <path d="M116.914 81.6998C116.93 81.894 115.994 81.894 116.01 81.6998C115.994 81.5057 116.93 81.5057 116.914 81.6998Z" fill="#3F3D56"/>
    <path d="M116.234 81.5707C116.18 81.5838 115.998 80.6875 116.553 80.5608C116.013 80.8487 116.291 81.5141 116.234 81.5707Z" fill="white"/>
    <path d="M117.002 81.3737C116.999 81.3694 116.997 81.3648 116.994 81.3604L116.924 81.3629L117.002 81.3737Z" fill="#3F3D56"/>
    <path d="M119.349 80.6912C119.03 80.2179 118.416 80.4331 118.175 80.866C117.89 81.3883 116.672 80.9998 116.824 81.7012C117.585 81.5406 119.837 82.09 119.349 80.6912Z" fill="#3F3D56"/>
    <path d="M114.958 79.8749C114.458 79.9725 113.577 79.3533 113.554 79.1709C113.551 79.166 113.55 79.1603 113.551 79.1549C113.553 79.1494 113.556 79.1448 113.561 79.1418C113.566 79.1389 113.572 79.138 113.577 79.1392C113.582 79.1404 113.587 79.1437 113.59 79.1484C113.76 79.3899 113.994 79.579 114.266 79.6944C114.687 79.9077 115.457 79.9126 116.478 79.375C116.033 79.6894 115.503 79.8635 114.958 79.8749Z" fill="white"/>
    <path d="M115.052 78.7819C114.939 78.817 114.841 78.5447 114.944 78.6311C114.944 78.6597 114.955 78.6871 114.975 78.7073C114.996 78.7275 115.023 78.7388 115.052 78.7389C115.144 78.7479 115.139 78.6475 115.181 78.6096C115.253 78.6673 115.13 78.7928 115.052 78.7819Z" fill="white"/>
    <path d="M114.847 81.7033C114.804 81.7091 114.502 80.6244 114.481 80.6079C114.48 80.6025 114.48 80.5966 114.483 80.5915C114.486 80.5865 114.49 80.5826 114.495 80.5809C114.552 80.5584 114.842 81.6608 114.867 81.6753C114.868 81.6785 114.868 81.6819 114.868 81.6853C114.867 81.6886 114.866 81.6918 114.864 81.6945C114.862 81.6972 114.859 81.6994 114.856 81.701C114.853 81.7025 114.85 81.7033 114.847 81.7033Z" fill="white"/>
    <path d="M115.75 81.8505C115.766 82.0447 114.83 82.0447 114.846 81.8505C114.83 81.6563 115.766 81.6563 115.75 81.8505Z" fill="#3F3D56"/>
    <path d="M115.018 81.829C115.033 82.0232 114.098 82.0232 114.113 81.829C114.098 81.6348 115.034 81.6348 115.018 81.829Z" fill="#3F3D56"/>
    <path d="M115.233 78.3619C115.239 78.4474 114.883 78.4474 114.889 78.3619C114.883 78.2765 115.239 78.2765 115.233 78.3619Z" fill="white"/>
    <path d="M113.903 78.3667C113.953 78.3079 114.014 78.2607 114.084 78.2282C114.154 78.1958 114.229 78.179 114.306 78.179C114.383 78.179 114.459 78.1958 114.529 78.2282C114.598 78.2607 114.66 78.3079 114.709 78.3667C115.265 77.8517 114.443 76.9911 113.903 77.5222C113.846 77.5768 113.801 77.6423 113.77 77.7149C113.739 77.7874 113.723 77.8655 113.723 77.9445C113.723 78.0234 113.739 78.1015 113.77 78.1741C113.801 78.2467 113.846 78.3122 113.903 78.3667Z" fill="white"/>
    <path d="M115.479 78.3667C115.529 78.3079 115.59 78.2607 115.66 78.2282C115.73 78.1958 115.806 78.179 115.882 78.179C115.959 78.179 116.035 78.1958 116.105 78.2282C116.174 78.2607 116.236 78.3079 116.286 78.3667C116.841 77.8517 116.02 76.9911 115.479 77.5222C115.422 77.5768 115.377 77.6423 115.346 77.7149C115.315 77.7874 115.299 77.8655 115.299 77.9445C115.299 78.0234 115.315 78.1015 115.346 78.1741C115.377 78.2467 115.422 78.3122 115.479 78.3667Z" fill="white"/>
    <path d="M114.051 77.8005C114.103 77.802 114.153 77.8237 114.189 77.8613C114.226 77.8988 114.246 77.949 114.246 78.0014C114.246 78.0537 114.226 78.104 114.189 78.1415C114.153 78.179 114.103 78.2008 114.051 78.2022C113.999 78.2008 113.949 78.179 113.912 78.1415C113.876 78.104 113.855 78.0537 113.855 78.0013C113.855 77.949 113.876 77.8987 113.912 77.8612C113.949 77.8237 113.999 77.802 114.051 77.8005Z" fill="#3F3D56"/>
    <path d="M115.627 77.8005C115.679 77.802 115.729 77.8237 115.766 77.8613C115.802 77.8988 115.823 77.949 115.823 78.0014C115.823 78.0537 115.802 78.104 115.766 78.1415C115.729 78.179 115.679 78.2008 115.627 78.2022C115.575 78.2008 115.525 78.179 115.489 78.1415C115.452 78.104 115.432 78.0537 115.432 78.0013C115.432 77.949 115.452 77.8987 115.489 77.8612C115.525 77.8237 115.575 77.802 115.627 77.8005Z" fill="#3F3D56"/>
    <path d="M115.902 78.4397C115.948 78.4409 115.991 78.46 116.023 78.4929C116.055 78.5258 116.073 78.5698 116.073 78.6157C116.073 78.6615 116.055 78.7056 116.023 78.7385C115.991 78.7713 115.948 78.7904 115.902 78.7917C115.856 78.7904 115.812 78.7713 115.78 78.7385C115.748 78.7056 115.73 78.6615 115.73 78.6157C115.73 78.5698 115.748 78.5258 115.78 78.4929C115.812 78.46 115.856 78.4409 115.902 78.4397Z" fill="#FF6584"/>
    <path d="M114.312 78.4397C114.358 78.4409 114.401 78.46 114.433 78.4929C114.465 78.5258 114.483 78.5698 114.483 78.6157C114.483 78.6615 114.465 78.7056 114.433 78.7385C114.401 78.7713 114.358 78.7904 114.312 78.7917C114.266 78.7904 114.222 78.7713 114.19 78.7385C114.159 78.7056 114.141 78.6615 114.141 78.6157C114.141 78.5698 114.159 78.5258 114.191 78.4929C114.222 78.46 114.266 78.4409 114.312 78.4397Z" fill="#FF6584"/>
    <path d="M63.8096 10.0654C63.7651 10.0654 63.7222 10.0485 63.6897 10.0181C63.6571 9.98773 63.6373 9.94615 63.6342 9.90174C63.5191 8.33786 62.8177 6.87511 61.6704 5.8062C60.523 4.7373 59.0143 4.14108 57.4462 4.13686C57.2586 4.13686 57.0614 4.1464 56.8603 4.16523C56.8266 4.16839 56.7928 4.16179 56.7628 4.14623C56.7328 4.13066 56.7079 4.10679 56.6911 4.07747C55.9708 2.81666 54.8951 1.79591 53.5984 1.14259C52.3016 0.489273 50.8411 0.232328 49.3992 0.403818C47.9573 0.575308 46.5978 1.16764 45.4905 2.10689C44.3831 3.04614 43.5769 4.29072 43.1724 5.6853C43.1617 5.72267 43.1389 5.75543 43.1075 5.77842C43.0762 5.80141 43.0381 5.81333 42.9993 5.8123L42.9525 5.81088C42.9281 5.81007 42.9038 5.80921 42.8792 5.80921C41.6898 5.81293 40.5375 6.22321 39.6133 6.97197C38.6892 7.72074 38.0489 8.76297 37.7986 9.92573C37.7902 9.96524 37.7686 10.0007 37.7372 10.0261C37.7058 10.0516 37.6667 10.0655 37.6263 10.0655H25.8328C25.8097 10.0655 25.7867 10.061 25.7653 10.0522C25.7439 10.0434 25.7244 10.0304 25.708 10.0141C25.6916 9.99773 25.6786 9.9783 25.6697 9.95691C25.6608 9.93551 25.6562 9.91258 25.6562 9.88941C25.6562 9.86625 25.6608 9.84332 25.6697 9.82192C25.6786 9.80053 25.6916 9.7811 25.708 9.76474C25.7244 9.74839 25.7439 9.73543 25.7653 9.72662C25.7867 9.71781 25.8097 9.71331 25.8328 9.71338H37.4854C37.7788 8.50394 38.4688 7.42761 39.4453 6.65615C40.4219 5.8847 41.6287 5.46257 42.8732 5.45713C43.3162 4.02403 44.1659 2.75043 45.319 1.79106C46.4721 0.831685 47.879 0.227836 49.3688 0.0528692C50.8586 -0.122097 52.3672 0.13935 53.7112 0.805447C55.0552 1.47154 56.1769 2.51362 56.9399 3.80508C57.113 3.79159 57.2829 3.7848 57.4462 3.7848C59.1034 3.78928 60.6977 4.41938 61.9102 5.54899C63.1227 6.6786 63.8638 8.22441 63.9854 9.87709C63.987 9.90015 63.9841 9.92331 63.9768 9.94524C63.9694 9.96716 63.9579 9.98743 63.9427 10.0049C63.9275 10.0223 63.9091 10.0366 63.8884 10.047C63.8677 10.0573 63.8452 10.0634 63.8221 10.065C63.8179 10.0653 63.8138 10.0654 63.8096 10.0654Z" fill="#CBCBCB"/>
    <path d="M61.714 12.3225H32.844C32.7973 12.3225 32.7525 12.304 32.7195 12.271C32.6865 12.238 32.668 12.1932 32.668 12.1465C32.668 12.0998 32.6865 12.055 32.7195 12.022C32.7525 11.989 32.7973 11.9705 32.844 11.9705H61.714C61.7606 11.9705 61.8054 11.989 61.8384 12.022C61.8714 12.055 61.89 12.0998 61.89 12.1465C61.89 12.1932 61.8714 12.238 61.8384 12.271C61.8054 12.304 61.7606 12.3225 61.714 12.3225Z" fill="#CBCBCB"/>
    <path d="M39.8854 14.875H30.2034C30.1567 14.875 30.1119 14.8565 30.0789 14.8235C30.0459 14.7904 30.0273 14.7457 30.0273 14.699C30.0273 14.6523 30.0459 14.6075 30.0789 14.5745C30.1119 14.5415 30.1567 14.5229 30.2034 14.5229H39.8854C39.9321 14.5229 39.9768 14.5415 40.0099 14.5745C40.0429 14.6075 40.0614 14.6523 40.0614 14.699C40.0614 14.7457 40.0429 14.7904 40.0099 14.8235C39.9768 14.8565 39.9321 14.875 39.8854 14.875Z" fill="#CBCBCB"/>
    <path d="M156.29 23.2031C156.246 23.2031 156.203 23.1862 156.17 23.1558C156.138 23.1254 156.118 23.0838 156.115 23.0394C156 21.4756 155.298 20.0128 154.151 18.9439C153.004 17.875 151.495 17.2788 149.927 17.2746C149.739 17.2746 149.542 17.2841 149.341 17.3029C149.307 17.3061 149.273 17.2995 149.243 17.2839C149.213 17.2684 149.188 17.2445 149.172 17.2152C148.451 15.9544 147.376 14.9336 146.079 14.2803C144.782 13.627 143.322 13.37 141.88 13.5415C140.438 13.713 139.078 14.3053 137.971 15.2446C136.864 16.1838 136.057 17.4284 135.653 18.823C135.642 18.8604 135.619 18.8931 135.588 18.9161C135.557 18.9391 135.519 18.951 135.48 18.95L135.433 18.9486C135.409 18.9478 135.384 18.9469 135.36 18.9469C134.17 18.9506 133.018 19.3609 132.094 20.1097C131.17 20.8584 130.529 21.9007 130.279 23.0634C130.271 23.1029 130.249 23.1384 130.218 23.1638C130.186 23.1893 130.147 23.2031 130.107 23.2031H118.313C118.29 23.2032 118.267 23.1987 118.246 23.1899C118.224 23.1811 118.205 23.1681 118.188 23.1518C118.172 23.1354 118.159 23.116 118.15 23.0946C118.141 23.0732 118.137 23.0503 118.137 23.0271C118.137 23.0039 118.141 22.981 118.15 22.9596C118.159 22.9382 118.172 22.9188 118.188 22.9024C118.205 22.8861 118.224 22.8731 118.246 22.8643C118.267 22.8555 118.29 22.851 118.313 22.8511H129.966C130.259 21.6416 130.949 20.5653 131.926 19.7938C132.902 19.0224 134.109 18.6003 135.354 18.5948C135.797 17.1617 136.646 15.8881 137.799 14.9287C138.953 13.9694 140.36 13.3655 141.849 13.1906C143.339 13.0156 144.848 13.277 146.192 13.9431C147.536 14.6092 148.657 15.6513 149.42 16.9428C149.594 16.9293 149.763 16.9225 149.927 16.9225C151.584 16.927 153.178 17.5571 154.391 18.6867C155.603 19.8163 156.344 21.3621 156.466 23.0148C156.468 23.0378 156.465 23.061 156.457 23.0829C156.45 23.1049 156.438 23.1251 156.423 23.1426C156.408 23.16 156.39 23.1743 156.369 23.1846C156.348 23.195 156.326 23.2011 156.303 23.2027C156.298 23.203 156.294 23.2031 156.29 23.2031Z" fill="#CBCBCB"/>
    <path d="M154.196 25.4602H125.326C125.28 25.4602 125.235 25.4417 125.202 25.4087C125.169 25.3757 125.15 25.3309 125.15 25.2842C125.15 25.2375 125.169 25.1927 125.202 25.1597C125.235 25.1267 125.28 25.1082 125.326 25.1082H154.196C154.243 25.1082 154.288 25.1267 154.321 25.1597C154.354 25.1927 154.372 25.2375 154.372 25.2842C154.372 25.3309 154.354 25.3757 154.321 25.4087C154.288 25.4417 154.243 25.4602 154.196 25.4602Z" fill="#CBCBCB"/>
    <path d="M132.368 28.0127H122.686C122.639 28.0127 122.594 27.9942 122.561 27.9612C122.528 27.9281 122.51 27.8834 122.51 27.8367C122.51 27.79 122.528 27.7452 122.561 27.7122C122.594 27.6792 122.639 27.6606 122.686 27.6606H132.368C132.414 27.6606 132.459 27.6792 132.492 27.7122C132.525 27.7452 132.544 27.79 132.544 27.8367C132.544 27.8834 132.525 27.9281 132.492 27.9612C132.459 27.9942 132.414 28.0127 132.368 28.0127Z" fill="#CBCBCB"/>
    <path d="M31.7953 88.3937C34.0264 89.0342 34.0528 85.8812 34.4078 84.4624C33.1467 85.3211 31.0205 86.5453 31.8035 88.3553" fill="#6C63FF"/>
    <path d="M31.9202 90.8401C31.6272 89.1825 31.6087 87.0831 33.2351 86.1034C33.3128 86.0543 33.3844 86.1775 33.307 86.2264C31.7367 87.1762 31.7833 89.2044 32.0577 90.8021C32.062 90.8201 32.0591 90.8391 32.0497 90.855C32.0403 90.8709 32.0251 90.8825 32.0073 90.8874C31.9895 90.8923 31.9704 90.8901 31.9542 90.8813C31.938 90.8724 31.9258 90.8577 31.9202 90.8401Z" fill="#3F3D56"/>
    <path d="M32.6406 89.6673C33.6616 91.0378 35.0834 89.2027 35.9241 88.5301C34.8026 88.4704 33.0113 88.2393 32.6627 89.6485" fill="#6C63FF"/>
    <path d="M31.6363 91.2601C32.2134 90.1553 33.1351 88.9058 34.5401 89.0636C34.6313 89.0714 34.6085 89.2121 34.5174 89.2043C33.1829 89.0662 32.3146 90.2664 31.7665 91.3182C31.7218 91.3973 31.5911 91.3401 31.6363 91.2601Z" fill="#3F3D56"/>
    <path d="M145.154 88.3937C142.922 89.0342 142.896 85.8812 142.541 84.4624C143.802 85.3211 145.928 86.5453 145.145 88.3553" fill="#6C63FF"/>
    <path d="M145.031 90.8401C145.324 89.1825 145.343 87.0831 143.716 86.1034C143.639 86.0543 143.567 86.1775 143.645 86.2264C145.215 87.1762 145.168 89.2044 144.894 90.8021C144.89 90.8201 144.892 90.8391 144.902 90.855C144.911 90.8709 144.927 90.8825 144.944 90.8874C144.962 90.8923 144.981 90.8901 144.997 90.8813C145.014 90.8724 145.026 90.8577 145.031 90.8401Z" fill="#3F3D56"/>
    <path d="M144.309 89.6673C143.288 91.0378 141.866 89.2027 141.025 88.5301C142.147 88.4704 143.938 88.2393 144.287 89.6485" fill="#6C63FF"/>
    <path d="M145.315 91.2601C144.738 90.1553 143.817 88.9058 142.412 89.0636C142.32 89.0714 142.343 89.2121 142.434 89.2043C143.769 89.0662 144.637 90.2664 145.185 91.3182C145.23 91.3973 145.361 91.3401 145.315 91.2601Z" fill="#3F3D56"/>
    <path d="M154.535 86.1922C150.645 87.3088 150.599 81.8124 149.98 79.3391C152.179 80.836 155.885 82.97 154.52 86.1253" fill="#6C63FF"/>
    <path d="M154.321 90.4565C154.832 87.567 154.864 83.9072 152.029 82.1994C151.894 82.1139 151.769 82.3287 151.904 82.4139C154.641 84.0695 154.56 87.6051 154.081 90.3903C154.074 90.4217 154.079 90.4547 154.095 90.4824C154.112 90.5102 154.138 90.5304 154.169 90.539C154.201 90.5476 154.234 90.5437 154.262 90.5283C154.29 90.5129 154.311 90.487 154.321 90.4563L154.321 90.4565Z" fill="#3F3D56"/>
    <path d="M153.062 88.4122C151.282 90.8013 148.803 87.6024 147.338 86.4298C149.293 86.3259 152.416 85.923 153.023 88.3795" fill="#6C63FF"/>
    <path d="M154.815 91.1887C153.809 89.2628 152.203 87.0848 149.754 87.3598C149.595 87.3735 149.634 87.6187 149.793 87.6051C152.12 87.3643 153.633 89.4566 154.588 91.29C154.666 91.4279 154.894 91.3282 154.815 91.1887Z" fill="#3F3D56"/>
    <path d="M14.5781 90.7738H15.235L15.5475 88.24H14.5781V90.7738Z" fill="#FFB6B6"/>
    <path d="M14.4121 90.5594L15.7058 90.5593C15.9245 90.5593 16.1342 90.6462 16.2888 90.8008C16.4434 90.9554 16.5303 91.1651 16.5303 91.3838V91.4105L14.4121 91.4106L14.4121 90.5594Z" fill="#2F2E41"/>
    <path d="M17.6877 90.7738H18.3446L18.6571 88.24H17.6875L17.6877 90.7738Z" fill="#FFB6B6"/>
    <path d="M17.5195 90.5594L18.8132 90.5593C19.0319 90.5593 19.2416 90.6462 19.3962 90.8008C19.5508 90.9554 19.6377 91.1651 19.6377 91.3838V91.4105L17.5196 91.4106L17.5195 90.5594Z" fill="#2F2E41"/>
    <path d="M18.9132 79.1902C18.9688 79.127 19.0097 79.0523 19.0333 78.9715C19.0569 78.8908 19.0624 78.8058 19.0496 78.7226C19.0367 78.6395 19.0058 78.5601 18.959 78.4902C18.9122 78.4203 18.8506 78.3615 18.7786 78.3179L17.7096 73.1853L16.5449 73.6442L17.962 78.5451C17.8968 78.6709 17.8801 78.8162 17.915 78.9535C17.9498 79.0908 18.0338 79.2106 18.1511 79.2901C18.2683 79.3696 18.4107 79.4034 18.5511 79.385C18.6916 79.3665 18.8204 79.2973 18.9132 79.1902Z" fill="#FFB6B6"/>
    <path d="M13.8737 78.2018L13.3895 78.6933C13.3895 78.6933 12.8704 80.5957 13.8637 82.9418L14.5282 89.7441L15.7236 89.8341L16.0804 81.9202L17.727 84.5471L17.4394 89.806L18.7608 89.7756L19.358 83.9484L17.727 77.8677L13.8737 78.2018Z" fill="#2F2E41"/>
    <path d="M15.5673 78.8638C14.8382 78.8587 14.11 78.8106 13.3865 78.7198L13.3574 78.7159L14.079 75.5446L13.8305 71.4642L16.1768 71.3839C16.3892 71.3762 16.5969 71.4472 16.7602 71.5833C16.9234 71.7194 17.0306 71.911 17.0612 72.1214L17.5414 75.3768L17.9856 78.265L17.9796 78.2737C17.6604 78.7417 16.5931 78.8638 15.5673 78.8638Z" fill="#6C63FF"/>
    <path d="M15.9629 72.0587L16.4396 71.4611C16.4396 71.4611 17.2753 70.8896 17.5398 72.1142C17.8043 73.3389 18.2957 75.3271 18.2957 75.3271L16.6616 75.4594L15.9629 72.0587Z" fill="#6C63FF"/>
    <path d="M11.4458 79.2437C11.3903 79.1805 11.3493 79.1058 11.3257 79.025C11.3022 78.9442 11.2966 78.8593 11.3095 78.7761C11.3223 78.6929 11.3532 78.6136 11.4 78.5437C11.4468 78.4737 11.5084 78.4149 11.5804 78.3714L12.6495 73.2388L13.8141 73.6976L12.3971 78.5985C12.4622 78.7243 12.4789 78.8697 12.4441 79.007C12.4092 79.1443 12.3252 79.2641 12.208 79.3436C12.0907 79.4231 11.9484 79.4568 11.8079 79.4384C11.6674 79.42 11.5386 79.3507 11.4458 79.2437Z" fill="#FFB6B6"/>
    <path d="M14.3953 72.1124L13.9186 71.5148C13.9186 71.5148 13.0829 70.9433 12.8184 72.168C12.5539 73.3926 12.0625 75.3808 12.0625 75.3808L13.6967 75.5131L14.3953 72.1124Z" fill="#6C63FF"/>
    <path d="M16.4036 70.7871H13.2958C13.2319 70.787 13.1706 70.7616 13.1254 70.7164C13.0802 70.6712 13.0548 70.6099 13.0547 70.546V69.2064C13.0547 68.7303 13.2438 68.2737 13.5804 67.9371C13.9171 67.6005 14.3736 67.4114 14.8497 67.4114C15.3258 67.4114 15.7823 67.6005 16.119 67.9371C16.4556 68.2737 16.6447 68.7303 16.6447 69.2064V70.5459C16.6446 70.6099 16.6192 70.6712 16.574 70.7164C16.5288 70.7616 16.4675 70.787 16.4036 70.7871Z" fill="#2F2E41"/>
    <path d="M15.193 70.7065C15.9198 70.7065 16.509 70.1173 16.509 69.3905C16.509 68.6637 15.9198 68.0745 15.193 68.0745C14.4662 68.0745 13.877 68.6637 13.877 69.3905C13.877 70.1173 14.4662 70.7065 15.193 70.7065Z" fill="#FFB6B6"/>
    <path d="M17.0707 69.3405H15.1703L15.1508 69.0677L15.0534 69.3405H14.7608L14.7222 68.7998L14.5291 69.3405H13.9629V69.3137C13.9633 68.9373 14.113 68.5764 14.3792 68.3102C14.6454 68.044 15.0063 67.8942 15.3828 67.8938H15.6507C16.0272 67.8942 16.3881 68.044 16.6543 68.3102C16.9205 68.5764 17.0702 68.9373 17.0707 69.3137V69.3405Z" fill="#2F2E41"/>
    <path d="M15.1549 71.0373C15.1406 71.0373 15.1263 71.036 15.1122 71.0335L13.7207 70.788V68.4883H15.2525L15.2146 68.5325C14.6869 69.1478 15.0844 70.1457 15.3683 70.6857C15.3893 70.7252 15.3986 70.7699 15.3953 70.8145C15.3919 70.8591 15.3761 70.9019 15.3495 70.9379C15.3272 70.9687 15.298 70.9937 15.2641 71.011C15.2303 71.0283 15.1929 71.0373 15.1549 71.0373Z" fill="#2F2E41"/>
  </g>
  <defs>
    <clipPath id="clip0_515_57723">
      <rect width="157.132" height="91.5" fill="white" transform="translate(0.767578)"/>
    </clipPath>
  </defs>
</svg>