<svg xmlns="http://www.w3.org/2000/svg" width="183" height="190" viewBox="0 0 183 190" fill="none">
  <g clip-path="url(#clip0_547_21513)">
    <path d="M74.0036 153.158C73.6641 152.586 72.1951 153.199 71.925 152.679C71.6559 152.161 73.0208 151.373 73.8005 149.57C73.9411 149.245 74.8273 147.197 74.1713 146.566C72.9278 145.368 67.2379 150.311 65.2467 148.693C64.8097 148.338 64.5044 147.63 63.1818 146.479C62.6556 146.021 62.3375 145.814 62.0296 145.891C61.5927 146 61.558 146.585 61.0895 147.735C60.3869 149.459 59.9714 149.355 59.562 150.731C59.2581 151.752 59.3275 152.346 58.9699 152.461C58.4639 152.625 57.9981 151.542 57.3568 151.639C56.7024 151.738 56.3067 152.999 56.1818 153.943C55.9473 155.715 56.598 156.885 56.9587 158.114C57.3507 159.45 57.5833 161.482 56.6781 164.359L47.7188 189.602C49.6967 184.422 55.4238 170.223 57.8303 164.946C58.5251 163.423 59.2921 161.878 60.8672 161.268C62.3836 160.681 64.4661 161.032 67.1211 160.392C67.4312 160.318 68.2917 160.099 68.4 159.593C68.4895 159.174 67.9834 158.941 68.0611 158.549C68.1654 158.023 69.1608 158.017 70.3839 157.41C71.2463 156.983 71.7836 156.474 72.2457 156.037C72.385 155.905 74.4556 153.921 74.0036 153.158Z" fill="#F2F2F2"/>
    <path d="M38.7557 166.447C38.3767 166.449 38.2538 167.347 37.9208 167.329C37.5891 167.312 37.5957 166.415 36.9362 165.512C36.8173 165.349 36.0678 164.323 35.5683 164.463C34.6217 164.728 35.406 168.946 34.0376 169.457C33.7373 169.569 33.3013 169.514 32.355 169.832C31.9785 169.958 31.7853 170.054 31.7342 170.228C31.6617 170.473 31.9387 170.659 32.3678 171.221C33.0113 172.063 32.8403 172.237 33.3974 172.835C33.8109 173.279 34.1224 173.416 34.0759 173.625C34.0103 173.921 33.3443 173.837 33.2068 174.179C33.0666 174.529 33.5714 175.087 33.9988 175.421C34.8009 176.047 35.5625 176.065 36.2701 176.243C37.039 176.436 38.1034 176.908 39.2541 178.183L49.0585 189.863C47.0869 187.398 41.7703 180.49 39.8749 177.787C39.3278 177.006 38.7908 176.184 38.946 175.235C39.0953 174.321 39.8683 173.4 40.3204 171.913C40.3732 171.739 40.514 171.253 40.2969 171.054C40.1174 170.889 39.8567 171.071 39.6868 170.919C39.4589 170.716 39.7429 170.226 39.7981 169.451C39.8371 168.904 39.7425 168.494 39.6612 168.141C39.6367 168.034 39.2602 166.445 38.7557 166.447Z" fill="#F2F2F2"/>
    <path d="M46.3162 168.145L46.0879 166.106L46.1922 165.952C46.675 165.237 46.921 164.539 46.924 163.877C46.9245 163.772 46.9195 163.666 46.9146 163.559C46.8949 163.134 46.8703 162.605 47.1459 161.989C47.3004 161.646 47.7345 160.851 48.387 160.949C48.5627 160.974 48.6956 161.054 48.7964 161.149C48.8112 161.125 48.8265 161.102 48.8427 161.076C49.0459 160.766 49.2068 160.633 49.3619 160.505C49.4809 160.407 49.604 160.305 49.7969 160.065C49.8815 159.96 49.9475 159.867 50.0031 159.79C50.1719 159.554 50.3923 159.274 50.7811 159.279C51.1964 159.298 51.4139 159.642 51.5581 159.869C51.8155 160.275 51.9321 160.567 52.0094 160.761C52.0374 160.832 52.0694 160.912 52.0857 160.936C52.2195 161.133 53.3076 160.949 53.7175 160.882C54.6382 160.729 55.4349 160.596 55.7632 161.176C55.9984 161.592 55.8237 162.141 55.2282 162.852C55.0427 163.074 54.8454 163.242 54.6702 163.374C54.8154 163.461 54.9453 163.594 54.9979 163.802C55.122 164.296 54.6973 164.791 53.7362 165.276C53.4975 165.397 53.1762 165.558 52.7259 165.636C52.5138 165.672 52.3229 165.681 52.1595 165.686C52.156 165.781 52.1339 165.883 52.0763 165.988C51.9075 166.298 51.5562 166.446 51.0267 166.41C50.444 166.38 49.9642 166.269 49.541 166.171C49.1714 166.087 48.853 166.015 48.603 166.031C48.1395 166.069 47.7822 166.44 47.3629 166.921L46.3162 168.145Z" fill="#F2F2F2"/>
    <path d="M47.375 156.009L45.4612 156.746L45.2853 156.685C44.4717 156.399 43.7343 156.338 43.0928 156.503C42.9908 156.529 42.8902 156.561 42.7877 156.593C42.3814 156.72 41.8764 156.878 41.2106 156.767C40.8391 156.705 39.9598 156.487 39.8895 155.831C39.8687 155.654 39.9131 155.505 39.9789 155.384C39.9523 155.376 39.9256 155.367 39.8967 155.358C39.5453 155.24 39.3759 155.118 39.2128 155C39.0874 154.91 38.9582 154.817 38.6769 154.691C38.5536 154.636 38.4474 154.596 38.3581 154.561C38.0877 154.458 37.7605 154.316 37.6666 153.938C37.5803 153.532 37.8574 153.234 38.0408 153.037C38.3677 152.685 38.6209 152.498 38.7888 152.374C38.8502 152.329 38.9193 152.278 38.9389 152.256C39.0954 152.077 38.6414 151.071 38.4727 150.691C38.0906 149.84 37.76 149.103 38.2384 148.638C38.5805 148.305 39.1561 148.335 39.9954 148.73C40.2567 148.854 40.4695 149.002 40.6415 149.138C40.6885 148.975 40.7841 148.816 40.9726 148.712C41.419 148.467 42.0056 148.752 42.7178 149.559C42.8954 149.759 43.1331 150.029 43.3225 150.445C43.4115 150.641 43.4685 150.823 43.5147 150.98C43.607 150.959 43.7116 150.955 43.8281 150.984C44.1708 151.068 44.4027 151.371 44.5027 151.892C44.621 152.463 44.6351 152.956 44.6482 153.39C44.6601 153.769 44.6714 154.095 44.751 154.333C44.9047 154.771 45.3542 155.023 45.9261 155.306L47.375 156.009Z" fill="#F2F2F2"/>
    <path d="M46.3162 150.004L46.0879 147.965L46.1922 147.811C46.675 147.096 46.921 146.398 46.924 145.736C46.9245 145.631 46.9195 145.525 46.9146 145.418C46.8949 144.993 46.8703 144.465 47.1459 143.848C47.3004 143.505 47.7345 142.71 48.387 142.808C48.5627 142.833 48.6956 142.913 48.7964 143.008C48.8112 142.984 48.8265 142.961 48.8427 142.935C49.0459 142.625 49.2068 142.492 49.3619 142.364C49.4809 142.266 49.604 142.164 49.7969 141.924C49.8815 141.819 49.9475 141.726 50.0031 141.649C50.1719 141.413 50.3923 141.133 50.7811 141.138C51.1964 141.158 51.4139 141.501 51.5581 141.728C51.8155 142.134 51.9321 142.426 52.0094 142.62C52.0374 142.691 52.0694 142.771 52.0857 142.795C52.2195 142.992 53.3076 142.808 53.7175 142.741C54.6382 142.588 55.4349 142.455 55.7632 143.035C55.9984 143.451 55.8237 144 55.2282 144.712C55.0427 144.933 54.8454 145.101 54.6702 145.233C54.8154 145.32 54.9453 145.453 54.9979 145.661C55.122 146.155 54.6973 146.65 53.7362 147.135C53.4975 147.256 53.1762 147.417 52.7259 147.495C52.5138 147.531 52.3229 147.54 52.1595 147.545C52.156 147.64 52.1339 147.742 52.0763 147.847C51.9075 148.157 51.5562 148.305 51.0267 148.269C50.444 148.239 49.9642 148.128 49.541 148.03C49.1714 147.946 48.853 147.874 48.603 147.891C48.1395 147.928 47.7822 148.299 47.3629 148.78L46.3162 150.004Z" fill="#F2F2F2"/>
    <path d="M48.4026 189.569L47.9754 189.301L47.4774 189.358C47.4696 189.312 47.4425 189.206 47.4017 189.039C47.1787 188.128 46.4991 185.354 45.9322 180.987C45.5366 177.938 45.3127 174.803 45.2664 171.668C45.2201 168.528 45.3688 166.152 45.4878 164.241C45.5779 162.8 45.6872 161.428 45.7944 160.092C46.0799 156.521 46.349 153.148 46.1487 149.414C46.1045 148.58 46.0114 146.845 44.9977 144.999C44.4096 143.928 43.5996 142.977 42.5898 142.174L43.2178 141.385C44.3324 142.273 45.2285 143.326 45.8815 144.515C47.0055 146.562 47.1069 148.453 47.1556 149.361C47.3593 153.161 47.0872 156.566 46.7988 160.172C46.6925 161.503 46.5833 162.869 46.4937 164.304C46.3756 166.197 46.2285 168.553 46.2742 171.652C46.3195 174.75 46.5409 177.846 46.9312 180.857C47.4912 185.169 48.161 187.902 48.3809 188.799C48.4981 189.279 48.5227 189.379 48.4026 189.569Z" fill="#F2F2F2"/>
    <path d="M40.74 143.776C40.6987 143.776 40.6568 143.775 40.6145 143.772C39.7563 143.725 38.9615 143.212 38.2519 142.245C37.9193 141.79 37.749 141.272 37.4094 140.237C37.3568 140.078 37.1009 139.269 36.9454 138.156C36.8435 137.428 36.8563 137.124 37.0005 136.856C37.1604 136.556 37.4193 136.348 37.7106 136.207C37.6978 136.111 37.7081 136.011 37.75 135.91C37.9217 135.49 38.3784 135.545 38.6254 135.571C38.7504 135.587 38.9064 135.608 39.0747 135.599C39.3395 135.586 39.4817 135.507 39.6972 135.389C39.9034 135.276 40.1598 135.135 40.5402 135.057C41.2902 134.901 41.9186 135.114 42.1258 135.183C43.2158 135.547 43.7532 136.394 44.3752 137.375C44.4992 137.572 44.9249 138.289 45.2058 139.271C45.4086 139.979 45.3801 140.294 45.319 140.529C45.195 141.01 44.9022 141.285 44.1587 141.894C43.3821 142.531 42.9924 142.849 42.6577 143.043C41.8787 143.493 41.3896 143.776 40.74 143.776Z" fill="#F2F2F2"/>
    <path d="M87.9497 187.844L90.589 187.844L91.8445 177.664L87.9492 177.664L87.9497 187.844Z" fill="#FFB6B6"/>
    <path d="M96.9928 187.784C97.075 187.922 97.1183 188.369 97.1183 188.53C97.1183 189.025 96.7173 189.426 96.2226 189.426H88.0491C87.7116 189.426 87.438 189.152 87.438 188.815V188.474C87.438 188.474 87.0337 187.452 87.8661 186.191C87.8661 186.191 88.9008 187.178 90.4468 185.632L90.9027 184.806L94.2027 187.22L96.0319 187.445C96.4321 187.494 96.787 187.437 96.9928 187.784Z" fill="#2F2E41"/>
    <path d="M79.9048 187.844L82.5441 187.844L83.7996 177.664L79.9043 177.664L79.9048 187.844Z" fill="#FFB6B6"/>
    <path d="M88.9479 187.784C89.0301 187.922 89.0734 188.369 89.0734 188.53C89.0734 189.025 88.6724 189.426 88.1777 189.426H80.0042C79.6667 189.426 79.3931 189.152 79.3931 188.815V188.474C79.3931 188.474 78.9888 187.452 79.8212 186.191C79.8212 186.191 80.8558 187.178 82.4018 185.632L82.8577 184.806L86.1578 187.22L87.987 187.445C88.3872 187.494 88.742 187.437 88.9479 187.784Z" fill="#2F2E41"/>
    <path d="M90.9982 143.881L93.8135 154.783L92.4058 182.778L85.7699 183.222L85.3678 167.106L84.5634 183.696L77.7264 182.274L77.3242 145.777L90.9982 143.881Z" fill="#2F2E41"/>
    <path d="M63.7453 107.175C62.8369 105.581 61.2782 104.758 60.2639 105.336C59.2495 105.914 59.1638 107.675 60.0727 109.269C60.4271 109.911 60.9299 110.459 61.5393 110.867L65.4733 117.572L68.5805 115.659L64.3724 109.252C64.3322 108.519 64.1171 107.807 63.7453 107.175Z" fill="#FFB6B6"/>
    <path d="M81.623 130.846C81.623 130.846 77.8945 135.985 75.614 134.148C73.3336 132.312 60.7344 111.669 60.7344 111.669L65.7345 108.989L81.623 130.846Z" fill="#6C63FF"/>
    <path d="M78.1289 124.576L82.955 117.337L87.7811 119.348L86.5746 125.783L78.1289 124.576Z" fill="#FFB6B6"/>
    <path d="M78.5315 122.967L86.9772 122.565L92.6077 124.174L93.8142 153.935L76.9228 152.326V136.632L74.5098 128.598L78.5315 122.967Z" fill="#6C63FF"/>
    <path d="M92.4691 143.043C92.1723 142.177 92.054 141.263 92.1306 140.351C92.3466 137.778 92.3874 132.736 89.7646 130.459L88.2832 128.854C88.2524 128.821 88.2177 128.792 88.1863 128.759L90.6374 122.998L89.1567 122.368L86.8817 127.716C85.8727 127.102 84.7088 126.762 83.5049 126.762C82.1144 126.762 80.7852 127.215 79.687 128.014L78.2995 122.93L76.7474 123.354L78.4822 129.151C78.4191 129.228 78.3502 129.299 78.2905 129.379L77.4429 130.517C77.2365 130.794 77.0088 131.051 76.762 131.293C76.2418 131.802 75.2268 133.039 75.2169 134.944C75.2136 135.595 75.0797 136.239 74.8812 136.86L73.8737 140.008C73.7792 140.304 73.7049 140.605 73.6545 140.911C73.2104 143.607 71.6729 156.307 82.1811 156.053C91.9769 155.816 92.6216 149.851 92.5645 147.87C92.5521 147.44 92.5907 147.014 92.6708 146.591C92.8178 145.816 92.95 144.445 92.4691 143.043Z" fill="#3F3D56"/>
    <path d="M136.722 14.485L137.638 28.6283L126.119 31.2713L126.922 19.8358L136.722 14.485Z" fill="#FFB6B6"/>
    <path d="M137.599 186.372L132.407 186.371L129.938 166.345L137.601 166.345L137.599 186.372Z" fill="#FFB6B6"/>
    <path d="M119.811 186.254C119.65 186.526 119.564 187.405 119.564 187.722C119.564 188.695 120.353 189.484 121.327 189.484H137.406C138.07 189.484 138.608 188.946 138.608 188.282V187.612C138.608 187.612 139.404 185.6 137.766 183.12C137.766 183.12 135.731 185.062 132.689 182.021L131.792 180.396L125.3 185.144L121.702 185.587C120.914 185.684 120.216 185.572 119.811 186.254Z" fill="#2F2E41"/>
    <path d="M151.676 186.372L146.484 186.371L144.014 166.345L151.677 166.345L151.676 186.372Z" fill="#FFB6B6"/>
    <path d="M133.888 186.254C133.726 186.526 133.641 187.405 133.641 187.722C133.641 188.695 134.43 189.484 135.403 189.484H151.482C152.146 189.484 152.684 188.946 152.684 188.282V187.612C152.684 187.612 153.48 185.6 151.842 183.12C151.842 183.12 149.807 185.062 146.765 182.021L145.868 180.396L139.376 185.144L135.778 185.587C134.991 185.684 134.293 185.572 133.888 186.254Z" fill="#2F2E41"/>
    <path d="M154.945 91.1956C154.945 91.1956 159.369 96.826 158.564 100.043C157.76 103.261 152.13 177.261 152.13 177.261L144.086 176.859L139.26 110.5L138.019 177.261L130.412 176.859L120.76 94.0108L154.945 91.1956Z" fill="#2F2E41"/>
    <path d="M108.443 109.148C107.682 112.063 105.562 114.034 103.706 113.549C101.851 113.065 100.965 110.31 101.726 107.394C102.014 106.225 102.578 105.142 103.37 104.235L106.749 91.9252L112.492 93.6337L108.551 105.588C108.8 106.766 108.763 107.987 108.443 109.148Z" fill="#FFB6B6"/>
    <path d="M127.367 26.2218C133.714 26.2218 138.859 21.0767 138.859 14.73C138.859 8.38322 133.714 3.23816 127.367 3.23816C121.02 3.23816 115.875 8.38322 115.875 14.73C115.875 21.0767 121.02 26.2218 127.367 26.2218Z" fill="#FFB6B6"/>
    <path d="M125.988 29.2603L138.053 26.8473L151.325 33.6843L154.14 77.5215L157.76 94.0108L120.357 94.413L121.966 72.2933L119.553 37.3039L125.988 29.2603Z" fill="#E6E6E6"/>
    <path d="M123.173 38.5104C123.173 38.5104 116.738 36.4995 114.325 40.1191C111.912 43.7387 107.488 76.315 107.488 76.315L103.064 100.848L111.108 102.054L124.38 59.0214L123.173 38.5104Z" fill="#E6E6E6"/>
    <path d="M181.703 95.0487C183.014 97.761 182.678 100.636 180.951 101.47C179.225 102.304 176.763 100.782 175.452 98.0682C174.914 96.9915 174.641 95.8015 174.656 94.5976L169.246 83.0353L174.726 80.6122L179.478 92.2678C180.431 93.0037 181.194 93.9573 181.703 95.0487Z" fill="#FFB6B6"/>
    <path d="M146.289 34.1012C146.289 34.1012 152.068 30.6291 155.267 33.5773C158.466 36.5255 170.449 67.1389 170.449 67.1389L180.536 89.9357L173.004 93.0056L149.955 54.318L146.289 34.1012Z" fill="#E6E6E6"/>
    <path d="M174.104 189.521C174.104 189.787 173.891 190 173.625 190H0.974684C0.709259 190 0.496094 189.787 0.496094 189.521C0.496094 189.393 0.544379 189.28 0.624794 189.196H36.7081C37.4762 189.196 38.2283 189.143 38.9683 189.043H173.625C173.891 189.043 174.104 189.256 174.104 189.521Z" fill="#3F3D56"/>
    <path d="M103.414 110.416C104.132 108.727 105.585 107.729 106.66 108.186C107.734 108.643 108.023 110.382 107.305 112.071C107.027 112.749 106.591 113.351 106.033 113.827L102.901 120.942L99.5938 119.402L103.032 112.551C102.987 111.819 103.118 111.086 103.414 110.416Z" fill="#FFB6B6"/>
    <path d="M82.4987 122.682C86.584 122.682 89.8959 119.37 89.8959 115.285C89.8959 111.199 86.584 107.888 82.4987 107.888C78.4134 107.888 75.1016 111.199 75.1016 115.285C75.1016 119.37 78.4134 122.682 82.4987 122.682Z" fill="#FFB6B6"/>
    <path d="M91.8027 124.174L99.0419 121.359L101.455 112.913L106.683 114.924L102.662 126.989L91.8027 131.138V124.174Z" fill="#6C63FF"/>
    <path d="M81.527 123.51L85.9388 119.92C85.9388 119.92 85.5213 114.54 87.1073 114.056C88.6934 113.573 90.3474 111.64 90.3474 111.64C90.3474 111.64 87.7223 105.71 83.1018 106.61C78.4812 107.51 79.5355 106.141 76.688 107.649C73.8405 109.157 73.1728 111.169 73.5192 113.307C73.8655 115.445 72.8346 120.757 76.2834 121.03C79.7322 121.304 81.527 123.51 81.527 123.51Z" fill="#2F2E41"/>
    <path d="M120.406 17.3028C119.567 15.7735 120.003 15.0434 119.246 14.4456C119.246 14.4456 118.941 14.205 116.649 13.8986C116.43 10.1481 115.823 9.64682 115.823 9.6468C115.123 9.06913 114.009 9.14967 113.299 9.41205C111.798 9.96701 111.85 11.429 110.853 11.6284C109.475 11.9037 113.23 9.54917 113.186 7.05851C113.15 5.02682 114.606 3.1726 115.113 3.31733C115.615 3.46084 116.963 1.99733 117.621 2.07417C118.071 2.12664 119.977 1.47303 120.468 1.57523C121.004 1.68686 122.714 2.76078 122.805 2.55393C123.44 1.1166 123.321 0.694202 123.793 0.30623C124.63 -0.381251 125.86 0.242276 127.832 0.681823C131.889 1.58619 132.713 0.290509 134.742 1.3755C135.767 1.92359 136.556 3.24386 138.092 5.86202C140.241 9.52349 141.315 11.3542 141.161 13.3771C141.004 15.4402 140.016 15.2294 139.333 18.2476C138.574 21.6073 139.487 23.2442 138.265 24.2578C137.321 25.0412 129.492 25.1016 128.616 24.2778C127.117 22.8676 129.46 19.9409 127.868 17.5386C126.891 16.064 124.752 15.2718 123.695 15.8776C122.5 16.5627 122.942 18.8891 122.128 19.0413C121.431 19.1716 120.552 17.5693 120.406 17.3028Z" fill="#2F2E41"/>
    <path d="M64.7085 110.792C66.3093 109.44 65.8843 106.305 63.7591 103.789C62.8289 102.688 61.727 101.888 60.6479 101.45L59.4075 100.019L43.3902 79.9495C43.3902 79.9495 34.52 59.9847 31.9016 57.8278C29.2832 55.671 26.2025 56.7939 26.2025 56.7939L23.7988 59.7677L38.7772 87.6434L54.1066 103.071L56.176 105.228C56.4275 106.365 57.0318 107.585 57.9622 108.686C60.0873 111.202 63.1077 112.145 64.7085 110.792Z" fill="#FFB6B6"/>
    <path d="M34.4735 61.54L38.4874 67.4268L44.2498 75.9552L33.8958 79.537L24.7539 63.8504L34.4735 61.54Z" fill="#E6E6E6"/>
    <path d="M38.5491 41.5051L35.642 52.5885L24.5586 50.4082C24.5586 50.4082 28.9193 42.4136 27.8291 38.7797L38.5491 41.5051Z" fill="#FFB6B6"/>
    <path d="M26.849 185.777L33.5233 185.776L36.6984 160.032L26.8477 160.033L26.849 185.777Z" fill="#FFB6B6"/>
    <path d="M49.7158 185.625C49.9237 185.975 50.0333 187.105 50.0333 187.512C50.0333 188.763 49.0191 189.777 47.768 189.777H27.0984C26.2449 189.777 25.553 189.085 25.553 188.232V187.371C25.553 187.371 24.5305 184.785 26.6356 181.597C26.6356 181.597 29.252 184.093 33.1617 180.184L34.3146 178.095L42.6601 184.199L47.2859 184.768C48.2979 184.892 49.1953 184.749 49.7158 185.625Z" fill="#2F2E41"/>
    <path d="M45.3813 111.273L36.1843 173.857H24.6455L26.1798 138.132L26.9873 119.348L24.6455 110.407C24.6455 110.407 23.5777 108.419 22.6782 106.01C21.6643 103.291 20.8635 100.032 22.0524 98.4865C22.4898 97.9167 23.6271 97.495 25.1726 97.1809C26.117 96.988 27.2161 96.8377 28.4028 96.7211C35.2265 96.0459 44.9327 96.4676 44.9327 96.4676L45.1794 104.61L45.3163 109.157L45.3813 111.273Z" fill="#2F2E41"/>
    <path d="M15.0918 182.716L21.6952 183.686L28.5812 158.678L18.8351 157.245L15.0918 182.716Z" fill="#FFB6B6"/>
    <path d="M37.7372 185.892C37.8919 186.269 37.8361 187.402 37.7769 187.805C37.5949 189.043 36.444 189.899 35.2062 189.717L14.7564 186.71C13.912 186.586 13.328 185.801 13.4522 184.957L13.5774 184.105C13.5774 184.105 12.9419 181.398 15.4884 178.55C15.4884 178.55 17.7139 181.4 22.1507 178.101L23.5951 176.202L30.9641 183.454L35.4578 184.691C36.441 184.961 37.3497 184.949 37.7372 185.892Z" fill="#2F2E41"/>
    <path d="M45.5247 100.835L44.2632 111.699L37.3839 134.591L26.0594 172.28L14.6445 170.603L24.8892 117.015L23.8749 107.826C23.8749 107.826 23.5445 106.912 23.1658 105.575C22.4142 102.93 21.4714 98.6216 22.5086 96.4241C22.6486 96.1253 22.8245 95.8662 23.0419 95.6563C23.4499 95.2607 24.279 95.0204 25.3898 94.893C30.0328 94.3683 39.5947 95.8691 43.8495 96.6059L45.5247 100.835Z" fill="#2F2E41"/>
    <path d="M36.7314 49.318L49.2684 65.1254L47.018 81.6061L45.0894 98.3757L22.3775 94.9235C22.3775 94.9235 27.2833 83.1133 27.8284 82.5682C28.3734 82.0231 29.7426 83.3694 28.7855 81.6061C27.8284 79.8428 26.7382 79.8428 27.6467 78.9343C28.5551 78.0258 20.5605 66.2156 20.5605 59.8563C20.5605 53.497 24.3761 48.4095 24.3761 48.4095L36.7314 49.318Z" fill="#E6E6E6"/>
    <path d="M33.8069 43.5981C38.4712 43.5981 42.2524 39.817 42.2524 35.1526C42.2524 30.4883 38.4712 26.7071 33.8069 26.7071C29.1425 26.7071 25.3613 30.4883 25.3613 35.1526C25.3613 39.817 29.1425 43.5981 33.8069 43.5981Z" fill="#FFB6B6"/>
    <path d="M33.4107 51.3002C33.4107 51.3002 34.6745 41.3006 34.8982 38.3926C35.1219 35.4847 39.2267 30.9445 39.2267 30.9445L42.1346 33.2933C42.1346 33.2933 44.5952 33.2933 42.9175 29.7143C41.2398 26.1352 38.1082 25.576 38.1082 25.576C38.1082 25.576 37.7727 20.8786 31.9568 21.4378C26.1409 21.997 23.5684 26.6945 23.5684 26.6945C23.5684 26.6945 23.2329 20.7667 19.5421 25.1286C15.8512 29.4906 13.7261 31.2801 17.6407 32.7341C21.5552 34.188 24.4632 33.0696 24.4632 33.0696C24.4632 33.0696 20.6605 33.8525 21.3316 36.5368C22.0026 39.221 12.4959 51.4121 16.8578 52.7542C21.2197 54.0963 30.9502 57.3398 32.0686 55.2147C33.187 53.0897 33.4107 51.3002 33.4107 51.3002Z" fill="#2F2E41"/>
    <path d="M68.2267 111.63C69.8388 110.291 69.4401 107.152 67.3361 104.619C66.4151 103.51 65.32 102.701 64.2445 102.254L63.0161 100.812L47.1676 80.6094C47.1676 80.6094 38.4651 60.571 35.8648 58.3922C33.2646 56.2135 30.1746 57.3106 30.1746 57.3106L27.7461 60.2641L42.4904 88.2643L57.6899 103.819L59.7412 105.994C59.983 107.133 60.5772 108.358 61.4982 109.467C63.6022 112.001 66.6146 112.969 68.2267 111.63Z" fill="#FFB6B6"/>
    <path d="M26.8242 55.7574C26.8242 55.7574 30.704 75.8911 35.1189 78.8591L43.9166 71.9991C43.9166 71.9991 44.6865 71.966 43.2536 70.3475C41.8207 68.7289 42.1876 65.2532 42.1876 65.2532C42.1876 65.2532 42.8323 66.0875 41.4294 64.9294C40.0264 63.7713 41.3325 55.8071 41.3325 55.8071L26.8242 55.7574Z" fill="#E6E6E6"/>
    <path d="M90.902 138.824C90.7166 138.824 90.5497 138.695 90.5093 138.506L90.067 136.452C89.417 133.431 86.8068 131.224 83.7194 131.087C80.859 130.958 78.2083 132.653 77.122 135.301L76.0124 138.005C75.9284 138.211 75.6939 138.309 75.4877 138.225C75.2823 138.14 75.1841 137.906 75.2686 137.7L76.3781 134.995C77.5933 132.034 80.5542 130.143 83.7555 130.283C87.2078 130.437 90.1263 132.904 90.8533 136.282L91.2955 138.337C91.3423 138.554 91.204 138.768 90.9872 138.815C90.9586 138.821 90.9299 138.824 90.902 138.824Z" fill="#FFB6B6"/>
    <path d="M91.3769 145.364C91.3651 145.364 91.3529 145.364 91.3408 145.363L76.4583 144.036C76.2371 144.016 76.0738 143.821 76.0934 143.599C76.1134 143.378 76.3067 143.216 76.5297 143.235L91.4122 144.562C91.6334 144.581 91.7967 144.777 91.7771 144.998C91.7583 145.207 91.5831 145.364 91.3769 145.364Z" fill="#FFB6B6"/>
  </g>
  <defs>
    <clipPath id="clip0_547_21513">
      <rect width="182.006" height="190" fill="white" transform="translate(0.496094)"/>
    </clipPath>
  </defs>
</svg>