<svg xmlns="http://www.w3.org/2000/svg" width="196" height="121" viewBox="0 0 196 121" fill="none">
  <g clip-path="url(#clip0_515_57899)">
    <path opacity="0.1" d="M195.213 77.8232C195.216 81.0745 194.823 84.314 194.042 87.47C193.779 88.5334 193.473 89.5747 193.126 90.594C192.7 91.852 192.207 93.0862 191.648 94.291C191.367 94.9006 191.069 95.498 190.755 96.0832C190.76 99.4173 190.074 102.716 188.739 105.771C186.327 111.253 182.025 115.685 176.618 118.261C173.237 119.874 169.543 120.722 165.797 120.745H37.1556C31.4321 120.757 25.8074 119.254 20.8534 116.387L20.7773 116.344C20.0716 115.931 19.3837 115.494 18.7134 115.032C17.2053 113.99 15.7884 112.822 14.478 111.541C12.7044 109.807 11.1416 107.871 9.82194 105.771C6.7225 100.85 5.08058 95.1512 5.08634 89.3351C1.94749 83.8276 0.117188 77.2303 0.117188 70.1409C0.117188 61.1965 3.0258 53.0371 7.80446 46.8605C8.80072 45.57 9.892 44.3558 11.0692 43.228C12.2307 42.112 13.4791 41.0901 14.8027 40.172C15.8616 39.4367 16.9683 38.7726 18.1154 38.1843C18.5941 37.9408 19.0745 37.7106 19.5631 37.4969C19.9921 37.3064 20.4261 37.1292 20.865 36.9619C21.3918 36.7621 21.9251 36.5782 22.4651 36.4103C23.0051 36.2425 23.5379 36.0956 24.0635 35.9697C24.8365 35.7809 25.6227 35.6274 26.4222 35.5093C27.0848 35.4115 27.7473 35.3436 28.4099 35.2923C28.9366 35.2525 29.4683 35.231 30.0033 35.2244H30.2932C30.8828 35.2244 31.4692 35.2476 32.0506 35.2873C32.1119 35.1647 32.1781 35.0405 32.2394 34.9196C32.4713 34.4773 32.7115 34.0367 32.9533 33.6061C32.9528 33.6022 32.9528 33.5983 32.9533 33.5945C32.9947 33.5183 33.0361 33.4438 33.0792 33.3709C33.2747 33.0181 33.4784 32.6686 33.6871 32.3224C33.7832 32.1568 33.8776 32.0011 33.9753 31.8454C33.996 31.8067 34.0187 31.7691 34.0432 31.7327C34.1426 31.5671 34.2437 31.4014 34.3463 31.2358C34.8576 30.4187 35.3893 29.6159 35.9414 28.8274L36.0822 28.6253C36.1684 28.5028 36.2479 28.3835 36.3439 28.2609C36.5725 27.9413 36.8077 27.6199 37.0446 27.3052C37.2102 27.0799 37.3759 26.8563 37.5548 26.6427C37.9854 26.0905 38.4271 25.5384 38.8799 24.9863C39.3326 24.4341 39.803 23.8892 40.2911 23.3514C40.3574 23.2769 40.4236 23.204 40.4932 23.1311L41.2005 22.3592C41.2352 22.3228 41.2651 22.2897 41.2982 22.2565C41.3827 22.1654 41.4638 22.0743 41.5549 21.9866C41.9342 21.5841 42.3235 21.1898 42.7144 20.7973C44.7038 18.8158 46.8232 16.9693 49.0583 15.2699C49.1461 15.2004 49.2356 15.1341 49.3234 15.0678C49.7441 14.7515 50.1714 14.4384 50.5988 14.1303C52.9494 12.444 55.4065 10.9115 57.9548 9.54215C58.1304 9.44111 58.3092 9.3467 58.4898 9.25394C60.7744 8.0453 63.1239 6.96369 65.5278 6.01405C66.838 5.49561 68.178 5.00863 69.5263 4.56306C70.424 4.26823 71.3251 3.9883 72.2378 3.72493C73.6645 3.31415 75.1011 2.94588 76.5477 2.62012C80.8094 1.66387 85.145 1.07316 89.5072 0.854419C90.8323 0.78706 92.1723 0.752276 93.5273 0.750067C100.065 0.741412 106.577 1.56518 112.907 3.20151C112.972 3.30042 113.062 3.38104 113.167 3.43581C113.272 3.49057 113.39 3.51768 113.508 3.51457H114.065C114.307 3.58083 114.547 3.64708 114.789 3.71665C116.139 4.10535 117.47 4.52993 118.782 4.99041L119.113 5.10967C122.351 6.26101 125.502 7.64494 128.54 9.25063C131.279 10.6946 133.916 12.3238 136.433 14.127C136.82 14.4053 137.202 14.6858 137.579 14.9685C138.036 14.6758 138.501 14.3954 138.973 14.127C140.799 13.0875 142.737 12.2611 144.751 11.664C148.961 10.4181 153.416 10.2438 157.71 11.1571C163.218 12.3249 168.204 15.2235 172.23 19.3463C173.87 21.0331 175.329 22.8861 176.585 24.8753C176.676 25.0177 176.767 25.1618 176.855 25.3076C177.934 27.0682 178.862 28.9173 179.628 30.835C179.656 30.9062 179.684 30.9724 179.709 31.042C180.416 32.8377 180.986 34.6843 181.415 36.566C181.435 36.6621 181.458 36.7565 181.478 36.8526C181.879 38.6737 182.151 40.5207 182.293 42.38C182.293 42.4462 182.293 42.5141 182.306 42.5837C182.376 43.5455 182.411 44.5172 182.412 45.4989C182.412 46.3768 182.382 47.2481 182.328 48.1127C182.328 48.2071 182.314 48.3048 182.306 48.4026C182.291 48.6527 182.27 48.8995 182.248 49.1512C183.513 50.1717 184.697 51.2887 185.789 52.4922C186.272 53.0189 186.739 53.5655 187.191 54.132C188.566 55.8561 189.776 57.7069 190.802 59.6593C193.603 64.9465 195.213 71.1662 195.213 77.8232Z" fill="#6C63FF"/>
    <path opacity="0.1" d="M176.496 117.648C176.496 118.779 172.598 119.839 165.797 120.75H37.1557C31.4322 120.762 25.8075 119.259 20.8535 116.392L20.7773 116.349C22.7319 115.637 26.26 114.972 31.0618 114.373L31.2772 114.346C33.4305 114.083 35.8372 113.833 38.4675 113.596C38.5338 113.596 38.6017 113.586 38.6679 113.578C40.755 113.392 42.9751 113.218 45.3283 113.056C45.4028 113.056 45.4757 113.043 45.5502 113.039C46.4579 112.974 47.3844 112.912 48.3296 112.854L48.694 112.831C55.5763 112.403 63.3994 112.062 71.8834 111.837H71.8933C73.0815 111.804 74.2824 111.775 75.496 111.749C76.8454 111.717 78.2113 111.689 79.5939 111.665C80.649 111.641 81.7173 111.625 82.789 111.608H82.8139C87.6488 111.535 92.6445 111.499 97.7528 111.499C110.384 111.499 122.324 111.729 132.903 112.143H132.933C134.559 112.206 136.156 112.276 137.713 112.347L139.038 112.41C140.795 112.494 142.507 112.584 144.173 112.68C163.768 113.795 176.496 115.605 176.496 117.648Z" fill="#6C63FF"/>
    <g opacity="0.2">
      <path d="M112.801 110.739C112.796 110.918 112.776 111.096 112.74 111.271C111.587 111.087 110.428 110.922 109.262 110.774C109.262 110.728 109.262 110.679 109.262 110.631C109.273 110.135 109.415 109.65 109.676 109.227C110.017 108.687 110.535 108.349 111.107 108.367C111.678 108.385 112.174 108.755 112.48 109.313C112.712 109.751 112.823 110.244 112.801 110.739Z" fill="#3F3D56"/>
      <path d="M112.897 107.908C112.938 106.628 112.178 105.564 111.199 105.533C110.221 105.502 109.395 106.516 109.355 107.797C109.314 109.078 110.074 110.141 111.053 110.172C112.031 110.203 112.857 109.189 112.897 107.908Z" fill="#3F3D56"/>
      <path d="M112.987 105.073C113.028 103.792 112.267 102.728 111.289 102.697C110.311 102.666 109.485 103.68 109.444 104.961C109.404 106.242 110.164 107.305 111.143 107.336C112.121 107.367 112.947 106.354 112.987 105.073Z" fill="#3F3D56"/>
      <path d="M113.077 102.237C113.118 100.956 112.357 99.8926 111.379 99.8617C110.401 99.8308 109.575 100.844 109.534 102.125C109.494 103.406 110.254 104.47 111.232 104.501C112.211 104.531 113.037 103.518 113.077 102.237Z" fill="#3F3D56"/>
      <path d="M113.165 99.4012C113.205 98.1202 112.445 97.0567 111.467 97.0257C110.489 96.9948 109.663 98.0082 109.622 99.2892C109.582 100.57 110.342 101.634 111.32 101.665C112.299 101.696 113.125 100.682 113.165 99.4012Z" fill="#3F3D56"/>
      <path d="M105.365 79.725C105.132 79.4091 104.921 79.077 104.735 78.7311L109.416 78.1133L104.378 77.9924C103.928 76.9258 103.701 75.7787 103.709 74.6213C103.718 73.4639 103.963 72.3204 104.429 71.2608L111.074 74.9794L104.987 70.2024C105.601 69.2092 106.413 68.3533 107.373 67.6881C108.333 67.023 109.419 66.5628 110.565 66.3364C111.711 66.1101 112.891 66.1223 114.031 66.3724C115.172 66.6226 116.248 67.1052 117.194 67.7901C118.14 68.4751 118.934 69.3477 119.528 70.3534C120.121 71.3591 120.5 72.4764 120.643 73.6354C120.785 74.7944 120.686 75.9703 120.354 77.0896C120.021 78.2089 119.461 79.2475 118.709 80.1407C119.071 80.632 119.38 81.1613 119.628 81.7192L113.484 84.6676L119.999 82.7081C120.409 84.0618 120.475 85.4964 120.191 86.8821C119.907 88.2678 119.282 89.5607 118.372 90.6438C119.318 91.9271 119.884 93.4506 120.005 95.0402C120.125 96.6298 119.796 98.2212 119.055 99.6326C118.314 101.044 117.19 102.218 115.813 103.021C114.436 103.824 112.861 104.223 111.267 104.173C109.674 104.123 108.127 103.625 106.803 102.737C105.479 101.849 104.432 100.606 103.781 99.151C103.13 97.6957 102.902 96.0867 103.123 94.5079C103.343 92.9291 104.004 91.4442 105.029 90.2231C103.899 88.6895 103.317 86.8207 103.377 84.9167C103.437 83.0127 104.135 81.1842 105.36 79.725H105.365Z" fill="#6C63FF"/>
      <path opacity="0.1" d="M120.36 85.4528C120.302 87.3578 119.602 89.1873 118.372 90.6439C119.318 91.9271 119.884 93.4506 120.005 95.0402C120.125 96.6298 119.796 98.2212 119.055 99.6326C118.314 101.044 117.19 102.218 115.813 103.021C114.436 103.824 112.861 104.223 111.267 104.173C109.674 104.123 108.127 103.625 106.803 102.737C105.479 101.849 104.432 100.606 103.781 99.151C103.13 97.6958 102.902 96.0868 103.123 94.5079C103.343 92.9291 104.004 91.4443 105.029 90.2231C103.94 88.744 120.39 84.5003 120.36 85.4528Z" fill="black"/>
    </g>
    <g opacity="0.2">
      <path d="M87.6237 110.739C87.6184 110.918 87.5979 111.096 87.5624 111.271C86.4095 111.087 85.2501 110.922 84.084 110.774C84.084 110.728 84.084 110.679 84.084 110.631C84.0948 110.135 84.2377 109.65 84.4981 109.227C84.8393 108.687 85.3577 108.349 85.9292 108.367C86.5007 108.385 86.9959 108.755 87.3023 109.313C87.5341 109.751 87.645 110.244 87.6237 110.739Z" fill="#3F3D56"/>
      <path d="M87.7178 107.909C87.7582 106.628 86.9979 105.565 86.0196 105.534C85.0413 105.503 84.2153 106.516 84.1749 107.797C84.1344 109.078 84.8947 110.142 85.873 110.173C86.8514 110.204 87.6773 109.19 87.7178 107.909Z" fill="#3F3D56"/>
      <path d="M87.8076 105.074C87.8481 103.793 87.0878 102.729 86.1094 102.698C85.1311 102.667 84.3052 103.681 84.2647 104.962C84.2242 106.243 84.9845 107.306 85.9629 107.337C86.9412 107.368 87.7671 106.355 87.8076 105.074Z" fill="#3F3D56"/>
      <path d="M87.8974 102.238C87.9379 100.957 87.1776 99.8931 86.1993 99.8622C85.2209 99.8313 84.395 100.845 84.3545 102.126C84.3141 103.407 85.0744 104.47 86.0527 104.501C87.031 104.532 87.857 103.519 87.8974 102.238Z" fill="#3F3D56"/>
      <path d="M87.9853 99.4019C88.0258 98.1209 87.2655 97.0574 86.2872 97.0265C85.3088 96.9956 84.4829 98.0089 84.4424 99.2899C84.402 100.571 85.1622 101.634 86.1406 101.665C87.1189 101.696 87.9448 100.683 87.9853 99.4019Z" fill="#3F3D56"/>
      <path d="M80.1871 79.725C79.9538 79.4091 79.7435 79.077 79.5577 78.7311L84.2386 78.1133L79.1999 77.9924C78.7502 76.9258 78.5229 75.7787 78.5317 74.6213C78.5405 73.4639 78.7854 72.3204 79.2512 71.2608L85.8966 74.9794L79.8094 70.2024C80.4235 69.2092 81.2358 68.3533 82.1955 67.6881C83.1552 67.023 84.2418 66.5628 85.3873 66.3364C86.5329 66.1101 87.7128 66.1223 88.8534 66.3724C89.994 66.6226 91.0707 67.1052 92.0164 67.7901C92.9621 68.4751 93.7565 69.3477 94.3498 70.3534C94.9431 71.3591 95.3227 72.4764 95.4648 73.6354C95.6069 74.7944 95.5085 75.9703 95.1758 77.0896C94.843 78.2089 94.2831 79.2475 93.5309 80.1407C93.8937 80.632 94.202 81.1613 94.4502 81.7192L88.3067 84.6676L94.8212 82.7081C95.2315 84.0618 95.2976 85.4964 95.0136 86.8821C94.7296 88.2678 94.1044 89.5607 93.1947 90.6438C94.1405 91.9271 94.7061 93.4506 94.8268 95.0402C94.9475 96.6298 94.6184 98.2212 93.8772 99.6326C93.136 101.044 92.0126 102.218 90.6354 103.021C89.2582 103.824 87.6829 104.223 86.0895 104.173C84.4962 104.123 82.9491 103.625 81.6253 102.737C80.3014 101.849 79.2542 100.606 78.6034 99.151C77.9526 97.6957 77.7244 96.0867 77.945 94.5079C78.1656 92.9291 78.8261 91.4442 79.8508 90.2231C78.7209 88.6895 78.1392 86.8207 78.1993 84.9167C78.2593 83.0127 78.9577 81.1842 80.1821 79.725H80.1871Z" fill="#6C63FF"/>
      <path opacity="0.1" d="M95.1823 85.4528C95.1243 87.3578 94.4238 89.1873 93.1947 90.6439C94.1405 91.9271 94.7061 93.4506 94.8268 95.0402C94.9475 96.6298 94.6184 98.2212 93.8772 99.6326C93.136 101.044 92.0126 102.218 90.6354 103.021C89.2582 103.824 87.6829 104.223 86.0895 104.173C84.4962 104.123 82.9491 103.625 81.6253 102.737C80.3014 101.849 79.2542 100.606 78.6034 99.151C77.9526 97.6958 77.7244 96.0868 77.945 94.5079C78.1656 92.9291 78.8261 91.4443 79.8508 90.2231C78.7626 88.744 95.2121 84.5003 95.1823 85.4528Z" fill="black"/>
    </g>
    <g opacity="0.2">
      <path d="M156.398 112.551C156.385 112.889 156.345 113.226 156.277 113.558C154.057 113.203 151.822 112.887 149.57 112.607C149.57 112.518 149.57 112.427 149.57 112.334C149.591 111.377 149.867 110.444 150.369 109.629C151.031 108.59 152.025 107.94 153.123 107.973C154.221 108.006 155.177 108.72 155.773 109.795C156.223 110.641 156.439 111.593 156.398 112.551Z" fill="#3F3D56"/>
      <path d="M156.579 107.098C156.657 104.631 155.192 102.583 153.308 102.523C151.423 102.464 149.832 104.415 149.754 106.882C149.676 109.349 151.141 111.397 153.025 111.456C154.91 111.516 156.501 109.564 156.579 107.098Z" fill="#3F3D56"/>
      <path d="M156.751 101.638C156.828 99.171 155.364 97.1229 153.48 97.0634C151.595 97.0038 150.004 98.9553 149.926 101.422C149.848 103.889 151.313 105.937 153.197 105.997C155.082 106.056 156.673 104.105 156.751 101.638Z" fill="#3F3D56"/>
      <path d="M156.924 96.1784C157.002 93.7115 155.538 91.6634 153.653 91.6039C151.769 91.5443 150.178 93.4959 150.1 95.9627C150.022 98.4296 151.487 100.478 153.371 100.537C155.256 100.597 156.846 98.6453 156.924 96.1784Z" fill="#3F3D56"/>
      <path d="M156.901 90.4705C156.975 88.0024 155.507 85.9558 153.621 85.8992C151.736 85.8426 150.148 87.7976 150.074 90.2657C149.999 92.7338 151.468 94.7805 153.353 94.837C155.239 94.8936 156.827 92.9386 156.901 90.4705Z" fill="#3F3D56"/>
      <path d="M142.078 52.8448C141.631 52.2367 141.227 51.5986 140.868 50.935L149.878 49.7457L140.18 49.5122C139.314 47.4591 138.876 45.2508 138.892 43.0225C138.909 40.7942 139.38 38.5927 140.276 36.5526L153.072 43.7099L141.355 34.5136C142.539 32.6061 144.104 30.9631 145.952 29.6869C147.799 28.4107 149.89 27.5287 152.093 27.0959C154.297 26.6631 156.566 26.6888 158.759 27.1712C160.952 27.6537 163.022 28.5827 164.84 29.9003C166.658 31.2179 168.186 32.8959 169.327 34.8297C170.468 36.7634 171.199 38.9116 171.474 41.1402C171.749 43.3688 171.562 45.6301 170.924 47.7832C170.287 49.9363 169.213 51.935 167.769 53.6548C168.467 54.6013 169.06 55.6204 169.54 56.6942L157.711 62.374L170.252 58.5974C171.042 61.2003 171.171 63.9592 170.626 66.6244C170.082 69.2896 168.881 71.7768 167.133 73.861C168.953 76.3315 170.042 79.2644 170.274 82.3244C170.506 85.3844 169.872 88.4479 168.445 91.1648C167.019 93.8816 164.856 96.1421 162.205 97.6877C159.554 99.2333 156.521 100.002 153.454 99.905C150.386 99.8083 147.408 98.8504 144.86 97.1408C142.311 95.4313 140.295 93.0391 139.042 90.2377C137.789 87.4364 137.35 84.339 137.774 81.2997C138.199 78.2605 139.47 75.4019 141.442 73.051C139.268 70.0988 138.149 66.5017 138.264 62.8371C138.38 59.1724 139.723 55.6528 142.078 52.8432V52.8448Z" fill="#6C63FF"/>
      <path opacity="0.1" d="M170.948 63.8696C170.84 67.535 169.497 71.0565 167.139 73.8642C168.959 76.3347 170.048 79.2677 170.28 82.3276C170.512 85.3876 169.878 88.4512 168.451 91.168C167.024 93.8849 164.862 96.1453 162.211 97.6909C159.559 99.2365 156.527 100.005 153.46 99.9082C150.392 99.8115 147.414 98.8536 144.866 97.1441C142.317 95.4345 140.301 93.0423 139.048 90.241C137.795 87.4397 137.356 84.3423 137.78 81.303C138.205 78.2637 139.476 75.4052 141.448 73.0543C139.338 70.2036 171.006 62.036 170.948 63.8696Z" fill="black"/>
    </g>
    <path opacity="0.1" d="M127.125 80.3574L169.275 88.6609L171.205 87.8873L171.198 87.7515L127.125 80.3574Z" fill="black"/>
    <path d="M82.3202 67.9678C82.494 68.0623 82.6602 68.1702 82.8171 68.2908C83.0027 68.4532 83.1693 68.636 83.314 68.8357C84.0246 69.755 84.6805 70.8234 84.611 71.9828C84.6124 72.1515 84.5806 72.3189 84.5172 72.4752C84.4538 72.6316 84.3601 72.7738 84.2416 72.8939C83.9484 73.144 83.5277 73.1556 83.1434 73.1556C82.726 73.1556 82.2871 73.1556 81.926 72.9402C81.5649 72.7249 81.2634 72.3058 80.8361 72.3158C80.7757 72.3258 80.7142 72.3258 80.6539 72.3158C80.5064 72.2677 80.4766 72.0739 80.3806 71.9514C80.2149 71.7311 79.8654 71.7857 79.6054 71.8818C79.3453 71.9779 79.0571 72.122 78.8004 72.011C78.6513 71.9324 78.5295 71.8106 78.4509 71.6615C77.8364 70.6677 77.7055 69.4734 77.5896 68.3189C77.5183 67.6166 76.975 65.2215 78.4741 65.7664C79.1366 66.005 79.7561 66.482 80.359 66.8315L82.3202 67.9678Z" fill="#3F3D56"/>
    <path d="M80.84 68.2046C80.9739 68.301 81.1362 68.3497 81.301 68.3431C81.4658 68.3365 81.6236 68.2749 81.7494 68.1682C81.996 67.9453 82.1532 67.6404 82.1916 67.3102C82.3573 67.2589 82.4417 67.4758 82.5477 67.6083C82.7333 67.8336 83.1109 67.8303 83.2799 68.0705C83.3975 68.2361 83.371 68.4664 83.4538 68.6535C83.5614 68.8954 83.8281 69.0212 84.0103 69.2167C84.1824 69.4302 84.3066 69.6782 84.3747 69.9439L84.6464 70.7588C84.7764 71.0977 84.8599 71.4526 84.8948 71.8139C84.912 71.9945 84.893 72.1767 84.8389 72.3499C84.7849 72.5231 84.6969 72.6838 84.5801 72.8226C84.2157 73.2152 83.6178 73.2566 83.0894 73.245C82.9129 73.2488 82.7368 73.2281 82.566 73.1837C82.0972 73.038 81.7974 72.5659 81.6732 72.0905C81.5489 71.6151 81.5622 71.1166 81.4893 70.6296C81.4106 70.1512 81.2714 69.6848 81.0752 69.2415C80.9295 68.897 80.5286 68.3835 80.5352 68.0175C80.6545 68.0175 80.7406 68.1268 80.84 68.2046Z" fill="#3F3D56"/>
    <path d="M81.4352 66.5267C81.3578 66.2915 81.3127 66.0469 81.3011 65.7995C81.3011 65.3026 81.528 64.8355 81.7566 64.3916L79.8633 64.6483C79.6348 64.6798 79.3797 64.7262 79.2505 64.9167C79.2014 65.0111 79.1758 65.1159 79.1758 65.2223C79.1758 65.3287 79.2014 65.4335 79.2505 65.5279C79.3454 65.7169 79.4209 65.915 79.4757 66.1192C79.48 66.2979 79.5005 66.4759 79.537 66.6509C79.5959 66.7795 79.6785 66.8958 79.7805 66.9938C80.3222 67.5934 80.728 68.3007 81.1321 69.0013C81.1205 68.9814 82.2734 68.0886 82.227 67.7971C82.2005 67.6315 81.8676 67.4327 81.7615 67.2737C81.6151 67.0429 81.5051 66.7909 81.4352 66.5267Z" fill="#BE6F72"/>
    <path d="M97.6675 60.0552V61.6867L69.7293 67.1362L68.2799 68.0141H63.2793V67.0948L90.7289 60.4626L97.6675 60.0552Z" fill="#F1C0C0"/>
    <path opacity="0.1" d="M97.6675 61.6868L69.7293 67.1363L68.2799 68.0141H63.2793L90.9326 62.0959L97.6675 61.6868Z" fill="black"/>
    <path d="M75.237 106.371C74.9257 105.994 74.496 105.733 74.0178 105.632C73.5396 105.53 73.041 105.593 72.6033 105.811C72.5096 105.855 72.427 105.92 72.3615 106C72.1959 106.232 72.3019 106.551 72.3168 106.838C72.3549 107.537 71.7983 108.105 71.2981 108.594C71.0298 108.856 70.7565 109.135 70.6355 109.492C70.5146 109.848 70.6041 110.3 70.9287 110.485C71.0704 110.556 71.2245 110.599 71.3826 110.611C71.912 110.715 72.4549 110.73 72.9893 110.656C73.5176 110.555 74.0361 110.255 74.2647 109.768C74.3088 109.636 74.3818 109.516 74.4783 109.415C74.7699 109.185 75.2171 109.455 75.5484 109.291C75.8217 109.155 75.8333 108.942 75.8366 108.66C75.8465 107.882 75.7306 107 75.237 106.371Z" fill="#6C63FF"/>
    <path d="M79.2109 106.341C79.4146 106.878 79.4428 107.462 79.4693 108.036C79.4842 108.367 79.4941 108.721 79.3152 109.001C79.1363 109.281 78.7868 109.429 78.4522 109.498C77.7615 109.641 76.9615 109.506 76.5159 108.958C76.1747 108.539 76.1035 107.964 76.1664 107.421C76.2194 106.975 76.3321 106.454 76.0124 106.137C75.9296 106.053 75.8219 105.993 75.7457 105.902C75.5801 105.7 75.6066 105.395 75.696 105.147C75.8125 104.909 75.8998 104.658 75.9561 104.4C75.9693 104.277 78.1988 104.486 78.4042 104.587C78.6841 104.724 78.6411 104.955 78.7255 105.233C78.8431 105.621 79.0684 105.97 79.2109 106.341Z" fill="#6C63FF"/>
    <path d="M79.62 82.5455C80.0573 82.8287 80.2262 83.3852 80.2941 83.902C80.4813 85.3182 80.1533 86.7494 80.1285 88.1788C80.1053 90.1814 80.685 92.2204 80.1898 94.16C79.8933 95.3195 80.145 96.6446 79.8668 97.8157C79.784 98.1635 79.6316 98.4915 79.5521 98.8393C79.3864 99.593 79.5603 100.381 79.7939 101.118C79.8685 101.317 79.9158 101.525 79.9347 101.736C79.9235 102.062 79.8409 102.381 79.6928 102.671L78.699 105.021C78.588 105.284 78.1508 105.327 77.8708 105.362C77.3441 105.425 76.7561 105.47 76.337 105.143C75.918 104.817 75.8169 104.271 75.7523 103.76C75.6284 102.781 75.5731 101.794 75.5867 100.807C75.6049 100.549 75.582 100.291 75.5188 100.04C75.4277 99.7569 75.2272 99.5118 75.1726 99.212C75.103 98.8244 75.3001 98.4434 75.373 98.0525C75.423 97.6955 75.4174 97.3329 75.3564 96.9775C75.2918 96.4475 75.2173 95.9174 75.1328 95.3907C75.0136 94.6536 75.1842 93.9265 75.2985 93.1877C75.4061 92.4937 75.2686 91.7864 75.1328 91.0974C75.1446 91.6566 75.0748 92.2146 74.9258 92.7537C74.838 93.0171 74.7121 93.2689 74.6359 93.5372C74.2964 94.7414 75.0202 96.0052 74.9175 97.2525C74.8695 97.8355 74.6409 98.412 74.7055 98.9867C74.7502 99.4074 74.9457 99.7934 75.0798 100.194C75.214 100.595 75.2836 101.054 75.0798 101.428C74.5415 102.445 74.944 103.828 75.426 104.872C75.5238 105.057 75.6091 105.248 75.6811 105.445C75.8235 105.915 75.7043 106.421 75.7424 106.911C75.6037 106.934 75.4616 106.924 75.327 106.884C75.1923 106.843 75.0687 106.773 74.9655 106.677C74.8927 106.601 74.833 106.512 74.7618 106.432C74.5628 106.242 74.3272 106.095 74.0694 106C73.9181 105.915 73.7457 105.875 73.5725 105.886C73.3905 105.936 73.2267 106.038 73.1004 106.179C72.9366 106.323 72.7628 106.455 72.5803 106.575C72.5026 106.634 72.4118 106.675 72.3153 106.692C72.2668 106.7 72.2172 106.692 72.1735 106.669C72.1298 106.647 72.0942 106.612 72.0718 106.568C72.0615 106.54 72.0553 106.511 72.0536 106.482C71.9921 105.982 71.9595 105.478 71.9559 104.975C71.9559 104.108 70.919 103.512 70.7881 102.656C70.6838 101.965 70.8776 101.261 70.813 100.565C70.7815 100.207 70.6821 99.8563 70.6888 99.4985C70.6888 99.2666 70.7418 99.0397 70.76 98.8095C70.7752 98.5539 70.7713 98.2976 70.7484 98.0426L70.697 97.2425C70.6473 96.4524 70.5927 95.6458 70.2813 94.9236C69.912 94.0803 69.6934 93.1789 69.6353 92.2601C69.6022 91.6804 69.6237 91.1007 69.5574 90.5193C69.4978 89.9942 69.3653 89.4724 69.4034 88.9457C69.4349 88.5382 69.569 88.144 69.6005 87.7366C69.6651 86.9531 69.367 86.1912 69.1334 85.4408C68.8999 84.6905 68.7276 83.859 69.034 83.1351C69.0778 83.0163 69.1507 82.9104 69.246 82.827C69.3635 82.7493 69.4972 82.6994 69.6369 82.6813C72.4789 82.0843 75.3918 81.8985 78.2866 82.1297C78.7585 82.1565 79.2165 82.2993 79.62 82.5455Z" fill="#3F3D56"/>
    <path d="M70.218 64.953C71.6835 64.953 72.8715 63.765 72.8715 62.2995C72.8715 60.834 71.6835 59.646 70.218 59.646C68.7525 59.646 67.5645 60.834 67.5645 62.2995C67.5645 63.765 68.7525 64.953 70.218 64.953Z" fill="#BE6F72"/>
    <path d="M69.7033 65.6139C69.7415 65.7656 69.7415 65.9244 69.7033 66.0761C69.6616 66.1821 69.6029 66.2805 69.5294 66.3676C69.2725 66.6989 68.9883 67.0081 68.6797 67.2919C68.8369 67.643 69.12 67.9226 69.4731 68.0753C69.8237 68.2246 70.1915 68.3297 70.568 68.3884C70.7559 68.4378 70.9515 68.4513 71.1444 68.4281C71.3222 68.3835 71.4905 68.3072 71.6413 68.2029L73.1155 67.32C73.3379 67.1995 73.5439 67.0509 73.7283 66.8778C73.9987 66.5999 74.1517 66.2286 74.1557 65.8409C74.1626 65.7714 74.1437 65.7019 74.1027 65.6454C74.0462 65.5962 73.9753 65.5666 73.9006 65.5609C73.3822 65.4467 72.973 65.0259 72.7411 64.5489C72.5315 64.0599 72.3959 63.5424 72.3386 63.0134L70.7667 63.8416C70.5332 63.9658 70.3013 64.0901 70.0595 64.1977C69.9054 64.2673 69.594 64.3253 69.4847 64.4661C69.276 64.7261 69.6487 65.3009 69.7033 65.6139Z" fill="#BE6F72"/>
    <path d="M68.69 66.81C68.4662 66.9935 68.2914 67.2297 68.1815 67.4974C68.0788 67.8287 68.1815 68.1782 68.2742 68.5061C68.7089 69.904 69.0411 71.3317 69.2681 72.7779C69.4072 73.7718 69.4585 74.7805 69.5264 75.7859C69.6656 77.8365 69.8677 81.1062 70.1377 83.1436C71.1315 83.1883 72.1005 82.8984 73.086 82.7924C74.9279 82.597 76.8245 83.0442 78.6283 82.6268C78.191 80.8992 77.7537 77.9492 77.3164 76.2232C77.1229 75.5432 76.9888 74.8477 76.9156 74.1445C76.8775 73.6393 76.9007 73.1324 76.9073 72.6239C76.9222 71.6301 76.8675 70.6362 76.8129 69.6424C76.7499 68.4829 76.687 67.3235 76.412 66.1888C76.3929 66.0443 76.3251 65.9105 76.2199 65.8095C76.0543 65.6886 75.8389 65.7317 75.6418 65.7582C75.0383 65.8348 74.4274 65.6901 73.9225 65.3507C73.7038 65.2016 73.4107 65.0194 73.2069 65.1851C73.12 65.285 73.0626 65.4072 73.0413 65.5379C72.9511 65.7722 72.812 65.9846 72.6332 66.1608C72.4544 66.3371 72.24 66.4731 72.0044 66.5599C71.5324 66.7308 71.038 66.8324 70.5368 66.8613C70.3835 66.8943 70.2235 66.8762 70.0813 66.81C69.8461 66.6659 69.8296 66.1474 69.5331 66.1126C69.273 66.0828 68.8656 66.6427 68.69 66.81Z" fill="#3F3D56"/>
    <path d="M72.6092 70.8547C71.998 70.27 71.7296 69.4219 71.2841 68.7014C70.9806 68.2169 70.593 67.7905 70.1395 67.4425C69.9115 67.2919 69.7024 67.1145 69.5167 66.9141C69.3593 66.7203 69.2401 66.4619 69.0016 66.3874C68.903 66.366 68.8007 66.3688 68.7035 66.3956C68.6062 66.4224 68.517 66.4725 68.4434 66.5414C68.2973 66.6806 68.1591 66.8277 68.0293 66.982C67.327 67.7092 66.0929 67.8102 65.5364 68.6517C65.3863 68.8301 65.2842 69.0439 65.2399 69.2728C65.0797 70.4975 65.3964 71.7369 66.1244 72.7347C66.2654 72.9659 66.4819 73.1414 66.7373 73.2316C66.7026 73.5404 66.7436 73.8531 66.8565 74.1426C67.1632 75.1909 67.5401 76.2174 67.9845 77.2152C67.8783 77.6055 67.804 78.0038 67.7626 78.4061C67.6466 79.4182 67.7543 80.4451 67.645 81.4588C67.5555 82.287 67.3137 83.0937 67.3054 83.9235C67.3054 84.056 67.317 84.2134 67.4313 84.2813C67.4921 84.3125 67.5602 84.3268 67.6284 84.3227L69.6658 84.384C70.8484 84.4188 72.0427 84.4536 73.2071 84.2349C73.3622 84.212 73.5126 84.1645 73.6527 84.0941C74.0469 83.8738 74.1778 83.3769 74.2407 82.9347C74.3229 82.361 74.3556 81.7813 74.3384 81.2021C74.5852 81.9822 74.8784 82.7889 75.6238 83.1268C76.018 83.3057 76.4685 83.2925 76.9009 83.2809C77.8326 83.2394 78.7612 83.1437 79.6819 82.9943C79.7387 83.0013 79.7963 82.995 79.8501 82.9758C79.9039 82.9566 79.9525 82.925 79.992 82.8836C80.0314 82.8422 80.0606 82.7922 80.0773 82.7375C80.0939 82.6828 80.0975 82.6249 80.0877 82.5686L80.0977 81.6642C80.1175 79.8273 79.662 78.0715 79.4848 76.2429C79.4285 75.6665 79.4335 75.0834 79.2927 74.5186C79.2347 74.2817 79.1502 74.0498 79.0989 73.8113C79.0547 73.5778 79.027 73.3414 79.0161 73.104L78.8869 71.282C78.8256 70.4389 78.7378 69.6256 78.6732 68.7842C78.6377 67.9648 78.5189 67.1512 78.3187 66.3559C78.1746 65.859 77.8748 65.2958 77.3564 65.2346C77.0797 65.2031 76.8114 65.324 76.548 65.4085C75.9007 65.6123 75.206 65.6094 74.5604 65.4002C74.3609 65.3214 74.1531 65.2659 73.9409 65.2346C73.8341 65.22 73.7254 65.2341 73.6258 65.2755C73.5263 65.3168 73.4395 65.3839 73.3744 65.4698C73.3101 65.5992 73.2799 65.7428 73.2866 65.8872C73.2088 67.5419 73.0647 69.2463 72.6092 70.8547Z" fill="#6C63FF"/>
    <path d="M69.9448 70.9045C69.1812 70.0995 68.3978 69.2795 67.4139 68.7677C67.0263 68.5656 66.5857 68.4133 66.1567 68.4895C65.7277 68.5656 65.3285 68.9383 65.3484 69.374C65.3616 69.644 65.5256 69.8825 65.577 70.1475C65.6366 70.4456 65.5504 70.7637 65.6432 71.0519C65.7186 71.2418 65.8312 71.4147 65.9745 71.5604L67.1472 72.9501C67.6441 73.5298 68.141 74.1178 68.7804 74.5187C69.4198 74.9195 70.248 75.1067 70.9503 74.8218C71.4499 74.5896 71.8654 74.2082 72.1395 73.7302C72.4311 73.2665 72.6365 72.7596 72.9098 72.2809C73.3351 71.516 73.8964 70.8352 74.5661 70.2717C74.2216 70.1823 73.7893 70.0564 73.5723 69.7748C73.5106 69.6853 73.4578 69.5899 73.415 69.4899L73.1466 68.9102C73.0554 68.9054 72.9641 68.9196 72.8786 68.9518C72.7931 68.984 72.7151 69.0336 72.6497 69.0973C72.5346 69.2303 72.4113 69.3559 72.2803 69.4733C72.0468 69.6489 71.7304 69.697 71.5184 69.8974C71.4364 69.9834 71.3621 70.0765 71.2964 70.1756C71.1361 70.3864 70.9325 70.5605 70.6994 70.6862C70.4663 70.8119 70.209 70.8863 69.9448 70.9045Z" fill="#3F3D56"/>
    <path d="M74.6263 67.4409C75.201 66.3924 75.1745 65.1352 75.3385 63.9509C75.3563 63.6373 75.4663 63.3359 75.6549 63.0846C75.9862 62.7103 76.5709 62.7053 77.0711 62.7533C77.2185 62.7699 77.4024 62.8395 77.3941 62.9869C77.3825 63.0397 77.3567 63.0884 77.3195 63.1277C76.8347 63.7534 76.5496 64.5107 76.5013 65.3009C76.7613 65.4814 77.1638 65.1104 77.414 65.3009C77.5796 65.44 77.5034 65.715 77.404 65.9137C77.1732 66.3742 76.9353 66.8314 76.6901 67.2852C76.4944 67.6852 76.2392 68.0533 75.9332 68.3768C75.7228 68.5788 75.476 68.7379 75.2623 68.9366C74.7654 69.4021 74.4656 70.0596 73.9521 70.5135C73.9087 70.5605 73.85 70.5905 73.7865 70.598C73.7211 70.5933 73.6596 70.5657 73.6126 70.5201C73.3561 70.3115 73.1433 70.0542 72.9864 69.7632C72.791 69.4021 72.8208 69.2961 73.1289 69.041C73.7053 68.5855 74.2668 68.0968 74.6263 67.4409Z" fill="#BE6F72"/>
    <path d="M68.9833 70.1922C69.0827 70.2535 69.2052 70.323 69.3146 70.2717C69.3592 70.2447 69.3972 70.2079 69.4255 70.164C69.6149 69.9113 69.7729 69.6366 69.8959 69.3458C69.9171 69.3047 69.929 69.2595 69.9307 69.2133C69.9307 69.1073 69.8363 69.0294 69.7485 68.9681C69.2781 68.6683 68.7724 68.428 68.2429 68.2526C67.8056 68.0869 67.3484 67.9428 66.8846 67.9842C66.7104 67.9959 66.5403 68.0428 66.3846 68.1219C66.2289 68.201 66.0908 68.3108 65.9786 68.4447C65.6473 68.8704 66.2022 68.9996 66.5501 69.1536C67.3551 69.5197 68.2263 69.7317 68.9833 70.1922Z" fill="#6C63FF"/>
    <path opacity="0.1" d="M68.4616 73.0082C68.456 73.046 68.4594 73.0846 68.4715 73.1208C68.4836 73.1571 68.504 73.19 68.5312 73.2169C68.5792 72.9817 68.5163 72.7332 68.566 72.4964C68.6388 72.1402 68.985 71.8719 69.0148 71.5141C68.3804 71.3899 68.4666 72.6239 68.4616 73.0082Z" fill="black"/>
    <path opacity="0.2" d="M97.6671 60.0552V61.6867L90.9322 62.0958L90.7285 60.4626L97.6671 60.0552Z" fill="black"/>
    <path d="M67.8289 62.6939C68.2496 62.351 68.0061 61.6321 68.291 61.1717C68.4566 60.9199 68.7366 60.7874 69.0115 60.6747C69.3434 60.5195 69.6989 60.4209 70.0633 60.3832C70.2458 60.3657 70.4299 60.3895 70.602 60.4529C70.774 60.5162 70.9296 60.6175 71.0571 60.7493C71.1648 60.8718 71.2377 61.0209 71.3387 61.1485C71.4639 61.2973 71.6269 61.4094 71.8107 61.473C71.9944 61.5366 72.1919 61.5492 72.3823 61.5096C72.6026 61.4599 72.8311 61.2926 72.8162 61.0673C72.7913 60.9303 72.7214 60.8055 72.6175 60.7128L72.1437 60.1878C71.6054 59.5915 71.0075 58.9587 70.2174 58.8097C69.6674 58.7053 69.1043 58.8527 68.5742 59.0299C68.3606 59.1012 68.1204 59.2072 68.0608 59.4242C68.021 59.5732 68.0806 59.7356 68.0458 59.8863C67.9779 60.1861 67.5936 60.2871 67.4148 60.5389C67.2359 60.7907 67.2905 61.0888 67.2392 61.3671C67.1878 61.6454 67.0388 61.917 67.0205 62.2052C67.0089 62.3792 67.0967 62.7022 67.2922 62.7651C67.4876 62.828 67.7079 62.4868 67.8289 62.6939Z" fill="#3F3D56"/>
    <path d="M72.6559 60.8286C72.5162 60.0999 72.2151 59.4116 71.7747 58.8145C71.3831 58.2565 70.8383 57.8239 70.2061 57.5689C69.8901 57.4454 69.5502 57.3951 69.212 57.4218C68.8737 57.4484 68.5459 57.5514 68.2532 57.7229C67.8186 58.0331 67.4805 58.4597 67.2776 58.9536C66.8486 59.8778 66.6896 61.0075 67.1882 61.8953C67.3869 61.6535 67.7281 61.7628 68.0296 61.675C68.4073 61.5674 68.7269 61.3156 69.0864 61.1582C70.1713 60.6795 71.4964 61.0671 72.6559 60.8286Z" fill="#FED253"/>
    <path opacity="0.1" d="M67.4409 60.7773C67.4028 60.4791 67.378 60.133 67.59 59.9209C67.6005 59.9079 67.6139 59.8976 67.6292 59.8907C67.6444 59.8838 67.6611 59.8805 67.6778 59.8812C67.6926 59.886 67.7062 59.8937 67.7179 59.904C67.7296 59.9143 67.739 59.9268 67.7457 59.9408C67.8681 60.134 67.9723 60.338 68.0571 60.5504C67.9336 60.5219 67.8045 60.5312 67.6864 60.5769C67.5682 60.6227 67.4666 60.7029 67.3945 60.8071" fill="black"/>
    <path opacity="0.1" d="M71.3122 59.9359L71.2526 59.3446C71.243 59.2958 71.247 59.2454 71.2642 59.1988C71.2892 59.1598 71.3277 59.1314 71.3724 59.1192C71.417 59.107 71.4647 59.1117 71.506 59.1326C71.5875 59.1777 71.6547 59.2449 71.6998 59.3263C71.8377 59.538 71.9521 59.7641 72.041 60.0005C71.7743 59.9491 71.4998 59.9525 71.2344 60.0104" fill="black"/>
    <path opacity="0.1" d="M72.7944 83.9353V85.2869L71.6531 85.3631H65.6504V83.9353H72.7944Z" fill="black"/>
    <path d="M72.7947 83.9351V85.3629H65.6507L46.6719 61.5888V60.4658H50.6505L72.7947 83.9351Z" fill="#F1C0C0"/>
    <path opacity="0.1" d="M72.7947 83.9351V85.3629H65.6507L46.6719 61.5888V60.4658H50.6505L72.7947 83.9351Z" fill="black"/>
    <path opacity="0.1" d="M72.7947 83.9351V85.3629H65.6507L46.6719 61.5888V60.4658L65.7534 83.9351H72.7947Z" fill="black"/>
    <path d="M49.1605 107.764C49.173 107.831 49.1715 107.9 49.1561 107.967C49.1407 108.033 49.1117 108.096 49.071 108.151C49.0303 108.206 48.9787 108.252 48.9194 108.286C48.8601 108.32 48.7945 108.341 48.7266 108.349C48.2661 108.504 47.7774 108.658 47.4511 109.011C47.1248 109.364 47.0602 110.018 47.4511 110.305C47.651 110.425 47.8804 110.488 48.1137 110.485C48.864 110.537 49.6458 110.527 50.3266 110.209C50.8136 109.983 51.2724 109.599 51.8074 109.634C52.084 109.651 52.3789 109.78 52.6257 109.654C52.8725 109.528 52.9421 109.177 52.9437 108.884C52.95 108.272 52.8577 107.663 52.6704 107.08C52.6456 107 51.5921 106.939 51.4662 106.914L50.1891 106.749C49.9473 106.717 49.4256 106.535 49.2351 106.737C49.0446 106.939 49.1605 107.524 49.1605 107.764Z" fill="#6C63FF"/>
    <path d="M56.7806 103.63C56.8347 103.928 56.9225 104.219 57.0423 104.498C57.2196 104.948 57.4465 105.427 57.8805 105.645C58.2747 105.843 58.7583 105.771 59.1592 105.584C59.3265 105.515 59.4731 105.404 59.5849 105.261C59.7142 105.036 59.7719 104.776 59.7505 104.517C59.7505 103.876 59.7124 103.214 59.4192 102.644C59.1675 102.147 58.7285 101.72 58.7219 101.17L57.2129 101.461C57.1322 101.469 57.0552 101.5 56.991 101.549C56.9432 101.6 56.91 101.662 56.8949 101.73C56.7338 102.35 56.695 102.995 56.7806 103.63Z" fill="#6C63FF"/>
    <path d="M38.7607 87.894C38.6978 88.4274 38.7243 88.9988 39.0025 89.4593C39.2808 89.9198 39.8672 90.2245 40.374 90.0407C40.4 90.0341 40.4244 90.0223 40.4457 90.0061C40.467 89.9898 40.4849 89.9695 40.4982 89.9463C40.5117 89.8903 40.5041 89.8313 40.4767 89.7806C40.2529 89.1835 40.2714 88.5225 40.5281 87.9387C40.5612 87.8625 40.6324 87.7731 40.7103 87.8029C40.7428 87.8194 40.769 87.8462 40.7848 87.8791C40.865 88.0178 40.9051 88.1761 40.9007 88.3363C40.8774 88.4814 40.8729 88.6289 40.8875 88.7752C40.919 88.9177 41.0713 89.0518 41.2039 88.9905C41.2422 88.967 41.2753 88.9359 41.3012 88.8992C41.3271 88.8625 41.3453 88.8208 41.3546 88.7769C41.724 87.7085 41.5567 86.5408 41.3877 85.4227C41.3891 85.397 41.3849 85.3713 41.3753 85.3475C41.3657 85.3236 41.351 85.3022 41.3322 85.2847C41.3134 85.2671 41.2909 85.2539 41.2665 85.246C41.242 85.2381 41.2161 85.2356 41.1906 85.2388C40.4088 85.161 39.9814 84.9738 39.5342 85.701C39.1499 86.3138 38.7607 87.1569 38.7607 87.894Z" fill="#6C63FF"/>
    <path d="M47.9003 85.1758C47.6684 86.1399 47.4348 87.1155 47.4199 88.106C47.424 88.723 47.4705 89.3389 47.5591 89.9495L47.733 91.384C47.7926 91.8676 47.8506 92.3496 47.9351 92.8283C47.9889 93.0749 48.0184 93.3263 48.0228 93.5787C48.0066 93.8275 47.9672 94.0743 47.9052 94.3158C47.8011 94.823 47.7429 95.3385 47.7313 95.8562C47.7131 96.6844 47.8158 97.5126 47.8804 98.3408C48.0094 99.9912 47.99 101.65 47.8224 103.297C47.7555 103.741 47.852 104.195 48.0941 104.574C48.1923 104.693 48.2731 104.826 48.3342 104.968C48.4585 105.347 48.1686 105.727 48.0941 106.116C48.0464 106.419 48.1211 106.729 48.3019 106.978C48.4826 107.226 48.7546 107.393 49.0581 107.441C50.3832 107.598 51.7447 107.527 52.939 108.133C53.0649 107.766 52.7899 107.348 52.9158 106.974C52.9953 106.742 53.214 106.591 53.363 106.396C53.5633 106.098 53.6631 105.744 53.6479 105.385C53.6538 104.917 53.5706 104.452 53.4028 104.016C53.262 103.651 53.0599 103.292 53.0715 102.901C53.0715 102.709 53.1394 102.507 53.0616 102.329C53.0082 102.228 52.9356 102.137 52.8479 102.063C52.3529 101.52 52.0486 100.831 51.9816 100.1C51.917 99.3742 51.9404 98.6434 52.0512 97.9234C52.1323 97.2376 52.2417 96.5138 52.6773 95.9788C52.4753 94.3565 52.594 92.7103 53.0268 91.1339C53.0698 90.9881 53.1378 90.8191 53.2868 90.7844C53.3461 90.7783 53.4059 90.7866 53.4612 90.8085C53.5166 90.8304 53.5658 90.8653 53.6049 90.9102C53.8649 91.1537 53.9891 91.5065 54.1018 91.8444C54.226 92.2105 54.3519 92.6014 54.2575 92.9757C54.2177 93.1414 54.1382 93.2872 54.0918 93.4462C53.9911 93.7657 54.0087 94.1109 54.1415 94.4185C54.2063 94.5309 54.2469 94.6555 54.2608 94.7845C54.2454 94.8953 54.2118 95.0027 54.1614 95.1025C54.1 95.2986 54.0805 95.5053 54.1041 95.7093C54.1278 95.9134 54.1942 96.1101 54.2989 96.2869C54.51 96.6386 54.7705 96.9582 55.0724 97.236C54.9282 97.8717 54.9655 98.5352 55.1801 99.1508C55.1956 99.1785 55.2054 99.209 55.2091 99.2405C55.2128 99.2721 55.2103 99.304 55.2016 99.3346C55.1718 99.3976 55.0956 99.4207 55.036 99.4655C54.8703 99.6013 54.973 99.858 55.084 100.035C55.3882 100.522 55.724 100.988 56.0894 101.43C56.4207 101.826 56.3909 102.589 56.8845 102.732C57.0919 102.777 57.3065 102.777 57.5139 102.732C58.0009 102.657 58.5442 102.517 58.7827 102.086C58.8804 101.909 58.9202 101.693 59.0726 101.561C59.225 101.428 59.4221 101.405 59.5066 101.246C59.591 101.087 59.4966 100.878 59.5248 100.695C59.5529 100.511 59.7136 100.363 59.7649 100.169C59.8875 99.7222 59.3658 99.3545 59.2945 98.8973C59.1918 98.2348 60.0267 97.7379 59.9919 97.0753C59.919 95.6359 59.8726 94.1899 59.7981 92.7505C59.7045 91.4611 59.6913 90.1672 59.7583 88.8762C59.8163 88.0729 59.924 87.2314 59.6291 86.4844C59.2051 85.4309 58.0357 84.8396 56.9044 84.727C55.7731 84.6143 54.6451 84.8827 53.5237 85.0582C51.6626 85.3451 49.7717 85.3846 47.9003 85.1758Z" fill="#3F3D56"/>
    <path d="M51.2629 69.3442C52.7284 69.3442 53.9164 68.1561 53.9164 66.6906C53.9164 65.2251 52.7284 64.0371 51.2629 64.0371C49.7974 64.0371 48.6094 65.2251 48.6094 66.6906C48.6094 68.1561 49.7974 69.3442 51.2629 69.3442Z" fill="#FBBEBE"/>
    <path d="M50.184 69.8393C50.0938 70.0492 49.9422 70.2269 49.7492 70.349C49.5561 70.4711 49.3306 70.5319 49.1023 70.5234C49.0063 70.9209 49.2365 71.3218 49.4999 71.6348C50.0467 72.2712 50.7535 72.7502 51.5472 73.0225C52.3409 73.2947 53.1928 73.3503 54.0152 73.1835C54.3352 73.1263 54.6388 72.9996 54.9046 72.8125C55.2631 72.5132 55.5037 72.0965 55.5838 71.6365C55.66 71.1796 55.6817 70.7154 55.6484 70.2534C55.6577 70.1622 55.6316 70.0709 55.5755 69.9983C55.5092 69.947 55.4273 69.9201 55.3436 69.9221C54.7837 69.8724 54.199 69.8509 53.7071 69.5759C53.2151 69.301 52.8656 68.6798 53.1025 68.1697C53.0644 68.2492 52.0971 68.2873 51.9695 68.3038C51.5703 68.3602 51.1712 68.4231 50.7736 68.496C50.5826 68.5065 50.3938 68.5421 50.2121 68.602C49.9719 68.7262 50.0614 68.6649 50.1177 68.8902C50.2022 69.2347 50.3264 69.4815 50.184 69.8393Z" fill="#FBBEBE"/>
    <path d="M52.2034 71.4528C51.846 71.4569 51.4895 71.4175 51.1417 71.3352C50.7905 71.2532 50.481 71.0466 50.2704 70.7538C50.1478 70.5683 50.0683 70.3348 49.8729 70.2304C49.5532 70.0648 49.1888 70.3447 48.9337 70.6014C48.7015 70.8546 48.4323 71.0713 48.1353 71.2441C47.7809 71.4313 47.3668 71.4976 47.0322 71.7179C46.7708 71.9154 46.5465 72.1576 46.3696 72.4334L44.0225 75.6302C43.0801 76.9156 42.2602 78.2953 41.4204 79.6519C40.6932 80.8263 40.3122 82.1779 39.764 83.445C39.7206 83.5226 39.7026 83.6118 39.7126 83.7001C39.7325 83.7863 39.8369 83.8558 39.9097 83.8061C39.6629 84.0513 39.8799 84.4687 39.822 84.8132C39.7561 85.0543 39.6186 85.2697 39.4277 85.431C39.7923 85.3835 40.1624 85.4009 40.5209 85.4824C40.8915 85.5874 41.2411 85.7555 41.5545 85.9793C41.755 85.9478 41.7367 85.5917 41.8858 85.4592C41.9753 85.3814 42.1078 85.3913 42.2254 85.3681C42.6676 85.282 42.8432 84.7503 43.1828 84.4505C43.466 84.2004 43.8668 84.1192 44.1666 83.884C44.6536 83.5014 44.758 82.8206 45.0131 82.2558C45.23 81.7771 45.5713 81.3597 45.7617 80.8694C45.886 80.5513 45.9456 80.2068 46.1228 79.9136C46.4061 79.4399 46.9394 79.1881 47.4479 78.9612C47.7693 78.8171 48.1105 78.668 48.4567 78.6912C48.4385 79.4614 48.3407 80.2201 48.508 80.9721C48.566 81.2371 48.6472 81.4955 48.7167 81.7588C49.0331 82.9448 49.1076 84.1805 49.1225 85.4029C49.8836 85.2288 50.6609 85.1355 51.4415 85.1246C52.056 85.1064 52.6689 85.1859 53.2834 85.1743C54.0122 85.1611 54.7327 85.0203 55.4615 84.9706C56.1903 84.9209 56.9523 84.9706 57.5966 85.3018C57.5443 84.2521 57.5736 83.1999 57.6844 82.1547L57.86 80.5083C57.8996 80.0299 57.9732 79.555 58.0803 79.0871C58.1763 78.7094 58.3155 78.345 58.4215 77.969C58.7942 76.6439 58.7263 75.2294 58.655 73.8496C58.6186 73.1407 58.3453 72.4433 58.024 71.8123C57.9076 71.5779 57.7748 71.352 57.6264 71.1365C57.2381 70.6014 56.7206 70.1735 56.1222 69.8926C55.5238 69.6116 54.864 69.4868 54.2043 69.5298C54.1201 69.5324 54.037 69.5503 53.9592 69.5828C53.8194 69.6723 53.7102 69.8023 53.6461 69.9555C53.3034 70.5714 52.8062 71.0875 52.2034 71.4528Z" fill="#3F3D56"/>
    <path d="M48.9294 67.57C49.004 67.4044 49.2044 67.3431 49.327 67.2106C49.5622 66.9588 49.4562 66.5563 49.4926 66.2168C49.5522 65.7199 49.9647 65.3041 50.4367 65.1269C50.9182 64.9724 51.4304 64.9399 51.9275 65.0325C52.1668 65.0499 52.3979 65.1268 52.6 65.2561C52.6861 65.319 52.7656 65.4002 52.8468 65.4582C52.9947 65.5476 53.1718 65.5756 53.3401 65.5363C53.5085 65.497 53.6548 65.3935 53.7479 65.2478C53.1615 64.5422 52.5122 63.7968 51.6211 63.5798C51.3153 63.5174 51.0038 63.488 50.6918 63.492C50.2794 63.4837 49.8537 63.4771 49.4727 63.6345C48.9543 63.8481 48.5899 64.3401 48.4027 64.8701C48.239 65.4074 48.1515 65.965 48.1427 66.5265C48.1087 66.9012 48.1087 67.2782 48.1427 67.6529C48.2067 68.1645 48.3968 68.6523 48.6959 69.0724C48.7363 69.1376 48.7935 69.1908 48.8615 69.2264C49.6168 69.5577 48.8682 67.7075 48.9294 67.57Z" fill="#3F3D56"/>
    <path d="M53.6629 64.8389C53.5718 64.0587 53.0152 63.4144 52.4239 62.896C51.9473 62.4464 51.3796 62.1047 50.7592 61.8939C50.1348 61.71 49.4159 61.7497 48.8809 62.1224C48.4502 62.4222 48.1769 62.8993 47.9666 63.3796C47.6902 63.9465 47.5534 64.5712 47.5674 65.2016C47.6088 65.8278 47.9136 66.4622 48.4569 66.7785C48.6523 66.4903 48.9919 66.3412 49.3182 66.2236C50.7404 65.684 52.1907 65.2218 53.6629 64.8389Z" fill="#FED253"/>
    <path opacity="0.1" d="M48.6391 64.5142C48.6921 64.5142 48.7269 64.5689 48.7534 64.6136C48.8883 64.8237 49.0041 65.0455 49.0996 65.2762C48.9058 65.3176 48.5729 65.364 48.4768 65.1934C48.4255 65.1072 48.4867 64.506 48.6391 64.5142Z" fill="black"/>
    <path opacity="0.1" d="M52.4125 64.1397C52.3727 64.1778 52.3263 64.0999 52.3263 64.0436V63.4009C52.3253 63.3831 52.3293 63.3653 52.3379 63.3496C52.3448 63.3417 52.3532 63.3353 52.3626 63.3308C52.372 63.3262 52.3822 63.3236 52.3926 63.3231C52.5268 63.3082 52.6377 63.4225 52.7239 63.5318C52.8546 63.709 52.9683 63.8981 53.0634 64.0966L52.3628 64.0751" fill="black"/>
    <path d="M61.1579 74.7819C61.3103 74.6373 61.4731 74.5038 61.6449 74.3827C62.1037 74.0763 62.6586 73.9554 63.1737 73.7599C63.6889 73.5645 64.2123 73.2481 64.4127 72.7346C64.513 72.4136 64.5458 72.0752 64.5088 71.7408C64.5136 71.6008 64.4888 71.4614 64.4359 71.3317C64.3728 71.2171 64.2831 71.1193 64.1742 71.0468C63.4752 70.53 62.5377 70.4886 61.6697 70.5416C59.7562 70.6603 57.8806 71.1285 56.1358 71.923C56.0435 71.9535 55.9626 72.0113 55.9039 72.0887C55.8699 72.1604 55.8545 72.2396 55.8591 72.3189C55.8283 72.8074 55.8918 73.2972 56.0463 73.7616C56.2749 74.3513 56.7453 74.8267 56.9424 75.4279C57.0319 75.6979 57.0617 75.9845 57.1395 76.2561C57.2034 76.5367 57.3693 76.7834 57.605 76.9485C58.2592 77.3394 58.8771 76.8143 59.3309 76.4069L61.1579 74.7819Z" fill="#3F3D56"/>
    <path d="M52.5879 77.0761L51.7482 75.2441C51.625 74.9903 51.5188 74.7285 51.4301 74.4607C51.3341 74.141 51.2877 73.8097 51.1982 73.4884C50.9034 72.4184 50.1597 71.5272 49.7969 70.4787C49.774 70.3841 49.7272 70.2968 49.6611 70.2253C49.6082 70.1878 49.5476 70.1625 49.4838 70.151C49.42 70.1396 49.3544 70.1423 49.2917 70.159C48.7849 70.2468 48.389 70.6328 47.9252 70.8514C47.7099 70.9508 47.478 71.017 47.2627 71.1313C47.155 71.1823 47.0597 71.2559 46.9831 71.3471C46.9064 71.4383 46.8504 71.5449 46.8188 71.6597C46.7674 71.9131 46.8933 72.1566 46.9993 72.4034C47.4498 73.4205 47.5525 74.5567 47.5724 75.6698C47.5873 76.4185 47.5492 77.2219 47.107 77.8231C46.2572 78.9826 46.8005 80.6854 47.1186 82.0883C47.1567 82.254 47.2014 82.4328 47.2279 82.6084C47.2559 82.8281 47.2686 83.0495 47.266 83.271C47.266 84.0147 47.2246 84.7816 46.9132 85.4557C47.2206 85.6193 47.5594 85.7153 47.907 85.7373C48.8688 85.8599 49.8345 85.946 50.804 85.9957C51.1078 86.0243 51.4141 86.0087 51.7134 85.9493C52.0688 85.8533 52.3821 85.6416 52.6037 85.3476C52.8254 85.0536 52.9428 84.6942 52.9374 84.3261C52.9904 84.7849 53.0882 85.2835 53.4211 85.6015C53.754 85.9195 54.2394 85.9676 54.6915 85.9924C55.9678 86.0601 57.2474 86.0241 58.5178 85.8847C58.5989 85.8811 58.6786 85.8626 58.753 85.8301C58.9981 85.7075 59.0114 85.3696 58.9915 85.098C58.9551 84.5895 58.917 84.0809 58.8557 83.5757C58.8037 83.2537 58.7771 82.928 58.7762 82.6018C58.8014 82.2662 58.8569 81.9336 58.9418 81.608C59.1638 80.5744 59.3394 79.5193 59.2648 78.4608C59.2354 78.203 59.2248 77.9434 59.2334 77.684C59.2764 77.0993 59.5845 76.5427 59.5265 75.9614C59.3609 74.252 59.2267 72.4979 58.7497 70.8481C58.6636 70.5533 58.5542 70.2369 58.2975 70.0679C57.9662 69.846 57.5008 69.9619 57.1215 69.8211C56.9435 69.7383 56.7742 69.6379 56.6163 69.5213C56.273 69.3067 55.8796 69.1856 55.475 69.1702C55.1702 69.1586 54.8307 69.2265 54.6468 69.4716C54.5617 69.6097 54.5053 69.7635 54.4812 69.9238C54.241 70.9342 53.9594 71.933 53.6778 72.9318L53.4078 73.8892L52.684 76.4599C52.6128 76.7332 52.6608 76.8177 52.5879 77.0761Z" fill="#6C63FF"/>
    <path d="M56.8241 67.0466L72.8463 83.8838V85.3116H65.7024L53.6621 69.5975" fill="#F1C0C0"/>
    <path opacity="0.1" d="M56.8241 67.0466L72.8463 83.8838V85.3116H65.7024L53.6621 69.5975" fill="black"/>
    <path opacity="0.1" d="M53.9172 69.3757L53.9685 69.394L65.8051 83.884H72.8463V85.3118H65.7024L53.6621 69.5977L53.9172 69.3757Z" fill="black"/>
    <path d="M55.7607 69.73C55.181 69.9835 54.5367 70.3081 54.3627 70.9177C54.3284 71.0246 54.321 71.1384 54.3412 71.249C54.3836 71.3789 54.4644 71.493 54.5729 71.5761C54.6814 71.6592 54.8126 71.7074 54.9491 71.7144C55.2219 71.721 55.4931 71.6714 55.7458 71.5686L59.1662 70.439C59.259 70.4092 59.365 70.3644 59.3882 70.2733C59.3942 70.216 59.3826 70.1583 59.3551 70.1077C59.2491 69.8493 59.1447 69.3209 58.9228 69.1404C58.7406 68.9946 58.3795 69.046 58.1592 69.0493C57.3111 69.0559 56.5144 69.3988 55.7607 69.73Z" fill="#6C63FF"/>
    <path d="M58.8105 70.5731C59.3868 70.5715 59.9597 70.6603 60.5083 70.8365C61.0594 71.0154 61.5475 71.3489 61.9146 71.7972C62.0215 71.9225 62.0975 72.0712 62.1366 72.2312C62.1697 72.3968 62.7097 72.4962 62.5904 72.6089C62.9532 72.5509 62.867 72.7215 63.2347 72.7182C63.6025 72.7149 64 72.6204 64.2203 72.3273C64.3733 72.0864 64.4416 71.8013 64.4141 71.5173C64.4189 71.3206 64.3816 71.1252 64.3048 70.9442C64.1391 70.5963 63.7582 70.4092 63.407 70.2485L60.4487 68.8952C60.2771 68.804 60.0929 68.7386 59.9021 68.7014C59.7415 68.6863 59.5797 68.6902 59.4201 68.713L58.0801 68.8671C58.3731 69.0567 58.6117 69.3194 58.7723 69.6293C58.9329 69.9393 59.0101 70.2857 58.9961 70.6344" fill="#3F3D56"/>
  </g>
  <defs>
    <clipPath id="clip0_515_57899">
      <rect width="195.092" height="120" fill="white" transform="translate(0.121094 0.75)"/>
    </clipPath>
  </defs>
</svg>