<svg xmlns="http://www.w3.org/2000/svg" width="188" height="121" viewBox="0 0 188 121" fill="none">
  <g clip-path="url(#clip0_515_57802)">
    <path d="M28.4652 33.5188C28.778 30.1499 29.642 26.8553 31.0226 23.7665C31.4074 22.9069 31.8309 22.0662 32.2931 21.2445C32.3163 21.2015 32.3219 21.1512 32.3087 21.1042C32.2955 21.0572 32.2646 21.0172 32.2224 20.9925C32.1803 20.9679 32.1302 20.9606 32.0827 20.9722C32.0353 20.9837 31.9942 21.0133 31.9681 21.0546C30.2871 24.0475 29.1095 27.2964 28.4822 30.6714C28.3078 31.6138 28.1766 32.563 28.0888 33.5188C28.0665 33.7598 28.443 33.7583 28.4652 33.5188Z" fill="#E6E6E6"/>
    <path d="M33.2059 21.8481C34.5224 21.8481 35.5896 20.7809 35.5896 19.4645C35.5896 18.148 34.5224 17.0808 33.2059 17.0808C31.8895 17.0808 30.8223 18.148 30.8223 19.4645C30.8223 20.7809 31.8895 21.8481 33.2059 21.8481Z" fill="#E6E6E6"/>
    <path d="M28.7096 33.5822C28.9126 31.3967 29.473 29.2594 30.3687 27.2555C30.6183 26.6979 30.8931 26.1525 31.193 25.6194C31.208 25.5915 31.2116 25.5589 31.2031 25.5284C31.1945 25.4979 31.1744 25.4719 31.1471 25.4559C31.1198 25.4399 31.0873 25.4352 31.0565 25.4427C31.0257 25.4502 30.9991 25.4694 30.9821 25.4961C29.8916 27.4378 29.1276 29.5455 28.7207 31.735C28.6075 32.3464 28.5224 32.9622 28.4655 33.5822C28.451 33.7386 28.6952 33.7377 28.7096 33.5822Z" fill="#E6E6E6"/>
    <path d="M31.7847 26.0107C32.6387 26.0107 33.3311 25.3184 33.3311 24.4644C33.3311 23.6103 32.6387 22.918 31.7847 22.918C30.9306 22.918 30.2383 23.6103 30.2383 24.4644C30.2383 25.3184 30.9306 26.0107 31.7847 26.0107Z" fill="#E6E6E6"/>
    <path d="M28.401 33.4361C27.2167 31.588 26.3441 29.558 25.8178 27.4271C25.6716 26.8339 25.5528 26.2349 25.4614 25.6301C25.4561 25.5989 25.4389 25.5709 25.4134 25.5521C25.3879 25.5333 25.3561 25.5252 25.3247 25.5294C25.2933 25.5336 25.2647 25.5499 25.2451 25.5747C25.2254 25.5996 25.2162 25.6311 25.2194 25.6626C25.5537 27.8643 26.2477 29.9961 27.2735 31.9728C27.5603 32.5245 27.872 33.0623 28.2084 33.5862C28.2932 33.7185 28.4852 33.5675 28.401 33.4361Z" fill="#E6E6E6"/>
    <path d="M25.2183 25.9023C26.0723 25.9023 26.7646 25.21 26.7646 24.356C26.7646 23.5019 26.0723 22.8096 25.2183 22.8096C24.3642 22.8096 23.6719 23.5019 23.6719 24.356C23.6719 25.21 24.3642 25.9023 25.2183 25.9023Z" fill="#E6E6E6"/>
    <path d="M23.6543 34.8044V31.7661C23.6546 31.464 23.7748 31.1744 23.9884 30.9608C24.202 30.7472 24.4916 30.627 24.7937 30.6267H31.883C32.1851 30.627 32.4747 30.7472 32.6883 30.9608C32.9019 31.1744 33.0221 31.464 33.0224 31.7661V34.8044C33.0221 35.1065 32.9019 35.3961 32.6883 35.6097C32.4747 35.8232 32.1851 35.9434 31.883 35.9437H24.7937C24.4916 35.9434 24.202 35.8232 23.9884 35.6097C23.7748 35.3961 23.6546 35.1065 23.6543 34.8044Z" fill="#F2F2F2"/>
    <path d="M31.6308 15.4351H28.5925C28.2904 15.4348 28.0008 15.3146 27.7872 15.101C27.5736 14.8874 27.4535 14.5978 27.4531 14.2958V1.88936C27.4535 1.58729 27.5736 1.29769 27.7872 1.08409C28.0008 0.870489 28.2904 0.75034 28.5925 0.75H31.6308C31.9329 0.75034 32.2225 0.870489 32.4361 1.08409C32.6497 1.29769 32.7698 1.58729 32.7702 1.88936V14.2958C32.7698 14.5978 32.6497 14.8874 32.4361 15.101C32.2225 15.3146 31.9329 15.4348 31.6308 15.4351Z" fill="#F2F2F2"/>
    <path d="M32.642 3.15527H27.5781V4.16804H32.642V3.15527Z" fill="#CCCCCC"/>
    <path d="M32.642 11.0044H27.5781V12.0172H32.642V11.0044Z" fill="#CCCCCC"/>
    <path d="M39.2265 15.4351H36.1882C35.8861 15.4348 35.5965 15.3146 35.3829 15.101C35.1693 14.8874 35.0492 14.5978 35.0488 14.2958V1.88936C35.0492 1.58729 35.1693 1.29769 35.3829 1.08409C35.5965 0.870489 35.8861 0.75034 36.1882 0.75H39.2265C39.5286 0.75034 39.8182 0.870489 40.0318 1.08409C40.2454 1.29769 40.3655 1.58729 40.3659 1.88936V14.2958C40.3655 14.5978 40.2454 14.8874 40.0318 15.101C39.8182 15.3146 39.5286 15.4348 39.2265 15.4351Z" fill="#F2F2F2"/>
    <path d="M40.2377 3.15527H35.1738V4.16804H40.2377V3.15527Z" fill="#CCCCCC"/>
    <path d="M40.2377 11.0044H35.1738V12.0172H40.2377V11.0044Z" fill="#CCCCCC"/>
    <path d="M46.8222 15.4351H43.7839C43.4818 15.4348 43.1922 15.3146 42.9786 15.101C42.765 14.8874 42.6449 14.5978 42.6445 14.2958V1.88936C42.6449 1.58729 42.765 1.29769 42.9786 1.08409C43.1922 0.870489 43.4818 0.75034 43.7839 0.75H46.8222C47.1243 0.75034 47.4139 0.870489 47.6275 1.08409C47.8411 1.29769 47.9612 1.58729 47.9616 1.88936V14.2958C47.9612 14.5978 47.8411 14.8874 47.6275 15.101C47.4139 15.3146 47.1243 15.4348 46.8222 15.4351Z" fill="#F2F2F2"/>
    <path d="M47.8334 3.15527H42.7695V4.16804H47.8334V3.15527Z" fill="#CCCCCC"/>
    <path d="M47.8334 11.0044H42.7695V12.0172H47.8334V11.0044Z" fill="#CCCCCC"/>
    <path d="M50.873 35.9437H47.8347C47.5326 35.9433 47.243 35.8232 47.0294 35.6096C46.8158 35.396 46.6957 35.1064 46.6953 34.8043V22.3979C46.6957 22.0958 46.8158 21.8062 47.0294 21.5926C47.243 21.379 47.5326 21.2589 47.8347 21.2585H50.873C51.1751 21.2589 51.4647 21.379 51.6783 21.5926C51.8919 21.8062 52.012 22.0958 52.0123 22.3979V34.8043C52.012 35.1064 51.8919 35.396 51.6783 35.6096C51.4647 35.8232 51.1751 35.9433 50.873 35.9437Z" fill="#F2F2F2"/>
    <path d="M51.8861 23.6638H46.8223V24.6766H51.8861V23.6638Z" fill="#CCCCCC"/>
    <path d="M51.8861 31.5129H46.8223V32.5257H51.8861V31.5129Z" fill="#CCCCCC"/>
    <path d="M58.4687 35.9437H55.4304C55.1283 35.9433 54.8387 35.8232 54.6251 35.6096C54.4115 35.396 54.2914 35.1064 54.291 34.8043V22.3979C54.2914 22.0958 54.4115 21.8062 54.6251 21.5926C54.8387 21.379 55.1283 21.2589 55.4304 21.2585H58.4687C58.7708 21.2589 59.0604 21.379 59.274 21.5926C59.4876 21.8062 59.6077 22.0958 59.608 22.3979V34.8043C59.6077 35.1064 59.4876 35.396 59.274 35.6096C59.0604 35.8232 58.7708 35.9433 58.4687 35.9437Z" fill="#F2F2F2"/>
    <path d="M59.4818 23.6638H54.418V24.6766H59.4818V23.6638Z" fill="#CCCCCC"/>
    <path d="M59.4818 31.5129H54.418V32.5257H59.4818V31.5129Z" fill="#CCCCCC"/>
    <path d="M66.0644 35.9437H63.0261C62.724 35.9433 62.4344 35.8232 62.2208 35.6096C62.0072 35.396 61.8871 35.1064 61.8867 34.8043V22.3979C61.8871 22.0958 62.0072 21.8062 62.2208 21.5926C62.4344 21.379 62.724 21.2589 63.0261 21.2585H66.0644C66.3665 21.2589 66.6561 21.379 66.8697 21.5926C67.0833 21.8062 67.2034 22.0958 67.2038 22.3979V34.8043C67.2034 35.1064 67.0833 35.396 66.8697 35.6096C66.6561 35.8232 66.3665 35.9433 66.0644 35.9437Z" fill="#F2F2F2"/>
    <path d="M67.0775 23.6638H62.0137V24.6766H67.0775V23.6638Z" fill="#CCCCCC"/>
    <path d="M67.0775 31.5129H62.0137V32.5257H67.0775V31.5129Z" fill="#CCCCCC"/>
    <path d="M30.871 56.4522H27.8327C27.5306 56.4519 27.241 56.3317 27.0275 56.1181C26.8139 55.9045 26.6937 55.6149 26.6934 55.3129V42.9065C26.6937 42.6044 26.8139 42.3148 27.0275 42.1012C27.241 41.8876 27.5306 41.7674 27.8327 41.7671H30.871C31.1731 41.7674 31.4627 41.8876 31.6763 42.1012C31.8899 42.3148 32.0101 42.6044 32.0104 42.9065V55.3129C32.0101 55.6149 31.8899 55.9045 31.6763 56.1181C31.4627 56.3317 31.1731 56.4519 30.871 56.4522Z" fill="#F2F2F2"/>
    <path d="M31.8842 44.1724H26.8203V45.1851H31.8842V44.1724Z" fill="#CCCCCC"/>
    <path d="M31.8842 52.0215H26.8203V53.0343H31.8842V52.0215Z" fill="#CCCCCC"/>
    <path d="M38.4667 56.4522H35.4284C35.1264 56.4519 34.8368 56.3317 34.6232 56.1181C34.4096 55.9045 34.2894 55.6149 34.2891 55.3129V42.9065C34.2894 42.6044 34.4096 42.3148 34.6232 42.1012C34.8368 41.8876 35.1264 41.7674 35.4284 41.7671H38.4667C38.7688 41.7674 39.0584 41.8876 39.272 42.1012C39.4856 42.3148 39.6058 42.6044 39.6061 42.9065V55.3129C39.6058 55.6149 39.4856 55.9045 39.272 56.1181C39.0584 56.3317 38.7688 56.4519 38.4667 56.4522Z" fill="#F2F2F2"/>
    <path d="M39.4799 44.1724H34.416V45.1851H39.4799V44.1724Z" fill="#CCCCCC"/>
    <path d="M39.4799 52.0215H34.416V53.0343H39.4799V52.0215Z" fill="#CCCCCC"/>
    <path d="M46.0624 56.4522H43.0241C42.7221 56.4519 42.4325 56.3317 42.2189 56.1181C42.0053 55.9045 41.8851 55.6149 41.8848 55.3129V42.9065C41.8851 42.6044 42.0053 42.3148 42.2189 42.1012C42.4325 41.8876 42.7221 41.7674 43.0241 41.7671H46.0624C46.3645 41.7674 46.6541 41.8876 46.8677 42.1012C47.0813 42.3148 47.2015 42.6044 47.2018 42.9065V55.3129C47.2015 55.6149 47.0813 55.9045 46.8677 56.1181C46.6541 56.3317 46.3645 56.4519 46.0624 56.4522Z" fill="#F2F2F2"/>
    <path d="M47.0756 44.1724H42.0117V45.1851H47.0756V44.1724Z" fill="#CCCCCC"/>
    <path d="M47.0756 52.0215H42.0117V53.0343H47.0756V52.0215Z" fill="#CCCCCC"/>
    <path d="M54.4179 15.4351H51.3796C51.0775 15.4348 50.7879 15.3146 50.5743 15.101C50.3607 14.8874 50.2406 14.5978 50.2402 14.2958V1.88936C50.2406 1.58729 50.3607 1.29769 50.5743 1.08409C50.7879 0.870489 51.0775 0.75034 51.3796 0.75H54.4179C54.72 0.75034 55.0096 0.870489 55.2232 1.08409C55.4368 1.29769 55.5569 1.58729 55.5573 1.88936V14.2958C55.5569 14.5978 55.4368 14.8874 55.2232 15.101C55.0096 15.3146 54.72 15.4348 54.4179 15.4351Z" fill="#F2F2F2"/>
    <path d="M55.4291 3.15527H50.3652V4.16804H55.4291V3.15527Z" fill="#CCCCCC"/>
    <path d="M55.4291 11.0044H50.3652V12.0172H55.4291V11.0044Z" fill="#CCCCCC"/>
    <path d="M62.0136 15.4351H58.9753C58.6732 15.4348 58.3836 15.3146 58.17 15.101C57.9564 14.8874 57.8363 14.5978 57.8359 14.2958V1.88936C57.8363 1.58729 57.9564 1.29769 58.17 1.08409C58.3836 0.870489 58.6732 0.75034 58.9753 0.75H62.0136C62.3157 0.75034 62.6053 0.870489 62.8189 1.08409C63.0325 1.29769 63.1526 1.58729 63.153 1.88936V14.2958C63.1526 14.5978 63.0325 14.8874 62.8189 15.101C62.6053 15.3146 62.3157 15.4348 62.0136 15.4351Z" fill="#F2F2F2"/>
    <path d="M63.0267 3.15527H57.9629V4.16804H63.0267V3.15527Z" fill="#CCCCCC"/>
    <path d="M63.0267 11.0044H57.9629V12.0172H63.0267V11.0044Z" fill="#CCCCCC"/>
    <path d="M69.6093 15.4351H66.571C66.2689 15.4348 65.9793 15.3146 65.7657 15.101C65.5521 14.8874 65.432 14.5978 65.4316 14.2958V1.88936C65.432 1.58729 65.5521 1.29769 65.7657 1.08409C65.9793 0.870489 66.2689 0.75034 66.571 0.75H69.6093C69.9114 0.75034 70.201 0.870489 70.4146 1.08409C70.6282 1.29769 70.7483 1.58729 70.7487 1.88936V14.2958C70.7483 14.5978 70.6282 14.8874 70.4146 15.101C70.201 15.3146 69.9114 15.4348 69.6093 15.4351Z" fill="#F2F2F2"/>
    <path d="M70.6224 3.15527H65.5586V4.16804H70.6224V3.15527Z" fill="#CCCCCC"/>
    <path d="M70.6224 11.0044H65.5586V12.0172H70.6224V11.0044Z" fill="#CCCCCC"/>
    <path d="M77.205 15.4351H74.1667C73.8646 15.4348 73.575 15.3146 73.3614 15.101C73.1478 14.8874 73.0277 14.5978 73.0273 14.2958V1.88936C73.0277 1.58729 73.1478 1.29769 73.3614 1.08409C73.575 0.870489 73.8646 0.75034 74.1667 0.75H77.205C77.5071 0.75034 77.7967 0.870489 78.0103 1.08409C78.2239 1.29769 78.344 1.58729 78.3444 1.88936V14.2958C78.344 14.5978 78.2239 14.8874 78.0103 15.101C77.7967 15.3146 77.5071 15.4348 77.205 15.4351Z" fill="#F2F2F2"/>
    <path d="M78.2181 3.15527H73.1543V4.16804H78.2181V3.15527Z" fill="#CCCCCC"/>
    <path d="M78.2181 11.0044H73.1543V12.0172H78.2181V11.0044Z" fill="#CCCCCC"/>
    <path d="M88.5828 15.815H16.4231C16.356 15.815 16.2916 15.7883 16.2441 15.7408C16.1966 15.6933 16.1699 15.6289 16.1699 15.5618C16.1699 15.4946 16.1966 15.4302 16.2441 15.3827C16.2916 15.3353 16.356 15.3086 16.4231 15.3086H88.5828C88.65 15.3086 88.7144 15.3353 88.7619 15.3827C88.8093 15.4302 88.836 15.4946 88.836 15.5618C88.836 15.6289 88.8093 15.6933 88.7619 15.7408C88.7144 15.7883 88.65 15.815 88.5828 15.815Z" fill="#CCCCCC"/>
    <path d="M88.5828 36.3235H16.4231C16.356 36.3235 16.2916 36.2968 16.2441 36.2494C16.1966 36.2019 16.1699 36.1375 16.1699 36.0703C16.1699 36.0032 16.1966 35.9388 16.2441 35.8913C16.2916 35.8438 16.356 35.8171 16.4231 35.8171H88.5828C88.65 35.8171 88.7144 35.8438 88.7619 35.8913C88.8093 35.9388 88.836 36.0032 88.836 36.0703C88.836 36.1375 88.8093 36.2019 88.7619 36.2494C88.7144 36.2968 88.65 36.3235 88.5828 36.3235Z" fill="#CCCCCC"/>
    <path d="M88.5828 56.8321H16.4231C16.356 56.8321 16.2916 56.8054 16.2441 56.7579C16.1966 56.7104 16.1699 56.646 16.1699 56.5789C16.1699 56.5117 16.1966 56.4473 16.2441 56.3998C16.2916 56.3524 16.356 56.3257 16.4231 56.3257H88.5828C88.65 56.3257 88.7144 56.3524 88.7619 56.3998C88.8093 56.4473 88.836 56.5117 88.836 56.5789C88.836 56.646 88.8093 56.7104 88.7619 56.7579C88.7144 56.8054 88.65 56.8321 88.5828 56.8321Z" fill="#CCCCCC"/>
    <path d="M84.3095 96.5786C84.3095 94.6209 76.9412 93.0339 67.852 93.0339C58.7628 93.0339 51.3945 94.6209 51.3945 96.5786C51.3945 97.8333 54.4238 98.9349 58.9903 99.5648V118.986C58.9903 119.423 59.1637 119.841 59.4723 120.15C59.781 120.458 60.1996 120.632 60.636 120.632C61.0725 120.632 61.4911 120.458 61.7998 120.15C62.1084 119.841 62.2818 119.423 62.2818 118.986V99.9147C64.0217 100.049 65.8966 100.123 67.852 100.123C69.8074 100.123 71.6823 100.049 73.4222 99.9147V118.986C73.4222 119.423 73.5956 119.841 73.9043 120.15C74.2129 120.458 74.6315 120.632 75.068 120.632C75.5045 120.632 75.9231 120.458 76.2317 120.15C76.5403 119.841 76.7137 119.423 76.7137 118.986V99.5648C81.2802 98.9349 84.3095 97.8333 84.3095 96.5786Z" fill="#CCCCCC"/>
    <path d="M81.1431 117.448H84.2472L85.7238 105.475H81.1426L81.1431 117.448Z" fill="#A0616A"/>
    <path d="M90.2344 120.33L80.4787 120.33L80.4785 116.561L86.465 116.561C87.4646 116.56 88.4234 116.958 89.1303 117.664C89.8372 118.371 90.2343 119.33 90.2344 120.33Z" fill="#2F2E41"/>
    <path d="M85.9892 115.715L88.9508 114.786L86.7754 102.92L82.4043 104.292L85.9892 115.715Z" fill="#A0616A"/>
    <path d="M95.5254 115.743L86.2173 118.664L85.0887 115.068L90.8005 113.276C91.7543 112.976 92.7879 113.068 93.674 113.531C94.5601 113.994 95.2261 114.79 95.5254 115.743Z" fill="#2F2E41"/>
    <path d="M83.9116 110.205L78.2332 95.2988C76.9592 95.598 66.2758 97.9621 62.6976 94.1523C61.4713 92.8465 61.2322 90.9548 61.9867 88.5294L64.0749 85.9053L64.1398 85.9087C64.9294 85.9503 83.4927 86.9907 84.7652 92.5901C85.8381 97.3108 87.7975 106.112 88.3725 108.697C88.4308 108.965 88.3909 109.245 88.2601 109.486C88.1293 109.727 87.9164 109.912 87.66 110.009L85.3764 110.866C85.2491 110.914 85.1143 110.938 84.9784 110.938C84.7472 110.938 84.5215 110.868 84.331 110.737C84.1406 110.606 83.9943 110.42 83.9116 110.205Z" fill="#2F2E41"/>
    <path d="M80.6206 111.977L74.9422 97.0713C73.6682 97.3705 62.9848 99.7343 59.4066 95.9248C58.1803 94.619 57.9411 92.7272 58.6957 90.3019L60.7839 87.6777L60.8488 87.6812C61.6384 87.7227 80.2016 88.7632 81.4742 94.3626C82.5471 99.0832 84.5065 107.884 85.0815 110.469C85.1398 110.737 85.0999 111.017 84.9691 111.258C84.8383 111.499 84.6253 111.685 84.369 111.782L82.0854 112.638C81.9581 112.686 81.8233 112.711 81.6874 112.711C81.4562 112.711 81.2305 112.64 81.04 112.509C80.8496 112.378 80.7033 112.193 80.6206 111.977Z" fill="#2F2E41"/>
    <path d="M88.2941 76.2459C88.2102 76.3581 88.1353 76.4767 88.07 76.6007L75.5825 77.9164L73.785 75.4518L69.7109 77.6785L73.2416 83.6592L88.5565 79.7543C88.9429 80.131 89.4348 80.3812 89.9668 80.4715C90.4988 80.5618 91.0457 80.488 91.5348 80.26C92.0238 80.0319 92.4319 79.6603 92.7046 79.1947C92.9774 78.7291 93.1019 78.1915 93.0616 77.6533C93.0214 77.1152 92.8183 76.6021 92.4793 76.1822C92.1403 75.7624 91.6816 75.4556 91.164 75.3028C90.6465 75.15 90.0947 75.1584 89.582 75.3269C89.0693 75.4953 88.6201 75.8159 88.2941 76.2459Z" fill="#A0616A"/>
    <path d="M58.616 91.0889C58.4451 90.9657 58.3116 90.7977 58.2303 90.6034C58.1491 90.409 58.1232 90.196 58.1555 89.9879C58.86 85.3436 58.0494 78.6906 57.2454 73.9272C57.0808 72.9607 57.1448 71.9691 57.4324 71.0318C57.7199 70.0946 58.223 69.2376 58.9013 68.5298C59.5796 67.8219 60.4142 67.2827 61.3384 66.9554C62.2626 66.6281 63.2505 66.5218 64.2232 66.645C65.0694 66.7568 65.9077 66.922 66.733 67.1397C68.104 67.485 69.3166 68.2864 70.1717 69.4123C71.0267 70.5382 71.4732 71.9215 71.4378 73.3348C71.3176 77.9313 72.2509 83.6665 72.6578 85.9187C72.6856 86.0734 72.6811 86.2322 72.6448 86.3852C72.6085 86.5381 72.5411 86.6819 72.4467 86.8076C72.3542 86.932 72.2367 87.0357 72.1017 87.112C71.9667 87.1883 71.8173 87.2356 71.663 87.2507C67.1541 87.7109 62.2918 89.9097 59.7947 91.1794C59.6342 91.2622 59.4564 91.3057 59.2758 91.3062C59.0384 91.3055 58.8074 91.2294 58.616 91.0889Z" fill="#6C63FF"/>
    <path d="M70.7857 79.11C70.6463 79.0553 70.5192 78.9735 70.4117 78.8693C70.3042 78.7651 70.2184 78.6406 70.1594 78.503L67.6448 72.6942C67.4926 72.3432 67.411 71.9657 67.4047 71.5832C67.3984 71.2007 67.4676 70.8207 67.6082 70.4649C67.7489 70.1091 67.9583 69.7846 68.2244 69.5098C68.4906 69.235 68.8083 69.0153 69.1594 68.8633C69.5105 68.7114 69.8881 68.6301 70.2706 68.6241C70.6531 68.6182 71.0331 68.6877 71.3887 68.8286C71.7444 68.9696 72.0688 69.1792 72.3433 69.4456C72.6179 69.712 72.8373 70.0299 72.989 70.3811L75.5036 76.1899C75.6232 76.4673 75.628 76.7807 75.5168 77.0616C75.4057 77.3424 75.1877 77.5677 74.9106 77.6881L71.6576 79.0962C71.5204 79.1561 71.3727 79.1881 71.223 79.1905C71.0734 79.1929 70.9247 79.1655 70.7857 79.11Z" fill="#6C63FF"/>
    <path d="M76.3937 75.7395C76.3098 75.8517 76.2349 75.9704 76.1696 76.0944L63.6821 77.41L61.8846 74.9455L57.8105 77.1721L61.3412 83.1529L76.6561 79.248C77.0425 79.6247 77.5344 79.8748 78.0664 79.9652C78.5984 80.0555 79.1453 79.9817 79.6344 79.7536C80.1234 79.5255 80.5315 79.154 80.8042 78.6884C81.077 78.2227 81.2015 77.6851 81.1612 77.147C81.121 76.6089 80.9179 76.0957 80.5789 75.6759C80.2399 75.256 79.7812 74.9493 79.2636 74.7965C78.7461 74.6437 78.1943 74.6521 77.6816 74.8205C77.169 74.989 76.7197 75.3095 76.3937 75.7395Z" fill="#A0616A"/>
    <path d="M58.8872 79.3632C58.7479 79.3085 58.6208 79.2266 58.5133 79.1225C58.4058 79.0183 58.32 78.8938 58.2609 78.7562L55.7464 72.9474C55.5941 72.5964 55.5125 72.2189 55.5063 71.8364C55.5 71.4538 55.5691 71.0738 55.7098 70.7181C55.8505 70.3623 56.0598 70.0377 56.326 69.7629C56.5922 69.4881 56.9099 69.2685 57.261 69.1165C57.612 68.9645 57.9896 68.8833 58.3722 68.8773C58.7547 68.8713 59.1346 68.9408 59.4903 69.0818C59.8459 69.2227 60.1703 69.4324 60.4449 69.6988C60.7195 69.9652 60.9389 70.2831 61.0906 70.6343L63.6052 76.4431C63.7248 76.7204 63.7295 77.0339 63.6184 77.3147C63.5072 77.5956 63.2892 77.8209 63.0122 77.9412L59.7592 79.3494C59.622 79.4092 59.4743 79.4413 59.3246 79.4437C59.1749 79.4461 59.0263 79.4187 58.8872 79.3632Z" fill="#6C63FF"/>
    <path d="M63.7597 64.6688C67.1941 64.6688 69.9783 61.8846 69.9783 58.4501C69.9783 55.0156 67.1941 52.2314 63.7597 52.2314C60.3252 52.2314 57.541 55.0156 57.541 58.4501C57.541 61.8846 60.3252 64.6688 63.7597 64.6688Z" fill="#A0616A"/>
    <path d="M59.3132 62.7182C59.2865 62.6401 59.2781 62.557 59.2885 62.4752C59.2989 62.3933 59.3279 62.315 59.3732 62.2461C59.4186 62.1772 59.4791 62.1196 59.5502 62.0777C59.6213 62.0358 59.701 62.0107 59.7832 62.0044C59.9516 62.0136 60.1165 62.0568 60.2677 62.1314C60.419 62.206 60.5536 62.3106 60.6633 62.4386C60.8884 62.6981 61.1504 62.9231 61.4409 63.1063C61.7418 63.258 62.1497 63.2364 62.3212 62.9473C62.4823 62.6758 62.3719 62.3123 62.2744 61.9969C62.0264 61.1946 61.8876 60.3626 61.8618 59.5232C61.8337 58.5863 61.9659 57.6086 62.4845 56.8779C63.154 55.9348 64.3509 55.5768 65.4837 55.6027C66.6165 55.6287 67.7309 55.9784 68.853 56.1994C69.2403 56.2757 69.6957 56.3147 69.9547 56.0145C70.2302 55.6953 70.1291 55.1786 70.0119 54.7476C69.7078 53.6291 69.3852 52.4728 68.6788 51.5695C67.9149 50.6309 66.8237 50.0165 65.6251 49.8503C64.4743 49.7077 63.3061 49.8403 62.2165 50.2372C60.4413 50.7967 58.8793 51.8849 57.7393 53.3562C56.5642 54.9209 56.0564 56.8872 56.327 58.8252C56.5914 60.5131 57.4858 62.0381 58.83 63.0927L59.3132 62.7182Z" fill="#2F2E41"/>
    <path d="M35.5687 77.6892C35.8815 74.3203 36.7455 71.0257 38.1261 67.9369C38.5109 67.0773 38.9344 66.2367 39.3966 65.4149C39.4198 65.3719 39.4254 65.3216 39.4122 65.2746C39.399 65.2276 39.3681 65.1876 39.3259 65.1629C39.2838 65.1383 39.2337 65.131 39.1863 65.1426C39.1388 65.1541 39.0977 65.1837 39.0717 65.225C37.3907 68.2179 36.213 71.4668 35.5858 74.8418C35.4113 75.7843 35.2801 76.7334 35.1924 77.6892C35.17 77.9302 35.5466 77.9287 35.5687 77.6892Z" fill="#3F3D56"/>
    <path d="M40.3094 66.0185C41.6259 66.0185 42.6931 64.9513 42.6931 63.6349C42.6931 62.3184 41.6259 61.2512 40.3094 61.2512C38.993 61.2512 37.9258 62.3184 37.9258 63.6349C37.9258 64.9513 38.993 66.0185 40.3094 66.0185Z" fill="#6C63FF"/>
    <path d="M35.8131 77.7524C36.0161 75.5669 36.5766 73.4295 37.4722 71.4257C37.7219 70.868 37.9966 70.3226 38.2965 69.7895C38.3115 69.7617 38.3151 69.729 38.3066 69.6985C38.298 69.668 38.278 69.6421 38.2506 69.6261C38.2233 69.6101 38.1908 69.6053 38.16 69.6129C38.1292 69.6204 38.1026 69.6395 38.0857 69.6663C36.9951 71.608 36.2311 73.7157 35.8242 75.9052C35.711 76.5166 35.6259 77.1324 35.569 77.7524C35.5545 77.9088 35.7988 77.9078 35.8131 77.7524Z" fill="#3F3D56"/>
    <path d="M38.8882 70.1811C39.7422 70.1811 40.4346 69.4888 40.4346 68.6348C40.4346 67.7807 39.7422 67.0884 38.8882 67.0884C38.0341 67.0884 37.3418 67.7807 37.3418 68.6348C37.3418 69.4888 38.0341 70.1811 38.8882 70.1811Z" fill="#6C63FF"/>
    <path d="M35.5045 77.6062C34.3202 75.7582 33.4476 73.7282 32.9213 71.5973C32.7751 71.0041 32.6563 70.405 32.5649 69.8003C32.5596 69.769 32.5424 69.7411 32.5169 69.7223C32.4914 69.7035 32.4596 69.6954 32.4282 69.6996C32.3968 69.7038 32.3683 69.72 32.3486 69.7449C32.329 69.7697 32.3197 69.8012 32.3229 69.8328C32.6572 72.0345 33.3512 74.1663 34.377 76.1429C34.6638 76.6946 34.9755 77.2325 35.3119 77.7564C35.3967 77.8886 35.5887 77.7376 35.5045 77.6062Z" fill="#3F3D56"/>
    <path d="M32.3218 70.0725C33.1758 70.0725 33.8682 69.3802 33.8682 68.5261C33.8682 67.6721 33.1758 66.9797 32.3218 66.9797C31.4677 66.9797 30.7754 67.6721 30.7754 68.5261C30.7754 69.3802 31.4677 70.0725 32.3218 70.0725Z" fill="#6C63FF"/>
    <path d="M30.7578 78.9745V75.9362C30.7582 75.6342 30.8783 75.3446 31.0919 75.131C31.3055 74.9174 31.5951 74.7972 31.8972 74.7969H38.9866C39.2886 74.7972 39.5782 74.9174 39.7918 75.131C40.0054 75.3446 40.1256 75.6342 40.1259 75.9362V78.9745C40.1256 79.2766 40.0054 79.5662 39.7918 79.7798C39.5782 79.9934 39.2886 80.1136 38.9866 80.1139H31.8972C31.5951 80.1136 31.3055 79.9934 31.0919 79.7798C30.8783 79.5662 30.7582 79.2766 30.7578 78.9745Z" fill="#CCCCCC"/>
    <path d="M94.3102 78.0957H74.308C73.8186 78.0957 73.4219 78.4925 73.4219 78.9819C73.4219 79.4713 73.8186 79.868 74.308 79.868H94.3102C94.7996 79.868 95.1964 79.4713 95.1964 78.9819C95.1964 78.4925 94.7996 78.0957 94.3102 78.0957Z" fill="#CCCCCC"/>
    <path d="M107.731 79.8681H85.1965C84.7602 79.8676 84.3419 79.694 84.0334 79.3855C83.7248 79.077 83.5513 78.6587 83.5508 78.2223V65.8159C83.5513 65.3796 83.7248 64.9613 84.0334 64.6527C84.3419 64.3442 84.7602 64.1707 85.1965 64.1702H107.731C108.167 64.1707 108.585 64.3442 108.894 64.6527C109.202 64.9613 109.376 65.3796 109.376 65.8159V78.2223C109.376 78.6587 109.202 79.077 108.894 79.3855C108.585 79.694 108.167 79.8676 107.731 79.8681Z" fill="#CCCCCC"/>
    <path d="M96.4625 73.5383C97.3015 73.5383 97.9817 72.8582 97.9817 72.0192C97.9817 71.1801 97.3015 70.5 96.4625 70.5C95.6235 70.5 94.9434 71.1801 94.9434 72.0192C94.9434 72.8582 95.6235 73.5383 96.4625 73.5383Z" fill="white"/>
    <path d="M165.079 96.5786C165.079 94.6209 157.711 93.0339 148.622 93.0339C139.532 93.0339 132.164 94.6209 132.164 96.5786C132.164 97.8333 135.193 98.9349 139.76 99.5648V118.986C139.76 119.423 139.933 119.841 140.242 120.15C140.55 120.458 140.969 120.632 141.406 120.632C141.842 120.632 142.261 120.458 142.569 120.15C142.878 119.841 143.051 119.423 143.051 118.986V99.9147C144.791 100.049 146.666 100.123 148.622 100.123C150.577 100.123 152.452 100.049 154.192 99.9147V118.986C154.192 119.423 154.365 119.841 154.674 120.15C154.982 120.458 155.401 120.632 155.838 120.632C156.274 120.632 156.693 120.458 157.001 120.15C157.31 119.841 157.483 119.423 157.483 118.986V99.5648C162.05 98.9349 165.079 97.8333 165.079 96.5786Z" fill="#CCCCCC"/>
    <path d="M150.441 64.1341C154.356 64.1341 157.53 60.9601 157.53 57.0447C157.53 53.1293 154.356 49.9553 150.441 49.9553C146.526 49.9553 143.352 53.1293 143.352 57.0447C143.352 60.9601 146.526 64.1341 150.441 64.1341Z" fill="#2F2E41"/>
    <path d="M132.798 117.701H129.693L128.217 105.728H132.798L132.798 117.701Z" fill="#FFB8B8"/>
    <path d="M127.476 116.814H133.463V120.583H123.707C123.707 120.088 123.805 119.598 123.994 119.141C124.183 118.683 124.461 118.268 124.811 117.918C125.161 117.568 125.577 117.29 126.034 117.101C126.491 116.911 126.981 116.814 127.476 116.814Z" fill="#2F2E41"/>
    <path d="M127.952 115.969L124.99 115.039L127.166 103.173L131.537 104.545L127.952 115.969Z" fill="#FFB8B8"/>
    <path d="M123.141 113.529L128.853 115.321L127.724 118.918L118.416 115.997C118.565 115.524 118.804 115.086 119.122 114.706C119.44 114.327 119.829 114.013 120.268 113.784C120.706 113.555 121.186 113.415 121.679 113.371C122.172 113.327 122.669 113.381 123.141 113.529Z" fill="#2F2E41"/>
    <path d="M128.963 111.191C128.827 111.191 128.692 111.167 128.565 111.119L126.282 110.263C126.025 110.166 125.812 109.98 125.681 109.739C125.551 109.498 125.511 109.218 125.569 108.95C126.144 106.365 128.104 97.564 129.176 92.8433C130.449 87.2439 149.012 86.2034 149.802 86.1619L149.867 86.1584L151.955 88.7826C152.709 91.2079 152.47 93.0997 151.244 94.4055C147.666 98.2152 136.982 95.8512 135.708 95.552L130.03 110.458C129.947 110.674 129.801 110.859 129.611 110.99C129.42 111.121 129.194 111.191 128.963 111.191Z" fill="#2F2E41"/>
    <path d="M132.254 112.964C132.118 112.964 131.983 112.939 131.856 112.891L129.573 112.035C129.316 111.938 129.103 111.752 128.973 111.511C128.842 111.27 128.802 110.99 128.86 110.723C129.435 108.138 131.395 99.3364 132.467 94.6158C133.74 89.0164 152.303 87.9759 153.093 87.9344L153.158 87.9309L155.246 90.555C156 92.9804 155.761 94.8722 154.535 96.1779C150.957 99.9874 140.273 97.6237 138.999 97.3245L133.321 112.23C133.238 112.446 133.092 112.632 132.902 112.763C132.711 112.894 132.485 112.964 132.254 112.964Z" fill="#2F2E41"/>
    <path d="M125.646 76.499C125.73 76.6112 125.805 76.7299 125.87 76.8539L138.358 78.1695L140.155 75.705L144.229 77.9317L140.699 83.9124L125.384 80.0075C124.997 80.3842 124.505 80.6344 123.973 80.7247C123.441 80.815 122.894 80.7412 122.405 80.5131C121.916 80.2851 121.508 79.9135 121.236 79.4479C120.963 78.9823 120.838 78.4446 120.878 77.9065C120.919 77.3684 121.122 76.8553 121.461 76.4354C121.8 76.0155 122.259 75.7088 122.776 75.556C123.294 75.4032 123.845 75.4116 124.358 75.5801C124.871 75.7485 125.32 76.0691 125.646 76.499Z" fill="#FFB8B8"/>
    <path d="M154.666 91.5594C154.485 91.5588 154.307 91.5154 154.147 91.4326C151.65 90.1629 146.787 87.964 142.278 87.5039C142.124 87.4887 141.975 87.4415 141.84 87.3652C141.705 87.2889 141.587 87.1852 141.495 87.0608C141.4 86.9351 141.333 86.7913 141.297 86.6383C141.26 86.4854 141.256 86.3266 141.284 86.1719C141.69 83.9196 142.624 78.1845 142.504 73.588C142.468 72.1747 142.915 70.7914 143.77 69.6655C144.625 68.5396 145.837 67.7382 147.208 67.3929C148.034 67.1752 148.872 67.0099 149.718 66.8982C150.691 66.775 151.679 66.8813 152.603 67.2086C153.527 67.5359 154.362 68.0751 155.04 68.7829C155.718 69.4908 156.221 70.3477 156.509 71.285C156.797 72.2223 156.861 73.2139 156.696 74.1804C155.892 78.9438 155.081 85.5968 155.786 90.241C155.818 90.4492 155.792 90.6622 155.711 90.8565C155.63 91.0509 155.496 91.2189 155.325 91.3421C155.134 91.4825 154.903 91.5586 154.666 91.5594Z" fill="#6C63FF"/>
    <path d="M142.735 79.4438C142.58 79.4436 142.426 79.4115 142.283 79.3494L139.03 77.9412C138.753 77.8209 138.535 77.5956 138.424 77.3148C138.313 77.0339 138.317 76.7204 138.437 76.4431L140.952 70.6343C141.103 70.2831 141.323 69.9652 141.597 69.6988C141.872 69.4324 142.196 69.2227 142.552 69.0818C142.908 68.9408 143.288 68.8713 143.67 68.8773C144.053 68.8833 144.43 68.9645 144.781 69.1165C145.132 69.2685 145.45 69.4881 145.716 69.7629C145.982 70.0377 146.192 70.3623 146.332 70.7181C146.473 71.0738 146.542 71.4538 146.536 71.8364C146.53 72.2189 146.448 72.5964 146.296 72.9474L143.781 78.7562C143.693 78.9602 143.547 79.1339 143.361 79.2561C143.175 79.3782 142.958 79.4435 142.735 79.4438Z" fill="#6C63FF"/>
    <path d="M150.182 64.9219C153.616 64.9219 156.4 62.1377 156.4 58.7033C156.4 55.2688 153.616 52.4846 150.182 52.4846C146.747 52.4846 143.963 55.2688 143.963 58.7033C143.963 62.1377 146.747 64.9219 150.182 64.9219Z" fill="#FFB8B8"/>
    <path d="M143.852 55.648C146.797 57.4461 150.118 58.5403 153.555 58.8454L152.533 57.6198C153.277 57.8952 154.061 58.0508 154.855 58.0809C155.647 58.0686 156.477 57.7634 156.927 57.1108C157.128 56.7863 157.247 56.4182 157.275 56.0377C157.302 55.6572 157.237 55.2757 157.086 54.9258C156.774 54.2277 156.289 53.6211 155.676 53.1635C154.591 52.3048 153.309 51.7279 151.947 51.4844C150.584 51.2409 149.183 51.3382 147.867 51.7678C146.964 52.0376 146.156 52.5561 145.534 53.264C144.945 53.9913 143.81 54.6393 144.112 55.5255L143.852 55.648Z" fill="#2F2E41"/>
    <path d="M151.226 50.6297C149.265 48.6407 146.891 47.1059 144.273 46.1332C142.592 45.5105 140.762 45.1258 139.005 45.4794C137.248 45.833 135.586 47.0487 135.096 48.7729C134.695 50.1827 135.109 51.7007 135.731 53.0279C136.353 54.3551 137.183 55.5857 137.687 56.9624C138.2 58.3672 138.354 59.8778 138.136 61.3573C137.917 62.8369 137.332 64.2383 136.435 65.4346C135.537 66.6308 134.355 67.584 132.996 68.2074C131.636 68.8309 130.143 69.105 128.65 69.0048C130.377 69.2363 131.969 70.0477 133.656 70.4796C135.344 70.9115 137.336 70.8822 138.59 69.6732C139.917 68.3939 139.943 66.314 139.879 64.472L139.593 56.2572C139.545 54.8607 139.503 53.4195 140.007 52.1161C140.51 50.8127 141.707 49.6713 143.104 49.6832C144.163 49.6922 145.101 50.3337 145.95 50.9664C146.799 51.599 147.698 52.274 148.753 52.3681C149.808 52.4622 151.012 51.6816 150.933 50.6256" fill="#2F2E41"/>
    <path d="M122.32 71.9189L136.639 72.257L138.713 87.5639L125.49 87.8607L122.32 71.9189Z" fill="#E6E6E6"/>
    <path d="M137.546 75.9927C137.63 76.1049 137.705 76.2236 137.77 76.3476L150.258 77.6632L152.056 75.1986L156.13 77.4253L152.599 83.406L137.284 79.5012C136.898 79.8779 136.406 80.128 135.874 80.2183C135.342 80.3087 134.795 80.2349 134.306 80.0068C133.817 79.7787 133.409 79.4072 133.136 78.9415C132.863 78.4759 132.739 77.9383 132.779 77.4002C132.819 76.862 133.022 76.3489 133.361 75.9291C133.7 75.5092 134.159 75.2025 134.677 75.0497C135.194 74.8969 135.746 74.9053 136.259 75.0737C136.771 75.2422 137.22 75.5627 137.546 75.9927Z" fill="#FFB8B8"/>
    <path d="M154.636 79.697C154.48 79.6968 154.326 79.6646 154.183 79.6026L150.93 78.1944C150.653 78.0741 150.435 77.8488 150.324 77.5679C150.213 77.2871 150.218 76.9736 150.337 76.6963L152.852 70.8874C153.004 70.5362 153.223 70.2183 153.498 69.952C153.772 69.6856 154.097 69.4759 154.452 69.335C154.808 69.194 155.188 69.1245 155.57 69.1305C155.953 69.1364 156.331 69.2177 156.682 69.3697C157.033 69.5216 157.35 69.7413 157.617 70.0161C157.883 70.2909 158.092 70.6155 158.233 70.9712C158.373 71.327 158.443 71.707 158.436 72.0895C158.43 72.4721 158.348 72.8496 158.196 73.2005L155.682 79.0094C155.593 79.2134 155.447 79.3871 155.261 79.5092C155.075 79.6314 154.858 79.6966 154.636 79.697Z" fill="#6C63FF"/>
    <path d="M125.201 79.6147H24.4309C23.9944 79.6147 23.5758 79.7881 23.2672 80.0968C22.9585 80.4054 22.7852 80.824 22.7852 81.2605C22.7852 81.697 22.9585 82.1156 23.2672 82.4242C23.5758 82.7329 23.9944 82.9062 24.4309 82.9062H27.3426V118.733C27.3426 119.169 27.516 119.588 27.8246 119.897C28.1333 120.205 28.5519 120.379 28.9884 120.379C29.4248 120.379 29.8434 120.205 30.1521 119.897C30.4607 119.588 30.6341 119.169 30.6341 118.733V86.0686L49.0845 119.51C49.3032 119.887 49.6626 120.162 50.0837 120.274C50.5049 120.386 50.9535 120.327 51.331 120.109C51.7085 119.891 51.9841 119.532 52.0973 119.111C52.2106 118.691 52.1522 118.242 51.935 117.864L32.6479 82.9062H120.77V82.9276L101.495 117.864C101.277 118.242 101.218 118.691 101.331 119.113C101.444 119.534 101.72 119.894 102.098 120.112C102.476 120.33 102.925 120.389 103.346 120.276C103.768 120.163 104.127 119.888 104.346 119.51L120.77 89.7398V118.733C120.77 119.169 120.944 119.588 121.253 119.897C121.561 120.205 121.98 120.379 122.416 120.379C122.853 120.379 123.271 120.205 123.58 119.897C123.889 119.588 124.062 119.169 124.062 118.733V83.774L124.541 82.9062H125.201C125.638 82.9062 126.056 82.7329 126.365 82.4242C126.674 82.1156 126.847 81.697 126.847 81.2605C126.847 80.824 126.674 80.4054 126.365 80.0968C126.056 79.7881 125.638 79.6147 125.201 79.6147Z" fill="#3F3D56"/>
    <path d="M187.463 120.75H0.533022C0.453218 120.75 0.376763 120.718 0.320415 120.661C0.264066 120.605 0.232422 120.528 0.232422 120.448C0.232422 120.369 0.264066 120.292 0.320415 120.236C0.376763 120.179 0.453218 120.147 0.533022 120.147H187.463C187.543 120.147 187.62 120.179 187.676 120.235C187.733 120.292 187.765 120.368 187.765 120.448C187.765 120.528 187.733 120.605 187.676 120.662C187.62 120.718 187.543 120.75 187.463 120.75Z" fill="#3F3D56"/>
  </g>
  <defs>
    <clipPath id="clip0_515_57802">
      <rect width="187.533" height="120" fill="white" transform="translate(0.232422 0.75)"/>
    </clipPath>
  </defs>
</svg>