<svg width="17" height="17" viewBox="0 0 17 17" fill="none" xmlns="http://www.w3.org/2000/svg">
<g clip-path="url(#clip0_505_13963)">
<path d="M16.42 7.87L14.82 8.03C14.82 8.27 14.82 8.51 14.82 8.75C14.82 12.27 11.94 15.15 8.42 15.15C4.9 15.15 2.02 12.27 2.02 8.75C2.02 5.23 4.9 2.35 8.42 2.35C8.66 2.35 8.9 2.35 9.06 2.35L9.22 0.75C9.06 0.75 8.74 0.75 8.5 0.75C4.1 0.75 0.5 4.35 0.5 8.75C0.5 13.15 4.1 16.75 8.5 16.75C12.9 16.75 16.5 13.15 16.5 8.75C16.5 8.43 16.5 8.19 16.42 7.87Z" fill="#FF5252"/>
<path d="M9.29922 7.94995V3.94995H7.69922V9.54995H11.6992V7.94995H9.29922Z" fill="#FF5252"/>
<path d="M10.9 5.2301L12.02 6.3501L14.9 3.4701L14.9 5.5501L16.5 5.5501L16.5 0.750098L11.7 0.750097L11.7 2.3501L13.78 2.3501L10.9 5.2301Z" fill="#FF5252"/>
</g>
<defs>
<clipPath id="clip0_505_13963">
<rect width="16" height="16" fill="white" transform="translate(0.5 0.75)"/>
</clipPath>
</defs>
</svg>
