<svg width="269" height="132" viewBox="0 0 269 132" fill="none" xmlns="http://www.w3.org/2000/svg">
<g clip-path="url(#clip0_7857_84193)">
<path d="M81.6643 75.9302C80.4655 75.9315 79.3161 76.4084 78.4684 77.2561C77.6207 78.1038 77.1439 79.2531 77.1426 80.452V91.0307C77.1439 92.2295 77.6207 93.3789 78.4684 94.2266C79.3161 95.0743 80.4655 95.5511 81.6643 95.5525H87.3996C88.5984 95.5511 89.7478 95.0743 90.5955 94.2266C91.4431 93.3789 91.92 92.2295 91.9213 91.0307V80.452C91.92 79.2531 91.4431 78.1038 90.5955 77.2561C89.7478 76.4084 88.5984 75.9315 87.3996 75.9302H81.6643Z" fill="#3F3D56"/>
<path d="M187.685 95.9044H181.95C180.658 95.903 179.419 95.389 178.505 94.4753C177.592 93.5617 177.078 92.3229 177.076 91.0308V80.452C177.078 79.1599 177.592 77.9211 178.505 77.0075C179.419 76.0938 180.658 75.5798 181.95 75.5784H187.685C188.977 75.5798 190.216 76.0938 191.13 77.0075C192.043 77.9211 192.557 79.1599 192.559 80.452V91.0308C192.557 92.3229 192.043 93.5617 191.13 94.4753C190.216 95.389 188.977 95.903 187.685 95.9044Z" fill="#3F3D56"/>
<path d="M183.88 87.4344H85.12C80.6254 87.4344 76.9688 84.7847 76.9688 81.5278V62.5367L81.8708 57.3743H188.083L192.032 62.5476V81.5278C192.032 84.7847 188.375 87.4344 183.88 87.4344Z" fill="#CCCCCC"/>
<path d="M187.621 66.8747H82.4322L81.3633 50.4839L82.0435 48.8066L85.9974 39.0767H183.343L188.69 50.1257L187.621 66.8747Z" fill="#CCCCCC"/>
<path d="M188.512 50.1608L187.727 62.4763H164.584V53.3275L187.853 48.8025L188.512 50.1608Z" fill="white"/>
<path d="M105.119 53.3276V62.4764H82.3242L81.543 50.5126L82.2082 48.873L105.119 53.3276Z" fill="white"/>
<path d="M182.758 41.8918H86.584L96.8416 7.69987C97.26 6.28773 98.1215 5.04766 99.2989 4.1629C100.476 3.27813 101.907 2.79562 103.38 2.78669L167.072 2.18001C168.611 2.16509 170.111 2.66561 171.333 3.60184C172.554 4.53806 173.427 5.85615 173.813 7.34612L182.758 41.8918Z" fill="#CCCCCC"/>
<path d="M175.354 38.6587L93.9721 37.6937C93.8692 37.6925 93.768 37.6671 93.6767 37.6197C93.5854 37.5722 93.5065 37.504 93.4463 37.4206C93.3862 37.3371 93.3465 37.2407 93.3304 37.139C93.3143 37.0374 93.3222 36.9334 93.3537 36.8354L101.155 12.494C101.198 12.3613 101.281 12.2456 101.394 12.1635C101.507 12.0814 101.642 12.0371 101.782 12.0371H167.239C167.378 12.0371 167.514 12.0813 167.626 12.1634C167.739 12.2455 167.822 12.3611 167.865 12.4937L175.988 37.8002C176.02 37.8994 176.028 38.0048 176.011 38.1077C175.994 38.2105 175.953 38.3079 175.891 38.3918C175.829 38.4756 175.748 38.5435 175.655 38.59C175.561 38.6364 175.458 38.6599 175.354 38.6587Z" fill="white"/>
<path d="M157.09 18.1518C157.069 18.1266 157.046 18.1035 157.023 18.0804C155.722 16.7667 153.955 16.0192 152.106 16.0004C150.257 15.9815 148.475 16.6927 147.148 17.9796C147.133 17.9922 147.12 18.0048 147.108 18.0174C147.091 18.0321 147.076 18.0468 147.061 18.0615C146.408 18.7137 145.889 19.4886 145.535 20.3416C145.181 21.1947 145 22.1092 145 23.0327V27.4412C145 27.6916 145.1 27.9317 145.277 28.1088C145.454 28.2858 145.694 28.3855 145.945 28.3859H158.121C158.371 28.3855 158.611 28.2858 158.788 28.1088C158.965 27.9317 159.065 27.6916 159.065 27.4412V23.0327C159.067 21.2106 158.358 19.4597 157.09 18.1518Z" fill="#2F2E41"/>
<path d="M152.314 28.3422C155.162 28.3422 157.47 26.0338 157.47 23.1861C157.47 20.3385 155.162 18.03 152.314 18.03C149.467 18.03 147.158 20.3385 147.158 23.1861C147.158 26.0338 149.467 28.3422 152.314 28.3422Z" fill="#FFB7B7"/>
<path d="M157.734 22.7471L157.125 18.4939C157.106 18.3634 157.04 18.2444 156.938 18.1602C156.904 18.1327 156.867 18.1095 156.827 18.0909C153.709 16.6319 150.548 16.6319 147.431 18.0867C147.389 18.1059 147.35 18.1306 147.315 18.1602C147.302 18.1707 147.29 18.1832 147.277 18.1958C147.194 18.2819 147.142 18.3936 147.13 18.5128L146.723 22.7723C146.716 22.8451 146.725 22.9186 146.748 22.988C146.771 23.0574 146.808 23.1212 146.857 23.1754C146.937 23.2627 147.043 23.3204 147.16 23.3391C147.188 23.3451 147.217 23.348 147.246 23.3475H148.279C148.378 23.3472 148.476 23.3186 148.561 23.2651C148.645 23.2116 148.712 23.1354 148.755 23.0452L149.202 22.0879C149.231 22.0259 149.279 21.9749 149.339 21.9427C149.4 21.9105 149.469 21.8988 149.536 21.9095C149.604 21.9202 149.666 21.9527 149.713 22.0019C149.76 22.0512 149.79 22.1146 149.798 22.1824L149.887 22.8878C149.903 23.0145 149.965 23.131 150.061 23.2155C150.156 23.3001 150.28 23.347 150.407 23.3475H157.215C157.304 23.348 157.392 23.3248 157.469 23.2804C157.523 23.2511 157.571 23.2127 157.612 23.167C157.661 23.1098 157.698 23.0427 157.719 22.9703C157.74 22.8979 157.745 22.8217 157.734 22.7471Z" fill="#2F2E41"/>
<path d="M163.269 36.7885L164.73 41.6799C163.822 42.3151 162.872 42.8868 161.885 43.3908C161.558 43.5588 161.228 43.7183 160.892 43.8695L159.379 37.3805L158.791 34.8635L162.57 34.4436L163.269 36.7885Z" fill="#FFB7B7"/>
<path d="M145.881 35.9763L145.755 42.5849L145.701 45.5092C144.253 45.203 142.837 44.7624 141.471 44.193L141.972 37.9329L142.098 36.3542L145.881 35.9763Z" fill="#FFB7B7"/>
<path d="M163.326 37.633L159.498 37.9083L159.497 38.5335L159.47 44.8312C155.534 46.082 151.346 46.3152 147.296 45.5091C146.595 45.3708 145.905 45.2018 145.227 45.0021C145.637 43.7241 145.996 42.5727 145.683 42.3169C145.589 42.2394 145.5 42.1552 145.418 42.0649C143.989 40.4744 144.815 37.1966 144.815 37.1966L142.004 37.1357L141.031 37.1153C141.031 37.1153 141.966 30.4497 143.85 30.5951L146.152 30.7727L157.326 30.5819C157.326 30.5819 160.547 29.7776 161.271 31.3073C161.651 32.1094 162.308 33.7982 162.849 35.2253C163.338 36.5222 163.733 37.6033 163.733 37.6033L163.326 37.633Z" fill="#2F2E41"/>
<path d="M145.638 6.3523H123.702C123.517 6.3523 123.35 6.17034 123.265 5.87723C123.18 5.57715 123.192 5.25795 123.3 4.96524L125.109 0.390878C125.201 0.157728 125.351 0.0185547 125.511 0.0185547H143.829C143.989 0.0185547 144.139 0.157728 144.232 0.390878L146.04 4.96524C146.148 5.25795 146.16 5.57715 146.075 5.87723C145.99 6.17034 145.823 6.3523 145.638 6.3523Z" fill="#6C63FF"/>
<path d="M86.6436 41.1879H72.2168V38.0169C72.2179 36.9918 72.6257 36.009 73.3505 35.2841C74.0754 34.5593 75.0582 34.1515 76.0833 34.1504H86.6436V41.1879Z" fill="#CCCCCC"/>
<path d="M197.134 41.1879H182.707V34.1504H193.267C194.292 34.1515 195.275 34.5593 196 35.2841C196.725 36.009 197.133 36.9918 197.134 38.0169V41.1879Z" fill="#CCCCCC"/>
<path d="M70.5291 90.6198L0 115.956L0.299401 116.79L70.8285 91.4532L70.5291 90.6198Z" fill="#3F3D56"/>
<path d="M198.375 90.6214L198.076 91.4548L268.607 116.785L268.907 115.951L198.375 90.6214Z" fill="#3F3D56"/>
<path d="M138.595 108.992H134.373V103.539H138.595V108.992ZM138.595 98.0863H134.373V92.6335H138.595V98.0863Z" fill="#E6E6E6"/>
<path d="M138.595 131.579H134.373V126.127H138.595V131.579ZM138.595 120.674H134.373V115.221H138.595V120.674Z" fill="#E6E6E6"/>
<rect x="139" y="38" width="26" height="10" fill="#CCCCCC"/>
</g>
<defs>
<clipPath id="clip0_7857_84193">
<rect width="269" height="132" fill="white"/>
</clipPath>
</defs>
</svg>
