<svg width="25" height="24" viewBox="0 0 25 24" fill="none" xmlns="http://www.w3.org/2000/svg">
<g id="alternate_email_FILL0_wght400_GRAD0_opsz24 1">
<path id="Vector" d="M12.25 22C10.8667 22 9.56667 21.7375 8.35 21.2125C7.13333 20.6875 6.075 19.975 5.175 19.075C4.275 18.175 3.5625 17.1167 3.0375 15.9C2.5125 14.6833 2.25 13.3833 2.25 12C2.25 10.6167 2.5125 9.31667 3.0375 8.1C3.5625 6.88333 4.275 5.825 5.175 4.925C6.075 4.025 7.13333 3.3125 8.35 2.7875C9.56667 2.2625 10.8667 2 12.25 2C13.6333 2 14.9333 2.2625 16.15 2.7875C17.3667 3.3125 18.425 4.025 19.325 4.925C20.225 5.825 20.9375 6.88333 21.4625 8.1C21.9875 9.31667 22.25 10.6167 22.25 12V13.45C22.25 14.4333 21.9125 15.2708 21.2375 15.9625C20.5625 16.6542 19.7333 17 18.75 17C18.1667 17 17.6167 16.875 17.1 16.625C16.5833 16.375 16.15 16.0167 15.8 15.55C15.3167 16.0333 14.7708 16.3958 14.1625 16.6375C13.5542 16.8792 12.9167 17 12.25 17C10.8667 17 9.6875 16.5125 8.7125 15.5375C7.7375 14.5625 7.25 13.3833 7.25 12C7.25 10.6167 7.7375 9.4375 8.7125 8.4625C9.6875 7.4875 10.8667 7 12.25 7C13.6333 7 14.8125 7.4875 15.7875 8.4625C16.7625 9.4375 17.25 10.6167 17.25 12V13.45C17.25 13.8833 17.3917 14.25 17.675 14.55C17.9583 14.85 18.3167 15 18.75 15C19.1833 15 19.5417 14.85 19.825 14.55C20.1083 14.25 20.25 13.8833 20.25 13.45V12C20.25 9.76667 19.475 7.875 17.925 6.325C16.375 4.775 14.4833 4 12.25 4C10.0167 4 8.125 4.775 6.575 6.325C5.025 7.875 4.25 9.76667 4.25 12C4.25 14.2333 5.025 16.125 6.575 17.675C8.125 19.225 10.0167 20 12.25 20H17.25V22H12.25ZM12.25 15C13.0833 15 13.7917 14.7083 14.375 14.125C14.9583 13.5417 15.25 12.8333 15.25 12C15.25 11.1667 14.9583 10.4583 14.375 9.875C13.7917 9.29167 13.0833 9 12.25 9C11.4167 9 10.7083 9.29167 10.125 9.875C9.54167 10.4583 9.25 11.1667 9.25 12C9.25 12.8333 9.54167 13.5417 10.125 14.125C10.7083 14.7083 11.4167 15 12.25 15Z" fill="#052439"/>
</g>
</svg>
