<svg width="190" height="190" viewBox="0 0 190 190" fill="none" xmlns="http://www.w3.org/2000/svg">
<g clip-path="url(#clip0_2294_73470)">
<ellipse cx="95" cy="94.9106" rx="95" ry="94.9106" fill="#F1F1F1"/>
<g clip-path="url(#clip1_2294_73470)">
<path d="M42.0266 132.93C40.8278 132.931 39.6784 133.408 38.8307 134.256C37.983 135.103 37.5062 136.253 37.5049 137.451V148.03C37.5062 149.229 37.983 150.378 38.8307 151.226C39.6784 152.074 40.8278 152.551 42.0266 152.552H47.7619C48.9607 152.551 50.1101 152.074 50.9578 151.226C51.8055 150.378 52.2823 149.229 52.2836 148.03V137.451C52.2823 136.253 51.8055 135.103 50.9578 134.256C50.1101 133.408 48.9607 132.931 47.7619 132.93H42.0266Z" fill="#3F3D56"/>
<path d="M148.046 152.904H142.311C141.019 152.903 139.78 152.389 138.867 151.475C137.953 150.561 137.439 149.323 137.438 148.031V137.452C137.439 136.16 137.953 134.921 138.867 134.007C139.78 133.094 141.019 132.58 142.311 132.578H148.046C149.338 132.58 150.577 133.094 151.491 134.007C152.405 134.921 152.918 136.16 152.92 137.452V148.031C152.918 149.323 152.405 150.561 151.491 151.475C150.577 152.389 149.338 152.903 148.046 152.904Z" fill="#3F3D56"/>
<path d="M144.241 144.435H45.4804C40.9857 144.435 37.3291 141.785 37.3291 138.529V119.537L42.2311 114.375H148.444L152.392 119.548V138.529C152.392 141.785 148.735 144.435 144.241 144.435Z" fill="#CCCCCC"/>
<path d="M147.983 123.874H42.7945L41.7256 107.483L42.4058 105.806L46.3597 96.0762H143.706L149.052 107.125L147.983 123.874Z" fill="#CCCCCC"/>
<path d="M148.873 107.161L148.088 119.477H124.945V110.328L148.215 105.803L148.873 107.161Z" fill="white"/>
<path d="M65.4793 110.328V119.476H42.6846L41.9033 107.513L42.5685 105.873L65.4793 110.328Z" fill="white"/>
<path d="M143.118 98.8918H46.9443L57.202 64.6999C57.6203 63.2877 58.4819 62.0477 59.6593 61.1629C60.8367 60.2781 62.2676 59.7956 63.7403 59.7867L127.433 59.18C128.972 59.1651 130.472 59.6656 131.693 60.6018C132.915 61.5381 133.788 62.8562 134.173 64.3461L143.118 98.8918Z" fill="#CCCCCC"/>
<path d="M135.715 95.6587L54.3334 94.6937C54.2305 94.6925 54.1293 94.6671 54.038 94.6197C53.9467 94.5722 53.8678 94.504 53.8077 94.4206C53.7475 94.3371 53.7078 94.2407 53.6917 94.139C53.6756 94.0374 53.6836 93.9334 53.715 93.8354L61.5167 69.494C61.5592 69.3613 61.6428 69.2456 61.7554 69.1635C61.8679 69.0814 62.0036 69.0371 62.1429 69.0371H127.6C127.739 69.0371 127.875 69.0813 127.988 69.1634C128.1 69.2455 128.184 69.3611 128.226 69.4937L136.349 94.8002C136.381 94.8994 136.389 95.0048 136.372 95.1077C136.355 95.2105 136.314 95.3079 136.252 95.3918C136.19 95.4756 136.109 95.5435 136.016 95.59C135.923 95.6364 135.82 95.6599 135.715 95.6587Z" fill="white"/>
<path d="M105.999 63.3533H84.0636C83.8787 63.3533 83.7111 63.1713 83.626 62.8782C83.5412 62.5781 83.5535 62.2589 83.661 61.9662L85.4698 57.3919C85.5621 57.1587 85.7126 57.0195 85.8725 57.0195H104.19C104.35 57.0195 104.501 57.1587 104.593 57.3919L106.402 61.9662C106.509 62.2589 106.521 62.5781 106.437 62.8782C106.352 63.1713 106.184 63.3533 105.999 63.3533Z" fill="#6C63FF"/>
<path d="M47.005 98.1879H32.5781V95.0169C32.5793 93.9918 32.987 93.009 33.7119 92.2841C34.4367 91.5593 35.4195 91.1515 36.4446 91.1504H47.005V98.1879Z" fill="#CCCCCC"/>
<path d="M157.494 98.1879H143.067V91.1504H153.628C154.653 91.1515 155.636 91.5593 156.361 92.2841C157.085 93.009 157.493 93.9918 157.494 95.0169V98.1879Z" fill="#CCCCCC"/>
</g>
<path d="M160.687 29.4023L29.8496 160.24" stroke="#E6E6E6" stroke-width="10.7244"/>
</g>
<defs>
<clipPath id="clip0_2294_73470">
<rect width="190" height="189.821" fill="white"/>
</clipPath>
<clipPath id="clip1_2294_73470">
<rect width="125" height="96" fill="white" transform="translate(32.5 57)"/>
</clipPath>
</defs>
</svg>
