<svg width="190" height="190" viewBox="0 0 190 190" fill="none" xmlns="http://www.w3.org/2000/svg">
<g clip-path="url(#clip0_2294_73448)">
<ellipse cx="95" cy="94.9106" rx="95" ry="94.9106" fill="#F1F1F1"/>
<path d="M71.184 95.0834L58.0951 100.683C57.3759 100.99 56.5644 100.999 55.8386 100.708C55.1128 100.417 54.532 99.8501 54.2236 99.1316L46.9984 82.243C46.6917 81.5237 46.6827 80.7122 46.9736 79.9864C47.2644 79.2606 47.8313 78.6798 48.5498 78.3715L61.6387 72.7718C62.358 72.4651 63.1695 72.4562 63.8953 72.747C64.6211 73.0379 65.2018 73.6048 65.5102 74.3233L72.7355 91.2119C73.0422 91.9312 73.0511 92.7427 72.7603 93.4685C72.4694 94.1943 71.9025 94.7751 71.184 95.0834Z" fill="#F2F2F2"/>
<path d="M93.3315 85.6089L80.2426 91.2085C79.5234 91.5152 78.7118 91.5241 77.9861 91.2333C77.2603 90.9424 76.6795 90.3756 76.3711 89.657L69.1458 72.7684C68.8391 72.0491 68.8302 71.2376 69.1211 70.5118C69.4119 69.786 69.9788 69.2052 70.6973 68.8969L83.7862 63.2972C84.5054 62.9905 85.3169 62.9816 86.0427 63.2724C86.7685 63.5633 87.3493 64.1301 87.6577 64.8487L94.8829 81.7373C95.1897 82.4566 95.1986 83.2681 94.9077 83.9939C94.6169 84.7197 94.05 85.3005 93.3315 85.6089Z" fill="#F2F2F2"/>
<path d="M149.885 135.403H35.3418C34.5599 135.403 33.8102 135.092 33.2574 134.539C32.7045 133.986 32.3935 133.236 32.3926 132.454V61.8247C32.3932 61.2519 32.621 60.7027 33.0261 60.2976C33.4311 59.8926 33.9803 59.6647 34.5532 59.6641H150.636C151.219 59.6647 151.778 59.8965 152.19 60.3086C152.602 60.7207 152.833 61.2793 152.834 61.8621V132.454C152.833 133.236 152.522 133.986 151.969 134.539C151.416 135.092 150.667 135.403 149.885 135.403Z" fill="#E6E6E6"/>
<path d="M146.182 131.68H39.4307C37.8659 131.68 36.5928 130.488 36.5928 129.023V67.5178C36.5928 66.4311 37.5362 65.5469 38.6958 65.5469H146.882C148.061 65.5469 149.02 66.4456 149.02 67.5503V129.023C149.02 130.488 147.747 131.68 146.182 131.68Z" fill="white"/>
<path d="M152.793 62.192H32.3516V60.6905C32.3527 59.906 32.665 59.154 33.2199 58.5994C33.7748 58.0449 34.527 57.7331 35.3115 57.7324H149.833C150.618 57.7331 151.37 58.0449 151.925 58.5994C152.48 59.154 152.792 59.906 152.793 60.6905V62.192Z" fill="#6C63FF"/>
<path d="M37.7305 60.7324C38.1533 60.7324 38.4961 60.3896 38.4961 59.9668C38.4961 59.5439 38.1533 59.2012 37.7305 59.2012C37.3076 59.2012 36.9648 59.5439 36.9648 59.9668C36.9648 60.3896 37.3076 60.7324 37.7305 60.7324Z" fill="white"/>
<path d="M40.6367 60.7324C41.0595 60.7324 41.4023 60.3896 41.4023 59.9668C41.4023 59.5439 41.0595 59.2012 40.6367 59.2012C40.2139 59.2012 39.8711 59.5439 39.8711 59.9668C39.8711 60.3896 40.2139 60.7324 40.6367 60.7324Z" fill="white"/>
<path d="M43.543 60.7324C43.9658 60.7324 44.3086 60.3896 44.3086 59.9668C44.3086 59.5439 43.9658 59.2012 43.543 59.2012C43.1201 59.2012 42.7773 59.5439 42.7773 59.9668C42.7773 60.3896 43.1201 60.7324 43.543 60.7324Z" fill="white"/>
<path d="M140.403 82.8125H89.8248C87.7998 82.8125 86.1582 84.4541 86.1582 86.4791V86.4791C86.1582 88.5041 87.7998 90.1457 89.8248 90.1457H140.403C142.428 90.1457 144.07 88.5041 144.07 86.4791C144.07 84.4541 142.428 82.8125 140.403 82.8125Z" fill="#E6E6E6"/>
<path d="M140.403 94.9473H89.8248C87.7998 94.9473 86.1582 96.5889 86.1582 98.6139V98.6139C86.1582 100.639 87.7998 102.281 89.8248 102.281H140.403C142.428 102.281 144.07 100.639 144.07 98.6139C144.07 96.5889 142.428 94.9473 140.403 94.9473Z" fill="#E6E6E6"/>
<path d="M140.403 107.082H89.8248C87.7998 107.082 86.1582 108.724 86.1582 110.749V110.749C86.1582 112.774 87.7998 114.415 89.8248 114.415H140.403C142.428 114.415 144.07 112.774 144.07 110.749C144.07 108.724 142.428 107.082 140.403 107.082Z" fill="#E6E6E6"/>
<path d="M81.4018 98.6125C81.4018 102.501 80.2487 106.302 78.0882 109.536C75.9278 112.769 72.8572 115.289 69.2645 116.777C65.6719 118.265 61.7186 118.655 57.9047 117.896C54.0908 117.137 50.5875 115.265 47.8378 112.515C45.0881 109.765 43.2155 106.262 42.4569 102.448C41.6983 98.6343 42.0876 94.6811 43.5757 91.0884C45.0639 87.4958 47.5839 84.4251 50.8172 82.2647C54.0505 80.1043 57.8518 78.9512 61.7404 78.9512C66.9545 78.9528 71.9544 81.0248 75.6413 84.7117C79.3281 88.3985 81.4001 93.3985 81.4018 98.6125Z" fill="white"/>
<path d="M70.8282 101.977C70.6135 114.552 51.9092 114.55 51.6963 101.977C51.911 89.4026 70.6153 89.4045 70.8282 101.977Z" fill="#6C63FF"/>
<path d="M60.882 105.88L60.8721 105.523C63.3359 105.852 63.8665 102.798 61.3818 103.94L61.949 99.7949L62.3031 99.8434L61.8207 103.369C64.4369 102.98 63.4692 106.238 60.882 105.88Z" fill="#2F2E41"/>
<path d="M65.98 100.148H64.0547V100.506H65.98V100.148Z" fill="#2F2E41"/>
<path d="M59.9028 100.148H57.9775V100.506H59.9028V100.148Z" fill="#2F2E41"/>
<path d="M64.3631 115.351C64.7385 112.819 61.7732 113.319 60.2038 113.294C59.9508 113.295 59.7011 113.352 59.473 113.462C59.2449 113.571 59.0441 113.73 58.8852 113.927C58.7263 114.124 58.6133 114.354 58.5545 114.6C58.4957 114.846 58.4925 115.102 58.5452 115.35C57.3305 115.725 56.2057 116.346 55.2402 117.173C59.3088 118.592 63.7298 118.64 67.8289 117.312C66.8296 116.415 65.647 115.746 64.3631 115.351Z" fill="#2F2E41"/>
<path d="M56.7642 97.454C58.537 96.4295 60.6869 97.2155 62.5181 97.6452C65.9925 98.7133 70.8647 97.3759 71.2872 93.2371C71.7269 89.388 66.4614 87.2427 64.7784 91.0737L65.2684 91.0096C59.8103 82.8981 50.3161 83.2057 50.3785 94.3577C50.3583 94.7022 50.8945 94.701 50.9146 94.3575C50.7137 87.7858 55.0629 83.2936 61.2109 87.5168C62.6179 88.5434 63.7564 89.903 64.8054 91.2803C65.4457 91.9978 65.5848 88.9076 68.6494 89.717C72.022 91.0236 70.9215 95.8529 67.907 96.913C64.1823 98.8159 60.1484 95.1265 56.4935 96.9908C56.4347 97.0279 56.3926 97.0865 56.3761 97.1541C56.3596 97.2217 56.37 97.2931 56.4051 97.3532C56.4402 97.4132 56.4972 97.4573 56.5642 97.4762C56.6312 97.495 56.7029 97.4871 56.7642 97.454Z" fill="#2F2E41"/>
<path d="M61.7407 118.81C56.6634 118.806 51.7742 116.888 48.0483 113.439C44.3224 109.99 42.0336 105.263 41.6384 100.201C41.2432 95.1386 42.7706 90.1137 45.9161 86.128C49.0615 82.1423 53.5938 79.4887 58.6089 78.6965C63.6241 77.9042 68.7536 79.0316 72.9745 81.8537C77.1953 84.6758 80.1972 88.9852 81.3816 93.9225C82.5659 98.8598 81.8457 104.062 79.3644 108.492C76.8831 112.922 72.8232 116.253 67.9944 117.823C65.9749 118.479 63.8643 118.813 61.7407 118.81ZM61.7407 79.4877C57.9574 79.4872 54.2588 80.6086 51.1129 82.7102C47.9669 84.8118 45.5148 87.7991 44.0667 91.2944C42.6186 94.7897 42.2396 98.6358 42.9776 102.347C43.7156 106.057 45.5374 109.466 48.2126 112.141C50.8878 114.816 54.2963 116.638 58.007 117.376C61.7177 118.114 65.5639 117.735 69.0592 116.287C72.5544 114.839 75.5418 112.387 77.6434 109.241C79.7449 106.095 80.8664 102.396 80.8658 98.6128C80.8601 93.5423 78.8433 88.6811 75.2579 85.0957C71.6725 81.5102 66.8113 79.4934 61.7407 79.4877Z" fill="#3F3D56"/>
<path d="M160.687 29.4023L29.8496 160.24" stroke="#E6E6E6" stroke-width="10.7244"/>
</g>
<defs>
<clipPath id="clip0_2294_73448">
<rect width="190" height="189.821" fill="white"/>
</clipPath>
</defs>
</svg>
