<svg xmlns="http://www.w3.org/2000/svg" width="16" height="17" viewBox="0 0 16 17" fill="none">
  <path d="M15.7956 9.72842L14.813 9.05736L15.0859 8.83936C15.3276 8.6463 15.3192 8.27473 15.0677 8.09314L6.05434 1.58392C5.6495 1.29152 5.08738 1.36752 4.77463 1.7568L1.81241 5.44386C1.47553 5.86327 1.56056 6.48123 1.99844 6.79395L4.25031 8.40208L3.34625 9.68652C3.19663 9.89911 3.24872 10.193 3.46216 10.3413L3.78441 10.5651C3.25859 11.0725 2.55344 11.3596 1.81691 11.3596H0.9375V10.344C0.9375 10.0851 0.727625 9.8752 0.46875 9.8752C0.209875 9.8752 0 10.0851 0 10.344V15.1252C0 15.3841 0.209875 15.594 0.46875 15.594C0.727625 15.594 0.9375 15.3841 0.9375 15.1252V14.1721H1.57288C3.25544 14.1721 4.90044 13.4645 6.06884 12.1518L6.53769 12.4774C6.75169 12.626 7.04591 12.5715 7.1925 12.3563L8.04172 11.1096L9.97256 12.4885C10.143 12.6102 10.3737 12.6042 10.5376 12.4732L11.2372 11.9143L13.0562 13.2236C13.2583 13.369 13.5386 13.3311 13.6948 13.1375L15.8961 10.4099C16.0677 10.1972 16.0216 9.8827 15.7956 9.72842ZM1.57288 13.2345H0.9375V12.297H1.81688C2.85925 12.297 3.85431 11.8649 4.5655 11.1076L5.29225 11.6124C4.33878 12.6355 2.98191 13.2345 1.57288 13.2345ZM6.68394 11.4375L4.38434 9.84039L5.01325 8.94689L7.27859 10.5646L6.68394 11.4375ZM10.2291 11.5197L2.54325 6.03102L5.50547 2.34395L14.0187 8.49198L10.2291 11.5197ZM13.2438 12.2035L11.9977 11.3066L14.0469 9.66939L14.8476 10.2162L13.2438 12.2035Z" fill="white"/>
  <path d="M11.75 8.5C12.0089 8.5 12.2188 8.29013 12.2188 8.03125C12.2188 7.77237 12.0089 7.5625 11.75 7.5625C11.4911 7.5625 11.2812 7.77237 11.2812 8.03125C11.2812 8.29013 11.4911 8.5 11.75 8.5Z" fill="black"/>
</svg>