<svg width="317" height="191" viewBox="0 0 317 191" fill="none" xmlns="http://www.w3.org/2000/svg">
<g clip-path="url(#clip0_1286_55337)">
<path d="M53.3396 181.359C53.086 181.371 52.8349 181.304 52.6204 181.168C52.4058 181.033 52.2382 180.834 52.1403 180.6C52.0423 180.365 52.0187 180.107 52.0727 179.859C52.1267 179.611 52.2557 179.385 52.4421 179.213L52.527 178.875C52.5158 178.848 52.5046 178.821 52.4933 178.794C52.2378 178.191 51.8096 177.676 51.2625 177.315C50.7155 176.954 50.074 176.763 49.4186 176.765C48.7632 176.768 48.1231 176.964 47.5787 177.329C47.0344 177.694 46.6101 178.212 46.359 178.817C45.3557 181.234 44.0784 183.654 43.7639 186.209C43.6254 187.338 43.6838 188.483 43.9366 189.592C41.5801 184.452 40.3565 178.865 40.3486 173.211C40.3481 171.792 40.427 170.374 40.5848 168.964C40.7152 167.808 40.8961 166.66 41.1276 165.52C42.3906 159.337 45.1023 153.541 49.04 148.61C50.9459 147.57 52.4872 145.971 53.4562 144.028C53.8073 143.329 54.0554 142.584 54.1929 141.814C53.9779 141.843 53.3822 138.568 53.5444 138.367C53.2448 137.913 52.7085 137.687 52.3813 137.243C50.7539 135.037 48.5117 135.422 47.3412 138.42C44.8408 139.682 44.8166 141.775 46.3508 143.788C47.327 145.069 47.4611 146.802 48.3175 148.173C48.2294 148.285 48.1378 148.395 48.0497 148.507C46.439 150.579 45.0351 152.803 43.8582 155.148C44.1444 152.521 43.8029 149.863 42.8616 147.394C41.9076 145.092 40.1196 143.154 38.545 141.165C36.6537 138.775 32.7753 139.818 32.4421 142.847C32.4388 142.877 32.4357 142.906 32.4326 142.935C32.6665 143.067 32.8954 143.207 33.1195 143.355C33.4009 143.543 33.6189 143.812 33.745 144.126C33.8712 144.44 33.8995 144.785 33.8263 145.115C33.7531 145.446 33.5818 145.746 33.3348 145.978C33.0878 146.209 32.7767 146.361 32.4422 146.412L32.408 146.417C32.4913 147.26 32.6386 148.096 32.8485 148.916C30.8285 156.728 35.1896 159.573 41.4166 159.701C41.554 159.772 41.688 159.842 41.8255 159.909C40.6431 163.26 39.9014 166.75 39.6191 170.292C39.4593 172.382 39.4687 174.481 39.6473 176.569L39.6367 176.495C39.1856 174.173 37.9469 172.078 36.1298 170.564C33.4311 168.347 29.6183 167.53 26.7068 165.748C26.3974 165.55 26.0376 165.444 25.6699 165.443C25.3022 165.442 24.9419 165.546 24.6315 165.743C24.3212 165.941 24.0736 166.222 23.9182 166.556C23.7627 166.889 23.7057 167.26 23.754 167.624C23.7579 167.65 23.7619 167.676 23.7659 167.702C24.1999 167.879 24.6225 168.082 25.0312 168.312C25.2651 168.444 25.494 168.584 25.718 168.732C25.9994 168.92 26.2175 169.188 26.3436 169.502C26.4697 169.816 26.498 170.161 26.4248 170.492C26.3516 170.822 26.1803 171.123 25.9333 171.354C25.6864 171.586 25.3753 171.737 25.0408 171.789L25.0065 171.794C24.9818 171.797 24.9607 171.801 24.9361 171.804C25.6776 173.575 26.7184 175.205 28.0129 176.622C29.276 183.442 34.7008 184.089 40.5037 182.103H40.5073C41.144 184.87 42.0665 187.563 43.2599 190.139H53.0932C53.1285 190.03 53.1602 189.917 53.1919 189.807C52.2817 189.865 51.368 189.81 50.471 189.645C51.2006 188.75 51.9302 187.848 52.6597 186.953C52.676 186.936 52.6913 186.918 52.7056 186.9C53.0756 186.442 53.4492 185.987 53.8193 185.529L53.8195 185.528C53.8392 184.124 53.6777 182.722 53.3396 181.359Z" fill="#F2F2F2"/>
<path d="M258.725 181.359C258.979 181.371 259.23 181.304 259.445 181.168C259.659 181.033 259.827 180.834 259.925 180.6C260.023 180.365 260.046 180.107 259.992 179.859C259.938 179.611 259.809 179.385 259.623 179.213L259.538 178.875C259.549 178.848 259.56 178.821 259.572 178.794C259.827 178.191 260.255 177.676 260.802 177.315C261.349 176.954 261.991 176.763 262.646 176.765C263.302 176.768 263.942 176.964 264.486 177.329C265.031 177.694 265.455 178.212 265.706 178.817C266.709 181.234 267.987 183.654 268.301 186.209C268.44 187.338 268.381 188.483 268.128 189.592C270.485 184.452 271.708 178.865 271.716 173.211C271.717 171.792 271.638 170.374 271.48 168.964C271.35 167.808 271.169 166.66 270.937 165.52C269.674 159.337 266.963 153.541 263.025 148.61C261.119 147.57 259.578 145.971 258.609 144.028C258.258 143.329 258.01 142.584 257.872 141.814C258.087 141.843 258.683 138.568 258.521 138.367C258.82 137.913 259.356 137.687 259.684 137.243C261.311 135.037 263.553 135.422 264.724 138.42C267.224 139.682 267.248 141.775 265.714 143.788C264.738 145.069 264.604 146.802 263.747 148.173C263.836 148.285 263.927 148.395 264.015 148.507C265.626 150.579 267.03 152.803 268.207 155.148C267.92 152.521 268.262 149.863 269.203 147.394C270.157 145.092 271.945 143.154 273.52 141.165C275.411 138.775 279.29 139.818 279.623 142.847C279.626 142.877 279.629 142.906 279.632 142.935C279.398 143.067 279.169 143.207 278.945 143.355C278.664 143.543 278.446 143.812 278.32 144.126C278.194 144.44 278.165 144.785 278.239 145.115C278.312 145.446 278.483 145.746 278.73 145.978C278.977 146.209 279.288 146.361 279.623 146.412L279.657 146.417C279.574 147.26 279.426 148.096 279.216 148.916C281.236 156.728 276.875 159.573 270.648 159.701C270.511 159.772 270.377 159.842 270.239 159.909C271.422 163.26 272.164 166.75 272.446 170.292C272.606 172.382 272.596 174.481 272.418 176.569L272.428 176.495C272.879 174.173 274.118 172.078 275.935 170.564C278.634 168.347 282.447 167.53 285.358 165.748C285.668 165.55 286.027 165.444 286.395 165.443C286.763 165.442 287.123 165.546 287.433 165.743C287.744 165.941 287.991 166.222 288.147 166.556C288.302 166.889 288.359 167.26 288.311 167.624C288.307 167.65 288.303 167.676 288.299 167.702C287.865 167.879 287.442 168.082 287.034 168.312C286.8 168.444 286.571 168.584 286.347 168.732C286.066 168.92 285.847 169.188 285.721 169.502C285.595 169.816 285.567 170.161 285.64 170.492C285.713 170.822 285.885 171.123 286.132 171.354C286.379 171.586 286.69 171.737 287.024 171.789L287.058 171.794C287.083 171.797 287.104 171.801 287.129 171.804C286.387 173.575 285.347 175.205 284.052 176.622C282.789 183.442 277.364 184.089 271.561 182.103H271.558C270.921 184.87 269.998 187.563 268.805 190.139H258.972C258.936 190.03 258.905 189.917 258.873 189.807C259.783 189.865 260.697 189.81 261.594 189.645C260.864 188.75 260.135 187.848 259.405 186.953C259.389 186.936 259.374 186.918 259.359 186.9C258.989 186.442 258.616 185.987 258.246 185.529L258.245 185.528C258.226 184.124 258.387 182.722 258.725 181.359Z" fill="#F2F2F2"/>
<path d="M64.6504 189.919H80.5183C83.2322 180.781 80.5328 159.185 84.1099 150.358C90.9729 133.434 99.7404 115.576 116.105 107.312C123.092 103.784 130.71 102.406 138.49 102.481C149.238 102.582 160.288 105.468 170.404 109.291C174.542 110.852 178.643 112.568 182.727 114.321C198.115 120.933 213.335 128.135 229.883 130.082C250.823 132.543 275.442 123.175 281.161 102.995C285.526 87.5458 277.665 71.5062 269.421 57.7082C261.176 43.9102 251.961 29.1469 253.466 13.1717C253.472 13.1181 253.477 13.0591 253.488 13.0055C254.054 7.2675 257.481 3.14376 262.266 0.5H241.429C241.154 15.4027 249.776 28.5571 257.535 41.5453C265.779 55.3379 273.64 71.3828 269.275 86.8325C263.556 107.007 216.199 83.3584 195.259 80.8916C189.346 80.1998 198.739 82.6612 193.101 80.8916C184.258 78.1191 183.277 103.548 174.672 99.8154C169.314 97.488 163.951 95.1767 158.518 93.1229C156.268 92.2702 153.97 91.4712 151.644 90.7311C151.639 90.7311 151.639 90.7311 151.633 90.7258C136.019 85.7815 118.943 83.8563 104.515 91.0046C104.418 91.0529 104.316 91.1012 104.219 91.1494C87.8544 99.4078 79.0868 117.265 72.2238 134.19C66.5532 148.181 67.4452 175.161 64.6504 189.919Z" fill="#F2F2F2"/>
<path d="M152.932 189.451C193.183 189.451 225.812 156.821 225.812 116.571C225.812 76.3205 193.183 43.6912 152.932 43.6912C112.682 43.6912 80.0527 76.3205 80.0527 116.571C80.0527 156.821 112.682 189.451 152.932 189.451Z" fill="white"/>
<path d="M152.724 189.918C80.6172 191.575 79.0361 157.318 79.0361 116.571C79.0361 75.8244 112.186 42.6746 152.933 42.6746C193.679 42.6746 226.829 75.8245 226.829 116.571C226.829 157.318 193.471 189.918 152.724 189.918ZM152.933 44.7079C113.307 44.7079 81.7367 76.951 81.0694 116.571C80.4488 153.422 119.597 199.407 152.933 188.434C170.809 168.746 221.352 147.54 224.796 116.571C229.174 77.188 192.558 44.7079 152.933 44.7079Z" fill="#3F3D56"/>
<path d="M142.99 154.501C141.731 154.501 140.49 154.208 139.365 153.645C138.239 153.082 137.26 152.265 136.505 151.258L116.622 124.747C115.983 123.896 115.518 122.926 115.253 121.895C114.989 120.863 114.93 119.79 115.08 118.736C115.231 117.681 115.587 116.667 116.13 115.751C116.672 114.834 117.39 114.034 118.242 113.395C119.094 112.756 120.063 112.291 121.095 112.027C122.127 111.763 123.2 111.705 124.254 111.856C125.308 112.007 126.323 112.364 127.239 112.907C128.155 113.449 128.955 114.168 129.593 115.02L142.601 132.362L176.011 82.2492C177.204 80.4614 179.058 79.2206 181.166 78.7996C183.274 78.3786 185.462 78.8119 187.251 80.0042C189.039 81.1964 190.281 83.0501 190.703 85.1577C191.125 87.2652 190.693 89.4541 189.502 91.2431L149.736 150.891C149.017 151.97 148.049 152.861 146.915 153.488C145.78 154.116 144.512 154.463 143.216 154.499C143.14 154.5 143.065 154.501 142.99 154.501Z" fill="#F2F2F2"/>
<path d="M0.218752 189.975C0.218547 190.044 0.231987 190.112 0.258295 190.176C0.284603 190.24 0.323263 190.298 0.372049 190.347C0.420836 190.396 0.478782 190.434 0.542563 190.46C0.606344 190.487 0.674702 190.5 0.743694 190.5H316.257C316.396 190.5 316.53 190.445 316.628 190.346C316.727 190.248 316.782 190.114 316.782 189.975C316.782 189.836 316.727 189.702 316.628 189.604C316.53 189.506 316.396 189.45 316.257 189.45H0.743694C0.674703 189.45 0.60635 189.463 0.54257 189.49C0.47879 189.516 0.420842 189.555 0.372056 189.603C0.32327 189.652 0.284611 189.71 0.258302 189.774C0.231993 189.838 0.218549 189.906 0.218752 189.975Z" fill="#CCCCCC"/>
<path d="M199.472 184.83H195.205L193.175 168.369L199.473 168.37L199.472 184.83Z" fill="#FFB6B6"/>
<path d="M199.623 189.281L186.5 189.281V189.115C186.5 187.76 187.038 186.461 187.996 185.503C188.954 184.545 190.253 184.007 191.608 184.007L194.005 182.188L198.478 184.007L199.623 184.007L199.623 189.281Z" fill="#2F2E41"/>
<path d="M180.92 164.429L176.978 166.064L168.797 151.637L174.615 149.225L180.92 164.429Z" fill="#FFB6B6"/>
<path d="M182.764 168.484L170.642 173.511L170.578 173.357C170.059 172.106 170.059 170.7 170.576 169.448C171.094 168.196 172.088 167.201 173.339 166.682L174.857 164.084L179.685 164.051L180.743 163.612L182.764 168.484Z" fill="#2F2E41"/>
<path d="M204.351 91.1941L174.066 94.3582L170.015 108.003L155.985 130.549C155.985 130.549 165.775 147.026 164.856 146.846C163.937 146.667 165.774 151.158 167.061 150.897C168.348 150.636 169.686 153.565 168.796 154.086C167.906 154.606 171.476 159.009 171.476 159.009L176.931 154.112C178.091 145.36 176.689 137.57 171.695 131.13L187.324 114.257L190.288 113.027L192.64 175.64L201.342 175.783C203.743 163.432 204.949 152.315 203.072 144.385C203.072 144.385 203.342 120.562 204.371 120.822C205.4 121.083 204.528 117.979 204.528 117.979C204.528 117.979 203.626 115.336 204.734 114.24C205.841 113.143 205.15 106.694 205.15 106.694C206.979 100.59 206.428 95.5511 204.351 91.1941Z" fill="#2F2E41"/>
<path d="M181.065 40.8422L189.437 38.6727L193.346 33.2825L202.627 34.4234L204.603 41.7758L211.21 45.6112C211.21 45.6112 207.558 84.2388 208.427 86.3599C209.295 88.4809 212.41 88.3058 209.75 91.0399C207.09 93.7741 206.738 92.6728 207.355 95.6495C207.972 98.6261 212.472 101.776 207.355 101.745C202.238 101.714 171.361 101.273 172.243 97.7439C173.125 94.2151 173.111 95.1112 174.442 92.8988C175.772 90.6864 176.667 91.9227 176.22 88.6579C175.772 85.3932 176.213 83.1877 176.213 81.4233C176.213 79.6589 177.691 63.6256 177.691 63.6256L181.065 40.8422Z" fill="#E6E6E6"/>
<path d="M197.963 32.2861C203.395 32.2861 207.799 27.8826 207.799 22.4507C207.799 17.0187 203.395 12.6152 197.963 12.6152C192.531 12.6152 188.128 17.0187 188.128 22.4507C188.128 27.8826 192.531 32.2861 197.963 32.2861Z" fill="#FFB6B6"/>
<path d="M187.657 16.4983C188.521 17.1962 188.323 20.5903 189.285 20.0371C190.248 19.4838 190.448 18.4932 191.556 18.4828C192.459 18.5327 193.312 18.9183 193.945 19.564C194.063 19.6706 194.175 19.7823 194.284 19.8928C194.384 19.8579 194.482 19.8262 194.586 19.8002C195.363 19.6105 196.184 19.726 196.878 20.123C196.237 20.1688 195.626 20.415 195.132 20.8269C195.344 21.064 195.559 21.3023 195.784 21.5226C197.668 23.3686 201.53 21.4028 204.127 20.9592C201.964 23.3208 202.39 24.6392 202.928 27.7958L202.931 27.9682C203.041 27.2403 205.373 27.2766 204.988 28.2425C204.506 29.1967 203.902 30.0846 203.191 30.884C206.368 28.6833 208.933 25.6498 209.499 21.9854C209.616 21.2149 209.843 20.4288 209.623 19.6776C209.53 19.2978 209.314 18.9596 209.008 18.7158C208.702 18.472 208.324 18.3363 207.933 18.33C208.287 17.206 208.329 16.007 208.056 14.8607C207.783 13.7143 207.205 12.6634 206.382 11.8196C205.559 10.9758 204.523 10.3707 203.384 10.0687C202.245 9.76662 201.046 9.77889 199.913 10.1042C198.88 10.4714 197.872 10.9064 196.896 11.4063C195.911 11.9082 194.796 12.097 193.701 11.9475C193.019 11.8065 192.327 11.4532 191.659 11.6533C190.884 11.8857 190.551 12.7042 190.24 13.4943C190.823 13.7072 191.329 14.0892 191.694 14.5913C191.091 14.3689 190.434 14.3422 189.815 14.515C189.804 14.517 189.793 14.52 189.782 14.5241C189.08 15.7814 189.039 16.0898 187.657 16.4983Z" fill="#2F2E41"/>
<path d="M190.9 36.0379C185.863 35.6323 181.263 39.485 179.166 44.0833C177.069 48.6816 176.931 53.8981 176.829 58.951L176.513 74.6579C176.466 76.9822 176.419 79.3068 176.304 81.6287C176.244 83.888 175.96 86.1357 175.455 88.3388C174.428 92.3814 172.169 95.9838 169.942 99.511C175.642 101.234 181.439 102.618 187.303 103.657C190.231 94.186 193.192 84.4429 192.473 74.5557C192.092 69.3238 190.685 64.2157 190.15 58.9973C189.392 51.6066 190.396 44.1614 191.398 36.7998" fill="#3F3D56"/>
<path d="M203.129 36.9214C208.119 37.7237 211.673 42.5585 212.618 47.5233C213.563 52.4881 212.458 57.5879 211.357 62.5205C210.216 67.6314 209.075 72.7423 207.934 77.8532C207.428 80.1221 206.921 82.3914 206.482 84.6743C206.056 86.8921 207.842 89.7364 207.862 91.9947C207.9 96.1656 207.09 99.6007 208.415 103.556C202.469 103.876 196.509 103.844 190.567 103.461C189.971 93.5652 189.408 83.3974 192.455 73.964C194.068 68.9722 196.648 64.3444 198.406 59.4023C200.897 52.4029 201.69 44.9322 202.465 37.5432" fill="#3F3D56"/>
<path d="M206.455 108.226C206.085 107.58 205.981 106.815 206.166 106.094C206.35 105.372 206.809 104.752 207.445 104.363C207.575 104.287 207.712 104.221 207.853 104.166L207.217 82.5015L214.11 80.7471L211.481 105.988C211.661 106.591 211.636 107.237 211.41 107.824C211.185 108.412 210.771 108.908 210.233 109.236C209.925 109.42 209.585 109.541 209.23 109.592C208.876 109.644 208.514 109.626 208.167 109.538C207.82 109.45 207.493 109.295 207.206 109.081C206.919 108.867 206.676 108.598 206.493 108.29C206.48 108.269 206.468 108.247 206.455 108.226Z" fill="#FFB6B6"/>
<path d="M205.952 45.5765C205.952 45.5765 210.763 41.5078 214.812 49.6432C218.86 57.7785 216.598 76.3639 216.028 77.3558C215.458 78.3477 215.11 76.9659 215.423 79.6099C215.676 81.7603 214.167 81.4913 214.709 81.9502C216.136 83.1602 212.138 83.298 214.192 84.3642C216.245 85.4303 207.055 85.63 207.055 85.63C207.055 85.63 205.944 84.8362 206.716 81.8429C207.149 80.1616 208.235 79.5466 207.077 78.7686C205.919 77.9907 208.273 75.5856 208.275 75.0578C208.276 74.5301 204.604 62.9879 204.604 62.9879L205.952 45.5765Z" fill="#3F3D56"/>
<path d="M166.138 145.797C164.88 145.797 163.639 145.504 162.513 144.941C161.388 144.378 160.408 143.561 159.654 142.554L139.771 116.043C139.132 115.192 138.666 114.222 138.402 113.191C138.137 112.159 138.078 111.086 138.229 110.032C138.379 108.977 138.736 107.963 139.278 107.047C139.821 106.13 140.538 105.33 141.39 104.691C142.242 104.052 143.212 103.587 144.243 103.323C145.275 103.059 146.349 103.001 147.403 103.152C148.457 103.302 149.471 103.66 150.387 104.202C151.303 104.745 152.103 105.463 152.742 106.316L165.75 123.658L199.159 73.5451C199.75 72.6593 200.509 71.8985 201.394 71.3061C202.278 70.7137 203.271 70.3013 204.315 70.0925C205.359 69.8837 206.433 69.8826 207.478 70.0892C208.522 70.2958 209.516 70.7061 210.402 71.2966C211.287 71.8872 212.048 72.6464 212.641 73.531C213.233 74.4156 213.645 75.4082 213.854 76.4522C214.063 77.4961 214.064 78.571 213.857 79.6154C213.651 80.6598 213.241 81.6532 212.65 82.539L172.885 142.187C172.165 143.266 171.198 144.157 170.063 144.784C168.929 145.412 167.66 145.758 166.364 145.795C166.289 145.796 166.214 145.797 166.138 145.797Z" fill="#6C63FF"/>
<path d="M181.295 104.462C181.7 103.838 181.846 103.08 181.702 102.35C181.557 101.619 181.133 100.974 180.52 100.551C180.394 100.467 180.262 100.394 180.123 100.332L181.956 78.7355L175.171 76.6028L176.4 101.95C176.187 102.542 176.177 103.189 176.37 103.788C176.563 104.387 176.948 104.906 177.467 105.262C177.764 105.463 178.098 105.602 178.449 105.674C178.8 105.745 179.161 105.746 179.513 105.678C179.865 105.609 180.199 105.472 180.498 105.275C180.797 105.077 181.054 104.822 181.254 104.525C181.268 104.504 181.281 104.483 181.295 104.462Z" fill="#FFB6B6"/>
<path d="M185.266 41.9813C185.266 41.9813 180.687 37.6528 176.195 45.552C171.703 53.4512 172.935 72.1332 173.449 73.1551C173.963 74.177 174.387 72.8166 173.929 75.4393C173.557 77.5723 175.079 77.3872 174.513 77.8154C173.02 78.9447 177.004 79.3032 174.895 80.2543C172.786 81.2053 181.951 81.9125 181.951 81.9125C181.951 81.9125 183.104 81.1814 182.499 78.15C182.159 76.4474 181.109 75.7733 182.308 75.0605C183.507 74.3477 181.29 71.8162 181.318 71.2892C181.345 70.7621 185.649 59.4405 185.649 59.4405L185.266 41.9813Z" fill="#3F3D56"/>
</g>
<defs>
<clipPath id="clip0_1286_55337">
<rect width="316.563" height="190" fill="white" transform="translate(0.21875 0.5)"/>
</clipPath>
</defs>
</svg>
