<svg width="302" height="191" viewBox="0 0 302 191" fill="none" xmlns="http://www.w3.org/2000/svg">
<g clip-path="url(#clip0_1425_29857)">
<path d="M220.182 46.7713C220.182 65.0001 191.688 118.758 175.351 148.083C174.243 150.073 172.623 151.73 170.66 152.884C168.696 154.038 166.46 154.647 164.183 154.647C161.905 154.647 159.669 154.038 157.706 152.884C155.742 151.73 154.123 150.073 153.015 148.083C136.678 118.758 108.184 65.0001 108.184 46.7713C108.184 21.2164 133.256 0.5 164.183 0.5C195.11 0.5 220.182 21.2164 220.182 46.7713Z" fill="#6C63FF"/>
<path d="M164.446 76.742C181.289 76.742 194.943 63.088 194.943 46.245C194.943 29.402 181.289 15.748 164.446 15.748C147.603 15.748 133.949 29.402 133.949 46.245C133.949 63.088 147.603 76.742 164.446 76.742Z" fill="white"/>
<path d="M37.1839 73.8396C47.2722 73.8396 55.4504 65.6614 55.4504 55.5731C55.4504 45.4848 47.2722 37.3066 37.1839 37.3066C27.0957 37.3066 18.9175 45.4848 18.9175 55.5731C18.9175 65.6614 27.0957 73.8396 37.1839 73.8396Z" fill="#FF6584"/>
<path d="M164.183 190.5C188.603 190.5 208.399 188.971 208.399 187.086C208.399 185.201 188.603 183.673 164.183 183.673C139.763 183.673 119.966 185.201 119.966 187.086C119.966 188.971 139.763 190.5 164.183 190.5Z" fill="#6C63FF"/>
<path opacity="0.4" d="M33.4647 71.8168C34.3944 66.0879 30.5038 60.69 24.7749 59.7603C19.046 58.8306 13.6482 62.7212 12.7185 68.4501C11.7888 74.179 15.6793 79.5769 21.4083 80.5066C27.1372 81.4362 32.535 77.5457 33.4647 71.8168Z" fill="#6C63FF"/>
<path d="M268.955 124.344C186.198 93.3208 85.2631 123.565 26.9876 185.432C26.6563 185.779 26.3251 186.132 26.0043 186.484H25.1157C25.4207 186.132 25.7362 185.779 26.0464 185.432C85.5313 118.859 185.125 92.3271 268.955 124.344Z" fill="#3F3D56"/>
<path d="M291.57 134.634C284.255 130.733 276.701 127.296 268.955 124.344C276.722 127.247 284.278 130.686 291.57 134.634Z" fill="#3F3D56"/>
<path opacity="0.4" d="M246.277 103.683C252.642 103.683 257.803 98.5222 257.803 92.1567C257.803 85.7912 252.642 80.6309 246.277 80.6309C239.911 80.6309 234.751 85.7912 234.751 92.1567C234.751 98.5222 239.911 103.683 246.277 103.683Z" fill="#6C63FF"/>
<path d="M247.56 180.811C248.451 184.104 251.502 186.143 251.502 186.143C251.502 186.143 253.108 182.844 252.218 179.551C251.327 176.259 248.276 174.22 248.276 174.22C248.276 174.22 246.669 177.519 247.56 180.811Z" fill="#3F3D56"/>
<path d="M248.869 180.104C251.313 182.483 251.612 186.14 251.612 186.14C251.612 186.14 247.947 185.94 245.503 183.561C243.059 181.182 242.761 177.524 242.761 177.524C242.761 177.524 246.425 177.724 248.869 180.104Z" fill="#6C63FF"/>
<path d="M2.15327 135.031V140.11L1.90088 140.384V134.979C1.98501 134.994 2.06916 135.015 2.15327 135.031Z" fill="#3F3D56"/>
<path d="M18.3377 185.43C18.2641 185.551 18.1852 185.672 18.1063 185.793H1.90088V135.283L2.15327 135.031L4.30383 137.476V133.9H11.1394V145.247L18.0432 153.087L18.1063 153.161C18.1905 153.424 18.2693 153.687 18.3482 153.95C18.3488 153.954 18.3506 153.957 18.3535 153.96C19.3889 157.274 20.2385 160.642 20.8984 164.05C22.4022 172.09 22.1761 179.462 18.3377 185.43Z" fill="#CCCCCC"/>
<path d="M7.59103 162.95H3.24023V166.576H7.59103V162.95Z" fill="#3F3D56"/>
<path d="M7.59103 169.477H3.24023V173.102H7.59103V169.477Z" fill="#3F3D56"/>
<path d="M141.613 156.061L139.438 152.436L159.741 135.033C174.751 127.808 192.845 129.892 211.951 135.033V140.108L193.097 160.413L171.343 164.763L141.613 156.061Z" fill="#3F3D56"/>
<path d="M220.938 145.246C224.544 141.235 225.045 137.422 220.938 133.9H214.103V137.478L211.951 135.033L194.548 152.436L191.647 155.337L188.021 169.839L194.548 185.792H227.904V153.161L220.938 145.246Z" fill="#CCCCCC"/>
<path d="M139.438 152.437H194.548V185.793H139.438C132.771 178.579 136.234 165.432 139.438 152.437Z" fill="#F2F2F2"/>
<path d="M186.934 162.95H175.332V173.102H186.934V162.95Z" fill="#3F3D56"/>
<path d="M170.618 162.588H160.466V185.792H170.618V162.588Z" fill="#CCCCCC"/>
<path d="M148.864 166.213V162.588H144.514V166.213H148.501H148.864Z" fill="#3F3D56"/>
<path d="M148.501 169.114H144.514V172.74H148.864V169.114H148.501Z" fill="#3F3D56"/>
<path d="M156.115 162.588H151.765V166.214H156.115V162.588Z" fill="#3F3D56"/>
<path d="M156.115 169.114H151.765V172.74H156.115V169.114Z" fill="#3F3D56"/>
<path d="M210.138 166.576V162.95H205.787V166.576H209.775H210.138Z" fill="#3F3D56"/>
<path d="M209.775 169.477H205.787V173.102H210.138V169.477H209.775Z" fill="#3F3D56"/>
<path d="M217.389 162.95H213.039V166.576H217.389V162.95Z" fill="#3F3D56"/>
<path d="M217.389 169.477H213.039V173.102H217.389V169.477Z" fill="#3F3D56"/>
<path d="M43.4853 95.1513L39.8599 92.2504L60.1635 74.1221H111.648V90.0751L78.2918 112.555L43.4853 95.1513Z" fill="#3F3D56"/>
<path d="M121.034 84.2912V74.4844H114.199V76.8862L111.647 74.1221L94.9693 92.2504L88.4434 96.6015L78.3242 170.532L93.5848 185.793H129.051C134.485 158.457 138.794 130.375 129.051 92.9755L121.034 84.2912Z" fill="#CCCCCC"/>
<path d="M39.8593 92.25H94.9693V185.792H39.8593C33.8287 149.452 30.8835 115.751 39.8593 92.25Z" fill="#F2F2F2"/>
<path d="M71.4028 162.95H61.251V185.792H71.4028V162.95Z" fill="#CCCCCC"/>
<path d="M50.374 169.477V165.852H46.0234V169.477H50.0117H50.374Z" fill="#3F3D56"/>
<path d="M50.0117 172.377H46.0234V176.003H50.374V172.377H50.0117Z" fill="#3F3D56"/>
<path d="M57.6252 165.851H53.2744V169.476H57.6252V165.851Z" fill="#3F3D56"/>
<path d="M79.7422 172.377H75.7539V176.003H80.1045V172.377H79.7422Z" fill="#3F3D56"/>
<path d="M87.3557 165.851H83.0049V169.476H87.3557V165.851Z" fill="#3F3D56"/>
<path d="M87.3557 172.377H83.0049V176.003H87.3557V172.377Z" fill="#3F3D56"/>
<path d="M110.56 96.9634V93.3379H106.209V96.9634H110.197H110.56Z" fill="#3F3D56"/>
<path d="M110.197 99.8643H106.209V103.49H110.56V99.8643H110.197Z" fill="#3F3D56"/>
<path d="M117.811 93.3379H113.46V96.9636H117.811V93.3379Z" fill="#3F3D56"/>
<path d="M117.811 99.8643H113.46V103.49H117.811V99.8643Z" fill="#3F3D56"/>
<path d="M110.56 117.268V113.642H106.209V117.268H110.197H110.56Z" fill="#3F3D56"/>
<path d="M110.197 120.168H106.209V123.793H110.56V120.168H110.197Z" fill="#3F3D56"/>
<path d="M117.811 113.642H113.46V117.267H117.811V113.642Z" fill="#3F3D56"/>
<path d="M117.811 120.168H113.46V123.794H117.811V120.168Z" fill="#3F3D56"/>
<path d="M110.56 137.571V133.945H106.209V137.571H110.197H110.56Z" fill="#3F3D56"/>
<path d="M110.197 140.472H106.209V144.097H110.56V140.472H110.197Z" fill="#3F3D56"/>
<path d="M117.811 133.945H113.46V137.571H117.811V133.945Z" fill="#3F3D56"/>
<path d="M117.811 140.472H113.46V144.097H117.811V140.472Z" fill="#3F3D56"/>
<path d="M110.56 157.875V154.249H106.209V157.875H110.197H110.56Z" fill="#3F3D56"/>
<path d="M110.197 160.775H106.209V164.401H110.56V160.775H110.197Z" fill="#3F3D56"/>
<path d="M117.811 154.249H113.46V157.875H117.811V154.249Z" fill="#3F3D56"/>
<path d="M117.811 160.775H113.46V164.401H117.811V160.775Z" fill="#3F3D56"/>
<path d="M46.0229 96.9639H88.0806V105.665C74.5998 101.945 60.542 102.212 46.0229 105.665V96.9639Z" fill="#3F3D56"/>
<path d="M46.0229 114.367C59.1496 118.235 73.1688 118.235 88.0806 114.367V123.069H46.0229V114.367Z" fill="#3F3D56"/>
<path d="M46.0229 131.77H88.0806V140.471C73.7475 135.894 59.7135 135.679 46.0229 140.471V131.77Z" fill="#3F3D56"/>
<path d="M46.0229 149.173C59.7393 154.459 73.7711 154.239 88.0806 149.173V157.874H46.0229V149.173Z" fill="#3F3D56"/>
<path d="M272.062 134.056H301.613V148.295L298.973 149.12L290.192 151.861L276.416 148.67L262.656 145.481L255.389 143.797L251.761 142.455C254.779 138.314 260.268 135.057 272.062 134.056Z" fill="#3F3D56"/>
<path d="M301.613 142.455V185.793H251.761C251.745 185.766 251.734 185.742 251.719 185.715V185.712C251.707 185.682 251.693 185.653 251.677 185.625C250.898 184.058 250.201 182.496 249.584 180.938C244.352 167.751 244.92 154.913 251.761 142.455H301.613Z" fill="#F2F2F2"/>
<path d="M283.304 162.95H273.152V185.792H283.304V162.95Z" fill="#CCCCCC"/>
<path d="M262.275 169.477V165.852H257.925V169.477H261.913H262.275Z" fill="#3F3D56"/>
<path d="M261.913 172.377H257.925V176.003H262.275V172.377H261.913Z" fill="#3F3D56"/>
<path d="M269.527 165.851H265.176V169.476H269.527V165.851Z" fill="#3F3D56"/>
<path d="M269.527 172.377H265.176V176.003H269.527V172.377Z" fill="#3F3D56"/>
<path d="M292.006 169.477V165.852H287.655V169.477H291.644H292.006Z" fill="#3F3D56"/>
<path d="M291.644 172.377H287.655V176.003H292.006V172.377H291.644Z" fill="#3F3D56"/>
<path d="M299.257 165.851H294.906V169.476H299.257V165.851Z" fill="#3F3D56"/>
<path d="M299.257 172.377H294.906V176.003H299.257V172.377Z" fill="#3F3D56"/>
<path d="M262.657 117.229H268.906C275.07 117.229 280.982 119.678 285.341 124.037C289.699 128.395 292.148 134.307 292.148 140.471H262.657V117.229Z" fill="#3F3D56"/>
<path d="M73.3652 54.1328H79.6149C85.779 54.1328 91.6906 56.5815 96.0492 60.9401C100.408 65.2988 102.857 71.2104 102.857 77.3744H73.3652V54.1328Z" fill="#3F3D56"/>
<path d="M173.269 112.497H179.519C185.683 112.497 191.594 114.946 195.953 119.304C200.312 123.663 202.76 129.575 202.76 135.739H173.269V112.497Z" fill="#3F3D56"/>
<path d="M292.148 149.173H262.657V157.874H292.148V149.173Z" fill="#3F3D56"/>
<path d="M301.613 185.433H1.90137V186.484H301.613V185.433Z" fill="#3F3D56"/>
<path d="M29.5433 143.892H28.4917V185.431H29.5433V143.892Z" fill="#3F3D56"/>
<path d="M39.2488 149.184C39.3158 163.71 29.0966 175.532 29.0966 175.532C29.0966 175.532 16.0095 163.553 18.7019 149.279C21.4096 134.924 29.8485 122.993 28.8541 122.932C28.8541 122.932 39.1819 134.659 39.2488 149.184Z" fill="#6C63FF"/>
<path d="M134.705 143.892H133.654V185.431H134.705V143.892Z" fill="#3F3D56"/>
<path d="M144.411 149.184C145.358 163.679 134.258 175.532 134.258 175.532C134.258 175.532 123.931 163.804 123.864 149.279C123.797 134.754 134.016 122.932 134.016 122.932C133.02 126.913 143.644 137.457 144.411 149.184Z" fill="#6C63FF"/>
<path d="M66.3828 76.3685L112.062 74.1338L131.224 90.1284L127.836 93.187L97.4924 92.504L66.3828 76.3685Z" fill="#3F3D56"/>
<path d="M20.8039 150.596L18.3431 152.82L18.0434 153.088L17.4177 153.656L1.90105 153.309V134.979C1.39628 134.869 0.891496 134.764 0.386719 134.664L1.64341 134.601L1.90105 134.816L4.30401 136.819L11.1395 142.53L18.7743 148.903L20.8039 150.596Z" fill="#3F3D56"/>
<path d="M166.287 136.836L211.966 134.602L231.128 150.596L227.74 153.655L197.396 152.972L166.287 136.836Z" fill="#3F3D56"/>
</g>
<defs>
<clipPath id="clip0_1425_29857">
<rect width="301.226" height="190" fill="white" transform="translate(0.386719 0.5)"/>
</clipPath>
</defs>
</svg>
