<svg width="218" height="190" viewBox="0 0 218 190" fill="none" xmlns="http://www.w3.org/2000/svg">
<g clip-path="url(#clip0_803_15503)">
<path d="M216.932 190H0V54.9453H216.932V190ZM5.04742 184.953H211.885V59.9927H5.04742V184.953Z" fill="#E5E5E5"/>
<path d="M214.408 57.4692H2.52344V187.476H214.408V57.4692Z" fill="white"/>
<path d="M214.408 90.4189V82.4365H185.015V57.4692H177.032V82.4365H124.703V57.4692H116.721V82.4365H36.0097V57.4692H28.0272V82.4365H2.52344V90.4189H28.0272V121.462H2.52344V129.444H28.0272V162.704H2.52344V170.687H71.0437V187.476H79.026V170.687H116.721V187.476H124.703V170.687H214.408V162.704H124.703V129.444H214.408V121.462H185.015V90.4189L214.408 90.4189ZM116.721 90.4189V100.175H36.0097V90.4189H116.721ZM36.0097 108.158H116.721V121.462H36.0097V108.158ZM36.0097 162.704V129.444H71.0437V162.704L36.0097 162.704ZM116.721 162.704H79.026V129.444H116.721V162.704ZM177.032 121.462H124.703V90.4189H177.032V121.462Z" fill="#E6E6E6"/>
<path d="M140.552 38.276C140.552 59.4152 102.276 106.507 102.276 106.507C102.276 106.507 64 59.4152 64 38.276C64 28.1246 68.0326 18.3889 75.2108 11.2108C82.3889 4.03264 92.1245 0 102.276 0C112.427 0 122.163 4.03264 129.341 11.2108C136.519 18.3889 140.552 28.1246 140.552 38.276Z" fill="#6C63FF"/>
<path d="M119.995 36.6117C119.995 40.0724 118.969 43.4554 117.046 46.3329C115.124 49.2104 112.391 51.4531 109.194 52.7774C105.996 54.1018 102.478 54.4483 99.084 53.7731C95.6898 53.098 92.572 51.4315 90.1249 48.9844C87.6778 46.5373 86.0114 43.4196 85.3362 40.0254C84.6611 36.6312 85.0076 33.113 86.3319 29.9157C87.6563 26.7184 89.899 23.9857 92.7765 22.063C95.6539 20.1404 99.0369 19.1141 102.498 19.1141C104.796 19.1131 107.072 19.565 109.195 20.4439C111.318 21.3229 113.248 22.6117 114.873 24.2367C116.498 25.8617 117.786 27.7911 118.665 29.9145C119.544 32.0378 119.996 34.3136 119.995 36.6117Z" fill="white"/>
<path d="M102.648 26.1077C96.8369 26.1077 92.1094 30.8352 92.1094 36.6461C92.1094 42.457 96.8369 47.1845 102.648 47.1845C108.459 47.1845 113.186 42.457 113.186 36.6461C113.186 30.8352 108.459 26.1077 102.648 26.1077ZM102.648 45.0768C97.9993 45.0768 94.2171 41.2946 94.2171 36.6461C94.2171 31.9976 97.9993 28.2154 102.648 28.2154C107.296 28.2154 111.079 31.9976 111.079 36.6461C111.079 41.2946 107.296 45.0768 102.648 45.0768Z" fill="#6C63FF"/>
<path d="M102.648 31.377C102.065 31.377 101.594 31.8491 101.594 32.4308V37.7C101.594 38.2817 102.065 38.7538 102.648 38.7538C103.23 38.7538 103.701 38.2817 103.701 37.7V32.4308C103.701 31.8491 103.23 31.377 102.648 31.377Z" fill="#6C63FF"/>
<path d="M102.648 39.8076C102.374 39.8076 102.1 39.9235 101.899 40.1132C101.709 40.3135 101.594 40.5875 101.594 40.8615C101.594 41.1355 101.709 41.4095 101.899 41.6097C102.3 41.9996 102.995 41.9996 103.396 41.6097C103.586 41.4095 103.701 41.1355 103.701 40.8615C103.701 40.5875 103.586 40.3135 103.396 40.1132C103.196 39.9235 102.922 39.8076 102.648 39.8076Z" fill="#6C63FF"/>
<path d="M102.318 132.636C108.016 132.636 112.636 128.016 112.636 122.318C112.636 116.619 108.016 112 102.318 112C96.6195 112 92 116.619 92 122.318C92 128.016 96.6195 132.636 102.318 132.636Z" fill="#6C63FF"/>
</g>
<defs>
<clipPath id="clip0_803_15503">
<rect width="217.143" height="190" fill="white" transform="translate(0.427734)"/>
</clipPath>
</defs>
</svg>
