<svg xmlns="http://www.w3.org/2000/svg" width="199" height="190" viewBox="0 0 199 190" fill="none">
  <g clip-path="url(#clip0_310_27495)">
    <path d="M130.301 34.1048C129.011 32.8674 127.692 25.967 126.045 25.2665C127.276 27.9867 126.382 28.7069 126.376 31.6922C126.391 33.3874 126.193 35.0778 125.786 36.7235H97.8936V14.9552C97.8935 12.9992 98.2787 11.0624 99.0272 9.25536C99.7757 7.44829 100.873 5.80635 102.256 4.42329C103.639 3.04023 105.281 1.94314 107.088 1.19466C108.895 0.446178 110.832 0.0609775 112.788 0.0610352C113.534 0.0756076 114.276 0.184186 114.995 0.38423C117.393 1.03152 119.578 2.29787 121.331 4.05626C123.085 5.81465 124.345 8.00326 124.986 10.4025C127.113 18.1748 130.494 31.1122 130.301 34.1048Z" fill="#031A2A"/>
    <path d="M99.5302 60.8841L99.5439 43.917L89.5701 44.8083L93.0901 55.5094L91.4427 82.407C90.6437 82.5863 89.9142 82.9942 89.343 83.581C88.7718 84.1677 88.3837 84.908 88.226 85.7115C88.0683 86.5151 88.1477 87.3471 88.4547 88.1062C88.7617 88.8654 89.283 89.5188 89.9549 89.9868C90.6268 90.4548 91.4204 90.7172 92.2389 90.742C93.0574 90.7668 93.8654 90.5529 94.5644 90.1264C95.2634 89.6999 95.8232 89.0793 96.1756 88.3401C96.528 87.6009 96.6577 86.7752 96.5489 85.9636L99.5302 60.8841Z" fill="#FFB6B6"/>
    <path d="M119.158 182.132L123.187 182.131L125.105 166.589H119.157L119.158 182.132Z" fill="#FFB6B6"/>
    <path d="M117.794 180.144L124.163 179.764V182.493L130.219 186.675C130.518 186.882 130.743 187.178 130.862 187.522C130.981 187.866 130.986 188.238 130.878 188.585C130.77 188.932 130.553 189.236 130.261 189.451C129.968 189.666 129.614 189.783 129.25 189.783H121.667L120.36 187.083L119.85 189.783H116.99L117.794 180.144Z" fill="#031A2A"/>
    <path d="M95.8595 182.132L99.8893 182.131L101.806 166.589H95.859L95.8595 182.132Z" fill="#FFB6B6"/>
    <path d="M94.4951 180.144L100.865 179.764V182.493L106.921 186.675C107.22 186.882 107.445 187.178 107.564 187.522C107.682 187.866 107.688 188.238 107.579 188.585C107.471 188.932 107.255 189.236 106.962 189.451C106.669 189.666 106.315 189.783 105.952 189.783H98.3686L97.0615 187.083L96.5511 189.783H93.6919L94.4951 180.144Z" fill="#031A2A"/>
    <path d="M115.57 25.5938L107.223 25.7574L101.331 31.977L96.6068 32.6698C94.4699 32.9832 92.5054 34.0205 91.0415 35.6084C89.5776 37.1964 88.7031 39.2386 88.5642 41.3939L89.3825 45.889H94.2927L97.1332 62.5671C96.0287 65.3816 95.9536 67.6031 98.2208 68.4757L105.259 81.7331L126.045 72.4039C127.099 70.5916 127.437 68.7713 126.359 67.0011L127.845 41.4699H132.842C132.842 36.6947 131.227 32.6691 126.481 32.1378C124.597 31.9338 122.703 31.8255 120.808 31.8133L115.57 25.5938Z" fill="#042134"/>
    <path d="M126.045 72.4042C126.045 72.4042 105.75 76.005 98.2208 68.4761C98.2208 68.4761 97.4564 69.7737 96.3046 71.9258C95.9734 72.5447 95.3337 72.9639 94.9473 73.7136C94.5962 74.3949 93.6931 75.2325 93.3106 76.0052C93.0029 76.6268 93.4966 77.4392 93.1764 78.1108C89.3207 86.198 84.816 97.6057 85.7817 105.139C86.4045 109.996 87.6908 121.3 89.0456 133.44C89.1514 134.389 88.2941 135.607 88.4005 136.563C88.5008 137.465 89.5648 138.104 89.6652 139.008C89.7318 139.608 88.9887 140.22 89.0552 140.819C89.1281 141.476 90.0104 142.121 90.0829 142.776C91.9388 159.539 93.638 175.19 93.638 175.19H103.131L104.922 139.445L103.458 126.416L106.895 100.065L111.642 125.107L112.252 139.2L117.269 175.845H126.045V140.371L126.7 138.528L126.045 136.164L126.7 133.617L126.045 130.844V72.4042Z" fill="#031A2A"/>
    <path d="M118.132 20.7535C116.839 22.4711 115 23.6972 112.917 24.2298C110.834 24.7623 108.632 24.5697 106.673 23.6835C104.714 22.7973 103.115 21.2704 102.14 19.3543C101.165 17.4382 100.872 15.2472 101.308 13.142C101.745 11.0369 102.885 9.14311 104.541 7.77263C106.198 6.40215 108.272 5.63669 110.422 5.60229C112.571 5.56789 114.668 6.26659 116.368 7.58336C118.067 8.90014 119.268 10.7564 119.771 12.8466C119.799 12.96 119.822 13.0727 119.844 13.1898C120.11 14.4999 120.095 15.8515 119.8 17.1554C119.505 18.4592 118.936 19.6856 118.132 20.7535Z" fill="#FFB6B6"/>
    <path d="M116.159 15.3545C115.959 14.3471 115.451 13.4266 114.706 12.7194C114.779 13.6848 114.645 14.6547 114.313 15.564C111.825 15.7844 109.325 15.2892 107.108 14.1368C105.439 13.0042 103.314 13.1024 100.84 14.1368C100.839 12.9331 101.076 11.7412 101.537 10.6291C101.998 9.51702 102.673 8.50655 103.524 7.65541C104.375 6.80428 105.385 6.12915 106.498 5.66858C107.61 5.20802 108.802 4.97104 110.005 4.97119H111.642C114.073 4.97163 116.404 5.93744 118.123 7.65623C119.841 9.37502 120.807 11.7061 120.808 14.1368C119.297 14.6786 117.741 15.0861 116.159 15.3545Z" fill="#031A2A"/>
    <path d="M44.5538 132.174C59.0963 132.174 70.8853 120.385 70.8853 105.842C70.8853 91.2998 59.0963 79.5107 44.5538 79.5107C30.0113 79.5107 18.2223 91.2998 18.2223 105.842C18.2223 120.385 30.0113 132.174 44.5538 132.174Z" fill="#F0F0F0"/>
    <path d="M146.137 96.5488C160.68 96.5488 172.469 84.7598 172.469 70.2173C172.469 55.6748 160.68 43.8857 146.137 43.8857C131.595 43.8857 119.806 55.6748 119.806 70.2173C119.806 84.7598 131.595 96.5488 146.137 96.5488Z" fill="#F0F0F0"/>
    <path d="M193.637 73.0889V132.797C193.637 134.038 193.148 135.228 192.276 136.109C191.403 136.991 190.218 137.493 188.978 137.506C188.961 137.508 188.944 137.508 188.927 137.508H181.977C176.417 137.508 171.084 135.299 167.153 131.367C163.221 127.436 161.012 122.103 161.012 116.543V73.0889C161.012 71.8396 161.508 70.6415 162.392 69.7581C163.275 68.8747 164.473 68.3784 165.723 68.3784H168.538C167.234 72.1839 184.939 73.7861 185.911 68.3784H188.927C190.176 68.3784 191.374 68.8747 192.258 69.7581C193.141 70.6415 193.637 71.8396 193.637 73.0889Z" fill="#6C63FF"/>
    <path d="M173.015 63.9137C173.015 63.75 173.08 63.5931 173.196 63.4774C173.311 63.3617 173.468 63.2966 173.632 63.2964H177.83C177.993 63.2969 178.15 63.3621 178.265 63.4778C178.38 63.5935 178.445 63.7503 178.445 63.9137C178.445 64.0771 178.38 64.2339 178.265 64.3496C178.15 64.4653 177.993 64.5306 177.83 64.531H173.632C173.468 64.5308 173.311 64.4657 173.196 64.35C173.08 64.2343 173.015 64.0774 173.015 63.9137Z" fill="#042134"/>
    <path d="M190.369 145.082H163.823C161.763 145.079 159.788 144.26 158.332 142.804C156.876 141.347 156.057 139.373 156.054 137.313V95.5745C155.908 95.4699 155.79 95.3319 155.708 95.1722C155.626 95.0125 155.584 94.8356 155.584 94.6561V90.4584C155.584 90.279 155.626 90.1021 155.708 89.9424C155.79 89.7827 155.908 89.6449 156.054 89.5402V88.4136C155.908 88.309 155.79 88.1711 155.708 88.0114C155.626 87.8517 155.584 87.6749 155.584 87.4954V83.2974C155.584 83.118 155.626 82.9411 155.708 82.7815C155.79 82.6218 155.908 82.4839 156.054 82.3793V80.3431C155.874 80.2464 155.724 80.1026 155.619 79.9271C155.515 79.7517 155.46 79.551 155.46 79.3467V75.149C155.46 74.9447 155.515 74.744 155.619 74.5685C155.724 74.393 155.874 74.2492 156.054 74.1524V68.5729C156.057 66.5133 156.876 64.5388 158.332 63.0825C159.789 61.6262 161.763 60.807 163.823 60.8047H190.369C192.429 60.807 194.403 61.6262 195.859 63.0825C197.316 64.5388 198.135 66.5134 198.137 68.573V80.7351C198.277 80.8226 198.392 80.9442 198.472 81.0886C198.552 81.2329 198.594 81.3952 198.595 81.5602V89.5644C198.594 89.7295 198.552 89.8918 198.472 90.0362C198.392 90.1806 198.277 90.3022 198.137 90.3898V137.313C198.135 139.373 197.316 141.347 195.859 142.804C194.403 144.26 192.429 145.079 190.369 145.082ZM163.823 61.8373C162.037 61.8393 160.325 62.5496 159.062 63.8123C157.799 65.0751 157.089 66.7871 157.087 68.573V75.0308L156.59 75.0499C156.564 75.0509 156.54 75.0617 156.522 75.0801C156.504 75.0985 156.493 75.1232 156.493 75.149V79.3467C156.493 79.3725 156.504 79.3972 156.522 79.4156C156.54 79.434 156.564 79.4448 156.59 79.4458L157.087 79.4647V83.1043L156.694 83.2011C156.672 83.2064 156.653 83.2187 156.639 83.2361C156.625 83.2535 156.617 83.2751 156.616 83.2974V87.4954C156.617 87.5178 156.625 87.5394 156.639 87.5568C156.653 87.5742 156.672 87.5865 156.694 87.5917L157.087 87.6885V90.2652L156.694 90.3621C156.672 90.3673 156.653 90.3796 156.639 90.397C156.625 90.4144 156.617 90.436 156.616 90.4584V94.6561C156.617 94.6785 156.625 94.7001 156.639 94.7176C156.653 94.7351 156.672 94.7474 156.694 94.7527L157.087 94.8495V137.313C157.089 139.099 157.799 140.811 159.062 142.074C160.325 143.337 162.037 144.047 163.823 144.049H190.369C192.155 144.047 193.867 143.337 195.13 142.074C196.392 140.811 197.103 139.099 197.105 137.313V89.5057H197.562V81.6192H197.105V68.5729C197.103 66.7871 196.392 65.0751 195.13 63.8124C193.867 62.5496 192.155 61.8393 190.369 61.8373L163.823 61.8373Z" fill="#042134"/>
    <path d="M180.175 64.531C180.516 64.531 180.793 64.2546 180.793 63.9137C180.793 63.5728 180.516 63.2964 180.175 63.2964C179.834 63.2964 179.558 63.5728 179.558 63.9137C179.558 64.2546 179.834 64.531 180.175 64.531Z" fill="#042134"/>
    <path d="M177.494 130.627C179.925 130.627 181.895 128.657 181.895 126.226C181.895 123.796 179.925 121.825 177.494 121.825C175.064 121.825 173.094 123.796 173.094 126.226C173.094 128.657 175.064 130.627 177.494 130.627Z" fill="white"/>
    <path d="M59.1399 103.613L55.7068 87.4533C55.5421 86.6629 55.2231 85.9128 54.768 85.2459C54.3129 84.5791 53.7307 84.0086 53.0547 83.5672L53.0202 83.5445C52.3396 83.099 51.5774 82.7929 50.7777 82.6439C49.9781 82.495 49.1568 82.5061 48.3614 82.6767C44.7028 83.4523 41.4873 85.616 39.3908 88.713C37.2943 91.81 36.48 95.5992 37.1191 99.2841C37.1487 99.4644 37.1855 99.6432 37.2223 99.822C37.4285 100.809 37.7401 101.771 38.1518 102.691C39.2667 105.223 41.0929 107.378 43.4086 108.892L43.4819 108.941C45.0715 109.98 46.8515 110.694 48.7187 111.041C50.586 111.388 52.5036 111.361 54.3605 110.963C55.9678 110.62 57.3735 109.653 58.2695 108.276C59.1654 106.898 59.4784 105.221 59.1399 103.613ZM54.1487 109.951C51.1163 110.587 47.9575 110.158 45.2045 108.736C42.4516 107.315 40.2728 104.988 39.0352 102.148C38.6854 101.329 38.4155 100.478 38.2293 99.6073C37.49 96.1246 38.1645 92.4909 40.1044 89.5054C42.0442 86.52 45.0906 84.4274 48.5732 83.6879C49.2369 83.5448 49.9224 83.5352 50.5898 83.6596C51.2573 83.784 51.8933 84.0399 52.4608 84.4125L52.4867 84.4295C53.0493 84.7973 53.534 85.2724 53.913 85.8275C54.292 86.3827 54.5579 87.0071 54.6955 87.6651L58.1258 103.829C58.4091 105.168 58.1494 106.565 57.4037 107.713C56.6581 108.861 55.4874 109.666 54.1487 109.951Z" fill="#042134"/>
    <path d="M47.8817 50.5831L44.4514 34.4191C44.1166 32.8238 43.1629 31.4263 41.7994 30.533L41.7692 30.5131C41.0872 30.0678 40.3237 29.762 39.5229 29.6133C38.722 29.4646 37.8997 29.476 37.1033 29.6468C34.0744 30.2945 31.3327 31.8953 29.2798 34.2146C27.2269 36.5339 25.9709 39.4498 25.6957 42.5349L25.6972 42.542C25.589 43.8067 25.6504 45.0802 25.88 46.3286C25.8994 46.4774 25.9318 46.6348 25.9641 46.7921C26.7446 50.5151 28.9692 53.7769 32.1504 55.8625L32.228 55.9136C33.8187 56.9519 35.5993 57.6647 37.4669 58.011C39.3346 58.3573 41.2523 58.3302 43.1095 57.9312C43.9053 57.7622 44.6601 57.4379 45.3307 56.9771C46.0012 56.5163 46.5745 55.928 47.0176 55.2456C47.4608 54.5632 47.7652 53.8003 47.9134 53.0003C48.0617 52.2003 48.0509 51.3789 47.8817 50.5831ZM42.8905 56.9215C41.1669 57.2915 39.3871 57.3166 37.6538 56.9951C35.9205 56.6736 34.268 56.012 32.7917 55.0485L32.7185 55.0002C30.5081 53.543 28.778 51.4648 27.7457 49.0269C26.7133 46.589 26.4249 43.9003 26.9167 41.299C27.4084 38.6976 28.6584 36.2997 30.5093 34.4069C32.3603 32.514 34.7296 31.2107 37.3193 30.6609C38.6585 30.3777 40.0553 30.6375 41.2032 31.3831C42.351 32.1288 43.1561 33.2994 43.4417 34.638L46.8748 50.7977C47.1566 52.1379 46.8954 53.5352 46.1485 54.6832C45.4016 55.8312 44.23 56.6361 42.8905 56.9215Z" fill="#042134"/>
    <path d="M57.7602 107.074L53.9781 89.2537C53.7291 88.0868 53.0273 87.0663 52.0268 86.4161C51.0263 85.7659 49.8087 85.5391 48.6412 85.7856C47.1807 86.0938 45.7952 86.687 44.5641 87.5311C43.333 88.3751 42.2802 89.4536 41.4662 90.7048C40.6521 91.956 40.0926 93.3554 39.8198 94.8229C39.5469 96.2905 39.566 97.7974 39.8759 99.2576C40.1858 100.718 40.7804 102.103 41.6259 103.333C42.4713 104.563 43.551 105.614 44.8031 106.427C46.0552 107.24 47.4552 107.798 48.923 108.069C50.3909 108.34 51.8978 108.319 53.3576 108.008L57.7602 107.074Z" fill="#FF6584"/>
    <path d="M46.5051 54.0428L42.723 36.223C42.474 35.056 41.7722 34.0355 40.7717 33.3853C39.7711 32.7351 38.5536 32.5084 37.3861 32.7548C35.9255 33.0631 34.5401 33.6562 33.309 34.5003C32.0778 35.3444 31.0251 36.4229 30.211 37.674C29.397 38.9252 28.8375 40.3246 28.5646 41.7922C28.2918 43.2597 28.3108 44.7667 28.6207 46.2269C28.9306 47.687 29.5253 49.0718 30.3708 50.302C31.2162 51.5322 32.2958 52.5837 33.5479 53.3964C34.8 54.2091 36.2 54.767 37.6679 55.0382C39.1357 55.3095 40.6427 55.2887 42.1025 54.9772L46.5051 54.0428Z" fill="#FF6584"/>
    <path d="M41.4804 105.898L40.7729 106.408C39.8609 105.146 38.9872 103.907 38.1519 102.691C23.3718 81.1284 20.0813 65.1183 25.6972 42.5419L25.6958 42.5347C25.9576 41.4708 26.2414 40.3923 26.547 39.2995L27.3731 39.5283C27.0292 40.5464 26.8109 41.6027 26.7232 42.6737C26.415 43.9112 26.134 45.1295 25.88 46.3285C21.759 65.7906 24.8835 80.5229 37.1192 99.2844C37.7344 100.228 38.3731 101.182 39.0353 102.148C39.6354 103.525 40.4619 104.793 41.4804 105.898Z" fill="#042134"/>
    <path d="M31.2155 54.121L30.2051 54.3354L38.0299 91.2046L39.0403 90.9901L31.2155 54.121Z" fill="#042134"/>
    <path d="M132.592 56.9559L132.606 39.9888L122.632 40.88L126.152 51.5812L113.375 70.9499C112.576 71.1292 111.846 71.5371 111.275 72.1238C110.704 72.7106 110.316 73.4509 110.158 74.2544C110 75.0579 110.08 75.89 110.387 76.6491C110.694 77.4082 111.215 78.0616 111.887 78.5296C112.559 78.9977 113.352 79.2601 114.171 79.2848C114.989 79.3096 115.797 79.0958 116.496 78.6693C117.195 78.2428 117.755 77.6221 118.108 76.883C118.46 76.1438 118.59 75.3181 118.481 74.5065L132.592 56.9559Z" fill="#FFB6B6"/>
  </g>
  <defs>
    <clipPath id="clip0_310_27495">
      <rect width="198.954" height="190" fill="white" transform="translate(0.0230713)"/>
    </clipPath>
  </defs>
</svg>