<svg width="277" height="190" viewBox="0 0 277 190" fill="none" xmlns="http://www.w3.org/2000/svg">
<g clip-path="url(#clip0_310_25400)">
<path d="M241.945 40.0576H241.906L219.546 49.6056L188.953 62.6693C188.833 62.7196 188.705 62.7458 188.575 62.7465C188.445 62.7471 188.317 62.7222 188.197 62.6732L156.633 49.5783L133.723 40.0732L133.688 40.0576H133.649C133.288 40.058 132.941 40.2018 132.686 40.4574C132.43 40.713 132.286 41.0596 132.286 41.4211V100.633C132.286 100.995 132.43 101.341 132.686 101.597C132.941 101.853 133.288 101.996 133.649 101.997H241.945C242.307 101.996 242.654 101.853 242.909 101.597C243.165 101.341 243.309 100.995 243.309 100.633V41.4211C243.309 41.0596 243.165 40.713 242.909 40.4574C242.654 40.2018 242.307 40.058 241.945 40.0576Z" fill="white"/>
<path d="M242.043 40.4479C242.003 40.4479 241.964 40.4357 241.932 40.413L188.064 2.89826C187.9 2.78463 187.706 2.7239 187.506 2.72424C187.307 2.72458 187.112 2.78597 186.948 2.90016L133.469 40.4126C133.427 40.4421 133.375 40.4535 133.324 40.4445C133.273 40.4355 133.228 40.4068 133.198 40.3646C133.169 40.3224 133.157 40.2702 133.166 40.2194C133.175 40.1686 133.203 40.1234 133.245 40.0936L186.725 2.58119C186.954 2.42135 187.226 2.33542 187.505 2.33496C187.785 2.3345 188.057 2.41953 188.287 2.57862L242.154 40.0933C242.188 40.117 242.214 40.1509 242.227 40.1902C242.241 40.2294 242.241 40.2719 242.229 40.3115C242.216 40.3511 242.191 40.3856 242.158 40.4102C242.125 40.4347 242.084 40.4479 242.043 40.4479Z" fill="#3F3D56"/>
<path d="M136.525 41.7775L187.559 3.95508L238.98 44.4686L190.188 73.3928L163.699 67.355L136.525 41.7775Z" fill="#E6E6E6"/>
<path d="M165.935 91.2581H140.723C140.41 91.2586 140.111 91.1349 139.889 90.9143C139.668 90.6938 139.544 90.3944 139.543 90.082C139.543 89.7696 139.666 89.4698 139.887 89.2486C140.108 89.0273 140.407 88.9028 140.719 88.9023H165.935C166.247 88.9019 166.547 89.0255 166.768 89.2461C166.989 89.4667 167.114 89.7661 167.114 90.0785C167.115 90.3909 166.991 90.6907 166.771 90.9119C166.55 91.1331 166.251 91.2577 165.938 91.2581H165.935Z" fill="#6C63FF"/>
<path d="M149.768 86.1937H140.723C140.41 86.1939 140.111 86.0702 139.89 85.8496C139.669 85.6291 139.544 85.3298 139.544 85.0175C139.543 84.7053 139.667 84.4056 139.887 84.1844C140.108 83.9632 140.407 83.8386 140.719 83.8379H149.768C149.923 83.8376 150.076 83.8677 150.219 83.9267C150.362 83.9856 150.493 84.0721 150.602 84.1814C150.712 84.2906 150.799 84.4203 150.858 84.5632C150.918 84.7061 150.948 84.8593 150.949 85.014C150.949 85.1688 150.919 85.3221 150.86 85.4651C150.801 85.6082 150.714 85.7382 150.605 85.8477C150.495 85.9573 150.366 86.0442 150.223 86.1036C150.08 86.1629 149.927 86.1935 149.772 86.1937H149.768Z" fill="#6C63FF"/>
<path d="M188.277 62.8437C188.085 62.8439 187.895 62.8067 187.718 62.7343L156.244 49.6747V8.79605C156.244 8.43458 156.388 8.08803 156.643 7.83243C156.899 7.57682 157.246 7.43304 157.607 7.43262H217.988C218.349 7.43304 218.696 7.57682 218.952 7.83243C219.207 8.08803 219.351 8.43458 219.351 8.79605V49.7032L219.292 49.7285L188.852 62.7279C188.67 62.8045 188.474 62.8439 188.277 62.8437Z" fill="white"/>
<path d="M188.277 62.9408C188.072 62.941 187.87 62.9014 187.681 62.8242L156.146 49.7395V8.79579C156.147 8.40848 156.301 8.03717 156.575 7.76331C156.848 7.48945 157.22 7.3354 157.607 7.33496H217.988C218.375 7.3354 218.747 7.48945 219.02 7.76331C219.294 8.03717 219.448 8.40848 219.449 8.79579V49.7673L188.891 62.8171C188.696 62.8989 188.488 62.9409 188.277 62.9408ZM156.536 49.4793L187.829 62.464C188.121 62.5824 188.448 62.5805 188.738 62.4586L219.059 49.5101V8.79579C219.059 8.51177 218.946 8.23949 218.745 8.03866C218.544 7.83784 218.272 7.72487 217.988 7.72453H157.607C157.323 7.72487 157.051 7.83784 156.85 8.03866C156.649 8.23949 156.536 8.51177 156.536 8.79579L156.536 49.4793Z" fill="#3F3D56"/>
<path d="M241.653 40.0576H241.614L219.254 49.6056L188.66 62.6693C188.541 62.7196 188.413 62.7458 188.283 62.7465C188.153 62.7471 188.025 62.7222 187.905 62.6732L156.341 49.5783L133.431 40.0732L133.396 40.0576H133.357C132.996 40.058 132.649 40.2018 132.394 40.4574C132.138 40.713 131.994 41.0596 131.994 41.4211V100.633C131.994 100.995 132.138 101.341 132.394 101.597C132.649 101.853 132.996 101.996 133.357 101.997H241.653C242.015 101.996 242.361 101.853 242.617 101.597C242.873 101.341 243.016 100.995 243.017 100.633V41.4211C243.016 41.0596 242.873 40.713 242.617 40.4574C242.361 40.2018 242.015 40.058 241.653 40.0576ZM242.627 100.633C242.627 100.892 242.525 101.139 242.342 101.322C242.159 101.504 241.912 101.607 241.653 101.607H133.357C133.099 101.607 132.851 101.504 132.669 101.322C132.486 101.139 132.384 100.892 132.383 100.633V41.4211C132.384 41.1692 132.481 40.9272 132.656 40.7457C132.831 40.5643 133.069 40.4573 133.32 40.4472L156.341 49.999L187.755 63.0335C188.095 63.1719 188.476 63.1698 188.814 63.0277L219.254 50.0283L241.692 40.4472C241.944 40.458 242.181 40.5653 242.355 40.7467C242.529 40.9281 242.627 41.1696 242.627 41.4211V100.633Z" fill="#3F3D56"/>
<path d="M183.377 22.7131H161.951C161.538 22.7125 161.143 22.5481 160.851 22.2559C160.559 21.9638 160.395 21.5678 160.395 21.1549C160.395 20.742 160.559 20.346 160.851 20.0538C161.143 19.7617 161.538 19.5973 161.951 19.5967H183.377C183.79 19.5973 184.185 19.7617 184.477 20.0538C184.769 20.346 184.933 20.742 184.933 21.1549C184.933 21.5678 184.769 21.9638 184.477 22.2559C184.185 22.5481 183.79 22.7125 183.377 22.7131Z" fill="#6C63FF"/>
<path d="M172.274 16.091H161.951C161.538 16.091 161.142 15.9269 160.849 15.6346C160.557 15.3424 160.393 14.9461 160.393 14.5328C160.393 14.1196 160.557 13.7232 160.849 13.431C161.142 13.1388 161.538 12.9746 161.951 12.9746H172.274C172.688 12.9746 173.084 13.1388 173.376 13.431C173.668 13.7232 173.833 14.1196 173.833 14.5328C173.833 14.9461 173.668 15.3424 173.376 15.6346C173.084 15.9269 172.688 16.091 172.274 16.091Z" fill="#6C63FF"/>
<path d="M203.822 38.2951H171.1C170.687 38.2946 170.291 38.1301 169.999 37.838C169.707 37.5458 169.544 37.1498 169.544 36.7369C169.544 36.324 169.707 35.928 169.999 35.6359C170.291 35.3437 170.687 35.1793 171.1 35.1787H203.822C204.235 35.1793 204.631 35.3437 204.923 35.6359C205.214 35.928 205.378 36.324 205.378 36.7369C205.378 37.1498 205.214 37.5458 204.923 37.838C204.631 38.1301 204.235 38.2946 203.822 38.2951Z" fill="#CCCCCC"/>
<path d="M203.822 45.5022H171.1C170.686 45.5022 170.29 45.338 169.998 45.0458C169.706 44.7536 169.541 44.3572 169.541 43.944C169.541 43.5307 169.706 43.1344 169.998 42.8421C170.29 42.5499 170.686 42.3857 171.1 42.3857H203.822C204.235 42.3857 204.632 42.5499 204.924 42.8421C205.216 43.1344 205.38 43.5307 205.38 43.944C205.38 44.3572 205.216 44.7536 204.924 45.0458C204.632 45.338 204.235 45.5022 203.822 45.5022Z" fill="#CCCCCC"/>
<path d="M241.049 55.4389C249.232 55.4389 255.866 48.8053 255.866 40.6223C255.866 32.4393 249.232 25.8057 241.049 25.8057C232.866 25.8057 226.233 32.4393 226.233 40.6223C226.233 48.8053 232.866 55.4389 241.049 55.4389Z" fill="#6C63FF"/>
<path d="M239.638 46.8772L235.203 41.175L237.782 39.1691L239.882 41.869L246.975 34.3809L249.347 36.6282L239.638 46.8772Z" fill="white"/>
<path d="M75.2508 128.192C74.9924 127.811 74.8205 127.379 74.7472 126.925C74.6739 126.471 74.7011 126.007 74.8268 125.564C74.9524 125.122 75.1735 124.713 75.4745 124.365C75.7755 124.017 76.1491 123.74 76.5688 123.552L75.6053 112.417L80.7116 115.185L80.8438 125.335C81.1123 126.061 81.105 126.86 80.8235 127.581C80.542 128.302 80.0057 128.895 79.3163 129.247C78.6269 129.599 77.8322 129.687 77.0829 129.492C76.3336 129.297 75.6818 128.835 75.2508 128.192Z" fill="#9F616A"/>
<path d="M76.2184 121.148L76.1769 121.043L70.5433 106.81L69.6494 79.8325L69.7995 79.8218C70.8996 79.7432 72.0044 79.8853 73.0488 80.2396C74.0932 80.5939 75.0563 81.1534 75.8815 81.8852C76.7067 82.6169 77.3774 83.5062 77.8541 84.5007C78.3308 85.4953 78.604 86.575 78.6575 87.6766L79.4838 102.181L81.826 120.836L76.2184 121.148Z" fill="#E5E5E5"/>
<path d="M40.2308 180.629L43.4693 182.683L52.9298 171.168L48.15 168.138L40.2308 180.629Z" fill="#9F616A"/>
<path d="M40.0749 179.049L46.4529 183.092C47.5308 183.776 48.2933 184.86 48.5723 186.105C48.8513 187.35 48.6241 188.656 47.9407 189.734L47.857 189.866L37.4144 183.246L40.0749 179.049Z" fill="#2F2E41"/>
<path d="M70.849 186.148L74.6836 186.148L76.5078 171.357L70.8484 171.358L70.849 186.148Z" fill="#9F616A"/>
<path d="M69.871 184.897L77.4226 184.896H77.4229C78.6993 184.897 79.9233 185.404 80.8258 186.306C81.7283 187.209 82.2354 188.433 82.2355 189.709V189.865L69.8712 189.866L69.871 184.897Z" fill="#2F2E41"/>
<path d="M59.9993 124.177L69.0267 178.475C69.0267 178.475 67.2508 182.915 69.9146 183.507C72.5785 184.099 78.4981 182.915 78.4981 182.915C78.4981 182.915 80.274 178.475 77.6102 177.883L72.5785 121.149L59.9993 124.177Z" fill="#2F2E41"/>
<path d="M65.3269 125.146L59.0728 150.535L43.1283 173.687C43.1283 173.687 37.2086 174.279 40.4644 177.534C43.7202 180.79 45.2001 181.086 45.2001 181.086C45.2001 181.086 50.2318 180.494 49.9358 178.126L69.5386 155.053L78.646 124.258L65.3269 125.146Z" fill="#2F2E41"/>
<path d="M59.8692 127.382L58.3589 118.762C56.0844 116.385 60.382 110.508 60.8612 109.869L60.58 106.214C60.3404 106.173 60.1212 106.054 59.9567 105.875C58.5458 104.436 58.6406 98.7591 58.6453 98.5181L57.0883 82.3209L60.9622 80.0609L70.759 79.7451L75.5433 83.8915L80.1513 126.226L79.987 126.235L59.8692 127.382Z" fill="#E5E5E5"/>
<path d="M63.2596 130.404C62.8648 130.168 62.5264 129.849 62.2683 129.469C62.0103 129.088 61.8387 128.656 61.7659 128.202C61.693 127.748 61.7206 127.283 61.8467 126.841C61.9727 126.399 62.1942 125.99 62.4955 125.642L56.9202 115.955L62.7176 116.308L67.1233 125.453C67.6732 125.998 68.0042 126.725 68.0535 127.498C68.1028 128.27 67.8669 129.034 67.3907 129.644C66.9145 130.255 66.2309 130.669 65.4695 130.809C64.7081 130.949 63.9218 130.805 63.2596 130.404Z" fill="#9F616A"/>
<path d="M58.3222 121.346L53.5128 110.198L52.7091 87.4239C52.6816 86.6757 52.8597 85.9342 53.224 85.2801C53.5883 84.626 54.1249 84.0842 54.7756 83.7137L60.3238 80.3232L61.5208 104.264L65.1011 118.573L58.3222 121.346Z" fill="#E5E5E5"/>
<path d="M66.9539 77.5848C70.7556 77.5848 73.8376 74.5028 73.8376 70.7011C73.8376 66.8993 70.7556 63.8174 66.9539 63.8174C63.1521 63.8174 60.0702 66.8993 60.0702 70.7011C60.0702 74.5028 63.1521 77.5848 66.9539 77.5848Z" fill="#9F616A"/>
<path d="M69.4429 60.5367C62.5103 58.5375 60.5425 64.2834 60.5425 64.2834C57.2008 66.5004 59.293 69.2799 59.293 69.2799C58.4498 69.4672 60.1357 74.4015 60.6979 74.2766C60.9978 74.21 61.7691 75.1307 62.4233 76.0039C62.6476 76.0036 62.8715 76.0251 63.0916 76.0681L61.8223 71.3725C61.8223 71.3725 66.1007 70.717 67.4124 68.656C68.6674 66.6842 72.7988 66.0616 73.9746 67.3787C74.0441 67 74.1865 66.6385 74.3939 66.3141C74.5544 66.0677 74.7643 65.8572 75.0103 65.696C73.9708 61.2784 69.4429 60.5367 69.4429 60.5367Z" fill="#2F2E41"/>
<path opacity="0.2" d="M61.6321 95.5421L61.248 109.245L66.0154 119.293L61.6321 95.1777" fill="black"/>
<path d="M119.738 190H0.570832C0.487879 190 0.408323 189.967 0.349666 189.908C0.291009 189.849 0.258057 189.77 0.258057 189.687C0.258057 189.604 0.291009 189.524 0.349666 189.466C0.408323 189.407 0.487879 189.374 0.570832 189.374H119.738C119.821 189.374 119.901 189.407 119.96 189.466C120.018 189.524 120.051 189.604 120.051 189.687C120.051 189.77 120.018 189.849 119.96 189.908C119.901 189.967 119.821 190 119.738 190Z" fill="#3F3D56"/>
<path d="M103.266 14.7872C103.165 14.7274 103.049 14.6973 102.932 14.7004C102.814 14.7035 102.7 14.7396 102.602 14.8046C102.504 14.8696 102.427 14.9608 102.379 15.0679C102.33 15.175 102.313 15.2935 102.329 15.4099L102.812 18.9516C102.818 19.0038 102.815 19.0568 102.801 19.1076C102.786 19.1577 102.761 19.2041 102.727 19.244L100.022 22.448C99.9321 22.5511 99.879 22.6816 99.8718 22.8186C99.8646 22.9555 99.9036 23.0908 99.9826 23.2029L99.9855 23.207C100.061 23.3203 100.173 23.4049 100.302 23.4476C100.431 23.4902 100.571 23.4883 100.699 23.4422L102.653 22.7793C102.717 22.7579 102.787 22.7545 102.853 22.7694C102.92 22.7844 102.981 22.8172 103.03 22.8643C103.067 22.8984 103.096 22.9397 103.116 22.9857C103.137 23.0317 103.147 23.0813 103.147 23.1315L103.223 30.0904C103.224 30.1911 103.249 30.2902 103.297 30.3789C103.344 30.4677 103.413 30.5435 103.497 30.5999C103.58 30.6561 103.675 30.6915 103.775 30.7031C103.875 30.7148 103.976 30.7022 104.07 30.6666L118.647 25.0916C118.757 25.0497 118.853 24.9777 118.924 24.8839C118.995 24.79 119.038 24.678 119.048 24.5608C119.058 24.4436 119.034 24.326 118.98 24.2214C118.927 24.1169 118.844 24.0297 118.743 23.9698L118.545 23.8519L103.266 14.7872ZM102.576 15.3759C102.566 15.306 102.577 15.2348 102.606 15.1706C102.635 15.1064 102.682 15.0517 102.741 15.0128C102.799 14.9739 102.868 14.9523 102.938 14.9505C103.009 14.9488 103.078 14.9669 103.139 15.0028L118.412 24.0649L118.616 24.1854C118.676 24.2215 118.725 24.2739 118.757 24.3365C118.789 24.3991 118.803 24.4695 118.797 24.5396C118.791 24.6097 118.766 24.6768 118.724 24.7331C118.682 24.7894 118.624 24.8328 118.559 24.8582L103.981 30.4333C103.925 30.4547 103.864 30.4622 103.804 30.4552C103.744 30.4481 103.687 30.4267 103.637 30.3928C103.587 30.3588 103.546 30.3133 103.518 30.2602C103.489 30.207 103.474 30.1478 103.473 30.0875L103.397 23.1286C103.397 23.0598 103.385 22.9914 103.362 22.9266L118.203 24.6318C118.261 24.639 118.32 24.6258 118.369 24.5944C118.418 24.563 118.455 24.5155 118.472 24.4599C118.49 24.4044 118.488 24.3444 118.466 24.2902C118.445 24.2361 118.405 24.1913 118.353 24.1636C118.341 24.1567 118.328 24.151 118.314 24.1466L103.063 19.0557C103.067 19.0096 103.065 18.9633 103.058 18.9175L102.576 15.3759Z" fill="#F1F1F1"/>
<path d="M103.266 14.7872C103.165 14.7274 103.049 14.6973 102.932 14.7004C102.814 14.7035 102.7 14.7396 102.602 14.8046C102.504 14.8696 102.427 14.9608 102.379 15.0679C102.33 15.175 102.313 15.2935 102.329 15.4099L102.812 18.9516C102.818 19.0038 102.815 19.0568 102.801 19.1076C102.786 19.1577 102.761 19.2041 102.727 19.244L100.022 22.448C99.9321 22.5511 99.879 22.6816 99.8718 22.8186C99.8646 22.9555 99.9036 23.0908 99.9826 23.2029L99.9855 23.207C100.061 23.3203 100.173 23.4049 100.302 23.4476C100.431 23.4902 100.571 23.4883 100.699 23.4422L102.653 22.7793C102.717 22.7579 102.787 22.7545 102.853 22.7694C102.92 22.7844 102.981 22.8172 103.03 22.8643C103.067 22.8984 103.096 22.9397 103.116 22.9857C103.137 23.0317 103.147 23.0813 103.147 23.1315L103.223 30.0904C103.224 30.1911 103.249 30.2902 103.297 30.3789C103.344 30.4677 103.413 30.5435 103.497 30.5999C103.58 30.6561 103.675 30.6915 103.775 30.7031C103.875 30.7148 103.976 30.7022 104.07 30.6666L118.647 25.0916C118.757 25.0497 118.853 24.9777 118.924 24.8839C118.995 24.79 119.038 24.678 119.048 24.5608C119.058 24.4436 119.034 24.326 118.98 24.2214C118.927 24.1169 118.844 24.0297 118.743 23.9698L118.545 23.8519L103.266 14.7872ZM102.576 15.3759C102.566 15.306 102.577 15.2348 102.606 15.1706C102.635 15.1064 102.682 15.0517 102.741 15.0128C102.799 14.9739 102.868 14.9523 102.938 14.9505C103.009 14.9488 103.078 14.9669 103.139 15.0028L118.412 24.0649L118.616 24.1854C118.676 24.2215 118.725 24.2739 118.757 24.3365C118.789 24.3991 118.803 24.4695 118.797 24.5396C118.791 24.6097 118.766 24.6768 118.724 24.7331C118.682 24.7894 118.624 24.8328 118.559 24.8582L103.981 30.4333C103.925 30.4547 103.864 30.4622 103.804 30.4552C103.744 30.4481 103.687 30.4267 103.637 30.3928C103.587 30.3588 103.546 30.3133 103.518 30.2602C103.489 30.207 103.474 30.1478 103.473 30.0875L103.397 23.1286C103.397 23.0597 103.385 22.9914 103.362 22.9266C103.329 22.8332 103.274 22.7492 103.202 22.6819C103.192 22.672 103.181 22.6628 103.17 22.6536L103.169 22.6526C103.088 22.585 102.99 22.5395 102.885 22.5203C102.781 22.5011 102.673 22.5089 102.573 22.543L100.619 23.2066C100.542 23.2346 100.457 23.2357 100.38 23.2098C100.302 23.1839 100.235 23.1325 100.19 23.0639L100.189 23.0618C100.141 22.9949 100.117 22.9136 100.122 22.8313C100.126 22.7491 100.158 22.6708 100.213 22.6093L102.917 19.4054C102.946 19.3718 102.971 19.3351 102.992 19.296L102.993 19.2953C103.013 19.2578 103.029 19.2182 103.041 19.1774C103.052 19.1377 103.06 19.0969 103.063 19.0557C103.067 19.0096 103.065 18.9633 103.058 18.9175L102.576 15.3759Z" fill="#E5E5E5"/>
<path d="M103.063 19.0556L118.314 24.1465C118.328 24.1509 118.341 24.1566 118.353 24.1635C118.405 24.1912 118.445 24.236 118.466 24.2902C118.488 24.3443 118.49 24.4043 118.472 24.4598C118.455 24.5154 118.418 24.5629 118.369 24.5943C118.32 24.6257 118.261 24.6389 118.203 24.6317L103.362 22.9264L103.1 22.8966L103.129 22.6487L103.17 22.6525L103.17 22.6535L118.232 24.3828L102.993 19.2952L102.992 19.2959L102.926 19.2731L103.005 19.0361L103.063 19.0556Z" fill="#E5E5E5"/>
<path d="M273.346 0.0870131L258.068 9.15174L257.87 9.26962C257.769 9.32949 257.686 9.41671 257.632 9.52126C257.579 9.6258 257.555 9.74343 257.565 9.86061C257.575 9.9778 257.618 10.0898 257.689 10.1837C257.76 10.2776 257.856 10.3495 257.966 10.3914L272.543 15.9664C272.637 16.002 272.738 16.0146 272.838 16.0029C272.938 15.9913 273.033 15.9559 273.116 15.8997C273.2 15.8433 273.268 15.7675 273.316 15.6787C273.364 15.59 273.389 15.4909 273.39 15.3902L273.466 8.43128C273.466 8.38111 273.476 8.33148 273.496 8.28549C273.516 8.2395 273.546 8.19815 273.583 8.16406C273.632 8.11698 273.693 8.0842 273.76 8.06923C273.826 8.05426 273.896 8.05767 273.96 8.07909L275.913 8.74201C276.042 8.78811 276.182 8.79 276.311 8.74738C276.44 8.70475 276.552 8.62007 276.627 8.50681L276.63 8.5027C276.709 8.39064 276.748 8.25528 276.741 8.11837C276.734 7.98145 276.681 7.85093 276.59 7.74781L273.886 4.54385C273.852 4.50395 273.827 4.45752 273.812 4.40746C273.798 4.3566 273.795 4.30358 273.801 4.25136L274.284 0.709701C274.3 0.593292 274.283 0.474767 274.234 0.367708C274.186 0.260648 274.108 0.169392 274.01 0.104395C273.913 0.0393978 273.798 0.00328905 273.681 0.000214207C273.564 -0.00286063 273.448 0.0272262 273.346 0.0870131ZM274.037 0.675687L273.554 4.21734C273.548 4.26308 273.546 4.30943 273.55 4.35551L258.299 9.44637C258.285 9.45075 258.272 9.45645 258.26 9.46339C258.208 9.49113 258.168 9.53593 258.147 9.59004C258.125 9.64415 258.123 9.70416 258.14 9.75971C258.158 9.81525 258.195 9.86283 258.244 9.89422C258.293 9.9256 258.352 9.93882 258.41 9.93159L273.251 8.22636C273.228 8.2912 273.216 8.35955 273.216 8.42841L273.14 15.3873C273.139 15.4476 273.124 15.5068 273.095 15.56C273.067 15.6131 273.026 15.6586 272.976 15.6926C272.926 15.7265 272.869 15.7479 272.809 15.755C272.749 15.762 272.688 15.7545 272.632 15.7331L258.054 10.158C257.989 10.1326 257.931 10.0892 257.889 10.0329C257.847 9.97658 257.821 9.90954 257.815 9.83942C257.81 9.7693 257.823 9.69891 257.855 9.63628C257.888 9.57366 257.937 9.52131 257.997 9.48519L258.2 9.36466L273.474 0.302624C273.534 0.266682 273.604 0.248555 273.674 0.250316C273.745 0.252078 273.814 0.273657 273.872 0.312584C273.931 0.351511 273.978 0.40621 274.007 0.470423C274.036 0.534635 274.047 0.605786 274.037 0.675687Z" fill="#F1F1F1"/>
<path d="M273.346 0.0870131L258.068 9.15174L257.87 9.26962C257.769 9.32949 257.686 9.41671 257.632 9.52126C257.579 9.6258 257.555 9.74343 257.565 9.86061C257.575 9.9778 257.618 10.0898 257.689 10.1837C257.76 10.2776 257.856 10.3495 257.966 10.3914L272.543 15.9664C272.637 16.002 272.738 16.0146 272.838 16.0029C272.938 15.9913 273.033 15.9559 273.116 15.8997C273.2 15.8433 273.268 15.7675 273.316 15.6787C273.364 15.59 273.389 15.4909 273.39 15.3902L273.466 8.43128C273.466 8.38111 273.476 8.33148 273.496 8.28549C273.516 8.2395 273.546 8.19815 273.583 8.16406C273.632 8.11698 273.693 8.0842 273.76 8.06923C273.826 8.05426 273.896 8.05767 273.96 8.07909L275.913 8.74201C276.042 8.78811 276.182 8.79 276.311 8.74738C276.44 8.70475 276.552 8.62007 276.627 8.50681L276.63 8.5027C276.709 8.39064 276.748 8.25528 276.741 8.11837C276.734 7.98145 276.681 7.85093 276.59 7.74781L273.886 4.54385C273.852 4.50395 273.827 4.45752 273.812 4.40746C273.798 4.3566 273.795 4.30358 273.801 4.25136L274.284 0.709701C274.3 0.593292 274.283 0.474767 274.234 0.367708C274.186 0.260648 274.108 0.169392 274.01 0.104395C273.913 0.0393978 273.798 0.00328905 273.681 0.000214207C273.564 -0.00286063 273.448 0.0272262 273.346 0.0870131ZM274.037 0.675687L273.554 4.21735C273.548 4.26309 273.546 4.30944 273.55 4.35552C273.553 4.39675 273.56 4.43754 273.572 4.47719C273.584 4.51805 273.6 4.55756 273.62 4.59506L273.621 4.59576C273.641 4.63492 273.666 4.67161 273.695 4.70517L276.4 7.90908C276.455 7.97057 276.487 8.04888 276.491 8.13113C276.496 8.21338 276.472 8.29467 276.424 8.36164L276.423 8.3637C276.378 8.43227 276.311 8.48367 276.233 8.50957C276.156 8.53548 276.071 8.53436 275.994 8.50641L274.04 7.84278C273.94 7.8087 273.832 7.80089 273.728 7.82008C273.623 7.83927 273.525 7.88483 273.443 7.95244L273.443 7.95345C273.432 7.96265 273.421 7.97181 273.411 7.98167C273.339 8.04899 273.284 8.13298 273.251 8.22635C273.228 8.29119 273.216 8.35954 273.216 8.4284L273.14 15.3873C273.139 15.4476 273.124 15.5068 273.095 15.56C273.067 15.6131 273.026 15.6586 272.976 15.6926C272.926 15.7265 272.869 15.7479 272.809 15.755C272.749 15.762 272.688 15.7545 272.632 15.7331L258.054 10.158C257.989 10.1326 257.931 10.0892 257.889 10.0329C257.847 9.97658 257.821 9.90955 257.815 9.83942C257.81 9.7693 257.823 9.69892 257.855 9.63629C257.888 9.57366 257.937 9.52131 257.997 9.48519L258.2 9.36466L273.474 0.302629C273.534 0.266687 273.604 0.24856 273.674 0.250321C273.745 0.252082 273.814 0.273662 273.872 0.312589C273.931 0.351516 273.978 0.406215 274.007 0.470428C274.036 0.53464 274.047 0.605786 274.037 0.675687Z" fill="#E5E5E5"/>
<path d="M273.607 4.33594L273.687 4.57292L273.621 4.59566L273.62 4.59495L258.381 9.68262L273.443 7.95335L273.443 7.95235L273.484 7.94854L273.513 8.1964L273.251 8.22625L258.41 9.9315C258.352 9.93874 258.293 9.92552 258.244 9.89413C258.195 9.86274 258.158 9.81517 258.14 9.75962C258.123 9.70408 258.125 9.64406 258.147 9.58995C258.168 9.53585 258.208 9.49105 258.26 9.4633C258.272 9.45637 258.285 9.45067 258.299 9.44629L273.55 4.35543L273.607 4.33594Z" fill="#E5E5E5"/>
<path d="M142.61 126.743C142.506 126.797 142.419 126.879 142.358 126.98C142.298 127.081 142.268 127.196 142.27 127.314C142.273 127.431 142.309 127.546 142.373 127.644C142.438 127.742 142.529 127.82 142.636 127.869L145.887 129.353C145.935 129.376 145.978 129.407 146.014 129.446C146.048 129.485 146.074 129.531 146.089 129.581L147.352 133.579C147.391 133.711 147.473 133.825 147.585 133.905C147.696 133.984 147.832 134.023 147.969 134.016L147.974 134.016C148.11 134.013 148.241 133.964 148.346 133.877C148.451 133.791 148.524 133.671 148.554 133.538L149.038 131.533C149.054 131.467 149.088 131.407 149.136 131.358C149.185 131.31 149.245 131.276 149.311 131.259C149.36 131.247 149.41 131.244 149.46 131.252C149.509 131.259 149.557 131.277 149.599 131.304L155.522 134.958C155.607 135.011 155.705 135.043 155.805 135.05C155.906 135.057 156.006 135.04 156.099 135C156.191 134.959 156.272 134.897 156.335 134.819C156.398 134.741 156.441 134.649 156.461 134.551L159.54 119.25C159.563 119.135 159.554 119.015 159.512 118.905C159.471 118.795 159.399 118.699 159.305 118.628C159.211 118.557 159.1 118.514 158.982 118.503C158.865 118.493 158.748 118.516 158.643 118.57L158.437 118.674L142.61 126.743ZM142.739 127.642C142.675 127.612 142.62 127.566 142.582 127.507C142.543 127.448 142.522 127.379 142.52 127.308C142.519 127.238 142.537 127.168 142.573 127.108C142.609 127.047 142.662 126.998 142.725 126.966L158.547 118.9L158.757 118.792C158.82 118.761 158.89 118.747 158.96 118.753C159.031 118.76 159.097 118.786 159.154 118.828C159.21 118.871 159.253 118.928 159.278 118.994C159.303 119.06 159.309 119.131 159.295 119.2L156.217 134.501C156.205 134.56 156.179 134.615 156.141 134.662C156.103 134.709 156.054 134.746 155.999 134.77C155.943 134.794 155.883 134.804 155.823 134.8C155.763 134.796 155.704 134.777 155.653 134.745L149.73 131.091C149.672 131.054 149.608 131.028 149.541 131.012L158.914 119.38C158.951 119.335 158.971 119.278 158.971 119.22C158.971 119.161 158.95 119.105 158.912 119.06C158.875 119.016 158.823 118.985 158.766 118.975C158.708 118.964 158.649 118.974 158.598 119.003C158.586 119.009 158.574 119.018 158.563 119.027L146.11 129.197C146.073 129.169 146.033 129.145 145.99 129.126L142.739 127.642Z" fill="#F1F1F1"/>
<path d="M142.61 126.743C142.506 126.797 142.419 126.879 142.358 126.98C142.298 127.081 142.268 127.196 142.27 127.314C142.273 127.431 142.309 127.546 142.373 127.644C142.438 127.742 142.529 127.82 142.636 127.869L145.887 129.353C145.935 129.376 145.978 129.407 146.014 129.446C146.048 129.485 146.074 129.531 146.089 129.581L147.352 133.579C147.391 133.711 147.473 133.825 147.585 133.905C147.696 133.984 147.832 134.023 147.969 134.016L147.974 134.016C148.11 134.013 148.241 133.964 148.346 133.877C148.451 133.791 148.524 133.671 148.554 133.538L149.038 131.533C149.054 131.467 149.088 131.407 149.136 131.358C149.185 131.31 149.245 131.276 149.311 131.259C149.36 131.247 149.41 131.244 149.46 131.252C149.509 131.259 149.557 131.277 149.599 131.304L155.522 134.958C155.607 135.011 155.705 135.043 155.805 135.05C155.906 135.057 156.006 135.04 156.099 135C156.191 134.959 156.272 134.897 156.335 134.819C156.398 134.741 156.441 134.649 156.461 134.551L159.54 119.25C159.563 119.135 159.554 119.015 159.512 118.905C159.471 118.795 159.399 118.699 159.305 118.628C159.211 118.557 159.1 118.514 158.982 118.503C158.865 118.493 158.748 118.516 158.643 118.57L158.437 118.674L142.61 126.743ZM142.739 127.642C142.675 127.612 142.62 127.566 142.582 127.507C142.543 127.448 142.522 127.379 142.52 127.308C142.519 127.238 142.537 127.168 142.573 127.108C142.609 127.047 142.662 126.998 142.725 126.966L158.547 118.9L158.757 118.792C158.82 118.761 158.89 118.747 158.96 118.753C159.031 118.76 159.097 118.786 159.154 118.828C159.21 118.871 159.253 118.928 159.278 118.994C159.303 119.06 159.309 119.131 159.295 119.2L156.217 134.501C156.205 134.56 156.179 134.615 156.141 134.662C156.103 134.709 156.054 134.746 155.999 134.77C155.943 134.794 155.883 134.804 155.823 134.8C155.763 134.796 155.704 134.777 155.653 134.745L149.73 131.091C149.672 131.054 149.608 131.028 149.541 131.012C149.445 130.99 149.344 130.992 149.249 131.017C149.235 131.02 149.221 131.024 149.208 131.029L149.207 131.029C149.106 131.062 149.015 131.12 148.943 131.198C148.871 131.276 148.82 131.371 148.795 131.475L148.312 133.481C148.294 133.561 148.25 133.633 148.187 133.685C148.123 133.736 148.044 133.765 147.962 133.767L147.96 133.767C147.877 133.771 147.796 133.748 147.729 133.7C147.662 133.653 147.613 133.584 147.59 133.504L146.327 129.506C146.314 129.464 146.297 129.423 146.275 129.385L146.275 129.383C146.254 129.347 146.229 129.312 146.201 129.28C146.173 129.249 146.143 129.221 146.11 129.197C146.073 129.169 146.033 129.145 145.99 129.126L142.739 127.642Z" fill="#E5E5E5"/>
<path d="M146.11 129.197L158.563 119.027C158.574 119.018 158.586 119.009 158.598 119.003C158.649 118.974 158.708 118.964 158.766 118.975C158.823 118.985 158.875 119.016 158.912 119.06C158.95 119.105 158.971 119.161 158.971 119.22C158.971 119.278 158.951 119.335 158.914 119.38L149.541 131.012L149.376 131.218L149.182 131.061L149.207 131.029L149.208 131.029L158.719 119.223L146.275 129.383L146.275 129.385L146.22 129.428L146.062 129.235L146.11 129.197Z" fill="#E5E5E5"/>
</g>
<defs>
<clipPath id="clip0_310_25400">
<rect width="276.484" height="190" fill="white" transform="translate(0.258057)"/>
</clipPath>
</defs>
</svg>
