<svg xmlns="http://www.w3.org/2000/svg" width="221" height="190" viewBox="0 0 221 190" fill="none">
  <g clip-path="url(#clip0_279_3926)">
    <path d="M70.6292 26.2352C68.8546 16.7374 71.6485 5.93211 79.4141 0.183105C78.974 10.6812 82.2613 20.9965 88.6946 29.3041C91.1872 32.499 94.2924 35.793 94.1959 39.8441C94.1359 42.3648 92.7727 44.7131 90.9762 46.4822C89.1796 48.2513 86.9665 49.5268 84.78 50.7825L84.4396 51.3119C78.0298 44.082 72.4038 35.733 70.6292 26.2352Z" fill="#F0F0F0"/>
    <path d="M79.5555 0.328546C76.2929 7.63031 75.414 15.7744 77.0436 23.6042C77.3644 25.296 77.95 26.9266 78.7786 28.436C79.6334 29.8804 80.8593 31.0694 82.329 31.8797C83.6842 32.6628 85.161 33.3068 86.3023 34.4057C86.8781 34.9768 87.3267 35.6632 87.6186 36.4199C87.9105 37.1766 88.0392 37.9864 87.9962 38.7963C87.9416 40.8171 87.1641 42.6977 86.3399 44.5104C85.4247 46.5231 84.4423 48.5991 84.5016 50.8618C84.5088 51.136 84.083 51.1311 84.0758 50.8574C83.9725 46.9205 86.8187 43.7588 87.4529 39.9813C87.7489 38.2186 87.5154 36.3561 86.2761 34.9897C85.1925 33.795 83.6701 33.1295 82.2911 32.3485C80.8457 31.5791 79.6108 30.4674 78.6941 29.1107C77.7913 27.6483 77.1439 26.0429 76.7797 24.3633C75.8994 20.5951 75.617 16.7119 75.943 12.856C76.2906 8.45316 77.3888 4.14226 79.19 0.109769C79.3016 -0.13977 79.6663 0.0806385 79.5555 0.328546Z" fill="white"/>
    <path d="M76.3705 21.1137C75.0198 21.2088 73.6792 20.8206 72.5882 20.0185C71.4972 19.2164 70.7268 18.0527 70.4147 16.735C70.3525 16.4682 70.7642 16.3589 70.8265 16.6261C71.1149 17.8536 71.8326 18.9376 72.85 19.6825C73.8675 20.4273 75.1177 20.7839 76.375 20.6879C76.6482 20.6674 76.6422 21.0933 76.3705 21.1137Z" fill="white"/>
    <path d="M81.5896 31.5732C83.4233 29.4996 84.408 26.811 84.3475 24.0436C84.3413 23.7694 84.7671 23.7742 84.7733 24.0481C84.831 26.928 83.8005 29.7238 81.8875 31.8775C81.7051 32.0826 81.4081 31.7772 81.5896 31.5732Z" fill="white"/>
    <path d="M76.7895 8.71771C77.3198 8.78983 77.8597 8.72911 78.3608 8.541C78.8618 8.35289 79.3083 8.04327 79.6601 7.63996C79.8399 7.43258 80.1367 7.73821 79.958 7.94422C79.5673 8.388 79.0738 8.72933 78.5206 8.9384C77.9675 9.14746 77.3716 9.21789 76.785 9.14354C76.7291 9.14116 76.6763 9.1176 76.6371 9.07764C76.598 9.03768 76.5755 8.98431 76.5743 8.92839C76.5752 8.87202 76.5983 8.81826 76.6386 8.77881C76.6789 8.73936 76.7331 8.71741 76.7895 8.71771Z" fill="white"/>
    <path d="M111.171 8.03943C111.062 8.1721 110.954 8.30478 110.846 8.44093C109.395 10.2322 108.093 12.1383 106.951 14.1404C106.86 14.2938 106.771 14.4506 106.685 14.6063C103.985 19.4593 102.21 24.7714 101.45 30.2723C101.149 32.4616 101.016 34.6705 101.05 36.88C101.098 39.9314 101.393 43.2361 100.458 46.0426C100.364 46.3364 100.251 46.6242 100.121 46.9042L85.1118 51.6863C85.0723 51.6801 85.0336 51.6773 84.9939 51.6711L84.4033 51.8894C84.3936 51.7756 84.3859 51.6573 84.3762 51.5435C84.3703 51.4775 84.3677 51.4104 84.3618 51.3444C84.3589 51.3001 84.3561 51.2556 84.351 51.2158C84.35 51.2011 84.3491 51.1863 84.3492 51.1749C84.344 51.1351 84.3435 51.0975 84.3394 51.0611C84.2948 50.4001 84.2535 49.7381 84.2192 49.0738C84.2181 49.0704 84.2181 49.0704 84.2204 49.0659C83.9627 44.0066 84.1252 38.8814 85.0605 33.9438C85.0887 33.7952 85.1156 33.6433 85.1506 33.4926C85.5845 31.2693 86.1994 29.0852 86.9892 26.962C87.4253 25.8009 87.92 24.6625 88.4713 23.5514C89.9012 20.6831 91.7734 18.0576 94.0193 15.7711C98.497 11.2136 104.382 8.13892 110.689 8.04211C110.85 8.03974 111.008 8.03836 111.171 8.03943Z" fill="#F0F0F0"/>
    <path d="M111.198 8.24064C104.197 12.1064 98.5915 18.0799 95.1786 25.3126C94.4162 26.8566 93.902 28.5111 93.6548 30.2152C93.4677 31.883 93.7306 33.5705 94.4162 35.1023C95.0268 36.5435 95.8183 37.9469 96.0679 39.5114C96.1838 40.3141 96.1287 41.1322 95.9062 41.9121C95.6838 42.6921 95.2989 43.4161 94.777 44.0369C93.5167 45.6175 91.7636 46.651 90.0142 47.6021C88.0717 48.6581 86.0374 49.7241 84.7224 51.5666C84.5631 51.7898 84.226 51.5295 84.3851 51.3066C86.6729 48.1011 90.849 47.2903 93.6298 44.6559C94.9273 43.4267 95.8623 41.799 95.6954 39.962C95.5495 38.3556 94.7346 36.9076 94.1037 35.4538C93.413 33.9693 93.0963 32.3382 93.1812 30.703C93.3408 28.9918 93.7904 27.3202 94.5108 25.7599C96.0767 22.2211 98.1892 18.9506 100.771 16.0681C103.699 12.762 107.172 9.98117 111.038 7.84595C111.277 7.71389 111.436 8.10945 111.198 8.24064Z" fill="white"/>
    <path d="M96.1405 22.9191C95.0047 22.1818 94.168 21.0647 93.7799 19.7674C93.3917 18.4701 93.4773 17.0771 94.0214 15.8371C94.1323 15.5866 94.5269 15.7473 94.4158 15.9981C93.907 17.1519 93.8274 18.4495 94.1913 19.6568C94.5552 20.864 95.3387 21.9015 96.4004 22.5818C96.6309 22.7299 96.3697 23.0664 96.1405 22.9191Z" fill="white"/>
    <path d="M94.0104 34.4125C96.7229 33.8609 99.1279 32.3071 100.746 30.0611C100.906 29.8384 101.243 30.0986 101.083 30.321C99.3951 32.6552 96.8891 34.267 94.0651 34.8349C93.7959 34.8888 93.7426 34.4662 94.0104 34.4125Z" fill="white"/>
    <path d="M103.938 13.2734C104.318 13.6502 104.786 13.9268 105.299 14.0783C105.813 14.2297 106.356 14.2513 106.879 14.1411C107.148 14.0838 107.201 14.5065 106.934 14.5634C106.355 14.6825 105.755 14.6579 105.188 14.4918C104.62 14.3257 104.102 14.0232 103.679 13.6106C103.635 13.5751 103.607 13.5245 103.6 13.469C103.593 13.4135 103.607 13.3574 103.64 13.312C103.674 13.2675 103.725 13.2385 103.781 13.2313C103.837 13.224 103.894 13.2392 103.938 13.2734Z" fill="white"/>
    <path d="M156.306 71.9992C156.346 72.1733 156.372 72.3503 156.384 72.5285L170.246 80.5258L173.616 78.586L177.208 83.2886L171.576 87.3023C171.122 87.6266 170.574 87.7945 170.015 87.7809C169.457 87.7673 168.918 87.5729 168.479 87.2268L154.184 75.9496C153.539 76.1884 152.837 76.2251 152.17 76.0549C151.504 75.8847 150.905 75.5156 150.453 74.9967C150.002 74.4778 149.719 73.8337 149.642 73.1501C149.565 72.4665 149.699 71.7757 150.024 71.1697C150.35 70.5637 150.852 70.0712 151.464 69.7576C152.077 69.4441 152.77 69.3244 153.452 69.4144C154.134 69.5045 154.772 69.8 155.282 70.2617C155.792 70.7235 156.149 71.3295 156.306 71.9992Z" fill="#FFB6B6"/>
    <path d="M170.439 79.6425C170.483 79.4386 170.57 79.2464 170.695 79.0793C170.82 78.9122 170.98 78.774 171.163 78.6742L177.563 75.1871C178.415 74.5438 179.488 74.2647 180.546 74.4112C181.604 74.5576 182.56 75.1175 183.206 75.9681C183.851 76.8188 184.133 77.8907 183.989 78.9488C183.845 80.0069 183.288 80.9648 182.439 81.6125L177.309 86.8235C177.163 86.9722 176.986 87.0877 176.791 87.1619C176.596 87.2361 176.388 87.2675 176.179 87.2538C175.971 87.2401 175.768 87.1817 175.585 87.0825C175.401 86.9834 175.241 86.8458 175.115 86.6792L170.699 80.8236C170.573 80.6571 170.485 80.4653 170.44 80.2615C170.395 80.0577 170.395 79.8465 170.439 79.6425Z" fill="#6C63FF"/>
    <path d="M181.583 59.6527C182.504 56.7179 184.598 54.0263 187.494 53.0342C190.391 52.0421 194.631 53.5534 196.809 55.7233C200.791 59.6925 200.914 64.5516 198.178 68.8606C197.633 68.8318 195.755 68.8105 195.204 68.7899L194.425 66.1927V68.7643C190.126 68.6314 185.649 68.7146 181.171 68.8006C180.769 65.7498 180.663 62.5874 181.583 59.6527Z" fill="#031A2A"/>
    <path d="M180.641 182.554H176.719L174.854 167.428L180.641 167.428L180.641 182.554Z" fill="#FFB6B6"/>
    <path d="M204.81 182.554H200.888L199.023 167.428L204.81 167.428L204.81 182.554Z" fill="#FFB6B6"/>
    <path d="M193.359 89.6509L194.247 91.9612L194.07 94.2718L176.679 100.295L177.542 90.1843L179.497 87.874L193.359 89.6509Z" fill="#FFB6B6"/>
    <path d="M187.86 68.8608C191.291 68.8608 194.072 66.08 194.072 62.6496C194.072 59.2193 191.291 56.4385 187.86 56.4385C184.43 56.4385 181.649 59.2193 181.649 62.6496C181.649 66.08 184.43 68.8608 187.86 68.8608Z" fill="#FFB7B7"/>
    <path d="M197.253 100.252V104.199C197.253 104.199 201.873 110.204 199.385 114.825L206.514 176.316H199.05L186.59 124.421L181.279 175.25H174.881L174.118 134.825C173.918 124.192 175.693 113.614 179.354 103.629L197.253 100.252Z" fill="#031A2A"/>
    <path d="M183.593 54.5616C184.786 53.8341 186.153 53.4405 187.551 53.4221C188.948 53.4036 190.325 53.761 191.537 54.4569C192.75 55.1527 193.753 56.1615 194.441 57.3776C195.13 58.5938 195.48 59.9727 195.453 61.3702C191.982 61.5298 188.334 61.5714 184.636 61.5786L183.762 59.4395L183.247 61.5802C182.12 61.5801 180.991 61.5786 179.86 61.5757C179.814 60.1822 180.134 58.8009 180.789 57.5701C181.444 56.3392 182.411 55.3018 183.593 54.5616Z" fill="#031A2A"/>
    <path d="M182.395 190H179.612L179.116 187.373L177.843 190H170.463C170.109 190 169.765 189.887 169.48 189.678C169.195 189.468 168.984 189.173 168.879 188.835C168.774 188.497 168.779 188.135 168.895 187.8C169.01 187.466 169.229 187.177 169.52 186.976L175.414 182.906V180.25L181.613 180.62L182.395 190Z" fill="#031A2A"/>
    <path d="M206.92 190H204.137L203.64 187.373L202.368 190H194.988C194.634 190 194.289 189.887 194.005 189.678C193.72 189.468 193.509 189.173 193.404 188.835C193.299 188.497 193.304 188.135 193.419 187.8C193.535 187.466 193.754 187.177 194.045 186.976L199.939 182.906V180.25L206.138 180.62L206.92 190Z" fill="#031A2A"/>
    <path d="M200.079 112.912C200.424 108.168 200.068 103.399 199.023 98.7586C197.704 92.9022 196.027 85.4504 195.995 85.2577C195.994 85.254 195.994 85.2502 195.994 85.2463L195.483 74.3308C195.481 74.2992 195.468 74.2692 195.445 74.247C195.423 74.2247 195.393 74.2117 195.361 74.2107L191.827 74.0919C191.794 74.0908 191.763 74.077 191.741 74.0535C191.718 74.03 191.705 73.9985 191.705 73.9658C191.705 73.7025 191.653 73.4418 191.552 73.1986C191.452 72.9553 191.304 72.7343 191.118 72.5481C190.932 72.362 190.711 72.2143 190.467 72.1135C190.224 72.0128 189.964 71.9609 189.7 71.9609H182.642C182.185 71.9611 181.743 72.1282 181.4 72.4307C181.058 72.7332 180.837 73.1505 180.78 73.6041C180.777 73.6353 180.762 73.6642 180.739 73.685C180.715 73.7058 180.685 73.717 180.653 73.7162L177.907 73.6239C177.879 73.623 177.852 73.6311 177.829 73.6471C177.807 73.663 177.79 73.6858 177.782 73.7121L177.591 74.3191C174.818 83.2482 174.048 92.6788 175.336 101.939C175.669 104.404 175.518 108.109 175.392 110.173C175.38 110.375 175.407 110.578 175.473 110.769C175.539 110.96 175.642 111.136 175.776 111.287C175.911 111.438 176.074 111.562 176.256 111.65C176.438 111.738 176.635 111.789 176.837 111.801C181.943 112.094 196.401 119.09 199.862 115.75C199.87 115.742 199.962 114.51 200.079 112.912Z" fill="#6C63FF"/>
    <path d="M171.761 71.9992C171.801 72.1733 171.827 72.3503 171.838 72.5285L185.701 80.5258L189.071 78.586L192.663 83.2886L187.031 87.3023C186.577 87.6266 186.029 87.7945 185.47 87.7809C184.912 87.7673 184.373 87.5729 183.934 87.2268L169.639 75.9496C168.994 76.1884 168.292 76.2251 167.625 76.0549C166.959 75.8847 166.36 75.5156 165.908 74.9967C165.456 74.4778 165.174 73.8337 165.097 73.1501C165.02 72.4665 165.154 71.7757 165.479 71.1697C165.805 70.5637 166.307 70.0712 166.919 69.7576C167.531 69.4441 168.225 69.3244 168.907 69.4144C169.589 69.5045 170.227 69.8 170.737 70.2617C171.247 70.7235 171.604 71.3295 171.761 71.9992Z" fill="#FFB6B6"/>
    <path d="M185.894 79.6425C185.938 79.4385 186.025 79.2464 186.15 79.0793C186.275 78.9121 186.435 78.774 186.618 78.6742L193.018 75.187C193.87 74.544 194.943 74.2652 196 74.4117C197.058 74.5582 198.014 75.1181 198.66 75.9686C199.305 76.8191 199.587 77.8908 199.443 78.9488C199.3 80.0068 198.743 80.9647 197.894 81.6124L192.764 86.8235C192.618 86.9722 192.441 87.0876 192.246 87.1618C192.051 87.2361 191.842 87.2674 191.634 87.2537C191.426 87.24 191.223 87.1816 191.04 87.0825C190.856 86.9833 190.696 86.8457 190.57 86.6791L186.154 80.8236C186.028 80.657 185.94 80.4652 185.895 80.2614C185.85 80.0576 185.85 79.8465 185.894 79.6425Z" fill="#6C63FF"/>
    <path d="M16.2912 168.452C25.2234 168.452 32.4645 161.211 32.4645 152.279C32.4645 143.346 25.2234 136.105 16.2912 136.105C7.35894 136.105 0.11792 143.346 0.11792 152.279C0.11792 161.211 7.35894 168.452 16.2912 168.452Z" fill="#F0F0F0"/>
    <path d="M159.21 96.1554L42.0047 149.967C40.3364 150.73 38.4333 150.801 36.7129 150.163C34.9925 149.526 33.5953 148.231 32.8279 146.565L3.9045 83.5674C3.14084 81.899 3.07013 79.9959 3.70786 78.2755C4.3456 76.5551 5.63971 75.158 7.30629 74.3905L124.511 20.5793C126.18 19.8156 128.083 19.7449 129.803 20.3827C131.524 21.0204 132.921 22.3145 133.688 23.9811L162.612 86.9786C163.375 88.6469 163.446 90.55 162.808 92.2704C162.171 93.9908 160.877 95.388 159.21 96.1554Z" fill="white"/>
    <path d="M9.25575 78.6365C8.71433 78.8858 8.29392 79.3397 8.08674 79.8986C7.87957 80.4575 7.90254 81.0758 8.15063 81.6177L37.074 144.615C37.3233 145.157 37.7772 145.577 38.3361 145.784C38.895 145.991 39.5133 145.968 40.0553 145.72L157.261 91.9092C157.802 91.6599 158.222 91.206 158.43 90.6471C158.637 90.0882 158.614 89.4699 158.366 88.9279L129.442 25.9304C129.193 25.389 128.739 24.9686 128.18 24.7614C127.621 24.5543 127.003 24.5772 126.461 24.8253L9.25575 78.6365Z" fill="#E4E4E4"/>
    <path d="M159.21 96.1554L42.0047 149.967C40.3364 150.73 38.4333 150.801 36.7129 150.163C34.9925 149.526 33.5953 148.231 32.8279 146.565L3.9045 83.5674C3.14084 81.899 3.07013 79.9959 3.70786 78.2755C4.3456 76.5551 5.63971 75.158 7.30629 74.3905L124.511 20.5793C126.18 19.8156 128.083 19.7449 129.803 20.3827C131.524 21.0204 132.921 22.3145 133.688 23.9811L162.612 86.9786C163.375 88.6469 163.446 90.55 162.808 92.2704C162.171 93.9908 160.877 95.388 159.21 96.1554ZM7.60617 75.0438C6.11269 75.7315 4.95299 76.9836 4.38149 78.5253C3.81 80.067 3.87339 81.7724 4.55774 83.2674L33.4811 146.265C34.1688 147.758 35.4209 148.918 36.9626 149.49C38.5043 150.061 40.2098 149.998 41.7048 149.313L158.91 95.5022C160.404 94.8144 161.563 93.5624 162.135 92.0207C162.706 90.479 162.643 88.7735 161.958 87.2785L133.035 24.281C132.347 22.7875 131.095 21.6278 129.554 21.0563C128.012 20.4848 126.306 20.5482 124.811 21.2326L7.60617 75.0438Z" fill="#CACACA"/>
    <path d="M129.923 67.5681L36.8106 110.318C36.0607 110.661 35.2231 110.764 34.4123 110.613C33.6016 110.463 32.857 110.065 32.2804 109.476L5.03755 81.5383C4.59076 81.0801 4.26049 80.5213 4.07451 79.909C3.88853 79.2966 3.85228 78.6486 3.9688 78.0193C4.08532 77.39 4.35121 76.7979 4.74411 76.2927C5.13701 75.7875 5.64544 75.3841 6.22667 75.1162L125.556 20.1076C126.13 19.8433 126.758 19.7187 127.389 19.7439C128.02 19.7692 128.636 19.9436 129.187 20.2528C129.737 20.5621 130.207 20.9974 130.557 21.5232C130.907 22.0489 131.128 22.6501 131.201 23.2775L131.217 23.2771L132.252 63.833C132.272 64.6152 132.062 65.3863 131.648 66.0503C131.235 66.7144 130.635 67.2421 129.923 67.5681ZM125.861 20.7585L6.52747 75.7691C6.05075 75.9887 5.63374 76.3196 5.31148 76.734C4.98923 77.1483 4.77115 77.634 4.67558 78.1501C4.58001 78.6662 4.60974 79.1977 4.76227 79.7C4.9148 80.2022 5.18568 80.6605 5.55214 81.0363L32.7949 108.974C33.2679 109.458 33.8786 109.783 34.5436 109.907C35.2086 110.031 35.8956 109.946 36.5107 109.665L129.623 66.9148C130.207 66.6475 130.699 66.2146 131.038 65.6699C131.378 65.1253 131.55 64.4929 131.533 63.8513L130.507 23.6547C130.493 23.1123 130.345 22.5818 130.076 22.1108C129.806 21.6398 129.424 21.2429 128.964 20.9559C128.503 20.6689 127.979 20.5006 127.437 20.4661C126.896 20.4316 126.354 20.5321 125.861 20.7585Z" fill="#CACACA"/>
    <path d="M71.5333 125.401L42.5233 138.72C42.3128 138.817 42.0852 138.872 41.8537 138.881C41.6221 138.889 41.3911 138.853 41.1737 138.772C40.9564 138.692 40.7571 138.569 40.5871 138.412C40.4171 138.254 40.2799 138.065 40.1832 137.854C40.0865 137.644 40.0323 137.416 40.0236 137.184C40.0149 136.953 40.0519 136.722 40.1326 136.505C40.2132 136.287 40.3359 136.088 40.4936 135.918C40.6513 135.748 40.8409 135.611 41.0516 135.515L70.0616 122.196C70.4866 122.001 70.9715 121.983 71.4097 122.146C71.8479 122.309 72.2036 122.639 72.3986 123.063C72.5937 123.488 72.6121 123.973 72.4498 124.411C72.2876 124.85 71.9579 125.206 71.5333 125.401Z" fill="white"/>
    <path d="M92.7563 84.2368C93.2543 85.3188 93.5342 86.4883 93.5799 87.6785C93.6257 88.8687 93.4364 90.0562 93.023 91.1732C92.6095 92.2902 91.98 93.3148 91.1703 94.1883C90.3607 95.0619 89.3868 95.7673 88.3043 96.2643C87.2219 96.7612 86.0521 97.04 84.8619 97.0846C83.6717 97.1293 82.4843 96.9389 81.3677 96.5243C80.2511 96.1098 79.2271 95.4793 78.3544 94.6688C77.4816 93.8583 76.7771 92.8838 76.2811 91.8009" fill="#042134"/>
    <path d="M158.165 181.843H29.1969C27.3621 181.84 25.603 181.111 24.3056 179.813C23.0082 178.516 22.2784 176.757 22.2764 174.922V105.602C22.2785 103.767 23.0083 102.008 24.3056 100.711C25.603 99.4135 27.3621 98.6837 29.1969 98.6816H158.165C160 98.6837 161.759 99.4135 163.056 100.711C164.353 102.008 165.083 103.767 165.085 105.602V174.922C165.083 176.757 164.353 178.516 163.056 179.813C161.759 181.111 160 181.84 158.165 181.843Z" fill="white"/>
    <path d="M29.1969 103.354C28.6009 103.355 28.0294 103.592 27.608 104.013C27.1865 104.435 26.9494 105.006 26.9487 105.602V174.922C26.9494 175.518 27.1865 176.09 27.608 176.511C28.0294 176.933 28.6009 177.17 29.1969 177.17H158.165C158.761 177.17 159.332 176.933 159.754 176.511C160.175 176.09 160.412 175.518 160.413 174.922V105.602C160.412 105.006 160.175 104.435 159.754 104.013C159.332 103.592 158.761 103.355 158.165 103.354H29.1969Z" fill="#FF6584"/>
    <path d="M158.165 181.843H29.1969C27.3621 181.84 25.603 181.111 24.3056 179.813C23.0082 178.516 22.2784 176.757 22.2764 174.922V105.602C22.2785 103.767 23.0083 102.008 24.3056 100.711C25.603 99.4135 27.3621 98.6837 29.1969 98.6816H158.165C160 98.6837 161.759 99.4135 163.056 100.711C164.353 102.008 165.083 103.767 165.085 105.602V174.922C165.083 176.757 164.353 178.516 163.056 179.813C161.759 181.111 160 181.84 158.165 181.843ZM29.1969 99.4005C27.5526 99.4023 25.9763 100.056 24.8137 101.219C23.651 102.382 22.997 103.958 22.9952 105.602V174.922C22.997 176.566 23.651 178.143 24.8137 179.305C25.9763 180.468 27.5526 181.122 29.1969 181.124H158.165C159.809 181.122 161.385 180.468 162.548 179.305C163.711 178.143 164.365 176.566 164.366 174.922V105.602C164.365 103.958 163.711 102.382 162.548 101.219C161.385 100.056 159.809 99.4023 158.165 99.4005H29.1969Z" fill="#042134"/>
    <path d="M143.477 143.643H41.0198C40.1951 143.642 39.3909 143.386 38.7169 142.911C38.043 142.436 37.5321 141.764 37.254 140.988L24.1527 104.231C23.9378 103.628 23.8708 102.983 23.9573 102.349C24.0438 101.714 24.2813 101.11 24.6497 100.587C25.0182 100.064 25.5069 99.6367 26.0747 99.3415C26.6426 99.0464 27.273 98.8919 27.913 98.891L159.311 98.689C159.942 98.6881 160.565 98.837 161.128 99.1232C161.691 99.4095 162.178 99.8251 162.55 100.336C162.921 100.847 163.166 101.438 163.265 102.062C163.364 102.686 163.313 103.324 163.118 103.925L163.133 103.931L147.152 141.22C146.844 141.94 146.332 142.553 145.678 142.984C145.025 143.414 144.259 143.644 143.477 143.643ZM159.316 99.4078L27.9139 99.6097C27.389 99.6105 26.872 99.7372 26.4062 99.9793C25.9405 100.221 25.5397 100.572 25.2375 101.001C24.9353 101.43 24.7405 101.926 24.6696 102.446C24.5986 102.966 24.6536 103.495 24.8298 103.99L37.931 140.746C38.1591 141.383 38.5781 141.934 39.1309 142.324C39.6837 142.713 40.3434 142.923 41.0198 142.924H143.477C144.119 142.925 144.747 142.737 145.282 142.383C145.818 142.03 146.238 141.527 146.491 140.937L162.33 103.978C162.544 103.48 162.631 102.936 162.582 102.395C162.534 101.855 162.352 101.335 162.054 100.882C161.755 100.429 161.349 100.057 160.871 99.7998C160.393 99.5425 159.859 99.4078 159.316 99.4078Z" fill="#042134"/>
    <path d="M66.282 171.839H34.3606C33.8929 171.839 33.4443 171.653 33.1136 171.322C32.7828 170.991 32.597 170.543 32.597 170.075C32.597 169.607 32.7828 169.159 33.1136 168.828C33.4443 168.497 33.8929 168.312 34.3606 168.312H66.282C66.7498 168.312 67.1983 168.497 67.5291 168.828C67.8598 169.159 68.0456 169.607 68.0456 170.075C68.0456 170.543 67.8598 170.991 67.5291 171.322C67.1983 171.653 66.7498 171.839 66.282 171.839Z" fill="white"/>
    <path d="M102.745 143.284C102.745 145.688 101.79 147.993 100.09 149.693C98.3904 151.393 96.0849 152.348 93.6809 152.348C91.2769 152.348 88.9713 151.393 87.2715 149.693C85.5716 147.993 84.6166 145.688 84.6166 143.284" fill="#042134"/>
    <path d="M45.4031 39.066C47.1896 39.066 48.6378 37.6178 48.6378 35.8313C48.6378 34.0449 47.1896 32.5967 45.4031 32.5967C43.6167 32.5967 42.1685 34.0449 42.1685 35.8313C42.1685 37.6178 43.6167 39.066 45.4031 39.066Z" fill="#F0F0F0"/>
    <path d="M3.35257 116.697C5.13902 116.697 6.58723 115.249 6.58723 113.463C6.58723 111.676 5.13902 110.228 3.35257 110.228C1.56612 110.228 0.11792 111.676 0.11792 113.463C0.11792 115.249 1.56612 116.697 3.35257 116.697Z" fill="#F0F0F0"/>
    <path d="M165.085 55.9581C166.872 55.9581 168.32 54.5099 168.32 52.7234C168.32 50.937 166.872 49.4888 165.085 49.4888C163.299 49.4888 161.851 50.937 161.851 52.7234C161.851 54.5099 163.299 55.9581 165.085 55.9581Z" fill="#F0F0F0"/>
    <path d="M220.454 190H158.89C158.776 190 158.668 189.955 158.587 189.875C158.507 189.794 158.462 189.685 158.462 189.572C158.462 189.459 158.507 189.35 158.587 189.269C158.668 189.189 158.776 189.144 158.89 189.144H220.454C220.567 189.144 220.676 189.19 220.756 189.27C220.836 189.35 220.881 189.459 220.881 189.572C220.881 189.685 220.836 189.794 220.756 189.874C220.676 189.954 220.567 190 220.454 190Z" fill="#CACACA"/>
  </g>
  <defs>
    <clipPath id="clip0_279_3926">
      <rect width="220.764" height="190" fill="white" transform="translate(0.11792)"/>
    </clipPath>
  </defs>
</svg>