<svg width="253" height="190" viewBox="0 0 253 190" fill="none" xmlns="http://www.w3.org/2000/svg">
<g id="undraw_apartment_rent_o-0-ut (1) 1" clip-path="url(#clip0_1628_55449)">
<path id="Vector" d="M178.862 73.5566H157.418V87.2706H178.862V73.5566Z" fill="#6C63FF"/>
<path id="Vector_2" d="M144.444 73.5566H123V87.2706H144.444V73.5566Z" fill="#6C63FF"/>
<path id="Vector_3" d="M111.444 73.5566H90V87.2706H111.444V73.5566Z" fill="#6C63FF"/>
<path id="Vector_4" d="M241.548 78.0446V48.8714H225.341V29.9213H214.37V48.8714H198.163V78.0446H189.186V12.4672H170.984V6.2336H146.798V0H122.861V6.2336H100.17V12.4672H80.4723V77.7953H69.9999V48.622H53.7925V29.6719H42.8214V48.622H26.614V77.7953H16.1416V181.273H40.0786V144.619H56.5353V181.273H120.866V138.635H148.793V181.273H187.69V181.522H211.627V144.869H228.084V181.522H252.021V78.0446H241.548ZM24.744 90.5118H34.219V97.9921H24.744V90.5118ZM24.8686 111.457H34.3437V118.937H24.8686V111.457ZM34.4684 139.882H24.9933V132.402H34.4684V139.882ZM59.2781 72.3097H37.3358V67.8215H59.2781V72.3097ZM59.2781 65.8268H37.3358V61.3386H59.2781V65.8268ZM59.2781 59.3438H37.3358V54.8556H59.2781V59.3438ZM62.3949 90.5118H71.87V97.9921H62.3949V90.5118ZM62.5196 111.457H71.9946V118.937H62.5196V111.457ZM72.1193 139.882H62.6442V132.402H72.1193V139.882ZM110.892 127.415H93.4382V119.685H110.892V127.415ZM110.892 105.223H93.4382V97.4934H110.892V105.223ZM110.892 83.0315H93.4382V75.3018H110.892V83.0315ZM110.892 60.8399H93.4382V53.1102H110.892V60.8399ZM110.892 38.6483H93.4382V30.9186H110.892V38.6483ZM143.556 127.415H126.102V119.685H143.556V127.415ZM143.556 105.223H126.102V97.4934H143.556V105.223ZM143.556 83.0315H126.102V75.3018H143.556V83.0315ZM143.556 60.8399H126.102V53.1102H143.556V60.8399ZM143.556 38.6483H126.102V30.9186H143.556V38.6483ZM176.22 127.415H158.766V119.685H176.22V127.415ZM176.22 105.223H158.766V97.4934H176.22V105.223ZM176.22 83.0315H158.766V75.3018H176.22V83.0315ZM176.22 60.8399H158.766V53.1102H176.22V60.8399ZM176.22 38.6483H158.766V30.9186H176.22V38.6483ZM196.293 90.7612H205.768V98.2415H196.293V90.7612ZM196.417 111.706H205.892V119.186H196.417V111.706ZM206.017 140.131H196.542V132.651H206.017V140.131ZM230.827 72.5591H208.884V68.0709H230.827V72.5591ZM230.827 66.0761H208.884V61.5879H230.827V66.0761ZM230.827 59.5932H208.884V55.105H230.827V59.5932ZM233.943 90.7612H243.419V98.2415H233.943V90.7612ZM234.068 111.706H243.543V119.186H234.068V111.706ZM243.668 140.131H234.193V132.651H243.668V140.131Z" fill="#F2F2F2"/>
<path id="Vector_5" d="M30.8995 156.017C30.8297 157.004 30.7205 158.107 30.5518 159.266L33.6002 155.885L33.6169 155.942C33.4305 155.128 33.1304 154.345 32.7253 153.615L32.7448 153.669L30.8995 156.017Z" fill="#6C63FF"/>
<path id="Vector_6" d="M30.9121 155.843L32.6997 153.568C32.3194 152.874 31.7693 152.288 31.1008 151.865C31.0681 151.845 31.0351 151.827 31.0022 151.809C31.012 152.077 31.0588 153.655 30.9121 155.843Z" fill="#6C63FF"/>
<path id="Vector_7" d="M29.299 164.762C29.2205 165.002 29.1393 165.236 29.0557 165.467L33.545 162.835L33.5513 162.901C33.6451 162.491 33.7232 162.082 33.7857 161.673L29.3031 164.792L29.299 164.762Z" fill="#6C63FF"/>
<path id="Vector_8" d="M29.9238 162.553L33.9671 159.219L33.9786 159.281C33.9929 158.179 33.8765 157.078 33.6319 156.003L30.5254 159.448C30.3622 160.534 30.1617 161.569 29.9238 162.553Z" fill="#6C63FF"/>
<path id="Vector_9" d="M30.4554 159.382L25.6174 153.984L25.6433 153.923C25.1885 154.563 24.7996 155.248 24.4824 155.966L30.0034 161.844C30.1925 160.987 30.3402 160.156 30.4554 159.382Z" fill="#6C63FF"/>
<path id="Vector_10" d="M24.4307 156.088L24.4309 156.088C24.4396 156.068 24.4472 156.046 24.456 156.026L24.4307 156.088Z" fill="#6C63FF"/>
<path id="Vector_11" d="M24.1616 156.75L24.1367 156.812C24.1446 156.791 24.1536 156.771 24.1616 156.75Z" fill="#6C63FF"/>
<path id="Vector_12" d="M29.9715 161.987L24.4304 156.088C24.3367 156.302 24.247 156.523 24.1611 156.75L29.8245 162.611C29.876 162.402 29.925 162.194 29.9715 161.987Z" fill="#6C63FF"/>
<path id="Vector_13" d="M33.7977 161.594C33.908 160.852 33.9682 160.104 33.9777 159.354L29.8797 162.733C29.7173 163.389 29.5387 164.019 29.3438 164.623L33.789 161.53L33.7977 161.594Z" fill="#6C63FF"/>
<path id="Vector_14" d="M23.4269 162.015L27.9122 167.867C28.2807 167.154 28.6062 166.421 28.8869 165.669L23.4139 159.921C23.3597 160.64 23.3537 161.361 23.3959 162.08L23.4269 162.015Z" fill="#6C63FF"/>
<path id="Vector_15" d="M30.9193 151.804L30.9595 151.786C29.9772 151.261 28.9138 151.317 27.8945 151.849L30.8321 155.839C30.9903 153.471 30.9204 151.827 30.9193 151.804Z" fill="#6C63FF"/>
<path id="Vector_16" d="M28.9102 165.859C28.6528 166.534 28.3587 167.196 28.0293 167.84L32.541 165.506L32.5456 165.57C32.8855 164.996 33.1513 164.381 33.3366 163.74C33.4083 163.488 33.4737 163.235 33.5328 162.981L28.99 165.645C28.9635 165.716 28.9372 165.788 28.9102 165.859Z" fill="#6C63FF"/>
<path id="Vector_17" d="M30.8207 156.017L27.8157 151.935L27.8439 151.877C26.9838 152.375 26.2447 153.057 25.6797 153.874L30.4783 159.228C30.6444 158.082 30.7519 156.992 30.8207 156.017Z" fill="#6C63FF"/>
<path id="Vector_18" d="M28.9353 165.537C29.2699 164.624 29.555 163.694 29.7896 162.751L24.1121 156.875C23.977 157.242 23.8529 157.624 23.7397 158.02C23.5828 158.589 23.478 159.17 23.4268 159.758L28.931 165.539L28.9353 165.537Z" fill="#6C63FF"/>
<path id="Vector_19" d="M34.7677 171.877C34.0849 172.592 33.2971 173.372 32.4277 174.157L36.9319 173.498L36.9087 173.552C37.2841 172.807 37.5525 172.012 37.706 171.191L37.6869 171.245L34.7677 171.877Z" fill="#6C63FF"/>
<path id="Vector_20" d="M37.5697 168.807C37.5569 168.771 37.5433 168.736 37.5295 168.701C37.3657 168.914 36.3957 170.159 34.8867 171.751L37.7144 171.139C37.8641 170.362 37.8144 169.56 37.5697 168.807Z" fill="#6C63FF"/>
<path id="Vector_21" d="M27.9562 177.591C27.7431 177.725 27.5308 177.854 27.3193 177.978L32.4559 178.814L32.4186 178.869C32.7519 178.614 33.0731 178.348 33.3823 178.073L27.9401 177.617L27.9562 177.591Z" fill="#6C63FF"/>
<path id="Vector_22" d="M29.8467 176.287L35.0876 176.298L35.0566 176.353C35.7709 175.513 36.3831 174.592 36.8805 173.607L32.2905 174.279C31.4723 175.012 30.6577 175.681 29.8467 176.287Z" fill="#6C63FF"/>
<path id="Vector_23" d="M28.0791 177.512L33.4759 177.965L33.4415 178.02C33.9997 177.519 34.5235 176.981 35.0093 176.409L29.6975 176.398C29.1544 176.8 28.615 177.171 28.0791 177.512Z" fill="#6C63FF"/>
<path id="Vector_24" d="M21.4697 180.183C21.5079 180.144 21.5484 180.102 21.5882 180.061C22.6887 179.886 23.764 179.578 24.791 179.146L24.9377 175.256C24.9812 175.157 25.0235 175.058 25.0645 174.957L24.9084 179.097C25.6466 178.783 26.3653 178.425 27.0606 178.026L26.5594 170.795C26.5981 170.775 26.637 170.755 26.677 170.734L27.1776 177.955L27.1825 177.956C28.0222 177.466 28.835 176.932 29.6172 176.355L29.0714 169.24C29.1101 169.211 29.1486 169.184 29.1873 169.155L29.7331 176.27C29.9062 176.141 30.0766 176.012 30.2443 175.883L29.7941 168.68C29.8327 168.648 29.8712 168.617 29.9096 168.585L30.3602 175.793C31.053 175.253 31.6966 174.707 32.2789 174.185L31.9957 166.941L32.0546 166.911C31.8535 166.963 31.649 167.026 31.4429 167.093C31.8305 166.651 32.1792 166.175 32.4851 165.672L27.9302 168.029C27.6149 168.628 27.2603 169.206 26.8686 169.758C26.7872 169.835 26.7058 169.911 26.6256 169.992L26.6316 170.078C26.5944 170.127 26.5574 170.176 26.5198 170.224L26.5117 170.108C26.4543 170.167 26.3982 170.229 26.3413 170.29C26.9182 169.57 27.4244 168.796 27.8531 167.979L23.4006 162.17C23.4309 162.689 23.4816 163.211 23.547 163.73C23.1336 163.058 22.6315 162.444 22.0544 161.906L22.0895 161.951L21.0604 164.755C21.299 165.715 21.5362 166.798 21.734 167.952L23.5627 163.852C23.571 163.916 23.5799 163.98 23.5886 164.043L21.7644 168.134C21.9449 169.217 22.0741 170.263 22.1521 171.273L24.3416 167.834C24.3541 167.883 24.3666 167.932 24.3791 167.981L22.166 171.457C22.2141 172.131 22.239 172.785 22.2405 173.421L24.917 169.889C24.9313 169.936 24.9452 169.981 24.9591 170.026L22.2543 173.594L22.2411 173.567C22.2404 173.819 22.2358 174.067 22.2275 174.312L25.2465 170.913C25.2626 170.96 25.2775 171.004 25.2912 171.044L22.2199 174.502C22.2168 174.578 22.214 174.654 22.2101 174.729C22.1742 175.452 22.099 176.172 21.9847 176.886L22.2761 176.591C22.2209 176.705 22.1672 176.818 22.1149 176.93L21.9491 177.097C21.93 177.207 21.9084 177.313 21.8875 177.421C21.8263 177.555 21.7674 177.686 21.7106 177.814C21.7654 177.569 21.8165 177.322 21.8601 177.073L15.8301 172.925C17.4033 176.95 20.3657 180.778 20.5554 181.021C20.7093 180.734 20.8492 180.438 20.9776 180.136C21.015 180.132 21.0523 180.129 21.0896 180.125C21.0742 180.162 21.0582 180.198 21.0424 180.235C21.0237 180.237 21.0046 180.24 20.9858 180.242C21.0005 180.246 21.018 180.251 21.0339 180.255C20.9434 180.466 20.8496 180.674 20.7491 180.874C20.8807 180.756 21.0812 180.569 21.3208 180.332C22.7388 180.693 26.5587 181.468 29.8294 180.324L24.8182 179.234C23.7457 179.688 22.6209 180.007 21.4697 180.183ZM24.991 173.842L25.1112 173.72L25.1043 173.902L24.9842 174.024L24.991 173.842Z" fill="#6C63FF"/>
<path id="Vector_25" d="M37.4693 168.645L37.5117 168.657C37.0899 167.626 36.2349 166.991 35.1105 166.751L34.8281 171.698C36.4604 169.975 37.4551 168.664 37.4693 168.645Z" fill="#6C63FF"/>
<path id="Vector_26" d="M26.9578 178.187C26.3284 178.543 25.68 178.865 25.0156 179.151L29.9794 180.231L29.9415 180.284C30.5695 180.058 31.1665 179.754 31.7181 179.378C31.9342 179.23 32.1459 179.077 32.3532 178.919L27.1554 178.073C27.0895 178.111 27.0236 178.15 26.9578 178.187Z" fill="#6C63FF"/>
<path id="Vector_27" d="M32.3941 174.08C33.2531 173.303 34.0314 172.532 34.7061 171.825L34.995 166.765L35.0538 166.738C34.074 166.573 33.0698 166.627 32.1133 166.896L32.3941 174.08Z" fill="#6C63FF"/>
<path id="Vector_28" d="M22.0148 161.872C21.4386 161.329 20.7342 160.942 19.9676 160.745C19.9304 160.737 19.8934 160.73 19.8564 160.723C19.9488 160.975 20.4808 162.461 21.0179 164.588L22.0148 161.872Z" fill="#6C63FF"/>
<path id="Vector_29" d="M21.6777 168.093L15.408 164.455L15.4138 164.389C15.1792 165.138 15.0209 165.91 14.9414 166.691L22.0089 170.575C21.9236 169.7 21.8073 168.865 21.6777 168.093Z" fill="#6C63FF"/>
<path id="Vector_30" d="M14.9297 166.823L14.9299 166.823C14.9321 166.802 14.9325 166.778 14.9347 166.757L14.9297 166.823Z" fill="#6C63FF"/>
<path id="Vector_31" d="M14.8786 167.536L14.874 167.603C14.875 167.58 14.8776 167.559 14.8786 167.536Z" fill="#6C63FF"/>
<path id="Vector_32" d="M22.0226 170.721L14.9293 166.823C14.9066 167.056 14.8894 167.294 14.8779 167.536L22.0757 171.36C22.06 171.145 22.0423 170.932 22.0226 170.721Z" fill="#6C63FF"/>
<path id="Vector_33" d="M22.1292 174.557L15.1475 170.782C15.318 171.482 15.5353 172.17 15.7978 172.842L15.807 172.77L21.8815 176.948C22.0118 176.157 22.0945 175.359 22.1292 174.557Z" fill="#6C63FF"/>
<path id="Vector_34" d="M19.7776 160.743L19.8103 160.713C18.7138 160.518 17.7199 160.9 16.915 161.721L20.9421 164.608C20.3605 162.307 19.7859 160.765 19.7776 160.743Z" fill="#6C63FF"/>
<path id="Vector_35" d="M20.9841 164.78L16.8647 161.827L16.8736 161.763C16.2094 162.502 15.7173 163.379 15.4326 164.331L21.6512 167.94C21.4548 166.798 21.2201 165.728 20.9841 164.78Z" fill="#6C63FF"/>
<path id="Vector_36" d="M22.135 174.417C22.1711 173.445 22.1549 172.473 22.0864 171.503L14.8707 167.67C14.8556 168.061 14.8556 168.462 14.8706 168.874C14.897 169.463 14.9772 170.049 15.11 170.624L22.1317 174.42L22.135 174.417Z" fill="#6C63FF"/>
<path id="Vector_37" d="M244.338 155.269C244.268 156.256 244.159 157.359 243.99 158.518L247.039 155.137L247.055 155.194C246.869 154.38 246.569 153.597 246.164 152.867L246.183 152.921L244.338 155.269Z" fill="#6C63FF"/>
<path id="Vector_38" d="M244.35 155.095L246.137 152.82C245.757 152.126 245.207 151.54 244.538 151.117C244.506 151.097 244.473 151.079 244.44 151.061C244.45 151.329 244.496 152.906 244.35 155.095Z" fill="#6C63FF"/>
<path id="Vector_39" d="M242.737 164.014C242.659 164.253 242.578 164.488 242.494 164.719L246.984 162.087L246.99 162.153C247.084 161.743 247.162 161.334 247.224 160.925L242.742 164.044L242.737 164.014Z" fill="#6C63FF"/>
<path id="Vector_40" d="M243.361 161.805L247.405 158.471L247.416 158.533C247.43 157.43 247.314 156.33 247.069 155.255L243.963 158.7C243.8 159.786 243.599 160.821 243.361 161.805Z" fill="#6C63FF"/>
<path id="Vector_41" d="M243.894 158.634L239.056 153.236L239.082 153.175C238.627 153.815 238.238 154.5 237.921 155.218L243.442 161.096C243.631 160.238 243.779 159.408 243.894 158.634Z" fill="#6C63FF"/>
<path id="Vector_42" d="M237.869 155.34L237.869 155.34C237.878 155.32 237.886 155.298 237.894 155.278L237.869 155.34Z" fill="#6C63FF"/>
<path id="Vector_43" d="M243.41 161.239L237.869 155.34C237.775 155.554 237.685 155.775 237.6 156.002L243.263 161.863C243.314 161.654 243.363 161.446 243.41 161.239Z" fill="#6C63FF"/>
<path id="Vector_44" d="M237.599 156.002L237.574 156.064C237.582 156.042 237.591 156.023 237.599 156.002Z" fill="#6C63FF"/>
<path id="Vector_45" d="M247.236 160.846C247.347 160.104 247.407 159.356 247.416 158.605L243.318 161.985C243.156 162.64 242.977 163.271 242.782 163.875L247.227 160.782L247.236 160.846Z" fill="#6C63FF"/>
<path id="Vector_46" d="M236.865 161.267L241.351 167.119C241.719 166.406 242.045 165.673 242.325 164.921L236.852 159.173C236.798 159.891 236.792 160.613 236.834 161.332L236.865 161.267Z" fill="#6C63FF"/>
<path id="Vector_47" d="M244.358 151.056L244.398 151.038C243.416 150.513 242.352 150.569 241.333 151.101L244.271 155.091C244.429 152.723 244.359 151.079 244.358 151.056Z" fill="#6C63FF"/>
<path id="Vector_48" d="M242.349 165.11C242.091 165.786 241.797 166.448 241.468 167.092L245.979 164.758L245.984 164.822C246.324 164.248 246.59 163.633 246.775 162.992C246.847 162.74 246.912 162.487 246.971 162.233L242.428 164.897C242.402 164.968 242.376 165.04 242.349 165.11Z" fill="#6C63FF"/>
<path id="Vector_49" d="M244.259 155.269L241.254 151.187L241.282 151.129C240.422 151.627 239.683 152.309 239.118 153.126L243.917 158.48C244.083 157.334 244.19 156.244 244.259 155.269Z" fill="#6C63FF"/>
<path id="Vector_50" d="M242.374 164.789C242.708 163.876 242.994 162.946 243.228 162.003L237.551 156.127C237.415 156.494 237.291 156.876 237.178 157.272C237.021 157.841 236.917 158.422 236.865 159.01L242.369 164.791L242.374 164.789Z" fill="#6C63FF"/>
<path id="Vector_51" d="M248.205 171.129C247.522 171.844 246.735 172.624 245.865 173.409L250.369 172.75L250.346 172.804C250.722 172.059 250.99 171.264 251.144 170.443L251.124 170.497L248.205 171.129Z" fill="#6C63FF"/>
<path id="Vector_52" d="M251.008 168.059C250.995 168.023 250.982 167.988 250.968 167.953C250.804 168.166 249.834 169.411 248.325 171.003L251.153 170.391C251.303 169.614 251.253 168.812 251.008 168.059Z" fill="#6C63FF"/>
<path id="Vector_53" d="M241.395 176.843C241.182 176.977 240.969 177.106 240.758 177.23L245.894 178.066L245.857 178.121C246.19 177.866 246.512 177.6 246.821 177.325L241.379 176.869L241.395 176.843Z" fill="#6C63FF"/>
<path id="Vector_54" d="M243.285 175.539L248.526 175.55L248.495 175.605C249.209 174.765 249.822 173.843 250.319 172.859L245.729 173.531C244.911 174.264 244.096 174.933 243.285 175.539Z" fill="#6C63FF"/>
<path id="Vector_55" d="M241.518 176.764L246.914 177.217L246.88 177.272C247.438 176.771 247.962 176.233 248.448 175.661L243.136 175.65C242.593 176.052 242.053 176.423 241.518 176.764Z" fill="#6C63FF"/>
<path id="Vector_56" d="M234.908 179.434C234.946 179.396 234.987 179.354 235.027 179.313C236.127 179.137 237.203 178.83 238.229 178.398L238.376 174.508C238.42 174.409 238.462 174.31 238.503 174.209L238.347 178.349C239.085 178.035 239.804 177.677 240.499 177.278L239.998 170.047C240.037 170.027 240.075 170.007 240.115 169.986L240.616 177.207L240.621 177.208C241.461 176.718 242.273 176.184 243.056 175.607L242.51 168.492C242.549 168.463 242.587 168.436 242.626 168.407L243.172 175.522C243.345 175.393 243.515 175.264 243.683 175.135L243.233 167.932C243.271 167.9 243.31 167.869 243.348 167.836L243.799 175.045C244.491 174.505 245.135 173.959 245.717 173.437L245.434 166.193L245.493 166.163C245.292 166.215 245.087 166.277 244.881 166.345C245.269 165.903 245.618 165.427 245.924 164.924L241.369 167.281C241.053 167.88 240.699 168.458 240.307 169.01C240.226 169.087 240.144 169.163 240.064 169.243L240.07 169.33C240.033 169.379 239.996 169.428 239.958 169.476L239.95 169.36C239.893 169.419 239.837 169.481 239.78 169.542C240.357 168.822 240.863 168.048 241.292 167.23L236.839 161.421C236.869 161.941 236.92 162.463 236.985 162.982C236.572 162.31 236.07 161.696 235.493 161.158L235.528 161.203L234.499 164.007C234.737 164.967 234.975 166.05 235.172 167.204L237.001 163.104C237.009 163.168 237.018 163.231 237.027 163.295L235.203 167.386C235.383 168.469 235.513 169.515 235.591 170.525L237.78 167.085C237.793 167.135 237.805 167.184 237.818 167.233L235.604 170.709C235.653 171.383 235.677 172.037 235.679 172.673L238.355 169.141C238.37 169.188 238.384 169.233 238.398 169.278L235.693 172.846L235.68 172.819C235.679 173.07 235.674 173.319 235.666 173.564L238.685 170.165C238.701 170.212 238.716 170.256 238.73 170.296L235.658 173.754C235.655 173.83 235.652 173.906 235.649 173.981C235.613 174.704 235.537 175.424 235.423 176.138L235.715 175.843C235.659 175.957 235.606 176.07 235.553 176.182L235.388 176.349C235.369 176.459 235.347 176.565 235.326 176.673C235.265 176.807 235.206 176.938 235.149 177.066C235.204 176.821 235.255 176.574 235.299 176.325L229.269 172.177C230.842 176.202 233.804 180.03 233.994 180.273C234.148 179.986 234.288 179.69 234.416 179.388C234.453 179.384 234.491 179.381 234.528 179.377C234.513 179.414 234.497 179.45 234.481 179.487C234.462 179.489 234.443 179.492 234.424 179.494C234.439 179.498 234.456 179.503 234.472 179.507C234.382 179.718 234.288 179.926 234.188 180.126C234.319 180.008 234.52 179.821 234.759 179.583C236.177 179.945 239.997 180.719 243.268 179.576L238.257 178.486C237.184 178.94 236.059 179.259 234.908 179.434ZM238.429 173.094L238.55 172.972L238.543 173.154L238.423 173.276L238.429 173.094Z" fill="#6C63FF"/>
<path id="Vector_57" d="M250.908 167.897L250.95 167.909C250.528 166.878 249.673 166.243 248.549 166.003L248.267 170.95C249.899 169.227 250.894 167.916 250.908 167.897Z" fill="#6C63FF"/>
<path id="Vector_58" d="M240.396 177.439C239.767 177.795 239.119 178.117 238.454 178.403L243.418 179.483L243.38 179.536C244.008 179.31 244.605 179.006 245.157 178.63C245.373 178.482 245.584 178.329 245.792 178.171L240.594 177.325C240.528 177.363 240.462 177.402 240.396 177.439Z" fill="#6C63FF"/>
<path id="Vector_59" d="M245.833 173.332C246.692 172.555 247.47 171.784 248.145 171.077L248.434 166.017L248.492 165.99C247.512 165.825 246.508 165.879 245.552 166.148L245.833 173.332Z" fill="#6C63FF"/>
<path id="Vector_60" d="M235.453 161.124C234.877 160.581 234.173 160.194 233.406 159.997C233.369 159.989 233.332 159.982 233.295 159.975C233.387 160.227 233.919 161.713 234.456 163.84L235.453 161.124Z" fill="#6C63FF"/>
<path id="Vector_61" d="M235.116 167.345L228.846 163.707L228.852 163.641C228.618 164.39 228.459 165.161 228.38 165.943L235.447 169.827C235.362 168.952 235.246 168.117 235.116 167.345Z" fill="#6C63FF"/>
<path id="Vector_62" d="M228.316 166.788L228.312 166.854C228.312 166.832 228.315 166.811 228.316 166.788Z" fill="#6C63FF"/>
<path id="Vector_63" d="M228.368 166.075L228.368 166.075C228.371 166.054 228.371 166.03 228.373 166.009L228.368 166.075Z" fill="#6C63FF"/>
<path id="Vector_64" d="M235.461 169.973L228.368 166.075C228.345 166.308 228.328 166.546 228.316 166.788L235.514 170.612C235.499 170.397 235.481 170.184 235.461 169.973Z" fill="#6C63FF"/>
<path id="Vector_65" d="M235.567 173.809L228.585 170.034C228.756 170.734 228.973 171.422 229.235 172.094L229.245 172.021L235.319 176.2C235.449 175.409 235.532 174.611 235.567 173.809Z" fill="#6C63FF"/>
<path id="Vector_66" d="M233.215 159.995L233.248 159.965C232.151 159.77 231.157 160.152 230.353 160.973L234.38 163.86C233.798 161.559 233.223 160.017 233.215 159.995Z" fill="#6C63FF"/>
<path id="Vector_67" d="M234.423 164.032L230.303 161.079L230.312 161.015C229.648 161.754 229.156 162.631 228.871 163.583L235.09 167.192C234.893 166.05 234.659 164.98 234.423 164.032Z" fill="#6C63FF"/>
<path id="Vector_68" d="M235.574 173.669C235.61 172.697 235.593 171.725 235.525 170.755L228.309 166.922C228.294 167.313 228.294 167.714 228.309 168.126C228.336 168.715 228.416 169.301 228.549 169.876L235.57 173.672L235.574 173.669Z" fill="#6C63FF"/>
<path id="Vector_69" d="M16.1416 181.273H252.021V184.648C252.021 186.068 251.457 187.429 250.453 188.433C249.45 189.437 248.088 190 246.669 190H21.4937C20.0742 190 18.7129 189.437 17.7092 188.433C16.7055 187.429 16.1416 186.068 16.1416 184.648V181.273Z" fill="#2F2E41"/>
<path id="Vector_70" d="M252.021 178.53H16.1416V183.268H252.021V178.53Z" fill="#3F3D56"/>
<path id="Vector_71" d="M198.946 16.4501L201.655 18.1681L200.01 15.1775C200.476 14.8058 201.053 14.6 201.648 14.5928C201.663 14.5928 201.678 14.5929 201.692 14.5932C201.88 14.5962 202.068 14.5823 202.254 14.5516L203.172 15.1338L202.779 14.4182C203.429 14.1914 203.991 13.7648 204.385 13.1993L206.028 14.2414L204.99 12.354C205.951 11.2005 207.246 10.4932 208.671 10.4932C210.38 10.4932 211.902 11.5094 212.885 13.0928C213.175 13.5666 213.586 13.955 214.075 14.2188C214.564 14.4825 215.115 14.6121 215.67 14.5945C215.701 14.5934 215.731 14.5928 215.762 14.5928C217.648 14.5928 219.178 16.7317 219.178 19.3701C219.178 22.0085 217.648 24.1473 215.762 24.1473C215.347 24.1458 214.939 24.0436 214.572 23.8495C213.93 23.5374 213.228 23.3685 212.514 23.3546C211.8 23.3406 211.092 23.4819 210.438 23.7687C209.886 24.0169 209.287 24.1459 208.681 24.1473C208.076 24.1487 207.477 24.0225 206.923 23.7768C206.274 23.4955 205.573 23.357 204.866 23.3707C204.159 23.3843 203.463 23.5499 202.826 23.856C202.462 24.046 202.058 24.1459 201.648 24.1473C199.762 24.1473 198.233 22.0085 198.233 19.3701C198.222 18.3523 198.467 17.3482 198.946 16.4501Z" fill="#F2F2F2"/>
<path id="Vector_72" d="M61.119 30.4808L62.8423 31.5736L61.796 29.6712C62.0923 29.4348 62.459 29.3039 62.8381 29.2993C62.8473 29.2993 62.8566 29.2994 62.8658 29.2995C62.9855 29.3015 63.1052 29.2926 63.2234 29.2731L63.8073 29.6434L63.557 29.1882C63.9708 29.0439 64.3284 28.7726 64.5787 28.4129L65.624 29.0757L64.9636 27.8751C65.2417 27.5164 65.5961 27.2241 66.0012 27.0194C66.4062 26.8146 66.8518 26.7026 67.3055 26.6914C68.3925 26.6914 69.3608 27.3379 69.9859 28.3451C70.1707 28.6465 70.4319 28.8936 70.743 29.0613C71.0542 29.2291 71.4042 29.3116 71.7575 29.3004C71.777 29.2996 71.7965 29.2993 71.816 29.2993C73.016 29.2993 73.9888 30.6599 73.9888 32.3382C73.9888 34.0166 73.016 35.3771 71.816 35.3771C71.5521 35.3761 71.2924 35.3111 71.0592 35.1877C70.6507 34.9891 70.204 34.8817 69.7499 34.8728C69.2958 34.864 68.8452 34.9538 68.4293 35.1362C68.0779 35.2942 67.6972 35.3762 67.3119 35.3771C66.9267 35.378 66.5456 35.2977 66.1935 35.1414C65.7808 34.9625 65.3344 34.8744 64.8847 34.8831C64.4349 34.8918 63.9923 34.9971 63.5869 35.1918C63.3557 35.3126 63.0989 35.3762 62.8381 35.3771C61.6381 35.3771 60.6653 34.0166 60.6653 32.3382C60.6583 31.6908 60.8143 31.052 61.119 30.4808Z" fill="#F2F2F2"/>
<path id="Vector_73" d="M14.741 36.3392L16.4643 37.432L15.418 35.5296C15.7143 35.2932 16.0811 35.1623 16.4601 35.1577C16.4694 35.1577 16.4786 35.1578 16.4879 35.1579C16.6076 35.1599 16.7273 35.151 16.8454 35.1315L17.4294 35.5018L17.1791 35.0466C17.5929 34.9023 17.9504 34.631 18.2008 34.2713L19.246 34.9341L18.5857 33.7335C18.8638 33.3748 19.2182 33.0825 19.6233 32.8778C20.0283 32.673 20.4739 32.561 20.9276 32.5498C22.0146 32.5498 22.9828 33.1963 23.6079 34.2035C23.7927 34.5049 24.054 34.752 24.3651 34.9198C24.6763 35.0875 25.0263 35.17 25.3796 35.1588C25.399 35.158 25.4185 35.1577 25.4381 35.1577C26.6381 35.1577 27.6109 36.5183 27.6109 38.1966C27.6109 39.875 26.6381 41.2355 25.4381 41.2355C25.1742 41.2346 24.9145 41.1695 24.6813 41.0461C24.2728 40.8475 23.826 40.7401 23.372 40.7312C22.9179 40.7224 22.4673 40.8122 22.0514 40.9946C21.7 41.1526 21.3193 41.2346 20.934 41.2355C20.5488 41.2364 20.1677 41.1561 19.8155 40.9998C19.4028 40.8209 18.9565 40.7328 18.5068 40.7415C18.057 40.7502 17.6144 40.8555 17.2089 41.0502C16.9778 41.171 16.721 41.2346 16.4601 41.2355C15.2601 41.2355 14.2873 39.875 14.2873 38.1966C14.2803 37.5492 14.4364 36.9104 14.741 36.3392Z" fill="#F2F2F2"/>
<path id="Vector_74" d="M76.9582 148.824L76.6572 149.125C76.6572 149.125 76.7576 152.436 76.8579 153.138C76.9582 153.841 77.3595 155.045 77.0585 155.948C76.7576 156.851 76.6572 157.553 76.7576 157.653C76.8579 157.753 76.6572 158.155 76.6572 158.155L77.4599 157.653L78.7641 154.643L78.1622 151.433L76.9582 148.824Z" fill="#6C63FF"/>
<path id="Vector_75" opacity="0.1" d="M76.9582 148.824L76.6572 149.125C76.6572 149.125 76.7576 152.436 76.8579 153.138C76.9582 153.841 77.3595 155.045 77.0585 155.948C76.7576 156.851 76.6572 157.553 76.7576 157.653C76.8579 157.753 76.6572 158.155 76.6572 158.155L77.4599 157.653L78.7641 154.643L78.1622 151.433L76.9582 148.824Z" fill="black"/>
<path id="Vector_76" d="M82.2757 180.027C82.2757 180.027 82.2757 178.923 82.075 178.722C81.8744 178.522 81.5734 177.819 81.1721 177.819C80.7707 177.819 79.3661 178.221 79.3661 178.321C79.3776 178.634 79.3085 178.945 79.1655 179.224C78.9648 179.525 77.8612 180.729 78.9648 180.93C79.3317 180.99 79.707 180.977 80.0687 180.89C80.4304 180.804 80.7714 180.647 81.0717 180.428C81.1721 180.328 81.5734 180.227 81.6737 180.328C81.774 180.428 82.2757 180.027 82.2757 180.027Z" fill="#6C63FF"/>
<path id="Vector_77" d="M85.085 178.22L85.6869 179.324C85.6869 179.324 85.8876 180.327 86.1886 180.428H86.4896C86.4896 180.428 86.7905 181.531 87.4928 181.431C88.1951 181.331 88.9978 180.929 88.9978 180.729C88.9978 180.528 88.9978 179.926 88.6968 179.725C88.2748 179.381 87.8728 179.012 87.4928 178.622L86.9912 178.12L85.085 178.22Z" fill="#6C63FF"/>
<path id="Vector_78" d="M77.3858 141.47C77.1927 141.568 77.0261 141.712 76.9 141.888C76.7739 142.064 76.6919 142.268 76.6611 142.483C76.6052 143.199 77.3134 143.874 77.0856 144.556C76.9562 144.943 76.5534 145.193 76.4375 145.584C76.3764 145.896 76.4222 146.22 76.5674 146.502C76.7258 146.89 76.9187 147.263 77.1437 147.616C77.5666 148.28 78.117 148.91 78.23 149.689C78.2614 149.825 78.26 149.967 78.2259 150.103C78.1919 150.238 78.1262 150.364 78.0343 150.469C78.2379 150.315 78.4708 150.204 78.7188 150.144C79.7442 149.801 80.6969 149.27 81.5281 148.579C81.8301 148.367 82.0574 148.065 82.1777 147.716C82.3308 147.099 81.863 146.483 81.9078 145.849C81.9365 145.444 82.1704 145.086 82.3029 144.702C82.418 144.319 82.4547 143.918 82.4107 143.521C82.3667 143.124 82.243 142.74 82.0469 142.392C81.8845 142.056 81.6554 141.756 81.3735 141.51C81.0916 141.265 80.7627 141.08 80.4069 140.966C79.8596 140.838 79.2886 140.855 78.7496 141.013C78.2786 141.111 77.8208 141.264 77.3858 141.47Z" fill="#2F2E41"/>
<path id="Vector_79" d="M77.9502 147.033C78.1711 146.622 78.4983 146.279 78.8974 146.038C79.2966 145.797 79.7531 145.668 80.2192 145.664C81.8245 145.664 81.5235 145.563 81.5235 145.563L81.0218 147.57L80.0185 148.573L77.9502 147.033Z" fill="#6C63FF"/>
<path id="Vector_80" d="M78.3628 144.911C78.3628 144.911 79.2658 146.416 78.6638 147.018C78.0618 147.62 78.3628 148.222 78.4632 148.322C78.5635 148.423 81.3727 148.623 81.3727 148.623L81.473 147.219L81.774 146.015C81.774 146.015 80.1687 145.714 80.3694 145.011C80.5701 144.309 78.3628 144.911 78.3628 144.911Z" fill="#FBBEBE"/>
<path id="Vector_81" opacity="0.1" d="M78.3628 144.911C78.3628 144.911 79.2658 146.416 78.6638 147.018C78.0618 147.62 78.3628 148.222 78.4632 148.322C78.5635 148.423 81.3727 148.623 81.3727 148.623L81.473 147.219L81.774 146.015C81.774 146.015 80.1687 145.714 80.3694 145.011C80.5701 144.309 78.3628 144.911 78.3628 144.911Z" fill="black"/>
<path id="Vector_82" d="M85.3856 159.158C85.2782 159.503 85.1441 159.838 84.9843 160.161C84.884 160.262 84.583 159.459 84.583 159.459L84.884 158.757L85.3856 159.158Z" fill="#FBBEBE"/>
<path id="Vector_83" d="M84.2327 154.593L84.6339 156.9H78.6143L78.9152 154.593H84.2327Z" fill="#FBBEBE"/>
<path id="Vector_84" d="M79.4668 145.714C80.5196 145.714 81.373 144.86 81.373 143.808C81.373 142.755 80.5196 141.901 79.4668 141.901C78.414 141.901 77.5605 142.755 77.5605 143.808C77.5605 144.86 78.414 145.714 79.4668 145.714Z" fill="#FBBEBE"/>
<path id="Vector_85" d="M79.8679 147.72C79.8679 147.72 78.7643 147.821 78.7643 147.62C78.7643 147.419 78.6639 146.817 78.4633 146.918C78.2626 147.018 76.9583 147.118 77.0587 147.419C77.159 147.72 77.3597 148.322 77.159 148.322C77.0723 148.34 76.99 148.375 76.9173 148.426C76.8446 148.476 76.7829 148.541 76.736 148.616C76.689 148.691 76.6579 148.775 76.6444 148.862C76.6309 148.95 76.6353 149.039 76.6574 149.125C76.7577 149.627 77.8613 152.636 77.8613 152.636C77.8613 152.636 77.9616 153.64 78.2626 153.941C78.3851 154.099 78.4515 154.293 78.4515 154.493C78.4515 154.692 78.3851 154.887 78.2626 155.044C78.062 155.245 78.7643 155.446 79.0652 155.847C79.3662 156.248 81.6738 155.947 81.7741 155.847C81.8745 155.747 84.2823 155.747 84.483 155.546C84.6836 155.345 84.3827 154.743 84.3827 154.743C84.3827 154.743 84.2823 153.84 84.3827 153.539C84.483 153.238 83.9813 148.322 83.6804 148.021C83.3794 147.72 84.5833 146.817 84.5833 146.817C84.5833 146.817 84.3827 146.015 83.0784 145.914C83.0784 145.914 82.6771 145.312 82.2758 145.312C81.8744 145.312 81.0031 145.779 81.0031 145.779C81.0031 145.779 80.7708 147.118 80.4698 147.219C80.2319 147.335 80.0255 147.507 79.8679 147.72Z" fill="#6C63FF"/>
<path id="Vector_86" d="M83.8815 146.517L84.5838 146.818C84.5838 146.818 86.5903 153.038 86.3897 154.242C86.189 155.446 85.6874 159.559 85.3864 159.559C85.0854 159.559 84.4834 158.957 84.4834 158.957V157.954C84.4834 157.753 84.1825 157.151 84.3831 157.151C84.5838 157.151 84.8848 156.951 84.6841 156.75C84.4834 156.549 84.2828 156.248 84.4834 155.947C84.6841 155.646 84.7844 155.546 84.6841 155.245C84.5838 154.944 84.3831 154.643 84.5838 154.443C84.7844 154.242 84.0821 153.239 84.0821 153.239L82.9785 148.824L83.1792 147.018L83.8815 146.517Z" fill="#6C63FF"/>
<path id="Vector_87" d="M84.2825 156.048C84.2825 156.048 80.47 155.747 79.9684 155.747C79.4667 155.747 78.3413 155.274 78.3413 155.274C78.3413 155.274 75.4536 158.155 76.4569 162.87C77.4602 167.586 77.6608 173.405 78.2628 175.11C78.6719 176.326 79.0069 177.566 79.2661 178.822C79.2661 178.822 80.2694 177.017 82.1756 179.023C82.1756 179.023 82.3763 177.518 82.0753 176.916C81.7743 176.314 81.373 173.104 81.373 173.104C81.373 173.104 80.6707 167.987 80.6707 167.385C80.6707 166.783 80.2694 161.666 80.3697 161.566C80.47 161.466 80.9717 165.479 81.072 166.181C81.1723 166.883 81.4733 172.301 81.7743 172.903C82.0753 173.505 83.4799 178.321 84.2825 178.622C85.0851 178.923 87.794 178.521 87.6937 178.321C87.5933 178.12 86.891 177.017 86.6904 176.716L85.8878 175.512L83.9815 168.99L84.8845 161.064C84.8845 161.064 85.3861 155.948 84.2825 156.048Z" fill="#2F2E41"/>
<path id="Vector_88" d="M80.6283 143.558H78.1838C78.0801 143.558 77.9798 143.521 77.9009 143.453C77.8221 143.386 77.7699 143.293 77.7537 143.19L77.5107 141.651H81.3232L80.9824 143.27C80.9653 143.352 80.9208 143.424 80.8563 143.477C80.7918 143.529 80.7114 143.558 80.6283 143.558Z" fill="#2F2E41"/>
<path id="Vector_89" d="M206.616 143.082H210.473V148.592C209.967 148.592 209.465 148.492 208.997 148.298C208.529 148.105 208.104 147.821 207.746 147.462C207.388 147.104 207.104 146.679 206.91 146.211C206.716 145.743 206.616 145.242 206.616 144.735V143.082Z" fill="#2F2E41"/>
<path id="Vector_90" d="M204.366 175.361L204.091 176.739H206.019L206.111 175.361H204.366Z" fill="#A0616A"/>
<path id="Vector_91" d="M204.366 176.464C204.366 176.464 203.999 176.188 203.815 176.372C203.632 176.556 202.989 180.137 202.897 180.229C202.805 180.321 200.05 181.698 200.693 181.79C201.336 181.882 203.815 181.974 204.183 181.79C204.55 181.607 205.56 179.862 205.56 179.862V181.423H205.744C205.744 181.423 205.927 179.77 206.387 179.311C206.846 178.852 206.019 177.29 206.019 177.29C206.019 177.29 206.203 176.28 206.111 176.28C206.019 176.28 204.366 176.464 204.366 176.464Z" fill="#6C63FF"/>
<path id="Vector_92" d="M210.06 174.397L209.784 175.775H211.713L211.805 174.397H210.06Z" fill="#A0616A"/>
<path id="Vector_93" d="M207.856 165.443C207.856 165.443 208.775 168.198 208.958 168.474C209.142 168.749 209.785 173.892 209.785 173.892C209.785 173.892 209.142 174.902 209.969 174.994C210.795 175.086 210.428 174.811 210.979 174.994C211.129 175.051 211.289 175.072 211.449 175.056C211.608 175.04 211.762 174.988 211.897 174.902C211.897 174.902 212.173 174.351 211.989 174.168C211.805 173.984 212.173 169.209 212.173 169.209L211.622 167.556L211.162 162.321C211.162 162.321 211.713 160.944 211.438 160.576C211.162 160.209 210.244 160.852 210.244 160.852L207.856 165.443Z" fill="#2F2E41"/>
<path id="Vector_94" d="M206.662 158.28C206.662 158.28 206.386 161.219 206.203 161.403C206.019 161.586 203.999 166.729 203.999 166.729C203.999 166.729 203.448 167.372 203.631 169.76C203.815 172.147 204.274 174.535 204.274 174.535C204.274 174.535 203.907 175.912 204.55 175.912C205.192 175.912 205.468 175.545 205.743 175.821C206.019 176.096 206.203 175.821 206.294 175.637C206.386 175.453 206.754 174.81 206.754 174.627C206.754 174.443 207.121 169.76 207.121 169.76C207.121 169.76 210.151 163.056 210.427 162.688C210.702 162.321 212.264 160.301 212.172 158.923L206.662 158.28Z" fill="#2F2E41"/>
<path id="Vector_95" d="M208.958 145.883C210.023 145.883 210.886 145.02 210.886 143.955C210.886 142.89 210.023 142.026 208.958 142.026C207.893 142.026 207.029 142.89 207.029 143.955C207.029 145.02 207.893 145.883 208.958 145.883Z" fill="#A0616A"/>
<path id="Vector_96" d="M208.591 145.608C208.591 145.608 209.325 147.261 209.417 147.72C209.509 148.179 211.254 146.802 211.254 146.802C211.254 146.802 210.336 145.241 210.611 144.506L208.591 145.608Z" fill="#A0616A"/>
<path id="Vector_97" d="M211.529 146.526C211.529 146.526 210.152 145.515 209.142 147.628C208.131 149.74 207.856 149.648 207.856 149.648C207.856 149.648 206.662 150.015 207.029 152.587C207.397 155.158 205.836 158.556 206.478 158.74C207.121 158.923 213.09 159.933 213.09 159.199C213.09 158.464 212.539 155.617 212.999 153.872C213.458 152.127 212.356 146.066 211.529 146.526Z" fill="#3F3D56"/>
<path id="Vector_98" d="M210.152 146.985C210.152 146.985 209.05 148.638 209.142 149.924C209.234 151.21 209.234 152.036 209.234 152.036C209.234 152.036 207.397 160.852 207.764 160.852C208.132 160.852 209.234 161.311 209.326 161.036C209.417 160.76 211.713 155.159 211.713 155.159C211.713 155.159 212.264 149.557 211.621 148.271C210.979 146.985 210.152 146.985 210.152 146.985Z" fill="#3F3D56"/>
<path id="Vector_99" d="M207.948 160.576C207.948 160.576 207.029 163.699 208.315 163.79C209.601 163.882 208.866 160.76 208.866 160.76L207.948 160.576Z" fill="#A0616A"/>
<path id="Vector_100" d="M210.392 175.059C210.392 175.059 210.07 174.818 209.909 174.979C209.748 175.14 209.185 178.276 209.105 178.357C209.025 178.437 206.612 179.643 207.175 179.724C207.738 179.804 209.909 179.885 210.231 179.724C210.553 179.563 211.437 178.035 211.437 178.035V179.402H211.598C211.598 179.402 211.759 177.954 212.161 177.552C212.563 177.15 211.839 175.783 211.839 175.783C211.839 175.783 212 174.898 211.92 174.898C211.839 174.898 210.392 175.059 210.392 175.059Z" fill="#6C63FF"/>
<path id="Vector_101" d="M208.004 142.69C208.065 142.616 208.146 142.559 208.237 142.526C208.321 142.51 208.409 142.518 208.49 142.548C209.066 142.716 209.565 143.079 209.903 143.575C209.968 143.701 210.066 143.808 210.187 143.883C210.266 143.906 210.343 143.936 210.417 143.971C210.632 144.112 210.504 144.441 210.381 144.667C210.065 145.248 209.919 145.906 209.959 146.566C209.957 146.681 209.991 146.793 210.056 146.888C210.16 146.984 210.296 147.038 210.438 147.04C210.883 147.096 211.332 147.12 211.782 147.112C212.221 147.104 212.709 147.042 212.994 146.707C213.3 146.347 213.252 145.795 213.053 145.367C212.853 144.938 212.53 144.58 212.3 144.167C212.081 143.731 211.909 143.273 211.786 142.801C211.627 142.199 211.37 141.627 211.027 141.108C210.853 140.849 210.628 140.628 210.366 140.46C210.104 140.292 209.809 140.18 209.502 140.13C208.668 140.037 207.898 140.551 207.228 141.056C206.475 141.623 205.673 142.324 205.613 143.265C205.564 144.027 206.022 144.716 206.261 145.442C206.63 146.561 206.475 147.777 206.317 148.945C206.997 148.538 207.766 147.973 207.721 147.181C207.691 146.647 207.288 146.221 207.038 145.749C206.348 144.45 207.134 143.579 208.004 142.69Z" fill="#2F2E41"/>
<path id="Vector_102" d="M235.125 152.077C235.708 151.058 236.01 149.902 235.998 148.728C235.998 145.702 234.124 143.249 231.813 143.249C229.501 143.249 227.627 145.702 227.627 148.728C227.616 149.902 227.917 151.058 228.501 152.077C227.928 153.1 227.627 154.253 227.627 155.425C227.627 156.598 227.928 157.75 228.501 158.773C227.928 159.797 227.627 160.949 227.627 162.122C227.627 163.294 227.928 164.447 228.501 165.47C227.928 166.493 227.627 167.646 227.627 168.819C227.627 169.991 227.928 171.144 228.501 172.167C227.917 173.186 227.616 174.342 227.627 175.516C227.627 178.542 229.501 180.995 231.813 180.995C234.124 180.995 235.998 178.542 235.998 175.516C236.01 174.342 235.708 173.186 235.125 172.167C235.698 171.144 235.998 169.991 235.998 168.819C235.998 167.646 235.698 166.493 235.125 165.47C235.698 164.447 235.998 163.294 235.998 162.122C235.998 160.949 235.698 159.797 235.125 158.773C235.698 157.75 235.998 156.598 235.998 155.425C235.998 154.253 235.698 153.1 235.125 152.077Z" fill="#3F3D56"/>
<path id="Vector_103" d="M231.812 147.511C234.124 147.511 235.998 145.058 235.998 142.032C235.998 139.006 234.124 136.553 231.812 136.553C229.501 136.553 227.627 139.006 227.627 142.032C227.627 145.058 229.501 147.511 231.812 147.511Z" fill="#3F3D56"/>
<path id="Vector_104" d="M231.812 140.814C234.124 140.814 235.998 138.361 235.998 135.335C235.998 132.309 234.124 129.855 231.812 129.855C229.501 129.855 227.627 132.309 227.627 135.335C227.627 138.361 229.501 140.814 231.812 140.814Z" fill="#3F3D56"/>
<path id="Vector_105" d="M247.481 89.506C248.052 88.778 248.573 88.0113 249.039 87.2115L238.042 85.4053L249.936 85.4938C251.077 83.0112 251.7 80.3219 251.765 77.5904C251.831 74.8589 251.339 72.1427 250.319 69.608L234.361 77.8861L249.078 67.0682C247.699 64.6857 245.845 62.6125 243.63 60.978C241.415 59.3434 238.887 58.1825 236.204 57.5674C233.521 56.9524 230.74 56.8964 228.034 57.4031C225.328 57.9097 222.756 58.9681 220.477 60.5122C218.198 62.0564 216.262 64.0532 214.788 66.3784C213.315 68.7036 212.336 71.3073 211.912 74.0273C211.489 76.7473 211.63 79.5253 212.327 82.1884C213.025 84.8514 214.263 87.3423 215.964 89.506C215.073 90.639 214.306 91.8649 213.678 93.1622L227.954 100.579L212.732 95.4702C211.663 98.6297 211.399 102.006 211.963 105.293C212.528 108.581 213.903 111.675 215.964 114.297C213.638 117.255 212.191 120.807 211.789 124.548C211.386 128.288 212.045 132.067 213.689 135.451C215.332 138.836 217.895 141.689 221.084 143.686C224.274 145.682 227.96 146.741 231.723 146.741C235.485 146.741 239.171 145.682 242.361 143.686C245.55 141.689 248.113 138.836 249.756 135.451C251.4 132.067 252.059 128.288 251.656 124.548C251.254 120.807 249.807 117.255 247.481 114.297C250.26 110.763 251.771 106.398 251.771 101.902C251.771 97.4056 250.26 93.04 247.481 89.506Z" fill="#F2F2F2"/>
<path id="Vector_106" d="M211.674 101.902C211.667 106.399 213.179 110.767 215.964 114.298C213.638 117.255 212.191 120.807 211.789 124.548C211.386 128.289 212.045 132.067 213.689 135.452C215.332 138.836 217.895 141.689 221.084 143.686C224.274 145.682 227.96 146.741 231.723 146.741C235.485 146.741 239.171 145.682 242.361 143.686C245.55 141.689 248.113 138.836 249.756 135.452C251.4 132.067 252.059 128.289 251.656 124.548C251.254 120.807 249.807 117.255 247.481 114.298C250.168 110.886 211.674 99.6517 211.674 101.902Z" fill="#F2F2F2"/>
<path id="Vector_107" d="M247.481 89.506C248.052 88.778 248.573 88.0113 249.039 87.2115L238.042 85.4053L249.936 85.4938C251.077 83.0112 251.7 80.3219 251.765 77.5904C251.831 74.8589 251.339 72.1427 250.319 69.608L234.361 77.8861L249.078 67.0682C247.699 64.6857 245.845 62.6125 243.63 60.978C241.415 59.3434 238.887 58.1825 236.204 57.5674C233.521 56.9524 230.74 56.8964 228.034 57.4031C225.328 57.9097 222.756 58.9681 220.477 60.5122C218.198 62.0564 216.262 64.0532 214.788 66.3784C213.315 68.7036 212.336 71.3073 211.912 74.0273C211.489 76.7473 211.63 79.5253 212.327 82.1884C213.025 84.8514 214.263 87.3423 215.964 89.506C215.073 90.639 214.306 91.8649 213.678 93.1622L227.954 100.579L212.732 95.4702C211.663 98.6297 211.399 102.006 211.963 105.293C212.528 108.581 213.903 111.675 215.964 114.297C213.638 117.255 212.191 120.807 211.789 124.548C211.386 128.288 212.045 132.067 213.689 135.451C215.332 138.836 217.895 141.689 221.084 143.686C224.274 145.682 227.96 146.741 231.723 146.741C235.485 146.741 239.171 145.682 242.361 143.686C245.55 141.689 248.113 138.836 249.756 135.451C251.4 132.067 252.059 128.288 251.656 124.548C251.254 120.807 249.807 117.255 247.481 114.297C250.26 110.763 251.771 106.398 251.771 101.902C251.771 97.4056 250.26 93.04 247.481 89.506Z" fill="#57B894"/>
<path id="Vector_108" opacity="0.1" d="M211.674 101.902C211.667 106.399 213.179 110.767 215.964 114.298C213.638 117.255 212.191 120.807 211.789 124.548C211.386 128.289 212.045 132.067 213.689 135.452C215.332 138.836 217.895 141.689 221.084 143.686C224.274 145.682 227.96 146.741 231.723 146.741C235.485 146.741 239.171 145.682 242.361 143.686C245.55 141.689 248.113 138.836 249.756 135.452C251.4 132.067 252.059 128.289 251.656 124.548C251.254 120.807 249.807 117.255 247.481 114.298C250.168 110.886 211.674 99.6517 211.674 101.902Z" fill="black"/>
<path id="Vector_109" d="M24.4294 152.077C25.013 151.058 25.3145 149.902 25.303 148.728C25.303 145.702 23.4291 143.249 21.1175 143.249C18.8059 143.249 16.932 145.702 16.932 148.728C16.9204 149.902 17.222 151.058 17.8056 152.077C17.2327 153.1 16.932 154.253 16.932 155.425C16.932 156.598 17.2327 157.75 17.8056 158.773C17.2327 159.797 16.932 160.949 16.932 162.122C16.932 163.294 17.2327 164.447 17.8056 165.47C17.2327 166.493 16.932 167.646 16.932 168.819C16.932 169.991 17.2327 171.144 17.8056 172.167C17.222 173.186 16.9204 174.342 16.932 175.516C16.932 178.542 18.8059 180.995 21.1175 180.995C23.4291 180.995 25.303 178.542 25.303 175.516C25.3145 174.342 25.013 173.186 24.4294 172.167C25.0022 171.144 25.303 169.991 25.303 168.819C25.303 167.646 25.0022 166.493 24.4294 165.47C25.0022 164.447 25.303 163.294 25.303 162.122C25.303 160.949 25.0022 159.797 24.4294 158.773C25.0022 157.75 25.303 156.598 25.303 155.425C25.303 154.253 25.0022 153.1 24.4294 152.077Z" fill="#3F3D56"/>
<path id="Vector_110" d="M21.1172 147.511C23.4288 147.511 25.3027 145.058 25.3027 142.032C25.3027 139.006 23.4288 136.553 21.1172 136.553C18.8056 136.553 16.9316 139.006 16.9316 142.032C16.9316 145.058 18.8056 147.511 21.1172 147.511Z" fill="#3F3D56"/>
<path id="Vector_111" d="M21.1172 140.814C23.4288 140.814 25.3027 138.361 25.3027 135.335C25.3027 132.309 23.4288 129.855 21.1172 129.855C18.8056 129.855 16.9316 132.309 16.9316 135.335C16.9316 138.361 18.8056 140.814 21.1172 140.814Z" fill="#3F3D56"/>
<path id="Vector_112" d="M36.7854 89.506C37.3572 88.778 37.878 88.0113 38.3441 87.2115L27.3463 85.4053L39.2407 85.4938C40.3817 83.0112 41.0042 80.3219 41.0701 77.5904C41.1359 74.8589 40.6437 72.1427 39.6236 69.608L23.6658 77.8861L38.3826 67.0682C37.0038 64.6857 35.1492 62.6125 32.9343 60.978C30.7194 59.3434 28.1916 58.1825 25.5085 57.5674C22.8253 56.9524 20.0443 56.8964 17.3385 57.4031C14.6328 57.9097 12.0604 58.9681 9.78153 60.5122C7.50268 62.0564 5.56619 64.0532 4.09272 66.3784C2.61925 68.7036 1.64037 71.3073 1.21704 74.0273C0.793706 76.7473 0.935003 79.5253 1.63213 82.1884C2.32925 84.8514 3.56727 87.3423 5.26905 89.506C4.37773 90.639 3.61114 91.8649 2.98257 93.1622L17.2585 100.579L2.03638 95.4702C0.967556 98.6297 0.703417 102.006 1.26786 105.293C1.8323 108.581 3.20751 111.675 5.26905 114.297C2.94298 117.255 1.496 120.807 1.09355 124.548C0.6911 128.288 1.34942 132.067 2.99324 135.451C4.63706 138.836 7.20003 141.689 10.3891 143.686C13.5782 145.682 17.2648 146.741 21.0272 146.741C24.7896 146.741 28.4762 145.682 31.6653 143.686C34.8544 141.689 37.4174 138.836 39.0612 135.451C40.705 132.067 41.3633 128.288 40.9609 124.548C40.5584 120.807 39.1114 117.255 36.7854 114.297C39.5648 110.763 41.0759 106.398 41.0759 101.902C41.0759 97.4056 39.5648 93.04 36.7854 89.506Z" fill="#F2F2F2"/>
<path id="Vector_113" d="M0.978539 101.902C0.971617 106.399 2.48345 110.767 5.26906 114.298C2.94299 117.255 1.49601 120.807 1.09356 124.548C0.691107 128.289 1.34942 132.067 2.99324 135.452C4.63706 138.836 7.20004 141.689 10.3891 143.686C13.5783 145.682 17.2648 146.741 21.0272 146.741C24.7897 146.741 28.4762 145.682 31.6653 143.686C34.8544 141.689 37.4174 138.836 39.0612 135.452C40.705 132.067 41.3633 128.289 40.9609 124.548C40.5584 120.807 39.1114 117.255 36.7854 114.298C39.4725 110.886 0.978539 99.6517 0.978539 101.902Z" fill="#F2F2F2"/>
<path id="Vector_114" d="M36.7854 89.506C37.3572 88.778 37.878 88.0113 38.3441 87.2115L27.3463 85.4053L39.2407 85.4938C40.3817 83.0112 41.0042 80.3219 41.0701 77.5904C41.1359 74.8589 40.6437 72.1427 39.6236 69.608L23.6658 77.8861L38.3826 67.0682C37.0038 64.6857 35.1492 62.6125 32.9343 60.978C30.7194 59.3434 28.1916 58.1825 25.5085 57.5674C22.8253 56.9524 20.0443 56.8964 17.3385 57.4031C14.6328 57.9097 12.0604 58.9681 9.78153 60.5122C7.50268 62.0564 5.56619 64.0532 4.09272 66.3784C2.61925 68.7036 1.64037 71.3073 1.21704 74.0273C0.793706 76.7473 0.935003 79.5253 1.63213 82.1884C2.32925 84.8514 3.56727 87.3423 5.26905 89.506C4.37773 90.639 3.61114 91.8649 2.98257 93.1622L17.2585 100.579L2.03638 95.4702C0.967556 98.6297 0.703417 102.006 1.26786 105.293C1.8323 108.581 3.20751 111.675 5.26905 114.297C2.94298 117.255 1.496 120.807 1.09355 124.548C0.6911 128.288 1.34942 132.067 2.99324 135.451C4.63706 138.836 7.20003 141.689 10.3891 143.686C13.5782 145.682 17.2648 146.741 21.0272 146.741C24.7896 146.741 28.4762 145.682 31.6653 143.686C34.8544 141.689 37.4174 138.836 39.0612 135.451C40.705 132.067 41.3633 128.288 40.9609 124.548C40.5584 120.807 39.1114 117.255 36.7854 114.297C39.5648 110.763 41.0759 106.398 41.0759 101.902C41.0759 97.4056 39.5648 93.04 36.7854 89.506Z" fill="#57B894"/>
<path id="Vector_115" opacity="0.1" d="M0.978539 101.902C0.971617 106.399 2.48345 110.767 5.26906 114.298C2.94299 117.255 1.49601 120.807 1.09356 124.548C0.691107 128.289 1.34942 132.067 2.99324 135.452C4.63706 138.836 7.20004 141.689 10.3891 143.686C13.5783 145.682 17.2648 146.741 21.0272 146.741C24.7897 146.741 28.4762 145.682 31.6653 143.686C34.8544 141.689 37.4174 138.836 39.0612 135.452C40.705 132.067 41.3633 128.289 40.9609 124.548C40.5584 120.807 39.1114 117.255 36.7854 114.298C39.4725 110.886 0.978539 99.6517 0.978539 101.902Z" fill="black"/>
<path id="Vector_116" d="M177.128 65.7158L167.18 75.6636L162.467 70.9505L160.632 72.7855L167.174 79.3275L178.963 67.5507L177.128 65.7158Z" fill="#57B894"/>
<path id="Vector_117" d="M142.71 65.7158L132.762 75.6636L128.049 70.9505L126.214 72.7855L132.756 79.3275L144.545 67.5507L142.71 65.7158Z" fill="#57B894"/>
<path id="Vector_118" d="M109.71 65.7158L99.7621 75.6636L95.0488 70.9505L93.2139 72.7855L99.7559 79.3275L111.545 67.5507L109.71 65.7158Z" fill="#57B894"/>
</g>
<defs>
<clipPath id="clip0_1628_55449">
<rect width="251.042" height="190" fill="white" transform="translate(0.978516)"/>
</clipPath>
</defs>
</svg>
