<svg width="245" height="190" viewBox="0 0 245 190" fill="none" xmlns="http://www.w3.org/2000/svg">
<g id="undraw_location_tracking_re_n3ok (1) 1" clip-path="url(#clip0_1628_55594)">
<path id="Vector" d="M3.8585 174.992C5.45834 180.542 10.1297 184.427 15.0024 187.727C15.6828 188.188 16.3634 188.638 17.0442 189.078C17.0488 189.08 17.0536 189.084 17.0582 189.086C17.091 189.107 17.1238 189.129 17.1543 189.15C17.2948 189.24 17.4354 189.331 17.5747 189.42L17.4982 189.455C17.4982 189.455 17.423 189.495 17.5053 189.461C17.5297 189.451 17.5554 189.442 17.5798 189.432C20.4106 188.29 23.2916 187.064 25.461 184.925C27.7114 182.704 29.0265 179.221 27.8079 176.303C27.6478 175.921 27.4455 175.558 27.2047 175.22C27.1059 175.079 26.9994 174.944 26.8886 174.811C26.2164 173.99 25.3379 173.364 24.3433 172.996C23.3487 172.627 22.274 172.531 21.2297 172.715C20.1853 172.9 19.209 173.36 18.4011 174.047C17.5933 174.734 16.9831 175.624 16.6332 176.625C16.2752 173.292 19.0236 170.5 21.6686 168.44C24.3147 166.381 27.3215 164.138 27.8331 160.824C28.1187 158.98 27.4774 157.192 26.3092 155.758C26.273 155.714 26.2369 155.671 26.1997 155.628C24.7776 153.957 22.7774 152.884 20.5987 152.623C16.5412 152.202 12.5999 154.349 9.65225 157.17C4.90794 161.709 2.03981 168.681 3.8585 174.992Z" fill="#F1F1F1"/>
<path id="Vector_2" d="M11.485 167.732C10.7063 168.944 10.1084 170.263 9.71028 171.647C9.37358 172.884 9.22372 174.164 9.26568 175.446C9.37429 178.082 10.1145 180.655 11.4242 182.946C12.4107 184.684 13.6129 186.291 15.0023 187.727C15.6827 188.188 16.3632 188.638 17.0441 189.078C17.0487 189.08 17.0534 189.084 17.0581 189.087C17.0908 189.108 17.1237 189.129 17.1542 189.15C17.2947 189.24 17.4352 189.331 17.5746 189.421C17.5746 189.421 17.4229 189.495 17.5051 189.461C17.5296 189.451 17.5552 189.442 17.5796 189.432C17.3259 187.352 17.5745 185.241 18.3045 183.277C19.0344 181.312 20.2246 179.552 21.7752 178.142C23.3295 176.754 25.1899 175.753 27.2046 175.22C27.1058 175.079 26.9993 174.944 26.8885 174.811C26.1103 175.029 25.353 175.316 24.6254 175.667C22.0242 176.916 19.8944 178.97 18.5511 181.523C17.3457 183.842 16.8269 186.457 17.0557 189.061C16.9393 188.955 16.8229 188.847 16.71 188.741C14.5589 186.735 12.6483 184.433 11.3553 181.777C10.2335 179.527 9.68215 177.036 9.74981 174.523C9.85534 171.782 10.9471 169.244 12.5279 167.035C14.2604 164.677 16.3072 162.568 18.6112 160.765C20.9332 158.905 23.474 157.337 26.1771 156.094C26.2381 156.066 26.2858 156.015 26.3103 155.952C26.3349 155.89 26.3344 155.82 26.309 155.758C26.291 155.702 26.2517 155.655 26.1995 155.628C26.1727 155.617 26.1436 155.611 26.1144 155.612C26.0852 155.614 26.0567 155.622 26.0309 155.635C25.6972 155.789 25.3658 155.945 25.037 156.107C22.2987 157.461 19.7392 159.149 17.4172 161.134C15.1743 163.046 13.0628 165.23 11.485 167.732Z" fill="white"/>
<path id="Vector_3" d="M75.5426 185.246H79.7939L81.8161 168.849L75.542 168.849L75.5426 185.246Z" fill="#FFB7B7"/>
<path id="Vector_4" d="M74.459 183.858L82.8308 183.857H82.8312C84.2461 183.857 85.6031 184.42 86.6036 185.42C87.6041 186.421 88.1663 187.778 88.1664 189.193V189.366L74.4592 189.366L74.459 183.858Z" fill="#2F2E41"/>
<path id="Vector_5" d="M52.526 185.246H56.7773L58.7995 168.849L52.5254 168.849L52.526 185.246Z" fill="#FFB7B7"/>
<path id="Vector_6" d="M51.4424 183.858L59.8142 183.857H59.8146C61.2295 183.857 62.5865 184.42 63.587 185.42C64.5875 186.421 65.1497 187.778 65.1498 189.193V189.366L51.4426 189.366L51.4424 183.858Z" fill="#2F2E41"/>
<path id="Vector_7" d="M50.7949 110.931V154.224L51.8909 182.173H60.933L63.9474 129.563L69.9754 151.21L73.8115 181.625L84.7717 181.077L77.3737 110.931H50.7949Z" fill="#2F2E41"/>
<path id="Vector_8" d="M61.3057 72.0225C64.9376 72.0225 67.8819 69.0782 67.8819 65.4463C67.8819 61.8144 64.9376 58.8701 61.3057 58.8701C57.6738 58.8701 54.7295 61.8144 54.7295 65.4463C54.7295 69.0782 57.6738 72.0225 61.3057 72.0225Z" fill="#FFB8B8"/>
<path id="Vector_9" d="M58.5737 73.7354L56.8228 75.5841L55.1787 112.575L74.6334 112.027L69.9753 79.6944L65.8653 75.7557L63.7797 73.7354H58.5737Z" fill="#6C63FF"/>
<path id="Vector_10" d="M55.4525 77.7766L56.9292 75.3799L57.3705 80.5167C57.3705 80.5167 60.9326 92.025 60.6586 102.163C60.3846 112.302 62.0287 136.14 59.8366 136.414C57.6445 136.688 48.3283 137.236 48.3283 135.318C48.3283 133.4 47.7803 82.4347 47.7803 82.4347L55.4525 77.7766Z" fill="#2F2E41"/>
<path id="Vector_11" d="M65.4233 75.3799L69.1527 78.3246L77.373 81.3387C77.373 81.3387 77.373 116.412 79.017 124.632C80.6611 132.852 83.6751 133.674 79.839 133.948C76.0029 134.222 76.2769 132.852 76.2769 132.852C76.2769 132.852 65.0426 97.7792 65.5906 89.0109C66.1387 80.2427 64.8753 75.3799 65.4233 75.3799Z" fill="#2F2E41"/>
<path id="Vector_12" d="M55.0847 67.503C55.0847 67.503 55.6434 66.5217 55.5135 63.2438C55.3836 59.9659 60.3752 61.8198 64.5461 61.5071C68.7171 61.1944 67.8342 66.9797 67.8342 66.9797C67.8342 66.9797 68.1351 66.6358 68.7793 63.8437C69.4235 61.0515 67.9608 58.269 67.9608 58.269C67.53 55.335 65.2082 56.2753 65.2082 56.2753C66.3263 56.7106 66.1116 57.6413 66.1116 57.6413C65.1651 55.9819 62.8434 56.9223 62.8434 56.9223C59.7468 54.9791 56.6085 57.538 56.6085 57.538C52.8677 58.387 55.0615 61.3619 55.0615 61.3619C51.2995 63.2631 55.0847 67.503 55.0847 67.503Z" fill="#2F2E41"/>
<path id="Vector_13" d="M48.3371 131.355C48.6158 131.061 48.8266 130.709 48.9545 130.324C49.0825 129.939 49.1244 129.531 49.0775 129.128C49.0306 128.725 48.896 128.337 48.6831 127.992C48.4702 127.647 48.1842 127.353 47.8452 127.13L49.0298 120.903L45.421 119.26L43.8716 128.078C43.5353 128.672 43.4286 129.369 43.5718 130.036C43.715 130.704 44.0981 131.296 44.6485 131.7C45.199 132.104 45.8785 132.292 46.5583 132.228C47.2381 132.165 47.871 131.854 48.3371 131.355Z" fill="#FFB7B7"/>
<path id="Vector_14" d="M49.1503 82.434L48.4227 82.0439C48.4227 82.0439 44.4921 83.5301 44.7661 84.6261C45.0402 85.7221 42.5741 124.083 43.3961 125.453C44.2181 126.823 50.7943 125.727 50.7943 125.727L49.1503 82.434Z" fill="#2F2E41"/>
<path id="Vector_15" d="M80.4311 128.773C80.1143 128.52 79.8569 128.201 79.6769 127.837C79.497 127.474 79.3989 127.075 79.3896 126.67C79.3803 126.264 79.46 125.862 79.6232 125.49C79.7863 125.119 80.0288 124.788 80.3337 124.521L78.2988 118.517L81.6456 116.391L84.4002 124.909C84.8155 125.451 85.0175 126.127 84.9681 126.808C84.9186 127.489 84.6211 128.128 84.1319 128.604C83.6426 129.08 82.9957 129.361 82.3136 129.392C81.6315 129.423 80.9617 129.203 80.4311 128.773Z" fill="#FFB7B7"/>
<path id="Vector_16" d="M77.2183 123.539C77.2183 123.539 83.8829 123.715 84.5075 122.244C85.132 120.774 77.382 83.123 77.5017 81.9996C77.6214 80.8762 73.523 79.9482 73.523 79.9482L72.8564 80.4352L77.2183 123.539Z" fill="#2F2E41"/>
<path id="Vector_17" d="M121.059 190H0.40944C0.325455 190 0.244909 189.966 0.185523 189.907C0.126136 189.847 0.0927734 189.767 0.0927734 189.683C0.0927734 189.599 0.126136 189.518 0.185523 189.459C0.244909 189.4 0.325455 189.366 0.40944 189.366H121.059C121.143 189.366 121.224 189.4 121.283 189.459C121.343 189.518 121.376 189.599 121.376 189.683C121.376 189.767 121.343 189.847 121.283 189.907C121.224 189.966 121.143 190 121.059 190Z" fill="#CBCBCB"/>
<path id="Vector_18" d="M244.907 97.5331H133.549V28.2051H244.907V97.5331ZM136.14 94.9421H242.316V30.7961H136.14V94.9421Z" fill="#E5E5E5"/>
<path id="Vector_19" d="M243.612 29.501H134.845V96.2379H243.612V29.501Z" fill="white"/>
<path id="Vector_20" d="M243.612 46.4151V42.3175H228.524V29.501H224.426V42.3175H197.564V29.501H193.466V42.3175H152.034V29.501H147.937V42.3175H134.845V46.4151H147.937V62.3504H134.845V66.4481H147.937V83.5216H134.845V87.6192H170.018V96.238H174.116V87.6192H193.466V96.238H197.564V87.6192H243.612V83.5216H197.564V66.4481H243.612V62.3504H228.524V46.4151L243.612 46.4151ZM193.466 46.4151V51.4234H152.034V46.4151H193.466ZM152.034 55.521H193.466V62.3504H152.034V55.521ZM152.034 83.5216V66.4481H170.018V83.5216L152.034 83.5216ZM193.466 83.5216H174.116V66.4481H193.466V83.5216ZM224.426 62.3504H197.564V46.4151H224.426V62.3504Z" fill="#E6E6E6"/>
<path id="Vector_21" d="M203.297 23.6483C203.297 34.4998 183.648 58.6736 183.648 58.6736C183.648 58.6736 164 34.4998 164 23.6483C164 18.4373 166.07 13.4396 169.755 9.75487C173.44 6.07009 178.437 4 183.648 4C188.859 4 193.857 6.07009 197.542 9.75487C201.227 13.4396 203.297 18.4373 203.297 23.6483Z" fill="#6C63FF"/>
<path id="Vector_22" d="M192.63 22.7946C192.63 24.5711 192.103 26.3077 191.116 27.7848C190.13 29.2619 188.727 30.4132 187.085 31.093C185.444 31.7728 183.638 31.9507 181.896 31.6041C180.153 31.2575 178.553 30.4021 177.297 29.1459C176.041 27.8897 175.185 26.2893 174.839 24.5469C174.492 22.8046 174.67 20.9986 175.35 19.3573C176.03 17.716 177.181 16.3132 178.658 15.3263C180.135 14.3393 181.872 13.8125 183.648 13.8125C184.828 13.812 185.996 14.0439 187.086 14.4951C188.176 14.9463 189.166 15.6079 190.001 16.4421C190.835 17.2763 191.496 18.2667 191.948 19.3567C192.399 20.4467 192.631 21.6149 192.63 22.7946Z" fill="white"/>
<path id="Vector_23" d="M183.648 72.8547C186.573 72.8547 188.945 70.4834 188.945 67.5582C188.945 64.633 186.573 62.2617 183.648 62.2617C180.723 62.2617 178.352 64.633 178.352 67.5582C178.352 70.4834 180.723 72.8547 183.648 72.8547Z" fill="#6C63FF"/>
</g>
<defs>
<clipPath id="clip0_1628_55594">
<rect width="244.815" height="190" fill="white" transform="translate(0.0927734)"/>
</clipPath>
</defs>
</svg>
