<svg xmlns="http://www.w3.org/2000/svg" width="227" height="190" viewBox="0 0 227 190" fill="none">
  <g clip-path="url(#clip0_505_18909)">
    <path d="M63.7634 42.9897C73.0184 42.9897 80.521 35.4871 80.521 26.2322C80.521 16.9772 73.0184 9.47461 63.7634 9.47461C54.5085 9.47461 47.0059 16.9772 47.0059 26.2322C47.0059 35.4871 54.5085 42.9897 63.7634 42.9897Z" fill="#FF6584"/>
    <path d="M161.618 31.118H141.518V12.8447L161.618 31.118Z" fill="#3F3D56"/>
    <path d="M163.966 30.5198H62.8457V170.223H163.966V30.5198Z" fill="#E6E6E6"/>
    <path d="M84.832 40.3152H72.9355V65.3827H84.832V40.3152Z" fill="white"/>
    <path d="M103.232 40.3152H91.3359V65.3827H103.232V40.3152Z" fill="white"/>
    <path d="M83.2636 75.845H71.3672V100.912H83.2636V75.845Z" fill="white"/>
    <path d="M103.232 75.845H91.3359V100.912H103.232V75.845Z" fill="white"/>
    <path d="M83.2636 108.72H71.3672V133.787H83.2636V108.72Z" fill="white"/>
    <path d="M102.785 108.272H90.8887V133.339H102.785V108.272Z" fill="white"/>
    <path d="M120.076 145.211H108.18V170.279H120.076V145.211Z" fill="#CCCCCC"/>
    <path d="M138.049 108.272H126.152V133.339H138.049V108.272Z" fill="white"/>
    <path d="M158.018 108.272H146.121V133.339H158.018V108.272Z" fill="white"/>
    <path d="M138.496 75.5796H126.6V100.647H138.496V75.5796Z" fill="white"/>
    <path d="M158.467 75.5796H146.57V100.647H158.467V75.5796Z" fill="white"/>
    <path d="M138.496 40.3152H126.6V65.3827H138.496V40.3152Z" fill="white"/>
    <path d="M158.467 40.3152H146.57V65.3827H158.467V40.3152Z" fill="white"/>
    <path d="M163.966 62.8103H62.8457V66.6342H163.966V62.8103Z" fill="#3F3D56"/>
    <path d="M163.966 92.5513H62.8457V94.6756H163.966V92.5513Z" fill="#3F3D56"/>
    <path d="M163.966 85.7534H62.8457V87.8778H163.966V85.7534Z" fill="#3F3D56"/>
    <path d="M72.8301 135.464V118.469H70.7057V135.464H72.8301Z" fill="#3F3D56"/>
    <path d="M84.7266 135.464V118.469H82.6022V135.464H84.7266Z" fill="#3F3D56"/>
    <path d="M96.623 135.464V118.469H94.4987V135.464H96.623Z" fill="#3F3D56"/>
    <path d="M108.52 135.464V118.469H106.395V135.464H108.52Z" fill="#3F3D56"/>
    <path d="M120.416 135.464V118.469H118.292V135.464H120.416Z" fill="#3F3D56"/>
    <path d="M132.312 135.464V118.469H130.188V135.464H132.312Z" fill="#3F3D56"/>
    <path d="M144.209 135.464V118.469H142.085V135.464H144.209Z" fill="#3F3D56"/>
    <path d="M156.105 135.464V118.469H153.981V135.464H156.105Z" fill="#3F3D56"/>
    <path d="M73.043 103.173V86.1782H70.9186V103.173H73.043Z" fill="#3F3D56"/>
    <path d="M84.9395 103.173V86.1782H82.8151V103.173H84.9395Z" fill="#3F3D56"/>
    <path d="M96.8359 103.173V86.1782H94.7116V103.173H96.8359Z" fill="#3F3D56"/>
    <path d="M108.732 103.173V86.1782H106.608V103.173H108.732Z" fill="#3F3D56"/>
    <path d="M120.629 103.173V86.1782H118.505V103.173H120.629Z" fill="#3F3D56"/>
    <path d="M132.525 103.173V86.1782H130.401V103.173H132.525Z" fill="#3F3D56"/>
    <path d="M144.422 103.173V86.1782H142.298V103.173H144.422Z" fill="#3F3D56"/>
    <path d="M156.318 103.173V86.1782H154.194V103.173H156.318Z" fill="#3F3D56"/>
    <path d="M73.043 65.3594V48.3645H70.9186V65.3594H73.043Z" fill="#3F3D56"/>
    <path d="M84.9395 65.3594V48.3645H82.8151V65.3594H84.9395Z" fill="#3F3D56"/>
    <path d="M96.8359 65.3594V48.3645H94.7116V65.3594H96.8359Z" fill="#3F3D56"/>
    <path d="M108.732 65.3594V48.3645H106.608V65.3594H108.732Z" fill="#3F3D56"/>
    <path d="M120.629 65.3594V48.3645H118.505V65.3594H120.629Z" fill="#3F3D56"/>
    <path d="M132.525 65.3594V48.3645H130.401V65.3594H132.525Z" fill="#3F3D56"/>
    <path d="M144.422 65.3594V48.3645H142.298V65.3594H144.422Z" fill="#3F3D56"/>
    <path d="M156.318 65.3594V48.3645H154.194V65.3594H156.318Z" fill="#3F3D56"/>
    <path d="M163.966 54.3127H62.8457V56.4371H163.966V54.3127Z" fill="#3F3D56"/>
    <path d="M163.966 47.5149H62.8457V49.6393H163.966V47.5149Z" fill="#3F3D56"/>
    <path d="M163.966 99.7742H62.8457V103.598H163.966V99.7742Z" fill="#3F3D56"/>
    <path d="M168.62 28.948H58.1934V34.6461H168.62V28.948Z" fill="#3F3D56"/>
    <path d="M84.8543 150.632V145.211H78.3496V150.632H84.3121H84.8543Z" fill="white"/>
    <path d="M84.3121 154.968H78.3496V160.389H84.8543V154.968H84.3121Z" fill="white"/>
    <path d="M95.694 145.211H89.1895V150.632H95.694V145.211Z" fill="white"/>
    <path d="M95.694 154.968H89.1895V160.389H95.694V154.968Z" fill="white"/>
    <path d="M137.905 150.632V145.211H131.4V150.632H137.363H137.905Z" fill="white"/>
    <path d="M137.363 154.968H131.4V160.389H137.905V154.968H137.363Z" fill="white"/>
    <path d="M148.747 145.211H142.242V150.632H148.747V145.211Z" fill="white"/>
    <path d="M148.747 154.968H142.242V160.389H148.747V154.968Z" fill="white"/>
    <path d="M163.966 132.065H62.8457V135.889H163.966V132.065Z" fill="#3F3D56"/>
    <path d="M163.966 125.267H62.8457V127.391H163.966V125.267Z" fill="#3F3D56"/>
    <path d="M163.966 118.469H62.8457V120.593H163.966V118.469Z" fill="#3F3D56"/>
    <path d="M93.46 168.402C93.4602 168.284 93.4586 168.166 93.4552 168.049C93.3643 164.917 90.2574 164.067 88.5918 165.55C88.0662 165.094 87.3935 164.842 86.6973 164.842C86.0012 164.842 85.3285 165.094 84.8029 165.55C83.1301 164.091 80.0851 164.88 79.9846 167.976C79.9808 168.093 79.9787 168.211 79.9785 168.329C79.9834 168.98 80.0233 169.631 80.0981 170.278H93.3421C93.4141 169.655 93.4534 169.029 93.46 168.402Z" fill="#6C63FF"/>
    <path d="M146.097 168.402C146.097 168.284 146.095 168.166 146.092 168.049C146.001 164.917 142.894 164.067 141.229 165.55C140.703 165.094 140.03 164.842 139.334 164.842C138.638 164.842 137.965 165.094 137.44 165.55C135.767 164.091 132.722 164.88 132.621 167.976C132.617 168.093 132.615 168.211 132.615 168.329C132.62 168.98 132.66 169.631 132.735 170.278H145.979C146.051 169.655 146.09 169.029 146.097 168.402Z" fill="#6C63FF"/>
    <path d="M218.732 170.489H216.684L217.366 130.479H218.049L218.732 170.489Z" fill="#E6E6E6"/>
    <path d="M220.439 105.289L223.745 100.179C222.764 97.4709 221.632 94.8198 220.353 92.2389L218.215 93.9657L219.908 91.3495C218.294 88.1737 217.025 86.1729 217.025 86.1729C217.025 86.1729 210.394 96.6221 208.179 107.686L212.421 114.243L207.724 110.449C207.557 111.738 207.471 113.036 207.467 114.335C207.467 127.438 211.746 138.06 217.025 138.06C222.304 138.06 226.583 127.438 226.583 114.335C226.583 110.273 225.664 106.024 224.396 102.092L220.439 105.289Z" fill="#E6E6E6"/>
    <path d="M211.52 114.526H167.822V146.701H167.849V153.107L174.255 146.701H211.52V114.526Z" fill="#6C63FF"/>
    <path d="M156.26 183.242H117.492V184.774H156.26V183.242Z" fill="#E6E6E6"/>
    <path d="M226.956 183.242H187.979V184.774H226.956V183.242Z" fill="#E6E6E6"/>
    <path d="M85.8243 183.242H47.0059V184.774H85.8243V183.242Z" fill="#E6E6E6"/>
    <path d="M226.797 170.244H0.0429688V170.671H226.797V170.244Z" fill="#3F3D56"/>
    <path d="M177.892 177.623L182.457 177.625L182.457 176.901L177.892 176.898L177.892 177.623Z" fill="#3F3D56"/>
    <path d="M144.885 177.062L145.827 177.28L181.624 177.299L181.945 176.549C182.507 175.262 182.7 173.845 182.502 172.456C182.348 171.42 181.961 170.391 181.084 169.944L179.495 159.363L159.691 159.328L152.029 165.508C152.029 165.508 148.414 165.443 146.451 167.887C145.742 168.796 145.324 169.898 145.25 171.048L145.173 172.319L144.885 177.062Z" fill="#6C63FF"/>
    <path d="M152.746 181.305C155.188 181.305 157.167 179.326 157.167 176.885C157.167 174.444 155.188 172.465 152.746 172.465C150.305 172.465 148.326 174.444 148.326 176.885C148.326 179.326 150.305 181.305 152.746 181.305Z" fill="#3F3D56"/>
    <path d="M152.746 179.211C154.031 179.211 155.073 178.17 155.073 176.885C155.073 175.6 154.031 174.558 152.746 174.558C151.462 174.558 150.42 175.6 150.42 176.885C150.42 178.17 151.462 179.211 152.746 179.211Z" fill="#CCCCCC"/>
    <path d="M174.559 181.317C177 181.317 178.979 179.338 178.979 176.897C178.979 174.455 177 172.476 174.559 172.476C172.118 172.476 170.139 174.455 170.139 176.897C170.139 179.338 172.118 181.317 174.559 181.317Z" fill="#3F3D56"/>
    <path d="M174.559 179.223C175.844 179.223 176.885 178.181 176.885 176.897C176.885 175.612 175.844 174.57 174.559 174.57C173.274 174.57 172.232 175.612 172.232 176.897C172.232 178.181 173.274 179.223 174.559 179.223Z" fill="#CCCCCC"/>
    <path d="M155.072 164.785L165.765 164.79H167.07L169.274 164.791V164.631L169.276 162.693L169.277 160.517H167.811L166.506 160.515L164.194 160.514H162.889L160.219 160.512L155.072 164.785Z" fill="white"/>
    <path d="M171.014 164.793L176.665 164.796L176.666 163.687V161.75L176.668 160.522H175.84L174.535 160.52L171.015 160.519L171.014 164.793Z" fill="white"/>
    <path d="M168.547 169.358L169.271 169.358L169.272 167.982L168.548 167.981L168.547 169.358Z" fill="#3F3D56"/>
    <path d="M157.97 166.744L157.971 166.019L156.594 166.018L156.594 166.743L157.97 166.744Z" fill="#3F3D56"/>
    <path d="M157.463 166.337L157.383 166.337C156.982 166.336 156.596 166.177 156.313 165.892C156.029 165.608 155.869 165.223 155.87 164.821C155.87 164.42 156.029 164.035 156.314 163.751C156.598 163.467 156.983 163.307 157.385 163.308L157.465 163.308L157.463 166.337Z" fill="#3F3D56"/>
    <path d="M145.172 172.319C145.72 172.379 146.271 172.243 146.729 171.936C147.187 171.629 147.522 171.17 147.674 170.641C147.827 170.111 147.788 169.544 147.564 169.041C147.34 168.537 146.945 168.129 146.45 167.887C145.741 168.796 145.323 169.898 145.249 171.048L145.172 172.319Z" fill="#3F3D56"/>
    <path d="M166.506 160.515L169.274 164.631L169.276 162.693L167.811 160.517L166.506 160.515Z" fill="#F2F2F2"/>
    <path d="M174.535 160.52L176.666 163.687V161.749L175.84 160.522L174.535 160.52Z" fill="#F2F2F2"/>
    <path d="M162.889 160.514L165.765 164.79H167.071L164.194 160.514H162.889Z" fill="#F2F2F2"/>
    <path d="M104.853 0.267629L104.823 0.283719C104.504 0.458197 104.147 0.550249 103.783 0.551525C103.419 0.5528 103.061 0.463258 102.741 0.291022C102.723 0.281067 102.704 0.271237 102.686 0.261532C102.366 0.0906036 102.008 0.00178853 101.645 0.00304186C101.282 0.00429519 100.925 0.0955782 100.606 0.268714L100.578 0.283719C100.259 0.458197 99.9019 0.550249 99.5383 0.551525C99.1747 0.5528 98.8165 0.463258 98.4962 0.291022C98.4771 0.280687 98.458 0.270487 98.4391 0.26042C98.1227 0.0902745 97.7691 0.000914746 97.4098 0.000278986C97.0505 -0.000356774 96.6966 0.0877519 96.3795 0.256776C95.411 0.778358 94.1017 1.67014 94.1074 2.67726C94.1077 2.71709 94.1099 2.75688 94.1142 2.79647C94.2268 3.84237 97.6382 4.10887 99.5122 3.61597C100.909 3.93472 102.36 3.93472 103.757 3.61597C105.623 4.11676 109.104 3.82985 109.205 2.77195C109.209 2.73231 109.211 2.69251 109.211 2.65268C109.205 1.64502 107.884 0.762583 106.91 0.248343C106.592 0.082004 106.238 -0.00326865 105.879 9.58336e-05C105.52 0.00346032 105.168 0.0953568 104.853 0.267629Z" fill="#E6E6E6"/>
    <path d="M198.833 34.7999L198.804 34.8159C198.485 34.9904 198.127 35.0825 197.764 35.0838C197.4 35.085 197.042 34.9955 196.721 34.8233C196.703 34.8133 196.685 34.8035 196.666 34.7938C196.346 34.6228 195.989 34.534 195.626 34.5353C195.263 34.5365 194.906 34.6278 194.587 34.8009L194.559 34.8159C194.24 34.9904 193.882 35.0825 193.519 35.0838C193.155 35.085 192.797 34.9955 192.477 34.8233C192.458 34.8129 192.439 34.8027 192.42 34.7926C192.103 34.6225 191.75 34.5331 191.39 34.5325C191.031 34.5319 190.677 34.62 190.36 34.789C189.391 35.3106 188.082 36.2024 188.088 37.2095C188.088 37.2493 188.09 37.2891 188.095 37.3287C188.207 38.3746 191.619 38.6411 193.493 38.1482C194.89 38.4669 196.34 38.4669 197.737 38.1482C199.603 38.649 203.084 38.3621 203.186 37.3042C203.19 37.2645 203.192 37.2247 203.191 37.1849C203.186 36.1772 201.865 35.2948 200.89 34.7806C200.572 34.6142 200.218 34.529 199.859 34.5323C199.5 34.5357 199.148 34.6276 198.833 34.7999Z" fill="#E6E6E6"/>
    <path d="M34.2571 36.7274L34.2275 36.7434C33.9085 36.9179 33.551 37.01 33.1873 37.0112C32.8237 37.0125 32.4655 36.923 32.1453 36.7507C32.1268 36.7408 32.1085 36.7309 32.0902 36.7212C31.77 36.5503 31.4124 36.4615 31.0494 36.4628C30.6864 36.464 30.3294 36.5553 30.0103 36.7284L29.9828 36.7434C29.6638 36.9179 29.3062 37.01 28.9426 37.0112C28.579 37.0125 28.2208 36.923 27.9005 36.7507C27.8814 36.7404 27.8623 36.7302 27.8434 36.7201C27.5269 36.55 27.1734 36.4606 26.8141 36.46C26.4548 36.4594 26.1009 36.5475 25.7838 36.7165C24.8153 37.2381 23.506 38.1298 23.5117 39.137C23.512 39.1768 23.5142 39.2166 23.5185 39.2562C23.6311 40.3021 27.0425 40.5686 28.9165 40.0757C30.3135 40.3944 31.7643 40.3944 33.1613 40.0757C35.0273 40.5765 38.508 40.2896 38.6098 39.2317C38.6136 39.192 38.6154 39.1522 38.6152 39.1124C38.6094 38.1047 37.2885 37.2223 36.3139 36.7081C35.996 36.5417 35.6419 36.4564 35.2831 36.4598C34.9243 36.4632 34.5718 36.5551 34.2571 36.7274Z" fill="#E6E6E6"/>
    <path d="M28.1746 185.583H23.6094V186.307H28.1746V185.583Z" fill="#3F3D56"/>
    <path d="M61.1808 185.745L60.2389 185.963L24.4421 185.982L24.1202 185.232C23.5588 183.946 23.3661 182.528 23.5636 181.139C23.7178 180.103 24.1041 179.074 24.9816 178.627L26.5702 168.046L46.3747 168.011L54.037 174.191C54.037 174.191 57.6515 174.126 59.6151 176.57C60.3234 177.479 60.7417 178.581 60.8153 179.731L60.8928 181.002L61.1808 185.745Z" fill="#6C63FF"/>
    <path d="M53.3187 189.988C55.7599 189.988 57.739 188.009 57.739 185.568C57.739 183.127 55.7599 181.148 53.3187 181.148C50.8775 181.148 48.8984 183.127 48.8984 185.568C48.8984 188.009 50.8775 189.988 53.3187 189.988Z" fill="#3F3D56"/>
    <path d="M53.3186 187.895C54.6035 187.895 55.6451 186.853 55.6451 185.568C55.6451 184.283 54.6035 183.242 53.3186 183.242C52.0338 183.242 50.9922 184.283 50.9922 185.568C50.9922 186.853 52.0338 187.895 53.3186 187.895Z" fill="#CCCCCC"/>
    <path d="M31.5082 190C33.9494 190 35.9284 188.021 35.9284 185.58C35.9284 183.138 33.9494 181.159 31.5082 181.159C29.0669 181.159 27.0879 183.138 27.0879 185.58C27.0879 188.021 29.0669 190 31.5082 190Z" fill="#3F3D56"/>
    <path d="M31.5081 187.906C32.793 187.906 33.8345 186.864 33.8345 185.58C33.8345 184.295 32.793 183.253 31.5081 183.253C30.2232 183.253 29.1816 184.295 29.1816 185.58C29.1816 186.864 30.2232 187.906 31.5081 187.906Z" fill="#CCCCCC"/>
    <path d="M50.9941 173.468L40.3011 173.473H38.9958L36.7921 173.475V173.314L36.7906 171.376L36.7891 169.2H38.2552L39.5605 169.198L41.8725 169.197H43.1778L45.847 169.195L50.9941 173.468Z" fill="white"/>
    <path d="M35.0507 173.476L29.3995 173.479L29.398 172.37V170.433L29.3965 169.205H30.2239L31.5292 169.203L35.0492 169.202L35.0507 173.476Z" fill="white"/>
    <path d="M37.5176 176.664H36.793V178.041H37.5176V176.664Z" fill="#3F3D56"/>
    <path d="M49.473 175.425L49.4727 174.701L48.0958 174.701L48.0962 175.426L49.473 175.425Z" fill="#3F3D56"/>
    <path d="M48.6035 171.99H48.6832C48.8821 171.99 49.079 172.03 49.2628 172.106C49.4465 172.182 49.6135 172.293 49.7541 172.434C49.8948 172.575 50.0063 172.742 50.0824 172.925C50.1585 173.109 50.1977 173.306 50.1977 173.505C50.1977 173.907 50.0381 174.292 49.7541 174.576C49.4701 174.86 49.0849 175.019 48.6832 175.019H48.6035L48.6035 171.99Z" fill="#3F3D56"/>
    <path d="M60.8928 181.002C60.3448 181.062 59.7934 180.926 59.3356 180.619C58.8778 180.312 58.5431 179.853 58.3904 179.324C58.2377 178.794 58.2768 178.228 58.5009 177.724C58.7249 177.22 59.1195 176.812 59.6151 176.571C60.3234 177.48 60.7417 178.581 60.8153 179.731L60.8928 181.002Z" fill="#3F3D56"/>
    <path d="M39.559 169.198L36.7906 173.314L36.7891 171.376L38.2537 169.2L39.559 169.198Z" fill="#F2F2F2"/>
    <path d="M31.5296 169.203L29.3984 172.371V170.433L30.2244 169.205L31.5296 169.203Z" fill="#F2F2F2"/>
    <path d="M43.178 169.197L40.3014 173.473H38.9961L41.8727 169.197H43.178Z" fill="#F2F2F2"/>
    <path d="M188.141 137.471L182.561 130.297L185.805 127.773L188.447 131.17L197.373 121.748L200.358 124.576L188.141 137.471Z" fill="white"/>
    <path d="M1.66211 122.668H45.3594V154.843H45.3329V161.248L38.9271 154.843H1.66211V122.668Z" fill="#6C63FF"/>
    <path d="M22.2716 146.379L16.6914 139.204L19.9366 136.68L22.5785 140.077L31.504 130.656L34.4887 133.483L22.2716 146.379Z" fill="white"/>
  </g>
  <defs>
    <clipPath id="clip0_505_18909">
      <rect width="226.913" height="190" fill="white" transform="translate(0.0429688)"/>
    </clipPath>
  </defs>
</svg>