<svg width="20" height="20" viewBox="0 0 20 20" fill="none" xmlns="http://www.w3.org/2000/svg">
<g clip-path="url(#clip0_12233_94525)">
<path d="M11.875 2.35294V0H8.125V2.35294H3.125V20H16.875V2.35294H11.875ZM9.375 1.17647H10.625V4.70588H9.375V1.17647ZM8.125 3.52941V4.70588H6.875V5.88235H13.125V4.70588H11.875V3.52941H15.625V16.4706H4.375V3.52941H8.125ZM4.375 18.8235V17.6471H15.625V18.8235H4.375Z" fill="#052439"/>
<path d="M10.0005 15.2944C12.2709 15.2944 14.1181 13.4472 14.1181 11.1767C14.1181 8.90626 12.2709 7.05908 10.0005 7.05908C7.72999 7.05908 5.88281 8.90626 5.88281 11.1767C5.88281 13.4472 7.72999 15.2944 10.0005 15.2944ZM8.53422 13.7247C9.23297 12.683 10.7658 12.6799 11.4667 13.7247C10.5772 14.2386 9.45968 14.2593 8.53422 13.7247ZM9.41222 11.1767C9.41222 10.8524 9.67611 10.5885 10.0005 10.5885C10.3248 10.5885 10.5887 10.8524 10.5887 11.1767C10.5887 11.5011 10.3248 11.765 10.0005 11.765C9.67611 11.765 9.41222 11.5011 9.41222 11.1767ZM10.0005 8.23555C12.431 8.23555 13.7951 11.0222 12.3522 12.9409C12.1119 12.6214 11.8096 12.3557 11.4664 12.158C12.2473 10.9952 11.4131 9.41202 10.0005 9.41202C8.5887 9.41202 7.75324 10.9947 8.53454 12.158C8.19128 12.3557 7.88901 12.6215 7.64869 12.9409C7.27885 12.449 7.05928 11.8381 7.05928 11.1767C7.05928 9.55496 8.3787 8.23555 10.0005 8.23555Z" fill="#052439"/>
</g>
<defs>
<clipPath id="clip0_12233_94525">
<rect width="20" height="20" fill="white"/>
</clipPath>
</defs>
</svg>
