<svg width="295" height="190" viewBox="0 0 295 190" fill="none" xmlns="http://www.w3.org/2000/svg">
<g clip-path="url(#clip0_1162_49399)">
<path d="M88.1442 130.214C87.1364 138.11 83.4308 145.334 79.4776 152.293C79.3469 152.529 79.2124 152.763 79.0747 153H37.9874C37.1564 152.784 36.3362 152.547 35.5193 152.293C30.8787 150.88 26.4975 148.724 22.5461 145.91C7.43015 135.02 1.61352 114.441 4.24076 96.001C5.87439 84.5447 10.9024 72.8479 20.6932 66.6778C25.8628 63.4141 32.5031 62.3533 38.4541 63.5662C38.6098 63.5944 38.7654 63.6298 38.9244 63.6616C44.0444 64.8143 48.6056 67.6784 51.2011 72.2928C55.8684 80.5845 53.0892 90.8563 50.7945 100.085C48.5067 109.314 47.2655 120.36 53.906 127.166C51.7137 120.713 53.8777 113.016 59.1144 108.652C63.0711 105.361 68.58 104.126 73.6046 105.148C74.0854 105.251 74.5593 105.368 75.026 105.509C76.154 105.839 77.2416 106.295 78.2684 106.867C86.1004 111.241 89.2721 121.315 88.1442 130.214Z" fill="#F2F2F2"/>
<path d="M63.7814 152.293C64.9199 152.558 66.062 152.791 67.2111 153H60.9986C60.1853 152.781 59.3755 152.547 58.573 152.293C56.8085 151.741 55.0712 151.108 53.361 150.394C46.5014 147.516 40.1827 143.195 35.4022 137.445C33.0642 134.66 31.155 131.541 29.7377 128.192C28.2008 124.407 27.2241 120.417 26.8383 116.35C25.972 108.005 26.8559 99.4308 28.5072 91.2346C30.2112 82.7397 32.962 74.4888 36.6964 66.6707C37.1454 65.7337 37.6098 64.8026 38.0895 63.8773C38.1225 63.8012 38.1725 63.7335 38.2356 63.6796C38.2987 63.6257 38.3733 63.5869 38.4536 63.5662C38.6169 63.5345 38.786 63.5689 38.9239 63.6616C39.0895 63.7566 39.2123 63.9116 39.2669 64.0945C39.3216 64.2775 39.3038 64.4744 39.2174 64.6446C35.3671 72.1534 32.4484 80.1044 30.5262 88.321C28.6451 96.3369 27.5773 104.724 27.9414 112.966C28.2879 120.667 30.3 128.241 34.8647 134.539C39.0336 140.288 44.7899 144.821 51.1582 147.908C55.1889 149.837 59.4231 151.307 63.7814 152.293Z" fill="white"/>
<path d="M77.4158 153H75.5841C75.379 152.766 75.181 152.53 74.9866 152.293C70.8146 147.224 67.9883 141.184 66.7691 134.733C65.2884 126.683 66.4402 118.37 70.0539 111.025C71.0621 108.966 72.2501 106.999 73.604 105.148C74.0848 105.251 74.5587 105.368 75.0254 105.509C71.4642 110.227 69.0689 115.721 68.0349 121.541C67.1125 126.995 67.4192 132.586 68.9326 137.906C70.446 143.226 73.128 148.141 76.7829 152.293C76.9878 152.53 77.2 152.766 77.4158 153Z" fill="white"/>
<path d="M242.414 146.986C242.68 149.07 243.658 150.977 244.701 152.813C244.736 152.876 244.771 152.937 244.807 153H255.651C255.87 152.943 256.087 152.881 256.302 152.813C257.527 152.44 258.684 151.872 259.726 151.129C263.716 148.255 265.251 142.824 264.557 137.957C264.126 134.933 262.799 131.846 260.215 130.218C258.812 129.363 257.138 129.07 255.528 129.397C255.487 129.404 255.446 129.414 255.404 129.422C254.734 129.552 254.098 129.822 253.54 130.214C252.982 130.607 252.513 131.113 252.164 131.7C250.932 133.888 251.665 136.599 252.271 139.035C252.875 141.47 253.202 144.386 251.45 146.182C251.707 145.431 251.759 144.625 251.601 143.847C251.443 143.069 251.081 142.347 250.551 141.755C250.022 141.163 249.345 140.723 248.589 140.48C247.833 140.237 247.026 140.199 246.251 140.371C246.124 140.398 245.999 140.429 245.876 140.466C245.578 140.553 245.291 140.674 245.02 140.825C242.953 141.979 242.116 144.638 242.414 146.986Z" fill="#F2F2F2"/>
<path d="M248.845 152.814C248.544 152.884 248.243 152.945 247.939 153H249.579C249.794 152.942 250.007 152.881 250.219 152.814C250.685 152.668 251.143 152.501 251.595 152.312C253.425 151.569 255.051 150.397 256.334 148.895C256.951 148.16 257.455 147.337 257.829 146.453C258.235 145.454 258.493 144.401 258.595 143.328C258.781 141.109 258.632 138.874 258.154 136.699C257.704 134.457 256.978 132.28 255.993 130.216C255.874 129.969 255.752 129.723 255.625 129.479C255.616 129.459 255.603 129.441 255.587 129.427C255.57 129.413 255.55 129.403 255.529 129.397C255.486 129.389 255.441 129.398 255.405 129.422C255.361 129.447 255.329 129.488 255.314 129.537C255.3 129.585 255.305 129.637 255.327 129.682C256.344 131.663 257.114 133.762 257.621 135.93C258.144 138.057 258.373 140.246 258.303 142.435C258.266 144.471 257.631 146.451 256.476 148.128C255.354 149.639 253.877 150.85 252.176 151.656C251.112 152.165 249.995 152.554 248.845 152.814Z" fill="white"/>
<path d="M245.246 153H245.729C245.784 152.938 245.836 152.876 245.887 152.813C246.988 151.475 247.734 149.882 248.056 148.179C248.447 146.054 248.143 143.86 247.189 141.922C246.923 141.379 246.609 140.86 246.252 140.371C246.125 140.398 246 140.429 245.877 140.466C246.817 141.712 247.449 143.161 247.722 144.697C247.965 146.137 247.884 147.612 247.485 149.016C247.086 150.42 246.378 151.718 245.413 152.813C245.359 152.876 245.303 152.938 245.246 153Z" fill="white"/>
<path d="M144.675 99.1409H110.737L110.377 88.7062C110.361 88.2539 110.444 87.8035 110.619 87.3862C110.794 86.9689 111.058 86.5944 111.391 86.2887C111.725 85.9829 112.121 85.7531 112.552 85.6151C112.983 85.477 113.439 85.434 113.888 85.489L133.638 87.9074H133.64C136.568 87.9153 139.374 89.0834 141.442 91.1559C143.51 93.2284 144.673 96.0362 144.675 98.9641V99.1409Z" fill="#6C63FF"/>
<path d="M129.549 62.1274H105.879C105.565 62.1274 105.253 62.1893 104.962 62.3097C104.671 62.4302 104.407 62.6067 104.184 62.8293C103.962 63.0519 103.785 63.3162 103.665 63.607C103.544 63.8979 103.482 64.2096 103.482 64.5244V88.1945C103.482 88.5093 103.544 88.821 103.665 89.1119C103.785 89.4027 103.962 89.667 104.184 89.8896C104.407 90.1122 104.671 90.2887 104.962 90.4092C105.253 90.5296 105.565 90.5915 105.879 90.5915H129.549C129.864 90.5915 130.176 90.5296 130.467 90.4092C130.758 90.2888 131.022 90.1122 131.245 89.8896C131.467 89.667 131.644 89.4027 131.764 89.1119C131.885 88.821 131.947 88.5093 131.946 88.1945V64.5244C131.947 64.2096 131.885 63.8979 131.764 63.607C131.644 63.3162 131.467 63.0519 131.245 62.8293C131.022 62.6067 130.758 62.4302 130.467 62.3097C130.176 62.1893 129.864 62.1274 129.549 62.1274Z" fill="#CCCCCC"/>
<path d="M124.218 79.8267L113.043 82.003C112.38 82.1314 111.693 81.9915 111.133 81.6141C110.573 81.2367 110.186 80.6526 110.056 79.99L109.197 75.5786C109.069 74.9157 109.208 74.2289 109.586 73.669C109.963 73.1091 110.547 72.7217 111.21 72.5919L122.386 70.4156C123.048 70.2873 123.735 70.4272 124.295 70.8046C124.855 71.1819 125.242 71.766 125.372 72.4286L126.231 76.8401C126.36 77.503 126.22 78.1897 125.842 78.7496C125.465 79.3096 124.881 79.6969 124.218 79.8267Z" fill="#3F3D56"/>
<path d="M121.983 74.6152L113.454 76.2761C113.298 76.3064 113.136 76.2736 113.005 76.1848C112.873 76.0959 112.782 75.9584 112.751 75.8024C112.721 75.6464 112.754 75.4847 112.843 75.3529C112.931 75.2211 113.069 75.13 113.225 75.0997L121.754 73.4388C121.91 73.4084 122.071 73.4412 122.203 73.5301C122.335 73.6189 122.426 73.7564 122.456 73.9124C122.487 74.0684 122.454 74.2301 122.365 74.3619C122.276 74.4937 122.139 74.5848 121.983 74.6152Z" fill="white"/>
<path d="M120.324 77.0747L115.913 77.9337C115.757 77.9641 115.595 77.9313 115.464 77.8424C115.332 77.7536 115.241 77.6161 115.21 77.4601C115.18 77.3041 115.213 77.1424 115.302 77.0106C115.39 76.8788 115.528 76.7877 115.684 76.7573L120.095 75.8983C120.173 75.8832 120.252 75.8835 120.329 75.8992C120.406 75.9149 120.48 75.9456 120.545 75.9895C120.61 76.0335 120.666 76.0899 120.71 76.1555C120.753 76.2211 120.783 76.2947 120.798 76.3719C120.813 76.4491 120.813 76.5286 120.797 76.6057C120.782 76.6828 120.751 76.7561 120.707 76.8214C120.663 76.8866 120.606 76.9426 120.541 76.986C120.475 77.0295 120.402 77.0596 120.324 77.0747Z" fill="white"/>
<path d="M131.946 64.5244V67.6704H103.482V64.5244C103.482 64.2096 103.544 63.8979 103.665 63.607C103.785 63.3162 103.962 63.0519 104.184 62.8293C104.407 62.6067 104.671 62.4302 104.962 62.3097C105.253 62.1893 105.565 62.1274 105.879 62.1274H129.549C129.864 62.1274 130.176 62.1893 130.467 62.3097C130.758 62.4302 131.022 62.6067 131.245 62.8293C131.467 63.0519 131.644 63.3162 131.764 63.607C131.885 63.8979 131.947 64.2096 131.946 64.5244Z" fill="#B3B3B3"/>
<path d="M188.787 68.6553C188.623 68.1249 188.344 67.6369 187.971 67.2258C187.597 66.8147 187.138 66.4904 186.626 66.2758C186.114 66.0613 185.561 65.9616 185.006 65.9839C184.451 66.0062 183.908 66.1498 183.415 66.4048L150.85 54.7212L149.416 62.8563L181.877 71.7829C182.36 72.5833 183.12 73.1786 184.013 73.4561C184.906 73.7335 185.869 73.6739 186.721 73.2883C187.573 72.9028 188.254 72.2183 188.634 71.3644C189.015 70.5105 189.069 69.5466 188.787 68.6553Z" fill="#FFB8B8"/>
<path opacity="0.2" d="M188.787 68.6553C188.623 68.1249 188.344 67.6369 187.971 67.2258C187.597 66.8147 187.138 66.4904 186.626 66.2758C186.114 66.0613 185.561 65.9616 185.006 65.9839C184.451 66.0062 183.908 66.1498 183.415 66.4048L150.85 54.7212L149.416 62.8563L181.877 71.7829C182.36 72.5833 183.12 73.1786 184.013 73.4561C184.906 73.7335 185.869 73.6739 186.721 73.2883C187.573 72.9028 188.254 72.2183 188.634 71.3644C189.015 70.5105 189.069 69.5466 188.787 68.6553Z" fill="black"/>
<path d="M156.629 56.2037L153.554 64.2374C153.466 64.4659 153.331 64.673 153.156 64.8444C152.981 65.0158 152.772 65.1475 152.541 65.2306C152.311 65.3136 152.066 65.3461 151.822 65.3258C151.578 65.3055 151.341 65.2328 151.128 65.1128L143.654 60.9064C142.488 60.452 141.548 59.5535 141.043 58.4079C140.538 57.2622 140.507 55.9629 140.958 54.7948C141.409 53.6267 142.305 52.6851 143.449 52.1764C144.593 51.6678 145.893 51.6335 147.062 52.0813L155.408 53.9322C155.647 53.9853 155.871 54.0892 156.066 54.2369C156.261 54.3847 156.422 54.5727 156.538 54.7883C156.654 55.0039 156.722 55.2419 156.738 55.4861C156.754 55.7304 156.716 55.9751 156.629 56.2037Z" fill="#6C63FF"/>
<path d="M191.35 76.0942L179.682 81.3981L181.214 87.1655C184.172 98.3028 184.957 109.906 183.526 121.34L192.057 123.122L199.129 105.089L196.654 84.5804L191.35 76.0942Z" fill="#6C63FF"/>
<path d="M214.245 102.79C206.578 102.79 200.331 108.363 200.027 115.342H228.462C228.159 108.363 221.911 102.79 214.245 102.79Z" fill="#3F3D56"/>
<path d="M208.276 103.993C207.877 72.4886 189.935 75.3869 189.935 75.3869C189.935 75.3869 190.27 85.1931 190.431 85.4981C201.865 107.131 182.995 132.492 158.976 127.826C158.523 127.738 158.088 127.649 157.671 127.558C154.627 126.923 151.94 125.152 150.156 122.606C148.372 120.06 147.625 116.93 148.066 113.852C150.432 94.8517 138.664 95.1879 138.664 95.1879H121.456L112.52 87.1452C112.204 86.8613 111.824 86.659 111.412 86.556C111.001 86.453 110.57 86.4525 110.158 86.5544C109.746 86.6563 109.365 86.8575 109.049 87.1406C108.733 87.4236 108.491 87.7798 108.344 88.178L107.194 91.2985C107.194 91.2985 90.2221 93.0664 91.6365 109.685H96.8837C96.871 110.157 96.8899 110.63 96.9403 111.1L136.101 110.781C138.396 110.762 140.422 112.623 140.432 114.918C140.434 115.477 140.324 116.03 140.107 116.546C139.891 117.061 139.573 117.527 139.172 117.917C138.771 118.306 138.295 118.61 137.774 118.812C137.253 119.013 136.696 119.108 136.138 119.089L129.824 118.879C127.879 127.541 132.653 133.376 137.913 137.044C142.865 140.448 148.741 142.253 154.75 142.215H171.901C194.178 142.215 198.067 123.475 198.067 123.475C209.736 118.525 208.276 103.993 208.276 103.993Z" fill="#3F3D56"/>
<path d="M213.184 152.47C224.169 152.47 233.074 143.565 233.074 132.58C233.074 121.596 224.169 112.691 213.184 112.691C202.2 112.691 193.295 121.596 193.295 132.58C193.295 143.565 202.2 152.47 213.184 152.47Z" fill="#3F3D56"/>
<path d="M213.183 137.455C215.876 137.455 218.058 135.272 218.058 132.58C218.058 129.888 215.876 127.705 213.183 127.705C210.491 127.705 208.309 129.888 208.309 132.58C208.309 135.272 210.491 137.455 213.183 137.455Z" fill="white"/>
<path d="M112.764 152.47C125.409 152.47 135.659 142.219 135.659 129.575C135.659 116.93 125.409 106.68 112.764 106.68C100.12 106.68 89.8691 116.93 89.8691 129.575C89.8691 142.219 100.12 152.47 112.764 152.47Z" fill="#3F3D56"/>
<path d="M112.764 135.186C115.863 135.186 118.375 132.674 118.375 129.574C118.375 126.475 115.863 123.963 112.764 123.963C109.665 123.963 107.152 126.475 107.152 129.574C107.152 132.674 109.665 135.186 112.764 135.186Z" fill="white"/>
<path d="M179.714 82.9649L175.516 71.5618C175.297 70.9675 175.197 70.3359 175.223 69.7031C175.248 69.0703 175.398 68.4487 175.663 67.8737C175.929 67.2988 176.305 66.7818 176.77 66.3522C177.235 65.9227 177.781 65.5889 178.375 65.3702L190.411 60.9392C191.457 60.5542 192.568 60.3788 193.682 60.4232C194.795 60.4677 195.889 60.731 196.901 61.1981C197.912 61.6652 198.822 62.327 199.578 63.1458C200.334 63.9645 200.921 64.9241 201.306 65.9698C201.653 66.9083 201.831 67.9012 201.83 68.9019C201.825 70.1726 201.538 71.4263 200.988 72.5718C200.438 73.7174 199.64 74.7261 198.652 75.5247C197.938 76.0974 197.135 76.55 196.276 76.8644L179.714 82.9649Z" fill="#3F3D56"/>
<path d="M201.653 68.902C201.652 70.1468 201.372 71.3755 200.834 72.4977C200.295 73.62 199.512 74.6072 198.542 75.3868C197.053 74.9941 195.668 74.2819 194.482 73.2997C193.296 72.3174 192.338 71.0888 191.676 69.699C191.013 68.3093 190.66 66.7919 190.643 65.2523C190.626 63.7126 190.944 62.1877 191.576 60.7836C192.789 60.5198 194.045 60.5311 195.253 60.8164C196.461 61.1018 197.59 61.6541 198.556 62.4328C199.523 63.2114 200.303 64.1966 200.839 65.3161C201.375 66.4356 201.653 67.6608 201.653 68.902Z" fill="#6C63FF"/>
<path d="M94.6417 111.983C97.3756 111.983 99.5919 109.292 99.5919 105.972C99.5919 102.653 97.3756 99.9614 94.6417 99.9614C91.9077 99.9614 89.6914 102.653 89.6914 105.972C89.6914 109.292 91.9077 111.983 94.6417 111.983Z" fill="#6C63FF"/>
<path d="M160.079 127.25H164.414L166.476 116.007L160.078 116.007L160.079 127.25Z" fill="#FFB8B8"/>
<path d="M158.973 125.835L167.51 125.834H167.51C168.224 125.834 168.932 125.975 169.592 126.249C170.252 126.522 170.852 126.923 171.357 127.428C171.862 127.933 172.263 128.533 172.536 129.193C172.81 129.853 172.951 130.56 172.951 131.275V131.452L158.973 131.452L158.973 125.835Z" fill="#2F2E41"/>
<path d="M165.11 122.636C165.059 122.636 165.008 122.633 164.958 122.628L158.958 122.192C158.716 122.169 158.482 122.091 158.274 121.964C158.066 121.837 157.89 121.663 157.76 121.457C157.63 121.251 157.549 121.018 157.523 120.776C157.497 120.534 157.528 120.289 157.611 120.06L165.64 102.021C165.698 101.861 165.721 101.69 165.709 101.519C165.697 101.349 165.65 101.183 165.571 101.032C165.492 100.879 165.381 100.744 165.247 100.637C165.112 100.53 164.956 100.452 164.789 100.41C161.014 99.4227 151.327 96.795 142.942 93.7204C139.349 92.4031 137.087 90.4994 136.217 88.0623C135.07 84.8492 136.767 81.919 136.84 81.796L136.896 81.6997L144.787 82.4169L153.34 83.1445L172.086 93.1962C173.656 94.0456 174.849 95.4555 175.427 97.1451C176.005 98.8346 175.925 100.68 175.204 102.313L166.562 121.693C166.437 121.973 166.233 122.212 165.975 122.379C165.718 122.546 165.417 122.636 165.11 122.636Z" fill="#2F2E41"/>
<path d="M146.159 46.7294C150.955 46.7294 154.844 42.8412 154.844 38.0449C154.844 33.2486 150.955 29.3604 146.159 29.3604C141.363 29.3604 137.475 33.2486 137.475 38.0449C137.475 42.8412 141.363 46.7294 146.159 46.7294Z" fill="#FFB8B8"/>
<path d="M157.602 128.311H161.937L164 117.068L157.602 117.068L157.602 128.311Z" fill="#FFB8B8"/>
<path d="M156.498 126.896L165.035 126.896H165.035C165.75 126.895 166.457 127.036 167.117 127.31C167.777 127.583 168.377 127.984 168.882 128.489C169.388 128.994 169.788 129.594 170.062 130.254C170.335 130.914 170.476 131.621 170.476 132.336V132.513L156.498 132.513L156.498 126.896Z" fill="#2F2E41"/>
<path d="M162.635 123.696C162.585 123.696 162.534 123.694 162.483 123.689L156.484 123.252C156.241 123.23 156.007 123.152 155.799 123.024C155.591 122.897 155.416 122.724 155.286 122.518C155.155 122.312 155.074 122.079 155.049 121.836C155.023 121.594 155.053 121.349 155.137 121.12L163.166 103.082C163.223 102.921 163.246 102.75 163.235 102.58C163.223 102.41 163.175 102.244 163.096 102.092C163.017 101.939 162.907 101.805 162.772 101.698C162.637 101.59 162.481 101.513 162.314 101.47C158.539 100.483 148.852 97.8555 140.467 94.7809C136.875 93.4636 134.612 91.56 133.742 89.1228C132.596 85.9098 134.292 82.9795 134.365 82.8566L134.422 82.7603L142.312 83.4774L150.866 84.205L169.611 94.2568C171.182 95.1062 172.375 96.5161 172.953 98.2056C173.53 99.8952 173.451 101.74 172.729 103.374L164.087 122.753C163.962 123.034 163.758 123.272 163.501 123.44C163.243 123.607 162.942 123.696 162.635 123.696Z" fill="#2F2E41"/>
<path d="M148.838 51.6535L139.645 48.4712C139.645 48.4712 133.873 52.9052 136.646 63.9049C138.093 69.5812 137.672 75.5728 135.444 80.9905C135.175 81.6608 134.866 82.3139 134.518 82.9462C134.518 82.9462 144.772 95.3219 154.319 86.1286L150.606 68.2722C150.606 68.2722 156.44 56.427 148.838 51.6535Z" fill="#6C63FF"/>
<path d="M147.238 47.0246C146.002 45.1745 145.027 42.6091 146.387 40.8488C147.731 39.1112 150.38 39.3672 152.438 38.5983C155.303 37.5274 156.965 34.161 156.447 31.1462C155.928 28.1313 153.508 25.6321 150.625 24.6095C147.742 23.587 144.491 23.9195 141.668 25.0971C138.192 26.5467 135.211 29.3509 133.96 32.9031C132.71 36.4552 133.379 40.7203 135.972 43.4505C138.753 46.3777 143.117 47.1578 147.154 47.1104" fill="#2F2E41"/>
<path d="M139.158 31.2428C137.601 32.5107 135.224 31.9475 133.553 30.8348C131.881 29.722 130.524 28.1375 128.715 27.265C125.526 25.7269 121.67 26.7494 118.566 28.4532C115.463 30.1569 112.711 32.5106 109.433 33.8476C106.154 35.1846 101.971 35.2506 99.4881 32.7261C98.8772 34.4961 98.8273 36.4115 99.3451 38.211C99.863 40.0104 100.923 41.6063 102.382 42.7808C103.84 43.9553 105.625 44.6513 107.494 44.7738C109.362 44.8962 111.223 44.4393 112.822 43.4652C116.414 41.277 118.399 36.6891 122.428 35.4814C124.657 34.813 127.051 35.3513 129.305 35.9343C131.558 36.5173 133.908 37.1473 136.182 36.651C138.456 36.1546 140.583 34.1111 140.294 31.8016L139.158 31.2428Z" fill="#2F2E41"/>
<path d="M188.354 68.3017C188.125 67.7956 187.789 67.3457 187.368 66.9838C186.946 66.6219 186.451 66.3568 185.916 66.207C185.381 66.0573 184.82 66.0266 184.272 66.1172C183.725 66.2078 183.203 66.4174 182.745 66.7312L148.988 59.1548L148.568 67.4047L181.882 72.258C182.461 72.9926 183.288 73.4896 184.209 73.6548C185.129 73.82 186.078 73.6419 186.875 73.1543C187.673 72.6666 188.264 71.9033 188.537 71.0089C188.809 70.1146 188.744 69.1513 188.354 68.3017Z" fill="#FFB8B8"/>
<path d="M154.906 59.9125L152.846 68.2641C152.787 68.5018 152.678 68.724 152.526 68.9156C152.374 69.1073 152.182 69.2638 151.964 69.3747C151.746 69.4855 151.506 69.548 151.261 69.558C151.017 69.5679 150.773 69.525 150.547 69.4322L142.611 66.18C141.396 65.8738 140.353 65.0983 139.709 64.0234C139.065 62.9486 138.875 61.6624 139.178 60.447C139.482 59.2316 140.255 58.1862 141.329 57.5404C142.402 56.8945 143.688 56.7009 144.904 57.0019L153.414 57.809C153.658 57.8322 153.893 57.9076 154.105 58.0301C154.317 58.1526 154.5 58.3194 154.642 58.519C154.783 58.7186 154.88 58.9464 154.926 59.1869C154.972 59.4274 154.965 59.6748 154.906 59.9125Z" fill="#6C63FF"/>
<path d="M184.454 74.8565C185.821 74.8565 186.929 73.7484 186.929 72.3814C186.929 71.0144 185.821 69.9062 184.454 69.9062C183.087 69.9062 181.979 71.0144 181.979 72.3814C181.979 73.7484 183.087 74.8565 184.454 74.8565Z" fill="#6C63FF"/>
</g>
<defs>
<clipPath id="clip0_1162_49399">
<rect width="293.126" height="129" fill="white" transform="translate(0.9375 24)"/>
</clipPath>
</defs>
</svg>
