<svg width="207" height="190" viewBox="0 0 207 190" fill="none" xmlns="http://www.w3.org/2000/svg">
<g clip-path="url(#clip0_1162_34631)">
<path d="M108.705 112.715H6.82644C5.19989 112.713 3.64049 112.067 2.49034 110.916C1.3402 109.766 0.693244 108.207 0.691406 106.58V33.3317C0.693243 31.7052 1.3402 30.1458 2.49034 28.9957C3.64049 27.8455 5.19989 27.1986 6.82644 27.1967H108.705C110.332 27.1986 111.891 27.8455 113.041 28.9957C114.191 30.1458 114.838 31.7052 114.84 33.3317V106.58C114.838 108.207 114.191 109.766 113.041 110.916C111.891 112.067 110.332 112.713 108.705 112.715Z" fill="#E6E6E6"/>
<path d="M8.70991 107.825H106.822C107.611 107.825 108.368 107.511 108.926 106.954C109.483 106.396 109.797 105.639 109.797 104.85V35.0618C109.797 34.2729 109.483 33.5163 108.926 32.9585C108.368 32.4006 107.611 32.0872 106.822 32.0872H8.70991C7.92101 32.0872 7.16442 32.4006 6.60658 32.9585C6.04874 33.5163 5.73535 34.2729 5.73535 35.0618V104.85C5.73535 105.639 6.04874 106.396 6.60658 106.954C7.16442 107.511 7.92101 107.825 8.70991 107.825Z" fill="white"/>
<path d="M15.9623 67.8292C15.374 67.8292 14.8098 68.0629 14.3938 68.4789C13.9778 68.8949 13.7441 69.4591 13.7441 70.0474C13.7441 70.6357 13.9778 71.1999 14.3938 71.6158C14.8098 72.0318 15.374 72.2655 15.9623 72.2655H99.5691C100.157 72.2655 100.722 72.0318 101.138 71.6158C101.554 71.1999 101.787 70.6357 101.787 70.0474C101.787 69.4591 101.554 68.8949 101.138 68.4789C100.722 68.0629 100.157 67.8292 99.5691 67.8292H15.9623Z" fill="#E6E6E6"/>
<path d="M15.9623 81.4794C15.374 81.4794 14.8098 81.7131 14.3938 82.129C13.9778 82.545 13.7441 83.1092 13.7441 83.6975C13.7441 84.2858 13.9778 84.85 14.3938 85.266C14.8098 85.682 15.374 85.9157 15.9623 85.9157H99.5691C100.157 85.9157 100.722 85.682 101.138 85.266C101.554 84.85 101.787 84.2858 101.787 83.6975C101.787 83.1092 101.554 82.545 101.138 82.129C100.722 81.7131 100.157 81.4794 99.5691 81.4794H15.9623Z" fill="#E6E6E6"/>
<path d="M53.3295 95.812C52.7412 95.812 52.177 96.0457 51.761 96.4617C51.345 96.8777 51.1113 97.4419 51.1113 98.0302C51.1113 98.6184 51.345 99.1826 51.761 99.5986C52.177 100.015 52.7412 100.248 53.3295 100.248H62.202C62.7903 100.248 63.3545 100.015 63.7705 99.5986C64.1865 99.1826 64.4202 98.6184 64.4202 98.0302C64.4202 97.4419 64.1865 96.8777 63.7705 96.4617C63.3545 96.0457 62.7903 95.812 62.202 95.812H53.3295Z" fill="#6C63FF"/>
<path d="M45.8768 39.6638C45.6959 39.6639 45.5224 39.7359 45.3944 39.8639C45.2665 39.9918 45.1945 40.1653 45.1943 40.3463V57.6717C45.1945 57.8526 45.2665 58.0261 45.3944 58.1541C45.5224 58.282 45.6959 58.354 45.8768 58.3542H69.6552C69.8362 58.354 70.0096 58.282 70.1376 58.1541C70.2656 58.0261 70.3375 57.8526 70.3377 57.6717V40.3463C70.3375 40.1653 70.2656 39.9918 70.1376 39.8639C70.0096 39.7359 69.8362 39.6639 69.6552 39.6638L45.8768 39.6638Z" fill="#6C63FF"/>
<path d="M57.7655 50.8466C59.8387 50.8466 61.5193 49.166 61.5193 47.0928C61.5193 45.0197 59.8387 43.3391 57.7655 43.3391C55.6923 43.3391 54.0117 45.0197 54.0117 47.0928C54.0117 49.166 55.6923 50.8466 57.7655 50.8466Z" fill="white"/>
<path d="M63.9082 56.6479C63.9095 57.2412 63.7691 57.8262 63.4987 58.3542H52.0326C51.7404 57.7819 51.6 57.1442 51.6249 56.5021C51.6498 55.86 51.8391 55.235 52.1747 54.6871C52.5103 54.1391 52.981 53.6865 53.5417 53.3726C54.1024 53.0587 54.7342 52.8939 55.3768 52.8942H60.1544C61.1494 52.8936 62.1038 53.2883 62.8078 53.9915C63.5118 54.6947 63.9076 55.6487 63.9082 56.6437V56.6479Z" fill="white"/>
<path d="M57.7655 50.8466C59.8387 50.8466 61.5193 49.166 61.5193 47.0928C61.5193 45.0197 59.8387 43.3391 57.7655 43.3391C55.6923 43.3391 54.0117 45.0197 54.0117 47.0928C54.0117 49.166 55.6923 50.8466 57.7655 50.8466Z" fill="white"/>
<path d="M63.9082 56.6479C63.9095 57.2412 63.7691 57.8262 63.4987 58.3542H52.0326C51.7404 57.7819 51.6 57.1442 51.6249 56.5021C51.6498 55.86 51.8391 55.235 52.1747 54.6871C52.5103 54.1391 52.981 53.6865 53.5417 53.3726C54.1024 53.0587 54.7342 52.8939 55.3768 52.8942H60.1544C61.1494 52.8936 62.1038 53.2883 62.8078 53.9915C63.5118 54.6947 63.9076 55.6487 63.9082 56.6437V56.6479Z" fill="white"/>
<path d="M57.7661 17.7451C62.6663 17.7451 66.6387 13.7727 66.6387 8.87257C66.6387 3.97238 62.6663 0 57.7661 0C52.8659 0 48.8936 3.97238 48.8936 8.87257C48.8936 13.7727 52.8659 17.7451 57.7661 17.7451Z" fill="#E6E6E6"/>
<path d="M57.7654 13.3088C60.2155 13.3088 62.2017 11.3226 62.2017 8.87256C62.2017 6.42247 60.2155 4.43628 57.7654 4.43628C55.3153 4.43628 53.3291 6.42247 53.3291 8.87256C53.3291 11.3226 55.3153 13.3088 57.7654 13.3088Z" fill="#6C63FF"/>
<path d="M155.893 184.911L151.643 184.911L149.621 168.515L155.895 168.516L155.893 184.911Z" fill="#FFB8B8"/>
<path d="M148.606 183.696H156.804V188.858H143.444C143.444 188.18 143.578 187.509 143.837 186.882C144.097 186.256 144.477 185.687 144.956 185.208C145.435 184.729 146.004 184.348 146.631 184.089C147.257 183.83 147.928 183.696 148.606 183.696Z" fill="#2F2E41"/>
<path d="M178.805 184.911L174.554 184.911L172.533 168.515L178.807 168.516L178.805 184.911Z" fill="#FFB8B8"/>
<path d="M171.518 183.696H179.716V188.858H166.356C166.356 188.18 166.49 187.509 166.749 186.882C167.009 186.256 167.389 185.687 167.868 185.208C168.348 184.729 168.917 184.348 169.543 184.089C170.169 183.83 170.84 183.696 171.518 183.696Z" fill="#2F2E41"/>
<path d="M166.357 68.3548C171.401 68.3548 175.489 64.2661 175.489 59.2225C175.489 54.1789 171.401 50.0902 166.357 50.0902C161.313 50.0902 157.225 54.1789 157.225 59.2225C157.225 64.2661 161.313 68.3548 166.357 68.3548Z" fill="#FFB8B8"/>
<path d="M135.13 118.78C135.194 118.274 135.368 117.789 135.639 117.357C135.911 116.926 136.274 116.56 136.703 116.284C137.132 116.008 137.615 115.83 138.121 115.761C138.626 115.693 139.14 115.736 139.626 115.887L144.73 109.769L149.204 111.964L141.876 120.503C141.567 121.303 140.975 121.963 140.212 122.356C139.45 122.75 138.569 122.85 137.738 122.637C136.906 122.425 136.181 121.915 135.701 121.204C135.22 120.493 135.017 119.631 135.13 118.78Z" fill="#FFB8B8"/>
<path d="M179.055 124.968C178.838 124.507 178.724 124.004 178.722 123.494C178.72 122.984 178.829 122.48 179.043 122.018C179.257 121.555 179.57 121.145 179.959 120.816C180.349 120.487 180.805 120.248 181.297 120.114L182.322 112.213L187.276 111.665L185.672 122.803C185.841 123.644 185.695 124.518 185.263 125.259C184.83 126 184.141 126.557 183.325 126.824C182.509 127.091 181.624 127.049 180.837 126.707C180.05 126.365 179.416 125.746 179.055 124.968Z" fill="#FFB8B8"/>
<path d="M173.988 76.4715C174.474 75.8479 175.115 75.3635 175.848 75.0672C176.581 74.7708 177.379 74.6729 178.161 74.7834C178.944 74.8939 179.683 75.2089 180.305 75.6966C180.927 76.1843 181.41 76.8274 181.704 77.561L189.189 96.2414C189.954 98.1503 190.198 100.228 189.896 102.263L187.457 118.681C187.426 118.893 187.349 119.096 187.232 119.275C187.115 119.455 186.961 119.607 186.78 119.721C186.599 119.835 186.395 119.909 186.183 119.937C185.97 119.966 185.754 119.948 185.55 119.885L182.337 118.898C182.005 118.796 181.719 118.581 181.528 118.289C181.338 117.998 181.256 117.649 181.297 117.303C182.431 107.637 180.932 97.844 176.96 88.959L173.431 81.066C173.099 80.3217 172.975 79.5009 173.073 78.6915C173.171 77.8821 173.487 77.1147 173.988 76.4715Z" fill="#6C63FF"/>
<path d="M168.58 68.3545C169.954 68.3841 171.319 68.1227 172.585 67.5872C173.852 67.0517 174.99 66.2543 175.926 65.2474C176.862 64.2405 177.575 63.047 178.017 61.7452C178.458 60.4434 178.62 59.0628 178.49 57.6942C178.36 56.3255 177.943 54.9998 177.264 53.8042C176.586 52.6085 175.662 51.57 174.553 50.7568C173.445 49.9437 172.177 49.3743 170.833 49.0861C169.488 48.7979 168.098 48.7975 166.754 49.0848C164.746 47.8654 162.411 47.0449 160.071 47.2536C157.73 47.4622 155.416 48.8516 154.541 51.032C153.666 53.2124 154.606 56.0866 156.782 56.9727C158.177 57.5408 159.752 57.2653 161.241 57.0362C162.73 56.8071 164.354 56.6576 165.649 57.4258C166.945 58.1939 167.527 60.2536 166.367 61.214C165.752 61.7433 165.313 62.4474 165.108 63.2326C164.903 64.0177 164.942 64.8467 165.22 65.609C165.803 67.1172 167.395 68.3289 168.58 68.3545Z" fill="#2F2E41"/>
<path d="M179.911 118.419L181.531 179.896C181.536 180.1 181.499 180.304 181.422 180.494C181.345 180.684 181.229 180.856 181.083 180.999C180.936 181.142 180.761 181.254 180.569 181.326C180.378 181.399 180.173 181.431 179.968 181.42L174.632 181.148C174.291 181.13 173.967 180.997 173.713 180.769C173.46 180.541 173.292 180.233 173.239 179.896L166.891 139.967C166.864 139.796 166.778 139.64 166.648 139.525C166.519 139.411 166.353 139.345 166.18 139.34C166.007 139.335 165.838 139.39 165.701 139.496C165.564 139.602 165.469 139.752 165.431 139.921L156.839 178.366C156.793 178.571 156.704 178.765 156.578 178.933C156.452 179.102 156.291 179.242 156.107 179.343C155.923 179.445 155.719 179.507 155.509 179.524C155.299 179.541 155.088 179.514 154.89 179.443L149.594 179.119C149.287 179.011 149.025 178.804 148.847 178.532C148.669 178.26 148.585 177.937 148.608 177.612L153.231 117.837L179.911 118.419Z" fill="#2F2E41"/>
<path d="M182.51 89.2196C183.404 79.9035 176.554 71.4771 167.219 70.8143C163.196 70.5286 156.952 70.4266 154.893 75.6987C148.692 91.5805 159.548 91.1946 155.808 104.955C152.067 118.715 148.764 119.503 153.896 120.497C159.028 121.49 182.105 127.356 181.157 117.671C180.575 111.718 181.619 98.5124 182.51 89.2196Z" fill="#6C63FF"/>
<path d="M155.991 74.0832C156.728 73.7979 157.527 73.7121 158.308 73.8344C159.089 73.9567 159.824 74.2828 160.438 74.7798C161.053 75.2768 161.525 75.9271 161.808 76.6651C162.091 77.4031 162.174 78.2027 162.049 78.9831L159.135 97.1989C158.636 100.314 157.319 103.24 155.318 105.679L145.851 117.214C145.716 117.38 145.546 117.514 145.353 117.608C145.16 117.702 144.95 117.753 144.736 117.758C144.522 117.763 144.309 117.721 144.112 117.636C143.916 117.552 143.74 117.425 143.596 117.266L141.348 114.769C141.115 114.51 140.98 114.178 140.967 113.831C140.954 113.483 141.063 113.142 141.275 112.866L141.937 112.007C147.444 104.86 150.919 96.3581 151.993 87.3999L153.152 77.7382C153.249 76.9287 153.564 76.1609 154.064 75.5171C154.565 74.8732 155.231 74.3775 155.991 74.0832Z" fill="#6C63FF"/>
<path d="M205.936 189.739H110.007C109.908 189.739 109.813 189.7 109.744 189.63C109.674 189.561 109.635 189.466 109.635 189.367C109.635 189.269 109.674 189.174 109.744 189.105C109.813 189.035 109.908 188.996 110.007 188.996H205.936C206.035 188.996 206.129 189.035 206.199 189.105C206.269 189.174 206.308 189.269 206.308 189.367C206.308 189.466 206.269 189.561 206.199 189.63C206.129 189.7 206.035 189.739 205.936 189.739Z" fill="#CCCCCC"/>
</g>
<defs>
<clipPath id="clip0_1162_34631">
<rect width="205.616" height="190" fill="white" transform="translate(0.691406)"/>
</clipPath>
</defs>
</svg>
