<svg width="139" height="120" viewBox="0 0 139 120" fill="none" xmlns="http://www.w3.org/2000/svg">
<g clip-path="url(#clip0_1162_33092)">
<path d="M130.752 108.313L130.964 103.54C133.177 102.357 135.645 101.732 138.155 101.72C134.701 104.543 135.133 109.986 132.791 113.783C132.052 114.961 131.057 115.959 129.88 116.7C128.703 117.442 127.374 117.909 125.992 118.068L123.102 119.837C122.705 117.627 122.792 115.356 123.358 113.182C123.923 111.009 124.953 108.983 126.377 107.246C127.185 106.279 128.112 105.418 129.135 104.683C129.827 106.508 130.752 108.313 130.752 108.313Z" fill="#F2F2F2"/>
<path d="M113.592 119.548C119.988 119.548 125.173 114.362 125.173 107.966C125.173 101.569 119.988 96.384 113.592 96.384C107.195 96.384 102.01 101.569 102.01 107.966C102.01 114.362 107.195 119.548 113.592 119.548Z" fill="#6C63FF"/>
<path d="M108.865 103.436C108.706 104.29 108.445 105.122 108.088 105.914C106.045 110.236 111.864 108.827 113.943 108.827C116.216 108.827 118.391 110.022 118.059 104.711C117.917 102.442 116.216 100.594 113.943 100.594C112.001 100.594 109.271 101.458 108.865 103.436Z" fill="#2F2E41"/>
<path d="M113.602 108.826C115.449 108.826 116.947 107.328 116.947 105.481C116.947 103.634 115.449 102.136 113.602 102.136C111.754 102.136 110.257 103.634 110.257 105.481C110.257 107.328 111.754 108.826 113.602 108.826Z" fill="#FFB6B6"/>
<path d="M111.33 102.071C111.917 101.714 112.588 101.521 113.274 101.512C113.961 101.503 114.637 101.678 115.232 102.02C115.828 102.362 116.32 102.857 116.659 103.454C116.997 104.052 117.169 104.729 117.156 105.415C115.451 105.843 113.661 106.171 111.843 105.518L111.414 104.467L111.161 105.518C110.607 105.745 110.052 105.936 109.497 105.516C109.475 104.832 109.632 104.153 109.954 103.549C110.275 102.944 110.75 102.435 111.33 102.071Z" fill="#2F2E41"/>
<path d="M122.596 115.667C120.59 117.95 117.766 119.353 114.734 119.572C111.703 119.791 108.707 118.809 106.393 116.838L107.386 114.066C107.61 113.574 107.965 113.152 108.411 112.846C108.857 112.539 109.378 112.36 109.918 112.328L110.55 112.289L112.057 110.989C112.057 110.989 116.117 110.844 116.057 110.775L118.516 112.254L118.514 112.244L119.481 112.303C120.021 112.336 120.543 112.515 120.989 112.821C121.435 113.127 121.789 113.549 122.013 114.042L122.596 115.667Z" fill="#3F3D56"/>
<path d="M24.0093 26.3296C24.0052 28.6202 23.322 30.8582 22.046 32.7606C20.77 34.6629 18.9585 36.1442 16.8407 37.017C14.7228 37.8899 12.3937 38.1151 10.1479 37.6643C7.90201 37.2134 5.8403 36.1067 4.22343 34.4841C2.60656 32.8614 1.50716 30.7958 1.06426 28.5484C0.62136 26.3009 0.854844 23.9726 1.73519 21.8579C2.61554 19.7432 4.10321 17.937 6.01008 16.6677C7.91695 15.3985 10.1574 14.7232 12.448 14.7273C13.9701 14.726 15.4774 15.0255 16.8833 15.6087C18.2892 16.1918 19.566 17.047 20.6404 18.1252C21.7147 19.2034 22.5654 20.4832 23.1436 21.8912C23.7217 23.2992 24.0159 24.8075 24.0093 26.3296Z" fill="#F2F2F2"/>
<path d="M7.05907 22.5415C7.53797 21.0152 8.62701 19.6154 10.1331 19.0995C11.6393 18.5835 13.8448 19.3695 14.9771 20.498C17.0484 22.5622 17.5538 29.6537 16.1308 31.8946C15.8478 31.8797 14.8711 31.8686 14.5846 31.8579L14.1793 30.5072V31.8445C13.7229 31.8304 13.263 31.8207 12.7994 31.8153C11.2453 31.7961 9.75913 31.175 8.6534 30.0827C7.54768 28.9903 6.90853 27.5119 6.8703 25.9581C6.83323 24.4716 6.87034 23.1429 7.05907 22.5415Z" fill="#CCCCCC"/>
<path d="M12.2558 27.5998C14.0788 27.5998 15.5565 26.122 15.5565 24.2991C15.5565 22.4761 14.0788 20.9984 12.2558 20.9984C10.4329 20.9984 8.95508 22.4761 8.95508 24.2991C8.95508 26.122 10.4329 27.5998 12.2558 27.5998Z" fill="#CCCCCC"/>
<path d="M9.40723 21.4002L13.2077 19.4973C13.9847 19.8474 14.6539 20.399 15.1458 21.0949C15.6378 21.7908 15.9346 22.6056 16.0055 23.4549L16.1002 24.5896L14.5087 24.1845L14.3344 22.7336L14.0641 24.0713L13.3297 23.8844L13.3367 21.6319L12.6018 23.8828L9.97867 23.2802L9.40723 21.4002Z" fill="#CCCCCC"/>
<path d="M21.022 33.9734C19.0155 36.2565 16.1917 37.6589 13.1601 37.878C10.1285 38.0971 7.1323 37.1153 4.81836 35.1444L5.81175 32.3725C6.03625 31.8802 6.39052 31.4582 6.83657 31.1519C7.28262 30.8456 7.80363 30.6665 8.34374 30.6338L8.97571 30.595L10.4827 29.2953C10.4827 29.2953 14.543 29.1504 14.4828 29.0809L16.9423 30.5603L16.9402 30.5501L17.9071 30.6093C18.4472 30.6419 18.9683 30.8209 19.4144 31.1272C19.8605 31.4336 20.2147 31.8556 20.4391 32.348L21.022 33.9734Z" fill="#CCCCCC"/>
<path d="M12.5095 91.0823C18.906 91.0823 24.0913 85.8969 24.0913 79.5005C24.0913 73.104 18.906 67.9187 12.5095 67.9187C6.11308 67.9187 0.927734 73.104 0.927734 79.5005C0.927734 85.8969 6.11308 91.0823 12.5095 91.0823Z" fill="#F2F2F2"/>
<path d="M7.78277 74.9703C7.6238 75.8244 7.36315 76.6563 7.00637 77.4483C4.96333 81.7704 10.7815 80.3616 12.8608 80.3616C15.1341 80.3616 17.3092 81.557 16.977 76.2454C16.8351 73.9765 15.1341 72.1292 12.8608 72.1292C10.919 72.1292 8.1888 72.9922 7.78277 74.9703Z" fill="#CCCCCC"/>
<path d="M12.5207 80.3606C14.368 80.3606 15.8656 78.863 15.8656 77.0157C15.8656 75.1683 14.368 73.6708 12.5207 73.6708C10.6733 73.6708 9.17578 75.1683 9.17578 77.0157C9.17578 78.863 10.6733 80.3606 12.5207 80.3606Z" fill="#CCCCCC"/>
<path d="M10.2494 73.606C10.8355 73.2487 11.5069 73.0554 12.1933 73.0464C12.8797 73.0373 13.5559 73.2128 14.1512 73.5546C14.7466 73.8963 15.2392 74.3918 15.5775 74.9891C15.9159 75.5863 16.0875 76.2635 16.0746 76.9499C14.3702 77.3778 12.5796 77.7053 10.762 77.0522L10.3327 76.0017L10.0797 77.053C9.52613 77.2793 8.97116 77.4707 8.41621 77.0508C8.39355 76.3664 8.55093 75.6881 8.87262 75.0836C9.19431 74.479 9.66905 73.9696 10.2494 73.606Z" fill="#CCCCCC"/>
<path d="M21.5152 87.2018C19.5087 89.4849 16.6848 90.8873 13.6532 91.1064C10.6216 91.3255 7.62547 90.3437 5.31152 88.3728L6.30492 85.6009C6.52941 85.1086 6.88368 84.6866 7.32973 84.3803C7.77578 84.074 8.2968 83.8949 8.8369 83.8622L9.46887 83.8234L10.9758 82.5237C10.9758 82.5237 15.0362 82.3787 14.9759 82.3093L17.4354 83.7887L17.4334 83.7785L18.4002 83.8377C18.9404 83.8703 19.4615 84.0493 19.9075 84.3557C20.3536 84.662 20.7079 85.084 20.9322 85.5764L21.5152 87.2018Z" fill="#CCCCCC"/>
<path d="M62.3378 80.4972C72.6942 80.4972 81.0897 72.1017 81.0897 61.7453C81.0897 51.3889 72.6942 42.9934 62.3378 42.9934C51.9814 42.9934 43.5859 51.3889 43.5859 61.7453C43.5859 72.1017 51.9814 80.4972 62.3378 80.4972Z" fill="#F2F2F2"/>
<path d="M63.102 63.6581C66.479 63.6581 69.2166 60.9205 69.2166 57.5435C69.2166 54.1665 66.479 51.4288 63.102 51.4288C59.7249 51.4288 56.9873 54.1665 56.9873 57.5435C56.9873 60.9205 59.7249 63.6581 63.102 63.6581Z" fill="#CCCCCC"/>
<path d="M68.486 53.504C68.486 53.504 70.078 50.4605 66.5755 50.1838C66.5755 50.1838 63.5895 47.4752 60.546 49.6886C60.546 49.6886 58.8859 49.6886 57.9781 51.5672C57.9781 51.5672 56.6725 51.072 56.3856 52.3973C56.3856 52.3973 55.4302 55.1641 56.3856 57.6542C57.3409 60.1444 57.6583 60.4211 57.6583 60.4211C57.6583 60.4211 56.988 57.3309 60.8092 57.0543C64.6305 56.7776 68.1362 54.3837 68.4546 57.4272C68.7731 60.4707 69.1232 59.0958 69.1232 59.0958C69.1232 59.0958 72.1479 54.7491 68.486 53.504Z" fill="#CCCCCC"/>
<path d="M76.3367 74.2141C73.088 77.9107 68.5159 80.1814 63.6075 80.5361C58.6991 80.8908 53.848 79.3011 50.1016 76.1101L51.7099 71.6222C52.0734 70.8251 52.647 70.1419 53.3692 69.646C54.0914 69.1501 54.935 68.8601 55.8094 68.8071L56.8327 68.7443L59.2725 66.64C59.2725 66.64 65.8466 66.4053 65.7491 66.2928L69.7312 68.6881L69.7279 68.6715L71.2933 68.7674C72.1678 68.8202 73.0115 69.1101 73.7337 69.606C74.456 70.102 75.0295 70.7853 75.3928 71.5825L76.3367 74.2141Z" fill="#CCCCCC"/>
<path d="M31.4539 61.8072C37.8503 61.8072 43.0357 56.6219 43.0357 50.2254C43.0357 43.829 37.8503 38.6436 31.4539 38.6436C25.0574 38.6436 19.8721 43.829 19.8721 50.2254C19.8721 56.6219 25.0574 61.8072 31.4539 61.8072Z" fill="#F2F2F2"/>
<path d="M31.1336 51.6601C33.1754 51.6601 34.8306 50.0049 34.8306 47.9631C34.8306 45.9213 33.1754 44.2661 31.1336 44.2661C29.0917 44.2661 27.4365 45.9213 27.4365 47.9631C27.4365 50.0049 29.0917 51.6601 31.1336 51.6601Z" fill="#CCCCCC"/>
<path d="M40.1422 57.9745C38.1356 60.2576 35.3118 61.6601 32.2802 61.8792C29.2486 62.0982 26.2524 61.1164 23.9385 59.1455L24.9319 56.3736C25.1564 55.8813 25.5106 55.4593 25.9567 55.153C26.4027 54.8467 26.9237 54.6676 27.4639 54.6349L28.0958 54.5961L29.6028 53.2964C29.6028 53.2964 33.6631 53.1515 33.6029 53.082L36.0624 54.5614L36.0604 54.5512L37.0272 54.6104C37.5673 54.643 38.0884 54.822 38.5345 55.1284C38.9806 55.4347 39.3348 55.8567 39.5592 56.3491L40.1422 57.9745Z" fill="#CCCCCC"/>
<path d="M35.0327 45.6703C34.7202 44.5521 34.0104 43.5864 33.0365 42.9544C32.2603 42.4579 31.2918 42.2045 30.4125 42.467C29.5331 42.7296 28.8051 43.5925 28.8627 44.5249C28.6998 44.4821 28.5282 44.4857 28.3672 44.5354C28.2063 44.5851 28.0625 44.6789 27.9521 44.8061C27.7315 45.0665 27.5781 45.3771 27.5053 45.7106C27.2232 46.756 27.2419 47.8598 27.5593 48.895L27.5418 49.0436C27.9708 48.9726 28.2962 48.6045 28.4986 48.2123C28.7009 47.8202 28.8173 47.3851 29.0367 47.0025C29.256 46.6199 29.6202 46.2787 30.0546 46.2667L30.0163 46.9308L31.1377 46.3531C31.0487 46.5658 30.9598 46.7784 30.8709 46.9911C31.1974 46.8547 31.5238 46.7182 31.8502 46.5818C31.8137 46.7863 31.7772 46.9908 31.7408 47.1953C31.8263 47.0178 31.9471 46.8595 32.0956 46.73C32.2441 46.6004 32.4174 46.5024 32.6049 46.4418C32.7925 46.3811 32.9903 46.3592 33.1866 46.3772C33.3828 46.3953 33.5734 46.4529 33.7467 46.5468C34.1371 46.8094 34.4185 47.2052 34.5382 47.6602C34.6568 48.1142 34.7204 48.5808 34.7278 49.0499C35.2322 47.9966 35.3404 46.7968 35.0327 45.6703Z" fill="#CCCCCC"/>
<path d="M56.0314 59.5537V59.5606C56.0209 59.5352 56.014 59.5086 56.0107 59.4813L56.0314 59.5537Z" fill="#F2F2F2"/>
<path d="M56.0315 59.5605C56.0487 59.6329 56.0694 59.7052 56.09 59.7741C56.0618 59.7818 56.033 59.7876 56.0039 59.7914L56.0315 59.5605Z" fill="#F2F2F2"/>
<path d="M81.0898 61.7067C81.0892 66.552 79.2128 71.209 75.854 74.7014C72.4952 78.1937 67.9149 80.2502 63.0732 80.4398V42.9735C67.9152 43.1621 72.4961 45.2183 75.8551 48.7109C79.214 52.2034 81.0901 56.861 81.0898 61.7067Z" fill="#6C63FF"/>
<path d="M56.0107 59.4813L56.0314 59.5537V59.5606C56.0209 59.5352 56.014 59.5086 56.0107 59.4813Z" fill="#FFB6B6"/>
<path d="M67.8065 58.0448C67.8076 58.5397 67.7462 59.0328 67.6239 59.5123V59.5158C67.3486 60.5974 66.7767 61.5807 65.9727 62.3549C65.1687 63.129 64.1645 63.6633 63.0732 63.8976V52.1885C64.4128 52.4765 65.6133 53.2148 66.4745 54.2804C67.3358 55.346 67.8059 56.6746 67.8065 58.0448Z" fill="#A0616A"/>
<path d="M76.4049 74.2529C74.7311 76.1621 72.6856 77.7101 70.3934 78.8023C68.1012 79.8945 65.6105 80.508 63.0732 80.6052V66.526C64.5373 66.4571 65.8636 66.3848 65.8188 66.3331L69.8011 68.7273L69.7976 68.7101L71.3616 68.8065C72.2362 68.8585 73.0801 69.148 73.8025 69.6439C74.5248 70.1399 75.0982 70.8234 75.4609 71.621L76.3669 74.1461L76.4049 74.2529Z" fill="#3F3D56"/>
<path d="M56.0315 59.5605C56.0487 59.6329 56.0694 59.7052 56.09 59.7741C56.0618 59.7818 56.033 59.7876 56.0039 59.7914L56.0315 59.5605Z" fill="#2F2E41"/>
<path d="M67.6411 59.8017C67.6342 59.7052 67.6308 59.6122 67.6239 59.5158V59.5123C67.6039 58.8499 67.5068 58.1921 67.3345 57.5522C67.1106 56.8288 66.6903 56.1364 66.0531 55.7505C65.0988 55.1718 63.7588 55.4853 63.0732 56.3534V49.1295C63.722 49.299 64.3396 49.5712 64.9025 49.9356C66.4792 50.9581 67.6283 52.5213 68.1337 54.3313C68.6314 56.1548 68.4565 58.0964 67.6411 59.8017Z" fill="#2F2E41"/>
<path d="M62.8152 120C62.7557 120.003 62.6975 119.982 62.6532 119.942C62.609 119.902 62.5823 119.847 62.5791 119.787V0.212759C62.5852 0.154383 62.6127 0.100331 62.6563 0.0610384C62.6999 0.0217462 62.7565 0 62.8152 0C62.8739 0 62.9305 0.0217462 62.9741 0.0610384C63.0177 0.100331 63.0452 0.154383 63.0513 0.212759V119.787C63.048 119.847 63.0214 119.902 62.9771 119.942C62.9329 119.982 62.8747 120.003 62.8152 120Z" fill="#2F2E41"/>
<path d="M86.3399 55.8928L79.817 54.2927L71.1201 46.899L72.5683 44.6L80.4466 49.6188C80.4466 49.6188 85.6589 50.9422 87.4416 52.4681L86.3399 55.8928Z" fill="#FFB6B6"/>
<path d="M71.4221 47.0389C72.2998 47.0389 73.0113 46.3274 73.0113 45.4497C73.0113 44.5721 72.2998 43.8606 71.4221 43.8606C70.5445 43.8606 69.833 44.5721 69.833 45.4497C69.833 46.3274 70.5445 47.0389 71.4221 47.0389Z" fill="#FFB6B6"/>
<path d="M86.6459 51.6142L80.5968 49.1476L77.6895 52.6L79.8493 54.3795L85.7372 55.9097L85.7414 55.9251C86.1549 57.4493 88.814 58.4841 90.9719 59.0837C91.6836 59.2809 92.4436 59.2004 93.0982 58.8587C93.7529 58.5169 94.2534 57.9393 94.4985 57.2427C94.6759 56.7276 94.7056 56.1731 94.5843 55.642C94.4631 55.1109 94.1957 54.6243 93.8123 54.2372L91.8528 52.2723L86.6459 51.6142Z" fill="#E6E6E6"/>
<path d="M69.9198 113.607L67.7998 112.8L69.9024 104.24L73.0311 105.43L69.9198 113.607Z" fill="#FFB6B6"/>
<path d="M70.7236 113.121L70.1269 112.894L68.1577 111.06L66.5487 111.532C65.8431 111.264 65.0595 111.286 64.3707 111.596C63.682 111.905 63.1442 112.475 62.8757 113.18L62.8428 113.267L69.6783 115.868L70.7236 113.121Z" fill="#2F2E41"/>
<path d="M91.3502 117.161L89.0821 117.161L88.0029 108.412L91.3506 108.412L91.3502 117.161Z" fill="#FFB6B6"/>
<path d="M91.9291 116.421L91.2906 116.421L88.7981 115.407L87.4621 116.42C86.7071 116.42 85.9829 116.72 85.4491 117.254C84.9152 117.788 84.6153 118.512 84.6152 119.267V119.36L91.9289 119.36L91.9291 116.421Z" fill="#2F2E41"/>
<path d="M94.8088 79.4767C94.8088 79.4767 95.0736 82.6549 94.4115 85.7008C93.9964 87.6101 93.8415 91.6932 93.7837 94.4746C93.7493 96.1303 93.0047 96.3942 93.0047 96.3942L93.4986 100.202L92.2926 114.04L87.9225 113.643L86.7307 85.7008L78.876 91.9117L79.0939 92.6381C79.1998 92.9912 78.4183 92.946 78.1058 93.1415L77.3352 94.9294C77.3502 95.2249 77.2744 95.5179 77.1179 95.7691C76.9613 96.0202 76.7316 96.2173 76.4596 96.3339L72.3663 108.511L69.1748 106.596L70.2386 95.5319L71.728 90.4256L77.7256 83.0522L77.858 80.9334L78.4539 80.9579L78.7574 80.0726L79.3147 78.5497L94.8088 79.4767Z" fill="#2F2E41"/>
<path d="M95.0376 80.1442L95.0612 80.1111C96.3217 78.3464 94.4259 74.1057 94.14 73.491C94.4795 73.3808 94.7704 73.1563 94.963 72.8558C95.1556 72.5552 95.2381 72.1972 95.1964 71.8427L95.0731 70.7949L94.9446 69.7672L95.8651 68.8467L95.8677 68.8237L96.3974 64.1888L97.1676 61.1103C97.4578 59.9465 97.4331 58.7264 97.0959 57.5754C96.7588 56.4243 96.1214 55.3837 95.2493 54.5603L93.469 52.8818L91.3054 49.6804H87.8164L86.6201 51.9401C85.4602 52.2082 84.4312 52.8746 83.7122 53.8234C82.9932 54.7721 82.6298 55.9431 82.6854 57.1322L82.9565 63.0587L81.8951 70.4376L81.8944 71.773L81.3416 72.3874C81.1425 72.6087 80.9978 72.8735 80.919 73.1606C80.8403 73.4477 80.8297 73.7493 80.8881 74.0412L80.9608 74.4047C80.6798 74.5251 80.4318 74.7112 80.2376 74.9472C80.0433 75.1833 79.9085 75.4625 79.8445 75.7614L79.6503 76.6674C79.4842 76.8866 78.3877 78.3486 78.3877 78.7483C78.3877 78.8083 78.432 78.8663 78.5271 78.9307C79.2743 79.4366 83.4044 80.4682 85.2323 79.7367C87.1794 78.9582 94.9194 80.1261 94.9974 80.138L95.0376 80.1442Z" fill="#E6E6E6"/>
<path d="M89.11 48.647C91.662 48.647 93.7308 46.5782 93.7308 44.0262C93.7308 41.4742 91.662 39.4054 89.11 39.4054C86.5581 39.4054 84.4893 41.4742 84.4893 44.0262C84.4893 46.5782 86.5581 48.647 89.11 48.647Z" fill="#FFB6B6"/>
<path d="M87.603 64.3244L84.3931 70.224L75.0268 76.7489L73.1729 74.7625L80.0341 68.4238C80.0341 68.4238 82.6423 63.721 84.5723 62.3861L87.603 64.3244Z" fill="#FFB6B6"/>
<path d="M73.7024 77.676C74.5801 77.676 75.2916 76.9645 75.2916 76.0868C75.2916 75.2092 74.5801 74.4977 73.7024 74.4977C72.8248 74.4977 72.1133 75.2092 72.1133 76.0868C72.1133 76.9645 72.8248 77.676 73.7024 77.676Z" fill="#FFB6B6"/>
<path d="M87.3147 65.1108L89.3332 60.2662L88.6031 57.5889C88.4579 57.0639 88.1687 56.5899 87.7682 56.2206C87.3677 55.8512 86.8719 55.6013 86.3368 55.4989C85.6105 55.3651 84.8605 55.512 84.2384 55.91C83.6163 56.3081 83.1686 56.9274 82.9857 57.643C82.4328 59.8134 82.0082 62.635 83.1249 63.7516L83.1362 63.7629L79.8135 68.0962L84.7071 70.8622L87.3147 65.1108Z" fill="#E6E6E6"/>
<path d="M93.6761 40.8419C93.3004 40.3355 92.7604 39.9755 92.3474 39.4991C92.1393 39.2228 91.9157 38.9585 91.6778 38.7075C91.1786 38.2927 90.5489 38.0677 89.9 38.0724C89.196 38.0543 88.4976 38.2022 87.8614 38.5042C87.2252 38.8061 86.669 39.2536 86.2378 39.8104C85.902 39.6135 85.5662 39.4166 85.2305 39.2198C85.0978 39.5689 84.9652 39.9181 84.8325 40.2672C84.7236 40.1726 84.5848 40.1196 84.4406 40.1176C84.2963 40.1155 84.156 40.1646 84.0445 40.2562C83.9331 40.3477 83.8576 40.4757 83.8315 40.6176C83.8054 40.7595 83.8304 40.906 83.902 41.0312C83.8221 40.7843 83.456 40.7319 83.2541 40.895C83.1607 40.9855 83.0913 41.098 83.0524 41.2221C83.0134 41.3462 83.0062 41.4781 83.0312 41.6058C83.0725 41.8882 83.1974 42.1518 83.3897 42.3627C83.582 42.5736 83.833 42.7222 84.1105 42.7893C84.5486 42.8869 85.0586 42.7843 85.4093 43.0646C85.6905 43.2892 85.7753 43.6983 86.0623 43.9156C86.4158 44.1832 86.9156 44.0595 87.3551 44.1186C87.7382 44.1843 88.0828 44.3913 88.3208 44.6987C88.5588 45.0061 88.6728 45.3915 88.6405 45.7789C88.6942 45.5312 88.7964 45.2965 88.9411 45.0883C89.0152 44.9854 89.1176 44.9062 89.2358 44.8604C89.354 44.8145 89.483 44.8039 89.6071 44.8299C90.0074 44.9499 90.0729 45.4955 89.9759 45.902C89.7186 46.9801 88.7434 48.7226 88.7434 48.7226C90.0096 49.2221 91.5182 48.7498 92.4951 47.802C93.4721 46.8543 93.9809 45.5122 94.2026 44.1692C94.3905 43.0303 94.3639 41.7689 93.6761 40.8419Z" fill="#2F2E41"/>
<path d="M135.504 119.534C135.504 119.567 135.498 119.6 135.485 119.631C135.472 119.662 135.453 119.69 135.43 119.713C135.406 119.737 135.378 119.756 135.348 119.768C135.317 119.781 135.284 119.787 135.251 119.787H75.6145C75.5474 119.787 75.483 119.761 75.4355 119.713C75.388 119.666 75.3613 119.601 75.3613 119.534C75.3613 119.467 75.388 119.403 75.4355 119.355C75.483 119.308 75.5474 119.281 75.6145 119.281H135.251C135.284 119.281 135.317 119.287 135.348 119.3C135.378 119.313 135.406 119.331 135.43 119.355C135.453 119.378 135.472 119.406 135.485 119.437C135.498 119.468 135.504 119.501 135.504 119.534Z" fill="#CCCCCC"/>
</g>
<defs>
<clipPath id="clip0_1162_33092">
<rect width="137.309" height="120" fill="white" transform="translate(0.845703)"/>
</clipPath>
</defs>
</svg>
