<svg width="538" height="578" viewBox="0 0 538 578" fill="none" xmlns="http://www.w3.org/2000/svg">
<g clip-path="url(#clip0_7857_84224)">
<path d="M245.051 178.56L268.821 186.38V152.16H247.251L245.051 178.56Z" fill="#F3A3A6"/>
<path d="M265.879 161.63C278.963 161.63 289.569 151.024 289.569 137.94C289.569 124.856 278.963 114.25 265.879 114.25C252.796 114.25 242.189 124.856 242.189 137.94C242.189 151.024 252.796 161.63 265.879 161.63Z" fill="#F3A3A6"/>
<path d="M259.851 139.8L263.111 143.76L269.021 133.42C269.021 133.42 276.561 133.81 276.561 128.21C276.561 122.61 283.481 122.46 283.481 122.46C283.481 122.46 293.271 105.36 272.991 109.87C272.991 109.87 258.921 100.23 251.931 108.47C251.931 108.47 230.481 119.27 236.621 138.08L246.821 157.47L249.131 153.08C249.131 153.08 247.731 134.66 259.861 139.79L259.851 139.8Z" fill="#2F2E43"/>
<path d="M280.32 558.28H301.26V528.57H280.32V558.28Z" fill="#F3A3A6"/>
<path d="M298.94 575.3C295.36 575.62 277.44 577.04 276.54 572.93C275.72 569.16 276.93 565.22 277.1 564.68C278.82 547.54 279.46 547.35 279.85 547.24C280.46 547.06 282.24 547.91 285.13 549.77L285.31 549.89L285.35 550.1C285.4 550.37 286.68 556.66 292.75 555.69C296.91 555.03 298.26 554.11 298.69 553.66C298.34 553.5 297.9 553.22 297.59 552.74C297.14 552.04 297.06 551.14 297.36 550.06C298.14 547.21 300.48 543 300.58 542.83L300.85 542.35L324.65 558.41L339.35 562.61C340.46 562.93 341.35 563.72 341.8 564.78C342.42 566.26 342.04 567.98 340.84 569.06C338.17 571.46 332.87 575.57 327.3 576.08C325.82 576.22 323.86 576.27 321.66 576.27C312.47 576.27 299.05 575.32 298.95 575.3H298.94Z" fill="#2F2E43"/>
<path d="M195.444 513.806L212.057 526.554L230.143 502.983L213.53 490.236L195.444 513.806Z" fill="#F3A3A6"/>
<path d="M199.84 538.64C196.8 536.72 181.72 526.93 183.51 523.13C185.15 519.64 188.51 517.24 188.98 516.93C200.78 504.38 201.4 504.62 201.78 504.76C202.38 504.99 203.27 506.74 204.43 509.98L204.5 510.18L204.4 510.37C204.28 510.61 201.47 516.39 206.86 519.31C210.56 521.32 212.19 521.41 212.81 521.32C212.63 520.98 212.45 520.49 212.5 519.92C212.57 519.09 213.05 518.33 213.95 517.65C216.3 515.87 220.72 513.95 220.91 513.87L221.41 513.65L230.52 540.88L239.63 553.16C240.32 554.09 240.54 555.26 240.25 556.38C239.84 557.94 238.49 559.07 236.88 559.19C233.3 559.47 226.59 559.5 221.87 556.52C220.62 555.73 219.03 554.58 217.28 553.24C209.99 547.64 199.92 538.72 199.85 538.65L199.84 538.64Z" fill="#2F2E43"/>
<path d="M0 576.26C0 576.92 0.53 577.45 1.19 577.45H536.45C537.11 577.45 537.64 576.92 537.64 576.26C537.64 575.6 537.11 575.07 536.45 575.07H1.19C0.53 575.07 0 575.6 0 576.26Z" fill="#2F2E43"/>
<path d="M314.2 315.16L235.14 323.23C235.14 323.23 223.85 360.34 239.98 378.09L249.66 428.11L206.1 487.81L233.53 505.56L272.25 463.61V534.6L309.36 531.37L327.11 420.04L314.2 315.16Z" fill="#2F2E43"/>
<path d="M278.7 173.17C278.7 173.17 272.25 161.88 244.82 163.49L238.37 178.01C238.37 178.01 219.01 182.85 219.01 211.89C219.01 240.93 228.69 328.06 228.69 328.06L323.08 322.41L279.42 185.94L278.71 173.16L278.7 173.17Z" fill="#CCCCCC"/>
<path d="M364.5 276.19C370.67 279.03 374.12 284.61 372.21 288.66C370.3 292.71 363.74 293.69 357.57 290.86C355.09 289.76 352.92 288.07 351.25 285.91L325.26 273.55L331.66 261.09L356.61 274.6C359.35 274.48 362.07 275.02 364.52 276.19H364.5Z" fill="#F3A3A6"/>
<path d="M348.4 285.3L285.66 264.81L285.59 264.74L237.8 220.52C230.48 213.75 229.38 202.56 235.25 194.49C238.84 189.55 244.4 186.6 250.5 186.39C256.6 186.18 262.35 188.75 266.27 193.43L302.16 236.29L353.85 269.87L348.4 285.3Z" fill="#CCCCCC"/>
</g>
<defs>
<clipPath id="clip0_7857_84224">
<rect width="537.64" height="577.45" fill="white"/>
</clipPath>
</defs>
</svg>
