<svg width="12" height="13" viewBox="0 0 12 13" fill="none" xmlns="http://www.w3.org/2000/svg">
<g clip-path="url(#clip0_5032_87902)">
<path d="M11.94 5.84L10.74 5.96C10.74 6.14 10.74 6.32 10.74 6.5C10.74 9.14 8.58 11.3 5.94 11.3C3.3 11.3 1.14 9.14 1.14 6.5C1.14 3.86 3.3 1.7 5.94 1.7C6.12 1.7 6.3 1.7 6.42 1.7L6.54 0.5C6.42 0.5 6.18 0.5 6 0.5C2.7 0.5 0 3.2 0 6.5C0 9.8 2.7 12.5 6 12.5C9.3 12.5 12 9.8 12 6.5C12 6.26 12 6.08 11.94 5.84Z" fill="#39B54A"/>
<path d="M6.59999 5.90039V2.90039H5.39999V7.10039H8.39999V5.90039H6.59999Z" fill="#39B54A"/>
<path d="M12 1.34L11.16 0.5L9 2.66V1.1H7.8V4.7H11.4V3.5H9.84L12 1.34Z" fill="#39B54A"/>
</g>
<defs>
<clipPath id="clip0_5032_87902">
<rect width="12" height="12" fill="white" transform="translate(0 0.5)"/>
</clipPath>
</defs>
</svg>
