<svg xmlns="http://www.w3.org/2000/svg" width="16" height="16" viewBox="0 0 16 16" fill="none">
<path d="M16 8.00041C16.0002 7.83863 15.9169 7.68822 15.7797 7.60247L14.1623 6.59163L15.7789 5.58544C15.9162 5.5 15.9998 5.34984 16 5.18819C16.0003 5.0265 15.9172 4.87613 15.7801 4.79028L8.24888 0.0715313C8.09666 -0.0238438 7.90335 -0.0238438 7.75113 0.0715313L0.219876 4.79028C0.0828443 4.87613 -0.000249438 5.02653 5.62529e-07 5.18819C0.000250563 5.34984 0.0838131 5.50003 0.221063 5.58544L1.83766 6.59163L0.220313 7.60247C0.0831256 7.68822 -0.000155687 7.83866 5.62529e-07 8.00041C0.000156813 8.16216 0.0837193 8.31244 0.221063 8.39794L1.83766 9.40413L0.220313 10.415C0.0833443 10.5006 9.43125e-05 10.6507 5.62529e-07 10.8122C-9.31875e-05 10.9737 0.0829693 11.1239 0.219876 11.2097L7.75113 15.9284C7.90338 16.0238 8.09663 16.0238 8.24888 15.9284L15.7801 11.2097C15.917 11.1239 16.0001 10.9737 16 10.8122C15.9999 10.6507 15.9167 10.5006 15.7797 10.415L14.1623 9.40413L15.7789 8.39794C15.9163 8.31244 15.9998 8.16219 16 8.00041ZM1.35372 5.18612L8 1.02191L14.6463 5.18616L8 9.32284L1.35372 5.18612ZM14.6476 10.813L8 14.9781L1.35238 10.813L2.72394 9.95578L7.75231 13.0855C7.90388 13.1798 8.09606 13.1799 8.24769 13.0855L13.2761 9.95578L14.6476 10.813ZM8 12.1353L1.35453 7.99919L2.72397 7.14328L7.75235 10.273C7.90391 10.3673 8.0961 10.3674 8.24772 10.273L13.2761 7.14328L14.6455 7.99919L8 12.1353Z" fill="white"/>
</svg>