<svg xmlns="http://www.w3.org/2000/svg" width="25" height="24" viewBox="0 0 25 24" fill="none">
  <g clip-path="url(#clip0_1421_27495)">
    <path d="M23.8375 21.5825L20.0875 14.0825C20.0562 14.0198 20.008 13.9672 19.9484 13.9306C19.8887 13.8939 19.82 13.8747 19.75 13.8751H15.6348L17.7812 10.0606C18.3307 9.08753 18.6218 7.98999 18.6268 6.87254C18.6319 5.7551 18.3507 4.65497 17.8101 3.67697C17.3044 2.73471 16.5658 1.93766 15.6647 1.36177C14.7636 0.785876 13.73 0.450326 12.6625 0.387094C12.3887 0.370969 12.1143 0.370969 11.8405 0.387094C10.7724 0.449826 9.73828 0.785142 8.83662 1.36106C7.93496 1.93698 7.19588 2.7343 6.68988 3.67697C6.14929 4.65497 5.86814 5.7551 5.87319 6.87254C5.87825 7.98999 6.16934 9.08753 6.71875 10.0606L8.86525 13.8751H4.75C4.68031 13.8751 4.612 13.8944 4.55271 13.9311C4.49343 13.9677 4.44552 14.0201 4.41437 14.0825L0.664375 21.5825C0.638426 21.6345 0.624946 21.6919 0.625 21.7501V23.2501C0.625 23.3495 0.664509 23.4449 0.734835 23.5153C0.805161 23.5856 0.900544 23.6251 1 23.6251H23.5C23.5995 23.6251 23.6948 23.5856 23.7652 23.5153C23.8355 23.4449 23.875 23.3495 23.875 23.2501V21.7501C23.8756 21.6921 23.8628 21.6347 23.8375 21.5825ZM11.875 19.8751V21.3751H7.10538L7.85538 18.3751H11.3976L11.9226 19.3088C11.9552 19.3669 12.0027 19.4153 12.0602 19.4489C12.1176 19.4825 12.183 19.5003 12.2496 19.5003C12.3162 19.5003 12.3816 19.4825 12.4391 19.4489C12.4966 19.4153 12.544 19.3669 12.5766 19.3088L13.1016 18.3751H16.6435L17.3935 21.3751H12.625V19.8751H11.875ZM1.60675 21.3751L3.10675 18.3751H7.08175L6.33175 21.3751H1.60675ZM18.1675 21.3751L17.4175 18.3751H21.3925L22.8925 21.3751H18.1675ZM21.0175 17.6251H17.23L16.48 14.6251H19.5175L21.0175 17.6251ZM15.7067 14.6251L16.4567 17.6251H13.525L14.0905 16.6201L14.2356 16.7652C14.3059 16.8355 14.4013 16.875 14.5007 16.875C14.6002 16.875 14.6956 16.8355 14.7659 16.7652L15.5159 16.0152L14.9856 15.485L14.5 15.9698L14.4719 15.9417L15.2125 14.6251H15.7067ZM7.348 4.03697C7.79329 3.20633 8.44389 2.50358 9.2378 1.99568C10.0317 1.48779 10.9425 1.19169 11.8832 1.13559C12.0047 1.12859 12.127 1.12509 12.25 1.12509C12.373 1.12509 12.4954 1.12859 12.6171 1.13559C13.5579 1.19175 14.4685 1.48788 15.2624 1.99577C16.0562 2.50366 16.7067 3.20638 17.152 4.03697C17.6312 4.90339 17.8806 5.87813 17.8763 6.86825C17.8719 7.85838 17.6141 8.8309 17.1273 9.69309L12.25 18.3605L7.37275 9.69309C6.88594 8.8309 6.62808 7.85838 6.62375 6.86825C6.61941 5.87813 6.86876 4.90339 7.348 4.03697ZM10.0281 15.9417L10 15.9698L9.51513 15.485L8.98487 16.0152L9.73487 16.7652C9.8052 16.8355 9.90056 16.875 10 16.875C10.0994 16.875 10.1948 16.8355 10.2651 16.7652L10.4102 16.6201L10.975 17.6251H8.04288L8.79288 14.6251H9.2875L10.0281 15.9417ZM4.98175 14.6251H8.01925L7.26925 17.6251H3.48175L4.98175 14.6251ZM1.375 22.8751V22.1251H23.125V22.8751H1.375Z" fill="#052439"/>
    <path d="M9.62499 19.7202L9.14011 19.2354L8.60986 19.7656L9.35986 20.5156C9.43019 20.5859 9.52555 20.6254 9.62499 20.6254C9.72443 20.6254 9.81979 20.5859 9.89011 20.5156L10.6401 19.7656L10.1099 19.2354L9.62499 19.7202Z" fill="#052439"/>
    <path d="M14.5 20.6255C14.5994 20.6255 14.6948 20.5859 14.7651 20.5156L15.5151 19.7656L14.9849 19.2354L14.5 19.7202L14.0151 19.2354L13.4849 19.7656L14.2349 20.5156C14.3052 20.5859 14.4005 20.6255 14.5 20.6255Z" fill="#052439"/>
    <path d="M18.3599 16.7656C18.4302 16.8359 18.5256 16.8754 18.625 16.8754C18.7244 16.8754 18.8198 16.8359 18.8901 16.7656L19.6401 16.0156L19.1099 15.4854L18.625 15.9702L18.1401 15.4854L17.6099 16.0156L18.3599 16.7656Z" fill="#052439"/>
    <path d="M20.2349 19.2354L19.75 19.7202L19.2651 19.2354L18.7349 19.7656L19.4849 20.5156C19.5552 20.5859 19.6506 20.6254 19.75 20.6254C19.8494 20.6254 19.9448 20.5859 20.0151 20.5156L20.7651 19.7656L20.2349 19.2354Z" fill="#052439"/>
    <path d="M5.23486 19.2354L4.74999 19.7202L4.26511 19.2354L3.73486 19.7656L4.48486 20.5156C4.55519 20.5859 4.65055 20.6254 4.74999 20.6254C4.84942 20.6254 4.94479 20.5859 5.01511 20.5156L5.76511 19.7656L5.23486 19.2354Z" fill="#052439"/>
    <path d="M5.60986 16.7656C5.68019 16.8359 5.77555 16.8754 5.87499 16.8754C5.97442 16.8754 6.06979 16.8359 6.14011 16.7656L6.89011 16.0156L6.35986 15.4854L5.87499 15.9702L5.39011 15.4854L4.85986 16.0156L5.60986 16.7656Z" fill="#052439"/>
    <path d="M17.125 6.75C17.125 5.78582 16.8391 4.84329 16.3034 4.0416C15.7677 3.23991 15.0064 2.61507 14.1156 2.24609C13.2248 1.87711 12.2446 1.78057 11.2989 1.96867C10.3533 2.15678 9.48464 2.62108 8.80286 3.30286C8.12108 3.98464 7.65678 4.85328 7.46867 5.79894C7.28057 6.74459 7.37711 7.72479 7.74609 8.61558C8.11507 9.50637 8.73991 10.2677 9.5416 10.8034C10.3433 11.3391 11.2858 11.625 12.25 11.625C13.5425 11.6235 14.7816 11.1094 15.6955 10.1955C16.6094 9.28159 17.1235 8.04248 17.125 6.75ZM8.125 6.75C8.125 5.93415 8.36693 5.13663 8.82019 4.45828C9.27345 3.77992 9.91769 3.25121 10.6714 2.939C11.4252 2.62679 12.2546 2.5451 13.0547 2.70426C13.8549 2.86343 14.5899 3.2563 15.1668 3.83319C15.7437 4.41008 16.1366 5.14508 16.2957 5.94525C16.4549 6.74543 16.3732 7.57483 16.061 8.32857C15.7488 9.08232 15.2201 9.72655 14.5417 10.1798C13.8634 10.6331 13.0658 10.875 12.25 10.875C11.1564 10.8737 10.1079 10.4387 9.33461 9.66539C8.5613 8.89208 8.12629 7.84362 8.125 6.75Z" fill="#052439"/>
    <path d="M14.4999 9.37492V7.12492H14.8749C14.9491 7.1249 15.0216 7.1029 15.0832 7.0617C15.1449 7.02049 15.1929 6.96193 15.2213 6.89342C15.2497 6.8249 15.2571 6.74952 15.2426 6.67678C15.2282 6.60405 15.1925 6.53724 15.14 6.48479L12.515 3.85979C12.4447 3.78949 12.3494 3.75 12.2499 3.75C12.1505 3.75 12.0551 3.78949 11.9848 3.85979L9.35979 6.48479C9.30737 6.53724 9.27166 6.60405 9.2572 6.67678C9.24274 6.74952 9.25016 6.8249 9.27854 6.89342C9.30692 6.96193 9.35497 7.02049 9.41662 7.0617C9.47828 7.1029 9.55076 7.1249 9.62492 7.12492H9.99992V9.37492C9.99992 9.47438 10.0394 9.56976 10.1098 9.64009C10.1801 9.71041 10.2755 9.74992 10.3749 9.74992H14.1249C14.2244 9.74992 14.3198 9.71041 14.3901 9.64009C14.4604 9.56976 14.4999 9.47438 14.4999 9.37492ZM12.2499 4.65517L13.9697 6.37492H10.5302L12.2499 4.65517ZM12.6249 8.99992H11.8749V8.24992H12.6249V8.99992ZM13.3749 8.99992V7.87492C13.3749 7.77546 13.3354 7.68008 13.2651 7.60975C13.1948 7.53943 13.0994 7.49992 12.9999 7.49992H11.4999C11.4005 7.49992 11.3051 7.53943 11.2348 7.60975C11.1644 7.68008 11.1249 7.77546 11.1249 7.87492V8.99992H10.7499V7.12492H13.7499V8.99992H13.3749Z" fill="#052439"/>
  </g>
  <defs>
    <clipPath id="clip0_1421_27495">
      <rect width="24" height="24" fill="white" transform="translate(0.25)"/>
    </clipPath>
  </defs>
</svg>