<svg xmlns="http://www.w3.org/2000/svg" width="16" height="16" viewBox="0 0 16 16" fill="none">
  <path d="M0 15.334H16V16.0006H0V15.334Z" fill="white"/>
  <path d="M0.333496 13H1.33351V13.6667H0.333496V13Z" fill="white"/>
  <path d="M2.3335 13H3.33351V13.6667H2.3335V13Z" fill="white"/>
  <path d="M4.3335 13H5.33351V13.6667H4.3335V13Z" fill="white"/>
  <path d="M6.3335 13H7.33351V13.6667H6.3335V13Z" fill="white"/>
  <path d="M8.3335 13H9.33351V13.6667H8.3335V13Z" fill="white"/>
  <path d="M10.3335 13H11.3335V13.6667H10.3335V13Z" fill="white"/>
  <path d="M12.3335 13H13.3335V13.6667H12.3335V13Z" fill="white"/>
  <path d="M14.3335 13H15.3335V13.6667H14.3335V13Z" fill="white"/>
  <path d="M11 4.33398H13V5.00064H11V4.33398Z" fill="white"/>
  <path d="M3 4.33398H5V5.00064H3V4.33398Z" fill="white"/>
  <path d="M1.90333 11.3333H0V10.6667H1.43L2.86001 6.66669H2.33332V6H3.80667L1.90333 11.3333Z" fill="white"/>
  <path d="M12.4131 11.3333H3.58643L4.72974 6H5.99974V6.66669H5.26974L4.41309 10.6667H11.5864L10.7297 6.66669H9.99973V6H11.2697L12.4131 11.3333Z" fill="white"/>
  <path d="M16 11.3333H14.0967L12.1934 6H13.6667V6.66669H13.14L14.57 10.6667H16V11.3333Z" fill="white"/>
  <path d="M8.00015 7.86334L7.74015 7.54333C7.64349 7.42001 5.3335 4.53666 5.3335 2.61665C5.3335 1.17334 6.53016 0 8.00015 0C9.47013 0 10.6668 1.17334 10.6668 2.61665C10.6668 4.53999 8.35681 7.4233 8.26014 7.54333L8.00015 7.86334ZM8.00015 0.666654C6.89681 0.666654 6.00015 1.53998 6.00015 2.61665C6.00015 3.95332 7.40682 5.98664 8.00015 6.78664C8.59347 5.98664 10.0001 3.95329 10.0001 2.61665C10.0001 1.54002 9.10348 0.666654 8.00015 0.666654Z" fill="white"/>
  <path d="M8.00001 3.66604C7.45003 3.66604 7 3.21605 7 2.66603C7 2.11601 7.44999 1.66602 8.00001 1.66602C8.55003 1.66602 9.00003 2.11601 9.00003 2.66603C9.00003 3.21605 8.55003 3.66604 8.00001 3.66604ZM8.00001 2.3327C7.81667 2.3327 7.66669 2.48269 7.66669 2.66603C7.66669 2.84937 7.81667 2.99936 8.00001 2.99936C8.18335 2.99936 8.33334 2.84937 8.33334 2.66603C8.33338 2.48272 8.18335 2.3327 8.00001 2.3327Z" fill="white"/>
</svg>