<svg xmlns="http://www.w3.org/2000/svg" width="25" height="24" viewBox="0 0 25 24" fill="none">
<path d="M24.25 12.0006C24.2502 11.7579 24.1253 11.5323 23.9195 11.4037L21.4935 9.88744L23.9184 8.37816C24.1243 8.25 24.2496 8.02477 24.25 7.78228C24.2504 7.53975 24.1257 7.31419 23.9202 7.18542L12.6233 0.107297C12.395 -0.0357656 12.105 -0.0357656 11.8767 0.107297L0.579813 7.18542C0.374266 7.31419 0.249626 7.5398 0.250001 7.78228C0.250376 8.02477 0.37572 8.25005 0.581595 8.37816L3.00649 9.88744L0.58047 11.4037C0.374688 11.5323 0.249766 11.758 0.250001 12.0006C0.250235 12.2432 0.375579 12.4687 0.581595 12.5969L3.00649 14.1062L0.58047 15.6225C0.375016 15.7509 0.250141 15.976 0.250001 16.2183C0.24986 16.4606 0.374454 16.6859 0.579813 16.8145L11.8767 23.8927C12.1051 24.0357 12.3949 24.0357 12.6233 23.8927L23.9202 16.8145C24.1255 16.6859 24.2501 16.4606 24.25 16.2183C24.2499 15.976 24.125 15.7509 23.9195 15.6225L21.4935 14.1062L23.9184 12.5969C24.1244 12.4687 24.2498 12.2433 24.25 12.0006ZM2.28058 7.77919L12.25 1.53286L22.2194 7.77923L12.25 13.9843L2.28058 7.77919ZM22.2214 16.2195L12.25 22.4671L2.27856 16.2195L4.33591 14.9337L11.8785 19.6282C12.1058 19.7698 12.3941 19.7698 12.6215 19.6282L20.1641 14.9337L22.2214 16.2195ZM12.25 18.203L2.2818 11.9988L4.33595 10.7149L11.8785 15.4095C12.1059 15.551 12.3941 15.5511 12.6216 15.4095L20.1641 10.7149L22.2183 11.9988L12.25 18.203Z" fill="#052439"/>
</svg>