<svg xmlns="http://www.w3.org/2000/svg" width="16" height="17" viewBox="0 0 16 17" fill="none">
<g clip-path="url(#clip0_845_52259)">
<path d="M16 10.7399L6.64 1.3799C6 0.739902 4.96 0.739902 4.4 1.3799L2.08 3.6199C1.44 4.2599 1.44 5.2199 2.08 5.8599L4.08 7.8599L3.92 8.0199C2.96 8.9799 2.96 10.4999 3.92 11.3799L4 11.4599V13.0599L1.6 13.5399V12.0999H0V16.8999H1.6V15.1399L5.6 14.3399V12.0999C6.24 12.0999 6.8 11.8599 7.28 11.3799L7.44 11.2199L9.2 12.9799L16 10.7399ZM5.44 2.4999L13.04 10.0999L9.68 11.2199L3.28 4.8199L5.44 2.4999ZM6.16 10.2599C5.84 10.5799 5.36 10.5799 5.04 10.2599C4.72 9.9399 4.72 9.4599 5.04 9.1399L5.2 8.9799L6.32 10.0999L6.16 10.2599Z" fill="white"/>
</g>
<defs>
<clipPath id="clip0_845_52259">
<rect width="16" height="16" fill="white" transform="translate(0 0.899902)"/>
</clipPath>
</defs>
</svg>