<svg xmlns="http://www.w3.org/2000/svg" width="32" height="32" viewBox="0 0 32 32" fill="none">
<path d="M31.5912 18.4566L29.626 17.1145L30.1718 16.6785C30.6551 16.2923 30.6384 15.5492 30.1354 15.186L12.1087 2.1676C11.299 1.58279 10.1748 1.73479 9.54925 2.51335L3.62481 9.88748C2.95106 10.7263 3.12113 11.9622 3.99688 12.5877L8.50063 15.8039L6.6925 18.3728C6.39325 18.798 6.49744 19.3858 6.92431 19.6824L7.56881 20.13C6.51719 21.1448 5.10688 21.7189 3.63381 21.7189H1.875V19.6877C1.875 19.1699 1.45525 18.7502 0.9375 18.7502C0.41975 18.7502 0 19.1699 0 19.6877V29.2502C0 29.7679 0.41975 30.1877 0.9375 30.1877C1.45525 30.1877 1.875 29.7679 1.875 29.2502V27.3439H3.14575C6.51088 27.3439 9.80088 25.9287 12.1377 23.3033L13.0754 23.9545C13.5034 24.2518 14.0918 24.1427 14.385 23.7123L16.0834 21.219L19.9451 23.9767C20.2859 24.2201 20.7474 24.2081 21.0751 23.9462L22.4743 22.8284L26.1124 25.4469C26.5166 25.7378 27.0773 25.6619 27.3897 25.2747L31.7921 19.8196C32.1354 19.3942 32.0431 18.7652 31.5912 18.4566ZM3.14575 25.4689H1.875V23.5939H3.63375C5.7185 23.5939 7.70863 22.7295 9.131 21.215L10.5845 22.2245C8.67756 24.2708 5.96381 25.4689 3.14575 25.4689ZM13.3679 21.8748L8.76869 18.6805L10.0265 16.8935L14.5572 20.129L13.3679 21.8748ZM20.4582 22.0391L5.0865 11.0618L11.0109 3.68766L28.0374 15.9837L20.4582 22.0391ZM26.4876 23.4067L23.9954 21.6129L28.0938 18.3385L29.6952 19.4322L26.4876 23.4067Z" fill="white"/>
<path d="M23.5 16.0001C24.0178 16.0001 24.4375 15.5804 24.4375 15.0626C24.4375 14.5449 24.0178 14.1251 23.5 14.1251C22.9822 14.1251 22.5625 14.5449 22.5625 15.0626C22.5625 15.5804 22.9822 16.0001 23.5 16.0001Z" fill="black"/>
</svg>