<svg xmlns="http://www.w3.org/2000/svg" width="14" height="17" viewBox="0 0 14 17" fill="none">
  <path d="M12.4185 5.57929L13.404 5.31777C13.3091 4.96156 13.1848 4.61389 13.0323 4.27832L12.104 4.70093C12.2333 4.98441 12.3385 5.27823 12.4185 5.57929Z" fill="white"/>
  <path d="M12.4915 3.31602C12.2851 3.01088 12.0535 2.72355 11.7992 2.45703L11.061 3.16054C11.2763 3.38618 11.4723 3.62935 11.6473 3.88749L12.4915 3.31602Z" fill="white"/>
  <path d="M13.5977 6.40299L12.5827 6.49883C12.5995 6.67522 12.6077 6.85109 12.6077 7.02799C12.6119 8.51605 12.0204 9.94393 10.9652 10.9931L7.00004 14.9587L3.03493 10.9931C0.845049 8.80312 0.845144 5.25256 3.03512 3.06269C4.08671 2.01116 5.51293 1.42038 7.00004 1.42035C8.21397 1.41662 9.39571 1.81056 10.3646 2.54188L10.9764 1.72622C8.04829 -0.469841 3.89433 0.123581 1.69827 3.05166C0.837912 4.19881 0.372828 5.59406 0.372828 7.02799C0.367953 8.78659 1.06703 10.474 2.31409 11.7139L7.00004 16.4004L11.686 11.7139C12.9332 10.4741 13.6323 8.78662 13.6273 7.02799C13.6273 6.81933 13.6174 6.61098 13.5977 6.40299Z" fill="white"/>
  <path d="M10.0587 10.5968V6.78105L10.7785 7.41165L11.4504 6.64697L6.99999 2.74609L2.54956 6.64493L3.22146 7.40961L3.94127 6.78105V10.5968H10.0587ZM4.96085 5.8879L6.99999 4.10365L9.03913 5.89045V9.57722H4.96085V5.8879Z" fill="white"/>
</svg>