<svg width="32" height="32" viewBox="0 0 32 32" fill="none" xmlns="http://www.w3.org/2000/svg">
<path fill-rule="evenodd" clip-rule="evenodd" d="M16 18.5C12.6526 18.5 9.6849 19.936 7.75465 22.1561C7.3923 22.5729 6.7607 22.617 6.3439 22.2547C5.9271 21.8923 5.883 21.2607 6.24535 20.8439C7.7597 19.1021 9.79155 17.7788 12.1153 17.0728C10.8211 15.9722 10 14.332 10 12.5C10 9.1863 12.6863 6.5 16 6.5C19.3137 6.5 22 9.1863 22 12.5C22 14.332 21.179 15.9722 19.8848 17.0728C22.2085 17.7788 24.2404 19.1021 25.7547 20.8439C26.1171 21.2607 26.0729 21.8923 25.6562 22.2547C25.2394 22.617 24.6077 22.5729 24.2454 22.1561C22.3152 19.936 19.3475 18.5 16 18.5ZM16 16.5C18.2092 16.5 20 14.7092 20 12.5C20 10.2908 18.2092 8.5 16 8.5C13.7909 8.5 12 10.2908 12 12.5C12 14.7092 13.7909 16.5 16 16.5Z" fill="white"/>
<path d="M6.7674 6.43413C10.0013 3.52055 14.6169 2.24728 19.1521 3.45286C26.2434 5.33793 30.4399 12.5629 28.5442 19.5818C28.4002 20.1149 28.7157 20.6639 29.2488 20.8079C29.782 20.9519 30.331 20.6364 30.475 20.1033C32.6629 12.0024 27.8151 3.68624 19.6659 1.51998C13.4728 -0.126314 7.14795 2.24922 3.50779 7.03508C3.26876 7.34933 3.23702 7.77483 3.42679 8.12108C3.61655 8.46733 3.99229 8.66948 4.3858 8.63708L8.1479 8.32723C8.6983 8.28188 9.1078 7.79893 9.06245 7.24853C9.0171 6.69808 8.53415 6.28863 7.98375 6.33398L6.7674 6.43413Z" fill="white"/>
<path d="M2.73388 11.4281C3.26706 11.5721 3.58255 12.1211 3.43854 12.6543C1.58371 19.5218 5.78868 26.6493 12.8966 28.5387C17.4227 29.7419 22.009 28.5202 25.2196 25.6973L24.024 25.789C23.4734 25.8312 22.9927 25.4191 22.9505 24.8684C22.9083 24.3177 23.3204 23.8371 23.8711 23.7949L27.6273 23.5068C28.0211 23.4766 28.3958 23.6811 28.5836 24.0286C28.7713 24.376 28.7369 24.8015 28.4959 25.1143C24.8742 29.8139 18.5657 32.1152 12.3828 30.4716C4.25031 28.3098 -0.648171 20.115 1.50773 12.1328C1.65173 11.5996 2.2007 11.2841 2.73388 11.4281Z" fill="white"/>
</svg>
