<svg width="421" height="256" viewBox="0 0 421 256" fill="none" xmlns="http://www.w3.org/2000/svg">
<rect x="0.5" width="420" height="256" rx="8" fill="#FAFAFA"/>
<rect x="1" y="0.5" width="419" height="255" rx="7.5" stroke="#B9B8C0" stroke-opacity="0.2"/>
<rect width="64" height="64" transform="translate(178.5 96)" fill="#FAFAFA"/>
<path d="M201.167 132L207.833 140L217.167 128L229.167 144H191.833L201.167 132ZM234.5 146.667V109.333C234.5 106.373 232.1 104 229.167 104H191.833C190.419 104 189.062 104.562 188.062 105.562C187.062 106.562 186.5 107.919 186.5 109.333V146.667C186.5 148.081 187.062 149.438 188.062 150.438C189.062 151.438 190.419 152 191.833 152H229.167C230.581 152 231.938 151.438 232.938 150.438C233.938 149.438 234.5 148.081 234.5 146.667Z" fill="#969696" fill-opacity="0.5"/>
</svg>
