<svg width="16" height="17" viewBox="0 0 16 17" fill="none" xmlns="http://www.w3.org/2000/svg">
<g clip-path="url(#clip0_7099_81621)">
<path d="M15.92 8.08094L14.32 8.24094C14.32 8.48094 14.32 8.72094 14.32 8.96094C14.32 12.4809 11.44 15.3609 7.92 15.3609C4.4 15.3609 1.52 12.4809 1.52 8.96094C1.52 5.44094 4.4 2.56094 7.92 2.56094C8.16 2.56094 8.4 2.56094 8.56 2.56094L8.72 0.960938C8.56 0.960938 8.24 0.960938 8 0.960938C3.6 0.960938 0 4.56094 0 8.96094C0 13.3609 3.6 16.9609 8 16.9609C12.4 16.9609 16 13.3609 16 8.96094C16 8.64094 16 8.40094 15.92 8.08094Z" fill="#FF5252"/>
<path d="M8.79922 8.16406V4.16406H7.19922V9.76406H11.1992V8.16406H8.79922Z" fill="#FF5252"/>
<path d="M10.4 5.4425L11.52 6.5625L14.4 3.6825L14.4 5.7625L16 5.7625L16 0.9625L11.2 0.9625L11.2 2.5625L13.28 2.5625L10.4 5.4425Z" fill="#FF5252"/>
</g>
<defs>
<clipPath id="clip0_7099_81621">
<rect width="16" height="16" fill="white" transform="translate(0 0.960938)"/>
</clipPath>
</defs>
</svg>
