<svg width="16" height="17" viewBox="0 0 16 17" fill="none" xmlns="http://www.w3.org/2000/svg">
<g clip-path="url(#clip0_505_14563)">
<path d="M15.92 7.62L14.32 7.78C14.32 8.02 14.32 8.26 14.32 8.5C14.32 12.02 11.44 14.9 7.92 14.9C4.4 14.9 1.52 12.02 1.52 8.5C1.52 4.98 4.4 2.1 7.92 2.1C8.16 2.1 8.4 2.1 8.56 2.1L8.72 0.5C8.56 0.5 8.24 0.5 8 0.5C3.6 0.5 0 4.1 0 8.5C0 12.9 3.6 16.5 8 16.5C12.4 16.5 16 12.9 16 8.5C16 8.18 16 7.94 15.92 7.62Z" fill="#39B54A"/>
<path d="M8.79922 7.70001V3.70001H7.19922V9.30001H11.1992V7.70001H8.79922Z" fill="#39B54A"/>
<path d="M16.0004 1.62L14.8804 0.5L12.0004 3.38V1.3H10.4004V6.1H15.2004V4.5H13.1204L16.0004 1.62Z" fill="#39B54A"/>
</g>
<defs>
<clipPath id="clip0_505_14563">
<rect width="16" height="16" fill="white" transform="translate(0 0.5)"/>
</clipPath>
</defs>
</svg>
