<svg width="17" height="17" viewBox="0 0 17 17" fill="none" xmlns="http://www.w3.org/2000/svg">
<g clip-path="url(#clip0_505_13960)">
<path d="M16.42 7.87L14.82 8.03C14.82 8.27 14.82 8.51 14.82 8.75C14.82 12.27 11.94 15.15 8.42 15.15C4.9 15.15 2.02 12.27 2.02 8.75C2.02 5.23 4.9 2.35 8.42 2.35C8.66 2.35 8.9 2.35 9.06 2.35L9.22 0.75C9.06 0.75 8.74 0.75 8.5 0.75C4.1 0.75 0.5 4.35 0.5 8.75C0.5 13.15 4.1 16.75 8.5 16.75C12.9 16.75 16.5 13.15 16.5 8.75C16.5 8.43 16.5 8.19 16.42 7.87Z" fill="#39B54A"/>
<path d="M9.29922 7.94995V3.94995H7.69922V9.54995H11.6992V7.94995H9.29922Z" fill="#39B54A"/>
<path d="M16.5004 1.87L15.3804 0.75L12.5004 3.63V1.55H10.9004V6.35H15.7004V4.75H13.6204L16.5004 1.87Z" fill="#39B54A"/>
</g>
<defs>
<clipPath id="clip0_505_13960">
<rect width="16" height="16" fill="white" transform="translate(0.5 0.75)"/>
</clipPath>
</defs>
</svg>
