<svg width="17" height="17" viewBox="0 0 17 17" fill="none" xmlns="http://www.w3.org/2000/svg">
<g clip-path="url(#clip0_845_52498)">
<path d="M16.5865 7.21998L14.9865 7.37998C14.9865 7.61998 14.9865 7.85998 14.9865 8.09998C14.9865 11.62 12.1065 14.5 8.5865 14.5C5.0665 14.5 2.1865 11.62 2.1865 8.09998C2.1865 4.57998 5.0665 1.69998 8.5865 1.69998C8.8265 1.69998 9.0665 1.69998 9.2265 1.69998L9.3865 0.0999756C9.2265 0.0999756 8.9065 0.0999756 8.6665 0.0999756C4.2665 0.0999756 0.666504 3.69998 0.666504 8.09998C0.666504 12.5 4.2665 16.1 8.6665 16.1C13.0665 16.1 16.6665 12.5 16.6665 8.09998C16.6665 7.77998 16.6665 7.53998 16.5865 7.21998Z" fill="#052439"/>
<path d="M9.4667 7.29993V3.29993H7.8667V8.89993H11.8667V7.29993H9.4667Z" fill="#052439"/>
<path d="M16.6664 1.21998L15.5464 0.0999756L12.6664 2.97998V0.899976H11.0664V5.69998H15.8664V4.09998H13.7864L16.6664 1.21998Z" fill="#052439"/>
</g>
<defs>
<clipPath id="clip0_845_52498">
<rect width="16" height="16" fill="white" transform="translate(0.666504 0.0999756)"/>
</clipPath>
</defs>
</svg>
