<svg width="303" height="190" viewBox="0 0 303 190" fill="none" xmlns="http://www.w3.org/2000/svg">
<g clip-path="url(#clip0_1431_69284)">
<path d="M220.681 46.2713C220.681 64.5001 192.188 118.258 175.85 147.583C174.742 149.573 173.123 151.23 171.159 152.384C169.196 153.538 166.96 154.147 164.682 154.147C162.405 154.147 160.169 153.538 158.205 152.384C156.242 151.23 154.622 149.573 153.514 147.583C137.177 118.258 108.684 64.5001 108.684 46.2713C108.684 20.7164 133.755 0 164.682 0C195.61 0 220.681 20.7164 220.681 46.2713Z" fill="#6C63FF"/>
<path d="M164.946 76.242C181.789 76.242 195.443 62.588 195.443 45.745C195.443 28.902 181.789 15.248 164.946 15.248C148.103 15.248 134.449 28.902 134.449 45.745C134.449 62.588 148.103 76.242 164.946 76.242Z" fill="white"/>
<path d="M37.6834 73.3396C47.7717 73.3396 55.9499 65.1614 55.9499 55.0731C55.9499 44.9848 47.7717 36.8066 37.6834 36.8066C27.5952 36.8066 19.417 44.9848 19.417 55.0731C19.417 65.1614 27.5952 73.3396 37.6834 73.3396Z" fill="#FF6584"/>
<path d="M164.683 190C189.103 190 208.9 188.471 208.9 186.586C208.9 184.701 189.103 183.173 164.683 183.173C140.263 183.173 120.467 184.701 120.467 186.586C120.467 188.471 140.263 190 164.683 190Z" fill="#6C63FF"/>
<path opacity="0.4" d="M33.9647 71.3168C34.8944 65.5879 31.0038 60.19 25.2749 59.2603C19.546 58.3306 14.1482 62.2212 13.2185 67.9501C12.2888 73.679 16.1793 79.0769 21.9083 80.0066C27.6372 80.9362 33.035 77.0457 33.9647 71.3168Z" fill="#6C63FF"/>
<path d="M269.454 123.844C186.697 92.8208 85.7626 123.065 27.4871 184.932C27.1559 185.279 26.8246 185.632 26.5039 185.984H25.6152C25.9202 185.632 26.2357 185.279 26.5459 184.932C86.0308 118.359 185.624 91.8271 269.454 123.844Z" fill="#3F3D56"/>
<path d="M292.07 134.134C284.755 130.233 277.202 126.796 269.455 123.844C277.222 126.747 284.779 130.186 292.07 134.134Z" fill="#3F3D56"/>
<path opacity="0.4" d="M246.777 103.183C253.142 103.183 258.303 98.0222 258.303 91.6567C258.303 85.2912 253.142 80.1309 246.777 80.1309C240.411 80.1309 235.251 85.2912 235.251 91.6567C235.251 98.0222 240.411 103.183 246.777 103.183Z" fill="#6C63FF"/>
<path d="M248.06 180.311C248.951 183.604 252.002 185.643 252.002 185.643C252.002 185.643 253.608 182.344 252.718 179.051C251.827 175.759 248.776 173.72 248.776 173.72C248.776 173.72 247.169 177.019 248.06 180.311Z" fill="#3F3D56"/>
<path d="M249.369 179.604C251.813 181.983 252.112 185.64 252.112 185.64C252.112 185.64 248.447 185.44 246.003 183.061C243.559 180.682 243.261 177.024 243.261 177.024C243.261 177.024 246.925 177.224 249.369 179.604Z" fill="#6C63FF"/>
<path d="M2.65376 134.531V139.61L2.40137 139.884V134.479C2.4855 134.494 2.56965 134.515 2.65376 134.531Z" fill="#3F3D56"/>
<path d="M18.8382 184.93C18.7646 185.051 18.6857 185.172 18.6068 185.293H2.40137V134.783L2.65376 134.531L4.80432 136.976V133.4H11.6399V144.747L18.5437 152.587L18.6068 152.661C18.691 152.924 18.7698 153.187 18.8487 153.45C18.8492 153.454 18.8511 153.457 18.854 153.46C19.8894 156.774 20.739 160.142 21.3989 163.55C22.9027 171.59 22.6766 178.962 18.8382 184.93Z" fill="#CCCCCC"/>
<path d="M8.09103 162.45H3.74023V166.076H8.09103V162.45Z" fill="#3F3D56"/>
<path d="M8.09103 168.977H3.74023V172.602H8.09103V168.977Z" fill="#3F3D56"/>
<path d="M142.113 155.561L139.938 151.936L160.241 134.533C175.251 127.308 193.345 129.392 212.451 134.533V139.608L193.597 159.913L171.843 164.263L142.113 155.561Z" fill="#3F3D56"/>
<path d="M221.438 144.746C225.044 140.735 225.545 136.922 221.438 133.4H214.603V136.978L212.451 134.533L195.048 151.936L192.147 154.837L188.521 169.339L195.048 185.292H228.404V152.661L221.438 144.746Z" fill="#CCCCCC"/>
<path d="M139.937 151.937H195.047V185.293H139.937C133.27 178.079 136.734 164.932 139.937 151.937Z" fill="#F2F2F2"/>
<path d="M187.434 162.45H175.832V172.602H187.434V162.45Z" fill="#3F3D56"/>
<path d="M171.119 162.088H160.967V185.292H171.119V162.088Z" fill="#CCCCCC"/>
<path d="M149.364 165.713V162.088H145.014V165.713H149.001H149.364Z" fill="#3F3D56"/>
<path d="M149.001 168.614H145.014V172.24H149.364V168.614H149.001Z" fill="#3F3D56"/>
<path d="M156.615 162.088H152.265V165.714H156.615V162.088Z" fill="#3F3D56"/>
<path d="M156.615 168.614H152.265V172.24H156.615V168.614Z" fill="#3F3D56"/>
<path d="M210.638 166.076V162.45H206.287V166.076H210.275H210.638Z" fill="#3F3D56"/>
<path d="M210.275 168.977H206.287V172.602H210.638V168.977H210.275Z" fill="#3F3D56"/>
<path d="M217.889 162.45H213.538V166.076H217.889V162.45Z" fill="#3F3D56"/>
<path d="M217.889 168.977H213.538V172.602H217.889V168.977Z" fill="#3F3D56"/>
<path d="M43.9848 94.6513L40.3594 91.7504L60.663 73.6221H112.147V89.5751L78.7913 112.055L43.9848 94.6513Z" fill="#3F3D56"/>
<path d="M121.534 83.7912V73.9844H114.699V76.3862L112.147 73.6221L95.4693 91.7504L88.9434 96.1015L78.8242 170.032L94.0848 185.293H129.551C134.985 157.957 139.294 129.875 129.551 92.4755L121.534 83.7912Z" fill="#CCCCCC"/>
<path d="M40.3593 91.75H95.4693V185.292H40.3593C34.3287 148.952 31.3835 115.251 40.3593 91.75Z" fill="#F2F2F2"/>
<path d="M71.9028 162.45H61.751V185.292H71.9028V162.45Z" fill="#CCCCCC"/>
<path d="M50.874 168.977V165.352H46.5234V168.977H50.5117H50.874Z" fill="#3F3D56"/>
<path d="M50.5117 171.877H46.5234V175.503H50.874V171.877H50.5117Z" fill="#3F3D56"/>
<path d="M58.1252 165.351H53.7744V168.976H58.1252V165.351Z" fill="#3F3D56"/>
<path d="M80.2422 171.877H76.2539V175.503H80.6045V171.877H80.2422Z" fill="#3F3D56"/>
<path d="M87.8557 165.351H83.5049V168.976H87.8557V165.351Z" fill="#3F3D56"/>
<path d="M87.8557 171.877H83.5049V175.503H87.8557V171.877Z" fill="#3F3D56"/>
<path d="M111.06 96.4634V92.8379H106.709V96.4634H110.697H111.06Z" fill="#3F3D56"/>
<path d="M110.697 99.3643H106.709V102.99H111.06V99.3643H110.697Z" fill="#3F3D56"/>
<path d="M118.311 92.8379H113.96V96.4636H118.311V92.8379Z" fill="#3F3D56"/>
<path d="M118.311 99.3643H113.96V102.99H118.311V99.3643Z" fill="#3F3D56"/>
<path d="M111.06 116.768V113.142H106.709V116.768H110.697H111.06Z" fill="#3F3D56"/>
<path d="M110.697 119.668H106.709V123.293H111.06V119.668H110.697Z" fill="#3F3D56"/>
<path d="M118.311 113.142H113.96V116.767H118.311V113.142Z" fill="#3F3D56"/>
<path d="M118.311 119.668H113.96V123.294H118.311V119.668Z" fill="#3F3D56"/>
<path d="M111.06 137.071V133.445H106.709V137.071H110.697H111.06Z" fill="#3F3D56"/>
<path d="M110.697 139.972H106.709V143.597H111.06V139.972H110.697Z" fill="#3F3D56"/>
<path d="M118.311 133.445H113.96V137.071H118.311V133.445Z" fill="#3F3D56"/>
<path d="M118.311 139.972H113.96V143.597H118.311V139.972Z" fill="#3F3D56"/>
<path d="M111.06 157.375V153.749H106.709V157.375H110.697H111.06Z" fill="#3F3D56"/>
<path d="M110.697 160.275H106.709V163.901H111.06V160.275H110.697Z" fill="#3F3D56"/>
<path d="M118.311 153.749H113.96V157.375H118.311V153.749Z" fill="#3F3D56"/>
<path d="M118.311 160.275H113.96V163.901H118.311V160.275Z" fill="#3F3D56"/>
<path d="M46.5234 96.4639H88.5811V105.165C75.1003 101.445 61.0425 101.712 46.5234 105.165V96.4639Z" fill="#3F3D56"/>
<path d="M46.5234 113.867C59.6501 117.735 73.6693 117.735 88.5811 113.867V122.569H46.5234V113.867Z" fill="#3F3D56"/>
<path d="M46.5234 131.27H88.5811V139.971C74.248 135.394 60.2139 135.179 46.5234 139.971V131.27Z" fill="#3F3D56"/>
<path d="M46.5234 148.673C60.2397 153.959 74.2716 153.739 88.5811 148.673V157.374H46.5234V148.673Z" fill="#3F3D56"/>
<path d="M272.562 133.556H302.113V147.795L299.473 148.62L290.692 151.361L276.916 148.17L263.156 144.981L255.889 143.297L252.261 141.955C255.279 137.814 260.768 134.557 272.562 133.556Z" fill="#3F3D56"/>
<path d="M302.112 141.955V185.293H252.26C252.244 185.266 252.234 185.242 252.218 185.215V185.212C252.206 185.182 252.192 185.153 252.176 185.125C251.398 183.558 250.7 181.996 250.083 180.438C244.852 167.251 245.419 154.413 252.26 141.955H302.112Z" fill="#F2F2F2"/>
<path d="M283.804 162.45H273.652V185.292H283.804V162.45Z" fill="#CCCCCC"/>
<path d="M262.775 168.977V165.352H258.425V168.977H262.413H262.775Z" fill="#3F3D56"/>
<path d="M262.413 171.877H258.425V175.503H262.775V171.877H262.413Z" fill="#3F3D56"/>
<path d="M270.027 165.351H265.676V168.976H270.027V165.351Z" fill="#3F3D56"/>
<path d="M270.027 171.877H265.676V175.503H270.027V171.877Z" fill="#3F3D56"/>
<path d="M292.506 168.977V165.352H288.155V168.977H292.144H292.506Z" fill="#3F3D56"/>
<path d="M292.144 171.877H288.155V175.503H292.506V171.877H292.144Z" fill="#3F3D56"/>
<path d="M299.757 165.351H295.406V168.976H299.757V165.351Z" fill="#3F3D56"/>
<path d="M299.757 171.877H295.406V175.503H299.757V171.877Z" fill="#3F3D56"/>
<path d="M263.157 116.729H269.407C275.571 116.729 281.483 119.178 285.841 123.537C290.2 127.895 292.649 133.807 292.649 139.971H263.157V116.729Z" fill="#3F3D56"/>
<path d="M73.8652 53.6328H80.1149C86.279 53.6328 92.1906 56.0815 96.5492 60.4401C100.908 64.7988 103.357 70.7104 103.357 76.8744H73.8652V53.6328Z" fill="#3F3D56"/>
<path d="M173.77 111.997H180.019C186.183 111.997 192.095 114.446 196.454 118.804C200.812 123.163 203.261 129.075 203.261 135.239H173.77V111.997Z" fill="#3F3D56"/>
<path d="M292.649 148.673H263.157V157.374H292.649V148.673Z" fill="#3F3D56"/>
<path d="M302.113 184.933H2.40137V185.984H302.113V184.933Z" fill="#3F3D56"/>
<path d="M30.0438 143.392H28.9922V184.931H30.0438V143.392Z" fill="#3F3D56"/>
<path d="M39.7488 148.684C39.8158 163.21 29.5966 175.032 29.5966 175.032C29.5966 175.032 16.5095 163.053 19.2019 148.779C21.9096 134.424 30.3485 122.493 29.3541 122.432C29.3541 122.432 39.6819 134.159 39.7488 148.684Z" fill="#6C63FF"/>
<path d="M135.205 143.392H134.153V184.931H135.205V143.392Z" fill="#3F3D56"/>
<path d="M144.911 148.684C145.858 163.179 134.758 175.032 134.758 175.032C134.758 175.032 124.431 163.304 124.364 148.779C124.297 134.254 134.516 122.432 134.516 122.432C133.52 126.413 144.144 136.957 144.911 148.684Z" fill="#6C63FF"/>
<path d="M66.8828 75.8685L112.562 73.6338L131.724 89.6284L128.336 92.687L97.9924 92.004L66.8828 75.8685Z" fill="#3F3D56"/>
<path d="M21.3039 150.096L18.8431 152.32L18.5434 152.588L17.9177 153.156L2.40105 152.809V134.479C1.89628 134.369 1.3915 134.264 0.886719 134.164L2.14341 134.101L2.40105 134.316L4.80401 136.319L11.6395 142.03L19.2743 148.403L21.3039 150.096Z" fill="#3F3D56"/>
<path d="M166.786 136.336L212.465 134.102L231.627 150.096L228.24 153.155L197.896 152.472L166.786 136.336Z" fill="#3F3D56"/>
</g>
<defs>
<clipPath id="clip0_1431_69284">
<rect width="301.226" height="190" fill="white" transform="translate(0.886719)"/>
</clipPath>
</defs>
</svg>
