<svg xmlns="http://www.w3.org/2000/svg" width="17" height="17" viewBox="0 0 17 17" fill="none">
  <g clip-path="url(#clip0_1431_62845)">
    <path d="M8.53401 6.99952C8.53401 5.89952 7.63401 4.99952 6.53401 4.99952C5.43401 4.99952 4.53401 5.89952 4.53401 6.99952C4.53401 8.09952 5.43401 8.99952 6.53401 8.99952C7.63401 8.99952 8.53401 8.09952 8.53401 6.99952ZM6.53401 7.66618C6.16734 7.66618 5.86734 7.36618 5.86734 6.99952C5.86734 6.63285 6.16734 6.33285 6.53401 6.33285C6.90068 6.33285 7.20068 6.63285 7.20068 6.99952C7.20068 7.36618 6.90068 7.66618 6.53401 7.66618ZM10.8673 8.99952C11.6073 8.99952 12.2007 8.40619 12.2007 7.66618C12.2007 6.92618 11.6073 6.33285 10.8673 6.33285C10.1273 6.33285 9.52734 6.92618 9.53401 7.66618C9.53401 8.40619 10.1273 8.99952 10.8673 8.99952ZM8.19401 1.67285C4.51401 1.67285 1.52734 4.65952 1.52734 8.33952C1.52734 12.0195 4.51401 15.0062 8.19401 15.0062C11.874 15.0062 14.8607 12.0195 14.8607 8.33952C14.8607 4.65952 11.874 1.67285 8.19401 1.67285ZM4.09401 11.7462C4.54734 11.3862 5.60734 11.0062 6.53401 11.0062C6.58068 11.0062 6.63401 11.0129 6.68734 11.0129C6.84734 10.5862 7.13401 10.1529 7.55401 9.77285C7.18068 9.70619 6.82734 9.66618 6.53401 9.66618C5.66734 9.66618 4.27401 9.96619 3.38068 10.6195C3.04734 9.92619 2.86068 9.15285 2.86068 8.33285C2.86068 5.39285 5.25401 2.99952 8.19401 2.99952C11.134 2.99952 13.5273 5.39285 13.5273 8.33285C13.5273 9.13285 13.3473 9.89285 13.0273 10.5795C12.3607 10.1862 11.454 9.99952 10.8673 9.99952C9.85401 9.99952 7.86734 10.5395 7.86734 11.7995V13.6529C6.35401 13.5662 5.00734 12.8462 4.09401 11.7462Z" fill="white"/>
  </g>
  <defs>
    <clipPath id="clip0_1431_62845">
      <rect width="16" height="16" fill="white" transform="translate(0.200195 0.333008)"/>
    </clipPath>
  </defs>
</svg>