<svg xmlns="http://www.w3.org/2000/svg" width="16" height="17" viewBox="0 0 16 17" fill="none">
  <g clip-path="url(#clip0_1425_61995)">
    <path d="M15.725 14.7213L13.225 9.72132C13.2041 9.67957 13.172 9.6445 13.1322 9.62006C13.0925 9.59563 13.0467 9.58282 13 9.58307H10.2565L11.6875 7.04007C12.0538 6.39136 12.2478 5.65967 12.2512 4.9147C12.2546 4.16974 12.0671 3.43632 11.7067 2.78432C11.3696 2.15615 10.8772 1.62478 10.2765 1.24085C9.67572 0.856925 8.98669 0.633225 8.275 0.59107C8.09249 0.58032 7.90951 0.58032 7.727 0.59107C7.01497 0.632892 6.32552 0.856436 5.72441 1.24038C5.12331 1.62433 4.63059 2.15587 4.29325 2.78432C3.93286 3.43632 3.74542 4.16974 3.74879 4.9147C3.75216 5.65967 3.94623 6.39136 4.3125 7.04007L5.7435 9.58307H3C2.95354 9.58305 2.908 9.59597 2.86847 9.62039C2.82895 9.64481 2.79702 9.67976 2.77625 9.72132L0.27625 14.7213C0.258951 14.756 0.249964 14.7943 0.25 14.8331V15.8331C0.25 15.8994 0.276339 15.963 0.323223 16.0098C0.370108 16.0567 0.433696 16.0831 0.5 16.0831H15.5C15.5663 16.0831 15.6299 16.0567 15.6768 16.0098C15.7237 15.963 15.75 15.8994 15.75 15.8331V14.8331C15.7504 14.7944 15.7419 14.7561 15.725 14.7213ZM7.75 13.5831V14.5831H4.57025L5.07025 12.5831H7.43175L7.78175 13.2056C7.80348 13.2443 7.83513 13.2765 7.87345 13.2989C7.91176 13.3214 7.95535 13.3332 7.99975 13.3332C8.04415 13.3332 8.08774 13.3214 8.12605 13.2989C8.16437 13.2765 8.19602 13.2443 8.21775 13.2056L8.56775 12.5831H10.929L11.429 14.5831H8.25V13.5831H7.75ZM0.9045 14.5831L1.9045 12.5831H4.5545L4.0545 14.5831H0.9045ZM11.945 14.5831L11.445 12.5831H14.095L15.095 14.5831H11.945ZM13.845 12.0831H11.32L10.82 10.0831H12.845L13.845 12.0831ZM10.3045 10.0831L10.8045 12.0831H8.85L9.227 11.4131L9.32375 11.5098C9.37063 11.5567 9.43421 11.583 9.5005 11.583C9.56679 11.583 9.63037 11.5567 9.67725 11.5098L10.1772 11.0098L9.82375 10.6563L9.5 10.9796L9.48125 10.9608L9.975 10.0831H10.3045ZM4.732 3.02432C5.02886 2.47056 5.46259 2.00206 5.99186 1.66346C6.52114 1.32487 7.1283 1.12747 7.7555 1.09007C7.8365 1.0854 7.918 1.08307 8 1.08307C8.082 1.08307 8.16358 1.0854 8.24475 1.09007C8.8719 1.12751 9.47902 1.32493 10.0082 1.66352C10.5375 2.00212 10.9712 2.4706 11.268 3.02432C11.5875 3.60194 11.7537 4.25176 11.7508 4.91184C11.7479 5.57193 11.576 6.22027 11.2515 6.79507L8 12.5733L4.7485 6.79507C4.42396 6.22027 4.25205 5.57193 4.24917 4.91184C4.24628 4.25176 4.4125 3.60194 4.732 3.02432ZM6.51875 10.9608L6.5 10.9796L6.17675 10.6563L5.82325 11.0098L6.32325 11.5098C6.37013 11.5567 6.43371 11.583 6.5 11.583C6.56629 11.583 6.62987 11.5567 6.67675 11.5098L6.7735 11.4131L7.15 12.0831H5.19525L5.69525 10.0831H6.025L6.51875 10.9608ZM3.1545 10.0831H5.1795L4.6795 12.0831H2.1545L3.1545 10.0831ZM0.75 15.5831V15.0831H15.25V15.5831H0.75Z" fill="white"/>
    <path d="M6.24999 13.4795L5.92674 13.1562L5.57324 13.5098L6.07324 14.0098C6.12012 14.0566 6.1837 14.0829 6.24999 14.0829C6.31628 14.0829 6.37986 14.0566 6.42674 14.0098L6.92674 13.5098L6.57324 13.1562L6.24999 13.4795Z" fill="white"/>
    <path d="M9.49999 14.083C9.56629 14.083 9.62987 14.0566 9.67674 14.0098L10.1767 13.5098L9.82324 13.1562L9.49999 13.4795L9.17674 13.1562L8.82324 13.5098L9.32324 14.0098C9.37012 14.0566 9.43369 14.083 9.49999 14.083Z" fill="white"/>
    <path d="M12.0732 11.5098C12.1201 11.5566 12.1837 11.5829 12.25 11.5829C12.3163 11.5829 12.3799 11.5566 12.4267 11.5098L12.9267 11.0098L12.5732 10.6562L12.25 10.9795L11.9267 10.6562L11.5732 11.0098L12.0732 11.5098Z" fill="white"/>
    <path d="M13.3232 13.1562L13 13.4795L12.6767 13.1562L12.3232 13.5098L12.8232 14.0098C12.8701 14.0566 12.9337 14.0829 13 14.0829C13.0663 14.0829 13.1299 14.0566 13.1767 14.0098L13.6767 13.5098L13.3232 13.1562Z" fill="white"/>
    <path d="M3.32324 13.1562L2.99999 13.4795L2.67674 13.1562L2.32324 13.5098L2.82324 14.0098C2.87012 14.0566 2.9337 14.0829 2.99999 14.0829C3.06628 14.0829 3.12986 14.0566 3.17674 14.0098L3.67674 13.5098L3.32324 13.1562Z" fill="white"/>
    <path d="M3.57324 11.5098C3.62012 11.5566 3.6837 11.5829 3.74999 11.5829C3.81628 11.5829 3.87986 11.5566 3.92674 11.5098L4.42674 11.0098L4.07324 10.6562L3.74999 10.9795L3.42674 10.6562L3.07324 11.0098L3.57324 11.5098Z" fill="white"/>
    <path d="M11.25 4.83301C11.25 4.19022 11.0594 3.56187 10.7023 3.02741C10.3452 2.49295 9.83758 2.07639 9.24372 1.8304C8.64986 1.58442 7.9964 1.52006 7.36596 1.64546C6.73552 1.77086 6.15642 2.08039 5.7019 2.53491C5.24738 2.98943 4.93785 3.56853 4.81245 4.19897C4.68705 4.8294 4.75141 5.48287 4.99739 6.07673C5.24338 6.67059 5.65994 7.17817 6.1944 7.53529C6.72886 7.8924 7.35721 8.08301 8 8.08301C8.86165 8.08202 9.68772 7.73929 10.297 7.13001C10.9063 6.52073 11.249 5.69466 11.25 4.83301ZM5.25 4.83301C5.25 4.28911 5.41129 3.75743 5.71346 3.30519C6.01563 2.85296 6.44512 2.50048 6.94762 2.29234C7.45012 2.0842 8.00305 2.02974 8.5365 2.13585C9.06995 2.24196 9.55995 2.50387 9.94455 2.88847C10.3291 3.27306 10.5911 3.76306 10.6972 4.29651C10.8033 4.82996 10.7488 5.38289 10.5407 5.88539C10.3325 6.38789 9.98005 6.81738 9.52782 7.11955C9.07558 7.42172 8.5439 7.58301 8 7.58301C7.27092 7.58215 6.57195 7.29214 6.05641 6.7766C5.54087 6.26106 5.25086 5.56209 5.25 4.83301Z" fill="white"/>
    <path d="M9.49995 6.58295V5.08295H9.74995C9.79938 5.08294 9.84771 5.06828 9.88881 5.0408C9.92991 5.01333 9.96195 4.97429 9.98087 4.92862C9.99978 4.88294 10.0047 4.83268 9.99509 4.7842C9.98545 4.73571 9.96165 4.69117 9.9267 4.6562L8.1767 2.9062C8.12981 2.85934 8.06624 2.83301 7.99995 2.83301C7.93366 2.83301 7.87008 2.85934 7.8232 2.9062L6.0732 4.6562C6.03824 4.69117 6.01444 4.73571 6.0048 4.7842C5.99516 4.83268 6.00011 4.88294 6.01903 4.92862C6.03794 4.97429 6.06998 5.01333 6.11108 5.0408C6.15218 5.06828 6.20051 5.08294 6.24995 5.08295H6.49995V6.58295C6.49995 6.64926 6.52629 6.71285 6.57317 6.75973C6.62005 6.80662 6.68364 6.83295 6.74995 6.83295H9.24995C9.31625 6.83295 9.37984 6.80662 9.42672 6.75973C9.47361 6.71285 9.49995 6.64926 9.49995 6.58295ZM7.99995 3.43645L9.14645 4.58295H6.85345L7.99995 3.43645ZM8.24995 6.33295H7.74995V5.83295H8.24995V6.33295ZM8.74995 6.33295V5.58295C8.74995 5.51665 8.72361 5.45306 8.67672 5.40618C8.62984 5.35929 8.56625 5.33295 8.49995 5.33295H7.49995C7.43364 5.33295 7.37005 5.35929 7.32317 5.40618C7.27629 5.45306 7.24995 5.51665 7.24995 5.58295V6.33295H6.99995V5.08295H8.99995V6.33295H8.74995Z" fill="white"/>
  </g>
  <defs>
    <clipPath id="clip0_1425_61995">
      <rect width="16" height="16" fill="white" transform="translate(0 0.333008)"/>
    </clipPath>
  </defs>
</svg>