<svg xmlns="http://www.w3.org/2000/svg" width="25" height="25" viewBox="0 0 25 25" fill="none">
  <mask id="mask0_1549_20481" style="mask-type:luminance" maskUnits="userSpaceOnUse" x="0" y="0" width="25" height="25">
    <path d="M0.400391 0.33301H24.4004V24.333H0.400391V0.33301Z" fill="white"/>
  </mask>
  <g mask="url(#mask0_1549_20481)">
    <path d="M2.27539 10.2079V9.94221C2.27539 5.67748 5.74503 2.20783 10.0098 2.20783C14.0167 2.20783 17.3215 5.27079 17.7064 9.17824L19.5857 10.8926C19.6074 10.6614 19.6191 10.4329 19.6191 10.2079V9.94221C19.6191 4.6436 15.3084 0.332834 10.0098 0.332834C4.71116 0.332834 0.400391 4.6436 0.400391 9.94221V10.2079C0.400391 12.8876 1.93677 16.0103 4.96686 19.4892C7.16352 22.0112 9.32947 23.7697 9.42059 23.8434L10.0098 24.3193V21.8826C8.10987 20.218 2.27539 14.7362 2.27539 10.2079Z" fill="black"/>
    <path d="M18.5879 20.5361H15.7754V17.7236H18.5879V20.5361Z" fill="black"/>
    <path d="M6.96289 9.94238C6.96289 8.25966 8.32705 6.89551 10.0098 6.89551C11.6925 6.89551 13.0566 8.25966 13.0566 9.94238C13.0566 11.6251 11.6925 12.9893 10.0098 12.9893C8.32705 12.9893 6.96289 11.6251 6.96289 9.94238Z" stroke="black" stroke-width="2" stroke-miterlimit="10" stroke-linecap="round" stroke-linejoin="round"/>
    <path d="M21.7313 16.6922V21.7911C21.7313 22.6771 21.013 23.3955 20.1269 23.3955H14.1904C13.3043 23.3955 12.5859 22.6771 12.5859 21.7911V16.6922" stroke="black" stroke-width="2" stroke-miterlimit="10"/>
    <path d="M23.1348 17.9375L17.1582 12.4852L11.1816 17.9375" stroke="black" stroke-width="2" stroke-miterlimit="10" stroke-linecap="square"/>
  </g>
</svg>