<svg xmlns="http://www.w3.org/2000/svg" width="44" height="44" viewBox="0 0 44 44" fill="none">
  <path d="M32 43.5C29.7255 43.5 27.5021 42.8255 25.6109 41.5619C23.7198 40.2983 22.2458 38.5022 21.3754 36.4009C20.505 34.2995 20.2772 31.9872 20.721 29.7565C21.1647 27.5257 22.26 25.4766 23.8683 23.8683C25.4766 22.26 27.5257 21.1647 29.7565 20.721C31.9872 20.2772 34.2995 20.505 36.4009 21.3754C38.5022 22.2458 40.2983 23.7198 41.5619 25.6109C42.8255 27.5021 43.5 29.7255 43.5 32C43.4963 35.0489 42.2835 37.9718 40.1276 40.1276C37.9718 42.2835 35.0489 43.4963 32 43.5ZM32 23.5C30.3189 23.5 28.6755 23.9985 27.2777 24.9325C25.8798 25.8665 24.7904 27.194 24.147 28.7472C23.5037 30.3004 23.3354 32.0094 23.6633 33.6583C23.9913 35.3071 24.8009 36.8217 25.9896 38.0104C27.1783 39.1992 28.6929 40.0087 30.3417 40.3367C31.9906 40.6647 33.6996 40.4963 35.2528 39.853C36.806 39.2096 38.1335 38.1202 39.0675 36.7224C40.0015 35.3245 40.5 33.6811 40.5 32C40.4974 29.7465 39.601 27.586 38.0075 25.9925C36.414 24.399 34.2535 23.5027 32 23.5Z" fill="white"/>
  <path d="M30 43.5H6C4.54163 43.4989 3.1433 42.9191 2.11208 41.8879C1.08086 40.8567 0.501059 39.4584 0.5 38V6C0.501059 4.54163 1.08086 3.1433 2.11208 2.11208C3.1433 1.08086 4.54163 0.501059 6 0.5H30C31.4584 0.501059 32.8567 1.08086 33.8879 2.11208C34.9191 3.1433 35.4989 4.54163 35.5 6V22.2C35.5 22.5978 35.342 22.9794 35.0607 23.2607C34.7794 23.542 34.3978 23.7 34 23.7C33.6022 23.7 33.2206 23.542 32.9393 23.2607C32.658 22.9794 32.5 22.5978 32.5 22.2V6C32.4989 5.33728 32.2352 4.70201 31.7666 4.2334C31.298 3.76479 30.6627 3.50106 30 3.5H6C5.33728 3.50106 4.70201 3.76479 4.2334 4.2334C3.76479 4.70201 3.50106 5.33728 3.5 6V38C3.50106 38.6627 3.76479 39.298 4.2334 39.7666C4.70201 40.2352 5.33728 40.4989 6 40.5H30C30.1538 40.5046 30.3076 40.4905 30.458 40.458C30.6784 40.4101 30.9067 40.4116 31.1265 40.4624C31.3463 40.5133 31.552 40.6121 31.7291 40.7519C31.9061 40.8916 32.05 41.0688 32.1505 41.2708C32.2509 41.4728 32.3054 41.6945 32.31 41.92C32.312 42.2814 32.1827 42.6313 31.9462 42.9046C31.7097 43.1779 31.382 43.3561 31.024 43.406C30.6868 43.4721 30.3436 43.5036 30 43.5Z" fill="white"/>
  <path d="M24 13.5H10C9.60218 13.5 9.22064 13.342 8.93934 13.0607C8.65804 12.7794 8.5 12.3978 8.5 12C8.5 11.6022 8.65804 11.2206 8.93934 10.9393C9.22064 10.658 9.60218 10.5 10 10.5H24C24.3978 10.5 24.7794 10.658 25.0607 10.9393C25.342 11.2206 25.5 11.6022 25.5 12C25.5 12.3978 25.342 12.7794 25.0607 13.0607C24.7794 13.342 24.3978 13.5 24 13.5Z" fill="white"/>
  <path d="M20 21.5H10C9.60218 21.5 9.22064 21.342 8.93934 21.0607C8.65804 20.7794 8.5 20.3978 8.5 20C8.5 19.6022 8.65804 19.2206 8.93934 18.9393C9.22064 18.658 9.60218 18.5 10 18.5H20C20.3978 18.5 20.7794 18.658 21.0607 18.9393C21.342 19.2206 21.5 19.6022 21.5 20C21.5 20.3978 21.342 20.7794 21.0607 21.0607C20.7794 21.342 20.3978 21.5 20 21.5Z" fill="white"/>
  <path d="M31.0003 35.5C30.8033 35.5005 30.6081 35.4618 30.4262 35.3863C30.2442 35.3108 30.0791 35.1999 29.9403 35.06L27.9403 33.06C27.7929 32.9227 27.6747 32.7571 27.5927 32.5731C27.5108 32.3891 27.4667 32.1905 27.4631 31.989C27.4596 31.7876 27.4966 31.5876 27.5721 31.4008C27.6475 31.214 27.7598 31.0444 27.9022 30.9019C28.0447 30.7595 28.2143 30.6472 28.4011 30.5718C28.5879 30.4963 28.7879 30.4593 28.9894 30.4628C29.1908 30.4664 29.3894 30.5105 29.5734 30.5924C29.7574 30.6744 29.923 30.7926 30.0603 30.94L31.0003 31.878L33.9403 28.94C34.0776 28.7926 34.2432 28.6744 34.4272 28.5924C34.6112 28.5105 34.8099 28.4664 35.0113 28.4628C35.2127 28.4593 35.4127 28.4963 35.5995 28.5718C35.7863 28.6472 35.9559 28.7595 36.0984 28.9019C36.2408 29.0444 36.3531 29.214 36.4286 29.4008C36.504 29.5876 36.541 29.7876 36.5375 29.989C36.5339 30.1905 36.4899 30.3891 36.4079 30.5731C36.3259 30.7571 36.2077 30.9227 36.0603 31.06L32.0603 35.06C31.9216 35.1999 31.7564 35.3108 31.5744 35.3863C31.3925 35.4618 31.1973 35.5005 31.0003 35.5Z" fill="white"/>
</svg>